<?xml version="1.0" encoding="UTF-8"?>
<svg width="14" height="14" version="1.1" viewBox="0 0 3.7042 3.7042" xmlns="http://www.w3.org/2000/svg" xmlns:cc="http://creativecommons.org/ns#" xmlns:dc="http://purl.org/dc/elements/1.1/" xmlns:rdf="http://www.w3.org/1999/02/22-rdf-syntax-ns#">
<metadata>
<rdf:RDF>
<cc:Work rdf:about="">
<dc:format>image/svg+xml</dc:format>
<dc:type rdf:resource="http://purl.org/dc/dcmitype/StillImage"/>
<dc:title/>
</cc:Work>
</rdf:RDF>
</metadata>
<g transform="translate(0 -293.3)">
<path d="m2.4812 293.3c-0.011286 6e-3 -0.011865 7e-3 -0.062795 0.0952-0.021703 0.0382-0.039934 0.0698-0.040513 0.0703-2.894e-4 5.8e-4 -0.010996-5e-3 -0.024018-0.0127-0.020835-0.0119-0.024886-0.0133-0.036462-0.0122-0.00695 8.7e-4 -0.015916 4e-3 -0.019678 6e-3 -0.00434 3e-3 -0.049484 0.0781-0.11112 0.18495-1.0322 1.7875-0.97173 1.6816-0.97173 1.6961 0 0.0188 0.00695 0.0266 0.040802 0.0466 0.015626 9e-3 0.030385 0.018 0.0327 0.0191 0.00289 2e-3 -0.00839 0.0237-0.049484 0.0946-0.065399 0.11288-0.063084 0.10825-0.063084 0.12214 0 0.0226 0.00347 0.0252 0.13745 0.10246 0.10765 0.0622 0.12588 0.0718 0.1363 0.0718 0.022861 0 0.026333-5e-3 0.087103-0.10969 0.030674-0.0533 0.057008-0.0981 0.058454-0.0996 0.00174-2e-3 0.01418 4e-3 0.034147 0.0148 0.017073 0.01 0.034725 0.0185 0.039066 0.0194 0.011286 3e-3 0.026912-3e-3 0.036172-0.0142 0.00434-5e-3 0.10331-0.17424 0.21935-0.37597 0.11633-0.20145 0.21269-0.36642 0.21414-0.36671 0.00174 0 0.01852 0.0122 0.037619 0.0266 0.042249 0.0327 0.12241 0.11173 0.15482 0.15254 0.12356 0.15658 0.19244 0.33921 0.20228 0.5366 0.011286 0.22605-0.056718 0.44081-0.19649 0.622-0.033279 0.0431-0.10852 0.11953-0.15192 0.15397-0.12038 0.0961-0.26276 0.1618-0.41092 0.18958-0.084498 0.0159-0.070608 0.0156-0.53969 0.0174-0.40947 2e-3 -0.43638 2e-3 -0.44362 7e-3 -0.017363 0.0113-0.016784 4e-3 -0.015916 0.22025l8.6813e-4 0.19798 0.007234 8e-3c0.004051 4e-3 0.010707 0.01 0.015048 0.0119 0.006656 3e-3 0.17073 4e-3 1.1228 4e-3 1.1074 0 1.115 0 1.1245-6e-3 0.00521-3e-3 0.011864-0.01 0.015048-0.015 0.0055-9e-3 0.00579-0.0151 0.00579-0.20289 0-0.17395-5.788e-4 -0.19479-0.00463-0.20376-0.010128-0.0208 0.00405-0.0194-0.23208-0.0211l-0.21211-1e-3 0.02778-0.0318c0.16581-0.18957 0.27867-0.42575 0.31947-0.67003 0.015048-0.088 0.01852-0.13401 0.01881-0.23155 0-0.0891-0.00203-0.12156-0.013022-0.19971-0.047458-0.34066-0.22658-0.65643-0.49426-0.87264-0.029517-0.0237-0.087681-0.0672-0.10707-0.0796l-0.00666-5e-3 0.20864-0.36093c0.11488-0.19884 0.20951-0.36497 0.21038-0.3696 0.00405-0.0191-0.00897-0.0373-0.03733-0.0521-0.00752-4e-3 -0.013601-8e-3 -0.013601-9e-3s0.020256-0.0373 0.044854-0.0805c0.048905-0.0851 0.05122-0.0926 0.039355-0.11172-0.00405-7e-3 -0.041381-0.0295-0.1525-0.0938-0.15713-0.0909-0.1606-0.0923-0.18028-0.0825z"/>
<path d="m0.7782 295.58c-0.006366 2e-3 -0.013601 6e-3 -0.016205 9e-3 -0.006656 7e-3 -0.094916 0.16005-0.098678 0.17134-0.004051 0.0116-0.001447 0.0258 0.006945 0.0356 0.003473 4e-3 0.20256 0.12127 0.46069 0.27062l0.45432 0.26281h0.016494c0.01418 0 0.017652-1e-3 0.025176-8e-3 0.00868-8e-3 0.096073-0.15803 0.10157-0.17452 0.00463-0.0133-5.787e-4 -0.0307-0.012443-0.0397-0.00781-6e-3 -0.20459-0.11982-0.79926-0.46338-0.05556-0.0321-0.10389-0.0599-0.10707-0.0614-0.010996-5e-3 -0.020256-6e-3 -0.031542-2e-3z"/>
</g>
</svg>