<?xml version="1.0" encoding="UTF-8" standalone="no"?>
<!-- Created with Inkscape (http://www.inkscape.org/) -->

<svg
   xmlns:dc="http://purl.org/dc/elements/1.1/"
   xmlns:cc="http://creativecommons.org/ns#"
   xmlns:rdf="http://www.w3.org/1999/02/22-rdf-syntax-ns#"
   xmlns:svg="http://www.w3.org/2000/svg"
   xmlns="http://www.w3.org/2000/svg"
   xmlns:sodipodi="http://sodipodi.sourceforge.net/DTD/sodipodi-0.dtd"
   xmlns:inkscape="http://www.inkscape.org/namespaces/inkscape"
   version="1.1"
   id="svg5326"
   width="14"
   height="14"
   viewBox="0 0 155.52 154.56"
   sodipodi:docname="fffff.svg"
   shape-rendering="crispEdges"
   inkscape:version="0.92.3 (2405546, 2018-03-11)">
  <metadata
     id="metadata5332">
    <rdf:RDF>
      <cc:Work
         rdf:about="">
        <dc:format>image/svg+xml</dc:format>
        <dc:type
           rdf:resource="http://purl.org/dc/dcmitype/StillImage" />
        <dc:title></dc:title>
      </cc:Work>
    </rdf:RDF>
  </metadata>
  <defs
     id="defs5330" />
  <sodipodi:namedview
     pagecolor="#ffffff"
     bordercolor="#666666"
     borderopacity="1"
     objecttolerance="10"
     gridtolerance="10"
     guidetolerance="10"
     inkscape:pageopacity="0"
     inkscape:pageshadow="2"
     inkscape:window-width="1104"
     inkscape:window-height="842"
     id="namedview5328"
     showgrid="false"
     inkscape:zoom="3.0538303"
     inkscape:cx="75.603572"
     inkscape:cy="61.323887"
     inkscape:window-x="0"
     inkscape:window-y="0"
     inkscape:window-maximized="0"
     inkscape:current-layer="svg5326" />
  <g
     id="g5340"
     transform="translate(-0.04093041,-0.04093242)">
    <path
       style="stroke-width:0.31999999"
       d="m 68.461683,154.43666 c -0.09807,-0.099 -1.970073,-0.31895 -4.16,-0.48882 C 56.839571,153.369 46.311405,149.49691 37.116109,143.94942 25.429208,136.89876 15.040261,125.86824 9.13468,114.24 4.1679194,104.46032 1.1084127,94.981814 0.5615457,87.68 -0.11595438,78.633965 0.32149315,64.978886 1.4329119,60.48 6.2010592,41.179123 16.198623,25.592844 30.908895,14.526714 40.874666,7.0297421 54.096038,1.2612307 63.2,0.43804275 67.610787,0.03921553 89.57104,0.1119671 93.6,0.53875414 103.13058,1.548327 117.10489,7.9880067 127.04,15.948662 c 9.16596,7.344363 15.96864,15.8951 21.2984,26.771338 4.13268,8.433418 6.24166,15.239482 6.74274,21.76 0.38871,5.058339 0.33018,21.036275 -0.095,25.92 -0.68594,7.879706 -4.66343,18.70867 -10.27588,27.97667 -9.03283,14.91616 -23.99118,26.87699 -41.02973,32.80772 -4.875396,1.69701 -8.124433,2.48489 -11.52058,2.79367 -3.646621,0.33156 -23.444582,0.71468 -23.698317,0.4586 z M 66.964525,145.44 c 1.498288,-4.69994 5.201798,-17.23399 5.490489,-18.58187 l 0.210301,-0.98187 -3.604259,-0.71113 C 59.931846,123.36391 52.290963,119.56428 45.201494,113.30034 43.59527,111.88116 42.13575,110.72 41.958118,110.72 41.398704,110.72 26.24,128.23768 26.24,128.88415 c 0,1.00915 8.523331,8.01225 13.44,11.04283 7.164774,4.41629 21.16208,9.66357 25.110189,9.41326 0.922477,-0.0585 0.985885,-0.17222 2.174336,-3.90024 z m 65.484985,-18.89169 c 8.10216,-8.52947 14.69641,-21.07121 17.33977,-32.978864 0.39443,-1.776806 0.63648,-3.440755 0.53789,-3.697667 C 150.2194,89.590918 147.6144,88.61847 143.79396,87.432922 137.14139,85.368512 127.50885,82.56 127.08099,82.56 c -0.13735,0 -0.55564,1.548 -0.92954,3.44 -0.88975,4.502269 -1.97934,7.742317 -4.1086,12.217379 -2.16451,4.549181 -4.45141,8.011021 -7.78293,11.781611 -1.41896,1.60596 -2.57992,3.06688 -2.57992,3.2465 0,0.54628 17.47615,15.69689 18.11932,15.70819 0.19762,0.003 1.39021,-1.07894 2.65019,-2.40537 z M 86.08,120.4518 c 8.620163,-1.48315 16.31188,-5.55988 22.88446,-12.12913 6.70496,-6.70155 10.41283,-13.501592 12.37187,-22.689371 0.98119,-4.601705 0.97866,-12.436246 -0.005,-17.05359 -1.79152,-8.405149 -5.48168,-15.515258 -11.21624,-21.61113 -2.28876,-2.43296 -6.03703,-5.542227 -8.86046,-7.349929 C 97.343994,37.115184 90.752189,34.555808 86.145446,33.752461 80.49471,32.767053 70.889107,33.247405 65.599997,34.779885 53.371562,38.322982 42.030544,48.598186 37.305062,60.415696 c -6.72565,16.819555 -3.021731,35.058432 9.702189,47.775584 7.533015,7.52901 16.330912,11.71691 27.072746,12.88693 2.307312,0.25131 8.898272,-0.0927 12,-0.62641 z M 29.920518,68.56 C 31.486405,59.774467 35.953066,50.826221 42.281066,43.797606 43.49048,42.454291 44.48,41.196627 44.48,41.0028 44.48,40.442842 26.979613,25.28 26.333329,25.28 c -0.354518,0 -3.387453,3.134746 -5.572925,5.76 C 17.244692,35.263178 13.3582,41.574435 10.868992,47.102621 8.5156906,52.328976 6.0635933,60.432323 5.9684477,63.297251 L 5.92,64.756061 8.8,65.683539 c 7.56254,2.435447 19.272236,5.953824 19.882213,5.973952 C 29.2971,71.677779 29.419307,71.37209 29.920518,68.56 Z M 117.01101,40.72 c 3.59456,-4.008486 12.72748,-14.775737 12.8654,-15.167652 0.29482,-0.837799 -6.12142,-6.386147 -11.5264,-9.967279 C 112.28081,11.563854 105.78197,8.5363885 98.57153,6.3713248 94.750422,5.2239693 90.982294,4.5663747 90.583933,4.9773693 90.146282,5.4288954 83.52,27.01827 83.52,27.992666 c 0,0.223518 1.447754,0.661713 3.56905,1.080251 4.596377,0.906879 7.560678,1.905763 12.088329,4.073422 4.598341,2.201498 8.079631,4.510749 11.727281,7.779053 1.57043,1.407123 3.02187,2.56655 3.22541,2.576506 0.20355,0.01 1.49997,-1.241898 2.88094,-2.781898 z"
       id="path5362"
       inkscape:connector-curvature="0" />
    <path
       style="stroke-width:0.31999999"
       d="M 66.24,154.18754 C 56.701302,153.0761 46.721686,149.52665 37.436109,143.94285 28.270116,138.43096 19.656216,130.22792 13.188821,120.85211 7.1422374,112.08635 1.5132302,97.008563 0.56570438,87.04 -0.16287722,79.374867 0.24520776,67.334822 1.4225442,61.76 5.4490154,42.694198 15.994036,25.980039 31.213104,14.541112 41.576963,6.7514499 54.021302,1.522588 65.12,0.29411627 69.000864,-0.13544137 89.847104,0.07037417 93.6,0.57530013 98.812099,1.2765519 107.83989,4.4255475 114.15549,7.7452842 129.04506,15.571857 140.80586,27.661391 148.17919,42.72 c 4.13461,8.444144 6.30537,15.845427 7.03907,24 0.42055,4.674029 0.24467,18.940224 -0.29389,23.84 -0.82859,7.538349 -5.11457,19.0757 -10.21557,27.49916 -11.87967,19.61729 -34.20821,34.14043 -55.603542,36.16616 -4.141239,0.3921 -19.392132,0.3669 -22.865258,-0.0378 z m -0.147206,-5.5288 c 0.535878,-1.28254 4.830486,-15.29304 6.008544,-19.60196 0.601244,-2.19914 0.710374,-3.01807 0.431667,-3.2393 C 72.327853,125.65464 70.576,125.20713 68.64,124.82301 59.572317,123.02393 52.413677,119.43047 45.325702,113.11982 43.645546,111.62392 42.129446,110.4 41.956595,110.4 41.423184,110.4 25.92,128.28242 25.92,128.89769 c 0,0.99724 8.560355,8.02191 13.44,11.02893 5.882877,3.62525 15.856301,7.76077 22.132582,9.17737 3.851008,0.8692 4.059428,0.84903 4.600212,-0.44525 z m 66.356716,-21.79043 c 8.00624,-8.4285 14.66597,-20.95139 17.47028,-32.850944 0.48511,-2.058448 0.79875,-3.959593 0.697,-4.224768 -0.20066,-0.522896 -6.36281,-2.570784 -16.98868,-5.645897 -4.90879,-1.420599 -6.51411,-1.771232 -6.79196,-1.483495 -0.20012,0.207236 -0.66364,1.895079 -1.03005,3.750762 -1.74883,8.856938 -5.50108,16.379142 -11.69476,23.444662 -1.51323,1.72625 -2.75134,3.27307 -2.75134,3.43739 0,0.16431 2.628,2.58833 5.84,5.38671 9.58679,8.35227 12.22102,10.56459 12.59932,10.58135 0.19762,0.009 1.39021,-1.06934 2.65019,-2.39577 z m -46.681686,-6.10122 c 8.593504,-1.46902 16.910746,-5.84404 23.355576,-12.28547 6.57716,-6.57367 10.57475,-13.964932 12.53066,-23.168321 0.97023,-4.565334 0.96779,-11.832275 -0.006,-16.41359 C 119.03688,56.606518 111.9402,46.25599 101.57102,39.616592 97.455395,36.981354 90.491018,34.246067 85.825443,33.432461 82.157712,32.792861 74.241139,32.814979 70.376384,33.475626 64.88633,34.414099 59.388192,36.557613 54.766624,39.56127 42.620608,47.455238 35.408,59.115421 33.92,73.262746 33.08559,81.195981 34.678128,89.278109 38.592566,96.976016 44.41791,108.4318 55.088445,117.02403 67.36,120.1404 c 6.014086,1.52728 11.956112,1.72958 18.407824,0.62669 z M 30.27011,68.16 C 31.971883,59.139008 35.807706,51.410794 42.080173,44.365712 43.576077,42.685549 44.8,41.163782 44.8,40.984013 44.8,40.462832 26.920859,24.96 26.31979,24.96 c -0.341213,0 -3.390155,3.156627 -5.563505,5.76 C 17.244513,34.926618 13.143139,41.627597 10.572592,47.358502 8.2480387,52.540979 5.7898522,60.58471 5.6618077,63.42768 L 5.6,64.8 8.64,65.820566 c 6.574029,2.20698 19.713977,6.142778 20.307947,6.08282 0.537907,-0.0543 0.727489,-0.591053 1.322163,-3.743386 z m 86.45738,-26.8 c 3.08114,-3.418438 12.51149,-14.475264 13.11524,-15.377246 0.46975,-0.701794 0.43346,-0.799869 -0.75463,-2.039529 -3.79557,-3.960337 -11.41162,-9.415808 -17.49962,-12.535199 -5.54827,-2.8428407 -12.352016,-5.3396913 -17.609402,-6.4623242 -2.812844,-0.60064 -3.331811,-0.586689 -3.699014,0.099438 -0.332298,0.6209028 -3.840141,11.8253242 -5.82913,18.6188452 -1.009376,3.44759 -1.179603,4.37957 -0.85552,4.683851 0.222522,0.208926 1.988586,0.692772 3.924586,1.075214 8.788042,1.736007 16.21134,5.452848 23.29863,11.665606 1.72625,1.513238 3.259,2.751344 3.4061,2.751344 0.14711,0 1.27335,-1.116 2.50276,-2.48 z"
       id="path5360"
       inkscape:connector-curvature="0" />
    <path
       style="stroke-width:0.31999999"
       d="M 66.4,154.19372 C 56.807261,152.99728 46.942282,149.46687 37.756109,143.94285 28.569406,138.4185 19.690425,129.95752 13.188821,120.53211 7.2012787,111.85194 1.5715852,96.842922 0.56633802,86.88 0.13329306,82.588128 0.13505523,71.644669 0.5694297,67.68 1.7717872,56.705712 6.4137635,44.168042 12.937954,34.273434 23.560685,18.162972 40.644026,5.8910131 58.56,1.5004643 64.167843,0.12618716 67.263584,-0.07792182 79.84,0.09742776 92.438624,0.27308698 94.157632,0.43468998 99.321046,1.9288278 120.579,8.0802454 138.40637,23.080896 148.17919,43.04 c 4.09838,8.37015 6.27779,15.717926 7.02366,23.68 0.44012,4.69815 0.27173,19.00176 -0.27877,23.68 -0.88618,7.53089 -5.18173,19.02709 -10.21528,27.33916 -4.54075,7.49829 -11.00778,14.73768 -18.47026,20.67616 -10.87153,8.65132 -24.80297,14.57738 -37.133282,15.79549 -4.097066,0.40474 -19.415543,0.39322 -22.705258,-0.0171 z m -0.536976,-4.84507 c 0.838618,-1.01047 7.317987,-23.18802 6.889741,-23.58217 C 72.602746,125.6284 70.896,125.2025 68.96,124.82003 c -9.119328,-1.80159 -16.105354,-5.32267 -23.464698,-11.82661 -1.999353,-1.76696 -3.446684,-2.81989 -3.727849,-2.712 -0.483123,0.18539 -6.127283,6.52569 -12.437107,13.97106 -3.114812,3.67538 -3.686862,4.51084 -3.424392,5.00127 0.893438,1.66941 8.329992,7.71243 13.134046,10.67287 5.882877,3.62525 15.856301,7.76077 22.132582,9.17737 3.237616,0.73075 4.243479,0.78322 4.690442,0.24466 z m 66.934496,-22.51693 c 7.95989,-8.50915 14.68176,-21.4396 17.32553,-33.328072 0.54467,-2.449261 0.64494,-3.436058 0.39018,-3.84 -0.19994,-0.317014 -2.12926,-1.114538 -4.62805,-1.913104 -7.16401,-2.289472 -18.61941,-5.542858 -19.00109,-5.396394 -0.19768,0.07586 -0.66835,1.701207 -1.04594,3.611885 -1.77283,8.970944 -5.50709,16.477365 -11.72681,23.572595 -1.51323,1.72625 -2.75134,3.40687 -2.75134,3.7347 0,0.58811 4.26931,4.46978 13.85248,12.59476 3.62482,3.07325 4.51516,3.68612 4.98762,3.43326 0.31633,-0.16929 1.48516,-1.28062 2.59742,-2.46963 z M 86.08,120.7718 c 8.534275,-1.46837 16.92064,-5.85319 23.20225,-12.13132 6.41203,-6.40848 10.4263,-13.872234 12.37408,-23.007181 0.98119,-4.601705 0.97866,-12.436246 -0.005,-17.05359 C 119.0373,56.317949 112.10469,46.156419 101.89102,39.616592 97.775398,36.981354 90.811021,34.246067 86.145446,33.432461 82.44103,32.786464 73.954771,32.809232 70.056387,33.475626 62.493779,34.768384 55.619155,38.059194 49.153894,43.481427 35.627133,54.825949 30.234577,74.478586 36.009648,91.384346 c 1.229853,3.600236 3.96791,8.833404 6.274186,11.991674 7.143004,9.78178 18.535091,16.45713 30.516163,17.88134 3.336125,0.39657 9.452883,0.17292 13.28,-0.48556 z M 30.296098,68.278547 c 1.768993,-9.050726 5.505563,-16.495945 11.923579,-23.758061 2.384173,-2.69774 2.84552,-3.38496 2.591302,-3.859971 C 44.51863,40.114259 37.073722,33.535565 29.823625,27.416941 26.075817,24.254028 26.314557,24.27332 23.828556,26.932494 15.592413,35.742362 9.5936736,46.794906 6.4257107,58.996851 5.4680086,62.685603 5.2852541,64.433206 5.8115318,64.869981 6.0515747,65.069197 10.78218,66.621274 16.323987,68.31904 21.865794,70.016806 26.76,71.531331 27.2,71.68465 c 0.44,0.153318 1.16,0.250995 1.6,0.217056 0.755326,-0.05826 0.838872,-0.260586 1.496098,-3.623159 z M 118.13802,40.08 c 6.45429,-7.335146 11.62608,-13.550834 11.92402,-14.330802 0.36454,-0.954338 -0.4201,-1.86708 -4.67203,-5.434785 C 116.56168,12.906753 103.13983,6.415721 93.194717,4.7442362 91.221792,4.4126448 90.800701,4.4236272 90.415859,4.8167117 90.166397,5.0715203 88.743357,9.24 87.253552,14.08 c -3.55728,11.556722 -4.225571,14.040844 -3.866723,14.373115 0.161245,0.149302 1.877171,0.585068 3.813171,0.96837 8.795485,1.741387 16.2129,5.455776 23.29863,11.667171 1.72625,1.513238 3.4069,2.751344 3.73478,2.751344 0.35999,0 1.90677,-1.489494 3.90461,-3.76 z"
       id="path5358"
       inkscape:connector-curvature="0" />
    <path
       style="stroke-width:0.31999999"
       d="M 66.4,154.18677 C 55.68769,152.81745 42.81063,147.65472 33.12,140.84399 25.621483,135.57392 18.677923,128.45354 13.29506,120.51421 7.2672374,111.62362 1.6438344,96.698934 0.57059914,86.743107 0.12885374,82.64527 0.12830488,71.619488 0.56965814,67.84 2.5529467,50.856288 11.587568,32.877859 24.220096,20.776852 35.452438,10.017117 51.577418,1.9527394 65.12,0.32211136 68.840934,-0.12591702 90.139811,0.05964343 93.321098,0.56780547 98.560669,1.4047472 108.0571,4.8080208 114.08,8.0072544 129.25603,16.068431 140.47768,27.651932 148.0184,43.04 c 5.84264,11.92288 7.48045,19.331773 7.49835,33.92 0.0112,9.145338 -0.31129,12.592326 -1.73655,18.560237 -2.76146,11.562833 -8.65652,23.093303 -16.52377,32.319763 -12.10293,14.19392 -31.16065,24.60178 -48.29643,26.37579 -3.928566,0.40671 -19.30599,0.38693 -22.56,-0.029 z M 66.272512,148.88 c 0.5668,-1.48151 5.018893,-16.18622 5.935014,-19.60262 0.524685,-1.95665 0.746816,-3.3294 0.567373,-3.5063 C 72.612704,125.61119 70.968,125.17465 69.12,124.80099 60.036976,122.96444 52.426886,119.12224 45.294182,112.77175 43.596688,111.26042 42.01944,110.09616 41.789187,110.18452 41.030781,110.47555 25.6,128.31056 25.6,128.8961 c 0,0.52742 5.236834,5.3074 8.388051,7.65628 4.133213,3.08086 7.073699,4.84058 12.091949,7.23636 6.528387,3.11674 15.153904,5.86625 18.64792,5.94428 1.034246,0.0231 1.256326,-0.0996 1.544592,-0.85302 z m 66.319948,-21.83118 c 5.93686,-6.21404 11.55553,-15.28811 14.76721,-23.84882 1.52558,-4.066435 3.41637,-11.500339 3.29403,-12.950918 L 150.56,89.13816 146.24,87.759626 C 140.5928,85.957571 127.7702,82.24 127.20177,82.24 c -0.63109,0 -0.6917,0.159354 -1.41998,3.733082 -0.88248,4.330409 -1.98035,7.555724 -4.05894,11.924297 -2.17887,4.579351 -4.41,7.944041 -7.93151,11.961251 -1.51323,1.72625 -2.75134,3.26901 -2.75134,3.42835 0,0.53262 18.11595,16.27426 18.75754,16.29915 0.19665,0.008 1.45436,-1.13416 2.79492,-2.53731 z M 86.4,120.77534 c 8.638259,-1.49633 16.31452,-5.56605 22.88446,-12.13267 6.70348,-6.70007 10.4067,-13.490459 12.3739,-22.689371 0.99104,-4.634208 0.98843,-13.044073 -0.005,-17.69359 C 119.8539,59.844256 116.1675,52.742704 110.43459,46.648579 105.37368,41.268797 99.577274,37.525805 92.482989,35.056448 87.757405,33.411578 84.689437,32.96 78.24,32.96 c -12.039958,0 -20.093366,2.883146 -28.937398,10.359683 -8.9688,7.58201 -14.164308,17.523031 -15.393703,29.454119 -1.379981,13.392515 3.17929,26.14352 12.778355,35.737478 7.533168,7.52916 16.325997,11.71472 27.072746,12.88715 2.389008,0.26063 9.586608,-0.0942 12.64,-0.62309 z M 30.240518,68.88 c 1.562283,-8.765315 5.880032,-17.461168 12.187719,-24.545808 1.584976,-1.780208 2.676803,-3.27161 2.57992,-3.524093 C 44.724211,40.070157 26.892723,24.64 26.321567,24.64 c -0.345663,0 -3.765919,3.535066 -5.882538,6.08 -3.519825,4.23209 -7.4023,10.537702 -9.890037,16.062621 C 8.0633933,52.30279 5.6959827,60.278934 5.6347821,63.339293 L 5.6,65.078589 8.48,66.004803 c 9.127745,2.935501 19.334931,5.953207 20.202213,5.972688 L 29.684427,72 Z M 117.03137,41.36 c 3.16355,-3.486531 12.46812,-14.381489 13.13339,-15.378222 0.4709,-0.705521 0.43032,-0.802916 -0.91602,-2.19866 C 123.57504,17.901213 113.91411,11.648143 105.29155,8.2767354 98.142243,5.4813686 90.728067,3.751407 90.119213,4.7365504 89.869414,5.1407366 84.319232,23.260358 83.656736,25.834532 c -0.383053,1.48838 -0.48521,2.423501 -0.286205,2.619817 0.170208,0.167906 1.821469,0.611685 3.669469,0.986175 4.434509,0.898636 7.385059,1.903797 11.817379,4.025815 4.594601,2.199709 7.957881,4.432938 11.961251,7.942317 1.72625,1.513238 3.25867,2.751344 3.40538,2.751344 0.1467,0 1.41002,-1.26 2.80736,-2.8 z"
       id="path5356"
       inkscape:connector-curvature="0" />
    <path
       style="stroke-width:0.31999999"
       d="M 65.816224,154.04676 C 52.57208,151.98061 38.96559,145.86951 28.8,137.42161 25.683966,134.83209 19.23319,128.21776 16.646539,124.96 12.193572,119.35171 8.8776406,113.53199 5.9803418,106.24 3.3747686,99.68223 1.9948139,94.489734 0.62263178,86.08 0.09196898,82.827709 0.07050144,71.491549 0.58960525,68.64 0.81388186,67.408 1.2219962,65.032 1.4965261,63.36 1.7710559,61.688 2.55099,58.376 3.229713,56 7.1694275,42.208272 13.727425,31.29961 24.201427,21.115364 33.961389,11.625405 45.059933,5.2768589 57.76,1.919318 64.4156,0.15976491 66.087331,0.00213274 78.104035,0.00102236 c 9.61,-8.8800224e-4 11.523475,0.08174993 14.56,0.62880823 C 116.34646,4.8964394 137.6254,21.347017 148.34973,43.68 c 3.34294,6.961523 5.64621,14.534941 6.68455,21.979565 0.76015,5.450045 0.66832,18.312624 -0.16997,23.807715 -1.8685,12.24827 -6.96768,24.34516 -14.46927,34.32576 -2.79874,3.72362 -8.69645,9.87269 -12.71504,13.25694 -10.50184,8.84412 -24.60489,15.1554 -38.011002,17.01037 -4.667334,0.64581 -19.680822,0.63726 -23.852774,-0.0136 z M 66.30265,148.8 c 0.549744,-1.13464 4.638236,-14.32828 6.123187,-19.75964 0.664605,-2.43087 0.734729,-3.03408 0.392502,-3.37631 -0.229171,-0.22917 -2.051267,-0.73918 -4.049107,-1.13336 -9.09831,-1.79513 -15.775312,-5.14145 -22.98784,-11.52084 -1.821862,-1.61142 -3.519059,-2.92985 -3.771549,-2.92985 -0.55815,0 -1.264704,0.71114 -5.404953,5.44 C 30.327131,122.69026 25.6,128.41302 25.6,128.84273 c 0,1.16737 6.255359,6.56418 11.896102,10.26336 6.217156,4.0772 17.055325,8.7404 23.99648,10.32466 3.591965,0.81984 4.142205,0.74769 4.810068,-0.63075 z m 66.01574,-21.2 c 8.06652,-8.29068 15.41697,-22.23889 18.11559,-34.376144 0.60228,-2.708797 0.65355,-3.341011 0.30497,-3.761018 -0.42607,-0.513388 -7.36952,-2.813865 -16.33895,-5.413356 -7.00613,-2.030496 -7.23522,-2.084372 -7.68382,-1.807124 -0.22155,0.136928 -0.74018,1.884413 -1.15251,3.8833 -1.87779,9.103228 -5.36483,16.232222 -11.18574,22.868482 -1.37292,1.56522 -2.69858,3.08754 -2.94591,3.38293 -0.2488,0.29713 -0.36143,0.81518 -0.25212,1.15961 0.32004,1.00836 17.84447,16.06332 18.6982,16.06332 0.2719,0 1.37003,-0.9 2.44029,-2 z m -46.550566,-6.51291 c 8.529229,-1.45803 17.940106,-6.39652 23.992176,-12.59023 6.05576,-6.19748 10.32721,-14.305135 12.21406,-23.183561 0.97023,-4.565334 0.96779,-11.832275 -0.006,-16.41359 -1.79083,-8.429498 -6.35083,-17.206915 -11.99521,-23.08928 C 106.01542,41.685622 98.330755,36.988189 91.867366,34.74272 87.260883,33.142365 84.008595,32.64 78.254474,32.64 66.720074,32.64 57.918112,35.911306 48.8,43.586947 41.305798,49.895578 35.893997,59.490646 34.037898,69.76 c -0.746154,4.128278 -0.733754,11.028058 0.02704,15.04 1.626947,8.579606 6.209692,17.43323 12.175075,23.5216 6.958857,7.10233 17.077782,12.09221 26.88,13.25517 3.26575,0.38745 8.76143,0.17468 12.647824,-0.48968 z M 29.678104,71.92 c 0.174057,-0.22 0.568927,-1.84 0.877487,-3.6 C 32.079466,59.627965 35.87465,51.961683 42.186502,44.825523 43.799926,43.001389 45.12,41.291114 45.12,41.024912 c 0,-0.631488 -1.169174,-1.723936 -9.514426,-8.890048 -9.17165,-7.875743 -8.890234,-7.668371 -9.827124,-7.241496 -1.892344,0.86221 -8.650962,9.591163 -11.992246,15.488338 C 9.747639,47.509542 6.1903594,57.017747 5.2726499,63.137472 5.0792797,64.426957 5.1371315,64.635888 5.8079238,65.070602 6.2215658,65.338666 11.096,66.94577 16.64,68.641939 c 5.544,1.696173 10.44,3.206256 10.88,3.355741 1.168319,0.396928 1.800615,0.374166 2.158104,-0.07768 z M 115.9531,42.8 c 1.33825,-1.406506 11.31569,-13.031836 13.41698,-15.632957 0.65446,-0.810127 1.18992,-1.637712 1.18992,-1.839079 0,-1.094586 -6.08487,-6.317981 -11.69716,-10.041109 C 111.45847,10.374884 100.5441,5.7845738 93.110701,4.4561507 91.337347,4.1392346 90.807645,4.1416842 90.413709,4.4686211 89.86937,4.9203818 85.417098,18.797496 83.003155,27.56628 c -0.260237,0.945319 0.698919,1.415238 4.365063,2.138579 8.874256,1.750918 15.861652,5.246609 23.024902,11.519018 1.84422,1.614868 3.55852,2.936122 3.80955,2.936122 0.25104,0 1.03873,-0.612 1.75043,-1.359999 z"
       id="path5354"
       inkscape:connector-curvature="0" />
    <path
       style="stroke-width:0.31999999"
       d="M 67.68,154.33361 C 62.101085,153.57525 53.29001,151.09751 47.691738,148.71276 33.94423,142.85659 22.267032,133.22863 13.503071,120.52386 8.4196899,113.15469 3.2747638,100.48286 1.6037364,91.216102 1.268899,89.359248 0.8243657,86.904 0.61588461,85.76 -0.00610343,82.34696 -0.12415149,72.547594 0.42506803,69.92 0.68258054,68.688 1.1384564,66.096 1.4381255,64.16 2.5259632,57.13207 5.4929542,48.323037 9.1102416,41.381398 19.303036,21.821241 37.138829,7.4488349 58.08,1.9206797 64.963488,0.10354179 66.042698,0 78.099104,0 87.976493,0 89.630534,0.07391615 92.607114,0.64833664 107.39958,3.5029888 121.10703,10.681537 132.25713,21.412931 c 10.20138,9.818292 18.15407,23.769027 21.45715,37.640445 1.50759,6.331219 1.80181,9.28687 1.80383,18.121194 0.002,7.246195 -0.0901,8.755123 -0.77858,12.8 -2.81317,16.52797 -10.75179,31.61067 -22.64102,43.01597 -10.07991,9.66963 -21.96465,16.25565 -35.441828,19.64038 -6.49448,1.63106 -9.595981,1.93402 -19.257751,1.88113 C 72.58152,154.48568 68.208,154.40539 67.68,154.33361 Z m -1.267206,-5.35487 c 0.557878,-1.33519 4.868454,-15.41989 6.065344,-19.81835 0.716102,-2.63163 0.788096,-3.22717 0.430819,-3.56386 C 72.67303,125.3742 70.896,124.88007 68.96,124.49846 c -9.117728,-1.79722 -16.10313,-5.31914 -23.479018,-11.8377 -2.656979,-2.34815 -3.389955,-2.84355 -3.846044,-2.59946 -0.594496,0.31817 -6.358826,6.79779 -12.624592,14.19118 -3.104157,3.6628 -3.686277,4.51194 -3.426236,4.99783 0.93104,1.73966 8.585573,7.99504 13.45589,10.99631 7.37047,4.54196 20.918621,9.6803 25.85633,9.8064 0.911862,0.0233 1.119257,-0.12363 1.516464,-1.07428 z m 66.518566,-21.95547 c 5.75277,-6.09824 11.52012,-15.53957 14.74821,-24.14327 1.47328,-3.926704 3.42113,-11.495744 3.294,-12.8 -0.0913,-0.936608 -0.20663,-0.997389 -4.73357,-2.494458 -2.552,-0.843952 -7.92648,-2.484332 -11.94328,-3.645289 -6.204,-1.793117 -7.36658,-2.043811 -7.72385,-1.665546 -0.23131,0.244912 -0.72036,1.963578 -1.08677,3.819261 -1.74883,8.856938 -5.50108,16.379142 -11.69476,23.444662 -1.51323,1.72625 -2.75134,3.41197 -2.75134,3.74604 0,0.60312 4.6242,4.81385 14.17248,12.90526 3.60758,3.05713 4.51659,3.68351 4.98317,3.4338 0.31388,-0.16798 1.54495,-1.33819 2.73571,-2.60046 z M 86.08,121.0918 c 8.619053,-1.48296 16.91881,-5.849 23.3634,-12.29018 6.57546,-6.57197 10.56787,-13.952324 12.53293,-23.168321 0.98119,-4.601705 0.97866,-12.436246 -0.005,-17.05359 C 119.00076,54.645197 110.43702,43.413437 98.02401,37.172298 94.586285,35.443843 89.452118,33.689094 86.145446,33.112461 82.44103,32.466464 73.954771,32.489232 70.056387,33.155626 62.399107,34.464566 55.535299,37.775629 48.986362,43.319683 36.800851,53.635424 31.165329,69.856419 34.233229,85.784346 c 2.37424,12.326566 10.561267,23.732524 21.56655,30.045954 5.313069,3.04797 11.288896,5.06814 17.000218,5.74706 3.336125,0.39657 9.452883,0.17292 13.28,-0.48556 z M 30.590655,68.48 c 1.714299,-9.094525 5.473569,-16.63241 11.949022,-23.959514 2.413651,-2.731097 2.847565,-3.381139 2.584752,-3.872211 C 44.80023,40.042506 38.75857,34.674416 30.947516,28.051913 27.422846,25.063566 26.42438,24.370064 25.985085,24.605168 25.349101,24.945536 22.570006,27.848671 20.437844,30.4 16.930521,34.596835 12.824806,41.303882 10.252592,47.038502 7.7927629,52.52257 5.3887997,60.551523 5.3181274,63.519034 L 5.28,65.12 8.32,66.140566 c 7.646123,2.566896 19.770642,6.142986 20.628492,6.084311 0.948284,-0.06486 0.948643,-0.06568 1.642163,-3.744877 z M 117.33101,41.36 c 5.18539,-5.782506 12.75999,-14.840954 13.0516,-15.608396 0.26217,-0.689946 0.13387,-0.972407 -0.96,-2.11352 C 125.61076,19.661599 118.00607,14.212328 111.90848,11.088026 106.36021,8.2451853 99.556464,5.7483347 94.299078,4.6257018 91.37448,4.001199 90.332531,4.0291782 89.95079,4.7424653 89.597635,5.402344 84.607283,21.482716 83.498256,25.534417 c -0.625942,2.286811 -0.66367,2.713889 -0.27241,3.083851 0.249786,0.236188 2.038154,0.74234 3.974154,1.124782 8.788042,1.736007 16.21134,5.452848 23.29863,11.665606 1.72625,1.513238 3.40478,2.751344 3.73008,2.751344 0.33889,0 1.66361,-1.195632 3.1023,-2.8 z"
       id="path5352"
       inkscape:connector-curvature="0" />
    <path
       style="stroke-width:0.31999999"
       d="M 67.84,154.35599 C 53.353773,151.75731 41.623494,146.84734 31.144116,138.9961 27.901618,136.5668 21.411487,130.26683 18.16781,126.4 9.9137104,116.56019 3.3272877,102.03811 1.4047706,89.44 1.1361882,87.68 0.75340694,85.664 0.55414557,84.96 0.05676368,83.202726 0.04652221,71.309139 0.54078144,69.44 0.7502112,68.648 1.213667,66.263302 1.5706833,64.140675 3.720169,51.360976 9.477273,38.671462 17.822159,28.32 21.15698,24.183303 27.439622,18.094672 31.604278,14.963479 40.004966,8.6474291 48.797741,4.4785283 59.926358,1.5351855 L 65.12,0.1615494 l 12.8,-7.7472e-4 12.8,-7.7472e-4 4.16,1.05080964 c 10.55836,2.6670256 17.3532,5.5989078 25.76,11.1150924 11.42034,7.493544 20.79132,18.066351 26.97381,30.433192 3.22116,6.443277 4.65367,10.591354 6.674,19.325629 L 155.36,66.72 v 10.24 c 0,9.95929 -0.0239,10.349651 -0.87277,14.24 -2.33515,10.7022 -5.32308,18.37353 -10.40661,26.71831 -3.90054,6.40288 -10.12824,13.54233 -16.39981,18.80083 -8.52283,7.14608 -18.98892,12.61643 -29.29416,15.31126 -8.939732,2.33776 -8.717472,2.31071 -19.66665,2.39318 -5.544,0.0418 -10.44,0.0113 -10.88,-0.0676 z M 66.168502,149.68 c 0.774496,-0.94779 7.184775,-22.40839 7.045335,-23.58668 -0.103863,-0.87767 0.25471,-0.74887 -5.853837,-2.10281 -8.076387,-1.79011 -14.783091,-5.26028 -21.254982,-10.99772 -3.698932,-3.27916 -3.747725,-3.31315 -4.441124,-3.09307 C 40.674666,110.21369 25.28,128.02054 25.28,128.85081 c 0,1.19101 6.543508,6.85521 12.219722,10.57765 9.075532,5.95171 26.957289,12.34597 28.66878,10.25154 z m 66.313058,-21.92 c 7.86178,-8.06363 14.91277,-21.10368 17.77882,-32.88 0.86449,-3.552128 0.98166,-5.357037 0.37962,-5.847498 C 149.81746,88.362416 128.55084,81.92 127.16141,81.92 c -0.398,0 -0.79589,0.116902 -0.88419,0.259782 -0.0883,0.14288 -0.46495,1.76288 -0.837,3.6 -1.81077,8.941527 -5.54709,16.561808 -11.38229,23.214358 -1.37292,1.56522 -2.69858,3.08754 -2.94591,3.38293 -0.25729,0.30727 -0.36213,0.81298 -0.24504,1.18191 0.32826,1.03425 18.13908,16.36102 19.01269,16.36102 0.27278,0 1.44363,-0.972 2.60189,-2.16 z M 86.56,121.12115 c 8.347856,-1.47793 17.2646,-6.23427 23.36,-12.46061 6.1682,-6.3007 10.50432,-14.508962 12.2092,-23.111974 0.775,-3.910716 0.77816,-12.931148 0.006,-16.825692 -1.62887,-8.214432 -6.26125,-17.119911 -12.00129,-23.071802 -2.3188,-2.404378 -7.89793,-6.465347 -11.253803,-8.191491 -3.882848,-1.997197 -9.7776,-4.030163 -13.090291,-4.514541 -4.073466,-0.595619 -15.189834,-0.232138 -18.471095,0.603968 -12.582422,3.20615 -23.573737,11.970829 -29.212134,23.294298 -1.701178,3.416435 -3.455991,8.592688 -4.101453,12.098256 -0.81513,4.42703 -0.72263,13.112544 0.184944,17.366374 2.476662,11.608179 9.376602,21.696874 19.4252,28.402394 4.4684,2.9818 11.882464,5.89585 16.64143,6.5408 1.398868,0.18958 2.975399,0.40635 3.503399,0.48171 1.90943,0.27255 9.985485,-0.1134 12.8,-0.61169 z M 29.897099,72.037056 c 0.09618,-0.155619 0.471247,-1.818742 0.833488,-3.69583 C 32.447706,59.443325 36.193779,51.962662 42.506502,44.825523 44.119926,43.001389 45.44,41.284749 45.44,41.010765 45.44,40.736784 44.685306,39.80407 43.762902,38.938074 41.288166,36.614669 27.913011,25.194397 27.045233,24.663823 26.023515,24.039127 25.30554,24.546564 22.212654,28.079304 14.475308,36.917018 9.0578877,47.225853 6.0571875,58.821626 5.0480189,62.721411 4.8836506,64.685482 5.5221114,65.215357 5.8600778,65.495846 10.571403,67.003898 25.6,71.642112 c 2.231682,0.688755 4.014258,0.852589 4.297099,0.394944 z M 116.05538,43.033834 c 1.3861,-1.446621 11.39089,-13.089256 13.6347,-15.866791 0.65446,-0.810127 1.18992,-1.641344 1.18992,-1.84715 0,-0.632009 -2.56037,-3.194993 -5.77423,-5.780126 C 118.83515,14.49586 112.32151,10.704873 105.02898,7.8549155 97.626794,4.9621072 90.889677,3.4646099 90.024019,4.5196784 89.236013,5.4801034 82.799683,26.876247 82.938986,28.072298 c 0.07724,0.663227 0.326928,0.921309 1.061014,1.096699 0.528,0.126151 2.688,0.61649 4.8,1.089643 8.07681,1.809453 14.76111,5.302877 21.59312,11.285238 1.84422,1.614868 3.56091,2.936122 3.81486,2.936122 0.25395,0 1.08528,-0.650774 1.8474,-1.446166 z"
       id="path5350"
       inkscape:connector-curvature="0" />
    <path
       style="stroke-width:0.31999999"
       d="m 67.522797,154.33736 c -0.614464,-0.0822 -1.190464,-0.24903 -1.28,-0.37076 C 66.153258,153.84486 64.712,153.47855 63.04,153.15257 59.455494,152.45372 53.761555,150.78067 49.924973,149.29898 35.423926,143.69867 22.953729,133.76053 13.828821,120.53211 7.9461882,112.00403 2.3923468,97.34351 1.2814403,87.410698 1.0710585,85.529635 0.76489526,84.239181 0.45561382,83.929901 0.03894761,83.513232 -0.02097132,82.444 0.06205852,76.907037 0.13139527,72.283219 0.27157407,70.306861 0.54202525,70.140061 0.75213914,70.010474 1.0831764,68.623907 1.2776636,67.058803 1.7549166,63.218182 2.3563313,60.415456 3.6940435,55.797933 10.633726,31.843486 27.941619,13.123014 51.2,4.414791 54.516506,3.1730507 62.502611,0.96 63.667101,0.96 63.996861,0.96 64.326666,0.78 64.4,0.56 64.579174,0.02247612 91.420262,-0.0279191 91.77167,0.50860858 91.897251,0.70034333 92.914995,1.0345396 94.033318,1.251267 102.2614,2.8458399 112.241,6.9859952 120.16,12.090236 c 16.90757,10.897877 29.19565,28.620836 33.5774,48.428295 0.45243,2.045191 0.8226,4.013191 0.8226,4.373331 0,0.360144 0.18,0.714784 0.4,0.788096 0.53668,0.178836 0.58649,22.22121 0.051,22.571648 -0.19194,0.125616 -0.53176,1.377552 -0.75514,2.78208 -1.27601,8.02289 -5.36544,18.743354 -10.18707,26.705474 -8.96063,14.79698 -23.75653,26.70065 -40.37212,32.48039 -3.62055,1.2594 -9.771742,2.87548 -12.33668,3.24117 -0.88,0.12546 -1.702672,0.38812 -1.828163,0.5837 -0.230407,0.35908 -19.588157,0.61674 -22.00904,0.29294 z M 66.372707,149.68 c 1.012205,-1.55903 7.341453,-23.0562 7.054477,-23.96038 C 73.21439,125.04917 73.131728,125.02121 68.8,124.15415 59.860794,122.36486 52.68424,118.74646 45.645702,112.47982 43.965546,110.98392 42.303555,109.76 41.952397,109.76 c -0.417088,0 -1.948109,1.47873 -4.415437,4.26463 -7.407694,8.36415 -12.25696,14.24805 -12.25696,14.8721 0,1.32222 8.057453,8.15577 13.76,11.66989 5.882877,3.62525 15.856301,7.76077 22.132582,9.17737 3.685936,0.83194 4.625949,0.82037 5.200125,-0.064 z m 66.539753,-22.31118 c 7.93263,-8.30299 14.38936,-20.18395 17.36764,-31.958004 1.28944,-5.097546 1.33626,-5.952829 0.3599,-6.574518 -1.62441,-1.034333 -23.04016,-7.355549 -23.94598,-7.068052 -0.68302,0.216781 -0.71229,0.301469 -1.55721,4.505053 -1.75933,8.752903 -5.52201,16.257101 -11.66547,23.265331 -1.51323,1.72625 -2.75134,3.41301 -2.75134,3.74835 0,0.63484 3.05287,3.44777 12.96,11.94142 3.19167,2.73631 5.72003,4.66959 6.11754,4.67773 0.43981,0.009 1.53277,-0.88129 3.11492,-2.53731 z M 86.08,121.4118 c 8.706742,-1.49805 16.91252,-5.84053 23.52446,-12.44913 6.74161,-6.73818 10.70933,-14.031384 12.69187,-23.329371 0.98119,-4.601705 0.97866,-12.436246 -0.005,-17.05359 C 119.31359,54.611558 110.54572,43.148086 98.02401,36.852298 94.586285,35.123843 89.452118,33.369094 86.145446,32.792461 82.44103,32.146464 73.954771,32.169232 70.056387,32.835626 62.401184,34.144211 55.547693,37.449706 48.982598,42.999683 36.525456,53.530656 30.820568,69.727862 33.913229,85.784346 c 2.381469,12.364099 10.752953,23.978914 21.88655,30.365954 5.313069,3.04797 11.288896,5.06814 17.000218,5.74706 3.336125,0.39657 9.452883,0.17292 13.28,-0.48556 z M 29.998104,72.24 c 0.174057,-0.22 0.568927,-1.84 0.877487,-3.6 C 32.404682,59.918218 36.459805,51.717206 42.720173,44.685712 44.216077,43.005549 45.44,41.342109 45.44,40.989178 45.44,40.287632 43.013936,38.041875 33.17056,29.631607 29.854369,26.798223 26.84842,24.431633 26.490676,24.372517 24.796401,24.092546 17.075595,33.604496 12.896824,41.12 9.086129,47.97352 5.5639616,57.736054 4.9139907,63.246346 4.7382509,64.736224 4.7920346,64.939514 5.4798973,65.385344 5.8979536,65.656301 10.776,67.26577 16.32,68.961939 c 5.544,1.696173 10.44,3.206256 10.88,3.355741 1.198243,0.407094 2.441881,0.372566 2.798104,-0.07768 z M 117.49811,41.52 c 5.0987,-5.655802 12.90366,-14.976667 13.20494,-15.769649 0.26544,-0.698611 0.1264,-0.980745 -1.12,-2.272651 C 123.83859,17.523462 113.93174,11.140056 105.04001,7.6635632 98.335168,5.0420989 91.439747,3.3450086 90.300016,4.0357773 89.692058,4.4042506 88.357206,8.2556707 85.102432,19.03229 c -2.652995,8.784102 -2.74345,9.200979 -2.129642,9.814786 0.256048,0.256048 2.089991,0.786052 4.075428,1.177784 8.90688,1.757355 16.330362,5.462314 23.450412,11.703796 1.72625,1.513238 3.40693,2.751344 3.73484,2.751344 0.34632,0 1.71463,-1.24063 3.26464,-2.96 z"
       id="path5348"
       inkscape:connector-curvature="0" />
    <path
       style="stroke-width:0.31999999"
       d="m 67.36,154.24 c -0.704,-0.12605 -1.064,-0.25876 -0.8,-0.29491 0.264,-0.0361 -1.174301,-0.41617 -3.196224,-0.84448 C 47.984944,149.84286 35.31696,143.2518 24.713288,132.99102 17.785759,126.28752 13.07925,119.93743 9.2739075,112.16 4.7355238,102.88436 2.2109468,94.603107 1.1019237,85.353808 1.0012759,84.5144 0.79925808,83.901574 0.65299504,83.991968 0.12398742,84.318912 7.5680528e-5,83.04696 0.0043695,77.333827 0.00872237,71.542122 0.15598062,69.940861 0.65584474,70.249792 0.80054045,70.339219 1.0040167,69.7256 1.1080142,68.886192 2.2782951,59.440381 5.1052176,50.146205 9.2715789,42.046547 18.281061,24.53157 33.19984,11.235531 51.462435,4.444855 54.765632,3.2166096 63.136438,0.96433686 64.43247,0.9550999 64.92671,0.9515769 65.000986,0.874741 64.696666,0.68179376 64.418384,0.50535309 64.790026,0.34256707 65.781328,0.20669385 67.964915,-0.09259972 89.20496,-0.01173339 90.72,0.30164185 c 0.704,0.14561734 1.064,0.29137705 0.8,0.32391049 -0.264,0.0325334 1.032,0.40848156 2.88,0.83544036 20.207,4.668591 36.58994,15.9187273 48.11611,33.0412373 2.7962,4.153844 6.98433,12.436378 8.52427,16.85777 1.11439,3.199562 3.07281,10.890256 3.39862,13.346317 0.11576,0.872669 0.31282,1.421078 0.43791,1.218685 0.40935,-0.662349 0.64314,3.471465 0.64031,11.321939 -0.003,7.800547 -0.2201,11.427974 -0.6435,10.742889 -0.12751,-0.2063 -0.33484,0.467594 -0.46074,1.49754 -0.38243,3.128448 -2.61287,11.37441 -4.11757,15.22266 -5.28064,13.50523 -13.21357,24.21819 -24.62754,33.25806 -5.87506,4.65305 -13.66838,9.06467 -20.54787,11.63167 -3.58271,1.33685 -11.792387,3.52828 -14.472141,3.8631 -0.964214,0.12047 -1.584765,0.32309 -1.378998,0.45026 0.205766,0.12717 -0.520672,0.32474 -1.614311,0.43905 C 85.051661,154.62422 69.010768,154.53556 67.36,154.24 Z m -0.21847,-6.08 c 1.2772,-3.57335 6.152092,-19.93462 6.344134,-21.29241 0.229286,-1.62108 -0.144198,-1.96227 -2.641763,-2.41331 C 60.423613,122.57244 53.282986,119.07149 45.354682,111.95727 43.811757,110.57277 42.26983,109.44 41.928176,109.44 40.94745,109.44 24.96,127.8098 24.96,128.93667 c 0,1.28105 8.164957,8.18207 13.76,11.62995 7.837747,4.82991 21.400202,9.88915 26.079043,9.72834 l 1.599043,-0.055 z m 65.77093,-20.47118 c 8.06276,-8.43919 15.08677,-21.58662 17.79028,-33.299569 0.38728,-1.677913 0.6576,-3.621913 0.60071,-4.32 L 151.2,88.8 146.56,87.25568 C 140.32008,85.178867 128.05848,81.6 127.18299,81.6 c -1.0644,0 -1.32167,0.520419 -2.06031,4.167744 -1.87115,9.239453 -5.40324,16.305186 -11.82668,23.658586 -1.95409,2.237 -2.89211,3.5589 -2.82956,3.98755 0.15268,1.0464 18.36761,16.82612 19.42281,16.82612 0.32221,0 1.68265,-1.14803 3.02321,-2.55118 z M 86.56,121.44115 c 8.402515,-1.48761 16.85683,-5.97631 23.2034,-12.31953 6.5685,-6.56501 10.91638,-14.64434 12.6858,-23.573054 0.775,-3.910716 0.77816,-12.931148 0.006,-16.825692 -2.08291,-10.504151 -8.29195,-20.726986 -16.35193,-26.922519 -4.74235,-3.645347 -8.268846,-5.535149 -14.046667,-7.527427 -5.088781,-1.754685 -7.571504,-2.054883 -15.493187,-1.873347 -7.516551,0.172249 -9.975376,0.649177 -15.891754,3.082457 -7.702736,3.167975 -15.814131,9.87721 -20.271107,16.766992 -3.115997,4.816836 -5.72112,11.292394 -6.715421,16.692532 -0.81513,4.42703 -0.72263,13.112544 0.184944,17.366374 2.495443,11.696205 9.865757,22.416224 19.786499,28.779204 4.786787,3.07015 11.893943,5.8462 16.600131,6.48399 1.398868,0.18958 2.975399,0.40635 3.503399,0.48171 1.90943,0.27255 9.985485,-0.1134 12.8,-0.61169 z M 31.073745,68.32 C 32.970502,58.96689 36.382566,52.169469 42.859546,44.840637 44.454794,43.035578 45.76,41.286186 45.76,40.953098 c 0,-0.655735 -2.539194,-3.001184 -12.256698,-11.321491 -3.309181,-2.833384 -6.37082,-5.287981 -6.803639,-5.454661 -0.687435,-0.264732 -0.971643,-0.123108 -2.247596,1.12 C 19.141675,30.470644 13.481669,38.805226 9.9874563,46.596656 7.2535171,52.692822 4.6746285,61.477248 4.8606278,64.06009 L 4.96,65.44 8.48,66.620742 c 9.224631,3.094292 19.260507,6.002061 20.47506,5.932394 L 30.23012,72.48 Z M 117.34805,42 c 2.40511,-2.654122 10.60232,-12.214601 12.82072,-14.95291 0.56718,-0.700101 1.03123,-1.495963 1.03123,-1.768582 0,-1.145913 -6.34515,-6.658897 -11.91232,-10.350031 C 110.6977,9.233177 97.811661,4.0833843 92,4.0231978 L 89.76,4 88.390874,8.1253232 C 86.031331,15.234884 82.56,26.99331 82.56,27.876217 c 0,1.139588 0.531357,1.507727 2.756099,1.909502 10.011719,1.808057 17.296321,5.327481 25.054681,12.104713 1.83193,1.600262 3.58035,2.909568 3.88537,2.909568 0.30503,0 1.69638,-1.26 3.0919,-2.8 z"
       id="path5346"
       inkscape:connector-curvature="0" />
    <path
       style="stroke-width:0.31999999"
       d="m 67.36,154.24 -1.28,-0.22918 1.28,-0.0716 c 0.975898,-0.0546 0.519741,-0.20662 -1.92,-0.63993 C 53.959117,151.26021 43.051824,146.81579 34.08,140.52094 24.332322,133.68173 14.723931,122.85295 9.9342042,113.3083 5.6449859,104.76104 2.4209165,94.737533 1.5999309,87.397373 1.4152193,85.74593 1.1280499,84.16193 0.96177664,83.877373 0.70835786,83.44368 0.65709517,83.437635 0.64483069,83.84 0.63182547,84.266666 0.59573318,84.266666 0.32,83.84 -0.02488139,83.306333 -0.11297726,71.975066 0.21813071,70.737136 0.41054864,70.017734 0.44558896,70.004765 0.65039459,70.577136 0.89602464,71.263603 1.1164407,70.268806 2.0722338,64.16 2.7241327,59.993488 4.5883789,53.32479 6.4108771,48.64 11.324048,36.010534 20.74872,23.767513 32.16,15.190868 41.438419,8.2172688 51.124733,3.8743971 62.88,1.4175163 65.238624,0.92455773 66.03047,0.6627856 65.28,0.62411395 L 64.16,0.56640061 65.44,0.3016418 c 1.667363,-0.34488232 23.612637,-0.34488232 25.28,0 L 92,0.56640061 90.88,0.62411395 c -0.748176,0.0385533 0.04859,0.30063751 2.4,0.78944405 31.72947,6.5958609 56.13652,32.200797 61.10124,64.100074 0.37315,2.39759 0.44752,2.596618 0.51052,1.366368 l 0.0737,-1.44 0.24921,1.6 c 0.32865,2.110016 0.32994,18.154784 0.002,20 l -0.25622,1.44 -0.0644,-1.28 c -0.0433,-0.85992 -0.31219,0.137766 -0.81948,3.04 -2.86206,16.37408 -10.51734,30.78873 -22.43756,42.24921 -6.22509,5.985 -12.1605,10.15817 -19.79869,13.92039 -7.01507,3.45531 -14.525212,5.84723 -21.92,6.98136 -2.505507,0.38427 -2.786819,0.47928 -1.6,0.5404 l 1.44,0.0741 -1.6,0.24921 c -1.989475,0.30988 -19.054556,0.2978 -20.8,-0.0147 z m -0.987107,-4.01861 c 0.670438,-0.67043 6.707504,-19.92625 7.393203,-23.58135 0.289117,-1.54111 -0.336381,-1.90328 -4.806096,-2.78279 -9.01217,-1.77332 -15.537568,-5.06371 -22.83887,-11.51636 -2.499613,-2.20907 -3.500058,-2.90089 -4.195012,-2.90089 -0.775878,0 -1.555756,0.73107 -5.205846,4.88 C 27.545941,124.74816 24.96,127.96157 24.96,128.93386 c 0,0.73594 0.51405,1.40323 2.573332,3.34046 2.921995,2.7488 7.334556,6.11585 10.866668,8.29192 6.072189,3.74097 16.457645,8.07242 22.772582,9.49775 3.33978,0.75381 4.566765,0.79095 5.200311,0.1574 z m 66.716617,-22.39308 c 5.88566,-6.19607 11.87514,-16.00748 15.22997,-24.94831 1.31402,-3.501958 3.36052,-11.20335 3.36052,-12.64633 0,-0.499376 -0.22333,-1.131289 -0.4963,-1.404256 C 150.47138,88.117094 128.45458,81.28 126.87309,81.28 c -0.78449,0 -1.33862,1.315238 -2.0282,4.813968 -1.74588,8.858077 -5.20014,15.744502 -11.53532,22.996812 -2.17905,2.49451 -2.90957,3.55556 -2.90957,4.22604 0,0.75412 0.76928,1.56983 4.88,5.17456 10.63065,9.32211 13.6474,11.74862 14.60642,11.74862 0.71962,0 1.3959,-0.50919 3.20309,-2.41169 z M 86.08,121.7318 c 8.610774,-1.48153 17.52355,-6.13612 23.84225,-12.45132 6.44608,-6.44252 10.72541,-14.414269 12.69408,-23.647181 0.98119,-4.601705 0.97866,-12.436246 -0.005,-17.05359 C 119.95179,56.104426 112.7889,45.545085 102.52859,38.974979 98.218166,36.214838 90.861117,33.294803 86.145446,32.472461 82.44103,31.826463 73.954771,31.84923 70.056387,32.515626 57.689091,34.629702 45.841344,42.769917 39.404643,53.575475 c -6.943478,11.656304 -8.543742,25.550323 -4.354688,37.808871 1.244413,3.641564 4.288707,9.474974 6.587747,12.623294 7.187796,9.84304 19.039642,16.76868 31.162295,18.20972 3.336125,0.39657 9.452883,0.17292 13.28,-0.48556 z M 30.037965,72.672752 c 0.249199,-0.157869 0.752856,-1.922435 1.168559,-4.094054 C 32.96785,59.377578 36.41201,52.456154 42.859546,45.160637 45.08824,42.638822 45.76,41.664387 45.76,40.953322 45.76,40.16033 45.061805,39.415677 40.88,35.748618 30.291994,26.4639 27.230865,24 26.283621,24 25.592732,24 24.936955,24.468393 23.483507,26 15.028079,34.910122 8.7225917,46.46504 5.453671,59.04 4.4419706,62.931834 4.2960202,64.730307 4.939656,65.373942 5.4705584,65.904845 8.920065,67.05969 21.44,70.898016 c 6.635956,2.034432 7.806592,2.276067 8.597965,1.774736 z M 117.50137,42.16 c 2.32718,-2.581376 10.62015,-12.265852 12.6674,-14.79291 1.51728,-1.872877 1.37845,-2.567978 -0.96877,-4.850198 C 120.3059,13.869074 105.06012,5.8944442 93.457274,3.8208995 90.819834,3.3495626 89.833501,3.5529898 89.322918,4.6735926 88.830419,5.7545155 83.490602,23.069919 82.687728,26.189506 l -0.604682,2.349506 0.674509,0.546185 c 0.370983,0.300402 2.300368,0.866972 4.28753,1.259045 8.916589,1.759272 15.698325,5.162916 23.005695,11.54619 2.44488,2.135699 3.56215,2.909568 4.20068,2.909568 0.6839,0 1.37875,-0.564451 3.24991,-2.64 z"
       id="path5344"
       inkscape:connector-curvature="0" />
    <path
       style="stroke-width:0.31999999"
       d="m 67.36,154.24 -1.28,-0.22918 1.44,-0.0934 c 1.140918,-0.074 1.240611,-0.12046 0.48,-0.22385 -3.016131,-0.40999 -9.371971,-1.90253 -12.886822,-3.02621 C 38.113274,145.23263 24.349158,134.99959 14.148821,120.21211 8.2625222,111.67871 2.7124465,97.024006 1.5999309,87.077373 1.2828605,84.242554 0.68091878,82.101395 0.64483069,83.68 0.63268493,84.211293 0.57751107,84.23847 0.32,83.84 -0.02979624,83.29873 -0.11077935,71.959488 0.226299,70.72 l 0.21756001,-0.8 0.20571555,0.8 C 0.88321226,71.628586 1.1080603,70.642368 2.0722338,64.48 3.1768974,57.419712 6.1394835,48.630509 9.7502416,41.701398 20.710446,20.668567 39.750474,6.318527 63.2,1.4175163 65.903626,0.85245165 66.423136,0.66844218 65.44,0.62411395 L 64.16,0.56640061 65.44,0.3016418 c 1.667363,-0.34488232 23.612637,-0.34488232 25.28,0 L 92,0.56640061 90.72,0.62411395 c -0.980867,0.0442259 -0.457389,0.22871619 2.24,0.78944405 23.92076,4.9726004 43.60712,20.191644 54.25919,41.946442 3.63285,7.419392 5.95132,14.694448 7.16205,22.473632 0.40575,2.60705 0.44201,2.69273 0.51052,1.206368 l 0.0737,-1.6 0.24921,1.6 c 0.32865,2.110016 0.32994,18.154784 0.002,20 l -0.25622,1.44 -0.0644,-1.44 c -0.0486,-1.087693 -0.24912,-0.383078 -0.81948,2.88 -4.48968,25.68579 -20.87992,46.78003 -44.79625,57.65276 -5.47948,2.49105 -13.557203,4.87916 -19.68,5.8182 -2.73119,0.41888 -2.877468,0.47378 -1.44,0.5404 l 1.6,0.0741 -1.6,0.24921 c -1.989475,0.30988 -19.054556,0.2978 -20.8,-0.0147 z M 66.692707,150 C 67.546458,148.68502 73.92,127.40455 73.92,125.86896 c 0,-0.96682 -0.558266,-1.20444 -4.8,-2.04306 -8.96783,-1.773 -15.989805,-5.32782 -23.31887,-11.80501 C 43.995798,110.4254 42.243981,109.12 41.908195,109.12 40.915725,109.12 24.64,127.79647 24.64,128.93534 c 0,1.3104 8.445658,8.47918 14.08,11.95128 7.607082,4.68776 20.982957,9.70329 26.152624,9.8064 1.06839,0.0213 1.450851,-0.12432 1.820083,-0.69302 z m 66.364953,-22.1335 c 8.06576,-8.40148 14.53784,-20.25757 17.54244,-32.135684 1.30139,-5.144822 1.37248,-6.569763 0.3599,-7.214518 C 149.57829,87.636502 128.40738,81.28 126.85885,81.28 c -0.99547,0 -1.22812,0.530278 -2.05029,4.673299 -1.74353,8.785824 -5.47894,16.199591 -11.81899,23.457481 -1.60026,1.83193 -2.90957,3.56534 -2.90957,3.85203 0,0.60369 1.58716,2.17003 6.72,6.63182 8.37935,7.28387 12.52737,10.66537 13.083,10.66537 0.32384,0 1.75244,-1.21207 3.17466,-2.6935 z M 86.4,121.73534 c 8.7252,-1.51139 16.91521,-5.84677 23.52446,-12.45267 6.7401,-6.73668 10.70307,-14.019972 12.6939,-23.329371 0.99104,-4.634208 0.98843,-13.044073 -0.005,-17.69359 C 119.62419,54.27889 110.865,42.827728 98.34401,36.532298 94.906285,34.803843 89.772118,33.049094 86.465446,32.472461 82.728134,31.820727 73.664714,31.844112 69.736387,32.515626 62.081184,33.824211 55.227693,37.129706 48.662598,42.679683 36.121779,53.281395 30.41945,69.710736 33.590682,86.104346 35.985366,98.48361 44.347398,110.08396 55.479779,116.4703 c 5.312727,3.04777 11.287667,5.06772 17.000218,5.74728 3.400576,0.40452 10.15079,0.17067 13.92,-0.48224 z M 30.318104,72.56 c 0.174057,-0.22 0.568927,-1.84 0.877487,-3.6 C 32.737965,60.162442 36.718077,52.151917 43.179546,44.840637 44.774794,43.035578 46.08,41.292758 46.08,40.967706 46.08,40.642653 45.108,39.48376 43.92,38.392394 39.247485,34.099942 27.455687,24.143231 26.705161,23.856596 c -0.701374,-0.267863 -0.984082,-0.117924 -2.413424,1.28 C 18.748476,30.558014 13.206502,38.706061 9.6125923,46.718502 7.2388858,52.010563 4.941473,59.56153 4.5844973,63.244477 4.4079216,65.066224 4.4495203,65.244883 5.1570435,65.703472 5.5766698,65.975459 10.456,67.58577 16,69.281939 c 5.544,1.696173 10.44,3.206256 10.88,3.355741 1.216386,0.413258 3.083057,0.371082 3.438104,-0.07768 z m 87.195536,-30.4 c 2.49243,-2.736637 10.58376,-12.161092 12.97513,-15.11291 0.56718,-0.700101 1.03123,-1.495704 1.03123,-1.768009 0,-0.560327 -3.64034,-4.212118 -6.63232,-6.65318 C 116.76042,11.99513 104.61313,6.1197776 94.619078,3.9857018 91.402435,3.2988371 90.033574,3.3664589 89.47136,4.24 88.618234,5.5655427 82.24,26.712217 82.24,28.21516 c 0,1.143951 0.404746,1.329497 4.8,2.200448 8.715738,1.727083 16.05035,5.435083 23.33078,11.794824 1.83193,1.600262 3.58193,2.909568 3.88889,2.909568 0.30696,0 1.77124,-1.332 3.25397,-2.96 z"
       id="path5342"
       inkscape:connector-curvature="0" />
  </g>
</svg>
