<?xml version="1.0" encoding="UTF-8"?>
<!-- Generator: Adobe Illustrator 23.0.1, SVG Export Plug-In . SVG Version: 6.00 Build 0)  -->
<svg version="1.1" viewBox="0 0 14 14" xml:space="preserve" xmlns="http://www.w3.org/2000/svg" xmlns:cc="http://creativecommons.org/ns#" xmlns:dc="http://purl.org/dc/elements/1.1/" xmlns:rdf="http://www.w3.org/1999/02/22-rdf-syntax-ns#">

<path d="m7.4991 0c-1.8342 1.3333-3.6649 2.6667-5.4991 4v6.9982l6.4974 3.0018 5.5026-4v-6.9982-0.00353zm5.0723 3.5132-4.0741 2.9594-2.0635-0.92769 4.0988-2.9735zm-5.0723-2.3422 1.9929 0.92063-4.1093 2.9806-1.9683-0.88536zm-4.5009 4 2 0.92416 0.0035274 2.903 0.99824 0.46208v-2.903l2 0.92416v5.1146l-5.0018-2.3069zm10.004 4.321-4.0035 2.9065v-5.0511l4.0035-2.9136z"/>
<metadata><rdf:RDF><cc:Work rdf:about=""><dc:creator><cc:Agent><dc:title>Tomasz-W</dc:title></cc:Agent></dc:creator><cc:license rdf:resource="http://creativecommons.org/publicdomain/zero/1.0/"/><dc:contributor><cc:Agent><dc:title>ttomasz</dc:title></cc:Agent></dc:contributor></cc:Work><cc:License rdf:about="http://creativecommons.org/publicdomain/zero/1.0/"><cc:permits rdf:resource="http://creativecommons.org/ns#Reproduction"/><cc:permits rdf:resource="http://creativecommons.org/ns#Distribution"/><cc:permits rdf:resource="http://creativecommons.org/ns#DerivativeWorks"/></cc:License></rdf:RDF></metadata><path d="m0 14h3v-1h-2v-12h2v-1h-3z"/></svg>
