<?xml version="1.0" encoding="UTF-8" standalone="no"?>
<svg
   xmlns:dc="http://purl.org/dc/elements/1.1/"
   xmlns:cc="http://creativecommons.org/ns#"
   xmlns:rdf="http://www.w3.org/1999/02/22-rdf-syntax-ns#"
   xmlns:svg="http://www.w3.org/2000/svg"
   xmlns="http://www.w3.org/2000/svg"
   viewBox="0 0 14 14"
   height="14"
   width="14"
   id="craft_brewery"
   version="1.1">
  <metadata
     id="metadata115">
    <rdf:RDF>
      <cc:Work
         rdf:about="">
        <dc:format>image/svg+xml</dc:format>
        <dc:type
           rdf:resource="http://purl.org/dc/dcmitype/StillImage" />
        <dc:title></dc:title>
      </cc:Work>
    </rdf:RDF>
  </metadata>
  <defs
     id="defs113" />
  <path
     id="rect4506"
     d="M 3.8046875 0 L 3.8046875 8.7617188 C 3.7285227 8.9177589 3.6311407 9.0540968 3.5175781 9.171875 C 3.4547352 9.2370506 3.3845279 9.2938724 3.3125 9.3496094 C 2.7797576 9.7366959 2.0181416 9.9253346 1.359375 10.191406 C 1.356115 10.192706 1.3528594 10.195966 1.3496094 10.197266 C 0.68757606 10.452233 0.13097313 10.788486 0.017578125 11.523438 L 9.1621094 11.523438 C 9.1616704 11.520735 9.1606562 11.518425 9.1601562 11.515625 L 9.171875 11.515625 C 9.003902 10.426724 7.8653083 10.209518 6.8496094 9.8359375 C 6.7296813 9.7910775 6.60877 9.7470309 6.4941406 9.6972656 C 6.3139369 9.6180409 6.1477976 9.5255211 5.9921875 9.4199219 C 5.9699953 9.4048621 5.9414506 9.3946573 5.9199219 9.3789062 C 5.6952414 9.2145238 5.5143786 9.0057916 5.3867188 8.7421875 L 5.3867188 0 L 3.8046875 0 z M 10.507812 0 C 10.346604 0 10.216797 0.13176108 10.216797 0.29296875 L 10.216797 0.88085938 C 8.5213416 1.021624 7.1643296 2.3727038 7.0175781 4.0664062 C 7.6847499 4.0093119 8.3131268 3.7652412 8.8496094 3.3515625 L 9.1054688 3.1523438 L 9.2753906 3.4296875 C 9.5820357 3.9280586 10.005937 4.3402768 10.507812 4.6308594 C 11.009688 4.3402768 11.433735 3.9280586 11.740234 3.4296875 L 11.910156 3.1523438 L 12.167969 3.3515625 C 12.704744 3.7652412 13.332828 4.009458 14 4.0664062 C 13.853394 2.3728497 12.496236 1.0217701 10.800781 0.88085938 L 10.800781 0.29296875 C 10.800781 0.13176108 10.66902 0 10.507812 0 z M 8.9511719 3.9941406 C 8.4923725 4.296113 7.9859024 4.4966458 7.4511719 4.59375 C 7.431167 5.2022214 7.5701252 5.8096043 7.8652344 6.359375 C 8.6430906 6.0486414 9.2718304 5.4788293 9.6582031 4.7460938 C 9.3933203 4.5266236 9.1544337 4.2745018 8.9511719 3.9941406 z M 12.064453 3.9941406 C 11.861191 4.2747938 11.624404 4.5266236 11.359375 4.7460938 C 11.745894 5.4788293 12.374488 6.0487874 13.152344 6.359375 C 13.447454 5.8097503 13.586411 5.2020753 13.566406 4.59375 C 13.031384 4.4966458 12.523252 4.296259 12.064453 3.9941406 z M 10.134766 5.0878906 C 9.9610006 5.4028589 9.7500984 5.6920202 9.5039062 5.9472656 C 9.6906676 6.5415729 10.031929 7.0786918 10.507812 7.5039062 C 10.983696 7.0788379 11.327057 6.5417189 11.513672 5.9472656 C 11.267188 5.6918742 11.056725 5.4030049 10.882812 5.0878906 C 10.804543 5.1356396 10.724204 5.1821174 10.642578 5.2246094 L 10.507812 5.2949219 L 10.373047 5.2246094 C 10.291421 5.1821172 10.213034 5.1357856 10.134766 5.0878906 z M 9.0292969 6.3671875 C 8.76383 6.5678209 8.4732262 6.7346 8.1601562 6.8671875 C 8.2204631 7.4058605 8.4040916 7.9291609 8.7089844 8.3945312 C 9.1159461 8.1892251 9.471191 7.9098308 9.7636719 7.5761719 C 9.4488496 7.215791 9.1994119 6.8084642 9.0292969 6.3671875 z M 11.988281 6.3671875 C 11.818167 6.8086103 11.56902 7.2157911 11.253906 7.5761719 C 11.546387 7.9098309 11.901778 8.1893711 12.308594 8.3945312 C 12.613486 7.929015 12.797408 7.4057145 12.857422 6.8671875 C 12.544498 6.7346001 12.253748 6.5675289 11.988281 6.3671875 z M 10.177734 7.9882812 C 10.000464 8.1870164 9.8042032 8.3679433 9.5898438 8.5292969 C 9.7879948 9.0263541 10.098076 9.4758671 10.507812 9.8417969 C 10.917839 9.4757213 11.229875 9.0246927 11.427734 8.5273438 C 11.213812 8.3662823 11.016968 8.1867244 10.839844 7.9882812 C 10.790051 8.0313571 10.741733 8.0743484 10.689453 8.1152344 L 10.507812 8.2558594 L 10.328125 8.1152344 C 10.275995 8.0744937 10.227524 8.0312113 10.177734 7.9882812 z M 0 12.023438 L 0 14 L 9.1445312 14 L 9.1445312 12.023438 L 0 12.023438 z "
     style="opacity:1;fill:#000000;fill-opacity:1;fill-rule:evenodd;stroke:none;stroke-width:0.9391678;stroke-linecap:square;stroke-linejoin:round;stroke-miterlimit:4;stroke-dasharray:none;stroke-opacity:1;paint-order:stroke fill markers" />
</svg>
