<?xml version="1.0" encoding="UTF-8"?>
<svg id="craft_brewery" width="14" height="14" version="1.1" viewBox="0 0 14 14" xmlns="http://www.w3.org/2000/svg">
 <path d="m3.8047 0v8.7617c-0.076165 0.15604-0.17355 0.29238-0.28711 0.41016-0.062843 0.065176-0.13305 0.122-0.20508 0.17773-0.53274 0.38709-1.2944 0.57573-1.9531 0.8418-0.00326 0.0013-0.0065156 0.00456-0.0097656 0.00586-0.66203 0.25497-1.2186 0.59122-1.332 1.3262h9.1445c-4.39e-4 -0.002703-0.0014532-0.005013-0.0019532-0.007813h0.011719c-0.16797-1.0889-1.3066-1.3061-2.3223-1.6797-0.11993-0.04486-0.24084-0.088907-0.35547-0.13867-0.1802-0.079225-0.34634-0.17174-0.50195-0.27734-0.022192-0.01506-0.050737-0.025265-0.072266-0.041016-0.22468-0.16438-0.40554-0.37311-0.5332-0.63672v-8.7422h-1.582zm6.7031 0c-0.16121 0-0.29102 0.13176-0.29102 0.29297v0.58789c-1.6955 0.14076-3.0525 1.4918-3.1992 3.1855 0.66717-0.057094 1.2955-0.30116 1.832-0.71484l0.25586-0.19922 0.16992 0.27734c0.30665 0.49837 0.73055 0.91059 1.2324 1.2012 0.50188-0.29058 0.92592-0.7028 1.2324-1.2012l0.16992-0.27734 0.25781 0.19922c0.53678 0.41368 1.1649 0.6579 1.832 0.71484-0.14661-1.6936-1.5038-3.0446-3.1992-3.1855v-0.58789c0-0.16121-0.13176-0.29297-0.29297-0.29297zm-1.5566 3.9941c-0.4588 0.30197-0.96527 0.50251-1.5 0.59961-0.020005 0.60847 0.11895 1.2159 0.41406 1.7656 0.77786-0.31073 1.4066-0.88055 1.793-1.6133-0.26488-0.21947-0.50377-0.47159-0.70703-0.75195zm3.1133 0c-0.20326 0.28065-0.44005 0.53248-0.70508 0.75195 0.38652 0.73274 1.0151 1.3027 1.793 1.6133 0.29511-0.54962 0.43407-1.1573 0.41406-1.7656-0.53502-0.097104-1.0432-0.29749-1.502-0.59961zm-1.9297 1.0938c-0.17377 0.31497-0.38467 0.60413-0.63086 0.85938 0.18676 0.59431 0.52802 1.1314 1.0039 1.5566 0.47588-0.42507 0.81924-0.96219 1.0059-1.5566-0.24648-0.25539-0.45695-0.54426-0.63086-0.85938-0.078269 0.047749-0.15861 0.094227-0.24023 0.13672l-0.13477 0.070312-0.13476-0.070312c-0.081626-0.042492-0.16001-0.088824-0.23828-0.13672zm-1.1055 1.2793c-0.26547 0.20063-0.55607 0.36741-0.86914 0.5 0.060307 0.53867 0.24394 1.062 0.54883 1.5273 0.40696-0.20531 0.76221-0.4847 1.0547-0.81836-0.31482-0.36038-0.56426-0.76771-0.73438-1.209zm2.959 0c-0.17011 0.44142-0.41926 0.8486-0.73438 1.209 0.29248 0.33366 0.64787 0.6132 1.0547 0.81836 0.30489-0.46552 0.48881-0.98882 0.54883-1.5273-0.31292-0.13259-0.60367-0.29966-0.86914-0.5zm-1.8105 1.6211c-0.17727 0.19874-0.37353 0.37966-0.58789 0.54102 0.19815 0.49706 0.50823 0.94657 0.91797 1.3125 0.41003-0.36608 0.72206-0.8171 0.91992-1.3145-0.21392-0.16106-0.41077-0.34062-0.58789-0.53906-0.049793 0.043076-0.098111 0.086067-0.15039 0.12695l-0.18164 0.14062-0.17969-0.14062c-0.05213-0.040741-0.1006-0.084023-0.15039-0.12695zm-10.178 4.0352v1.9766h9.1445v-1.9766h-9.1445z" fill-rule="evenodd"/>
</svg>
