<?xml version="1.0" encoding="UTF-8"?>
<svg width="14" height="14" version="1.1" viewBox="0 0 14 14" xmlns="http://www.w3.org/2000/svg">
 <path d="m3 0v8c-0.16856 1.8269-3.0802 1.3971-3 3v0.5h8v-0.5c0.080197-1.6029-2.8314-1.1731-3-3v-8h-2zm7.5 0c-0.16161 0-0.29297 0.13306-0.29297 0.29688v0.59766c-1.6996 0.14304-3.0599 1.5172-3.207 3.2383 0.66882-0.058017 1.2981-0.3062 1.8359-0.72656l0.25781-0.20117 0.16992 0.2793c0.3074 0.50642 0.73321 0.92738 1.2363 1.2227 0.50312-0.29528 0.92907-0.71623 1.2363-1.2227l0.16992-0.2793 0.25781 0.20117c0.5381 0.42036 1.1671 0.66869 1.8359 0.72656-0.14697-1.7209-1.5074-3.0951-3.207-3.2383v-0.59766c0-0.16381-0.13136-0.29687-0.29297-0.29688zm-1.5605 4.0586c-0.45993 0.30685-0.96981 0.51265-1.5059 0.61133-0.020054 0.6183 0.12018 1.2343 0.41602 1.793 0.77978-0.31576 1.4115-0.8941 1.7988-1.6387-0.26554-0.22302-0.50522-0.48073-0.70898-0.76562zm3.1211 0c-0.20376 0.28519-0.4433 0.54261-0.70898 0.76562 0.38747 0.74458 1.019 1.3231 1.7988 1.6387 0.29584-0.55851 0.43607-1.1748 0.41602-1.793-0.53634-0.098673-1.0459-0.30433-1.5059-0.61133zm-1.9355 1.1113c-0.17419 0.32006-0.38601 0.61368-0.63281 0.87305 0.18722 0.60391 0.53075 1.1519 1.0078 1.584 0.47706-0.43194 0.82074-0.97797 1.0078-1.582-0.24709-0.25952-0.45847-0.55479-0.63281-0.875-0.07846 0.048521-0.15841 0.095493-0.24023 0.13867l-0.13477 0.070312-0.13477-0.070312c-0.081828-0.043179-0.16177-0.090003-0.24023-0.13867zm-1.1074 1.2988c-0.26612 0.20388-0.5592 0.37504-0.87305 0.50977 0.060456 0.54738 0.24514 1.0779 0.55078 1.5508 0.40797-0.20862 0.76539-0.49103 1.0586-0.83008-0.3156-0.3662-0.56579-0.78206-0.73633-1.2305zm2.9648 0.0019531c-0.17053 0.44856-0.42044 0.86231-0.73633 1.2285 0.2932 0.33905 0.65077 0.6216 1.0586 0.83008 0.30564-0.47304 0.49062-1.0036 0.55078-1.5508-0.3137-0.13473-0.60692-0.30423-0.87305-0.50781zm-1.8145 1.6465c-0.17771 0.20195-0.37495 0.38487-0.58984 0.54883 0.19864 0.50509 0.51112 0.96214 0.92188 1.334 0.41104-0.37199 0.72158-0.8286 0.91992-1.334-0.21445-0.16366-0.41033-0.34718-0.58789-0.54883-0.049916 0.043772-0.099933 0.087359-0.15234 0.12891l-0.17969 0.14258-0.17969-0.14258c-0.052263-0.041399-0.10243-0.085282-0.15234-0.12891zm-10.168 3.8828v2h8v-2h-8z" fill-rule="evenodd" style="paint-order:fill markers"/>
</svg>
