<?xml version="1.0" encoding="UTF-8"?>
<svg width="14" height="14" version="1.1" viewBox="0 0 14 14" xmlns="http://www.w3.org/2000/svg">
 <path d="m13 0l-5.1172 4.3867-0.53516 0.45898 2.1543 2.1543h0.49805v-2h2v-2h2v-2l-1-1zm-6.1621 0.0058594c-1.1814 0.038752-2.4377 0.28912-4.0371 1.4082l-1.3867 1.4062 0.33789 0.33789-0.69727 0.69922-0.35352-0.35352-0.70117 0.70508 1.4023 1.4004 0.70117-0.70312-0.35156-0.34961v-0.0019531l0.69922-0.69922 2.7949 2.791 2.0137 2.0078 5.3535 5.3457 1.3867-1.4062-9.6152-9.5938 0.0097656 0.0058594-0.17773-0.17773c0.82847-0.77341 2.575-2.4316 3.7832-2.4316 0.00244-0.26066 0.0039062-0.15121 0.0039062-0.38281-0.38718-0.0095916-0.77223-0.02073-1.166-0.0078125zm-2.1855 7.1484l-2.1504 1.8457 0.0039063 0.0058594c-0.11817 0.012961-0.23452 0.046599-0.34375 0.10547l-1.709 0.91992c-0.44215 0.2383-0.58452 0.77399-0.32031 1.2012l1.4297 2.3145c0.2642 0.42718 0.83324 0.57814 1.2754 0.33984l1.709-0.91992c0.39764-0.21431 0.53395-0.66628 0.36914-1.0664l0.083984 0.099609 1-1h1v-1.498l-2.3477-2.3477zm-2.0449 2.8457l1.3926 2.166-1.6074 0.83398-1.3926-2.166 1.6074-0.83398z" fill-rule="evenodd" style="paint-order:fill markers"/>
</svg>
