<?xml version="1.0" encoding="UTF-8"?>
<svg id="craft_carpenter" width="14" height="14" version="1.1" viewBox="0 0 14 14" xmlns="http://www.w3.org/2000/svg">
 <path d="m12.639 0l-5.4434 4.8164 2.0586 2.0586h1.3828v-1.8535h1.6719v-1.8262l0.013672-0.015625h1.6777v-1.8633h-0.039062l-1.3223-1.3164zm-5.9355 5.252l-1.5215 1.3457 2.082 2.082 1.373-1.4941-1.9336-1.9336zm-2.0137 1.7832l-2.0703 1.8301c-0.058741-0.0025547-0.11673-0.011261-0.17578-0.0039063-0.13733 0.017105-0.2746 0.06119-0.40234 0.13477l-1.5078 0.86914c-0.51099 0.2943-0.68405 0.9408-0.38867 1.4512l1.2441 2.1504c0.29538 0.51037 0.94409 0.68493 1.4551 0.39062l1.5078-0.86914c0.51099-0.2943 0.68405-0.94276 0.38867-1.4531l-0.039062-0.068359 0.73633-0.80078h1.5566v-1.3262l-2.3047-2.3047zm-2.25 2.6602c0.061887-0.0077079 0.12243 0.0085811 0.17969 0.03125l0.25977 0.2793 1.0645 1.8398c0.10217 0.17654 0.041987 0.40015-0.13477 0.50195l-1.2969 0.74805c-0.17675 0.1018-0.40173 0.041772-0.50391-0.13476l-1.1387-1.9688c-0.10217-0.17654-0.041987-0.40211 0.13477-0.50391l1.2969-0.74609c0.044188-0.02545 0.091168-0.040958 0.13867-0.046875z" fill-rule="evenodd"/>
 <path d="m6.6484 0.0039062c-1.1071 0.038135-2.2837 0.28999-3.7812 1.4102l-0.0019531-0.0019531-0.0097656 0.0097656c-0.002008 0.0015066-0.0038503 0.0023966-0.0058594 0.0039062l0.0019531 0.0019532-1.4102 1.4316 0.30859 0.30859-0.48242 0.48438-0.31836-0.32031-0.94922 0.95312 1.4355 1.4414 0.94922-0.95312-0.30664-0.30859 0.48438-0.48438 10.014 10.02 1.4238-1.4473-9.7109-9.7168c-0.037658-1.4242 2.3172-2.4355 3.4531-2.4355 0.00231-0.2636 0.0039063-0.15446 0.0039063-0.38867-0.3646-0.0096998-0.72713-0.020575-1.0977-0.0078125z" fill-rule="evenodd"/>
</svg>
