<?xml version="1.0" encoding="UTF-8" standalone="no"?>
<svg
   xmlns:dc="http://purl.org/dc/elements/1.1/"
   xmlns:cc="http://creativecommons.org/ns#"
   xmlns:rdf="http://www.w3.org/1999/02/22-rdf-syntax-ns#"
   xmlns:svg="http://www.w3.org/2000/svg"
   xmlns="http://www.w3.org/2000/svg"
   viewBox="0 0 14 14"
   height="14"
   width="14"
   id="craft_electrician"
   version="1.1">
  <metadata
     id="metadata115">
    <rdf:RDF>
      <cc:Work
         rdf:about="">
        <dc:format>image/svg+xml</dc:format>
        <dc:type
           rdf:resource="http://purl.org/dc/dcmitype/StillImage" />
        <dc:title></dc:title>
      </cc:Work>
    </rdf:RDF>
  </metadata>
  <defs
     id="defs113" />
  <path
     id="rect4486-7"
     d="M 1.1445312 0 L 1.1445312 2.1679688 L 0 2.1679688 L 1.0820312 6.6953125 L 2.265625 6.6953125 L 2.265625 10.818359 L 2.2714844 10.818359 C 2.28877 12.577559 3.7171939 14 5.4804688 14 C 7.2283541 14 8.6421148 12.601201 8.6835938 10.863281 L 8.6972656 10.863281 L 8.6972656 3.140625 L 8.6875 3.140625 A 2.1228261 2.1228261 0 0 1 10.808594 1.0683594 A 2.1228261 2.1228261 0 0 1 12.931641 3.1914062 L 14 3.1914062 C 14 1.4290456 12.570955 -5.5066557e-008 10.808594 0 C 9.0636672 -2.180871e-007 7.6509366 1.4023354 7.6230469 3.140625 L 7.6152344 3.140625 L 7.6152344 10.830078 A 2.1368706 2.1368706 0 0 1 5.4804688 12.923828 A 2.1368706 2.1368706 0 0 1 3.3457031 10.818359 L 3.3476562 10.818359 L 3.3476562 6.6953125 L 4.4199219 6.6953125 L 5.6132812 2.1679688 L 4.4667969 2.1679688 L 4.4667969 0 L 3.5410156 0 L 3.5410156 2.1679688 L 2.0722656 2.1679688 L 2.0722656 0 L 1.1445312 0 z M 12.917969 3.1933594 L 12.917969 14 L 14 14 L 14 3.1933594 L 12.917969 3.1933594 z "
     style="opacity:1;fill:#000000;fill-opacity:1;fill-rule:evenodd;stroke:none;stroke-width:1.18225479;stroke-linecap:square;stroke-linejoin:round;stroke-miterlimit:4;stroke-dasharray:none;stroke-opacity:1;paint-order:stroke fill markers" />
</svg>

