<?xml version="1.0" encoding="UTF-8"?>
<svg id="craft_electrician" width="14" height="14" version="1.1" viewBox="0 0 14 14" xmlns="http://www.w3.org/2000/svg">
 <path d="m1.1445 0v2.168h-1.1445l1.082 4.5273h1.1836v4.123h0.0058594c0.017286 1.7592 1.4457 3.1816 3.209 3.1816 1.7479 0 3.1616-1.3988 3.2031-3.1367h0.013672v-7.7227h-0.0097656a2.1228 2.1228 0 0 1 2.1211 -2.0723 2.1228 2.1228 0 0 1 2.123 2.123h1.0684c0-1.7624-1.429-3.1914-3.1914-3.1914-1.7449-2.1809e-7 -3.1577 1.4023-3.1855 3.1406h-0.0078125v7.6895a2.1369 2.1369 0 0 1 -2.1348 2.0938 2.1369 2.1369 0 0 1 -2.1348 -2.1055h0.0019531v-4.123h1.0723l1.1934-4.5273h-1.1465v-2.168h-0.92578v2.168h-1.4688v-2.168h-0.92773zm11.773 3.1934v10.807h1.082v-10.807h-1.082z" fill-rule="evenodd"/>
</svg>
