<?xml version="1.0" encoding="UTF-8"?>
<svg id="craft_plumber" width="14" height="14" version="1.1" viewBox="0 0 14 14" xmlns="http://www.w3.org/2000/svg">
 <g transform="translate(1.552 2.8104)">
  <rect id="canvas" x="1.701" y="-5.268" width="14" height="14" fill="none" visibility="hidden"/>
  <path id="drinking-water" transform="translate(-1.552 -2.8104)" d="m2.4668-0.0078125c-1.3623 1.6189e-4 -2.4666 1.1045-2.4668 2.4668 9.9682e-4 0.12893 0.012099 0.25758 0.033203 0.38477l1.9082-1.1016 1.2246 2.1211-1.5645 0.9043c0.27661 0.10414 0.56967 0.15772 0.86523 0.1582 0.92709-8.97e-5 1.7759-0.51992 2.1973-1.3457h8.2402c0.61288 0 1.1074-0.49259 1.1074-1.1055s-0.49454-1.1074-1.1074-1.1074h-8.2285c-0.41514-0.84093-1.2712-1.3738-2.209-1.375zm1.2344 1.334 0.68164 1.166-0.85938 0.49023-0.68359-1.168zm9.0918 0.58984c0.16071-0.010223 0.3208 0.05124 0.4375 0.16797 0.21902 0.21845 0.22689 0.56565 0.01758 0.77539-0.20919 0.20989-0.55641 0.20289-0.77539-0.015625-0.21902-0.21845-0.22689-0.56565-0.01758-0.77539 0.08935-0.089927 0.20906-0.1439 0.33789-0.15234zm-8.127 4.3047c-1.5556 0-1.5556 1.5547 0 1.5547h1.5566v1.5566h-1.5566c-3.1111 0-4.666 1.5559-4.666 4.668h2.334c0-1.5833 0.64466-2.3478 2.332-2.334h9.334v-2.334h-6.2227v-1.5566h1.5566c1.5556 0 1.5556-1.5547 0-1.5547z" stroke-width="1.5558"/>
  <rect transform="rotate(-45)" x="1.0028" y="-3.9271" width="10.906" height="10.906" fill="none" visibility="hidden"/>
  <rect transform="rotate(-90)" x="-1.3369" y="3.3439" width=".56772" height="4.3102" fill="#fff" fill-rule="evenodd"/>
 </g>
</svg>
