<?xml version="1.0" encoding="UTF-8"?>
<svg width="14" height="14" version="1.1" viewBox="0 0 14 14" xmlns="http://www.w3.org/2000/svg">
 <g transform="translate(1.552 2.8104)">
  <rect id="canvas" x="1.701" y="-5.268" width="14" height="14" fill="none" visibility="hidden"/>
  <path id="drinking-water" transform="translate(-1.552 -2.8104)" d="m2.5 0c-1.2631 0.0016798-2.3265 0.94528-2.4785 2.1992l1.2949-0.74805 1.5039 2.6016-1.2949 0.74805c0.30824 0.13102 0.63967 0.19877 0.97461 0.19922 0.78552-0.0012281 1.5248-0.37158 1.9961-1h8.0039c0.831 0 1.5-0.669 1.5-1.5s-0.669-1.5-1.5-1.5h-8.002c-0.47172-0.62897-1.2118-0.99939-1.998-1zm1.0586 1.3223 1.0039 1.7227-0.86133 0.48828-1.0039-1.7246zm8.8867 0.67773c0.01688-8.618e-4 0.03383-8.618e-4 0.05078 0 0.13024 0.00476 0.25568 0.060115 0.34961 0.1543 0.19958 0.19931 0.20658 0.51589 0.01563 0.70703-0.19115 0.19095-0.50772 0.18396-0.70703-0.015625-0.19958-0.19931-0.20658-0.51589-0.015625-0.70703 0.081151-0.081591 0.18973-0.13069 0.30664-0.13867zm-7.7793 4c-1.5556 0-1.5556 1.5996 0 1.5996h1.5566v1.5996h-1.5566c-3.1111 0-4.666 1.6008-4.666 4.8008h2.334c0-1.628 0.64466-2.4146 2.332-2.4004h9.334v-2.4004h-6.2227v-1.5996h1.5566c1.5556 0 1.5556-1.5996 0-1.5996z" stroke-width="1.5776"/>
  <rect transform="rotate(-45)" x="1.0028" y="-3.9271" width="10.906" height="10.906" fill="none" visibility="hidden"/>
  <rect x="-1.4305" y=".18955" width=".7292" height="1.1999" fill="#fff" style="paint-order:markers fill"/>
 </g>
</svg>