<?xml version="1.0" encoding="UTF-8"?>
<svg width="14" height="14" version="1.1" viewBox="0 0 14 14" xmlns="http://www.w3.org/2000/svg">
 <path id="shoes" d="m2.8008 0c-0.80169 0.38516-1.8008 0.83213-1.8008 2.5l0.011719 1.4961h0.49023l0.0019531 1.0039h-0.50391l0.00195 0.99805c0.66739 6.911e-4 1.3327 0.0024387 1.998 0.0019531l-0.0019531-0.99805h-0.49805l-0.0019531-1.0059 10.502 0.0039062-0.011719-1.4961-10.492-0.0039062c-2.545e-4 -0.83159-0.085181-1.8944 0.50391-2.3457-0.13514-0.10536-0.078085-0.061496-0.19922-0.1543zm-1.8008 7v1.75h4.5v-1.75zm7.2852 0c-0.42857 0-1.0273 0.875-1.0273 0.875h5.7422v-0.875zm-1.457 1.5312c0.00548 0-0.68471 0.875-1.1133 0.875h-4.7148c0 2.625 0.64258 4.5938 0.64258 4.5938h0.21484c0.87126-1.3199 2.572-1.3199 3.2148 0h0.21289s1.7151-0.875 2.5723-2.625h1.7148c0.85714 0 3.4277-0.21875 3.4277-2.8438zm-0.25586 2.8438c0.23669 0 0.42773 0.19588 0.42773 0.4375s-0.19104 0.4375-0.42773 0.4375c-0.23669 0-0.42969-0.19588-0.42969-0.4375s0.19299-0.4375 0.42969-0.4375zm-0.85742 0.875c0.23669 0 0.42773 0.19588 0.42773 0.4375 0 0.24162-0.19104 0.4375-0.42773 0.4375-0.23669 0-0.42969-0.19588-0.42969-0.4375 1e-7 -0.24162 0.19299-0.4375 0.42969-0.4375z"/>
</svg>