<?xml version="1.0" encoding="UTF-8"?>
<svg id="shoemaker" width="14" height="14" version="1.1" viewBox="0 0 14 14" xmlns="http://www.w3.org/2000/svg">
 <path id="shoes" d="m3.1133 0c-0.75818 0.62055-1.5099 1.2222-1.7637 2.7578-2.454e-4 0.00148-0.00171 0.00242-0.00195 0.00391h0.00195l0.00977 1.4473h0.2793l0.00195 0.90625h-0.28906l0.0019531 0.96289 1.459 0.0019531-0.0019531-0.96094h-0.28711l-0.00195-0.91016 10.129 0.00391-0.0098-1.4512c-3.2799-0.0017121-6.5599-4.22e-4 -9.8398-0.0058632-0.75613-0.60189-0.070396-2.0849 0.50781-2.584-0.13245-0.11635-0.076594-0.069395-0.19531-0.17188zm-1.7656 7.541v1.6152h4.2402v-1.6152zm6.8633 0c-0.40372 0-0.96875 0.80664-0.96875 0.80664h5.4102v-0.80664zm-1.373 1.4121c0.00516 0-0.64511 0.80859-1.0488 0.80859h-4.4414c1e-7 2.4223 0.60547 4.2383 0.60547 4.2383h0.20312c0.82074-1.218 2.4218-1.218 3.0273 0h0.20117s1.6144-0.807 2.4219-2.4219h1.6152c0.80744 0 3.2305-0.20268 3.2305-2.625zm-0.24219 2.625c0.22297 0 0.4043 0.17938 0.4043 0.40234s-0.18133 0.4043-0.4043 0.4043-0.40234-0.18133-0.40234-0.4043 0.17938-0.40234 0.40234-0.40234zm-0.80664 0.80664c0.22297 0 0.4043 0.18133 0.4043 0.4043 0 0.22297-0.18133 0.4043-0.4043 0.4043s-0.4043-0.18133-0.4043-0.4043c0-0.22297 0.18133-0.4043 0.4043-0.4043z"/>
</svg>
