<?xml version="1.0" encoding="UTF-8" standalone="no"?>
<svg
   xmlns:dc="http://purl.org/dc/elements/1.1/"
   xmlns:cc="http://creativecommons.org/ns#"
   xmlns:rdf="http://www.w3.org/1999/02/22-rdf-syntax-ns#"
   xmlns:svg="http://www.w3.org/2000/svg"
   xmlns="http://www.w3.org/2000/svg"
   viewBox="0 0 14 14"
   height="14"
   width="14"
   id="shoemaker"
   version="1.1">
  <metadata
     id="metadata115">
    <rdf:RDF>
      <cc:Work
         rdf:about="">
        <dc:format>image/svg+xml</dc:format>
        <dc:type
           rdf:resource="http://purl.org/dc/dcmitype/StillImage" />
        <dc:title></dc:title>
      </cc:Work>
    </rdf:RDF>
  </metadata>
  <defs
     id="defs113" />
  <path
     id="shoes"
     d="M 3.1132812,0 C 2.355102,0.62055172 1.6033773,1.2221893 1.3496094,2.7578125 c -2.454e-4,0.00148 -0.00171,0.00242 -0.00195,0.00391 h 0.00195 l 0.00977,1.4472656 h 0.2792969 l 0.00195,0.90625 H 1.3515625 L 1.3535156,6.078125 2.8125,6.0800781 2.8105469,5.1191406 H 2.5234375 l -0.00195,-0.9101562 10.1289066,0.00391 -0.0098,-1.4511718 C 9.3606769,2.7600105 6.0807252,2.7613006 2.8007812,2.7558594 2.0446519,2.1539692 2.7303849,0.67099409 3.3085938,0.171875 3.1761476,0.05552352 3.2320003,0.10248021 3.1132812,0 Z M 1.3476562,7.5410156 V 9.15625 H 5.5878906 V 7.5410156 Z m 6.8632813,0 c -0.4037198,0 -0.96875,0.8066406 -0.96875,0.8066406 H 12.652344 V 7.5410156 Z M 6.8378906,8.953125 c 0.00516,0 -0.6451083,0.8085938 -1.0488281,0.8085938 H 1.3476562 C 1.3476563,12.184038 1.953125,14 1.953125,14 H 2.15625 c 0.8207398,-1.217952 2.421764,-1.217952 3.0273438,0 h 0.2011718 c 0,0 1.6144353,-0.806996 2.421875,-2.421875 H 9.421875 c 0.80744,0 3.230469,-0.202681 3.230469,-2.625 z m -0.2421875,2.625 C 6.8186711,11.578125 7,11.757501 7,11.980469 c 0,0.222968 -0.1813289,0.404297 -0.4042969,0.404297 -0.222968,0 -0.4023437,-0.181329 -0.4023437,-0.404297 0,-0.222968 0.1793757,-0.402344 0.4023437,-0.402344 z m -0.8066406,0.806641 c 0.222968,0 0.4042969,0.181329 0.4042969,0.404296 0,0.222968 -0.1813289,0.404297 -0.4042969,0.404297 -0.222968,0 -0.4042969,-0.181329 -0.4042969,-0.404297 0,-0.222967 0.1813289,-0.404296 0.4042969,-0.404296 z"
     style="stroke-width:0.80743968" />
</svg>

