<?xml version="1.0" encoding="UTF-8" standalone="no"?>
<svg
   xmlns:dc="http://purl.org/dc/elements/1.1/"
   xmlns:cc="http://creativecommons.org/ns#"
   xmlns:rdf="http://www.w3.org/1999/02/22-rdf-syntax-ns#"
   xmlns:svg="http://www.w3.org/2000/svg"
   xmlns="http://www.w3.org/2000/svg"
   viewBox="0 0 14 14"
   height="14"
   width="14"
   id="craft_winery"
   version="1.1">
  <metadata
     id="metadata115">
    <rdf:RDF>
      <cc:Work
         rdf:about="">
        <dc:format>image/svg+xml</dc:format>
        <dc:type
           rdf:resource="http://purl.org/dc/dcmitype/StillImage" />
        <dc:title></dc:title>
      </cc:Work>
    </rdf:RDF>
  </metadata>
  <defs
     id="defs113" />
  <path
     id="rect4506-4"
     d="M 0.80859375,0 C 0.51675365,1.353794 0.14608669,2.8385723 0,4.140625 0.00278179,5.8412704 1.0883261,7.2864531 2.5585938,7.546875 v 4.925781 c -0.03686,0.08615 -0.083786,0.159543 -0.1386719,0.22461 -0.030445,0.03609 -0.064714,0.06875 -0.099609,0.09961 C 2.0622198,13.01123 1.6941464,13.116331 1.375,13.263672 c -0.00158,7.19e-4 -0.0043,0.0013 -0.00586,0.002 C 1.0484087,13.406853 0.77954488,13.593012 0.72460938,14 H 5.1542969 c -2.134e-4,-0.0015 2.103e-4,-0.0024 0,-0.0039 h 0.00391 c -0.081379,-0.603153 -0.6309809,-0.722813 -1.1230469,-0.929688 -0.058104,-0.02484 -0.1182945,-0.0486 -0.1738281,-0.07617 -0.087302,-0.04387 -0.1668,-0.09582 -0.2421875,-0.154296 -0.010753,-0.0083 -0.024721,-0.01473 -0.035156,-0.02344 C 3.4699285,12.717111 3.3880059,12.584092 3.3261719,12.427734 V 7.5722656 C 4.8675728,7.3938134 6.0410764,5.9115375 6.0429688,4.140625 5.9220662,2.773336 5.5412621,1.4263591 5.2421875,0.03710937 V 0 Z M 13.498047,1.2578125 c -1.16153,0.021494 -2.417324,0.4248512 -3.103516,0.7578125 -0.01755,0.00851 -0.04573,0.016977 -0.0625,0.025391 l 0.0039,0.00586 C 9.6024544,2.4108346 9.2231064,3.2379104 9.4257812,4.03125 c 0.238177,0.927959 1.1831808,1.4874433 2.1113278,1.25 0.357578,-0.092246 0.676414,-0.2961365 0.910157,-0.5820312 0.0066,-0.0084 0.0131,-0.016867 0.01953,-0.025391 0.0065,-0.00675 0.01495,-0.018433 0.02148,-0.025391 0.0039,-0.00519 0.0078,-0.010395 0.01172,-0.015625 0.591256,-0.6377463 1.351927,-2.099193 1.5,-3.359375 -0.16344,-0.014712 -0.331777,-0.018774 -0.501953,-0.015625 z M 7.5859375,5.9707031 C 7.0044998,5.9706343 6.5331343,6.4419998 6.5332031,7.0234375 6.5331343,7.6048752 7.0044998,8.0762407 7.5859375,8.0761719 8.1673752,8.0762407 8.6387407,7.6048752 8.6386719,7.0234375 8.6387407,6.4419998 8.1673752,5.9706343 7.5859375,5.9707031 Z m 5.3613285,0 c -0.581438,-6.92e-5 -1.052804,0.4712965 -1.052735,1.0527344 -6.9e-5,0.5814379 0.471297,1.0528036 1.052735,1.0527344 C 13.528704,8.0762405 14.000069,7.604875 14,7.0234375 14.000069,6.442 13.528704,5.9706345 12.947266,5.9707031 Z m -2.646485,0.011719 c -0.5814375,-6.87e-5 -1.0528029,0.4712968 -1.0527341,1.0527343 -6.88e-5,0.5814375 0.4712966,1.0528031 1.0527341,1.0527344 0.580675,-0.00101 1.050851,-0.4720589 1.050781,-1.0527344 7e-5,-0.5806755 -0.470106,-1.0517254 -1.050781,-1.0527343 z M 8.9082031,8.9414062 C 8.3267655,8.9413374 7.8554,9.412703 7.8554688,9.9941406 7.8554,10.575578 8.3267655,11.046944 8.9082031,11.046875 9.4896408,11.046944 9.9610063,10.575578 9.9609375,9.9941406 9.9610063,9.4127029 9.4896408,8.9413374 8.9082031,8.9414062 Z m 2.6855469,0 c -0.581438,-6.86e-5 -1.052803,0.4712969 -1.052734,1.0527344 -6.9e-5,0.5814374 0.471296,1.0528034 1.052734,1.0527344 0.581438,6.9e-5 1.052803,-0.471297 1.052734,-1.0527344 6.9e-5,-0.5814375 -0.471296,-1.052803 -1.052734,-1.0527344 z m -1.326172,2.9531248 c -0.5814378,-6.9e-5 -1.0528034,0.471297 -1.0527342,1.052735 -6.86e-5,0.581437 0.4712968,1.052803 1.0527342,1.052734 0.581437,6.9e-5 1.052803,-0.471297 1.052734,-1.052734 6.9e-5,-0.581438 -0.471296,-1.052804 -1.052734,-1.052735 z"
     style="opacity:1;fill:#000000;fill-opacity:1;fill-rule:evenodd;stroke:none;stroke-width:0.62952292;stroke-linecap:square;stroke-linejoin:round;stroke-miterlimit:4;stroke-dasharray:none;stroke-opacity:1;paint-order:stroke fill markers" />
</svg>

