<?xml version="1.0" encoding="UTF-8"?>
<svg id="craft_winery" width="14" height="14" version="1.1" viewBox="0 0 14 14" xmlns="http://www.w3.org/2000/svg">
 <path d="m0.80859 0c-0.29184 1.3538-0.66251 2.8386-0.80859 4.1406 0.0027818 1.7006 1.0883 3.1458 2.5586 3.4062v4.9258c-0.03686 0.08615-0.083786 0.15954-0.13867 0.22461-0.030445 0.03609-0.064714 0.06875-0.099609 0.09961-0.25809 0.21435-0.62617 0.31946-0.94531 0.4668-0.00158 7.19e-4 -0.0043 0.0013-0.00586 2e-3 -0.32073 0.14118-0.5896 0.32734-0.64453 0.73433h4.4297c-2.134e-4 -0.0015 2.103e-4 -0.0024 0-0.0039h0.00391c-0.081379-0.60315-0.63098-0.72281-1.123-0.92969-0.058104-0.02484-0.11829-0.0486-0.17383-0.07617-0.087302-0.04387-0.1668-0.09582-0.24219-0.1543-0.010753-0.0083-0.024721-0.01473-0.035156-0.02344-0.11406-0.095395-0.19598-0.22841-0.25782-0.38477v-4.8555c1.5414-0.17845 2.7149-1.6607 2.7168-3.4316-0.1209-1.3673-0.50171-2.7143-0.80078-4.1035v-0.037109zm12.689 1.2578c-1.1615 0.021494-2.4173 0.42485-3.1035 0.75781-0.01755 0.00851-0.04573 0.016977-0.0625 0.025391l0.0039 0.00586c-0.73348 0.36396-1.1128 1.191-0.91015 1.9844 0.23818 0.92796 1.1832 1.4874 2.1113 1.25 0.35758-0.092246 0.67641-0.29614 0.91016-0.58203 0.0066-0.0084 0.0131-0.016867 0.01953-0.025391 0.0065-0.00675 0.01495-0.018433 0.02148-0.025391 0.0039-0.00519 0.0078-0.010395 0.01172-0.015625 0.59126-0.63775 1.3519-2.0992 1.5-3.3594-0.16344-0.014712-0.33178-0.018774-0.50195-0.015625zm-5.9121 4.7129c-0.58144-6.88e-5 -1.0528 0.4713-1.0527 1.0527-6.88e-5 0.58144 0.4713 1.0528 1.0527 1.0527 0.58144 6.88e-5 1.0528-0.4713 1.0527-1.0527 6.88e-5 -0.58144-0.4713-1.0528-1.0527-1.0527zm5.3613 0c-0.58144-6.92e-5 -1.0528 0.4713-1.0527 1.0527-6.9e-5 0.58144 0.4713 1.0528 1.0527 1.0527 0.58144 6.86e-5 1.0528-0.4713 1.0527-1.0527 6.9e-5 -0.58144-0.4713-1.0528-1.0527-1.0527zm-2.6465 0.011719c-0.58144-6.87e-5 -1.0528 0.4713-1.0527 1.0527-6.88e-5 0.58144 0.4713 1.0528 1.0527 1.0527 0.58068-0.00101 1.0509-0.47206 1.0508-1.0527 7e-5 -0.58068-0.47011-1.0517-1.0508-1.0527zm-1.3926 2.959c-0.58144-6.88e-5 -1.0528 0.4713-1.0527 1.0527-6.88e-5 0.58144 0.4713 1.0528 1.0527 1.0527 0.58144 6.9e-5 1.0528-0.4713 1.0527-1.0527 6.88e-5 -0.58144-0.4713-1.0528-1.0527-1.0527zm2.6855 0c-0.58144-6.86e-5 -1.0528 0.4713-1.0527 1.0527-6.9e-5 0.58144 0.4713 1.0528 1.0527 1.0527 0.58144 6.9e-5 1.0528-0.4713 1.0527-1.0527 6.9e-5 -0.58144-0.4713-1.0528-1.0527-1.0527zm-1.3262 2.9531c-0.58144-6.9e-5 -1.0528 0.4713-1.0527 1.0527-6.86e-5 0.58144 0.4713 1.0528 1.0527 1.0527 0.58144 6.9e-5 1.0528-0.4713 1.0527-1.0527 6.9e-5 -0.58144-0.4713-1.0528-1.0527-1.0527z" fill-rule="evenodd"/>
</svg>
