<?xml version="1.0" encoding="UTF-8"?>
<svg width="14" height="14" version="1.1" viewBox="0 0 14 14" xmlns="http://www.w3.org/2000/svg">
 <path d="m1 0-1 4v0.5c0.0015802 1.7065 1.0578 3.1629 2.5 3.4473v5.0527h0.00195c-0.084292 0.60897-2.5421 0.4657-2.502 1h6c0.040107-0.5343-2.4138-0.39103-2.498-1h-0.0019531v-5.0488c1.4435-0.28466 2.5001-1.7432 2.5-3.4512v-0.5c-0.33437-1.3331-0.66684-2.6666-1-4zm12 1c-0.91447 0-2.4473 0.52824-3.3574 1.2715-0.08785 0.060216-0.16904 0.12962-0.24219 0.20703l-0.00195 0.00195-0.00195 0.00195c-0.3449 0.37423-0.47653 0.8978-0.34962 1.3906 0.20591 0.80263 1.0236 1.2863 1.8262 1.0801 0.25316-0.065574 0.48478-0.1962 0.67188-0.37891h2e-3c0.0026-0.00259 0.0052-0.0052 0.0078-0.00781 0.0799-0.079061 0.15065-0.16685 0.21094-0.26172 0.78826-1.0154 1.2343-2.3878 1.2343-3.3047zm-5 5c-0.55228 0-1 0.44772-1 1s0.44772 1 1 1 1-0.44772 1-1-0.44772-1-1-1zm2.5 0c-0.55228 0-1 0.44772-1 1s0.44772 1 1 1c0.55228 0 1-0.44772 1-1s-0.44772-1-1-1zm2.5 0c-0.55228 0-1 0.44772-1 1s0.44772 1 1 1 1-0.44772 1-1-0.44772-1-1-1zm-3.75 3c-0.55228 0-1 0.44772-1 1 0 0.55228 0.44772 1 1 1s1-0.44772 1-1c0-0.55228-0.44772-1-1-1zm2.5 0c-0.55228 0-1 0.44772-1 1 0 0.55228 0.44772 1 1 1s1-0.44772 1-1c0-0.55228-0.44772-1-1-1zm-1.25 3c-0.55228 0-1 0.44772-1 1s0.44772 1 1 1c0.55228 0 1-0.44772 1-1s-0.44772-1-1-1z" fill-rule="evenodd" style="paint-order:fill markers"/>
 <circle transform="rotate(-14.391)" cx="9.3006" cy="5.9999" r="0" fill-rule="evenodd" style="paint-order:markers fill"/>
</svg>
