<?xml version="1.0" encoding="utf-8"?>
<!-- Generator: Adobe Terminator 16.0.4 and handcrafted in vi -->
<!DOCTYPE svg PUBLIC "-//W3C//DTD SVG 1.1//EN" "http://www.w3.org/Graphics/SVG/1.1/DTD/svg11.dtd">
<svg version="1.1"
	 id="tourism_apartment" x="0px" y="0px" width="14px" height="14px"
	 viewBox="0 0 14 14" enable-background="new 0 0 14 14" xml:space="preserve">
<rect id="canvas" display="none" fill="none" width="14" height="14"/>
<path id="hotelbed" d="M0.625,3C0.25,3,0,3.25,0,3.75V11h1.25V9.25c0,0,10.381,0.02,11.5,0V11H14V8.625V4.75C14,4.42,13.861,4,13.375,4
	S12.75,4.42,12.75,4.75V8H1.25V3.75C1.25,3.25,1,3,0.625,3z M3.5,4C2.671,4,2,4.671,2,5.5S2.671,7,3.5,7S5,6.329,5,5.5
	S4.329,4,3.5,4z M5.5,5v2H12c0-1-1.036-2-2-2H5.5z"/>
<rect fill-opacity="0.4" width="14" height="2"/>
<rect fill-opacity="0.4" y="12" width="14" height="2"/>
</svg>
