<?xml version="1.0" encoding="UTF-8" standalone="no"?>
<svg
   xmlns:dc="http://purl.org/dc/elements/1.1/"
   xmlns:cc="http://creativecommons.org/ns#"
   xmlns:rdf="http://www.w3.org/1999/02/22-rdf-syntax-ns#"
   xmlns:svg="http://www.w3.org/2000/svg"
   xmlns="http://www.w3.org/2000/svg"
   xml:space="preserve"
   enable-background="new 0 0 14 14"
   viewBox="0 0 14 14"
   height="14px"
   width="14px"
   y="0px"
   x="0px"
   id="tourism_apartment"
   version="1.1"><metadata
   id="metadata13"><rdf:RDF><cc:Work
       rdf:about=""><dc:format>image/svg+xml</dc:format><dc:type
         rdf:resource="http://purl.org/dc/dcmitype/StillImage" /><dc:title></dc:title></cc:Work></rdf:RDF></metadata><defs
   id="defs11" />
<rect
   height="14"
   width="14"
   fill="none"
   display="none"
   id="canvas" />



<path
   id="hotel"
   d="M 0.5,3 C 0.223,3 0,3.223 0,3.5 V 4 8 9 9.5 11 H 1 V 9.5 9 H 13 V 10.5 11 H 13.5 14 V 10.5 9 8 6 5.5 C 14,5.223 13.777,5 13.5,5 13.223,5 13,5.223 13,5.5 V 6 8 H 1 V 4 3.5 C 1,3.223 0.777,3 0.5,3 Z m 3,1 C 2.671573,4 2,4.671573 2,5.5 2,6.328427 2.671573,7 3.5,7 4.328427,7 5,6.328427 5,5.5 5,4.671573 4.328427,4 3.5,4 Z M 6,5 v 2 h 6 C 12,6 10.963825,5 10,5 Z" /><rect
   y="0"
   x="2.220446e-016"
   height="2"
   width="14"
   id="rect825"
   style="opacity:0.5;fill:#000000;fill-opacity:1;stroke:none;stroke-width:0.07990667;stroke-linecap:square;stroke-miterlimit:4;stroke-dasharray:none;stroke-opacity:1;paint-order:markers stroke fill" /><rect
   y="12"
   x="0"
   height="2"
   width="14"
   id="rect825-2"
   style="opacity:0.5;fill:#000000;fill-opacity:1;stroke:none;stroke-width:0.07990667;stroke-linecap:square;stroke-miterlimit:4;stroke-dasharray:none;stroke-opacity:1;paint-order:markers stroke fill" /></svg>