<?xml version="1.0" encoding="UTF-8" standalone="no"?>
<svg
   xmlns:dc="http://purl.org/dc/elements/1.1/"
   xmlns:cc="http://creativecommons.org/ns#"
   xmlns:rdf="http://www.w3.org/1999/02/22-rdf-syntax-ns#"
   xmlns:svg="http://www.w3.org/2000/svg"
   xmlns="http://www.w3.org/2000/svg"
   viewBox="0 0 14 14"
   height="14"
   width="14"
   id="svg109"
   version="1.1">
  <metadata
     id="metadata115">
    <rdf:RDF>
      <cc:Work
         rdf:about="">
        <dc:format>image/svg+xml</dc:format>
        <dc:type
           rdf:resource="http://purl.org/dc/dcmitype/StillImage" />
        <dc:title></dc:title>
      </cc:Work>
    </rdf:RDF>
  </metadata>
  <defs
     id="defs113" />
  <path
     id="information"
     d="M 7 1 A 5 5 0 0 0 2 6 C 0.892 6 0 6.892 0 8 L 0 10 C 0 11.108 0.892 12 2 12 L 3 12 L 3 6 A 4 4 0 0 1 7 2 A 4 4 0 0 1 11 6 L 11 12 L 12 12 C 13.108 12 14 11.108 14 10 L 14 8 C 14 6.892 13.108 6 12 6 A 5 5 0 0 0 7 1 z M 7 4.9550781 A 1.138829 1.138829 0 0 0 5.8613281 6.09375 A 1.138829 1.138829 0 0 0 7 7.2324219 A 1.138829 1.138829 0 0 0 8.1386719 6.09375 A 1.138829 1.138829 0 0 0 7 4.9550781 z M 7.7519531 7.9824219 L 5.4960938 8.734375 L 5.4960938 9.4863281 L 6.1875 9.4863281 L 6.2480469 13.248047 L 5.4960938 13.248047 L 5.4960938 14 L 8.5039062 14 L 8.5039062 13.248047 L 7.7519531 13.248047 L 7.7519531 7.9824219 z "
     style="fill:#000000;fill-opacity:1;stroke:none;stroke-width:0.75224489" />
</svg>
