<?xml version="1.0" encoding="UTF-8" standalone="no"?>
<svg
   xmlns:dc="http://purl.org/dc/elements/1.1/"
   xmlns:cc="http://creativecommons.org/ns#"
   xmlns:rdf="http://www.w3.org/1999/02/22-rdf-syntax-ns#"
   xmlns:svg="http://www.w3.org/2000/svg"
   xmlns="http://www.w3.org/2000/svg"
   viewBox="0 0 14 14"
   height="14"
   width="14"
   id="svg109"
   version="1.1">
  <metadata
     id="metadata115">
    <rdf:RDF>
      <cc:Work
         rdf:about="">
        <dc:format>image/svg+xml</dc:format>
        <dc:type
           rdf:resource="http://purl.org/dc/dcmitype/StillImage" />
        <dc:title></dc:title>
      </cc:Work>
    </rdf:RDF>
  </metadata>
  <defs
     id="defs113" />
  <path
     id="path41"
     d="m 7.0097656,1.1269531 c -3.0217357,0 -5.469624,2.6456925 -5.4824218,5.9140625 -0.080521,0.00422 -0.169237,-0.00269 -0.2460938,-0.00391 C 0.57122643,7.0371094 0,7.6102889 0,8.3203125 v 3.2675785 c 0,0.701301 0.55798182,1.26549 1.2558594,1.279297 v 0.0059 H 2.6914062 V 7.0664062 h 0.00977 c 0,-2.5773052 1.9281448,-4.6660156 4.3085937,-4.6660156 2.3804493,0 4.3105461,2.0887104 4.3105461,4.6660156 h 0.0039 v 5.8066408 h 1.4375 v -0.0078 C 13.451134,12.842114 14,12.283133 14,11.587891 V 8.3203125 c 0,-0.6952549 -0.548848,-1.2561959 -1.238281,-1.2792969 -0.09024,-0.00369 -0.187899,0 -0.26762,0 C 12.481333,3.7726449 10.031502,1.1269531 7.0097656,1.1269531 Z M 7,4.9550781 C 6.3711648,4.9551648 5.8614148,5.4649148 5.8613281,6.09375 5.8614148,6.7225852 6.3711648,7.2323352 7,7.2324219 7.6288352,7.2323352 8.1385852,6.7225852 8.1386719,6.09375 8.1385852,5.4649148 7.6288352,4.9551648 7,4.9550781 Z M 7.7519531,7.9824219 5.4960938,8.734375 V 9.4863281 H 6.1875 L 6.248047,13.248047 H 5.4960938 V 14 H 8.5039062 V 13.248047 H 7.7519531 Z"
     style="opacity:1;fill:#000000;fill-opacity:1;fill-rule:evenodd;stroke:none;stroke-width:1.30792415;stroke-linecap:square;stroke-linejoin:round;stroke-miterlimit:4;stroke-dasharray:none;stroke-opacity:1;paint-order:markers stroke fill" />
  <path
     id="path35"
     d="m -13.3125,-0.15625 v 14 h 14 v -14 h -8.6738281 c 4.189e-4,0.005952 0.00158,0.0116131 0.00195,0.0175781 0.1076384,0.11107101 0.1784503,0.23603794 0.2226562,0.36523438 0.1728427,0.22827763 0.2099407,0.37712351 0.091797,0.74804688 -0.1204507,0.32368832 -0.3379828,0.65535872 -0.6230469,0.85742182 -0.1181741,0.083766 -0.2540985,0.1408404 -0.3808593,0.2109376 -0.1200536,0.032959 -0.2399709,0.069879 -0.3613281,0.097656 -0.069366,0.015877 -0.1401561,0.025877 -0.2109376,0.033203 -0.024594,0.00255 -0.0495,-5.33e-5 -0.074219,0.00195 -0.084017,0.024366 -0.1654003,0.060233 -0.2617187,0.083984 -0.0748,0.00642 -0.1495351,0.019387 -0.2246094,0.019531 -0.031871,6.11e-5 -0.063645,-0.00959 -0.095703,-0.011719 -0.8770122,0.1731504 -1.4266082,-0.4614003 -1.1855472,-1.2167969 -0.01052,-0.034967 -0.02566,-0.0683008 -0.03516,-0.10351558 -0.0192,-0.0711755 -0.01939,-0.14709515 -0.02344,-0.22070312 -0.007,-0.12689969 0.0025,-0.18898171 0.01172,-0.30664062 0.01281,-0.22728977 0.0885,-0.40061588 0.197266,-0.57617188 z"
     style="visibility:hidden;fill:none;stroke:none" />
  <path
     id="path33"
     d="m -9.3339844,0.95898438 c 0.014703,0.0806529 0.027906,0.16160852 0.042969,0.24218752 0.00468,0.00183 0.00897,0.00408 0.013672,0.00586 -0.014437,-0.073667 -0.028937,-0.1621491 -0.044922,-0.2460937 -0.00384,-7.0998e-4 -0.00788,-0.001243 -0.011719,-0.001953 z"
     style="visibility:hidden;fill:none;stroke:none" />
  <path
     id="path31"
     d="m -9.2636719,0.97265625 c 0.00657,0.0747509 0.00653,0.13369545 0.015625,0.21484375 0.02085,-0.018539 0.045818,-0.034741 0.060547,-0.056641 0.00195,-0.00289 0.00207,-0.0068 0.00391,-0.00977 -0.00535,-0.034183 -0.020457,-0.097473 -0.027344,-0.13867192 -0.01751,-0.003322 -0.035344,-0.006523 -0.052734,-0.009766 z"
     style="visibility:hidden;fill:none;stroke:none" />
</svg>
