<?xml version="1.0" encoding="UTF-8" standalone="no"?>
<svg
   xmlns:dc="http://purl.org/dc/elements/1.1/"
   xmlns:cc="http://creativecommons.org/ns#"
   xmlns:rdf="http://www.w3.org/1999/02/22-rdf-syntax-ns#"
   xmlns:svg="http://www.w3.org/2000/svg"
   xmlns="http://www.w3.org/2000/svg"
   version="1.1"
   id="svg109"
   width="14"
   height="14"
   viewBox="0 0 14 14">
  <metadata
     id="metadata115">
    <rdf:RDF>
      <cc:Work
         rdf:about="">
        <dc:format>image/svg+xml</dc:format>
        <dc:type
           rdf:resource="http://purl.org/dc/dcmitype/StillImage" />
        <dc:title></dc:title>
      </cc:Work>
    </rdf:RDF>
  </metadata>
  <defs
     id="defs113" />
  <path
     style="opacity:1;fill:#000000;fill-opacity:1;fill-rule:evenodd;stroke:none;stroke-width:1.30792415;stroke-linecap:square;stroke-linejoin:round;stroke-miterlimit:4;stroke-dasharray:none;stroke-opacity:1;paint-order:markers stroke fill"
     d="m 7.0097656,1.1269531 c -3.0217357,0 -5.469624,2.6456925 -5.4824218,5.9140625 -0.080521,0.00422 -0.169237,-0.00269 -0.2460938,-0.00391 C 0.57122643,7.0371094 0,7.6102889 0,8.3203125 v 3.2675785 c 0,0.701301 0.55798182,1.26549 1.2558594,1.279297 v 0.0059 H 2.6914062 V 7.0664062 h 0.00977 c 0,-2.5773052 1.9281448,-4.6660156 4.3085937,-4.6660156 2.3804493,0 4.3105461,2.0887104 4.3105461,4.6660156 h 0.0039 v 5.8066408 h 1.4375 v -0.0078 C 13.451134,12.842114 14,12.283133 14,11.587891 V 8.3203125 c 0,-0.6952549 -0.548848,-1.2561959 -1.238281,-1.2792969 -0.09024,-0.00369 -0.187899,0 -0.26762,0 C 12.481333,3.7726449 10.031502,1.1269531 7.0097656,1.1269531 Z M 7,4.9550781 C 6.3711648,4.9551648 5.8614148,5.4649148 5.8613281,6.09375 5.8614148,6.7225852 6.3711648,7.2323352 7,7.2324219 7.6288352,7.2323352 8.1385852,6.7225852 8.1386719,6.09375 8.1385852,5.4649148 7.6288352,4.9551648 7,4.9550781 Z M 7.7519531,7.9824219 5.4960938,8.734375 V 9.4863281 H 6.1875 L 6.248047,13.248047 H 5.4960938 V 14 H 8.5039062 V 13.248047 H 7.7519531 Z"
     id="path41" />
</svg>
