<?xml version="1.0" encoding="UTF-8" standalone="no"?>
<svg
   xmlns:dc="http://purl.org/dc/elements/1.1/"
   xmlns:cc="http://creativecommons.org/ns#"
   xmlns:rdf="http://www.w3.org/1999/02/22-rdf-syntax-ns#"
   xmlns:svg="http://www.w3.org/2000/svg"
   xmlns="http://www.w3.org/2000/svg"
   viewBox="0 0 14 14"
   height="14"
   width="14"
   id="svg109"
   version="1.1">
  <metadata
     id="metadata115">
    <rdf:RDF>
      <cc:Work
         rdf:about="">
        <dc:format>image/svg+xml</dc:format>
        <dc:type
           rdf:resource="http://purl.org/dc/dcmitype/StillImage" />
        <dc:title></dc:title>
      </cc:Work>
    </rdf:RDF>
  </metadata>
  <defs
     id="defs113" />
  <path
     id="path35"
     d="m -13.3125,-0.15625 v 14 h 14 v -14 h -8.6738281 c 4.189e-4,0.005952 0.00158,0.0116131 0.00195,0.0175781 0.1076384,0.11107101 0.1784503,0.23603794 0.2226562,0.36523438 0.1728427,0.22827763 0.2099407,0.37712351 0.091797,0.74804688 -0.1204507,0.32368832 -0.3379828,0.65535872 -0.6230469,0.85742182 -0.1181741,0.083766 -0.2540985,0.1408404 -0.3808593,0.2109376 -0.1200536,0.032959 -0.2399709,0.069879 -0.3613281,0.097656 -0.069366,0.015877 -0.1401561,0.025877 -0.2109376,0.033203 -0.024594,0.00255 -0.0495,-5.33e-5 -0.074219,0.00195 -0.084017,0.024366 -0.1654003,0.060233 -0.2617187,0.083984 -0.0748,0.00642 -0.1495351,0.019387 -0.2246094,0.019531 -0.031871,6.11e-5 -0.063645,-0.00959 -0.095703,-0.011719 -0.8770122,0.1731504 -1.4266082,-0.4614003 -1.1855472,-1.2167969 -0.01052,-0.034967 -0.02566,-0.0683008 -0.03516,-0.10351558 -0.0192,-0.0711755 -0.01939,-0.14709515 -0.02344,-0.22070312 -0.007,-0.12689969 0.0025,-0.18898171 0.01172,-0.30664062 0.01281,-0.22728977 0.0885,-0.40061588 0.197266,-0.57617188 z"
     style="visibility:hidden;fill:none;stroke:none" />
  <path
     id="path33"
     d="m -9.3339844,0.95898438 c 0.014703,0.0806529 0.027906,0.16160852 0.042969,0.24218752 0.00468,0.00183 0.00897,0.00408 0.013672,0.00586 -0.014437,-0.073667 -0.028937,-0.1621491 -0.044922,-0.2460937 -0.00384,-7.0998e-4 -0.00788,-0.001243 -0.011719,-0.001953 z"
     style="visibility:hidden;fill:none;stroke:none" />
  <path
     id="path31"
     d="m -9.2636719,0.97265625 c 0.00657,0.0747509 0.00653,0.13369545 0.015625,0.21484375 0.02085,-0.018539 0.045818,-0.034741 0.060547,-0.056641 0.00195,-0.00289 0.00207,-0.0068 0.00391,-0.00977 -0.00535,-0.034183 -0.020457,-0.097473 -0.027344,-0.13867192 -0.01751,-0.003322 -0.035344,-0.006523 -0.052734,-0.009766 z"
     style="visibility:hidden;fill:none;stroke:none" />
  <path
     id="rect18"
     d="M 0,0 C 0,4.6666667 0,9.3333333 0,14 H 1.3789062 V 11.179688 H 12.621094 V 14 H 14 C 14,9.3333333 14,4.6666667 14,0 8.8980776,0 4.5835886,0 0,0 Z M 1.3710938,1.3789062 H 12.621094 V 9.7890625 H 1.3710938 Z M 4.15625,3.0253906 v 0.7128906 h 5.6875 V 3.0253906 Z M 2.7675781,5.1152344 V 5.8261719 H 11.232422 V 5.1152344 Z m 0,2.0976562 V 7.9257812 H 11.232422 V 7.2128906 Z"
     style="opacity:1;fill:#000000;fill-opacity:1;fill-rule:evenodd;stroke:none;stroke-width:5.2091217;stroke-linecap:square;stroke-linejoin:round;stroke-miterlimit:4;stroke-dasharray:none;stroke-opacity:1;paint-order:markers stroke fill" />
</svg>
