<?xml version="1.0" encoding="UTF-8" standalone="no"?>
<svg
   xmlns:dc="http://purl.org/dc/elements/1.1/"
   xmlns:cc="http://creativecommons.org/ns#"
   xmlns:rdf="http://www.w3.org/1999/02/22-rdf-syntax-ns#"
   xmlns:svg="http://www.w3.org/2000/svg"
   xmlns="http://www.w3.org/2000/svg"
   viewBox="0 0 14 14"
   height="14"
   width="14"
   id="svg2"
   version="1.1">
  <metadata
     id="metadata8">
    <rdf:RDF>
      <cc:Work
         rdf:about="">
        <dc:format>image/svg+xml</dc:format>
        <dc:type
           rdf:resource="http://purl.org/dc/dcmitype/StillImage" />
        <dc:title></dc:title>
      </cc:Work>
    </rdf:RDF>
  </metadata>
  <defs
     id="defs6" />
  <path
     id="polygon4-1"
     d="M 6.9999997,0.85331316 1,5 h 2 v 8 H 6 V 8 h 2 v 5 h 3 V 5 h 2 z"
     style="opacity:0.9;fill:#000000;fill-opacity:0.3;stroke-width:0.01526906" />
  <path
     id="hotel"
     d="m 0.5,6.0000004 c -0.277,0 -0.5,0.223 -0.5,0.5 v 0.5 V 11 12 12.5 14 H 1 V 12.5 12 H 13 V 13.5 14 H 13.5 14 V 13.5 12 11 9.0000004 v -0.5 c 0,-0.277 -0.223,-0.5 -0.5,-0.5 -0.277,0 -0.5,0.223 -0.5,0.5 v 0.5 V 11 H 1 v -3.9999996 -0.5 c 0,-0.277 -0.223,-0.5 -0.5,-0.5 z m 3,1 c -0.828427,0 -1.5,0.671573 -1.5,1.5 C 2,9.3284274 2.671573,10 3.5,10 4.328427,10 5,9.3284274 5,8.5000004 c 0,-0.828427 -0.671573,-1.5 -1.5,-1.5 z m 2.5,1 V 10 h 6 C 12,9.0000004 10.963825,8.0000004 10,8.0000004 Z" />
</svg>
