<?xml version="1.0" encoding="UTF-8" standalone="no"?>
<svg
   xmlns:dc="http://purl.org/dc/elements/1.1/"
   xmlns:cc="http://creativecommons.org/ns#"
   xmlns:rdf="http://www.w3.org/1999/02/22-rdf-syntax-ns#"
   xmlns:svg="http://www.w3.org/2000/svg"
   xmlns="http://www.w3.org/2000/svg"
   id="svg2"
   viewBox="0 0 14 14"
   height="14"
   width="14"
   version="1.1">
  <metadata
     id="metadata8">
    <rdf:RDF>
      <cc:Work
         rdf:about="">
        <dc:format>image/svg+xml</dc:format>
        <dc:type
           rdf:resource="http://purl.org/dc/dcmitype/StillImage" />
        <dc:title></dc:title>
      </cc:Work>
    </rdf:RDF>
  </metadata>
  <defs
     id="defs6" />
  <rect
     style="fill:none;stroke:none;visibility:hidden"
     id="canvas"
     y="0"
     x="0"
     height="14"
     width="14" />
  <path
     id="hotel"
     d="M 0.5 3 C 0.223 3 0 3.223 0 3.5 L 0 4 L 0 8 L 0 9 L 0 9.5 L 0 11 L 1 11 L 1 9.5 L 1 9 L 13 9 L 13 10.5 L 13 11 L 13.5 11 L 14 11 L 14 10.5 L 14 9 L 14 8 L 14 6 L 14 5.5 C 14 5.223 13.777 5 13.5 5 C 13.223 5 13 5.223 13 5.5 L 13 6 L 13 8 L 1 8 L 1 4 L 1 3.5 C 1 3.223 0.777 3 0.5 3 z M 3.5 4 C 2.671573 4 2 4.671573 2 5.5 C 2 6.328427 2.671573 7 3.5 7 C 4.328427 7 5 6.328427 5 5.5 C 5 4.671573 4.328427 4 3.5 4 z M 6 5 L 6 7 L 12 7 C 12 6 10.963825 5 10 5 L 6 5 z " />
</svg>
