<?xml version="1.0" encoding="UTF-8" standalone="no"?>
<svg
   xmlns:dc="http://purl.org/dc/elements/1.1/"
   xmlns:cc="http://creativecommons.org/ns#"
   xmlns:rdf="http://www.w3.org/1999/02/22-rdf-syntax-ns#"
   xmlns:svg="http://www.w3.org/2000/svg"
   xmlns="http://www.w3.org/2000/svg"
   viewBox="0 0 14 14"
   height="14"
   width="14"
   id="svg109"
   version="1.1">
  <metadata
     id="metadata115">
    <rdf:RDF>
      <cc:Work
         rdf:about="">
        <dc:format>image/svg+xml</dc:format>
        <dc:type
           rdf:resource="http://purl.org/dc/dcmitype/StillImage" />
        <dc:title></dc:title>
      </cc:Work>
    </rdf:RDF>
  </metadata>
  <defs
     id="defs113" />
  <path
     id="rect46-6"
     d="m 4.8613281,1.0840594 c -0.012616,0.00131 -0.024519,0.00966 -0.037109,0.011719 -0.026164,0.0035 -0.049228,0.01666 -0.074219,0.023437 -0.040239,0.010842 -0.080467,0.019189 -0.1171875,0.037109 -0.00377,0.00182 -0.00796,0.00202 -0.011719,0.00391 -0.00246,0.00131 -0.00536,6.092e-4 -0.00781,0.00195 l -0.019531,0.00977 c -0.027771,0.015575 -0.056574,0.027151 -0.082031,0.046875 L 0.33789062,3.5098407 C 0.11714815,3.6310233 0.003126,3.8592076 0.0078125,4.0938251 0.00711853,4.1062093 0,4.1164175 0,4.1289813 v 7.9960937 c 0,0.0098 0.00543962,0.01769 0.00585938,0.02734 0.00160149,0.02121 0.00799428,0.04135 0.01171875,0.0625 0.04531411,0.316537 0.30530035,0.5625 0.63476562,0.5625 0.14921892,0 0.27899755,-0.0589 0.38867185,-0.142579 L 4.90625,10.511793 8.7441406,12.834059 c 0.025407,0.01536 0.05362,0.01774 0.080078,0.0293 0.034412,0.01444 0.067183,0.02876 0.1035156,0.03711 0.056302,0.01393 0.1112257,0.01689 0.1679687,0.01563 0.02259,-8e-4 0.043821,-7.12e-4 0.066406,-0.0039 0.057229,-0.0072 0.1106616,-0.02104 0.1640625,-0.04297 0.021146,-0.0079 0.040517,-0.0174 0.060547,-0.02734 l 0.015625,-0.0078 c 0.024498,-0.01402 0.049579,-0.02374 0.072266,-0.04102 l 4.1874996,-2.298828 c 0.02896,-0.0159 0.04674,-0.04118 0.07227,-0.06055 0.03288,-0.02487 0.06618,-0.04756 0.09375,-0.07813 0.03067,-0.03405 0.0517,-0.07229 0.07422,-0.111328 0.01989,-0.0341 0.04117,-0.0658 0.05469,-0.103515 0.01656,-0.04631 0.02158,-0.09361 0.02734,-0.1425781 C 13.987561,9.9718772 14,9.9490825 14,9.9219501 V 1.9258563 c 0,-0.012564 -0.0071,-0.022772 -0.0078,-0.035156 -9.86e-4,-0.06746 -0.01632,-0.1330789 -0.03906,-0.1992188 -0.0032,-0.00833 -0.0043,-0.017232 -0.0078,-0.025391 -0.01032,-0.026446 -0.01134,-0.054495 -0.02539,-0.080078 C 13.745965,1.2692227 13.350012,1.1542787 13.033203,1.3282001 L 9.125,3.4746844 5.3359375,1.2285907 c -0.011673,-0.00945 -0.024882,-0.014872 -0.037109,-0.023437 l -0.056641,-0.033203 c -0.00816,-0.00484 -0.017112,-0.00531 -0.025391,-0.00977 -0.00507,-0.00256 -0.010544,-0.00342 -0.015625,-0.00586 -0.031081,-0.015168 -0.064012,-0.023063 -0.097656,-0.033203 -0.021025,-0.00633 -0.040415,-0.017517 -0.0625,-0.021484 -0.030354,-0.00635 -0.059858,-0.00833 -0.089844,-0.00977 -0.011605,-6.087e-4 -0.021441,-0.00586 -0.033203,-0.00586 -0.00411,0 -0.00762,0.00188 -0.011719,0.00195 -0.014898,-0.00221 -0.029664,-0.00549 -0.044922,-0.00391 z M 4.265625,2.8418719 V 9.3750751 L 1.3046875,11.002028 V 4.4668719 Z m 1.3046875,0.042969 2.875,1.7070312 v 6.5351561 l -2.875,-1.7382811 z M 12.695312,3.0039813 V 9.5371844 L 9.75,11.154372 V 4.6192157 Z"
     style="opacity:1;fill:#000000;fill-opacity:1;fill-rule:evenodd;stroke:none;stroke-width:0.93907171;stroke-linecap:square;stroke-linejoin:round;stroke-miterlimit:4;stroke-dasharray:none;stroke-opacity:1;paint-order:markers stroke fill" />
</svg>
