<?xml version="1.0" encoding="UTF-8" standalone="no"?>
<svg
   xmlns:dc="http://purl.org/dc/elements/1.1/"
   xmlns:cc="http://creativecommons.org/ns#"
   xmlns:rdf="http://www.w3.org/1999/02/22-rdf-syntax-ns#"
   xmlns:svg="http://www.w3.org/2000/svg"
   xmlns="http://www.w3.org/2000/svg"
   viewBox="0 0 14 14"
   height="14"
   width="14"
   id="svg109"
   version="1.1">
  <metadata
     id="metadata115">
    <rdf:RDF>
      <cc:Work
         rdf:about="">
        <dc:format>image/svg+xml</dc:format>
        <dc:type
           rdf:resource="http://purl.org/dc/dcmitype/StillImage" />
        <dc:title></dc:title>
      </cc:Work>
    </rdf:RDF>
  </metadata>
  <defs
     id="defs113">
    <pattern
       id="EMFhbasepattern"
       patternUnits="userSpaceOnUse"
       width="6"
       height="6"
       x="0"
       y="0" />
  </defs>
  <path
     id="path35"
     d="m -5.2773827,-0.15625 v 14 h 14 v -14 H 0.04878918 c 4.189e-4,0.005952 0.00158,0.0116131 0.00195,0.0175781 0.1076384,0.11107101 0.1784503,0.23603794 0.2226562,0.36523438 0.1728427,0.22827763 0.2099407,0.37712351 0.091797,0.74804688 -0.1204507,0.32368834 -0.3379828,0.65535874 -0.6230469,0.85742184 -0.1181741,0.083766 -0.2540985,0.1408404 -0.3808593,0.2109376 -0.1200536,0.032959 -0.2399709,0.069879 -0.36132808,0.097656 -0.069366,0.015877 -0.1401561,0.025877 -0.2109376,0.033203 -0.024594,0.00255 -0.0495,-5.33e-5 -0.074219,0.00195 -0.084017,0.024366 -0.1654003,0.060233 -0.2617187,0.083984 -0.0748,0.00642 -0.1495351,0.019387 -0.2246094,0.019531 -0.031871,6.11e-5 -0.063645,-0.00959 -0.095703,-0.011719 -0.8770122,0.1731504 -1.4266082,-0.4614003 -1.1855472,-1.2167969 -0.01052,-0.034967 -0.02566,-0.0683008 -0.03516,-0.1035156 -0.0192,-0.0711755 -0.01939,-0.14709515 -0.02344,-0.22070312 -0.007,-0.12689969 0.0025,-0.18898171 0.01172,-0.30664062 0.01281,-0.22728977 0.0885,-0.40061588 0.197266,-0.57617188 z"
     style="visibility:hidden;fill:none;stroke:none" />
  <path
     id="rect18"
     d="M 3 0 L 3 1 L 3 11 L 3 14 L 11 14 L 11 11 L 11 1 L 11 0 L 10 0 L 4 0 L 3 0 z M 4 1 L 10 1 L 10 11 L 4 11 L 4 1 z M 7 1.9941406 A 1.0112764 1.0072076 0 0 0 5.9882812 3.0019531 A 1.0112764 1.0072076 0 0 0 7 4.0097656 A 1.0112764 1.0072076 0 0 0 8.0117188 3.0019531 A 1.0112764 1.0072076 0 0 0 7 1.9941406 z M 7.6679688 4.6738281 L 5.6640625 5.3378906 L 5.6640625 6.0019531 L 6.2792969 6.0019531 L 6.3320312 9.3300781 L 5.6640625 9.3300781 L 5.6640625 9.9941406 L 8.3359375 9.9941406 L 8.3359375 9.3300781 L 7.6679688 9.3300781 L 7.6679688 4.6738281 z "
     style="opacity:1;fill:#000000;fill-opacity:1;fill-rule:evenodd;stroke:none;stroke-width:2.03985715;stroke-linecap:square;stroke-linejoin:round;stroke-miterlimit:4;stroke-dasharray:none;stroke-opacity:1;paint-order:markers stroke fill" />
</svg>
