<?xml version="1.0" encoding="UTF-8" standalone="no"?>
<svg
   width="12"
   height="12"
   viewBox="0 0 12 12"
   version="1.1"
   id="svg135"
   xmlns="http://www.w3.org/2000/svg"
   xmlns:svg="http://www.w3.org/2000/svg">
  <defs
     id="defs4993" />
  <path
     id="path3032-7-5-6"
     style="fill:#000000"
     d="M 6,0 0,2 V 3 L 6,1 12,3 V 2 Z M 2,3 v 9 H 3 V 3 Z M 6,3 C 5.44108,2.99976 4.98795,3.45114 4.98828,4.00781 4.98794,4.56449 5.44107,5.01586 6,5.01562 6.55893,5.01586 7.01206,4.56449 7.01172,4.00781 7.01205,3.45114 6.55892,2.99976 6,3 Z m 3,0 v 9 h 1 V 3 Z M 6.66797,5.67969 4.66406,6.34375 V 7.00781 H 5.2793 L 5.332,10.33594 H 4.66403 V 11 H 7.33591 V 10.33594 H 6.66794 Z" />
</svg>