<?xml version="1.0" encoding="UTF-8" standalone="no"?>
<!-- Created with Inkscape (http://www.inkscape.org/) -->
<svg
   xmlns:dc="http://purl.org/dc/elements/1.1/"
   xmlns:cc="http://creativecommons.org/ns#"
   xmlns:rdf="http://www.w3.org/1999/02/22-rdf-syntax-ns#"
   xmlns:svg="http://www.w3.org/2000/svg"
   xmlns="http://www.w3.org/2000/svg"
   xmlns:sodipodi="http://sodipodi.sourceforge.net/DTD/sodipodi-0.dtd"
   xmlns:inkscape="http://www.inkscape.org/namespaces/inkscape"
   width="626.26257"
   height="626.08521"
   id="svg61143"
   sodipodi:version="0.32"
   inkscape:version="0.46"
   sodipodi:docname="Lille_Metro_Logo.svg"
   inkscape:output_extension="org.inkscape.output.svg.inkscape"
   version="1.0">
  <defs
     id="defs61145">
    <inkscape:perspective
       sodipodi:type="inkscape:persp3d"
       inkscape:vp_x="0 : 526.18109 : 1"
       inkscape:vp_y="0 : 1000 : 0"
       inkscape:vp_z="744.09448 : 526.18109 : 1"
       inkscape:persp3d-origin="372.04724 : 350.78739 : 1"
       id="perspective61151" />
  </defs>
  <sodipodi:namedview
     id="base"
     pagecolor="#ffffff"
     bordercolor="#666666"
     borderopacity="1.0"
     inkscape:pageopacity="0.0"
     inkscape:pageshadow="2"
     inkscape:zoom="0.35"
     inkscape:cx="350"
     inkscape:cy="520"
     inkscape:document-units="px"
     inkscape:current-layer="layer1"
     showgrid="false"
     inkscape:window-width="640"
     inkscape:window-height="667"
     inkscape:window-x="22"
     inkscape:window-y="29" />
  <metadata
     id="metadata61148">
    <rdf:RDF>
      <cc:Work
         rdf:about="">
        <dc:format>image/svg+xml</dc:format>
        <dc:type
           rdf:resource="http://purl.org/dc/dcmitype/StillImage" />
      </cc:Work>
    </rdf:RDF>
  </metadata>
  <g
     inkscape:label="Ebene 1"
     inkscape:groupmode="layer"
     id="layer1"
     transform="translate(-11.170245,-46.531981)">
    <g
       id="g61133"
       transform="matrix(35.464716,0,0,35.464716,-13875.184,14959.555)">
      <g
         transform="matrix(1.25,0,0,-1.25,408.80033,-411.6781)"
         id="g30048">
        <path
           id="path30050"
           style="fill:#ffffff;fill-opacity:1;fill-rule:nonzero;stroke:none"
           d="M 0,0 C 0,3.717 -3.016,6.73 -6.733,6.73 C -10.45,6.73 -13.467,3.717 -13.467,0 C -13.467,-3.718 -10.45,-6.733 -6.733,-6.733 C -3.016,-6.733 0,-3.718 0,0" />
      </g>
      <g
         transform="matrix(1.25,0,0,-1.25,408.80033,-411.6781)"
         id="g30052">
        <path
           id="path30054"
           style="fill:none;stroke:#e2001a;stroke-width:0.66000003;stroke-linecap:butt;stroke-linejoin:miter;stroke-miterlimit:4;stroke-dasharray:none;stroke-opacity:1"
           d="M 0,0 C 0,3.717 -3.016,6.73 -6.733,6.73 C -10.45,6.73 -13.467,3.717 -13.467,0 C -13.467,-3.718 -10.45,-6.733 -6.733,-6.733 C -3.016,-6.733 0,-3.718 0,0 z" />
      </g>
      <g
         transform="matrix(1.25,0,0,-1.25,395.0832,-407.58147)"
         id="g30056">
        <path
           id="path30058"
           style="fill:none;stroke:#e2001a;stroke-width:0.64600003;stroke-linecap:butt;stroke-linejoin:miter;stroke-miterlimit:4;stroke-dasharray:none;stroke-opacity:1"
           d="M 0,0 L 0,7.167 L 1.969,7.167 L 4.243,4.932 L 6.499,7.167 L 8.482,7.167 L 8.482,0 L 6.732,0 L 6.732,4.604 L 4.988,2.86 L 3.495,2.86 L 1.754,4.593 L 1.754,0 L 0,0 z" />
      </g>
      <g
         transform="matrix(1.25,0,0,-1.25,401.31557,-416.54635)"
         id="g30060">
        <path
           id="path30062"
           style="fill:#e2001a;fill-opacity:1;fill-rule:nonzero;stroke:none"
           d="M 0,0 L 0,-4.312 L 1.745,-2.567 L 1.745,-4.68 L -0.745,-7.169 L -3.237,-4.68 L -3.237,-2.567 L -1.493,-4.312 L -1.493,0 L 0,0 z" />
      </g>
    </g>
  </g>
</svg>
