<?xml version="1.0" encoding="UTF-8" standalone="no"?>
<!-- Created with Inkscape (http://www.inkscape.org/) -->

<svg
   xmlns:dc="http://purl.org/dc/elements/1.1/"
   xmlns:cc="http://creativecommons.org/ns#"
   xmlns:rdf="http://www.w3.org/1999/02/22-rdf-syntax-ns#"
   xmlns:svg="http://www.w3.org/2000/svg"
   xmlns="http://www.w3.org/2000/svg"
   xmlns:sodipodi="http://sodipodi.sourceforge.net/DTD/sodipodi-0.dtd"
   xmlns:inkscape="http://www.inkscape.org/namespaces/inkscape"
   width="138"
   height="72"
   id="svg2"
   version="1.1"
   inkscape:version="0.48.1 "
   sodipodi:docname="lyon tcl logo-funi-full.svg">
  <defs
     id="defs4" />
  <sodipodi:namedview
     id="base"
     pagecolor="#ffffff"
     bordercolor="#666666"
     borderopacity="1.0"
     inkscape:pageopacity="0.0"
     inkscape:pageshadow="2"
     inkscape:zoom="5.6568542"
     inkscape:cx="65.794397"
     inkscape:cy="47.944674"
     inkscape:document-units="px"
     inkscape:current-layer="layer1"
     showgrid="false"
     fit-margin-top="0"
     fit-margin-left="0"
     fit-margin-right="0"
     fit-margin-bottom="0"
     inkscape:window-width="1280"
     inkscape:window-height="968"
     inkscape:window-x="-4"
     inkscape:window-y="-4"
     inkscape:window-maximized="1" />
  <metadata
     id="metadata7">
    <rdf:RDF>
      <cc:Work
         rdf:about="">
        <dc:format>image/svg+xml</dc:format>
        <dc:type
           rdf:resource="http://purl.org/dc/dcmitype/StillImage" />
        <dc:title></dc:title>
      </cc:Work>
    </rdf:RDF>
  </metadata>
  <g
     inkscape:groupmode="layer"
     id="layer1"
     inkscape:label="Calque">
    <flowRoot
       xml:space="preserve"
       id="flowRoot2988"
       style="font-size:40px;font-style:normal;font-weight:normal;line-height:125%;letter-spacing:0px;word-spacing:0px;fill:#000000;fill-opacity:1;stroke:none;font-family:Sans"><flowRegion
         id="flowRegion2990"><rect
           id="rect2992"
           width="60"
           height="46"
           x="9"
           y="9" /></flowRegion><flowPara
         id="flowPara2994" /></flowRoot>    <path
       style="fill:#ee1c25;fill-opacity:1;stroke:none"
       d="M 10.306041,-9.708713e-5 128,0 c 11.1875,18.5 10,36 10,36 0,0 0.82757,18.63169 -10,36 l -117.702238,9.7e-5 c -11.5644706,-18.863868 -9.93826201,-36 -9.93826201,-36 0,0 -1.91764309,-16.028869 9.94654101,-36.00019408713 z"
       id="rect3764"
       inkscape:connector-curvature="0"
       sodipodi:nodetypes="ccccccc" />
    <g
       transform="translate(-7.7333374,1.1003853)"
       style="font-size:70px;font-style:normal;font-variant:normal;font-weight:bold;font-stretch:normal;text-align:center;line-height:125%;letter-spacing:0px;word-spacing:0px;text-anchor:middle;fill:#ffffff;fill-opacity:1;stroke:none;font-family:Confluence;-inkscape-font-specification:Confluence Bold"
       id="flowRoot3766">
      <path
         d="M 56.878784,36.884461 56.739929,36.67511 c -4e-6,4.853537 0.699967,9.006365 2.099915,12.458496 1.446933,3.453583 3.336783,6.254179 5.669555,8.401795 2.24018,2.099206 4.876998,3.662213 7.910462,4.689026 3.033425,0.979817 6.113154,1.469725 9.239197,1.469726 3.219979,-10e-7 6.346705,-0.396627 9.380188,-1.18988 2.939412,-0.793253 5.459449,-1.842853 7.560119,-3.148804 l -2.450256,-5.601196 c -1.399985,0.420134 -2.263021,0.677193 -2.589111,0.771179 -0.793294,0.232145 -1.633544,0.441852 -2.520752,0.62912 -0.887285,0.187284 -1.867102,0.327207 -2.939454,0.419769 -1.399976,0.094 -2.589855,0.140999 -3.569641,0.140991 -2.147653,8e-6 -4.341559,-0.326835 -6.581726,-0.980529 -2.146222,-0.606681 -4.059571,-1.656993 -5.740051,-3.15094 -1.632098,-1.445503 -2.985042,-3.405137 -4.058838,-5.878907 -1.026829,-2.473735 -1.540236,-5.600461 -1.540222,-9.380187 -1.4e-5,-3.359549 0.44361,-6.229928 1.330872,-8.611146 0.885807,-2.472293 2.121971,-4.572205 3.708496,-6.299743 1.586487,-1.679034 3.476337,-2.938697 5.669555,-3.778992 2.194595,-0.840204 4.528068,-1.260329 7.000428,-1.260376 2.379727,4.7e-5 4.526636,0.256394 6.440734,0.769043 1.539471,0.420171 3.172974,0.957076 4.900513,1.610718 L 98.319519,10.42511 C 96.546404,9.9110438 94.702839,9.4211354 92.788818,8.9553837 90.923139,8.4883157 88.380315,8.2547547 85.160339,8.2547001 c -4.480415,5.46e-5 -8.470889,0.7000255 -11.971435,2.0999149 -3.406592,1.307424 -6.369541,3.244271 -8.888855,5.810547 -2.334197,2.426802 -4.177762,5.436747 -5.530701,9.029846 -1.26038,3.499179 -1.890568,7.39566 -1.890564,11.689453 z"
         style=""
         id="path3793" />
    </g>
  </g>
</svg>
