<?xml version="1.0" encoding="UTF-8" standalone="no"?>
<!-- Created with Inkscape (http://www.inkscape.org/) -->

<svg
   xmlns:dc="http://purl.org/dc/elements/1.1/"
   xmlns:cc="http://creativecommons.org/ns#"
   xmlns:rdf="http://www.w3.org/1999/02/22-rdf-syntax-ns#"
   xmlns:svg="http://www.w3.org/2000/svg"
   xmlns="http://www.w3.org/2000/svg"
   xmlns:sodipodi="http://sodipodi.sourceforge.net/DTD/sodipodi-0.dtd"
   xmlns:inkscape="http://www.inkscape.org/namespaces/inkscape"
   width="138"
   height="72"
   id="svg2"
   version="1.1"
   inkscape:version="0.48.1 "
   sodipodi:docname="lyon tcl logo-cbus-full.svg">
  <defs
     id="defs4" />
  <sodipodi:namedview
     id="base"
     pagecolor="#ffffff"
     bordercolor="#666666"
     borderopacity="1.0"
     inkscape:pageopacity="0.0"
     inkscape:pageshadow="2"
     inkscape:zoom="1.4142136"
     inkscape:cx="-27.807441"
     inkscape:cy="-103.10621"
     inkscape:document-units="px"
     inkscape:current-layer="layer1"
     showgrid="false"
     fit-margin-top="0"
     fit-margin-left="0"
     fit-margin-right="0"
     fit-margin-bottom="0"
     inkscape:window-width="1280"
     inkscape:window-height="968"
     inkscape:window-x="-4"
     inkscape:window-y="-4"
     inkscape:window-maximized="1" />
  <metadata
     id="metadata7">
    <rdf:RDF>
      <cc:Work
         rdf:about="">
        <dc:format>image/svg+xml</dc:format>
        <dc:type
           rdf:resource="http://purl.org/dc/dcmitype/StillImage" />
        <dc:title></dc:title>
      </cc:Work>
    </rdf:RDF>
  </metadata>
  <g
     inkscape:groupmode="layer"
     id="layer1"
     inkscape:label="Calque">
    <flowRoot
       xml:space="preserve"
       id="flowRoot2988"
       style="font-size:40px;font-style:normal;font-weight:normal;line-height:125%;letter-spacing:0px;word-spacing:0px;fill:#000000;fill-opacity:1;stroke:none;font-family:Sans"><flowRegion
         id="flowRegion2990"><rect
           id="rect2992"
           width="60"
           height="46"
           x="9"
           y="9" /></flowRegion><flowPara
         id="flowPara2994" /></flowRoot>    <path
       style="fill:#ee1c25;fill-opacity:1;stroke:none"
       d="M 10.306041,-9.708713e-5 128,0 c 11.1875,18.5 10,36 10,36 0,0 0.82757,18.63169 -10,36 l -117.702238,9.7e-5 c -11.5644706,-18.863868 -9.93826201,-36 -9.93826201,-36 0,0 -1.91764309,-16.028869 9.94654101,-36.00019408713 z"
       id="rect3764"
       inkscape:connector-curvature="0"
       sodipodi:nodetypes="ccccccc" />
    <g
       transform="translate(-7.7333374,1.1003853)"
       style="font-size:70px;font-style:normal;font-variant:normal;font-weight:bold;font-stretch:normal;text-align:center;line-height:158.00000429%;letter-spacing:-3.70000005px;word-spacing:0px;text-anchor:middle;fill:#ffffff;fill-opacity:1;stroke:none;font-family:Confluence;-inkscape-font-specification:Confluence Bold"
       id="flowRoot3766">
      <path
         d="m 42.837695,20.277325 0,30.600586 10.599366,0 c 1.547022,0 2.947167,-0.213216 4.200439,-0.639648 1.332988,-0.427245 2.452779,-1.0673 3.359375,-1.920166 0.933408,-0.82682 1.666643,-1.826981 2.199707,-3.000488 0.53383,-1.199538 0.800757,-2.492668 0.800781,-3.879395 -2.4e-5,-1.173492 -0.159936,-2.173654 -0.479736,-3.000488 -0.266951,-0.852851 -0.666934,-1.586086 -1.199951,-2.199707 -0.507021,-0.586736 -1.1072,-1.066676 -1.800537,-1.43982 -0.69338,-0.373111 -1.373311,-0.613386 -2.039795,-0.720825 0.480123,-0.186343 0.973287,-0.466291 1.479492,-0.839844 0.533833,-0.346661 0.974099,-0.786521 1.320801,-1.31958 0.399554,-0.559876 0.70595,-1.160054 0.919189,-1.800537 0.240049,-0.719379 0.360084,-1.532367 0.360108,-2.438965 -2.4e-5,-1.013973 -0.159936,-1.960831 -0.479737,-2.840576 -0.292991,-0.933404 -0.77293,-1.73337 -1.439819,-2.399902 -0.666931,-0.666475 -1.587137,-1.186494 -2.76062,-1.560059 -1.119809,-0.40036 -2.493099,-0.600555 -4.119873,-0.600586 z m 9.359131,12.88086 -4.119873,0 0,-8.68042 4.479981,0 c 1.787094,2.6e-5 3.080631,0.413437 3.880615,1.240234 0.799949,0.799992 1.199933,1.800154 1.199951,3.000489 -1.8e-5,0.773133 -0.146706,1.453064 -0.440063,2.039794 -0.293394,0.586771 -0.69358,1.053486 -1.200562,1.400147 -0.453304,0.346698 -1.026627,0.59979 -1.719971,0.759277 -0.639662,0.160337 -1.333021,0.240497 -2.080078,0.240479 z m 0.720215,13.55957 -4.880371,0 0,-9.759521 5.720215,0 c 3.226707,1.4e-5 4.840068,1.586519 4.840088,4.759521 -2e-5,0.960295 -0.173359,1.746834 -0.52002,2.359619 -0.346698,0.640469 -0.786558,1.160488 -1.31958,1.560059 -0.533871,0.346684 -1.134049,0.627039 -1.800537,0.841064 -0.666519,0.15951 -1.34645,0.239262 -2.039795,0.239258 z"
         style="font-size:40px;line-height:177.99999714%"
         id="path3796" />
      <path
         d="m 66.637695,20.277325 0,21.240235 c -4e-6,1.680509 0.292965,3.12053 0.878906,4.320068 0.586746,1.227217 1.38712,2.267256 2.401123,3.120117 1.040031,0.85368 2.253002,1.493734 3.638916,1.920166 1.413562,0.400391 2.933743,0.600586 4.560547,0.600586 1.626774,0 3.146954,-0.200195 4.560547,-0.600586 1.412739,-0.426432 2.612689,-1.066486 3.599853,-1.920166 1.01316,-0.82682 1.826554,-1.866858 2.440186,-3.120117 0.585911,-1.199538 0.878879,-2.639559 0.878906,-4.320068 l 0,-21.240235 -5.239258,0 0,20.080567 c -2.1e-5,1.973478 -0.533468,3.533535 -1.600342,4.680176 -1.040057,1.119796 -2.586687,1.679691 -4.639892,1.679687 -2.053236,4e-6 -3.613293,-0.559891 -4.680176,-1.679687 -1.040048,-1.173496 -1.560067,-2.733553 -1.560059,-4.680176 l 0,-20.080567 z"
         style="font-size:40px;line-height:177.99999714%"
         id="path3798" />
      <path
         d="m 93.577342,44.797589 -2.000732,4.119873 c 1.146644,0.693361 2.520137,1.293539 4.120483,1.800537 1.600334,0.506999 3.506867,0.760498 5.719607,0.760498 1.17349,0 2.34699,-0.133464 3.52051,-0.40039 1.28009,-0.293783 2.39988,-0.787353 3.35937,-1.480713 1.01398,-0.693358 1.86766,-1.679685 2.56104,-2.958985 0.69333,-1.30696 1.04001,-2.947177 1.04003,-4.920654 -2e-5,-1.119781 -0.13348,-2.07966 -0.40039,-2.879639 -0.26694,-0.82681 -0.66693,-1.5869 -1.19995,-2.280273 -0.53306,-0.693344 -1.21299,-1.293523 -2.03979,-1.800537 -0.9066,-0.612776 -1.8799,-1.119368 -2.91992,-1.519776 l -4.11988,-1.679687 c -1.254076,-0.506979 -2.134202,-1.053446 -2.640378,-1.639404 -0.480152,-0.560688 -0.720223,-1.254047 -0.720215,-2.080078 -8e-6,-0.533831 0.120028,-1.027401 0.360108,-1.480713 0.29296,-0.453263 0.653067,-0.839819 1.080322,-1.159668 0.453278,-0.319799 0.973293,-0.559666 1.560063,-0.719605 0.58673,-0.159885 1.22679,-0.239841 1.92016,-0.239868 1.51936,2.7e-5 2.79906,0.172959 3.83911,0.518799 1.06688,0.346705 2.02716,0.786972 2.88086,1.320801 l 1.79932,-4.680176 c -0.82685,-0.453258 -1.90676,-0.853241 -3.23975,-1.199951 -1.28013,-0.346649 -2.96022,-0.519989 -5.04028,-0.52002 -1.81316,3.1e-5 -3.426524,0.240103 -4.840088,0.720215 -1.359871,0.426462 -2.506517,1.053089 -3.439942,1.879883 -0.90658,0.799995 -1.599938,1.733425 -2.080078,2.800293 -0.45329,1.119816 -0.679934,2.253034 -0.679932,3.399658 -2e-6,1.173524 0.15991,2.173686 0.479737,3.000488 0.373532,0.826028 0.853674,1.545835 1.440429,2.159424 0.586747,0.613624 1.306554,1.133643 2.159424,1.560059 0.960279,0.507014 1.880282,0.933852 2.76001,1.280517 l 3.40088,1.359864 c 1.46646,0.612805 2.50649,1.26588 3.12012,1.959228 0.63963,0.666514 0.95945,1.54664 0.95947,2.640381 -2e-5,0.373543 -0.0667,0.82683 -0.2002,1.359863 -0.10662,0.453295 -0.34669,0.906582 -0.72021,1.359864 -0.37274,0.426437 -0.89276,0.773116 -1.56006,1.040039 -0.63966,0.266931 -1.51938,0.400394 -2.63916,0.40039 -1.599945,4e-6 -3.026539,-0.186763 -4.279785,-0.560303 C 95.51093,45.584541 94.40416,45.17113 93.577342,44.797589 z"
         style="font-size:40px;line-height:177.99999714%"
         id="path3800" />
    </g>
  </g>
</svg>
