<?xml version="1.0" encoding="UTF-8" standalone="no"?>
<svg
   xmlns:dc="http://purl.org/dc/elements/1.1/"
   xmlns:cc="http://creativecommons.org/ns#"
   xmlns:rdf="http://www.w3.org/1999/02/22-rdf-syntax-ns#"
   xmlns:svg="http://www.w3.org/2000/svg"
   xmlns="http://www.w3.org/2000/svg"
   viewBox="0 0 14 14"
   height="14"
   width="14"
   id="svg109"
   version="1.1">
  <metadata
     id="metadata115">
    <rdf:RDF>
      <cc:Work
         rdf:about="">
        <dc:format>image/svg+xml</dc:format>
        <dc:type
           rdf:resource="http://purl.org/dc/dcmitype/StillImage" />
        <dc:title></dc:title>
      </cc:Work>
    </rdf:RDF>
  </metadata>
  <defs
     id="defs113" />
  <path
     id="rect128-0-4"
     d="M 6 0 L 6 1.2363281 L 1.8886719 1.2363281 L 1.8886719 2.2363281 L 6 2.2363281 L 6 3.8671875 L 1.8886719 3.8671875 L 1.8886719 4.8671875 L 6 4.8671875 L 6 6.5 L 1.8886719 6.5 L 1.8886719 7.5 L 6 7.5 L 6 9.1328125 L 1.8886719 9.1328125 L 1.8886719 10.132812 L 6 10.132812 L 6 11.763672 L 1.8886719 11.763672 L 1.8886719 12.763672 L 6 12.763672 L 6 14 L 8 14 L 8 12.763672 L 11.888672 12.763672 L 11.888672 11.763672 L 8 11.763672 L 8 10.132812 L 11.888672 10.132812 L 11.888672 9.1328125 L 8 9.1328125 L 8 7.5 L 11.888672 7.5 L 11.888672 6.5 L 8 6.5 L 8 4.8671875 L 11.888672 4.8671875 L 11.888672 3.8671875 L 8 3.8671875 L 8 2.2363281 L 11.888672 2.2363281 L 11.888672 1.2363281 L 8 1.2363281 L 8 0 L 6 0 z "
     style="opacity:1;fill:#000000;fill-opacity:1;fill-rule:evenodd;stroke:none;stroke-width:2.77567363;stroke-linecap:square;stroke-linejoin:miter;stroke-miterlimit:4;stroke-dasharray:none;stroke-opacity:1;paint-order:markers stroke fill" />
</svg>
