<?xml version="1.0" encoding="UTF-8" standalone="no"?>
<svg
   xmlns:dc="http://purl.org/dc/elements/1.1/"
   xmlns:cc="http://creativecommons.org/ns#"
   xmlns:rdf="http://www.w3.org/1999/02/22-rdf-syntax-ns#"
   xmlns:svg="http://www.w3.org/2000/svg"
   xmlns="http://www.w3.org/2000/svg"
   viewBox="0 0 14 14"
   height="14"
   width="14"
   id="svg109"
   version="1.1">
  <metadata
     id="metadata115">
    <rdf:RDF>
      <cc:Work
         rdf:about="">
        <dc:format>image/svg+xml</dc:format>
        <dc:type
           rdf:resource="http://purl.org/dc/dcmitype/StillImage" />
        <dc:title></dc:title>
      </cc:Work>
    </rdf:RDF>
  </metadata>
  <defs
     id="defs113" />
  <path
     id="rect128-0-4"
     d="M 6 1 L 6 2 L 3 2 L 3 3 L 6 3 L 6 5 L 3 5 L 3 6 L 6 6 L 6 8 L 3 8 L 3 9 L 6 9 L 6 11 L 3 11 L 3 12 L 6 12 L 6 13 L 8 13 L 8 12 L 11 12 L 11 11 L 8 11 L 8 9 L 11 9 L 11 8 L 8 8 L 8 6 L 11 6 L 11 5 L 8 5 L 8 3 L 11 3 L 11 2 L 8 2 L 8 1 L 6 1 z "
     style="opacity:1;fill:#000000;fill-opacity:1;fill-rule:evenodd;stroke:none;stroke-width:2.56977439;stroke-linecap:square;stroke-linejoin:miter;stroke-miterlimit:4;stroke-dasharray:none;stroke-opacity:1;paint-order:markers stroke fill" />
</svg>
