<?xml version="1.0" encoding="UTF-8" standalone="no"?>
<svg
   xmlns:dc="http://purl.org/dc/elements/1.1/"
   xmlns:cc="http://creativecommons.org/ns#"
   xmlns:rdf="http://www.w3.org/1999/02/22-rdf-syntax-ns#"
   xmlns:svg="http://www.w3.org/2000/svg"
   xmlns="http://www.w3.org/2000/svg"
   id="svg8"
   version="1.1"
   viewBox="0 0 3.7041666 3.7041668"
   height="14"
   width="14">
  <defs
     id="defs2" />
  <metadata
     id="metadata5">
    <rdf:RDF>
      <cc:Work
         rdf:about="">
        <dc:format>image/svg+xml</dc:format>
        <dc:type
           rdf:resource="http://purl.org/dc/dcmitype/StillImage" />
        <dc:title></dc:title>
      </cc:Work>
    </rdf:RDF>
  </metadata>
  <g
     transform="translate(0,-293.29582)"
     id="layer1">
    <path
       id="rect22"
       transform="matrix(0.26458334,0,0,0.26458334,0,293.29582)"
       d="M 4.5,2 C 4.223,2 4,2.223 4,2.5 4,5.6666667 4,8.8333333 4,12 h 1 v -1 h 4 v 1 h 1 C 10,8.8333333 10,5.6666667 10,2.5 10,2.223 9.777,2 9.5,2 9.223,2 9,2.223 9,2.5 9,3.6666667 9,4.8333333 9,6 H 5 C 5,4.8333333 5,3.6666667 5,2.5 5,2.223 4.777,2 4.5,2 Z M 5,7 H 9 V 8 H 5 Z m 0,2 h 4 v 1 H 5 Z"
       style="opacity:1;fill:#000000;fill-rule:evenodd;stroke-width:1" />
  </g>
</svg>
