 <svg xmlns="http://www.w3.org/2000/svg" width="14" height="14" viewBox="0 0 14 14">
    <path d="M4.499 0a1 1 0 1 0 0 2 1 1 0 0 0 0-2Zm1.845 2.027-.9.303-2.105.693a.5.5 0 0 0-.287.257l-.76 1.58-1.565-.804a.5.5 0 0 0-.672.214.5.5 0 0 0 .215.672l2.022 1.046a.5.5 0 0 0 .678-.228l.887-1.853.142-.047v1.626l-.002.017v1.784l-1.853 1.86c-.133.13-.198.27-.117.51l.996 2.995a.5.5 0 0 0 .634.319.5.5 0 0 0 .317-.635L3.07 9.634 5 7.709v1.784a.5.5 0 0 0 .147.355l2.001 2a.5.5 0 0 0 .702-.709L5.997 9.29V7.497h.002V3.193l.367-.12.782.775a.5.5 0 0 0 .575.096l2.001-.996a.5.5 0 1 0-.451-.892l-1.676.834-.745-.746a.5.5 0 0 0-.508-.117Zm6.992 2.497L10.34 5.528a.5.5 0 0 0-.34.472l-.002 2.997a1 1 0 1 0 1 1l-.002-3.636 2.002-.664v2.3a1 1 0 1 0 .999 1c0-6.93.004-.262.004-4a.501.501 0 0 0-.664-.473z"/>
</svg>
