<svg width="14" height="14" version="1.1" viewBox="0 0 14 14" xmlns="http://www.w3.org/2000/svg">
 <path d="m6.25 0v1h-5.25v1c0.0047 1.29 0.0766 2.63 0.459 3.9 0.391 1.3 1.16 2.47 2.16 3.19 0.817 0.583 1.73 0.818 2.62 0.986 0.00376 0.0034 0.00796 0.0064 0.0117 0.0098v0.922h-6.25l1 1.5h5.25v1.5h1.5v-1.5h5.25l1-1.5h-6.25v-0.922c0.00376-0.0034 0.00796-0.0063 0.0117-0.0098 0.887-0.168 1.8-0.403 2.62-0.986 1.01-0.717 1.77-1.89 2.16-3.19 0.382-1.27 0.454-2.6 0.459-3.9v-1h-5.25v-1zm-4.25 2h1c0.0327 1.2 0.0743 2.41 0.277 3.46 0.207 1.07 0.596 1.96 1.17 2.73 0.117 0.158 0.243 0.31 0.371 0.459-0.223-0.0997-0.434-0.216-0.633-0.357-0.782-0.558-1.46-1.56-1.8-2.68-0.327-1.09-0.381-2.33-0.387-3.62zm2 0h2.25v6.73c-0.379-0.368-0.727-0.739-1.01-1.12-0.49-0.665-0.811-1.39-0.994-2.33-0.178-0.924-0.213-2.09-0.246-3.27zm3.75 0h2.25c-0.0328 1.19-0.0678 2.35-0.246 3.27-0.183 0.949-0.504 1.67-0.994 2.34-0.283 0.385-0.631 0.755-1.01 1.12zm3.25 0h1c-0.0053 1.29-0.0593 2.53-0.387 3.62-0.335 1.11-1.01 2.12-1.8 2.68-0.199 0.142-0.41 0.258-0.633 0.357 0.128-0.149 0.255-0.301 0.371-0.459 0.572-0.777 0.961-1.66 1.17-2.73 0.203-1.05 0.245-2.26 0.277-3.46z"/>
</svg>
