<?xml version="1.0" encoding="UTF-8"?>
<svg width="14" height="14" version="1.1" viewBox="0 0 3.7042 3.7042" xmlns="http://www.w3.org/2000/svg">
 <g transform="matrix(.93574 0 0 .93574 -.18095 -.18651)">
  <path d="m2.3637 1.3393a1.0293 1.0293 0 0 1-1.0293 1.0293 1.0293 1.0293 0 0 1-1.0293-1.0293 1.0293 1.0293 0 0 1 1.0293-1.0293 1.0293 1.0293 0 0 1 1.0293 1.0293z" fill-opacity="0"/>
  <path d="m1.334 0.20117c-0.62684 0-1.1367 0.51183-1.1367 1.1387 1e-8 0.62684 0.50988 1.1367 1.1367 1.1367 0.62684 0 1.1387-0.50988 1.1387-1.1367 0-0.62684-0.51183-1.1387-1.1387-1.1387zm0 0.2168c0.51004 0 0.92188 0.41183 0.92188 0.92187 0 0.51004-0.41183 0.91992-0.92188 0.91992-0.51004 0-0.91992-0.40988-0.91992-0.91992 0-0.51004 0.40988-0.92187 0.91992-0.92187z"/>
  <g stroke-linecap="round">
   <path d="m0.86051 1.1549 0.46813 0.30059 0.66477-0.47577" fill-opacity="0"/>
   <path d="m2.0117 0.875a0.10709 0.10709 0 0 0-0.080078 0.017578l-0.60547 0.43359-0.4082-0.26172a0.10709 0.10709 0 0 0-0.14844 0.033203 0.10709 0.10709 0 0 0 0.033203 0.14648l0.5293 0.33984 0.72461-0.51758a0.10709 0.10709 0 0 0 0.023438-0.14844 0.10709 0.10709 0 0 0-0.068359-0.042969z"/>
  </g>
 </g>
 <g transform="matrix(1.1932 0 0 1.1932 -1.107 -1.1337)">
  <path d="m3.4437 1.633a0.58734 0.58677 0 0 0-0.58756 0.58704 0.58734 0.58677 0 0 0 0.58756 0.58653 0.58734 0.58677 0 0 0 0.58704-0.58653 0.58734 0.58677 0 0 0-0.58704-0.58704zm0.085783 0.31419a0.14242 0.13913 0 0 1 0.14211 0.13901 0.14242 0.13913 0 0 1-0.14211 0.13901 0.14242 0.13913 0 0 1-0.14263-0.13901 0.14242 0.13913 0 0 1 0.14263-0.13901z"/>
  <g stroke="#000">
   <path d="m3.183 2.6688-0.76515 1.1958" fill-opacity="0" stroke-linecap="round" stroke-width=".37815"/>
   <path d="m2.5053 3.8034-0.47542-0.30179" fill="#3a955b" stroke-width=".208"/>
   <path d="m2.6974 3.5067-0.47542-0.30179" fill="#3a955b" stroke-width=".208"/>
  </g>
 </g>
</svg>
