<?xml version="1.0" encoding="UTF-8"?>
<svg width="14" height="14" version="1.1" viewBox="0 0 3.7042 3.7042" xmlns="http://www.w3.org/2000/svg">
 <path d="m2.4862 3.6006a0.80335 0.7965 87.068 0 1-0.25204-1.108 0.80335 0.7965 87.068 0 1 1.098-0.25273 0.80335 0.7965 87.068 0 1 0.25182 1.107 0.80335 0.7965 87.068 0 1-1.0978 0.2537zm0.32505-0.30191a0.19383 0.1898 43.34 0 0 0.26351-0.057821 0.19383 0.1898 43.34 0 0-0.063104-0.26453 0.19383 0.1898 43.34 0 0-0.2641 0.057445 0.19383 0.1898 43.34 0 0 0.063698 0.26491z" stroke-linecap="round" stroke-width="1.0487"/>
 <g stroke-linecap="round">
  <path d="m2.9332 2.21-0.017319-1.943" fill-opacity="0"/>
  <path d="m2.9141 0.0097656a0.25763 0.25763 0 0 0-0.25586 0.25977l0.017578 1.9434a0.25763 0.25763 0 0 0 0.25977 0.25391 0.25763 0.25763 0 0 0 0.25586-0.25977l-0.017578-1.9414a0.25763 0.25763 0 0 0-0.25977-0.25586z"/>
 </g>
 <path d="m2.8436 0.40155-0.76387 0.004142"/>
 <path d="m2.8438 0.25977-0.76562 0.0039062 0.0019531 0.2832 0.76367-0.0039062z"/>
 <path d="m2.8436 0.88529-0.76387 0.004142"/>
 <path d="m2.8438 0.74414-0.76562 0.0039062 0.0019531 0.2832 0.76367-0.0039063z"/>
 <g transform="translate(0 .42095)">
  <g transform="matrix(.95373 0 0 .95373 -.18449 .10751)">
   <path d="m1.334 0.20117c-0.62684 0-1.1367 0.51183-1.1367 1.1387-6e-8 0.62684 0.50988 1.1367 1.1367 1.1367 0.62684 0 1.1387-0.50988 1.1387-1.1367-1e-7 -0.62684-0.51183-1.1387-1.1387-1.1387zm0 0.2168c0.51004 0 0.92188 0.41183 0.92188 0.92187 0 0.51004-0.41183 0.91992-0.92188 0.91992-0.51004 0-0.91992-0.40988-0.91992-0.91992 1e-8 -0.51004 0.40988-0.92187 0.91992-0.92187z"/>
   <path d="m2.0117 0.875a0.10709 0.10709 0 0 0-0.080078 0.017578l-0.60547 0.43359-0.4082-0.26172a0.10709 0.10709 0 0 0-0.14844 0.033203 0.10709 0.10709 0 0 0 0.033203 0.14648l0.5293 0.33984 0.72461-0.51758a0.10709 0.10709 0 0 0 0.023438-0.14844 0.10709 0.10709 0 0 0-0.068359-0.042969z"/>
  </g>
  <path d="m0.98438 0.10352v0.27148h0.20703v-0.27148z"/>
  <path d="m1.8828 0.39453a0.104 0.104 0 0 0-0.14648 0.011719l-0.052734 0.060547a0.104 0.104 0 0 0 0.011719 0.14648 0.104 0.104 0 0 0 0.14648-0.009766l0.052734-0.0625a0.104 0.104 0 0 0-0.011719-0.14648z" stroke-linecap="round"/>
  <path d="m0.8457 0.0058594v0.14844h0.48633v-0.14844h-0.00391z"/>
 </g>
</svg>
