<?xml version="1.0" encoding="UTF-8" standalone="no"?>
<svg
   xmlns:dc="http://purl.org/dc/elements/1.1/"
   xmlns:cc="http://creativecommons.org/ns#"
   xmlns:rdf="http://www.w3.org/1999/02/22-rdf-syntax-ns#"
   xmlns:svg="http://www.w3.org/2000/svg"
   xmlns="http://www.w3.org/2000/svg"
   width="14"
   height="14"
   id="svg3800"
   version="1.1"
   viewBox="0 0 14 14">
  <defs
     id="defs3802" />
  <metadata
     id="metadata3805">
    <rdf:RDF>
      <cc:Work
         rdf:about="">
        <dc:format>image/svg+xml</dc:format>
        <dc:type
           rdf:resource="http://purl.org/dc/dcmitype/StillImage" />
        <dc:title></dc:title>
      </cc:Work>
    </rdf:RDF>
  </metadata>
  <g
     transform="translate(1.5520395,2.8104498)"
     id="g97">
    <g
       id="g105">
      <path
         id="path822"
         transform="translate(-1.5520395,-2.8104498)"
         d="M 0 0 L 0 5 A 3 3 0 0 0 3 8 A 3 3 0 0 0 6 5 L 6 3 L 4 5 L 5 5 A 2 2 0 0 1 3 7 A 2 2 0 0 1 1 5 L 1 0 L 0 0 z M 5.5 9 C 3.1428576 8.9999999 0.78571479 10.25 0 11.5 C 0.78571457 12.75 3.142857 14 5.5 14 C 7.8571441 14.000001 10.214284 12.75 11 11.5 C 10.214286 10.25 7.8571436 9.0000001 5.5 9 z M 11 11.5 L 14 14 L 14 9 L 11 11.5 z M 3 10 A 1 1 0 0 1 4 11 A 1 1 0 0 1 3 12 A 1 1 0 0 1 2 11 A 1 1 0 0 1 3 10 z "
         style="opacity:1;fill:#000000;fill-opacity:1;stroke:none;stroke-width:1.93237853;stroke-linecap:square;stroke-miterlimit:4;stroke-dasharray:none;stroke-opacity:1;paint-order:markers stroke fill" />
    </g>
  </g>
</svg>
