<?xml version="1.0" encoding="UTF-8" standalone="no"?>
<svg
   xmlns:dc="http://purl.org/dc/elements/1.1/"
   xmlns:cc="http://creativecommons.org/ns#"
   xmlns:rdf="http://www.w3.org/1999/02/22-rdf-syntax-ns#"
   xmlns:svg="http://www.w3.org/2000/svg"
   xmlns="http://www.w3.org/2000/svg"
   version="1.1"
   width="14"
   height="14"
   viewBox="0 0 14 14"
   id="svg8093">
  <metadata
     id="metadata8101">
    <rdf:RDF>
      <cc:Work
         rdf:about="">
        <dc:format>image/svg+xml</dc:format>
        <dc:type
           rdf:resource="http://purl.org/dc/dcmitype/StillImage" />
        <dc:title></dc:title>
      </cc:Work>
    </rdf:RDF>
  </metadata>
  <defs
     id="defs8099" />
  <rect
     width="14"
     height="14"
     x="0"
     y="0"
     id="canvas"
     style="fill:none;stroke:none;visibility:hidden" />
  <path
     id="horse_riding"
     d="M 7.4007438,6.8401426e-8 A 0.9999355,0.99995579 0 0 0 6.4008082,0.99995586 0.9999355,0.99995579 0 0 0 7.4007438,1.9999116 0.9999355,0.99995579 0 0 0 8.4006793,0.99995586 0.9999355,0.99995579 0 0 0 7.4007438,6.8401426e-8 Z M 6.8421858,2.2127932 C 6.388517,2.2769004 6.0878374,2.7921856 6.1684012,3.3670392 L 6.4847868,5.6130329 6.1039524,6.0192649 A 2.6170115,1.3654396 0 0 0 4.7446651,5.8181018 2.6170115,1.3654396 0 0 0 2.699875,6.333704 C 2.3747179,6.2979156 1.1500889,6.7234948 0.66094345,7.5934143 0.46697096,7.9560413 -0.41437519,11.164305 0.23518991,11.542459 c 0.24913493,0.0823 0.69529015,0.01901 0.73432764,-0.626926 C 1.0632015,9.366116 1.1325531,8.2406077 1.9967953,7.6129445 a 0.56947504,1.5801134 0 0 0 -0.031248,0.5097434 0.56947504,1.5801134 0 0 0 0.326151,1.425718 L 0.95584643,13.270897 c -0.0993136,0.276922 0.0285282,0.585014 0.28709147,0.691377 0.2585644,0.106362 0.5471317,-0.02971 0.6464423,-0.306628 l 0.9647818,-2.689334 0.8456485,-1.3124418 0,1.3456438 0.002,0 a 0.4999664,0.49997791 0 0 0 0.0039,0.07422 c 0.003,0.08201 0.018199,0.163419 0.058586,0.238271 l 1.3163211,2.437392 c 0.1344353,0.249163 0.4314322,0.325556 0.6679259,0.169915 l 0.0039,-0.002 C 5.9889368,13.761667 6.0704606,13.436034 5.9360252,13.186871 L 4.7251653,10.940876 4.8794524,8.9565891 a 2.5827172,0.88185875 5.2773065 0 0 2.1014274,0.6073951 2.5827172,0.88185875 5.2773065 0 0 1.4413131,-0.0078 L 7.0355633,13.259146 c -0.1028614,0.275028 0.022019,0.586872 0.279279,0.699187 0.2572564,0.112315 0.5474867,-0.01793 0.650349,-0.292955 L 9.412363,9.8003138 11.734479,13.747405 c 0.147252,0.250236 0.45482,0.327438 0.689409,0.171868 0.234589,-0.155571 0.305444,-0.484107 0.158192,-0.734343 L 10.07443,8.9253524 c 0.216191,-0.2566486 0.377336,-0.5380582 0.486297,-0.814417 0.369014,-0.608607 0.476132,-1.3308401 1.558493,-1.6835195 l 0.958922,1.447202 0.0039,-0.002 a 0.4999664,0.49997791 0 0 0 0.300762,0.2109277 0.4999664,0.49997791 0 0 0 0.603477,-0.3710766 0.4999664,0.49997791 0 0 0 0.01172,-0.16015 l 0.002,0 -0.232407,-2.0663146 -0.0059,0.0039 A 0.99993279,0.99995579 0 0 0 13.562456,4.9880605 L 13.857359,3.7595998 13.087878,4.591594 C 12.613291,4.3807214 11.71098,4.321554 10.763809,4.6697206 10.264089,4.8534185 9.8499488,5.0779555 9.5041241,5.3044585 L 7.9749247,4.3377043 7.8069676,3.1346324 C 7.7264027,2.5597789 7.2958545,2.148694 6.8421858,2.2127982 Z"
     style="opacity:1;fill:#000000;fill-opacity:1;stroke:none;stroke-width:0.05072161;stroke-linecap:square;stroke-miterlimit:4;stroke-dasharray:none;stroke-opacity:1;paint-order:markers stroke fill" />
</svg>
