<?xml version="1.0" encoding="UTF-8" standalone="no"?>
<svg
   xmlns:dc="http://purl.org/dc/elements/1.1/"
   xmlns:cc="http://creativecommons.org/ns#"
   xmlns:rdf="http://www.w3.org/1999/02/22-rdf-syntax-ns#"
   xmlns:svg="http://www.w3.org/2000/svg"
   xmlns="http://www.w3.org/2000/svg"
   width="20"
   height="20"
   viewBox="0 0 20 20"
   id="svg2"
   version="1.1">
  <metadata
     id="metadata13">
    <rdf:RDF>
      <cc:Work
         rdf:about="">
        <dc:format>image/svg+xml</dc:format>
        <dc:type
           rdf:resource="http://purl.org/dc/dcmitype/StillImage" />
        <dc:title></dc:title>
      </cc:Work>
    </rdf:RDF>
  </metadata>
  <defs
     id="defs11" />
  <path
     style="fill:#000000;fill-opacity:1;fill-rule:evenodd;stroke:#ff0000;stroke-width:0;stroke-linecap:butt;stroke-linejoin:miter;stroke-miterlimit:4;stroke-dasharray:none;stroke-opacity:1"
     d="M 10.388672 3.859375 L 8.6875 5.5625 L 4 4 C 4.1183036 5.6652 3.8786857 7.2929 6 8 L 18 12 L 19 9 L 9.7480469 5.9160156 L 11.095703 4.5664062 L 10.388672 3.859375 z M 1.1582031 7.359375 L 0.84179688 8.3085938 L 10.205078 11.429688 A 1.7499957 1.7499954 0 0 0 10 12.25 A 1.7499957 1.7499954 0 0 0 11.75 14 A 1.7499957 1.7499954 0 0 0 13.476562 12.519531 L 17.841797 13.974609 L 18.158203 13.025391 L 13.277344 11.398438 A 1.7499957 1.7499954 0 0 0 11.75 10.5 A 1.7499957 1.7499954 0 0 0 11.039062 10.652344 L 1.1582031 7.359375 z M 1 11 L 1 17 L 18 17 L 18 16 L 1 11 z "
     id="path4149" />
</svg>
