<?xml version="1.0" encoding="UTF-8" standalone="no"?>
<svg
   xmlns:dc="http://purl.org/dc/elements/1.1/"
   xmlns:cc="http://creativecommons.org/ns#"
   xmlns:rdf="http://www.w3.org/1999/02/22-rdf-syntax-ns#"
   xmlns:svg="http://www.w3.org/2000/svg"
   xmlns="http://www.w3.org/2000/svg"
   id="svg4"
   viewBox="0 0 14 14"
   height="14"
   width="14"
   version="1.1">
  <metadata
     id="metadata10">
    <rdf:RDF>
      <cc:Work
         rdf:about="">
        <dc:format>image/svg+xml</dc:format>
        <dc:type
           rdf:resource="http://purl.org/dc/dcmitype/StillImage" />
        <dc:title></dc:title>
      </cc:Work>
    </rdf:RDF>
  </metadata>
  <defs
     id="defs8" />
  <rect
     style="fill:none;stroke:none;visibility:hidden"
     id="canvas"
     y="0"
     x="0"
     height="14"
     width="14" />
  <path
     id="path3887-3"
     d="m 2.5,-1.3e-7 c -0.25,0 -0.5,0.221572 -0.5,0.666016 V 11.333984 c 0,0.888888 1,0.888888 1,0 V 0.66601587 C 3,0.22157187 2.75,-1.3e-7 2.5,-1.3e-7 Z m 6.1347661,0.0059 c -0.514161,-0.03826 -1.1535161,0.08454 -1.8847661,0.574219 -1.95,1.30581203 -3.25,0 -3.25,0 V 5.1504319 c 0,0 1.3,1.305811 3.25,0 1.9500001,-1.3058131 3.25,0 3.25,0 V 0.58011887 c 0,0 -0.508301,-0.510458 -1.3652339,-0.574219 z M 9.5,5.9999999 a 1.5,1.5 0 0 0 -1.5,1.5 1.5,1.5 0 0 0 1.5,1.5 1.5,1.5 0 0 0 1.5,-1.5 1.5,1.5 0 0 0 -1.5,-1.5 z m 0.828125,3.509766 c -0.129799,-0.01707 -0.26298,-0.0091 -0.3945311,0.02539 -0.1632798,0.0428 -0.2925939,0.13083 -0.4023439,0.236328 -0.01244,0.01053 -0.02745,0.0154 -0.03906,0.02734 L 7.833986,11.503902 6.025393,12.013668 c -0.266643,0.07505 -0.420754,0.348596 -0.345703,0.615234 0.07505,0.266643 0.350549,0.420753 0.617187,0.345703 L 8.220705,12.43359 c 0.01754,-0.0049 0.03034,-0.01684 0.04687,-0.02344 0.03211,-0.01089 0.06004,-0.02927 0.08984,-0.04687 0.01916,-0.01265 0.03963,-0.02215 0.05664,-0.03711 0.01708,-0.01352 0.03712,-0.02105 0.05273,-0.03711 L 9.4843631,11.242186 10,14 h 2 L 11.201172,10.214844 C 11.068723,9.8289579 10.717524,9.5609659 10.328125,9.5097659 Z"
     style="fill:#000000;fill-opacity:1;stroke:none" />
</svg>
