<?xml version="1.0" encoding="utf-8"?>
<!-- Generator: Adobe Illustrator 14.0.0, SVG Export Plug-In . SVG Version: 6.00 Build 43363)  -->
<!DOCTYPE svg PUBLIC "-//W3C//DTD SVG 1.1//EN" "http://www.w3.org/Graphics/SVG/1.1/DTD/svg11.dtd">
<svg version="1.1" id="svg18718" xmlns:svg="http://www.w3.org/2000/svg"
	 xmlns="http://www.w3.org/2000/svg" xmlns:xlink="http://www.w3.org/1999/xlink" x="0px" y="0px" width="177.6px" height="177.6px"
	 viewBox="0 0 177.6 177.6" enable-background="new 0 0 177.6 177.6" xml:space="preserve">
<rect x="80.782" y="80.712" fill="#FFFFFF" width="16.064" height="16.028"/>
<g id="layer1" transform="translate(-8811.26,-607.043)">
	<g id="g3852">
		<path id="path38787" fill="#009262" d="M8891.63,687.413v16.858h16.859v-16.858H8891.63z M8904.627,688.435h1.581l0.003,1.517
			h1.479v1.51h-1.479v1.509h-1.578v-1.509h-1.481v-1.521l0.866,0.003l0.615,0.018L8904.627,688.435z M8896.389,692.484
			c0.767-0.018,1.512,0.259,2.06,0.834l0.362,0.382l0.403-0.372c0.668-0.614,1.183-0.808,2.263-0.804
			c1.651,0.006,2.828,1.047,3.041,2.794c0.302,2.492-1.103,4.621-4.816,7.328c-0.951,0.695-0.961,0.699-1.024,0.596l-1.022-0.826
			c-2.977-2.27-4.22-3.879-4.472-5.777c-0.194-1.462,0.081-2.334,1.013-3.214C8894.837,692.817,8895.623,692.505,8896.389,692.484z
			 M8899.964,694.416l-3.047,3.701l1.94-0.014l-1.306,2.947l3.044-3.758l-1.895,0.004L8899.964,694.416z"/>
	</g>
</g>
</svg>
