<?xml version="1.0" encoding="utf-8"?>
<!-- Generator: Adobe Illustrator 14.0.0, SVG Export Plug-In . SVG Version: 6.00 Build 43363)  -->
<!DOCTYPE svg PUBLIC "-//W3C//DTD SVG 1.1//EN" "http://www.w3.org/Graphics/SVG/1.1/DTD/svg11.dtd">
<svg version="1.1" id="svg18718" xmlns:svg="http://www.w3.org/2000/svg"
	 xmlns="http://www.w3.org/2000/svg" xmlns:xlink="http://www.w3.org/1999/xlink" x="0px" y="0px" width="177.6px" height="177.6px"
	 viewBox="0 0 177.6 177.6" enable-background="new 0 0 177.6 177.6" xml:space="preserve">
<rect x="82.787" y="82.734" fill="#FFFFFF" width="12.047" height="12.021"/>
<g id="layer1" transform="translate(-8811.26,-607.043)">
	<g id="g3852">
		<path id="path38787" fill="#009262" d="M8893.737,689.521v12.643h12.645v-12.643H8893.737z M8903.485,690.287h1.186l0.002,1.138
			h1.109v1.132h-1.109v1.131h-1.184v-1.131h-1.111v-1.141l0.65,0.002l0.461,0.014L8903.485,690.287z M8897.307,693.324
			c0.574-0.013,1.134,0.195,1.545,0.625l0.271,0.287l0.303-0.279c0.5-0.461,0.887-0.606,1.696-0.604
			c1.238,0.004,2.121,0.785,2.281,2.095c0.227,1.869-0.827,3.466-3.612,5.496c-0.714,0.521-0.721,0.525-0.769,0.448l-0.767-0.62
			c-2.232-1.703-3.165-2.909-3.354-4.333c-0.146-1.096,0.061-1.75,0.759-2.41C8896.143,693.574,8896.732,693.34,8897.307,693.324z
			 M8899.988,694.773l-2.285,2.776l1.455-0.011l-0.979,2.21l2.283-2.818l-1.421,0.003L8899.988,694.773z"/>
	</g>
</g>
</svg>
