<?xml version="1.0" encoding="UTF-8" standalone="no"?>
<!-- Created with Inkscape (http://www.inkscape.org/) -->

<svg
   xmlns:dc="http://purl.org/dc/elements/1.1/"
   xmlns:cc="http://creativecommons.org/ns#"
   xmlns:rdf="http://www.w3.org/1999/02/22-rdf-syntax-ns#"
   xmlns:svg="http://www.w3.org/2000/svg"
   xmlns="http://www.w3.org/2000/svg"
   version="1.1"
   width="100"
   height="100"
   id="svg6584">
  <defs
     id="defs6586" />
  <metadata
     id="metadata6589">
    <rdf:RDF>
      <cc:Work
         rdf:about="">
        <dc:format>image/svg+xml</dc:format>
        <dc:type
           rdf:resource="http://purl.org/dc/dcmitype/StillImage" />
        <dc:title></dc:title>
      </cc:Work>
    </rdf:RDF>
  </metadata>
  <g
     transform="translate(0,-952.362)"
     id="layer1">
    <path
       d="m 37.5,964.86205 c -1.422833,0 -2.083334,0 -2.083334,2.08333 l 0,60.15622 c -8.333333,0.2584 -12.5,6.5104 -12.5,10.6771 0,2.0833 2.083334,2.0833 2.083334,2.0833 l 50,0 c 0,0 2.083333,0 2.083333,-2.0833 0,-10.4167 -6.25,-18.75 -12.5,-18.75 -6.551374,0 -10.179542,11.5846 -16.666667,12.5 -2.844625,0.4 -5.593333,-1.4387 -8.333333,-2.8646 l 0,-38.80207 L 68.75,977.36204 41.673417,965.75788 C 40.104792,965.0858 38.542166,964.86205 37.5,964.86205 z"
       id="rect8138-7"
       style="color:#000000;fill:#000000;fill-opacity:1;fill-rule:nonzero;stroke:none;stroke-width:2;marker:none;visibility:visible;display:inline;overflow:visible;enable-background:accumulate" />
  </g>
</svg>
