<?xml version="1.0" encoding="UTF-8" standalone="no"?>
<!-- Generator: Adobe Illustrator 13.0.0, SVG Export Plug-In  -->

<svg
   xmlns:dc="http://purl.org/dc/elements/1.1/"
   xmlns:cc="http://creativecommons.org/ns#"
   xmlns:rdf="http://www.w3.org/1999/02/22-rdf-syntax-ns#"
   xmlns:svg="http://www.w3.org/2000/svg"
   xmlns="http://www.w3.org/2000/svg"
   xmlns:sodipodi="http://sodipodi.sourceforge.net/DTD/sodipodi-0.dtd"
   xmlns:inkscape="http://www.inkscape.org/namespaces/inkscape"
   version="1.1"
   x="0px"
   y="0px"
   width="580"
   height="580"
   viewBox="0 -0.11 580 580"
   enable-background="new 0 -0.11 764 646"
   xml:space="preserve"
   id="svg4682"
   inkscape:version="0.48.5 r10040"
   sodipodi:docname="IRVE_blue.svg"><metadata
   id="metadata4692"><rdf:RDF><cc:Work
       rdf:about=""><dc:format>image/svg+xml</dc:format><dc:type
         rdf:resource="http://purl.org/dc/dcmitype/StillImage" /><dc:title></dc:title></cc:Work></rdf:RDF></metadata><sodipodi:namedview
   pagecolor="#ffffff"
   bordercolor="#666666"
   borderopacity="1"
   objecttolerance="10"
   gridtolerance="10"
   guidetolerance="10"
   inkscape:pageopacity="0"
   inkscape:pageshadow="2"
   inkscape:window-width="1240"
   inkscape:window-height="934"
   id="namedview4690"
   showgrid="true"
   inkscape:showpageshadow="false"
   inkscape:zoom="0.37189109"
   inkscape:cx="290"
   inkscape:cy="290"
   inkscape:window-x="0"
   inkscape:window-y="0"
   inkscape:window-maximized="0"
   inkscape:current-layer="svg4682"><inkscape:grid
     type="xygrid"
     id="grid4694"
     empspacing="5"
     visible="true"
     enabled="true"
     snapvisiblegridlinesonly="true" /></sodipodi:namedview>
<defs
   id="defs4684">
</defs>


<path
   sodipodi:type="arc"
   style="fill:#0000ff"
   id="path4696"
   sodipodi:cx="420"
   sodipodi:cy="400"
   sodipodi:rx="140"
   sodipodi:ry="140"
   d="m 560,400 a 140,140 0 1 1 -280,0 140,140 0 1 1 280,0 z"
   transform="matrix(2.0714286,0,0,2.0714286,-579.53569,-539.21713)" /><path
   sodipodi:type="arc"
   style="fill:#0000ff"
   id="path4698"
   sodipodi:cx="0"
   sodipodi:cy="0"
   sodipodi:rx="0"
   sodipodi:ry="0"
   d="M 0,0 A 0,0 0 1 1 0,0 0,0 0 1 1 0,0 z"
   transform="translate(0,-0.11)" /><path
   d="m 546.69573,289.32764 c -2.37215,-4.23666 -4.48325,-10.5479 -8.06272,-13.85189 -4.49004,-4.14487 -8.9801,-8.28971 -13.47012,-12.43455 -31.24923,-28.84566 -68.60649,-51.3605 -104.81595,-73.17902 -33.13929,-19.96843 -69.9881,-40.18851 -108.94124,-45.30349 -19.4821,-2.55833 -41.06339,-3.56329 -60.3406,0.42513 -9.0005,1.86199 -20.74977,3.01573 -28.85412,7.35701 -9.77082,5.23484 -19.41919,10.58106 -29.02081,16.1203 -16.58281,9.56673 -30.04613,27.50739 -38.65212,44.14546 -5.08861,9.83882 -8.3875,19.88936 -11.97884,30.38624 -1.56273,4.56743 -1.10617,10.80723 -1.57462,15.58808 -0.42258,4.31063 -1.75998,9.4528 -1.29574,13.77961 2.34917,21.92736 7.98617,43.07077 12.92598,64.5594 1.283,5.58175 -6.0043,0.6989 -7.03223,-0.23635 -5.10901,-4.64396 -10.21801,-9.28872 -15.32702,-13.93352 -3.69253,-3.35669 -6.62158,-4.32425 -6.12844,-9.24878 0.50164,-5.01376 1.72256,-10.39912 1.16397,-15.42905 -1.18522,-10.66693 -10.33366,-15.48432 -18.02567,-21.89335 -5.50945,-4.5912 -11.019767,-9.18329 -16.529262,-13.7745 -3.974797,-3.31248 -4.070024,-0.61047 -7.485399,3.25978 -4.336142,4.9143 -3.622793,4.2052 -8.455482,0.0883 -5.380242,-4.58356 -10.760473,-9.16629 -16.140719,-13.74987 -0.815364,-0.69463 -9.3916,-8.54987 -9.870272,-8.0593 -3.622809,3.71551 -7.244782,7.43015 -10.866746,11.14563 6.502526,5.91163 13.00506,11.8224 19.506747,17.73403 2.730937,2.48267 5.46185,4.96531 8.192789,7.44798 0.918236,0.83491 -2.931585,5.9635 -3.610068,7.12659 -9.82521,-8.69101 -19.649585,-17.38202 -29.474805,-26.07389 -1.716606,2.00228 -11.151574,10.99258 -9.457916,12.61821 5.608096,5.38448 11.21618,10.76812 16.824277,16.15175 1.735315,1.66561 11.622595,9.09318 10.142364,11.26466 -2.454607,3.59986 -9.864337,9.84393 -5.942243,13.19552 9.506387,8.12391 19.012773,16.24698 28.519161,24.3709 7.129147,6.09187 17.802895,4.02157 26.510911,4.02157 4.427133,0 6.352893,2.53027 9.866013,5.28161 5.5588,4.35401 11.11758,8.70888 16.67638,13.06289 7.08408,5.54857 14.52524,13.16829 23.81993,13.63337 5.20085,0.26017 10.4731,0.46167 15.57276,-0.92929 5.65992,-1.54316 6.96504,-3.41791 11.40575,-7.11811 7.97853,-6.65046 7.85525,-18.35723 6.55356,-27.89848 -2.75389,-20.19288 -10.71797,-39.2422 -11.53162,-59.56944 -0.40218,-10.05222 -0.62323,-18.85375 2.74538,-28.28789 3.06506,-8.58216 6.07231,-18.38445 11.2485,-25.89024 10.96112,-15.89328 25.62412,-35.06931 44.60713,-41.92468 19.31378,-6.97441 38.69212,-12.57655 59.53203,-9.45111 11.27146,1.69109 21.71479,3.48508 32.63848,6.64706 9.81418,2.84061 17.3812,7.54408 26.15045,12.90305 18.42186,11.25785 34.74535,23.71366 50.99829,37.93541 15.23265,13.32899 31.55785,24.14304 49.88194,32.88761 19.41494,9.26663 39.73025,17.98911 56.69652,31.38272 17.64646,13.93097 11.55372,38.66747 -7.82293,46.97247 -9.85158,4.22221 -19.0893,5.79174 -28.91706,6.36139 -6.76526,-14.54568 -22.0991,-24.70503 -39.9445,-24.70503 -18.11663,0 -33.65112,10.46375 -40.25483,25.36312 -2.6204,0.0137 -5.24081,0.0264 -7.86121,0.0401 -34.64759,0.17516 -69.29602,0.34946 -103.94361,0.52374 -6.09017,-14.86621 -20.8518,-25.36055 -38.108,-25.36055 -22.69594,0 -41.09402,18.14469 -41.09402,40.52776 0,22.38306 18.39892,40.52776 41.09402,40.52776 16.65594,0 30.98736,-9.77847 37.44059,-23.82591 6.05105,0.0671 12.10212,0.0943 18.15742,0.12322 31.59018,0.14795 63.18035,0.2959 94.77052,0.44297 6.83838,14.3799 22.07953,24.39471 39.79912,24.39471 18.73388,0 34.70455,-11.19152 40.89505,-26.90627 15.37551,-1.09849 29.51902,-3.98586 44.16163,-10.42888 9.5472,-4.20097 17.87515,-10.20017 25.06637,-17.85647 9.95786,-10.60234 13.44293,-21.35683 13.44293,-35.54373 0,-9.87538 -1.24218,-18.12258 -6.17603,-26.93346 z"
   id="path4688"
   inkscape:connector-curvature="0"
   style="fill:#ffffff" /></svg>