<?xml version="1.0" encoding="utf-8"?>
<!-- Generator: Adobe Illustrator 14.0.0, SVG Export Plug-In . SVG Version: 6.00 Build 43363)  -->
<!DOCTYPE svg PUBLIC "-//W3C//DTD SVG 1.1//EN" "http://www.w3.org/Graphics/SVG/1.1/DTD/svg11.dtd">
<svg version="1.1" id="Calque_1" xmlns="http://www.w3.org/2000/svg" xmlns:xlink="http://www.w3.org/1999/xlink" x="0px" y="0px"
	 width="170.08px" height="85.04px" viewBox="0 0 170.08 85.04" enable-background="new 0 0 170.08 85.04" xml:space="preserve">
<g>
	<polygon fill="#FFFFFF" stroke="#000000" stroke-width="0.0168" points="156.494,31.802 11.303,31.802 11.303,76.261 
		148.566,76.261 	"/>
	
		<linearGradient id="path9752_1_" gradientUnits="userSpaceOnUse" x1="190.2363" y1="-264.6172" x2="351.9658" y2="-264.6172" gradientTransform="matrix(1 0 0 -1 -185.6875 -222.1875)">
		<stop  offset="0" style="stop-color:#832C71"/>
		<stop  offset="0.2515" style="stop-color:#AD066F"/>
		<stop  offset="0.5031" style="stop-color:#C4064C"/>
		<stop  offset="1" style="stop-color:#DC021B"/>
	</linearGradient>
	<path id="path9752_2_" inkscape:connector-curvature="0" fill="url(#path9752_1_)" stroke="#000000" stroke-width="0.0168" d="
		M5.64,84.383c-0.186-0.157-0.507-0.507-0.716-0.774l-0.376-0.485V42.707c0-38.146,0.016-40.45,0.294-40.995
		c0.607-1.191,0.742-1.226,5.292-1.373C21.43-0.027,34.595,0.302,47.891,1.284c37.157,2.744,70.334,10.192,96.029,21.555
		c8.218,3.636,20.598,10.428,21.965,12.051c0.804,0.955,1.11-0.159-6.675,24.209c-6.629,20.744-7.873,24.524-8.212,24.942
		c-0.215,0.266-0.571,0.401-1.29,0.491c-0.546,0.067-33.108,0.127-72.362,0.133C10.14,84.673,5.959,84.655,5.64,84.383L5.64,84.383z
		 M31.731,73.567c4.546-0.336,7.599-1.049,10.436-2.436c3.101-1.518,5.171-3.576,6.352-6.31c0.484-1.126,0.544-1.436,0.547-2.864
		c0.002-1.468-0.043-1.695-0.539-2.704c-0.692-1.409-2.417-3.172-4.375-4.476c-0.815-0.542-4.162-2.349-7.44-4.014
		c-4.762-2.42-6.143-3.196-6.871-3.87c-0.819-0.756-0.911-0.911-0.918-1.547c-0.015-1.289,0.905-2.304,2.952-3.262
		c1.303-0.611,2.967-0.972,5.412-1.175c2.006-0.167,2.86-0.126,6.281,0.3c1.951,0.242,2.263,0.247,2.402,0.037
		c0.25-0.387,1.504-4.384,1.546-4.933c0.048-0.616-0.108-0.667-3.236-1.047c-3.161-0.385-9.215-0.26-11.885,0.244
		c-6.446,1.215-10.603,3.574-12.263,6.955c-1.539,3.129-1.012,5.805,1.663,8.472c1.566,1.561,2.866,2.4,7.27,4.69
		c7.356,3.831,8.519,4.583,9.513,6.151c0.544,0.855,0.585,1.276,0.216,2.163c-0.778,1.864-2.898,2.908-6.605,3.248
		c-5.507,0.504-10.018-0.336-17.751-3.303c-0.217-0.083-0.441,0.22-1.043,1.414c-1.123,2.241-1.99,4.421-1.826,4.587
		c0.232,0.233,3.524,1.432,5.443,1.985c2.749,0.791,6.177,1.43,9.419,1.756C27.684,73.756,29.469,73.735,31.731,73.567
		L31.731,73.567L31.731,73.567z M113.286,73.089c1.156-0.185,2.86-0.499,3.784-0.698c1.63-0.351,5.027-1.377,5.406-1.636
		c0.103-0.069,1.175-3.258,2.388-7.085c1.208-3.828,2.247-7.009,2.31-7.069c0.06-0.062,3.993-0.137,8.742-0.168l8.629-0.058
		l0.782-2.472c0.43-1.36,0.781-2.631,0.781-2.824c0-0.526-0.638-0.565-9.282-0.565c-4.245,0-7.718-0.046-7.718-0.103
		c0-0.116,2.698-8.543,2.752-8.598c0.02-0.019,4.699-0.088,10.402-0.154l10.368-0.12l0.778-2.55
		c0.429-1.403,0.779-2.743,0.779-2.979c0-0.415-0.044-0.431-1.39-0.535c-1.821-0.142-19.604-0.141-24.16,0l-3.551,0.11l-1.768,5.319
		c-0.971,2.924-2.723,8.309-3.893,11.965c-1.168,3.657-2.615,8.178-3.213,10.047l-1.089,3.398l-0.879,0.175
		c-3.743,0.747-9.618,0.638-12.986-0.242c-4.204-1.098-6.927-3.416-8.093-6.886c-0.643-1.919-0.627-4.94,0.04-7.081
		c1.347-4.327,5.318-7.986,10.398-9.579c3.006-0.941,3.793-1.026,9.533-1.021l5.33,0.004l0.958-3.008
		c0.529-1.656,0.896-3.074,0.818-3.152c-0.576-0.573-10.367-0.763-13.761-0.266c-6.374,0.933-11.508,3.229-15.721,7.032
		c-0.795,0.72-1.474,1.287-1.498,1.259c-0.029-0.027,0.396-1.558,0.944-3.402c1.304-4.396,1.331-4.538,0.825-4.672
		c-0.527-0.142-5.774-0.122-6.619,0.026l-0.673,0.119l-0.724,2.103c-0.398,1.156-2.236,6.792-4.081,12.523
		c-1.846,5.731-3.378,10.443-3.407,10.471c-0.026,0.027-0.572-1.177-1.212-2.678c-2.18-5.115-4.715-9.915-7.71-14.594
		c-1.454-2.272-4.286-6.249-5.198-7.297l-0.562-0.65l-3.204-0.09c-1.761-0.049-3.617-0.039-4.126,0.025l-0.925,0.116l-1.63,4.915
		c-0.897,2.705-2.243,6.886-2.99,9.294c-0.748,2.406-1.395,4.474-1.436,4.596c-0.042,0.121,0.554,0.842,1.324,1.599
		c1.582,1.556,2.279,2.511,2.996,4.094c0.418,0.918,0.557,1.085,0.867,1.042c0.336-0.049,0.65-0.881,2.984-7.913
		c1.434-4.323,2.652-7.901,2.706-7.952c0.053-0.05,0.629,0.722,1.282,1.716c4.514,6.889,8.251,14.707,10.987,22.978l1.047,3.159
		l4.47-0.044l4.472-0.045l2.054-6.355c1.128-3.494,2.124-6.52,2.214-6.722c0.141-0.317,0.229-0.166,0.622,1.097
		c1.602,5.138,5.267,8.74,11.134,10.94c1.518,0.569,4.434,1.267,6.098,1.457C104.028,73.659,110.885,73.474,113.286,73.089
		L113.286,73.089L113.286,73.089z"/>
</g>
</svg>
