<?xml version="1.0" encoding="UTF-8" standalone="no"?>
<!-- Generator: Adobe Illustrator 13.0.0, SVG Export Plug-In . SVG Version: 6.00 Build 14948)  -->
<svg
   xmlns:dc="http://purl.org/dc/elements/1.1/"
   xmlns:cc="http://creativecommons.org/ns#"
   xmlns:rdf="http://www.w3.org/1999/02/22-rdf-syntax-ns#"
   xmlns:svg="http://www.w3.org/2000/svg"
   xmlns="http://www.w3.org/2000/svg"
   xmlns:sodipodi="http://sodipodi.sourceforge.net/DTD/sodipodi-0.dtd"
   xmlns:inkscape="http://www.inkscape.org/namespaces/inkscape"
   version="1.1"
   id="Layer_1"
   x="0px"
   y="0px"
   width="400px"
   height="400px"
   viewBox="0 0 400 400"
   enable-background="new 0 0 400 400"
   xml:space="preserve"
   sodipodi:version="0.32"
   inkscape:version="0.46"
   sodipodi:docname="20090101024514!Metro-M.svg"
   inkscape:output_extension="org.inkscape.output.svg.inkscape"><metadata
   id="metadata8"><rdf:RDF><cc:Work
       rdf:about=""><dc:format>image/svg+xml</dc:format><dc:type
         rdf:resource="http://purl.org/dc/dcmitype/StillImage" /></cc:Work></rdf:RDF></metadata><defs
   id="defs6"><inkscape:perspective
     sodipodi:type="inkscape:persp3d"
     inkscape:vp_x="0 : 200 : 1"
     inkscape:vp_y="0 : 1000 : 0"
     inkscape:vp_z="400 : 200 : 1"
     inkscape:persp3d-origin="200 : 133.33333 : 1"
     id="perspective10" /></defs><sodipodi:namedview
   inkscape:window-height="942"
   inkscape:window-width="1231"
   inkscape:pageshadow="2"
   inkscape:pageopacity="0.0"
   guidetolerance="10.0"
   gridtolerance="10.0"
   objecttolerance="10.0"
   borderopacity="1.0"
   bordercolor="#666666"
   pagecolor="#ffffff"
   id="base"
   showgrid="false"
   inkscape:zoom="1.165"
   inkscape:cx="126.90217"
   inkscape:cy="200"
   inkscape:window-x="207"
   inkscape:window-y="0"
   inkscape:current-layer="Layer_1" />
<path
   d="M 399,200.987 C 399,90.544 306.459,1 200.49,1 C 90.54,1 1,90.544 1,200.987 C 1,310.429 90.54,399 200.49,399 C 310.44,399 399,310.919 399,200.987"
   id="path3157"
   style="fill:#14489e;fill-opacity:1" /><path
   d="M 371.639,200.987 C 371.639,294.521 294.533,372.604 200.491,372.604 C 105.982,372.604 28.362,295.514 28.362,200.987 C 28.362,105.984 105.982,27.356 200.491,27.356 C 294.532,27.356 371.639,106.467 371.639,200.987 z"
   id="path3155"
   style="fill:#ffffff;fill-opacity:1" />
<path
   d="M 298.987,289.039 L 298.987,115.424 C 298.987,105.479 293.535,95.03 277.108,95.03 C 264.691,95.03 259.697,100.504 254.231,111.458 L 200.49,223.387 L 200,223.387 L 145.768,111.458 C 140.294,100.504 135.326,95.03 122.878,95.03 C 106.464,95.03 100.989,105.479 100.989,115.424 L 100.989,289.039 C 100.989,298.518 108.461,303.968 117.404,303.968 C 125.358,303.968 134.315,298.518 134.315,289.039 L 134.315,159.702 L 134.82,159.702 L 184.069,260.193 C 187.552,267.16 192.039,271.156 200,271.156 C 207.947,271.156 212.434,267.16 215.923,260.193 L 265.164,159.702 L 265.67,159.702 L 265.67,289.039 C 265.67,298.518 274.612,303.968 282.574,303.968 C 291.545,303.968 298.987,298.518 298.987,289.039 z"
   id="path3"
   style="fill:#14489e;fill-opacity:1" /></svg>