<?xml version="1.0" encoding="UTF-8" standalone="no"?>
<!-- Generator: Adobe Illustrator 13.0.0, SVG Export Plug-In . SVG Version: 6.00 Build 14948)  -->
<svg
   xmlns:dc="http://purl.org/dc/elements/1.1/"
   xmlns:cc="http://creativecommons.org/ns#"
   xmlns:rdf="http://www.w3.org/1999/02/22-rdf-syntax-ns#"
   xmlns:svg="http://www.w3.org/2000/svg"
   xmlns="http://www.w3.org/2000/svg"
   xmlns:sodipodi="http://sodipodi.sourceforge.net/DTD/sodipodi-0.dtd"
   xmlns:inkscape="http://www.inkscape.org/namespaces/inkscape"
   version="1.1"
   id="Layer_1"
   x="0px"
   y="0px"
   width="400px"
   height="400px"
   viewBox="0 0 400 400"
   enable-background="new 0 0 400 400"
   xml:space="preserve"
   sodipodi:version="0.32"
   inkscape:version="0.46"
   sodipodi:docname="RER.svg"
   inkscape:output_extension="org.inkscape.output.svg.inkscape"><metadata
   id="metadata8"><rdf:RDF><cc:Work
       rdf:about=""><dc:format>image/svg+xml</dc:format><dc:type
         rdf:resource="http://purl.org/dc/dcmitype/StillImage" /></cc:Work></rdf:RDF></metadata><defs
   id="defs6"><inkscape:perspective
     sodipodi:type="inkscape:persp3d"
     inkscape:vp_x="0 : 200 : 1"
     inkscape:vp_y="0 : 1000 : 0"
     inkscape:vp_z="400 : 200 : 1"
     inkscape:persp3d-origin="200 : 133.33333 : 1"
     id="perspective10" /></defs><sodipodi:namedview
   inkscape:window-height="1025"
   inkscape:window-width="1318"
   inkscape:pageshadow="2"
   inkscape:pageopacity="0.0"
   guidetolerance="10.0"
   gridtolerance="10.0"
   objecttolerance="10.0"
   borderopacity="1.0"
   bordercolor="#666666"
   pagecolor="#ffffff"
   id="base"
   showgrid="false"
   inkscape:zoom="1.165"
   inkscape:cx="196.35862"
   inkscape:cy="214.24812"
   inkscape:window-x="224"
   inkscape:window-y="0"
   inkscape:current-layer="Layer_1" />
<path
   style="fill:#14489e;fill-opacity:1"
   d="M 398.996,200.987 C 398.996,90.544 306.459,1 200.516,1 C 90.563,1 1.003,90.544 1.003,200.987 C 1.003,309.923 90.563,399 200.516,399 C 310.453,399 398.996,310.918 398.996,200.987"
   id="path3324" /><path
   style="fill:#ffffff;fill-opacity:1"
   d="M 371.635,200.987 C 371.635,294.519 294.516,371.625 200.516,371.625 C 105.981,371.625 28.364,295.01 28.364,200.987 C 28.364,105.984 105.981,27.862 200.516,27.862 C 294.516,27.862 371.635,106.467 371.635,200.987 z"
   id="path3314" />
<path
   id="path3310"
   d="M 342.791,169.148 C 342.791,142.286 322.887,129.846 303.473,129.846 L 266.176,129.846 C 259.209,129.846 255.215,135.334 255.215,141.298 L 255.215,258.188 C 255.215,265.183 262.195,268.66 268.656,268.66 C 276.097,268.66 282.084,265.183 282.084,258.188 L 282.084,212.93 L 293.522,212.93 L 315.936,263.194 C 317.897,267.161 321.387,268.661 325.383,268.661 C 333.344,268.661 344.781,261.204 340.311,252.233 L 318.907,207.463 C 331.828,200.987 342.791,189.55 342.791,169.148 zM 241.787,255.723 C 241.787,249.737 237.805,243.29 230.853,243.29 L 193.03,243.29 L 193.03,208.949 L 224.393,208.949 C 231.344,208.949 235.311,202.977 235.311,197.511 C 235.311,191.555 231.344,186.059 224.393,186.059 L 193.03,186.059 L 193.03,154.71 L 227.883,154.71 C 234.834,154.71 238.817,147.759 238.817,142.285 C 238.817,136.321 234.835,129.846 227.883,129.846 L 177.122,129.846 C 170.156,129.846 166.183,135.334 166.183,141.298 L 166.183,257.712 C 166.183,264.679 173.149,268.153 179.618,268.153 L 230.855,268.153 C 237.805,268.154 241.787,261.203 241.787,255.723 zM 150.244,169.148 C 150.244,142.286 130.348,129.846 110.956,129.846 L 73.645,129.846 C 66.679,129.846 62.713,135.334 62.713,141.298 L 62.713,258.188 C 62.713,265.183 69.664,268.66 76.126,268.66 C 83.612,268.66 89.553,265.183 89.553,258.188 L 89.553,212.93 L 101.012,212.93 L 123.396,263.194 C 125.394,267.161 128.877,268.661 132.843,268.661 C 140.797,268.661 152.249,261.204 147.763,252.233 L 126.382,207.463 C 139.327,200.987 150.244,189.55 150.244,169.148 zM 314.939,172.142 C 314.939,189.06 299.507,193.027 290.06,193.027 L 282.083,193.027 L 282.083,152.736 L 291.544,152.736 C 303.992,152.735 314.939,158.209 314.939,172.142 zM 122.409,172.142 C 122.409,189.06 106.969,193.027 97.529,193.027 L 89.553,193.027 L 89.553,152.736 L 99.014,152.736 C 111.461,152.735 122.409,158.209 122.409,172.142 z"
   style="fill:#14489e;fill-opacity:1" /></svg>