<?xml version="1.0" encoding="utf-8"?>
<!-- Generator: Adobe Illustrator 14.0.0, SVG Export Plug-In . SVG Version: 6.00 Build 43363)  -->
<!DOCTYPE svg PUBLIC "-//W3C//DTD SVG 1.1//EN" "http://www.w3.org/Graphics/SVG/1.1/DTD/svg11.dtd">
<svg version="1.1"
	 id="svg2" xmlns:sodipodi="http://sodipodi.sourceforge.net/DTD/sodipodi-0.dtd" xmlns:inkscape="http://www.inkscape.org/namespaces/inkscape" sodipodi:docname="acre over football field.svg" inkscape:version="0.45" inkscape:output_extension="org.inkscape.output.svg.inkscape" xmlns:cc="http://web.resource.org/cc/" xmlns:dc="http://purl.org/dc/elements/1.1/" xmlns:rdf="http://www.w3.org/1999/02/22-rdf-syntax-ns#" xmlns:svg="http://www.w3.org/2000/svg" sodipodi:modified="true" sodipodi:version="0.32" sodipodi:docbase="W:\"
	 xmlns="http://www.w3.org/2000/svg" xmlns:xlink="http://www.w3.org/1999/xlink" x="0px" y="0px" width="323.149px"
	 height="155.906px" viewBox="0 0 323.149 155.906" enable-background="new 0 0 323.149 155.906" xml:space="preserve">
<sodipodi:namedview  id="base" inkscape:pageshadow="2" inkscape:zoom="1" inkscape:window-x="12" borderopacity="1.0" inkscape:window-y="45" inkscape:cx="285.78128" inkscape:window-height="913" inkscape:window-width="1226" bordercolor="#666666" inkscape:cy="175.35495" showgrid="true" inkscape:pageopacity="0.83921569" pagecolor="#61c369" inkscape:current-layer="layer1" inkscape:document-units="mm" showborder="true" gridtolerance="0.125mm" guidetolerance="0.125mm" gridspacingx="5mm" gridoriginy="0mm" gridoriginx="0mm" gridspacingy="5mm">
	</sodipodi:namedview>
<g id="layer4" inkscape:label="acre" inkscape:groupmode="layer">
</g>
<g id="layer1" inkscape:label="field" inkscape:groupmode="layer">
	<g id="g6025" transform="translate(10.62978,10.62993)">
		
			<rect id="rect1307" x="-28.69" y="157.269" fill="none" stroke="#FFFFFF" stroke-width="1.7717" stroke-linecap="round" stroke-linejoin="round" width="382.681" height="173.622"/>
		
			<rect id="rect2182" x="-28.688" y="157.269" fill="none" stroke="#FFFFFF" stroke-width="1.7717" stroke-linecap="round" stroke-linejoin="round" width="31.89" height="173.622"/>
		
			<rect id="rect2184" x="322.454" y="157.269" fill="none" stroke="#FFFFFF" stroke-width="1.7717" stroke-linecap="round" stroke-linejoin="round" width="31.889" height="173.622"/>
		<path id="path2186" fill="none" stroke="#FFFFFF" stroke-width="0.8858" d="M19.647,157.173v173.813"/>
		<path id="path2188" fill="none" stroke="#FFFFFF" stroke-width="1.3333" d="M22.671,159.266v5.131"/>
		<path id="path2190" fill="none" stroke="#FFFFFF" stroke-width="1.3333" d="M25.855,159.266v5.131"/>
		<path id="path2192" fill="none" stroke="#FFFFFF" stroke-width="1.3333" d="M29.039,159.266v5.131"/>
		<path id="path2194" fill="none" stroke="#FFFFFF" stroke-width="1.3333" d="M32.223,159.266v5.131"/>
		<path id="path2212" fill="none" stroke="#FFFFFF" stroke-width="1.3333" d="M22.671,323.764v5.131"/>
		<path id="path2214" fill="none" stroke="#FFFFFF" stroke-width="1.3333" d="M25.855,323.764v5.131"/>
		<path id="path2216" fill="none" stroke="#FFFFFF" stroke-width="1.3333" d="M29.039,323.764v5.131"/>
		<path id="path2218" fill="none" stroke="#FFFFFF" stroke-width="1.3333" d="M32.223,323.764v5.131"/>
		<path id="path2241" fill="none" stroke="#FFFFFF" stroke-width="1.3333" d="M6.402,159.266v5.131"/>
		<path id="path2245" fill="none" stroke="#FFFFFF" stroke-width="1.3333" d="M9.587,159.266v5.131"/>
		<path id="path2247" fill="none" stroke="#FFFFFF" stroke-width="1.3333" d="M12.771,159.266v5.131"/>
		<path id="path2249" fill="none" stroke="#FFFFFF" stroke-width="1.3333" d="M15.955,159.266v5.131"/>
		<path id="path2267" fill="none" stroke="#FFFFFF" stroke-width="1.3333" d="M6.402,323.764v5.131"/>
		<path id="path2269" fill="none" stroke="#FFFFFF" stroke-width="1.3333" d="M9.587,323.764v5.131"/>
		<path id="path2271" fill="none" stroke="#FFFFFF" stroke-width="1.3333" d="M12.771,323.764v5.131"/>
		<path id="path2273" fill="none" stroke="#FFFFFF" stroke-width="1.3333" d="M15.955,323.764v5.131"/>
		<path id="path2279" fill="none" stroke="#FFFFFF" stroke-width="0.8858" d="M51.537,157.173v173.813"/>
		<path id="path2277" fill="none" stroke="#FFFFFF" stroke-width="1.3333" d="M54.561,159.266v5.131"/>
		<path id="path2281" fill="none" stroke="#FFFFFF" stroke-width="1.3333" d="M57.745,159.266v5.131"/>
		<path id="path2283" fill="none" stroke="#FFFFFF" stroke-width="1.3333" d="M60.929,159.266v5.131"/>
		<path id="path2285" fill="none" stroke="#FFFFFF" stroke-width="1.3333" d="M64.113,159.266v5.131"/>
		<path id="path2303" fill="none" stroke="#FFFFFF" stroke-width="1.3333" d="M54.561,323.764v5.131"/>
		<path id="path2305" fill="none" stroke="#FFFFFF" stroke-width="1.3333" d="M57.745,323.764v5.131"/>
		<path id="path2307" fill="none" stroke="#FFFFFF" stroke-width="1.3333" d="M60.929,323.764v5.131"/>
		<path id="path2309" fill="none" stroke="#FFFFFF" stroke-width="1.3333" d="M64.113,323.764v5.131"/>
		<path id="path2315" fill="none" stroke="#FFFFFF" stroke-width="0.8858" d="M35.268,157.173v173.813"/>
		<path id="path2313" fill="none" stroke="#FFFFFF" stroke-width="1.3333" d="M38.292,159.266v5.131"/>
		<path id="path2317" fill="none" stroke="#FFFFFF" stroke-width="1.3333" d="M41.476,159.266v5.131"/>
		<path id="path2319" fill="none" stroke="#FFFFFF" stroke-width="1.3333" d="M44.66,159.266v5.131"/>
		<path id="path2321" fill="none" stroke="#FFFFFF" stroke-width="1.3333" d="M47.844,159.266v5.131"/>
		<path id="path2339" fill="none" stroke="#FFFFFF" stroke-width="1.3333" d="M38.292,323.764v5.131"/>
		<path id="path2341" fill="none" stroke="#FFFFFF" stroke-width="1.3333" d="M41.476,323.764v5.131"/>
		<path id="path2343" fill="none" stroke="#FFFFFF" stroke-width="1.3333" d="M44.66,323.764v5.131"/>
		<path id="path2345" fill="none" stroke="#FFFFFF" stroke-width="1.3333" d="M47.844,323.764v5.131"/>
		<path id="path2351" fill="none" stroke="#FFFFFF" stroke-width="0.8858" d="M83.426,157.173v173.813"/>
		<path id="path2349" fill="none" stroke="#FFFFFF" stroke-width="1.3333" d="M86.45,159.266v5.131"/>
		<path id="path2353" fill="none" stroke="#FFFFFF" stroke-width="1.3333" d="M89.634,159.266v5.131"/>
		<path id="path2355" fill="none" stroke="#FFFFFF" stroke-width="1.3333" d="M92.818,159.266v5.131"/>
		<path id="path2357" fill="none" stroke="#FFFFFF" stroke-width="1.3333" d="M96.003,159.266v5.131"/>
		<path id="path2375" fill="none" stroke="#FFFFFF" stroke-width="1.3333" d="M86.45,323.764v5.131"/>
		<path id="path2377" fill="none" stroke="#FFFFFF" stroke-width="1.3333" d="M89.634,323.764v5.131"/>
		<path id="path2379" fill="none" stroke="#FFFFFF" stroke-width="1.3333" d="M92.818,323.764v5.131"/>
		<path id="path2381" fill="none" stroke="#FFFFFF" stroke-width="1.3333" d="M96.003,323.764v5.131"/>
		<path id="path2387" fill="none" stroke="#FFFFFF" stroke-width="0.8858" d="M67.158,157.173v173.813"/>
		<path id="path2385" fill="none" stroke="#FFFFFF" stroke-width="1.3333" d="M70.182,159.266v5.131"/>
		<path id="path2389" fill="none" stroke="#FFFFFF" stroke-width="1.3333" d="M73.366,159.266v5.131"/>
		<path id="path2391" fill="none" stroke="#FFFFFF" stroke-width="1.3333" d="M76.55,159.266v5.131"/>
		<path id="path2393" fill="none" stroke="#FFFFFF" stroke-width="1.3333" d="M79.734,159.266v5.131"/>
		<path id="path2411" fill="none" stroke="#FFFFFF" stroke-width="1.3333" d="M70.182,323.764v5.131"/>
		<path id="path2413" fill="none" stroke="#FFFFFF" stroke-width="1.3333" d="M73.366,323.764v5.131"/>
		<path id="path2415" fill="none" stroke="#FFFFFF" stroke-width="1.3333" d="M76.55,323.764v5.131"/>
		<path id="path2417" fill="none" stroke="#FFFFFF" stroke-width="1.3333" d="M79.734,323.764v5.131"/>
		<path id="path2423" fill="none" stroke="#FFFFFF" stroke-width="0.8858" d="M115.317,157.173v173.813"/>
		<path id="path2421" fill="none" stroke="#FFFFFF" stroke-width="1.3333" d="M118.34,159.266v5.131"/>
		<path id="path2425" fill="none" stroke="#FFFFFF" stroke-width="1.3333" d="M121.525,159.266v5.131"/>
		<path id="path2427" fill="none" stroke="#FFFFFF" stroke-width="1.3333" d="M124.709,159.266v5.131"/>
		<path id="path2429" fill="none" stroke="#FFFFFF" stroke-width="1.3333" d="M127.893,159.266v5.131"/>
		<path id="path2447" fill="none" stroke="#FFFFFF" stroke-width="1.3333" d="M118.34,323.764v5.131"/>
		<path id="path2449" fill="none" stroke="#FFFFFF" stroke-width="1.3333" d="M121.525,323.764v5.131"/>
		<path id="path2451" fill="none" stroke="#FFFFFF" stroke-width="1.3333" d="M124.709,323.764v5.131"/>
		<path id="path2453" fill="none" stroke="#FFFFFF" stroke-width="1.3333" d="M127.893,323.764v5.131"/>
		<path id="path2459" fill="none" stroke="#FFFFFF" stroke-width="0.8858" d="M99.048,157.173v173.813"/>
		<path id="path2457" fill="none" stroke="#FFFFFF" stroke-width="1.3333" d="M102.071,159.266v5.131"/>
		<path id="path2461" fill="none" stroke="#FFFFFF" stroke-width="1.3333" d="M105.256,159.266v5.131"/>
		<path id="path2463" fill="none" stroke="#FFFFFF" stroke-width="1.3333" d="M108.44,159.266v5.131"/>
		<path id="path2465" fill="none" stroke="#FFFFFF" stroke-width="1.3333" d="M111.624,159.266v5.131"/>
		<path id="path2483" fill="none" stroke="#FFFFFF" stroke-width="1.3333" d="M102.071,323.764v5.131"/>
		<path id="path2485" fill="none" stroke="#FFFFFF" stroke-width="1.3333" d="M105.255,323.764v5.131"/>
		<path id="path2487" fill="none" stroke="#FFFFFF" stroke-width="1.3333" d="M108.44,323.764v5.131"/>
		<path id="path2489" fill="none" stroke="#FFFFFF" stroke-width="1.3333" d="M111.624,323.764v5.131"/>
		<path id="path2495" fill="none" stroke="#FFFFFF" stroke-width="0.8858" d="M147.206,157.173v173.813"/>
		<path id="path2493" fill="none" stroke="#FFFFFF" stroke-width="1.3333" d="M150.23,159.266v5.131"/>
		<path id="path2497" fill="none" stroke="#FFFFFF" stroke-width="1.3333" d="M153.415,159.266v5.131"/>
		<path id="path2499" fill="none" stroke="#FFFFFF" stroke-width="1.3333" d="M156.598,159.266v5.131"/>
		<path id="path2501" fill="none" stroke="#FFFFFF" stroke-width="1.3333" d="M159.782,159.266v5.131"/>
		<path id="path2519" fill="none" stroke="#FFFFFF" stroke-width="1.3333" d="M150.23,323.764v5.131"/>
		<path id="path2521" fill="none" stroke="#FFFFFF" stroke-width="1.3333" d="M153.415,323.764v5.131"/>
		<path id="path2523" fill="none" stroke="#FFFFFF" stroke-width="1.3333" d="M156.598,323.764v5.131"/>
		<path id="path2525" fill="none" stroke="#FFFFFF" stroke-width="1.3333" d="M159.782,323.764v5.131"/>
		<path id="path2531" fill="none" stroke="#FFFFFF" stroke-width="0.8858" d="M130.938,157.173v173.813"/>
		<path id="path2529" fill="none" stroke="#FFFFFF" stroke-width="1.3333" d="M133.962,159.266v5.131"/>
		<path id="path2533" fill="none" stroke="#FFFFFF" stroke-width="1.3333" d="M137.145,159.266v5.131"/>
		<path id="path2535" fill="none" stroke="#FFFFFF" stroke-width="1.3333" d="M140.33,159.266v5.131"/>
		<path id="path2537" fill="none" stroke="#FFFFFF" stroke-width="1.3333" d="M143.514,159.266v5.131"/>
		<path id="path2555" fill="none" stroke="#FFFFFF" stroke-width="1.3333" d="M133.962,323.764v5.131"/>
		<path id="path2557" fill="none" stroke="#FFFFFF" stroke-width="1.3333" d="M137.145,323.764v5.131"/>
		<path id="path2559" fill="none" stroke="#FFFFFF" stroke-width="1.3333" d="M140.33,323.764v5.131"/>
		<path id="path2561" fill="none" stroke="#FFFFFF" stroke-width="1.3333" d="M143.514,323.764v5.131"/>
		<path id="path2567" fill="none" stroke="#FFFFFF" stroke-width="0.8858" d="M179.096,157.173v173.813"/>
		<path id="path2565" fill="none" stroke="#FFFFFF" stroke-width="1.3333" d="M182.12,159.266v5.131"/>
		<path id="path2569" fill="none" stroke="#FFFFFF" stroke-width="1.3333" d="M185.303,159.266v5.131"/>
		<path id="path2571" fill="none" stroke="#FFFFFF" stroke-width="1.3333" d="M188.488,159.266v5.131"/>
		<path id="path2573" fill="none" stroke="#FFFFFF" stroke-width="1.3333" d="M191.672,159.266v5.131"/>
		<path id="path2591" fill="none" stroke="#FFFFFF" stroke-width="1.3333" d="M182.12,323.764v5.131"/>
		<path id="path2593" fill="none" stroke="#FFFFFF" stroke-width="1.3333" d="M185.303,323.764v5.131"/>
		<path id="path2595" fill="none" stroke="#FFFFFF" stroke-width="1.3333" d="M188.488,323.764v5.131"/>
		<path id="path2597" fill="none" stroke="#FFFFFF" stroke-width="1.3333" d="M191.672,323.764v5.131"/>
		<path id="path2603" fill="none" stroke="#FFFFFF" stroke-width="0.8858" d="M162.827,157.173v173.813"/>
		<path id="path2601" fill="none" stroke="#FFFFFF" stroke-width="1.3333" d="M165.851,159.266v5.131"/>
		<path id="path2605" fill="none" stroke="#FFFFFF" stroke-width="1.3333" d="M169.036,159.266v5.131"/>
		<path id="path2607" fill="none" stroke="#FFFFFF" stroke-width="1.3333" d="M172.219,159.266v5.131"/>
		<path id="path2609" fill="none" stroke="#FFFFFF" stroke-width="1.3333" d="M175.403,159.266v5.131"/>
		<path id="path2627" fill="none" stroke="#FFFFFF" stroke-width="1.3333" d="M165.851,323.764v5.131"/>
		<path id="path2629" fill="none" stroke="#FFFFFF" stroke-width="1.3333" d="M169.036,323.764v5.131"/>
		<path id="path2631" fill="none" stroke="#FFFFFF" stroke-width="1.3333" d="M172.219,323.764v5.131"/>
		<path id="path2633" fill="none" stroke="#FFFFFF" stroke-width="1.3333" d="M175.403,323.764v5.131"/>
		<path id="path2639" fill="none" stroke="#FFFFFF" stroke-width="0.8858" d="M210.985,157.173v173.813"/>
		<path id="path2637" fill="none" stroke="#FFFFFF" stroke-width="1.3333" d="M214.009,159.266v5.131"/>
		<path id="path2641" fill="none" stroke="#FFFFFF" stroke-width="1.3333" d="M217.194,159.266v5.131"/>
		<path id="path2643" fill="none" stroke="#FFFFFF" stroke-width="1.3333" d="M220.378,159.266v5.131"/>
		<path id="path2645" fill="none" stroke="#FFFFFF" stroke-width="1.3333" d="M223.561,159.266v5.131"/>
		<path id="path2663" fill="none" stroke="#FFFFFF" stroke-width="1.3333" d="M214.009,323.764v5.131"/>
		<path id="path2665" fill="none" stroke="#FFFFFF" stroke-width="1.3333" d="M217.194,323.764v5.131"/>
		<path id="path2667" fill="none" stroke="#FFFFFF" stroke-width="1.3333" d="M220.378,323.764v5.131"/>
		<path id="path2669" fill="none" stroke="#FFFFFF" stroke-width="1.3333" d="M223.561,323.764v5.131"/>
		<path id="path2675" fill="none" stroke="#FFFFFF" stroke-width="0.8858" d="M194.717,157.173v173.813"/>
		<path id="path2673" fill="none" stroke="#FFFFFF" stroke-width="1.3333" d="M197.741,159.266v5.131"/>
		<path id="path2677" fill="none" stroke="#FFFFFF" stroke-width="1.3333" d="M200.924,159.266v5.131"/>
		<path id="path2679" fill="none" stroke="#FFFFFF" stroke-width="1.3333" d="M204.109,159.266v5.131"/>
		<path id="path2681" fill="none" stroke="#FFFFFF" stroke-width="1.3333" d="M207.294,159.266v5.131"/>
		<path id="path2699" fill="none" stroke="#FFFFFF" stroke-width="1.3333" d="M197.741,323.764v5.131"/>
		<path id="path2701" fill="none" stroke="#FFFFFF" stroke-width="1.3333" d="M200.924,323.764v5.131"/>
		<path id="path2703" fill="none" stroke="#FFFFFF" stroke-width="1.3333" d="M204.109,323.764v5.131"/>
		<path id="path2705" fill="none" stroke="#FFFFFF" stroke-width="1.3333" d="M207.294,323.764v5.131"/>
		<path id="path2711" fill="none" stroke="#FFFFFF" stroke-width="0.8858" d="M242.876,157.173v173.813"/>
		<path id="path2709" fill="none" stroke="#FFFFFF" stroke-width="1.3333" d="M245.899,159.266v5.131"/>
		<path id="path2713" fill="none" stroke="#FFFFFF" stroke-width="1.3333" d="M249.084,159.266v5.131"/>
		<path id="path2715" fill="none" stroke="#FFFFFF" stroke-width="1.3333" d="M252.268,159.266v5.131"/>
		<path id="path2717" fill="none" stroke="#FFFFFF" stroke-width="1.3333" d="M255.452,159.266v5.131"/>
		<path id="path2735" fill="none" stroke="#FFFFFF" stroke-width="1.3333" d="M245.899,323.764v5.131"/>
		<path id="path2737" fill="none" stroke="#FFFFFF" stroke-width="1.3333" d="M249.084,323.764v5.131"/>
		<path id="path2739" fill="none" stroke="#FFFFFF" stroke-width="1.3333" d="M252.268,323.764v5.131"/>
		<path id="path2741" fill="none" stroke="#FFFFFF" stroke-width="1.3333" d="M255.452,323.764v5.131"/>
		<path id="path2747" fill="none" stroke="#FFFFFF" stroke-width="0.8858" d="M226.607,157.173v173.813"/>
		<path id="path2745" fill="none" stroke="#FFFFFF" stroke-width="1.3333" d="M229.63,159.266v5.131"/>
		<path id="path2749" fill="none" stroke="#FFFFFF" stroke-width="1.3333" d="M232.815,159.266v5.131"/>
		<path id="path2751" fill="none" stroke="#FFFFFF" stroke-width="1.3333" d="M235.999,159.266v5.131"/>
		<path id="path2753" fill="none" stroke="#FFFFFF" stroke-width="1.3333" d="M239.183,159.266v5.131"/>
		<path id="path2771" fill="none" stroke="#FFFFFF" stroke-width="1.3333" d="M229.63,323.764v5.131"/>
		<path id="path2773" fill="none" stroke="#FFFFFF" stroke-width="1.3333" d="M232.815,323.764v5.131"/>
		<path id="path2775" fill="none" stroke="#FFFFFF" stroke-width="1.3333" d="M235.999,323.764v5.131"/>
		<path id="path2777" fill="none" stroke="#FFFFFF" stroke-width="1.3333" d="M239.183,323.764v5.131"/>
		<path id="path2783" fill="none" stroke="#FFFFFF" stroke-width="0.8858" d="M274.765,157.173v173.813"/>
		<path id="path2781" fill="none" stroke="#FFFFFF" stroke-width="1.3333" d="M277.79,159.266v5.131"/>
		<path id="path2785" fill="none" stroke="#FFFFFF" stroke-width="1.3333" d="M280.973,159.266v5.131"/>
		<path id="path2787" fill="none" stroke="#FFFFFF" stroke-width="1.3333" d="M284.157,159.266v5.131"/>
		<path id="path2789" fill="none" stroke="#FFFFFF" stroke-width="1.3333" d="M287.341,159.266v5.131"/>
		<path id="path2807" fill="none" stroke="#FFFFFF" stroke-width="1.3333" d="M277.79,323.764v5.131"/>
		<path id="path2809" fill="none" stroke="#FFFFFF" stroke-width="1.3333" d="M280.973,323.764v5.131"/>
		<path id="path2811" fill="none" stroke="#FFFFFF" stroke-width="1.3333" d="M284.157,323.764v5.131"/>
		<path id="path2813" fill="none" stroke="#FFFFFF" stroke-width="1.3333" d="M287.341,323.764v5.131"/>
		<path id="path2819" fill="none" stroke="#FFFFFF" stroke-width="0.8858" d="M258.497,157.173v173.813"/>
		<path id="path2817" fill="none" stroke="#FFFFFF" stroke-width="1.3333" d="M261.52,159.266v5.131"/>
		<path id="path2821" fill="none" stroke="#FFFFFF" stroke-width="1.3333" d="M264.705,159.266v5.131"/>
		<path id="path2823" fill="none" stroke="#FFFFFF" stroke-width="1.3333" d="M267.889,159.266v5.131"/>
		<path id="path2825" fill="none" stroke="#FFFFFF" stroke-width="1.3333" d="M271.073,159.266v5.131"/>
		<path id="path2843" fill="none" stroke="#FFFFFF" stroke-width="1.3333" d="M261.52,323.764v5.131"/>
		<path id="path2845" fill="none" stroke="#FFFFFF" stroke-width="1.3333" d="M264.705,323.764v5.131"/>
		<path id="path2847" fill="none" stroke="#FFFFFF" stroke-width="1.3333" d="M267.889,323.764v5.131"/>
		<path id="path2849" fill="none" stroke="#FFFFFF" stroke-width="1.3333" d="M271.073,323.764v5.131"/>
		<path id="path2855" fill="none" stroke="#FFFFFF" stroke-width="0.8858" d="M306.655,157.173v173.813"/>
		<path id="path2853" fill="none" stroke="#FFFFFF" stroke-width="1.3333" d="M309.678,159.266v5.131"/>
		<path id="path2857" fill="none" stroke="#FFFFFF" stroke-width="1.3333" d="M312.863,159.266v5.131"/>
		<path id="path2859" fill="none" stroke="#FFFFFF" stroke-width="1.3333" d="M316.047,159.266v5.131"/>
		<path id="path2861" fill="none" stroke="#FFFFFF" stroke-width="1.3333" d="M319.231,159.266v5.131"/>
		<path id="path2879" fill="none" stroke="#FFFFFF" stroke-width="1.3333" d="M309.678,323.764v5.131"/>
		<path id="path2881" fill="none" stroke="#FFFFFF" stroke-width="1.3333" d="M312.863,323.764v5.131"/>
		<path id="path2883" fill="none" stroke="#FFFFFF" stroke-width="1.3333" d="M316.047,323.764v5.131"/>
		<path id="path2885" fill="none" stroke="#FFFFFF" stroke-width="1.3333" d="M319.231,323.764v5.131"/>
		<path id="path2891" fill="none" stroke="#FFFFFF" stroke-width="0.8858" d="M290.386,157.173v173.813"/>
		<path id="path2889" fill="none" stroke="#FFFFFF" stroke-width="1.3333" d="M293.411,159.266v5.131"/>
		<path id="path2893" fill="none" stroke="#FFFFFF" stroke-width="1.3333" d="M296.594,159.266v5.131"/>
		<path id="path2895" fill="none" stroke="#FFFFFF" stroke-width="1.3333" d="M299.778,159.266v5.131"/>
		<path id="path2897" fill="none" stroke="#FFFFFF" stroke-width="1.3333" d="M302.963,159.266v5.131"/>
		<g id="g5861" transform="translate(0,56.02796)">
			<path id="path2196" fill="none" stroke="#FFFFFF" stroke-width="1.3333" d="M22.671,210.289v5.131"/>
			<path id="path2198" fill="none" stroke="#FFFFFF" stroke-width="1.3333" d="M25.855,210.289v5.131"/>
			<path id="path2200" fill="none" stroke="#FFFFFF" stroke-width="1.3333" d="M29.039,210.289v5.131"/>
			<path id="path2202" fill="none" stroke="#FFFFFF" stroke-width="1.3333" d="M32.223,210.289v5.131"/>
			<path id="path2251" fill="none" stroke="#FFFFFF" stroke-width="1.3333" d="M6.402,210.289v5.131"/>
			<path id="path2253" fill="none" stroke="#FFFFFF" stroke-width="1.3333" d="M9.587,210.289v5.131"/>
			<path id="path2255" fill="none" stroke="#FFFFFF" stroke-width="1.3333" d="M12.771,210.289v5.131"/>
			<path id="path2257" fill="none" stroke="#FFFFFF" stroke-width="1.3333" d="M15.955,210.289v5.131"/>
			<path id="path2287" fill="none" stroke="#FFFFFF" stroke-width="1.3333" d="M54.561,210.289v5.131"/>
			<path id="path2289" fill="none" stroke="#FFFFFF" stroke-width="1.3333" d="M57.745,210.289v5.131"/>
			<path id="path2291" fill="none" stroke="#FFFFFF" stroke-width="1.3333" d="M60.929,210.289v5.131"/>
			<path id="path2293" fill="none" stroke="#FFFFFF" stroke-width="1.3333" d="M64.113,210.289v5.131"/>
			<path id="path2323" fill="none" stroke="#FFFFFF" stroke-width="1.3333" d="M38.292,210.289v5.131"/>
			<path id="path2325" fill="none" stroke="#FFFFFF" stroke-width="1.3333" d="M41.476,210.289v5.131"/>
			<path id="path2327" fill="none" stroke="#FFFFFF" stroke-width="1.3333" d="M44.66,210.289v5.131"/>
			<path id="path2329" fill="none" stroke="#FFFFFF" stroke-width="1.3333" d="M47.844,210.289v5.131"/>
			<path id="path2359" fill="none" stroke="#FFFFFF" stroke-width="1.3333" d="M86.45,210.289v5.131"/>
			<path id="path2361" fill="none" stroke="#FFFFFF" stroke-width="1.3333" d="M89.634,210.289v5.131"/>
			<path id="path2363" fill="none" stroke="#FFFFFF" stroke-width="1.3333" d="M92.818,210.289v5.131"/>
			<path id="path2365" fill="none" stroke="#FFFFFF" stroke-width="1.3333" d="M96.003,210.289v5.131"/>
			<path id="path2395" fill="none" stroke="#FFFFFF" stroke-width="1.3333" d="M70.182,210.289v5.131"/>
			<path id="path2397" fill="none" stroke="#FFFFFF" stroke-width="1.3333" d="M73.366,210.289v5.131"/>
			<path id="path2399" fill="none" stroke="#FFFFFF" stroke-width="1.3333" d="M76.55,210.289v5.131"/>
			<path id="path2401" fill="none" stroke="#FFFFFF" stroke-width="1.3333" d="M79.734,210.289v5.131"/>
			<path id="path2431" fill="none" stroke="#FFFFFF" stroke-width="1.3333" d="M118.34,210.289v5.131"/>
			<path id="path2433" fill="none" stroke="#FFFFFF" stroke-width="1.3333" d="M121.525,210.289v5.131"/>
			<path id="path2435" fill="none" stroke="#FFFFFF" stroke-width="1.3333" d="M124.709,210.289v5.131"/>
			<path id="path2437" fill="none" stroke="#FFFFFF" stroke-width="1.3333" d="M127.893,210.289v5.131"/>
			<path id="path2467" fill="none" stroke="#FFFFFF" stroke-width="1.3333" d="M102.071,210.289v5.131"/>
			<path id="path2469" fill="none" stroke="#FFFFFF" stroke-width="1.3333" d="M105.256,210.289v5.131"/>
			<path id="path2471" fill="none" stroke="#FFFFFF" stroke-width="1.3333" d="M108.44,210.289v5.131"/>
			<path id="path2473" fill="none" stroke="#FFFFFF" stroke-width="1.3333" d="M111.624,210.289v5.131"/>
			<path id="path2503" fill="none" stroke="#FFFFFF" stroke-width="1.3333" d="M150.23,210.289v5.131"/>
			<path id="path2505" fill="none" stroke="#FFFFFF" stroke-width="1.3333" d="M153.415,210.289v5.131"/>
			<path id="path2507" fill="none" stroke="#FFFFFF" stroke-width="1.3333" d="M156.598,210.289v5.131"/>
			<path id="path2509" fill="none" stroke="#FFFFFF" stroke-width="1.3333" d="M159.782,210.289v5.131"/>
			<path id="path2539" fill="none" stroke="#FFFFFF" stroke-width="1.3333" d="M133.962,210.289v5.131"/>
			<path id="path2541" fill="none" stroke="#FFFFFF" stroke-width="1.3333" d="M137.145,210.289v5.131"/>
			<path id="path2543" fill="none" stroke="#FFFFFF" stroke-width="1.3333" d="M140.33,210.289v5.131"/>
			<path id="path2545" fill="none" stroke="#FFFFFF" stroke-width="1.3333" d="M143.514,210.289v5.131"/>
			<path id="path2575" fill="none" stroke="#FFFFFF" stroke-width="1.3333" d="M182.12,210.289v5.131"/>
			<path id="path2577" fill="none" stroke="#FFFFFF" stroke-width="1.3333" d="M185.303,210.289v5.131"/>
			<path id="path2579" fill="none" stroke="#FFFFFF" stroke-width="1.3333" d="M188.488,210.289v5.131"/>
			<path id="path2581" fill="none" stroke="#FFFFFF" stroke-width="1.3333" d="M191.672,210.289v5.131"/>
			<path id="path2611" fill="none" stroke="#FFFFFF" stroke-width="1.3333" d="M165.851,210.289v5.131"/>
			<path id="path2613" fill="none" stroke="#FFFFFF" stroke-width="1.3333" d="M169.036,210.289v5.131"/>
			<path id="path2615" fill="none" stroke="#FFFFFF" stroke-width="1.3333" d="M172.219,210.289v5.131"/>
			<path id="path2617" fill="none" stroke="#FFFFFF" stroke-width="1.3333" d="M175.403,210.289v5.131"/>
			<path id="path2647" fill="none" stroke="#FFFFFF" stroke-width="1.3333" d="M214.009,210.289v5.131"/>
			<path id="path2649" fill="none" stroke="#FFFFFF" stroke-width="1.3333" d="M217.194,210.289v5.131"/>
			<path id="path2651" fill="none" stroke="#FFFFFF" stroke-width="1.3333" d="M220.378,210.289v5.131"/>
			<path id="path2653" fill="none" stroke="#FFFFFF" stroke-width="1.3333" d="M223.561,210.289v5.131"/>
			<path id="path2683" fill="none" stroke="#FFFFFF" stroke-width="1.3333" d="M197.741,210.289v5.131"/>
			<path id="path2685" fill="none" stroke="#FFFFFF" stroke-width="1.3333" d="M200.924,210.289v5.131"/>
			<path id="path2687" fill="none" stroke="#FFFFFF" stroke-width="1.3333" d="M204.109,210.289v5.131"/>
			<path id="path2689" fill="none" stroke="#FFFFFF" stroke-width="1.3333" d="M207.294,210.289v5.131"/>
			<path id="path2719" fill="none" stroke="#FFFFFF" stroke-width="1.3333" d="M245.899,210.289v5.131"/>
			<path id="path2721" fill="none" stroke="#FFFFFF" stroke-width="1.3333" d="M249.084,210.289v5.131"/>
			<path id="path2723" fill="none" stroke="#FFFFFF" stroke-width="1.3333" d="M252.268,210.289v5.131"/>
			<path id="path2725" fill="none" stroke="#FFFFFF" stroke-width="1.3333" d="M255.452,210.289v5.131"/>
			<path id="path2755" fill="none" stroke="#FFFFFF" stroke-width="1.3333" d="M229.63,210.289v5.131"/>
			<path id="path2757" fill="none" stroke="#FFFFFF" stroke-width="1.3333" d="M232.815,210.289v5.131"/>
			<path id="path2759" fill="none" stroke="#FFFFFF" stroke-width="1.3333" d="M235.999,210.289v5.131"/>
			<path id="path2761" fill="none" stroke="#FFFFFF" stroke-width="1.3333" d="M239.183,210.289v5.131"/>
			<path id="path2791" fill="none" stroke="#FFFFFF" stroke-width="1.3333" d="M277.79,210.289v5.131"/>
			<path id="path2793" fill="none" stroke="#FFFFFF" stroke-width="1.3333" d="M280.973,210.289v5.131"/>
			<path id="path2795" fill="none" stroke="#FFFFFF" stroke-width="1.3333" d="M284.157,210.289v5.131"/>
			<path id="path2797" fill="none" stroke="#FFFFFF" stroke-width="1.3333" d="M287.341,210.289v5.131"/>
			<path id="path2827" fill="none" stroke="#FFFFFF" stroke-width="1.3333" d="M261.52,210.289v5.131"/>
			<path id="path2829" fill="none" stroke="#FFFFFF" stroke-width="1.3333" d="M264.705,210.289v5.131"/>
			<path id="path2831" fill="none" stroke="#FFFFFF" stroke-width="1.3333" d="M267.889,210.289v5.131"/>
			<path id="path2833" fill="none" stroke="#FFFFFF" stroke-width="1.3333" d="M271.073,210.289v5.131"/>
			<path id="path2863" fill="none" stroke="#FFFFFF" stroke-width="1.3333" d="M309.678,210.289v5.131"/>
			<path id="path2865" fill="none" stroke="#FFFFFF" stroke-width="1.3333" d="M312.863,210.289v5.131"/>
			<path id="path2867" fill="none" stroke="#FFFFFF" stroke-width="1.3333" d="M316.047,210.289v5.131"/>
			<path id="path2869" fill="none" stroke="#FFFFFF" stroke-width="1.3333" d="M319.231,210.289v5.131"/>
			<path id="path2899" fill="none" stroke="#FFFFFF" stroke-width="1.3333" d="M293.411,210.289v5.131"/>
			<path id="path2901" fill="none" stroke="#FFFFFF" stroke-width="1.3333" d="M296.594,210.289v5.131"/>
			<path id="path2903" fill="none" stroke="#FFFFFF" stroke-width="1.3333" d="M299.778,210.289v5.131"/>
			<path id="path2905" fill="none" stroke="#FFFFFF" stroke-width="1.3333" d="M302.963,210.289v5.131"/>
		</g>
		<g id="g5943" transform="translate(0,-56.02915)">
			<path id="path2204" fill="none" stroke="#FFFFFF" stroke-width="1.3333" d="M22.671,272.741v5.131"/>
			<path id="path2206" fill="none" stroke="#FFFFFF" stroke-width="1.3333" d="M25.855,272.741v5.131"/>
			<path id="path2208" fill="none" stroke="#FFFFFF" stroke-width="1.3333" d="M29.039,272.741v5.131"/>
			<path id="path2210" fill="none" stroke="#FFFFFF" stroke-width="1.3333" d="M32.223,272.741v5.131"/>
			<path id="path2259" fill="none" stroke="#FFFFFF" stroke-width="1.3333" d="M6.402,272.741v5.131"/>
			<path id="path2261" fill="none" stroke="#FFFFFF" stroke-width="1.3333" d="M9.587,272.741v5.131"/>
			<path id="path2263" fill="none" stroke="#FFFFFF" stroke-width="1.3333" d="M12.771,272.741v5.131"/>
			<path id="path2265" fill="none" stroke="#FFFFFF" stroke-width="1.3333" d="M15.955,272.741v5.131"/>
			<path id="path2295" fill="none" stroke="#FFFFFF" stroke-width="1.3333" d="M54.561,272.741v5.131"/>
			<path id="path2297" fill="none" stroke="#FFFFFF" stroke-width="1.3333" d="M57.745,272.741v5.131"/>
			<path id="path2299" fill="none" stroke="#FFFFFF" stroke-width="1.3333" d="M60.929,272.741v5.131"/>
			<path id="path2301" fill="none" stroke="#FFFFFF" stroke-width="1.3333" d="M64.113,272.741v5.131"/>
			<path id="path2331" fill="none" stroke="#FFFFFF" stroke-width="1.3333" d="M38.292,272.741v5.131"/>
			<path id="path2333" fill="none" stroke="#FFFFFF" stroke-width="1.3333" d="M41.476,272.741v5.131"/>
			<path id="path2335" fill="none" stroke="#FFFFFF" stroke-width="1.3333" d="M44.66,272.741v5.131"/>
			<path id="path2337" fill="none" stroke="#FFFFFF" stroke-width="1.3333" d="M47.844,272.741v5.131"/>
			<path id="path2367" fill="none" stroke="#FFFFFF" stroke-width="1.3333" d="M86.45,272.741v5.131"/>
			<path id="path2369" fill="none" stroke="#FFFFFF" stroke-width="1.3333" d="M89.634,272.741v5.131"/>
			<path id="path2371" fill="none" stroke="#FFFFFF" stroke-width="1.3333" d="M92.818,272.741v5.131"/>
			<path id="path2373" fill="none" stroke="#FFFFFF" stroke-width="1.3333" d="M96.003,272.741v5.131"/>
			<path id="path2403" fill="none" stroke="#FFFFFF" stroke-width="1.3333" d="M70.182,272.741v5.131"/>
			<path id="path2405" fill="none" stroke="#FFFFFF" stroke-width="1.3333" d="M73.366,272.741v5.131"/>
			<path id="path2407" fill="none" stroke="#FFFFFF" stroke-width="1.3333" d="M76.55,272.741v5.131"/>
			<path id="path2409" fill="none" stroke="#FFFFFF" stroke-width="1.3333" d="M79.734,272.741v5.131"/>
			<path id="path2439" fill="none" stroke="#FFFFFF" stroke-width="1.3333" d="M118.34,272.741v5.131"/>
			<path id="path2441" fill="none" stroke="#FFFFFF" stroke-width="1.3333" d="M121.525,272.741v5.131"/>
			<path id="path2443" fill="none" stroke="#FFFFFF" stroke-width="1.3333" d="M124.709,272.741v5.131"/>
			<path id="path2445" fill="none" stroke="#FFFFFF" stroke-width="1.3333" d="M127.893,272.741v5.131"/>
			<path id="path2475" fill="none" stroke="#FFFFFF" stroke-width="1.3333" d="M102.071,272.741v5.131"/>
			<path id="path2477" fill="none" stroke="#FFFFFF" stroke-width="1.3333" d="M105.255,272.741v5.131"/>
			<path id="path2479" fill="none" stroke="#FFFFFF" stroke-width="1.3333" d="M108.44,272.741v5.131"/>
			<path id="path2481" fill="none" stroke="#FFFFFF" stroke-width="1.3333" d="M111.624,272.741v5.131"/>
			<path id="path2511" fill="none" stroke="#FFFFFF" stroke-width="1.3333" d="M150.23,272.741v5.131"/>
			<path id="path2513" fill="none" stroke="#FFFFFF" stroke-width="1.3333" d="M153.415,272.741v5.131"/>
			<path id="path2515" fill="none" stroke="#FFFFFF" stroke-width="1.3333" d="M156.598,272.741v5.131"/>
			<path id="path2517" fill="none" stroke="#FFFFFF" stroke-width="1.3333" d="M159.782,272.741v5.131"/>
			<path id="path2547" fill="none" stroke="#FFFFFF" stroke-width="1.3333" d="M133.962,272.741v5.131"/>
			<path id="path2549" fill="none" stroke="#FFFFFF" stroke-width="1.3333" d="M137.145,272.741v5.131"/>
			<path id="path2551" fill="none" stroke="#FFFFFF" stroke-width="1.3333" d="M140.33,272.741v5.131"/>
			<path id="path2553" fill="none" stroke="#FFFFFF" stroke-width="1.3333" d="M143.514,272.741v5.131"/>
			<path id="path2583" fill="none" stroke="#FFFFFF" stroke-width="1.3333" d="M182.12,272.741v5.131"/>
			<path id="path2585" fill="none" stroke="#FFFFFF" stroke-width="1.3333" d="M185.303,272.741v5.131"/>
			<path id="path2587" fill="none" stroke="#FFFFFF" stroke-width="1.3333" d="M188.488,272.741v5.131"/>
			<path id="path2589" fill="none" stroke="#FFFFFF" stroke-width="1.3333" d="M191.672,272.741v5.131"/>
			<path id="path2619" fill="none" stroke="#FFFFFF" stroke-width="1.3333" d="M165.851,272.741v5.131"/>
			<path id="path2621" fill="none" stroke="#FFFFFF" stroke-width="1.3333" d="M169.036,272.741v5.131"/>
			<path id="path2623" fill="none" stroke="#FFFFFF" stroke-width="1.3333" d="M172.219,272.741v5.131"/>
			<path id="path2625" fill="none" stroke="#FFFFFF" stroke-width="1.3333" d="M175.403,272.741v5.131"/>
			<path id="path2655" fill="none" stroke="#FFFFFF" stroke-width="1.3333" d="M214.009,272.741v5.131"/>
			<path id="path2657" fill="none" stroke="#FFFFFF" stroke-width="1.3333" d="M217.194,272.741v5.131"/>
			<path id="path2659" fill="none" stroke="#FFFFFF" stroke-width="1.3333" d="M220.378,272.741v5.131"/>
			<path id="path2661" fill="none" stroke="#FFFFFF" stroke-width="1.3333" d="M223.561,272.741v5.131"/>
			<path id="path2691" fill="none" stroke="#FFFFFF" stroke-width="1.3333" d="M197.741,272.741v5.131"/>
			<path id="path2693" fill="none" stroke="#FFFFFF" stroke-width="1.3333" d="M200.924,272.741v5.131"/>
			<path id="path2695" fill="none" stroke="#FFFFFF" stroke-width="1.3333" d="M204.109,272.741v5.131"/>
			<path id="path2697" fill="none" stroke="#FFFFFF" stroke-width="1.3333" d="M207.294,272.741v5.131"/>
			<path id="path2727" fill="none" stroke="#FFFFFF" stroke-width="1.3333" d="M245.899,272.741v5.131"/>
			<path id="path2729" fill="none" stroke="#FFFFFF" stroke-width="1.3333" d="M249.084,272.741v5.131"/>
			<path id="path2731" fill="none" stroke="#FFFFFF" stroke-width="1.3333" d="M252.268,272.741v5.131"/>
			<path id="path2733" fill="none" stroke="#FFFFFF" stroke-width="1.3333" d="M255.452,272.741v5.131"/>
			<path id="path2763" fill="none" stroke="#FFFFFF" stroke-width="1.3333" d="M229.63,272.741v5.131"/>
			<path id="path2765" fill="none" stroke="#FFFFFF" stroke-width="1.3333" d="M232.815,272.741v5.131"/>
			<path id="path2767" fill="none" stroke="#FFFFFF" stroke-width="1.3333" d="M235.999,272.741v5.131"/>
			<path id="path2769" fill="none" stroke="#FFFFFF" stroke-width="1.3333" d="M239.183,272.741v5.131"/>
			<path id="path2799" fill="none" stroke="#FFFFFF" stroke-width="1.3333" d="M277.79,272.741v5.131"/>
			<path id="path2801" fill="none" stroke="#FFFFFF" stroke-width="1.3333" d="M280.973,272.741v5.131"/>
			<path id="path2803" fill="none" stroke="#FFFFFF" stroke-width="1.3333" d="M284.157,272.741v5.131"/>
			<path id="path2805" fill="none" stroke="#FFFFFF" stroke-width="1.3333" d="M287.341,272.741v5.131"/>
			<path id="path2835" fill="none" stroke="#FFFFFF" stroke-width="1.3333" d="M261.52,272.741v5.131"/>
			<path id="path2837" fill="none" stroke="#FFFFFF" stroke-width="1.3333" d="M264.705,272.741v5.131"/>
			<path id="path2839" fill="none" stroke="#FFFFFF" stroke-width="1.3333" d="M267.889,272.741v5.131"/>
			<path id="path2841" fill="none" stroke="#FFFFFF" stroke-width="1.3333" d="M271.073,272.741v5.131"/>
			<path id="path2871" fill="none" stroke="#FFFFFF" stroke-width="1.3333" d="M309.678,272.741v5.131"/>
			<path id="path2873" fill="none" stroke="#FFFFFF" stroke-width="1.3333" d="M312.863,272.741v5.131"/>
			<path id="path2875" fill="none" stroke="#FFFFFF" stroke-width="1.3333" d="M316.047,272.741v5.131"/>
			<path id="path2877" fill="none" stroke="#FFFFFF" stroke-width="1.3333" d="M319.231,272.741v5.131"/>
			<path id="path2907" fill="none" stroke="#FFFFFF" stroke-width="1.3333" d="M293.411,272.741v5.131"/>
			<path id="path2909" fill="none" stroke="#FFFFFF" stroke-width="1.3333" d="M296.594,272.741v5.131"/>
			<path id="path2911" fill="none" stroke="#FFFFFF" stroke-width="1.3333" d="M299.778,272.741v5.131"/>
			<path id="path2913" fill="none" stroke="#FFFFFF" stroke-width="1.3333" d="M302.963,272.741v5.131"/>
		</g>
		<path id="path2915" fill="none" stroke="#FFFFFF" stroke-width="1.3333" d="M293.411,323.764v5.131"/>
		<path id="path2917" fill="none" stroke="#FFFFFF" stroke-width="1.3333" d="M296.594,323.764v5.131"/>
		<path id="path2919" fill="none" stroke="#FFFFFF" stroke-width="1.3333" d="M299.778,323.764v5.131"/>
		<path id="path2921" fill="none" stroke="#FFFFFF" stroke-width="1.3333" d="M302.963,323.764v5.131"/>
		<path id="path2940" fill="none" stroke="#FFFFFF" stroke-width="0.8858" d="M9.741,239.282v9.598"/>
		<path id="path2945" fill="none" stroke="#FFFFFF" stroke-width="0.8858" d="M315.882,239.282v9.598"/>
		<g id="g2951" transform="translate(-7.706525,36.41094)">
			<path id="path2947" fill="none" stroke="#FFFFFF" stroke-width="1.3333" d="M-23.371,224.412h4.777"/>
			<path id="path2949" fill="none" stroke="#FFFFFF" stroke-width="1.3333" d="M-23.371,190.927h4.777"/>
		</g>
		<g id="g2955" transform="translate(374.9706,36.41094)">
			<path id="path2957" fill="none" stroke="#FFFFFF" stroke-width="1.3333" d="M-23.37,224.412h4.777"/>
			<path id="path2959" fill="none" stroke="#FFFFFF" stroke-width="1.3333" d="M-23.37,190.927h4.777"/>
		</g>
	</g>
	
		<line fill="none" stroke="#FFFFFF" stroke-width="1.25" stroke-linecap="square" x1="13.831" y1="237.968" x2="4.434" y2="234.547"/>
	
		<line fill="none" stroke="#FFFFFF" stroke-width="1.25" stroke-linecap="square" x1="13.831" y1="271.453" x2="4.434" y2="274.873"/>
	
		<line fill="none" stroke="#FFFFFF" stroke-width="1.25" stroke-linecap="square" x1="333.083" y1="237.968" x2="342.48" y2="234.547"/>
	
		<line fill="none" stroke="#FFFFFF" stroke-width="1.25" stroke-linecap="square" x1="333.083" y1="271.453" x2="342.48" y2="274.873"/>
	
		<line fill="none" stroke="#FFFFFF" stroke-width="1.25" stroke-linecap="square" x1="337.782" y1="236.257" x2="337.782" y2="273.162"/>
	
		<line fill="none" stroke="#FFFFFF" stroke-width="1.25" stroke-linecap="square" x1="9.133" y1="236.257" x2="9.133" y2="273.162"/>
</g>
<g id="layer2" sodipodi:insensitive="true" inkscape:label="numbers" inkscape:groupmode="layer">
	<g id="g6379" transform="translate(10.45445,10.61265)">
		<g id="g4580" transform="translate(0.353208,0)">
			<g enable-background="new    ">
				<path fill="#FFFFFF" d="M32.099,309.492h-2.195v-8.273c-0.802,0.75-1.748,1.305-2.836,1.664v-1.992
					c0.573-0.188,1.195-0.543,1.867-1.066s1.133-1.133,1.383-1.832h1.781V309.492z"/>
				<path fill="#FFFFFF" d="M39.091,297.992c1.109,0,1.977,0.396,2.602,1.188c0.745,0.938,1.117,2.492,1.117,4.664
					c0,2.168-0.375,3.725-1.125,4.672c-0.62,0.781-1.484,1.172-2.594,1.172c-1.115,0-2.013-0.428-2.695-1.285
					c-0.683-0.855-1.023-2.383-1.023-4.582c0-2.156,0.375-3.707,1.125-4.656C37.117,298.383,37.981,297.992,39.091,297.992z
					 M39.091,299.813c-0.266,0-0.503,0.086-0.711,0.254c-0.208,0.17-0.37,0.473-0.484,0.91c-0.151,0.568-0.227,1.523-0.227,2.867
					s0.067,2.268,0.203,2.77c0.135,0.504,0.306,0.838,0.512,1.004c0.206,0.168,0.441,0.25,0.707,0.25s0.502-0.084,0.711-0.254
					c0.208-0.168,0.37-0.473,0.484-0.91c0.151-0.562,0.227-1.516,0.227-2.859s-0.068-2.266-0.203-2.77
					c-0.136-0.502-0.306-0.838-0.512-1.008C39.592,299.899,39.356,299.813,39.091,299.813z"/>
			</g>
			<g enable-background="new    ">
				<path fill="none" stroke="#808080" stroke-width="0.1772" d="M32.099,309.492h-2.195v-8.273
					c-0.802,0.75-1.748,1.305-2.836,1.664v-1.992c0.573-0.188,1.195-0.543,1.867-1.066s1.133-1.133,1.383-1.832h1.781V309.492z"/>
				<path fill="none" stroke="#808080" stroke-width="0.1772" d="M39.091,297.992c1.109,0,1.977,0.396,2.602,1.188
					c0.745,0.938,1.117,2.492,1.117,4.664c0,2.168-0.375,3.725-1.125,4.672c-0.62,0.781-1.484,1.172-2.594,1.172
					c-1.115,0-2.013-0.428-2.695-1.285c-0.683-0.855-1.023-2.383-1.023-4.582c0-2.156,0.375-3.707,1.125-4.656
					C37.117,298.383,37.981,297.992,39.091,297.992z M39.091,299.813c-0.266,0-0.503,0.086-0.711,0.254
					c-0.208,0.17-0.37,0.473-0.484,0.91c-0.151,0.568-0.227,1.523-0.227,2.867s0.067,2.268,0.203,2.77
					c0.135,0.504,0.306,0.838,0.512,1.004c0.206,0.168,0.441,0.25,0.707,0.25s0.502-0.084,0.711-0.254
					c0.208-0.168,0.37-0.473,0.484-0.91c0.151-0.562,0.227-1.516,0.227-2.859s-0.068-2.266-0.203-2.77
					c-0.136-0.502-0.306-0.838-0.512-1.008C39.592,299.899,39.356,299.813,39.091,299.813z"/>
			</g>
			<g enable-background="new    ">
				<path fill="#FFFFFF" d="M65.785,307.453v2.039H58.09c0.083-0.77,0.333-1.5,0.75-2.191c0.417-0.689,1.239-1.605,2.469-2.746
					c0.989-0.922,1.596-1.547,1.82-1.875c0.302-0.453,0.453-0.9,0.453-1.344c0-0.488-0.132-0.865-0.395-1.129
					c-0.263-0.262-0.626-0.395-1.09-0.395c-0.458,0-0.823,0.139-1.094,0.414c-0.271,0.277-0.427,0.734-0.469,1.375l-2.188-0.219
					c0.13-1.207,0.539-2.074,1.227-2.602c0.688-0.525,1.547-0.789,2.578-0.789c1.13,0,2.018,0.305,2.664,0.914
					c0.646,0.609,0.969,1.367,0.969,2.273c0,0.516-0.093,1.008-0.277,1.473c-0.185,0.467-0.478,0.955-0.879,1.465
					c-0.266,0.34-0.745,0.826-1.438,1.461c-0.693,0.637-1.132,1.059-1.316,1.266c-0.185,0.209-0.335,0.412-0.449,0.609H65.785z"/>
				<path fill="#FFFFFF" d="M70.98,297.992c1.109,0,1.977,0.396,2.602,1.188c0.745,0.938,1.117,2.492,1.117,4.664
					c0,2.168-0.375,3.725-1.125,4.672c-0.62,0.781-1.484,1.172-2.594,1.172c-1.115,0-2.013-0.428-2.695-1.285
					c-0.683-0.855-1.023-2.383-1.023-4.582c0-2.156,0.375-3.707,1.125-4.656C69.006,298.383,69.871,297.992,70.98,297.992z
					 M70.98,299.813c-0.266,0-0.503,0.086-0.711,0.254c-0.208,0.17-0.37,0.473-0.484,0.91c-0.151,0.568-0.227,1.523-0.227,2.867
					s0.067,2.268,0.203,2.77c0.135,0.504,0.306,0.838,0.512,1.004c0.206,0.168,0.441,0.25,0.707,0.25s0.502-0.084,0.711-0.254
					c0.208-0.168,0.37-0.473,0.484-0.91c0.151-0.562,0.227-1.516,0.227-2.859s-0.068-2.266-0.203-2.77
					c-0.136-0.502-0.306-0.838-0.512-1.008C71.481,299.899,71.246,299.813,70.98,299.813z"/>
			</g>
			<g enable-background="new    ">
				<path fill="none" stroke="#808080" stroke-width="0.1772" d="M65.785,307.453v2.039H58.09c0.083-0.77,0.333-1.5,0.75-2.191
					c0.417-0.689,1.239-1.605,2.469-2.746c0.989-0.922,1.596-1.547,1.82-1.875c0.302-0.453,0.453-0.9,0.453-1.344
					c0-0.488-0.132-0.865-0.395-1.129c-0.263-0.262-0.626-0.395-1.09-0.395c-0.458,0-0.823,0.139-1.094,0.414
					c-0.271,0.277-0.427,0.734-0.469,1.375l-2.188-0.219c0.13-1.207,0.539-2.074,1.227-2.602c0.688-0.525,1.547-0.789,2.578-0.789
					c1.13,0,2.018,0.305,2.664,0.914c0.646,0.609,0.969,1.367,0.969,2.273c0,0.516-0.093,1.008-0.277,1.473
					c-0.185,0.467-0.478,0.955-0.879,1.465c-0.266,0.34-0.745,0.826-1.438,1.461c-0.693,0.637-1.132,1.059-1.316,1.266
					c-0.185,0.209-0.335,0.412-0.449,0.609H65.785z"/>
				<path fill="none" stroke="#808080" stroke-width="0.1772" d="M70.98,297.992c1.109,0,1.977,0.396,2.602,1.188
					c0.745,0.938,1.117,2.492,1.117,4.664c0,2.168-0.375,3.725-1.125,4.672c-0.62,0.781-1.484,1.172-2.594,1.172
					c-1.115,0-2.013-0.428-2.695-1.285c-0.683-0.855-1.023-2.383-1.023-4.582c0-2.156,0.375-3.707,1.125-4.656
					C69.006,298.383,69.871,297.992,70.98,297.992z M70.98,299.813c-0.266,0-0.503,0.086-0.711,0.254
					c-0.208,0.17-0.37,0.473-0.484,0.91c-0.151,0.568-0.227,1.523-0.227,2.867s0.067,2.268,0.203,2.77
					c0.135,0.504,0.306,0.838,0.512,1.004c0.206,0.168,0.441,0.25,0.707,0.25s0.502-0.084,0.711-0.254
					c0.208-0.168,0.37-0.473,0.484-0.91c0.151-0.562,0.227-1.516,0.227-2.859s-0.068-2.266-0.203-2.77
					c-0.136-0.502-0.306-0.838-0.512-1.008C71.481,299.899,71.246,299.813,70.98,299.813z"/>
			</g>
			<g enable-background="new    ">
				<path fill="#FFFFFF" d="M90.183,306.453l2.125-0.258c0.067,0.543,0.25,0.957,0.547,1.242c0.297,0.287,0.656,0.43,1.078,0.43
					c0.453,0,0.834-0.172,1.145-0.516c0.31-0.344,0.465-0.807,0.465-1.391c0-0.551-0.148-0.988-0.445-1.312
					c-0.297-0.322-0.659-0.484-1.086-0.484c-0.281,0-0.617,0.055-1.008,0.164l0.242-1.789c0.594,0.016,1.047-0.113,1.359-0.387
					s0.469-0.637,0.469-1.09c0-0.385-0.115-0.691-0.344-0.922c-0.229-0.229-0.534-0.344-0.914-0.344
					c-0.375,0-0.695,0.131-0.961,0.391c-0.266,0.262-0.427,0.641-0.484,1.141l-2.023-0.344c0.141-0.691,0.353-1.246,0.637-1.66
					c0.284-0.414,0.68-0.738,1.188-0.977c0.508-0.236,1.077-0.355,1.707-0.355c1.078,0,1.942,0.344,2.594,1.031
					c0.536,0.562,0.805,1.199,0.805,1.906c0,1.006-0.55,1.809-1.648,2.406c0.656,0.141,1.181,0.457,1.574,0.945
					c0.393,0.49,0.59,1.082,0.59,1.773c0,1.006-0.367,1.863-1.102,2.57c-0.734,0.709-1.648,1.062-2.742,1.062
					c-1.037,0-1.896-0.297-2.578-0.895C90.687,308.197,90.292,307.418,90.183,306.453z"/>
				<path fill="#FFFFFF" d="M102.87,297.992c1.109,0,1.977,0.396,2.602,1.188c0.745,0.938,1.117,2.492,1.117,4.664
					c0,2.168-0.375,3.725-1.125,4.672c-0.62,0.781-1.484,1.172-2.594,1.172c-1.115,0-2.013-0.428-2.695-1.285
					c-0.683-0.855-1.023-2.383-1.023-4.582c0-2.156,0.375-3.707,1.125-4.656C100.896,298.383,101.761,297.992,102.87,297.992z
					 M102.87,299.813c-0.266,0-0.503,0.086-0.711,0.254c-0.208,0.17-0.37,0.473-0.484,0.91c-0.151,0.568-0.227,1.523-0.227,2.867
					s0.067,2.268,0.203,2.77c0.135,0.504,0.306,0.838,0.512,1.004c0.206,0.168,0.441,0.25,0.707,0.25s0.502-0.084,0.711-0.254
					c0.208-0.168,0.37-0.473,0.484-0.91c0.151-0.562,0.227-1.516,0.227-2.859s-0.068-2.266-0.203-2.77
					c-0.136-0.502-0.306-0.838-0.512-1.008C103.371,299.899,103.136,299.813,102.87,299.813z"/>
			</g>
			<g enable-background="new    ">
				<path fill="none" stroke="#808080" stroke-width="0.1772" d="M90.183,306.453l2.125-0.258c0.067,0.543,0.25,0.957,0.547,1.242
					c0.297,0.287,0.656,0.43,1.078,0.43c0.453,0,0.834-0.172,1.145-0.516c0.31-0.344,0.465-0.807,0.465-1.391
					c0-0.551-0.148-0.988-0.445-1.312c-0.297-0.322-0.659-0.484-1.086-0.484c-0.281,0-0.617,0.055-1.008,0.164l0.242-1.789
					c0.594,0.016,1.047-0.113,1.359-0.387s0.469-0.637,0.469-1.09c0-0.385-0.115-0.691-0.344-0.922
					c-0.229-0.229-0.534-0.344-0.914-0.344c-0.375,0-0.695,0.131-0.961,0.391c-0.266,0.262-0.427,0.641-0.484,1.141l-2.023-0.344
					c0.141-0.691,0.353-1.246,0.637-1.66c0.284-0.414,0.68-0.738,1.188-0.977c0.508-0.236,1.077-0.355,1.707-0.355
					c1.078,0,1.942,0.344,2.594,1.031c0.536,0.562,0.805,1.199,0.805,1.906c0,1.006-0.55,1.809-1.648,2.406
					c0.656,0.141,1.181,0.457,1.574,0.945c0.393,0.49,0.59,1.082,0.59,1.773c0,1.006-0.367,1.863-1.102,2.57
					c-0.734,0.709-1.648,1.062-2.742,1.062c-1.037,0-1.896-0.297-2.578-0.895C90.687,308.197,90.292,307.418,90.183,306.453z"/>
				<path fill="none" stroke="#808080" stroke-width="0.1772" d="M102.87,297.992c1.109,0,1.977,0.396,2.602,1.188
					c0.745,0.938,1.117,2.492,1.117,4.664c0,2.168-0.375,3.725-1.125,4.672c-0.62,0.781-1.484,1.172-2.594,1.172
					c-1.115,0-2.013-0.428-2.695-1.285c-0.683-0.855-1.023-2.383-1.023-4.582c0-2.156,0.375-3.707,1.125-4.656
					C100.896,298.383,101.761,297.992,102.87,297.992z M102.87,299.813c-0.266,0-0.503,0.086-0.711,0.254
					c-0.208,0.17-0.37,0.473-0.484,0.91c-0.151,0.568-0.227,1.523-0.227,2.867s0.067,2.268,0.203,2.77
					c0.135,0.504,0.306,0.838,0.512,1.004c0.206,0.168,0.441,0.25,0.707,0.25s0.502-0.084,0.711-0.254
					c0.208-0.168,0.37-0.473,0.484-0.91c0.151-0.562,0.227-1.516,0.227-2.859s-0.068-2.266-0.203-2.77
					c-0.136-0.502-0.306-0.838-0.512-1.008C103.371,299.899,103.136,299.813,102.87,299.813z"/>
			</g>
			<g enable-background="new    ">
				<path fill="#FFFFFF" d="M126.455,309.492v-2.305h-4.688v-1.922l4.969-7.273h1.844v7.266h1.422v1.93h-1.422v2.305H126.455z
					 M126.455,305.258v-3.914l-2.633,3.914H126.455z"/>
				<path fill="#FFFFFF" d="M134.76,297.992c1.109,0,1.977,0.396,2.602,1.188c0.745,0.938,1.117,2.492,1.117,4.664
					c0,2.168-0.375,3.725-1.125,4.672c-0.62,0.781-1.484,1.172-2.594,1.172c-1.115,0-2.013-0.428-2.695-1.285
					c-0.683-0.855-1.023-2.383-1.023-4.582c0-2.156,0.375-3.707,1.125-4.656C132.786,298.383,133.65,297.992,134.76,297.992z
					 M134.76,299.813c-0.266,0-0.503,0.086-0.711,0.254c-0.208,0.17-0.37,0.473-0.484,0.91c-0.151,0.568-0.227,1.523-0.227,2.867
					s0.067,2.268,0.203,2.77c0.135,0.504,0.306,0.838,0.512,1.004c0.206,0.168,0.441,0.25,0.707,0.25s0.502-0.084,0.711-0.254
					c0.208-0.168,0.37-0.473,0.484-0.91c0.151-0.562,0.227-1.516,0.227-2.859s-0.068-2.266-0.203-2.77
					c-0.136-0.502-0.306-0.838-0.512-1.008C135.261,299.899,135.025,299.813,134.76,299.813z"/>
			</g>
			<g enable-background="new    ">
				<path fill="none" stroke="#808080" stroke-width="0.1772" d="M126.455,309.492v-2.305h-4.688v-1.922l4.969-7.273h1.844v7.266
					h1.422v1.93h-1.422v2.305H126.455z M126.455,305.258v-3.914l-2.633,3.914H126.455z"/>
				<path fill="none" stroke="#808080" stroke-width="0.1772" d="M134.76,297.992c1.109,0,1.977,0.396,2.602,1.188
					c0.745,0.938,1.117,2.492,1.117,4.664c0,2.168-0.375,3.725-1.125,4.672c-0.62,0.781-1.484,1.172-2.594,1.172
					c-1.115,0-2.013-0.428-2.695-1.285c-0.683-0.855-1.023-2.383-1.023-4.582c0-2.156,0.375-3.707,1.125-4.656
					C132.786,298.383,133.65,297.992,134.76,297.992z M134.76,299.813c-0.266,0-0.503,0.086-0.711,0.254
					c-0.208,0.17-0.37,0.473-0.484,0.91c-0.151,0.568-0.227,1.523-0.227,2.867s0.067,2.268,0.203,2.77
					c0.135,0.504,0.306,0.838,0.512,1.004c0.206,0.168,0.441,0.25,0.707,0.25s0.502-0.084,0.711-0.254
					c0.208-0.168,0.37-0.473,0.484-0.91c0.151-0.562,0.227-1.516,0.227-2.859s-0.068-2.266-0.203-2.77
					c-0.136-0.502-0.306-0.838-0.512-1.008C135.261,299.899,135.025,299.813,134.76,299.813z"/>
			</g>
			<g enable-background="new    ">
				<path fill="#FFFFFF" d="M154.072,306.547l2.188-0.227c0.062,0.496,0.247,0.887,0.555,1.176c0.307,0.289,0.661,0.434,1.062,0.434
					c0.458,0,0.846-0.186,1.164-0.559c0.317-0.371,0.477-0.934,0.477-1.684c0-0.703-0.158-1.23-0.473-1.582
					c-0.315-0.352-0.726-0.527-1.23-0.527c-0.631,0-1.195,0.279-1.695,0.836l-1.781-0.258l1.125-5.961h5.805v2.055h-4.141
					l-0.344,1.945c0.489-0.244,0.989-0.367,1.5-0.367c0.974,0,1.799,0.355,2.477,1.062c0.677,0.709,1.016,1.629,1.016,2.758
					c0,0.943-0.273,1.785-0.82,2.523c-0.745,1.012-1.779,1.516-3.102,1.516c-1.058,0-1.92-0.283-2.586-0.852
					C154.6,308.27,154.202,307.506,154.072,306.547z"/>
				<path fill="#FFFFFF" d="M166.65,297.992c1.109,0,1.977,0.396,2.602,1.188c0.744,0.938,1.117,2.492,1.117,4.664
					c0,2.168-0.375,3.725-1.125,4.672c-0.62,0.781-1.484,1.172-2.594,1.172c-1.115,0-2.014-0.428-2.695-1.285
					c-0.683-0.855-1.023-2.383-1.023-4.582c0-2.156,0.375-3.707,1.125-4.656C164.675,298.383,165.54,297.992,166.65,297.992z
					 M166.65,299.813c-0.266,0-0.503,0.086-0.711,0.254c-0.209,0.17-0.37,0.473-0.484,0.91c-0.151,0.568-0.227,1.523-0.227,2.867
					s0.067,2.268,0.203,2.77c0.135,0.504,0.306,0.838,0.512,1.004c0.205,0.168,0.441,0.25,0.707,0.25s0.502-0.084,0.711-0.254
					c0.208-0.168,0.369-0.473,0.484-0.91c0.15-0.562,0.227-1.516,0.227-2.859s-0.068-2.266-0.203-2.77
					c-0.136-0.502-0.307-0.838-0.512-1.008C167.151,299.899,166.915,299.813,166.65,299.813z"/>
			</g>
			<g enable-background="new    ">
				<path fill="none" stroke="#808080" stroke-width="0.1772" d="M154.072,306.547l2.188-0.227c0.062,0.496,0.247,0.887,0.555,1.176
					c0.307,0.289,0.661,0.434,1.062,0.434c0.458,0,0.846-0.186,1.164-0.559c0.317-0.371,0.477-0.934,0.477-1.684
					c0-0.703-0.158-1.23-0.473-1.582c-0.315-0.352-0.726-0.527-1.23-0.527c-0.631,0-1.195,0.279-1.695,0.836l-1.781-0.258
					l1.125-5.961h5.805v2.055h-4.141l-0.344,1.945c0.489-0.244,0.989-0.367,1.5-0.367c0.974,0,1.799,0.355,2.477,1.062
					c0.677,0.709,1.016,1.629,1.016,2.758c0,0.943-0.273,1.785-0.82,2.523c-0.745,1.012-1.779,1.516-3.102,1.516
					c-1.058,0-1.92-0.283-2.586-0.852C154.6,308.27,154.202,307.506,154.072,306.547z"/>
				<path fill="none" stroke="#808080" stroke-width="0.1772" d="M166.65,297.992c1.109,0,1.977,0.396,2.602,1.188
					c0.744,0.938,1.117,2.492,1.117,4.664c0,2.168-0.375,3.725-1.125,4.672c-0.62,0.781-1.484,1.172-2.594,1.172
					c-1.115,0-2.014-0.428-2.695-1.285c-0.683-0.855-1.023-2.383-1.023-4.582c0-2.156,0.375-3.707,1.125-4.656
					C164.675,298.383,165.54,297.992,166.65,297.992z M166.65,299.813c-0.266,0-0.503,0.086-0.711,0.254
					c-0.209,0.17-0.37,0.473-0.484,0.91c-0.151,0.568-0.227,1.523-0.227,2.867s0.067,2.268,0.203,2.77
					c0.135,0.504,0.306,0.838,0.512,1.004c0.205,0.168,0.441,0.25,0.707,0.25s0.502-0.084,0.711-0.254
					c0.208-0.168,0.369-0.473,0.484-0.91c0.15-0.562,0.227-1.516,0.227-2.859s-0.068-2.266-0.203-2.77
					c-0.136-0.502-0.307-0.838-0.512-1.008C167.151,299.899,166.915,299.813,166.65,299.813z"/>
			</g>
			<g enable-background="new    ">
				<path fill="#FFFFFF" d="M190.235,309.492v-2.305h-4.688v-1.922l4.969-7.273h1.844v7.266h1.422v1.93h-1.422v2.305H190.235z
					 M190.235,305.258v-3.914l-2.633,3.914H190.235z"/>
				<path fill="#FFFFFF" d="M198.539,297.992c1.109,0,1.977,0.396,2.602,1.188c0.745,0.938,1.117,2.492,1.117,4.664
					c0,2.168-0.375,3.725-1.125,4.672c-0.62,0.781-1.484,1.172-2.594,1.172c-1.114,0-2.013-0.428-2.695-1.285
					c-0.683-0.855-1.023-2.383-1.023-4.582c0-2.156,0.375-3.707,1.125-4.656C196.566,298.383,197.43,297.992,198.539,297.992z
					 M198.539,299.813c-0.266,0-0.503,0.086-0.711,0.254c-0.208,0.17-0.37,0.473-0.484,0.91c-0.151,0.568-0.227,1.523-0.227,2.867
					s0.067,2.268,0.203,2.77c0.136,0.504,0.306,0.838,0.512,1.004c0.206,0.168,0.441,0.25,0.707,0.25s0.503-0.084,0.711-0.254
					c0.208-0.168,0.37-0.473,0.484-0.91c0.151-0.562,0.227-1.516,0.227-2.859s-0.067-2.266-0.203-2.77
					c-0.136-0.502-0.306-0.838-0.512-1.008C199.04,299.899,198.805,299.813,198.539,299.813z"/>
			</g>
			<g enable-background="new    ">
				<path fill="none" stroke="#808080" stroke-width="0.1772" d="M190.235,309.492v-2.305h-4.688v-1.922l4.969-7.273h1.844v7.266
					h1.422v1.93h-1.422v2.305H190.235z M190.235,305.258v-3.914l-2.633,3.914H190.235z"/>
				<path fill="none" stroke="#808080" stroke-width="0.1772" d="M198.539,297.992c1.109,0,1.977,0.396,2.602,1.188
					c0.745,0.938,1.117,2.492,1.117,4.664c0,2.168-0.375,3.725-1.125,4.672c-0.62,0.781-1.484,1.172-2.594,1.172
					c-1.114,0-2.013-0.428-2.695-1.285c-0.683-0.855-1.023-2.383-1.023-4.582c0-2.156,0.375-3.707,1.125-4.656
					C196.566,298.383,197.43,297.992,198.539,297.992z M198.539,299.813c-0.266,0-0.503,0.086-0.711,0.254
					c-0.208,0.17-0.37,0.473-0.484,0.91c-0.151,0.568-0.227,1.523-0.227,2.867s0.067,2.268,0.203,2.77
					c0.136,0.504,0.306,0.838,0.512,1.004c0.206,0.168,0.441,0.25,0.707,0.25s0.503-0.084,0.711-0.254
					c0.208-0.168,0.37-0.473,0.484-0.91c0.151-0.562,0.227-1.516,0.227-2.859s-0.067-2.266-0.203-2.77
					c-0.136-0.502-0.306-0.838-0.512-1.008C199.04,299.899,198.805,299.813,198.539,299.813z"/>
			</g>
			<g enable-background="new    ">
				<path fill="#FFFFFF" d="M217.742,306.453l2.125-0.258c0.067,0.543,0.25,0.957,0.547,1.242c0.297,0.287,0.656,0.43,1.078,0.43
					c0.453,0,0.834-0.172,1.145-0.516c0.31-0.344,0.465-0.807,0.465-1.391c0-0.551-0.148-0.988-0.445-1.312
					c-0.297-0.322-0.659-0.484-1.086-0.484c-0.281,0-0.617,0.055-1.008,0.164l0.242-1.789c0.594,0.016,1.047-0.113,1.359-0.387
					s0.469-0.637,0.469-1.09c0-0.385-0.115-0.691-0.344-0.922c-0.229-0.229-0.534-0.344-0.914-0.344
					c-0.375,0-0.695,0.131-0.961,0.391c-0.266,0.262-0.428,0.641-0.484,1.141l-2.023-0.344c0.141-0.691,0.353-1.246,0.637-1.66
					c0.283-0.414,0.68-0.738,1.188-0.977c0.508-0.236,1.076-0.355,1.707-0.355c1.078,0,1.942,0.344,2.594,1.031
					c0.536,0.562,0.805,1.199,0.805,1.906c0,1.006-0.55,1.809-1.648,2.406c0.656,0.141,1.181,0.457,1.574,0.945
					c0.393,0.49,0.59,1.082,0.59,1.773c0,1.006-0.367,1.863-1.102,2.57c-0.734,0.709-1.648,1.062-2.742,1.062
					c-1.037,0-1.896-0.297-2.578-0.895C218.247,308.197,217.851,307.418,217.742,306.453z"/>
				<path fill="#FFFFFF" d="M230.429,297.992c1.109,0,1.977,0.396,2.602,1.188c0.744,0.938,1.117,2.492,1.117,4.664
					c0,2.168-0.375,3.725-1.125,4.672c-0.62,0.781-1.484,1.172-2.594,1.172c-1.115,0-2.014-0.428-2.695-1.285
					c-0.683-0.855-1.023-2.383-1.023-4.582c0-2.156,0.375-3.707,1.125-4.656C228.455,298.383,229.32,297.992,230.429,297.992z
					 M230.429,299.813c-0.266,0-0.503,0.086-0.711,0.254c-0.209,0.17-0.37,0.473-0.484,0.91c-0.151,0.568-0.227,1.523-0.227,2.867
					s0.067,2.268,0.203,2.77c0.135,0.504,0.306,0.838,0.512,1.004c0.205,0.168,0.441,0.25,0.707,0.25s0.502-0.084,0.711-0.254
					c0.208-0.168,0.369-0.473,0.484-0.91c0.15-0.562,0.227-1.516,0.227-2.859s-0.068-2.266-0.203-2.77
					c-0.136-0.502-0.307-0.838-0.512-1.008C230.93,299.899,230.695,299.813,230.429,299.813z"/>
			</g>
			<g enable-background="new    ">
				<path fill="none" stroke="#808080" stroke-width="0.1772" d="M217.742,306.453l2.125-0.258c0.067,0.543,0.25,0.957,0.547,1.242
					c0.297,0.287,0.656,0.43,1.078,0.43c0.453,0,0.834-0.172,1.145-0.516c0.31-0.344,0.465-0.807,0.465-1.391
					c0-0.551-0.148-0.988-0.445-1.312c-0.297-0.322-0.659-0.484-1.086-0.484c-0.281,0-0.617,0.055-1.008,0.164l0.242-1.789
					c0.594,0.016,1.047-0.113,1.359-0.387s0.469-0.637,0.469-1.09c0-0.385-0.115-0.691-0.344-0.922
					c-0.229-0.229-0.534-0.344-0.914-0.344c-0.375,0-0.695,0.131-0.961,0.391c-0.266,0.262-0.428,0.641-0.484,1.141l-2.023-0.344
					c0.141-0.691,0.353-1.246,0.637-1.66c0.283-0.414,0.68-0.738,1.188-0.977c0.508-0.236,1.076-0.355,1.707-0.355
					c1.078,0,1.942,0.344,2.594,1.031c0.536,0.562,0.805,1.199,0.805,1.906c0,1.006-0.55,1.809-1.648,2.406
					c0.656,0.141,1.181,0.457,1.574,0.945c0.393,0.49,0.59,1.082,0.59,1.773c0,1.006-0.367,1.863-1.102,2.57
					c-0.734,0.709-1.648,1.062-2.742,1.062c-1.037,0-1.896-0.297-2.578-0.895C218.247,308.197,217.851,307.418,217.742,306.453z"/>
				<path fill="none" stroke="#808080" stroke-width="0.1772" d="M230.429,297.992c1.109,0,1.977,0.396,2.602,1.188
					c0.744,0.938,1.117,2.492,1.117,4.664c0,2.168-0.375,3.725-1.125,4.672c-0.62,0.781-1.484,1.172-2.594,1.172
					c-1.115,0-2.014-0.428-2.695-1.285c-0.683-0.855-1.023-2.383-1.023-4.582c0-2.156,0.375-3.707,1.125-4.656
					C228.455,298.383,229.32,297.992,230.429,297.992z M230.429,299.813c-0.266,0-0.503,0.086-0.711,0.254
					c-0.209,0.17-0.37,0.473-0.484,0.91c-0.151,0.568-0.227,1.523-0.227,2.867s0.067,2.268,0.203,2.77
					c0.135,0.504,0.306,0.838,0.512,1.004c0.205,0.168,0.441,0.25,0.707,0.25s0.502-0.084,0.711-0.254
					c0.208-0.168,0.369-0.473,0.484-0.91c0.15-0.562,0.227-1.516,0.227-2.859s-0.068-2.266-0.203-2.77
					c-0.136-0.502-0.307-0.838-0.512-1.008C230.93,299.899,230.695,299.813,230.429,299.813z"/>
			</g>
			<g enable-background="new    ">
				<path fill="#FFFFFF" d="M257.123,307.453v2.039h-7.695c0.083-0.77,0.333-1.5,0.75-2.191c0.417-0.689,1.239-1.605,2.469-2.746
					c0.989-0.922,1.597-1.547,1.82-1.875c0.302-0.453,0.453-0.9,0.453-1.344c0-0.488-0.132-0.865-0.395-1.129
					c-0.263-0.262-0.626-0.395-1.09-0.395c-0.458,0-0.823,0.139-1.094,0.414c-0.271,0.277-0.427,0.734-0.469,1.375l-2.188-0.219
					c0.13-1.207,0.539-2.074,1.227-2.602c0.688-0.525,1.547-0.789,2.578-0.789c1.13,0,2.019,0.305,2.664,0.914
					s0.969,1.367,0.969,2.273c0,0.516-0.093,1.008-0.277,1.473c-0.185,0.467-0.478,0.955-0.879,1.465
					c-0.266,0.34-0.745,0.826-1.438,1.461c-0.692,0.637-1.132,1.059-1.316,1.266c-0.185,0.209-0.335,0.412-0.449,0.609H257.123z"/>
				<path fill="#FFFFFF" d="M262.319,297.992c1.109,0,1.977,0.396,2.602,1.188c0.745,0.938,1.117,2.492,1.117,4.664
					c0,2.168-0.375,3.725-1.125,4.672c-0.62,0.781-1.484,1.172-2.594,1.172c-1.114,0-2.013-0.428-2.695-1.285
					c-0.683-0.855-1.023-2.383-1.023-4.582c0-2.156,0.375-3.707,1.125-4.656C260.345,298.383,261.209,297.992,262.319,297.992z
					 M262.319,299.813c-0.266,0-0.503,0.086-0.711,0.254c-0.208,0.17-0.37,0.473-0.484,0.91c-0.151,0.568-0.227,1.523-0.227,2.867
					s0.067,2.268,0.203,2.77c0.136,0.504,0.306,0.838,0.512,1.004c0.206,0.168,0.441,0.25,0.707,0.25s0.503-0.084,0.711-0.254
					c0.208-0.168,0.37-0.473,0.484-0.91c0.151-0.562,0.227-1.516,0.227-2.859s-0.067-2.266-0.203-2.77
					c-0.136-0.502-0.306-0.838-0.512-1.008C262.82,299.899,262.584,299.813,262.319,299.813z"/>
			</g>
			<g enable-background="new    ">
				<path fill="none" stroke="#808080" stroke-width="0.1772" d="M257.123,307.453v2.039h-7.695c0.083-0.77,0.333-1.5,0.75-2.191
					c0.417-0.689,1.239-1.605,2.469-2.746c0.989-0.922,1.597-1.547,1.82-1.875c0.302-0.453,0.453-0.9,0.453-1.344
					c0-0.488-0.132-0.865-0.395-1.129c-0.263-0.262-0.626-0.395-1.09-0.395c-0.458,0-0.823,0.139-1.094,0.414
					c-0.271,0.277-0.427,0.734-0.469,1.375l-2.188-0.219c0.13-1.207,0.539-2.074,1.227-2.602c0.688-0.525,1.547-0.789,2.578-0.789
					c1.13,0,2.019,0.305,2.664,0.914s0.969,1.367,0.969,2.273c0,0.516-0.093,1.008-0.277,1.473
					c-0.185,0.467-0.478,0.955-0.879,1.465c-0.266,0.34-0.745,0.826-1.438,1.461c-0.692,0.637-1.132,1.059-1.316,1.266
					c-0.185,0.209-0.335,0.412-0.449,0.609H257.123z"/>
				<path fill="none" stroke="#808080" stroke-width="0.1772" d="M262.319,297.992c1.109,0,1.977,0.396,2.602,1.188
					c0.745,0.938,1.117,2.492,1.117,4.664c0,2.168-0.375,3.725-1.125,4.672c-0.62,0.781-1.484,1.172-2.594,1.172
					c-1.114,0-2.013-0.428-2.695-1.285c-0.683-0.855-1.023-2.383-1.023-4.582c0-2.156,0.375-3.707,1.125-4.656
					C260.345,298.383,261.209,297.992,262.319,297.992z M262.319,299.813c-0.266,0-0.503,0.086-0.711,0.254
					c-0.208,0.17-0.37,0.473-0.484,0.91c-0.151,0.568-0.227,1.523-0.227,2.867s0.067,2.268,0.203,2.77
					c0.136,0.504,0.306,0.838,0.512,1.004c0.206,0.168,0.441,0.25,0.707,0.25s0.503-0.084,0.711-0.254
					c0.208-0.168,0.37-0.473,0.484-0.91c0.151-0.562,0.227-1.516,0.227-2.859s-0.067-2.266-0.203-2.77
					c-0.136-0.502-0.306-0.838-0.512-1.008C262.82,299.899,262.584,299.813,262.319,299.813z"/>
			</g>
			<g enable-background="new    ">
				<path fill="#FFFFFF" d="M287.216,309.492h-2.195v-8.273c-0.802,0.75-1.747,1.305-2.836,1.664v-1.992
					c0.573-0.188,1.195-0.543,1.867-1.066s1.133-1.133,1.383-1.832h1.781V309.492z"/>
				<path fill="#FFFFFF" d="M294.208,297.992c1.109,0,1.977,0.396,2.602,1.188c0.745,0.938,1.117,2.492,1.117,4.664
					c0,2.168-0.375,3.725-1.125,4.672c-0.619,0.781-1.484,1.172-2.594,1.172c-1.114,0-2.013-0.428-2.695-1.285
					c-0.682-0.855-1.023-2.383-1.023-4.582c0-2.156,0.375-3.707,1.125-4.656C292.235,298.383,293.099,297.992,294.208,297.992z
					 M294.208,299.813c-0.266,0-0.502,0.086-0.711,0.254c-0.208,0.17-0.369,0.473-0.484,0.91c-0.15,0.568-0.227,1.523-0.227,2.867
					s0.068,2.268,0.203,2.77c0.136,0.504,0.307,0.838,0.512,1.004c0.206,0.168,0.441,0.25,0.707,0.25s0.503-0.084,0.711-0.254
					c0.209-0.168,0.37-0.473,0.484-0.91c0.151-0.562,0.227-1.516,0.227-2.859s-0.067-2.266-0.203-2.77
					c-0.135-0.502-0.306-0.838-0.512-1.008C294.71,299.899,294.474,299.813,294.208,299.813z"/>
			</g>
			<g enable-background="new    ">
				<path fill="none" stroke="#808080" stroke-width="0.1772" d="M287.216,309.492h-2.195v-8.273
					c-0.802,0.75-1.747,1.305-2.836,1.664v-1.992c0.573-0.188,1.195-0.543,1.867-1.066s1.133-1.133,1.383-1.832h1.781V309.492z"/>
				<path fill="none" stroke="#808080" stroke-width="0.1772" d="M294.208,297.992c1.109,0,1.977,0.396,2.602,1.188
					c0.745,0.938,1.117,2.492,1.117,4.664c0,2.168-0.375,3.725-1.125,4.672c-0.619,0.781-1.484,1.172-2.594,1.172
					c-1.114,0-2.013-0.428-2.695-1.285c-0.682-0.855-1.023-2.383-1.023-4.582c0-2.156,0.375-3.707,1.125-4.656
					C292.235,298.383,293.099,297.992,294.208,297.992z M294.208,299.813c-0.266,0-0.502,0.086-0.711,0.254
					c-0.208,0.17-0.369,0.473-0.484,0.91c-0.15,0.568-0.227,1.523-0.227,2.867s0.068,2.268,0.203,2.77
					c0.136,0.504,0.307,0.838,0.512,1.004c0.206,0.168,0.441,0.25,0.707,0.25s0.503-0.084,0.711-0.254
					c0.209-0.168,0.37-0.473,0.484-0.91c0.151-0.562,0.227-1.516,0.227-2.859s-0.067-2.266-0.203-2.77
					c-0.135-0.502-0.306-0.838-0.512-1.008C294.71,299.899,294.474,299.813,294.208,299.813z"/>
			</g>
			<g id="g4564">
				
					<path id="path3683" sodipodi:r2="1.3260038" inkscape:randomized="0" sodipodi:arg1="3.1415927" sodipodi:arg2="4.1887902" sodipodi:r1="2.6520076" inkscape:rounded="0" inkscape:flatsided="true" sodipodi:cx="51.26923" sodipodi:cy="145.96883" sodipodi:sides="3" sodipodi:type="star" fill="#FFFFFF" d="
					M20.483,303.537l3.978-1.148v2.297L20.483,303.537z"/>
				
					<path id="path4558" sodipodi:r2="1.3260038" inkscape:randomized="0" sodipodi:arg1="3.1415927" sodipodi:arg2="4.1887902" sodipodi:r1="2.6520076" inkscape:rounded="0" inkscape:flatsided="true" sodipodi:cx="51.26923" sodipodi:cy="145.96883" sodipodi:sides="3" sodipodi:type="star" fill="#FFFFFF" d="
					M52.372,303.537l3.978-1.148v2.297L52.372,303.537z"/>
				
					<path id="path4560" sodipodi:r2="1.3260038" inkscape:randomized="0" sodipodi:arg1="3.1415927" sodipodi:arg2="4.1887902" sodipodi:r1="2.6520076" inkscape:rounded="0" inkscape:flatsided="true" sodipodi:cx="51.26923" sodipodi:cy="145.96883" sodipodi:sides="3" sodipodi:type="star" fill="#FFFFFF" d="
					M84.262,303.537l3.978-1.148v2.297L84.262,303.537z"/>
				
					<path id="path4562" sodipodi:r2="1.3260038" inkscape:randomized="0" sodipodi:arg1="3.1415927" sodipodi:arg2="4.1887902" sodipodi:r1="2.6520076" inkscape:rounded="0" inkscape:flatsided="true" sodipodi:cx="51.26923" sodipodi:cy="145.96883" sodipodi:sides="3" sodipodi:type="star" fill="#FFFFFF" d="
					M116.151,303.537l3.978-1.148v2.297L116.151,303.537z"/>
			</g>
			<g id="g4570" transform="matrix(-1,0,0,1,383.739,0)">
				
					<path id="path4572" sodipodi:r2="1.3260038" inkscape:randomized="0" sodipodi:arg1="3.1415927" sodipodi:arg2="4.1887902" sodipodi:r1="2.6520076" inkscape:rounded="0" inkscape:flatsided="true" sodipodi:cx="51.26923" sodipodi:cy="145.96883" sodipodi:sides="3" sodipodi:type="star" fill="#FFFFFF" d="
					M77.86,303.537l3.979-1.148v2.297L77.86,303.537z"/>
				
					<path id="path4574" sodipodi:r2="1.3260038" inkscape:randomized="0" sodipodi:arg1="3.1415927" sodipodi:arg2="4.1887902" sodipodi:r1="2.6520076" inkscape:rounded="0" inkscape:flatsided="true" sodipodi:cx="51.26923" sodipodi:cy="145.96883" sodipodi:sides="3" sodipodi:type="star" fill="#FFFFFF" d="
					M109.748,303.537l3.979-1.148v2.297L109.748,303.537z"/>
				
					<path id="path4576" sodipodi:r2="1.3260038" inkscape:randomized="0" sodipodi:arg1="3.1415927" sodipodi:arg2="4.1887902" sodipodi:r1="2.6520076" inkscape:rounded="0" inkscape:flatsided="true" sodipodi:cx="51.26923" sodipodi:cy="145.96883" sodipodi:sides="3" sodipodi:type="star" fill="#FFFFFF" d="
					M141.639,303.537l3.978-1.148v2.297L141.639,303.537z"/>
				
					<path id="path4578" sodipodi:r2="1.3260038" inkscape:randomized="0" sodipodi:arg1="3.1415927" sodipodi:arg2="4.1887902" sodipodi:r1="2.6520076" inkscape:rounded="0" inkscape:flatsided="true" sodipodi:cx="51.26923" sodipodi:cy="145.96883" sodipodi:sides="3" sodipodi:type="star" fill="#FFFFFF" d="
					M173.528,303.537l3.979-1.148v2.297L173.528,303.537z"/>
			</g>
		</g>
		<g id="g4610" transform="matrix(-1,0,0,-1,382.6749,173.6566)">
			<g enable-background="new    ">
				<path fill="#FFFFFF" d="M89.476-5.045H87.28v-8.273c-0.802,0.75-1.747,1.305-2.836,1.664v-1.992
					c0.573-0.188,1.195-0.543,1.867-1.066s1.133-1.134,1.383-1.832h1.781V-5.045z"/>
				<path fill="#FFFFFF" d="M96.468-16.545c1.109,0,1.977,0.396,2.602,1.188c0.745,0.938,1.117,2.492,1.117,4.664
					c0,2.167-0.375,3.724-1.125,4.672c-0.62,0.781-1.484,1.172-2.594,1.172c-1.114,0-2.013-0.429-2.695-1.285
					s-1.023-2.384-1.023-4.582c0-2.156,0.375-3.708,1.125-4.656C94.494-16.154,95.358-16.545,96.468-16.545z M96.468-14.724
					c-0.266,0-0.503,0.085-0.711,0.254s-0.37,0.473-0.484,0.91c-0.151,0.567-0.227,1.523-0.227,2.867s0.067,2.267,0.203,2.77
					s0.306,0.837,0.512,1.004s0.441,0.25,0.707,0.25s0.503-0.085,0.711-0.254s0.37-0.473,0.484-0.91
					c0.151-0.562,0.227-1.516,0.227-2.859s-0.067-2.267-0.203-2.77s-0.306-0.839-0.512-1.008S96.733-14.724,96.468-14.724z"/>
			</g>
			<g enable-background="new    ">
				<path fill="none" stroke="#808080" stroke-width="0.1772" d="M89.476-5.045H87.28v-8.273c-0.802,0.75-1.747,1.305-2.836,1.664
					v-1.992c0.573-0.188,1.195-0.543,1.867-1.066s1.133-1.134,1.383-1.832h1.781V-5.045z"/>
				<path fill="none" stroke="#808080" stroke-width="0.1772" d="M96.468-16.545c1.109,0,1.977,0.396,2.602,1.188
					c0.745,0.938,1.117,2.492,1.117,4.664c0,2.167-0.375,3.724-1.125,4.672c-0.62,0.781-1.484,1.172-2.594,1.172
					c-1.114,0-2.013-0.429-2.695-1.285s-1.023-2.384-1.023-4.582c0-2.156,0.375-3.708,1.125-4.656
					C94.494-16.154,95.358-16.545,96.468-16.545z M96.468-14.724c-0.266,0-0.503,0.085-0.711,0.254s-0.37,0.473-0.484,0.91
					c-0.151,0.567-0.227,1.523-0.227,2.867s0.067,2.267,0.203,2.77s0.306,0.837,0.512,1.004s0.441,0.25,0.707,0.25
					s0.503-0.085,0.711-0.254s0.37-0.473,0.484-0.91c0.151-0.562,0.227-1.516,0.227-2.859s-0.067-2.267-0.203-2.77
					s-0.306-0.839-0.512-1.008S96.733-14.724,96.468-14.724z"/>
			</g>
			<g enable-background="new    ">
				<path fill="#FFFFFF" d="M123.161-7.084v2.039h-7.695c0.083-0.771,0.333-1.501,0.75-2.191s1.239-1.605,2.469-2.746
					c0.989-0.922,1.597-1.547,1.82-1.875c0.302-0.453,0.453-0.901,0.453-1.344c0-0.489-0.132-0.866-0.395-1.129
					s-0.626-0.395-1.09-0.395c-0.458,0-0.823,0.138-1.094,0.414s-0.427,0.734-0.469,1.375l-2.188-0.219
					c0.13-1.208,0.539-2.075,1.227-2.602s1.547-0.789,2.578-0.789c1.13,0,2.019,0.305,2.664,0.914s0.969,1.367,0.969,2.273
					c0,0.516-0.093,1.007-0.277,1.473s-0.478,0.954-0.879,1.465c-0.266,0.339-0.745,0.825-1.438,1.461s-1.132,1.058-1.316,1.266
					s-0.335,0.411-0.449,0.609H123.161z"/>
				<path fill="#FFFFFF" d="M128.356-16.545c1.109,0,1.977,0.396,2.602,1.188c0.745,0.938,1.117,2.492,1.117,4.664
					c0,2.167-0.375,3.724-1.125,4.672c-0.62,0.781-1.484,1.172-2.594,1.172c-1.114,0-2.013-0.429-2.695-1.285
					s-1.023-2.384-1.023-4.582c0-2.156,0.375-3.708,1.125-4.656C126.383-16.154,127.247-16.545,128.356-16.545z M128.356-14.724
					c-0.266,0-0.503,0.085-0.711,0.254s-0.37,0.473-0.484,0.91c-0.151,0.567-0.227,1.523-0.227,2.867s0.067,2.267,0.203,2.77
					s0.306,0.837,0.512,1.004s0.441,0.25,0.707,0.25s0.503-0.085,0.711-0.254s0.37-0.473,0.484-0.91
					c0.151-0.562,0.227-1.516,0.227-2.859s-0.067-2.267-0.203-2.77s-0.306-0.839-0.512-1.008S128.622-14.724,128.356-14.724z"/>
			</g>
			<g enable-background="new    ">
				<path fill="none" stroke="#808080" stroke-width="0.1772" d="M123.161-7.084v2.039h-7.695c0.083-0.771,0.333-1.501,0.75-2.191
					s1.239-1.605,2.469-2.746c0.989-0.922,1.597-1.547,1.82-1.875c0.302-0.453,0.453-0.901,0.453-1.344
					c0-0.489-0.132-0.866-0.395-1.129s-0.626-0.395-1.09-0.395c-0.458,0-0.823,0.138-1.094,0.414s-0.427,0.734-0.469,1.375
					l-2.188-0.219c0.13-1.208,0.539-2.075,1.227-2.602s1.547-0.789,2.578-0.789c1.13,0,2.019,0.305,2.664,0.914
					s0.969,1.367,0.969,2.273c0,0.516-0.093,1.007-0.277,1.473s-0.478,0.954-0.879,1.465c-0.266,0.339-0.745,0.825-1.438,1.461
					s-1.132,1.058-1.316,1.266s-0.335,0.411-0.449,0.609H123.161z"/>
				<path fill="none" stroke="#808080" stroke-width="0.1772" d="M128.356-16.545c1.109,0,1.977,0.396,2.602,1.188
					c0.745,0.938,1.117,2.492,1.117,4.664c0,2.167-0.375,3.724-1.125,4.672c-0.62,0.781-1.484,1.172-2.594,1.172
					c-1.114,0-2.013-0.429-2.695-1.285s-1.023-2.384-1.023-4.582c0-2.156,0.375-3.708,1.125-4.656
					C126.383-16.154,127.247-16.545,128.356-16.545z M128.356-14.724c-0.266,0-0.503,0.085-0.711,0.254s-0.37,0.473-0.484,0.91
					c-0.151,0.567-0.227,1.523-0.227,2.867s0.067,2.267,0.203,2.77s0.306,0.837,0.512,1.004s0.441,0.25,0.707,0.25
					s0.503-0.085,0.711-0.254s0.37-0.473,0.484-0.91c0.151-0.562,0.227-1.516,0.227-2.859s-0.067-2.267-0.203-2.77
					s-0.306-0.839-0.512-1.008S128.622-14.724,128.356-14.724z"/>
			</g>
			<g enable-background="new    ">
				<path fill="#FFFFFF" d="M147.56-8.084l2.125-0.258c0.067,0.542,0.25,0.956,0.547,1.242s0.656,0.43,1.078,0.43
					c0.453,0,0.835-0.172,1.145-0.516s0.465-0.808,0.465-1.391c0-0.552-0.148-0.989-0.445-1.312s-0.659-0.484-1.086-0.484
					c-0.281,0-0.617,0.055-1.008,0.164l0.242-1.789c0.594,0.016,1.047-0.113,1.359-0.387s0.469-0.637,0.469-1.09
					c0-0.386-0.114-0.692-0.344-0.922s-0.534-0.344-0.914-0.344c-0.375,0-0.695,0.13-0.961,0.391s-0.427,0.641-0.484,1.141
					l-2.023-0.344c0.141-0.692,0.353-1.246,0.637-1.66s0.68-0.739,1.188-0.977s1.077-0.355,1.707-0.355
					c1.078,0,1.942,0.344,2.594,1.031c0.536,0.562,0.805,1.198,0.805,1.906c0,1.005-0.55,1.808-1.648,2.406
					c0.656,0.141,1.181,0.456,1.574,0.945s0.59,1.081,0.59,1.773c0,1.005-0.367,1.862-1.102,2.57s-1.648,1.062-2.742,1.062
					c-1.036,0-1.896-0.298-2.578-0.895S147.669-7.12,147.56-8.084z"/>
				<path fill="#FFFFFF" d="M160.247-16.545c1.109,0,1.977,0.396,2.602,1.188c0.745,0.938,1.117,2.492,1.117,4.664
					c0,2.167-0.375,3.724-1.125,4.672c-0.62,0.781-1.484,1.172-2.594,1.172c-1.114,0-2.013-0.429-2.695-1.285
					s-1.023-2.384-1.023-4.582c0-2.156,0.375-3.708,1.125-4.656C158.273-16.154,159.138-16.545,160.247-16.545z M160.247-14.724
					c-0.266,0-0.503,0.085-0.711,0.254s-0.37,0.473-0.484,0.91c-0.151,0.567-0.227,1.523-0.227,2.867s0.067,2.267,0.203,2.77
					s0.306,0.837,0.512,1.004s0.441,0.25,0.707,0.25s0.503-0.085,0.711-0.254s0.37-0.473,0.484-0.91
					c0.151-0.562,0.227-1.516,0.227-2.859s-0.067-2.267-0.203-2.77s-0.306-0.839-0.512-1.008S160.513-14.724,160.247-14.724z"/>
			</g>
			<g enable-background="new    ">
				<path fill="none" stroke="#808080" stroke-width="0.1772" d="M147.56-8.084l2.125-0.258c0.067,0.542,0.25,0.956,0.547,1.242
					s0.656,0.43,1.078,0.43c0.453,0,0.835-0.172,1.145-0.516s0.465-0.808,0.465-1.391c0-0.552-0.148-0.989-0.445-1.312
					s-0.659-0.484-1.086-0.484c-0.281,0-0.617,0.055-1.008,0.164l0.242-1.789c0.594,0.016,1.047-0.113,1.359-0.387
					s0.469-0.637,0.469-1.09c0-0.386-0.114-0.692-0.344-0.922s-0.534-0.344-0.914-0.344c-0.375,0-0.695,0.13-0.961,0.391
					s-0.427,0.641-0.484,1.141l-2.023-0.344c0.141-0.692,0.353-1.246,0.637-1.66s0.68-0.739,1.188-0.977s1.077-0.355,1.707-0.355
					c1.078,0,1.942,0.344,2.594,1.031c0.536,0.562,0.805,1.198,0.805,1.906c0,1.005-0.55,1.808-1.648,2.406
					c0.656,0.141,1.181,0.456,1.574,0.945s0.59,1.081,0.59,1.773c0,1.005-0.367,1.862-1.102,2.57s-1.648,1.062-2.742,1.062
					c-1.036,0-1.896-0.298-2.578-0.895S147.669-7.12,147.56-8.084z"/>
				<path fill="none" stroke="#808080" stroke-width="0.1772" d="M160.247-16.545c1.109,0,1.977,0.396,2.602,1.188
					c0.745,0.938,1.117,2.492,1.117,4.664c0,2.167-0.375,3.724-1.125,4.672c-0.62,0.781-1.484,1.172-2.594,1.172
					c-1.114,0-2.013-0.429-2.695-1.285s-1.023-2.384-1.023-4.582c0-2.156,0.375-3.708,1.125-4.656
					C158.273-16.154,159.138-16.545,160.247-16.545z M160.247-14.724c-0.266,0-0.503,0.085-0.711,0.254s-0.37,0.473-0.484,0.91
					c-0.151,0.567-0.227,1.523-0.227,2.867s0.067,2.267,0.203,2.77s0.306,0.837,0.512,1.004s0.441,0.25,0.707,0.25
					s0.503-0.085,0.711-0.254s0.37-0.473,0.484-0.91c0.151-0.562,0.227-1.516,0.227-2.859s-0.067-2.267-0.203-2.77
					s-0.306-0.839-0.512-1.008S160.513-14.724,160.247-14.724z"/>
			</g>
			<g enable-background="new    ">
				<path fill="#FFFFFF" d="M183.831-5.045v-2.305h-4.688v-1.922l4.969-7.273h1.844v7.266h1.422v1.93h-1.422v2.305H183.831z
					 M183.831-9.279v-3.914l-2.633,3.914H183.831z"/>
				<path fill="#FFFFFF" d="M192.136-16.545c1.109,0,1.977,0.396,2.602,1.188c0.745,0.938,1.117,2.492,1.117,4.664
					c0,2.167-0.375,3.724-1.125,4.672c-0.62,0.781-1.484,1.172-2.594,1.172c-1.114,0-2.013-0.429-2.695-1.285
					s-1.023-2.384-1.023-4.582c0-2.156,0.375-3.708,1.125-4.656C190.162-16.154,191.026-16.545,192.136-16.545z M192.136-14.724
					c-0.266,0-0.503,0.085-0.711,0.254s-0.37,0.473-0.484,0.91c-0.151,0.567-0.227,1.523-0.227,2.867s0.067,2.267,0.203,2.77
					s0.306,0.837,0.512,1.004s0.441,0.25,0.707,0.25s0.503-0.085,0.711-0.254s0.37-0.473,0.484-0.91
					c0.151-0.562,0.227-1.516,0.227-2.859s-0.067-2.267-0.203-2.77s-0.306-0.839-0.512-1.008S192.401-14.724,192.136-14.724z"/>
			</g>
			<g enable-background="new    ">
				<path fill="none" stroke="#808080" stroke-width="0.1772" d="M183.831-5.045v-2.305h-4.688v-1.922l4.969-7.273h1.844v7.266
					h1.422v1.93h-1.422v2.305H183.831z M183.831-9.279v-3.914l-2.633,3.914H183.831z"/>
				<path fill="none" stroke="#808080" stroke-width="0.1772" d="M192.136-16.545c1.109,0,1.977,0.396,2.602,1.188
					c0.745,0.938,1.117,2.492,1.117,4.664c0,2.167-0.375,3.724-1.125,4.672c-0.62,0.781-1.484,1.172-2.594,1.172
					c-1.114,0-2.013-0.429-2.695-1.285s-1.023-2.384-1.023-4.582c0-2.156,0.375-3.708,1.125-4.656
					C190.162-16.154,191.026-16.545,192.136-16.545z M192.136-14.724c-0.266,0-0.503,0.085-0.711,0.254s-0.37,0.473-0.484,0.91
					c-0.151,0.567-0.227,1.523-0.227,2.867s0.067,2.267,0.203,2.77s0.306,0.837,0.512,1.004s0.441,0.25,0.707,0.25
					s0.503-0.085,0.711-0.254s0.37-0.473,0.484-0.91c0.151-0.562,0.227-1.516,0.227-2.859s-0.067-2.267-0.203-2.77
					s-0.306-0.839-0.512-1.008S192.401-14.724,192.136-14.724z"/>
			</g>
			<g enable-background="new    ">
				<path fill="#FFFFFF" d="M211.448-7.99l2.188-0.227c0.062,0.495,0.247,0.887,0.555,1.176s0.661,0.434,1.062,0.434
					c0.458,0,0.847-0.187,1.164-0.559s0.477-0.934,0.477-1.684c0-0.703-0.157-1.23-0.473-1.582s-0.726-0.527-1.23-0.527
					c-0.63,0-1.195,0.278-1.695,0.836l-1.781-0.258l1.125-5.961h5.805v2.055h-4.141l-0.344,1.945c0.489-0.245,0.989-0.367,1.5-0.367
					c0.974,0,1.8,0.354,2.477,1.062s1.016,1.628,1.016,2.758c0,0.942-0.273,1.784-0.82,2.523c-0.745,1.011-1.778,1.516-3.102,1.516
					c-1.058,0-1.919-0.284-2.586-0.852S211.578-7.032,211.448-7.99z"/>
				<path fill="#FFFFFF" d="M224.026-16.545c1.109,0,1.977,0.396,2.602,1.188c0.745,0.938,1.117,2.492,1.117,4.664
					c0,2.167-0.375,3.724-1.125,4.672c-0.62,0.781-1.484,1.172-2.594,1.172c-1.114,0-2.013-0.429-2.695-1.285
					s-1.023-2.384-1.023-4.582c0-2.156,0.375-3.708,1.125-4.656C222.053-16.154,222.917-16.545,224.026-16.545z M224.026-14.724
					c-0.266,0-0.503,0.085-0.711,0.254s-0.37,0.473-0.484,0.91c-0.151,0.567-0.227,1.523-0.227,2.867s0.067,2.267,0.203,2.77
					s0.306,0.837,0.512,1.004s0.441,0.25,0.707,0.25s0.503-0.085,0.711-0.254s0.37-0.473,0.484-0.91
					c0.151-0.562,0.227-1.516,0.227-2.859s-0.067-2.267-0.203-2.77s-0.306-0.839-0.512-1.008S224.292-14.724,224.026-14.724z"/>
			</g>
			<g enable-background="new    ">
				<path fill="none" stroke="#808080" stroke-width="0.1772" d="M211.448-7.99l2.188-0.227c0.062,0.495,0.247,0.887,0.555,1.176
					s0.661,0.434,1.062,0.434c0.458,0,0.847-0.187,1.164-0.559s0.477-0.934,0.477-1.684c0-0.703-0.157-1.23-0.473-1.582
					s-0.726-0.527-1.23-0.527c-0.63,0-1.195,0.278-1.695,0.836l-1.781-0.258l1.125-5.961h5.805v2.055h-4.141l-0.344,1.945
					c0.489-0.245,0.989-0.367,1.5-0.367c0.974,0,1.8,0.354,2.477,1.062s1.016,1.628,1.016,2.758c0,0.942-0.273,1.784-0.82,2.523
					c-0.745,1.011-1.778,1.516-3.102,1.516c-1.058,0-1.919-0.284-2.586-0.852S211.578-7.032,211.448-7.99z"/>
				<path fill="none" stroke="#808080" stroke-width="0.1772" d="M224.026-16.545c1.109,0,1.977,0.396,2.602,1.188
					c0.745,0.938,1.117,2.492,1.117,4.664c0,2.167-0.375,3.724-1.125,4.672c-0.62,0.781-1.484,1.172-2.594,1.172
					c-1.114,0-2.013-0.429-2.695-1.285s-1.023-2.384-1.023-4.582c0-2.156,0.375-3.708,1.125-4.656
					C222.053-16.154,222.917-16.545,224.026-16.545z M224.026-14.724c-0.266,0-0.503,0.085-0.711,0.254s-0.37,0.473-0.484,0.91
					c-0.151,0.567-0.227,1.523-0.227,2.867s0.067,2.267,0.203,2.77s0.306,0.837,0.512,1.004s0.441,0.25,0.707,0.25
					s0.503-0.085,0.711-0.254s0.37-0.473,0.484-0.91c0.151-0.562,0.227-1.516,0.227-2.859s-0.067-2.267-0.203-2.77
					s-0.306-0.839-0.512-1.008S224.292-14.724,224.026-14.724z"/>
			</g>
			<g enable-background="new    ">
				<path fill="#FFFFFF" d="M247.612-5.045v-2.305h-4.688v-1.922l4.969-7.273h1.844v7.266h1.422v1.93h-1.422v2.305H247.612z
					 M247.612-9.279v-3.914l-2.633,3.914H247.612z"/>
				<path fill="#FFFFFF" d="M255.917-16.545c1.109,0,1.977,0.396,2.602,1.188c0.745,0.938,1.117,2.492,1.117,4.664
					c0,2.167-0.375,3.724-1.125,4.672c-0.62,0.781-1.484,1.172-2.594,1.172c-1.115,0-2.013-0.429-2.695-1.285
					c-0.683-0.856-1.023-2.384-1.023-4.582c0-2.156,0.375-3.708,1.125-4.656C253.943-16.154,254.808-16.545,255.917-16.545z
					 M255.917-14.724c-0.266,0-0.503,0.085-0.711,0.254c-0.208,0.169-0.37,0.473-0.484,0.91c-0.151,0.567-0.227,1.523-0.227,2.867
					s0.067,2.267,0.203,2.77c0.135,0.503,0.306,0.837,0.512,1.004c0.206,0.167,0.441,0.25,0.707,0.25s0.502-0.085,0.711-0.254
					c0.208-0.169,0.37-0.473,0.484-0.91c0.151-0.562,0.227-1.516,0.227-2.859s-0.068-2.267-0.203-2.77
					c-0.136-0.503-0.306-0.839-0.512-1.008C256.418-14.639,256.183-14.724,255.917-14.724z"/>
			</g>
			<g enable-background="new    ">
				<path fill="none" stroke="#808080" stroke-width="0.1772" d="M247.612-5.045v-2.305h-4.688v-1.922l4.969-7.273h1.844v7.266
					h1.422v1.93h-1.422v2.305H247.612z M247.612-9.279v-3.914l-2.633,3.914H247.612z"/>
				<path fill="none" stroke="#808080" stroke-width="0.1772" d="M255.917-16.545c1.109,0,1.977,0.396,2.602,1.188
					c0.745,0.938,1.117,2.492,1.117,4.664c0,2.167-0.375,3.724-1.125,4.672c-0.62,0.781-1.484,1.172-2.594,1.172
					c-1.115,0-2.013-0.429-2.695-1.285c-0.683-0.856-1.023-2.384-1.023-4.582c0-2.156,0.375-3.708,1.125-4.656
					C253.943-16.154,254.808-16.545,255.917-16.545z M255.917-14.724c-0.266,0-0.503,0.085-0.711,0.254
					c-0.208,0.169-0.37,0.473-0.484,0.91c-0.151,0.567-0.227,1.523-0.227,2.867s0.067,2.267,0.203,2.77
					c0.135,0.503,0.306,0.837,0.512,1.004c0.206,0.167,0.441,0.25,0.707,0.25s0.502-0.085,0.711-0.254
					c0.208-0.169,0.37-0.473,0.484-0.91c0.151-0.562,0.227-1.516,0.227-2.859s-0.068-2.267-0.203-2.77
					c-0.136-0.503-0.306-0.839-0.512-1.008C256.418-14.639,256.183-14.724,255.917-14.724z"/>
			</g>
			<g enable-background="new    ">
				<path fill="#FFFFFF" d="M275.118-8.084l2.125-0.258c0.067,0.542,0.25,0.956,0.547,1.242s0.656,0.43,1.078,0.43
					c0.453,0,0.834-0.172,1.145-0.516c0.31-0.344,0.465-0.808,0.465-1.391c0-0.552-0.148-0.989-0.445-1.312
					s-0.659-0.484-1.086-0.484c-0.281,0-0.617,0.055-1.008,0.164l0.242-1.789c0.594,0.016,1.047-0.113,1.359-0.387
					s0.469-0.637,0.469-1.09c0-0.386-0.115-0.692-0.344-0.922c-0.229-0.229-0.534-0.344-0.914-0.344
					c-0.375,0-0.695,0.13-0.961,0.391s-0.427,0.641-0.484,1.141l-2.023-0.344c0.141-0.692,0.353-1.246,0.637-1.66
					c0.284-0.414,0.68-0.739,1.188-0.977s1.077-0.355,1.707-0.355c1.078,0,1.942,0.344,2.594,1.031
					c0.536,0.562,0.805,1.198,0.805,1.906c0,1.005-0.55,1.808-1.648,2.406c0.656,0.141,1.181,0.456,1.574,0.945
					c0.393,0.489,0.59,1.081,0.59,1.773c0,1.005-0.367,1.862-1.102,2.57s-1.648,1.062-2.742,1.062c-1.037,0-1.896-0.298-2.578-0.895
					C275.623-6.341,275.228-7.12,275.118-8.084z"/>
				<path fill="#FFFFFF" d="M287.806-16.545c1.109,0,1.977,0.396,2.602,1.188c0.745,0.938,1.117,2.492,1.117,4.664
					c0,2.167-0.375,3.724-1.125,4.672c-0.62,0.781-1.484,1.172-2.594,1.172c-1.115,0-2.013-0.429-2.695-1.285
					c-0.683-0.856-1.023-2.384-1.023-4.582c0-2.156,0.375-3.708,1.125-4.656C285.832-16.154,286.696-16.545,287.806-16.545z
					 M287.806-14.724c-0.266,0-0.503,0.085-0.711,0.254c-0.208,0.169-0.37,0.473-0.484,0.91c-0.151,0.567-0.227,1.523-0.227,2.867
					s0.067,2.267,0.203,2.77c0.135,0.503,0.306,0.837,0.512,1.004c0.206,0.167,0.441,0.25,0.707,0.25s0.502-0.085,0.711-0.254
					c0.208-0.169,0.37-0.473,0.484-0.91c0.151-0.562,0.227-1.516,0.227-2.859s-0.068-2.267-0.203-2.77
					c-0.136-0.503-0.306-0.839-0.512-1.008C288.307-14.639,288.071-14.724,287.806-14.724z"/>
			</g>
			<g enable-background="new    ">
				<path fill="none" stroke="#808080" stroke-width="0.1772" d="M275.118-8.084l2.125-0.258c0.067,0.542,0.25,0.956,0.547,1.242
					s0.656,0.43,1.078,0.43c0.453,0,0.834-0.172,1.145-0.516c0.31-0.344,0.465-0.808,0.465-1.391c0-0.552-0.148-0.989-0.445-1.312
					s-0.659-0.484-1.086-0.484c-0.281,0-0.617,0.055-1.008,0.164l0.242-1.789c0.594,0.016,1.047-0.113,1.359-0.387
					s0.469-0.637,0.469-1.09c0-0.386-0.115-0.692-0.344-0.922c-0.229-0.229-0.534-0.344-0.914-0.344
					c-0.375,0-0.695,0.13-0.961,0.391s-0.427,0.641-0.484,1.141l-2.023-0.344c0.141-0.692,0.353-1.246,0.637-1.66
					c0.284-0.414,0.68-0.739,1.188-0.977s1.077-0.355,1.707-0.355c1.078,0,1.942,0.344,2.594,1.031
					c0.536,0.562,0.805,1.198,0.805,1.906c0,1.005-0.55,1.808-1.648,2.406c0.656,0.141,1.181,0.456,1.574,0.945
					c0.393,0.489,0.59,1.081,0.59,1.773c0,1.005-0.367,1.862-1.102,2.57s-1.648,1.062-2.742,1.062c-1.037,0-1.896-0.298-2.578-0.895
					C275.623-6.341,275.228-7.12,275.118-8.084z"/>
				<path fill="none" stroke="#808080" stroke-width="0.1772" d="M287.806-16.545c1.109,0,1.977,0.396,2.602,1.188
					c0.745,0.938,1.117,2.492,1.117,4.664c0,2.167-0.375,3.724-1.125,4.672c-0.62,0.781-1.484,1.172-2.594,1.172
					c-1.115,0-2.013-0.429-2.695-1.285c-0.683-0.856-1.023-2.384-1.023-4.582c0-2.156,0.375-3.708,1.125-4.656
					C285.832-16.154,286.696-16.545,287.806-16.545z M287.806-14.724c-0.266,0-0.503,0.085-0.711,0.254
					c-0.208,0.169-0.37,0.473-0.484,0.91c-0.151,0.567-0.227,1.523-0.227,2.867s0.067,2.267,0.203,2.77
					c0.135,0.503,0.306,0.837,0.512,1.004c0.206,0.167,0.441,0.25,0.707,0.25s0.502-0.085,0.711-0.254
					c0.208-0.169,0.37-0.473,0.484-0.91c0.151-0.562,0.227-1.516,0.227-2.859s-0.068-2.267-0.203-2.77
					c-0.136-0.503-0.306-0.839-0.512-1.008C288.307-14.639,288.071-14.724,287.806-14.724z"/>
			</g>
			<g enable-background="new    ">
				<path fill="#FFFFFF" d="M314.501-7.084v2.039h-7.695c0.083-0.771,0.333-1.501,0.75-2.191c0.417-0.69,1.239-1.605,2.469-2.746
					c0.989-0.922,1.596-1.547,1.82-1.875c0.302-0.453,0.453-0.901,0.453-1.344c0-0.489-0.132-0.866-0.395-1.129
					c-0.263-0.263-0.626-0.395-1.09-0.395c-0.458,0-0.823,0.138-1.094,0.414c-0.271,0.276-0.427,0.734-0.469,1.375l-2.188-0.219
					c0.13-1.208,0.539-2.075,1.227-2.602s1.547-0.789,2.578-0.789c1.13,0,2.018,0.305,2.664,0.914
					c0.646,0.609,0.969,1.367,0.969,2.273c0,0.516-0.093,1.007-0.277,1.473c-0.185,0.466-0.478,0.954-0.879,1.465
					c-0.266,0.339-0.745,0.825-1.438,1.461c-0.693,0.636-1.132,1.058-1.316,1.266c-0.185,0.208-0.335,0.411-0.449,0.609H314.501z"/>
				<path fill="#FFFFFF" d="M319.696-16.545c1.109,0,1.977,0.396,2.602,1.188c0.745,0.938,1.117,2.492,1.117,4.664
					c0,2.167-0.375,3.724-1.125,4.672c-0.62,0.781-1.484,1.172-2.594,1.172c-1.115,0-2.013-0.429-2.695-1.285
					c-0.683-0.856-1.023-2.384-1.023-4.582c0-2.156,0.375-3.708,1.125-4.656C317.722-16.154,318.587-16.545,319.696-16.545z
					 M319.696-14.724c-0.266,0-0.503,0.085-0.711,0.254c-0.208,0.169-0.37,0.473-0.484,0.91c-0.151,0.567-0.227,1.523-0.227,2.867
					s0.067,2.267,0.203,2.77c0.135,0.503,0.306,0.837,0.512,1.004c0.206,0.167,0.441,0.25,0.707,0.25s0.502-0.085,0.711-0.254
					c0.208-0.169,0.37-0.473,0.484-0.91c0.151-0.562,0.227-1.516,0.227-2.859s-0.068-2.267-0.203-2.77
					c-0.136-0.503-0.306-0.839-0.512-1.008C320.197-14.639,319.962-14.724,319.696-14.724z"/>
			</g>
			<g enable-background="new    ">
				<path fill="none" stroke="#808080" stroke-width="0.1772" d="M314.501-7.084v2.039h-7.695c0.083-0.771,0.333-1.501,0.75-2.191
					c0.417-0.69,1.239-1.605,2.469-2.746c0.989-0.922,1.596-1.547,1.82-1.875c0.302-0.453,0.453-0.901,0.453-1.344
					c0-0.489-0.132-0.866-0.395-1.129c-0.263-0.263-0.626-0.395-1.09-0.395c-0.458,0-0.823,0.138-1.094,0.414
					c-0.271,0.276-0.427,0.734-0.469,1.375l-2.188-0.219c0.13-1.208,0.539-2.075,1.227-2.602s1.547-0.789,2.578-0.789
					c1.13,0,2.018,0.305,2.664,0.914c0.646,0.609,0.969,1.367,0.969,2.273c0,0.516-0.093,1.007-0.277,1.473
					c-0.185,0.466-0.478,0.954-0.879,1.465c-0.266,0.339-0.745,0.825-1.438,1.461c-0.693,0.636-1.132,1.058-1.316,1.266
					c-0.185,0.208-0.335,0.411-0.449,0.609H314.501z"/>
				<path fill="none" stroke="#808080" stroke-width="0.1772" d="M319.696-16.545c1.109,0,1.977,0.396,2.602,1.188
					c0.745,0.938,1.117,2.492,1.117,4.664c0,2.167-0.375,3.724-1.125,4.672c-0.62,0.781-1.484,1.172-2.594,1.172
					c-1.115,0-2.013-0.429-2.695-1.285c-0.683-0.856-1.023-2.384-1.023-4.582c0-2.156,0.375-3.708,1.125-4.656
					C317.722-16.154,318.587-16.545,319.696-16.545z M319.696-14.724c-0.266,0-0.503,0.085-0.711,0.254
					c-0.208,0.169-0.37,0.473-0.484,0.91c-0.151,0.567-0.227,1.523-0.227,2.867s0.067,2.267,0.203,2.77
					c0.135,0.503,0.306,0.837,0.512,1.004c0.206,0.167,0.441,0.25,0.707,0.25s0.502-0.085,0.711-0.254
					c0.208-0.169,0.37-0.473,0.484-0.91c0.151-0.562,0.227-1.516,0.227-2.859s-0.068-2.267-0.203-2.77
					c-0.136-0.503-0.306-0.839-0.512-1.008C320.197-14.639,319.962-14.724,319.696-14.724z"/>
			</g>
			<g enable-background="new    ">
				<path fill="#FFFFFF" d="M344.593-5.045h-2.195v-8.273c-0.802,0.75-1.748,1.305-2.836,1.664v-1.992
					c0.573-0.188,1.195-0.543,1.867-1.066s1.133-1.134,1.383-1.832h1.781V-5.045z"/>
				<path fill="#FFFFFF" d="M351.585-16.545c1.109,0,1.977,0.396,2.602,1.188c0.745,0.938,1.117,2.492,1.117,4.664
					c0,2.167-0.375,3.724-1.125,4.672c-0.62,0.781-1.484,1.172-2.594,1.172c-1.115,0-2.013-0.429-2.695-1.285
					c-0.683-0.856-1.023-2.384-1.023-4.582c0-2.156,0.375-3.708,1.125-4.656C349.611-16.154,350.476-16.545,351.585-16.545z
					 M351.585-14.724c-0.266,0-0.503,0.085-0.711,0.254c-0.208,0.169-0.37,0.473-0.484,0.91c-0.151,0.567-0.227,1.523-0.227,2.867
					s0.067,2.267,0.203,2.77c0.135,0.503,0.306,0.837,0.512,1.004c0.206,0.167,0.441,0.25,0.707,0.25s0.502-0.085,0.711-0.254
					c0.208-0.169,0.37-0.473,0.484-0.91c0.151-0.562,0.227-1.516,0.227-2.859s-0.068-2.267-0.203-2.77
					c-0.136-0.503-0.306-0.839-0.512-1.008C352.086-14.639,351.851-14.724,351.585-14.724z"/>
			</g>
			<g enable-background="new    ">
				<path fill="none" stroke="#808080" stroke-width="0.1772" d="M344.593-5.045h-2.195v-8.273c-0.802,0.75-1.748,1.305-2.836,1.664
					v-1.992c0.573-0.188,1.195-0.543,1.867-1.066s1.133-1.134,1.383-1.832h1.781V-5.045z"/>
				<path fill="none" stroke="#808080" stroke-width="0.1772" d="M351.585-16.545c1.109,0,1.977,0.396,2.602,1.188
					c0.745,0.938,1.117,2.492,1.117,4.664c0,2.167-0.375,3.724-1.125,4.672c-0.62,0.781-1.484,1.172-2.594,1.172
					c-1.115,0-2.013-0.429-2.695-1.285c-0.683-0.856-1.023-2.384-1.023-4.582c0-2.156,0.375-3.708,1.125-4.656
					C349.611-16.154,350.476-16.545,351.585-16.545z M351.585-14.724c-0.266,0-0.503,0.085-0.711,0.254
					c-0.208,0.169-0.37,0.473-0.484,0.91c-0.151,0.567-0.227,1.523-0.227,2.867s0.067,2.267,0.203,2.77
					c0.135,0.503,0.306,0.837,0.512,1.004c0.206,0.167,0.441,0.25,0.707,0.25s0.502-0.085,0.711-0.254
					c0.208-0.169,0.37-0.473,0.484-0.91c0.151-0.562,0.227-1.516,0.227-2.859s-0.068-2.267-0.203-2.77
					c-0.136-0.503-0.306-0.839-0.512-1.008C352.086-14.639,351.851-14.724,351.585-14.724z"/>
			</g>
			<g id="g4648">
				
					<path id="path4650" sodipodi:r2="1.3260038" inkscape:randomized="0" sodipodi:arg1="3.1415927" sodipodi:arg2="4.1887902" sodipodi:r1="2.6520076" inkscape:rounded="0" inkscape:flatsided="true" sodipodi:cx="51.26923" sodipodi:cy="145.96883" sodipodi:sides="3" sodipodi:type="star" fill="#FFFFFF" d="
					M77.86-11.002l3.979-1.148v2.297L77.86-11.002z"/>
				
					<path id="path4652" sodipodi:r2="1.3260038" inkscape:randomized="0" sodipodi:arg1="3.1415927" sodipodi:arg2="4.1887902" sodipodi:r1="2.6520076" inkscape:rounded="0" inkscape:flatsided="true" sodipodi:cx="51.26923" sodipodi:cy="145.96883" sodipodi:sides="3" sodipodi:type="star" fill="#FFFFFF" d="
					M109.749-11.002l3.978-1.148v2.297L109.749-11.002z"/>
				
					<path id="path4654" sodipodi:r2="1.3260038" inkscape:randomized="0" sodipodi:arg1="3.1415927" sodipodi:arg2="4.1887902" sodipodi:r1="2.6520076" inkscape:rounded="0" inkscape:flatsided="true" sodipodi:cx="51.26923" sodipodi:cy="145.96883" sodipodi:sides="3" sodipodi:type="star" fill="#FFFFFF" d="
					M141.639-11.002l3.978-1.148v2.297L141.639-11.002z"/>
				
					<path id="path4656" sodipodi:r2="1.3260038" inkscape:randomized="0" sodipodi:arg1="3.1415927" sodipodi:arg2="4.1887902" sodipodi:r1="2.6520076" inkscape:rounded="0" inkscape:flatsided="true" sodipodi:cx="51.26923" sodipodi:cy="145.96883" sodipodi:sides="3" sodipodi:type="star" fill="#FFFFFF" d="
					M173.528-11.002l3.979-1.148v2.297L173.528-11.002z"/>
			</g>
			<g id="g4658" transform="matrix(-1,0,0,1,383.739,0)">
				
					<path id="path4660" sodipodi:r2="1.3260038" inkscape:randomized="0" sodipodi:arg1="3.1415927" sodipodi:arg2="4.1887902" sodipodi:r1="2.6520076" inkscape:rounded="0" inkscape:flatsided="true" sodipodi:cx="51.26923" sodipodi:cy="145.96883" sodipodi:sides="3" sodipodi:type="star" fill="#FFFFFF" d="
					M20.483-11.002l3.978-1.148v2.297L20.483-11.002z"/>
				
					<path id="path4662" sodipodi:r2="1.3260038" inkscape:randomized="0" sodipodi:arg1="3.1415927" sodipodi:arg2="4.1887902" sodipodi:r1="2.6520076" inkscape:rounded="0" inkscape:flatsided="true" sodipodi:cx="51.26923" sodipodi:cy="145.96883" sodipodi:sides="3" sodipodi:type="star" fill="#FFFFFF" d="
					M52.372-11.002l3.978-1.148v2.297L52.372-11.002z"/>
				
					<path id="path4664" sodipodi:r2="1.3260038" inkscape:randomized="0" sodipodi:arg1="3.1415927" sodipodi:arg2="4.1887902" sodipodi:r1="2.6520076" inkscape:rounded="0" inkscape:flatsided="true" sodipodi:cx="51.26923" sodipodi:cy="145.96883" sodipodi:sides="3" sodipodi:type="star" fill="#FFFFFF" d="
					M84.261-11.002l3.978-1.148v2.297L84.261-11.002z"/>
				
					<path id="path4666" sodipodi:r2="1.3260038" inkscape:randomized="0" sodipodi:arg1="3.1415927" sodipodi:arg2="4.1887902" sodipodi:r1="2.6520076" inkscape:rounded="0" inkscape:flatsided="true" sodipodi:cx="51.26923" sodipodi:cy="145.96883" sodipodi:sides="3" sodipodi:type="star" fill="#FFFFFF" d="
					M116.151-11.002l3.978-1.148v2.297L116.151-11.002z"/>
			</g>
		</g>
	</g>
</g>
</svg>
