<?xml version="1.0" encoding="UTF-8" standalone="no"?>
<!-- Generator: Adobe Illustrator 12.0.0, SVG Export Plug-In . SVG Version: 6.00 Build 51448)  -->

<svg
   xmlns:dc="http://purl.org/dc/elements/1.1/"
   xmlns:cc="http://creativecommons.org/ns#"
   xmlns:rdf="http://www.w3.org/1999/02/22-rdf-syntax-ns#"
   xmlns:svg="http://www.w3.org/2000/svg"
   xmlns="http://www.w3.org/2000/svg"
   xmlns:sodipodi="http://sodipodi.sourceforge.net/DTD/sodipodi-0.dtd"
   xmlns:inkscape="http://www.inkscape.org/namespaces/inkscape"
   version="1.1"
   id="Layer_1"
   width="444.196"
   height="260.538"
   viewBox="0 0 444.196 260.538"
   overflow="visible"
   enable-background="new 0 0 444.196 260.538"
   xml:space="preserve"
   inkscape:version="0.48.2 r9819"
   sodipodi:docname="Foot_field_AG3.svg"><metadata
   id="metadata229"><rdf:RDF><cc:Work
       rdf:about=""><dc:format>image/svg+xml</dc:format><dc:type
         rdf:resource="http://purl.org/dc/dcmitype/StillImage" /><dc:title></dc:title></cc:Work></rdf:RDF></metadata><defs
   id="defs227" /><sodipodi:namedview
   pagecolor="#ffffff"
   bordercolor="#666666"
   borderopacity="1"
   objecttolerance="10"
   gridtolerance="10"
   guidetolerance="10"
   inkscape:pageopacity="0"
   inkscape:pageshadow="2"
   inkscape:window-width="1804"
   inkscape:window-height="1206"
   id="namedview225"
   showgrid="false"
   inkscape:zoom="2"
   inkscape:cx="222.09801"
   inkscape:cy="90.268997"
   inkscape:window-x="2954"
   inkscape:window-y="165"
   inkscape:window-maximized="0"
   inkscape:current-layer="Layer_1" />

<line
   fill="none"
   x1="37.919"
   y1="19.892"
   x2="37.619"
   y2="256.337"
   id="line5" />
<line
   fill="none"
   stroke="#FFFFFF"
   stroke-width="2"
   x1="37.128"
   y1="19.892"
   x2="391.986"
   y2="19.892"
   id="line7" />
<line
   fill="none"
   stroke="#FFFFFF"
   stroke-width="2"
   x1="391.986"
   y1="18.94"
   x2="391.986"
   y2="257.113"
   id="line9" />
<line
   fill="none"
   stroke="#FFFFFF"
   stroke-width="2"
   x1="391.986"
   y1="256.037"
   x2="37.619"
   y2="256.337"
   id="line11" />
<line
   fill="none"
   stroke="#FFFFFF"
   stroke-width="2"
   x1="37.919"
   y1="53.198"
   x2="107.832"
   y2="52.898"
   id="line13" />
<line
   fill="none"
   stroke="#FFFFFF"
   stroke-width="2"
   x1="107.832"
   y1="52.156"
   x2="108.432"
   y2="224.407"
   id="line15" />
<line
   fill="none"
   stroke="#FFFFFF"
   stroke-width="2"
   x1="108.432"
   y1="223.331"
   x2="37.919"
   y2="223.331"
   id="line17" />
<line
   fill="none"
   stroke="#FFFFFF"
   stroke-width="2"
   x1="37.619"
   y1="176.822"
   x2="61.323"
   y2="176.522"
   id="line19" />
<line
   fill="none"
   stroke="#FFFFFF"
   stroke-width="2"
   x1="37.919"
   y1="99.707"
   x2="61.323"
   y2="99.407"
   id="line21" />
<line
   fill="none"
   stroke="#FFFFFF"
   stroke-width="2"
   x1="61.323"
   y1="98.579"
   x2="61.323"
   y2="177.671"
   id="line23" />
<line
   fill="none"
   stroke="#FFFFFF"
   stroke-width="2"
   x1="37.619"
   y1="123.112"
   x2="26.883"
   y2="123.112"
   id="line25" />
<line
   fill="none"
   stroke="#FFFFFF"
   stroke-width="2"
   x1="27.717"
   y1="123.112"
   x2="27.717"
   y2="154.018"
   id="line27" />
<line
   fill="none"
   stroke="#FFFFFF"
   stroke-width="2"
   x1="27.078"
   y1="154.018"
   x2="37.319"
   y2="154.317"
   id="line29" />
<line
   fill="none"
   stroke="#FFFFFF"
   stroke-width="2"
   x1="214.953"
   y1="19.892"
   x2="215.252"
   y2="256.937"
   id="line31" />
<line
   fill="none"
   stroke="#FFFFFF"
   stroke-width="2"
   x1="321.003"
   y1="53.198"
   x2="391.986"
   y2="53.198"
   id="line33" />
<line
   fill="none"
   stroke="#FFFFFF"
   stroke-width="2"
   x1="322.073"
   y1="53.198"
   x2="322.673"
   y2="223.331"
   id="line35" />
<line
   fill="none"
   stroke="#FFFFFF"
   stroke-width="2"
   x1="321.707"
   y1="223.331"
   x2="391.686"
   y2="223.331"
   id="line37" />
<line
   fill="none"
   stroke="#FFFFFF"
   stroke-width="2"
   x1="367.861"
   y1="99.707"
   x2="391.986"
   y2="99.707"
   id="line39" />
<line
   fill="none"
   stroke="#FFFFFF"
   stroke-width="2"
   x1="368.882"
   y1="99.707"
   x2="369.481"
   y2="177.879"
   id="line41" />
<line
   fill="none"
   stroke="#FFFFFF"
   stroke-width="2"
   x1="369.481"
   y1="176.822"
   x2="391.986"
   y2="176.822"
   id="line43" />
<line
   fill="none"
   stroke="#FFFFFF"
   stroke-width="2"
   x1="392.286"
   y1="122.512"
   x2="402.488"
   y2="122.512"
   id="line45" />
<line
   fill="none"
   stroke="#FFFFFF"
   stroke-width="2"
   x1="402.488"
   y1="121.543"
   x2="402.488"
   y2="155.203"
   id="line47" />
<line
   fill="none"
   stroke="#FFFFFF"
   stroke-width="2"
   x1="402.49"
   y1="154.182"
   x2="392.284"
   y2="154.152"
   id="line49" />
<ellipse
   fill="none"
   stroke="#FFFFFF"
   stroke-width="1.5"
   cx="215.403"
   cy="138.715"
   rx="40.358"
   ry="38.407"
   id="ellipse51" />
<circle
   fill="#FFFFFF"
   cx="215.183"
   cy="138.714"
   r="2.7"
   id="circle53" />
<circle
   fill="#FFFFFF"
   cx="345.777"
   cy="138.414"
   r="2.7"
   id="circle55" />
<circle
   fill="#FFFFFF"
   cx="84.826"
   cy="138.116"
   r="2.7"
   id="circle57" />
<path
   fill="none"
   stroke="#FFFFFF"
   stroke-width="1.5"
   d="M107.606,108.297c9.95,6.755,16.429,17.773,16.429,30.217  c0,12.319-6.349,23.239-16.129,30.011"
   id="path59" />
<path
   fill="none"
   stroke="#FFFFFF"
   stroke-width="1.5"
   d="M321.851,108.216c-9.791,6.983-16.012,18.149-15.724,30.59  c0.286,12.315,6.886,23.085,16.821,29.628"
   id="path61" />
<path
   fill="none"
   stroke="#FFFFFF"
   stroke-width="1.5"
   d="M44.876,19.881c0.094,0.438,0.144,0.894,0.144,1.361  c0,3.397-2.62,6.151-5.851,6.151c-0.443,0-0.874-0.052-1.289-0.15"
   id="path63" />
<path
   fill="none"
   stroke="#FFFFFF"
   stroke-width="1.5"
   d="M392.106,27.475c-0.445,0.053-0.902,0.061-1.369,0.018  c-3.383-0.313-5.883-3.175-5.584-6.393c0.041-0.441,0.131-0.866,0.268-1.27"
   id="path65" />
<path
   fill="none"
   stroke="#FFFFFF"
   stroke-width="1.5"
   d="M384.896,256.052c-0.051-0.445-0.054-0.903-0.007-1.369  c0.343-3.38,3.226-5.855,6.44-5.53c0.441,0.045,0.865,0.141,1.268,0.279"
   id="path67" />
<path
   fill="none"
   stroke="#FFFFFF"
   stroke-width="1.5"
   d="M38.048,248.943c0.444-0.059,0.902-0.072,1.369-0.034  c3.387,0.274,5.92,3.107,5.659,6.328c-0.035,0.441-0.121,0.867-0.253,1.272"
   id="path69" />





<line
   fill="none"
   stroke="#FFFFFF"
   stroke-width="2"
   x1="37.94"
   y1="19.777"
   x2="38.24"
   y2="256.822"
   id="line99" />




















</svg>