<?xml version="1.0" encoding="UTF-8" standalone="no"?>
<svg
   xmlns:dc="http://purl.org/dc/elements/1.1/"
   xmlns:cc="http://creativecommons.org/ns#"
   xmlns:rdf="http://www.w3.org/1999/02/22-rdf-syntax-ns#"
   xmlns:svg="http://www.w3.org/2000/svg"
   xmlns="http://www.w3.org/2000/svg"
   version="1.1"
   height="64"
   width="64"
   id="Svg">
  <metadata
     id="metadata658">
    <rdf:RDF>
      <cc:Work
         rdf:about="">
        <dc:format>image/svg+xml</dc:format>
        <dc:type
           rdf:resource="http://purl.org/dc/dcmitype/StillImage" />
      </cc:Work>
    </rdf:RDF>
  </metadata>
  <defs
     id="defs3" />
  <path
     id="path2898"
     d="M 4.515625 3.7128906 L 4.2128906 3.78125 L 3.9648438 3.9648438 L 3.796875 4.2148438 L 3.7363281 4.4921875 L 3.8066406 4.7695312 L 3.9882812 5.0195312 L 4.2382812 5.2011719 L 4.515625 5.2714844 L 4.7929688 5.2011719 L 5.0429688 5.0195312 L 5.2265625 4.7695312 L 5.296875 4.4921875 L 5.234375 4.2148438 L 5.0683594 3.9648438 L 4.8203125 3.78125 L 4.515625 3.7128906 z M 12.515625 3.7128906 L 12.212891 3.78125 L 11.964844 3.9648438 L 11.796875 4.2148438 L 11.736328 4.4921875 L 11.806641 4.7695312 L 11.988281 5.0195312 L 12.238281 5.2011719 L 12.515625 5.2714844 L 12.792969 5.2011719 L 13.042969 5.0195312 L 13.226562 4.7695312 L 13.296875 4.4921875 L 13.234375 4.2148438 L 13.068359 3.9648438 L 12.820312 3.78125 L 12.515625 3.7128906 z M 20.515625 3.7128906 L 20.212891 3.78125 L 19.964844 3.9648438 L 19.796875 4.2148438 L 19.736328 4.4921875 L 19.806641 4.7695312 L 19.988281 5.0195312 L 20.238281 5.2011719 L 20.515625 5.2714844 L 20.792969 5.2011719 L 21.042969 5.0195312 L 21.226562 4.7695312 L 21.296875 4.4921875 L 21.234375 4.2148438 L 21.068359 3.9648438 L 20.820312 3.78125 L 20.515625 3.7128906 z M 28.515625 3.7128906 L 28.212891 3.78125 L 27.964844 3.9648438 L 27.796875 4.2148438 L 27.736328 4.4921875 L 27.806641 4.7695312 L 27.988281 5.0195312 L 28.238281 5.2011719 L 28.515625 5.2714844 L 28.792969 5.2011719 L 29.042969 5.0195312 L 29.226562 4.7695312 L 29.296875 4.4921875 L 29.234375 4.2148438 L 29.068359 3.9648438 L 28.820312 3.78125 L 28.515625 3.7128906 z M 36.515625 3.7128906 L 36.212891 3.78125 L 35.964844 3.9648438 L 35.796875 4.2148438 L 35.736328 4.4921875 L 35.806641 4.7695312 L 35.988281 5.0195312 L 36.238281 5.2011719 L 36.515625 5.2714844 L 36.792969 5.2011719 L 37.042969 5.0195312 L 37.226562 4.7695312 L 37.296875 4.4921875 L 37.234375 4.2148438 L 37.068359 3.9648438 L 36.820312 3.78125 L 36.515625 3.7128906 z M 44.515625 3.7128906 L 44.212891 3.78125 L 43.964844 3.9648438 L 43.796875 4.2148438 L 43.736328 4.4921875 L 43.806641 4.7695312 L 43.988281 5.0195312 L 44.238281 5.2011719 L 44.515625 5.2714844 L 44.792969 5.2011719 L 45.042969 5.0195312 L 45.226562 4.7695312 L 45.296875 4.4921875 L 45.234375 4.2148438 L 45.068359 3.9648438 L 44.820312 3.78125 L 44.515625 3.7128906 z M 52.515625 3.7128906 L 52.212891 3.78125 L 51.964844 3.9648438 L 51.796875 4.2148438 L 51.736328 4.4921875 L 51.806641 4.7695312 L 51.988281 5.0195312 L 52.238281 5.2011719 L 52.515625 5.2714844 L 52.792969 5.2011719 L 53.042969 5.0195312 L 53.226562 4.7695312 L 53.296875 4.4921875 L 53.234375 4.2148438 L 53.068359 3.9648438 L 52.820312 3.78125 L 52.515625 3.7128906 z M 60.515625 3.7128906 L 60.212891 3.78125 L 59.964844 3.9648438 L 59.796875 4.2148438 L 59.736328 4.4921875 L 59.806641 4.7695312 L 59.988281 5.0195312 L 60.238281 5.2011719 L 60.515625 5.2714844 L 60.792969 5.2011719 L 61.042969 5.0195312 L 61.226562 4.7695312 L 61.296875 4.4921875 L 61.234375 4.2148438 L 61.068359 3.9648438 L 60.820312 3.78125 L 60.515625 3.7128906 z M 4.515625 11.712891 L 4.2128906 11.78125 L 3.9648438 11.964844 L 3.796875 12.214844 L 3.7363281 12.492188 L 3.8066406 12.769531 L 3.9882812 13.019531 L 4.2382812 13.201172 L 4.515625 13.271484 L 4.7929688 13.201172 L 5.0429688 13.019531 L 5.2265625 12.769531 L 5.296875 12.492188 L 5.234375 12.214844 L 5.0683594 11.964844 L 4.8203125 11.78125 L 4.515625 11.712891 z M 12.515625 11.712891 L 12.212891 11.78125 L 11.964844 11.964844 L 11.796875 12.214844 L 11.736328 12.492188 L 11.806641 12.769531 L 11.988281 13.019531 L 12.238281 13.201172 L 12.515625 13.271484 L 12.792969 13.201172 L 13.042969 13.019531 L 13.226562 12.769531 L 13.296875 12.492188 L 13.234375 12.214844 L 13.068359 11.964844 L 12.820312 11.78125 L 12.515625 11.712891 z M 20.515625 11.712891 L 20.212891 11.78125 L 19.964844 11.964844 L 19.796875 12.214844 L 19.736328 12.492188 L 19.806641 12.769531 L 19.988281 13.019531 L 20.238281 13.201172 L 20.515625 13.271484 L 20.792969 13.201172 L 21.042969 13.019531 L 21.226562 12.769531 L 21.296875 12.492188 L 21.234375 12.214844 L 21.068359 11.964844 L 20.820312 11.78125 L 20.515625 11.712891 z M 28.515625 11.712891 L 28.212891 11.78125 L 27.964844 11.964844 L 27.796875 12.214844 L 27.736328 12.492188 L 27.806641 12.769531 L 27.988281 13.019531 L 28.238281 13.201172 L 28.515625 13.271484 L 28.792969 13.201172 L 29.042969 13.019531 L 29.226562 12.769531 L 29.296875 12.492188 L 29.234375 12.214844 L 29.068359 11.964844 L 28.820312 11.78125 L 28.515625 11.712891 z M 36.515625 11.712891 L 36.212891 11.78125 L 35.964844 11.964844 L 35.796875 12.214844 L 35.736328 12.492188 L 35.806641 12.769531 L 35.988281 13.019531 L 36.238281 13.201172 L 36.515625 13.271484 L 36.792969 13.201172 L 37.042969 13.019531 L 37.226562 12.769531 L 37.296875 12.492188 L 37.234375 12.214844 L 37.068359 11.964844 L 36.820312 11.78125 L 36.515625 11.712891 z M 44.515625 11.712891 L 44.212891 11.78125 L 43.964844 11.964844 L 43.796875 12.214844 L 43.736328 12.492188 L 43.806641 12.769531 L 43.988281 13.019531 L 44.238281 13.201172 L 44.515625 13.271484 L 44.792969 13.201172 L 45.042969 13.019531 L 45.226562 12.769531 L 45.296875 12.492188 L 45.234375 12.214844 L 45.068359 11.964844 L 44.820312 11.78125 L 44.515625 11.712891 z M 52.515625 11.712891 L 52.212891 11.78125 L 51.964844 11.964844 L 51.796875 12.214844 L 51.736328 12.492188 L 51.806641 12.769531 L 51.988281 13.019531 L 52.238281 13.201172 L 52.515625 13.271484 L 52.792969 13.201172 L 53.042969 13.019531 L 53.226562 12.769531 L 53.296875 12.492188 L 53.234375 12.214844 L 53.068359 11.964844 L 52.820312 11.78125 L 52.515625 11.712891 z M 60.515625 11.712891 L 60.212891 11.78125 L 59.964844 11.964844 L 59.796875 12.214844 L 59.736328 12.492188 L 59.806641 12.769531 L 59.988281 13.019531 L 60.238281 13.201172 L 60.515625 13.271484 L 60.792969 13.201172 L 61.042969 13.019531 L 61.226562 12.769531 L 61.296875 12.492188 L 61.234375 12.214844 L 61.068359 11.964844 L 60.820312 11.78125 L 60.515625 11.712891 z M 4.515625 19.712891 L 4.2128906 19.78125 L 3.9648438 19.964844 L 3.796875 20.214844 L 3.7363281 20.492188 L 3.8066406 20.769531 L 3.9882812 21.019531 L 4.2382812 21.201172 L 4.515625 21.271484 L 4.7929688 21.201172 L 5.0429688 21.019531 L 5.2265625 20.769531 L 5.296875 20.492188 L 5.234375 20.214844 L 5.0683594 19.964844 L 4.8203125 19.78125 L 4.515625 19.712891 z M 12.515625 19.712891 L 12.212891 19.78125 L 11.964844 19.964844 L 11.796875 20.214844 L 11.736328 20.492188 L 11.806641 20.769531 L 11.988281 21.019531 L 12.238281 21.201172 L 12.515625 21.271484 L 12.792969 21.201172 L 13.042969 21.019531 L 13.226562 20.769531 L 13.296875 20.492188 L 13.234375 20.214844 L 13.068359 19.964844 L 12.820312 19.78125 L 12.515625 19.712891 z M 20.515625 19.712891 L 20.212891 19.78125 L 19.964844 19.964844 L 19.796875 20.214844 L 19.736328 20.492188 L 19.806641 20.769531 L 19.988281 21.019531 L 20.238281 21.201172 L 20.515625 21.271484 L 20.792969 21.201172 L 21.042969 21.019531 L 21.226562 20.769531 L 21.296875 20.492188 L 21.234375 20.214844 L 21.068359 19.964844 L 20.820312 19.78125 L 20.515625 19.712891 z M 28.515625 19.712891 L 28.212891 19.78125 L 27.964844 19.964844 L 27.796875 20.214844 L 27.736328 20.492188 L 27.806641 20.769531 L 27.988281 21.019531 L 28.238281 21.201172 L 28.515625 21.271484 L 28.792969 21.201172 L 29.042969 21.019531 L 29.226562 20.769531 L 29.296875 20.492188 L 29.234375 20.214844 L 29.068359 19.964844 L 28.820312 19.78125 L 28.515625 19.712891 z M 36.515625 19.712891 L 36.212891 19.78125 L 35.964844 19.964844 L 35.796875 20.214844 L 35.736328 20.492188 L 35.806641 20.769531 L 35.988281 21.019531 L 36.238281 21.201172 L 36.515625 21.271484 L 36.792969 21.201172 L 37.042969 21.019531 L 37.226562 20.769531 L 37.296875 20.492188 L 37.234375 20.214844 L 37.068359 19.964844 L 36.820312 19.78125 L 36.515625 19.712891 z M 44.515625 19.712891 L 44.212891 19.78125 L 43.964844 19.964844 L 43.796875 20.214844 L 43.736328 20.492188 L 43.806641 20.769531 L 43.988281 21.019531 L 44.238281 21.201172 L 44.515625 21.271484 L 44.792969 21.201172 L 45.042969 21.019531 L 45.226562 20.769531 L 45.296875 20.492188 L 45.234375 20.214844 L 45.068359 19.964844 L 44.820312 19.78125 L 44.515625 19.712891 z M 52.515625 19.712891 L 52.212891 19.78125 L 51.964844 19.964844 L 51.796875 20.214844 L 51.736328 20.492188 L 51.806641 20.769531 L 51.988281 21.019531 L 52.238281 21.201172 L 52.515625 21.271484 L 52.792969 21.201172 L 53.042969 21.019531 L 53.226562 20.769531 L 53.296875 20.492188 L 53.234375 20.214844 L 53.068359 19.964844 L 52.820312 19.78125 L 52.515625 19.712891 z M 60.515625 19.712891 L 60.212891 19.78125 L 59.964844 19.964844 L 59.796875 20.214844 L 59.736328 20.492188 L 59.806641 20.769531 L 59.988281 21.019531 L 60.238281 21.201172 L 60.515625 21.271484 L 60.792969 21.201172 L 61.042969 21.019531 L 61.226562 20.769531 L 61.296875 20.492188 L 61.234375 20.214844 L 61.068359 19.964844 L 60.820312 19.78125 L 60.515625 19.712891 z M 4.515625 27.712891 L 4.2128906 27.78125 L 3.9648438 27.964844 L 3.796875 28.214844 L 3.7363281 28.492188 L 3.8066406 28.769531 L 3.9882812 29.019531 L 4.2382812 29.201172 L 4.515625 29.271484 L 4.7929688 29.201172 L 5.0429688 29.019531 L 5.2265625 28.769531 L 5.296875 28.492188 L 5.234375 28.214844 L 5.0683594 27.964844 L 4.8203125 27.78125 L 4.515625 27.712891 z M 12.515625 27.712891 L 12.212891 27.78125 L 11.964844 27.964844 L 11.796875 28.214844 L 11.736328 28.492188 L 11.806641 28.769531 L 11.988281 29.019531 L 12.238281 29.201172 L 12.515625 29.271484 L 12.792969 29.201172 L 13.042969 29.019531 L 13.226562 28.769531 L 13.296875 28.492188 L 13.234375 28.214844 L 13.068359 27.964844 L 12.820312 27.78125 L 12.515625 27.712891 z M 20.515625 27.712891 L 20.212891 27.78125 L 19.964844 27.964844 L 19.796875 28.214844 L 19.736328 28.492188 L 19.806641 28.769531 L 19.988281 29.019531 L 20.238281 29.201172 L 20.515625 29.271484 L 20.792969 29.201172 L 21.042969 29.019531 L 21.226562 28.769531 L 21.296875 28.492188 L 21.234375 28.214844 L 21.068359 27.964844 L 20.820312 27.78125 L 20.515625 27.712891 z M 28.515625 27.712891 L 28.212891 27.78125 L 27.964844 27.964844 L 27.796875 28.214844 L 27.736328 28.492188 L 27.806641 28.769531 L 27.988281 29.019531 L 28.238281 29.201172 L 28.515625 29.271484 L 28.792969 29.201172 L 29.042969 29.019531 L 29.226562 28.769531 L 29.296875 28.492188 L 29.234375 28.214844 L 29.068359 27.964844 L 28.820312 27.78125 L 28.515625 27.712891 z M 36.515625 27.712891 L 36.212891 27.78125 L 35.964844 27.964844 L 35.796875 28.214844 L 35.736328 28.492188 L 35.806641 28.769531 L 35.988281 29.019531 L 36.238281 29.201172 L 36.515625 29.271484 L 36.792969 29.201172 L 37.042969 29.019531 L 37.226562 28.769531 L 37.296875 28.492188 L 37.234375 28.214844 L 37.068359 27.964844 L 36.820312 27.78125 L 36.515625 27.712891 z M 44.515625 27.712891 L 44.212891 27.78125 L 43.964844 27.964844 L 43.796875 28.214844 L 43.736328 28.492188 L 43.806641 28.769531 L 43.988281 29.019531 L 44.238281 29.201172 L 44.515625 29.271484 L 44.792969 29.201172 L 45.042969 29.019531 L 45.226562 28.769531 L 45.296875 28.492188 L 45.234375 28.214844 L 45.068359 27.964844 L 44.820312 27.78125 L 44.515625 27.712891 z M 52.515625 27.712891 L 52.212891 27.78125 L 51.964844 27.964844 L 51.796875 28.214844 L 51.736328 28.492188 L 51.806641 28.769531 L 51.988281 29.019531 L 52.238281 29.201172 L 52.515625 29.271484 L 52.792969 29.201172 L 53.042969 29.019531 L 53.226562 28.769531 L 53.296875 28.492188 L 53.234375 28.214844 L 53.068359 27.964844 L 52.820312 27.78125 L 52.515625 27.712891 z M 60.515625 27.712891 L 60.212891 27.78125 L 59.964844 27.964844 L 59.796875 28.214844 L 59.736328 28.492188 L 59.806641 28.769531 L 59.988281 29.019531 L 60.238281 29.201172 L 60.515625 29.271484 L 60.792969 29.201172 L 61.042969 29.019531 L 61.226562 28.769531 L 61.296875 28.492188 L 61.234375 28.214844 L 61.068359 27.964844 L 60.820312 27.78125 L 60.515625 27.712891 z M 4.515625 35.712891 L 4.2128906 35.78125 L 3.9648438 35.964844 L 3.796875 36.214844 L 3.7363281 36.492188 L 3.8066406 36.769531 L 3.9882812 37.019531 L 4.2382812 37.201172 L 4.515625 37.271484 L 4.7929688 37.201172 L 5.0429688 37.019531 L 5.2265625 36.769531 L 5.296875 36.492188 L 5.234375 36.214844 L 5.0683594 35.964844 L 4.8203125 35.78125 L 4.515625 35.712891 z M 12.515625 35.712891 L 12.212891 35.78125 L 11.964844 35.964844 L 11.796875 36.214844 L 11.736328 36.492188 L 11.806641 36.769531 L 11.988281 37.019531 L 12.238281 37.201172 L 12.515625 37.271484 L 12.792969 37.201172 L 13.042969 37.019531 L 13.226562 36.769531 L 13.296875 36.492188 L 13.234375 36.214844 L 13.068359 35.964844 L 12.820312 35.78125 L 12.515625 35.712891 z M 20.515625 35.712891 L 20.212891 35.78125 L 19.964844 35.964844 L 19.796875 36.214844 L 19.736328 36.492188 L 19.806641 36.769531 L 19.988281 37.019531 L 20.238281 37.201172 L 20.515625 37.271484 L 20.792969 37.201172 L 21.042969 37.019531 L 21.226562 36.769531 L 21.296875 36.492188 L 21.234375 36.214844 L 21.068359 35.964844 L 20.820312 35.78125 L 20.515625 35.712891 z M 28.515625 35.712891 L 28.212891 35.78125 L 27.964844 35.964844 L 27.796875 36.214844 L 27.736328 36.492188 L 27.806641 36.769531 L 27.988281 37.019531 L 28.238281 37.201172 L 28.515625 37.271484 L 28.792969 37.201172 L 29.042969 37.019531 L 29.226562 36.769531 L 29.296875 36.492188 L 29.234375 36.214844 L 29.068359 35.964844 L 28.820312 35.78125 L 28.515625 35.712891 z M 36.515625 35.712891 L 36.212891 35.78125 L 35.964844 35.964844 L 35.796875 36.214844 L 35.736328 36.492188 L 35.806641 36.769531 L 35.988281 37.019531 L 36.238281 37.201172 L 36.515625 37.271484 L 36.792969 37.201172 L 37.042969 37.019531 L 37.226562 36.769531 L 37.296875 36.492188 L 37.234375 36.214844 L 37.068359 35.964844 L 36.820312 35.78125 L 36.515625 35.712891 z M 44.515625 35.712891 L 44.212891 35.78125 L 43.964844 35.964844 L 43.796875 36.214844 L 43.736328 36.492188 L 43.806641 36.769531 L 43.988281 37.019531 L 44.238281 37.201172 L 44.515625 37.271484 L 44.792969 37.201172 L 45.042969 37.019531 L 45.226562 36.769531 L 45.296875 36.492188 L 45.234375 36.214844 L 45.068359 35.964844 L 44.820312 35.78125 L 44.515625 35.712891 z M 52.515625 35.712891 L 52.212891 35.78125 L 51.964844 35.964844 L 51.796875 36.214844 L 51.736328 36.492188 L 51.806641 36.769531 L 51.988281 37.019531 L 52.238281 37.201172 L 52.515625 37.271484 L 52.792969 37.201172 L 53.042969 37.019531 L 53.226562 36.769531 L 53.296875 36.492188 L 53.234375 36.214844 L 53.068359 35.964844 L 52.820312 35.78125 L 52.515625 35.712891 z M 60.515625 35.712891 L 60.212891 35.78125 L 59.964844 35.964844 L 59.796875 36.214844 L 59.736328 36.492188 L 59.806641 36.769531 L 59.988281 37.019531 L 60.238281 37.201172 L 60.515625 37.271484 L 60.792969 37.201172 L 61.042969 37.019531 L 61.226562 36.769531 L 61.296875 36.492188 L 61.234375 36.214844 L 61.068359 35.964844 L 60.820312 35.78125 L 60.515625 35.712891 z M 4.515625 43.712891 L 4.2128906 43.78125 L 3.9648438 43.964844 L 3.796875 44.214844 L 3.7363281 44.492188 L 3.8066406 44.769531 L 3.9882812 45.019531 L 4.2382812 45.201172 L 4.515625 45.271484 L 4.7929688 45.201172 L 5.0429688 45.019531 L 5.2265625 44.769531 L 5.296875 44.492188 L 5.234375 44.214844 L 5.0683594 43.964844 L 4.8203125 43.78125 L 4.515625 43.712891 z M 12.515625 43.712891 L 12.212891 43.78125 L 11.964844 43.964844 L 11.796875 44.214844 L 11.736328 44.492188 L 11.806641 44.769531 L 11.988281 45.019531 L 12.238281 45.201172 L 12.515625 45.271484 L 12.792969 45.201172 L 13.042969 45.019531 L 13.226562 44.769531 L 13.296875 44.492188 L 13.234375 44.214844 L 13.068359 43.964844 L 12.820312 43.78125 L 12.515625 43.712891 z M 20.515625 43.712891 L 20.212891 43.78125 L 19.964844 43.964844 L 19.796875 44.214844 L 19.736328 44.492188 L 19.806641 44.769531 L 19.988281 45.019531 L 20.238281 45.201172 L 20.515625 45.271484 L 20.792969 45.201172 L 21.042969 45.019531 L 21.226562 44.769531 L 21.296875 44.492188 L 21.234375 44.214844 L 21.068359 43.964844 L 20.820312 43.78125 L 20.515625 43.712891 z M 28.515625 43.712891 L 28.212891 43.78125 L 27.964844 43.964844 L 27.796875 44.214844 L 27.736328 44.492188 L 27.806641 44.769531 L 27.988281 45.019531 L 28.238281 45.201172 L 28.515625 45.271484 L 28.792969 45.201172 L 29.042969 45.019531 L 29.226562 44.769531 L 29.296875 44.492188 L 29.234375 44.214844 L 29.068359 43.964844 L 28.820312 43.78125 L 28.515625 43.712891 z M 36.515625 43.712891 L 36.212891 43.78125 L 35.964844 43.964844 L 35.796875 44.214844 L 35.736328 44.492188 L 35.806641 44.769531 L 35.988281 45.019531 L 36.238281 45.201172 L 36.515625 45.271484 L 36.792969 45.201172 L 37.042969 45.019531 L 37.226562 44.769531 L 37.296875 44.492188 L 37.234375 44.214844 L 37.068359 43.964844 L 36.820312 43.78125 L 36.515625 43.712891 z M 44.515625 43.712891 L 44.212891 43.78125 L 43.964844 43.964844 L 43.796875 44.214844 L 43.736328 44.492188 L 43.806641 44.769531 L 43.988281 45.019531 L 44.238281 45.201172 L 44.515625 45.271484 L 44.792969 45.201172 L 45.042969 45.019531 L 45.226562 44.769531 L 45.296875 44.492188 L 45.234375 44.214844 L 45.068359 43.964844 L 44.820312 43.78125 L 44.515625 43.712891 z M 52.515625 43.712891 L 52.212891 43.78125 L 51.964844 43.964844 L 51.796875 44.214844 L 51.736328 44.492188 L 51.806641 44.769531 L 51.988281 45.019531 L 52.238281 45.201172 L 52.515625 45.271484 L 52.792969 45.201172 L 53.042969 45.019531 L 53.226562 44.769531 L 53.296875 44.492188 L 53.234375 44.214844 L 53.068359 43.964844 L 52.820312 43.78125 L 52.515625 43.712891 z M 60.515625 43.712891 L 60.212891 43.78125 L 59.964844 43.964844 L 59.796875 44.214844 L 59.736328 44.492188 L 59.806641 44.769531 L 59.988281 45.019531 L 60.238281 45.201172 L 60.515625 45.271484 L 60.792969 45.201172 L 61.042969 45.019531 L 61.226562 44.769531 L 61.296875 44.492188 L 61.234375 44.214844 L 61.068359 43.964844 L 60.820312 43.78125 L 60.515625 43.712891 z M 4.515625 51.712891 L 4.2128906 51.78125 L 3.9648438 51.964844 L 3.796875 52.214844 L 3.7363281 52.492188 L 3.8066406 52.769531 L 3.9882812 53.019531 L 4.2382812 53.201172 L 4.515625 53.271484 L 4.7929688 53.201172 L 5.0429688 53.019531 L 5.2265625 52.769531 L 5.296875 52.492188 L 5.234375 52.214844 L 5.0683594 51.964844 L 4.8203125 51.78125 L 4.515625 51.712891 z M 12.515625 51.712891 L 12.212891 51.78125 L 11.964844 51.964844 L 11.796875 52.214844 L 11.736328 52.492188 L 11.806641 52.769531 L 11.988281 53.019531 L 12.238281 53.201172 L 12.515625 53.271484 L 12.792969 53.201172 L 13.042969 53.019531 L 13.226562 52.769531 L 13.296875 52.492188 L 13.234375 52.214844 L 13.068359 51.964844 L 12.820312 51.78125 L 12.515625 51.712891 z M 20.515625 51.712891 L 20.212891 51.78125 L 19.964844 51.964844 L 19.796875 52.214844 L 19.736328 52.492188 L 19.806641 52.769531 L 19.988281 53.019531 L 20.238281 53.201172 L 20.515625 53.271484 L 20.792969 53.201172 L 21.042969 53.019531 L 21.226562 52.769531 L 21.296875 52.492188 L 21.234375 52.214844 L 21.068359 51.964844 L 20.820312 51.78125 L 20.515625 51.712891 z M 28.515625 51.712891 L 28.212891 51.78125 L 27.964844 51.964844 L 27.796875 52.214844 L 27.736328 52.492188 L 27.806641 52.769531 L 27.988281 53.019531 L 28.238281 53.201172 L 28.515625 53.271484 L 28.792969 53.201172 L 29.042969 53.019531 L 29.226562 52.769531 L 29.296875 52.492188 L 29.234375 52.214844 L 29.068359 51.964844 L 28.820312 51.78125 L 28.515625 51.712891 z M 36.515625 51.712891 L 36.212891 51.78125 L 35.964844 51.964844 L 35.796875 52.214844 L 35.736328 52.492188 L 35.806641 52.769531 L 35.988281 53.019531 L 36.238281 53.201172 L 36.515625 53.271484 L 36.792969 53.201172 L 37.042969 53.019531 L 37.226562 52.769531 L 37.296875 52.492188 L 37.234375 52.214844 L 37.068359 51.964844 L 36.820312 51.78125 L 36.515625 51.712891 z M 44.515625 51.712891 L 44.212891 51.78125 L 43.964844 51.964844 L 43.796875 52.214844 L 43.736328 52.492188 L 43.806641 52.769531 L 43.988281 53.019531 L 44.238281 53.201172 L 44.515625 53.271484 L 44.792969 53.201172 L 45.042969 53.019531 L 45.226562 52.769531 L 45.296875 52.492188 L 45.234375 52.214844 L 45.068359 51.964844 L 44.820312 51.78125 L 44.515625 51.712891 z M 52.515625 51.712891 L 52.212891 51.78125 L 51.964844 51.964844 L 51.796875 52.214844 L 51.736328 52.492188 L 51.806641 52.769531 L 51.988281 53.019531 L 52.238281 53.201172 L 52.515625 53.271484 L 52.792969 53.201172 L 53.042969 53.019531 L 53.226562 52.769531 L 53.296875 52.492188 L 53.234375 52.214844 L 53.068359 51.964844 L 52.820312 51.78125 L 52.515625 51.712891 z M 60.515625 51.712891 L 60.212891 51.78125 L 59.964844 51.964844 L 59.796875 52.214844 L 59.736328 52.492188 L 59.806641 52.769531 L 59.988281 53.019531 L 60.238281 53.201172 L 60.515625 53.271484 L 60.792969 53.201172 L 61.042969 53.019531 L 61.226562 52.769531 L 61.296875 52.492188 L 61.234375 52.214844 L 61.068359 51.964844 L 60.820312 51.78125 L 60.515625 51.712891 z M 4.515625 59.712891 L 4.2128906 59.78125 L 3.9648438 59.964844 L 3.796875 60.214844 L 3.7363281 60.492188 L 3.8066406 60.769531 L 3.9882812 61.019531 L 4.2382812 61.201172 L 4.515625 61.271484 L 4.7929688 61.201172 L 5.0429688 61.019531 L 5.2265625 60.769531 L 5.296875 60.492188 L 5.234375 60.214844 L 5.0683594 59.964844 L 4.8203125 59.78125 L 4.515625 59.712891 z M 12.515625 59.712891 L 12.212891 59.78125 L 11.964844 59.964844 L 11.796875 60.214844 L 11.736328 60.492188 L 11.806641 60.769531 L 11.988281 61.019531 L 12.238281 61.201172 L 12.515625 61.271484 L 12.792969 61.201172 L 13.042969 61.019531 L 13.226562 60.769531 L 13.296875 60.492188 L 13.234375 60.214844 L 13.068359 59.964844 L 12.820312 59.78125 L 12.515625 59.712891 z M 20.515625 59.712891 L 20.212891 59.78125 L 19.964844 59.964844 L 19.796875 60.214844 L 19.736328 60.492188 L 19.806641 60.769531 L 19.988281 61.019531 L 20.238281 61.201172 L 20.515625 61.271484 L 20.792969 61.201172 L 21.042969 61.019531 L 21.226562 60.769531 L 21.296875 60.492188 L 21.234375 60.214844 L 21.068359 59.964844 L 20.820312 59.78125 L 20.515625 59.712891 z M 28.515625 59.712891 L 28.212891 59.78125 L 27.964844 59.964844 L 27.796875 60.214844 L 27.736328 60.492188 L 27.806641 60.769531 L 27.988281 61.019531 L 28.238281 61.201172 L 28.515625 61.271484 L 28.792969 61.201172 L 29.042969 61.019531 L 29.226562 60.769531 L 29.296875 60.492188 L 29.234375 60.214844 L 29.068359 59.964844 L 28.820312 59.78125 L 28.515625 59.712891 z M 36.515625 59.712891 L 36.212891 59.78125 L 35.964844 59.964844 L 35.796875 60.214844 L 35.736328 60.492188 L 35.806641 60.769531 L 35.988281 61.019531 L 36.238281 61.201172 L 36.515625 61.271484 L 36.792969 61.201172 L 37.042969 61.019531 L 37.226562 60.769531 L 37.296875 60.492188 L 37.234375 60.214844 L 37.068359 59.964844 L 36.820312 59.78125 L 36.515625 59.712891 z M 44.515625 59.712891 L 44.212891 59.78125 L 43.964844 59.964844 L 43.796875 60.214844 L 43.736328 60.492188 L 43.806641 60.769531 L 43.988281 61.019531 L 44.238281 61.201172 L 44.515625 61.271484 L 44.792969 61.201172 L 45.042969 61.019531 L 45.226562 60.769531 L 45.296875 60.492188 L 45.234375 60.214844 L 45.068359 59.964844 L 44.820312 59.78125 L 44.515625 59.712891 z M 52.515625 59.712891 L 52.212891 59.78125 L 51.964844 59.964844 L 51.796875 60.214844 L 51.736328 60.492188 L 51.806641 60.769531 L 51.988281 61.019531 L 52.238281 61.201172 L 52.515625 61.271484 L 52.792969 61.201172 L 53.042969 61.019531 L 53.226562 60.769531 L 53.296875 60.492188 L 53.234375 60.214844 L 53.068359 59.964844 L 52.820312 59.78125 L 52.515625 59.712891 z M 60.515625 59.712891 L 60.212891 59.78125 L 59.964844 59.964844 L 59.796875 60.214844 L 59.736328 60.492188 L 59.806641 60.769531 L 59.988281 61.019531 L 60.238281 61.201172 L 60.515625 61.271484 L 60.792969 61.201172 L 61.042969 61.019531 L 61.226562 60.769531 L 61.296875 60.492188 L 61.234375 60.214844 L 61.068359 59.964844 L 60.820312 59.78125 L 60.515625 59.712891 z " style="fill:#f2efe9" />
  <rect
     style="fill:none;fill-opacity:1;stroke:none"
     id="rect8566"
     y="0"
     x="0"
     rx="0"
     height="64"
     width="64" />
  <desc
     id="desc654">Created with Snap</desc>
</svg>
