<svg xmlns="http://www.w3.org/2000/svg" id="Svg" width="512" height="512">
				<defs>
					<clipPath id="clipPath">
						
					<rect x="0" y="0" width="512" height="512"/></clipPath>
				<g transform="matrix(1,0,0,1,-5,-5)" id="gSidonz1q1ha"><g><path d="M 2,0 0,6 0,7 2,7 2,10 3,10 3,7 5,7 5,6 3,0 z M 2.5,1 4,6 1,6 z" fill="rgb(107,141,94)"/><path d="m 7,5 1,0 0,5 -1,0 z" fill="rgb(107,141,94)"/><path d="m 7.5,0 a 2.5,3 0 0 1 0,6 l 0,-1 a 1.5,2 0 0 0 0,-4 1.5,2 0 1 0 0,4 l 0,1 a 2.5,3 0 1 1 0,-6 z" fill="rgb(107,141,94)"/></g>
</g><g transform="matrix(1,0,0,1,-5,-5)" id="gSidonz1q1hb"><g><path d="m 2,5 1,0 0,5 -1,0 z" fill="rgb(107,141,94)"/><path d="m 2.5,0 a 2.5,3 0 0 1 0,6 l 0,-1 a 1.5,2 0 0 0 0,-4 1.5,2 0 1 0 0,4 l 0,1 a 2.5,3 0 1 1 0,-6 z" fill="rgb(107,141,94)"/><path d="M 7,0 5,6 5,7 7,7 7,10 8,10 8,7 10,7 10,6 8,0 z M 7.5,1 9,6 6,6 z" fill="rgb(107,141,94)"/></g>
</g></defs>
				<g style="clip-path: url(#clipPath);" id="Pattern">
				<use a0:href="#gSidonz1q1ha" xmlns:a0="http://www.w3.org/1999/xlink" x="73" y="180"/><use a1:href="#gSidonz1q1ha" xmlns:a1="http://www.w3.org/1999/xlink" x="312" y="201"/><use a2:href="#gSidonz1q1hb" xmlns:a2="http://www.w3.org/1999/xlink" x="326" y="181"/><use a3:href="#gSidonz1q1hb" xmlns:a3="http://www.w3.org/1999/xlink" x="408" y="435"/><use a4:href="#gSidonz1q1hb" xmlns:a4="http://www.w3.org/1999/xlink" x="114" y="30"/><use a5:href="#gSidonz1q1hb" xmlns:a5="http://www.w3.org/1999/xlink" x="114" y="542"/><use a6:href="#gSidonz1q1hb" xmlns:a6="http://www.w3.org/1999/xlink" x="410" y="75"/><use a7:href="#gSidonz1q1ha" xmlns:a7="http://www.w3.org/1999/xlink" x="52" y="318"/><use a8:href="#gSidonz1q1ha" xmlns:a8="http://www.w3.org/1999/xlink" x="564" y="318"/><use a9:href="#gSidonz1q1hb" xmlns:a9="http://www.w3.org/1999/xlink" x="196" y="226"/><use a10:href="#gSidonz1q1ha" xmlns:a10="http://www.w3.org/1999/xlink" x="153" y="288"/><use a11:href="#gSidonz1q1hb" xmlns:a11="http://www.w3.org/1999/xlink" x="108" y="349"/><use a12:href="#gSidonz1q1ha" xmlns:a12="http://www.w3.org/1999/xlink" x="118" y="252"/><use a13:href="#gSidonz1q1ha" xmlns:a13="http://www.w3.org/1999/xlink" x="288" y="490"/><use a14:href="#gSidonz1q1ha" xmlns:a14="http://www.w3.org/1999/xlink" x="288" y="-22"/><use a15:href="#gSidonz1q1hb" xmlns:a15="http://www.w3.org/1999/xlink" x="261" y="279"/><use a16:href="#gSidonz1q1hb" xmlns:a16="http://www.w3.org/1999/xlink" x="203" y="288"/><use a17:href="#gSidonz1q1ha" xmlns:a17="http://www.w3.org/1999/xlink" x="81" y="150"/><use a18:href="#gSidonz1q1ha" xmlns:a18="http://www.w3.org/1999/xlink" x="221" y="441"/><use a19:href="#gSidonz1q1hb" xmlns:a19="http://www.w3.org/1999/xlink" x="13" y="238"/><use a20:href="#gSidonz1q1hb" xmlns:a20="http://www.w3.org/1999/xlink" x="525" y="238"/><use a21:href="#gSidonz1q1ha" xmlns:a21="http://www.w3.org/1999/xlink" x="132" y="341"/><use a22:href="#gSidonz1q1hb" xmlns:a22="http://www.w3.org/1999/xlink" x="219" y="476"/><use a23:href="#gSidonz1q1hb" xmlns:a23="http://www.w3.org/1999/xlink" x="219" y="-36"/><use a24:href="#gSidonz1q1ha" xmlns:a24="http://www.w3.org/1999/xlink" x="443" y="367"/><use a25:href="#gSidonz1q1ha" xmlns:a25="http://www.w3.org/1999/xlink" x="352" y="488"/><use a26:href="#gSidonz1q1ha" xmlns:a26="http://www.w3.org/1999/xlink" x="352" y="-24"/><use a27:href="#gSidonz1q1ha" xmlns:a27="http://www.w3.org/1999/xlink" x="97" y="480"/><use a28:href="#gSidonz1q1ha" xmlns:a28="http://www.w3.org/1999/xlink" x="97" y="-32"/><use a29:href="#gSidonz1q1hb" xmlns:a29="http://www.w3.org/1999/xlink" x="44" y="431"/><use a30:href="#gSidonz1q1hb" xmlns:a30="http://www.w3.org/1999/xlink" x="556" y="431"/><use a31:href="#gSidonz1q1ha" xmlns:a31="http://www.w3.org/1999/xlink" x="167" y="439"/><use a32:href="#gSidonz1q1hb" xmlns:a32="http://www.w3.org/1999/xlink" x="496" y="269"/><use a33:href="#gSidonz1q1hb" xmlns:a33="http://www.w3.org/1999/xlink" x="-16" y="269"/><use a34:href="#gSidonz1q1ha" xmlns:a34="http://www.w3.org/1999/xlink" x="308" y="307"/><use a35:href="#gSidonz1q1hb" xmlns:a35="http://www.w3.org/1999/xlink" x="64" y="246"/><use a36:href="#gSidonz1q1ha" xmlns:a36="http://www.w3.org/1999/xlink" x="283" y="229"/><use a37:href="#gSidonz1q1ha" xmlns:a37="http://www.w3.org/1999/xlink" x="198" y="168"/><use a38:href="#gSidonz1q1ha" xmlns:a38="http://www.w3.org/1999/xlink" x="246" y="465"/><use a39:href="#gSidonz1q1ha" xmlns:a39="http://www.w3.org/1999/xlink" x="246" y="-47"/><use a40:href="#gSidonz1q1ha" xmlns:a40="http://www.w3.org/1999/xlink" x="251" y="402"/><use a41:href="#gSidonz1q1ha" xmlns:a41="http://www.w3.org/1999/xlink" x="426" y="309"/><use a42:href="#gSidonz1q1hb" xmlns:a42="http://www.w3.org/1999/xlink" x="502" y="342"/><use a43:href="#gSidonz1q1hb" xmlns:a43="http://www.w3.org/1999/xlink" x="-10" y="342"/><use a44:href="#gSidonz1q1ha" xmlns:a44="http://www.w3.org/1999/xlink" x="284" y="367"/><use a45:href="#gSidonz1q1ha" xmlns:a45="http://www.w3.org/1999/xlink" x="408" y="11"/><use a46:href="#gSidonz1q1ha" xmlns:a46="http://www.w3.org/1999/xlink" x="408" y="523"/><use a47:href="#gSidonz1q1hb" xmlns:a47="http://www.w3.org/1999/xlink" x="494" y="87"/><use a48:href="#gSidonz1q1hb" xmlns:a48="http://www.w3.org/1999/xlink" x="-18" y="87"/><use a49:href="#gSidonz1q1ha" xmlns:a49="http://www.w3.org/1999/xlink" x="8" y="415"/><use a50:href="#gSidonz1q1ha" xmlns:a50="http://www.w3.org/1999/xlink" x="520" y="415"/><use a51:href="#gSidonz1q1ha" xmlns:a51="http://www.w3.org/1999/xlink" x="31" y="110"/><use a52:href="#gSidonz1q1ha" xmlns:a52="http://www.w3.org/1999/xlink" x="543" y="110"/><use a53:href="#gSidonz1q1hb" xmlns:a53="http://www.w3.org/1999/xlink" x="83" y="43"/><use a54:href="#gSidonz1q1hb" xmlns:a54="http://www.w3.org/1999/xlink" x="83" y="555"/><use a55:href="#gSidonz1q1ha" xmlns:a55="http://www.w3.org/1999/xlink" x="204" y="1"/><use a56:href="#gSidonz1q1ha" xmlns:a56="http://www.w3.org/1999/xlink" x="204" y="513"/><use a57:href="#gSidonz1q1ha" xmlns:a57="http://www.w3.org/1999/xlink" x="179" y="270"/><use a58:href="#gSidonz1q1ha" xmlns:a58="http://www.w3.org/1999/xlink" x="436" y="402"/><use a59:href="#gSidonz1q1ha" xmlns:a59="http://www.w3.org/1999/xlink" x="219" y="198"/><use a60:href="#gSidonz1q1hb" xmlns:a60="http://www.w3.org/1999/xlink" x="255" y="251"/><use a61:href="#gSidonz1q1ha" xmlns:a61="http://www.w3.org/1999/xlink" x="321" y="29"/><use a62:href="#gSidonz1q1ha" xmlns:a62="http://www.w3.org/1999/xlink" x="321" y="541"/><use a63:href="#gSidonz1q1ha" xmlns:a63="http://www.w3.org/1999/xlink" x="195" y="131"/><use a64:href="#gSidonz1q1ha" xmlns:a64="http://www.w3.org/1999/xlink" x="262" y="161"/><use a65:href="#gSidonz1q1hb" xmlns:a65="http://www.w3.org/1999/xlink" x="51" y="159"/><use a66:href="#gSidonz1q1hb" xmlns:a66="http://www.w3.org/1999/xlink" x="563" y="159"/><use a67:href="#gSidonz1q1hb" xmlns:a67="http://www.w3.org/1999/xlink" x="324" y="279"/><use a68:href="#gSidonz1q1ha" xmlns:a68="http://www.w3.org/1999/xlink" x="120" y="467"/><use a69:href="#gSidonz1q1ha" xmlns:a69="http://www.w3.org/1999/xlink" x="120" y="-45"/><use a70:href="#gSidonz1q1ha" xmlns:a70="http://www.w3.org/1999/xlink" x="121" y="102"/><use a71:href="#gSidonz1q1ha" xmlns:a71="http://www.w3.org/1999/xlink" x="229" y="229"/><use a72:href="#gSidonz1q1hb" xmlns:a72="http://www.w3.org/1999/xlink" x="144" y="263"/><use a73:href="#gSidonz1q1ha" xmlns:a73="http://www.w3.org/1999/xlink" x="372" y="127"/><use a74:href="#gSidonz1q1ha" xmlns:a74="http://www.w3.org/1999/xlink" x="282" y="102"/><use a75:href="#gSidonz1q1hb" xmlns:a75="http://www.w3.org/1999/xlink" x="402" y="457"/><use a76:href="#gSidonz1q1hb" xmlns:a76="http://www.w3.org/1999/xlink" x="402" y="-55"/><use a77:href="#gSidonz1q1ha" xmlns:a77="http://www.w3.org/1999/xlink" x="68" y="212"/><use a78:href="#gSidonz1q1hb" xmlns:a78="http://www.w3.org/1999/xlink" x="309" y="121"/><use a79:href="#gSidonz1q1hb" xmlns:a79="http://www.w3.org/1999/xlink" x="438" y="340"/><use a80:href="#gSidonz1q1ha" xmlns:a80="http://www.w3.org/1999/xlink" x="181" y="339"/><use a81:href="#gSidonz1q1hb" xmlns:a81="http://www.w3.org/1999/xlink" x="21" y="355"/><use a82:href="#gSidonz1q1hb" xmlns:a82="http://www.w3.org/1999/xlink" x="533" y="355"/><use a83:href="#gSidonz1q1hb" xmlns:a83="http://www.w3.org/1999/xlink" x="67" y="399"/><use a84:href="#gSidonz1q1ha" xmlns:a84="http://www.w3.org/1999/xlink" x="493" y="315"/><use a85:href="#gSidonz1q1ha" xmlns:a85="http://www.w3.org/1999/xlink" x="-19" y="315"/><use a86:href="#gSidonz1q1hb" xmlns:a86="http://www.w3.org/1999/xlink" x="254" y="434"/><use a87:href="#gSidonz1q1hb" xmlns:a87="http://www.w3.org/1999/xlink" x="222" y="143"/><use a88:href="#gSidonz1q1hb" xmlns:a88="http://www.w3.org/1999/xlink" x="283" y="195"/><use a89:href="#gSidonz1q1ha" xmlns:a89="http://www.w3.org/1999/xlink" x="240" y="341"/><use a90:href="#gSidonz1q1hb" xmlns:a90="http://www.w3.org/1999/xlink" x="493" y="438"/><use a91:href="#gSidonz1q1hb" xmlns:a91="http://www.w3.org/1999/xlink" x="-19" y="438"/><use a92:href="#gSidonz1q1hb" xmlns:a92="http://www.w3.org/1999/xlink" x="159" y="387"/><use a93:href="#gSidonz1q1hb" xmlns:a93="http://www.w3.org/1999/xlink" x="384" y="43"/><use a94:href="#gSidonz1q1hb" xmlns:a94="http://www.w3.org/1999/xlink" x="384" y="555"/><use a95:href="#gSidonz1q1hb" xmlns:a95="http://www.w3.org/1999/xlink" x="494" y="406"/><use a96:href="#gSidonz1q1hb" xmlns:a96="http://www.w3.org/1999/xlink" x="-18" y="406"/><use a97:href="#gSidonz1q1ha" xmlns:a97="http://www.w3.org/1999/xlink" x="189" y="465"/><use a98:href="#gSidonz1q1ha" xmlns:a98="http://www.w3.org/1999/xlink" x="189" y="-47"/><use a99:href="#gSidonz1q1ha" xmlns:a99="http://www.w3.org/1999/xlink" x="130" y="492"/><use a100:href="#gSidonz1q1ha" xmlns:a100="http://www.w3.org/1999/xlink" x="130" y="-20"/><use a101:href="#gSidonz1q1hb" xmlns:a101="http://www.w3.org/1999/xlink" x="162" y="205"/><use a102:href="#gSidonz1q1hb" xmlns:a102="http://www.w3.org/1999/xlink" x="464" y="384"/><use a103:href="#gSidonz1q1hb" xmlns:a103="http://www.w3.org/1999/xlink" x="-48" y="384"/><use a104:href="#gSidonz1q1ha" xmlns:a104="http://www.w3.org/1999/xlink" x="421" y="501"/><use a105:href="#gSidonz1q1ha" xmlns:a105="http://www.w3.org/1999/xlink" x="421" y="-11"/><use a106:href="#gSidonz1q1hb" xmlns:a106="http://www.w3.org/1999/xlink" x="323" y="498"/><use a107:href="#gSidonz1q1hb" xmlns:a107="http://www.w3.org/1999/xlink" x="323" y="-14"/><use a108:href="#gSidonz1q1ha" xmlns:a108="http://www.w3.org/1999/xlink" x="65" y="287"/><use a109:href="#gSidonz1q1hb" xmlns:a109="http://www.w3.org/1999/xlink" x="358" y="181"/><use a110:href="#gSidonz1q1hb" xmlns:a110="http://www.w3.org/1999/xlink" x="341" y="403"/><use a111:href="#gSidonz1q1hb" xmlns:a111="http://www.w3.org/1999/xlink" x="2" y="298"/><use a112:href="#gSidonz1q1hb" xmlns:a112="http://www.w3.org/1999/xlink" x="514" y="298"/><use a113:href="#gSidonz1q1hb" xmlns:a113="http://www.w3.org/1999/xlink" x="373" y="463"/><use a114:href="#gSidonz1q1hb" xmlns:a114="http://www.w3.org/1999/xlink" x="373" y="-49"/><use a115:href="#gSidonz1q1hb" xmlns:a115="http://www.w3.org/1999/xlink" x="181" y="367"/><use a116:href="#gSidonz1q1ha" xmlns:a116="http://www.w3.org/1999/xlink" x="225" y="412"/><use a117:href="#gSidonz1q1hb" xmlns:a117="http://www.w3.org/1999/xlink" x="281" y="459"/><use a118:href="#gSidonz1q1hb" xmlns:a118="http://www.w3.org/1999/xlink" x="281" y="-53"/><use a119:href="#gSidonz1q1hb" xmlns:a119="http://www.w3.org/1999/xlink" x="231" y="378"/><use a120:href="#gSidonz1q1hb" xmlns:a120="http://www.w3.org/1999/xlink" x="407" y="250"/><use a121:href="#gSidonz1q1ha" xmlns:a121="http://www.w3.org/1999/xlink" x="78" y="16"/><use a122:href="#gSidonz1q1ha" xmlns:a122="http://www.w3.org/1999/xlink" x="78" y="528"/><use a123:href="#gSidonz1q1hb" xmlns:a123="http://www.w3.org/1999/xlink" x="222" y="113"/><use a124:href="#gSidonz1q1ha" xmlns:a124="http://www.w3.org/1999/xlink" x="103" y="435"/><use a125:href="#gSidonz1q1ha" xmlns:a125="http://www.w3.org/1999/xlink" x="454" y="137"/><use a126:href="#gSidonz1q1ha" xmlns:a126="http://www.w3.org/1999/xlink" x="-58" y="137"/><use a127:href="#gSidonz1q1hb" xmlns:a127="http://www.w3.org/1999/xlink" x="18" y="141"/><use a128:href="#gSidonz1q1hb" xmlns:a128="http://www.w3.org/1999/xlink" x="530" y="141"/><use a129:href="#gSidonz1q1ha" xmlns:a129="http://www.w3.org/1999/xlink" x="117" y="283"/><use a130:href="#gSidonz1q1hb" xmlns:a130="http://www.w3.org/1999/xlink" x="324" y="146"/><use a131:href="#gSidonz1q1ha" xmlns:a131="http://www.w3.org/1999/xlink" x="239" y="293"/><use a132:href="#gSidonz1q1hb" xmlns:a132="http://www.w3.org/1999/xlink" x="415" y="167"/><use a133:href="#gSidonz1q1hb" xmlns:a133="http://www.w3.org/1999/xlink" x="131" y="378"/><use a134:href="#gSidonz1q1ha" xmlns:a134="http://www.w3.org/1999/xlink" x="283" y="134"/><use a135:href="#gSidonz1q1hb" xmlns:a135="http://www.w3.org/1999/xlink" x="389" y="188"/><use a136:href="#gSidonz1q1ha" xmlns:a136="http://www.w3.org/1999/xlink" x="501" y="150"/><use a137:href="#gSidonz1q1ha" xmlns:a137="http://www.w3.org/1999/xlink" x="-11" y="150"/><use a138:href="#gSidonz1q1hb" xmlns:a138="http://www.w3.org/1999/xlink" x="253" y="135"/><use a139:href="#gSidonz1q1hb" xmlns:a139="http://www.w3.org/1999/xlink" x="51" y="495"/><use a140:href="#gSidonz1q1hb" xmlns:a140="http://www.w3.org/1999/xlink" x="563" y="495"/><use a141:href="#gSidonz1q1hb" xmlns:a141="http://www.w3.org/1999/xlink" x="563" y="-17"/><use a142:href="#gSidonz1q1hb" xmlns:a142="http://www.w3.org/1999/xlink" x="51" y="-17"/><use a143:href="#gSidonz1q1hb" xmlns:a143="http://www.w3.org/1999/xlink" x="563" y="-17"/><use a144:href="#gSidonz1q1ha" xmlns:a144="http://www.w3.org/1999/xlink" x="267" y="9"/><use a145:href="#gSidonz1q1ha" xmlns:a145="http://www.w3.org/1999/xlink" x="267" y="521"/><use a146:href="#gSidonz1q1hb" xmlns:a146="http://www.w3.org/1999/xlink" x="405" y="221"/><use a147:href="#gSidonz1q1ha" xmlns:a147="http://www.w3.org/1999/xlink" x="474" y="42"/><use a148:href="#gSidonz1q1ha" xmlns:a148="http://www.w3.org/1999/xlink" x="-38" y="42"/><use a149:href="#gSidonz1q1ha" xmlns:a149="http://www.w3.org/1999/xlink" x="-38" y="554"/><use a150:href="#gSidonz1q1ha" xmlns:a150="http://www.w3.org/1999/xlink" x="474" y="554"/><use a151:href="#gSidonz1q1ha" xmlns:a151="http://www.w3.org/1999/xlink" x="-38" y="554"/><use a152:href="#gSidonz1q1hb" xmlns:a152="http://www.w3.org/1999/xlink" x="466" y="105"/><use a153:href="#gSidonz1q1hb" xmlns:a153="http://www.w3.org/1999/xlink" x="-46" y="105"/><use a154:href="#gSidonz1q1ha" xmlns:a154="http://www.w3.org/1999/xlink" x="92" y="269"/><use a155:href="#gSidonz1q1hb" xmlns:a155="http://www.w3.org/1999/xlink" x="114" y="64"/><use a156:href="#gSidonz1q1ha" xmlns:a156="http://www.w3.org/1999/xlink" x="82" y="336"/><use a157:href="#gSidonz1q1hb" xmlns:a157="http://www.w3.org/1999/xlink" x="202" y="255"/><use a158:href="#gSidonz1q1hb" xmlns:a158="http://www.w3.org/1999/xlink" x="164" y="171"/><use a159:href="#gSidonz1q1hb" xmlns:a159="http://www.w3.org/1999/xlink" x="478" y="290"/><use a160:href="#gSidonz1q1hb" xmlns:a160="http://www.w3.org/1999/xlink" x="-34" y="290"/><use a161:href="#gSidonz1q1ha" xmlns:a161="http://www.w3.org/1999/xlink" x="297" y="9"/><use a162:href="#gSidonz1q1ha" xmlns:a162="http://www.w3.org/1999/xlink" x="297" y="521"/><use a163:href="#gSidonz1q1ha" xmlns:a163="http://www.w3.org/1999/xlink" x="159" y="497"/><use a164:href="#gSidonz1q1ha" xmlns:a164="http://www.w3.org/1999/xlink" x="159" y="-15"/><use a165:href="#gSidonz1q1hb" xmlns:a165="http://www.w3.org/1999/xlink" x="298" y="73"/><use a166:href="#gSidonz1q1ha" xmlns:a166="http://www.w3.org/1999/xlink" x="96" y="379"/><use a167:href="#gSidonz1q1hb" xmlns:a167="http://www.w3.org/1999/xlink" x="359" y="268"/><use a168:href="#gSidonz1q1hb" xmlns:a168="http://www.w3.org/1999/xlink" x="141" y="15"/><use a169:href="#gSidonz1q1hb" xmlns:a169="http://www.w3.org/1999/xlink" x="141" y="527"/><use a170:href="#gSidonz1q1ha" xmlns:a170="http://www.w3.org/1999/xlink" x="345" y="243"/><use a171:href="#gSidonz1q1hb" xmlns:a171="http://www.w3.org/1999/xlink" x="436" y="433"/><use a172:href="#gSidonz1q1ha" xmlns:a172="http://www.w3.org/1999/xlink" x="235" y="80"/><use a173:href="#gSidonz1q1ha" xmlns:a173="http://www.w3.org/1999/xlink" x="98" y="202"/><use a174:href="#gSidonz1q1hb" xmlns:a174="http://www.w3.org/1999/xlink" x="259" y="493"/><use a175:href="#gSidonz1q1hb" xmlns:a175="http://www.w3.org/1999/xlink" x="259" y="-19"/><use a176:href="#gSidonz1q1ha" xmlns:a176="http://www.w3.org/1999/xlink" x="318" y="435"/><use a177:href="#gSidonz1q1hb" xmlns:a177="http://www.w3.org/1999/xlink" x="90" y="411"/><use a178:href="#gSidonz1q1hb" xmlns:a178="http://www.w3.org/1999/xlink" x="267" y="72"/><use a179:href="#gSidonz1q1ha" xmlns:a179="http://www.w3.org/1999/xlink" x="23" y="21"/><use a180:href="#gSidonz1q1ha" xmlns:a180="http://www.w3.org/1999/xlink" x="535" y="21"/><use a181:href="#gSidonz1q1ha" xmlns:a181="http://www.w3.org/1999/xlink" x="535" y="533"/><use a182:href="#gSidonz1q1ha" xmlns:a182="http://www.w3.org/1999/xlink" x="23" y="533"/><use a183:href="#gSidonz1q1ha" xmlns:a183="http://www.w3.org/1999/xlink" x="535" y="533"/><use a184:href="#gSidonz1q1ha" xmlns:a184="http://www.w3.org/1999/xlink" x="51" y="133"/><use a185:href="#gSidonz1q1ha" xmlns:a185="http://www.w3.org/1999/xlink" x="563" y="133"/><use a186:href="#gSidonz1q1hb" xmlns:a186="http://www.w3.org/1999/xlink" x="11" y="443"/><use a187:href="#gSidonz1q1hb" xmlns:a187="http://www.w3.org/1999/xlink" x="523" y="443"/><use a188:href="#gSidonz1q1hb" xmlns:a188="http://www.w3.org/1999/xlink" x="206" y="28"/><use a189:href="#gSidonz1q1hb" xmlns:a189="http://www.w3.org/1999/xlink" x="206" y="540"/><use a190:href="#gSidonz1q1ha" xmlns:a190="http://www.w3.org/1999/xlink" x="336" y="310"/><use a191:href="#gSidonz1q1hb" xmlns:a191="http://www.w3.org/1999/xlink" x="205" y="92"/><use a192:href="#gSidonz1q1ha" xmlns:a192="http://www.w3.org/1999/xlink" x="385" y="376"/><use a193:href="#gSidonz1q1ha" xmlns:a193="http://www.w3.org/1999/xlink" x="175" y="15"/><use a194:href="#gSidonz1q1ha" xmlns:a194="http://www.w3.org/1999/xlink" x="175" y="527"/><use a195:href="#gSidonz1q1hb" xmlns:a195="http://www.w3.org/1999/xlink" x="503" y="179"/><use a196:href="#gSidonz1q1hb" xmlns:a196="http://www.w3.org/1999/xlink" x="-9" y="179"/><use a197:href="#gSidonz1q1hb" xmlns:a197="http://www.w3.org/1999/xlink" x="374" y="217"/><use a198:href="#gSidonz1q1ha" xmlns:a198="http://www.w3.org/1999/xlink" x="265" y="314"/><use a199:href="#gSidonz1q1ha" xmlns:a199="http://www.w3.org/1999/xlink" x="171" y="75"/><use a200:href="#gSidonz1q1ha" xmlns:a200="http://www.w3.org/1999/xlink" x="44" y="459"/><use a201:href="#gSidonz1q1ha" xmlns:a201="http://www.w3.org/1999/xlink" x="556" y="459"/><use a202:href="#gSidonz1q1ha" xmlns:a202="http://www.w3.org/1999/xlink" x="556" y="-53"/><use a203:href="#gSidonz1q1ha" xmlns:a203="http://www.w3.org/1999/xlink" x="44" y="-53"/><use a204:href="#gSidonz1q1ha" xmlns:a204="http://www.w3.org/1999/xlink" x="556" y="-53"/><use a205:href="#gSidonz1q1ha" xmlns:a205="http://www.w3.org/1999/xlink" x="444" y="48"/><use a206:href="#gSidonz1q1ha" xmlns:a206="http://www.w3.org/1999/xlink" x="444" y="560"/><use a207:href="#gSidonz1q1hb" xmlns:a207="http://www.w3.org/1999/xlink" x="405" y="133"/><use a208:href="#gSidonz1q1ha" xmlns:a208="http://www.w3.org/1999/xlink" x="345" y="429"/><use a209:href="#gSidonz1q1ha" xmlns:a209="http://www.w3.org/1999/xlink" x="87" y="234"/><use a210:href="#gSidonz1q1ha" xmlns:a210="http://www.w3.org/1999/xlink" x="47" y="343"/><use a211:href="#gSidonz1q1ha" xmlns:a211="http://www.w3.org/1999/xlink" x="559" y="343"/><use a212:href="#gSidonz1q1hb" xmlns:a212="http://www.w3.org/1999/xlink" x="432" y="136"/><use a213:href="#gSidonz1q1hb" xmlns:a213="http://www.w3.org/1999/xlink" x="80" y="117"/><use a214:href="#gSidonz1q1hb" xmlns:a214="http://www.w3.org/1999/xlink" x="189" y="493"/><use a215:href="#gSidonz1q1hb" xmlns:a215="http://www.w3.org/1999/xlink" x="189" y="-19"/><use a216:href="#gSidonz1q1hb" xmlns:a216="http://www.w3.org/1999/xlink" x="499" y="502"/><use a217:href="#gSidonz1q1hb" xmlns:a217="http://www.w3.org/1999/xlink" x="-13" y="502"/><use a218:href="#gSidonz1q1hb" xmlns:a218="http://www.w3.org/1999/xlink" x="-13" y="-10"/><use a219:href="#gSidonz1q1hb" xmlns:a219="http://www.w3.org/1999/xlink" x="499" y="-10"/><use a220:href="#gSidonz1q1hb" xmlns:a220="http://www.w3.org/1999/xlink" x="-13" y="-10"/><use a221:href="#gSidonz1q1hb" xmlns:a221="http://www.w3.org/1999/xlink" x="15" y="205"/><use a222:href="#gSidonz1q1hb" xmlns:a222="http://www.w3.org/1999/xlink" x="527" y="205"/><use a223:href="#gSidonz1q1ha" xmlns:a223="http://www.w3.org/1999/xlink" x="259" y="353"/><use a224:href="#gSidonz1q1hb" xmlns:a224="http://www.w3.org/1999/xlink" x="143" y="132"/><use a225:href="#gSidonz1q1ha" xmlns:a225="http://www.w3.org/1999/xlink" x="399" y="105"/><use a226:href="#gSidonz1q1hb" xmlns:a226="http://www.w3.org/1999/xlink" x="204" y="65"/><use a227:href="#gSidonz1q1hb" xmlns:a227="http://www.w3.org/1999/xlink" x="465" y="413"/><use a228:href="#gSidonz1q1hb" xmlns:a228="http://www.w3.org/1999/xlink" x="-47" y="413"/><use a229:href="#gSidonz1q1hb" xmlns:a229="http://www.w3.org/1999/xlink" x="344" y="458"/><use a230:href="#gSidonz1q1hb" xmlns:a230="http://www.w3.org/1999/xlink" x="344" y="-54"/><use a231:href="#gSidonz1q1ha" xmlns:a231="http://www.w3.org/1999/xlink" x="407" y="343"/><use a232:href="#gSidonz1q1ha" xmlns:a232="http://www.w3.org/1999/xlink" x="470" y="72"/><use a233:href="#gSidonz1q1ha" xmlns:a233="http://www.w3.org/1999/xlink" x="-42" y="72"/><use a234:href="#gSidonz1q1ha" xmlns:a234="http://www.w3.org/1999/xlink" x="312" y="403"/><use a235:href="#gSidonz1q1hb" xmlns:a235="http://www.w3.org/1999/xlink" x="383" y="70"/><use a236:href="#gSidonz1q1ha" xmlns:a236="http://www.w3.org/1999/xlink" x="119" y="403"/><use a237:href="#gSidonz1q1hb" xmlns:a237="http://www.w3.org/1999/xlink" x="18" y="173"/><use a238:href="#gSidonz1q1hb" xmlns:a238="http://www.w3.org/1999/xlink" x="530" y="173"/><use a239:href="#gSidonz1q1hb" xmlns:a239="http://www.w3.org/1999/xlink" x="43" y="70"/><use a240:href="#gSidonz1q1hb" xmlns:a240="http://www.w3.org/1999/xlink" x="555" y="70"/><use a241:href="#gSidonz1q1ha" xmlns:a241="http://www.w3.org/1999/xlink" x="414" y="373"/><use a242:href="#gSidonz1q1ha" xmlns:a242="http://www.w3.org/1999/xlink" x="287" y="296"/><use a243:href="#gSidonz1q1hb" xmlns:a243="http://www.w3.org/1999/xlink" x="376" y="350"/><use a244:href="#gSidonz1q1ha" xmlns:a244="http://www.w3.org/1999/xlink" x="82" y="503"/><use a245:href="#gSidonz1q1ha" xmlns:a245="http://www.w3.org/1999/xlink" x="82" y="-9"/><use a246:href="#gSidonz1q1ha" xmlns:a246="http://www.w3.org/1999/xlink" x="466" y="448"/><use a247:href="#gSidonz1q1ha" xmlns:a247="http://www.w3.org/1999/xlink" x="-46" y="448"/><use a248:href="#gSidonz1q1hb" xmlns:a248="http://www.w3.org/1999/xlink" x="295" y="384"/><use a249:href="#gSidonz1q1ha" xmlns:a249="http://www.w3.org/1999/xlink" x="204" y="321"/><use a250:href="#gSidonz1q1hb" xmlns:a250="http://www.w3.org/1999/xlink" x="292" y="262"/><use a251:href="#gSidonz1q1hb" xmlns:a251="http://www.w3.org/1999/xlink" x="153" y="104"/><use a252:href="#gSidonz1q1ha" xmlns:a252="http://www.w3.org/1999/xlink" x="18" y="506"/><use a253:href="#gSidonz1q1ha" xmlns:a253="http://www.w3.org/1999/xlink" x="530" y="506"/><use a254:href="#gSidonz1q1ha" xmlns:a254="http://www.w3.org/1999/xlink" x="530" y="-6"/><use a255:href="#gSidonz1q1ha" xmlns:a255="http://www.w3.org/1999/xlink" x="18" y="-6"/><use a256:href="#gSidonz1q1ha" xmlns:a256="http://www.w3.org/1999/xlink" x="530" y="-6"/><use a257:href="#gSidonz1q1hb" xmlns:a257="http://www.w3.org/1999/xlink" x="470" y="163"/><use a258:href="#gSidonz1q1hb" xmlns:a258="http://www.w3.org/1999/xlink" x="-42" y="163"/><use a259:href="#gSidonz1q1ha" xmlns:a259="http://www.w3.org/1999/xlink" x="176" y="305"/><use a260:href="#gSidonz1q1ha" xmlns:a260="http://www.w3.org/1999/xlink" x="467" y="229"/><use a261:href="#gSidonz1q1ha" xmlns:a261="http://www.w3.org/1999/xlink" x="-45" y="229"/><use a262:href="#gSidonz1q1hb" xmlns:a262="http://www.w3.org/1999/xlink" x="442" y="469"/><use a263:href="#gSidonz1q1hb" xmlns:a263="http://www.w3.org/1999/xlink" x="442" y="-43"/><use a264:href="#gSidonz1q1ha" xmlns:a264="http://www.w3.org/1999/xlink" x="443" y="20"/><use a265:href="#gSidonz1q1ha" xmlns:a265="http://www.w3.org/1999/xlink" x="443" y="532"/><use a266:href="#gSidonz1q1ha" xmlns:a266="http://www.w3.org/1999/xlink" x="121" y="219"/><use a267:href="#gSidonz1q1hb" xmlns:a267="http://www.w3.org/1999/xlink" x="69" y="364"/><use a268:href="#gSidonz1q1hb" xmlns:a268="http://www.w3.org/1999/xlink" x="310" y="471"/><use a269:href="#gSidonz1q1hb" xmlns:a269="http://www.w3.org/1999/xlink" x="310" y="-41"/><use a270:href="#gSidonz1q1hb" xmlns:a270="http://www.w3.org/1999/xlink" x="52" y="47"/><use a271:href="#gSidonz1q1hb" xmlns:a271="http://www.w3.org/1999/xlink" x="564" y="47"/><use a272:href="#gSidonz1q1hb" xmlns:a272="http://www.w3.org/1999/xlink" x="564" y="559"/><use a273:href="#gSidonz1q1hb" xmlns:a273="http://www.w3.org/1999/xlink" x="52" y="559"/><use a274:href="#gSidonz1q1hb" xmlns:a274="http://www.w3.org/1999/xlink" x="564" y="559"/><use a275:href="#gSidonz1q1ha" xmlns:a275="http://www.w3.org/1999/xlink" x="37" y="407"/><use a276:href="#gSidonz1q1ha" xmlns:a276="http://www.w3.org/1999/xlink" x="549" y="407"/><use a277:href="#gSidonz1q1ha" xmlns:a277="http://www.w3.org/1999/xlink" x="107" y="164"/><use a278:href="#gSidonz1q1hb" xmlns:a278="http://www.w3.org/1999/xlink" x="43" y="263"/><use a279:href="#gSidonz1q1hb" xmlns:a279="http://www.w3.org/1999/xlink" x="555" y="263"/><use a280:href="#gSidonz1q1ha" xmlns:a280="http://www.w3.org/1999/xlink" x="130" y="442"/><use a281:href="#gSidonz1q1ha" xmlns:a281="http://www.w3.org/1999/xlink" x="315" y="250"/><use a282:href="#gSidonz1q1ha" xmlns:a282="http://www.w3.org/1999/xlink" x="472" y="8"/><use a283:href="#gSidonz1q1ha" xmlns:a283="http://www.w3.org/1999/xlink" x="-40" y="8"/><use a284:href="#gSidonz1q1ha" xmlns:a284="http://www.w3.org/1999/xlink" x="-40" y="520"/><use a285:href="#gSidonz1q1ha" xmlns:a285="http://www.w3.org/1999/xlink" x="472" y="520"/><use a286:href="#gSidonz1q1ha" xmlns:a286="http://www.w3.org/1999/xlink" x="-40" y="520"/><use a287:href="#gSidonz1q1ha" xmlns:a287="http://www.w3.org/1999/xlink" x="448" y="289"/><use a288:href="#gSidonz1q1hb" xmlns:a288="http://www.w3.org/1999/xlink" x="193" y="194"/><use a289:href="#gSidonz1q1ha" xmlns:a289="http://www.w3.org/1999/xlink" x="0" y="115"/><use a290:href="#gSidonz1q1ha" xmlns:a290="http://www.w3.org/1999/xlink" x="512" y="115"/><use a291:href="#gSidonz1q1ha" xmlns:a291="http://www.w3.org/1999/xlink" x="449" y="500"/><use a292:href="#gSidonz1q1ha" xmlns:a292="http://www.w3.org/1999/xlink" x="-63" y="500"/><use a293:href="#gSidonz1q1ha" xmlns:a293="http://www.w3.org/1999/xlink" x="-63" y="-12"/><use a294:href="#gSidonz1q1ha" xmlns:a294="http://www.w3.org/1999/xlink" x="449" y="-12"/><use a295:href="#gSidonz1q1ha" xmlns:a295="http://www.w3.org/1999/xlink" x="-63" y="-12"/><use a296:href="#gSidonz1q1hb" xmlns:a296="http://www.w3.org/1999/xlink" x="443" y="79"/><use a297:href="#gSidonz1q1hb" xmlns:a297="http://www.w3.org/1999/xlink" x="10" y="268"/><use a298:href="#gSidonz1q1hb" xmlns:a298="http://www.w3.org/1999/xlink" x="522" y="268"/><use a299:href="#gSidonz1q1ha" xmlns:a299="http://www.w3.org/1999/xlink" x="259" y="188"/><use a300:href="#gSidonz1q1hb" xmlns:a300="http://www.w3.org/1999/xlink" x="505" y="469"/><use a301:href="#gSidonz1q1hb" xmlns:a301="http://www.w3.org/1999/xlink" x="-7" y="469"/><use a302:href="#gSidonz1q1hb" xmlns:a302="http://www.w3.org/1999/xlink" x="-7" y="-43"/><use a303:href="#gSidonz1q1hb" xmlns:a303="http://www.w3.org/1999/xlink" x="505" y="-43"/><use a304:href="#gSidonz1q1hb" xmlns:a304="http://www.w3.org/1999/xlink" x="-7" y="-43"/><use a305:href="#gSidonz1q1hb" xmlns:a305="http://www.w3.org/1999/xlink" x="473" y="477"/><use a306:href="#gSidonz1q1hb" xmlns:a306="http://www.w3.org/1999/xlink" x="-39" y="477"/><use a307:href="#gSidonz1q1hb" xmlns:a307="http://www.w3.org/1999/xlink" x="-39" y="-35"/><use a308:href="#gSidonz1q1hb" xmlns:a308="http://www.w3.org/1999/xlink" x="473" y="-35"/><use a309:href="#gSidonz1q1hb" xmlns:a309="http://www.w3.org/1999/xlink" x="-39" y="-35"/><use a310:href="#gSidonz1q1ha" xmlns:a310="http://www.w3.org/1999/xlink" x="144" y="42"/><use a311:href="#gSidonz1q1ha" xmlns:a311="http://www.w3.org/1999/xlink" x="144" y="554"/><use a312:href="#gSidonz1q1hb" xmlns:a312="http://www.w3.org/1999/xlink" x="463" y="320"/><use a313:href="#gSidonz1q1hb" xmlns:a313="http://www.w3.org/1999/xlink" x="-49" y="320"/><use a314:href="#gSidonz1q1hb" xmlns:a314="http://www.w3.org/1999/xlink" x="262" y="41"/><use a315:href="#gSidonz1q1hb" xmlns:a315="http://www.w3.org/1999/xlink" x="262" y="553"/><use a316:href="#gSidonz1q1ha" xmlns:a316="http://www.w3.org/1999/xlink" x="386" y="160"/><use a317:href="#gSidonz1q1hb" xmlns:a317="http://www.w3.org/1999/xlink" x="343" y="342"/><use a318:href="#gSidonz1q1ha" xmlns:a318="http://www.w3.org/1999/xlink" x="322" y="59"/><use a319:href="#gSidonz1q1ha" xmlns:a319="http://www.w3.org/1999/xlink" x="322" y="571"/><use a320:href="#gSidonz1q1hb" xmlns:a320="http://www.w3.org/1999/xlink" x="226" y="314"/><use a321:href="#gSidonz1q1ha" xmlns:a321="http://www.w3.org/1999/xlink" x="321" y="369"/><use a322:href="#gSidonz1q1ha" xmlns:a322="http://www.w3.org/1999/xlink" x="314" y="227"/><use a323:href="#gSidonz1q1ha" xmlns:a323="http://www.w3.org/1999/xlink" x="254" y="105"/><use a324:href="#gSidonz1q1hb" xmlns:a324="http://www.w3.org/1999/xlink" x="131" y="190"/><use a325:href="#gSidonz1q1ha" xmlns:a325="http://www.w3.org/1999/xlink" x="233" y="500"/><use a326:href="#gSidonz1q1ha" xmlns:a326="http://www.w3.org/1999/xlink" x="233" y="-12"/><use a327:href="#gSidonz1q1ha" xmlns:a327="http://www.w3.org/1999/xlink" x="494" y="374"/><use a328:href="#gSidonz1q1ha" xmlns:a328="http://www.w3.org/1999/xlink" x="-18" y="374"/><use a329:href="#gSidonz1q1ha" xmlns:a329="http://www.w3.org/1999/xlink" x="253" y="216"/><use a330:href="#gSidonz1q1hb" xmlns:a330="http://www.w3.org/1999/xlink" x="350" y="373"/><use a331:href="#gSidonz1q1ha" xmlns:a331="http://www.w3.org/1999/xlink" x="353" y="40"/><use a332:href="#gSidonz1q1ha" xmlns:a332="http://www.w3.org/1999/xlink" x="353" y="552"/><use a333:href="#gSidonz1q1ha" xmlns:a333="http://www.w3.org/1999/xlink" x="19" y="322"/><use a334:href="#gSidonz1q1ha" xmlns:a334="http://www.w3.org/1999/xlink" x="531" y="322"/><use a335:href="#gSidonz1q1hb" xmlns:a335="http://www.w3.org/1999/xlink" x="277" y="409"/><use a336:href="#gSidonz1q1ha" xmlns:a336="http://www.w3.org/1999/xlink" x="438" y="250"/><use a337:href="#gSidonz1q1hb" xmlns:a337="http://www.w3.org/1999/xlink" x="91" y="304"/><use a338:href="#gSidonz1q1hb" xmlns:a338="http://www.w3.org/1999/xlink" x="379" y="15"/><use a339:href="#gSidonz1q1hb" xmlns:a339="http://www.w3.org/1999/xlink" x="379" y="527"/><use a340:href="#gSidonz1q1hb" xmlns:a340="http://www.w3.org/1999/xlink" x="353" y="152"/><use a341:href="#gSidonz1q1ha" xmlns:a341="http://www.w3.org/1999/xlink" x="41" y="381"/><use a342:href="#gSidonz1q1ha" xmlns:a342="http://www.w3.org/1999/xlink" x="553" y="381"/><use a343:href="#gSidonz1q1ha" xmlns:a343="http://www.w3.org/1999/xlink" x="469" y="194"/><use a344:href="#gSidonz1q1ha" xmlns:a344="http://www.w3.org/1999/xlink" x="-43" y="194"/><use a345:href="#gSidonz1q1ha" xmlns:a345="http://www.w3.org/1999/xlink" x="142" y="311"/><use a346:href="#gSidonz1q1hb" xmlns:a346="http://www.w3.org/1999/xlink" x="35" y="293"/><use a347:href="#gSidonz1q1hb" xmlns:a347="http://www.w3.org/1999/xlink" x="547" y="293"/><use a348:href="#gSidonz1q1ha" xmlns:a348="http://www.w3.org/1999/xlink" x="285" y="434"/><use a349:href="#gSidonz1q1ha" xmlns:a349="http://www.w3.org/1999/xlink" x="388" y="282"/><use a350:href="#gSidonz1q1hb" xmlns:a350="http://www.w3.org/1999/xlink" x="154" y="352"/><use a351:href="#gSidonz1q1hb" xmlns:a351="http://www.w3.org/1999/xlink" x="7" y="379"/><use a352:href="#gSidonz1q1hb" xmlns:a352="http://www.w3.org/1999/xlink" x="519" y="379"/><use a353:href="#gSidonz1q1ha" xmlns:a353="http://www.w3.org/1999/xlink" x="345" y="9"/><use a354:href="#gSidonz1q1ha" xmlns:a354="http://www.w3.org/1999/xlink" x="345" y="521"/><use a355:href="#gSidonz1q1ha" xmlns:a355="http://www.w3.org/1999/xlink" x="159" y="465"/><use a356:href="#gSidonz1q1ha" xmlns:a356="http://www.w3.org/1999/xlink" x="159" y="-47"/><use a357:href="#gSidonz1q1ha" xmlns:a357="http://www.w3.org/1999/xlink" x="399" y="313"/><use a358:href="#gSidonz1q1hb" xmlns:a358="http://www.w3.org/1999/xlink" x="237" y="17"/><use a359:href="#gSidonz1q1hb" xmlns:a359="http://www.w3.org/1999/xlink" x="237" y="529"/><use a360:href="#gSidonz1q1hb" xmlns:a360="http://www.w3.org/1999/xlink" x="385" y="496"/><use a361:href="#gSidonz1q1hb" xmlns:a361="http://www.w3.org/1999/xlink" x="385" y="-16"/><use a362:href="#gSidonz1q1hb" xmlns:a362="http://www.w3.org/1999/xlink" x="490" y="212"/><use a363:href="#gSidonz1q1hb" xmlns:a363="http://www.w3.org/1999/xlink" x="-22" y="212"/><use a364:href="#gSidonz1q1hb" xmlns:a364="http://www.w3.org/1999/xlink" x="149" y="415"/><use a365:href="#gSidonz1q1hb" xmlns:a365="http://www.w3.org/1999/xlink" x="377" y="242"/><use a366:href="#gSidonz1q1ha" xmlns:a366="http://www.w3.org/1999/xlink" x="135" y="161"/><use a367:href="#gSidonz1q1ha" xmlns:a367="http://www.w3.org/1999/xlink" x="446" y="182"/><use a368:href="#gSidonz1q1ha" xmlns:a368="http://www.w3.org/1999/xlink" x="405" y="407"/><use a369:href="#gSidonz1q1ha" xmlns:a369="http://www.w3.org/1999/xlink" x="421" y="195"/><use a370:href="#gSidonz1q1hb" xmlns:a370="http://www.w3.org/1999/xlink" x="169" y="144"/><use a371:href="#gSidonz1q1hb" xmlns:a371="http://www.w3.org/1999/xlink" x="324" y="94"/><use a372:href="#gSidonz1q1ha" xmlns:a372="http://www.w3.org/1999/xlink" x="372" y="400"/><use a373:href="#gSidonz1q1hb" xmlns:a373="http://www.w3.org/1999/xlink" x="438" y="223"/><use a374:href="#gSidonz1q1hb" xmlns:a374="http://www.w3.org/1999/xlink" x="501" y="52"/><use a375:href="#gSidonz1q1hb" xmlns:a375="http://www.w3.org/1999/xlink" x="-11" y="52"/><use a376:href="#gSidonz1q1hb" xmlns:a376="http://www.w3.org/1999/xlink" x="-11" y="564"/><use a377:href="#gSidonz1q1hb" xmlns:a377="http://www.w3.org/1999/xlink" x="501" y="564"/><use a378:href="#gSidonz1q1hb" xmlns:a378="http://www.w3.org/1999/xlink" x="-11" y="564"/><use a379:href="#gSidonz1q1ha" xmlns:a379="http://www.w3.org/1999/xlink" x="39" y="192"/><use a380:href="#gSidonz1q1ha" xmlns:a380="http://www.w3.org/1999/xlink" x="551" y="192"/><use a381:href="#gSidonz1q1ha" xmlns:a381="http://www.w3.org/1999/xlink" x="343" y="207"/><use a382:href="#gSidonz1q1hb" xmlns:a382="http://www.w3.org/1999/xlink" x="114" y="318"/><use a383:href="#gSidonz1q1ha" xmlns:a383="http://www.w3.org/1999/xlink" x="342" y="119"/><use a384:href="#gSidonz1q1hb" xmlns:a384="http://www.w3.org/1999/xlink" x="233" y="175"/><use a385:href="#gSidonz1q1hb" xmlns:a385="http://www.w3.org/1999/xlink" x="141" y="72"/><use a386:href="#gSidonz1q1ha" xmlns:a386="http://www.w3.org/1999/xlink" x="40" y="228"/><use a387:href="#gSidonz1q1ha" xmlns:a387="http://www.w3.org/1999/xlink" x="552" y="228"/><use a388:href="#gSidonz1q1hb" xmlns:a388="http://www.w3.org/1999/xlink" x="313" y="339"/><use a389:href="#gSidonz1q1ha" xmlns:a389="http://www.w3.org/1999/xlink" x="483" y="129"/><use a390:href="#gSidonz1q1ha" xmlns:a390="http://www.w3.org/1999/xlink" x="-29" y="129"/><use a391:href="#gSidonz1q1hb" xmlns:a391="http://www.w3.org/1999/xlink" x="23" y="477"/><use a392:href="#gSidonz1q1hb" xmlns:a392="http://www.w3.org/1999/xlink" x="535" y="477"/><use a393:href="#gSidonz1q1hb" xmlns:a393="http://www.w3.org/1999/xlink" x="535" y="-35"/><use a394:href="#gSidonz1q1hb" xmlns:a394="http://www.w3.org/1999/xlink" x="23" y="-35"/><use a395:href="#gSidonz1q1hb" xmlns:a395="http://www.w3.org/1999/xlink" x="535" y="-35"/><use a396:href="#gSidonz1q1hb" xmlns:a396="http://www.w3.org/1999/xlink" x="464" y="258"/><use a397:href="#gSidonz1q1hb" xmlns:a397="http://www.w3.org/1999/xlink" x="-48" y="258"/><use a398:href="#gSidonz1q1ha" xmlns:a398="http://www.w3.org/1999/xlink" x="177" y="108"/><use a399:href="#gSidonz1q1hb" xmlns:a399="http://www.w3.org/1999/xlink" x="231" y="50"/><use a400:href="#gSidonz1q1hb" xmlns:a400="http://www.w3.org/1999/xlink" x="231" y="562"/><use a401:href="#gSidonz1q1ha" xmlns:a401="http://www.w3.org/1999/xlink" x="193" y="429"/><use a402:href="#gSidonz1q1hb" xmlns:a402="http://www.w3.org/1999/xlink" x="99" y="90"/><use a403:href="#gSidonz1q1hb" xmlns:a403="http://www.w3.org/1999/xlink" x="369" y="98"/><use a404:href="#gSidonz1q1ha" xmlns:a404="http://www.w3.org/1999/xlink" x="77" y="74"/><use a405:href="#gSidonz1q1ha" xmlns:a405="http://www.w3.org/1999/xlink" x="413" y="44"/><use a406:href="#gSidonz1q1ha" xmlns:a406="http://www.w3.org/1999/xlink" x="413" y="556"/><use a407:href="#gSidonz1q1ha" xmlns:a407="http://www.w3.org/1999/xlink" x="112" y="129"/><use a408:href="#gSidonz1q1ha" xmlns:a408="http://www.w3.org/1999/xlink" x="471" y="349"/><use a409:href="#gSidonz1q1ha" xmlns:a409="http://www.w3.org/1999/xlink" x="-41" y="349"/><use a410:href="#gSidonz1q1hb" xmlns:a410="http://www.w3.org/1999/xlink" x="13" y="82"/><use a411:href="#gSidonz1q1hb" xmlns:a411="http://www.w3.org/1999/xlink" x="525" y="82"/><use a412:href="#gSidonz1q1ha" xmlns:a412="http://www.w3.org/1999/xlink" x="74" y="439"/><use a413:href="#gSidonz1q1hb" xmlns:a413="http://www.w3.org/1999/xlink" x="143" y="224"/><use a414:href="#gSidonz1q1hb" xmlns:a414="http://www.w3.org/1999/xlink" x="501" y="236"/><use a415:href="#gSidonz1q1hb" xmlns:a415="http://www.w3.org/1999/xlink" x="-11" y="236"/><use a416:href="#gSidonz1q1hb" xmlns:a416="http://www.w3.org/1999/xlink" x="112" y="0"/><use a417:href="#gSidonz1q1hb" xmlns:a417="http://www.w3.org/1999/xlink" x="112" y="512"/><use a418:href="#gSidonz1q1ha" xmlns:a418="http://www.w3.org/1999/xlink" x="433" y="105"/><use a419:href="#gSidonz1q1ha" xmlns:a419="http://www.w3.org/1999/xlink" x="504" y="21"/><use a420:href="#gSidonz1q1ha" xmlns:a420="http://www.w3.org/1999/xlink" x="-8" y="21"/><use a421:href="#gSidonz1q1ha" xmlns:a421="http://www.w3.org/1999/xlink" x="-8" y="533"/><use a422:href="#gSidonz1q1ha" xmlns:a422="http://www.w3.org/1999/xlink" x="504" y="533"/><use a423:href="#gSidonz1q1ha" xmlns:a423="http://www.w3.org/1999/xlink" x="-8" y="533"/><use a424:href="#gSidonz1q1ha" xmlns:a424="http://www.w3.org/1999/xlink" x="378" y="430"/><use a425:href="#gSidonz1q1hb" xmlns:a425="http://www.w3.org/1999/xlink" x="346" y="70"/><use a426:href="#gSidonz1q1ha" xmlns:a426="http://www.w3.org/1999/xlink" x="420" y="279"/><use a427:href="#gSidonz1q1ha" xmlns:a427="http://www.w3.org/1999/xlink" x="169" y="238"/><use a428:href="#gSidonz1q1hb" xmlns:a428="http://www.w3.org/1999/xlink" x="18" y="49"/><use a429:href="#gSidonz1q1hb" xmlns:a429="http://www.w3.org/1999/xlink" x="530" y="49"/><use a430:href="#gSidonz1q1hb" xmlns:a430="http://www.w3.org/1999/xlink" x="530" y="561"/><use a431:href="#gSidonz1q1hb" xmlns:a431="http://www.w3.org/1999/xlink" x="18" y="561"/><use a432:href="#gSidonz1q1hb" xmlns:a432="http://www.w3.org/1999/xlink" x="530" y="561"/><use a433:href="#gSidonz1q1ha" xmlns:a433="http://www.w3.org/1999/xlink" x="71" y="465"/><use a434:href="#gSidonz1q1ha" xmlns:a434="http://www.w3.org/1999/xlink" x="71" y="-47"/><use a435:href="#gSidonz1q1ha" xmlns:a435="http://www.w3.org/1999/xlink" x="283" y="340"/><use a436:href="#gSidonz1q1hb" xmlns:a436="http://www.w3.org/1999/xlink" x="297" y="165"/><use a437:href="#gSidonz1q1ha" xmlns:a437="http://www.w3.org/1999/xlink" x="49" y="11"/><use a438:href="#gSidonz1q1ha" xmlns:a438="http://www.w3.org/1999/xlink" x="561" y="11"/><use a439:href="#gSidonz1q1ha" xmlns:a439="http://www.w3.org/1999/xlink" x="561" y="523"/><use a440:href="#gSidonz1q1ha" xmlns:a440="http://www.w3.org/1999/xlink" x="49" y="523"/><use a441:href="#gSidonz1q1ha" xmlns:a441="http://www.w3.org/1999/xlink" x="561" y="523"/><use a442:href="#gSidonz1q1hb" xmlns:a442="http://www.w3.org/1999/xlink" x="207" y="389"/><use a443:href="#gSidonz1q1ha" xmlns:a443="http://www.w3.org/1999/xlink" x="58" y="95"/><use a444:href="#gSidonz1q1ha" xmlns:a444="http://www.w3.org/1999/xlink" x="570" y="95"/><use a445:href="#gSidonz1q1ha" xmlns:a445="http://www.w3.org/1999/xlink" x="409" y="478"/><use a446:href="#gSidonz1q1ha" xmlns:a446="http://www.w3.org/1999/xlink" x="409" y="-34"/><use a447:href="#gSidonz1q1hb" xmlns:a447="http://www.w3.org/1999/xlink" x="176" y="44"/><use a448:href="#gSidonz1q1hb" xmlns:a448="http://www.w3.org/1999/xlink" x="176" y="556"/><use a449:href="#gSidonz1q1hb" xmlns:a449="http://www.w3.org/1999/xlink" x="213" y="351"/><use a450:href="#gSidonz1q1ha" xmlns:a450="http://www.w3.org/1999/xlink" x="183" y="405"/><use a451:href="#gSidonz1q1ha" xmlns:a451="http://www.w3.org/1999/xlink" x="360" y="295"/><use a452:href="#gSidonz1q1hb" xmlns:a452="http://www.w3.org/1999/xlink" x="372" y="321"/><use a453:href="#gSidonz1q1ha" xmlns:a453="http://www.w3.org/1999/xlink" x="228" y="262"/><use a454:href="#gSidonz1q1ha" xmlns:a454="http://www.w3.org/1999/xlink" x="289" y="41"/><use a455:href="#gSidonz1q1ha" xmlns:a455="http://www.w3.org/1999/xlink" x="289" y="553"/></g>
			<desc>Created with Snap</desc></svg>