<?xml version="1.0" encoding="UTF-8" standalone="no"?>
<svg
   xmlns:dc="http://purl.org/dc/elements/1.1/"
   xmlns:cc="http://creativecommons.org/ns#"
   xmlns:rdf="http://www.w3.org/1999/02/22-rdf-syntax-ns#"
   xmlns:svg="http://www.w3.org/2000/svg"
   xmlns="http://www.w3.org/2000/svg"
   id="svg2"
   version="1.1">

  <path
     d="M 4.015625,-0.01367188 A 1.0001,1.0001 0 0 1 5,1 L 5,5 7,5 7,1.5 A 0.50005,0.50005 0 0 1 7.5078125,0.9921875 0.50005,0.50005 0 0 1 8,1.5 l 0,4 A 0.50005,0.50005 0 0 1 7.5,6 L 5,6 5,8 5,12 3,12 3,9 0.50000001,9 A 0.50005,0.50005 0 0 1 0,8.5 l 0,-5 A 0.50005,0.50005 0 0 1 0.50781251,2.9921875 0.50005,0.50005 0 0 1 1,3.5 L 1,8 3,8 3,1 a 1.0001,1.0001 0 0 1 1.015625,-1.01367188 z" />
</svg>
