<?xml version="1.0" encoding="UTF-8" standalone="no"?>
<svg>
    <path
       d="M 2.4921875,-0.0078125 A 0.50005,0.50005 0 0 0 2,0.5 L 2,3 2,3.5 2,5 1,5 1,2.5 A 0.50005,0.50005 0 0 0 0.4921875,1.9921875 0.50005,0.50005 0 0 0 0,2.5 l 0,3 A 0.50005,0.50005 0 0 0 0.5,6 L 2,6 2,7.4199219 A 0.50005,0.50005 0 0 0 2,7.5820312 L 2,9.5 2,10 2.4199219,10 a 0.50005,0.50005 0 0 0 0.1621093,0 L 3,10 3,9.5351562 A 0.50005,0.50005 0 0 0 3,9.5 L 3,8 4.5,8 A 0.50005,0.50005 0 0 0 5,7.5 l 0,-2 A 0.50005,0.50005 0 0 0 4.4921875,4.9921875 0.50005,0.50005 0 0 0 4,5.5 L 4,7 3,7 3,5.5800781 A 0.50005,0.50005 0 0 0 3,5.4179688 L 3,3.5 3,3 3,0.5 A 0.50005,0.50005 0 0 0 2.4921875,-0.0078125 Z m 3,0 A 0.50005,0.50005 0 0 0 5,0.5 l 0,3 A 0.50005,0.50005 0 0 0 5.5,4 L 7,4 7,6.4199219 A 0.50005,0.50005 0 0 0 7,6.5820312 L 7,9.5 7,10 7.4199219,10 a 0.50005,0.50005 0 0 0 0.1621093,0 L 8,10 8,9.5351562 A 0.50005,0.50005 0 0 0 8,9.5 L 8,7 9.5,7 A 0.50005,0.50005 0 0 0 10,6.5 l 0,-3 A 0.50005,0.50005 0 0 0 9.4921875,2.9921875 0.50005,0.50005 0 0 0 9,3.5 L 9,6 8,6 8,3.5800781 A 0.50005,0.50005 0 0 0 8,3.4179688 L 8,3 8,0.5 A 0.50005,0.50005 0 0 0 7.4921875,-0.0078125 0.50005,0.50005 0 0 0 7,0.5 L 7,3 6,3 6,0.5 A 0.50005,0.50005 0 0 0 5.4921875,-0.0078125 Z"
    />
</svg>
