<?xml version="1.0" encoding="UTF-8" standalone="no"?>
<svg
   xmlns:dc="http://purl.org/dc/elements/1.1/"
   xmlns:cc="http://creativecommons.org/ns#"
   xmlns:rdf="http://www.w3.org/1999/02/22-rdf-syntax-ns#"
   xmlns:svg="http://www.w3.org/2000/svg"
   xmlns="http://www.w3.org/2000/svg"
   version="1.1"
   id="svg2">

  <path
     d="M 3.5078125,-0.0078125 A 0.50005,0.50005 0 0 1 4,0.5 L 4,5 6,5 6,1.5 A 0.50005,0.50005 0 0 1 6.5078125,0.9921875 0.50005,0.50005 0 0 1 7,1.5 l 0,4 A 0.50005,0.50005 0 0 1 6.5,6 L 4,6 4,8 4,12 3,12 3,9 0.50000001,9 A 0.50005,0.50005 0 0 1 0,8.5 l 0,-5 A 0.50005,0.50005 0 0 1 0.50781251,2.9921875 0.50005,0.50005 0 0 1 1,3.5 L 1,8 3,8 3,1 3,0.5 a 0.50005,0.50005 0 0 1 0.5078125,-0.5078125 z" />
</svg>
