<?xml version="1.0" encoding="UTF-8" standalone="no"?>
<svg
   xmlns:dc="http://purl.org/dc/elements/1.1/"
   xmlns:cc="http://creativecommons.org/ns#"
   xmlns:rdf="http://www.w3.org/1999/02/22-rdf-syntax-ns#"
   xmlns:svg="http://www.w3.org/2000/svg"
   xmlns="http://www.w3.org/2000/svg"
   version="1.1"
   id="svg2">

  <path
     d="M 3.984375 -0.013671875 A 1.0001 1.0001 0 0 0 3 1 L 3 5 L 1 5 L 1 1.5 A 0.50005 0.50005 0 0 0 0.4921875 0.9921875 A 0.50005 0.50005 0 0 0 0 1.5 L 0 5.5 A 0.50005 0.50005 0 0 0 0.5 6 L 3 6 L 3 8 L 3 12 L 5 12 L 5 9 L 7.5 9 A 0.50005 0.50005 0 0 0 8 8.5 L 8 3.5 A 0.50005 0.50005 0 0 0 7.4921875 2.9921875 A 0.50005 0.50005 0 0 0 7 3.5 L 7 8 L 5 8 L 5 1 A 1.0001 1.0001 0 0 0 3.984375 -0.013671875 z " />
</svg>
