<svg xmlns="http://www.w3.org/2000/svg" id="Svg" width="512" height="512">
				<defs>
					<clipPath id="clipPath">
						
					<rect x="0" y="0" width="512" height="512"/></clipPath>
				<g transform="matrix(1,0,0,1,0,0)" id="gSjsfss1hxhw"><g><path d="M 2,0 0,6 0,7 2,7 2,10 3,10 3,7 5,7 5,6 3,0 z M 2.5,1 4,6 1,6 z"/><path d="m 7,5 1,0 0,5 -1,0 z"/><path d="m 7.5,0 a 2.5,3 0 0 1 0,6 l 0,-1 a 1.5,2 0 0 0 0,-4 1.5,2 0 1 0 0,4 l 0,1 a 2.5,3 0 1 1 0,-6 z"/></g></g><g transform="matrix(1,0,0,1,0,0)" id="gSjsfss1hxhx"><g><path d="m 2,5 1,0 0,5 -1,0 z"/><path d="m 2.5,0 a 2.5,3 0 0 1 0,6 l 0,-1 a 1.5,2 0 0 0 0,-4 1.5,2 0 1 0 0,4 l 0,1 a 2.5,3 0 1 1 0,-6 z"/><path d="M 7,0 5,6 5,7 7,7 7,10 8,10 8,7 10,7 10,6 8,0 z M 7.5,1 9,6 6,6 z"/></g></g></defs>
				<g id="Pattern" style="clip-path: url(#clipPath);">
				<use a0:href="#gSjsfss1hxhx" xmlns:a0="http://www.w3.org/1999/xlink" x="82" y="378"/><use a1:href="#gSjsfss1hxhw" xmlns:a1="http://www.w3.org/1999/xlink" x="477" y="10"/><use a2:href="#gSjsfss1hxhw" xmlns:a2="http://www.w3.org/1999/xlink" x="477" y="522"/><use a3:href="#gSjsfss1hxhx" xmlns:a3="http://www.w3.org/1999/xlink" x="167" y="498"/><use a4:href="#gSjsfss1hxhx" xmlns:a4="http://www.w3.org/1999/xlink" x="167" y="-14"/><use a5:href="#gSjsfss1hxhx" xmlns:a5="http://www.w3.org/1999/xlink" x="270" y="343"/><use a6:href="#gSjsfss1hxhx" xmlns:a6="http://www.w3.org/1999/xlink" x="11" y="394"/><use a7:href="#gSjsfss1hxhx" xmlns:a7="http://www.w3.org/1999/xlink" x="523" y="394"/><use a8:href="#gSjsfss1hxhx" xmlns:a8="http://www.w3.org/1999/xlink" x="368" y="493"/><use a9:href="#gSjsfss1hxhx" xmlns:a9="http://www.w3.org/1999/xlink" x="368" y="-19"/><use a10:href="#gSjsfss1hxhx" xmlns:a10="http://www.w3.org/1999/xlink" x="91" y="7"/><use a11:href="#gSjsfss1hxhx" xmlns:a11="http://www.w3.org/1999/xlink" x="91" y="519"/><use a12:href="#gSjsfss1hxhw" xmlns:a12="http://www.w3.org/1999/xlink" x="111" y="67"/><use a13:href="#gSjsfss1hxhx" xmlns:a13="http://www.w3.org/1999/xlink" x="106" y="431"/><use a14:href="#gSjsfss1hxhx" xmlns:a14="http://www.w3.org/1999/xlink" x="243" y="191"/><use a15:href="#gSjsfss1hxhw" xmlns:a15="http://www.w3.org/1999/xlink" x="69" y="493"/><use a16:href="#gSjsfss1hxhw" xmlns:a16="http://www.w3.org/1999/xlink" x="69" y="-19"/><use a17:href="#gSjsfss1hxhx" xmlns:a17="http://www.w3.org/1999/xlink" x="145" y="9"/><use a18:href="#gSjsfss1hxhx" xmlns:a18="http://www.w3.org/1999/xlink" x="145" y="521"/><use a19:href="#gSjsfss1hxhx" xmlns:a19="http://www.w3.org/1999/xlink" x="318" y="65"/><use a20:href="#gSjsfss1hxhw" xmlns:a20="http://www.w3.org/1999/xlink" x="268" y="275"/><use a21:href="#gSjsfss1hxhx" xmlns:a21="http://www.w3.org/1999/xlink" x="136" y="191"/><use a22:href="#gSjsfss1hxhw" xmlns:a22="http://www.w3.org/1999/xlink" x="471" y="237"/><use a23:href="#gSjsfss1hxhw" xmlns:a23="http://www.w3.org/1999/xlink" x="193" y="448"/><use a24:href="#gSjsfss1hxhx" xmlns:a24="http://www.w3.org/1999/xlink" x="214" y="64"/><use a25:href="#gSjsfss1hxhx" xmlns:a25="http://www.w3.org/1999/xlink" x="425" y="81"/><use a26:href="#gSjsfss1hxhx" xmlns:a26="http://www.w3.org/1999/xlink" x="410" y="52"/><use a27:href="#gSjsfss1hxhw" xmlns:a27="http://www.w3.org/1999/xlink" x="288" y="63"/><use a28:href="#gSjsfss1hxhw" xmlns:a28="http://www.w3.org/1999/xlink" x="476" y="474"/><use a29:href="#gSjsfss1hxhx" xmlns:a29="http://www.w3.org/1999/xlink" x="297" y="164"/><use a30:href="#gSjsfss1hxhx" xmlns:a30="http://www.w3.org/1999/xlink" x="497" y="451"/><use a31:href="#gSjsfss1hxhx" xmlns:a31="http://www.w3.org/1999/xlink" x="-15" y="451"/><use a32:href="#gSjsfss1hxhx" xmlns:a32="http://www.w3.org/1999/xlink" x="269" y="448"/><use a33:href="#gSjsfss1hxhx" xmlns:a33="http://www.w3.org/1999/xlink" x="267" y="502"/><use a34:href="#gSjsfss1hxhx" xmlns:a34="http://www.w3.org/1999/xlink" x="267" y="-10"/><use a35:href="#gSjsfss1hxhx" xmlns:a35="http://www.w3.org/1999/xlink" x="345" y="262"/><use a36:href="#gSjsfss1hxhx" xmlns:a36="http://www.w3.org/1999/xlink" x="403" y="451"/><use a37:href="#gSjsfss1hxhw" xmlns:a37="http://www.w3.org/1999/xlink" x="413" y="108"/><use a38:href="#gSjsfss1hxhw" xmlns:a38="http://www.w3.org/1999/xlink" x="456" y="89"/><use a39:href="#gSjsfss1hxhw" xmlns:a39="http://www.w3.org/1999/xlink" x="501" y="294"/><use a40:href="#gSjsfss1hxhw" xmlns:a40="http://www.w3.org/1999/xlink" x="-11" y="294"/><use a41:href="#gSjsfss1hxhx" xmlns:a41="http://www.w3.org/1999/xlink" x="291" y="411"/><use a42:href="#gSjsfss1hxhx" xmlns:a42="http://www.w3.org/1999/xlink" x="85" y="455"/><use a43:href="#gSjsfss1hxhx" xmlns:a43="http://www.w3.org/1999/xlink" x="167" y="238"/><use a44:href="#gSjsfss1hxhx" xmlns:a44="http://www.w3.org/1999/xlink" x="393" y="270"/><use a45:href="#gSjsfss1hxhw" xmlns:a45="http://www.w3.org/1999/xlink" x="478" y="31"/><use a46:href="#gSjsfss1hxhw" xmlns:a46="http://www.w3.org/1999/xlink" x="478" y="543"/><use a47:href="#gSjsfss1hxhx" xmlns:a47="http://www.w3.org/1999/xlink" x="212" y="162"/><use a48:href="#gSjsfss1hxhx" xmlns:a48="http://www.w3.org/1999/xlink" x="320" y="292"/><use a49:href="#gSjsfss1hxhw" xmlns:a49="http://www.w3.org/1999/xlink" x="87" y="135"/><use a50:href="#gSjsfss1hxhx" xmlns:a50="http://www.w3.org/1999/xlink" x="188" y="45"/><use a51:href="#gSjsfss1hxhw" xmlns:a51="http://www.w3.org/1999/xlink" x="34" y="167"/><use a52:href="#gSjsfss1hxhw" xmlns:a52="http://www.w3.org/1999/xlink" x="318" y="442"/><use a53:href="#gSjsfss1hxhx" xmlns:a53="http://www.w3.org/1999/xlink" x="349" y="15"/><use a54:href="#gSjsfss1hxhx" xmlns:a54="http://www.w3.org/1999/xlink" x="349" y="527"/><use a55:href="#gSjsfss1hxhw" xmlns:a55="http://www.w3.org/1999/xlink" x="294" y="496"/><use a56:href="#gSjsfss1hxhw" xmlns:a56="http://www.w3.org/1999/xlink" x="294" y="-16"/><use a57:href="#gSjsfss1hxhw" xmlns:a57="http://www.w3.org/1999/xlink" x="38" y="441"/><use a58:href="#gSjsfss1hxhx" xmlns:a58="http://www.w3.org/1999/xlink" x="392" y="113"/><use a59:href="#gSjsfss1hxhw" xmlns:a59="http://www.w3.org/1999/xlink" x="378" y="340"/><use a60:href="#gSjsfss1hxhw" xmlns:a60="http://www.w3.org/1999/xlink" x="17" y="506"/><use a61:href="#gSjsfss1hxhw" xmlns:a61="http://www.w3.org/1999/xlink" x="529" y="506"/><use a62:href="#gSjsfss1hxhw" xmlns:a62="http://www.w3.org/1999/xlink" x="529" y="-6"/><use a63:href="#gSjsfss1hxhw" xmlns:a63="http://www.w3.org/1999/xlink" x="17" y="-6"/><use a64:href="#gSjsfss1hxhw" xmlns:a64="http://www.w3.org/1999/xlink" x="529" y="-6"/><use a65:href="#gSjsfss1hxhx" xmlns:a65="http://www.w3.org/1999/xlink" x="343" y="45"/><use a66:href="#gSjsfss1hxhw" xmlns:a66="http://www.w3.org/1999/xlink" x="457" y="194"/><use a67:href="#gSjsfss1hxhw" xmlns:a67="http://www.w3.org/1999/xlink" x="194" y="220"/><use a68:href="#gSjsfss1hxhw" xmlns:a68="http://www.w3.org/1999/xlink" x="290" y="236"/><use a69:href="#gSjsfss1hxhw" xmlns:a69="http://www.w3.org/1999/xlink" x="137" y="34"/><use a70:href="#gSjsfss1hxhw" xmlns:a70="http://www.w3.org/1999/xlink" x="263" y="316"/><use a71:href="#gSjsfss1hxhx" xmlns:a71="http://www.w3.org/1999/xlink" x="143" y="146"/><use a72:href="#gSjsfss1hxhw" xmlns:a72="http://www.w3.org/1999/xlink" x="82" y="190"/><use a73:href="#gSjsfss1hxhx" xmlns:a73="http://www.w3.org/1999/xlink" x="164" y="16"/><use a74:href="#gSjsfss1hxhx" xmlns:a74="http://www.w3.org/1999/xlink" x="164" y="528"/><use a75:href="#gSjsfss1hxhx" xmlns:a75="http://www.w3.org/1999/xlink" x="473" y="344"/><use a76:href="#gSjsfss1hxhx" xmlns:a76="http://www.w3.org/1999/xlink" x="403" y="170"/><use a77:href="#gSjsfss1hxhx" xmlns:a77="http://www.w3.org/1999/xlink" x="472" y="62"/><use a78:href="#gSjsfss1hxhx" xmlns:a78="http://www.w3.org/1999/xlink" x="290" y="368"/><use a79:href="#gSjsfss1hxhw" xmlns:a79="http://www.w3.org/1999/xlink" x="159" y="58"/><use a80:href="#gSjsfss1hxhx" xmlns:a80="http://www.w3.org/1999/xlink" x="376" y="152"/><use a81:href="#gSjsfss1hxhw" xmlns:a81="http://www.w3.org/1999/xlink" x="86" y="91"/><use a82:href="#gSjsfss1hxhx" xmlns:a82="http://www.w3.org/1999/xlink" x="85" y="241"/><use a83:href="#gSjsfss1hxhw" xmlns:a83="http://www.w3.org/1999/xlink" x="392" y="375"/><use a84:href="#gSjsfss1hxhx" xmlns:a84="http://www.w3.org/1999/xlink" x="419" y="21"/><use a85:href="#gSjsfss1hxhx" xmlns:a85="http://www.w3.org/1999/xlink" x="419" y="533"/><use a86:href="#gSjsfss1hxhw" xmlns:a86="http://www.w3.org/1999/xlink" x="220" y="361"/><use a87:href="#gSjsfss1hxhx" xmlns:a87="http://www.w3.org/1999/xlink" x="497" y="113"/><use a88:href="#gSjsfss1hxhx" xmlns:a88="http://www.w3.org/1999/xlink" x="-15" y="113"/><use a89:href="#gSjsfss1hxhw" xmlns:a89="http://www.w3.org/1999/xlink" x="496" y="377"/><use a90:href="#gSjsfss1hxhw" xmlns:a90="http://www.w3.org/1999/xlink" x="-16" y="377"/><use a91:href="#gSjsfss1hxhx" xmlns:a91="http://www.w3.org/1999/xlink" x="297" y="464"/><use a92:href="#gSjsfss1hxhx" xmlns:a92="http://www.w3.org/1999/xlink" x="317" y="318"/><use a93:href="#gSjsfss1hxhx" xmlns:a93="http://www.w3.org/1999/xlink" x="182" y="66"/><use a94:href="#gSjsfss1hxhw" xmlns:a94="http://www.w3.org/1999/xlink" x="432" y="394"/><use a95:href="#gSjsfss1hxhx" xmlns:a95="http://www.w3.org/1999/xlink" x="298" y="219"/><use a96:href="#gSjsfss1hxhx" xmlns:a96="http://www.w3.org/1999/xlink" x="419" y="423"/><use a97:href="#gSjsfss1hxhx" xmlns:a97="http://www.w3.org/1999/xlink" x="61" y="402"/><use a98:href="#gSjsfss1hxhx" xmlns:a98="http://www.w3.org/1999/xlink" x="444" y="271"/><use a99:href="#gSjsfss1hxhx" xmlns:a99="http://www.w3.org/1999/xlink" x="47" y="61"/><use a100:href="#gSjsfss1hxhw" xmlns:a100="http://www.w3.org/1999/xlink" x="349" y="474"/><use a101:href="#gSjsfss1hxhw" xmlns:a101="http://www.w3.org/1999/xlink" x="362" y="276"/><use a102:href="#gSjsfss1hxhx" xmlns:a102="http://www.w3.org/1999/xlink" x="371" y="61"/><use a103:href="#gSjsfss1hxhx" xmlns:a103="http://www.w3.org/1999/xlink" x="17" y="448"/><use a104:href="#gSjsfss1hxhx" xmlns:a104="http://www.w3.org/1999/xlink" x="529" y="448"/><use a105:href="#gSjsfss1hxhw" xmlns:a105="http://www.w3.org/1999/xlink" x="190" y="370"/><use a106:href="#gSjsfss1hxhx" xmlns:a106="http://www.w3.org/1999/xlink" x="330" y="275"/><use a107:href="#gSjsfss1hxhx" xmlns:a107="http://www.w3.org/1999/xlink" x="345" y="303"/><use a108:href="#gSjsfss1hxhx" xmlns:a108="http://www.w3.org/1999/xlink" x="469" y="291"/><use a109:href="#gSjsfss1hxhx" xmlns:a109="http://www.w3.org/1999/xlink" x="193" y="480"/><use a110:href="#gSjsfss1hxhx" xmlns:a110="http://www.w3.org/1999/xlink" x="510" y="89"/><use a111:href="#gSjsfss1hxhx" xmlns:a111="http://www.w3.org/1999/xlink" x="-2" y="89"/><use a112:href="#gSjsfss1hxhx" xmlns:a112="http://www.w3.org/1999/xlink" x="424" y="130"/><use a113:href="#gSjsfss1hxhw" xmlns:a113="http://www.w3.org/1999/xlink" x="344" y="422"/><use a114:href="#gSjsfss1hxhx" xmlns:a114="http://www.w3.org/1999/xlink" x="85" y="161"/><use a115:href="#gSjsfss1hxhw" xmlns:a115="http://www.w3.org/1999/xlink" x="504" y="57"/><use a116:href="#gSjsfss1hxhw" xmlns:a116="http://www.w3.org/1999/xlink" x="-8" y="57"/><use a117:href="#gSjsfss1hxhx" xmlns:a117="http://www.w3.org/1999/xlink" x="367" y="93"/><use a118:href="#gSjsfss1hxhw" xmlns:a118="http://www.w3.org/1999/xlink" x="42" y="468"/><use a119:href="#gSjsfss1hxhw" xmlns:a119="http://www.w3.org/1999/xlink" x="240" y="118"/><use a120:href="#gSjsfss1hxhx" xmlns:a120="http://www.w3.org/1999/xlink" x="8" y="171"/><use a121:href="#gSjsfss1hxhx" xmlns:a121="http://www.w3.org/1999/xlink" x="520" y="171"/><use a122:href="#gSjsfss1hxhx" xmlns:a122="http://www.w3.org/1999/xlink" x="235" y="401"/><use a123:href="#gSjsfss1hxhw" xmlns:a123="http://www.w3.org/1999/xlink" x="62" y="8"/><use a124:href="#gSjsfss1hxhw" xmlns:a124="http://www.w3.org/1999/xlink" x="62" y="520"/><use a125:href="#gSjsfss1hxhw" xmlns:a125="http://www.w3.org/1999/xlink" x="43" y="393"/><use a126:href="#gSjsfss1hxhw" xmlns:a126="http://www.w3.org/1999/xlink" x="67" y="323"/><use a127:href="#gSjsfss1hxhw" xmlns:a127="http://www.w3.org/1999/xlink" x="313" y="83"/><use a128:href="#gSjsfss1hxhw" xmlns:a128="http://www.w3.org/1999/xlink" x="113" y="35"/><use a129:href="#gSjsfss1hxhw" xmlns:a129="http://www.w3.org/1999/xlink" x="453" y="394"/><use a130:href="#gSjsfss1hxhw" xmlns:a130="http://www.w3.org/1999/xlink" x="365" y="2"/><use a131:href="#gSjsfss1hxhw" xmlns:a131="http://www.w3.org/1999/xlink" x="365" y="514"/><use a132:href="#gSjsfss1hxhw" xmlns:a132="http://www.w3.org/1999/xlink" x="93" y="60"/><use a133:href="#gSjsfss1hxhx" xmlns:a133="http://www.w3.org/1999/xlink" x="426" y="192"/><use a134:href="#gSjsfss1hxhw" xmlns:a134="http://www.w3.org/1999/xlink" x="15" y="61"/><use a135:href="#gSjsfss1hxhw" xmlns:a135="http://www.w3.org/1999/xlink" x="527" y="61"/><use a136:href="#gSjsfss1hxhx" xmlns:a136="http://www.w3.org/1999/xlink" x="314" y="45"/><use a137:href="#gSjsfss1hxhx" xmlns:a137="http://www.w3.org/1999/xlink" x="394" y="238"/><use a138:href="#gSjsfss1hxhx" xmlns:a138="http://www.w3.org/1999/xlink" x="134" y="422"/><use a139:href="#gSjsfss1hxhx" xmlns:a139="http://www.w3.org/1999/xlink" x="189" y="273"/><use a140:href="#gSjsfss1hxhw" xmlns:a140="http://www.w3.org/1999/xlink" x="501" y="186"/><use a141:href="#gSjsfss1hxhw" xmlns:a141="http://www.w3.org/1999/xlink" x="-11" y="186"/><use a142:href="#gSjsfss1hxhw" xmlns:a142="http://www.w3.org/1999/xlink" x="105" y="186"/><use a143:href="#gSjsfss1hxhw" xmlns:a143="http://www.w3.org/1999/xlink" x="295" y="16"/><use a144:href="#gSjsfss1hxhw" xmlns:a144="http://www.w3.org/1999/xlink" x="295" y="528"/><use a145:href="#gSjsfss1hxhx" xmlns:a145="http://www.w3.org/1999/xlink" x="62" y="220"/><use a146:href="#gSjsfss1hxhw" xmlns:a146="http://www.w3.org/1999/xlink" x="346" y="141"/><use a147:href="#gSjsfss1hxhx" xmlns:a147="http://www.w3.org/1999/xlink" x="217" y="107"/><use a148:href="#gSjsfss1hxhx" xmlns:a148="http://www.w3.org/1999/xlink" x="22" y="92"/><use a149:href="#gSjsfss1hxhx" xmlns:a149="http://www.w3.org/1999/xlink" x="534" y="92"/><use a150:href="#gSjsfss1hxhx" xmlns:a150="http://www.w3.org/1999/xlink" x="215" y="40"/><use a151:href="#gSjsfss1hxhw" xmlns:a151="http://www.w3.org/1999/xlink" x="238" y="375"/><use a152:href="#gSjsfss1hxhx" xmlns:a152="http://www.w3.org/1999/xlink" x="388" y="218"/><use a153:href="#gSjsfss1hxhx" xmlns:a153="http://www.w3.org/1999/xlink" x="337" y="213"/><use a154:href="#gSjsfss1hxhw" xmlns:a154="http://www.w3.org/1999/xlink" x="238" y="63"/><use a155:href="#gSjsfss1hxhx" xmlns:a155="http://www.w3.org/1999/xlink" x="55" y="423"/><use a156:href="#gSjsfss1hxhx" xmlns:a156="http://www.w3.org/1999/xlink" x="10" y="146"/><use a157:href="#gSjsfss1hxhx" xmlns:a157="http://www.w3.org/1999/xlink" x="522" y="146"/><use a158:href="#gSjsfss1hxhx" xmlns:a158="http://www.w3.org/1999/xlink" x="34" y="266"/><use a159:href="#gSjsfss1hxhx" xmlns:a159="http://www.w3.org/1999/xlink" x="489" y="316"/><use a160:href="#gSjsfss1hxhx" xmlns:a160="http://www.w3.org/1999/xlink" x="-23" y="316"/><use a161:href="#gSjsfss1hxhx" xmlns:a161="http://www.w3.org/1999/xlink" x="496" y="40"/><use a162:href="#gSjsfss1hxhx" xmlns:a162="http://www.w3.org/1999/xlink" x="-16" y="40"/><use a163:href="#gSjsfss1hxhw" xmlns:a163="http://www.w3.org/1999/xlink" x="60" y="353"/><use a164:href="#gSjsfss1hxhx" xmlns:a164="http://www.w3.org/1999/xlink" x="467" y="312"/><use a165:href="#gSjsfss1hxhx" xmlns:a165="http://www.w3.org/1999/xlink" x="10" y="366"/><use a166:href="#gSjsfss1hxhx" xmlns:a166="http://www.w3.org/1999/xlink" x="522" y="366"/><use a167:href="#gSjsfss1hxhx" xmlns:a167="http://www.w3.org/1999/xlink" x="391" y="62"/><use a168:href="#gSjsfss1hxhw" xmlns:a168="http://www.w3.org/1999/xlink" x="288" y="336"/><use a169:href="#gSjsfss1hxhx" xmlns:a169="http://www.w3.org/1999/xlink" x="139" y="223"/><use a170:href="#gSjsfss1hxhx" xmlns:a170="http://www.w3.org/1999/xlink" x="92" y="471"/><use a171:href="#gSjsfss1hxhw" xmlns:a171="http://www.w3.org/1999/xlink" x="342" y="453"/><use a172:href="#gSjsfss1hxhx" xmlns:a172="http://www.w3.org/1999/xlink" x="424" y="352"/><use a173:href="#gSjsfss1hxhw" xmlns:a173="http://www.w3.org/1999/xlink" x="448" y="170"/><use a174:href="#gSjsfss1hxhx" xmlns:a174="http://www.w3.org/1999/xlink" x="496" y="347"/><use a175:href="#gSjsfss1hxhx" xmlns:a175="http://www.w3.org/1999/xlink" x="-16" y="347"/><use a176:href="#gSjsfss1hxhx" xmlns:a176="http://www.w3.org/1999/xlink" x="363" y="426"/><use a177:href="#gSjsfss1hxhw" xmlns:a177="http://www.w3.org/1999/xlink" x="501" y="9"/><use a178:href="#gSjsfss1hxhw" xmlns:a178="http://www.w3.org/1999/xlink" x="-11" y="9"/><use a179:href="#gSjsfss1hxhw" xmlns:a179="http://www.w3.org/1999/xlink" x="-11" y="521"/><use a180:href="#gSjsfss1hxhw" xmlns:a180="http://www.w3.org/1999/xlink" x="501" y="521"/><use a181:href="#gSjsfss1hxhw" xmlns:a181="http://www.w3.org/1999/xlink" x="-11" y="521"/><use a182:href="#gSjsfss1hxhx" xmlns:a182="http://www.w3.org/1999/xlink" x="316" y="350"/><use a183:href="#gSjsfss1hxhx" xmlns:a183="http://www.w3.org/1999/xlink" x="16" y="346"/><use a184:href="#gSjsfss1hxhx" xmlns:a184="http://www.w3.org/1999/xlink" x="528" y="346"/><use a185:href="#gSjsfss1hxhw" xmlns:a185="http://www.w3.org/1999/xlink" x="190" y="509"/><use a186:href="#gSjsfss1hxhw" xmlns:a186="http://www.w3.org/1999/xlink" x="190" y="-3"/><use a187:href="#gSjsfss1hxhw" xmlns:a187="http://www.w3.org/1999/xlink" x="110" y="401"/><use a188:href="#gSjsfss1hxhx" xmlns:a188="http://www.w3.org/1999/xlink" x="109" y="293"/><use a189:href="#gSjsfss1hxhw" xmlns:a189="http://www.w3.org/1999/xlink" x="220" y="340"/><use a190:href="#gSjsfss1hxhx" xmlns:a190="http://www.w3.org/1999/xlink" x="211" y="391"/><use a191:href="#gSjsfss1hxhw" xmlns:a191="http://www.w3.org/1999/xlink" x="64" y="114"/><use a192:href="#gSjsfss1hxhx" xmlns:a192="http://www.w3.org/1999/xlink" x="221" y="182"/><use a193:href="#gSjsfss1hxhw" xmlns:a193="http://www.w3.org/1999/xlink" x="441" y="62"/><use a194:href="#gSjsfss1hxhx" xmlns:a194="http://www.w3.org/1999/xlink" x="134" y="60"/><use a195:href="#gSjsfss1hxhx" xmlns:a195="http://www.w3.org/1999/xlink" x="120" y="349"/><use a196:href="#gSjsfss1hxhw" xmlns:a196="http://www.w3.org/1999/xlink" x="346" y="160"/><use a197:href="#gSjsfss1hxhw" xmlns:a197="http://www.w3.org/1999/xlink" x="506" y="470"/><use a198:href="#gSjsfss1hxhw" xmlns:a198="http://www.w3.org/1999/xlink" x="-6" y="470"/><use a199:href="#gSjsfss1hxhx" xmlns:a199="http://www.w3.org/1999/xlink" x="270" y="36"/><use a200:href="#gSjsfss1hxhx" xmlns:a200="http://www.w3.org/1999/xlink" x="133" y="378"/><use a201:href="#gSjsfss1hxhw" xmlns:a201="http://www.w3.org/1999/xlink" x="504" y="420"/><use a202:href="#gSjsfss1hxhw" xmlns:a202="http://www.w3.org/1999/xlink" x="-8" y="420"/><use a203:href="#gSjsfss1hxhw" xmlns:a203="http://www.w3.org/1999/xlink" x="17" y="114"/><use a204:href="#gSjsfss1hxhw" xmlns:a204="http://www.w3.org/1999/xlink" x="529" y="114"/><use a205:href="#gSjsfss1hxhw" xmlns:a205="http://www.w3.org/1999/xlink" x="373" y="461"/><use a206:href="#gSjsfss1hxhx" xmlns:a206="http://www.w3.org/1999/xlink" x="35" y="320"/><use a207:href="#gSjsfss1hxhx" xmlns:a207="http://www.w3.org/1999/xlink" x="240" y="217"/><use a208:href="#gSjsfss1hxhw" xmlns:a208="http://www.w3.org/1999/xlink" x="39" y="40"/><use a209:href="#gSjsfss1hxhw" xmlns:a209="http://www.w3.org/1999/xlink" x="230" y="427"/><use a210:href="#gSjsfss1hxhx" xmlns:a210="http://www.w3.org/1999/xlink" x="314" y="192"/><use a211:href="#gSjsfss1hxhw" xmlns:a211="http://www.w3.org/1999/xlink" x="86" y="423"/><use a212:href="#gSjsfss1hxhw" xmlns:a212="http://www.w3.org/1999/xlink" x="37" y="291"/><use a213:href="#gSjsfss1hxhw" xmlns:a213="http://www.w3.org/1999/xlink" x="346" y="327"/><use a214:href="#gSjsfss1hxhx" xmlns:a214="http://www.w3.org/1999/xlink" x="364" y="195"/><use a215:href="#gSjsfss1hxhx" xmlns:a215="http://www.w3.org/1999/xlink" x="248" y="344"/><use a216:href="#gSjsfss1hxhx" xmlns:a216="http://www.w3.org/1999/xlink" x="402" y="138"/><use a217:href="#gSjsfss1hxhx" xmlns:a217="http://www.w3.org/1999/xlink" x="265" y="392"/><use a218:href="#gSjsfss1hxhw" xmlns:a218="http://www.w3.org/1999/xlink" x="496" y="273"/><use a219:href="#gSjsfss1hxhw" xmlns:a219="http://www.w3.org/1999/xlink" x="-16" y="273"/><use a220:href="#gSjsfss1hxhw" xmlns:a220="http://www.w3.org/1999/xlink" x="242" y="9"/><use a221:href="#gSjsfss1hxhw" xmlns:a221="http://www.w3.org/1999/xlink" x="242" y="521"/><use a222:href="#gSjsfss1hxhx" xmlns:a222="http://www.w3.org/1999/xlink" x="266" y="216"/><use a223:href="#gSjsfss1hxhx" xmlns:a223="http://www.w3.org/1999/xlink" x="165" y="171"/><use a224:href="#gSjsfss1hxhw" xmlns:a224="http://www.w3.org/1999/xlink" x="371" y="293"/><use a225:href="#gSjsfss1hxhw" xmlns:a225="http://www.w3.org/1999/xlink" x="353" y="372"/><use a226:href="#gSjsfss1hxhx" xmlns:a226="http://www.w3.org/1999/xlink" x="452" y="368"/><use a227:href="#gSjsfss1hxhx" xmlns:a227="http://www.w3.org/1999/xlink" x="317" y="474"/><use a228:href="#gSjsfss1hxhx" xmlns:a228="http://www.w3.org/1999/xlink" x="238" y="314"/><use a229:href="#gSjsfss1hxhw" xmlns:a229="http://www.w3.org/1999/xlink" x="4" y="322"/><use a230:href="#gSjsfss1hxhw" xmlns:a230="http://www.w3.org/1999/xlink" x="516" y="322"/><use a231:href="#gSjsfss1hxhw" xmlns:a231="http://www.w3.org/1999/xlink" x="243" y="159"/><use a232:href="#gSjsfss1hxhx" xmlns:a232="http://www.w3.org/1999/xlink" x="266" y="136"/><use a233:href="#gSjsfss1hxhw" xmlns:a233="http://www.w3.org/1999/xlink" x="373" y="367"/><use a234:href="#gSjsfss1hxhx" xmlns:a234="http://www.w3.org/1999/xlink" x="260" y="417"/><use a235:href="#gSjsfss1hxhx" xmlns:a235="http://www.w3.org/1999/xlink" x="373" y="246"/><use a236:href="#gSjsfss1hxhx" xmlns:a236="http://www.w3.org/1999/xlink" x="422" y="371"/><use a237:href="#gSjsfss1hxhw" xmlns:a237="http://www.w3.org/1999/xlink" x="59" y="298"/><use a238:href="#gSjsfss1hxhx" xmlns:a238="http://www.w3.org/1999/xlink" x="185" y="96"/><use a239:href="#gSjsfss1hxhw" xmlns:a239="http://www.w3.org/1999/xlink" x="32" y="142"/><use a240:href="#gSjsfss1hxhw" xmlns:a240="http://www.w3.org/1999/xlink" x="241" y="86"/><use a241:href="#gSjsfss1hxhw" xmlns:a241="http://www.w3.org/1999/xlink" x="218" y="241"/><use a242:href="#gSjsfss1hxhx" xmlns:a242="http://www.w3.org/1999/xlink" x="93" y="266"/><use a243:href="#gSjsfss1hxhw" xmlns:a243="http://www.w3.org/1999/xlink" x="483" y="213"/><use a244:href="#gSjsfss1hxhw" xmlns:a244="http://www.w3.org/1999/xlink" x="-29" y="213"/><use a245:href="#gSjsfss1hxhx" xmlns:a245="http://www.w3.org/1999/xlink" x="88" y="347"/><use a246:href="#gSjsfss1hxhx" xmlns:a246="http://www.w3.org/1999/xlink" x="14" y="241"/><use a247:href="#gSjsfss1hxhx" xmlns:a247="http://www.w3.org/1999/xlink" x="526" y="241"/><use a248:href="#gSjsfss1hxhw" xmlns:a248="http://www.w3.org/1999/xlink" x="433" y="34"/><use a249:href="#gSjsfss1hxhw" xmlns:a249="http://www.w3.org/1999/xlink" x="156" y="429"/><use a250:href="#gSjsfss1hxhw" xmlns:a250="http://www.w3.org/1999/xlink" x="38" y="83"/><use a251:href="#gSjsfss1hxhw" xmlns:a251="http://www.w3.org/1999/xlink" x="418" y="479"/><use a252:href="#gSjsfss1hxhx" xmlns:a252="http://www.w3.org/1999/xlink" x="119" y="502"/><use a253:href="#gSjsfss1hxhx" xmlns:a253="http://www.w3.org/1999/xlink" x="119" y="-10"/><use a254:href="#gSjsfss1hxhw" xmlns:a254="http://www.w3.org/1999/xlink" x="396" y="509"/><use a255:href="#gSjsfss1hxhw" xmlns:a255="http://www.w3.org/1999/xlink" x="396" y="-3"/><use a256:href="#gSjsfss1hxhx" xmlns:a256="http://www.w3.org/1999/xlink" x="211" y="453"/><use a257:href="#gSjsfss1hxhx" xmlns:a257="http://www.w3.org/1999/xlink" x="142" y="400"/><use a258:href="#gSjsfss1hxhx" xmlns:a258="http://www.w3.org/1999/xlink" x="87" y="500"/><use a259:href="#gSjsfss1hxhx" xmlns:a259="http://www.w3.org/1999/xlink" x="87" y="-12"/><use a260:href="#gSjsfss1hxhw" xmlns:a260="http://www.w3.org/1999/xlink" x="322" y="368"/><use a261:href="#gSjsfss1hxhx" xmlns:a261="http://www.w3.org/1999/xlink" x="86" y="29"/><use a262:href="#gSjsfss1hxhx" xmlns:a262="http://www.w3.org/1999/xlink" x="86" y="541"/><use a263:href="#gSjsfss1hxhw" xmlns:a263="http://www.w3.org/1999/xlink" x="467" y="161"/><use a264:href="#gSjsfss1hxhw" xmlns:a264="http://www.w3.org/1999/xlink" x="116" y="448"/><use a265:href="#gSjsfss1hxhw" xmlns:a265="http://www.w3.org/1999/xlink" x="370" y="399"/><use a266:href="#gSjsfss1hxhx" xmlns:a266="http://www.w3.org/1999/xlink" x="1" y="202"/><use a267:href="#gSjsfss1hxhx" xmlns:a267="http://www.w3.org/1999/xlink" x="513" y="202"/><use a268:href="#gSjsfss1hxhx" xmlns:a268="http://www.w3.org/1999/xlink" x="170" y="214"/><use a269:href="#gSjsfss1hxhw" xmlns:a269="http://www.w3.org/1999/xlink" x="194" y="135"/><use a270:href="#gSjsfss1hxhx" xmlns:a270="http://www.w3.org/1999/xlink" x="490" y="244"/><use a271:href="#gSjsfss1hxhx" xmlns:a271="http://www.w3.org/1999/xlink" x="-22" y="244"/><use a272:href="#gSjsfss1hxhx" xmlns:a272="http://www.w3.org/1999/xlink" x="8" y="428"/><use a273:href="#gSjsfss1hxhx" xmlns:a273="http://www.w3.org/1999/xlink" x="520" y="428"/><use a274:href="#gSjsfss1hxhw" xmlns:a274="http://www.w3.org/1999/xlink" x="492" y="401"/><use a275:href="#gSjsfss1hxhw" xmlns:a275="http://www.w3.org/1999/xlink" x="-20" y="401"/><use a276:href="#gSjsfss1hxhx" xmlns:a276="http://www.w3.org/1999/xlink" x="290" y="188"/><use a277:href="#gSjsfss1hxhw" xmlns:a277="http://www.w3.org/1999/xlink" x="13" y="479"/><use a278:href="#gSjsfss1hxhw" xmlns:a278="http://www.w3.org/1999/xlink" x="525" y="479"/><use a279:href="#gSjsfss1hxhx" xmlns:a279="http://www.w3.org/1999/xlink" x="342" y="182"/><use a280:href="#gSjsfss1hxhw" xmlns:a280="http://www.w3.org/1999/xlink" x="476" y="114"/><use a281:href="#gSjsfss1hxhx" xmlns:a281="http://www.w3.org/1999/xlink" x="396" y="81"/><use a282:href="#gSjsfss1hxhx" xmlns:a282="http://www.w3.org/1999/xlink" x="24" y="414"/><use a283:href="#gSjsfss1hxhx" xmlns:a283="http://www.w3.org/1999/xlink" x="536" y="414"/><use a284:href="#gSjsfss1hxhx" xmlns:a284="http://www.w3.org/1999/xlink" x="297" y="388"/><use a285:href="#gSjsfss1hxhw" xmlns:a285="http://www.w3.org/1999/xlink" x="159" y="321"/><use a286:href="#gSjsfss1hxhx" xmlns:a286="http://www.w3.org/1999/xlink" x="260" y="111"/><use a287:href="#gSjsfss1hxhw" xmlns:a287="http://www.w3.org/1999/xlink" x="135" y="475"/><use a288:href="#gSjsfss1hxhx" xmlns:a288="http://www.w3.org/1999/xlink" x="41" y="223"/><use a289:href="#gSjsfss1hxhx" xmlns:a289="http://www.w3.org/1999/xlink" x="396" y="199"/><use a290:href="#gSjsfss1hxhx" xmlns:a290="http://www.w3.org/1999/xlink" x="247" y="241"/><use a291:href="#gSjsfss1hxhx" xmlns:a291="http://www.w3.org/1999/xlink" x="477" y="373"/><use a292:href="#gSjsfss1hxhx" xmlns:a292="http://www.w3.org/1999/xlink" x="485" y="83"/><use a293:href="#gSjsfss1hxhx" xmlns:a293="http://www.w3.org/1999/xlink" x="-27" y="83"/><use a294:href="#gSjsfss1hxhw" xmlns:a294="http://www.w3.org/1999/xlink" x="57" y="145"/><use a295:href="#gSjsfss1hxhx" xmlns:a295="http://www.w3.org/1999/xlink" x="245" y="259"/><use a296:href="#gSjsfss1hxhx" xmlns:a296="http://www.w3.org/1999/xlink" x="221" y="11"/><use a297:href="#gSjsfss1hxhx" xmlns:a297="http://www.w3.org/1999/xlink" x="221" y="523"/><use a298:href="#gSjsfss1hxhw" xmlns:a298="http://www.w3.org/1999/xlink" x="120" y="124"/><use a299:href="#gSjsfss1hxhx" xmlns:a299="http://www.w3.org/1999/xlink" x="326" y="389"/><use a300:href="#gSjsfss1hxhw" xmlns:a300="http://www.w3.org/1999/xlink" x="347" y="348"/><use a301:href="#gSjsfss1hxhx" xmlns:a301="http://www.w3.org/1999/xlink" x="164" y="144"/><use a302:href="#gSjsfss1hxhx" xmlns:a302="http://www.w3.org/1999/xlink" x="288" y="95"/><use a303:href="#gSjsfss1hxhw" xmlns:a303="http://www.w3.org/1999/xlink" x="196" y="14"/><use a304:href="#gSjsfss1hxhw" xmlns:a304="http://www.w3.org/1999/xlink" x="196" y="526"/><use a305:href="#gSjsfss1hxhx" xmlns:a305="http://www.w3.org/1999/xlink" x="414" y="246"/><use a306:href="#gSjsfss1hxhw" xmlns:a306="http://www.w3.org/1999/xlink" x="274" y="198"/><use a307:href="#gSjsfss1hxhx" xmlns:a307="http://www.w3.org/1999/xlink" x="129" y="318"/><use a308:href="#gSjsfss1hxhx" xmlns:a308="http://www.w3.org/1999/xlink" x="421" y="447"/><use a309:href="#gSjsfss1hxhw" xmlns:a309="http://www.w3.org/1999/xlink" x="66" y="371"/><use a310:href="#gSjsfss1hxhw" xmlns:a310="http://www.w3.org/1999/xlink" x="162" y="289"/><use a311:href="#gSjsfss1hxhw" xmlns:a311="http://www.w3.org/1999/xlink" x="399" y="349"/><use a312:href="#gSjsfss1hxhx" xmlns:a312="http://www.w3.org/1999/xlink" x="93" y="216"/><use a313:href="#gSjsfss1hxhx" xmlns:a313="http://www.w3.org/1999/xlink" x="345" y="116"/><use a314:href="#gSjsfss1hxhw" xmlns:a314="http://www.w3.org/1999/xlink" x="317" y="247"/><use a315:href="#gSjsfss1hxhw" xmlns:a315="http://www.w3.org/1999/xlink" x="70" y="39"/><use a316:href="#gSjsfss1hxhw" xmlns:a316="http://www.w3.org/1999/xlink" x="319" y="160"/><use a317:href="#gSjsfss1hxhw" xmlns:a317="http://www.w3.org/1999/xlink" x="274" y="8"/><use a318:href="#gSjsfss1hxhw" xmlns:a318="http://www.w3.org/1999/xlink" x="274" y="520"/><use a319:href="#gSjsfss1hxhw" xmlns:a319="http://www.w3.org/1999/xlink" x="170" y="32"/><use a320:href="#gSjsfss1hxhx" xmlns:a320="http://www.w3.org/1999/xlink" x="400" y="317"/><use a321:href="#gSjsfss1hxhx" xmlns:a321="http://www.w3.org/1999/xlink" x="449" y="339"/><use a322:href="#gSjsfss1hxhw" xmlns:a322="http://www.w3.org/1999/xlink" x="8" y="20"/><use a323:href="#gSjsfss1hxhw" xmlns:a323="http://www.w3.org/1999/xlink" x="520" y="20"/><use a324:href="#gSjsfss1hxhw" xmlns:a324="http://www.w3.org/1999/xlink" x="520" y="532"/><use a325:href="#gSjsfss1hxhw" xmlns:a325="http://www.w3.org/1999/xlink" x="8" y="532"/><use a326:href="#gSjsfss1hxhw" xmlns:a326="http://www.w3.org/1999/xlink" x="520" y="532"/><use a327:href="#gSjsfss1hxhx" xmlns:a327="http://www.w3.org/1999/xlink" x="479" y="185"/><use a328:href="#gSjsfss1hxhx" xmlns:a328="http://www.w3.org/1999/xlink" x="197" y="249"/><use a329:href="#gSjsfss1hxhx" xmlns:a329="http://www.w3.org/1999/xlink" x="161" y="374"/><use a330:href="#gSjsfss1hxhx" xmlns:a330="http://www.w3.org/1999/xlink" x="113" y="241"/><use a331:href="#gSjsfss1hxhw" xmlns:a331="http://www.w3.org/1999/xlink" x="118" y="92"/><use a332:href="#gSjsfss1hxhx" xmlns:a332="http://www.w3.org/1999/xlink" x="368" y="215"/><use a333:href="#gSjsfss1hxhw" xmlns:a333="http://www.w3.org/1999/xlink" x="136" y="454"/><use a334:href="#gSjsfss1hxhx" xmlns:a334="http://www.w3.org/1999/xlink" x="445" y="106"/><use a335:href="#gSjsfss1hxhw" xmlns:a335="http://www.w3.org/1999/xlink" x="210" y="421"/><use a336:href="#gSjsfss1hxhw" xmlns:a336="http://www.w3.org/1999/xlink" x="465" y="264"/><use a337:href="#gSjsfss1hxhw" xmlns:a337="http://www.w3.org/1999/xlink" x="181" y="297"/><use a338:href="#gSjsfss1hxhx" xmlns:a338="http://www.w3.org/1999/xlink" x="54" y="96"/><use a339:href="#gSjsfss1hxhw" xmlns:a339="http://www.w3.org/1999/xlink" x="166" y="466"/><use a340:href="#gSjsfss1hxhw" xmlns:a340="http://www.w3.org/1999/xlink" x="138" y="267"/><use a341:href="#gSjsfss1hxhx" xmlns:a341="http://www.w3.org/1999/xlink" x="18" y="212"/><use a342:href="#gSjsfss1hxhx" xmlns:a342="http://www.w3.org/1999/xlink" x="530" y="212"/><use a343:href="#gSjsfss1hxhx" xmlns:a343="http://www.w3.org/1999/xlink" x="31" y="192"/><use a344:href="#gSjsfss1hxhx" xmlns:a344="http://www.w3.org/1999/xlink" x="543" y="192"/><use a345:href="#gSjsfss1hxhw" xmlns:a345="http://www.w3.org/1999/xlink" x="40" y="341"/><use a346:href="#gSjsfss1hxhw" xmlns:a346="http://www.w3.org/1999/xlink" x="319" y="135"/><use a347:href="#gSjsfss1hxhx" xmlns:a347="http://www.w3.org/1999/xlink" x="276" y="305"/><use a348:href="#gSjsfss1hxhx" xmlns:a348="http://www.w3.org/1999/xlink" x="68" y="449"/><use a349:href="#gSjsfss1hxhx" xmlns:a349="http://www.w3.org/1999/xlink" x="452" y="453"/><use a350:href="#gSjsfss1hxhw" xmlns:a350="http://www.w3.org/1999/xlink" x="424" y="263"/><use a351:href="#gSjsfss1hxhx" xmlns:a351="http://www.w3.org/1999/xlink" x="224" y="472"/><use a352:href="#gSjsfss1hxhx" xmlns:a352="http://www.w3.org/1999/xlink" x="419" y="290"/><use a353:href="#gSjsfss1hxhx" xmlns:a353="http://www.w3.org/1999/xlink" x="245" y="31"/><use a354:href="#gSjsfss1hxhx" xmlns:a354="http://www.w3.org/1999/xlink" x="245" y="543"/><use a355:href="#gSjsfss1hxhx" xmlns:a355="http://www.w3.org/1999/xlink" x="160" y="198"/><use a356:href="#gSjsfss1hxhw" xmlns:a356="http://www.w3.org/1999/xlink" x="96" y="114"/><use a357:href="#gSjsfss1hxhx" xmlns:a357="http://www.w3.org/1999/xlink" x="446" y="4"/><use a358:href="#gSjsfss1hxhx" xmlns:a358="http://www.w3.org/1999/xlink" x="446" y="516"/><use a359:href="#gSjsfss1hxhx" xmlns:a359="http://www.w3.org/1999/xlink" x="250" y="491"/><use a360:href="#gSjsfss1hxhx" xmlns:a360="http://www.w3.org/1999/xlink" x="250" y="-21"/><use a361:href="#gSjsfss1hxhx" xmlns:a361="http://www.w3.org/1999/xlink" x="216" y="209"/><use a362:href="#gSjsfss1hxhw" xmlns:a362="http://www.w3.org/1999/xlink" x="438" y="299"/><use a363:href="#gSjsfss1hxhx" xmlns:a363="http://www.w3.org/1999/xlink" x="163" y="398"/><use a364:href="#gSjsfss1hxhw" xmlns:a364="http://www.w3.org/1999/xlink" x="191" y="319"/><use a365:href="#gSjsfss1hxhw" xmlns:a365="http://www.w3.org/1999/xlink" x="35" y="122"/><use a366:href="#gSjsfss1hxhw" xmlns:a366="http://www.w3.org/1999/xlink" x="274" y="246"/><use a367:href="#gSjsfss1hxhw" xmlns:a367="http://www.w3.org/1999/xlink" x="67" y="70"/><use a368:href="#gSjsfss1hxhw" xmlns:a368="http://www.w3.org/1999/xlink" x="456" y="34"/><use a369:href="#gSjsfss1hxhw" xmlns:a369="http://www.w3.org/1999/xlink" x="260" y="60"/><use a370:href="#gSjsfss1hxhw" xmlns:a370="http://www.w3.org/1999/xlink" x="144" y="170"/><use a371:href="#gSjsfss1hxhx" xmlns:a371="http://www.w3.org/1999/xlink" x="270" y="90"/><use a372:href="#gSjsfss1hxhx" xmlns:a372="http://www.w3.org/1999/xlink" x="15" y="36"/><use a373:href="#gSjsfss1hxhx" xmlns:a373="http://www.w3.org/1999/xlink" x="527" y="36"/><use a374:href="#gSjsfss1hxhw" xmlns:a374="http://www.w3.org/1999/xlink" x="289" y="147"/><use a375:href="#gSjsfss1hxhw" xmlns:a375="http://www.w3.org/1999/xlink" x="327" y="17"/><use a376:href="#gSjsfss1hxhw" xmlns:a376="http://www.w3.org/1999/xlink" x="327" y="529"/><use a377:href="#gSjsfss1hxhx" xmlns:a377="http://www.w3.org/1999/xlink" x="420" y="220"/><use a378:href="#gSjsfss1hxhx" xmlns:a378="http://www.w3.org/1999/xlink" x="64" y="252"/><use a379:href="#gSjsfss1hxhx" xmlns:a379="http://www.w3.org/1999/xlink" x="343" y="72"/><use a380:href="#gSjsfss1hxhx" xmlns:a380="http://www.w3.org/1999/xlink" x="109" y="477"/><use a381:href="#gSjsfss1hxhx" xmlns:a381="http://www.w3.org/1999/xlink" x="244" y="291"/><use a382:href="#gSjsfss1hxhx" xmlns:a382="http://www.w3.org/1999/xlink" x="287" y="435"/><use a383:href="#gSjsfss1hxhx" xmlns:a383="http://www.w3.org/1999/xlink" x="86" y="292"/><use a384:href="#gSjsfss1hxhw" xmlns:a384="http://www.w3.org/1999/xlink" x="191" y="190"/><use a385:href="#gSjsfss1hxhx" xmlns:a385="http://www.w3.org/1999/xlink" x="372" y="443"/><use a386:href="#gSjsfss1hxhx" xmlns:a386="http://www.w3.org/1999/xlink" x="320" y="223"/><use a387:href="#gSjsfss1hxhx" xmlns:a387="http://www.w3.org/1999/xlink" x="141" y="295"/><use a388:href="#gSjsfss1hxhw" xmlns:a388="http://www.w3.org/1999/xlink" x="34" y="372"/><use a389:href="#gSjsfss1hxhw" xmlns:a389="http://www.w3.org/1999/xlink" x="437" y="323"/><use a390:href="#gSjsfss1hxhx" xmlns:a390="http://www.w3.org/1999/xlink" x="451" y="212"/><use a391:href="#gSjsfss1hxhw" xmlns:a391="http://www.w3.org/1999/xlink" x="55" y="171"/><use a392:href="#gSjsfss1hxhx" xmlns:a392="http://www.w3.org/1999/xlink" x="417" y="322"/><use a393:href="#gSjsfss1hxhx" xmlns:a393="http://www.w3.org/1999/xlink" x="118" y="214"/><use a394:href="#gSjsfss1hxhw" xmlns:a394="http://www.w3.org/1999/xlink" x="317" y="109"/><use a395:href="#gSjsfss1hxhx" xmlns:a395="http://www.w3.org/1999/xlink" x="243" y="466"/><use a396:href="#gSjsfss1hxhx" xmlns:a396="http://www.w3.org/1999/xlink" x="393" y="481"/><use a397:href="#gSjsfss1hxhx" xmlns:a397="http://www.w3.org/1999/xlink" x="393" y="-31"/><use a398:href="#gSjsfss1hxhx" xmlns:a398="http://www.w3.org/1999/xlink" x="348" y="239"/><use a399:href="#gSjsfss1hxhx" xmlns:a399="http://www.w3.org/1999/xlink" x="299" y="267"/><use a400:href="#gSjsfss1hxhw" xmlns:a400="http://www.w3.org/1999/xlink" x="474" y="502"/><use a401:href="#gSjsfss1hxhw" xmlns:a401="http://www.w3.org/1999/xlink" x="474" y="-10"/><use a402:href="#gSjsfss1hxhx" xmlns:a402="http://www.w3.org/1999/xlink" x="219" y="499"/><use a403:href="#gSjsfss1hxhx" xmlns:a403="http://www.w3.org/1999/xlink" x="219" y="-13"/><use a404:href="#gSjsfss1hxhw" xmlns:a404="http://www.w3.org/1999/xlink" x="196" y="114"/><use a405:href="#gSjsfss1hxhx" xmlns:a405="http://www.w3.org/1999/xlink" x="171" y="344"/><use a406:href="#gSjsfss1hxhw" xmlns:a406="http://www.w3.org/1999/xlink" x="166" y="258"/><use a407:href="#gSjsfss1hxhw" xmlns:a407="http://www.w3.org/1999/xlink" x="402" y="396"/><use a408:href="#gSjsfss1hxhw" xmlns:a408="http://www.w3.org/1999/xlink" x="445" y="138"/><use a409:href="#gSjsfss1hxhw" xmlns:a409="http://www.w3.org/1999/xlink" x="341" y="402"/><use a410:href="#gSjsfss1hxhx" xmlns:a410="http://www.w3.org/1999/xlink" x="265" y="168"/><use a411:href="#gSjsfss1hxhw" xmlns:a411="http://www.w3.org/1999/xlink" x="390" y="301"/><use a412:href="#gSjsfss1hxhx" xmlns:a412="http://www.w3.org/1999/xlink" x="292" y="118"/><use a413:href="#gSjsfss1hxhw" xmlns:a413="http://www.w3.org/1999/xlink" x="106" y="321"/><use a414:href="#gSjsfss1hxhx" xmlns:a414="http://www.w3.org/1999/xlink" x="300" y="33"/><use a415:href="#gSjsfss1hxhw" xmlns:a415="http://www.w3.org/1999/xlink" x="209" y="325"/><use a416:href="#gSjsfss1hxhx" xmlns:a416="http://www.w3.org/1999/xlink" x="317" y="505"/><use a417:href="#gSjsfss1hxhx" xmlns:a417="http://www.w3.org/1999/xlink" x="317" y="-7"/><use a418:href="#gSjsfss1hxhw" xmlns:a418="http://www.w3.org/1999/xlink" x="369" y="325"/><use a419:href="#gSjsfss1hxhx" xmlns:a419="http://www.w3.org/1999/xlink" x="38" y="499"/><use a420:href="#gSjsfss1hxhx" xmlns:a420="http://www.w3.org/1999/xlink" x="38" y="-13"/><use a421:href="#gSjsfss1hxhx" xmlns:a421="http://www.w3.org/1999/xlink" x="295" y="291"/><use a422:href="#gSjsfss1hxhx" xmlns:a422="http://www.w3.org/1999/xlink" x="186" y="420"/><use a423:href="#gSjsfss1hxhw" xmlns:a423="http://www.w3.org/1999/xlink" x="60" y="477"/><use a424:href="#gSjsfss1hxhw" xmlns:a424="http://www.w3.org/1999/xlink" x="343" y="92"/><use a425:href="#gSjsfss1hxhx" xmlns:a425="http://www.w3.org/1999/xlink" x="444" y="469"/><use a426:href="#gSjsfss1hxhw" xmlns:a426="http://www.w3.org/1999/xlink" x="424" y="162"/><use a427:href="#gSjsfss1hxhw" xmlns:a427="http://www.w3.org/1999/xlink" x="189" y="164"/><use a428:href="#gSjsfss1hxhx" xmlns:a428="http://www.w3.org/1999/xlink" x="165" y="121"/><use a429:href="#gSjsfss1hxhw" xmlns:a429="http://www.w3.org/1999/xlink" x="502" y="132"/><use a430:href="#gSjsfss1hxhw" xmlns:a430="http://www.w3.org/1999/xlink" x="-10" y="132"/><use a431:href="#gSjsfss1hxhw" xmlns:a431="http://www.w3.org/1999/xlink" x="63" y="199"/><use a432:href="#gSjsfss1hxhx" xmlns:a432="http://www.w3.org/1999/xlink" x="475" y="428"/><use a433:href="#gSjsfss1hxhw" xmlns:a433="http://www.w3.org/1999/xlink" x="234" y="139"/><use a434:href="#gSjsfss1hxhw" xmlns:a434="http://www.w3.org/1999/xlink" x="388" y="30"/><use a435:href="#gSjsfss1hxhw" xmlns:a435="http://www.w3.org/1999/xlink" x="388" y="542"/><use a436:href="#gSjsfss1hxhw" xmlns:a436="http://www.w3.org/1999/xlink" x="300" y="322"/><use a437:href="#gSjsfss1hxhw" xmlns:a437="http://www.w3.org/1999/xlink" x="160" y="90"/><use a438:href="#gSjsfss1hxhx" xmlns:a438="http://www.w3.org/1999/xlink" x="112" y="143"/><use a439:href="#gSjsfss1hxhw" xmlns:a439="http://www.w3.org/1999/xlink" x="167" y="446"/><use a440:href="#gSjsfss1hxhw" xmlns:a440="http://www.w3.org/1999/xlink" x="117" y="165"/><use a441:href="#gSjsfss1hxhw" xmlns:a441="http://www.w3.org/1999/xlink" x="216" y="139"/><use a442:href="#gSjsfss1hxhx" xmlns:a442="http://www.w3.org/1999/xlink" x="418" y="502"/><use a443:href="#gSjsfss1hxhx" xmlns:a443="http://www.w3.org/1999/xlink" x="418" y="-10"/><use a444:href="#gSjsfss1hxhx" xmlns:a444="http://www.w3.org/1999/xlink" x="139" y="83"/><use a445:href="#gSjsfss1hxhw" xmlns:a445="http://www.w3.org/1999/xlink" x="137" y="246"/><use a446:href="#gSjsfss1hxhx" xmlns:a446="http://www.w3.org/1999/xlink" x="186" y="399"/><use a447:href="#gSjsfss1hxhx" xmlns:a447="http://www.w3.org/1999/xlink" x="492" y="156"/><use a448:href="#gSjsfss1hxhx" xmlns:a448="http://www.w3.org/1999/xlink" x="-20" y="156"/><use a449:href="#gSjsfss1hxhx" xmlns:a449="http://www.w3.org/1999/xlink" x="111" y="369"/><use a450:href="#gSjsfss1hxhw" xmlns:a450="http://www.w3.org/1999/xlink" x="62" y="270"/><use a451:href="#gSjsfss1hxhw" xmlns:a451="http://www.w3.org/1999/xlink" x="266" y="370"/><use a452:href="#gSjsfss1hxhw" xmlns:a452="http://www.w3.org/1999/xlink" x="337" y="499"/><use a453:href="#gSjsfss1hxhw" xmlns:a453="http://www.w3.org/1999/xlink" x="337" y="-13"/><use a454:href="#gSjsfss1hxhx" xmlns:a454="http://www.w3.org/1999/xlink" x="369" y="34"/><use a455:href="#gSjsfss1hxhx" xmlns:a455="http://www.w3.org/1999/xlink" x="209" y="83"/><use a456:href="#gSjsfss1hxhw" xmlns:a456="http://www.w3.org/1999/xlink" x="39" y="242"/><use a457:href="#gSjsfss1hxhx" xmlns:a457="http://www.w3.org/1999/xlink" x="118" y="272"/><use a458:href="#gSjsfss1hxhw" xmlns:a458="http://www.w3.org/1999/xlink" x="275" y="471"/><use a459:href="#gSjsfss1hxhx" xmlns:a459="http://www.w3.org/1999/xlink" x="312" y="416"/><use a460:href="#gSjsfss1hxhw" xmlns:a460="http://www.w3.org/1999/xlink" x="498" y="497"/><use a461:href="#gSjsfss1hxhw" xmlns:a461="http://www.w3.org/1999/xlink" x="-14" y="497"/><use a462:href="#gSjsfss1hxhw" xmlns:a462="http://www.w3.org/1999/xlink" x="-14" y="-15"/><use a463:href="#gSjsfss1hxhw" xmlns:a463="http://www.w3.org/1999/xlink" x="498" y="-15"/><use a464:href="#gSjsfss1hxhw" xmlns:a464="http://www.w3.org/1999/xlink" x="-14" y="-15"/><use a465:href="#gSjsfss1hxhx" xmlns:a465="http://www.w3.org/1999/xlink" x="448" y="491"/><use a466:href="#gSjsfss1hxhx" xmlns:a466="http://www.w3.org/1999/xlink" x="448" y="-21"/><use a467:href="#gSjsfss1hxhw" xmlns:a467="http://www.w3.org/1999/xlink" x="220" y="272"/><use a468:href="#gSjsfss1hxhw" xmlns:a468="http://www.w3.org/1999/xlink" x="114" y="12"/><use a469:href="#gSjsfss1hxhw" xmlns:a469="http://www.w3.org/1999/xlink" x="114" y="524"/><use a470:href="#gSjsfss1hxhw" xmlns:a470="http://www.w3.org/1999/xlink" x="140" y="115"/><use a471:href="#gSjsfss1hxhw" xmlns:a471="http://www.w3.org/1999/xlink" x="468" y="443"/><use a472:href="#gSjsfss1hxhx" xmlns:a472="http://www.w3.org/1999/xlink" x="468" y="404"/><use a473:href="#gSjsfss1hxhx" xmlns:a473="http://www.w3.org/1999/xlink" x="17" y="293"/><use a474:href="#gSjsfss1hxhx" xmlns:a474="http://www.w3.org/1999/xlink" x="529" y="293"/><use a475:href="#gSjsfss1hxhx" xmlns:a475="http://www.w3.org/1999/xlink" x="374" y="124"/><use a476:href="#gSjsfss1hxhx" xmlns:a476="http://www.w3.org/1999/xlink" x="470" y="132"/><use a477:href="#gSjsfss1hxhx" xmlns:a477="http://www.w3.org/1999/xlink" x="443" y="424"/><use a478:href="#gSjsfss1hxhw" xmlns:a478="http://www.w3.org/1999/xlink" x="398" y="15"/><use a479:href="#gSjsfss1hxhw" xmlns:a479="http://www.w3.org/1999/xlink" x="398" y="527"/><use a480:href="#gSjsfss1hxhw" xmlns:a480="http://www.w3.org/1999/xlink" x="3" y="265"/><use a481:href="#gSjsfss1hxhw" xmlns:a481="http://www.w3.org/1999/xlink" x="515" y="265"/><use a482:href="#gSjsfss1hxhw" xmlns:a482="http://www.w3.org/1999/xlink" x="212" y="295"/><use a483:href="#gSjsfss1hxhx" xmlns:a483="http://www.w3.org/1999/xlink" x="40" y="16"/><use a484:href="#gSjsfss1hxhx" xmlns:a484="http://www.w3.org/1999/xlink" x="40" y="528"/><use a485:href="#gSjsfss1hxhw" xmlns:a485="http://www.w3.org/1999/xlink" x="86" y="315"/><use a486:href="#gSjsfss1hxhx" xmlns:a486="http://www.w3.org/1999/xlink" x="142" y="348"/><use a487:href="#gSjsfss1hxhx" xmlns:a487="http://www.w3.org/1999/xlink" x="373" y="176"/><use a488:href="#gSjsfss1hxhw" xmlns:a488="http://www.w3.org/1999/xlink" x="445" y="239"/><use a489:href="#gSjsfss1hxhw" xmlns:a489="http://www.w3.org/1999/xlink" x="146" y="491"/><use a490:href="#gSjsfss1hxhw" xmlns:a490="http://www.w3.org/1999/xlink" x="146" y="-21"/><use a491:href="#gSjsfss1hxhw" xmlns:a491="http://www.w3.org/1999/xlink" x="394" y="420"/><use a492:href="#gSjsfss1hxhw" xmlns:a492="http://www.w3.org/1999/xlink" x="241" y="442"/><use a493:href="#gSjsfss1hxhx" xmlns:a493="http://www.w3.org/1999/xlink" x="190" y="351"/><use a494:href="#gSjsfss1hxhx" xmlns:a494="http://www.w3.org/1999/xlink" x="507" y="234"/><use a495:href="#gSjsfss1hxhx" xmlns:a495="http://www.w3.org/1999/xlink" x="-5" y="234"/><use a496:href="#gSjsfss1hxhx" xmlns:a496="http://www.w3.org/1999/xlink" x="92" y="395"/></g>
			<desc>Created with Snap</desc></svg>