<?xml version="1.0" encoding="UTF-8" standalone="no"?>
<svg
   xmlns:dc="http://purl.org/dc/elements/1.1/"
   xmlns:cc="http://creativecommons.org/ns#"
   xmlns:rdf="http://www.w3.org/1999/02/22-rdf-syntax-ns#"
   xmlns:svg="http://www.w3.org/2000/svg"
   xmlns="http://www.w3.org/2000/svg"
   width="128"
   height="128"
   viewBox="0 0 33.866666 33.866668"
   version="1.1"
   id="svg8">
  <defs
     id="defs2" />
  <metadata
     id="metadata5">
    <rdf:RDF>
      <cc:Work
         rdf:about="">
        <dc:format>image/svg+xml</dc:format>
        <dc:type
           rdf:resource="http://purl.org/dc/dcmitype/StillImage" />
        <dc:title></dc:title>
      </cc:Work>
    </rdf:RDF>
  </metadata>
  <g
     id="layer1"
     transform="matrix(1,0,0,1.0396007,0.28700565,-274.85434)"
     style="display:inline">
    <path
       style="fill:none;fill-rule:evenodd;stroke:#000000;stroke-width:0.79374999;stroke-linecap:butt;stroke-linejoin:miter;stroke-miterlimit:4;stroke-dasharray:none;stroke-opacity:1"
       d="M 8.4189901,295.66362 C 11.158503,292.1223 16.637528,268.40213 16.637528,268.40213 H 16.303441"
       id="path5339" />
    <path
       style="display:inline;fill:none;fill-rule:evenodd;stroke:#000000;stroke-width:0.79374999;stroke-linecap:butt;stroke-linejoin:miter;stroke-miterlimit:4;stroke-dasharray:none;stroke-opacity:1"
       d="m 25.182471,295.87427 c -2.739513,-3.54131 -8.218538,-27.26148 -8.218538,-27.26148 h 0.334087"
       id="path5339-6" />
    <path
       style="fill:none;fill-rule:evenodd;stroke:#000000;stroke-width:0.26458332px;stroke-linecap:butt;stroke-linejoin:miter;stroke-opacity:1"
       d="m 11.091685,281.09743 c 0,0 0.54195,1.32083 2.279202,0.45221"
       id="path5356" />
    <path
       style="display:inline;fill:none;fill-rule:evenodd;stroke:#000000;stroke-width:0.30025625px;stroke-linecap:butt;stroke-linejoin:miter;stroke-opacity:1"
       d="m 13.325162,281.50443 c 0,0 0.721451,1.06517 3.034106,0.22486"
       id="path5356-2" />
    <path
       style="display:inline;fill:none;fill-rule:evenodd;stroke:#000000;stroke-width:0.26458332px;stroke-linecap:butt;stroke-linejoin:miter;stroke-opacity:1"
       d="m 22.678217,281.14118 c 0,0 -0.54195,1.32083 -2.279202,0.45221"
       id="path5356-9" />
    <path
       style="display:inline;fill:none;fill-rule:evenodd;stroke:#000000;stroke-width:0.30025625px;stroke-linecap:butt;stroke-linejoin:miter;stroke-opacity:1"
       d="m 20.44474,281.54818 c 0,0 -0.721451,1.06517 -3.034106,0.22486"
       id="path5356-2-1" />
    <path
       style="display:inline;fill:none;fill-rule:evenodd;stroke:#000000;stroke-width:0.29435033px;stroke-linecap:butt;stroke-linejoin:miter;stroke-opacity:1"
       d="m 9.3649889,284.23962 c 0,0 0.6863481,1.29082 2.8864771,0.44193"
       id="path5356-27" />
    <path
       style="display:inline;fill:none;fill-rule:evenodd;stroke:#000000;stroke-width:0.33403665px;stroke-linecap:butt;stroke-linejoin:miter;stroke-opacity:1"
       d="m 12.193558,284.63737 c 0,0 0.913675,1.04097 3.842518,0.21975"
       id="path5356-2-0" />
    <path
       style="display:inline;fill:none;fill-rule:evenodd;stroke:#000000;stroke-width:0.29435033px;stroke-linecap:butt;stroke-linejoin:miter;stroke-opacity:1"
       d="m 24.038657,284.23245 c 0,0 -0.686348,1.29082 -2.886477,0.44193"
       id="path5356-9-9" />
    <path
       style="display:inline;fill:none;fill-rule:evenodd;stroke:#000000;stroke-width:0.33403665px;stroke-linecap:butt;stroke-linejoin:miter;stroke-opacity:1"
       d="m 21.210088,284.6302 c 0,0 -0.913675,1.04097 -3.842518,0.21975"
       id="path5356-2-1-3" />
    <path
       style="display:inline;fill:none;fill-rule:evenodd;stroke:#000000;stroke-width:0.32374752px;stroke-linecap:butt;stroke-linejoin:miter;stroke-opacity:1"
       d="m 7.6307018,287.09958 c 0,0 0.8530075,1.25644 3.5873732,0.43016"
       id="path5356-27-6" />
    <path
       style="display:inline;fill:none;fill-rule:evenodd;stroke:#000000;stroke-width:0.3673974px;stroke-linecap:butt;stroke-linejoin:miter;stroke-opacity:1"
       d="m 11.146106,287.48674 c 0,0 1.135534,1.01324 4.77556,0.2139"
       id="path5356-2-0-1" />
    <path
       style="display:inline;fill:none;fill-rule:evenodd;stroke:#000000;stroke-width:0.32374752px;stroke-linecap:butt;stroke-linejoin:miter;stroke-opacity:1"
       d="m 25.867438,287.0926 c 0,0 -0.853007,1.25644 -3.587373,0.43016"
       id="path5356-9-9-8" />
    <path
       style="display:inline;fill:none;fill-rule:evenodd;stroke:#000000;stroke-width:0.3673974px;stroke-linecap:butt;stroke-linejoin:miter;stroke-opacity:1"
       d="m 22.352034,287.47976 c 0,0 -1.135534,1.01324 -4.77556,0.2139"
       id="path5356-2-1-3-7" />
    <path
       style="display:inline;fill:none;fill-rule:evenodd;stroke:#000000;stroke-width:0.36888862px;stroke-linecap:butt;stroke-linejoin:miter;stroke-opacity:1"
       d="m 5.5464873,290.35459 c 0,0 1.1505074,1.20943 4.8385307,0.41407"
       id="path5356-27-9" />
    <path
       style="display:inline;fill:none;fill-rule:evenodd;stroke:#000000;stroke-width:0.4186247px;stroke-linecap:butt;stroke-linejoin:miter;stroke-opacity:1"
       d="m 10.287947,290.72726 c 0,0 1.531572,0.97534 6.441119,0.2059"
       id="path5356-2-0-2" />
    <path
       style="display:inline;fill:none;fill-rule:evenodd;stroke:#000000;stroke-width:0.36888862px;stroke-linecap:butt;stroke-linejoin:miter;stroke-opacity:1"
       d="m 28.164265,290.34781 c 0,0 -1.150507,1.20944 -4.83853,0.41407"
       id="path5356-9-9-0" />
    <path
       style="display:inline;fill:none;fill-rule:evenodd;stroke:#000000;stroke-width:0.4186247px;stroke-linecap:butt;stroke-linejoin:miter;stroke-opacity:1"
       d="m 23.422804,290.72048 c 0,0 -1.531569,0.97534 -6.441118,0.2059"
       id="path5356-2-1-3-2" />
  </g>
  <g
     transform="matrix(1,0,0,1.0396007,0.28700565,-1.3007809)"
     id="layer2"
     style="display:inline">
    <rect
       style="fill:#000000;fill-opacity:1;stroke:#000000;stroke-width:0.38909134;stroke-miterlimit:4;stroke-dasharray:none;stroke-opacity:0.97008511"
       id="rect5265"
       width="1.4267372"
       height="27.854059"
       x="16.042513"
       y="4.9933639" />
    <ellipse
       style="fill:#000000;fill-opacity:1;stroke:#000000;stroke-width:0.46515712;stroke-miterlimit:4;stroke-dasharray:none;stroke-opacity:0.97008511"
       id="path5271"
       cx="16.754827"
       cy="4.8345146"
       rx="0.67628652"
       ry="0.74603361" />
    <path
       style="fill:none;fill-rule:evenodd;stroke:#000000;stroke-width:0.83405071;stroke-linecap:butt;stroke-linejoin:miter;stroke-miterlimit:4;stroke-dasharray:none;stroke-opacity:1"
       d="M 0.0270501,32.321109 C 4.1778238,32.364484 13.763838,14.949998 16.406471,4.3531109"
       id="path5273" />
    <path
       style="display:inline;fill:none;fill-rule:evenodd;stroke:#000000;stroke-width:0.83405071;stroke-linecap:butt;stroke-linejoin:miter;stroke-miterlimit:4;stroke-dasharray:none;stroke-opacity:1"
       d="M 33.513183,32.391382 C 29.36241,32.434758 19.776396,15.020271 17.133763,4.4233834"
       id="path5273-5" />
  </g>
</svg>
