<?xml version="1.0" encoding="UTF-8" standalone="no"?>
<!-- Created with Inkscape (http://www.inkscape.org/) -->

<svg
   xmlns:dc="http://purl.org/dc/elements/1.1/"
   xmlns:cc="http://creativecommons.org/ns#"
   xmlns:rdf="http://www.w3.org/1999/02/22-rdf-syntax-ns#"
   xmlns:svg="http://www.w3.org/2000/svg"
   xmlns="http://www.w3.org/2000/svg"
   xmlns:sodipodi="http://sodipodi.sourceforge.net/DTD/sodipodi-0.dtd"
   xmlns:inkscape="http://www.inkscape.org/namespaces/inkscape"
   width="128"
   height="128"
   viewBox="0 0 33.866666 33.866668"
   version="1.1"
   id="svg8"
   inkscape:version="0.92.2 (5c3e80d, 2017-08-06)"
   sodipodi:docname="Swing.svg">
  <defs
     id="defs2" />
  <sodipodi:namedview
     id="base"
     pagecolor="#ffffff"
     bordercolor="#666666"
     borderopacity="1.0"
     inkscape:pageopacity="0.0"
     inkscape:pageshadow="2"
     inkscape:zoom="5.6"
     inkscape:cx="15.937543"
     inkscape:cy="39.612155"
     inkscape:document-units="mm"
     inkscape:current-layer="layer2"
     showgrid="false"
     units="px"
     inkscape:pagecheckerboard="true"
     borderlayer="false"
     inkscape:showpageshadow="false"
     inkscape:measure-start="122.228,43.184"
     inkscape:measure-end="122.734,22.2233"
     inkscape:window-width="1920"
     inkscape:window-height="1046"
     inkscape:window-x="0"
     inkscape:window-y="34"
     inkscape:window-maximized="1" />
  <metadata
     id="metadata5">
    <rdf:RDF>
      <cc:Work
         rdf:about="">
        <dc:format>image/svg+xml</dc:format>
        <dc:type
           rdf:resource="http://purl.org/dc/dcmitype/StillImage" />
        <dc:title></dc:title>
      </cc:Work>
    </rdf:RDF>
  </metadata>
  <g
     inkscape:label="Layer 1"
     inkscape:groupmode="layer"
     id="layer1"
     transform="translate(0,-263.1333)"
     style="display:inline">
    <path
       style="fill:#000000;fill-opacity:1;fill-rule:evenodd;stroke:#000000;stroke-width:0.34917006px;stroke-linecap:butt;stroke-linejoin:miter;stroke-opacity:1"
       d="m 17.000875,293.3891 4.988381,-25.3369 1.639083,0.005 -5.018915,25.32954 z"
       id="path1420"
       inkscape:connector-curvature="0"
       sodipodi:nodetypes="ccccc" />
    <path
       style="fill:#000000;fill-opacity:1;fill-rule:evenodd;stroke:#000000;stroke-width:0.34917012px;stroke-linecap:butt;stroke-linejoin:miter;stroke-opacity:1"
       d="m 29.353278,293.3937 -4.988381,-25.3369 -1.639083,0.005 5.018915,25.32954 z"
       id="path1420-7"
       inkscape:connector-curvature="0"
       sodipodi:nodetypes="ccccc" />
    <path
       style="fill:#000000;fill-opacity:1;fill-rule:evenodd;stroke:#000000;stroke-width:0.45677662px;stroke-linecap:butt;stroke-linejoin:miter;stroke-opacity:1"
       d="m 21.989255,268.0522 c 0,0 0.140927,-0.63579 1.158103,-0.65178 1.017177,-0.0159 1.217539,0.65638 1.217539,0.65638"
       id="path1473"
       inkscape:connector-curvature="0"
       sodipodi:nodetypes="czc" />
  </g>
  <g
     inkscape:groupmode="layer"
     id="layer2"
     inkscape:label="Layer 2"
     style="display:inline">
    <path
       inkscape:connector-curvature="0"
       d="m 8.8270235,11.848631 c 0.207181,0.880131 1.087244,1.424951 1.9675365,1.217732 0.876446,-0.206312 1.421106,-1.086338 1.213887,-1.96663 C 11.802135,10.223287 10.922108,9.6786277 10.045663,9.8849404 9.1653695,10.092159 8.6207485,10.972345 8.8270235,11.848631 Z"
       id="path6"
       style="stroke-width:0.16463725" />
    <path
       inkscape:connector-curvature="0"
       d="m 8.1920225,21.410423 c 0.0674,0.06211 0.07546,0.163214 0.01825,0.234864 l -0.337933,0.388731 c -0.05924,0.06807 -0.164195,0.07704 -0.236146,0.01855 l -2.077163,-1.790504 c -0.06653,-0.05842 -0.07545,-0.163214 -0.01825,-0.234864 l 0.337933,-0.388731 c 0.05954,-0.06679 0.164497,-0.07576 0.236449,-0.01727 z"
       id="path8"
       style="stroke-width:0.16463725" />
    <path
       inkscape:connector-curvature="0"
       d="m 9.6395625,18.494224 1.3005475,-1.211198 -0.433861,-0.3723 -1.3083455,1.211849 z"
       id="path10"
       style="stroke-width:0.16463725" />
    <path
       inkscape:connector-curvature="0"
       d="m 12.679508,15.668475 8.37111,-8.0865322 0.153124,-0.8029596 -8.964237,8.5133938 z"
       id="path12"
       style="stroke-width:0.16463725"
       sodipodi:nodetypes="ccccc" />
    <path
       inkscape:connector-curvature="0"
       d="m 10.322724,19.533269 c 0.180751,0.15568 0.336581,0.346319 0.394638,0.592955 l 0.724828,3.095755 c 0.141767,0.602246 -0.232496,1.201648 -0.830896,1.34251 C 10.007766,24.706557 9.4092685,24.33614 9.2675015,23.733894 L 8.6632025,21.15016 5.5598055,18.401539 C 4.4486415,17.436859 5.2018105,16.5157 5.2018105,16.5157 l 1.98103,-3.197725 c 0.418565,-0.55706 1.429778,-0.695983 1.990523,-0.278285 l 3.3949435,2.981227 c 0.380507,0.285745 0.458408,0.825052 0.176094,1.20864 -0.285481,0.381628 -0.828739,0.459275 -1.209206,0.17369 l -2.2184965,-1.89728 -1.240031,2.029447 z"
       id="path14"
       style="stroke-width:0.16463725" />
  </g>
</svg>
