<?xml version="1.0" encoding="UTF-8" standalone="no"?>
<svg
   xmlns:dc="http://purl.org/dc/elements/1.1/"
   xmlns:cc="http://creativecommons.org/ns#"
   xmlns:rdf="http://www.w3.org/1999/02/22-rdf-syntax-ns#"
   xmlns:svg="http://www.w3.org/2000/svg"
   xmlns="http://www.w3.org/2000/svg"
   id="svg8"
   version="1.1"
   viewBox="0 0 33.866666 33.866668"
   height="128"
   width="128">
  <defs
     id="defs2" />
  <metadata
     id="metadata5">
    <rdf:RDF>
      <cc:Work
         rdf:about="">
        <dc:format>image/svg+xml</dc:format>
        <dc:type
           rdf:resource="http://purl.org/dc/dcmitype/StillImage" />
        <dc:title></dc:title>
      </cc:Work>
    </rdf:RDF>
  </metadata>
  <g
     style="display:inline"
     transform="translate(0,-263.1333)"
     id="layer1">
    <path
       id="path1420"
       d="m 16.765638,296.74141 6.363383,-32.32079 2.090882,0.007 -6.402334,32.3114 z"
       style="fill:#000000;fill-opacity:1;fill-rule:evenodd;stroke:#000000;stroke-width:0.44541565px;stroke-linecap:butt;stroke-linejoin:miter;stroke-opacity:1" />
    <path
       id="path1420-7"
       d="m 32.52287,296.74728 -6.363384,-32.32079 -2.09088,0.007 6.402333,32.3114 z"
       style="fill:#000000;fill-opacity:1;fill-rule:evenodd;stroke:#000000;stroke-width:0.44541571px;stroke-linecap:butt;stroke-linejoin:miter;stroke-opacity:1" />
    <path
       id="path1473"
       d="m 23.12902,264.42062 c 0,0 0.179772,-0.81104 1.477324,-0.83143 1.297553,-0.0203 1.553142,0.8373 1.553142,0.8373"
       style="fill:#000000;fill-opacity:1;fill-rule:evenodd;stroke:#000000;stroke-width:0.58268297px;stroke-linecap:butt;stroke-linejoin:miter;stroke-opacity:1" />
  </g>
  <g
     style="display:inline"
     id="layer2">
    <path
       style="stroke-width:0.21001802"
       id="path6"
       d="m 6.338738,10.127176 c 0.2642886,1.122732 1.386933,1.817726 2.5098702,1.553389 C 9.9666386,11.417385 10.661429,10.294789 10.397092,9.1718519 10.133912,8.0538214 9.0113137,7.3590309 7.8932845,7.622212 6.770346,7.8865494 6.0756052,9.0093501 6.338738,10.127176 Z" />
    <path
       style="stroke-width:0.21001802"
       id="path8"
       d="m 5.5287046,22.32459 c 0.085979,0.07923 0.09626,0.208203 0.023281,0.299602 l -0.4310812,0.495882 c -0.075569,0.08683 -0.2094539,0.09827 -0.3012376,0.02366 L 2.1699521,20.859697 c -0.084869,-0.07452 -0.096247,-0.208203 -0.023281,-0.299603 l 0.4310812,-0.49588 c 0.075952,-0.0852 0.2098391,-0.09664 0.3016241,-0.02203 z" />
    <path
       style="stroke-width:0.21001802"
       id="path10"
       d="M 7.375246,18.604568 9.0342777,17.059513 8.4808269,16.584592 6.8118477,18.130476 Z" />
    <path
       style="stroke-width:0.21001802"
       id="path12"
       d="M 11.253125,14.999926 21.931656,4.6844142 22.126987,3.660126 10.691839,14.52016 Z" />
    <path
       style="stroke-width:0.21001802"
       id="path14"
       d="m 8.2467149,19.930016 c 0.2305733,0.198591 0.4293564,0.441779 0.5034164,0.756397 l 0.9246203,3.949072 c 0.1808437,0.76825 -0.2965814,1.532872 -1.059925,1.712562 C 7.8449415,26.529274 7.0814735,26.056755 6.9006297,25.288506 L 6.1297612,21.992588 2.1709408,18.486335 C 0.75349439,17.255749 1.7142676,16.080681 1.7142676,16.080681 L 4.2413508,12.001532 C 4.7752894,11.290923 6.0652341,11.113707 6.7805435,11.64654 l 4.3307295,3.802976 c 0.48539,0.364507 0.584763,1.05247 0.224633,1.54179 -0.364172,0.486821 -1.057174,0.58587 -1.5425134,0.221567 L 6.9633875,14.792624 5.3815531,17.38147 Z" />
  </g>
</svg>
