<?xml version="1.0" encoding="UTF-8" standalone="no"?>
<!-- Created with Inkscape (http://www.inkscape.org/) -->

<svg
   xmlns="http://www.w3.org/2000/svg"
   version="1.1"
   width="100%"
   height="100%"
   viewBox="0 0 16 16">
  <path
     d="M 8,1.03125 C 7.7538575,1.0291155 7.51543,1.3562643 7.5,2 4.6029845,2.2545513 2.2563153,4.6023818 2,7.5 c -1.2703952,0 -1.28747145,0.96914 0,1 0.2283193,2.916563 2.584827,5.219256 5.5,5.46875 0,1.404649 1,1.356045 1,0 2.935396,-0.222296 5.24644,-2.531918 5.46875,-5.46875 1.394629,0 1.355936,-1 0,-1 C 13.719146,4.5822447 11.417031,2.2268292 8.5,2 8.5,1.3648024 8.2461425,1.0333845 8,1.03125 z m -0.5,2.28125 0,3.5 L 5.03125,4.34375 C 5.7197423,3.7836121 6.5677817,3.4152092 7.5,3.3125 z m 1,0 c 0.9313705,0.098765 1.774011,0.4754302 2.46875,1.03125 L 8.5,6.8125 l 0,-3.5 z m 3.1875,1.71875 C 12.246246,5.7188969 12.615706,6.567911 12.71875,7.5 l -3.5,0 2.46875,-2.46875 z M 4.34375,5.0625 6.78125,7.5 3.3125,7.5 C 3.4201833,6.5853201 3.7953862,5.7436898 4.34375,5.0625 z M 8,7.25 C 8.4142135,7.25 8.75,7.5857863 8.75,8 8.75,8.4142135 8.4142135,8.75 8,8.75 7.5857865,8.75 7.25,8.4142135 7.25,8 7.25,7.5857863 7.5857865,7.25 8,7.25 z m -4.6875,1.25 3.53125,0 -2.5,2.5 C 3.7799209,10.302758 3.4094553,9.4411262 3.3125,8.5 z m 5.84375,0 3.5625,0 c -0.100162,0.9519801 -0.493668,1.801539 -1.0625,2.5 l -2.5,-2.5 z M 7.5,9.21875 l 0,3.5 C 6.567911,12.615706 5.7188969,12.246246 5.03125,11.6875 L 7.5,9.21875 z m 1,0 2.46875,2.5 c -0.687689,0.544344 -1.5388332,0.905241 -2.46875,1 l 0,-3.5 z" />
</svg>
