<?xml version="1.0" encoding="UTF-8" standalone="no"?>
<svg
   xmlns:dc="http://purl.org/dc/elements/1.1/"
   xmlns:cc="http://creativecommons.org/ns#"
   xmlns:rdf="http://www.w3.org/1999/02/22-rdf-syntax-ns#"
   xmlns:svg="http://www.w3.org/2000/svg"
   xmlns="http://www.w3.org/2000/svg"
   width="14"
   height="14"
   id="svg3800"
   version="1.1"
   viewBox="0 0 14 14">
  <defs
     id="defs3802" />
  <metadata
     id="metadata3805">
    <rdf:RDF>
      <cc:Work
         rdf:about="">
        <dc:format>image/svg+xml</dc:format>
        <dc:type
           rdf:resource="http://purl.org/dc/dcmitype/StillImage" />
        <dc:title></dc:title>
      </cc:Work>
    </rdf:RDF>
  </metadata>
  <g
     transform="translate(1.5520395,2.8104498)"
     id="g97">
    <g
       id="g105">
      <path
         id="path822"
         transform="translate(-1.5520395,-2.8104498)"
         d="M 11.210938 0 C 10.70711 -3.176061e-008 10.183439 0.048928031 9.6523438 0.125 L 13.875 4.3457031 C 14.085089 2.8772972 14.016015 1.4699208 13.644531 0.35546875 C 12.932667 0.1181805 12.100768 5.609375e-008 11.210938 0 z M 9.6289062 0.12890625 C 7.3527468 0.45953347 4.9297874 1.4764624 3.203125 3.203125 C 1.4764627 4.9297873 0.45953354 7.3527467 0.12890625 9.6289062 L 0.82226562 8.9355469 L 5.0644531 13.179688 L 4.375 13.869141 C 6.6499699 13.537874 9.0712503 12.5225 10.796875 10.796875 C 12.522501 9.0712501 13.537874 6.6499698 13.869141 4.375 L 13.179688 5.0644531 L 8.9355469 0.82226562 L 9.6289062 0.12890625 z M 9.84375 3.4785156 L 10.550781 4.1855469 L 9.84375 4.8945312 L 10.421875 5.4726562 L 9.7148438 6.1796875 L 9.1367188 5.6015625 L 8.4296875 6.3085938 L 9.0292969 6.9082031 L 8.3222656 7.6152344 L 7.7226562 7.015625 L 7.015625 7.7226562 L 7.6269531 8.3339844 L 6.9199219 9.0410156 L 6.3085938 8.4296875 L 5.6015625 9.1367188 L 6.2128906 9.7480469 L 5.5058594 10.455078 L 4.8945312 9.84375 L 4.1855469 10.550781 L 3.4785156 9.84375 L 4.1875 9.1367188 L 3.6074219 8.5566406 L 4.3144531 7.8496094 L 4.8945312 8.4296875 L 5.6015625 7.7226562 L 5.0214844 7.1425781 L 5.7285156 6.4355469 L 6.3085938 7.015625 L 7.015625 6.3085938 L 6.4238281 5.7167969 L 7.1308594 5.0097656 L 7.7226562 5.6015625 L 8.4296875 4.8945312 L 7.8164062 4.28125 L 8.5234375 3.5742188 L 9.1367188 4.1875 L 9.84375 3.4785156 z M 0.125 9.6523438 C -0.085425921 11.121428 -0.016173302 12.529605 0.35546875 13.644531 C 1.4699207 14.016015 2.8772971 14.085089 4.3457031 13.875 L 0.125 9.6523438 z "
         style="opacity:1;fill:#000000;fill-opacity:1;stroke:none;stroke-width:3.70144176;stroke-linecap:square;stroke-miterlimit:4;stroke-dasharray:none;stroke-opacity:1;paint-order:markers stroke fill" />
    </g>
  </g>
</svg>
