<?xml version="1.0" encoding="UTF-8" standalone="no"?>
<svg
   xmlns:dc="http://purl.org/dc/elements/1.1/"
   xmlns:cc="http://creativecommons.org/ns#"
   xmlns:rdf="http://www.w3.org/1999/02/22-rdf-syntax-ns#"
   xmlns:svg="http://www.w3.org/2000/svg"
   xmlns="http://www.w3.org/2000/svg"
   viewBox="0 0 14 14"
   version="1.1"
   id="svg3800"
   height="14"
   width="14">
  <defs
     id="defs3802" />
  <metadata
     id="metadata3805">
    <rdf:RDF>
      <cc:Work
         rdf:about="">
        <dc:format>image/svg+xml</dc:format>
        <dc:type
           rdf:resource="http://purl.org/dc/dcmitype/StillImage" />
        <dc:title></dc:title>
      </cc:Work>
    </rdf:RDF>
  </metadata>
  <path
     id="path815"
     d="M 4 0 A 4 4 0 0 0 0 4 A 4 4 0 0 0 4 8 L 7.2929688 8 L 13.146484 13.853516 C 13.342353 14.049384 13.657647 14.049384 13.853516 13.853516 C 14.049384 13.657647 14.049384 13.342353 13.853516 13.146484 L 8 7.2929688 L 8 5 L 8 4 A 4 4 0 0 0 4 0 z M 4 1 A 3 3 0 0 1 4.2636719 1.0136719 A 3 3 0 0 1 4.3710938 1.0273438 A 3 3 0 0 1 4.5703125 1.0566406 A 3 3 0 0 1 4.6621094 1.078125 A 3 3 0 0 1 4.8574219 1.1269531 A 3 3 0 0 1 4.9550781 1.1601562 A 3 3 0 0 1 5.1367188 1.2246094 A 3 3 0 0 1 5.2480469 1.2753906 A 3 3 0 0 1 5.4042969 1.3515625 A 3 3 0 0 1 5.5351562 1.4257812 A 3 3 0 0 1 5.6484375 1.4960938 A 3 3 0 0 1 5.796875 1.6015625 A 3 3 0 0 1 5.890625 1.671875 A 3 3 0 0 1 6.0234375 1.7890625 A 3 3 0 0 1 6.1191406 1.8808594 A 3 3 0 0 1 6.2109375 1.9765625 A 3 3 0 0 1 6.328125 2.109375 A 3 3 0 0 1 6.3984375 2.203125 A 3 3 0 0 1 6.5039062 2.3515625 A 3 3 0 0 1 6.5742188 2.4648438 A 3 3 0 0 1 6.6484375 2.5957031 A 3 3 0 0 1 6.7246094 2.7519531 A 3 3 0 0 1 6.7753906 2.8632812 A 3 3 0 0 1 6.8398438 3.0449219 A 3 3 0 0 1 6.8730469 3.1425781 A 3 3 0 0 1 6.921875 3.3378906 A 3 3 0 0 1 6.9433594 3.4296875 A 3 3 0 0 1 6.9726562 3.6289062 A 3 3 0 0 1 6.9863281 3.7363281 A 3 3 0 0 1 7 4 L 7 4.5859375 L 4.5859375 7 L 4 7 A 3 3 0 0 1 3.7363281 6.9863281 A 3 3 0 0 1 3.6289062 6.9726562 A 3 3 0 0 1 3.4296875 6.9433594 A 3 3 0 0 1 3.3378906 6.921875 A 3 3 0 0 1 3.1425781 6.8730469 A 3 3 0 0 1 3.0449219 6.8398438 A 3 3 0 0 1 2.8632812 6.7753906 A 3 3 0 0 1 2.7519531 6.7246094 A 3 3 0 0 1 2.5957031 6.6484375 A 3 3 0 0 1 2.4648438 6.5742188 A 3 3 0 0 1 2.3515625 6.5039062 A 3 3 0 0 1 2.203125 6.3984375 A 3 3 0 0 1 2.109375 6.328125 A 3 3 0 0 1 1.9765625 6.2109375 A 3 3 0 0 1 1.8808594 6.1191406 A 3 3 0 0 1 1.7890625 6.0234375 A 3 3 0 0 1 1.671875 5.890625 A 3 3 0 0 1 1.6015625 5.796875 A 3 3 0 0 1 1.4960938 5.6484375 A 3 3 0 0 1 1.4257812 5.5351562 A 3 3 0 0 1 1.3515625 5.4042969 A 3 3 0 0 1 1.2753906 5.2480469 A 3 3 0 0 1 1.2246094 5.1367188 A 3 3 0 0 1 1.1601562 4.9550781 A 3 3 0 0 1 1.1269531 4.8574219 A 3 3 0 0 1 1.078125 4.6621094 A 3 3 0 0 1 1.0566406 4.5703125 A 3 3 0 0 1 1.0273438 4.3710938 A 3 3 0 0 1 1.0136719 4.2636719 A 3 3 0 0 1 1 4 A 3 3 0 0 1 1.0136719 3.7363281 A 3 3 0 0 1 1.015625 3.7011719 A 3 3 0 0 1 1.0273438 3.6289062 A 3 3 0 0 1 1.0566406 3.4296875 A 3 3 0 0 1 1.078125 3.3378906 A 3 3 0 0 1 1.1269531 3.1425781 A 3 3 0 0 1 1.1601562 3.0449219 A 3 3 0 0 1 1.2246094 2.8632812 A 3 3 0 0 1 1.2753906 2.7519531 A 3 3 0 0 1 1.3515625 2.5957031 A 3 3 0 0 1 1.4257812 2.4648438 A 3 3 0 0 1 1.4960938 2.3515625 A 3 3 0 0 1 1.59375 2.2148438 A 3 3 0 0 1 1.6816406 2.0996094 A 3 3 0 0 1 1.7714844 1.9960938 A 3 3 0 0 1 1.8828125 1.8789062 A 3 3 0 0 1 1.9765625 1.7890625 A 3 3 0 0 1 2.109375 1.671875 A 3 3 0 0 1 2.203125 1.6015625 A 3 3 0 0 1 2.3515625 1.4960938 A 3 3 0 0 1 2.4648438 1.4257812 A 3 3 0 0 1 2.5957031 1.3515625 A 3 3 0 0 1 2.7324219 1.2851562 A 3 3 0 0 1 2.8828125 1.2167969 A 3 3 0 0 1 3.0039062 1.1738281 A 3 3 0 0 1 3.1484375 1.125 A 3 3 0 0 1 3.3378906 1.078125 A 3 3 0 0 1 3.4296875 1.0566406 A 3 3 0 0 1 3.6289062 1.0273438 A 3 3 0 0 1 3.7363281 1.0136719 A 3 3 0 0 1 4 1 z M 7 6 L 7 7 L 6 7 L 7 6 z M 2 9.5 A 1 1 0 0 0 1 10.5 L 3 10.5 A 1 1 0 0 0 2 9.5 z "
     style="opacity:1;fill:#000000;fill-opacity:1;stroke:none;stroke-width:2.48570037;stroke-linecap:square;stroke-miterlimit:4;stroke-dasharray:none;stroke-opacity:1;paint-order:markers stroke fill" />
  <path
     id="path858-2-1"
     d="m 4,1.0019531 c -0.0887,6.282e-4 -0.177329,0.00519 -0.265625,0.013672 -0.035234,0.00393 -0.070396,0.00849 -0.1054688,0.013672 -0.066715,0.00753 -0.133159,0.017305 -0.1992187,0.029297 -0.03071,0.00668 -0.061312,0.013842 -0.091797,0.021484 -0.028097,0.00676 -0.056094,0.013919 -0.083984,0.021484 -0.035306,0.00783 -0.070468,0.016292 -0.1054687,0.025391 -0.00326,0.0013 -0.00652,0.0026 -0.00977,0.00391 -0.038672,0.012241 -0.077091,0.025264 -0.1152344,0.039063 -0.00652,0.00193 -0.013027,0.00388 -0.019531,0.00586 -0.040667,0.013457 -0.08104,0.027783 -0.1210937,0.042969 -0.00456,0.00194 -0.00912,0.0039 -0.013672,0.00586 -0.046088,0.019688 -0.091675,0.040528 -0.1367187,0.0625 -0.046126,0.020977 -0.091714,0.04312 -0.1367188,0.066406 -0.036218,0.019444 -0.072033,0.039631 -0.1074219,0.060547 -0.00783,0.00452 -0.015645,0.00908 -0.023437,0.013672 -0.038277,0.022596 -0.076046,0.046039 -0.1132813,0.070313 -0.049189,0.03307 -0.097387,0.06759 -0.1445313,0.1035156 l -0.00391,0.00195 c -0.031705,0.022825 -0.062961,0.046266 -0.09375,0.070312 -0.00196,0.00195 -0.00391,0.0039 -0.00586,0.00586 -0.041983,0.034684 -0.083014,0.070504 -0.1230468,0.1074218 l -0.00391,0.00391 c -0.031895,0.029268 -0.063152,0.059223 -0.09375,0.089844 -0.034731,0.034968 -0.068596,0.070786 -0.1015625,0.1074219 -0.00326,0.00325 -0.00652,0.00651 -0.00977,0.00977 -0.030732,0.033817 -0.060688,0.068331 -0.089844,0.1035156 -0.030221,0.037698 -0.059526,0.076121 -0.087891,0.1152344 -0.033822,0.044652 -0.066387,0.090243 -0.097656,0.1367187 -0.018733,0.02898 -0.036965,0.058282 -0.054688,0.087891 -0.00525,0.00844 -0.010459,0.016901 -0.015625,0.025391 -0.02583,0.042992 -0.050577,0.086626 -0.074219,0.1308593 -0.026895,0.051337 -0.052296,0.1034418 -0.076172,0.15625 -0.00462,0.010391 -0.00917,0.020808 -0.013672,0.03125 -0.012762,0.026509 -0.025133,0.053205 -0.037109,0.080078 -6.52e-4,0.00195 -0.0013,0.00391 -0.00195,0.00586 -0.022651,0.057932 -0.043494,0.1165538 -0.0625,0.1757813 -0.00739,0.020754 -0.014552,0.041588 -0.021484,0.0625 -0.00398,0.011694 -0.00789,0.023413 -0.011719,0.035156 -6.52e-4,0.00195 -0.0013,0.00391 -0.00195,0.00586 -0.017676,0.062626 -0.033309,0.1258104 -0.046875,0.1894531 -0.00764,0.030485 -0.014804,0.061087 -0.021484,0.091797 -0.011992,0.06606 -0.021763,0.1325033 -0.029297,0.1992187 -0.00132,0.00586 -0.00262,0.011715 -0.00391,0.017578 -0.00371,0.029897 -0.00696,0.059849 -0.00977,0.089844 v 0.00195 C 1.0052924,3.8272402 1.0007369,3.9145597 1,4.0019531 c 6.857e-4,0.088049 0.00525,0.1760245 0.013672,0.2636719 v 0.00195 c 0.00393,0.035234 0.00849,0.070396 0.013672,0.1054688 0.00722,0.061465 0.016338,0.1226925 0.027344,0.1835937 6.363e-4,0.00521 0.00129,0.010418 0.00195,0.015625 0.00668,0.03071 0.013842,0.061312 0.021484,0.091797 0.00949,0.04254 0.019912,0.084867 0.03125,0.1269531 0.00559,0.022855 0.011451,0.045642 0.017578,0.068359 l 0.00195,0.00391 c 0.0099,0.03142 0.020319,0.062674 0.03125,0.09375 0.012266,0.038017 0.025289,0.075785 0.039063,0.1132813 0.00819,0.022888 0.016651,0.045676 0.025391,0.068359 l 0.00195,0.00391 c 0.01557,0.036124 0.031849,0.071938 0.048828,0.1074219 0.023876,0.052808 0.049277,0.1049134 0.076172,0.15625 0.019444,0.036218 0.039631,0.072033 0.060547,0.1074219 0.00452,0.00783 0.00908,0.015645 0.013672,0.023437 0.022596,0.038277 0.046039,0.076046 0.070313,0.1132813 0.03307,0.049189 0.06759,0.097387 0.1035156,0.1445313 l 0.00195,0.00391 c 0.022825,0.031705 0.046266,0.062961 0.070312,0.09375 0.00195,0.00196 0.0039,0.00391 0.00586,0.00586 0.034684,0.041983 0.070504,0.083014 0.1074218,0.1230468 l 0.00391,0.00391 c 0.02989,0.032573 0.060497,0.064482 0.091797,0.095703 0.029975,0.029942 0.060581,0.059245 0.091797,0.087891 l 0.00391,0.00391 c 0.043108,0.040361 0.087398,0.079441 0.1328125,0.1171875 0.00195,0.00131 0.00391,0.00261 0.00586,0.00391 0.027629,0.02132 0.055628,0.042157 0.083984,0.0625 l 0.00391,0.00391 c 0.048401,0.03665 0.097903,0.071822 0.1484375,0.1054687 0.02898,0.018734 0.058282,0.036965 0.087891,0.054688 0.00844,0.00525 0.016902,0.010459 0.025391,0.015625 0.042992,0.02583 0.086626,0.050577 0.1308593,0.074219 0.051337,0.026895 0.1034418,0.052296 0.15625,0.076172 0.010391,0.00462 0.020807,0.00917 0.03125,0.013672 0.026509,0.012762 0.053205,0.025133 0.080078,0.037109 0.00195,6.52e-4 0.00391,0.0013 0.00586,0.00195 0.057932,0.022651 0.1165538,0.043494 0.1757813,0.0625 0.020754,0.00739 0.041588,0.014552 0.0625,0.021484 0.011694,0.00398 0.023413,0.00789 0.035156,0.011719 0.00195,6.52e-4 0.00391,0.0013 0.00586,0.00195 0.062626,0.017676 0.1258104,0.033309 0.1894531,0.046875 0.0279,0.00691 0.055897,0.013423 0.083984,0.019531 0.0026,6.535e-4 0.00521,0.0013 0.00781,0.00195 0.06606,0.011992 0.1325033,0.021763 0.1992187,0.029297 0.029887,0.00436 0.059839,0.00827 0.089844,0.011719 0.00586,6.673e-4 0.011717,0.00132 0.017578,0.00195 h 0.00195 C 3.8252779,6.9966562 3.9126019,7.0012141 4,7.0019531 H 4.5859375 L 7,4.5878906 V 4.0019531 c -6.281e-4,-0.0887 -0.00519,-0.177329 -0.013672,-0.265625 -0.00393,-0.035234 -0.00849,-0.070396 -0.013672,-0.1054688 -0.00722,-0.061465 -0.016338,-0.1226925 -0.027344,-0.1835937 -6.374e-4,-0.00521 -0.00129,-0.010418 -0.00195,-0.015625 -0.00668,-0.03071 -0.013842,-0.061312 -0.021484,-0.091797 -0.00949,-0.04254 -0.019912,-0.084867 -0.03125,-0.1269531 -0.00621,-0.024169 -0.012721,-0.048259 -0.019531,-0.072266 -0.0099,-0.03142 -0.020319,-0.062674 -0.03125,-0.09375 C 6.8275784,3.0088583 6.814555,2.9710903 6.8007812,2.9335937 6.7919772,2.9093888 6.7828619,2.8852983 6.7734375,2.8613281 6.7578673,2.8252041 6.7415881,2.7893899 6.7246094,2.7539062 6.7007333,2.701098 6.675332,2.6489928 6.6484374,2.5976562 6.6289932,2.5614379 6.6088066,2.525623 6.5878904,2.4902343 6.5629043,2.447276 6.5368546,2.4049453 6.5097654,2.3632812 c -0.00195,-0.00326 -0.0039,-0.00652 -0.00586,-0.00977 -0.03307,-0.049189 -0.06759,-0.097387 -0.1035156,-0.1445313 l -0.00195,-0.00391 c -0.022825,-0.031705 -0.046267,-0.062961 -0.070312,-0.09375 -0.00195,-0.00196 -0.0039,-0.00391 -0.00586,-0.00586 C 6.287584,2.0634769 6.2517634,2.0224461 6.214846,1.9824131 l -0.00391,-0.00391 c -0.02989,-0.032574 -0.060497,-0.064482 -0.091797,-0.095703 -0.029975,-0.029942 -0.060581,-0.059246 -0.091797,-0.087891 -0.046197,-0.043159 -0.093747,-0.084846 -0.1425782,-0.125 -0.027629,-0.02132 -0.055628,-0.042157 -0.083984,-0.0625 -0.03585,-0.027513 -0.072318,-0.054213 -0.109375,-0.080078 -0.014238,-0.00989 -0.028562,-0.019656 -0.042969,-0.029297 -0.02898,-0.018733 -0.058282,-0.036965 -0.087891,-0.054688 -0.037289,-0.022302 -0.075059,-0.043791 -0.1132813,-0.064453 -0.014252,-0.00858 -0.028576,-0.017047 -0.042969,-0.025391 -0.051337,-0.026895 -0.1034418,-0.052296 -0.15625,-0.076172 -0.010391,-0.00462 -0.020808,-0.00917 -0.03125,-0.013672 -0.026509,-0.012762 -0.053205,-0.025133 -0.080078,-0.037109 -0.00195,-6.52e-4 -0.00391,-0.0013 -0.00586,-0.00195 -0.057932,-0.022651 -0.1165538,-0.043494 -0.1757813,-0.0625 -0.020754,-0.00739 -0.041588,-0.014552 -0.0625,-0.021484 -0.011694,-0.00398 -0.023412,-0.00788 -0.035154,-0.011709 -0.00195,-6.52e-4 -0.00391,-0.0013 -0.00586,-0.00195 -0.062626,-0.017676 -0.1258104,-0.033309 -0.1894531,-0.046875 -0.0279,-0.00691 -0.055897,-0.013423 -0.083984,-0.019531 -0.0026,-6.535e-4 -0.00521,-0.0013 -0.00781,-0.00195 -0.06606,-0.011992 -0.1325033,-0.021763 -0.1992187,-0.029297 -0.029887,-0.00436 -0.059839,-0.00827 -0.089844,-0.011719 -0.00586,-6.673e-4 -0.011717,-0.00132 -0.017578,-0.00195 h -0.00195 C 4.1747232,1.0072634 4.0873988,1.0026987 4,1.0019531 Z"
     style="opacity:0.25;fill:#000000;fill-opacity:1;stroke:none;stroke-width:3.30598688;stroke-linecap:square;stroke-miterlimit:4;stroke-dasharray:none;stroke-opacity:1;paint-order:markers stroke fill" />
  <path
     id="rect822"
     d="m 1,11 h 2 l 1,3 H 0 Z"
     style="opacity:0.5;fill:#000000;fill-opacity:1;stroke:none;stroke-width:1.73205078;stroke-linecap:square;stroke-miterlimit:4;stroke-dasharray:none;stroke-opacity:1;paint-order:markers stroke fill" />
</svg>
