<?xml version="1.0" encoding="UTF-8" standalone="no"?>
<svg
   xmlns:dc="http://purl.org/dc/elements/1.1/"
   xmlns:cc="http://creativecommons.org/ns#"
   xmlns:rdf="http://www.w3.org/1999/02/22-rdf-syntax-ns#"
   xmlns:svg="http://www.w3.org/2000/svg"
   xmlns="http://www.w3.org/2000/svg"
   width="14"
   height="14"
   id="svg3800"
   version="1.1"
   viewBox="0 0 14 14">
  <defs
     id="defs3802" />
  <metadata
     id="metadata3805">
    <rdf:RDF>
      <cc:Work
         rdf:about="">
        <dc:format>image/svg+xml</dc:format>
        <dc:type
           rdf:resource="http://purl.org/dc/dcmitype/StillImage" />
        <dc:title></dc:title>
      </cc:Work>
    </rdf:RDF>
  </metadata>
  <g
     transform="translate(1.5520395,2.8104498)"
     id="g97">
    <g
       id="g105">
      <g
         style="fill:#000000"
         id="layer1"
         transform="matrix(0.82352941,0,0,0.82352941,-24.559392,-852.99108)">
        <g
           style="display:inline;fill:#000000"
           id="basketball-24"
           transform="translate(-474,-118)">
          <g
             style="fill:#000000"
             id="g21373"
             transform="translate(-2)">
            <path
               style="color:#000000;display:inline;overflow:visible;visibility:visible;fill:#000000;fill-opacity:1;fill-rule:nonzero;stroke:none;stroke-width:1;marker:none;enable-background:accumulate"
               id="rect5769-7"
               d="m 508.4375,1150.3622 -4.5,4 v 8 c 0,0.5 0.5,1 1,1 H 508.5 l 1.9375,3.5 c 0.27778,0.5 0.5,0.5 1,0.5 h 2 c 0.5,0 0.72222,0 1,-0.5 l 1.9375,-3.5 h 3.5625 c 0.5,0 1,-0.5 1,-1 v -8 l -4.5,-4 z m -0.5,4 h 9 v 6 h -9 z m 1,1 v 4 h 7 v -4 z m 0.5625,8 h 1.4375 v 1 h 1 v -1 h 1 v 1 h 1 v -1 h 1.4375 l -0.5625,1 h -0.875 v 1 h 0.34375 l -0.34375,0.625 v -0.625 h -1 v 1 h -1 v -1 h -1 v 0.625 l -0.34375,-0.625 h 0.34375 v -1 h -0.875 z m 2.4375,2 h 1 v -1 h -1 z" />
          </g>
        </g>
      </g>
    </g>
  </g>
</svg>
