<?xml version="1.0" encoding="UTF-8" standalone="no"?>
<svg
   xmlns:dc="http://purl.org/dc/elements/1.1/"
   xmlns:cc="http://creativecommons.org/ns#"
   xmlns:rdf="http://www.w3.org/1999/02/22-rdf-syntax-ns#"
   xmlns:svg="http://www.w3.org/2000/svg"
   xmlns="http://www.w3.org/2000/svg"
   version="1.1"
   width="14"
   height="14"
   viewBox="0 0 14 14"
   id="svg8093">
  <metadata
     id="metadata8101">
    <rdf:RDF>
      <cc:Work
         rdf:about="">
        <dc:format>image/svg+xml</dc:format>
        <dc:type
           rdf:resource="http://purl.org/dc/dcmitype/StillImage" />
        <dc:title></dc:title>
      </cc:Work>
    </rdf:RDF>
  </metadata>
  <defs
     id="defs8099" />
  <rect
     width="14"
     height="14"
     x="0"
     y="0"
     id="canvas"
     style="fill:none;stroke:none;visibility:hidden" />
  <path
     id="basketball"
     d="M 3.7050781,4e-7 0,3.2949223 0,9.8828129 c 0,0.4117661 0.41245409,0.8222651 0.82421875,0.8222651 l 2.93359375,0 1.5957031,2.882813 C 5.5822756,13.999658 5.7640166,14 6.1757812,14 l 1.6484376,0 c 0.4117646,0 0.5935056,-3.42e-4 0.8222656,-0.412109 l 1.5957036,-2.882813 2.933593,0 C 13.587545,10.705078 14,10.294579 14,9.8828129 L 14,3.2949223 10.294922,4e-7 l -6.5898439,0 z m -0.7050781,3 8,0 0,6 -8,0 0,-6 z m 2,2 0,2 4,0 0,-2 -4,0 z m -0.4199219,5.7050776 1.1855469,0 0,0.824219 0.8222656,0 0,-0.824219 0.8242188,0 0,0.824219 0.8222656,0 0,-0.824219 1.1855469,0 -0.4648438,0.824219 -0.7207031,0 0,0.824219 0.2832031,0 -0.2832031,0.513672 0,-0.513672 -0.8222656,0 0,0.822265 -0.8242188,0 0,-0.822265 -0.8222656,0 0,0.513672 -0.2832031,-0.513672 0.2832031,0 0,-0.824219 -0.7207031,0 -0.4648438,-0.824219 z m 2.0078125,1.648438 0.8242188,0 0,-0.824219 -0.8242188,0 0,0.824219 z"
     style="color:#000000;display:inline;overflow:visible;visibility:visible;fill:#090909;fill-opacity:1;fill-rule:nonzero;stroke:none;stroke-width:1;marker:none;enable-background:accumulate" />
</svg>
