<?xml version="1.0" encoding="UTF-8" standalone="no"?>
<svg
   xmlns:dc="http://purl.org/dc/elements/1.1/"
   xmlns:cc="http://creativecommons.org/ns#"
   xmlns:rdf="http://www.w3.org/1999/02/22-rdf-syntax-ns#"
   xmlns:svg="http://www.w3.org/2000/svg"
   xmlns="http://www.w3.org/2000/svg"
   width="14"
   height="14"
   id="svg3800"
   version="1.1"
   viewBox="0 0 14 14">
  <defs
     id="defs3802" />
  <metadata
     id="metadata3805">
    <rdf:RDF>
      <cc:Work
         rdf:about="">
        <dc:format>image/svg+xml</dc:format>
        <dc:type
           rdf:resource="http://purl.org/dc/dcmitype/StillImage" />
        <dc:title></dc:title>
      </cc:Work>
    </rdf:RDF>
  </metadata>
  <g
     transform="translate(1.5520395,2.8104498)"
     id="g97">
    <g
       id="g105">
      <path
         id="path1090"
         transform="translate(-1.5520395,-2.8104498)"
         d="M 6.2675781 0 A 1.25 1.25 0 0 0 5.3652344 0.36523438 A 1.25 1.25 0 0 0 5.3652344 2.1347656 A 1.25 1.25 0 0 0 7.1347656 2.1347656 A 1.25 1.25 0 0 0 7.1347656 0.36523438 A 1.25 1.25 0 0 0 6.2675781 0 z M 4.2089844 1.7050781 C 3.9319844 1.7050781 3.7089844 1.9280781 3.7089844 2.2050781 L 3.7089844 4.1464844 C 3.7072486 4.1590456 3.7097155 4.1710175 3.7089844 4.1835938 L 3.7089844 4.2050781 C 3.7089844 4.2085406 3.7108681 4.2113985 3.7109375 4.2148438 C 3.711438 4.276757 3.7225549 4.3356484 3.7460938 4.3925781 C 3.7492117 4.4003151 3.7543251 4.4065254 3.7578125 4.4140625 C 3.7792251 4.4592066 3.8065421 4.4999459 3.8417969 4.5371094 C 3.8591485 4.556328 3.8783053 4.5715728 3.8984375 4.5878906 C 3.915109 4.6006659 3.9266121 4.6181097 3.9453125 4.6289062 L 6.125 5.8886719 L 4.8789062 8.046875 C 4.8776692 8.0489498 4.8762119 8.0506353 4.875 8.0527344 L 1.875 13.25 C 1.7365 13.489889 1.8187048 13.793141 2.0585938 13.931641 C 2.2984826 14.070141 2.6036875 13.989889 2.7421875 13.75 L 4.9921875 9.8515625 L 5.1367188 9.9355469 L 5.1386719 9.9355469 L 6.2910156 10.601562 L 5.2109375 12.470703 C 5.0724375 12.710592 5.1546423 13.015797 5.3945312 13.154297 C 5.6344202 13.292797 5.939625 13.210592 6.078125 12.970703 L 7.40625 10.669922 C 7.54475 10.430033 7.4625452 10.124828 7.2226562 9.9863281 L 6.3574219 9.4863281 L 7.8574219 6.8886719 L 11.451172 8.9628906 C 11.682197 9.0962729 11.975993 9.0181342 12.109375 8.7871094 L 12.126953 8.7539062 C 12.260335 8.5228814 12.182197 8.2310386 11.951172 8.0976562 L 7.6367188 5.6054688 L 7.3476562 5.4394531 L 4.7089844 3.9160156 L 4.7089844 2.2050781 C 4.7089844 1.9280781 4.4859843 1.7050781 4.2089844 1.7050781 z M 8.0390625 3 A 1 1 0 0 0 7.7402344 3.0332031 A 1 1 0 0 0 7.0332031 4.2597656 A 1 1 0 0 0 8.2597656 4.9667969 A 1 1 0 0 0 8.9667969 3.7402344 A 1 1 0 0 0 8.0390625 3 z "
         style="opacity:1;fill:#000000;fill-opacity:1;stroke:none;stroke-width:0.20797257;stroke-linecap:square;stroke-miterlimit:4;stroke-dasharray:none;stroke-opacity:1;paint-order:markers stroke fill" />
    </g>
  </g>
</svg>
