<?xml version="1.0" encoding="UTF-8" standalone="no"?>
<svg
   xmlns:dc="http://purl.org/dc/elements/1.1/"
   xmlns:cc="http://creativecommons.org/ns#"
   xmlns:rdf="http://www.w3.org/1999/02/22-rdf-syntax-ns#"
   xmlns:svg="http://www.w3.org/2000/svg"
   xmlns="http://www.w3.org/2000/svg"
   viewBox="0 0 14 14"
   version="1.1"
   id="svg3800"
   height="14"
   width="14">
  <defs
     id="defs3802" />
  <metadata
     id="metadata3805">
    <rdf:RDF>
      <cc:Work
         rdf:about="">
        <dc:format>image/svg+xml</dc:format>
        <dc:type
           rdf:resource="http://purl.org/dc/dcmitype/StillImage" />
        <dc:title></dc:title>
      </cc:Work>
    </rdf:RDF>
  </metadata>
  <path
     style="opacity:1;fill:#000000;fill-opacity:1;stroke:none;stroke-width:0.2236068;stroke-linecap:square;stroke-miterlimit:4;stroke-dasharray:none;stroke-opacity:1;paint-order:markers stroke fill"
     d="M 3.261719,0 A 1.2714898,1.2626834 0 0 1 4.5332031,1.2617188 1.2714898,1.2626834 0 0 1 3.261719,2.5253906 1.2714898,1.2626834 0 0 1 1.990234,1.2617188 1.2714898,1.2626834 0 0 1 3.261719,0 Z M 12.5,1 C 12.777,1 13,1.223 13,1.5 13,1.777 12.777,2 12.5,2 l -4,0 C 8.223,2 8,1.777 8,1.5 8,1.223 8.223,1 8.5,1 l 4,0 z M 4.2636719,2.9277344 7.7480469,3.703125 c 0.1507102,0.033523 0.2603446,0.1748801 0.3730469,0.3125 l 0.7734374,1.3320312 c 0.1230359,0.1141938 0.1855802,0.2578577 0.1855469,0.4296876 2.46e-5,0.1603024 -0.051728,0.29773 -0.1542969,0.4121093 -0.102502,0.1143425 -0.2254046,0.171875 -0.3691406,0.171875 -0.1537034,0 -0.2873887,-0.069783 -0.4003906,-0.2070312 L 7.2578125,4.6503906 5.796875,4.4042969 8.8261719,9.1015625 11.292969,8.3945312 c 0.195037,0 0.37441,0.038347 0.507812,0.1757813 0.133336,0.1373965 0.267578,0.2593313 0.267578,0.4765625 0,0.2060398 -0.08346,0.3862478 -0.216796,0.5292969 -0.13337,0.1430484 -0.265731,0.219501 -0.445313,0.265625 L 8.7167969,10.53125 C 8.6069604,10.55946 8.3635863,10.53435 8.2714844,10.51172 8.0354466,10.465982 7.967368,10.356753 7.875,10.242188 L 6.6015625,8.1464844 5.0019531,9.8632812 5.6484375,13.072266 c 0.020667,0.06883 0.03125,0.126138 0.03125,0.171875 0,0.206039 -0.067803,0.384427 -0.2011719,0.533203 C 5.3451456,13.926119 5.1867235,14 5.0019531,14 4.6532125,14 4.437837,13.799027 4.3554688,13.398438 L 3.570312,9.5019531 C 3.477942,9.0898374 3.518952,8.7863458 3.693359,8.5917969 L 5.09375,7.03125 3.570312,5.0566406 2.585938,6.1542969 c -0.102669,0.1141937 -0.222067,0.171875 -0.355469,0.171875 -0.17437,0 -0.343743,-0.086355 -0.507813,-0.2578125 L 0.123047,4.2832031 C 0.041045,4.1686376 6.7e-5,4.0434981 0,3.90625 8.5e-5,3.7347923 0.054374,3.591128 0.162109,3.4765625 0.269778,3.3620342 0.395393,3.3046875 0.539062,3.3046875 c 0.143737,0 0.25589,0.045208 0.337891,0.1367187 L 2.201172,4.9199219 3.800781,3.1347656 C 3.923817,2.9971454 4.0829626,2.8875382 4.2636719,2.9277344 Z M 13.5,3 C 13.777,3 14,3.223 14,3.5 14,3.777 13.777,4 13.5,4 l -3,0 C 10.223,4 10,3.777 10,3.5 10,3.223 10.223,3 10.5,3 l 3,0 z m -1,2 C 12.777,5 13,5.223 13,5.5 13,5.777 12.777,6 12.5,6 l -1,0 C 11.223,6 11,5.777 11,5.5 11,5.223 11.223,5 11.5,5 l 1,0 z"
     id="rect830" />
  <g
     style="fill:#000000"
     transform="matrix(0.01932161,0,0,0.03319421,2.6015879,-2.5975828)"
     id="g7">
    <g
       transform="matrix(1.4591054,0,0,1,-148.6728,0)"
       style="fill:#000000"
       id="g9" />
  </g>
</svg>
