<?xml version="1.0" encoding="UTF-8" standalone="no"?>
<svg
   xmlns:dc="http://purl.org/dc/elements/1.1/"
   xmlns:cc="http://creativecommons.org/ns#"
   xmlns:rdf="http://www.w3.org/1999/02/22-rdf-syntax-ns#"
   xmlns:svg="http://www.w3.org/2000/svg"
   xmlns="http://www.w3.org/2000/svg"
   width="14"
   height="14"
   id="svg3800"
   version="1.1"
   viewBox="0 0 14 14">
  <defs
     id="defs3802" />
  <metadata
     id="metadata3805">
    <rdf:RDF>
      <cc:Work
         rdf:about="">
        <dc:format>image/svg+xml</dc:format>
        <dc:type
           rdf:resource="http://purl.org/dc/dcmitype/StillImage" />
        <dc:title></dc:title>
      </cc:Work>
    </rdf:RDF>
  </metadata>
  <g
     transform="translate(1.5520395,2.8104498)"
     id="g97">
    <g
       id="g105">
      <path
         id="rect830"
         transform="translate(-1.5520395,-2.8104498)"
         d="M 10.738281 0 A 1.2714898 1.2626834 0 0 0 9.4667969 1.2617188 A 1.2714898 1.2626834 0 0 0 10.738281 2.5253906 A 1.2714898 1.2626834 0 0 0 12.009766 1.2617188 A 1.2714898 1.2626834 0 0 0 10.738281 0 z M 1.5 1 C 1.223 1 1 1.223 1 1.5 C 1 1.777 1.223 2 1.5 2 L 5.5 2 C 5.777 2 6 1.777 6 1.5 C 6 1.223 5.777 1 5.5 1 L 1.5 1 z M 9.7363281 2.9277344 L 6.2519531 3.703125 C 6.1012429 3.7366485 5.9916085 3.8780051 5.8789062 4.015625 L 5.1054688 5.3476562 C 4.9824329 5.46185 4.9198886 5.6055139 4.9199219 5.7773438 C 4.9198973 5.9376462 4.9716499 6.0750738 5.0742188 6.1894531 C 5.1767208 6.3037956 5.2996234 6.3613281 5.4433594 6.3613281 C 5.5970628 6.3613281 5.7307481 6.291545 5.84375 6.1542969 L 6.7421875 4.6503906 L 8.203125 4.4042969 L 5.1738281 9.1015625 L 2.7070312 8.3945312 C 2.5119941 8.3945312 2.3326214 8.4328785 2.1992188 8.5703125 C 2.0658831 8.707709 1.9316406 8.8296438 1.9316406 9.046875 C 1.9316406 9.2529148 2.0151016 9.4331228 2.1484375 9.5761719 C 2.2818067 9.7192203 2.4141684 9.7956729 2.59375 9.8417969 L 5.2832031 10.53125 C 5.3930396 10.55946 5.6364137 10.5344 5.7285156 10.511719 C 5.9645534 10.465982 6.032632 10.356753 6.125 10.242188 L 7.3984375 8.1464844 L 8.9980469 9.8632812 L 8.3515625 13.072266 C 8.3308956 13.141094 8.3203125 13.198404 8.3203125 13.244141 C 8.3203125 13.45018 8.3881152 13.628568 8.5214844 13.777344 C 8.6548544 13.926119 8.8132765 14 8.9980469 14 C 9.3467875 14 9.562163 13.799027 9.6445312 13.398438 L 10.429688 9.5019531 C 10.522056 9.0898374 10.481044 8.7863458 10.306641 8.5917969 L 8.90625 7.03125 L 10.429688 5.0566406 L 11.414062 6.1542969 C 11.516731 6.2684906 11.636129 6.3261719 11.769531 6.3261719 C 11.943901 6.3261719 12.113274 6.2398171 12.277344 6.0683594 L 13.876953 4.2832031 C 13.958955 4.1686376 13.999933 4.0434981 14 3.90625 C 13.999915 3.7347923 13.945626 3.591128 13.837891 3.4765625 C 13.730222 3.3620342 13.604607 3.3046875 13.460938 3.3046875 C 13.317201 3.3046875 13.205048 3.3498955 13.123047 3.4414062 L 11.798828 4.9199219 L 10.199219 3.1347656 C 10.076183 2.9971454 9.9170374 2.8875382 9.7363281 2.9277344 z M 0.5 3 C 0.223 3 0 3.223 0 3.5 C 0 3.777 0.223 4 0.5 4 L 3.5 4 C 3.777 4 4 3.777 4 3.5 C 4 3.223 3.777 3 3.5 3 L 0.5 3 z M 1.5 5 C 1.223 5 1 5.223 1 5.5 C 1 5.777 1.223 6 1.5 6 L 2.5 6 C 2.777 6 3 5.777 3 5.5 C 3 5.223 2.777 5 2.5 5 L 1.5 5 z "
         style="opacity:1;fill:#000000;fill-opacity:1;stroke:none;stroke-width:0.2236068;stroke-linecap:square;stroke-miterlimit:4;stroke-dasharray:none;stroke-opacity:1;paint-order:markers stroke fill" />
      <g
         id="g7"
         transform="matrix(0.01932161,0,0,0.03319421,1.0495484,-5.4080326)"
         style="fill:#000000">
        <g
           id="g9"
           style="fill:#000000"
           transform="matrix(1.4591054,0,0,1,-148.6728,0)" />
      </g>
    </g>
  </g>
</svg>
