<?xml version="1.0" encoding="UTF-8" standalone="no"?>
<svg
   xmlns:dc="http://purl.org/dc/elements/1.1/"
   xmlns:cc="http://creativecommons.org/ns#"
   xmlns:rdf="http://www.w3.org/1999/02/22-rdf-syntax-ns#"
   xmlns:svg="http://www.w3.org/2000/svg"
   xmlns="http://www.w3.org/2000/svg"
   width="14"
   height="14"
   id="svg3800"
   version="1.1"
   viewBox="0 0 14 14">
  <defs
     id="defs3802" />
  <metadata
     id="metadata3805">
    <rdf:RDF>
      <cc:Work
         rdf:about="">
        <dc:format>image/svg+xml</dc:format>
        <dc:type
           rdf:resource="http://purl.org/dc/dcmitype/StillImage" />
        <dc:title></dc:title>
      </cc:Work>
    </rdf:RDF>
  </metadata>
  <g
     transform="translate(1.5520395,2.8104498)"
     id="g97">
    <g
       id="g105">
      <path
         id="rect820"
         transform="translate(-1.5520395,-2.8104498)"
         d="M 6.5 0 L 6.5 1.0253906 A 6 6 0 0 0 1.0253906 6.5 L 0 6.5 L 0 7.5 L 1.0253906 7.5 A 6 6 0 0 0 6.5 12.974609 L 6.5 14 L 7.5 14 L 7.5 12.974609 A 6 6 0 0 0 12.974609 7.5 L 14 7.5 L 14 6.5 L 12.974609 6.5 A 6 6 0 0 0 7.5 1.0253906 L 7.5 0 L 6.5 0 z M 7.5 2.0253906 A 5 5 0 0 1 11.970703 6.5 L 9 6.5 L 9 7.5 L 11.974609 7.5 A 5 5 0 0 1 7.5 11.970703 L 7.5 9 L 6.5 9 L 6.5 11.974609 A 5 5 0 0 1 2.0292969 7.5 L 5 7.5 L 5 6.5 L 2.0253906 6.5 A 5 5 0 0 1 6.5 2.0292969 L 6.5 5 L 7.5 5 L 7.5 2.0253906 z M 7 6 A 1 1 0 0 0 6 7 A 1 1 0 0 0 7 8 A 1 1 0 0 0 8 7 A 1 1 0 0 0 7 6 z "
         style="opacity:1;fill:#000000;fill-opacity:1;stroke:none;stroke-width:0.17677669;stroke-linecap:square;stroke-miterlimit:4;stroke-dasharray:none;stroke-opacity:1;paint-order:markers stroke fill" />
    </g>
  </g>
</svg>
