<?xml version="1.0" encoding="UTF-8" standalone="no"?>
<svg
   xmlns:dc="http://purl.org/dc/elements/1.1/"
   xmlns:cc="http://creativecommons.org/ns#"
   xmlns:rdf="http://www.w3.org/1999/02/22-rdf-syntax-ns#"
   xmlns:svg="http://www.w3.org/2000/svg"
   xmlns="http://www.w3.org/2000/svg"
   width="14"
   height="14"
   id="svg3800"
   version="1.1"
   viewBox="0 0 14 14">
  <defs
     id="defs3802" />
  <metadata
     id="metadata3805">
    <rdf:RDF>
      <cc:Work
         rdf:about="">
        <dc:format>image/svg+xml</dc:format>
        <dc:type
           rdf:resource="http://purl.org/dc/dcmitype/StillImage" />
        <dc:title></dc:title>
      </cc:Work>
    </rdf:RDF>
  </metadata>
  <g
     transform="translate(1.5520395,2.8104498)"
     id="g97">
    <g
       id="g105">
      <path
         id="path857"
         transform="translate(-1.5520395,-2.8104498)"
         d="M 5.8242188 0 A 1 1 0 0 0 4.8242188 1 A 1 1 0 0 0 5.8242188 2 A 1 1 0 0 0 6.8242188 1 A 1 1 0 0 0 5.8242188 0 z M 6.1542969 2.4140625 L 4.1269531 2.5546875 C 4.096647 2.5567856 4.0713322 2.5708442 4.0429688 2.578125 C 3.9961804 2.5824554 3.9487951 2.5859962 3.9023438 2.6054688 L 2.0234375 3.3925781 C 1.775533 3.4965003 1.648299 3.7838118 1.7382812 4.0371094 L 1.7539062 4.0820312 C 1.8438885 4.3353288 2.1173299 4.4554847 2.3652344 4.3515625 L 4.2441406 3.5625 C 4.2539803 3.5583752 4.2600781 3.5496117 4.2695312 3.5449219 L 5.3574219 3.4707031 C 5.3590052 3.4994626 5.347457 3.5256201 5.3515625 3.5546875 L 5.7714844 6.5253906 C 5.7926007 6.6748972 5.849031 6.8072284 5.9257812 6.9257812 L 4.7714844 9.0410156 C 4.7639648 9.0547975 4.7639204 9.0698626 4.7578125 9.0839844 C 4.7360837 9.1269829 4.7221509 9.1711389 4.7148438 9.21875 C 4.7138399 9.2267442 4.7135025 9.2341893 4.7128906 9.2421875 C 4.7074027 9.2966257 4.7116994 9.3496536 4.7265625 9.4042969 C 4.7294617 9.4156187 4.7326435 9.426409 4.7363281 9.4375 C 4.7433002 9.4570785 4.7440675 9.4771018 4.7539062 9.4960938 L 6.015625 11.931641 C 6.0340666 11.967239 6.0623399 11.993044 6.0878906 12.021484 L 4.2792969 13.066406 C 4.0394079 13.204906 3.9572032 13.510111 4.0957031 13.75 C 4.2342031 13.989889 4.5394079 14.070141 4.7792969 13.931641 L 12.574219 9.4316406 C 12.814108 9.2931407 12.894359 8.989889 12.755859 8.75 C 12.617359 8.510111 12.314108 8.4279063 12.074219 8.5664062 L 10.074219 9.7207031 L 10.066406 7.5527344 C 10.065459 7.3297742 9.9159438 7.1499403 9.7148438 7.0859375 C 9.7111313 7.0845945 9.7088411 7.081342 9.7050781 7.0800781 L 7.7421875 6.4199219 C 7.7442889 6.3613836 7.7604437 6.3062083 7.7519531 6.2460938 L 7.3632812 3.5 L 8.3320312 3.5605469 L 9.9960938 4.5019531 C 10.229522 4.6338093 10.524394 4.5517876 10.65625 4.3183594 L 10.671875 4.2890625 C 10.803731 4.0556343 10.721709 3.7627155 10.488281 3.6308594 L 8.71875 2.6308594 C 8.7050958 2.6231465 8.6898059 2.6234508 8.6757812 2.6171875 C 8.6115531 2.5793797 8.5391198 2.5519961 8.4589844 2.546875 L 6.3847656 2.4140625 C 6.3468229 2.4116378 6.3114554 2.4219872 6.2753906 2.4277344 C 6.2356836 2.4203302 6.1965505 2.4111372 6.1542969 2.4140625 z M 7.1640625 7.2832031 L 9.0683594 7.921875 L 9.0761719 10.296875 L 6.921875 11.541016 C 6.9143038 11.518179 6.9137782 11.494729 6.9023438 11.472656 L 5.7734375 9.2929688 L 6.8222656 7.3710938 C 6.8490213 7.3694675 6.8733731 7.3788073 6.9003906 7.375 C 6.9967964 7.3614144 7.0796749 7.3210627 7.1640625 7.2832031 z M 11.359375 10.5 A 0.5 0.5 0 0 0 10.859375 11 A 0.5 0.5 0 0 0 11.359375 11.5 A 0.5 0.5 0 0 0 11.859375 11 A 0.5 0.5 0 0 0 11.359375 10.5 z M 6.9511719 13 A 0.5 0.5 0 0 0 6.4511719 13.5 A 0.5 0.5 0 0 0 6.9511719 14 A 0.5 0.5 0 0 0 7.4511719 13.5 A 0.5 0.5 0 0 0 6.9511719 13 z "
         style="opacity:1;fill:#000000;fill-opacity:1;stroke:none;stroke-width:0.21352512;stroke-linecap:square;stroke-miterlimit:4;stroke-dasharray:none;stroke-opacity:1;paint-order:markers stroke fill" />
    </g>
  </g>
</svg>
