<?xml version="1.0" encoding="UTF-8" standalone="no"?>
<svg
   xmlns:dc="http://purl.org/dc/elements/1.1/"
   xmlns:cc="http://creativecommons.org/ns#"
   xmlns:rdf="http://www.w3.org/1999/02/22-rdf-syntax-ns#"
   xmlns:svg="http://www.w3.org/2000/svg"
   xmlns="http://www.w3.org/2000/svg"
   width="14"
   height="14"
   id="svg3800"
   version="1.1"
   viewBox="0 0 14 14">
  <defs
     id="defs3802" />
  <metadata
     id="metadata3805">
    <rdf:RDF>
      <cc:Work
         rdf:about="">
        <dc:format>image/svg+xml</dc:format>
        <dc:type
           rdf:resource="http://purl.org/dc/dcmitype/StillImage" />
        <dc:title></dc:title>
      </cc:Work>
    </rdf:RDF>
  </metadata>
  <g
     transform="translate(1.5520395,2.8104498)"
     id="g97">
    <g
       id="g105">
      <path
         id="path818"
         transform="translate(-1.5520395,-2.8104498)"
         d="M 7 0 A 7 7 0 0 0 0 7 A 7 7 0 0 0 7 14 A 7 7 0 0 0 14 7 A 7 7 0 0 0 7 0 z M 6.9609375 1 A 6 6 0 0 1 7 1 A 6 6 0 0 1 8.2226562 1.1269531 L 9 3.515625 L 11.873047 3.5117188 A 6 6 0 0 1 12.988281 6.6816406 L 11 8 L 11.744141 10.662109 A 6 6 0 0 1 9.1953125 12.582031 L 7 10.984375 L 4.8085938 12.578125 A 6 6 0 0 1 2.2539062 10.666016 L 3 8 L 1.015625 6.6835938 A 6 6 0 0 1 2.1367188 3.4960938 L 5 3.5 L 5.7695312 1.1347656 A 6 6 0 0 1 6.9609375 1 z M 5.4335938 5 L 4.4785156 7.9433594 L 6.9785156 9.7617188 L 9.4785156 7.9433594 L 8.5234375 5 L 5.4335938 5 z "
         style="fill:#000000;fill-opacity:1;stroke:none;stroke-width:3.49999952;stroke-linecap:square;stroke-miterlimit:4;stroke-dasharray:none;stroke-opacity:1;paint-order:markers stroke fill" />
    </g>
  </g>
</svg>
