<?xml version="1.0" encoding="UTF-8" standalone="no"?>
<svg
   xmlns:dc="http://purl.org/dc/elements/1.1/"
   xmlns:cc="http://creativecommons.org/ns#"
   xmlns:rdf="http://www.w3.org/1999/02/22-rdf-syntax-ns#"
   xmlns:svg="http://www.w3.org/2000/svg"
   xmlns="http://www.w3.org/2000/svg"
   viewBox="0 0 14 14"
   version="1.1"
   id="svg3800"
   height="14"
   width="14">
  <defs
     id="defs3802" />
  <metadata
     id="metadata3805">
    <rdf:RDF>
      <cc:Work
         rdf:about="">
        <dc:format>image/svg+xml</dc:format>
        <dc:type
           rdf:resource="http://purl.org/dc/dcmitype/StillImage" />
        <dc:title></dc:title>
      </cc:Work>
    </rdf:RDF>
  </metadata>
  <path
     id="path11507-5"
     d="M 5 0 C 2.2385763 0 0 2.2385763 0 5 C 0 7.7614237 2.2385763 10 5 10 L 8.5859375 10 L 12.291016 13.707031 C 12.682753 14.098769 13.315294 14.098769 13.707031 13.707031 C 14.098769 13.315294 14.098769 12.682753 13.707031 12.291016 L 10 8.5859375 L 10 5 C 10 2.2385763 7.7614237 0 5 0 z M 1.5 11 C 0.67157007 11 0 11.671599 0 12.5 C 0 13.328399 0.67157007 14 1.5 14 C 2.32843 14 3 13.328399 3 12.5 C 3 11.6716 2.32843 11 1.5 11 z "
     style="color:#000000;display:inline;overflow:visible;visibility:visible;fill:#000000;fill-opacity:1;fill-rule:nonzero;stroke:none;stroke-width:2.00000024;marker:none;enable-background:accumulate" />
</svg>
