<?xml version="1.0" encoding="UTF-8" standalone="no"?>
<svg
   xmlns:dc="http://purl.org/dc/elements/1.1/"
   xmlns:cc="http://creativecommons.org/ns#"
   xmlns:rdf="http://www.w3.org/1999/02/22-rdf-syntax-ns#"
   xmlns:svg="http://www.w3.org/2000/svg"
   xmlns="http://www.w3.org/2000/svg"
   viewBox="0 0 14 14"
   version="1.1"
   id="svg3800"
   height="14"
   width="14">
  <defs
     id="defs3802" />
  <metadata
     id="metadata3805">
    <rdf:RDF>
      <cc:Work
         rdf:about="">
        <dc:format>image/svg+xml</dc:format>
        <dc:type
           rdf:resource="http://purl.org/dc/dcmitype/StillImage" />
        <dc:title></dc:title>
      </cc:Work>
    </rdf:RDF>
  </metadata>
  <path
     id="path822-1-1"
     d="M 5,1 C 2.790861,1 1,2.790861 1,5 1,7.209139 2.790861,9 5,9 H 5.5859375 L 8.9394531,5.6464844 C 8.9571996,5.6287379 8.9804693,5.6219526 9,5.6074219 V 5 C 9,2.790861 7.209139,1 5,1 Z"
     style="opacity:0.25;fill:#000000;fill-opacity:1;stroke:none;stroke-width:2.53180075;stroke-linecap:square;stroke-miterlimit:4;stroke-dasharray:none;stroke-opacity:1;paint-order:markers stroke fill" />
  <path
     id="path11507-5"
     d="M 5 0 A 5 5 0 0 0 0 5 A 5 5 0 0 0 5 10 L 9.2929688 10 L 13.146484 13.853516 C 13.342353 14.049384 13.657647 14.049384 13.853516 13.853516 C 14.049384 13.657647 14.049384 13.342353 13.853516 13.146484 L 10 9.2929688 L 10 5 A 5 5 0 0 0 5 0 z M 5 1 A 4 4 0 0 1 9 5 L 9 5.5859375 L 5.5859375 9 L 5 9 A 4 4 0 0 1 1 5 A 4 4 0 0 1 5 1 z M 9 7 L 9 9 L 7 9 L 9 7 z M 1.5 11 C 0.67157007 11 0 11.671599 0 12.5 C 0 13.328399 0.67157007 14 1.5 14 C 2.32843 14 3 13.328399 3 12.5 C 3 11.6716 2.32843 11 1.5 11 z "
     style="color:#000000;display:inline;overflow:visible;visibility:visible;fill:#000000;fill-opacity:1;fill-rule:nonzero;stroke:none;stroke-width:2.00000024;marker:none;enable-background:accumulate" />
</svg>
