<?xml version="1.0" encoding="UTF-8" standalone="no"?>
<svg
   xmlns:dc="http://purl.org/dc/elements/1.1/"
   xmlns:cc="http://creativecommons.org/ns#"
   xmlns:rdf="http://www.w3.org/1999/02/22-rdf-syntax-ns#"
   xmlns:svg="http://www.w3.org/2000/svg"
   xmlns="http://www.w3.org/2000/svg"
   width="14"
   height="14"
   id="svg3800"
   version="1.1"
   viewBox="0 0 14 14">
  <defs
     id="defs3802" />
  <metadata
     id="metadata3805">
    <rdf:RDF>
      <cc:Work
         rdf:about="">
        <dc:format>image/svg+xml</dc:format>
        <dc:type
           rdf:resource="http://purl.org/dc/dcmitype/StillImage" />
        <dc:title></dc:title>
      </cc:Work>
    </rdf:RDF>
  </metadata>
  <g
     transform="translate(1.5520395,2.8104498)"
     id="g97">
    <g
       id="g105">
      <path
         id="path818-8"
         transform="translate(-1.5520395,-2.8104498)"
         d="M 7 0 A 7 7 0 0 0 0 7 A 7 7 0 0 0 7 14 A 7 7 0 0 0 14 7 A 7 7 0 0 0 7 0 z M 7 1 A 6 6 0 0 1 9.1679688 1.4140625 C 8.8883923 1.6210698 8.5578408 1.9000402 8.2070312 2.3203125 C 7.5406325 3.1186095 6.7521077 4.517675 6.5664062 6.6582031 C 5.791486 7.010778 5.101109 7.2005066 4.4863281 7.3027344 C 4.4122708 6.853335 4.3207148 6.1367955 4.4277344 5.2519531 C 4.6371731 3.5200848 5.436375 2.1367992 6.8007812 1.1074219 L 6.9414062 1.0019531 A 6 6 0 0 1 7 1 z M 5.1816406 1.2890625 C 4.0237499 2.5887214 3.5898857 4.0476176 3.4589844 5.1640625 C 3.3473032 6.1167118 3.4358604 6.8852969 3.5175781 7.4023438 C 3.1187324 7.4076566 2.7530795 7.383514 2.4667969 7.3320312 C 1.6261676 7.1808271 1.2021562 6.9110526 1.0722656 6.8242188 L 1.0097656 6.7832031 A 6 6 0 0 1 5.1816406 1.2890625 z M 10.173828 1.9160156 A 6 6 0 0 1 13 7 A 6 6 0 0 1 12.861328 8.2675781 C 12.392437 6.7208772 11.446918 5.6450313 10.607422 4.96875 C 9.7133724 4.2485382 8.8805373 3.8962172 8.421875 3.7207031 C 8.5745084 3.4562567 8.7396261 3.2034984 8.9277344 2.9746094 C 9.4921638 2.2877721 9.9633492 2.0266477 10.107422 1.9511719 L 10.173828 1.9160156 z M 8.0175781 4.609375 C 8.3819737 4.7446374 9.1759437 5.0607801 10.015625 5.7421875 C 11.343905 6.8201201 12.055358 8.1887046 12.166016 9.8339844 L 12.177734 10.019531 A 6 6 0 0 1 10.886719 11.5625 C 10.844766 11.227291 10.769399 10.818506 10.585938 10.328125 C 10.218454 9.3458149 9.3703229 7.9424066 7.5351562 6.6875 C 7.6046549 5.9318162 7.7753089 5.2407717 8.0175781 4.609375 z M 7.0253906 7.5078125 C 7.6453918 7.9348221 8.1129156 8.3746074 8.4941406 8.8027344 C 8.1244466 9.0906401 7.5486498 9.505817 6.7441406 9.8378906 C 5.06189 10.53222 3.4090548 10.504471 1.796875 9.7714844 L 1.6445312 9.703125 A 6 6 0 0 1 1.0742188 7.9140625 C 1.3735995 8.0475496 1.7488639 8.1877231 2.2441406 8.28125 C 2.5737254 8.343482 2.9674408 8.3886719 3.4179688 8.3886719 C 4.3761183 8.3886719 5.6088374 8.1604489 7.0253906 7.5078125 z M 9.0976562 9.5703125 C 9.3493141 9.9556234 9.5403743 10.323437 9.6582031 10.630859 C 9.9733801 11.453094 9.9650725 11.982399 9.9589844 12.136719 L 9.9570312 12.212891 A 6 6 0 0 1 7 13 A 6 6 0 0 1 2.5957031 11.066406 C 3.1901753 11.221588 3.7681166 11.310547 4.3085938 11.310547 C 5.4236825 11.310547 6.3956836 11.037871 7.1425781 10.726562 C 8.0394007 10.352736 8.6800069 9.8963401 9.0976562 9.5703125 z "
         style="fill:#000000;fill-opacity:1;stroke:none;stroke-width:3.11111093;stroke-linecap:square;stroke-miterlimit:4;stroke-dasharray:none;stroke-opacity:1;paint-order:markers stroke fill;opacity:1" />
    </g>
  </g>
</svg>
