<?xml version="1.0" encoding="UTF-8"?>
<svg xmlns="http://www.w3.org/2000/svg" xmlns:xlink="http://www.w3.org/1999/xlink" width="900" height="1000" viewBox="0 0 90 100">
<defs>
  <path id="a" d="m-.158-6.59c-.592.0968-.373.839-.693 1.14-.58.308-.794-.562-1.38-.502-.441-.0545-1.35-.203-1.32.457-.00553.285.584.603.0234.635-1.29.202-2.71.803-3.26 2.07-.036.699.31 1.56.971 1.87.491-.128.327-.0545.352.391.189.821 1.22.49 1.68.105.678-.442 1.31-1.24 2.21-1 .831.0728 1.92-.181 2.09-1.13.296-.332.729.205.852.473-.462.247-.922.878-.414 1.32.401.57-.484 1.04-.929 1.23-.572.141-1.05.816-.573 1.32.606.633 1.44-.133 2.04-.404 1.26-.647 1.36-2.21 1.53-3.45.146-.963-1.08-1.24-1.28-2.03.617-.355 1.39.158 1.45.846.365 1.27.498 2.7-.252 3.87-.356.572-.475 1.26-.752 1.85-.558.681-1.77.873-1.94 1.83.166.687 1.1.487 1.6.316.9-.284 1.12-1.35 1.89-1.78.39.104.406.833.211 1.14-.737.791-2.06 1.02-2.51 2.06-.00609.736 1.06.677 1.46.271 1.01-.8 2.1-1.68 2.6-2.9.157-.781-.249-1.66.332-2.35.623-.897 1.34-2.12.76-3.2-.35-.522-.983-.107-1.19.328-.116-.846-.244-1.75-.82-2.43-.516-.514-.756-1.23-1.19-1.78-.75-.328-1.53.287-2.25.462-1.1.376-1.14 2.05-1.01 1.6.0336-.459.855-2.61-.291-2.62zm.381 2.18c.0533.53-.194.965-.0879.18.0212-.0374.0709-.166.0879-.18zm-2.41 1.13c.474-.04 1.24.366.354.43-.66-.116-1.35-.0751-1.93.303-.32.183-.635.385-.918.622-.205.171-.394.36-.558.573-.0544-.849.641-1.47 1.39-1.72.528-.203 1.1-.258 1.66-.21zm7.11 3.16c.308.365-.0619 1.01-.477.611-.0339-.231.249-.668.477-.611zm-8.18-1.06c-.578.117-.515 1-.273 1.4.465.434 1.44.112 1.62-.48.0276-.643-.856-.869-1.35-.924zm.42 2.42c-.651.054-.588.889-.124 1.16.431.477 1.05.758 1.51 1.18-1.28.202-1.54-1.49-2.6-1.77-.79.134-.561 1.24-.232 1.73.814 1.3 2.55 2.14 4.03 1.47.542-.0861.865-.692.479-1.13-.215-.546-.108-1.23-.645-1.63-.642-.585-1.54-1.03-2.42-1z"/>
  <path id="b" d="M-2.16-6.6c-1.28.444-2.13 1.62-3.01 2.58-.385.278-.441.908.146.957.74.23 1.62-.0957 1.83-.891.194-.774.889-1.17 1.55-1.49.495-.266.451-1.09-.17-1.13-.113-.00228-.228-.0405-.34-.0215z M-1.05-5.94c-.857.196-.209 1.4-1.01 1.68-.815.439-1.77.827-2.2 1.71-.375.275-1.21.0837-1.23.746-.0483.738.861.891 1.38.604.963-.258 1.8-1.11 2.84-.964.48.36.0597 1.26.74 1.51.722.32 1.13-.575 1.05-1.17.0563-.525.772-.142 1.08-.101.583.137 1.7.569 1.17 1.32-.47-.111-.827-.658-1.39-.504-.454-.016-1.14.506-.623.912.859.412 1.51 1.18 1.77 2.08.178.628.923 1.03 1.49.602.67-.288 1.25-.923 1.07-1.7-.103-2-1.57-3.96-3.54-4.44-.517-.162-.958.26-1.43.238-.667-.66-.0324-1.94-.9-2.5-.0885.000876-.18-.0342-.268-.00977zm4.67 6.29c.603.0968.462.887.00391.225-.00385-.0363-.153-.302-.00391-.225z M3.92-3.58c-.58.22.00187.886.312 1.13.966.84 1.57 1.98 2.19 3.07.365.479.802-.146.68-.567.186-1.41-1.13-2.31-2.07-3.1-.331-.219-.697-.592-1.11-.533z M-1.8-2.06c-.913.488-1.57 1.56-2.66 1.62-.594-.143-1.65-.276-1.79.529.0625.923 1.23.87 1.9.977 1.18.0532 2.4.204 3.57.0131.597-.326-.114-.874-.441-1.1-.765-.555.402-1.63-.395-2.15-.0632.0365-.126.0729-.189.109z M1.37 1.73c-1.46.287-2.92.659-4.31 1.14-1.29 1.02-.108 3.28 1.42 3.12 1.56-.0095 3.34-.4 4.33-1.7.241-.464-.046-1.07-.553-1.19-.0501-.478.158-1.34-.561-1.38-.109.00392-.221-.0224-.328-.00391zm-.6 1.88l.35 -.05zm-2.4.592c.364-.0829.899.366.311.518-.502.092-.945-.204-1.35-.455.367-.0577.676-.0846 1.04-.0625z"/>
  <path id="c" d="M-3.66-5.67c-1.24.238-2.71.94-2.87 2.35-.118 1.15-.172 2.37.202 3.47.47.388 1.09-.153 1.56-.343.611-.324 1.25-.71 1.52-1.37.61-.846 1.78-1.39 1.95-2.49-.222-.738-1.08-.185-1.54-.0443-.516.0985-1.15.41-1.16.992-.25.38-.691.643-1.14.701-.241-.746.512-1.26 1.18-1.25.68-.265 1.14-1.31.682-1.91-.105-.0991-.244-.11-.381-.105z M1.97-5.7c-.964.161-2.08.488-2.63 1.36-.171.785.892.88 1.41.648.857-.242 1.69-.794 2.13-1.57.0016-.501-.571-.428-.912-.43z M3.75-5.1c-.652.0103-.88.701-.979 1.22-.605.123-1.33.00731-1.87.434-.581.372-1.18 1.09-.746 1.79.193.366.427 1.21.962.88.262-.393.359-.94.897-1.09.465-.237 1.49-.398 1.4.406-.168.976-1.63.462-1.88 1.31.49.932 1.84.736 2.59.229 1.38-.856 2.15-2.48 2.37-4.04.137-.747-.961-1.2-1.32-.49-.277.48.00741 1.43-.799 1.43-.0819-.394.461-.907.432-1.4.0262-.575-.604-.707-1.05-.684z M-1.56-2.89c-.869.133-.576 1.45-1.47 1.59-.567.0732-.967.478-1.08 1.02-.367.652-.705 1.4-1.27 1.88-.319-.437-1.18-.583-1.28.0996-.044.793.774 1.31 1.22 1.88.642.593 1.35 1.63 2.36 1.28.557-.142 1.09-.428 1.67-.463.287.634-.781 1.36-.0938 1.88.791.178 1.38-.673 1.89-1.15.73-.777 1.41-2.04.807-3.06-.604-.455-1.03.505-.979 1.02-.0849.748-1.17.124-.777-.388.642-.861 1.37-1.95.932-3.07-.255-.668-1.16-.907-1.16-1.71-.0626-.376-.33-.828-.767-.79zm.572 2.6c.6.0171.183.798-.225.82-.763.393-.734 1.44-1.41 1.88-.618.0437-.761.712-1.02 1.13-.234.208-1.07-.337-.604-.473.709-.174 1.27-.801 1.17-1.56.136-.833 1.42-.779 1.49-1.68.163-.13.398-.133.598-.121z"/>
  <path id="d" d="M-.102-5.92c-.809.178-1.69.188-2.44.574-.794.699-1.58 1.59-1.79 2.65.0277.636.824.575 1.24.385 1.58.533 3.3.157 4.91.496.162.289-.898.137-1.2.19-.823.0948-1.81-.221-2.51.318-.412.538-.0599 1.55.717 1.38.431-.19.428.291.736.471.643.361 1.35 1.14 2.14.738.454-.145.75-.715 1.25-.577.712-.379 1.03-1.3 1.15-2.06-.162-.794-.932-1.24-1.46-1.78.537.27 1.14-.315.768-.832-.651-1.03-1.83-1.66-2.99-1.94-.178-.0338-.356-.0184-.535-.0125zm-.561 1.74c.201.0632 1.02.0156.771.389-.628.178-1.23-.547-1.88-.188-.161.121-.864.38-.621-.0519.539-.218 1.16-.165 1.72-.148z M-4.73-1.14c-.619.355-.645 1.25-.664 1.89.183.927 1.02 1.71 1.92 1.95.772.113 1.29 1.16 2.16.734.735-.32 1.75-.532 2.08-1.35.144-.661-.693-.636-1.07-.36-.386.289-.828.256-1.18-.0584-.662-.472-1.24-1.1-1.98-1.44-.42-.416-.493-1.48-1.27-1.37z M2.47 1.64c-1.12.256-2.07 1.1-2.75 2-.388.531.315 1.14.828.777.942-.495 1.75-1.3 2.29-2.21.119-.266-.0574-.583-.361-.564z M2.79 3.31c-.576.134-.689.895-1.3 1.02-.694.269-1.58.757-2.27.274-.684-.126-1.52.239-1.86.848-.0661.714.912.78 1.43.904.706.134 1.46.136 2.09-.24.758-.318 1.87.0586 2.38-.712.204-.627.393-1.55-.178-2.04-.0919-.0484-.206-.0844-.309-.0586z"/>
  <path id="e" d="m-1.2-5.9c-.757.122-1.79-.223-2.32.482-.376.463-.0793 1.31.584 1.17.487-.0998.742-.129.0918.0625-.724.173-.547 1.03-.131 1.42.229.486.861.904 1.27.353.318-.327.873-.872 1.25-.297.694.668 1.51 1.34 1.88 2.24.00852.626.834.586 1.05.104.379-.386.371-1.08.797-1.38.207.529.527 1.19 1.21 1.15.608.111.946-.534.703-1.04-.352-1.56-.999-3.4-2.7-3.89-1.18-.386-2.45-.379-3.69-.369zm1.47 1.22c.74.246 1.63.0535 2.18.754.509.336.57.991.157 1.43-.774-.621-1.54-1.45-2.62-1.45-.64-.037-.0309-.752.282-.734z M-2.11-1.8c-.536.0483-1.52-.0528-1.57.666.117.602.88.702 1.13 1.17.00273.58-.371 1.52.381 1.78.535.0593.626-.725 1.2-.607.55-.201.665.33.575.753-.0597.606-.246 1.48-.931 1.63-.898-.515-1.18-2.01-2.41-1.96-.593.0857-1.57.0616-1.71.793.289.799 1.4.514 1.95 1.06.711.425 1.1 1.2 1.07 2.02.0864.729 1.01.823 1.46.361 2.06-1.41 2.5-4.48 1.27-6.57-.527-.793-1.5-1.12-2.41-1.09z"/>
  <path id="f" d="M1.57-6.59c-.522-.0315-.946.351-.851.889.0638.74-.934.255-1.27.662-.419.313-.297.921-.476 1.34-.527-.131-1.32-.815-1.7-.0859-.106 1.1-1.25 1.7-1.49 2.74.226.702 1.17.384 1.64.123.764-.265.851-1.17 1.57-1.49 1.51-.743 3-1.7 3.94-3.12.405-.545-.193-1.06-.746-1.04-.205-.0166-.409-.0293-.615-.0117z M3.1-4.77c-1.14.846-2.23 1.8-3.17 2.86-.342.539.359.783.793.717.743.00535 1.14.414.322.789-.617.481.142 1.06.585 1.31.475.429 1.2.284 1.51-.271.193-.374 1.1-.534.951.0898-.402.995-1.68.493-2.33 1.18-.448.381-.756 1.22-1.47 1.04-.37-.709.823-.749.797-1.4.0353-.833-1.11-1.12-1.62-.531-.658.553-1.33 1.36-1.17 2.27-.158.398-1.09.826-1.06.0832.0267-.726-.191-1.67-1.04-1.8-.587-.274-.886.41-.781.894.126.602-.513.833-.952 1.05-.792.445-.591 1.63.189 1.96.41.283 1.29.566 1.35-.191-.0769-.413.105-.464.439-.245.883.314 1.96.213 2.65.935 1.07.452 2.36.384 3.41-.0811.649-.604 1.64-.368 2.27-.994.883-.691 1.6-1.81 1.24-2.97-.232-1.12.963-1.87.889-2.94-.288-.692-1.14-.369-1.54.0234-.521.321-.323-.545-.111-.725.436-.223.855-.698.534-1.2-.423-.964-1.42-1.64-2.41-1.9-.0841.0168-.185-.0472-.256.0293zm-.0605 2.67c.429.131-.0056 1.28-.336.625-.132-.246.0325-.64.336-.625zm1.27 4.7c.106.216-.59.555-.805.775-.379.274-.762.544-1.18.76.337-.767 1.11-1.51 1.98-1.54zm-3.97 1.44c.426.183.52.868-.0859.732-.482-.077-.11-.562.0859-.732z M-1-1.47c-.834.326-1.41 1.11-1.95 1.8-.418.54.286 1.04.805.838.814-.356 1.62-1.1 1.75-2.01.0254-.343-.235-.717-.611-.625z"/>
  <path id="g" d="M-1.05-5.67c-.661.0213-.685.95-.126 1.17.496.31 1.11.474 1.47.969-.7.264-1.68.192-2.14.863-.248.721.749.827 1.24.812.434-.0496 1.33.168.966.768-.825.289-1.39-.649-2.07-.932-.667-.0465-.519.916-.375 1.35.517 1.46 1.38 3.08 2.97 3.56.35.173.822.00749 1.11.266-.323.799-1.42.539-2.1.436-.523-.125-.724.506-.334.805.74.814 2.06.997 3.07.654.335-.22.844-.281 1.15.0137-.493-.0223-1.16.428-.775.963.701.596 1.66.0633 2.29-.387.543-.0274 1.1-.398 1.05-1 .0748-.595-.516-.918-1.03-.803-.0765-.383.545-.196.67-.525.393-.431.781-1.4.143-1.74-1.07.0265-1.55 1.43-2.57 1.57-.165-.636.582-1.09.912-1.55.404-.466.878-.879 1.2-1.41-.294-.605-1.09-.267-1.57-.227.456-.477.121-1.25-.514-1.32-.712-.218-1.51.0235-2.19-.309.633-.467 1.77-.185 2.12-1.01.0118-.392-.345-.573-.66-.641-.355-.639.369-1.08.549-1.6.00146-.636-.891-.434-1.33-.436-.653-.0522-1.29.703-1.88.18-.36-.265-.788-.509-1.25-.477zm2.95 6c.51-.0421.995.654.49.98-.54.231-1.33-.742-.621-.996l.0993.0119z M-3.26-4.3c-1.03.252-2.13.794-2.69 1.73-.367.834-.777 1.69-.601 2.63.118.833.122 1.85.769 2.46.458.4 1.13.211 1.62.447.181.407-.198.507-.51.453-.646-.0422-1.11.816-.537 1.24.881.727 2.04-.076 2.73-.702.525-.522 1.32-1.31.905-2.1-.308-.492-1.06-.332-1.21.193-.582.134-.1-.4.196-.394.746-.235 1.01-1.49.318-1.9-1.08-.0413-1.84 1.12-2.91 1.12.483-1.13 2.07-1.29 2.54-2.42-.0765-.762-1.04-.47-1.55-.609.408-.676 1.48-1.02 1.47-1.9-.116-.189-.309-.292-.533-.254z M.05,.7 l.1,.2z"/>
  <path id="h" d="M1.8-5.39c-.686-.0225-.732.763-.559 1.25.00497.283-.0607 1.28-.457.768-.568-.448-1.09-1.37-1.92-1.17-.439.509-1.45.129-1.58.951-.14.487.0502 1.06-.242 1.49-.358-.445-.275-1.41-1.07-1.37-.374-.0422-.879.254-1.17.0484-.194-.636-1.26-.643-1.33.0859-.259 1.84-.161 3.72-.0592 5.57.0207.42.128 1.29.735 1 .695-.438.024-1.71.877-1.97.63.0807.126.838.2 1.24-.118.514.459 1.11.919.681.246-.342.532-.645.486-.00586.181.958 1.51.868 2 .215.599-1.16.755-2.53.79-3.82.0539-.794-.835-1.28-.633-2.1-.0446-.365.286-.912.409-.278.313.779.169 1.83.824 2.42.438.0986.972.417.605.928-.459.862-.618 1.86-.453 2.81-.0826.644-1.25.867-.94 1.58.593.462 1.29-.295 1.65-.759.689-.978 1.25-2.11 1.4-3.31-.0211-.85-.839-1.47-.859-2.31.532-.108 1.43.443 1.66-.334.0637-1.1-.0668-2.23-.217-3.33-.247-.308-.7-.316-1.06-.305zm-6.95 3.4c.266.357.369 1.08-.0352 1.35-.41-.229-.234-1.14.0352-1.35zm2.12 1.72c.564-.000121.986.47.82 1.04-.0448.256-.162 1.22-.509.905-.382-.553-.647-1.23-.653-1.9.104-.0573.227-.0507.342-.0449z M5.02-4.78c-1.05.345-1.63 1.68-1.29 2.72.102 1.03-.872 1.74-.94 2.74-.0257.756-.513 1.51-.374 2.29.315.672 1.08.067 1.3-.375.267-.434.635-1.35 1.27-1 .0495.958-1.29 1.11-1.45 2.01-.202.672.65.943 1.14.654 1.43-.455 1.93-2.1 1.84-3.46.0189-.515.025-1.43-.721-1.35-.297-.0384-1.16.427-.983-.0544.436-.771 1.34-1.66.757-2.6-.254-.489.413-1.51-.549-1.57z M-1.82 4.5c-.517-.0461-1.56.175-1.18.9.595.56 1.63.24 2.15-.293.252-.609-.586-.618-.965-.607z M4.54 4.82c-.75.0218-1.06 1.05-1.87.773-.457-.0432-1.33-.368-1.44.283.165.74 1.17.719 1.79.702.599.0204 1.01-.506 1.61-.477.625-.0907.919-1.18.16-1.28-.0798.00609-.164-.0223-.242-.00195z"/>
  <path id="i" d="M-.809-5.37c-.706.182-.53 1.14.0195 1.42.947.67 2.12 1.24 3.3 1.04.956.379 1.55 1.34 2.15 2.14.00633.441.42 1 .889.654.779-.669.0875-1.76-.317-2.44-.656-.946-1.41-2.19-2.72-2.17-.855-.142-1.72.0391-2.53-.286-.172-.252-.483-.432-.791-.361z M-3.24-4.17c-1.31.072-3 .522-3.35 1.98-.0544.411-.317 1.27.344 1.24.686-.365 1.16-1.24 2.03-1.19.902-.223 1.92-.459 2.57-1.16.25-.77-.807-.917-1.35-.871-.0801.00339-.161-.00509-.241.00195z M.0508-2.06c-.492-.0855-1.03.484-.551.877.709.634 1.91.587 2.38 1.51.488.412 1.23.27 1.72.727.453.374 1.29.089 1.07-.57-.455-1.41-1.91-2.23-3.32-2.41-.427-.0879-.865-.144-1.3-.133z M-3.41-1.77c-.713.0603-1.81.283-1.85 1.16.213.856 1.36.743 1.98.434.515-.19 1.39-.74.95-1.37-.302-.238-.72-.23-1.08-.221z M-4.53.348c-.666.169-.566 1-.141 1.39.498.656-.398-.352-.587-.53-.345-.464-1.23-.3-1.04.369.153.619.841.97.859 1.64.14.396.692.334.741.816.77 1.08 2.19 1.42 3.41 1.72 1.11.143 2.23.392 3.35.409.723-.0898.545-.982.164-1.36-.76-.951-1.65-2.11-2.99-2.14-.625-.181-.847-.909-1.44-1.18-.708-.463-1.45-.967-2.28-1.15zm1.95 3.31c.75.243 1.52.469 2.22.832-.828-.0165-1.63-.389-2.3-.85z M-.633.607c-.513-.0943-.754.565-.256.779.759.402 1.47.982 1.75 1.81.553.802 1.73-.325 2.21.588.229.519 1.11.738 1.26.0469.27-1-.417-1.94-1.29-2.36-1.1-.645-2.39-.963-3.67-.87z"/>
  <path id="j" d="M.957-6.26c-.672.0328-.322.854.147.949.468.348 1.47.0773 1.46.885-.0454.484-.746.0762-1.01.00977-.718-.266-1.58-.976-2.34-.521-.491.599.387 1.23.943 1.32.947.347 1.08 1.53 1.88 2.08.525.413 1.18 1.09 1.9.871.536-.533-.12-1.3-.517-1.72-.37-.349-.206-1.12.417-.893.76.232.508 1.26.597 1.88-.0941.633.492 1.36 1.15 1.01.586-.15 1.23-.761.79-1.38-.537-.724-.328-1.73-.994-2.39-.79-.931-1.79-1.97-3.12-1.88-.434-.038-.855-.185-1.29-.215z M-4.13-1.2c-.5-.0555-1.02.476-.619.921.358.471.973 1.32 1.63.89.588-.399.811-1.53-.0781-1.71-.304-.0846-.619-.116-.934-.0957z M-5.38-1.2c-.904.158-.809 1.38-.46 2 .304.674 1.11 1.66 1.92 1.14.56-.589-.0616-1.36-.496-1.8-.244-.444-.121-1.22-.791-1.33-.0561.00693-.112-.032-.168-.0117z M-.551-.762c-.621-.0462-.74.68-.413 1.09.181.49.709.846.731 1.38-.735.000311-1.32-.991-2.09-.611-.349.678.422 1.29.823 1.76.362.452 1 .643 1.36 1.03-1.1.161-1.58-1.23-2.63-1.17-.697.4-.0929 1.27.251 1.72.669.8 1.54 1.95 2.74 1.59.938-.335 1.84-1.04 2.89-.74 1.79-.0836 3.34-2.15 2.62-3.87-.421-.666-1.16.0222-1.43.47-.463.553-.755 1.32-1.51 1.42-.267-.161.45-.492.615-.722.678-.529.192-1.86-.697-1.61-.421.129-.642.627-.992.781-.073-.404.678-.242.613-.738-.0842-1.08-1.35-1.34-2.19-1.62-.227-.0697-.459-.136-.697-.141zm1.92 4.22c.508.193-.786.128 0 0z"/>
  <path id="k" d="M1.65-5.71c-1.32-.00198-2.5.654-3.42 1.56-.682.66-1.51 1.24-1.97 2.07-.218.767.991 1.5 1.54.824.418-.472 1.47-.878 1.75-.0742.462.778 1.42-.0551 2 .406.287.539-.337 1.37.344 1.77.826.39 1.17-.802 1.91-.824-.162.972-.819 1.91-.607 2.91.481.635 1.1-.208 1.31-.662.431-.653.428-1.45.674-2.16.551-.44.39-1.25-.166-1.61-1.54-1.16-3.53-1.3-5.36-1.58-.731-.121-.075-.948.383-.967.922-.289 1.71.494 2.63.467.663.118 1.12 1.13 1.85.738.36-.735-.308-1.5-.697-2.1-.459-.737-1.39-.773-2.16-.775z M-4.63-1.6c-.993.349-2.19 1.14-2.05 2.35-.0797.512.379 1.36.954.904.381-.324.367-1.23 1.07-1.02 1.72e-5.611-.0938 1.59.721 1.73.818.0844 1.04-.842 1.39-1.37.611-.00174 1.41.206 1.73.777.0658.761-.805.996-1.41.966-1.26.25-2.6.563-3.64 1.35-.461.486-.174 1.51.592 1.34.989-.177 1.89-.965 2.96-.653.805.0518 1.18 1.14 2 .986.692-.452.53-1.46.692-2.18.223-1.35.0864-2.88-.893-3.92-.961-.702-2.43.534-3.23-.537-.209-.322-.399-.818-.875-.736z"/>
  <path id="l" d="M-.104-5.39c-.883-.0334-1.44 1.18-.996 1.86.604.399 1.73.348 2.08-.379.198-.696-.318-1.52-1.09-1.48z M-3.98-2.36c-.597.271-.233 1.18.175 1.49.601.568 1.65.684 2.34.268.31-.574-.637-.82-.967-1.11-.498-.211-.983-.705-1.55-.654z M2-1.36c-.556-.0322-1.48.293-1.11 1 .0525.394 1.09.617.293.639-.62.0887-1.61-.134-1.89.596.187.84 1.25.536 1.86.754 1.05.239 2.25.633 3.31.0828.55-.274 1.54-.578 1.4-1.35-.502-.645-1.44-.0713-2.05-.188.16-.465 1.16-.487.834-1.14-.662-.596-1.83-.361-2.65-.393z M-4.73-.863c-.688.179-.518 1.17.0449 1.42.79.495 1.69 1.14 2.67 1.02.691-.229.461-1.29-.25-1.27-.951-.0712-1.51-1.17-2.46-1.17z M.00586 2.45c-1.16.19-2.47-.0256-3.52.592-.497.439.114.965.568 1.07-.621.0856-1.53-.454-1.92.244-.0878.772.897 1.03 1.46 1.27 1.69.688 3.73.362 5.14-.785.571-.431.129-1.35-.559-1.23-.595-.0168-.839.724-1.48.59-.061-.181.534-.59.666-.924.248-.34.12-.85-.363-.826z"/>
  <g id="a_src" transform="matrix(.3 0 0 .3 -7.2879 -7.2)">
    <g transform="translate(0 48) scale(.1 -.1)">
      <path d="m230 430c0-21-33-29-45-10-3 6-18 10-32 10-21 0-23-2-13-15 13-16 11-18-43-30-16-3-40-17-53-30-21-21-22-27-12-50 13-30 28-33 28-6 0 31 47 61 96 61 44 0 67-16 43-31-8-4-24-6-37-2-25 6-92-39-92-63 0-22 25-17 59 12 17 14 36 24 43 23 42-5 70 2 75 21 6 24 26 26 44 4 11-14 11-18-4-28-12-9-13-16-5-24 16-16 2-41-31-55-22-9-27-16-21-27 7-12 14-11 44 5 39 21 45 30 56 89 7 35 5 42-16 59-31 24-31 47 0 47 29 0 42-15 50-60 10-54 8-72-14-115-11-21-20-45-20-52 0-8-16-23-35-34-42-25-45-42-8-37 18 2 35 14 48 35 24 38 49 39 53 1 3-22-4-31-42-53-47-28-59-45-29-45 9 0 36 21 61 46 38 41 43 51 39 79-4 25 1 41 19 66 13 18 24 46 24 61 0 28-13 37-25 18-12-20-25-10-25 19 0 16-10 42-23 58-13 15-26 36-30 45-6 18-11 18-69-4-22-8-28-17-28-39 0-16-4-29-9-29-14 0-20 25-10 41 12 19 11 59-1 59-5 0-10-9-10-20zm190-201c0-12-7-19-20-19-22 0-26 20-8 38 15 15 28 6 28-19z"/>
      <path d="m130 251c0-14 5-18 20-14 24 6 26 19 4 27-23 9-24 8-24-13z"/>
      <path d="m142 178c3-7 19-22 36-33 38-24 40-35 7-35-16 0-32 11-47 30-25 34-38 38-38 13 1-41 66-87 108-77 38 9 43 14 35 27-5 7-8 21-8 31 0 11-13 27-30 37-36 21-68 24-63 7z"/>
    </g>
  </g>
  <g id="b_src" transform="matrix(.3 0 0 .3 -7.2879 -7.2)">
    <g transform="translate(0 48) scale(.1 -.1)">
      <path d="m113 406c-24-25-43-47-43-50s11-6 24-6c18 0 27 8 35 30 6 17 21 34 35 40 30 11 35 30 9 30-10 0-37-20-60-44z"/>
      <path d="m200 407c0-20-9-29-40-44-22-10-42-26-45-35-4-10-15-18-26-18-10 0-19-4-19-9 0-22 22-20 70 5 54 28 80 23 80-17 0-11 7-19 15-19 9 0 15 9 15 25 0 29 15 32 67 13 24-9 33-18 33-35 0-25-19-30-37-12-7 7-20 8-30 5-16-7-15-9 9-22 15-8 32-30 39-49 14-38 24-42 55-20 18 12 20 20 14 59-10 68-92 138-134 114-24-14-41 4-41 44 0 17-6 33-12 36-8 2-13-6-13-21zm188-191c3-13-1-17-14-14-11 2-20 11-22 22-3 13 1 17 14 14 11-2 20-11 22-22z"/>
      <path d="m397 323c17-16 40-46 51-68 21-40 21-40 22-9 0 24-9 39-41 67-22 21-46 37-52 37s3-12 20-27z"/>
      <path d="m148 270c-28-23-43-29-62-24-31 7-51-3-37-20 6-7 43-13 93-14 82-2 83-2 60 16-18 14-22 24-17 45 4 15 5 27 3 27s-20-14-40-30z"/>
      <path d="m245 163c-27-8-62-17-77-20-33-6-42-37-21-69 12-19 24-24 57-24 77 1 161 57 112 76-8 3-12 13-9 24 7 26-6 29-62 13zm45-43c0-5-9-10-21-10-11 0-17 5-14 10 3 6 13 10 21 10s14-4 14-10zm-64-21c3-6 1-16-5-22-13-13-62 1-69 21-5 15 64 17 74 1z"/>
    </g>
  </g>
  <g id="c_src" transform="matrix(.3 0 0 .3 -7.2879 -7.2)">
    <g transform="translate(0 48) scale(.1 -.1)">
      <path d="m92 410c-49-20-61-42-59-108 0-34 5-62 9-62 16 0 78 36 78 46 0 6 16 24 35 41 37 33 47 60 18 48-10-4-26-10-35-12-10-3-18-11-18-19 0-13-30-34-49-34-15 0-14 33 1 48 7 7 20 12 29 12 16 0 29 19 29 41 0 11-8 11-38-1z"/>
      <path d="m258 404c-16-8-28-19-28-24 0-20 51-9 78 15 27 25 27 25 2 25-14-1-37-8-52-16z"/>
      <path d="m348 378c-2-18-9-23-31-21-17 1-36-6-49-19-18-18-19-23-7-47 10-22 13-23 17-8 7 31 75 49 86 22 9-25-4-43-37-51-25-5-28-8-14-16 33-18 87 12 113 64 27 54 31 88 9 88-9 0-15-9-15-25 0-25-19-40-40-33-6 2-5 13 4 30 15 29 12 38-15 38-11 0-19-9-21-22z"/>
      <path d="m176 306c-4-16-16-28-31-32-14-3-25-10-25-15s-12-28-26-50c-19-30-29-38-37-30-15 15-27 14-27-2 0-7 20-31 44-55 43-42 43-42 85-27 36 12 43 12 47 0 3-7 1-23-6-34-18-35 12-26 48 15 21 23 32 46 32 66 0 17-4 27-10 23-5-3-10-14-10-25 0-22-23-33-39-17-15 15-14 25 9 54 25 33 26 75 1 90-11 7-21 22-23 34-4 32-24 34-32 5zm54-65c0-11-8-22-18-25s-23-19-29-36c-6-16-18-30-26-30s-17-9-20-20c-6-24-29-26-47-5-10 12-8 16 14 25 19 7 26 17 26 35 0 17 8 29 25 37 14 6 25 17 25 25 0 7 11 13 25 13 18 0 25-5 25-19z"/>
    </g>
  </g>
  <g id="d_src" transform="matrix(.3 0 0 .3 -7.2879 -7.2)">
    <g transform="translate(0 48) scale(.1 -.1)">
      <path d="m215 423c-11-2-29-6-41-8-23-5-77-82-63-90 5-4 14-3 19 0 6 3 15 3 22-1s46-8 87-8c61-1 76-4 79-17 2-13-8-15-65-15-62 1-68-1-68-19 0-16 6-19 25-17 14 2 22 1 18-4-7-6 8-18 50-40 7-3 22 2 32 11 11 10 23 15 27 12 7-8 33 38 33 58 0 7-13 25-30 38-35 30-38 41-9 32 37-12 18 27-26 52-40 22-51 25-90 16zm41-44c11-19-12-32-35-20-15 8-27 9-40 1-21-11-37 2-26 20 8 14 92 13 101-1z"/>
      <path d="m75 239c-5-24-2-36 16-55 12-13 29-24 37-24 9 0 23-7 33-16 17-15 22-15 56-1 20 8 39 20 41 27 3 9-1 11-12 7-9-4-22-9-29-12s-28 8-47 25c-18 16-37 30-42 30s-14 11-20 25c-15 33-25 32-33-6z"/>
      <path d="m305 168c-27-14-65-49-65-60 0-18 28-6 60 27 36 37 38 50 5 33z"/>
      <path d="m323 106c-12-21-89-46-102-33-7 7-19 7-37-2-15-7-23-16-18-20 14-13 80-21 90-11 5 5 27 10 49 12 37 3 40 5 43 36 3 33-11 43-25 18z"/>
    </g>
  </g>
  <g id="e_src" transform="matrix(.3 0 0 .3 -7.2879 -7.2)">
    <g transform="translate(0 48) scale(.1 -.1)">
      <path d="m143 423c-7-2-13-12-13-20 0-11 7-14 25-9 15 4 25 2 25-5 0-6-9-13-20-16-24-6-25-13-6-38 13-18 15-18 30-2 10 9 23 17 31 17 14 0 85-75 85-90 0-21 19-8 29 20 11 34 30 39 38 10 3-12 14-20 25-20 17 0 19 4 13 27-26 103-57 127-170 130-44 0-86-1-92-4zm148-23c21 0 59-33 59-52 0-7-5-20-10-28-8-12-14-10-38 13-15 15-38 27-49 27-12 0-25 5-28 10-9 15 15 42 32 35 8-3 23-5 34-5z"/>
      <path d="m130 280c0-5 9-14 21-21 17-8 20-17 15-40-5-28 6-40 19-19 3 6 17 10 31 10 21 0 24-5 24-32-1-37-20-68-41-68-8 0-23 13-34 30-24 35-33 40-68 33s-34-19 2-26c36-8 71-43 71-73 0-36 19-39 51-8 35 34 51 84 42 139-8 58-37 85-90 85-24 0-43-4-43-10z"/>
    </g>
  </g>
  <g id="f_src" transform="matrix(.3 0 0 .3 -7.2879 -7.2)">
    <g transform="translate(0 48) scale(.1 -.1)">
      <path d="m278 443c0-5-2-15-2-23-1-9-11-15-26-15-20 0-26-6-28-28-3-22-7-27-20-22-9 4-23 9-29 12-7 3-13-2-13-10 0-9-12-30-26-47-15-17-24-33-21-36 11-11 57 9 63 28 3 11 26 29 52 40 46 21 115 85 106 100-6 10-53 11-56 1z"/>
      <path d="m291 340c-49-45-52-50-30-50 13 0 31-5 39-10 13-9 12-12-5-26-20-15-20-15-1-30 25-18 31-18 46 1 18 22 50 19 50-5 0-21-27-40-58-40-11 0-27-11-36-25-20-30-56-34-56-6 0 10 7 21 15 25 19 7 19 25 0 32-19 8-66-46-59-68 3-10-3-21-16-28-27-15-40-5-40 30 0 16-7 30-16 34-23 9-24 8-24-19 0-18-7-28-25-35-32-12-32-42 0-57 22-10 25-9 25 9 0 15 4 18 18 13 9-5 31-10 49-13 18-2 38-10 44-18 15-18 90-18 115 1 10 8 28 15 40 15s33 14 48 32c21 26 25 39 20 65-4 23 0 42 15 67 15 24 18 37 10 41-6 4-16 2-22-4s-17-11-24-11c-19 0-16 37 4 49 15 8 15 13 5 33-11 20-54 49-71 48-4-1-30-23-60-50zm69-39c0-11-5-23-11-27-15-9-33 12-26 30 9 23 37 20 37-3zm40-151c0-8-72-60-83-60-17 0-4 31 23 54s60 26 60 6zm-124-69c-9-14-33-14-41-1-4 6-1 18 6 26 11 13 14 13 27 0 8-8 11-19 8-25z"/>
      <path d="m177 252c-31-32-34-42-12-42 17 0 55 39 55 57 0 20-14 16-43-15z"/>
    </g>
  </g>
  <g id="g_src" transform="matrix(.3 0 0 .3 -7.2879 -7.2)">
    <g transform="translate(0 48) scale(.1 -.1)">
      <path d="m200 410c0-6 10-14 23-19s29-16 36-25c11-13 9-16-16-21-45-11-53-14-53-24 0-5 14-9 30-9 36 1 55-14 46-37-7-19-40-13-68 13-16 14-18 13-18-4 0-29 35-92 63-114 14-11 37-20 51-20 16 0 26-6 26-15 0-21-31-34-65-27-26 5-28 3-17-10 16-20 71-29 93-15 18 11 49 3 49-13 0-5-7-10-15-10s-15-4-15-10c0-14 36-12 52 3 7 6 20 12 28 12s15 9 15 20c0 14-6 19-17 17s-18 3-18 13c0 8 6 15 14 15 15 0 32 37 22 48-4 3-22-9-40-27-33-32-56-35-56-6 0 8 16 30 35 49 19 20 35 38 35 40 0 3-15 3-32-1-30-6-32-5-20 10 21 24 6 37-44 37-55 0-62 26-9 36 19 3 35 10 35 15s-4 9-9 9c-18 0-21 33-5 51s16 19-10 19c-15 0-35-4-45-10-13-6-24-5-37 5-22 17-44 19-44 5zm124-176c20-8 21-40 2-47-21-8-50 17-43 37 7 17 16 20 41 10zm-64-25c0-5-4-9-10-9-5 0-10 7-10 16 0 8 5 12 10 9 6-3 10-10 10-16z"/>
      <path d="m97 359c-21-11-40-28-43-37s-10-25-15-36c-11-18-3-89 11-116 5-8 21-15 37-15 21 0 28-5 28-20 0-14-6-20-22-19-26 1-31-21-7-30 36-14 123 71 92 90-6 4-14 2-16-4-5-17-32-15-32 2 0 7 9 16 20 19 12 3 20 14 20 26 0 26-6 26-48 1-18-11-39-20-47-20-28 0-15 30 24 54 53 34 59 46 22 46-39 0-39 11-1 43 38 33 26 41-23 16z"/>
    </g>
  </g>
  <g id="h_src" transform="matrix(.3 0 0 .3 -7.2879 -7.2)">
    <g transform="translate(0 48) scale(.1 -.1)">
      <path d="m293 388c3-12 1-30-4-41-10-18-12-17-41 12-22 22-34 29-42 21-5-5-18-10-28-10-14 0-18-8-18-35 0-41-24-49-34-10-5 21-10 24-36 18-19-3-30-1-30 6 0 6-7 11-15 11-12 0-15-19-15-110 0-67 4-110 10-110s10 10 10 23c0 32 15 51 35 43 13-4 15-13 10-36-6-29 6-42 20-20 10 17 25 11 25-10 0-24 31-27 50-6 6 8 15 41 20 73 6 45 5 62-7 75-18 20-13 73 7 73 9 0 17-16 22-45 4-25 11-46 15-48 34-12 37-21 21-55-9-19-14-45-11-62 5-21 0-32-18-46-13-10-18-19-11-19 20 0 48 35 68 85 17 45 17 49 1 77-26 46-23 62 12 55 30-6 30-6 26 46-2 29-4 55-5 60 0 4-10 7-21 7-17 0-20-4-16-22zm-205-97c5-29-13-50-29-34-15 15-3 66 14 60 7-2 14-14 15-26zm90-54c6-29-7-67-22-67-14 0-36 48-36 77 0 22 54 12 58-10z"/>
      <path d="m385 366c-10-15-14-33-9-50 4-17 0-35-10-52-10-13-19-37-21-52s-7-37-11-49c-9-34 13-28 31 7 9 18 23 30 35 30 29 0 25-34-5-54-32-21-34-50-3-40 38 12 57 45 58 97 0 49 0 49-30 42-36-8-39 5-9 46 14 20 17 33 11 45-5 9-7 25-5 35 7 27-14 23-32-5z"/>
      <path d="m150 70c0-13 30-13 50 0 11 7 7 10-17 10-18 0-33-4-33-10z"/>
      <path d="m369 54c-9-11-22-14-47-9-23 4-32 3-27-4 7-12 58-15 69-4 4 4 15 8 23 8 9 0 18 6 20 13 6 17-22 15-38-4z"/>
    </g>
  </g>
  <g id="i_src" transform="matrix(.3 0 0 .3 -7.2879 -7.2)">
    <g transform="translate(0 48) scale(.1 -.1)">
      <path d="m210 397c0-20 78-58 105-51 18 4 31-3 59-33 19-21 36-44 36-50 0-21 20-14 20 6 0 30-56 108-82 115-13 3-42 6-65 6s-45 5-48 10c-9 14-25 12-25-3z"/>
      <path d="m65 351c-20-12-31-27-33-47-4-29-4-29 20-6 13 12 30 22 36 22 29 0 92 26 92 37 0 19-79 15-115-6z"/>
      <path d="m230 292c0-6 16-16 36-22 19-7 38-18 41-26s11-14 19-14 23-5 34-12c45-29 36 19-11 54-28 21-119 36-119 20z"/>
      <path d="m100 283c-27-10-30-28-7-34 22-5 67 16 67 32 0 10-36 11-60 2z"/>
      <path d="m87 213c-4-3-1-13 6-22 8-9 17-25 21-35 6-17 5-17-11-5-10 8-25 23-35 34-9 11-20 17-24 13-4-5 0-16 9-26 10-10 17-24 17-30 0-7 4-12 9-12s12-8 15-17c8-23 69-51 126-58 25-3 57-8 73-10 37-6 35 12-8 58-22 24-43 37-59 37-14 0-30 8-35 18-5 9-28 27-51 40-48 25-45 24-53 15zm116-100c51-18 61-33 24-33-28 0-87 28-87 41s8 12 63-8z"/>
      <path d="m237 191c17-11 34-29 38-41 5-17 12-20 35-15 22 5 31 1 43-15 18-26 32-11 23 25-8 30-79 65-132 65-39 0-39 0-7-19z"/>
    </g>
  </g>
  <g id="j_src" transform="matrix(.3 0 0 .3 -7.2879 -7.2)">
    <g transform="translate(0 48) scale(.1 -.1)">
      <path d="m275 432c6-6 21-12 35-14 17-2 26-10 28-25 4-28-19-30-62-8-15 8-35 15-43 15-23 0-9-24 18-30 14-3 30-19 39-38 13-26 57-62 76-62 10 0 3 23-11 36-24 24-19 54 9 54 27 0 36-16 36-66 0-35 12-42 40-24 12 8 13 13 3 30-7 11-13 29-13 40 0 26-65 90-93 90-12 0-33 3-47 6-17 5-22 3-15-4z"/>
      <path d="m50 245c0-27 27-65 47-65 18 0 16 25-2 40-8 7-15 21-15 31 0 11-7 19-15 19-9 0-15-9-15-25z"/>
      <path d="m90 262c0-5 8-16 19-26 16-14 20-15 30-2 7 8 10 20 6 26-7 12-55 14-55 2z"/>
      <path d="m215 251c-2-5 5-21 16-36 29-36 12-56-26-31-15 10-29 15-32 12-8-8 30-54 55-65 12-6 22-15 22-21 0-17-40-11-62 10-45 42-53 12-9-36 38-42 53-46 96-23 24 13 47 18 64 14 38-8 91 40 91 83 0 46-14 46-44 2-16-24-34-40-46-40-26 0-25 15 1 34 13 9 19 21 16 30-8 20-21 20-37 1-7-8-16-15-21-15s-9 7-9 15 5 15 10 15c22 0 8 28-17 38-52 19-62 21-68 13zm89-132c-7-11-34-12-34-1 0 14 11 21 26 15 8-3 11-9 8-14z"/>
    </g>
  </g>
  <g id="k_src" transform="matrix(.3 0 0 .3 -7.2879 -7.2)">
    <g transform="translate(0 48) scale(.1 -.1)">
      <path d="m223 397c-17-12-47-38-67-58-33-32-35-37-21-49 13-11 18-10 33 4 24 21 58 21 66 0 4-11 13-14 29-10 33 8 51-7 43-38-7-30 13-36 34-11 13 16 40 20 40 6 0-5-7-27-14-49-9-24-11-44-6-47 11-7 40 46 40 73 0 10 5 23 12 30 27 27-48 69-144 79-48 5-58 9-58 25 0 27 43 44 75 30 14-7 33-12 42-12s25-7 35-17c10-9 21-14 24-11 9 9-23 65-41 72-35 13-92 6-122-17z"/>
      <path d="m62 269c-24-16-32-28-32-50 0-33 16-39 25-9 4 11 15 20 26 20 16 0 19-6 17-27-4-38 28-44 42-8 9 23 14 26 38 20 15-3 33-12 40-19 21-20-2-56-34-56-37 0-125-31-131-46-10-26 7-33 39-17 44 23 84 20 112-6 29-27 34-20 42 56 5 45 2 67-11 92-16 31-19 33-58 27-44-6-58-1-73 26-9 16-12 16-42-3z"/>
    </g>
  </g>
  <g id="l_src" transform="matrix(.3 0 0 .3 -7.2879 -7.2)">
    <g transform="translate(0 48) scale(.1 -.1)">
      <path d="m216 394c-10-27-7-34 18-34 29 0 39 12 30 34-8 21-40 21-48 0z"/>
      <path d="m110 302c0-23 28-43 55-40 30 3 30 3-8 26-42 24-47 26-47 14z"/>
      <path d="m280 263c0-8 7-16 15-19 28-11 15-24-25-24-22 0-40-4-40-10 0-5 9-10 20-10s39-5 62-11c35-9 50-8 81 5 48 21 49 41 2 32-27-5-35-4-35 7 0 8 7 17 15 21 31 12 13 22-40 22-39 0-55-4-55-13z"/>
      <path d="m80 245c0-16 78-56 93-48 13 8 7 23-9 23-9 0-27 9-41 20-31 24-43 25-43 5z"/>
      <path d="m178 143c-47-4-63-18-33-29 30-12 15-26-20-20-23 5-35 3-35-4 0-16 63-40 104-40 42 0 106 28 106 47 0 15-26 18-35 3-3-5-18-10-32-10-26 0-26 0-5 23 25 26 28 38 10 35-7-1-34-3-60-5z"/>
    </g>
  </g>
</defs>
<g font-family="Noto Sans" font-size="3" text-anchor="middle">
  <text x="15" y="5">casing</text>
  <text x="30" y="5">outline</text>
  <text x="60" y="5">casing</text>
  <text x="75" y="5">outline</text>
  <text x="5" y="15">a</text>
  <text x="5" y="30">b</text>
  <text x="5" y="45">c</text>
  <text x="5" y="60">d</text>
  <text x="5" y="75">e</text>
  <text x="5" y="90">f</text>
  <text x="50" y="15">g</text>
  <text x="50" y="30">h</text>
  <text x="50" y="45">i</text>
  <text x="50" y="60">j</text>
  <text x="50" y="75">k</text>
  <text x="50" y="90">l</text>
</g>
<g>
  <use xlink:href="#a_src" x="15" y="15" stroke="#eee5dc" stroke-width="40"/>
  <use xlink:href="#a_src" x="15" y="15" fill="#cfcdca"/>
  <use xlink:href="#b_src" x="15" y="30" stroke="#eee5dc" stroke-width="40"/>
  <use xlink:href="#b_src" x="15" y="30" fill="#cfcdca"/>
  <use xlink:href="#c_src" x="15" y="45" stroke="#eee5dc" stroke-width="40"/>
  <use xlink:href="#c_src" x="15" y="45" fill="#cfcdca"/>
  <use xlink:href="#d_src" x="15" y="60" stroke="#eee5dc" stroke-width="40"/>
  <use xlink:href="#d_src" x="15" y="60" fill="#cfcdca"/>
  <use xlink:href="#e_src" x="15" y="75" stroke="#eee5dc" stroke-width="40"/>
  <use xlink:href="#e_src" x="15" y="75" fill="#cfcdca"/>
  <use xlink:href="#f_src" x="15" y="90" stroke="#eee5dc" stroke-width="40"/>
  <use xlink:href="#f_src" x="15" y="90" fill="#cfcdca"/>
  <use xlink:href="#g_src" x="60" y="15" stroke="#eee5dc" stroke-width="40"/>
  <use xlink:href="#g_src" x="60" y="15" fill="#cfcdca"/>
  <use xlink:href="#h_src" x="60" y="30" stroke="#eee5dc" stroke-width="40"/>
  <use xlink:href="#h_src" x="60" y="30" fill="#cfcdca"/>
  <use xlink:href="#i_src" x="60" y="45" stroke="#eee5dc" stroke-width="40"/>
  <use xlink:href="#i_src" x="60" y="45" fill="#cfcdca"/>
  <use xlink:href="#j_src" x="60" y="60" stroke="#eee5dc" stroke-width="40"/>
  <use xlink:href="#j_src" x="60" y="60" fill="#cfcdca"/>
  <use xlink:href="#k_src" x="60" y="75" stroke="#eee5dc" stroke-width="40"/>
  <use xlink:href="#k_src" x="60" y="75" fill="#cfcdca"/>
  <use xlink:href="#l_src" x="60" y="90" stroke="#eee5dc" stroke-width="40"/>
  <use xlink:href="#l_src" x="60" y="90" fill="#cfcdca"/>
</g>
<g fill="#cfcdca" stroke="#eee5dc" stroke-linejoin="round" stroke-width=".6">
  <use xlink:href="#a" x="30" y="15"/>
  <use xlink:href="#b" x="30" y="30"/>
  <use xlink:href="#c" x="30" y="45"/>
  <use xlink:href="#d" x="30" y="60"/>
  <use xlink:href="#e" x="30" y="75"/>
  <use xlink:href="#f" x="30" y="90"/>
  <use xlink:href="#g" x="75" y="15"/>
  <use xlink:href="#h" x="75" y="30"/>
  <use xlink:href="#i" x="75" y="45"/>
  <use xlink:href="#j" x="75" y="60"/>
  <use xlink:href="#k" x="75" y="75"/>
  <use xlink:href="#l" x="75" y="90"/>
</g>
</svg>
