<?xml version="1.0" encoding="UTF-8"?>
<svg xmlns="http://www.w3.org/2000/svg" xmlns:xlink="http://www.w3.org/1999/xlink" width="800" height="400" viewBox="0 0 80 40">
<defs>
  <g id="grid">
    <path d="m-10,-10 v20 m1,0 v-20 m1,0 v20 m1,0 v-20 m1,0 v20 m1,0 v-20 m1,0 v20 m1,0 v-20 m1,0 v20 m1,0 v-20 m1,0 v20 m1,0 v-20 m1,0 v20 m1,0 v-20 m1,0 v20 m1,0 v-20 m1,0 v20 m1,0 v-20 m1,0 v20 m1,0 v-20 m1,0 v20" stroke-width=".05" stroke="#ccc" fill="none"/>
    <path d="m-10,-10 h20 m0,1 h-20 m0,1 h20 m0,1 h-20 m0,1 h20 m0,1 h-20 m0,1 h20 m0,1 h-20 m0,1 h20 m0,1 h-20 m0,1 h20 m0,1 h-20 m0,1 h20 m0,1 h-20 m0,1 h20 m0,1 h-20 m0,1 h20 m0,1 h-20 m0,1 h20 m0,1 h-20 m0,1 h20" stroke-width=".05" stroke="#ccc" fill="none"/>
    <path d="m0,-10 v20 m-10,-10 h20" stroke-width=".1" stroke="blue" fill="none"/>
  </g>
</defs>
<g id="bog" transform="translate(10,10)">
  <path d="m-3.5,2.25 h7.5 v0.75 h-7.5 z m1,1.75 h7.5 v0.75 h-7.5 z m-2.25,-5.25 c0,.25 .25,.5 .5,1 .23629,.7 .22479,-.01 .25,1.75 .75,-.25 1,-.25 1.25,-.25 0,-1.25 -.5,-1.75 -1,-2.25 -.5,-.25 -.5,-.25 -1,-.25 z m2.25,-2.5 c-0.125,0 0,.5 .25,1.75 .25,1.75 .25,1.5 0,3.25 .5,0 1,-.25 1.5,-.25 0,-1.5 -.25,-1.75 -.75,-3.5 -.25,-1 -.875,-1.25 -1,-1.25 z m4.25,.75 c-0.25,0 -.5,0 -1,.5 -.75,1 -.75,1.5 -1,3.5 .5,0 1,.25 1.5,.25 -.0005,-1.6198 0,-3 .5,-4.25 z m2,2 c0,.25 -.25,.25 -.5,.75 -.25,1 -.25,.75 -.25,1.75 -.75,-.25 -1,-.25 -1.25,-.23 .011,-1.59 .75,-1.77 1,-2.02 .5,-.25 .5,-.25 1,-.25 z" stroke="#aaa" stroke-width="4" stroke-linejoin="round"/>
  <path d="m-3.5,2.25 h7.5 v0.75 h-7.5 z m1,1.75 h7.5 v0.75 h-7.5 z m-2.25,-5.25 c0,.25 .25,.5 .5,1 .23629,.7 .22479,-.01 .25,1.75 .75,-.25 1,-.25 1.25,-.25 0,-1.25 -.5,-1.75 -1,-2.25 -.5,-.25 -.5,-.25 -1,-.25 z m2.25,-2.5 c-0.125,0 0,.5 .25,1.75 .25,1.75 .25,1.5 0,3.25 .5,0 1,-.25 1.5,-.25 0,-1.5 -.25,-1.75 -.75,-3.5 -.25,-1 -.875,-1.25 -1,-1.25 z m4.25,.75 c-0.25,0 -.5,0 -1,.5 -.75,1 -.75,1.5 -1,3.5 .5,0 1,.25 1.5,.25 -.0005,-1.6198 0,-3 .5,-4.25 z m2,2 c0,.25 -.25,.25 -.5,.75 -.25,1 -.25,.75 -.25,1.75 -.75,-.25 -1,-.25 -1.25,-.23 .011,-1.59 .75,-1.77 1,-2.02 .5,-.25 .5,-.25 1,-.25 z"/>
  <use xlink:href="#grid"/>
  <path d="m-2,-6 v1 h5 v1 h1 v1 h1 v1 h1 v2 h-1 v1 h1 v2 h1 v3 h-1 v1 h-9 v-1 h-1 v-1 h-1 v-2 h-1 v-3 h-1 v-2 h1 v-1 h1 v-1 h1 v-1 h1 v-1 z" stroke="black" stroke-width=".15" fill="none"/>
</g>
<g id="mangrove" transform="translate(10,30)">
  <path d="m0,-6 c-2.2091,0 -4,1.7909 -4,4 0,1.0247 .39777,1.9241 1.0312,2.625 l0.5625,-.5 c-0.51563,-.5771 -.84375,-1.3469 -.84375,-2.375 0,-1.7949 1.4551,-3 3.25,-3 1.25,0 2.75,1.4551 2.75,3.25 0,.8715 -.25039,1.6242 -.71875,2.1875 l0.65625,.75 c0.80063,-.7244 1.3125,-1.7688 1.3125,-2.9375 0,-2.2091 -1.7909,-4 -4,-4 z m-1.25,5.5 c-0.25,2.25 -.75,3.25 -1.5,4.5 h-1.25 c1.5,-1.5 2.25,-3.25 2.75,-4.5 z m1.25,0 c0,2.25 .5,3.75 0,5 h-1.25 c1,-1.5 .5,-3.5 1.25,-5 z m0.75,0 c0.75,2 1.5,3 2.5,4.5 h-1.5 c-0.25,-1 -1.5,-3.25 -1,-4.5 z" stroke="#aaa" stroke-width="4" stroke-linejoin="round"/>
  <path d="m0,-6 c-2.2091,0 -4,1.7909 -4,4 0,1.0247 .39777,1.9241 1.0312,2.625 l0.5625,-.5 c-0.51563,-.5771 -.84375,-1.3469 -.84375,-2.375 0,-1.7949 1.4551,-3 3.25,-3 1.25,0 2.75,1.4551 2.75,3.25 0,.8715 -.25039,1.6242 -.71875,2.1875 l0.65625,.75 c0.80063,-.7244 1.3125,-1.7688 1.3125,-2.9375 0,-2.2091 -1.7909,-4 -4,-4 z m-1.25,5.5 c-0.25,2.25 -.75,3.25 -1.5,4.5 h-1.25 c1.5,-1.5 2.25,-3.25 2.75,-4.5 z m1.25,0 c0,2.25 .5,3.75 0,5 h-1.25 c1,-1.5 .5,-3.5 1.25,-5 z m0.75,0 c0.75,2 1.5,3 2.5,4.5 h-1.5 c-0.25,-1 -1.5,-3.25 -1,-4.5 z"/>
  <use xlink:href="#grid"/>
  <path d="m2,-8 v1 h2 v1 h1 v2 h1 v4 h-1 v5 h-1 v1 h-9 v-1 h-1 v-2 h1 v-3 h-1 v-4 h1 v-2 h1 v-1 h2 v-1 z" stroke="black" stroke-width=".15" fill="none"/>
</g>
<g id="marsh1" transform="translate(30,10)">
  <path d="m3.75,-1.25 c0,.25 -.25,1.25 -.5,2.5 s-.25,1.75 0,3.25 c-.25,0 -.8662,-.17 -1.25,-.25 .5,-.5 -.25,-1.5 .75,-4 .25,-.75 .25,-1 1,-1.5 z m-8.5,.75 c0,.25 .25,.5 .5,1.25 .25,2 .22479,1.99 .25,3.75 .5,-.25 .8662,-.17 1.25,-.25 0,-1.25 0,-3.25 -1.25,-4.25 -.25,-.25 -.25,-.25 -.75,-.5 z m6.25,-1.75 c-.25,0 -.5,.25 -.75,.75 -.75,2 -.5,4.25 -.75,5.5 .5,0 1,.25 1.5,.25 -.5,-1 -.25,-1.5 -.25,-4.75 0,-1 0,-.75 .25,-1.75 z m-4,-1 c0,.75 0,1 .25,2.25 0,1 .75,3.75 0,5.25 .5,0 1,-.25 1.5,-.25 .25,-2.5 -.25,-4 -1,-6 -.25,-.75 -.25,-1 -.75,-1.25 z" stroke="#aaa" stroke-width="4" stroke-linejoin="round"/>
  <path d="m3.75,-1.25 c0,.25 -.25,1.25 -.5,2.5 s-.25,1.75 0,3.25 c-.25,0 -.8662,-.17 -1.25,-.25 .5,-.5 -.25,-1.5 .75,-4 .25,-.75 .25,-1 1,-1.5 z m-8.5,.75 c0,.25 .25,.5 .5,1.25 .25,2 .22479,1.99 .25,3.75 .5,-.25 .8662,-.17 1.25,-.25 0,-1.25 0,-3.25 -1.25,-4.25 -.25,-.25 -.25,-.25 -.75,-.5 z m6.25,-1.75 c-.25,0 -.5,.25 -.75,.75 -.75,2 -.5,4.25 -.75,5.5 .5,0 1,.25 1.5,.25 -.5,-1 -.25,-1.5 -.25,-4.75 0,-1 0,-.75 .25,-1.75 z m-4,-1 c0,.75 0,1 .25,2.25 0,1 .75,3.75 0,5.25 .5,0 1,-.25 1.5,-.25 .25,-2.5 -.25,-4 -1,-6 -.25,-.75 -.25,-1 -.75,-1.25 z"/>
  <use xlink:href="#grid"/>
  <path d="m-1,-5 v1 h4 v1 h2 v1 h1 v2 h-1 v6 h-10 v-1 h-1 v-5 h-1 v-1 h1 v-1 h1 v-1 h1 v-2 z" stroke="black" stroke-width=".15" fill="none"/>
</g>
<g id="marsh2" transform="translate(30,30)">
  <path d="m-4.5,-1.25 c0,.25 .25,1.25 .5,2.5 s.25,1.75 0,3.25 c.25,0 .8662,-.17 1.25,-.25 -.5,-.5 .25,-1.5 -.75,-4 -.25,-.75 -.25,-1 -1,-1.5 z m8.5,.75 c0,.25 -.25,.5 -.5,1.25 -.25,2 -.22479,1.99 -.25,3.75 -.5,-.25 -.8662,-.17 -1.25,-.25 0,-1.25 0,-3.25 1.25,-4.25 .25,-.25 .25,-.25 .75,-.5 z m-6.25,-1.75 c.25,0 .5,.25 .75,.75 .75,2 .5,4.25 .75,5.5 -.5,0 -1,.25 -1.5,.25 .5,-1 .25,-1.5 .25,-4.75 0,-1 0,-.75 -.25,-1.75 z m4,-1 c0,.75 0,1 -.25,2.25 0,1 -.75,3.75 0,5.25 -.5,0 -1,-.25 -1.5,-.25 -.25,-2.5 .25,-4 1,-6 .25,-.75 .25,-1 .75,-1.25 z" stroke="#aaa" stroke-width="4" stroke-linejoin="round"/>
  <path d="m-4.5,-1.25 c0,.25 .25,1.25 .5,2.5 s.25,1.75 0,3.25 c.25,0 .8662,-.17 1.25,-.25 -.5,-.5 .25,-1.5 -.75,-4 -.25,-.75 -.25,-1 -1,-1.5 z m8.5,.75 c0,.25 -.25,.5 -.5,1.25 -.25,2 -.22479,1.99 -.25,3.75 -.5,-.25 -.8662,-.17 -1.25,-.25 0,-1.25 0,-3.25 1.25,-4.25 .25,-.25 .25,-.25 .75,-.5 z m-6.25,-1.75 c.25,0 .5,.25 .75,.75 .75,2 .5,4.25 .75,5.5 -.5,0 -1,.25 -1.5,.25 .5,-1 .25,-1.5 .25,-4.75 0,-1 0,-.75 -.25,-1.75 z m4,-1 c0,.75 0,1 -.25,2.25 0,1 -.75,3.75 0,5.25 -.5,0 -1,-.25 -1.5,-.25 -.25,-2.5 .25,-4 1,-6 .25,-.75 .25,-1 .75,-1.25 z"/>
  <use xlink:href="#grid"/>
  <path d="m3,-5 v1 h1 v2 h1 v1 h1 v2 h-1 v5 h-11 v-9 h2 v-1 h4 v-1 z" stroke="black" stroke-width=".15" fill="none"/>
</g>
<g id="reed1" transform="translate(50,10)">
  <path d="m-2.5,-7 c-.25,0 -.75,.75 -1,1.25 0,.5 .77771,1.6666 1,2 .12087,.30218 .19913,.57882 .25,.84375 -.13737,-.13509 -.29688,-.24219 -.5,-.34375 0,.75 .25,1 .5,2.25 0,1 .75,3.75 0,5.25 .5,0 1,-.25 1.5,-.25 .25,-2.5 -.25,-4 -1,-6 -.0625,-.1875 -.12109,-.33594 -.1875,-.46875 -.00703,-.01406 -.02413,-.0177 -.03125,-.03125 -.04385,-.41161 -.10086,-.86865 -.28125,-1.5 -.13348,-.5339 .75,-1.5 .75,-2 -.25,-.5 -.75,-1 -1,-1 z m3.75,.75 c-.25,0 -1,.75 -1,1.25 0,.25 .5,1 .5,1.5 0,.60436 -.37509,2.0397 -.3125,3.0625 .0006,.01 -.00068,.021 0,.031 -.35997,1.6812 -.23245,3.3813 -.4375,4.4065 .5,0 1,.25 1.5,.25 -.5,-1 -.25,-1.5 -.25,-4.75 0,-1 0,-.75 .25,-1.75 -.25,0 -.5,.25 -.75,.75 .10434,-.87712 .34222,-1.842 .5,-2 .5,-.5 1,-1 1,-1.5 s-.75,-1.25 -1,-1.25 z m-6,5.75 c0,.25 .25,.5 .5,1.25 .25,2 .22479,1.99 .25,3.75 .5,-.25 .8662,-.17 1.25,-.25 0,-1.25 0,-3.25 -1.25,-4.25 -.25,-.25 -.25,-.25 -.75,-.5z m8.5,-.75 c0,.25 -.25,1.25 -.5,2.5 s-.25,1.75 0,3.25 c-.25,0 -.8662,-.17 -1.25,-.25 .5,-.5 -.25,-1.5 .75,-4 .25,-.75 .25,-1 1,-1.5 z" stroke="#aaa" stroke-width="4" stroke-linejoin="round"/>
  <path d="m-2.5,-7 c-.25,0 -.75,.75 -1,1.25 0,.5 .77771,1.6666 1,2 .12087,.30218 .19913,.57882 .25,.84375 -.13737,-.13509 -.29688,-.24219 -.5,-.34375 0,.75 .25,1 .5,2.25 0,1 .75,3.75 0,5.25 .5,0 1,-.25 1.5,-.25 .25,-2.5 -.25,-4 -1,-6 -.0625,-.1875 -.12109,-.33594 -.1875,-.46875 -.00703,-.01406 -.02413,-.0177 -.03125,-.03125 -.04385,-.41161 -.10086,-.86865 -.28125,-1.5 -.13348,-.5339 .75,-1.5 .75,-2 -.25,-.5 -.75,-1 -1,-1 z m3.75,.75 c-.25,0 -1,.75 -1,1.25 0,.25 .5,1 .5,1.5 0,.60436 -.37509,2.0397 -.3125,3.0625 .0006,.01 -.00068,.021 0,.031 -.35997,1.6812 -.23245,3.3813 -.4375,4.4065 .5,0 1,.25 1.5,.25 -.5,-1 -.25,-1.5 -.25,-4.75 0,-1 0,-.75 .25,-1.75 -.25,0 -.5,.25 -.75,.75 .10434,-.87712 .34222,-1.842 .5,-2 .5,-.5 1,-1 1,-1.5 s-.75,-1.25 -1,-1.25 z m-6,5.75 c0,.25 .25,.5 .5,1.25 .25,2 .22479,1.99 .25,3.75 .5,-.25 .8662,-.17 1.25,-.25 0,-1.25 0,-3.25 -1.25,-4.25 -.25,-.25 -.25,-.25 -.75,-.5z m8.5,-.75 c0,.25 -.25,1.25 -.5,2.5 s-.25,1.75 0,3.25 c-.25,0 -.8662,-.17 -1.25,-.25 .5,-.5 -.25,-1.5 .75,-4 .25,-.75 .25,-1 1,-1.5 z"/>
  <use xlink:href="#grid"/>
  <path d="m-1,-9 v1 h4 v1 h1 v4 h1 v1 h1 v2 h-1 v6 h-11 v-6 h-1 v-1 h1 v-1 h1 v-6 h1 v-1 z" stroke="black" stroke-width=".15" fill="none"/>
</g>
<g id="reed2" transform="translate(50,30)">
  <path d="m1.5,-7 c.25,0 .75,.75 1,1.25 0,.5 -.77771,1.6666 -1,2 -.12087,.30218 -.19913,.57882 -.25,.84375 .13737,-.13509 .29688,-.24219 .5,-.34375 0,.75 -.25,1 -.5,2.25 0,1 -.75,3.75 0,5.25 -.5,0 -1,-.25 -1.5,-.25 -.25,-2.5 .25,-4 1,-6 .0625,-.1875 .12109,-.33594 .1875,-.46875 .00703,-.01406 .02413,-.0177 .03125,-.03125 .04385,-.41161 .10086,-.86865 .28125,-1.5 .13348,-.5339 -.75,-1.5 -.75,-2 .25,-.5 .75,-1 1,-1 z m-3.75,.75 c.25,0 1,.75 1,1.25 0,.25 -.5,1 -.5,1.5 0,.60436 .37509,2.0397 .3125,3.0625 .0006,.01 .00068,.021 0,.031 .35997,1.6812 .23245,3.3813 .4375,4.4065 -.5,0 -1,.25 -1.5,.25 .5,-1 .25,-1.5 .25,-4.75 0,-1 0,-.75 -.25,-1.75 .25,0 .5,.25 .75,.75 -.10434,-.87712 -.34222,-1.842 -.5,-2 -.5,-.5 -1,-1 -1,-1.5 s.75,-1.25 1,-1.25 z m6,5.75 c0,.25 -.25,.5 -.5,1.25 -.25,2 -.22479,1.99 -.25,3.75 -.5,-.25 -.8662,-.17 -1.25,-.25 0,-1.25 0,-3.25 1.25,-4.25 .25,-.25 .25,-.25 .75,-.5 z m-8.5,-.75 c0,.25 .25,1.25 .5,2.5 s.25,1.75 0,3.25 c.25,0 .8662,-.17 1.25,-.25 -.5,-.5 .25,-1.5 -.75,-4 -.25,-.75 -.25,-1 -1,-1.5 z" stroke="#aaa" stroke-width="4" stroke-linejoin="round"/>
  <path d="m1.5,-7 c.25,0 .75,.75 1,1.25 0,.5 -.77771,1.6666 -1,2 -.12087,.30218 -.19913,.57882 -.25,.84375 .13737,-.13509 .29688,-.24219 .5,-.34375 0,.75 -.25,1 -.5,2.25 0,1 -.75,3.75 0,5.25 -.5,0 -1,-.25 -1.5,-.25 -.25,-2.5 .25,-4 1,-6 .0625,-.1875 .12109,-.33594 .1875,-.46875 .00703,-.01406 .02413,-.0177 .03125,-.03125 .04385,-.41161 .10086,-.86865 .28125,-1.5 .13348,-.5339 -.75,-1.5 -.75,-2 .25,-.5 .75,-1 1,-1 z m-3.75,.75 c.25,0 1,.75 1,1.25 0,.25 -.5,1 -.5,1.5 0,.60436 .37509,2.0397 .3125,3.0625 .0006,.01 .00068,.021 0,.031 .35997,1.6812 .23245,3.3813 .4375,4.4065 -.5,0 -1,.25 -1.5,.25 .5,-1 .25,-1.5 .25,-4.75 0,-1 0,-.75 -.25,-1.75 .25,0 .5,.25 .75,.75 -.10434,-.87712 -.34222,-1.842 -.5,-2 -.5,-.5 -1,-1 -1,-1.5 s.75,-1.25 1,-1.25 z m6,5.75 c0,.25 -.25,.5 -.5,1.25 -.25,2 -.22479,1.99 -.25,3.75 -.5,-.25 -.8662,-.17 -1.25,-.25 0,-1.25 0,-3.25 1.25,-4.25 .25,-.25 .25,-.25 .75,-.5 z m-8.5,-.75 c0,.25 .25,1.25 .5,2.5 s.25,1.75 0,3.25 c.25,0 .8662,-.17 1.25,-.25 -.5,-.5 .25,-1.5 -.75,-4 -.25,-.75 -.25,-1 -1,-1.5 z"/>
  <use xlink:href="#grid"/>
  <path d="m0,-9 v1 h-4 v1 h-1 v4 h-1 v1 h-1 v2 h1 v6 h11 v-6 h1 v-1 h-1 v-1 h-1 v-6 h-1 v-1 z" stroke="black" stroke-width=".15" fill="none"/>
</g>
<g id="swamp1" transform="translate(70,10)">
  <path d="m-2.5,5 v-3.5 m-2,0 v-.4189 l1.8604,-5.5811 h.2792 l1.8604,5.5811 v.4189 z m7,3.5 v-4.5 a2,2.5 0 0 1 0,-5 2,2.5 0 0 1 0,5" stroke="#aaa" stroke-width="5" stroke-linejoin="round" stroke-linecap="round"/>
  <path d="m-2.5,5 v-3.5 m-2,0 v-.4189 l1.8604,-5.5811 h.2792 l1.8604,5.5811 v.4189 z m7,3.5 v-4.5 a2,2.5 0 0 1 0,-5 2,2.5 0 0 1 0,5" stroke-width="1" stroke="black" fill="none"/>
  <use xlink:href="#grid"/>
  <path d="m4,-7 v1 h2 v2 h1 v4 h-1 v2 h-1 v4 h-1 v1 h-8 v-1 h-1 v-2 h-1 v-1 h-1 v-4 h1 v-3 h1 v-2 h1 v-1 z" stroke="black" stroke-width=".15" fill="none"/>
</g>
<g id="swamp2" transform="translate(70,30)">
  <path d="m2.5,5 v-3.5 m-2,0 v-.4189 l1.8604,-5.5811 h.2792 l1.8604,5.5811 v.4189 z m-3,3.5 v-4.5 a2,2.5 0 0 1 0,-5 2,2.5 0 0 1 0,5" stroke="#aaa" stroke-width="5" stroke-linejoin="round" stroke-linecap="round"/>
  <path d="m2.5,5 v-3.5 m-2,0 v-.4189 l1.8604,-5.5811 h.2792 l1.8604,5.5811 v.4189 z m-3,3.5 v-4.5 a2,2.5 0 0 1 0,-5 2,2.5 0 0 1 0,5" stroke-width="1" stroke="black" fill="none"/>
  <use xlink:href="#grid"/>
  <path d="m-4,-7 v1 h-2 v2 h-1 v4 h1 v2 h1 v4 h1 v1 h8 v-1 h1 v-2 h1 v-1 h1 v-4 h-1 v-3 h-1 v-2 h-1 v-1 z" stroke="black" stroke-width=".15" fill="none"/>
</g>
</svg>
