<?xml version="1.0" encoding="UTF-8" standalone="no"?>
<svg
   xmlns:dc="http://purl.org/dc/elements/1.1/"
   xmlns:cc="http://creativecommons.org/ns#"
   xmlns:rdf="http://www.w3.org/1999/02/22-rdf-syntax-ns#"
   xmlns:svg="http://www.w3.org/2000/svg"
   xmlns="http://www.w3.org/2000/svg"
   viewBox="0 0 14 14"
   height="14"
   width="14"
   id="svg109"
   version="1.1">
  <metadata
     id="metadata115">
    <rdf:RDF>
      <cc:Work
         rdf:about="">
        <dc:format>image/svg+xml</dc:format>
        <dc:type
           rdf:resource="http://purl.org/dc/dcmitype/StillImage" />
        <dc:title></dc:title>
      </cc:Work>
    </rdf:RDF>
  </metadata>
  <defs
     id="defs113" />
  <path
     id="rect4517"
     d="M 7 0 L 3 3 L 3 14 L 4 14 L 4 6 A 3 3 0 0 1 7 3 A 3 3 0 0 1 10 6 L 10 14 L 11 14 L 11 3 L 7 0 z M 6.6425781 4.5 C 5.1713456 5.5990112 5.6263833 6.1171551 5.125 8.0292969 C 5.0267045 8.1297436 4.5 8.4517303 4.5 8.7597656 L 4.5 9 L 9.5 9 L 9.5 8.7597656 C 9.5065855 8.4517303 8.9283731 8.1297433 8.8300781 8.0292969 C 8.3366263 6.1474042 8.7614816 5.3429388 7.3574219 4.5 L 6.6425781 4.5 z M 7 9.75 A 0.75 0.75 0 0 0 6.25 10.5 A 0.75 0.75 0 0 0 7 11.25 A 0.75 0.75 0 0 0 7.75 10.5 A 0.75 0.75 0 0 0 7 9.75 z "
     style="opacity:1;fill:#000000;fill-opacity:1;fill-rule:evenodd;stroke:none;stroke-width:1.68416572;stroke-linecap:square;stroke-linejoin:miter;stroke-miterlimit:4;stroke-dasharray:none;stroke-opacity:1;paint-order:stroke fill markers" />
</svg>
