<?xml version="1.0" encoding="UTF-8" standalone="no"?>
<svg
   xmlns:osb="http://www.openswatchbook.org/uri/2009/osb"
   xmlns:dc="http://purl.org/dc/elements/1.1/"
   xmlns:cc="http://creativecommons.org/ns#"
   xmlns:rdf="http://www.w3.org/1999/02/22-rdf-syntax-ns#"
   xmlns:svg="http://www.w3.org/2000/svg"
   xmlns="http://www.w3.org/2000/svg"
   viewBox="0 0 14 14"
   height="14"
   width="14"
   id="svg109"
   version="1.1">
  <metadata
     id="metadata115">
    <rdf:RDF>
      <cc:Work
         rdf:about="">
        <dc:format>image/svg+xml</dc:format>
        <dc:type
           rdf:resource="http://purl.org/dc/dcmitype/StillImage" />
        <dc:title></dc:title>
      </cc:Work>
    </rdf:RDF>
  </metadata>
  <defs
     id="defs113">
    <linearGradient
       osb:paint="solid"
       id="linearGradient831">
      <stop
         id="stop829"
         offset="0"
         style="stop-color:#ffffff;stop-opacity:1;" />
    </linearGradient>
  </defs>
  <path
     id="rect837-8"
     d="M 1,0 C 0.446,0 0,0.446 0,1 0,2 0,3 0,4 h 1 v 10 h 1 v -3 l 3,3 H 6 V 4 h 5 V 9 H 9 v 2 h 5 V 9 H 12 V 4 h 2 L 13,2 H 6 L 5,0 C 3.6666667,0 2.3333333,0 1,0 Z M 1,1 C 2.3333333,1 3.6666667,1 5,1 L 5.5,2 H 1 Z M 2,4 H 5 V 7 Z M 2,5 4.5,7.5 2,10 Z m 3,3 v 5 L 2.5,10.5 Z"
     style="opacity:1;fill:#000000;fill-opacity:1;stroke:none;stroke-width:2.73861289;stroke-linecap:butt;stroke-linejoin:round;stroke-miterlimit:4;stroke-dasharray:none;stroke-opacity:1;paint-order:stroke fill markers" />
</svg>
