<?xml version="1.0" encoding="UTF-8" standalone="no"?>
<!DOCTYPE svg PUBLIC "-//W3C//DTD SVG 1.1//EN" "http://www.w3.org/Graphics/SVG/1.1/DTD/svg11.dtd">
<svg version="1.1" xmlns="http://www.w3.org/2000/svg" xmlns:xlink="http://www.w3.org/1999/xlink" preserveAspectRatio="xMidYMid meet" viewBox="0 0 7 7" width="7" height="7"><defs><path d="M7 0C7 0 7 0 7 0C7 4.2 7 6.53 7 7C7 7 7 7 7 7C2.8 7 0.47 7 0 7C0 7 0 7 0 7C0 2.8 0 0.47 0 0C0 0 0 0 0 0C4.2 0 6.53 0 7 0Z" id="e12fQn3hvD"/><path d="M3.5 1C2.12 1 1 2.12 1 3.5C1 4.88 2.12 6 3.5 6C4.88 6 6 4.88 6 3.5C6 2.12 4.88 1 3.5 1Z" id="b3U9wlxCyH"/><path d="M0.63 1L6 6.38L6.38 6L1 0.63L0.63 1Z" id="a1kVXTm9Kq"/><path d="M6 0.63L0.63 6L1 6.38L6.38 1L6 0.63Z" id="bOURCvhDz"/></defs><g><g><use xlink:href="#e12fQn3hvD" opacity="1" fill="#000000" fill-opacity="1"/><g><use xlink:href="#e12fQn3hvD" opacity="1" fill-opacity="0" stroke="#000000" stroke-width="1" stroke-opacity="0"/></g></g><g><use xlink:href="#b3U9wlxCyH" opacity="1" fill="#ffffff" fill-opacity="1"/><g><use xlink:href="#b3U9wlxCyH" opacity="1" fill-opacity="0" stroke="#000000" stroke-width="1" stroke-opacity="0"/></g></g><g><use xlink:href="#a1kVXTm9Kq" opacity="1" fill="#000000" fill-opacity="1"/><g><use xlink:href="#a1kVXTm9Kq" opacity="1" fill-opacity="0" stroke="#000000" stroke-width="1" stroke-opacity="0"/></g></g><g><use xlink:href="#bOURCvhDz" opacity="1" fill="#000000" fill-opacity="1"/><g><use xlink:href="#bOURCvhDz" opacity="1" fill-opacity="0" stroke="#000000" stroke-width="1" stroke-opacity="0"/></g></g></g></svg>