<?xml version="1.0" encoding="UTF-8" standalone="no"?>
<svg
   xmlns:dc="http://purl.org/dc/elements/1.1/"
   xmlns:cc="http://creativecommons.org/ns#"
   xmlns:rdf="http://www.w3.org/1999/02/22-rdf-syntax-ns#"
   xmlns:svg="http://www.w3.org/2000/svg"
   xmlns="http://www.w3.org/2000/svg"
   viewBox="0 0 14 14"
   height="14"
   width="14"
   id="svg109"
   version="1.1">
  <metadata
     id="metadata115">
    <rdf:RDF>
      <cc:Work
         rdf:about="">
        <dc:format>image/svg+xml</dc:format>
        <dc:type
           rdf:resource="http://purl.org/dc/dcmitype/StillImage" />
        <dc:title></dc:title>
      </cc:Work>
    </rdf:RDF>
  </metadata>
  <defs
     id="defs113" />
  <path
     id="path4541"
     d="M 4.0507812 0 C 1.5789894 2.539636 1.5789894 6.6576312 4.0507812 9.1972656 C 6.5225734 11.736904 10.528207 11.736904 13 9.1972656 C 12.343388 8.5209988 12.562756 8.7485174 12.095703 8.2675781 L 12.447266 1.8925781 A 1 1 0 0 0 13 1 A 1 1 0 0 0 12 0 A 1 1 0 0 0 11.103516 0.55859375 L 4.9648438 0.93945312 C 4.513421 0.47588035 4.6907678 0.6575524 4.0507812 0 z M 10.777344 1.5722656 L 8.1425781 4.2070312 C 7.8109554 3.8671766 6.6384106 2.6582437 5.8808594 1.8808594 L 10.777344 1.5722656 z M 11.429688 2.3339844 L 11.152344 7.296875 C 10.349853 6.4708947 9.1820827 5.2709305 8.8417969 4.921875 L 11.429688 2.3339844 z M 3.2832031 10.142578 L 1 14 L 10 14 L 10 12.228516 C 7.7228562 12.609275 5.0575401 11.916032 3.2832031 10.142578 z "
     style="stroke-width:1.26671076" />
</svg>
