<?xml version="1.0" encoding="UTF-8" standalone="no"?>
<svg
   xmlns:osb="http://www.openswatchbook.org/uri/2009/osb"
   xmlns:dc="http://purl.org/dc/elements/1.1/"
   xmlns:cc="http://creativecommons.org/ns#"
   xmlns:rdf="http://www.w3.org/1999/02/22-rdf-syntax-ns#"
   xmlns:svg="http://www.w3.org/2000/svg"
   xmlns="http://www.w3.org/2000/svg"
   viewBox="0 0 14 14"
   height="14"
   width="14"
   id="svg109"
   version="1.1">
  <metadata
     id="metadata115">
    <rdf:RDF>
      <cc:Work
         rdf:about="">
        <dc:format>image/svg+xml</dc:format>
        <dc:type
           rdf:resource="http://purl.org/dc/dcmitype/StillImage" />
        <dc:title></dc:title>
      </cc:Work>
    </rdf:RDF>
  </metadata>
  <defs
     id="defs113">
    <linearGradient
       osb:paint="solid"
       id="linearGradient831">
      <stop
         id="stop829"
         offset="0"
         style="stop-color:#ffffff;stop-opacity:1;" />
    </linearGradient>
  </defs>
  <path
     id="path837"
     d="M 6 0 L 6 1 L 7 1 A 6 6 0 0 1 13 7 L 13 8 L 14 8 L 14 7 A 7 7 0 0 0 12.599609 2.8144531 L 14 1.4140625 L 12.585938 0 L 11.185547 1.4003906 A 7 7 0 0 0 7 0 L 6 0 z M 6 2 A 5.9999999 6 0 0 0 0 8 L 12 8 A 5.9999999 6 0 0 0 6 2 z M 0 9 L 0 14 L 12 14 L 12 9 L 0 9 z "
     style="opacity:1;fill:#000000;fill-opacity:1;stroke:none;stroke-width:3.77295542;stroke-linecap:butt;stroke-linejoin:round;stroke-miterlimit:4;stroke-dasharray:none;stroke-opacity:1;paint-order:stroke fill markers" />
</svg>
