<?xml version="1.0" encoding="UTF-8" standalone="no"?>
<!-- Created with Inkscape (http://www.inkscape.org/) -->

<svg
   xmlns:dc="http://purl.org/dc/elements/1.1/"
   xmlns:cc="http://creativecommons.org/ns#"
   xmlns:rdf="http://www.w3.org/1999/02/22-rdf-syntax-ns#"
   xmlns:svg="http://www.w3.org/2000/svg"
   xmlns="http://www.w3.org/2000/svg"
   version="1.1"
   width="100%"
   height="100%"
   viewBox="0 0 14 14"
   id="svg2">
  <metadata
     id="metadata8">
    <rdf:RDF>
      <cc:Work
         rdf:about="">
        <dc:format>image/svg+xml</dc:format>
        <dc:type
           rdf:resource="http://purl.org/dc/dcmitype/StillImage" />
        <dc:title></dc:title>
      </cc:Work>
    </rdf:RDF>
  </metadata>
  <defs
     id="defs6" />
  <rect
     width="14"
     height="14"
     x="0"
     y="0"
     id="canvas"
     style="fill:none;stroke:none;visibility:hidden" />
  <path
     d="m 2.5,0 0,3 9,0 0,-3 L 10,0 10,1 8,1 8,0 6,0 6,1 4,1 4,0 z M 3,4 2.5,13 1,13 1,14 5.5,14 C 5.5,13 5.7770449,11.5 7,11.5 8.2738548,11.52672 8.5,13 8.5,14 L 13,14 13,13 11.5,13 11,4 z M 7,6 C 8,6 8,7 8,7 L 8,8 6,8 6,7 C 6,7 6,6 7,6 z"
     id="watchtower"
     style="fill:#000000;fill-opacity:1;stroke:none" />
</svg>
