<svg xmlns="http://www.w3.org/2000/svg" width="128" height="128" viewBox="0 0 128 128">
  <rect id="mapnik_workaround" width="128" height="128" fill="none"/>
  <path stroke-linecap="round" stroke-width=".85" stroke="#685d45" opacity=".4" d="
M80.93,99.94 h0.0001
M91.48,86.05 h0.0001
M94.12,67.63 h0.0001
M95.73,89.01 h0.0001
M96.66,65.48 h0.0001
M101.12,40.11 h0.0001
M105.35,28.78 h0.0001
M105.5,112.96 h0.0001
M107.8,73.33 h0.0001
M112.65,42.22 h0.0001
M113.71,3.11 h0.0001
M115.76,32.54 h0.0001
M119.05,16.35 h0.0001
M119.21,84.76 h0.0001
M122.22,39.55 h0.0001
M122.74,74.01 h0.0001
M0.5,79.35 h0.0001
M1.02,117.71 h0.0001
M3.21,104.11 h0.0001
M11.03,92.62 h0.0001
M12.67,42.18 h0.0001
M13.9,39.72 h0.0001
M14.21,122.9 h0.0001
M19.07,76.5 h0.0001
M21.78,49.12 h0.0001
M26.04,76.19 h0.0001
M27.31,113.51 h0.0001
M31.34,34.57 h0.0001
M32.31,121.21 h0.0001
M39.32,21.33 h0.0001
M39.57,110.57 h0.0001
M42.26,84.7 h0.0001
M42.62,46.48 h0.0001
M42.7,62.12 h0.0001
M45.1,7.55 h0.0001
M45.72,72.41 h0.0001
M47.71,71.46 h0.0001
M55.6,61.39 h0.0001
M56.65,67.26 h0.0001
M66.22,94.51 h0.0001
M69.05,18.63 h0.0001
M69.34,67.79 h0.0001
M71.8,17.4 h0.0001
M73.63,2.72 h0.0001
M73.98,71.86 h0.0001
M74.51,26.34 h0.0001
M86.66,117.03 h0.0001
M88.14,60.18 h0.0001
M99.42,42.97 h0.0001
M103.08,63.07 h0.0001
M108.16,117.27 h0.0001
M111.11,80.62 h0.0001
M0.67,87.83 h0.0001
M0.73,99.7 h0.0001
M5.35,126.37 h0.0001
M7.32,72.59 h0.0001
M14.76,26.1 h0.0001
M21.12,75.66 h0.0001
M31.47,96.58 h0.0001
M38.01,79.52 h0.0001
M42.16,58.51 h0.0001
M43.75,88.26 h0.0001
M48.82,22.1 h0.0001
M50.02,66.9 h0.0001
M52.45,72.16 h0.0001
M55.04,100.89 h0.0001
M56.64,30.46 h0.0001
M60.45,94.31 h0.0001
M62.63,59.74 h0.0001
M63.11,81.14 h0.0001
M71.93,28.13 h0.0001
M74.99,15.24 h0.0001
M85.6,85.14 h0.0001
M87.37,57.24 h0.0001
M88.69,122.36 h0.0001
M94.85,5.45 h0.0001
M98.2,5.81 h0.0001
M98.79,71.57 h0.0001
M102.86,38.53 h0.0001
M104.46,74.07 h0.0001
M107.84,53.98 h0.0001
M110.35,12.17 h0.0001
M112.69,76.69 h0.0001
M122.8,98.69 h0.0001
M126.14,1.45 h0.0001
M2.74,28.79 h0.0001
M3.51,44.94 h0.0001
M7.68,70.4 h0.0001
M8.44,26.41 h0.0001
M10.57,2.38 h0.0001
M11.79,47.32 h0.0001
M21.02,26.77 h0.0001
M24.49,22 h0.0001
M25.92,59.95 h0.0001
M26.16,15.06 h0.0001
M28.07,95.43 h0.0001
M44.53,62.7 h0.0001
M48.11,104.71 h0.0001
M48.86,36.75 h0.0001
M49.6,119.75 h0.0001
M54.63,78.92 h0.0001
M59.19,40.66 h0.0001
M61.19,75.97 h0.0001
M64.66,60.11 h0.0001
M68.03,97.91 h0.0001
M70.12,90.19 h0.0001
M70.75,92.4 h0.0001
M74.14,9.73 h0.0001
M79.41,114.97 h0.0001
M82.85,57.93 h0.0001
M90.04,115.85 h0.0001
M90.77,97.16 h0.0001
M98.72,24.05 h0.0001
M103.48,89.92 h0.0001
M112.8,60.14 h0.0001
M115.9,100.69 h0.0001
M123.74,122.71 h0.0001
M1.01,56.3 h0.0001
M4.24,13.76 h0.0001
M6.11,123.74 h0.0001
M6.75,96.02 h0.0001
M14.08,99.99 h0.0001
M17.18,103.02 h0.0001
M19.03,59.15 h0.0001
M19.66,39.59 h0.0001
M21.08,51.33 h0.0001
M21.29,14.67 h0.0001
M26.17,24.08 h0.0001
M28.84,103.05 h0.0001
M34.37,38.82 h0.0001
M34.75,114 h0.0001
M43.02,90.39 h0.0001
M46.56,110.86 h0.0001
M46.61,82.48 h0.0001
M46.99,100.18 h0.0001
M48.25,101.66 h0.0001
M53.08,121.57 h0.0001
M53.09,8.03 h0.0001
M69.36,99.56 h0.0001
M72.13,1.03 h0.0001
M73.04,80.3 h0.0001
M74.32,117.28 h0.0001
M85.39,21.23 h0.0001
M85.96,45.99 h0.0001
M87.21,52.76 h0.0001
M87.54,31.37 h0.0001
M94.34,82.55 h0.0001
M102.38,7.9 h0.0001
M103.77,51.86 h0.0001
M104.15,126.94 h0.0001
M106.97,14.45 h0.0001
M108.78,0.5 h0.0001
M122.77,33.29 h0.0001
M2.21,43.19 h0.0001
M7.95,89.4 h0.0001
M8.2,48.81 h0.0001
M12.55,12.23 h0.0001
M12.7,5.19 h0.0001
M13.85,115.43 h0.0001
M15.55,69.55 h0.0001
M19.03,121.56 h0.0001
M29.28,66.76 h0.0001
M36.59,114.94 h0.0001
M38.06,12.16 h0.0001
M46.43,105.95 h0.0001
M55.59,12.14 h0.0001
M55.76,28.18 h0.0001
M57.63,21.72 h0.0001
M59.08,90.89 h0.0001
M60.33,65.06 h0.0001
M60.55,109.28 h0.0001
M64.06,19.17 h0.0001
M72.82,14.81 h0.0001
M81.07,34.82 h0.0001
M81.19,5.98 h0.0001
M93.26,96.8 h0.0001
M95.66,98.05 h0.0001
M98.15,16.01 h0.0001
M107.13,111.54 h0.0001
M108.87,83.7 h0.0001
M110.65,58.81 h0.0001
M115.57,34.78 h0.0001
M120.35,82.62 h0.0001
M121.23,68.46 h0.0001
M121.89,52.76 h0.0001
M4.8,75.03 h0.0001
M8.72,30.03 h0.0001
M12.37,30.5 h0.0001
M15.45,34.35 h0.0001
M16.17,65.28 h0.0001
M16.61,87.64 h0.0001
M17.56,124.47 h0.0001
M18.82,10.18 h0.0001
M19.35,97.74 h0.0001
M19.45,83.45 h0.0001
M25.6,64.87 h0.0001
M28.45,5.39 h0.0001
M37.25,30.86 h0.0001
M39.96,74.16 h0.0001
M41.46,44.54 h0.0001
M44.51,28.76 h0.0001
M50.82,28.68 h0.0001
M51.13,13.88 h0.0001
M51.41,16.63 h0.0001
M53.9,113.23 h0.0001
M54.52,1.93 h0.0001
M58.19,10.15 h0.0001
M66.73,58.36 h0.0001
M67.69,111.51 h0.0001
M71.22,46.43 h0.0001
M74.79,32.57 h0.0001
M78.25,95.17 h0.0001
M83.76,19.75 h0.0001
M92.22,117.82 h0.0001
M94.02,100.12 h0.0001
M98.13,19.26 h0.0001
M101.8,65.33 h0.0001
M110.39,73.44 h0.0001
M113.96,51.71 h0.0001
M114.89,65.45 h0.0001
M119.75,111.96 h0.0001
M3.9,61.57 h0.0001
M9.6,82.93 h0.0001
M9.96,98.97 h0.0001
M12.22,127.23 h0.0001
M18.53,29.51 h0.0001
M19.01,108.84 h0.0001
M23.62,83.79 h0.0001
M29.02,0.51 h0.0001
M34.68,72.67 h0.0001
M42.29,102.18 h0.0001
M49.08,92.46 h0.0001
M51.68,80.13 h0.0001
M58.44,124.26 h0.0001
M60.09,11.89 h0.0001
M60.55,48.78 h0.0001
M60.83,33.36 h0.0001
M63.16,109.51 h0.0001
M63.86,5.31 h0.0001
M75.97,44.7 h0.0001
M87.95,44.56 h0.0001
M88.45,107.95 h0.0001
M88.55,25.62 h0.0001
M88.98,29.79 h0.0001
M91.35,27.49 h0.0001
M105.95,75.45 h0.0001
M108.97,119.57 h0.0001
M112.17,23.62 h0.0001
M113.34,32.25 h0.0001
M114.53,45.97 h0.0001
M117.61,72.46 h0.0001
M119.83,8.39 h0.0001
M121.48,35.03 h0.0001
M122.59,127.06 h0.0001
M126.25,53.69 h0.0001
M4.62,80.84 h0.0001
M5.17,15.33 h0.0001
M5.8,117.7 h0.0001
M7.63,125.29 h0.0001
M12.83,44.72 h0.0001
M14.42,50.37 h0.0001
M14.55,17.86 h0.0001
M15.99,79.26 h0.0001
M16.48,51.68 h0.0001
M16.74,71.86 h0.0001
M24.26,78.31 h0.0001
M31.02,119.28 h0.0001
M39.14,65.9 h0.0001
M39.46,83.26 h0.0001
M53.09,51.91 h0.0001
M55.8,16.31 h0.0001
M55.99,105.99 h0.0001
M63.13,10.67 h0.0001
M67.9,81.05 h0.0001
M71.15,109.93 h0.0001
M72.28,48.18 h0.0001
M73.54,34.28 h0.0001
M75.83,69.98 h0.0001
M81.05,52.23 h0.0001
M82.28,25.47 h0.0001
M90.72,89.62 h0.0001
M91.07,31.02 h0.0001
M92.43,88.27 h0.0001
M94.26,53.19 h0.0001
M95.63,41.84 h0.0001
M99.74,53.18 h0.0001
M105.84,44.2 h0.0001
M106.08,86.13 h0.0001
M106.7,30.7 h0.0001
M108.25,44.43 h0.0001
M109.36,101.63 h0.0001
M110.89,61.1 h0.0001
M119.95,25.5 h0.0001
M121.27,71.26 h0.0001
M123.36,90.03 h0.0001
M123.43,36.18 h0.0001
M10.01,17.1 h0.0001
M10.14,28.42 h0.0001
M10.84,10.57 h0.0001
M12.56,60.43 h0.0001
M14.93,101.97 h0.0001
M17.38,119.68 h0.0001
M20.34,106.36 h0.0001
M27.57,55.82 h0.0001
M31.46,90.4 h0.0001
M32.83,104.95 h0.0001
M36.51,81.25 h0.0001
M41.78,48.43 h0.0001
M42.73,77.72 h0.0001
M42.9,98.93 h0.0001
M45.67,41.18 h0.0001
M48.86,32.47 h0.0001
M48.97,53.38 h0.0001
M54.25,19.48 h0.0001
M57.88,55.3 h0.0001
M58,79.17 h0.0001
M58.17,71.97 h0.0001
M60.58,84.27 h0.0001
M61.14,21.74 h0.0001
M61.83,57.92 h0.0001
M63.11,34.96 h0.0001
M65.26,35.73 h0.0001
M66.45,6.33 h0.0001
M67.44,21.95 h0.0001
M68.24,31.51 h0.0001
M69.73,32.75 h0.0001
M83.69,79.04 h0.0001
M85.55,71.74 h0.0001
M92.82,65.4 h0.0001
M108.8,88.01 h0.0001
M113.06,126.44 h0.0001
M113.43,72.97 h0.0001
M113.69,115.45 h0.0001
M114.56,117.79 h0.0001
M115.69,12.5 h0.0001
M117.49,59.04 h0.0001
M118.34,22.22 h0.0001
M126.66,123.77 h0.0001
M1.79,94.5 h0.0001
M2.96,73.64 h0.0001
M5.04,110.81 h0.0001
M9.11,22.3 h0.0001
M14.1,32.4 h0.0001
M22.13,62.2 h0.0001
M26.38,95.19 h0.0001
M29.3,96.71 h0.0001
M42.05,15.26 h0.0001
M45.73,126.74 h0.0001
M46.99,94.7 h0.0001
M50.48,40.84 h0.0001
M51.54,19.04 h0.0001
M54.31,49.85 h0.0001
M62.91,89.35 h0.0001
M63.98,7.08 h0.0001
M66.54,30.77 h0.0001
M68.1,72.04 h0.0001
M69.62,56.12 h0.0001
M74.74,81.77 h0.0001
M77.03,76.44 h0.0001
M82.81,96.31 h0.0001
M87.16,27.07 h0.0001
M88.65,22.02 h0.0001
M99.12,117.79 h0.0001
M102.16,125.22 h0.0001
M103.13,105.41 h0.0001
M104.68,48.38 h0.0001
M107.69,3.81 h0.0001
M109.46,111.23 h0.0001
M111.41,33.64 h0.0001
M113.08,5.13 h0.0001
M113.48,102.6 h0.0001
M113.79,81.71 h0.0001
M123.66,20.02 h0.0001
M124.41,81.16 h0.0001
M124.53,72.96 h0.0001
M126.97,110.77 h0.0001
M4.7,72.63 h0.0001
M7.79,3.43 h0.0001
M15.11,110.1 h0.0001
M24.13,104.17 h0.0001
M29.06,123 h0.0001
M35.6,56.74 h0.0001
M35.96,86.36 h0.0001
M39.85,40.66 h0.0001
M41.79,3.69 h0.0001
M43.9,31.21 h0.0001
M44.97,33.21 h0.0001
M53.75,98.87 h0.0001
M60.43,53.31 h0.0001
M63.14,87.39 h0.0001
M64.99,82.99 h0.0001
M67.21,113.71 h0.0001
M71.28,67.06 h0.0001
M80.49,56.81 h0.0001
M83.6,87.04 h0.0001
M90.12,99.56 h0.0001
M94.53,8.11 h0.0001
M101.43,106.26 h0.0001
M101.76,113.29 h0.0001
M104.61,1.42 h0.0001
M105.86,100.15 h0.0001
M107.88,106.46 h0.0001
M110.18,75.72 h0.0001
M120.35,30.41 h0.0001
M124.82,39.97 h0.0001
M125.07,34.12 h0.0001
M126.48,57.29 h0.0001
M0.58,38.91 h0.0001
M2.83,57.06 h0.0001
M10.27,88.83 h0.0001
M19.18,26.28 h0.0001
M19.28,56.71 h0.0001
M19.63,124.96 h0.0001
M22.24,87.77 h0.0001
M23.96,112.72 h0.0001
M30.74,98.82 h0.0001
M31.19,32.14 h0.0001
M31.73,112.96 h0.0001
M36.71,42.16 h0.0001
M36.72,94.15 h0.0001
M38.62,29.19 h0.0001
M39.3,107.41 h0.0001
M40.07,38.49 h0.0001
M43.03,122.27 h0.0001
M47.05,50.91 h0.0001
M48.16,126.65 h0.0001
M48.31,87.67 h0.0001
M50.86,51.47 h0.0001
M56.61,44.07 h0.0001
M62.5,68.03 h0.0001
M69.07,20.66 h0.0001
M71.89,50.98 h0.0001
M72.22,60.28 h0.0001
M80.94,94.78 h0.0001
M83.04,37.98 h0.0001
M83.44,53.51 h0.0001
M87.81,75.22 h0.0001
M94.68,55.57 h0.0001
M95.24,11.62 h0.0001
M99.76,101.91 h0.0001
M102.66,93.13 h0.0001
M105.84,33.61 h0.0001
M116.73,89.14 h0.0001
M119.76,126.96 h0.0001
M125.34,3.85 h0.0001
M126.88,17.35 h0.0001
M126.97,33.27 h0.0001
M3.59,102.01 h0.0001
M6.44,113.17 h0.0001
M10.82,42.2 h0.0001
M13.7,21.79 h0.0001
M14.93,124.69 h0.0001
M16.69,126.26 h0.0001
M20.29,110.67 h0.0001
M22.2,37.69 h0.0001
M28.32,60.72 h0.0001
M36.71,2.62 h0.0001
M53.34,63.04 h0.0001
M53.54,74.08 h0.0001
M66.78,60.33 h0.0001
M68.65,42.15 h0.0001
M75.11,37.44 h0.0001
M76.99,61.69 h0.0001
M78.15,63.74 h0.0001
M79.93,87.86 h0.0001
M80.6,97.57 h0.0001
M81.42,75.7 h0.0001
M88.04,92.76 h0.0001
M92.04,78.54 h0.0001
M94.52,1.26 h0.0001
M95.79,74.7 h0.0001
M104.19,95.05 h0.0001
M109.78,114.14 h0.0001
M112.28,83.72 h0.0001
M115.58,37.11 h0.0001
M118.58,81.67 h0.0001
M119.82,12.89 h0.0001
M120.01,63.28 h0.0001
M121.53,100.92 h0.0001
M122.38,76.44 h0.0001
M124.81,21.88 h0.0001
M1.14,7.44 h0.0001
M1.25,84.97 h0.0001
M5.15,66.92 h0.0001
M7.45,127.24 h0.0001
M11.03,37.57 h0.0001
M16.9,16.09 h0.0001
M17.01,95.24 h0.0001
M19.02,93.13 h0.0001
M19.71,78.18 h0.0001
M25.76,44.77 h0.0001
M27.98,22.82 h0.0001
M32.01,102.8 h0.0001
M33.13,99.6 h0.0001
M33.56,108.68 h0.0001
M37.07,60.04 h0.0001
M41.59,18.73 h0.0001
M42.32,110.23 h0.0001
M42.97,70.46 h0.0001
M47.01,92.83 h0.0001
M56.2,108.02 h0.0001
M60.57,17.79 h0.0001
M61.14,96.89 h0.0001
M64.72,28.84 h0.0001
M83.94,83.38 h0.0001
M86.31,16.62 h0.0001
M90.67,80.71 h0.0001
M92.33,71.87 h0.0001
M92.52,83.91 h0.0001
M94.69,76.21 h0.0001
M97.41,8.69 h0.0001
M97.53,0.69 h0.0001
M103.02,118.51 h0.0001
M103.37,13.23 h0.0001
M110.49,26.92 h0.0001
M113.31,104.81 h0.0001
M116.47,39.64 h0.0001
M118.24,7.69 h0.0001
M118.32,43.71 h0.0001
M119.09,37.51 h0.0001
M120.27,53.78 h0.0001
M123.95,115.87 h0.0001
M0.66,46.35 h0.0001
M1.94,60.83 h0.0001
M2.45,46.83 h0.0001
M3.46,8.34 h0.0001
M5.71,19.51 h0.0001
M10.17,46.55 h0.0001
M12.47,96.35 h0.0001
M13.49,24.07 h0.0001
M17.45,80.27 h0.0001
M19.17,72.09 h0.0001
M21.39,104.15 h0.0001
M26.26,26.28 h0.0001
M31.79,110.49 h0.0001
M32.21,37 h0.0001
M37.72,40.24 h0.0001
M39.5,81.49 h0.0001
M44.11,1.02 h0.0001
M46.7,15.22 h0.0001
M51.29,64.25 h0.0001
M55.96,65.34 h0.0001
M57.99,119.46 h0.0001
M59.88,80.91 h0.0001
M64.23,117.44 h0.0001
M65.16,78.37 h0.0001
M68.93,95.26 h0.0001
M72.28,11.82 h0.0001
M78.85,85.81 h0.0001
M80.25,117.77 h0.0001
M80.49,108.74 h0.0001
M80.64,78.06 h0.0001
M80.7,50.23 h0.0001
M85.15,127 h0.0001
M88.31,71.55 h0.0001
M90.25,69.61 h0.0001
M91.77,52.51 h0.0001
M96.87,78.58 h0.0001
M97.14,126.53 h0.0001
M97.62,11.06 h0.0001
M99.17,98.45 h0.0001
M101.72,101.09 h0.0001
M110.15,16.78 h0.0001
M110.78,37.59 h0.0001
M111.27,98.91 h0.0001
M115.6,115.09 h0.0001
M116.88,41.72 h0.0001
M118.01,122.19 h0.0001
M122.3,10.8 h0.0001
M122.58,79.01 h0.0001
M123.85,64.86 h0.0001
M124.5,47.04 h0.0001
M127.49,41.7 h0.0001
M4.7,90.2 h0.0001
M5.53,79.31 h0.0001
M9.96,72.26 h0.0001
M12.47,110.34 h0.0001
M14.93,10.59 h0.0001
M20.88,118.25 h0.0001
M24.26,39.24 h0.0001
M25.24,117.64 h0.0001
M28.28,111.04 h0.0001
M28.76,41.7 h0.0001
M30.03,30.38 h0.0001
M30.29,61.83 h0.0001
M34.86,44.41 h0.0001
M36.91,99.85 h0.0001
M40.09,42.81 h0.0001
M41.4,75.85 h0.0001
M44.47,94.68 h0.0001
M44.93,108.49 h0.0001
M47.59,48.91 h0.0001
M53.18,70.09 h0.0001
M54.02,104.34 h0.0001
M58.76,113.39 h0.0001
M60.44,104.05 h0.0001
M61.22,122.04 h0.0001
M64.65,37.94 h0.0001
M65.65,88.74 h0.0001
M66.95,85.36 h0.0001
M67.29,16.81 h0.0001
M74.43,6.98 h0.0001
M80.83,123.83 h0.0001
M86.28,108.76 h0.0001
M89.73,87.62 h0.0001
M91.93,35.47 h0.0001
M95.82,81.05 h0.0001
M103.18,15.02 h0.0001
M108.14,34.4 h0.0001
M117.81,51.26 h0.0001
M124.33,1.33 h0.0001
M124.63,30.13 h0.0001
M0.57,111.67 h0.0001
M1.71,19.23 h0.0001
M2.88,66.84 h0.0001
M7.08,6.1 h0.0001
M7.12,78.38 h0.0001
M8.41,15.83 h0.0001
M15.19,61.51 h0.0001
M16,98.89 h0.0001
M16.64,30.35 h0.0001
M16.85,35.96 h0.0001
M18.76,41.59 h0.0001
M28.66,49.72 h0.0001
M33.02,1.18 h0.0001
M34.06,5.76 h0.0001
M38.38,53.72 h0.0001
M38.4,97.95 h0.0001
M42.95,82.57 h0.0001
M43.47,55.25 h0.0001
M44.72,17.37 h0.0001
M44.91,83.59 h0.0001
M45.77,87.7 h0.0001
M47.06,108.28 h0.0001
M49.27,3.06 h0.0001
M49.39,43.52 h0.0001
M51.27,58.62 h0.0001
M51.32,53.71 h0.0001
M54.06,108.06 h0.0001
M54.78,92.89 h0.0001
M57.75,58.33 h0.0001
M58.99,5.11 h0.0001
M61.53,66.75 h0.0001
M61.7,26.81 h0.0001
M62.55,0.65 h0.0001
M73.02,22.81 h0.0001
M78.98,26.02 h0.0001
M85.8,92.83 h0.0001
M90.76,72.55 h0.0001
M91.6,50.53 h0.0001
M93.01,48.33 h0.0001
M99.59,50.85 h0.0001
M99.72,76.29 h0.0001
M100.32,97.22 h0.0001
M106.12,5.65 h0.0001
M108.86,78.63 h0.0001
M109.77,116.02 h0.0001
M111.34,120.25 h0.0001
M112.18,95.26 h0.0001
M114.03,100.79 h0.0001
M114.95,14.78 h0.0001
M116.37,106.27 h0.0001
M118.35,96.97 h0.0001
M122.42,106.31 h0.0001
M1.05,11.26 h0.0001
M1.29,120.69 h0.0001
M6,39.68 h0.0001
M10.01,66.74 h0.0001
M14.07,82.34 h0.0001
M16.61,23.72 h0.0001
M32.2,24.12 h0.0001
M32.43,127.16 h0.0001
M38.17,5.88 h0.0001
M49.3,74.28 h0.0001
M54.41,118.82 h0.0001
M59.4,69.76 h0.0001
M59.76,74.64 h0.0001
M62.81,47.79 h0.0001
M65.18,0.99 h0.0001
M65.59,40.28 h0.0001
M65.66,55.28 h0.0001
M67.65,56.27 h0.0001
M68.68,93.17 h0.0001
M69.99,69.87 h0.0001
M83.16,49.05 h0.0001
M83.97,94.33 h0.0001
M93.01,80.8 h0.0001
M93.36,90.26 h0.0001
M94.1,49.68 h0.0001
M101.9,98.75 h0.0001
M107.61,70.83 h0.0001
M115.36,57.43 h0.0001
M117.7,53.87 h0.0001
M3.24,34.63 h0.0001
M4.8,6.49 h0.0001
M9.68,95.03 h0.0001
M11.58,104.37 h0.0001
M12.79,1.33 h0.0001
M26.19,62.29 h0.0001
M26.7,83.05 h0.0001
M33.39,35.17 h0.0001
M33.7,3.65 h0.0001
M34.31,24.84 h0.0001
M34.62,49.48 h0.0001
M37.13,19.89 h0.0001
M38.29,68.39 h0.0001
M44.84,42.85 h0.0001
M51.23,23.05 h0.0001
M51.91,30.75 h0.0001
M54.02,115.5 h0.0001
M55.9,5.08 h0.0001
M58.88,106.78 h0.0001
M63.32,2.93 h0.0001
M66.3,106.67 h0.0001
M67.18,118.54 h0.0001
M67.55,101.42 h0.0001
M71.98,5.38 h0.0001
M74.25,28.35 h0.0001
M74.27,103.71 h0.0001
M76.72,97.72 h0.0001
M78.77,34.87 h0.0001
M80.37,59.13 h0.0001
M88.47,65.16 h0.0001
M88.84,16.98 h0.0001
M96.49,17.88 h0.0001
M99.06,108.21 h0.0001
M100.99,83.21 h0.0001
M103.41,71.06 h0.0001
M103.49,83.07 h0.0001
M103.68,28.04 h0.0001
M104.02,25.81 h0.0001
M111.07,18.94 h0.0001
M115.5,72.15 h0.0001
M116.56,94.69 h0.0001
M120.34,28.36 h0.0001
M7.4,1.38 h0.0001
M8.21,81.1 h0.0001
M12.85,9.62 h0.0001
M18.41,74.11 h0.0001
M23.89,110.21 h0.0001
M26.75,3 h0.0001
M28.09,63.29 h0.0001
M33.25,118.76 h0.0001
M37.64,76.46 h0.0001
M39.95,58.1 h0.0001
M44.13,39.17 h0.0001
M47.59,25.87 h0.0001
M48.93,61.35 h0.0001
M57.82,74.8 h0.0001
M62.33,36.9 h0.0001
M65.25,14.87 h0.0001
M66.79,96.35 h0.0001
M66.96,34.24 h0.0001
M67.83,10.28 h0.0001
M69.76,82.97 h0.0001
M70.12,10.29 h0.0001
M70.26,26.24 h0.0001
M71.05,65.18 h0.0001
M74.62,47.47 h0.0001
M76.68,104.39 h0.0001
M78.96,119.39 h0.0001
M79.33,125.79 h0.0001
M95.38,13.41 h0.0001
M96.77,32.07 h0.0001
M99.2,85.61 h0.0001
M106.24,38.99 h0.0001
M106.34,46.7 h0.0001
M106.83,80.23 h0.0001
M106.94,59.2 h0.0001
M110.66,6.91 h0.0001
M118.57,66.98 h0.0001
M123.97,18.5 h0.0001
M2,105.98 h0.0001
M2.27,63.54 h0.0001
M11.1,23.53 h0.0001
M12.16,28.34 h0.0001
M12.46,83.62 h0.0001
M17.17,21.02 h0.0001
M19.39,64.6 h0.0001
M19.47,53.48 h0.0001
M21.95,93.6 h0.0001
M23.01,5.11 h0.0001
M25.53,67.93 h0.0001
M31,27.54 h0.0001
M32.77,114.92 h0.0001
M35.06,110.2 h0.0001
M35.2,19.38 h0.0001
M35.96,4.13 h0.0001
M36.21,38.52 h0.0001
M37.82,23.34 h0.0001
M39.12,94.78 h0.0001
M41.44,106.18 h0.0001
M41.64,37.45 h0.0001
M41.81,92.03 h0.0001
M49.08,16.79 h0.0001
M52.38,96.02 h0.0001
M58.26,99.63 h0.0001
M61.63,115.38 h0.0001
M63.21,32.85 h0.0001
M65.05,80.76 h0.0001
M65.4,112.51 h0.0001
M68.04,12.2 h0.0001
M70.98,21.83 h0.0001
M74.18,119.48 h0.0001
M74.86,22.45 h0.0001
M83.26,9.92 h0.0001
M83.8,64.39 h0.0001
M85.62,54 h0.0001
M91.78,114.98 h0.0001
M91.95,74.92 h0.0001
M92.41,105.36 h0.0001
M94.23,28.18 h0.0001
M103.44,32.96 h0.0001
M105.88,67.34 h0.0001
M112.42,106.75 h0.0001
M116.03,6.85 h0.0001
M123.26,24.48 h0.0001
M124.41,105.53 h0.0001
M126.55,48.77 h0.0001
M0.5,62.59 h0.0001
M0.63,17.34 h0.0001
M0.98,5.19 h0.0001
M3.02,5.72 h0.0001
M3.59,125.74 h0.0001
M7.63,11.83 h0.0001
M9.42,103.02 h0.0001
M10.47,112.01 h0.0001
M17.1,68.74 h0.0001
M24.08,75.8 h0.0001
M26.4,20.85 h0.0001
M26.56,103.67 h0.0001
M26.76,119.51 h0.0001
M36.63,125.56 h0.0001
M38.08,86.98 h0.0001
M41.54,100.19 h0.0001
M42.03,104.4 h0.0001
M56.3,1.92 h0.0001
M61.37,28.74 h0.0001
M65.91,26.31 h0.0001
M68.7,103.86 h0.0001
M74.71,0.66 h0.0001
M75.66,18.72 h0.0001
M76.88,1.03 h0.0001
M77.18,87.64 h0.0001
M81.5,42.26 h0.0001
M85.31,118.76 h0.0001
M89.29,14.15 h0.0001
M90.5,64.11 h0.0001
M95.56,110.91 h0.0001
M99.83,0.71 h0.0001
M108.45,39.46 h0.0001
M109.02,69.99 h0.0001
M109.29,23.02 h0.0001
M115.66,50.05 h0.0001
M117.07,108.72 h0.0001
M117.09,126.4 h0.0001
M122.66,109.17 h0.0001
M124.36,95.79 h0.0001
M126.53,108.39 h0.0001
M0.5,20.86 h0.0001
M2.65,0.57 h0.0001
M6.42,30.46 h0.0001
M6.52,91 h0.0001
M7.32,119.29 h0.0001
M10.7,75.65 h0.0001
M11.78,62.51 h0.0001
M19.98,30.35 h0.0001
M21.38,53.93 h0.0001
M23.23,107.92 h0.0001
M23.26,122.53 h0.0001
M25.61,33.25 h0.0001
M27.09,71.02 h0.0001
M32.49,71.89 h0.0001
M34.15,122.37 h0.0001
M42.56,50.52 h0.0001
M42.9,74.57 h0.0001
M46.8,53.3 h0.0001
M48.24,8.48 h0.0001
M49.12,0.53 h0.0001
M50.87,105.82 h0.0001
M53.15,81.29 h0.0001
M54.29,96.35 h0.0001
M55.22,53.57 h0.0001
M56.76,48.64 h0.0001
M57.06,116.84 h0.0001
M57.47,111.48 h0.0001
M61.36,50.45 h0.0001
M71.33,31.36 h0.0001
M77.62,73.94 h0.0001
M78.07,42.67 h0.0001
M78.99,3.15 h0.0001
M79.41,65.35 h0.0001
M80.89,67.77 h0.0001
M83.73,42.82 h0.0001
M85.26,9.22 h0.0001
M86.97,22.65 h0.0001
M89.74,78.56 h0.0001
M90.22,66.49 h0.0001
M91.43,110.61 h0.0001
M92.35,29.42 h0.0001
M100.45,13.99 h0.0001
M101.2,110.86 h0.0001
M101.58,11.81 h0.0001
M103.67,66.43 h0.0001
M104.36,31.21 h0.0001
M108.55,60.09 h0.0001
M115.6,22.04 h0.0001
M117.11,16.46 h0.0001
M121.69,83.93 h0.0001
M124.93,124.59 h0.0001
M0.61,103.77 h0.0001
M3.93,94.44 h0.0001
M7.88,57.95 h0.0001
M9.47,39.67 h0.0001
M16.41,113.32 h0.0001
M17.11,57.9 h0.0001
M17.51,97.33 h0.0001
M30.49,76 h0.0001
M31.1,13.19 h0.0001
M49.24,89.7 h0.0001
M51.2,34.79 h0.0001
M52.94,15.23 h0.0001
M53.27,77.12 h0.0001
M62.51,51.74 h0.0001
M71.73,125.12 h0.0001
M71.73,63.14 h0.0001
M72.25,94.3 h0.0001
M72.33,76.98 h0.0001
M75.6,35.06 h0.0001
M81.75,31.14 h0.0001
M82.38,62.33 h0.0001
M100.63,67.13 h0.0001
M100.94,123.5 h0.0001
M111.16,4.63 h0.0001
M113.09,21.41 h0.0001
M116.25,44.64 h0.0001
M117.55,61.86 h0.0001
M119.4,101.75 h0.0001
M122.25,64.06 h0.0001
M10.59,14.43 h0.0001
M13.95,47.69 h0.0001
M20.8,32.54 h0.0001
M22.46,31.44 h0.0001
M26.04,49.2 h0.0001
M31.41,100.97 h0.0001
M40.26,8.03 h0.0001
M46.61,0.79 h0.0001
M49.5,116.56 h0.0001
M54.98,34.66 h0.0001
M55.23,23.47 h0.0001
M58.33,49.86 h0.0001
M67.47,51.01 h0.0001
M71.31,108.21 h0.0001
M76.63,113.47 h0.0001
M90.13,93.95 h0.0001
M95.95,36.57 h0.0001
M100.1,78.25 h0.0001
M100.71,93.98 h0.0001
M106.54,97.97 h0.0001
M109.18,91.47 h0.0001
M110.92,47.06 h0.0001
M113.19,88.1 h0.0001
M115.48,69.86 h0.0001
M118.43,105.8 h0.0001
M120.21,10.5 h0.0001
M120.23,122.82 h0.0001
M123.16,31.35 h0.0001
M124.73,118.45 h0.0001
M126.25,46.46 h0.0001
M2.52,110.7 h0.0001
M16.51,115.11 h0.0001
M21.92,0.5 h0.0001
M23.91,41.94 h0.0001
M24.08,23.81 h0.0001
M26.56,99.72 h0.0001
M28,108.49 h0.0001
M28.78,33.1 h0.0001
M38.81,13.9 h0.0001
M40.46,0.5 h0.0001
M41.39,12.37 h0.0001
M44.24,3.43 h0.0001
M45.23,75.62 h0.0001
M49.6,94.93 h0.0001
M57.66,69.13 h0.0001
M62.31,92.44 h0.0001
M62.69,103.87 h0.0001
M67.86,53.58 h0.0001
M68.08,46.01 h0.0001
M70.1,72.58 h0.0001
M73.98,12.44 h0.0001
M75.66,63.61 h0.0001
M75.9,50.26 h0.0001
M77,120.99 h0.0001
M78.38,83.11 h0.0001
M78.76,60.06 h0.0001
M79.59,15.58 h0.0001
M80.58,112.31 h0.0001
M88.17,35.9 h0.0001
M89.68,58.27 h0.0001
M92.79,126.84 h0.0001
M96.01,69.51 h0.0001
M105.26,110.31 h0.0001
M110.31,63.3 h0.0001
M113.31,85.63 h0.0001
M115.2,127.25 h0.0001
M115.21,104.32 h0.0001
M1.22,89.72 h0.0001
M6.24,37.41 h0.0001
M15.02,5.06 h0.0001
M19.47,17.2 h0.0001
M20.46,99.85 h0.0001
M26.05,92.81 h0.0001
M41.48,56.42 h0.0001
M44.3,68 h0.0001
M49.66,5.11 h0.0001
M59.8,62.7 h0.0001
M60.1,72.84 h0.0001
M60.19,124.34 h0.0001
M61.69,61.99 h0.0001
M61.89,82.64 h0.0001
M62.09,125.17 h0.0001
M68.99,5.51 h0.0001
M70.03,29.31 h0.0001
M72.08,122.19 h0.0001
M75.56,74.56 h0.0001
M75.61,40.35 h0.0001
M78.07,117.07 h0.0001
M78.64,13.6 h0.0001
M80.02,41.02 h0.0001
M86.53,7.78 h0.0001
M90.1,24.18 h0.0001
M90.57,48.43 h0.0001
M90.62,39.51 h0.0001
M92.87,112.8 h0.0001
M101.85,55.71 h0.0001
M104.46,6.91 h0.0001
M105.05,37.28 h0.0001
M106.7,92.35 h0.0001
M113.9,6.95 h0.0001
M115.19,30.62 h0.0001
M117.46,49.03 h0.0001
M120.36,108.71 h0.0001
M121.72,103.84 h0.0001
M121.77,88.04 h0.0001
M127.5,3.67 h0.0001
M0.5,44.34 h0.0001
M5.67,44.9 h0.0001
M6.1,49.01 h0.0001
M7.15,44.01 h0.0001
M8.36,92.81 h0.0001
M17.23,92.41 h0.0001
M17.32,18.48 h0.0001
M19.09,23.05 h0.0001
M20.28,47.54 h0.0001
M21.29,17.09 h0.0001
M21.64,82.83 h0.0001
M24.1,115.36 h0.0001
M27.26,68.33 h0.0001
M29.34,83.16 h0.0001
M30.05,48.1 h0.0001
M34.49,126.74 h0.0001
M34.62,81.87 h0.0001
M36.77,55.04 h0.0001
M37.1,122.92 h0.0001
M37.28,46.39 h0.0001
M37.85,85.02 h0.0001
M37.95,126.77 h0.0001
M41,64.27 h0.0001
M41.94,52.64 h0.0001
M45.06,121.08 h0.0001
M50.88,78.26 h0.0001
M63.53,111.42 h0.0001
M73.52,64.65 h0.0001
M74.65,60.27 h0.0001
M79.01,21.85 h0.0001
M80.72,3.77 h0.0001
M80.85,36.91 h0.0001
M81.83,1.64 h0.0001
M82.79,84.96 h0.0001
M85.02,81.12 h0.0001
M86.32,24.58 h0.0001
M86.82,77.62 h0.0001
M93.87,124.84 h0.0001
M103.5,34.83 h0.0001
M104.42,92.28 h0.0001
M105.67,51.3 h0.0001
M108.01,99.43 h0.0001
M122.02,0.7 h0.0001
M124.9,12.12 h0.0001
M0.69,96.48 h0.0001
M3.58,38.94 h0.0001
M12.52,49.49 h0.0001
M15.45,22.44 h0.0001
M16.59,55.2 h0.0001
M18.94,118.95 h0.0001
M20.81,73.01 h0.0001
M23.37,20.16 h0.0001
M27.48,84.94 h0.0001
M28.71,14.11 h0.0001
M30.58,40.12 h0.0001
M33.03,65.21 h0.0001
M33.96,116.67 h0.0001
M39.9,96.49 h0.0001
M44.24,36.96 h0.0001
M45.89,102.61 h0.0001
M46.38,115.89 h0.0001
M46.39,122.48 h0.0001
M46.82,2.62 h0.0001
M47.03,46.59 h0.0001
M51.24,1.28 h0.0001
M51.77,42.39 h0.0001
M58.07,33.67 h0.0001
M59.85,29.8 h0.0001
M60.76,23.67 h0.0001
M61.11,39.36 h0.0001
M62.32,107.27 h0.0001
M64.61,43.89 h0.0001
M67.43,83.16 h0.0001
M67.75,8.14 h0.0001
M70.05,61.97 h0.0001
M71.44,24.45 h0.0001
M71.56,35.88 h0.0001
M79.15,75.5 h0.0001
M83.46,111.29 h0.0001
M85.42,56.59 h0.0001
M86.35,82.89 h0.0001
M92.1,10.98 h0.0001
M92.6,62.83 h0.0001
M92.64,57.4 h0.0001
M92.93,38.3 h0.0001
M99.56,25.95 h0.0001
M103.34,110.8 h0.0001
M105.94,125.96 h0.0001
M108.71,93.69 h0.0001
M112.83,13.59 h0.0001
M113.82,68.35 h0.0001
M114.61,17.05 h0.0001
M114.86,88.43 h0.0001
M118.22,32.62 h0.0001
M119.73,103.96 h0.0001
M122.74,15.59 h0.0001
M125.39,26 h0.0001
M127.41,26.64 h0.0001
M3.24,53.6 h0.0001
M3.34,51.13 h0.0001
M6.95,74.72 h0.0001
M8.33,101.33 h0.0001
M14.33,2.95 h0.0001
M15.14,44.43 h0.0001
M18.23,12.5 h0.0001
M24.83,46.76 h0.0001
M25.62,107.61 h0.0001
M28.32,106.01 h0.0001
M29.88,85.73 h0.0001
M31.61,77.83 h0.0001
M36.48,97.17 h0.0001
M39.78,26.52 h0.0001
M40.69,66.71 h0.0001
M42.26,27.2 h0.0001
M48,42.12 h0.0001
M52.78,24.51 h0.0001
M58.66,51.76 h0.0001
M65.41,8.99 h0.0001
M65.45,21.4 h0.0001
M66.71,42.24 h0.0001
M67.14,24.55 h0.0001
M80.91,48.05 h0.0001
M84.23,107.16 h0.0001
M85.07,74.99 h0.0001
M87.28,19.21 h0.0001
M90.47,21.58 h0.0001
M91.15,15.36 h0.0001
M94.08,26.1 h0.0001
M94.84,106.01 h0.0001
M99.48,16.68 h0.0001
M110.93,21.39 h0.0001
M112.72,62.86 h0.0001
M114.61,78.36 h0.0001
M117.43,101.27 h0.0001
M117.73,115.13 h0.0001
M122.44,58.05 h0.0001
M124.24,13.9 h0.0001
M125.97,5.97 h0.0001
M126.3,83.75 h0.0001
M2.14,97.7 h0.0001
M2.76,81.33 h0.0001
M3.76,112.61 h0.0001
M8.46,38.03 h0.0001
M16.64,41.67 h0.0001
M21.49,113.74 h0.0001
M21.67,22.51 h0.0001
M23.31,35.84 h0.0001
M24.57,56.61 h0.0001
M28.01,65.22 h0.0001
M29.46,24.27 h0.0001
M33.63,47.29 h0.0001
M36.29,112.31 h0.0001
M39.37,48.67 h0.0001
M44.44,57.8 h0.0001
M49.6,26.66 h0.0001
M58.89,66.75 h0.0001
M59.22,117.17 h0.0001
M64.79,114.88 h0.0001
M69.15,121.47 h0.0001
M74.57,115.01 h0.0001
M78.81,44.54 h0.0001
M79.39,0.77 h0.0001
M85.83,99.28 h0.0001
M86.09,43.58 h0.0001
M86.12,122.88 h0.0001
M88.04,98.47 h0.0001
M91.78,67.51 h0.0001
M95.62,92.89 h0.0001
M100.38,45.21 h0.0001
M101.02,35.68 h0.0001
M103.96,43.68 h0.0001
M103.98,10.89 h0.0001
M105.57,24.39 h0.0001
M112.52,65.02 h0.0001
M117.1,92.61 h0.0001
M120.16,44.95 h0.0001
M126.33,11.19 h0.0001
M2.62,86.54 h0.0001
M5.02,33.03 h0.0001
M7.18,99.55 h0.0001
M10.57,7.84 h0.0001
M12.11,79 h0.0001
M18.7,105.65 h0.0001
M22.49,18.79 h0.0001
M23.72,1.6 h0.0001
M24.01,14.09 h0.0001
M24.69,70.53 h0.0001
M37.84,73.78 h0.0001
M43.96,85.88 h0.0001
M44.52,73.4 h0.0001
M45.47,77.54 h0.0001
M49.39,30.84 h0.0001
M50.33,100.98 h0.0001
M51.22,69.02 h0.0001
M57.59,4.02 h0.0001
M62.51,18.85 h0.0001
M62.58,12.76 h0.0001
M65.62,11.39 h0.0001
M66.18,110.05 h0.0001
M68.52,47.62 h0.0001
M75.47,122.93 h0.0001
M75.78,100.14 h0.0001
M77.39,16.95 h0.0001
M81.65,106.84 h0.0001
M84.9,77.25 h0.0001
M87,79.61 h0.0001
M87.4,49.06 h0.0001
M89.55,41.63 h0.0001
M90.19,91.56 h0.0001
M90.22,119.43 h0.0001
M90.6,60.22 h0.0001
M94.99,39.96 h0.0001
M95.81,113.5 h0.0001
M102.51,0.86 h0.0001
M103.71,113.74 h0.0001
M105.19,78.18 h0.0001
M105.41,106.04 h0.0001
M115.95,18.58 h0.0001
M119,109.74 h0.0001
M120.4,40.63 h0.0001
M123.52,101.82 h0.0001
M124.73,97.91 h0.0001
M9.77,53.07 h0.0001
M12.71,36.72 h0.0001
M12.81,102.35 h0.0001
M18.66,33.48 h0.0001
M20.13,2.94 h0.0001
M21.48,24.59 h0.0001
M23.85,80.47 h0.0001
M25.57,54.98 h0.0001
M25.59,42.62 h0.0001
M27.08,91.04 h0.0001
M28.66,115.01 h0.0001
M30.46,106.82 h0.0001
M30.7,5.79 h0.0001
M35.14,76.77 h0.0001
M39.68,35.26 h0.0001
M44.46,5.53 h0.0001
M46.47,97.95 h0.0001
M48.86,12.75 h0.0001
M49.74,103.3 h0.0001
M51.11,76.17 h0.0001
M54.24,32.37 h0.0001
M55.67,71.57 h0.0001
M59.4,110.69 h0.0001
M59.54,57.98 h0.0001
M59.68,114.81 h0.0001
M64.08,41.61 h0.0001
M67.14,67.71 h0.0001
M78.38,89.82 h0.0001
M80.91,24.05 h0.0001
M81.09,71.18 h0.0001
M81.93,88.5 h0.0001
M83.21,73.95 h0.0001
M89.68,106.3 h0.0001
M90.06,101.88 h0.0001
M90.52,12.2 h0.0001
M97.62,52.02 h0.0001
M98.97,64.91 h0.0001
M99.46,34.51 h0.0001
M104.5,54.8 h0.0001
M108.41,51.15 h0.0001
M111.01,118.14 h0.0001
M112.64,74.74 h0.0001
M116.35,80.81 h0.0001
M119.62,20.7 h0.0001
M121.59,114.75 h0.0001
M123.51,111.91 h0.0001
M125.07,100.27 h0.0001
M0.5,25.19 h0.0001
M1.13,53.66 h0.0001
M8.6,117.35 h0.0001
M10.61,120.01 h0.0001
M10.72,101.13 h0.0001
M12.57,76.94 h0.0001
M18.23,61.49 h0.0001
M20.42,7.29 h0.0001
M21.71,39.91 h0.0001
M25.32,18.78 h0.0001
M26.11,101.73 h0.0001
M37.89,58.18 h0.0001
M38.21,62.82 h0.0001
M38.93,120.08 h0.0001
M40.26,122.01 h0.0001
M41.01,54.3 h0.0001
M41.99,95.23 h0.0001
M43.69,79.22 h0.0001
M46.41,85.49 h0.0001
M50.71,97.19 h0.0001
M56.67,18 h0.0001
M61.27,111.99 h0.0001
M63.91,105.89 h0.0001
M64.02,69.74 h0.0001
M64.61,96.67 h0.0001
M65.08,23.79 h0.0001
M69.88,53.99 h0.0001
M74.3,110.02 h0.0001
M77.99,69.85 h0.0001
M79.28,53.75 h0.0001
M83.24,108.92 h0.0001
M90.74,56.58 h0.0001
M91.97,23.42 h0.0001
M99.61,106.43 h0.0001
M103.05,59.85 h0.0001
M106.14,56.37 h0.0001
M106.15,16.24 h0.0001
M107.36,126.64 h0.0001
M117.46,5.22 h0.0001
M117.47,34.46 h0.0001
M118.43,90.42 h0.0001
M125.27,126.94 h0.0001
M5.66,3.77 h0.0001
M8.56,42.58 h0.0001
M10.6,117.96 h0.0001
M17.2,63.45 h0.0001
M21.08,34.9 h0.0001
M26.17,53.02 h0.0001
M31.15,53.95 h0.0001
M31.47,25.75 h0.0001
M32.64,80.52 h0.0001
M32.76,124.8 h0.0001
M33.26,19.26 h0.0001
M34.01,93.82 h0.0001
M35.77,0.66 h0.0001
M36.26,6.32 h0.0001
M42.63,42.52 h0.0001
M45.91,55.39 h0.0001
M52.68,110.95 h0.0001
M55.07,116.98 h0.0001
M56.13,63.11 h0.0001
M64.34,46.13 h0.0001
M65.06,16.82 h0.0001
M65.19,53.7 h0.0001
M70.15,43.75 h0.0001
M71.11,88.07 h0.0001
M72,115.53 h0.0001
M72.11,39.88 h0.0001
M74.31,51.73 h0.0001
M74.56,76.75 h0.0001
M76.18,67.38 h0.0001
M82.88,115.57 h0.0001
M85.39,1.56 h0.0001
M88.77,113.26 h0.0001
M92.61,45.76 h0.0001
M96.94,29.68 h0.0001
M98.92,120.76 h0.0001
M100.96,69.2 h0.0001
M101.65,42.43 h0.0001
M108.43,46.68 h0.0001
M110.34,106.17 h0.0001
M114.74,42.41 h0.0001
M0.63,73.9 h0.0001
M2.35,75.81 h0.0001
M3.83,41.32 h0.0001
M4.33,106.85 h0.0001
M5.28,70.59 h0.0001
M6.31,121.45 h0.0001
M7.75,51.99 h0.0001
M9.6,0.89 h0.0001
M11.21,33.61 h0.0001
M11.26,57.72 h0.0001
M11.89,124.64 h0.0001
M12.56,106.32 h0.0001
M21.85,29.04 h0.0001
M26.86,74.38 h0.0001
M30.92,15.22 h0.0001
M33.51,57.4 h0.0001
M35.64,74.5 h0.0001
M39.7,4.81 h0.0001
M40.51,93.18 h0.0001
M43.1,107.76 h0.0001
M45.09,51.44 h0.0001
M46.09,38.64 h0.0001
M48.31,118.03 h0.0001
M56.65,77.29 h0.0001
M57.25,14.74 h0.0001
M58.63,87.76 h0.0001
M58.91,31.47 h0.0001
M61.13,90.5 h0.0001
M73.46,123.91 h0.0001
M80.51,90.69 h0.0001
M81.05,101.77 h0.0001
M81.12,85.76 h0.0001
M81.46,64.66 h0.0001
M83.05,3 h0.0001
M83.72,11.75 h0.0001
M84.23,61.88 h0.0001
M85.89,95.58 h0.0001
M88.31,6.3 h0.0001
M88.78,11.28 h0.0001
M93.16,21.15 h0.0001
M95.3,57.66 h0.0001
M97.92,101.31 h0.0001
M98.24,124.29 h0.0001
M98.77,103.86 h0.0001
M104.27,16.97 h0.0001
M104.99,58.39 h0.0001
M108.46,65.52 h0.0001
M108.86,8.35 h0.0001
M108.98,41.63 h0.0001
M116.7,98.23 h0.0001
M117.16,24.22 h0.0001
M117.41,69.61 h0.0001
M122.48,92.06 h0.0001
M2.56,91.56 h0.0001
M10.97,4.56 h0.0001
M12.49,98.86 h0.0001
M14.55,107.98 h0.0001
M18.98,4.93 h0.0001
M30.29,121.63 h0.0001
M33.26,76.18 h0.0001
M33.77,89.83 h0.0001
M34.64,41.47 h0.0001
M44.16,103.26 h0.0001
M44.8,49.17 h0.0001
M47.48,6.61 h0.0001
M49.23,19.06 h0.0001
M51.12,84.82 h0.0001
M56.03,103.14 h0.0001
M58.11,1.5 h0.0001
M60.9,105.93 h0.0001
M64.56,93.02 h0.0001
M70.43,77.46 h0.0001
M73.89,45.03 h0.0001
M73.98,92.57 h0.0001
M76.07,89.74 h0.0001
M78.09,19.33 h0.0001
M78.55,92.4 h0.0001
M83.4,121.84 h0.0001
M85.67,33.19 h0.0001
M87.7,126.39 h0.0001
M87.89,88.65 h0.0001
M89.62,19.46 h0.0001
M90.55,46.31 h0.0001
M91.08,123.79 h0.0001
M93.41,17.8 h0.0001
M93.79,73.34 h0.0001
M101.09,103.87 h0.0001
M101.14,59.15 h0.0001
M103.83,68.86 h0.0001
M105.51,87.99 h0.0001
M106.26,123.94 h0.0001
M106.53,36.1 h0.0001
M108.59,62.46 h0.0001
M110.14,2.93 h0.0001
M116.97,119.46 h0.0001
M118.77,64.9 h0.0001
M125.22,60.51 h0.0001
M126.57,81.64 h0.0001
M1.49,101.77 h0.0001
M3.72,117.2 h0.0001
M6.76,94 h0.0001
M8.17,65.43 h0.0001
M9.5,124.69 h0.0001
M13.31,58.48 h0.0001
M14.24,126.7 h0.0001
M23.68,92.24 h0.0001
M25.96,86.34 h0.0001
M28.6,119.99 h0.0001
M28.8,43.59 h0.0001
M29.9,112.18 h0.0001
M36.79,83.29 h0.0001
M38.93,55.92 h0.0001
M39.79,16.76 h0.0001
M41.26,112.36 h0.0001
M41.69,114.35 h0.0001
M52.12,66.45 h0.0001
M57.71,41.67 h0.0001
M60.2,14.13 h0.0001
M60.21,1.18 h0.0001
M63.02,54.02 h0.0001
M65.09,101.39 h0.0001
M78.96,55.85 h0.0001
M83.51,31.76 h0.0001
M92.41,103.63 h0.0001
M92.82,4.54 h0.0001
M94.57,64.77 h0.0001
M94.72,30.71 h0.0001
M95.59,33.7 h0.0001
M109.88,52.27 h0.0001
M112.24,113.81 h0.0001
M113.09,70.54 h0.0001
M116.85,78.46 h0.0001
M116.87,117.21 h0.0001
M119.98,49.06 h0.0001
M121.66,20.84 h0.0001
M124.32,103.56 h0.0001
M124.87,91.62 h0.0001
M127.38,72.04 h0.0001
M0.96,124.71 h0.0001
M7.69,60.25 h0.0001
M9.87,61.93 h0.0001
M11.54,55.32 h0.0001
M16.6,116.99 h0.0001
M21.78,6.41 h0.0001
M23.1,118.12 h0.0001
M24.21,50.49 h0.0001
M24.62,127.28 h0.0001
M26.1,79.01 h0.0001
M26.72,51.3 h0.0001
M26.86,58.04 h0.0001
M32.29,49.39 h0.0001
M39.92,99.27 h0.0001
M48.16,63.86 h0.0001
M51.61,74.36 h0.0001
M53.46,57.74 h0.0001
M54.14,83.46 h0.0001
M59.83,98.84 h0.0001
M65.31,103.42 h0.0001
M70.01,123.59 h0.0001
M73.28,30.29 h0.0001
M76.3,106.61 h0.0001
M81.38,110.81 h0.0001
M82.83,126.07 h0.0001
M83.68,51.33 h0.0001
M86.21,35.28 h0.0001
M88.43,81.17 h0.0001
M90.52,82.99 h0.0001
M90.94,7.33 h0.0001
M94.04,114.43 h0.0001
M103.85,79.6 h0.0001
M108.93,109.19 h0.0001
M110.66,42.95 h0.0001
M113.75,19.41 h0.0001
M118.09,30.22 h0.0001
M118.99,55.29 h0.0001
M8.71,87.08 h0.0001
M16.58,2.54 h0.0001
M21.41,56.86 h0.0001
M21.48,11.38 h0.0001
M26.28,17.08 h0.0001
M28.51,20.71 h0.0001
M31.11,124.09 h0.0001
M31.6,84.24 h0.0001
M32.56,74.28 h0.0001
M35.38,11.55 h0.0001
M41.86,5.84 h0.0001
M43,60.11 h0.0001
M51.42,126.92 h0.0001
M51.84,103.44 h0.0001
M52.15,92.46 h0.0001
M53.66,41.39 h0.0001
M62.21,55.81 h0.0001
M63.03,16.06 h0.0001
M71.94,42.14 h0.0001
M76.69,23.06 h0.0001
M78.52,107.57 h0.0001
M85.99,69.58 h0.0001
M88.19,83.45 h0.0001
M97.25,115.88 h0.0001
M99.38,109.9 h0.0001
M106.79,42.13 h0.0001
M106.83,115.64 h0.0001
M107.67,113.71 h0.0001
M107.88,122.12 h0.0001
M111.18,14.95 h0.0001
M115.3,85.2 h0.0001
M122.18,117.16 h0.0001
M1.34,36.55 h0.0001
M6.17,64.69 h0.0001
M14.45,86.96 h0.0001
M15.01,118.43 h0.0001
M15.04,19.83 h0.0001
M16.15,13.78 h0.0001
M18.77,35.55 h0.0001
M25.93,125.6 h0.0001
M28.55,26.26 h0.0001
M30.09,56.1 h0.0001
M30.56,115.22 h0.0001
M31.56,59.5 h0.0001
M34.23,22.51 h0.0001
M35.13,68.86 h0.0001
M36.01,67.07 h0.0001
M36.44,21.77 h0.0001
M37.75,10.56 h0.0001
M43.74,115.74 h0.0001
M45.59,60.36 h0.0001
M49.28,82.28 h0.0001
M50.05,111.34 h0.0001
M53.27,21.68 h0.0001
M53.38,101.99 h0.0001
M57.57,89.54 h0.0001
M58.28,19.58 h0.0001
M62.29,8.31 h0.0001
M64.38,49.6 h0.0001
M64.98,13.23 h0.0001
M72.39,90.53 h0.0001
M76.85,85.1 h0.0001
M79.99,7.51 h0.0001
M91.97,25.68 h0.0001
M92.57,60.19 h0.0001
M94.95,127.28 h0.0001
M95.24,84.62 h0.0001
M97.13,56.31 h0.0001
M98.98,67.56 h0.0001
M99.16,95.77 h0.0001
M101.33,32.57 h0.0001
M104.56,97.53 h0.0001
M104.56,64.21 h0.0001
M105.51,3.22 h0.0001
M105.73,121.48 h0.0001
M110.87,69.13 h0.0001
M113.68,121.83 h0.0001
M115.25,96.42 h0.0001
M115.87,52.75 h0.0001
M119.39,92.64 h0.0001
M120.02,23.65 h0.0001
M126.44,103.94 h0.0001
M5.28,52.89 h0.0001
M8.24,121.41 h0.0001
M8.35,76.75 h0.0001
M12.05,19.41 h0.0001
M14.05,104.55 h0.0001
M14.32,55.99 h0.0001
M15.32,0.64 h0.0001
M17.2,111.15 h0.0001
M18.65,112.39 h0.0001
M27.35,127.49 h0.0001
M30.43,117.42 h0.0001
M32.6,106.99 h0.0001
M37.72,43.52 h0.0001
M38,105.43 h0.0001
M39.94,23.78 h0.0001
M40.44,10.47 h0.0001
M41.74,21.88 h0.0001
M52.04,60.77 h0.0001
M57.05,80.78 h0.0001
M62.17,117.16 h0.0001
M78.12,51.45 h0.0001
M81.38,14.31 h0.0001
M81.92,17.27 h0.0001
M83.49,33.75 h0.0001
M87.82,104.59 h0.0001
M87.86,94.83 h0.0001
M93.34,32.16 h0.0001
M106.09,18.43 h0.0001
M107.05,7.97 h0.0001
M107.48,90.02 h0.0001
M110.34,31.85 h0.0001
M110.4,44.85 h0.0001
M115.01,110.2 h0.0001
M118.09,11.86 h0.0001
M121.93,7.63 h0.0001
M0.5,115.93 h0.0001
M3.89,122.19 h0.0001
M6.09,101.61 h0.0001
M6.66,82.55 h0.0001
M13.09,34.53 h0.0001
M17.34,27.76 h0.0001
M19.51,103.34 h0.0001
M21,89.63 h0.0001
M21.7,64.45 h0.0001
M37.27,15.45 h0.0001
M39.97,77.3 h0.0001
M41.54,35.15 h0.0001
M44.22,92.52 h0.0001
M49.04,79.7 h0.0001
M51.47,37.88 h0.0001
M53.46,87.92 h0.0001
M55.9,42.17 h0.0001
M57.98,101.71 h0.0001
M58.43,85.44 h0.0001
M58.79,16.31 h0.0001
M72.53,26.07 h0.0001
M73.05,102.12 h0.0001
M74.21,105.85 h0.0001
M74.4,98.84 h0.0001
M74.48,58.06 h0.0001
M76.65,115.62 h0.0001
M76.77,3.14 h0.0001
M78.86,48.92 h0.0001
M80.48,12.34 h0.0001
M83.07,55.79 h0.0001
M83.44,28.69 h0.0001
M85.58,114.92 h0.0001
M86.37,112.61 h0.0001
M90.07,54.48 h0.0001
M90.93,3.57 h0.0001
M97.39,44.37 h0.0001
M99.73,10.41 h0.0001
M110.44,9.49 h0.0001
M110.63,82.64 h0.0001
M110.94,108.61 h0.0001
M112.41,1.18 h0.0001
M113.14,37.27 h0.0001
M118.31,74.92 h0.0001
M118.58,41.65 h0.0001
M124.76,16.6 h0.0001
M125.84,23.81 h0.0001
M1.83,126.97 h0.0001
M4.19,30.61 h0.0001
M5.17,42.44 h0.0001
M5.18,35.76 h0.0001
M5.87,22.48 h0.0001
M14.93,89.76 h0.0001
M15.35,57.94 h0.0001
M19.36,114.37 h0.0001
M24.36,62.89 h0.0001
M26.17,38.57 h0.0001
M28.25,16.36 h0.0001
M28.76,11.82 h0.0001
M34.85,59.15 h0.0001
M38.02,8.34 h0.0001
M39.86,19.3 h0.0001
M47.06,23.34 h0.0001
M47.11,80.97 h0.0001
M48.42,110.03 h0.0001
M51.78,94.15 h0.0001
M55.83,58.91 h0.0001
M56.15,99.26 h0.0001
M60.84,10.03 h0.0001
M62.21,42.52 h0.0001
M64.65,90.66 h0.0001
M65.16,32.4 h0.0001
M71.79,19.47 h0.0001
M73.49,49.61 h0.0001
M77.65,31.52 h0.0001
M78.52,78.19 h0.0001
M82.86,92.64 h0.0001
M82.96,98.94 h0.0001
M84.82,3.8 h0.0001
M85.53,41.39 h0.0001
M86.35,59.49 h0.0001
M88.27,67.52 h0.0001
M94.69,102.94 h0.0001
M98.89,32.43 h0.0001
M99.57,112.65 h0.0001
M99.94,73.11 h0.0001
M102.05,26.55 h0.0001
M102.96,86.96 h0.0001
M106.59,22.57 h0.0001
M111.27,111.8 h0.0001
M112.79,27.83 h0.0001
M0.65,67.87 h0.0001
M3.73,58.86 h0.0001
M12.87,64.81 h0.0001
M14.7,76.69 h0.0001
M18.58,15.08 h0.0001
M26.6,34.84 h0.0001
M30.5,92.21 h0.0001
M34.3,101.74 h0.0001
M46.46,57.83 h0.0001
M48.98,106.92 h0.0001
M50.91,90.78 h0.0001
M54,4.11 h0.0001
M56.82,46.12 h0.0001
M59.97,26.03 h0.0001
M70.52,15.21 h0.0001
M76.38,20.65 h0.0001
M76.43,94.31 h0.0001
M83.89,69.31 h0.0001
M85.65,110.76 h0.0001
M89.13,27.97 h0.0001
M89.47,103.83 h0.0001
M92.02,107.65 h0.0001
M92.29,99.21 h0.0001
M95.95,124.51 h0.0001
M97.46,111.05 h0.0001
M97.54,42.09 h0.0001
M99.88,87.82 h0.0001
M102.61,49.19 h0.0001
M105.49,12.68 h0.0001
M106.63,65.23 h0.0001
M110.74,24.69 h0.0001
M112.58,39.88 h0.0001
M112.97,29.98 h0.0001
M120.62,74.04 h0.0001
M5.43,114.77 h0.0001
M5.61,46.86 h0.0001
M15.57,46.5 h0.0001
M15.93,83.18 h0.0001
M16.95,10.33 h0.0001
M17.68,43.8 h0.0001
M19.18,69.85 h0.0001
M19.81,67.47 h0.0001
M26.65,28.81 h0.0001
M28.94,69.45 h0.0001
M30.29,126.69 h0.0001
M30.7,10.95 h0.0001
M30.93,22.05 h0.0001
M32.34,63.49 h0.0001
M34.78,120.16 h0.0001
M36.5,51.31 h0.0001
M40.53,28.64 h0.0001
M48.5,121.76 h0.0001
M51.53,3.36 h0.0001
M53.49,17.47 h0.0001
M53.81,65.26 h0.0001
M67.39,122.59 h0.0001
M71.7,3.7 h0.0001
M72.1,68.98 h0.0001
M76.8,109.13 h0.0001
M79.36,103.27 h0.0001
M80.88,10.01 h0.0001
M81.5,114.82 h0.0001
M87.02,4.38 h0.0001
M87.49,14.46 h0.0001
M88.38,110.54 h0.0001
M96.56,54.2 h0.0001
M97.55,35.5 h0.0001
M98.94,12.77 h0.0001
M99.78,21.87 h0.0001
M100.27,18.75 h0.0001
M116.25,67.36 h0.0001
M118.16,0.5 h0.0001
M121.93,45.92 h0.0001
M122.02,86.22 h0.0001
M122.51,44.12 h0.0001
M124.03,38.11 h0.0001
M6.61,68.62 h0.0001
M9.2,56.63 h0.0001
M16.63,74.81 h0.0001
M18.06,82.14 h0.0001
M21.52,85.57 h0.0001
M34.18,8.96 h0.0001
M41.11,108.57 h0.0001
M44.5,80.68 h0.0001
M44.88,105.5 h0.0001
M46.65,36.21 h0.0001
M46.8,44.48 h0.0001
M47.9,40 h0.0001
M49.58,50.43 h0.0001
M51.55,88.13 h0.0001
M53.83,67.86 h0.0001
M62.46,120 h0.0001
M69.92,117.12 h0.0001
M71.4,85.65 h0.0001
M73.02,37.32 h0.0001
M75.48,102.05 h0.0001
M83.44,119.62 h0.0001
M83.51,17 h0.0001
M85.56,103.53 h0.0001
M86.06,12.42 h0.0001
M87.01,73.37 h0.0001
M93.67,14.88 h0.0001
M96.57,47.77 h0.0001
M97.72,87.9 h0.0001
M97.79,113.56 h0.0001
M99.44,7.95 h0.0001
M100.73,63.45 h0.0001
M101.4,85.22 h0.0001
M102.32,9.42 h0.0001
M109.78,54.98 h0.0001
M111.79,67.4 h0.0001
M112.66,96.88 h0.0001
M112.74,9 h0.0001 m-0.0001,0 h0.0001
M114.4,23.76 h0.0001
M114.78,107.82 h0.0001
M116.38,28.9 h0.0001
M119.34,120.37 h0.0001
M121.57,17.71 h0.0001
M1.13,69.73 h0.0001
M2.42,26.67 h0.0001
M2.75,10.07 h0.0001
M4.03,64.71 h0.0001
M4.79,27.78 h0.0001
M6.38,106.83 h0.0001
M10.33,25.52 h0.0001
M11.94,81.27 h0.0001
M12.11,94.32 h0.0001
M21.88,77.98 h0.0001
M22,101.1 h0.0001
M26.05,115.46 h0.0001
M32.54,44.52 h0.0001
M36.12,70.54 h0.0001
M37.82,89.2 h0.0001
M37.95,17.82 h0.0001
M47.06,33.6 h0.0001
M51.16,120.75 h0.0001
M53.97,59.86 h0.0001
M62.82,101.83 h0.0001
M66.98,79.31 h0.0001
M67.79,62.18 h0.0001
M75.07,86.81 h0.0001
M77.21,54.04 h0.0001
M82.87,103.79 h0.0001
M86.57,61.77 h0.0001
M88.37,33.68 h0.0001
M95.65,96.16 h0.0001
M99.89,115.56 h0.0001
M102.67,18.72 h0.0001
M103.72,21.29 h0.0001
M107.75,21.15 h0.0001
M112.22,116.68 h0.0001
M119.01,118.09 h0.0001
M123.1,48.4 h0.0001
M3.22,17.09 h0.0001
M7.26,32.72 h0.0001
M7.76,108.84 h0.0001
M9.51,110.61 h0.0001
M9.7,19.58 h0.0001
M10.88,51.2 h0.0001
M13.13,52.17 h0.0001
M16.95,122.35 h0.0001
M25.92,112.27 h0.0001
M30.23,88.17 h0.0001
M30.32,37.76 h0.0001
M31.68,46.48 h0.0001
M32.37,87.97 h0.0001
M42.63,7.73 h0.0001
M48.17,56.11 h0.0001
M51.28,44.48 h0.0001
M51.62,32.92 h0.0001
M51.97,5.45 h0.0001
M59.52,35.03 h0.0001
M64.36,57.56 h0.0001
M66.9,38.1 h0.0001
M68.34,26.58 h0.0001
M71.72,127.09 h0.0001
M73.04,84.63 h0.0001
M80.78,127.13 h0.0001
M83.69,72.11 h0.0001
M87.66,38.94 h0.0001
M94.95,16.28 h0.0001
M96.38,62.64 h0.0001
M96.5,104.11 h0.0001
M100.73,3.35 h0.0001
M101.05,118.2 h0.0001
M101.96,115.7 h0.0001
M104.19,119.86 h0.0001
M106.63,83.52 h0.0001
M109.14,104.09 h0.0001
M111.39,100.84 h0.0001
M116.97,2.12 h0.0001
M119.02,87.07 h0.0001
M119.77,88.89 h0.0001
M126.47,39.34 h0.0001
M126.67,78.35 h0.0001
M1.99,15.3 h0.0001
M2.67,119.01 h0.0001
M5.75,10.67 h0.0001
M7.44,40.85 h0.0001
M8.36,8 h0.0001
M28.22,98.83 h0.0001
M32.26,9.44 h0.0001
M35.01,95.57 h0.0001
M35.49,16.83 h0.0001
M37.62,103.23 h0.0001
M49.03,125.02 h0.0001
M51.76,47.01 h0.0001
M54.77,47.59 h0.0001
M55.99,56.38 h0.0001
M56.33,87.28 h0.0001
M56.61,97.02 h0.0001
M60.02,60.16 h0.0001
M60.57,118.85 h0.0001
M64.26,99.36 h0.0001
M64.84,67.56 h0.0001
M65.12,51.74 h0.0001
M76.38,72.11 h0.0001
M80.03,62.3 h0.0001
M93.02,7.26 h0.0001
M101.28,90.73 h0.0001
M108.48,67.9 h0.0001
M110.37,122.09 h0.0001
M110.46,89.76 h0.0001
M113.07,79.58 h0.0001
M117.99,124.53 h0.0001
M121.04,66.2 h0.0001
M122.05,121.48 h0.0001
M124.23,107.8 h0.0001
M124.88,52.01 h0.0001
M4.64,76.99 h0.0001
M15.17,92.85 h0.0001
M16.81,5.25 h0.0001
M21.28,96.15 h0.0001
M23.63,58.35 h0.0001
M24.34,7.27 h0.0001
M28.09,77.16 h0.0001
M28.65,78.91 h0.0001
M30.78,19.54 h0.0001
M33.75,51.34 h0.0001
M33.8,111.84 h0.0001
M34.55,103.9 h0.0001
M34.84,61.05 h0.0001
M35.21,36.42 h0.0001
M35.93,117.46 h0.0001
M39.93,71.77 h0.0001
M40.71,115.87 h0.0001
M41.92,123.77 h0.0001
M43.01,66.47 h0.0001
M44.67,23.15 h0.0001
M47.46,74.49 h0.0001
M53.93,54.99 h0.0001
M56.2,7.69 h0.0001
M61.03,2.97 h0.0001
M61.27,15.65 h0.0001
M67.63,75.48 h0.0001
M67.77,14.15 h0.0001
M68.69,115.45 h0.0001
M73.67,20.32 h0.0001
M83.58,35.7 h0.0001
M83.72,113.14 h0.0001
M87.67,41.02 h0.0001
M88.75,8.61 h0.0001
M98.41,62.93 h0.0001
M103.52,23.41 h0.0001
M106.84,49.5 h0.0001
M107.72,28.16 h0.0001
M117.04,20.39 h0.0001
M120.79,124.66 h0.0001
M120.98,90.84 h0.0001
M0.5,1.13 h0.0001
M11.76,86.33 h0.0001
M16.99,100.74 h0.0001
M18.55,1.75 h0.0001
M21.21,68.82 h0.0001
M21.56,120.21 h0.0001
M25.7,72.88 h0.0001
M26.13,109.73 h0.0001
M28.86,28.45 h0.0001
M30.55,80.17 h0.0001
M31.52,82.32 h0.0001
M36.99,120.83 h0.0001
M42.76,29.64 h0.0001
M44.4,111.05 h0.0001
M49.16,46.01 h0.0001
M56.14,91.26 h0.0001
M57.08,36.32 h0.0001
M69.85,58.19 h0.0001
M70.02,102.01 h0.0001
M71.21,119.7 h0.0001"/>
  <path stroke-linecap="round" stroke-width="1" stroke="#685d45" opacity=".4" d="
M85.23,124.68 h0.0001
M87.79,55.05 h0.0001
M89.37,76.6 h0.0001
M90.15,62.17 h0.0001
M91.49,33.8 h0.0001
M92.89,76.97 h0.0001
M93.19,119.99 h0.0001
M96.72,27.74 h0.0001
M97,60 h0.0001
M97.58,76.97 h0.0001
M98.05,74.59 h0.0001
M98.12,93.31 h0.0001
M104.97,103.84 h0.0001
M106.69,25.9 h0.0001
M108.85,30.24 h0.0001
M112.89,93.1 h0.0001
M114.92,1.25 h0.0001
M115.06,76.25 h0.0001
M115.62,47.56 h0.0001
M118.86,79.77 h0.0001
M120.52,32.63 h0.0001
M121.96,50.46 h0.0001
M123.73,54.03 h0.0001
M3.16,24.51 h0.0001
M6.13,26.25 h0.0001
M12.28,72.27 h0.0001
M17.59,46.85 h0.0001
M21.98,98.22 h0.0001
M28.84,53.96 h0.0001
M33.59,78.81 h0.0001
M39.48,32.66 h0.0001
M44.13,19.56 h0.0001
M47.26,78.43 h0.0001
M47.32,90.01 h0.0001
M47.41,69.08 h0.0001
M47.78,20.45 h0.0001
M52.9,106.03 h0.0001
M55.73,37.83 h0.0001
M60.54,79.15 h0.0001
M60.78,87.61 h0.0001
M64.86,108.42 h0.0001
M66.62,92.06 h0.0001
M68.13,90.81 h0.0001
M69.63,106.02 h0.0001
M73.87,62.05 h0.0001
M79.77,38.84 h0.0001
M81.1,121.55 h0.0001
M87.96,100.94 h0.0001
M99.21,37.35 h0.0001
M101.54,21.02 h0.0001
M101.61,88.48 h0.0001
M104.83,41.68 h0.0001
M106.99,77.71 h0.0001
M107.16,103.77 h0.0001
M108.89,48.85 h0.0001
M113.3,34.9 h0.0001
M115.49,82.98 h0.0001
M117.53,83.86 h0.0001
M118.52,27.28 h0.0001
M124.5,62.88 h0.0001
M126.92,92.49 h0.0001
M0.81,31.24 h0.0001
M3.25,21.8 h0.0001
M3.39,99.6 h0.0001
M6.07,56.91 h0.0001
M6.18,62.44 h0.0001
M7.54,14.06 h0.0001
M8.7,54.62 h0.0001
M13.45,91.62 h0.0001
M14.53,30.38 h0.0001
M20.58,43.35 h0.0001
M22.69,74.44 h0.0001
M25.76,31.38 h0.0001
M30.52,72.8 h0.0001
M32.95,42.15 h0.0001
M34.21,27.22 h0.0001
M37.58,118.46 h0.0001
M38.96,113.35 h0.0001
M39.79,118.21 h0.0001
M40.29,125.99 h0.0001
M45.02,14.15 h0.0001
M48.96,14.94 h0.0001
M53.21,45.87 h0.0001
M53.35,0.6 h0.0001
M60.59,126.85 h0.0001
M63.11,24.66 h0.0001
M63.44,62.97 h0.0001
M67.01,65.64 h0.0001
M67.28,44.45 h0.0001
M71.45,74.46 h0.0001
M72.07,111.85 h0.0001
M72.16,44.52 h0.0001
M73.77,41.02 h0.0001
M85.97,65.11 h0.0001
M86.11,51.11 h0.0001
M89.93,32.94 h0.0001
M93.72,42.82 h0.0001
M94.33,108.43 h0.0001
M97.85,21.71 h0.0001
M103.4,121.74 h0.0001
M105.41,9.38 h0.0001
M110.81,85.41 h0.0001
M111.09,103.4 h0.0001
M113.07,57.65 h0.0001
M119.27,99.39 h0.0001
M120.72,59.05 h0.0001
M123.66,56.16 h0.0001
M126.47,19.71 h0.0001
M0.76,48.85 h0.0001
M1,65.41 h0.0001
M1.64,83.08 h0.0001
M3.5,69.05 h0.0001
M4.14,83.69 h0.0001
M4.7,92.76 h0.0001
M4.81,108.86 h0.0001
M14.16,62.92 h0.0001
M19.25,45.48 h0.0001
M23.5,102.23 h0.0001
M35.34,47.06 h0.0001
M39.4,101.69 h0.0001
M44.97,124.31 h0.0001
M45.19,70.45 h0.0001
M50.17,108.59 h0.0001
M51.79,26.81 h0.0001
M52.88,39.49 h0.0001
M52.95,35.6 h0.0001
M55.91,124.67 h0.0001
M58.45,127.4 h0.0001
M59.09,77.17 h0.0001
M60.38,7.38 h0.0001
M65.55,124.36 h0.0001
M69.1,3.54 h0.0001
M70.18,80.58 h0.0001
M72.6,97.51 h0.0001
M73.81,69.11 h0.0001
M76.63,27.48 h0.0001
M78.37,112.6 h0.0001
M78.5,110.5 h0.0001
M78.65,23.79 h0.0001
M79.64,17.92 h0.0001
M83.17,90 h0.0001
M84.02,45.52 h0.0001
M84.62,59.28 h0.0001
M85.49,67.24 h0.0001
M86.81,106.18 h0.0001
M91.9,93.98 h0.0001
M92.68,54.76 h0.0001
M96.47,6.48 h0.0001
M97.55,80.63 h0.0001
M98.92,3.24 h0.0001
M103.17,76.88 h0.0001
M103.32,102.61 h0.0001
M108.65,26 h0.0001
M110.74,39.84 h0.0001
M112.76,47.59 h0.0001
M117.24,14.21 h0.0001
M122.98,94.13 h0.0001
M125.68,36.21 h0.0001
M7.17,111.06 h0.0001
M9.18,33.44 h0.0001
M10.11,80.24 h0.0001
M10.31,64.52 h0.0001
M22.35,70.36 h0.0001
M25.27,81.95 h0.0001
M30.38,104.34 h0.0001
M33.17,31.03 h0.0001
M35.24,64.52 h0.0001
M36.23,92.22 h0.0001
M40.82,13.97 h0.0001
M43.42,125.59 h0.0001
M44.19,44.96 h0.0001
M56.12,9.92 h0.0001
M58.41,7.93 h0.0001
M65.44,64.55 h0.0001
M76.92,81.95 h0.0001
M90.1,5.47 h0.0001
M90.24,127.4 h0.0001
M94,116.41 h0.0001
M94.67,10.04 h0.0001
M99.7,27.79 h0.0001
M115.04,63.39 h0.0001
M116.94,64.28 h0.0001
M124.85,78.91 h0.0001
M127.4,126.56 h0.0001
M0.8,33.94 h0.0001
M2.34,71.52 h0.0001
M5.51,59.85 h0.0001
M10.7,97.02 h0.0001
M14.39,13.04 h0.0001
M23.66,68.07 h0.0001
M23.81,65.57 h0.0001
M26.13,1.34 h0.0001
M29.07,35.3 h0.0001
M29.09,52.05 h0.0001
M33.56,55.29 h0.0001
M33.83,33.01 h0.0001
M34.9,98.89 h0.0001
M35.57,53.47 h0.0001
M35.6,13.83 h0.0001
M43.37,11.93 h0.0001
M43.94,35.16 h0.0001
M46.94,12.49 h0.0001
M51.39,9.3 h0.0001
M55.52,85.2 h0.0001
M62.63,78.63 h0.0001
M67.78,28.73 h0.0001
M69.19,16.81 h0.0001
M73.76,108.16 h0.0001
M75.65,56.08 h0.0001
M79.57,30.63 h0.0001
M82.61,40.24 h0.0001
M85.54,18.52 h0.0001
M95.03,46.72 h0.0001
M95.23,38.2 h0.0001
M97.08,83.84 h0.0001
M99.12,39.85 h0.0001
M110.24,126.72 h0.0001
M115.79,74.33 h0.0001
M122,13.08 h0.0001
M123.39,71.05 h0.0001
M126,117.28 h0.0001
M126.21,73.65 h0.0001
M1.83,2.8 h0.0001
M8.25,62.61 h0.0001
M12.46,113.28 h0.0001
M14.35,112.45 h0.0001
M19.79,87.75 h0.0001
M22.05,124.53 h0.0001
M24.39,27.9 h0.0001
M26.22,12.85 h0.0001
M28.59,125.24 h0.0001
M28.97,100.82 h0.0001
M29.75,45.74 h0.0001
M32.84,85.91 h0.0001
M35.97,107.8 h0.0001
M40.13,104.29 h0.0001
M42.56,127.19 h0.0001
M48.64,76.69 h0.0001
M55.63,94.99 h0.0001
M61.28,5.22 h0.0001
M62.3,44.91 h0.0001
M63.1,123.24 h0.0001
M63.68,126.83 h0.0001
M71.98,106.07 h0.0001
M72.39,7.64 h0.0001
M74.21,94.91 h0.0001
M74.97,78.81 h0.0001
M78.92,71.79 h0.0001
M81.82,44.36 h0.0001
M83.51,13.83 h0.0001
M87.83,90.52 h0.0001
M87.95,69.34 h0.0001
M94.95,51.5 h0.0001
M96.23,24.09 h0.0001
M96.71,25.89 h0.0001
M99.78,80.56 h0.0001
M107.61,10.41 h0.0001
M108.55,37.05 h0.0001
M108.89,5.4 h0.0001
M110.48,1.09 h0.0001
M110.79,49.85 h0.0001
M113.22,26.07 h0.0001
M113.25,49.73 h0.0001
M117.19,111.59 h0.0001
M117.74,38.23 h0.0001
M119.52,69.26 h0.0001
M124.87,49.87 h0.0001
M125.79,94.15 h0.0001
M126.85,89.92 h0.0001
M1.46,113.84 h0.0001
M3.01,115.28 h0.0001
M8.61,113.63 h0.0001
M9.89,49.76 h0.0001
M10.12,44.38 h0.0001
M10.47,84.66 h0.0001
M12.28,90.25 h0.0001
M21.77,115.82 h0.0001
M23.08,26.42 h0.0001
M24.71,4.05 h0.0001
M26.64,40.87 h0.0001
M32.39,29 h0.0001
M32.61,61.28 h0.0001
M36.25,25.38 h0.0001
M37.96,25.86 h0.0001
M38.28,115.89 h0.0001
M39.42,70.02 h0.0001
M39.98,46.49 h0.0001
M40.37,51.01 h0.0001
M43,9.65 h0.0001
M44.95,117.42 h0.0001
M46.57,28.27 h0.0001
M47.9,96.48 h0.0001
M50.27,72.18 h0.0001
M55.31,110.19 h0.0001
M58.4,38.28 h0.0001
M59.64,121.2 h0.0001
M62.65,113.79 h0.0001
M68.8,87.08 h0.0001
M71.38,103.88 h0.0001
M71.98,55.14 h0.0001
M79.68,32.89 h0.0001
M80.68,73.22 h0.0001
M82.03,60.42 h0.0001
M82.57,46.82 h0.0001
M85.05,37.43 h0.0001
M86.94,10.65 h0.0001
M87.99,46.94 h0.0001
M88.81,50.22 h0.0001
M89.24,85.24 h0.0001
M94.62,79.03 h0.0001
M100.98,47.63 h0.0001
M101.54,127.09 h0.0001
M103.48,40.31 h0.0001
M106.44,101.91 h0.0001
M115.8,120.97 h0.0001
M118.48,57.02 h0.0001
M118.99,60.32 h0.0001
M124.07,113.74 h0.0001
M124.57,58.02 h0.0001
M126.28,43.72 h0.0001
M126.74,65.28 h0.0001
M12.91,26.44 h0.0001
M16.6,106.86 h0.0001
M17.03,89.77 h0.0001
M23.67,16.48 h0.0001
M35.16,124.15 h0.0001
M35.96,78.67 h0.0001
M38.3,37.19 h0.0001
M39.07,2.67 h0.0001
M45.36,90.39 h0.0001
M45.9,113.43 h0.0001
M52.34,49.28 h0.0001
M55.09,122.28 h0.0001
M60.49,19.91 h0.0001
M60.52,46.61 h0.0001
M65.63,71.06 h0.0001
M69.37,34.7 h0.0001
M76.3,25.19 h0.0001
M78.86,105.56 h0.0001
M80.93,80.85 h0.0001
M92.16,40.95 h0.0001
M96.44,108.34 h0.0001
M97.29,39.27 h0.0001
M102.29,29.32 h0.0001
M106.82,119.53 h0.0001
M107.99,85.74 h0.0001
M111.02,87.4 h0.0001
M114.78,61.23 h0.0001
M120.62,15.32 h0.0001
M121.14,37.6 h0.0001
M121.62,61.73 h0.0001
M124.18,85.95 h0.0001
M124.97,110 h0.0001
M126.27,115.07 h0.0001
M127.4,9.38 h0.0001
M6.28,84.48 h0.0001
M7.81,18.43 h0.0001
M12.54,108.13 h0.0001
M20.31,61.86 h0.0001
M23.13,44.39 h0.0001
M23.53,9.59 h0.0001
M30.03,8.57 h0.0001
M35.35,105.84 h0.0001
M42.26,40.16 h0.0001
M44.47,97.24 h0.0001
M46.69,118.8 h0.0001
M47.32,123.91 h0.0001
M49.89,56.05 h0.0001
M51.64,117.04 h0.0001
M53.26,85.4 h0.0001
M57.43,53.57 h0.0001
M58.26,108.71 h0.0001
M60.41,37.1 h0.0001
M69.58,51.5 h0.0001
M70.73,95.91 h0.0001
M73.71,113.1 h0.0001
M76.72,5.35 h0.0001
M78.12,123.74 h0.0001
M78.2,28.87 h0.0001
M80.75,83.43 h0.0001
M81.74,69.48 h0.0001
M89.99,74.49 h0.0001
M91.72,43.35 h0.0001
M104.18,85.12 h0.0001
M105.43,90.05 h0.0001
M108.11,17.13 h0.0001
M117.9,76.87 h0.0001
M119,18.69 h0.0001
M120.76,47.48 h0.0001
M121.99,26.67 h0.0001
M122.7,28.78 h0.0001
M126.49,62.45 h0.0001
M127.39,36.73 h0.0001
M7.08,28.58 h0.0001
M10.25,126.73 h0.0001
M10.61,31.53 h0.0001
M11.54,116.05 h0.0001
M12.6,7.34 h0.0001
M14.69,96.97 h0.0001
M15.9,104.87 h0.0001
M16.52,77.11 h0.0001
M23.98,99.55 h0.0001
M26.21,8.36 h0.0001
M28.34,18.46 h0.0001
M30.37,64.43 h0.0001
M30.49,108.92 h0.0001
M33.29,69.74 h0.0001
M33.5,14.46 h0.0001
M37.66,108.47 h0.0001
M40.32,88.45 h0.0001
M50.01,86.48 h0.0001
M54.32,126.61 h0.0001
M55.16,81.24 h0.0001
M62.89,97.97 h0.0001
M63.27,39.63 h0.0001
M68.19,36.5 h0.0001
M71.7,33.49 h0.0001
M73.39,87.83 h0.0001
M73.75,55.47 h0.0001
M74.66,126.3 h0.0001
M77.31,33.83 h0.0001
M80.01,46.03 h0.0001
M84.13,24.13 h0.0001
M84.41,105.17 h0.0001
M85.03,39.5 h0.0001
M85.34,88.17 h0.0001
M85.4,6.06 h0.0001
M94.72,19.57 h0.0001
M99.3,126.17 h0.0001
M105.19,20.12 h0.0001
M110.85,29.39 h0.0001
M111.01,124.79 h0.0001
M111.72,52.74 h0.0001
M116.6,26.84 h0.0001
M123.85,9.95 h0.0001
M126.52,113.18 h0.0001
M126.91,55.32 h0.0001
M126.94,15.06 h0.0001
M0.6,107.8 h0.0001
M4.17,55.58 h0.0001
M6.78,54.55 h0.0001
M9.88,35.98 h0.0001
M10.16,108.32 h0.0001
M11.24,21.45 h0.0001
M11.99,122.42 h0.0001
M16.45,8.12 h0.0001
M20.85,91.86 h0.0001
M20.93,122.71 h0.0001
M27.62,45.61 h0.0001
M31.08,43.04 h0.0001
M31.48,67.5 h0.0001
M41.1,31 h0.0001
M41.85,24.58 h0.0001
M45.37,11.49 h0.0001
M48.67,28.75 h0.0001
M49.47,38.8 h0.0001
M57.68,104.34 h0.0001
M58.1,61.15 h0.0001
M65.62,126.5 h0.0001
M70.47,13.11 h0.0001
M71.29,79.39 h0.0001
M72.08,82.53 h0.0001
M75.69,111.58 h0.0001
M75.98,10.37 h0.0001
M76.63,59.38 h0.0001
M77.16,127.07 h0.0001
M87.91,115.09 h0.0001
M87.95,124.44 h0.0001
M92.38,1.48 h0.0001
M93.58,94.69 h0.0001
M101.53,75.3 h0.0001
M105.68,69.82 h0.0001
M111.05,78.27 h0.0001
M113.8,54.06 h0.0001
M114.61,93.52 h0.0001
M115.84,59.48 h0.0001
M120.43,78.71 h0.0001
M120.46,76.42 h0.0001
M121.61,4.72 h0.0001
M124.37,27.58 h0.0001
M124.43,44.36 h0.0001
M127.21,106.06 h0.0001
M5.01,0.73 h0.0001
M5.45,98.76 h0.0001
M14.54,84.88 h0.0001
M23.41,48.1 h0.0001
M27.09,123.01 h0.0001
M28.71,72.01 h0.0001
M33.09,53.2 h0.0001
M35,29.9 h0.0001
M37.37,33.53 h0.0001
M40.43,90.22 h0.0001
M43.6,64.66 h0.0001
M43.85,118.96 h0.0001
M44.84,47.14 h0.0001
M46.81,4.7 h0.0001
M48.46,84.68 h0.0001
M50.69,62.33 h0.0001
M57.91,94.5 h0.0001
M58.64,92.6 h0.0001
M65.28,86.56 h0.0001
M68.18,124.58 h0.0001
M69.81,39.73 h0.0001
M70.65,113.96 h0.0001
M74.24,66.69 h0.0001
M78.43,99.53 h0.0001
M83.08,123.99 h0.0001
M93.65,110.55 h0.0001
M94.64,70.96 h0.0001
M99.01,122.64 h0.0001
M100.92,6.01 h0.0001
M100.98,120.8 h0.0001
M102.91,3.25 h0.0001
M104.88,61.3 h0.0001
M106.61,62.36 h0.0001
M113.55,111.46 h0.0001
M114.32,11.28 h0.0001
M115.18,9.15 h0.0001
M121.55,111.67 h0.0001
M126.78,95.95 h0.0001
M4.58,119.99 h0.0001
M7.43,115.84 h0.0001
M7.91,46.63 h0.0001
M12.25,67.34 h0.0001
M12.61,74.42 h0.0001
M14.41,68.21 h0.0001
M14.56,7.35 h0.0001
M17.33,108.94 h0.0001
M18.89,101.11 h0.0001
M21.27,59.31 h0.0001
M22.23,111.66 h0.0001
M31.45,3.65 h0.0001
M33.18,92.08 h0.0001
M34.38,84.17 h0.0001
M35.76,32.51 h0.0001
M36.13,90.28 h0.0001
M51.63,99.46 h0.0001
M53.25,12.15 h0.0001
M54.02,37.56 h0.0001
M55.48,69.43 h0.0001
M55.64,73.42 h0.0001
M58.26,64.05 h0.0001
M67.03,99.59 h0.0001
M68,39.62 h0.0001
M70.42,37.77 h0.0001"/>
  <path stroke-linecap="round" stroke-width=".8" stroke="#685d45" opacity=".4" d="
M75.27,84.07 h0.0001
M75.47,53.11 h0.0001
M76.18,124.85 h0.0001
M79.13,80.43 h0.0001
M85.59,30.53 h0.0001
M85.84,101.34 h0.0001
M90.8,121.36 h0.0001
M94.28,23 h0.0001
M94.34,59.63 h0.0001
M108.05,75.77 h0.0001
M108.91,123.98 h0.0001
M119.03,113.78 h0.0001
M120.26,1.98 h0.0001
M120.39,94.22 h0.0001
M120.41,106.62 h0.0001
M121.92,81.18 h0.0001
M124.54,88.27 h0.0001
M126.98,98.64 h0.0001
M0.54,81.31 h0.0001
M0.82,28.85 h0.0001
M2.96,123.47 h0.0001
M5.22,24.36 h0.0001
M6.28,17.14 h0.0001
M7.21,20.99 h0.0001
M7.22,104.1 h0.0001
M9.88,12.68 h0.0001
M13.23,120.35 h0.0001
M14.73,94.61 h0.0001
M17.77,66.5 h0.0001
M19.15,49.2 h0.0001
M19.27,116.71 h0.0001
M21.08,9.16 h0.0001
M22.8,55.04 h0.0001
M23.41,12.06 h0.0001
M27.23,47.53 h0.0001
M29.23,58.54 h0.0001
M30.93,69.86 h0.0001
M31.27,94.33 h0.0001
M46.65,67.44 h0.0001
M47.98,113.26 h0.0001
M48.84,114.86 h0.0001
M51.07,125.06 h0.0001
M51.37,112.75 h0.0001
M53.37,28.6 h0.0001
M55.09,89.17 h0.0001
M59.28,44.29 h0.0001
M64.6,122.33 h0.0001
M66.23,19.33 h0.0001
M66.57,116.43 h0.0001
M69.48,74.98 h0.0001
M70.88,98.28 h0.0001
M71.79,9.4 h0.0001
M74.84,96.67 h0.0001
M75.99,12.66 h0.0001
M76.24,92.01 h0.0001
M78.63,67.73 h0.0001
M82.78,76.97 h0.0001
M88.54,96.62 h0.0001
M90.39,125.52 h0.0001
M90.97,17.61 h0.0001
M94.97,3.51 h0.0001
M96.99,14.4 h0.0001
M97.47,99.05 h0.0001
M99.19,48.66 h0.0001
M102.26,96.31 h0.0001
M102.43,108.34 h0.0001
M107.06,108.49 h0.0001
M107.71,12 h0.0001
M108.54,81.22 h0.0001
M112.67,16.75 h0.0001
M114.89,124.95 h0.0001
M117.21,9.91 h0.0001
M118.69,95.44 h0.0001
M126.58,7.46 h0.0001
M127.2,51.77 h0.0001
M3.4,36.95 h0.0001
M8.29,105.98 h0.0001
M11.66,39.55 h0.0001
M14.24,65.87 h0.0001
M18.72,51.16 h0.0001
M21.55,66.37 h0.0001
M22.47,126.23 h0.0001
M24.04,120.26 h0.0001
M24.8,124.02 h0.0001
M29.07,74.7 h0.0001
M31.32,57.41 h0.0001
M40.28,62.51 h0.0001
M40.37,85.29 h0.0001
M41.91,1.74 h0.0001
M47.77,59.72 h0.0001
M49.77,48.16 h0.0001
M55.38,75.63 h0.0001
M56.49,26.63 h0.0001
M56.94,83.46 h0.0001
M58.87,82.83 h0.0001
M63.23,22.32 h0.0001
M66.57,104.59 h0.0001
M68.98,23.54 h0.0001
M69.19,64.12 h0.0001
M69.96,48.61 h0.0001
M72.05,52.82 h0.0001
M78.92,121.85 h0.0001
M81.58,54.37 h0.0001
M83.22,0.8 h0.0001
M92,19.52 h0.0001
M94.57,61.9 h0.0001
M96.23,86.54 h0.0001
M97.04,3.08 h0.0001
M97.12,119.58 h0.0001
M99.6,91.38 h0.0001
M100.72,30.75 h0.0001
M105.35,81.98 h0.0001
M109.23,14.15 h0.0001
M110.6,65.81 h0.0001
M113.23,44.77 h0.0001
M115.82,123.16 h0.0001
M122.2,23.16 h0.0001
M126.93,85.48 h0.0001
M9.99,105.75 h0.0001
M12.11,69.62 h0.0001
M14.68,15.6 h0.0001
M19.06,19.75 h0.0001
M23.3,52.39 h0.0001
M23.38,33.75 h0.0001
M23.4,90.35 h0.0001
M25.79,97.48 h0.0001
M27.99,80.86 h0.0001
M32.74,21.3 h0.0001
M37.31,71.84 h0.0001
M44.22,53.28 h0.0001
M49.19,34.82 h0.0001
M56.12,39.83 h0.0001
M56.43,33.15 h0.0001
M58.18,12.6 h0.0001
M58.69,46.83 h0.0001
M60.12,55.44 h0.0001
M67.44,69.9 h0.0001
M76.66,7.81 h0.0001
M76.79,38.14 h0.0001
M85.07,90.83 h0.0001
M90.15,1.38 h0.0001
M98.35,46.4 h0.0001
M110.58,56.92 h0.0001
M112.47,55.54 h0.0001
M115.71,55.44 h0.0001
M122.76,60.47 h0.0001
M125.37,69.36 h0.0001
M126.93,70.44 h0.0001
M127.2,13.1 h0.0001
M0.55,92.94 h0.0001
M2.68,32.5 h0.0001
M3.56,88.68 h0.0001
M4.9,86.23 h0.0001
M16.28,39.85 h0.0001
M16.43,60.22 h0.0001
M17.99,54.21 h0.0001
M20.17,12.84 h0.0001
M21.88,80.63 h0.0001
M32.33,6.97 h0.0001
M33.2,16.77 h0.0001
M37.82,111.2 h0.0001
M38.56,51.48 h0.0001
M39.6,79.22 h0.0001
M41.89,72.5 h0.0001
M46.45,17.7 h0.0001
M46.48,62.66 h0.0001
M48.62,65.8 h0.0001
M53.98,9.91 h0.0001
M59.74,102.28 h0.0001
M61.84,85.64 h0.0001
M70.04,7.32 h0.0001
M74.86,4.48 h0.0001
M75.14,42.51 h0.0001
M76.92,79.54 h0.0001
M77.41,46.23 h0.0001
M78.39,37.07 h0.0001
M92.6,122.39 h0.0001
M95.93,21.39 h0.0001
M96.87,94.93 h0.0001
M101.33,23.84 h0.0001
M115.41,91.08 h0.0001
M115.69,4.19 h0.0001
M117.94,46.27 h0.0001
M123.06,68.47 h0.0001
M125.98,121.51 h0.0001
M127.2,119.38 h0.0001
M0.43,76.75 h0.0001
M3.37,48.67 h0.0001
M10.43,114.54 h0.0001
M12.46,15.03 h0.0001
M12.82,54.1 h0.0001
M14.67,42.38 h0.0001
M18,127.57 h0.0001
M19.02,85.85 h0.0001
M19.46,37.48 h0.0001
M25.05,36.64 h0.0001
M25.78,89.53 h0.0001
M27.93,117.27 h0.0001
M34.87,88.01 h0.0001
M36.46,28.15 h0.0001
M41.58,68.99 h0.0001
M49.68,24.51 h0.0001
M55.65,112.24 h0.0001
M56.74,126.47 h0.0001
M58.98,96.31 h0.0001
M61.66,100.07 h0.0001
M62.16,31.24 h0.0001
M66.1,73.32 h0.0001
M66.22,120.51 h0.0001
M67.55,1.31 h0.0001
M68.18,77.66 h0.0001
M68.79,109.32 h0.0001
M69.63,84.99 h0.0001
M72.24,57.55 h0.0001
M73.49,74.66 h0.0001
M76.85,48.37 h0.0001
M80.9,104.57 h0.0001
M85.69,28.3 h0.0001
M94.55,44.64 h0.0001
M98.22,57.81 h0.0001
M103.51,46.53 h0.0001
M112.26,11.36 h0.0001
M124.97,8.45 h0.0001
M127.2,101.27 h0.0001
M4.01,3.25 h0.0001
M8.22,85.4 h0.0001
M8.65,68.01 h0.0001
M9.8,78.04 h0.0001
M17.3,85.07 h0.0001
M21.15,108.4 h0.0001
M21.98,41.81 h0.0001
M23.01,72.43 h0.0001
M23.79,96.81 h0.0001
M24.45,30 h0.0001
M27.85,10.11 h0.0001
M41.65,87.19 h0.0001
M45.44,25.77 h0.0001
M50.84,122.84 h0.0001
M51.06,82.35 h0.0001
M52.13,55.9 h0.0001
M54.17,25.48 h0.0001
M57.64,122.33 h0.0001
M57.77,25.27 h0.0001
M58.23,28.4 h0.0001
M62.24,71.57 h0.0001
M67.77,126.53 h0.0001
M74.18,121.29 h0.0001
M74.35,90.02 h0.0001
M75.88,30.28 h0.0001
M77.48,57.59 h0.0001
M80.88,21.33 h0.0001
M82.57,8.16 h0.0001
M82.68,80.8 h0.0001
M84.38,26.66 h0.0001
M92.28,101.51 h0.0001
M94.21,35.25 h0.0001
M101.75,51.07 h0.0001
M102.49,73.51 h0.0001
M103.28,57.16 h0.0001
M104.59,108.06 h0.0001
M107.84,96.01 h0.0001
M108.35,32.47 h0.0001
M113.07,90.51 h0.0001
M122.89,125.05 h0.0001
M124.14,119.93 h0.0001
M1.56,40.84 h0.0001
M9.85,122.36 h0.0001
M28.78,89.89 h0.0001
M32.65,39.86 h0.0001
M33.49,67.04 h0.0001
M41.61,80.55 h0.0001
M45.81,65.59 h0.0001
M48.4,10.41 h0.0001
M53.29,124.14 h0.0001
M54.19,6.49 h0.0001
M54.35,44.01 h0.0001
M63.3,76.75 h0.0001
M65.32,3.89 h0.0001
M71.98,100.35 h0.0001
M76.17,118.46 h0.0001
M78.11,11.1 h0.0001
M83.04,22.5 h0.0001
M85.95,120.73 h0.0001
M87.39,0.8 h0.0001
M89.27,117.76 h0.0001
M90.28,112.49 h0.0001
M90.89,9.34 h0.0001
M93.17,92.17 h0.0001
M95.66,100.91 h0.0001
M96.26,67.4 h0.0001
M96.59,117.4 h0.0001
M98.89,60.24 h0.0001
M100.33,57.4 h0.0001
M102.26,53.38 h0.0001
M102.4,44.69 h0.0001
M104.48,116.06 h0.0001
M105.97,53.38 h0.0001
M109.07,19.73 h0.0001
M109.65,97.72 h0.0001
M113.39,119.46 h0.0001
M113.77,98.71 h0.0001
M119.97,116.23 h0.0001
M120.07,5.8 h0.0001
M126.14,31.36 h0.0001
M0.43,122.49 h0.0001
M1.21,23.25 h0.0001
M2.56,78.4 h0.0001
M4.44,96.6 h0.0001
M6.05,8.4 h0.0001
M7.79,24.09 h0.0001
M9.08,74.17 h0.0001
M12.77,88.08 h0.0001
M17.55,25.23 h0.0001
M24.23,85.63 h0.0001
M26.13,5.6 h0.0001
M28.74,3.2 h0.0001
M30.83,51.09 h0.0001
M33.3,96.5 h0.0001
M38.83,45.15 h0.0001
M39.11,123.97 h0.0001
M41.84,32.92 h0.0001
M49.49,58.49 h0.0001
M54.74,14.35 h0.0001
M55.72,51.14 h0.0001
M55.75,21.21 h0.0001
M56.8,114.49 h0.0001
M58.4,23.44 h0.0001
M63.25,65.49 h0.0001
M63.89,84.6 h0.0001
M67.46,88.37 h0.0001
M69.29,59.84 h0.0001
M69.58,111.87 h0.0001
M76.83,14.7 h0.0001
M77.72,40.63 h0.0001
M80.83,92.72 h0.0001
M84.01,116.88 h0.0001
M87.95,119.93 h0.0001
M93.81,86.69 h0.0001
M101.43,61.34 h0.0001
M102.81,36.7 h0.0001
M105.53,117.97 h0.0001
M118.85,3.71 h0.0001
M119.29,35.53 h0.0001
M126.55,67.52 h0.0001
M1.19,51.13 h0.0001
M2,13.24 h0.0001
M4.01,19.65 h0.0001
M5.29,50.57 h0.0001
M10.2,70.05 h0.0001
M12.01,17.3 h0.0001
M23.96,94.58 h0.0001
M26.24,105.44 h0.0001
M28.63,39.09 h0.0001
M44.72,100.5 h0.0001
M45.99,20.29 h0.0001
M52.12,108.92 h0.0001
M52.75,118.92 h0.0001
M53.36,90.62 h0.0001
M61.34,69.97 h0.0001
M63.57,73.15 h0.0001
M64,27.01 h0.0001
M65.67,47.26 h0.0001
M65.87,62.82 h0.0001
M69.41,127.44 h0.0001
M72.25,117.77 h0.0001
M81.21,28.92 h0.0001
M85.2,48.37 h0.0001
M87.36,86.45 h0.0001
M89.32,52.32 h0.0001
M94.83,118.87 h0.0001
M96.81,49.93 h0.0001
M103.94,124.02 h0.0001
M106.92,1.32 h0.0001
M108.23,57.15 h0.0001
M110.72,35.49 h0.0001
M112.46,123.54 h0.0001
M112.95,108.72 h0.0001
M121.69,96.04 h0.0001
M122.83,2.83 h0.0001
M126.45,87.78 h0.0001
M127.19,59.74 h0.0001
M5.01,103.99 h0.0001
M7.48,34.93 h0.0001
M9.35,90.99 h0.0001
M14.15,80.03 h0.0001
M15.02,28.31 h0.0001
M17.09,32.38 h0.0001
M19.63,95.28 h0.0001
M20.09,127.21 h0.0001
M23.1,105.9 h0.0001
M23.47,60.38 h0.0001
M25.44,10.78 h0.0001
M27.85,37.01 h0.0001
M28.61,93 h0.0001
M37.27,65.47 h0.0001
M42.72,96.89 h0.0001
M64.64,119.24 h0.0001
M65.54,75.53 h0.0001
M66.78,49.06 h0.0001
M68.35,107.49 h0.0001
M73.96,17.31 h0.0001
M77.04,65.64 h0.0001
M78.02,101.9 h0.0001
M78.64,9.05 h0.0001
M82.93,66.71 h0.0001
M88.75,37.79 h0.0001
M89.79,44.06 h0.0001
M90.53,109.04 h0.0001
M94.66,122.45 h0.0001
M96.35,121.48 h0.0001
M96.52,72.53 h0.0001
M97.2,105.9 h0.0001
M98.06,90.33 h0.0001
M98.27,69.8 h0.0001
M99,29.46 h0.0001
M101.64,16.43 h0.0001
M103.6,100.01 h0.0001
M114.25,39.57 h0.0001
M119.38,71.85 h0.0001
M121.36,119.62 h0.0001
M121.7,42.37 h0.0001
M124.14,41.9 h0.0001
M126.59,28.83 h0.0001
M127.2,22.19 h0.0001
M1.09,58.87 h0.0001
M12.89,117.89 h0.0001
M14.91,73.84 h0.0001
M16.59,49.15 h0.0001
M19.88,80.34 h0.0001
M21.71,45.76 h0.0001
M30.87,17.43 h0.0001
M33.25,11.92 h0.0001
M36.75,101.87 h0.0001
M37.07,35.4 h0.0001
M38.58,91.8 h0.0001
M45.69,9.54 h0.0001
M46.41,30.99 h0.0001
M62.85,94.91 h0.0001
M63.33,74.77 h0.0001
M66.93,3.52 h0.0001
M69.16,119.37 h0.0001
M69.7,1.54 h0.0001
M78.58,5.76 h0.0001
M81.63,19.47 h0.0001
M81.77,119.11 h0.0001
M83.27,5.84 h0.0001
M83.46,101.28 h0.0001
M84.72,97.5 h0.0001
M87.21,63.58 h0.0001
M88.42,2.7 h0.0001
M92.5,13.11 h0.0001
M92.91,69.5 h0.0001
M98.75,82.92 h0.0001
M99.26,55.31 h0.0001
M102.02,79.01 h0.0001
M102.25,81.3 h0.0001
M105.74,72.29 h0.0001
M110.21,95.5 h0.0001
M116.72,86.5 h0.0001
M119.74,51.59 h0.0001
M121.11,56.15 h0.0001
M123.78,5.87 h0.0001
M124.14,83.52 h0.0001
M126.36,75.75 h0.0001
M8.19,97.4 h0.0001
M14.33,71.43 h0.0001
M15,53.11 h0.0001
M17.11,37.96 h0.0001
M18.29,7.21 h0.0001
M18.83,90.1 h0.0001
M20.66,20.82 h0.0001
M27.94,30.82 h0.0001
M28.48,7.51 h0.0001
M30.56,1.81 h0.0001
M35.84,8.67 h0.0001
M36.04,62.75 h0.0001
M38.3,0.8 h0.0001
M39.64,60.49 h0.0001
M42.3,120.55 h0.0001
M42.8,16.83 h0.0001
M43.19,21.1 h0.0001
M43.8,113.43 h0.0001
M54.38,30.37 h0.0001
M55.97,120.34 h0.0001
M64.18,30.26 h0.0001
M71.79,71.67 h0.0001
M78.97,96.81 h0.0001
M80.6,27.07 h0.0001
M85.12,14.89 h0.0001
M91.1,37.34 h0.0001
M95.82,90.95 h0.0001
M101.4,71.33 h0.0001
M102.85,5.25 h0.0001
M106.07,94.38 h0.0001
M111.29,71.74 h0.0001
M111.36,92.16 h0.0001
M115.03,26.51 h0.0001
M115.56,112.94 h0.0001
M117.2,103.59 h0.0001
M120.87,98.19 h0.0001
M124.2,66.4 h0.0001
M124.54,76.33 h0.0001
M2.29,108.65 h0.0001
M4.46,11.68 h0.0001
M6.37,87.89 h0.0001
M8.73,10.01 h0.0001
M9.06,5.16 h0.0001
M10.19,59.61 h0.0001
M14.72,37.57 h0.0001
M15.48,120.67 h0.0001
M21.89,3.34 h0.0001
M24.41,88.02 h0.0001
M25.69,121.37 h0.0001
M27.79,87.44 h0.0001
M37.23,48.9 h0.0001
M41.69,118.2 h0.0001
M43.61,25.32 h0.0001
M49.22,98.65 h0.0001
M49.51,70.06 h0.0001
M50.41,7.81 h0.0001
M50.95,21.08 h0.0001
M51.06,11.45 h0.0001
M51.68,114.66 h0.0001
M60.46,42.5 h0.0001"/>
</svg>
