<svg xmlns="http://www.w3.org/2000/svg" width="128" height="128" viewBox="0 0 128 128">
  <path stroke-linecap="round" stroke-width=".85" stroke="#685d45" opacity=".4" d="
M7.93,90.94 h0
M18.48,77.05 h0
M21.12,58.63 h0
M22.73,80.01 h0
M23.66,56.48 h0
M28.12,31.11 h0
M32.35,19.78 h0
M32.5,103.96 h0
M34.8,64.33 h0
M39.65,33.22 h0
M40.71,122.11 h0
M42.76,23.54 h0
M46.05,7.35 h0
M46.21,75.76 h0
M49.22,30.55 h0
M49.74,65.01 h0
M55.42,70.35 h0
M56.02,108.71 h0
M58.21,95.11 h0
M66.03,83.62 h0
M67.67,33.18 h0
M68.9,30.72 h0
M69.21,113.9 h0
M74.07,67.5 h0
M76.78,40.12 h0
M81.04,67.19 h0
M82.31,104.51 h0
M86.34,25.57 h0
M87.31,112.21 h0
M94.32,12.33 h0
M94.57,101.57 h0
M97.26,75.7 h0
M97.62,37.48 h0
M97.7,53.12 h0
M100.1,126.55 h0
M100.72,63.41 h0
M102.71,62.46 h0
M110.6,52.39 h0
M111.65,58.26 h0
M121.22,85.51 h0
M124.05,9.63 h0
M124.34,58.79 h0
M126.8,8.4 h0
M0.63,121.72 h0
M0.98,62.86 h0
M1.51,17.34 h0
M13.66,108.03 h0
M15.14,51.18 h0
M26.42,33.97 h0
M30.08,54.07 h0
M35.16,108.27 h0
M38.11,71.62 h0
M55.67,78.83 h0
M55.73,90.7 h0
M60.35,117.37 h0
M62.32,63.59 h0
M69.76,17.1 h0
M76.12,66.66 h0
M86.47,87.58 h0
M93.01,70.52 h0
M97.16,49.51 h0
M98.75,79.26 h0
M103.82,13.1 h0
M105.02,57.9 h0
M107.45,63.16 h0
M110.04,91.89 h0
M111.64,21.46 h0
M115.45,85.31 h0
M117.63,50.74 h0
M118.11,72.14 h0
M126.93,19.13 h0
M1.99,6.24 h0
M12.6,76.14 h0
M14.37,48.24 h0
M15.69,113.36 h0
M21.85,124.45 h0
M25.2,124.81 h0
M25.79,62.57 h0
M29.86,29.53 h0
M31.46,65.07 h0
M34.84,44.98 h0
M37.35,3.17 h0
M39.69,67.69 h0
M49.8,89.69 h0
M53.14,120.45 h0
M57.74,19.79 h0
M58.51,35.94 h0
M62.68,61.4 h0
M63.44,17.41 h0
M65.57,121.38 h0
M66.79,38.32 h0
M76.02,17.77 h0
M79.49,13 h0
M80.92,50.95 h0
M81.16,6.06 h0
M83.07,86.43 h0
M99.53,53.7 h0
M103.11,95.71 h0
M103.86,27.75 h0
M104.6,110.75 h0
M109.63,69.92 h0
M114.19,31.66 h0
M116.19,66.97 h0
M119.66,51.11 h0
M123.03,88.91 h0
M125.12,81.19 h0
M125.75,83.4 h0
M1.14,0.73 h0
M6.41,105.97 h0
M9.85,48.93 h0
M17.04,106.85 h0
M17.77,88.16 h0
M25.72,15.05 h0
M30.48,80.92 h0
M39.8,51.14 h0
M42.9,91.69 h0
M50.74,113.71 h0
M56.01,47.3 h0
M59.24,4.76 h0
M61.11,114.74 h0
M61.75,87.02 h0
M69.08,90.99 h0
M72.18,94.02 h0
M74.03,50.15 h0
M74.66,30.59 h0
M76.08,42.33 h0
M76.29,5.67 h0
M81.17,15.08 h0
M83.84,94.05 h0
M89.37,29.82 h0
M89.75,105 h0
M98.02,81.39 h0
M101.56,101.86 h0
M101.61,73.48 h0
M101.99,91.18 h0
M103.25,92.66 h0
M108.08,112.57 h0
M108.09,127.03 h0
M124.36,90.56 h0
M127.13,120.03 h0
M-0.18,5.81 h0
M0.04,71.3 h0
M1.32,108.28 h0
M12.39,12.23 h0
M12.96,36.99 h0
M14.21,43.76 h0
M14.54,22.37 h0
M21.34,73.55 h0
M29.38,126.9 h0
M30.77,42.86 h0
M31.15,117.94 h0
M33.97,5.45 h0
M35.78,119.16 h0
M49.77,24.29 h0
M57.21,34.19 h0
M62.95,80.4 h0
M63.2,39.81 h0
M67.55,3.23 h0
M67.7,124.19 h0
M68.85,106.43 h0
M70.55,60.55 h0
M74.03,112.56 h0
M84.28,57.76 h0
M91.59,105.94 h0
M93.06,3.16 h0
M101.43,96.95 h0
M110.59,3.14 h0
M110.76,19.18 h0
M112.63,12.72 h0
M114.08,81.89 h0
M115.33,56.06 h0
M115.55,100.28 h0
M119.06,10.17 h0
M127.82,5.81 h0
M128.04,71.3 h0
M8.07,25.82 h0
M8.19,124.98 h0
M20.26,87.8 h0
M22.66,89.05 h0
M25.15,7.01 h0
M34.13,102.54 h0
M35.87,74.7 h0
M37.65,49.81 h0
M42.57,25.78 h0
M47.35,73.62 h0
M48.23,59.46 h0
M48.89,43.76 h0
M59.8,66.03 h0
M63.72,21.03 h0
M67.37,21.5 h0
M70.45,25.35 h0
M71.17,56.28 h0
M71.61,78.64 h0
M72.56,115.47 h0
M73.82,1.18 h0
M74.35,88.74 h0
M74.45,74.45 h0
M80.6,55.87 h0
M83.45,124.39 h0
M92.25,21.86 h0
M94.96,65.16 h0
M96.46,35.54 h0
M99.51,19.76 h0
M105.82,19.68 h0
M106.13,4.88 h0
M106.41,7.63 h0
M108.9,104.23 h0
M109.52,120.93 h0
M113.19,1.15 h0
M121.73,49.36 h0
M122.69,102.51 h0
M126.22,37.43 h0
M1.79,23.57 h0
M5.25,86.17 h0
M10.76,10.75 h0
M19.22,108.82 h0
M21.02,91.12 h0
M25.13,10.26 h0
M28.8,56.33 h0
M37.39,64.44 h0
M40.96,42.71 h0
M41.89,56.45 h0
M46.75,102.96 h0
M58.9,52.57 h0
M64.6,73.93 h0
M64.96,89.97 h0
M67.22,118.23 h0
M73.53,20.51 h0
M74.01,99.84 h0
M78.62,74.79 h0
M84.02,119.51 h0
M89.68,63.67 h0
M97.29,93.18 h0
M104.08,83.46 h0
M106.68,71.13 h0
M113.44,115.26 h0
M115.09,2.89 h0
M115.55,39.78 h0
M115.83,24.36 h0
M118.16,100.51 h0
M118.86,124.31 h0
M2.97,35.7 h0
M14.95,35.56 h0
M15.45,98.95 h0
M15.55,16.62 h0
M15.98,20.79 h0
M18.35,18.49 h0
M32.95,66.45 h0
M35.97,110.57 h0
M39.17,14.62 h0
M40.34,23.25 h0
M41.53,36.97 h0
M44.61,63.46 h0
M46.83,127.39 h0
M48.48,26.03 h0
M49.59,118.06 h0
M53.25,44.69 h0
M59.62,71.84 h0
M60.17,6.33 h0
M60.8,108.7 h0
M62.63,116.29 h0
M67.83,35.72 h0
M69.42,41.37 h0
M69.55,8.86 h0
M70.99,70.26 h0
M71.48,42.68 h0
M71.74,62.86 h0
M79.26,69.31 h0
M86.02,110.28 h0
M94.14,56.9 h0
M94.46,74.26 h0
M108.09,42.91 h0
M110.8,7.31 h0
M110.99,96.99 h0
M118.13,1.67 h0
M122.9,72.05 h0
M126.15,100.93 h0
M127.28,39.18 h0
M0.54,25.28 h0
M2.83,60.98 h0
M8.05,43.23 h0
M9.28,16.47 h0
M17.72,80.62 h0
M18.07,22.02 h0
M19.43,79.27 h0
M21.26,44.19 h0
M22.63,32.84 h0
M26.74,44.18 h0
M32.84,35.2 h0
M33.08,77.13 h0
M33.7,21.7 h0
M35.25,35.43 h0
M36.36,92.63 h0
M37.89,52.1 h0
M46.95,16.5 h0
M48.27,62.26 h0
M50.36,81.03 h0
M50.43,27.18 h0
M65.01,8.1 h0
M65.14,19.42 h0
M65.84,1.57 h0
M67.56,51.43 h0
M69.93,92.97 h0
M72.38,110.68 h0
M75.34,97.36 h0
M82.57,46.82 h0
M86.46,81.4 h0
M87.83,95.95 h0
M91.51,72.25 h0
M96.78,39.43 h0
M97.73,68.72 h0
M97.9,89.93 h0
M100.67,32.18 h0
M103.86,23.47 h0
M103.97,44.38 h0
M109.25,10.48 h0
M112.88,46.3 h0
M113,70.17 h0
M113.17,62.97 h0
M115.58,75.27 h0
M116.14,12.74 h0
M116.83,48.92 h0
M118.11,25.96 h0
M120.26,26.73 h0
M121.45,125.33 h0
M122.44,12.95 h0
M123.24,22.51 h0
M124.73,23.75 h0
M10.69,70.04 h0
M12.55,62.74 h0
M19.82,56.4 h0
M35.8,79.01 h0
M40.06,117.44 h0
M40.43,63.97 h0
M40.69,106.45 h0
M41.56,108.79 h0
M42.69,3.5 h0
M44.49,50.04 h0
M45.34,13.22 h0
M53.66,114.77 h0
M56.79,85.5 h0
M57.96,64.64 h0
M60.04,101.81 h0
M64.11,13.3 h0
M69.1,23.4 h0
M77.13,53.2 h0
M81.38,86.19 h0
M84.3,87.71 h0
M97.05,6.26 h0
M100.73,117.74 h0
M101.99,85.7 h0
M105.48,31.84 h0
M106.54,10.04 h0
M109.31,40.85 h0
M117.91,80.35 h0
M118.98,126.08 h0
M121.54,21.77 h0
M123.1,63.04 h0
M124.62,47.12 h0
M1.74,72.77 h0
M4.03,67.44 h0
M9.81,87.31 h0
M14.16,18.07 h0
M15.65,13.02 h0
M26.12,108.79 h0
M29.16,116.22 h0
M30.13,96.41 h0
M31.68,39.38 h0
M34.69,122.81 h0
M36.46,102.23 h0
M38.41,24.64 h0
M40.08,124.13 h0
M40.48,93.6 h0
M40.79,72.71 h0
M50.66,11.02 h0
M51.41,72.16 h0
M51.53,63.96 h0
M53.97,101.77 h0
M59.7,63.63 h0
M62.79,122.43 h0
M70.11,101.1 h0
M79.13,95.17 h0
M84.06,114 h0
M90.6,47.74 h0
M90.96,77.36 h0
M94.85,31.66 h0
M96.79,122.69 h0
M98.9,22.21 h0
M99.97,24.21 h0
M108.75,89.87 h0
M115.43,44.31 h0
M118.14,78.39 h0
M119.99,73.99 h0
M122.21,104.71 h0
M126.28,58.06 h0
M7.49,47.81 h0
M10.6,78.04 h0
M17.12,90.56 h0
M21.53,127.11 h0
M28.43,97.26 h0
M28.76,104.29 h0
M31.61,120.42 h0
M32.86,91.15 h0
M34.88,97.46 h0
M37.18,66.72 h0
M47.35,21.41 h0
M51.82,30.97 h0
M52.07,25.12 h0
M53.48,48.29 h0
M55.58,29.91 h0
M57.83,48.06 h0
M65.27,79.83 h0
M74.18,17.28 h0
M74.28,47.71 h0
M74.63,115.96 h0
M77.24,78.77 h0
M78.96,103.72 h0
M85.74,89.82 h0
M86.19,23.14 h0
M86.73,103.96 h0
M91.71,33.16 h0
M91.72,85.15 h0
M93.62,20.19 h0
M94.3,98.41 h0
M95.07,29.49 h0
M98.03,113.27 h0
M102.05,41.91 h0
M103.16,117.65 h0
M103.31,78.67 h0
M105.86,42.47 h0
M111.61,35.07 h0
M117.5,59.03 h0
M124.07,11.66 h0
M126.89,41.98 h0
M127.22,51.28 h0
M7.94,85.78 h0
M10.04,28.98 h0
M10.44,44.51 h0
M14.81,66.22 h0
M21.68,46.57 h0
M22.24,2.62 h0
M26.76,92.91 h0
M29.66,84.13 h0
M32.84,24.61 h0
M43.73,80.14 h0
M46.76,117.96 h0
M52.34,122.85 h0
M53.88,8.35 h0
M53.97,24.27 h0
M58.59,93.01 h0
M61.44,104.17 h0
M65.82,33.2 h0
M68.7,12.79 h0
M69.93,115.69 h0
M71.69,117.26 h0
M75.29,101.67 h0
M77.2,28.69 h0
M83.32,51.72 h0
M91.71,121.62 h0
M108.34,54.04 h0
M108.54,65.08 h0
M121.78,51.33 h0
M123.65,33.15 h0
M2.11,28.44 h0
M3.99,52.69 h0
M5.15,54.74 h0
M6.93,78.86 h0
M7.6,88.57 h0
M8.42,66.7 h0
M15.04,83.76 h0
M19.04,69.54 h0
M21.52,120.26 h0
M22.79,65.7 h0
M31.19,86.05 h0
M36.78,105.14 h0
M39.28,74.72 h0
M42.58,28.11 h0
M45.58,72.67 h0
M46.82,3.89 h0
M47.01,54.28 h0
M48.53,91.92 h0
M49.38,67.44 h0
M51.81,12.88 h0
M56.14,126.44 h0
M56.25,75.97 h0
M60.15,57.92 h0
M62.45,118.24 h0
M66.03,28.57 h0
M71.9,7.09 h0
M72.01,86.24 h0
M74.02,84.13 h0
M74.71,69.18 h0
M80.76,35.77 h0
M82.98,13.82 h0
M87.01,93.8 h0
M88.13,90.6 h0
M88.56,99.68 h0
M92.07,51.04 h0
M96.59,9.73 h0
M97.32,101.23 h0
M97.97,61.46 h0
M102.01,83.83 h0
M111.2,99.02 h0
M115.57,8.79 h0
M116.14,87.89 h0
M119.72,19.84 h0
M10.94,74.38 h0
M13.31,7.62 h0
M17.67,71.71 h0
M19.33,62.87 h0
M19.52,74.91 h0
M21.69,67.21 h0
M24.41,-0.31 h0 m0,128 h0
M24.53,119.69 h0
M30.02,109.51 h0
M30.37,4.23 h0
M37.49,17.92 h0
M40.31,95.81 h0
M43.47,30.64 h0
M45.24,126.69 h0
M45.32,34.71 h0
M46.09,28.51 h0
M47.27,44.78 h0
M50.95,106.87 h0
M55.66,37.35 h0
M56.94,51.83 h0
M57.45,37.83 h0
M58.46,127.34 h0
M60.71,10.51 h0
M65.17,37.55 h0
M67.47,87.35 h0
M68.49,15.07 h0
M72.45,71.27 h0
M74.17,63.09 h0
M76.39,95.15 h0
M81.26,17.28 h0
M86.79,101.49 h0
M87.21,28 h0
M92.72,31.24 h0
M94.5,72.49 h0
M99.11,120.02 h0
M101.7,6.22 h0
M106.29,55.25 h0
M110.96,56.34 h0
M112.99,110.46 h0
M114.88,71.91 h0
M119.23,108.44 h0
M120.16,69.37 h0
M123.93,86.26 h0
M127.28,2.82 h0
M5.85,76.81 h0
M7.25,108.77 h0
M7.49,99.74 h0
M7.64,69.06 h0
M7.7,41.23 h0
M12.15,118 h0
M15.31,62.55 h0
M17.25,60.61 h0
M18.77,43.51 h0
M23.87,69.58 h0
M24.14,117.53 h0
M24.62,2.06 h0
M26.17,89.45 h0
M28.72,92.09 h0
M37.15,7.78 h0
M37.78,28.59 h0
M38.27,89.91 h0
M42.6,106.09 h0
M43.88,32.72 h0
M45.01,113.19 h0
M49.3,1.8 h0
M49.58,70.01 h0
M50.85,55.86 h0
M51.5,38.04 h0
M54.49,32.7 h0
M59.7,81.2 h0
M60.53,70.31 h0
M64.96,63.26 h0
M67.47,101.34 h0
M69.93,1.59 h0
M75.88,109.25 h0
M79.26,30.24 h0
M80.24,108.64 h0
M83.28,102.04 h0
M83.76,32.7 h0
M85.03,21.38 h0
M85.29,52.83 h0
M89.86,35.41 h0
M91.91,90.85 h0
M95.09,33.81 h0
M96.4,66.85 h0
M99.47,85.68 h0
M99.93,99.49 h0
M102.59,39.91 h0
M108.18,61.09 h0
M109.02,95.34 h0
M113.76,104.39 h0
M115.44,95.05 h0
M116.22,113.04 h0
M119.65,28.94 h0
M120.65,79.74 h0
M121.95,76.36 h0
M122.29,7.81 h0
M1.43,125.98 h0
M7.83,114.83 h0
M13.28,99.76 h0
M16.73,78.62 h0
M18.93,26.47 h0
M22.82,72.05 h0
M30.18,6.02 h0
M35.14,25.4 h0
M44.81,42.26 h0
M51.33,120.33 h0
M51.63,21.13 h0
M55.57,102.67 h0
M56.71,10.23 h0
M57.88,57.84 h0
M62.08,125.1 h0
M62.12,69.38 h0
M63.41,6.83 h0
M70.19,52.51 h0
M71,89.89 h0
M71.64,21.35 h0
M71.85,26.96 h0
M73.76,32.59 h0
M83.66,40.72 h0
M88.02,120.18 h0
M89.06,124.76 h0
M93.38,44.72 h0
M93.4,88.95 h0
M97.95,73.57 h0
M98.47,46.25 h0
M99.72,8.37 h0
M99.91,74.59 h0
M100.77,78.7 h0
M102.06,99.28 h0
M104.27,122.06 h0
M104.39,34.52 h0
M106.27,49.62 h0
M106.32,44.71 h0
M109.06,99.06 h0
M109.78,83.89 h0
M112.75,49.33 h0
M113.99,124.11 h0
M116.53,57.75 h0
M116.7,17.81 h0
M117.55,119.65 h0
M0.02,13.81 h0
M5.98,17.02 h0
M12.8,83.83 h0
M17.76,63.55 h0
M18.6,41.53 h0
M20.01,39.33 h0
M26.59,41.85 h0
M26.72,67.29 h0
M27.32,88.22 h0
M33.12,124.65 h0
M35.86,69.63 h0
M36.77,107.02 h0
M38.34,111.25 h0
M39.18,86.26 h0
M41.03,91.79 h0
M41.95,5.78 h0
M43.37,97.27 h0
M45.35,87.97 h0
M49.42,97.31 h0
M56.05,2.26 h0
M56.29,111.69 h0
M61,30.68 h0
M65.01,57.74 h0
M69.07,73.34 h0
M71.61,14.72 h0
M87.2,15.12 h0
M87.43,118.16 h0
M93.17,124.88 h0
M104.3,65.28 h0
M109.41,109.82 h0
M114.4,60.76 h0
M114.76,65.64 h0
M117.81,38.79 h0
M120.18,119.99 h0
M120.59,31.28 h0
M120.66,46.28 h0
M122.65,47.27 h0
M123.68,84.17 h0
M124.99,60.87 h0
M128.02,13.81 h0
M10.16,40.05 h0
M10.97,85.33 h0
M20.01,71.8 h0
M20.36,81.26 h0
M21.1,40.68 h0
M28.9,89.75 h0
M34.61,61.83 h0
M42.36,48.43 h0
M44.7,44.87 h0
M58.24,25.63 h0
M59.8,125.49 h0
M64.68,86.03 h0
M66.58,95.37 h0
M67.79,120.33 h0
M81.19,53.29 h0
M81.7,74.05 h0
M88.39,26.17 h0
M88.7,122.65 h0
M89.31,15.84 h0
M89.62,40.48 h0
M92.13,10.89 h0
M93.29,59.39 h0
M99.84,33.85 h0
M106.23,14.05 h0
M106.91,21.75 h0
M109.02,106.5 h0
M110.9,124.08 h0
M113.88,97.78 h0
M118.32,121.93 h0
M121.3,97.67 h0
M122.18,109.54 h0
M122.55,92.42 h0
M126.98,124.38 h0
M1.25,19.35 h0
M1.27,94.71 h0
M3.72,88.72 h0
M5.77,25.87 h0
M7.37,50.13 h0
M15.47,56.16 h0
M15.84,7.98 h0
M23.49,8.88 h0
M26.06,99.21 h0
M27.99,74.21 h0
M30.41,62.06 h0
M30.49,74.07 h0
M30.68,19.04 h0
M31.02,16.81 h0
M38.07,9.94 h0
M42.5,63.15 h0
M43.56,85.69 h0
M47.34,19.36 h0
M62.4,120.38 h0
M63.21,72.1 h0
M67.85,0.62 h0
M73.41,65.11 h0
M78.89,101.21 h0
M81.75,122 h0
M83.09,54.29 h0
M88.25,109.76 h0
M92.64,67.46 h0
M94.95,49.1 h0
M99.13,30.17 h0
M102.59,16.87 h0
M103.93,52.35 h0
M112.82,65.8 h0
M117.33,27.9 h0
M120.25,5.87 h0
M121.79,87.35 h0
M121.96,25.24 h0
M122.83,1.28 h0
M124.76,73.97 h0
M125.12,1.29 h0
M125.26,17.24 h0
M126.05,56.18 h0
M1.62,38.47 h0
M3.68,95.39 h0
M5.96,110.39 h0
M6.33,116.79 h0
M22.38,4.41 h0
M23.77,23.07 h0
M26.2,76.61 h0
M33.24,29.99 h0
M33.34,37.7 h0
M33.83,71.23 h0
M33.94,50.2 h0
M37.66,125.91 h0
M45.57,57.98 h0
M50.97,9.5 h0
M57,96.98 h0
M57.27,54.54 h0
M66.1,14.53 h0
M67.16,19.34 h0
M67.46,74.62 h0
M72.17,12.02 h0
M74.39,55.6 h0
M74.47,44.48 h0
M76.95,84.6 h0
M78.01,124.11 h0
M80.53,58.93 h0
M86,18.54 h0
M87.77,105.92 h0
M90.06,101.2 h0
M90.2,10.38 h0
M90.96,123.13 h0
M91.21,29.52 h0
M92.82,14.34 h0
M94.12,85.78 h0
M96.44,97.18 h0
M96.64,28.45 h0
M96.81,83.03 h0
M104.08,7.79 h0
M107.38,87.02 h0
M113.26,90.63 h0
M116.63,106.38 h0
M118.21,23.85 h0
M120.05,71.76 h0
M120.4,103.51 h0
M123.04,3.2 h0
M125.98,12.83 h0
M1.18,110.48 h0
M1.86,13.45 h0
M10.26,0.92 h0
M10.8,55.39 h0
M12.62,45 h0
M18.78,105.98 h0
M18.95,65.92 h0
M19.41,96.36 h0
M21.23,19.18 h0
M30.44,23.96 h0
M32.88,58.34 h0
M39.42,97.75 h0
M43.03,125.85 h0
M50.26,15.48 h0
M51.41,96.53 h0
M53.55,39.77 h0
M55.43,53.59 h0
M55.63,8.34 h0
M55.98,124.19 h0
M58.02,124.72 h0
M58.59,116.74 h0
M62.63,2.83 h0
M64.42,94.02 h0
M65.47,103.01 h0
M72.1,59.74 h0
M79.08,66.8 h0
M81.4,11.85 h0
M81.56,94.67 h0
M81.76,110.51 h0
M91.63,116.56 h0
M93.08,77.98 h0
M96.54,91.19 h0
M97.03,95.4 h0
M111.3,120.92 h0
M116.37,19.74 h0
M120.91,17.31 h0
M123.7,94.86 h0
M1.71,119.66 h0
M2.66,9.72 h0
M3.88,120.03 h0
M4.18,78.64 h0
M8.5,33.26 h0
M12.31,109.76 h0
M16.29,5.15 h0
M17.5,55.11 h0
M22.56,101.91 h0
M26.83,119.71 h0
M35.45,30.46 h0
M36.02,60.99 h0
M36.29,14.02 h0
M42.66,41.05 h0
M44.07,99.72 h0
M44.09,117.4 h0
M49.66,100.17 h0
M51.36,86.79 h0
M53.53,99.39 h0
M55.49,11.86 h0
M57.65,119.57 h0
M61.42,21.46 h0
M61.52,82 h0
M62.32,110.29 h0
M65.7,66.65 h0
M66.78,53.51 h0
M74.98,21.35 h0
M76.38,44.93 h0
M78.23,98.92 h0
M78.26,113.53 h0
M80.61,24.25 h0
M82.09,62.02 h0
M87.49,62.89 h0
M89.15,113.37 h0
M97.56,41.52 h0
M97.9,65.57 h0
M101.8,44.3 h0
M103.24,127.48 h0
M104.12,119.53 h0
M105.87,96.82 h0
M108.15,72.29 h0
M109.29,87.35 h0
M110.22,44.57 h0
M111.76,39.64 h0
M112.06,107.84 h0
M112.47,102.48 h0
M116.36,41.45 h0
M126.33,22.36 h0
M4.62,64.94 h0
M5.07,33.67 h0
M5.99,122.15 h0
M6.41,56.35 h0
M7.89,58.77 h0
M10.73,33.82 h0
M12.26,0.22 h0 m0,128 h0
M13.97,13.65 h0
M16.74,69.56 h0
M17.22,57.49 h0
M18.43,101.61 h0
M19.35,20.42 h0
M27.45,4.99 h0
M28.2,101.86 h0
M28.58,2.81 h0
M30.67,57.43 h0
M31.36,22.21 h0
M35.55,51.09 h0
M42.6,13.04 h0
M44.11,7.46 h0
M48.69,74.93 h0
M51.93,115.59 h0
M55.61,94.77 h0
M58.93,85.44 h0
M62.88,48.95 h0
M64.47,30.67 h0
M71.41,104.32 h0
M72.11,48.9 h0
M72.51,88.33 h0
M85.49,67 h0
M86.1,4.19 h0
M104.24,80.7 h0
M106.2,25.79 h0
M107.94,6.23 h0
M108.27,68.12 h0
M117.51,42.74 h0
M126.73,116.12 h0 m0,-61.98 h0
M127.25,85.3 h0
M127.33,67.98 h0
M2.6,26.06 h0
M8.75,22.14 h0
M9.38,53.33 h0
M27.63,58.13 h0
M27.94,114.5 h0
M38.16,123.63 h0
M40.09,12.41 h0
M43.25,35.64 h0
M44.55,52.86 h0
M46.4,92.75 h0
M49.25,55.06 h0
M65.59,5.43 h0
M68.95,38.69 h0
M75.8,23.54 h0
M77.46,22.44 h0
M81.04,40.2 h0
M86.41,91.97 h0
M95.26,127.03 h0
M101.61,119.79 h0
M104.5,107.56 h0
M109.98,25.66 h0
M110.23,14.47 h0
M113.33,40.86 h0
M122.47,42.01 h0
M126.31,99.21 h0
M3.63,104.47 h0
M17.13,84.95 h0
M22.95,27.57 h0
M27.1,69.25 h0
M27.71,84.98 h0
M33.54,88.97 h0
M36.18,82.47 h0
M37.92,38.06 h0
M40.19,79.1 h0
M42.48,60.86 h0
M45.43,96.8 h0
M47.21,1.5 h0
M47.23,113.82 h0
M50.16,22.35 h0
M51.73,109.45 h0
M53.25,37.46 h0
M57.52,101.7 h0
M71.51,106.11 h0
M76.92,119.43 h0
M78.91,32.94 h0
M79.08,14.81 h0
M81.56,90.72 h0
M83,99.49 h0
M83.78,24.1 h0
M93.81,4.9 h0
M95.46,119.03 h0
M96.39,3.37 h0
M99.24,122.43 h0
M100.23,66.62 h0
M104.6,85.93 h0
M112.66,60.13 h0
M117.31,83.44 h0
M117.69,94.87 h0
M122.86,44.58 h0
M123.08,37.01 h0
M125.1,63.58 h0
M0.98,3.44 h0
M2.66,54.61 h0
M2.9,41.26 h0
M4,111.99 h0
M5.38,74.11 h0
M5.76,51.06 h0
M6.59,6.58 h0
M7.58,103.31 h0
M15.17,26.9 h0
M16.68,49.27 h0
M19.79,117.84 h0
M23.01,60.51 h0
M32.26,101.31 h0
M37.31,54.3 h0
M40.31,76.63 h0
M42.2,118.25 h0
M42.21,95.32 h0
M56.22,80.72 h0
M61.24,28.41 h0
M70.02,124.06 h0
M74.47,8.2 h0
M75.46,90.85 h0
M81.05,83.81 h0
M96.48,47.42 h0
M99.3,59 h0
M104.66,124.11 h0
M114.8,53.7 h0
M115.1,63.84 h0
M115.19,115.34 h0
M116.69,52.99 h0
M116.89,73.64 h0
M117.09,116.17 h0
M123.99,124.51 h0
M125.03,20.31 h0
M127.08,113.19 h0
M2.56,65.56 h0
M2.61,31.35 h0
M5.07,108.07 h0
M5.64,4.6 h0
M7.02,32.02 h0
M13.53,126.78 h0
M17.1,15.18 h0
M17.57,39.43 h0
M17.62,30.51 h0
M19.87,103.8 h0
M28.85,46.71 h0
M31.46,125.91 h0
M32.05,28.28 h0
M33.7,83.35 h0
M40.9,125.95 h0
M42.19,21.62 h0
M44.46,40.03 h0
M47.36,99.71 h0
M48.72,94.84 h0
M48.77,79.04 h0
M54.6,122.67 h0
M55.25,35.34 h0
M60.67,35.9 h0
M61.1,40.01 h0
M62.15,35.01 h0
M63.36,83.81 h0
M72.23,83.41 h0
M72.32,9.48 h0
M74.09,14.05 h0
M75.28,38.54 h0
M76.29,8.09 h0
M76.64,73.83 h0
M79.1,106.36 h0
M82.26,59.33 h0
M84.34,74.16 h0
M85.05,39.1 h0
M89.49,117.74 h0
M89.62,72.87 h0
M91.77,46.04 h0
M92.1,113.92 h0
M92.28,37.39 h0
M92.85,76.02 h0
M92.95,117.77 h0
M96,55.27 h0
M96.94,43.64 h0
M100.06,112.08 h0
M105.88,69.26 h0
M118.53,102.42 h0
M0.52,55.65 h0
M1.65,51.27 h0
M6.01,12.85 h0
M7.72,122.77 h0
M7.85,27.91 h0
M8.83,120.64 h0
M9.79,75.96 h0
M12.02,72.12 h0
M13.32,15.58 h0
M13.82,68.62 h0
M20.87,115.84 h0
M30.5,25.83 h0
M31.42,83.28 h0
M32.67,42.3 h0
M35.01,90.43 h0
M49.02,119.7 h0
M51.9,3.12 h0
M55.69,87.48 h0
M58.58,29.94 h0
M67.52,40.49 h0
M70.45,13.44 h0
M71.59,46.2 h0
M73.94,109.95 h0
M75.81,64.01 h0
M78.37,11.16 h0
M82.48,75.94 h0
M83.71,5.11 h0
M85.58,31.12 h0
M88.03,56.21 h0
M88.96,107.67 h0
M94.9,87.49 h0
M99.24,27.96 h0
M100.89,93.61 h0
M101.38,106.89 h0
M101.39,113.48 h0
M101.82,121.62 h0
M102.03,37.59 h0
M106.24,120.28 h0
M106.77,33.39 h0
M113.07,24.67 h0
M114.85,20.8 h0
M115.76,14.67 h0
M116.11,30.36 h0
M117.32,98.27 h0
M119.61,34.89 h0
M122.43,74.16 h0
M122.75,127.14 h0
M125.05,52.97 h0
M126.44,15.45 h0
M126.56,26.88 h0
M6.15,66.5 h0
M10.46,102.29 h0
M12.42,47.59 h0
M13.35,73.89 h0
M19.1,1.98 h0
M19.6,53.83 h0
M19.64,48.4 h0
M19.93,29.3 h0
M26.56,16.95 h0
M30.34,101.8 h0
M32.94,116.96 h0
M35.71,84.69 h0
M39.83,4.59 h0
M40.82,59.35 h0
M41.61,8.05 h0
M41.86,79.43 h0
M45.22,23.62 h0
M46.73,94.96 h0
M49.74,6.59 h0
M52.39,17 h0
M54.41,17.64 h0
M58.24,44.6 h0
M58.34,42.13 h0
M61.95,65.72 h0
M63.33,92.33 h0
M69.33,121.95 h0
M70.14,35.43 h0
M73.23,3.5 h0
M79.83,37.76 h0
M80.62,98.61 h0
M83.32,97.01 h0
M84.88,76.73 h0
M86.61,68.83 h0
M91.48,88.17 h0
M94.78,17.52 h0
M95.69,57.71 h0
M97.26,18.2 h0
M103,33.12 h0
M107.78,15.51 h0
M113.66,42.76 h0
M120.41,-0.01 h0 m0,128 h0
M120.45,12.4 h0
M121.71,33.24 h0
M122.14,15.55 h0
M7.91,39.05 h0
M11.23,98.16 h0
M12.07,65.99 h0
M14.28,10.21 h0
M17.47,12.58 h0
M18.15,6.36 h0
M21.08,17.1 h0
M21.84,97.01 h0
M26.48,7.68 h0
M37.93,12.39 h0
M39.72,53.86 h0
M41.61,69.36 h0
M44.43,92.27 h0
M44.73,106.13 h0
M49.44,49.05 h0
M51.24,4.9 h0
M52.97,124.97 h0
M53.3,74.75 h0
M57.14,88.7 h0
M57.76,72.33 h0
M58.76,103.61 h0
M63.46,29.03 h0
M71.64,32.67 h0
M76.49,104.74 h0
M76.67,13.51 h0
M78.31,26.84 h0
M79.57,47.61 h0
M83.01,56.22 h0
M84.46,15.27 h0
M88.63,38.29 h0
M91.29,103.31 h0
M94.37,39.67 h0
M99.44,48.8 h0
M104.6,17.66 h0
M113.89,57.75 h0
M114.22,108.17 h0
M119.79,105.88 h0
M124.15,112.47 h0
M1.57,106.01 h0
M5.81,35.54 h0
M6.39,119.77 h0
M12.83,90.28 h0
M13.09,34.58 h0
M13.12,113.88 h0
M15.04,89.47 h0
M18.78,58.51 h0
M22.62,83.89 h0
M27.38,36.21 h0
M28.02,26.68 h0
M30.96,34.68 h0
M30.98,1.89 h0
M32.57,15.39 h0
M39.52,56.02 h0
M44.1,83.61 h0
M47.16,35.95 h0
M53.33,2.19 h0
M57.62,77.54 h0
M60.02,24.03 h0
M62.18,90.55 h0
M65.57,126.84 h0
M67.11,70 h0
M73.7,96.65 h0
M77.49,9.79 h0
M78.72,120.6 h0
M79.01,5.09 h0
M79.69,61.53 h0
M92.84,64.78 h0
M98.96,76.88 h0
M99.52,64.4 h0
M100.47,68.54 h0
M104.39,21.84 h0
M105.33,91.98 h0
M106.22,60.02 h0
M112.59,123.02 h0
M117.51,9.85 h0
M117.58,3.76 h0
M120.62,2.39 h0
M121.18,101.05 h0
M123.52,38.62 h0
M2.47,113.93 h0
M2.78,91.14 h0
M4.39,7.95 h0
M8.65,97.84 h0
M11.9,68.25 h0
M14,70.61 h0
M14.4,40.06 h0
M16.55,32.63 h0
M17.19,82.56 h0
M17.22,110.43 h0
M17.6,51.22 h0
M21.99,30.96 h0
M22.81,104.5 h0
M29.51,119.86 h0
M30.71,104.74 h0
M32.19,69.18 h0
M32.41,97.04 h0
M42.95,9.58 h0
M46,100.74 h0
M47.4,31.63 h0
M50.52,92.82 h0
M51.73,88.91 h0
M64.77,44.07 h0
M67.71,27.72 h0
M67.81,93.35 h0
M73.66,24.48 h0
M75.13,121.94 h0
M76.48,15.59 h0
M78.85,71.47 h0
M80.57,45.98 h0
M80.59,33.62 h0
M82.08,82.04 h0
M83.66,106.01 h0
M85.46,97.82 h0
M85.7,124.79 h0
M90.14,67.77 h0
M94.68,26.26 h0
M99.46,124.53 h0
M101.47,88.95 h0
M103.86,3.75 h0
M104.74,94.3 h0
M106.11,67.17 h0
M109.24,23.37 h0
M110.67,62.57 h0
M114.4,101.69 h0
M114.54,48.98 h0
M114.68,105.81 h0
M119.08,32.61 h0
M122.14,58.71 h0
M5.38,80.82 h0
M7.91,15.05 h0
M8.09,62.18 h0
M8.93,79.5 h0
M10.21,64.95 h0
M16.68,97.3 h0
M17.06,92.88 h0
M17.52,3.2 h0
M24.62,43.02 h0
M25.97,55.91 h0
M26.46,25.51 h0
M31.5,45.8 h0
M35.41,42.15 h0
M38.01,109.14 h0
M39.64,65.74 h0
M43.35,71.81 h0
M46.62,11.7 h0
M48.59,105.75 h0
M50.51,102.91 h0
M52.07,91.27 h0
M55.4,16.19 h0
M56.13,44.66 h0
M63.6,108.35 h0
M65.61,111.01 h0
M65.72,92.13 h0
M67.57,67.94 h0
M73.23,52.49 h0
M75.42,126.29 h0
M76.71,30.91 h0
M80.32,9.78 h0
M81.11,92.73 h0
M92.89,49.18 h0
M93.21,53.82 h0
M93.93,111.08 h0
M95.26,113.01 h0
M96.01,45.3 h0
M96.99,86.23 h0
M98.69,70.22 h0
M101.41,76.49 h0
M105.71,88.19 h0
M111.67,9 h0
M116.27,102.99 h0
M118.91,96.89 h0
M119.02,60.74 h0
M119.61,87.67 h0
M120.08,14.79 h0
M124.88,44.99 h0
M1.3,101.02 h0
M4.99,60.85 h0
M6.28,44.75 h0
M10.24,99.92 h0
M17.74,47.58 h0
M18.97,14.42 h0
M26.61,97.43 h0
M30.05,50.85 h0
M33.14,47.37 h0
M33.15,7.24 h0
M34.36,117.64 h0
M44.46,124.22 h0
M44.47,25.46 h0
M45.43,81.42 h0
M52.27,117.94 h0
M60.66,122.77 h0
M63.56,33.58 h0
M65.6,108.96 h0
M72.2,54.45 h0
M76.08,25.9 h0
M81.17,44.02 h0
M86.15,44.95 h0
M86.47,16.75 h0
M87.64,71.52 h0
M87.76,115.8 h0
M88.26,10.26 h0
M89.01,84.82 h0
M90.77,119.66 h0
M91.26,125.32 h0
M97.63,33.52 h0
M100.91,46.39 h0
M107.68,101.95 h0
M110.07,107.98 h0
M111.13,54.11 h0
M119.34,37.13 h0
M120.06,7.82 h0
M120.19,44.7 h0
M125.15,34.75 h0
M126.11,79.07 h0
M127,106.53 h0
M127.11,30.88 h0
M1.31,42.73 h0
M1.56,67.75 h0
M3.18,58.38 h0
M9.88,106.57 h0
M12.39,120.56 h0
M15.77,104.26 h0
M19.61,36.76 h0
M23.94,20.68 h0
M25.92,111.76 h0
M27.96,60.2 h0
M28.65,33.43 h0
M35.43,37.68 h0
M37.34,97.17 h0
M41.74,33.41 h0
M55.63,64.9 h0
M57.35,66.81 h0
M58.83,32.32 h0
M59.33,97.85 h0
M60.28,61.59 h0
M61.31,112.45 h0
M62.75,42.99 h0
M64.6,119.89 h0
M66.21,24.61 h0
M66.26,48.72 h0
M66.89,115.64 h0
M67.56,97.32 h0
M76.85,20.04 h0
M81.86,65.38 h0
M85.92,6.22 h0
M88.51,48.4 h0
M90.64,65.5 h0
M94.7,123.81 h0
M95.51,84.18 h0
M98.1,98.76 h0
M100.09,42.44 h0
M101.09,29.64 h0
M103.31,109.03 h0
M111.65,68.29 h0
M112.25,5.74 h0
M113.63,78.76 h0
M113.91,22.47 h0
M116.13,81.5 h0
M0.46,114.91 h0
M7.51,81.69 h0
M8.05,92.77 h0
M8.12,76.76 h0
M8.46,55.66 h0
M10.05,122 h0
M10.72,2.75 h0
M11.23,52.88 h0
M12.89,86.58 h0
M15.31,125.3 h0
M15.78,2.28 h0
M20.16,12.15 h0
M22.3,48.66 h0
M24.92,92.31 h0
M25.24,115.29 h0
M25.77,94.86 h0
M31.27,7.97 h0
M31.99,49.39 h0
M35.46,56.52 h0
M35.86,127.35 h0
M35.98,32.63 h0
M43.7,89.23 h0
M44.16,15.22 h0
M44.41,60.61 h0
M49.48,83.06 h0
M57.56,82.56 h0
M65.97,123.56 h0
M67.49,89.86 h0
M69.55,98.98 h0
M73.98,123.93 h0
M85.29,112.63 h0
M88.26,67.18 h0
M88.77,80.83 h0
M89.64,32.47 h0
M99.16,94.26 h0
M99.8,40.17 h0
M102.48,125.61 h0
M104.23,10.06 h0
M106.12,75.82 h0
M111.03,94.14 h0
M113.11,120.5 h0
M115.9,96.93 h0
M119.56,84.02 h0
M125.43,68.46 h0
M128.46,114.91 h0
M0.89,36.03 h0
M0.98,83.57 h0
M3.07,80.74 h0
M5.09,10.33 h0
M5.55,83.4 h0
M10.4,112.84 h0
M12.67,24.19 h0
M14.7,117.39 h0
M14.89,79.65 h0
M16.62,10.46 h0
M17.55,37.31 h0
M18.08,114.79 h0
M20.41,8.8 h0
M20.79,64.34 h0
M28.09,94.87 h0
M28.14,50.15 h0
M30.83,59.86 h0
M32.51,78.99 h0
M33.26,114.94 h0
M33.53,27.1 h0
M35.59,53.46 h0
M37.14,121.93 h0
M43.97,110.46 h0
M45.77,55.9 h0
M52.22,51.51 h0
M53.57,72.64 h0
M56.49,92.77 h0
M58.72,108.2 h0
M61.76,85 h0
M63.17,56.43 h0
M64.5,115.69 h0
M68.31,49.48 h0
M69.24,117.7 h0
M78.68,83.24 h0
M80.96,77.34 h0
M83.6,110.99 h0
M83.8,34.59 h0
M84.9,103.18 h0
M91.79,74.29 h0
M93.93,46.92 h0
M94.79,7.76 h0
M96.26,103.36 h0
M96.69,105.35 h0
M107.12,57.45 h0
M112.71,32.67 h0
M115.2,5.13 h0
M115.21,120.18 h0
M118.02,45.02 h0
M120.09,92.39 h0
M5.96,46.85 h0
M10.51,22.76 h0
M19.41,94.63 h0
M19.82,123.54 h0
M21.57,55.77 h0
M21.72,21.71 h0
M22.59,24.7 h0
M36.88,43.27 h0
M39.24,104.81 h0
M40.09,61.54 h0
M43.85,69.46 h0
M43.87,108.21 h0
M46.98,40.06 h0
M48.66,11.84 h0
M51.32,94.56 h0
M51.87,82.62 h0
M54.38,63.04 h0
M55.96,115.71 h0
M62.69,51.25 h0
M64.87,52.93 h0
M66.54,46.32 h0
M71.6,107.99 h0
M76.78,125.41 h0
M78.1,109.12 h0
M79.21,41.49 h0
M79.62,118.28 h0
M81.1,70.01 h0
M81.72,42.3 h0
M81.86,49.04 h0
M87.29,40.39 h0
M94.92,90.27 h0
M103.16,54.86 h0
M106.61,65.36 h0
M108.46,48.74 h0
M109.14,74.46 h0
M114.83,89.84 h0
M120.31,94.42 h0
M125.01,114.59 h0
M0.28,21.29 h0
M3.3,97.61 h0
M8.38,101.81 h0
M9.83,117.07 h0
M10.68,42.33 h0
M13.21,26.28 h0
M15.43,72.17 h0
M17.52,73.99 h0
M17.94,126.33 h0
M21.04,105.43 h0
M30.85,70.6 h0
M35.93,100.19 h0
M37.66,33.95 h0
M40.75,10.41 h0
M45.09,21.22 h0
M45.99,46.29 h0
M63.71,78.08 h0
M71.58,121.54 h0
M76.41,47.86 h0
M76.48,2.38 h0
M81.28,8.08 h0
M83.51,11.71 h0
M86.11,115.09 h0
M86.6,75.24 h0
M87.56,65.28 h0
M90.38,2.55 h0
M96.86,124.84 h0
M98,51.11 h0
M106.42,117.92 h0
M106.84,94.44 h0
M107.15,83.46 h0
M108.66,32.39 h0
M117.21,46.81 h0
M118.03,7.06 h0
M126.94,33.14 h0
M128.28,21.29 h0
M3.69,14.06 h0
M5.52,98.57 h0
M12.99,60.58 h0
M15.19,74.45 h0
M24.25,106.88 h0
M26.38,100.9 h0
M33.79,33.13 h0
M33.83,106.64 h0
M34.67,104.71 h0
M34.88,113.12 h0
M38.18,5.95 h0
M42.3,76.2 h0
M49.18,108.16 h0
M56.34,27.55 h0
M61.17,55.69 h0
M69.45,77.96 h0
M70.01,109.43 h0
M70.04,10.83 h0
M71.15,4.78 h0
M73.77,26.55 h0
M80.93,116.6 h0
M83.55,17.26 h0
M85.09,47.1 h0
M85.56,106.22 h0
M86.56,50.5 h0
M89.23,13.51 h0
M90.13,59.86 h0
M91.01,58.07 h0
M91.44,12.77 h0
M92.75,1.56 h0
M98.74,106.74 h0
M100.59,51.36 h0
M104.28,73.28 h0
M105.05,102.34 h0
M108.27,12.68 h0
M108.38,92.99 h0
M112.57,80.54 h0
M113.28,10.58 h0
M117.29,127.31 h0
M119.38,40.6 h0
M119.98,4.23 h0
M127.39,81.53 h0
M3.85,76.1 h0
M6.99,126.51 h0
M18.97,16.68 h0
M19.57,51.19 h0
M21.95,118.28 h0
M22.24,75.62 h0
M24.13,47.31 h0
M25.98,58.56 h0
M26.16,86.77 h0
M28.33,23.57 h0
M31.56,88.53 h0 m0,-33.32 h0
M32.51,122.22 h0
M32.73,112.48 h0
M37.87,60.13 h0
M40.68,112.83 h0
M42.25,87.42 h0
M42.87,43.75 h0
M46.39,83.64 h0
M47.02,14.65 h0
M53.44,94.94 h0
M60.28,43.89 h0
M63.24,112.41 h0
M63.35,67.75 h0
M67.05,10.41 h0
M69.05,95.55 h0
M69.32,46.99 h0
M70.32,119.64 h0
M72.2,102.15 h0
M73.65,103.39 h0
M82.35,118.49 h0
M85.43,108.42 h0
M87.6,97.99 h0
M92.72,34.52 h0
M93,96.43 h0
M94.94,14.78 h0
M95.44,1.47 h0
M96.74,12.88 h0
M107.04,51.77 h0
M112.05,71.78 h0
M117.17,108.16 h0
M-0.47,17.07 h0
M5.12,42.45 h0
M8.38,5.31 h0
M8.92,8.27 h0
M10.49,24.75 h0
M14.82,95.59 h0
M14.86,85.83 h0
M20.34,23.16 h0
M33.09,9.43 h0
M34.05,126.97 h0
M34.48,81.02 h0
M37.34,22.85 h0
M37.4,35.85 h0
M42.01,101.2 h0
M45.09,2.86 h0
M48.93,126.63 h0
M55.28,106.93 h0
M58.89,113.19 h0
M61.09,92.61 h0
M61.66,73.55 h0
M68.09,25.53 h0
M72.34,18.76 h0
M74.51,94.34 h0
M76,80.63 h0
M76.7,55.45 h0
M92.27,6.45 h0
M94.97,68.3 h0
M96.54,26.15 h0
M99.22,83.52 h0
M104.04,70.7 h0
M106.47,28.88 h0
M108.46,78.92 h0
M110.9,33.17 h0
M112.98,92.71 h0
M113.43,76.44 h0
M113.79,7.31 h0
M127.53,17.07 h0
M0.05,93.12 h0
M1.21,96.85 h0
M1.4,89.84 h0
M1.48,49.06 h0
M3.65,106.62 h0
M3.77,122.14 h0
M5.86,39.92 h0
M7.48,3.34 h0
M10.07,46.79 h0
M10.44,19.69 h0
M12.58,105.92 h0
M13.37,103.61 h0
M17.07,45.48 h0
M17.93,122.57 h0
M24.39,35.37 h0
M26.73,1.41 h0
M37.44,0.49 h0
M37.63,73.64 h0
M37.94,99.61 h0
M39.41,120.18 h0
M40.14,28.27 h0
M45.31,65.92 h0
M45.58,32.65 h0
M51.76,7.6 h0
M52.84,14.81 h0
M56.83,117.97 h0
M59.19,21.61 h0
M60.17,33.44 h0
M60.18,26.76 h0
M60.87,13.48 h0
M69.93,80.76 h0
M70.35,48.94 h0
M74.36,105.37 h0
M79.36,53.89 h0
M81.17,29.57 h0
M83.25,7.36 h0
M83.76,2.82 h0
M89.85,50.15 h0
M93.02,127.34 h0
M94.86,10.3 h0
M102.06,14.34 h0
M102.11,71.97 h0
M103.42,101.03 h0
M106.78,85.15 h0
M110.83,49.91 h0
M111.15,90.26 h0
M115.84,1.03 h0
M117.21,33.52 h0
M119.65,81.66 h0
M120.16,23.4 h0
M126.79,10.47 h0
M128.05,93.12 h0
M0.49,40.61 h0
M4.65,22.52 h0
M5.52,69.19 h0
M9.86,83.64 h0
M9.96,89.94 h0
M11.82,122.8 h0
M12.53,32.39 h0
M13.35,50.49 h0
M15.27,58.52 h0
M21.69,93.94 h0
M25.89,23.43 h0
M26.57,103.65 h0
M26.94,64.11 h0
M29.05,17.55 h0
M29.96,77.96 h0
M33.59,13.57 h0
M38.27,102.8 h0
M39.79,18.83 h0
M55.65,58.87 h0
M58.73,49.86 h0
M67.87,55.81 h0
M69.7,67.69 h0
M73.58,6.08 h0
M81.6,25.84 h0
M85.5,83.21 h0
M89.3,92.74 h0
M101.46,48.83 h0
M103.98,97.92 h0
M105.91,81.78 h0
M109,123.11 h0
M111.82,37.12 h0
M114.97,17.03 h0
M125.52,6.21 h0
M128.49,40.61 h0
M3.38,11.65 h0
M3.43,85.31 h0
M10.89,60.31 h0
M12.65,101.76 h0
M16.13,18.97 h0
M16.47,94.83 h0
M19.02,98.65 h0
M19.29,90.21 h0
M22.95,115.51 h0
M24.46,102.05 h0
M24.54,33.09 h0
M26.88,78.82 h0
M29.61,40.19 h0
M32.49,3.68 h0
M33.63,56.23 h0
M37.74,15.69 h0
M39.58,30.88 h0
M39.97,20.98 h0
M47.62,65.04 h0
M60.43,105.77 h0
M60.61,37.86 h0
M70.57,37.5 h0
M70.93,74.18 h0
M71.95,1.33 h0
M72.68,34.8 h0
M74.18,60.85 h0
M74.81,58.47 h0
M81.65,19.81 h0
M83.94,60.45 h0
M85.29,117.69 h0
M85.7,1.95 h0
M85.93,13.05 h0
M87.34,54.49 h0
M89.78,111.16 h0
M91.5,42.31 h0
M95.53,19.64 h0
M103.5,112.76 h0
M106.53,122.36 h0
M108.49,8.47 h0
M108.81,56.26 h0
M122.39,113.59 h0
M126.7,122.7 h0
M127.1,59.98 h0
M3.8,100.13 h0
M6.36,94.27 h0
M7.88,1.01 h0
M8.5,105.82 h0
M14.02,123.38 h0
M14.49,5.46 h0
M15.38,101.54 h0
M23.56,45.2 h0
M24.55,26.5 h0
M25.94,3.77 h0
M26.78,12.87 h0
M27.27,9.75 h0
M43.25,58.36 h0
M45.16,119.46 h0
M48.93,36.92 h0
M49.02,77.22 h0
M49.51,35.12 h0
M51.03,29.11 h0
M61.61,59.62 h0
M64.2,47.63 h0
M71.63,65.81 h0
M73.06,73.14 h0
M76.52,76.57 h0
M89.18,-0.04 h0 m0,128 h0
M96.11,99.57 h0
M99.5,71.68 h0
M99.88,96.5 h0
M101.65,27.21 h0
M101.8,35.48 h0
M102.9,31 h0
M104.58,41.43 h0
M106.55,79.13 h0
M108.83,58.86 h0
M117.46,111 h0
M124.92,108.12 h0
M126.4,76.65 h0
M0.02,28.32 h0
M2.48,93.05 h0
M10.44,110.62 h0
M10.51,8 h0
M12.56,94.53 h0
M13.06,3.42 h0
M14.01,64.37 h0
M20.67,5.88 h0
M23.57,38.77 h0
M24.72,78.9 h0
M24.79,104.56 h0
M26.44,126.95 h0
M27.73,54.45 h0
M28.4,76.22 h0
M29.32,0.42 h0 m0,128 h0
M36.78,45.98 h0
M38.79,58.4 h0
M39.66,87.88 h0
M39.74,0 h0 m0,128 h0
M41.4,14.76 h0
M41.78,98.82 h0
M43.38,19.9 h0
M46.34,111.37 h0
M48.57,8.71 h0
M56.13,60.73 h0
M57.42,17.67 h0
M57.75,1.07 h0
M59.03,55.71 h0
M59.79,18.78 h0
M61.38,97.83 h0
M65.33,16.52 h0
M66.94,72.27 h0
M67.11,85.32 h0
M76.88,68.98 h0
M77,92.1 h0
M81.05,106.46 h0
M87.54,35.52 h0
M91.12,61.54 h0
M92.82,80.2 h0
M92.95,8.82 h0
M102.06,24.6 h0
M106.16,111.75 h0
M108.97,50.86 h0
M117.82,92.83 h0
M121.98,70.31 h0
M122.79,53.18 h0
M128.02,28.32 h0
M2.07,77.81 h0
M4.21,45.04 h0
M9.87,94.79 h0
M13.57,52.77 h0
M15.37,24.68 h0
M22.65,87.16 h0
M26.89,106.56 h0
M29.67,9.72 h0
M30.72,12.29 h0
M34.75,12.15 h0
M39.22,107.68 h0
M46.01,109.09 h0
M50.1,39.4 h0
M58.22,8.09 h0
M62.26,23.72 h0
M62.76,99.84 h0
M64.51,101.61 h0
M64.7,10.58 h0
M65.88,42.2 h0
M68.13,43.17 h0
M71.95,113.35 h0
M80.92,103.27 h0
M85.23,79.17 h0
M85.32,28.76 h0
M86.68,37.48 h0
M87.37,78.97 h0
M97.63,126.73 h0
M103.17,47.11 h0
M106.28,35.48 h0
M106.62,23.92 h0
M106.97,124.45 h0
M114.52,26.03 h0
M119.36,48.56 h0
M121.9,29.1 h0
M123.34,17.58 h0
M126.72,118.09 h0
M0.04,75.63 h0
M7.78,118.13 h0
M10.69,63.11 h0
M14.66,29.94 h0
M21.95,7.28 h0
M23.38,53.64 h0
M23.5,95.11 h0
M27.73,122.35 h0
M28.05,109.2 h0
M28.96,106.7 h0
M31.19,110.86 h0
M33.63,74.52 h0
M36.14,95.09 h0
M38.39,91.84 h0
M43.97,121.12 h0
M46.02,78.07 h0
M46.77,79.89 h0
M53.47,30.34 h0
M53.67,69.35 h0
M56.99,6.3 h0
M57.67,110.01 h0
M60.75,1.67 h0
M62.44,31.85 h0
M63.36,127 h0
M83.22,89.83 h0
M87.26,0.44 h0 m0,128 h0
M90.01,86.57 h0
M90.49,7.83 h0
M92.62,94.23 h0
M104.03,116.02 h0
M106.76,38.01 h0
M109.77,38.59 h0
M110.99,47.38 h0
M111.33,78.28 h0
M111.61,88.02 h0
M115.02,51.16 h0
M115.57,109.85 h0
M119.26,90.36 h0
M119.84,58.56 h0
M120.12,42.74 h0
M128.04,75.63 h0
M3.38,63.11 h0
M7.03,53.3 h0
M20.02,126.26 h0
M28.28,81.73 h0
M35.48,58.9 h0
M37.37,113.09 h0
M37.46,80.76 h0
M40.07,70.58 h0
M44.99,115.53 h0
M48.04,57.2 h0
M49.05,112.48 h0
M51.23,98.8 h0
M51.88,43.01 h0
M59.64,67.99 h0
M70.17,83.85 h0
M71.81,124.25 h0
M76.28,87.15 h0
M78.63,49.35 h0
M79.34,126.27 h0
M83.09,68.16 h0
M83.65,69.91 h0
M85.78,10.54 h0
M88.75,42.34 h0
M88.8,102.84 h0
M89.55,94.9 h0
M89.84,52.05 h0
M90.21,27.42 h0
M90.93,108.46 h0
M94.93,62.77 h0
M95.71,106.87 h0
M96.92,114.77 h0
M98.01,57.47 h0
M99.67,14.15 h0
M102.46,65.49 h0
M108.93,45.99 h0
M111.2,126.69 h0
M116.03,121.97 h0
M116.27,6.65 h0
M122.63,66.48 h0
M122.77,5.15 h0
M123.69,106.45 h0
M0.67,11.32 h0
M10.58,26.7 h0
M10.72,104.14 h0
M14.67,32.02 h0
M15.75,127.61 h0
M25.41,53.93 h0
M30.52,14.41 h0
M33.84,40.5 h0
M34.72,19.16 h0
M44.04,11.39 h0
M47.79,115.66 h0
M47.98,81.84 h0
M55.19,120.13 h0
M66.76,77.33 h0
M71.99,91.74 h0
M73.55,120.75 h0
M76.21,59.82 h0
M76.56,111.21 h0
M80.7,63.88 h0
M81.13,100.73 h0
M83.86,19.45 h0
M85.55,71.17 h0
M86.52,73.32 h0
M91.99,111.83 h0
M97.76,20.64 h0
M99.4,102.05 h0
M104.16,37.01 h0
M111.14,82.26 h0
M112.08,27.32 h0
M124.85,49.19 h0
M125.02,93.01 h0
M126.21,110.7 h0"/>
  <path stroke-linecap="round" stroke-width="1" stroke="#685d45" opacity=".4" d="
M12.23,115.68 h0
M14.79,46.05 h0
M16.37,67.6 h0
M17.15,53.17 h0
M18.49,24.8 h0
M19.89,67.97 h0
M20.19,110.99 h0
M23.72,18.74 h0
M24,51 h0
M24.58,67.97 h0
M25.05,65.59 h0
M25.12,84.31 h0
M31.97,94.84 h0
M33.69,16.9 h0
M35.85,21.24 h0
M39.89,84.1 h0
M41.92,120.25 h0
M42.06,67.25 h0
M42.62,38.56 h0
M45.86,70.77 h0
M47.52,23.63 h0
M48.96,41.46 h0
M50.73,45.03 h0
M58.16,15.51 h0
M61.13,17.25 h0
M67.28,63.27 h0
M72.59,37.85 h0
M76.98,89.22 h0
M83.84,44.96 h0
M88.59,69.81 h0
M94.48,23.66 h0
M99.13,10.56 h0
M102.26,69.43 h0
M102.32,81.01 h0
M102.41,60.08 h0
M102.78,11.45 h0
M107.9,97.03 h0
M110.73,28.83 h0
M115.54,70.15 h0
M115.78,78.61 h0
M119.86,99.42 h0
M121.62,83.06 h0
M123.13,81.81 h0
M124.63,97.02 h0
M0.87,53.05 h0
M6.77,29.84 h0
M8.1,112.55 h0
M14.96,91.94 h0
M26.21,28.35 h0
M28.54,12.02 h0
M28.61,79.48 h0
M31.83,32.68 h0
M33.99,68.71 h0
M34.16,94.77 h0
M35.89,39.85 h0
M40.3,25.9 h0
M42.49,73.98 h0
M44.53,74.86 h0
M45.52,18.28 h0
M51.5,53.88 h0
M53.92,83.49 h0
M55.81,22.24 h0
M58.25,12.8 h0
M58.39,90.6 h0
M61.07,47.91 h0
M61.18,53.44 h0
M62.54,5.06 h0
M63.7,45.62 h0
M68.45,82.62 h0
M69.53,21.38 h0
M75.58,34.35 h0
M77.69,65.44 h0
M80.76,22.38 h0
M85.52,63.8 h0
M87.95,33.15 h0
M89.21,18.22 h0
M92.58,109.46 h0
M93.96,104.35 h0
M94.79,109.21 h0
M95.29,116.99 h0
M100.02,5.15 h0
M103.96,5.94 h0
M108.21,36.87 h0
M108.35,119.38 h0
M115.59,117.85 h0
M118.11,15.66 h0
M118.44,53.97 h0
M122.01,56.64 h0
M122.28,35.45 h0
M126.45,65.46 h0
M127.07,102.85 h0
M127.16,35.52 h0
M-0.4,88.51 h0
M0.77,32.02 h0
M12.97,56.11 h0
M13.11,42.11 h0
M16.93,23.94 h0
M20.72,33.82 h0
M21.33,99.43 h0
M24.85,12.71 h0
M30.4,112.74 h0
M32.41,0.38 h0 m0,128 h0
M37.81,76.41 h0
M38.09,94.4 h0
M40.07,48.65 h0
M46.27,90.39 h0
M47.72,50.05 h0
M50.66,47.16 h0
M53.47,10.71 h0
M55.76,39.85 h0
M56,56.41 h0
M56.64,74.08 h0
M58.5,60.05 h0
M59.14,74.69 h0
M59.7,83.76 h0
M59.81,99.86 h0
M69.16,53.92 h0
M74.25,36.48 h0
M78.5,93.23 h0
M90.34,38.06 h0
M94.4,92.69 h0
M99.97,115.31 h0
M100.19,61.45 h0
M105.17,99.59 h0
M106.79,17.81 h0
M107.88,30.49 h0
M107.95,26.6 h0
M110.91,115.67 h0
M113.45,118.48 h0
M114.09,68.17 h0
M115.38,126.38 h0
M120.55,115.36 h0
M124.1,122.54 h0
M125.18,71.58 h0
M127.6,88.51 h0
M0.81,60.11 h0
M3.63,18.48 h0
M5.37,103.6 h0
M5.5,101.5 h0
M5.65,14.79 h0
M6.64,8.92 h0
M10.17,81 h0
M11.02,36.52 h0
M11.62,50.28 h0
M12.49,58.24 h0
M13.81,97.18 h0
M18.9,84.98 h0
M19.68,45.76 h0
M23.47,125.48 h0
M24.55,71.63 h0
M25.92,122.24 h0
M30.17,67.88 h0
M30.32,93.61 h0
M35.65,17 h0
M37.74,30.84 h0
M39.76,38.59 h0
M44.24,5.21 h0
M49.98,85.13 h0
M52.68,27.21 h0
M62.17,102.06 h0
M64.18,24.44 h0
M65.11,71.24 h0
M65.31,55.52 h0
M77.35,61.36 h0
M80.27,72.95 h0
M85.38,95.34 h0
M88.17,22.03 h0
M90.24,55.52 h0
M91.23,83.22 h0
M95.82,4.97 h0
M98.42,116.59 h0
M99.19,35.96 h0
M111.12,0.92 h0
M113.41,126.93 h0
M120.44,55.55 h0
M3.92,72.95 h0
M17.1,124.47 h0
M17.24,118.43 h0
M21,107.41 h0
M21.67,1.04 h0
M26.7,18.79 h0
M42.04,54.39 h0
M43.94,55.28 h0
M51.85,69.91 h0
M54.53,117.56 h0
M55.8,24.94 h0
M57.34,62.52 h0
M60.51,50.85 h0
M65.7,88.02 h0
M69.39,4.04 h0
M78.66,59.07 h0
M78.81,56.57 h0
M81.13,120.34 h0
M84.07,26.3 h0
M84.09,43.05 h0
M88.56,46.29 h0
M88.83,24.01 h0
M89.9,89.89 h0
M90.57,44.47 h0
M90.6,4.83 h0
M98.37,2.93 h0
M98.94,26.16 h0
M101.94,3.49 h0
M106.39,0.3 h0 m0,128 h0
M110.52,76.2 h0
M117.63,69.63 h0
M122.78,19.73 h0
M124.19,7.81 h0
M0.76,99.16 h0
M2.65,47.08 h0
M6.57,21.63 h0
M9.61,31.24 h0
M12.54,9.52 h0
M22.03,37.72 h0
M22.23,29.2 h0
M24.08,74.84 h0
M26.12,30.85 h0
M37.24,117.72 h0
M42.79,65.33 h0
M49,4.08 h0
M50.39,62.05 h0
M53,108.28 h0
M53.21,64.65 h0
M56.83,121.8 h0
M63.25,53.61 h0
M67.46,104.28 h0
M69.35,103.45 h0
M74.79,78.75 h0
M77.05,115.53 h0
M79.39,18.9 h0
M81.22,3.85 h0
M83.59,116.24 h0
M83.97,91.82 h0
M84.75,36.74 h0
M87.84,76.91 h0
M90.97,98.8 h0
M95.13,95.29 h0
M97.56,118.19 h0
M103.64,67.69 h0
M110.63,85.99 h0
M116.28,124.22 h0
M117.3,35.91 h0
M118.1,114.24 h0
M118.68,117.83 h0
M126.98,97.07 h0
M127.39,126.64 h0
M1.21,85.91 h0
M1.97,69.81 h0
M5.92,62.79 h0
M8.82,35.36 h0
M10.51,4.83 h0
M14.83,81.52 h0
M14.95,60.34 h0
M21.95,42.5 h0
M23.23,15.09 h0
M23.71,16.89 h0
M26.78,71.56 h0
M34.61,1.41 h0
M35.55,28.05 h0
M35.89,124.4 h0
M37.48,120.09 h0
M37.79,40.85 h0
M40.22,17.07 h0
M40.25,40.73 h0
M44.19,102.59 h0
M44.74,29.23 h0
M46.52,60.26 h0
M51.87,40.87 h0
M52.79,85.15 h0
M53.85,80.92 h0
M56.46,104.84 h0
M58.01,106.28 h0
M63.61,104.63 h0
M64.89,40.76 h0
M65.12,35.38 h0
M65.47,75.66 h0
M67.28,81.25 h0
M76.77,106.82 h0
M78.08,17.42 h0
M79.71,123.05 h0
M81.64,31.87 h0
M87.39,20 h0
M87.61,52.28 h0
M91.25,16.38 h0
M92.96,16.86 h0
M93.28,106.89 h0
M94.42,61.02 h0
M94.98,37.49 h0
M95.37,42.01 h0
M98,0.65 h0
M99.95,108.42 h0
M101.57,19.27 h0
M102.9,87.48 h0
M105.27,63.18 h0
M110.31,101.19 h0
M113.4,29.28 h0
M114.64,112.2 h0
M117.65,104.79 h0
M123.8,78.08 h0
M126.38,94.88 h0
M126.98,46.14 h0
M6.68,23.89 h0
M7.68,64.22 h0
M9.03,51.42 h0
M9.57,37.82 h0
M12.05,28.43 h0
M13.94,1.65 h0
M14.99,37.94 h0
M15.81,41.22 h0
M16.24,76.24 h0
M21.62,70.03 h0
M27.98,38.63 h0
M28.54,118.09 h0
M30.48,31.31 h0
M33.44,92.91 h0
M42.8,111.97 h0
M45.48,48.02 h0
M45.99,51.32 h0
M51.07,104.74 h0
M51.57,49.02 h0
M53.28,34.72 h0
M53.74,56.28 h0
M67.91,17.44 h0
M71.6,97.86 h0
M72.03,80.77 h0
M78.67,7.48 h0
M90.16,115.15 h0
M90.96,69.67 h0
M93.3,28.19 h0
M94.07,121.67 h0
M100.36,81.39 h0
M100.9,104.43 h0
M107.34,40.28 h0
M110.09,113.28 h0
M115.49,10.91 h0
M115.52,37.61 h0
M120.63,62.06 h0
M124.37,25.7 h0
M3.3,16.19 h0
M5.86,96.56 h0
M7.93,71.85 h0
M19.16,31.95 h0
M23.44,99.34 h0
M24.29,30.27 h0
M29.29,20.32 h0
M33.82,110.53 h0
M34.99,76.74 h0
M38.02,78.4 h0
M41.78,52.23 h0
M47.62,6.32 h0
M48.14,28.6 h0
M48.62,52.73 h0
M51.18,76.95 h0
M51.97,101 h0
M53.27,106.07 h0
M54.82,0.38 h0 m0,128 h0
M61.28,75.48 h0
M62.81,9.43 h0
M67.54,99.13 h0
M75.31,52.86 h0
M78.13,35.39 h0
M78.53,0.59 h0
M85.03,127.57 h0
M90.35,96.84 h0
M97.26,31.16 h0
M99.47,88.24 h0
M101.69,109.8 h0
M102.32,114.91 h0
M104.89,47.05 h0
M106.64,108.04 h0
M108.26,76.4 h0
M112.43,44.57 h0
M113.26,99.71 h0
M115.41,28.1 h0
M124.58,42.5 h0
M125.73,86.91 h0
M0.71,104.1 h0
M3.72,124.35 h0
M5.12,114.74 h0
M5.2,19.87 h0
M7.75,74.43 h0
M8.74,60.48 h0
M16.99,65.49 h0
M18.72,34.35 h0
M31.18,76.12 h0
M32.43,81.05 h0
M35.11,8.13 h0
M44.9,67.87 h0
M46,9.69 h0
M47.76,38.48 h0
M48.99,17.67 h0
M49.7,19.78 h0
M53.49,53.45 h0
M54.39,27.73 h0
M62.08,19.58 h0
M65.25,117.73 h0
M65.61,22.53 h0
M66.54,107.05 h0
M67.6,126.34 h0
M69.69,87.97 h0
M70.9,95.87 h0
M71.52,68.11 h0
M78.98,90.55 h0
M81.21,127.36 h0
M83.34,9.46 h0
M85.37,55.43 h0
M85.49,99.92 h0
M88.29,60.74 h0
M88.5,5.46 h0
M92.66,99.47 h0
M95.32,79.45 h0
M105.01,77.48 h0
M109.32,117.61 h0
M110.16,72.24 h0
M117.89,88.97 h0
M118.27,30.63 h0
M123.19,27.5 h0
M126.7,24.49 h0
M0.39,78.83 h0
M0.75,46.47 h0
M1.66,117.3 h0
M4.31,24.83 h0
M7.01,37.03 h0
M11.13,15.13 h0
M11.41,96.17 h0
M12.03,30.5 h0
M12.34,79.17 h0
M12.4,125.06 h0
M21.72,10.57 h0
M26.3,117.17 h0
M32.19,11.12 h0
M37.85,20.39 h0
M38.01,115.79 h0
M38.72,43.74 h0
M43.6,17.84 h0
M50.85,0.95 h0
M53.52,104.18 h0
M53.91,46.32 h0
M53.94,6.06 h0
M55.5,98.8 h0
M59.17,46.58 h0
M61.78,45.55 h0
M64.88,26.98 h0
M65.16,99.32 h0
M66.24,12.45 h0
M66.99,113.42 h0
M71.45,127.12 h0
M75.85,82.86 h0
M75.93,113.71 h0
M82.62,36.61 h0
M86.08,34.04 h0
M86.48,58.5 h0
M96.1,22 h0
M96.85,15.58 h0
M100.37,2.49 h0
M103.67,19.75 h0
M104.47,29.8 h0
M112.68,95.34 h0
M113.1,52.15 h0
M120.62,117.5 h0
M125.47,4.11 h0
M126.29,70.39 h0
M127.08,73.53 h0
M128.39,78.83 h0
M2.69,102.58 h0
M2.98,1.37 h0
M3.63,50.38 h0
M4.16,118.07 h0
M14.91,106.09 h0
M14.95,115.44 h0
M19.38,120.48 h0
M20.58,85.69 h0
M28.53,66.3 h0
M32.68,60.82 h0
M38.05,69.27 h0
M40.8,45.06 h0
M41.61,84.52 h0
M42.84,50.48 h0
M47.43,69.71 h0
M47.46,67.42 h0
M48.61,123.72 h0
M51.37,18.58 h0
M51.43,35.36 h0
M54.21,97.06 h0
M60.01,119.73 h0
M60.45,89.76 h0
M69.54,75.88 h0
M78.41,39.1 h0
M82.09,114.01 h0
M83.71,63.01 h0
M88.09,44.2 h0
M90,20.9 h0
M92.37,24.53 h0
M95.43,81.22 h0
M98.6,55.66 h0
M98.85,109.96 h0
M99.84,38.14 h0
M101.81,123.7 h0
M103.46,75.68 h0
M105.69,53.33 h0
M112.91,85.5 h0
M113.64,83.6 h0
M120.28,77.56 h0
M123.18,115.58 h0
M124.81,30.73 h0
M125.65,104.96 h0
M1.24,57.69 h0
M5.43,90.53 h0
M10.08,114.99 h0
M20.65,101.55 h0
M21.64,61.96 h0
M26.01,113.64 h0
M27.92,125.01 h0
M27.98,111.8 h0
M29.91,122.25 h0
M31.88,52.3 h0
M33.61,53.36 h0
M40.55,102.46 h0
M41.32,2.28 h0
M42.18,0.15 h0 m0,128 h0
M48.55,102.67 h0
M53.78,86.95 h0
M59.58,110.99 h0
M62.43,106.84 h0
M62.91,37.63 h0
M67.25,58.34 h0
M67.61,65.42 h0
M69.41,59.21 h0
M69.56,126.35 h0
M72.33,99.94 h0
M73.89,92.11 h0
M76.27,50.31 h0
M77.23,102.66 h0
M86.45,122.65 h0
M88.18,83.08 h0
M89.38,75.17 h0
M90.76,23.51 h0
M91.13,81.28 h0
M106.63,90.46 h0
M108.25,3.15 h0
M109.02,28.56 h0
M110.48,60.43 h0
M110.64,64.42 h0
M113.26,55.05 h0
M122.03,90.59 h0
M123,30.62 h0
M125.42,28.77 h0"/>
  <path stroke-linecap="round" stroke-width=".8" stroke="#685d45" opacity=".4" d="
M2.27,75.07 h0
M2.47,44.11 h0
M3.18,115.85 h0
M6.13,71.43 h0
M12.59,21.53 h0
M12.84,92.34 h0
M17.8,112.36 h0
M21.28,14 h0
M21.34,50.63 h0
M35.05,66.77 h0
M35.91,114.98 h0
M46.03,104.78 h0
M47.26,120.98 h0
M47.39,85.22 h0
M47.41,97.62 h0
M48.92,72.18 h0
M51.54,79.27 h0
M53.98,89.64 h0
M55.54,72.31 h0
M55.82,19.85 h0
M57.96,114.47 h0
M60.22,15.36 h0
M61.28,8.14 h0
M62.21,11.99 h0
M62.22,95.1 h0
M64.88,3.68 h0
M68.23,111.35 h0
M69.73,85.61 h0
M72.77,57.5 h0
M74.15,40.2 h0
M74.27,107.71 h0
M76.08,0.16 h0 m0,128 h0
M77.8,46.04 h0
M78.41,3.06 h0
M82.23,38.53 h0
M84.23,49.54 h0
M85.93,60.86 h0
M86.27,85.33 h0
M101.65,58.44 h0
M102.98,104.26 h0
M103.84,105.86 h0
M106.07,116.06 h0
M106.37,103.75 h0
M108.37,19.6 h0
M110.09,80.17 h0
M114.28,35.29 h0
M119.6,113.33 h0
M121.23,10.33 h0
M121.57,107.43 h0
M124.48,65.98 h0
M125.88,89.28 h0
M126.79,0.4 h0 m0,128 h0
M1.84,87.67 h0
M2.99,3.66 h0
M3.24,83.01 h0
M5.63,58.73 h0
M9.78,67.97 h0
M15.54,87.62 h0
M17.39,116.52 h0
M17.97,8.61 h0
M21.97,122.51 h0
M23.99,5.4 h0
M24.47,90.05 h0
M26.19,39.66 h0
M29.26,87.31 h0
M29.43,99.34 h0
M34.06,99.49 h0
M34.71,3 h0
M35.54,72.22 h0
M39.67,7.75 h0
M41.89,115.95 h0
M44.21,0.91 h0
M45.69,86.44 h0
M53.58,126.46 h0
M54.39,42.77 h0
M58.4,27.95 h0
M63.29,96.98 h0
M66.66,30.55 h0
M69.24,56.87 h0
M73.72,42.16 h0
M76.55,57.37 h0
M77.47,117.23 h0
M79.04,111.26 h0
M79.8,115.02 h0
M84.07,65.7 h0
M86.32,48.41 h0
M95.28,53.51 h0
M95.37,76.29 h0
M96.91,120.74 h0
M102.77,50.72 h0
M104.77,39.16 h0
M110.38,66.63 h0
M111.49,17.63 h0
M111.94,74.46 h0
M113.87,73.83 h0
M118.23,13.32 h0
M121.57,95.59 h0
M123.98,14.54 h0
M124.19,55.12 h0
M124.96,39.61 h0
M127.05,43.82 h0
M5.92,112.85 h0
M8.58,45.37 h0
M10.22,119.19 h0
M19,10.52 h0
M21.57,52.9 h0
M23.23,77.54 h0
M24.04,122.08 h0
M24.12,110.58 h0
M26.6,82.38 h0
M27.72,21.75 h0
M32.35,72.98 h0
M36.23,5.15 h0
M37.6,56.81 h0
M40.23,35.77 h0
M42.82,114.16 h0
M49.2,14.16 h0
M53.93,76.48 h0
M64.99,96.75 h0
M67.11,60.62 h0
M69.68,6.6 h0
M74.06,10.75 h0
M78.3,43.39 h0
M78.38,24.75 h0
M78.4,81.35 h0
M80.79,88.48 h0
M82.99,71.86 h0
M87.74,12.3 h0
M92.31,62.84 h0
M99.22,44.28 h0
M104.19,25.82 h0
M111.12,30.83 h0
M111.43,24.15 h0
M113.18,3.6 h0
M113.69,37.83 h0
M115.12,46.44 h0
M122.44,60.9 h0
M3.66,126.81 h0
M3.79,29.14 h0
M12.07,81.83 h0
M17.15,120.38 h0
M25.35,37.4 h0
M37.58,47.92 h0
M39.47,46.54 h0
M42.71,46.44 h0
M49.76,51.47 h0
M52.37,60.36 h0
M53.93,61.44 h0
M54.77,4.1 h0
M55.55,83.94 h0
M57.68,23.5 h0
M58.56,79.68 h0
M59.9,77.23 h0
M71.28,30.85 h0
M71.43,51.22 h0
M72.99,45.21 h0
M75.17,3.84 h0
M76.88,71.63 h0
M87.33,125.97 h0
M88.2,7.77 h0
M92.82,102.2 h0
M93.56,42.48 h0
M94.6,70.22 h0
M96.89,63.5 h0
M101.45,8.7 h0
M101.48,53.66 h0
M103.62,56.8 h0
M108.98,0.91 h0
M114.74,93.28 h0
M116.84,76.64 h0
M125.04,126.32 h0
M1.86,123.48 h0
M2.14,33.51 h0
M3.92,70.54 h0
M4.41,37.23 h0
M5.39,28.07 h0
M19.6,113.39 h0
M22.93,12.39 h0
M23.87,85.93 h0
M28.33,14.84 h0
M42.41,82.08 h0
M42.69,123.19 h0
M44.94,37.27 h0
M50.06,59.47 h0
M52.98,112.51 h0
M54.32,110.38 h0
M55.42,67.75 h0
M58.37,39.67 h0
M65.43,105.54 h0
M67.46,6.03 h0
M67.82,45.1 h0
M69.67,33.38 h0
M73,118.69 h0
M74.02,76.85 h0
M74.46,28.48 h0
M80.05,27.64 h0
M80.78,80.53 h0
M82.93,108.27 h0
M89.87,79.01 h0
M91.46,19.15 h0
M96.58,59.99 h0
M104.68,15.51 h0
M110.65,103.24 h0
M111.74,117.47 h0
M113.98,87.31 h0
M116.66,91.07 h0
M117.16,22.24 h0
M121.1,64.32 h0
M121.22,111.51 h0
M122.55,120.31 h0
M123.18,68.66 h0
M123.79,100.32 h0
M124.63,75.99 h0
M127.24,48.55 h0
M0.49,65.66 h0
M3.85,39.37 h0
M7.9,95.57 h0
M12.69,19.3 h0
M21.55,35.64 h0
M25.22,48.81 h0
M30.51,37.53 h0
M39.26,2.36 h0
M51.97,-0.55 h0 m0,128 h0
M54.21,92.27 h0
M59.01,122.25 h0
M63.22,76.4 h0
M63.65,59.01 h0
M64.8,69.04 h0
M72.3,76.07 h0
M76.15,99.4 h0
M76.98,32.81 h0
M78.01,63.43 h0
M78.79,87.81 h0
M79.45,21 h0
M82.85,1.11 h0
M96.65,78.19 h0
M100.44,16.77 h0
M105.84,113.84 h0
M106.06,73.35 h0
M107.13,46.9 h0
M109.17,16.48 h0
M112.64,113.33 h0
M112.77,16.27 h0
M113.23,19.4 h0
M117.24,62.57 h0
M122.77,117.53 h0
M128.49,65.66 h0
M1.18,112.29 h0
M1.35,81.02 h0
M2.88,21.28 h0
M4.48,48.59 h0
M7.88,12.33 h0
M9.57,127.16 h0
M9.68,71.8 h0
M11.38,17.66 h0
M19.28,92.51 h0
M21.21,26.25 h0
M28.75,42.07 h0
M29.49,64.51 h0
M30.28,48.16 h0
M31.59,99.06 h0
M34.84,87.01 h0
M35.35,23.47 h0
M40.07,81.51 h0
M49.89,116.05 h0
M51.14,110.93 h0
M56.56,31.84 h0
M64.85,113.36 h0
M83.78,80.89 h0
M87.65,30.86 h0
M88.49,58.04 h0
M96.61,71.55 h0
M100.81,56.59 h0
M103.4,1.41 h0
M108.29,115.14 h0
M109.19,125.49 h0
M109.35,35.01 h0
M118.3,67.75 h0
M120.32,122.89 h0
M126.98,91.35 h0
M3.17,109.46 h0
M5.11,2.1 h0
M10.04,13.5 h0
M12.95,111.73 h0
M14.39,119.6 h0
M16.27,108.76 h0
M17.28,103.49 h0
M17.89,0.34 h0 m0,128 h0
M20.17,83.17 h0
M22.66,91.91 h0
M23.26,58.4 h0
M23.59,108.4 h0
M25.89,51.24 h0
M27.33,48.4 h0
M29.26,44.38 h0
M29.4,35.69 h0
M31.48,107.06 h0
M32.97,44.38 h0
M36.07,10.73 h0
M36.65,88.72 h0
M40.39,110.46 h0
M40.77,89.71 h0
M46.97,107.23 h0
M47.07,124.8 h0
M53.14,22.36 h0
M55.43,113.49 h0
M56.21,14.25 h0
M57.56,69.4 h0
M59.44,87.6 h0
M61.05,127.4 h0
M62.79,15.09 h0
M64.08,65.17 h0
M67.77,79.08 h0
M72.55,16.23 h0
M79.23,76.63 h0
M81.13,124.6 h0
M83.74,122.2 h0
M85.83,42.09 h0
M88.3,87.5 h0
M93.83,36.15 h0
M94.11,114.97 h0
M96.84,23.92 h0
M104.49,49.49 h0
M109.74,5.35 h0
M110.72,42.14 h0
M110.75,12.21 h0
M111.8,105.49 h0
M113.4,14.44 h0
M118.25,56.49 h0
M118.89,75.6 h0
M122.46,79.37 h0
M124.29,50.84 h0
M124.58,102.87 h0
M3.83,5.7 h0
M4.72,31.63 h0
M7.83,83.72 h0
M11.01,107.88 h0
M14.95,110.93 h0
M20.81,77.69 h0
M28.43,52.34 h0
M29.81,27.7 h0
M32.53,108.97 h0
M45.85,122.71 h0
M46.29,26.53 h0
M53.55,58.52 h0
M56.19,42.13 h0
M57,4.24 h0
M59.01,10.65 h0
M60.29,41.57 h0
M65.2,61.05 h0
M67.01,8.3 h0
M78.96,85.58 h0
M81.24,96.44 h0
M83.63,30.09 h0
M99.72,91.5 h0
M100.99,11.29 h0
M107.12,99.92 h0
M107.75,109.92 h0
M108.36,81.62 h0
M116.34,60.97 h0
M118.57,64.15 h0
M119,18.01 h0
M120.67,38.26 h0
M120.87,53.82 h0
M124.41,118.44 h0
M127.25,108.77 h0
M8.21,19.92 h0
M12.2,39.37 h0
M14.36,77.45 h0
M16.32,43.32 h0
M21.83,109.87 h0
M23.81,40.93 h0
M30.94,115.02 h0
M33.92,120.32 h0
M35.23,48.15 h0
M37.72,26.49 h0
M39.46,114.54 h0
M39.95,99.72 h0
M48.69,87.04 h0
M49.83,121.83 h0
M53.45,78.78 h0
M54.19,50.74 h0
M60.01,94.99 h0
M62.48,25.93 h0
M64.35,81.99 h0
M69.15,71.03 h0
M70.02,19.31 h0
M72.09,23.38 h0
M74.63,86.28 h0
M75.09,118.21 h0
M78.1,96.9 h0
M78.47,51.38 h0
M80.44,1.78 h0
M82.85,28.01 h0
M83.61,84 h0
M92.27,56.47 h0
M97.72,87.89 h0
M119.64,110.24 h0
M120.54,66.53 h0
M121.78,40.06 h0
M123.35,98.49 h0
M0.96,8.31 h0
M4.04,56.64 h0
M5.02,92.9 h0
M5.64,0.05 h0 m0,128 h0
M9.93,57.71 h0
M15.75,28.79 h0
M16.79,35.06 h0
M17.53,100.04 h0
M21.66,113.45 h0
M23.35,112.48 h0
M23.52,63.53 h0
M24.2,96.9 h0
M25.06,81.33 h0
M25.27,60.8 h0
M26,20.46 h0
M28.64,7.43 h0
M30.6,91.01 h0
M41.25,30.57 h0
M46.38,62.85 h0
M48.36,110.62 h0
M48.7,33.37 h0
M51.14,32.9 h0
M53.59,19.83 h0
M54.23,13.19 h0
M56.09,49.87 h0
M67.89,108.89 h0
M69.91,64.84 h0
M71.59,40.15 h0
M74.88,71.34 h0
M76.71,36.76 h0
M85.87,8.43 h0
M88.25,2.92 h0
M91.75,92.87 h0
M92.07,26.4 h0
M93.58,82.8 h0
M100.69,0.54 h0 m0,128 h0
M101.41,21.99 h0
M117.85,85.91 h0
M118.33,65.77 h0
M121.93,122.52 h0
M124.16,110.37 h0
M124.7,120.54 h0
M5.58,124.76 h0
M8.63,10.47 h0
M8.77,110.11 h0
M10.27,124.84 h0
M10.46,92.28 h0
M11.72,88.5 h0
M14.21,54.58 h0
M15.42,121.7 h0
M19.5,4.11 h0
M19.91,60.5 h0
M25.75,73.92 h0
M26.26,46.31 h0
M29.02,70.01 h0
M29.25,72.3 h0
M32.74,63.29 h0
M37.21,86.5 h0
M43.72,77.5 h0
M46.74,42.59 h0
M48.11,47.15 h0
M50.78,124.87 h0
M51.14,74.52 h0
M53.36,66.75 h0
M63.19,88.4 h0
M69.33,62.43 h0
M70,44.11 h0
M72.11,28.96 h0
M73.29,126.21 h0
M73.83,81.1 h0
M75.66,11.82 h0
M82.94,21.82 h0
M83.48,126.51 h0
M85.56,120.81 h0
M90.84,127.67 h0
M91.04,53.75 h0
M93.3,119.72 h0
M94.64,51.49 h0
M97.3,111.55 h0
M97.8,7.83 h0
M98.19,12.1 h0
M98.8,104.43 h0
M109.38,21.37 h0
M110.97,111.34 h0
M119.18,21.26 h0
M126.79,62.67 h0
M5.97,87.81 h0
M7.6,18.07 h0
M12.12,5.89 h0
M18.1,28.34 h0
M22.82,81.95 h0
M28.4,62.33 h0
M29.85,124.25 h0
M33.07,85.38 h0
M38.29,62.74 h0
M38.36,83.16 h0
M42.03,17.51 h0
M42.56,103.94 h0
M44.2,94.59 h0
M47.87,89.19 h0
M51.2,57.4 h0
M51.54,67.33 h0
M57.29,99.65 h0
M59.46,2.68 h0
M61.37,78.89 h0
M63.73,1.01 h0
M64.06,124.16 h0
M65.19,50.61 h0
M69.72,28.57 h0
M70.48,111.67 h0
M76.89,122.34 h0
M79.41,79.02 h0
M80.69,112.37 h0
M82.79,78.44 h0
M92.23,39.9 h0
M96.69,109.2 h0
M98.61,16.32 h0
M104.22,89.65 h0
M104.51,61.06 h0
M105.41,126.81 h0
M105.95,12.08 h0
M106.06,2.45 h0
M106.68,105.66 h0
M115.46,33.5 h0"/>
</svg>
