<svg xmlns="http://www.w3.org/2000/svg" xmlns:xlink="http://www.w3.org/1999/xlink" width="256" height="256" viewBox="0 0 256 256">
  <defs>
    <path id="leaftype_mixed1" stroke-width="1" stroke="#6b8d5e" fill="none" d="m3.5,13 v-5.5 a3,3.5 0 0 1 0,-7 3,3.5 0 0 1 0,7"/>
    <path id="leaftype_mixed2" stroke-width="1" stroke="#6b8d5e" fill="none" d="m3.5,13 v-4.5 m-3,0 v-.4093 l2.8465,-7.5907 h.307 l2.8465,7.5907 v.4093 z"/>
  </defs>
  <use x="245" y="-12" xlink:href="#leaftype_mixed1"/>
  <use x="187" y="-10" xlink:href="#leaftype_mixed1"/>
  <use x="151" y="-8" xlink:href="#leaftype_mixed1"/>
  <use x="113" y="4" xlink:href="#leaftype_mixed1"/>
  <use x="47" y="6" xlink:href="#leaftype_mixed1"/>
  <use x="10" y="11" xlink:href="#leaftype_mixed1"/>
  <use x="73" y="19" xlink:href="#leaftype_mixed1"/>
  <use x="153" y="44" xlink:href="#leaftype_mixed1"/>
  <use x="71" y="48" xlink:href="#leaftype_mixed1"/>
  <use x="7" y="49" xlink:href="#leaftype_mixed1"/>
  <use x="179" y="53" xlink:href="#leaftype_mixed1"/>
  <use x="32" y="68" xlink:href="#leaftype_mixed1"/>
  <use x="98" y="69" xlink:href="#leaftype_mixed1"/>
  <use x="204" y="75" xlink:href="#leaftype_mixed1"/>
  <use x="161" y="79" xlink:href="#leaftype_mixed1"/>
  <use x="71" y="82" xlink:href="#leaftype_mixed1"/>
  <use x="45" y="101" xlink:href="#leaftype_mixed1"/>
  <use x="143" y="150" xlink:href="#leaftype_mixed1"/>
  <use x="206" y="174" xlink:href="#leaftype_mixed1"/>
  <use x="84" y="175" xlink:href="#leaftype_mixed1"/>
  <use x="143" y="185" xlink:href="#leaftype_mixed1"/>
  <use x="231" y="205" xlink:href="#leaftype_mixed1"/>
  <use x="42" y="220" xlink:href="#leaftype_mixed1"/>
  <use x="104" y="234" xlink:href="#leaftype_mixed1"/>
  <use x="245" y="244" xlink:href="#leaftype_mixed1"/>
  <use x="187" y="246" xlink:href="#leaftype_mixed1"/>
  <use x="151" y="248" xlink:href="#leaftype_mixed1"/>
  <use x="212" y="12" xlink:href="#leaftype_mixed2"/>
  <use x="175" y="18" xlink:href="#leaftype_mixed2"/>
  <use x="134" y="22" xlink:href="#leaftype_mixed2"/>
  <use x="238" y="28" xlink:href="#leaftype_mixed2"/>
  <use x="42" y="39" xlink:href="#leaftype_mixed2"/>
  <use x="110" y="41" xlink:href="#leaftype_mixed2"/>
  <use x="217" y="46" xlink:href="#leaftype_mixed2"/>
  <use x="131" y="71" xlink:href="#leaftype_mixed2"/>
  <use x="234" y="85" xlink:href="#leaftype_mixed2"/>
  <use x="8" y="86" xlink:href="#leaftype_mixed2"/>
  <use x="183" y="100" xlink:href="#leaftype_mixed2"/>
  <use x="107" y="101" xlink:href="#leaftype_mixed2"/>
  <use x="143" y="107" xlink:href="#leaftype_mixed2"/>
  <use x="213" y="110" xlink:href="#leaftype_mixed2"/>
  <use x="79" y="111" xlink:href="#leaftype_mixed2"/>
  <use x="15" y="113" xlink:href="#leaftype_mixed2"/>
  <use x="242" y="123" xlink:href="#leaftype_mixed2"/>
  <use x="165" y="125" xlink:href="#leaftype_mixed2"/>
  <use x="111" y="132" xlink:href="#leaftype_mixed2"/>
  <use x="36" y="133" xlink:href="#leaftype_mixed2"/>
  <use x="199" y="139" xlink:href="#leaftype_mixed2"/>
  <use x="79" y="145" xlink:href="#leaftype_mixed2"/>
  <use x="225" y="149" xlink:href="#leaftype_mixed2"/>
  <use x="8" y="150" xlink:href="#leaftype_mixed2"/>
  <use x="51" y="156" xlink:href="#leaftype_mixed2"/>
  <use x="173" y="160" xlink:href="#leaftype_mixed2"/>
  <use x="114" y="164" xlink:href="#leaftype_mixed2"/>
  <use x="23" y="176" xlink:href="#leaftype_mixed2"/>
  <use x="248" y="180" xlink:href="#leaftype_mixed2"/>
  <use x="174" y="189" xlink:href="#leaftype_mixed2"/>
  <use x="54" y="194" xlink:href="#leaftype_mixed2"/>
  <use x="110" y="196" xlink:href="#leaftype_mixed2"/>
  <use x="12" y="207" xlink:href="#leaftype_mixed2"/>
  <use x="200" y="208" xlink:href="#leaftype_mixed2"/>
  <use x="76" y="211" xlink:href="#leaftype_mixed2"/>
  <use x="136" y="214" xlink:href="#leaftype_mixed2"/>
  <use x="166" y="223" xlink:href="#leaftype_mixed2"/>
  <use x="215" y="238" xlink:href="#leaftype_mixed2"/>
  <use x="19" y="240" xlink:href="#leaftype_mixed2"/>
  <use x="78" y="242" xlink:href="#leaftype_mixed2"/>
</svg>
