<?xml version="1.0" encoding="UTF-8"?>
<svg xmlns="http://www.w3.org/2000/svg" xmlns:xlink="http://www.w3.org/1999/xlink" width="256" height="256" viewBox="0 0 256 256">
<defs>
  <path id="a" d="m-.158-6.59c-.592.0968-.373.839-.693 1.14-.58.308-.794-.562-1.38-.502-.441-.0545-1.35-.203-1.32.457-.00553.285.584.603.0234.635-1.29.202-2.71.803-3.26 2.07-.036.699.31 1.56.971 1.87.491-.128.327-.0545.352.391.189.821 1.22.49 1.68.105.678-.442 1.31-1.24 2.21-1 .831.0728 1.92-.181 2.09-1.13.296-.332.729.205.852.473-.462.247-.922.878-.414 1.32.401.57-.484 1.04-.929 1.23-.572.141-1.05.816-.573 1.32.606.633 1.44-.133 2.04-.404 1.26-.647 1.36-2.21 1.53-3.45.146-.963-1.08-1.24-1.28-2.03.617-.355 1.39.158 1.45.846.365 1.27.498 2.7-.252 3.87-.356.572-.475 1.26-.752 1.85-.558.681-1.77.873-1.94 1.83.166.687 1.1.487 1.6.316.9-.284 1.12-1.35 1.89-1.78.39.104.406.833.211 1.14-.737.791-2.06 1.02-2.51 2.06-.00609.736 1.06.677 1.46.271 1.01-.8 2.1-1.68 2.6-2.9.157-.781-.249-1.66.332-2.35.623-.897 1.34-2.12.76-3.2-.35-.522-.983-.107-1.19.328-.116-.846-.244-1.75-.82-2.43-.516-.514-.756-1.23-1.19-1.78-.75-.328-1.53.287-2.25.462-1.1.376-1.14 2.05-1.01 1.6.0336-.459.855-2.61-.291-2.62zm.381 2.18c.0533.53-.194.965-.0879.18.0212-.0374.0709-.166.0879-.18zm-2.41 1.13c.474-.04 1.24.366.354.43-.66-.116-1.35-.0751-1.93.303-.32.183-.635.385-.918.622-.205.171-.394.36-.558.573-.0544-.849.641-1.47 1.39-1.72.528-.203 1.1-.258 1.66-.21zm7.11 3.16c.308.365-.0619 1.01-.477.611-.0339-.231.249-.668.477-.611zm-8.18-1.06c-.578.117-.515 1-.273 1.4.465.434 1.44.112 1.62-.48.0276-.643-.856-.869-1.35-.924zm.42 2.42c-.651.054-.588.889-.124 1.16.431.477 1.05.758 1.51 1.18-1.28.202-1.54-1.49-2.6-1.77-.79.134-.561 1.24-.232 1.73.814 1.3 2.55 2.14 4.03 1.47.542-.0861.865-.692.479-1.13-.215-.546-.108-1.23-.645-1.63-.642-.585-1.54-1.03-2.42-1z"/>
  <path id="b" d="M-2.16-6.6c-1.28.444-2.13 1.62-3.01 2.58-.385.278-.441.908.146.957.74.23 1.62-.0957 1.83-.891.194-.774.889-1.17 1.55-1.49.495-.266.451-1.09-.17-1.13-.113-.00228-.228-.0405-.34-.0215z M-1.05-5.94c-.857.196-.209 1.4-1.01 1.68-.815.439-1.77.827-2.2 1.71-.375.275-1.21.0837-1.23.746-.0483.738.861.891 1.38.604.963-.258 1.8-1.11 2.84-.964.48.36.0597 1.26.74 1.51.722.32 1.13-.575 1.05-1.17.0563-.525.772-.142 1.08-.101.583.137 1.7.569 1.17 1.32-.47-.111-.827-.658-1.39-.504-.454-.016-1.14.506-.623.912.859.412 1.51 1.18 1.77 2.08.178.628.923 1.03 1.49.602.67-.288 1.25-.923 1.07-1.7-.103-2-1.57-3.96-3.54-4.44-.517-.162-.958.26-1.43.238-.667-.66-.0324-1.94-.9-2.5-.0885.000876-.18-.0342-.268-.00977zm4.67 6.29c.603.0968.462.887.00391.225-.00385-.0363-.153-.302-.00391-.225z M3.92-3.58c-.58.22.00187.886.312 1.13.966.84 1.57 1.98 2.19 3.07.365.479.802-.146.68-.567.186-1.41-1.13-2.31-2.07-3.1-.331-.219-.697-.592-1.11-.533z M-1.8-2.06c-.913.488-1.57 1.56-2.66 1.62-.594-.143-1.65-.276-1.79.529.0625.923 1.23.87 1.9.977 1.18.0532 2.4.204 3.57.0131.597-.326-.114-.874-.441-1.1-.765-.555.402-1.63-.395-2.15-.0632.0365-.126.0729-.189.109z M1.37 1.73c-1.46.287-2.92.659-4.31 1.14-1.29 1.02-.108 3.28 1.42 3.12 1.56-.0095 3.34-.4 4.33-1.7.241-.464-.046-1.07-.553-1.19-.0501-.478.158-1.34-.561-1.38-.109.00392-.221-.0224-.328-.00391zm-.6 1.88l.35 -.05zm-2.4.592c.364-.0829.899.366.311.518-.502.092-.945-.204-1.35-.455.367-.0577.676-.0846 1.04-.0625z"/>
  <path id="c" d="M-3.66-5.67c-1.24.238-2.71.94-2.87 2.35-.118 1.15-.172 2.37.202 3.47.47.388 1.09-.153 1.56-.343.611-.324 1.25-.71 1.52-1.37.61-.846 1.78-1.39 1.95-2.49-.222-.738-1.08-.185-1.54-.0443-.516.0985-1.15.41-1.16.992-.25.38-.691.643-1.14.701-.241-.746.512-1.26 1.18-1.25.68-.265 1.14-1.31.682-1.91-.105-.0991-.244-.11-.381-.105z M1.97-5.7c-.964.161-2.08.488-2.63 1.36-.171.785.892.88 1.41.648.857-.242 1.69-.794 2.13-1.57.0016-.501-.571-.428-.912-.43z M3.75-5.1c-.652.0103-.88.701-.979 1.22-.605.123-1.33.00731-1.87.434-.581.372-1.18 1.09-.746 1.79.193.366.427 1.21.962.88.262-.393.359-.94.897-1.09.465-.237 1.49-.398 1.4.406-.168.976-1.63.462-1.88 1.31.49.932 1.84.736 2.59.229 1.38-.856 2.15-2.48 2.37-4.04.137-.747-.961-1.2-1.32-.49-.277.48.00741 1.43-.799 1.43-.0819-.394.461-.907.432-1.4.0262-.575-.604-.707-1.05-.684z M-1.56-2.89c-.869.133-.576 1.45-1.47 1.59-.567.0732-.967.478-1.08 1.02-.367.652-.705 1.4-1.27 1.88-.319-.437-1.18-.583-1.28.0996-.044.793.774 1.31 1.22 1.88.642.593 1.35 1.63 2.36 1.28.557-.142 1.09-.428 1.67-.463.287.634-.781 1.36-.0938 1.88.791.178 1.38-.673 1.89-1.15.73-.777 1.41-2.04.807-3.06-.604-.455-1.03.505-.979 1.02-.0849.748-1.17.124-.777-.388.642-.861 1.37-1.95.932-3.07-.255-.668-1.16-.907-1.16-1.71-.0626-.376-.33-.828-.767-.79zm.572 2.6c.6.0171.183.798-.225.82-.763.393-.734 1.44-1.41 1.88-.618.0437-.761.712-1.02 1.13-.234.208-1.07-.337-.604-.473.709-.174 1.27-.801 1.17-1.56.136-.833 1.42-.779 1.49-1.68.163-.13.398-.133.598-.121z"/>
  <path id="d" d="M-.102-5.92c-.809.178-1.69.188-2.44.574-.794.699-1.58 1.59-1.79 2.65.0277.636.824.575 1.24.385 1.58.533 3.3.157 4.91.496.162.289-.898.137-1.2.19-.823.0948-1.81-.221-2.51.318-.412.538-.0599 1.55.717 1.38.431-.19.428.291.736.471.643.361 1.35 1.14 2.14.738.454-.145.75-.715 1.25-.577.712-.379 1.03-1.3 1.15-2.06-.162-.794-.932-1.24-1.46-1.78.537.27 1.14-.315.768-.832-.651-1.03-1.83-1.66-2.99-1.94-.178-.0338-.356-.0184-.535-.0125zm-.561 1.74c.201.0632 1.02.0156.771.389-.628.178-1.23-.547-1.88-.188-.161.121-.864.38-.621-.0519.539-.218 1.16-.165 1.72-.148z M-4.73-1.14c-.619.355-.645 1.25-.664 1.89.183.927 1.02 1.71 1.92 1.95.772.113 1.29 1.16 2.16.734.735-.32 1.75-.532 2.08-1.35.144-.661-.693-.636-1.07-.36-.386.289-.828.256-1.18-.0584-.662-.472-1.24-1.1-1.98-1.44-.42-.416-.493-1.48-1.27-1.37z M2.47 1.64c-1.12.256-2.07 1.1-2.75 2-.388.531.315 1.14.828.777.942-.495 1.75-1.3 2.29-2.21.119-.266-.0574-.583-.361-.564z M2.79 3.31c-.576.134-.689.895-1.3 1.02-.694.269-1.58.757-2.27.274-.684-.126-1.52.239-1.86.848-.0661.714.912.78 1.43.904.706.134 1.46.136 2.09-.24.758-.318 1.87.0586 2.38-.712.204-.627.393-1.55-.178-2.04-.0919-.0484-.206-.0844-.309-.0586z"/>
  <path id="e" d="m-1.2-5.9c-.757.122-1.79-.223-2.32.482-.376.463-.0793 1.31.584 1.17.487-.0998.742-.129.0918.0625-.724.173-.547 1.03-.131 1.42.229.486.861.904 1.27.353.318-.327.873-.872 1.25-.297.694.668 1.51 1.34 1.88 2.24.00852.626.834.586 1.05.104.379-.386.371-1.08.797-1.38.207.529.527 1.19 1.21 1.15.608.111.946-.534.703-1.04-.352-1.56-.999-3.4-2.7-3.89-1.18-.386-2.45-.379-3.69-.369zm1.47 1.22c.74.246 1.63.0535 2.18.754.509.336.57.991.157 1.43-.774-.621-1.54-1.45-2.62-1.45-.64-.037-.0309-.752.282-.734z M-2.11-1.8c-.536.0483-1.52-.0528-1.57.666.117.602.88.702 1.13 1.17.00273.58-.371 1.52.381 1.78.535.0593.626-.725 1.2-.607.55-.201.665.33.575.753-.0597.606-.246 1.48-.931 1.63-.898-.515-1.18-2.01-2.41-1.96-.593.0857-1.57.0616-1.71.793.289.799 1.4.514 1.95 1.06.711.425 1.1 1.2 1.07 2.02.0864.729 1.01.823 1.46.361 2.06-1.41 2.5-4.48 1.27-6.57-.527-.793-1.5-1.12-2.41-1.09z"/>
  <path id="f" d="M1.57-6.59c-.522-.0315-.946.351-.851.889.0638.74-.934.255-1.27.662-.419.313-.297.921-.476 1.34-.527-.131-1.32-.815-1.7-.0859-.106 1.1-1.25 1.7-1.49 2.74.226.702 1.17.384 1.64.123.764-.265.851-1.17 1.57-1.49 1.51-.743 3-1.7 3.94-3.12.405-.545-.193-1.06-.746-1.04-.205-.0166-.409-.0293-.615-.0117z M3.1-4.77c-1.14.846-2.23 1.8-3.17 2.86-.342.539.359.783.793.717.743.00535 1.14.414.322.789-.617.481.142 1.06.585 1.31.475.429 1.2.284 1.51-.271.193-.374 1.1-.534.951.0898-.402.995-1.68.493-2.33 1.18-.448.381-.756 1.22-1.47 1.04-.37-.709.823-.749.797-1.4.0353-.833-1.11-1.12-1.62-.531-.658.553-1.33 1.36-1.17 2.27-.158.398-1.09.826-1.06.0832.0267-.726-.191-1.67-1.04-1.8-.587-.274-.886.41-.781.894.126.602-.513.833-.952 1.05-.792.445-.591 1.63.189 1.96.41.283 1.29.566 1.35-.191-.0769-.413.105-.464.439-.245.883.314 1.96.213 2.65.935 1.07.452 2.36.384 3.41-.0811.649-.604 1.64-.368 2.27-.994.883-.691 1.6-1.81 1.24-2.97-.232-1.12.963-1.87.889-2.94-.288-.692-1.14-.369-1.54.0234-.521.321-.323-.545-.111-.725.436-.223.855-.698.534-1.2-.423-.964-1.42-1.64-2.41-1.9-.0841.0168-.185-.0472-.256.0293zm-.0605 2.67c.429.131-.0056 1.28-.336.625-.132-.246.0325-.64.336-.625zm1.27 4.7c.106.216-.59.555-.805.775-.379.274-.762.544-1.18.76.337-.767 1.11-1.51 1.98-1.54zm-3.97 1.44c.426.183.52.868-.0859.732-.482-.077-.11-.562.0859-.732z M-1-1.47c-.834.326-1.41 1.11-1.95 1.8-.418.54.286 1.04.805.838.814-.356 1.62-1.1 1.75-2.01.0254-.343-.235-.717-.611-.625z"/>
  <path id="g" d="M-1.05-5.67c-.661.0213-.685.95-.126 1.17.496.31 1.11.474 1.47.969-.7.264-1.68.192-2.14.863-.248.721.749.827 1.24.812.434-.0496 1.33.168.966.768-.825.289-1.39-.649-2.07-.932-.667-.0465-.519.916-.375 1.35.517 1.46 1.38 3.08 2.97 3.56.35.173.822.00749 1.11.266-.323.799-1.42.539-2.1.436-.523-.125-.724.506-.334.805.74.814 2.06.997 3.07.654.335-.22.844-.281 1.15.0137-.493-.0223-1.16.428-.775.963.701.596 1.66.0633 2.29-.387.543-.0274 1.1-.398 1.05-1 .0748-.595-.516-.918-1.03-.803-.0765-.383.545-.196.67-.525.393-.431.781-1.4.143-1.74-1.07.0265-1.55 1.43-2.57 1.57-.165-.636.582-1.09.912-1.55.404-.466.878-.879 1.2-1.41-.294-.605-1.09-.267-1.57-.227.456-.477.121-1.25-.514-1.32-.712-.218-1.51.0235-2.19-.309.633-.467 1.77-.185 2.12-1.01.0118-.392-.345-.573-.66-.641-.355-.639.369-1.08.549-1.6.00146-.636-.891-.434-1.33-.436-.653-.0522-1.29.703-1.88.18-.36-.265-.788-.509-1.25-.477zm2.95 6c.51-.0421.995.654.49.98-.54.231-1.33-.742-.621-.996l.0993.0119z M-3.26-4.3c-1.03.252-2.13.794-2.69 1.73-.367.834-.777 1.69-.601 2.63.118.833.122 1.85.769 2.46.458.4 1.13.211 1.62.447.181.407-.198.507-.51.453-.646-.0422-1.11.816-.537 1.24.881.727 2.04-.076 2.73-.702.525-.522 1.32-1.31.905-2.1-.308-.492-1.06-.332-1.21.193-.582.134-.1-.4.196-.394.746-.235 1.01-1.49.318-1.9-1.08-.0413-1.84 1.12-2.91 1.12.483-1.13 2.07-1.29 2.54-2.42-.0765-.762-1.04-.47-1.55-.609.408-.676 1.48-1.02 1.47-1.9-.116-.189-.309-.292-.533-.254z M.05,.7 l.1,.2z"/>
  <path id="h" d="M1.8-5.39c-.686-.0225-.732.763-.559 1.25.00497.283-.0607 1.28-.457.768-.568-.448-1.09-1.37-1.92-1.17-.439.509-1.45.129-1.58.951-.14.487.0502 1.06-.242 1.49-.358-.445-.275-1.41-1.07-1.37-.374-.0422-.879.254-1.17.0484-.194-.636-1.26-.643-1.33.0859-.259 1.84-.161 3.72-.0592 5.57.0207.42.128 1.29.735 1 .695-.438.024-1.71.877-1.97.63.0807.126.838.2 1.24-.118.514.459 1.11.919.681.246-.342.532-.645.486-.00586.181.958 1.51.868 2 .215.599-1.16.755-2.53.79-3.82.0539-.794-.835-1.28-.633-2.1-.0446-.365.286-.912.409-.278.313.779.169 1.83.824 2.42.438.0986.972.417.605.928-.459.862-.618 1.86-.453 2.81-.0826.644-1.25.867-.94 1.58.593.462 1.29-.295 1.65-.759.689-.978 1.25-2.11 1.4-3.31-.0211-.85-.839-1.47-.859-2.31.532-.108 1.43.443 1.66-.334.0637-1.1-.0668-2.23-.217-3.33-.247-.308-.7-.316-1.06-.305zm-6.95 3.4c.266.357.369 1.08-.0352 1.35-.41-.229-.234-1.14.0352-1.35zm2.12 1.72c.564-.000121.986.47.82 1.04-.0448.256-.162 1.22-.509.905-.382-.553-.647-1.23-.653-1.9.104-.0573.227-.0507.342-.0449z M5.02-4.78c-1.05.345-1.63 1.68-1.29 2.72.102 1.03-.872 1.74-.94 2.74-.0257.756-.513 1.51-.374 2.29.315.672 1.08.067 1.3-.375.267-.434.635-1.35 1.27-1 .0495.958-1.29 1.11-1.45 2.01-.202.672.65.943 1.14.654 1.43-.455 1.93-2.1 1.84-3.46.0189-.515.025-1.43-.721-1.35-.297-.0384-1.16.427-.983-.0544.436-.771 1.34-1.66.757-2.6-.254-.489.413-1.51-.549-1.57z M-1.82 4.5c-.517-.0461-1.56.175-1.18.9.595.56 1.63.24 2.15-.293.252-.609-.586-.618-.965-.607z M4.54 4.82c-.75.0218-1.06 1.05-1.87.773-.457-.0432-1.33-.368-1.44.283.165.74 1.17.719 1.79.702.599.0204 1.01-.506 1.61-.477.625-.0907.919-1.18.16-1.28-.0798.00609-.164-.0223-.242-.00195z"/>
  <path id="i" d="M-.809-5.37c-.706.182-.53 1.14.0195 1.42.947.67 2.12 1.24 3.3 1.04.956.379 1.55 1.34 2.15 2.14.00633.441.42 1 .889.654.779-.669.0875-1.76-.317-2.44-.656-.946-1.41-2.19-2.72-2.17-.855-.142-1.72.0391-2.53-.286-.172-.252-.483-.432-.791-.361z M-3.24-4.17c-1.31.072-3 .522-3.35 1.98-.0544.411-.317 1.27.344 1.24.686-.365 1.16-1.24 2.03-1.19.902-.223 1.92-.459 2.57-1.16.25-.77-.807-.917-1.35-.871-.0801.00339-.161-.00509-.241.00195z M.0508-2.06c-.492-.0855-1.03.484-.551.877.709.634 1.91.587 2.38 1.51.488.412 1.23.27 1.72.727.453.374 1.29.089 1.07-.57-.455-1.41-1.91-2.23-3.32-2.41-.427-.0879-.865-.144-1.3-.133z M-3.41-1.77c-.713.0603-1.81.283-1.85 1.16.213.856 1.36.743 1.98.434.515-.19 1.39-.74.95-1.37-.302-.238-.72-.23-1.08-.221z M-4.53.348c-.666.169-.566 1-.141 1.39.498.656-.398-.352-.587-.53-.345-.464-1.23-.3-1.04.369.153.619.841.97.859 1.64.14.396.692.334.741.816.77 1.08 2.19 1.42 3.41 1.72 1.11.143 2.23.392 3.35.409.723-.0898.545-.982.164-1.36-.76-.951-1.65-2.11-2.99-2.14-.625-.181-.847-.909-1.44-1.18-.708-.463-1.45-.967-2.28-1.15zm1.95 3.31c.75.243 1.52.469 2.22.832-.828-.0165-1.63-.389-2.3-.85z M-.633.607c-.513-.0943-.754.565-.256.779.759.402 1.47.982 1.75 1.81.553.802 1.73-.325 2.21.588.229.519 1.11.738 1.26.0469.27-1-.417-1.94-1.29-2.36-1.1-.645-2.39-.963-3.67-.87z"/>
  <path id="j" d="M.957-6.26c-.672.0328-.322.854.147.949.468.348 1.47.0773 1.46.885-.0454.484-.746.0762-1.01.00977-.718-.266-1.58-.976-2.34-.521-.491.599.387 1.23.943 1.32.947.347 1.08 1.53 1.88 2.08.525.413 1.18 1.09 1.9.871.536-.533-.12-1.3-.517-1.72-.37-.349-.206-1.12.417-.893.76.232.508 1.26.597 1.88-.0941.633.492 1.36 1.15 1.01.586-.15 1.23-.761.79-1.38-.537-.724-.328-1.73-.994-2.39-.79-.931-1.79-1.97-3.12-1.88-.434-.038-.855-.185-1.29-.215z M-4.13-1.2c-.5-.0555-1.02.476-.619.921.358.471.973 1.32 1.63.89.588-.399.811-1.53-.0781-1.71-.304-.0846-.619-.116-.934-.0957z M-5.38-1.2c-.904.158-.809 1.38-.46 2 .304.674 1.11 1.66 1.92 1.14.56-.589-.0616-1.36-.496-1.8-.244-.444-.121-1.22-.791-1.33-.0561.00693-.112-.032-.168-.0117z M-.551-.762c-.621-.0462-.74.68-.413 1.09.181.49.709.846.731 1.38-.735.000311-1.32-.991-2.09-.611-.349.678.422 1.29.823 1.76.362.452 1 .643 1.36 1.03-1.1.161-1.58-1.23-2.63-1.17-.697.4-.0929 1.27.251 1.72.669.8 1.54 1.95 2.74 1.59.938-.335 1.84-1.04 2.89-.74 1.79-.0836 3.34-2.15 2.62-3.87-.421-.666-1.16.0222-1.43.47-.463.553-.755 1.32-1.51 1.42-.267-.161.45-.492.615-.722.678-.529.192-1.86-.697-1.61-.421.129-.642.627-.992.781-.073-.404.678-.242.613-.738-.0842-1.08-1.35-1.34-2.19-1.62-.227-.0697-.459-.136-.697-.141zm1.92 4.22c.508.193-.786.128 0 0z"/>
  <path id="k" d="M1.65-5.71c-1.32-.00198-2.5.654-3.42 1.56-.682.66-1.51 1.24-1.97 2.07-.218.767.991 1.5 1.54.824.418-.472 1.47-.878 1.75-.0742.462.778 1.42-.0551 2 .406.287.539-.337 1.37.344 1.77.826.39 1.17-.802 1.91-.824-.162.972-.819 1.91-.607 2.91.481.635 1.1-.208 1.31-.662.431-.653.428-1.45.674-2.16.551-.44.39-1.25-.166-1.61-1.54-1.16-3.53-1.3-5.36-1.58-.731-.121-.075-.948.383-.967.922-.289 1.71.494 2.63.467.663.118 1.12 1.13 1.85.738.36-.735-.308-1.5-.697-2.1-.459-.737-1.39-.773-2.16-.775z M-4.63-1.6c-.993.349-2.19 1.14-2.05 2.35-.0797.512.379 1.36.954.904.381-.324.367-1.23 1.07-1.02 1.72e-5.611-.0938 1.59.721 1.73.818.0844 1.04-.842 1.39-1.37.611-.00174 1.41.206 1.73.777.0658.761-.805.996-1.41.966-1.26.25-2.6.563-3.64 1.35-.461.486-.174 1.51.592 1.34.989-.177 1.89-.965 2.96-.653.805.0518 1.18 1.14 2 .986.692-.452.53-1.46.692-2.18.223-1.35.0864-2.88-.893-3.92-.961-.702-2.43.534-3.23-.537-.209-.322-.399-.818-.875-.736z"/>
  <path id="l" d="M-.104-5.39c-.883-.0334-1.44 1.18-.996 1.86.604.399 1.73.348 2.08-.379.198-.696-.318-1.52-1.09-1.48z M-3.98-2.36c-.597.271-.233 1.18.175 1.49.601.568 1.65.684 2.34.268.31-.574-.637-.82-.967-1.11-.498-.211-.983-.705-1.55-.654z M2-1.36c-.556-.0322-1.48.293-1.11 1 .0525.394 1.09.617.293.639-.62.0887-1.61-.134-1.89.596.187.84 1.25.536 1.86.754 1.05.239 2.25.633 3.31.0828.55-.274 1.54-.578 1.4-1.35-.502-.645-1.44-.0713-2.05-.188.16-.465 1.16-.487.834-1.14-.662-.596-1.83-.361-2.65-.393z M-4.73-.863c-.688.179-.518 1.17.0449 1.42.79.495 1.69 1.14 2.67 1.02.691-.229.461-1.29-.25-1.27-.951-.0712-1.51-1.17-2.46-1.17z M.00586 2.45c-1.16.19-2.47-.0256-3.52.592-.497.439.114.965.568 1.07-.621.0856-1.53-.454-1.92.244-.0878.772.897 1.03 1.46 1.27 1.69.688 3.73.362 5.14-.785.571-.431.129-1.35-.559-1.23-.595-.0168-.839.724-1.48.59-.061-.181.534-.59.666-.924.248-.34.12-.85-.363-.826z"/>
</defs>
<rect width="256" height="256" fill="#eee5dc"/>
<g fill="#cfcdca" stroke="#eee5dc" stroke-linejoin="round" stroke-width=".6">
  <use xlink:href="#j" x="6.76" y="-7.17" transform="rotate(83.08)"/>
  <use xlink:href="#j" x="37.62" y="-261.31" transform="rotate(83.08)"/>
  <use xlink:href="#k" x="-1.98" y="18.33" transform="rotate(276.92)"/>
  <use xlink:href="#k" x="-256.12" y="49.18" transform="rotate(276.92)"/>
  <use xlink:href="#c" x="-1.8" y="-24.88" transform="rotate(110.77)"/>
  <use xlink:href="#c" x="253.49" y="6.14" transform="rotate(83.08)"/>
  <use xlink:href="#c" x="-0.64" y="-24.72" transform="rotate(83.08)"/>
  <use xlink:href="#e" x="-2.2" y="31.34" transform="rotate(276.92)"/>
  <use xlink:href="#b" x="-17.61" y="42.45" transform="rotate(249.23)"/>
  <use xlink:href="#b" x="-256.98" y="-48.33" transform="rotate(249.23)"/>
  <use xlink:href="#h" x="44.78" y="29.37" transform="rotate(332.31)"/>
  <use xlink:href="#h" x="-74.19" y="256.05" transform="rotate(332.31)"/>
  <use xlink:href="#k" x="56.75" y="-24.46" transform="rotate(27.69)"/>
  <use xlink:href="#e" x="6.89" y="72.57" transform="rotate(276.92)"/>
  <use xlink:href="#e" x="-247.24" y="103.43" transform="rotate(276.92)"/>
  <use xlink:href="#j" x="-62.84" y="50.23" transform="rotate(221.54)"/>
  <use xlink:href="#j" x="-232.6" y="-141.39" transform="rotate(221.54)"/>
  <use xlink:href="#l" x="-38.58" y="79.59" transform="rotate(249.23)"/>
  <use xlink:href="#d" x="84.29" y="46.44" transform="rotate(332.31)"/>
  <use xlink:href="#d" x="-34.68" y="273.11" transform="rotate(332.31)"/>
  <use xlink:href="#i" x="93.89" y="-44.22" transform="rotate(27.69)"/>
  <use xlink:href="#i" x="212.86" y="182.45" transform="rotate(27.69)"/>
  <use xlink:href="#k" x="14.97" y="-116.35" transform="rotate(83.08)"/>
  <use xlink:href="#k" x="269.1" y="-85.49" transform="rotate(83.08)"/>
  <use xlink:href="#c" x="-48.94" y="114.53" transform="rotate(249.23)"/>
  <use xlink:href="#f" x="10.96" y="132.37" transform="rotate(276.92)"/>
  <use xlink:href="#f" x="-243.18" y="163.23" transform="rotate(276.92)"/>
  <use xlink:href="#e" x="-135.57" y="-35.75" transform="rotate(166.15)"/>
  <use xlink:href="#e" x="-74.3" y="-284.31" transform="rotate(166.15)"/>
  <use xlink:href="#h" x="133.89" y="-64.72" transform="rotate(27.69)"/>
  <use xlink:href="#h" x="252.86" y="161.96" transform="rotate(27.69)"/>
  <use xlink:href="#a" x="-51.93" y="-147.17" transform="rotate(110.77)"/>
  <use xlink:href="#a" x="187.43" y="-237.95" transform="rotate(110.77)"/>
  <use xlink:href="#a" x="143.37" y="81.08" transform="rotate(332.31)"/>
  <use xlink:href="#c" x="-125.32" y="-117.84" transform="rotate(138.46)"/>
  <use xlink:href="#c" x="44.44" y="-309.46" transform="rotate(138.46)"/>
  <use xlink:href="#d" x="157.83" y="89.26" transform="rotate(332.31)"/>
  <use xlink:href="#l" x="112.12" y="-155.04" transform="rotate(55.38)"/>
  <use xlink:href="#e" x="-76.19" y="184.67" transform="rotate(249.23)"/>
  <use xlink:href="#f" x="207.39" y="3.2"/>
  <use xlink:href="#f" x="207.39" y="259.2"/>
  <use xlink:href="#l" x="-74.7" y="-203.62" transform="rotate(110.77)"/>
  <use xlink:href="#l" x="164.67" y="-294.4" transform="rotate(110.77)"/>
  <use xlink:href="#c" x="-76.36" y="-214.34" transform="rotate(110.77)"/>
  <use xlink:href="#c" x="163" y="-305.12" transform="rotate(110.77)"/>
  <use xlink:href="#b" x="-81.28" y="-221.19" transform="rotate(110.77)"/>
  <use xlink:href="#b" x="158.09" y="-311.97" transform="rotate(110.77)"/>
  <use xlink:href="#g" x="-91.24" y="225.78" transform="rotate(249.23)"/>
  <use xlink:href="#i" x="25.18" y="250.32" transform="rotate(276.92)"/>
  <use xlink:href="#i" x="-5.67" y="-3.81" transform="rotate(276.92)"/>
  <use xlink:href="#d" x="-7.26" y="-12.91" transform="rotate(193.85)"/>
  <use xlink:href="#d" x="-255.82" y="48.36" transform="rotate(193.85)"/>
  <use xlink:href="#g" x="-0.82" y="-16.5" transform="rotate(138.46)"/>
  <use xlink:href="#e" x="-1.63" y="25.73" transform="rotate(304.62)"/>
  <use xlink:href="#g" x="27.91" y="-16.6" transform="rotate(55.38)"/>
  <use xlink:href="#e" x="-34.58" y="-19.33" transform="rotate(166.15)"/>
  <use xlink:href="#d" x="-47.36" y="1.7" transform="rotate(193.85)"/>
  <use xlink:href="#a" x="42.12" y="-40.66" transform="rotate(55.38)"/>
  <use xlink:href="#a" x="-60.05" y="-30.64" transform="rotate(166.15)"/>
  <use xlink:href="#f" x="-16.93" y="-69.55" transform="rotate(110.77)"/>
  <use xlink:href="#l" x="-40.49" y="71.66" transform="rotate(249.23)"/>
  <use xlink:href="#a" x="-58.27" y="-72.32" transform="rotate(138.46)"/>
  <use xlink:href="#b" x="-81.14" y="56.53" transform="rotate(221.54)"/>
  <use xlink:href="#a" x="107.45" y="12.55"/>
  <use xlink:href="#e" x="78.03" y="-83.96" transform="rotate(55.38)"/>
  <use xlink:href="#g" x="-95.94" y="69.87" transform="rotate(221.54)"/>
  <use xlink:href="#g" x="62.35" y="112.6" transform="rotate(304.62)"/>
  <use xlink:href="#k" x="-96.18" y="-101.02" transform="rotate(138.46)"/>
  <use xlink:href="#e" x="75.88" y="131.02" transform="rotate(304.62)"/>
  <use xlink:href="#k" x="-42.33" y="-154.38" transform="rotate(110.77)"/>
  <use xlink:href="#g" x="-133.43" y="101.09" transform="rotate(221.54)"/>
  <use xlink:href="#i" x="151.44" y="94.26" transform="rotate(332.31)"/>
  <use xlink:href="#c" x="94.41" y="160.38" transform="rotate(304.62)"/>
  <use xlink:href="#h" x="34.98" y="-191.02" transform="rotate(83.08)"/>
  <use xlink:href="#c" x="41.86" y="-197.26" transform="rotate(83.08)"/>
  <use xlink:href="#c" x="-202.4" y="38.57" transform="rotate(193.85)"/>
  <use xlink:href="#d" x="37.3" y="-211.67" transform="rotate(83.08)"/>
  <use xlink:href="#g" x="-159.13" y="-154.76" transform="rotate(138.46)"/>
  <use xlink:href="#k" x="211.6" y="-99.31" transform="rotate(27.69)"/>
  <use xlink:href="#b" x="-172.9" y="-172.14" transform="rotate(138.46)"/>
  <use xlink:href="#j" x="216.16" y="128.24" transform="rotate(332.31)"/>
  <use xlink:href="#j" x="-10.51" y="9.28" transform="rotate(332.31)"/>
  <use xlink:href="#l" x="24.1" y="-4.39" transform="rotate(83.08)"/>
  <use xlink:href="#l" x="54.96" y="-258.52" transform="rotate(83.08)"/>
  <use xlink:href="#a" x="25.57" y="-0.25" transform="rotate(55.38)"/>
  <use xlink:href="#d" x="-34.08" y="-0.96" transform="rotate(221.54)"/>
  <use xlink:href="#h" x="-40.2" y="6.91" transform="rotate(221.54)"/>
  <use xlink:href="#g" x="29.6" y="34.74" transform="rotate(332.31)"/>
  <use xlink:href="#l" x="-14.73" y="52.81" transform="rotate(276.92)"/>
  <use xlink:href="#a" x="-39.72" y="47.3" transform="rotate(249.23)"/>
  <use xlink:href="#h" x="66.71" y="24.24"/>
  <use xlink:href="#g" x="-67.71" y="35" transform="rotate(221.54)"/>
  <use xlink:href="#k" x="81.65" y="20.01"/>
  <use xlink:href="#a" x="89.92" y="-20.29" transform="rotate(27.69)"/>
  <use xlink:href="#c" x="-100.05" y="0.91" transform="rotate(193.85)"/>
  <use xlink:href="#l" x="32.92" y="-101.75" transform="rotate(83.08)"/>
  <use xlink:href="#d" x="-120.26" y="4.08" transform="rotate(193.85)"/>
  <use xlink:href="#h" x="52.81" y="115.38" transform="rotate(304.62)"/>
  <use xlink:href="#d" x="-86.73" y="-102.09" transform="rotate(138.46)"/>
  <use xlink:href="#h" x="61.61" y="128.58" transform="rotate(304.62)"/>
  <use xlink:href="#e" x="148.28" y="18.52"/>
  <use xlink:href="#l" x="-132.27" y="85.76" transform="rotate(221.54)"/>
  <use xlink:href="#b" x="-1.22" y="165.42" transform="rotate(276.92)"/>
  <use xlink:href="#b" x="-80.6" y="153.06" transform="rotate(249.23)"/>
  <use xlink:href="#i" x="149.4" y="102.86" transform="rotate(332.31)"/>
  <use xlink:href="#g" x="-156.37" y="111.76" transform="rotate(221.54)"/>
  <use xlink:href="#b" x="-192.93" y="-72.23" transform="rotate(166.15)"/>
  <use xlink:href="#k" x="177.71" y="119.61" transform="rotate(332.31)"/>
  <use xlink:href="#l" x="219.51" y="18.17"/>
  <use xlink:href="#b" x="145.9" y="-176.94" transform="rotate(55.38)"/>
  <use xlink:href="#f" x="-100.77" y="213.67" transform="rotate(249.23)"/>
  <use xlink:href="#k" x="-242.68" y="37.15" transform="rotate(193.85)"/>
  <use xlink:href="#c" x="-242.01" y="-81.18" transform="rotate(166.15)"/>
  <use xlink:href="#c" x="6.55" y="-19.92" transform="rotate(166.15)"/>
  <use xlink:href="#i" x="29.98" y="2.2" transform="rotate(83.08)"/>
  <use xlink:href="#i" x="60.84" y="-251.93" transform="rotate(83.08)"/>
  <use xlink:href="#g" x="-3.46" y="31.31" transform="rotate(332.31)"/>
  <use xlink:href="#i" x="-28.75" y="-25.44" transform="rotate(193.85)"/>
  <use xlink:href="#k" x="-37.52" y="17.54" transform="rotate(249.23)"/>
  <use xlink:href="#e" x="-49.95" y="1.18" transform="rotate(221.54)"/>
  <use xlink:href="#e" x="26.89" y="42.9" transform="rotate(332.31)"/>
  <use xlink:href="#d" x="53.81" y="-26.01" transform="rotate(55.38)"/>
  <use xlink:href="#d" x="6.65" y="-69.99" transform="rotate(110.77)"/>
  <use xlink:href="#g" x="38.85" y="-66.78" transform="rotate(83.08)"/>
  <use xlink:href="#l" x="-42.64" y="-75.74" transform="rotate(138.46)"/>
  <use xlink:href="#a" x="93.26" y="-9.26" transform="rotate(27.69)"/>
  <use xlink:href="#a" x="-92.41" y="40.63" transform="rotate(221.54)"/>
  <use xlink:href="#f" x="79.29" y="73.51" transform="rotate(332.31)"/>
  <use xlink:href="#k" x="88.47" y="-75.13" transform="rotate(55.38)"/>
  <use xlink:href="#c" x="126.74" y="33.43"/>
  <use xlink:href="#d" x="-82.16" y="-108.74" transform="rotate(138.46)"/>
  <use xlink:href="#j" x="-85.19" y="-119.03" transform="rotate(138.46)"/>
  <use xlink:href="#f" x="119.46" y="94.22" transform="rotate(332.31)"/>
  <use xlink:href="#a" x="50.04" y="-153.74" transform="rotate(83.08)"/>
  <use xlink:href="#a" x="-172.3" y="13.2" transform="rotate(193.85)"/>
  <use xlink:href="#b" x="-165.84" y="-70.85" transform="rotate(166.15)"/>
  <use xlink:href="#i" x="83.17" y="169.13" transform="rotate(304.62)"/>
  <use xlink:href="#c" x="159.19" y="114.75" transform="rotate(332.31)"/>
  <use xlink:href="#e" x="-188.33" y="-79.34" transform="rotate(166.15)"/>
  <use xlink:href="#e" x="93.77" y="190.36" transform="rotate(304.62)"/>
  <use xlink:href="#g" x="220.62" y="26.35"/>
  <use xlink:href="#k" x="-5.39" y="228.13" transform="rotate(276.92)"/>
  <use xlink:href="#b" x="218.77" y="-85.02" transform="rotate(27.69)"/>
  <use xlink:href="#b" x="-160.64" y="-182.76" transform="rotate(138.46)"/>
  <use xlink:href="#c" x="234.35" y="-90.14" transform="rotate(27.69)"/>
  <use xlink:href="#c" x="7.68" y="28.83" transform="rotate(27.69)"/>
  <use xlink:href="#i" x="-17.04" y="-36.36" transform="rotate(193.85)"/>
  <use xlink:href="#i" x="-265.6" y="24.9" transform="rotate(193.85)"/>
  <use xlink:href="#b" x="31.19" y="25.28" transform="rotate(27.69)"/>
  <use xlink:href="#c" x="2.83" y="45.91" transform="rotate(332.31)"/>
  <use xlink:href="#i" x="-22.77" y="-44.09" transform="rotate(166.15)"/>
  <use xlink:href="#a" x="17.05" y="55.16" transform="rotate(332.31)"/>
  <use xlink:href="#k" x="-30.71" y="52.25" transform="rotate(276.92)"/>
  <use xlink:href="#k" x="-45.7" y="-48.43" transform="rotate(166.15)"/>
  <use xlink:href="#f" x="69.17" y="-29.15" transform="rotate(55.38)"/>
  <use xlink:href="#k" x="-30.79" y="75.8" transform="rotate(276.92)"/>
  <use xlink:href="#h" x="-35.27" y="-78.52" transform="rotate(138.46)"/>
  <use xlink:href="#i" x="50.05" y="-88.66" transform="rotate(83.08)"/>
  <use xlink:href="#a" x="102.16" y="38.33"/>
  <use xlink:href="#l" x="-97.53" y="-64.02" transform="rotate(166.15)"/>
  <use xlink:href="#j" x="-76" y="97.43" transform="rotate(249.23)"/>
  <use xlink:href="#f" x="129.34" y="-22.33" transform="rotate(27.69)"/>
  <use xlink:href="#c" x="101.57" y="94.91" transform="rotate(332.31)"/>
  <use xlink:href="#b" x="-132.65" y="62.75" transform="rotate(221.54)"/>
  <use xlink:href="#i" x="116.72" y="-101.59" transform="rotate(55.38)"/>
  <use xlink:href="#d" x="57.65" y="153.8" transform="rotate(304.62)"/>
  <use xlink:href="#d" x="123.7" y="-115.99" transform="rotate(55.38)"/>
  <use xlink:href="#b" x="130.9" y="-122.54" transform="rotate(55.38)"/>
  <use xlink:href="#g" x="144.78" y="118.77" transform="rotate(332.31)"/>
  <use xlink:href="#d" x="-120.12" y="-154.52" transform="rotate(138.46)"/>
  <use xlink:href="#a" x="159.86" y="128.65" transform="rotate(332.31)"/>
  <use xlink:href="#g" x="-132.03" y="-169.37" transform="rotate(138.46)"/>
  <use xlink:href="#k" x="154.88" y="-158.93" transform="rotate(55.38)"/>
  <use xlink:href="#b" x="-119.17" y="197.92" transform="rotate(249.23)"/>
  <use xlink:href="#i" x="-115.31" y="207" transform="rotate(249.23)"/>
  <use xlink:href="#b" x="-223.13" y="-96.93" transform="rotate(166.15)"/>
  <use xlink:href="#d" x="-257.01" y="24.84" transform="rotate(193.85)"/>
  <use xlink:href="#d" x="-8.45" y="-36.43" transform="rotate(193.85)"/>
  <use xlink:href="#a" x="2.4" y="46"/>
  <use xlink:href="#a" x="258.4" y="46"/>
  <use xlink:href="#c" x="44.84" y="14.63" transform="rotate(55.38)"/>
  <use xlink:href="#i" x="37.78" y="-36.89" transform="rotate(110.77)"/>
  <use xlink:href="#g" x="-17.64" y="-51.36" transform="rotate(166.15)"/>
  <use xlink:href="#b" x="55.29" y="25.45" transform="rotate(27.69)"/>
  <use xlink:href="#d" x="-32.95" y="-56.79" transform="rotate(166.15)"/>
  <use xlink:href="#l" x="-38.55" y="61.82" transform="rotate(276.92)"/>
  <use xlink:href="#e" x="77.13" y="-28.94" transform="rotate(55.38)"/>
  <use xlink:href="#l" x="78.67" y="44.73"/>
  <use xlink:href="#h" x="-75.29" y="50.17" transform="rotate(249.23)"/>
  <use xlink:href="#f" x="54.74" y="-81.42" transform="rotate(83.08)"/>
  <use xlink:href="#c" x="-42.97" y="-100.38" transform="rotate(138.46)"/>
  <use xlink:href="#k" x="-83.39" y="82.56" transform="rotate(249.23)"/>
  <use xlink:href="#h" x="-31.22" y="120.97" transform="rotate(276.92)"/>
  <use xlink:href="#d" x="2.04" y="-133.2" transform="rotate(110.77)"/>
  <use xlink:href="#f" x="-30.19" y="140.08" transform="rotate(276.92)"/>
  <use xlink:href="#h" x="-76.74" y="-132.6" transform="rotate(138.46)"/>
  <use xlink:href="#j" x="49.57" y="151.26" transform="rotate(304.62)"/>
  <use xlink:href="#l" x="50.62" y="161.06" transform="rotate(304.62)"/>
  <use xlink:href="#d" x="-155.36" y="78.86" transform="rotate(221.54)"/>
  <use xlink:href="#e" x="-94.5" y="-151.67" transform="rotate(138.46)"/>
  <use xlink:href="#c" x="-103.96" y="-152.34" transform="rotate(138.46)"/>
  <use xlink:href="#j" x="190.4" y="43.14"/>
  <use xlink:href="#c" x="-115.02" y="169.18" transform="rotate(249.23)"/>
  <use xlink:href="#a" x="156.31" y="-143.01" transform="rotate(55.38)"/>
  <use xlink:href="#j" x="71.34" y="-209.1" transform="rotate(83.08)"/>
  <use xlink:href="#e" x="-229.15" y="6.27" transform="rotate(193.85)"/>
  <use xlink:href="#c" x="232.18" y="47.54"/>
  <use xlink:href="#k" x="242.4" y="46.6"/>
  <use xlink:href="#l" x="-251.82" y="17.36" transform="rotate(193.85)"/>
  <use xlink:href="#d" x="51.01" y="-22.47" transform="rotate(110.77)"/>
  <use xlink:href="#d" x="-39.77" y="-261.84" transform="rotate(110.77)"/>
  <use xlink:href="#e" x="-37.43" y="39.11" transform="rotate(304.62)"/>
  <use xlink:href="#c" x="-32.05" y="-51.47" transform="rotate(193.85)"/>
  <use xlink:href="#h" x="48.91" y="35.36" transform="rotate(27.69)"/>
  <use xlink:href="#k" x="-21.43" y="-63.13" transform="rotate(166.15)"/>
  <use xlink:href="#j" x="-68.72" y="22" transform="rotate(249.23)"/>
  <use xlink:href="#c" x="-38.48" y="-63.22" transform="rotate(166.15)"/>
  <use xlink:href="#b" x="-71.43" y="-37.09" transform="rotate(193.85)"/>
  <use xlink:href="#j" x="-79.93" y="-40.2" transform="rotate(193.85)"/>
  <use xlink:href="#f" x="17.91" y="-95.78" transform="rotate(110.77)"/>
  <use xlink:href="#e" x="-31.93" y="-101.42" transform="rotate(138.46)"/>
  <use xlink:href="#j" x="62.66" y="94.04" transform="rotate(332.31)"/>
  <use xlink:href="#h" x="12.95" y="123.08" transform="rotate(304.62)"/>
  <use xlink:href="#c" x="-38.55" y="120.32" transform="rotate(276.92)"/>
  <use xlink:href="#k" x="-54.36" y="-126.6" transform="rotate(138.46)"/>
  <use xlink:href="#l" x="68.44" y="-123.1" transform="rotate(83.08)"/>
  <use xlink:href="#b" x="-122.04" y="-86.6" transform="rotate(166.15)"/>
  <use xlink:href="#h" x="156.67" y="-15.85" transform="rotate(27.69)"/>
  <use xlink:href="#e" x="-79.3" y="-142.26" transform="rotate(138.46)"/>
  <use xlink:href="#e" x="166.12" y="55.94"/>
  <use xlink:href="#c" x="-116.76" y="144.29" transform="rotate(249.23)"/>
  <use xlink:href="#l" x="-16.13" y="-190.4" transform="rotate(110.77)"/>
  <use xlink:href="#g" x="193.4" y="-42.82" transform="rotate(27.69)"/>
  <use xlink:href="#k" x="-185.9" y="91.07" transform="rotate(221.54)"/>
  <use xlink:href="#g" x="72.57" y="203.63" transform="rotate(304.62)"/>
  <use xlink:href="#f" x="217.63" y="-53.35" transform="rotate(27.69)"/>
  <use xlink:href="#l" x="-134.17" y="191.86" transform="rotate(249.23)"/>
  <use xlink:href="#c" x="84.07" y="-226.94" transform="rotate(83.08)"/>
  <use xlink:href="#b" x="-144.21" y="-203.61" transform="rotate(138.46)"/>
  <use xlink:href="#g" x="-222.46" y="127.3" transform="rotate(221.54)"/>
  <use xlink:href="#g" x="-30.85" y="-42.45" transform="rotate(221.54)"/>
  <use xlink:href="#f" x="34.01" y="-51.12" transform="rotate(138.46)"/>
  <use xlink:href="#f" x="-157.6" y="-220.88" transform="rotate(138.46)"/>
  <use xlink:href="#h" x="-65.36" y="21.64" transform="rotate(276.92)"/>
  <use xlink:href="#j" x="52.32" y="-43.58" transform="rotate(110.77)"/>
  <use xlink:href="#b" x="-57.62" y="37.25" transform="rotate(276.92)"/>
  <use xlink:href="#i" x="-74.43" y="12.97" transform="rotate(249.23)"/>
  <use xlink:href="#h" x="12.37" y="77.84" transform="rotate(332.31)"/>
  <use xlink:href="#l" x="54.26" y="67.84"/>
  <use xlink:href="#j" x="68.14" y="-52.37" transform="rotate(83.08)"/>
  <use xlink:href="#c" x="95.6" y="18.19" transform="rotate(27.69)"/>
  <use xlink:href="#a" x="-56.07" y="89.1" transform="rotate(276.92)"/>
  <use xlink:href="#c" x="70.65" y="-79.45" transform="rotate(83.08)"/>
  <use xlink:href="#h" x="23.47" y="-112.49" transform="rotate(110.77)"/>
  <use xlink:href="#k" x="76.5" y="-95.35" transform="rotate(83.08)"/>
  <use xlink:href="#d" x="130.66" y="1.86" transform="rotate(27.69)"/>
  <use xlink:href="#i" x="14.44" y="138.66" transform="rotate(304.62)"/>
  <use xlink:href="#c" x="130.79" y="63.51"/>
  <use xlink:href="#a" x="-63.32" y="-141.29" transform="rotate(138.46)"/>
  <use xlink:href="#b" x="10.42" y="-163.21" transform="rotate(110.77)"/>
  <use xlink:href="#b" x="-137.74" y="-96.34" transform="rotate(166.15)"/>
  <use xlink:href="#a" x="147.46" y="-98.41" transform="rotate(55.38)"/>
  <use xlink:href="#k" x="-0.56" y="-186.8" transform="rotate(110.77)"/>
  <use xlink:href="#d" x="-177.86" y="77.23" transform="rotate(221.54)"/>
  <use xlink:href="#g" x="137.94" y="147.82" transform="rotate(332.31)"/>
  <use xlink:href="#f" x="-128.57" y="163.25" transform="rotate(249.23)"/>
  <use xlink:href="#e" x="-134.99" y="170.09" transform="rotate(249.23)"/>
  <use xlink:href="#j" x="86.8" y="-205.24" transform="rotate(83.08)"/>
  <use xlink:href="#e" x="-18.52" y="-231.32" transform="rotate(110.77)"/>
  <use xlink:href="#j" x="231.36" y="63.51"/>
  <use xlink:href="#h" x="-140.89" y="-213.56" transform="rotate(138.46)"/>
  <use xlink:href="#i" x="-29.46" y="256.32" transform="rotate(276.92)"/>
  <use xlink:href="#i" x="-60.32" y="2.19" transform="rotate(276.92)"/>
  <use xlink:href="#c" x="-51.89" y="-49.37" transform="rotate(221.54)"/>
  <use xlink:href="#c" x="-243.51" y="120.39" transform="rotate(221.54)"/>
  <use xlink:href="#d" x="-73.3" y="23.52" transform="rotate(276.92)"/>
  <use xlink:href="#i" x="-15.03" y="75.73" transform="rotate(332.31)"/>
  <use xlink:href="#c" x="72.87" y="-20.82" transform="rotate(83.08)"/>
  <use xlink:href="#h" x="69.03" y="46.89" transform="rotate(27.69)"/>
  <use xlink:href="#k" x="-83.25" y="-23.15" transform="rotate(221.54)"/>
  <use xlink:href="#b" x="51.94" y="-79.29" transform="rotate(110.77)"/>
  <use xlink:href="#k" x="-86.52" y="34.05" transform="rotate(249.23)"/>
  <use xlink:href="#h" x="-103.08" y="-6.76" transform="rotate(221.54)"/>
  <use xlink:href="#h" x="-93.03" y="-50.04" transform="rotate(193.85)"/>
  <use xlink:href="#f" x="112.23" y="22.46" transform="rotate(27.69)"/>
  <use xlink:href="#f" x="-26.37" y="-116.94" transform="rotate(138.46)"/>
  <use xlink:href="#d" x="-127.97" y="13.47" transform="rotate(221.54)"/>
  <use xlink:href="#b" x="26.61" y="-135.65" transform="rotate(110.77)"/>
  <use xlink:href="#c" x="145.1" y="8.73" transform="rotate(27.69)"/>
  <use xlink:href="#h" x="86.15" y="-125.73" transform="rotate(83.08)"/>
  <use xlink:href="#a" x="-120.08" y="106.89" transform="rotate(249.23)"/>
  <use xlink:href="#c" x="-124.39" y="115.57" transform="rotate(249.23)"/>
  <use xlink:href="#a" x="157.84" y="69.63"/>
  <use xlink:href="#l" x="-180.48" y="-29.45" transform="rotate(193.85)"/>
  <use xlink:href="#k" x="-189.34" y="-29.76" transform="rotate(193.85)"/>
  <use xlink:href="#e" x="196.51" y="-23.04" transform="rotate(27.69)"/>
  <use xlink:href="#k" x="96.48" y="-182.4" transform="rotate(83.08)"/>
  <use xlink:href="#j" x="-211.59" y="-19.92" transform="rotate(193.85)"/>
  <use xlink:href="#b" x="-105.27" y="-194.02" transform="rotate(138.46)"/>
  <use xlink:href="#c" x="95.49" y="-206.67" transform="rotate(83.08)"/>
  <use xlink:href="#g" x="-46.45" y="231.38" transform="rotate(276.92)"/>
  <use xlink:href="#d" x="-43.31" y="240.53" transform="rotate(276.92)"/>
  <use xlink:href="#l" x="-215.79" y="-127.13" transform="rotate(166.15)"/>
  <use xlink:href="#b" x="-142.74" y="-220.84" transform="rotate(138.46)"/>
  <use xlink:href="#b" x="48.88" y="-51.08" transform="rotate(138.46)"/>
  <use xlink:href="#c" x="-19.79" y="-76.54" transform="rotate(193.85)"/>
  <use xlink:href="#c" x="-268.35" y="-15.27" transform="rotate(193.85)"/>
  <use xlink:href="#e" x="-63.11" y="53.51" transform="rotate(304.62)"/>
  <use xlink:href="#e" x="82.31" y="264.2" transform="rotate(304.62)"/>
  <use xlink:href="#i" x="-83.92" y="-10.77" transform="rotate(249.23)"/>
  <use xlink:href="#a" x="81.12" y="-20.86" transform="rotate(83.08)"/>
  <use xlink:href="#e" x="-19.77" y="-88.71" transform="rotate(166.15)"/>
  <use xlink:href="#k" x="-39.42" y="90.15" transform="rotate(304.62)"/>
  <use xlink:href="#e" x="56.34" y="-85.4" transform="rotate(110.77)"/>
  <use xlink:href="#h" x="58.22" y="-94.01" transform="rotate(110.77)"/>
  <use xlink:href="#j" x="47.91" y="-88.75" transform="rotate(110.77)"/>
  <use xlink:href="#e" x="29.34" y="107.16" transform="rotate(332.31)"/>
  <use xlink:href="#i" x="-103.8" y="-57.17" transform="rotate(193.85)"/>
  <use xlink:href="#k" x="-19.78" y="-121.99" transform="rotate(138.46)"/>
  <use xlink:href="#h" x="-89.96" y="-101.55" transform="rotate(166.15)"/>
  <use xlink:href="#l" x="96.28" y="-99.9" transform="rotate(83.08)"/>
  <use xlink:href="#b" x="73.92" y="131.86" transform="rotate(332.31)"/>
  <use xlink:href="#k" x="-151.89" y="30.34" transform="rotate(221.54)"/>
  <use xlink:href="#k" x="-50.1" y="-154.91" transform="rotate(138.46)"/>
  <use xlink:href="#c" x="148.86" y="83.61"/>
  <use xlink:href="#d" x="156.22" y="82.41"/>
  <use xlink:href="#b" x="-179.14" y="-39.25" transform="rotate(193.85)"/>
  <use xlink:href="#d" x="114.78" y="151.12" transform="rotate(332.31)"/>
  <use xlink:href="#f" x="169.23" y="-104.21" transform="rotate(55.38)"/>
  <use xlink:href="#h" x="-199.63" y="66.16" transform="rotate(221.54)"/>
  <use xlink:href="#g" x="-55.63" y="208.23" transform="rotate(276.92)"/>
  <use xlink:href="#g" x="-55.7" y="218.3" transform="rotate(276.92)"/>
  <use xlink:href="#f" x="217.01" y="79.07"/>
  <use xlink:href="#h" x="-239.56" y="-24.3" transform="rotate(193.85)"/>
  <use xlink:href="#d" x="-204.72" y="-138.11" transform="rotate(166.15)"/>
  <use xlink:href="#g" x="109.69" y="-229.49" transform="rotate(83.08)"/>
  <use xlink:href="#e" x="-238.06" y="105.34" transform="rotate(221.54)"/>
  <use xlink:href="#c" x="-26" y="-84.69" transform="rotate(193.85)"/>
  <use xlink:href="#c" x="-274.56" y="-23.43" transform="rotate(193.85)"/>
  <use xlink:href="#d" x="54.33" y="73.9" transform="rotate(27.69)"/>
  <use xlink:href="#a" x="-87.09" y="31.6" transform="rotate(276.92)"/>
  <use xlink:href="#h" x="-78.62" y="-44.98" transform="rotate(221.54)"/>
  <use xlink:href="#l" x="70.52" y="-66.16" transform="rotate(110.77)"/>
  <use xlink:href="#j" x="-98.54" y="10.56" transform="rotate(249.23)"/>
  <use xlink:href="#d" x="-100.24" y="-34.71" transform="rotate(221.54)"/>
  <use xlink:href="#d" x="-36.64" y="-103.77" transform="rotate(166.15)"/>
  <use xlink:href="#i" x="4.05" y="-116.58" transform="rotate(138.46)"/>
  <use xlink:href="#d" x="-118.68" y="-10.32" transform="rotate(221.54)"/>
  <use xlink:href="#g" x="-77.89" y="99.79" transform="rotate(276.92)"/>
  <use xlink:href="#h" x="98.37" y="86.01"/>
  <use xlink:href="#i" x="-80.81" y="-113.38" transform="rotate(166.15)"/>
  <use xlink:href="#e" x="59.26" y="132.82" transform="rotate(332.31)"/>
  <use xlink:href="#f" x="103.12" y="-110.63" transform="rotate(83.08)"/>
  <use xlink:href="#g" x="103.7" y="-121.95" transform="rotate(83.08)"/>
  <use xlink:href="#d" x="-165.66" y="25.65" transform="rotate(221.54)"/>
  <use xlink:href="#h" x="-72.16" y="163.03" transform="rotate(276.92)"/>
  <use xlink:href="#b" x="113.18" y="-149.97" transform="rotate(83.08)"/>
  <use xlink:href="#c" x="107.8" y="155.71" transform="rotate(332.31)"/>
  <use xlink:href="#g" x="22.18" y="-195.69" transform="rotate(110.77)"/>
  <use xlink:href="#b" x="-199.07" y="-46.39" transform="rotate(193.85)"/>
  <use xlink:href="#g" x="-197.21" y="58.71" transform="rotate(221.54)"/>
  <use xlink:href="#e" x="-153.3" y="153.33" transform="rotate(249.23)"/>
  <use xlink:href="#d" x="-94.19" y="-205.57" transform="rotate(138.46)"/>
  <use xlink:href="#a" x="213.72" y="88.56"/>
  <use xlink:href="#k" x="-226.68" y="80.62" transform="rotate(221.54)"/>
  <use xlink:href="#g" x="252.44" y="-29.66" transform="rotate(27.69)"/>
  <use xlink:href="#d" x="211.26" y="-153.25" transform="rotate(55.38)"/>
  <use xlink:href="#j" x="-267.94" y="-28.75" transform="rotate(193.85)"/>
  <use xlink:href="#j" x="-19.38" y="-90.01" transform="rotate(193.85)"/>
  <use xlink:href="#a" x="-96.24" y="14.02" transform="rotate(276.92)"/>
  <use xlink:href="#a" x="-65.38" y="268.15" transform="rotate(276.92)"/>
  <use xlink:href="#k" x="-97.3" y="23.58" transform="rotate(276.92)"/>
  <use xlink:href="#d" x="-24.84" y="97.51" transform="rotate(332.31)"/>
  <use xlink:href="#f" x="-7.19" y="-98.6" transform="rotate(166.15)"/>
  <use xlink:href="#l" x="-94.55" y="-46.35" transform="rotate(221.54)"/>
  <use xlink:href="#d" x="33.19" y="-106.06" transform="rotate(138.46)"/>
  <use xlink:href="#e" x="23.83" y="-111.3" transform="rotate(138.46)"/>
  <use xlink:href="#b" x="67.32" y="97.12"/>
  <use xlink:href="#f" x="109.36" y="-63.73" transform="rotate(83.08)"/>
  <use xlink:href="#e" x="-31.6" y="122.49" transform="rotate(304.62)"/>
  <use xlink:href="#j" x="-29.2" y="131.7" transform="rotate(304.62)"/>
  <use xlink:href="#e" x="-136.18" y="-4.92" transform="rotate(221.54)"/>
  <use xlink:href="#f" x="45.43" y="137.92" transform="rotate(332.31)"/>
  <use xlink:href="#k" x="-134" y="-69.25" transform="rotate(193.85)"/>
  <use xlink:href="#d" x="-140.02" y="-65.43" transform="rotate(193.85)"/>
  <use xlink:href="#b" x="-32.86" y="-157.8" transform="rotate(138.46)"/>
  <use xlink:href="#f" x="42.98" y="-164.92" transform="rotate(110.77)"/>
  <use xlink:href="#j" x="38.93" y="-171.77" transform="rotate(110.77)"/>
  <use xlink:href="#i" x="116.34" y="-142.03" transform="rotate(83.08)"/>
  <use xlink:href="#c" x="99.2" y="167.33" transform="rotate(332.31)"/>
  <use xlink:href="#j" x="120.13" y="-164.38" transform="rotate(83.08)"/>
  <use xlink:href="#k" x="189" y="-96.57" transform="rotate(55.38)"/>
  <use xlink:href="#c" x="-164.38" y="-142.32" transform="rotate(166.15)"/>
  <use xlink:href="#c" x="-72.39" y="210.56" transform="rotate(276.92)"/>
  <use xlink:href="#f" x="200.3" y="-116.52" transform="rotate(55.38)"/>
  <use xlink:href="#j" x="-100.75" y="-216.16" transform="rotate(138.46)"/>
  <use xlink:href="#g" x="-69.42" y="235.72" transform="rotate(276.92)"/>
  <use xlink:href="#f" x="234.43" y="98.29"/>
  <use xlink:href="#j" x="242.33" y="97.18"/>
  <use xlink:href="#i" x="129.52" y="-236.45" transform="rotate(83.08)"/>
  <use xlink:href="#e" x="105" y="5.99" transform="rotate(83.08)"/>
  <use xlink:href="#e" x="135.86" y="-248.14" transform="rotate(83.08)"/>
  <use xlink:href="#g" x="-108.29" y="-26.21" transform="rotate(249.23)"/>
  <use xlink:href="#k" x="107.12" y="-7" transform="rotate(83.08)"/>
  <use xlink:href="#i" x="-99.47" y="41.7" transform="rotate(276.92)"/>
  <use xlink:href="#e" x="82.09" y="77.95" transform="rotate(27.69)"/>
  <use xlink:href="#g" x="90.17" y="76.32" transform="rotate(27.69)"/>
  <use xlink:href="#l" x="-118.55" y="12.2" transform="rotate(249.23)"/>
  <use xlink:href="#l" x="-51.18" y="110.71" transform="rotate(304.62)"/>
  <use xlink:href="#k" x="17.33" y="-125.51" transform="rotate(138.46)"/>
  <use xlink:href="#e" x="12.79" y="-133.3" transform="rotate(138.46)"/>
  <use xlink:href="#g" x="114.61" y="-72.98" transform="rotate(83.08)"/>
  <use xlink:href="#h" x="-117.41" y="-80.57" transform="rotate(193.85)"/>
  <use xlink:href="#e" x="120.85" y="-90.17" transform="rotate(83.08)"/>
  <use xlink:href="#h" x="147.25" y="42.33" transform="rotate(27.69)"/>
  <use xlink:href="#k" x="54.04" y="-153.37" transform="rotate(110.77)"/>
  <use xlink:href="#l" x="-87.42" y="143.96" transform="rotate(276.92)"/>
  <use xlink:href="#j" x="50.8" y="-169.04" transform="rotate(110.77)"/>
  <use xlink:href="#f" x="150.35" y="106.95"/>
  <use xlink:href="#d" x="91.02" y="167.88" transform="rotate(332.31)"/>
  <use xlink:href="#e" x="-89.15" y="178.1" transform="rotate(276.92)"/>
  <use xlink:href="#k" x="-142.96" y="-144.45" transform="rotate(166.15)"/>
  <use xlink:href="#c" x="-85.87" y="193.77" transform="rotate(276.92)"/>
  <use xlink:href="#j" x="-84.04" y="202.86" transform="rotate(276.92)"/>
  <use xlink:href="#h" x="-171.08" y="-152.2" transform="rotate(166.15)"/>
  <use xlink:href="#g" x="-80.01" y="223.73" transform="rotate(276.92)"/>
  <use xlink:href="#i" x="145.88" y="195.95" transform="rotate(332.31)"/>
  <use xlink:href="#f" x="-101.3" y="-230.13" transform="rotate(138.46)"/>
  <use xlink:href="#l" x="236.3" y="107.75"/>
  <use xlink:href="#g" x="11.86" y="-266.03" transform="rotate(110.77)"/>
  <use xlink:href="#f" x="-191.1" y="199.3" transform="rotate(249.23)"/>
  <use xlink:href="#f" x="-100.32" y="-40.07" transform="rotate(249.23)"/>
  <use xlink:href="#k" x="95.13" y="61.42" transform="rotate(55.38)"/>
  <use xlink:href="#k" x="240.56" y="-149.27" transform="rotate(55.38)"/>
  <use xlink:href="#g" x="-87.68" y="-81.52" transform="rotate(221.54)"/>
  <use xlink:href="#h" x="105.98" y="46.75" transform="rotate(55.38)"/>
  <use xlink:href="#h" x="29.86" y="112.47"/>
  <use xlink:href="#c" x="-122.66" y="-4.29" transform="rotate(249.23)"/>
  <use xlink:href="#k" x="98.15" y="79.03" transform="rotate(27.69)"/>
  <use xlink:href="#k" x="-107.88" y="71.53" transform="rotate(276.92)"/>
  <use xlink:href="#l" x="-91.24" y="-93.96" transform="rotate(193.85)"/>
  <use xlink:href="#e" x="-43.92" y="-131" transform="rotate(166.15)"/>
  <use xlink:href="#i" x="142.25" y="-1.57" transform="rotate(55.38)"/>
  <use xlink:href="#b" x="-143.73" y="-26" transform="rotate(221.54)"/>
  <use xlink:href="#e" x="33.07" y="148.08" transform="rotate(332.31)"/>
  <use xlink:href="#c" x="39.69" y="152.88" transform="rotate(332.31)"/>
  <use xlink:href="#h" x="159.45" y="-29.35" transform="rotate(55.38)"/>
  <use xlink:href="#f" x="-91.28" y="-138.83" transform="rotate(166.15)"/>
  <use xlink:href="#l" x="167.83" y="38.78" transform="rotate(27.69)"/>
  <use xlink:href="#f" x="-162.23" y="-80.43" transform="rotate(193.85)"/>
  <use xlink:href="#b" x="-10.56" y="184.09" transform="rotate(304.62)"/>
  <use xlink:href="#j" x="-94.85" y="167.13" transform="rotate(276.92)"/>
  <use xlink:href="#d" x="-137.14" y="-154.7" transform="rotate(166.15)"/>
  <use xlink:href="#e" x="-56.55" y="-204.33" transform="rotate(138.46)"/>
  <use xlink:href="#l" x="-175.27" y="134.15" transform="rotate(249.23)"/>
  <use xlink:href="#e" x="-222.79" y="46.08" transform="rotate(221.54)"/>
  <use xlink:href="#j" x="234.68" y="6.78" transform="rotate(27.69)"/>
  <use xlink:href="#k" x="-87.32" y="225.47" transform="rotate(276.92)"/>
  <use xlink:href="#l" x="140.6" y="205.76" transform="rotate(332.31)"/>
  <use xlink:href="#k" x="-194.67" y="-164.47" transform="rotate(166.15)"/>
  <use xlink:href="#l" x="153.65" y="215" transform="rotate(332.31)"/>
  <use xlink:href="#h" x="-209.27" y="-168.35" transform="rotate(166.15)"/>
  <use xlink:href="#a" x="-198.34" y="194.05" transform="rotate(249.23)"/>
  <use xlink:href="#a" x="-107.56" y="-45.31" transform="rotate(249.23)"/>
  <use xlink:href="#d" x="60.13" y="107.03" transform="rotate(27.69)"/>
  <use xlink:href="#d" x="286.8" y="-11.94" transform="rotate(27.69)"/>
  <use xlink:href="#e" x="-93.08" y="-86.51" transform="rotate(221.54)"/>
  <use xlink:href="#g" x="126.76" y="-4.96" transform="rotate(83.08)"/>
  <use xlink:href="#i" x="113.93" y="45.96" transform="rotate(55.38)"/>
  <use xlink:href="#e" x="-64.51" y="-110.95" transform="rotate(193.85)"/>
  <use xlink:href="#h" x="-13.24" y="-130.03" transform="rotate(166.15)"/>
  <use xlink:href="#d" x="-121.91" y="-56.13" transform="rotate(221.54)"/>
  <use xlink:href="#i" x="136.44" y="14.76" transform="rotate(55.38)"/>
  <use xlink:href="#e" x="120.68" y="79.23" transform="rotate(27.69)"/>
  <use xlink:href="#g" x="13.58" y="147.37" transform="rotate(332.31)"/>
  <use xlink:href="#k" x="-57.04" y="-140.13" transform="rotate(166.15)"/>
  <use xlink:href="#e" x="32.78" y="158.39" transform="rotate(332.31)"/>
  <use xlink:href="#e" x="156.53" y="58.92" transform="rotate(27.69)"/>
  <use xlink:href="#h" x="-8.52" y="-168.21" transform="rotate(138.46)"/>
  <use xlink:href="#i" x="171.85" y="54.3" transform="rotate(27.69)"/>
  <use xlink:href="#f" x="172.46" y="-38.71" transform="rotate(55.38)"/>
  <use xlink:href="#b" x="-108.6" y="-153.75" transform="rotate(166.15)"/>
  <use xlink:href="#a" x="149.41" y="128.41"/>
  <use xlink:href="#c" x="-197.4" y="11.81" transform="rotate(221.54)"/>
  <use xlink:href="#k" x="140.14" y="-147.91" transform="rotate(83.08)"/>
  <use xlink:href="#f" x="55.17" y="-206.6" transform="rotate(110.77)"/>
  <use xlink:href="#f" x="143.44" y="-167.94" transform="rotate(83.08)"/>
  <use xlink:href="#b" x="210.68" y="-87.12" transform="rotate(55.38)"/>
  <use xlink:href="#l" x="-98.25" y="215.28" transform="rotate(276.92)"/>
  <use xlink:href="#e" x="19.44" y="243.71" transform="rotate(304.62)"/>
  <use xlink:href="#h" x="-183.34" y="-174.45" transform="rotate(166.15)"/>
  <use xlink:href="#c" x="-90.01" y="-241.57" transform="rotate(138.46)"/>
  <use xlink:href="#h" x="-202.63" y="175.18" transform="rotate(249.23)"/>
  <use xlink:href="#i" x="-207.44" y="-176.16" transform="rotate(166.15)"/>
  <use xlink:href="#e" x="281.91" y="-4.37" transform="rotate(27.69)"/>
  <use xlink:href="#f" x="-34.67" y="-126.03" transform="rotate(193.85)"/>
  <use xlink:href="#f" x="-283.23" y="-64.76" transform="rotate(193.85)"/>
  <use xlink:href="#d" x="83.77" y="-108.72" transform="rotate(138.46)"/>
  <use xlink:href="#j" x="-45.25" y="127.44" transform="rotate(332.31)"/>
  <use xlink:href="#j" x="3.36" y="-131.42" transform="rotate(166.15)"/>
  <use xlink:href="#l" x="92.03" y="100.25" transform="rotate(27.69)"/>
  <use xlink:href="#k" x="-76.62" y="-116.17" transform="rotate(193.85)"/>
  <use xlink:href="#f" x="109.71" y="90.84" transform="rotate(27.69)"/>
  <use xlink:href="#l" x="-30.45" y="-142.13" transform="rotate(166.15)"/>
  <use xlink:href="#d" x="96.91" y="-118.25" transform="rotate(110.77)"/>
  <use xlink:href="#k" x="136.02" y="77.73" transform="rotate(27.69)"/>
  <use xlink:href="#k" x="-123.3" y="107.6" transform="rotate(276.92)"/>
  <use xlink:href="#a" x="-157.25" y="-33.09" transform="rotate(221.54)"/>
  <use xlink:href="#b" x="33.77" y="167.44" transform="rotate(332.31)"/>
  <use xlink:href="#e" x="-163.63" y="63.82" transform="rotate(249.23)"/>
  <use xlink:href="#b" x="149.14" y="-106.29" transform="rotate(83.08)"/>
  <use xlink:href="#h" x="-187.68" y="-10.38" transform="rotate(221.54)"/>
  <use xlink:href="#k" x="146.55" y="-125.16" transform="rotate(83.08)"/>
  <use xlink:href="#c" x="152.34" y="136.32"/>
  <use xlink:href="#j" x="-17.23" y="203.76" transform="rotate(304.62)"/>
  <use xlink:href="#g" x="-182.21" y="107.77" transform="rotate(249.23)"/>
  <use xlink:href="#k" x="-112.19" y="188.23" transform="rotate(276.92)"/>
  <use xlink:href="#h" x="151.95" y="-164.22" transform="rotate(83.08)"/>
  <use xlink:href="#d" x="-218.31" y="-85.87" transform="rotate(193.85)"/>
  <use xlink:href="#j" x="197.22" y="129.23"/>
  <use xlink:href="#d" x="50.73" y="-238.65" transform="rotate(110.77)"/>
  <use xlink:href="#b" x="252.02" y="16.92" transform="rotate(27.69)"/>
  <use xlink:href="#h" x="-202.63" y="164.36" transform="rotate(249.23)"/>
  <use xlink:href="#i" x="233.66" y="134.81"/>
  <use xlink:href="#g" x="-268.7" y="63.91" transform="rotate(221.54)"/>
  <use xlink:href="#b" x="-104.45" y="263.97" transform="rotate(276.92)"/>
  <use xlink:href="#g" x="67.77" y="122.11" transform="rotate(27.69)"/>
  <use xlink:href="#g" x="294.44" y="3.14" transform="rotate(27.69)"/>
  <use xlink:href="#f" x="125.12" y="-65.18" transform="rotate(110.77)"/>
  <use xlink:href="#d" x="131.46" y="61.79" transform="rotate(55.38)"/>
  <use xlink:href="#g" x="67.66" y="-125.43" transform="rotate(138.46)"/>
  <use xlink:href="#g" x="61.49" y="-130.62" transform="rotate(138.46)"/>
  <use xlink:href="#l" x="-81.07" y="-122.33" transform="rotate(193.85)"/>
  <use xlink:href="#f" x="-153.96" y="-0" transform="rotate(249.23)"/>
  <use xlink:href="#h" x="-79.81" y="129.45" transform="rotate(304.62)"/>
  <use xlink:href="#h" x="-3.39" y="155.18" transform="rotate(332.31)"/>
  <use xlink:href="#f" x="-129.32" y="94.83" transform="rotate(276.92)"/>
  <use xlink:href="#a" x="102.51" y="-134.58" transform="rotate(110.77)"/>
  <use xlink:href="#l" x="96.41" y="-141.87" transform="rotate(110.77)"/>
  <use xlink:href="#d" x="-137.61" y="-110.66" transform="rotate(193.85)"/>
  <use xlink:href="#l" x="37.99" y="178" transform="rotate(332.31)"/>
  <use xlink:href="#g" x="-129.15" y="140.74" transform="rotate(276.92)"/>
  <use xlink:href="#d" x="-193.61" y="-19.36" transform="rotate(221.54)"/>
  <use xlink:href="#h" x="-121.17" y="154.63" transform="rotate(276.92)"/>
  <use xlink:href="#d" x="148.59" y="143.04"/>
  <use xlink:href="#i" x="-21.73" y="-211.78" transform="rotate(138.46)"/>
  <use xlink:href="#f" x="-19.66" y="217.63" transform="rotate(304.62)"/>
  <use xlink:href="#d" x="-137.85" y="-181.2" transform="rotate(166.15)"/>
  <use xlink:href="#d" x="226.93" y="36.74" transform="rotate(27.69)"/>
  <use xlink:href="#c" x="-152.94" y="-186.73" transform="rotate(166.15)"/>
  <use xlink:href="#b" x="199.8" y="139.36"/>
  <use xlink:href="#b" x="54.84" y="-245.73" transform="rotate(110.77)"/>
  <use xlink:href="#l" x="-209.57" y="153.81" transform="rotate(249.23)"/>
  <use xlink:href="#b" x="265.92" y="18.31" transform="rotate(27.69)"/>
  <use xlink:href="#h" x="15.45" y="275.41" transform="rotate(304.62)"/>
  <use xlink:href="#g" x="243.5" y="141.23"/>
  <use xlink:href="#d" x="155.36" y="244.58" transform="rotate(332.31)"/>
  <use xlink:href="#j" x="-38" y="-142.64" transform="rotate(193.85)"/>
  <use xlink:href="#j" x="-286.56" y="-81.38" transform="rotate(193.85)"/>
  <use xlink:href="#l" x="14.03" y="150.83"/>
  <use xlink:href="#e" x="-147.03" y="39.98" transform="rotate(276.92)"/>
  <use xlink:href="#j" x="29.34" y="146.54"/>
  <use xlink:href="#h" x="-71.87" y="-133.98" transform="rotate(193.85)"/>
  <use xlink:href="#l" x="-7.3" y="-155.83" transform="rotate(166.15)"/>
  <use xlink:href="#e" x="156.21" y="-32.99" transform="rotate(83.08)"/>
  <use xlink:href="#c" x="-28.86" y="-158.29" transform="rotate(166.15)"/>
  <use xlink:href="#f" x="-138.39" y="91.39" transform="rotate(276.92)"/>
  <use xlink:href="#l" x="-159.74" y="-56.1" transform="rotate(221.54)"/>
  <use xlink:href="#d" x="9.21" y="175.61" transform="rotate(332.31)"/>
  <use xlink:href="#a" x="-59.25" y="-169.66" transform="rotate(166.15)"/>
  <use xlink:href="#k" x="-61.87" y="170.82" transform="rotate(304.62)"/>
  <use xlink:href="#j" x="97.42" y="-158.67" transform="rotate(110.77)"/>
  <use xlink:href="#f" x="-186.15" y="58.24" transform="rotate(249.23)"/>
  <use xlink:href="#b" x="-51.43" y="192.53" transform="rotate(304.62)"/>
  <use xlink:href="#a" x="-41.11" y="198.75" transform="rotate(304.62)"/>
  <use xlink:href="#k" x="145.24" y="151.97"/>
  <use xlink:href="#d" x="155.67" y="151.97"/>
  <use xlink:href="#g" x="79.47" y="-205.6" transform="rotate(110.77)"/>
  <use xlink:href="#c" x="224.44" y="52.54" transform="rotate(27.69)"/>
  <use xlink:href="#h" x="92.99" y="215.15" transform="rotate(332.31)"/>
  <use xlink:href="#h" x="-128.17" y="207.23" transform="rotate(276.92)"/>
  <use xlink:href="#i" x="67.42" y="-240.61" transform="rotate(110.77)"/>
  <use xlink:href="#a" x="-120.86" y="226.38" transform="rotate(276.92)"/>
  <use xlink:href="#g" x="67.6" y="-256.59" transform="rotate(110.77)"/>
  <use xlink:href="#f" x="5.98" y="267.72" transform="rotate(304.62)"/>
  <use xlink:href="#i" x="231.82" y="152.15"/>
  <use xlink:href="#h" x="281.66" y="21.24" transform="rotate(27.69)"/>
  <use xlink:href="#g" x="291.25" y="18.9" transform="rotate(27.69)"/>
  <use xlink:href="#f" x="-154.09" y="22" transform="rotate(276.92)"/>
  <use xlink:href="#f" x="-123.23" y="276.13" transform="rotate(276.92)"/>
  <use xlink:href="#g" x="95.35" y="-121.78" transform="rotate(138.46)"/>
  <use xlink:href="#g" x="-96.27" y="-291.54" transform="rotate(138.46)"/>
  <use xlink:href="#e" x="19.57" y="-158.66" transform="rotate(166.15)"/>
  <use xlink:href="#e" x="-125.63" y="-101.21" transform="rotate(221.54)"/>
  <use xlink:href="#c" x="-148.94" y="54.27" transform="rotate(276.92)"/>
  <use xlink:href="#d" x="67.69" y="-151.18" transform="rotate(138.46)"/>
  <use xlink:href="#c" x="162.15" y="-39.39" transform="rotate(83.08)"/>
  <use xlink:href="#f" x="-14.18" y="167.96" transform="rotate(332.31)"/>
  <use xlink:href="#h" x="-160.74" y="-72.07" transform="rotate(221.54)"/>
  <use xlink:href="#g" x="79.16" y="155.78"/>
  <use xlink:href="#b" x="118.36" y="-136.73" transform="rotate(110.77)"/>
  <use xlink:href="#c" x="-176.3" y="-55.66" transform="rotate(221.54)"/>
  <use xlink:href="#e" x="-139.25" y="-126.79" transform="rotate(193.85)"/>
  <use xlink:href="#l" x="-73.19" y="-181.46" transform="rotate(166.15)"/>
  <use xlink:href="#k" x="182.7" y="86.2" transform="rotate(27.69)"/>
  <use xlink:href="#i" x="-88.84" y="-186.39" transform="rotate(166.15)"/>
  <use xlink:href="#i" x="138.2" y="155.55"/>
  <use xlink:href="#k" x="-202" y="84.47" transform="rotate(249.23)"/>
  <use xlink:href="#g" x="-224.95" y="-14.43" transform="rotate(221.54)"/>
  <use xlink:href="#f" x="76.07" y="215.83" transform="rotate(332.31)"/>
  <use xlink:href="#l" x="228.71" y="59.65" transform="rotate(27.69)"/>
  <use xlink:href="#c" x="183.67" y="157.57"/>
  <use xlink:href="#h" x="82.48" y="-235.3" transform="rotate(110.77)"/>
  <use xlink:href="#j" x="244.53" y="-73.79" transform="rotate(55.38)"/>
  <use xlink:href="#j" x="206.17" y="154.07"/>
  <use xlink:href="#i" x="-272.28" y="23.99" transform="rotate(221.54)"/>
  <use xlink:href="#b" x="-0.4" y="273.23" transform="rotate(304.62)"/>
  <use xlink:href="#d" x="-130.25" y="252.58" transform="rotate(276.92)"/>
  <use xlink:href="#k" x="-275.22" y="-97.22" transform="rotate(193.85)"/>
  <use xlink:href="#e" x="-238.96" y="177.84" transform="rotate(249.23)"/>
  <use xlink:href="#e" x="-162.29" y="23.57" transform="rotate(276.92)"/>
  <use xlink:href="#e" x="-131.43" y="277.71" transform="rotate(276.92)"/>
  <use xlink:href="#l" x="-52.44" y="-158.85" transform="rotate(193.85)"/>
  <use xlink:href="#k" x="148.32" y="78.44" transform="rotate(55.38)"/>
  <use xlink:href="#j" x="34.02" y="161.75"/>
  <use xlink:href="#c" x="143.72" y="-93.85" transform="rotate(110.77)"/>
  <use xlink:href="#e" x="-110.85" y="130.83" transform="rotate(304.62)"/>
  <use xlink:href="#k" x="-30.05" y="170.28" transform="rotate(332.31)"/>
  <use xlink:href="#h" x="173.51" y="39.34" transform="rotate(55.38)"/>
  <use xlink:href="#i" x="75.7" y="167.66"/>
  <use xlink:href="#i" x="-157.54" y="103.6" transform="rotate(276.92)"/>
  <use xlink:href="#b" x="122.58" y="-144.47" transform="rotate(110.77)"/>
  <use xlink:href="#f" x="165.99" y="101.62" transform="rotate(27.69)"/>
  <use xlink:href="#g" x="171.21" y="94.77" transform="rotate(27.69)"/>
  <use xlink:href="#f" x="-153.49" y="135.16" transform="rotate(276.92)"/>
  <use xlink:href="#a" x="35.18" y="207.8" transform="rotate(332.31)"/>
  <use xlink:href="#k" x="-212" y="-36.31" transform="rotate(221.54)"/>
  <use xlink:href="#h" x="-202.62" y="75.99" transform="rotate(249.23)"/>
  <use xlink:href="#d" x="-52.06" y="218.74" transform="rotate(304.62)"/>
  <use xlink:href="#h" x="-230.21" y="-21.35" transform="rotate(221.54)"/>
  <use xlink:href="#k" x="-211.37" y="97.42" transform="rotate(249.23)"/>
  <use xlink:href="#c" x="-41.05" y="239.87" transform="rotate(304.62)"/>
  <use xlink:href="#i" x="238.94" y="-55.1" transform="rotate(55.38)"/>
  <use xlink:href="#e" x="248.94" y="-66.51" transform="rotate(55.38)"/>
  <use xlink:href="#b" x="103.61" y="243.74" transform="rotate(332.31)"/>
  <use xlink:href="#e" x="111.52" y="242.85" transform="rotate(332.31)"/>
  <use xlink:href="#b" x="-252.97" y="-112.7" transform="rotate(193.85)"/>
  <use xlink:href="#j" x="227.35" y="166.1"/>
  <use xlink:href="#l" x="194.96" y="-212.89" transform="rotate(83.08)"/>
  <use xlink:href="#i" x="70.97" y="-288.12" transform="rotate(110.77)"/>
  <use xlink:href="#k" x="302.51" y="31.88" transform="rotate(27.69)"/>
  <use xlink:href="#k" x="75.84" y="150.85" transform="rotate(27.69)"/>
  <use xlink:href="#j" x="-141.35" y="101.59" transform="rotate(304.62)"/>
  <use xlink:href="#j" x="4.08" y="312.27" transform="rotate(304.62)"/>
  <use xlink:href="#b" x="-172.04" y="33.01" transform="rotate(276.92)"/>
  <use xlink:href="#i" x="100.78" y="144.07" transform="rotate(27.69)"/>
  <use xlink:href="#b" x="158.7" y="73.69" transform="rotate(55.38)"/>
  <use xlink:href="#g" x="116.7" y="136.89" transform="rotate(27.69)"/>
  <use xlink:href="#e" x="-178.91" y="-16.75" transform="rotate(249.23)"/>
  <use xlink:href="#j" x="59.89" y="170.28"/>
  <use xlink:href="#l" x="-18.55" y="-186.9" transform="rotate(166.15)"/>
  <use xlink:href="#l" x="185.24" y="-49.12" transform="rotate(83.08)"/>
  <use xlink:href="#a" x="-164.44" y="99.2" transform="rotate(276.92)"/>
  <use xlink:href="#b" x="194.68" y="24.66" transform="rotate(55.38)"/>
  <use xlink:href="#l" x="129.57" y="-155.25" transform="rotate(110.77)"/>
  <use xlink:href="#a" x="13.93" y="202" transform="rotate(332.31)"/>
  <use xlink:href="#d" x="-80.71" y="195.64" transform="rotate(304.62)"/>
  <use xlink:href="#d" x="121.82" y="172.93"/>
  <use xlink:href="#a" x="131.09" y="176.18"/>
  <use xlink:href="#k" x="-178.43" y="-133.15" transform="rotate(193.85)"/>
  <use xlink:href="#k" x="228.71" y="-22.85" transform="rotate(55.38)"/>
  <use xlink:href="#h" x="220.77" y="83.1" transform="rotate(27.69)"/>
  <use xlink:href="#d" x="-150.99" y="185.16" transform="rotate(276.92)"/>
  <use xlink:href="#c" x="-246.12" y="-19.65" transform="rotate(221.54)"/>
  <use xlink:href="#c" x="181.53" y="173.6"/>
  <use xlink:href="#f" x="-143.17" y="-212.8" transform="rotate(166.15)"/>
  <use xlink:href="#l" x="258.47" y="-65.93" transform="rotate(55.38)"/>
  <use xlink:href="#a" x="-273.13" y="8.01" transform="rotate(221.54)"/>
  <use xlink:href="#h" x="-150.82" y="236.9" transform="rotate(276.92)"/>
  <use xlink:href="#k" x="-286.61" y="16.59" transform="rotate(221.54)"/>
  <use xlink:href="#a" x="125.13" y="264.08" transform="rotate(332.31)"/>
  <use xlink:href="#l" x="-63.83" y="-292.12" transform="rotate(138.46)"/>
  <use xlink:href="#g" x="76.59" y="-295.88" transform="rotate(110.77)"/>
  <use xlink:href="#g" x="166.59" y="-71.14" transform="rotate(110.77)"/>
  <use xlink:href="#g" x="75.81" y="-310.5" transform="rotate(110.77)"/>
  <use xlink:href="#h" x="-60.12" y="-173.04" transform="rotate(193.85)"/>
  <use xlink:href="#f" x="-140.06" y="-117.69" transform="rotate(221.54)"/>
  <use xlink:href="#a" x="-180.9" y="55.25" transform="rotate(276.92)"/>
  <use xlink:href="#d" x="186.46" y="-19.42" transform="rotate(83.08)"/>
  <use xlink:href="#d" x="128.66" y="136.26" transform="rotate(27.69)"/>
  <use xlink:href="#c" x="137.21" y="138.12" transform="rotate(27.69)"/>
  <use xlink:href="#e" x="149.54" y="-127.25" transform="rotate(110.77)"/>
  <use xlink:href="#f" x="63.83" y="-188.7" transform="rotate(138.46)"/>
  <use xlink:href="#a" x="-203.15" y="14.6" transform="rotate(249.23)"/>
  <use xlink:href="#c" x="-96.61" y="180" transform="rotate(304.62)"/>
  <use xlink:href="#e" x="-198.54" y="-70.75" transform="rotate(221.54)"/>
  <use xlink:href="#e" x="-62.73" y="-204.52" transform="rotate(166.15)"/>
  <use xlink:href="#f" x="131.18" y="-175.61" transform="rotate(110.77)"/>
  <use xlink:href="#k" x="-165.65" y="-146.43" transform="rotate(193.85)"/>
  <use xlink:href="#i" x="-85.79" y="-210.37" transform="rotate(166.15)"/>
  <use xlink:href="#l" x="-68.61" y="219.64" transform="rotate(304.62)"/>
  <use xlink:href="#l" x="220.26" y="91.72" transform="rotate(27.69)"/>
  <use xlink:href="#g" x="-201.37" y="-140.06" transform="rotate(193.85)"/>
  <use xlink:href="#g" x="-56.15" y="245.18" transform="rotate(304.62)"/>
  <use xlink:href="#d" x="251.66" y="-42.51" transform="rotate(55.38)"/>
  <use xlink:href="#h" x="-234.9" y="109.87" transform="rotate(249.23)"/>
  <use xlink:href="#b" x="-24.23" y="-265.68" transform="rotate(138.46)"/>
  <use xlink:href="#c" x="-36.25" y="270.23" transform="rotate(304.62)"/>
  <use xlink:href="#h" x="97.11" y="-261.74" transform="rotate(110.77)"/>
  <use xlink:href="#g" x="94.4" y="-273.44" transform="rotate(110.77)"/>
  <use xlink:href="#k" x="-50.3" y="-291.62" transform="rotate(138.46)"/>
  <use xlink:href="#a" x="-302.61" y="17.33" transform="rotate(221.54)"/>
  <use xlink:href="#f" x="212.72" y="-223.03" transform="rotate(83.08)"/>
  <use xlink:href="#k" x="255.3" y="184.43"/>
  <use xlink:href="#k" x="-0.7" y="184.43"/>
  <use xlink:href="#k" x="-153.41" y="113.07" transform="rotate(304.62)"/>
  <use xlink:href="#k" x="-7.99" y="323.75" transform="rotate(304.62)"/>
  <use xlink:href="#d" x="14.04" y="190.64"/>
  <use xlink:href="#e" x="23.91" y="-187.91" transform="rotate(166.15)"/>
  <use xlink:href="#i" x="170.02" y="-95.98" transform="rotate(110.77)"/>
  <use xlink:href="#d" x="-156.07" y="-117.45" transform="rotate(221.54)"/>
  <use xlink:href="#e" x="-2.1" y="-195.38" transform="rotate(166.15)"/>
  <use xlink:href="#d" x="54.43" y="195.42"/>
  <use xlink:href="#k" x="199.21" y="-40.65" transform="rotate(83.08)"/>
  <use xlink:href="#j" x="154.76" y="-135.51" transform="rotate(110.77)"/>
  <use xlink:href="#l" x="202.9" y="42.49" transform="rotate(55.38)"/>
  <use xlink:href="#c" x="-11.53" y="213.57" transform="rotate(332.31)"/>
  <use xlink:href="#l" x="54.85" y="-207.12" transform="rotate(138.46)"/>
  <use xlink:href="#c" x="-55.84" y="-212" transform="rotate(166.15)"/>
  <use xlink:href="#d" x="-178.3" y="137.45" transform="rotate(276.92)"/>
  <use xlink:href="#l" x="-222.44" y="48.38" transform="rotate(249.23)"/>
  <use xlink:href="#c" x="132.88" y="-191.53" transform="rotate(110.77)"/>
  <use xlink:href="#h" x="125.68" y="-200.9" transform="rotate(110.77)"/>
  <use xlink:href="#l" x="245.64" y="-12.21" transform="rotate(55.38)"/>
  <use xlink:href="#e" x="-169.74" y="177.03" transform="rotate(276.92)"/>
  <use xlink:href="#d" x="-206.75" y="-147.7" transform="rotate(193.85)"/>
  <use xlink:href="#g" x="118.36" y="-232.38" transform="rotate(110.77)"/>
  <use xlink:href="#a" x="-51.03" y="259.38" transform="rotate(304.62)"/>
  <use xlink:href="#h" x="265.51" y="-50.52" transform="rotate(55.38)"/>
  <use xlink:href="#k" x="-47.48" y="274.98" transform="rotate(304.62)"/>
  <use xlink:href="#k" x="-164.54" y="228.67" transform="rotate(276.92)"/>
  <use xlink:href="#h" x="-163.17" y="237.45" transform="rotate(276.92)"/>
  <use xlink:href="#e" x="107.53" y="274.88" transform="rotate(332.31)"/>
  <use xlink:href="#d" x="98.82" y="-288.82" transform="rotate(110.77)"/>
  <use xlink:href="#h" x="243.48" y="194.97"/>
  <use xlink:href="#f" x="-269.23" y="167.57" transform="rotate(249.23)"/>
  <use xlink:href="#f" x="-178.45" y="-71.79" transform="rotate(249.23)"/>
  <use xlink:href="#k" x="-197.91" y="26.41" transform="rotate(276.92)"/>
  <use xlink:href="#k" x="-167.05" y="280.55" transform="rotate(276.92)"/>
  <use xlink:href="#j" x="199.29" y="13.68" transform="rotate(83.08)"/>
  <use xlink:href="#j" x="16.58" y="202.5"/>
  <use xlink:href="#j" x="179.21" y="91.58" transform="rotate(55.38)"/>
  <use xlink:href="#e" x="-163.01" y="-125.23" transform="rotate(221.54)"/>
  <use xlink:href="#c" x="45.25" y="196.59"/>
  <use xlink:href="#b" x="-210.22" y="-21.43" transform="rotate(249.23)"/>
  <use xlink:href="#g" x="-108.98" y="-179.78" transform="rotate(193.85)"/>
  <use xlink:href="#g" x="206.81" y="52.69" transform="rotate(55.38)"/>
  <use xlink:href="#e" x="157.85" y="-149.71" transform="rotate(110.77)"/>
  <use xlink:href="#b" x="68.66" y="-212.46" transform="rotate(138.46)"/>
  <use xlink:href="#j" x="-4" y="222.7" transform="rotate(332.31)"/>
  <use xlink:href="#f" x="-228.02" y="27.93" transform="rotate(249.23)"/>
  <use xlink:href="#g" x="198.37" y="121.28" transform="rotate(27.69)"/>
  <use xlink:href="#a" x="218.15" y="-101.22" transform="rotate(83.08)"/>
  <use xlink:href="#i" x="32.06" y="-238.73" transform="rotate(138.46)"/>
  <use xlink:href="#a" x="242.45" y="-4.07" transform="rotate(55.38)"/>
  <use xlink:href="#h" x="253.41" y="-7.3" transform="rotate(55.38)"/>
  <use xlink:href="#b" x="156.96" y="199.1"/>
  <use xlink:href="#a" x="-179.44" y="188.34" transform="rotate(276.92)"/>
  <use xlink:href="#d" x="60.06" y="258.08" transform="rotate(332.31)"/>
  <use xlink:href="#d" x="-128.42" y="-235.88" transform="rotate(166.15)"/>
  <use xlink:href="#h" x="189.65" y="198.44"/>
  <use xlink:href="#f" x="196.47" y="202.85"/>
  <use xlink:href="#c" x="-258.91" y="121.74" transform="rotate(249.23)"/>
  <use xlink:href="#a" x="286.13" y="-63.5" transform="rotate(55.38)"/>
  <use xlink:href="#d" x="-302.32" y="0.28" transform="rotate(221.54)"/>
  <use xlink:href="#h" x="112.09" y="288.03" transform="rotate(332.31)"/>
  <use xlink:href="#e" x="230.86" y="-215.99" transform="rotate(83.08)"/>
  <use xlink:href="#g" x="-276.06" y="163.16" transform="rotate(249.23)"/>
  <use xlink:href="#k" x="-170.22" y="119.32" transform="rotate(304.62)"/>
  <use xlink:href="#k" x="-24.8" y="330.01" transform="rotate(304.62)"/>
  <use xlink:href="#d" x="-164.44" y="131.28" transform="rotate(304.62)"/>
  <use xlink:href="#c" x="-73.35" y="-196.28" transform="rotate(193.85)"/>
  <use xlink:href="#k" x="208.24" y="-7.15" transform="rotate(83.08)"/>
  <use xlink:href="#j" x="-89.34" y="-195.26" transform="rotate(193.85)"/>
  <use xlink:href="#b" x="-95.26" y="-188.01" transform="rotate(193.85)"/>
  <use xlink:href="#l" x="101.82" y="-193.64" transform="rotate(138.46)"/>
  <use xlink:href="#b" x="-135.99" y="170.56" transform="rotate(304.62)"/>
  <use xlink:href="#e" x="-197.86" y="94.63" transform="rotate(276.92)"/>
  <use xlink:href="#j" x="-126.28" y="-182.13" transform="rotate(193.85)"/>
  <use xlink:href="#j" x="-210.1" y="-96.5" transform="rotate(221.54)"/>
  <use xlink:href="#h" x="98.73" y="207.23"/>
  <use xlink:href="#j" x="109.27" y="212.06"/>
  <use xlink:href="#h" x="217.47" y="-89.17" transform="rotate(83.08)"/>
  <use xlink:href="#l" x="-193.74" y="145.97" transform="rotate(276.92)"/>
  <use xlink:href="#l" x="225.53" y="-103.65" transform="rotate(83.08)"/>
  <use xlink:href="#c" x="33.42" y="-246.6" transform="rotate(138.46)"/>
  <use xlink:href="#i" x="-91.37" y="-239.66" transform="rotate(166.15)"/>
  <use xlink:href="#f" x="-85.84" y="246.43" transform="rotate(304.62)"/>
  <use xlink:href="#h" x="267.88" y="-21.49" transform="rotate(55.38)"/>
  <use xlink:href="#a" x="-71.54" y="266.16" transform="rotate(304.62)"/>
  <use xlink:href="#b" x="-2.77" y="-276.77" transform="rotate(138.46)"/>
  <use xlink:href="#c" x="-135.9" y="-253.1" transform="rotate(166.15)"/>
  <use xlink:href="#i" x="-245.29" y="-156.38" transform="rotate(193.85)"/>
  <use xlink:href="#h" x="-178.97" y="234.79" transform="rotate(276.92)"/>
  <use xlink:href="#k" x="233.59" y="-191.46" transform="rotate(83.08)"/>
  <use xlink:href="#a" x="-170.69" y="-257.15" transform="rotate(166.15)"/>
  <use xlink:href="#a" x="-37.43" y="316.09" transform="rotate(304.62)"/>
  <use xlink:href="#j" x="316.72" y="71.96" transform="rotate(27.69)"/>
  <use xlink:href="#d" x="254.32" y="215.13"/>
  <use xlink:href="#d" x="-1.68" y="215.13"/>
  <use xlink:href="#f" x="-57.92" y="-207.19" transform="rotate(193.85)"/>
  <use xlink:href="#f" x="-306.48" y="-145.92" transform="rotate(193.85)"/>
  <use xlink:href="#h" x="38.65" y="-215.33" transform="rotate(166.15)"/>
  <use xlink:href="#h" x="-73.38" y="-206.01" transform="rotate(193.85)"/>
  <use xlink:href="#b" x="-209.81" y="55.53" transform="rotate(276.92)"/>
  <use xlink:href="#d" x="-173.84" y="-139.19" transform="rotate(221.54)"/>
  <use xlink:href="#e" x="141.57" y="171.63" transform="rotate(27.69)"/>
  <use xlink:href="#e" x="186.79" y="-128.31" transform="rotate(110.77)"/>
  <use xlink:href="#h" x="-8.03" y="-225.37" transform="rotate(166.15)"/>
  <use xlink:href="#i" x="-205.78" y="95.27" transform="rotate(276.92)"/>
  <use xlink:href="#k" x="78.23" y="215.6"/>
  <use xlink:href="#g" x="-208.09" y="111.17" transform="rotate(276.92)"/>
  <use xlink:href="#i" x="-148.31" y="-187.24" transform="rotate(193.85)"/>
  <use xlink:href="#k" x="-225.71" y="-93" transform="rotate(221.54)"/>
  <use xlink:href="#c" x="-59.87" y="-238.5" transform="rotate(166.15)"/>
  <use xlink:href="#b" x="-110.97" y="226.36" transform="rotate(304.62)"/>
  <use xlink:href="#c" x="46.38" y="-252.93" transform="rotate(138.46)"/>
  <use xlink:href="#f" x="-186.11" y="-175.94" transform="rotate(193.85)"/>
  <use xlink:href="#i" x="154.06" y="-218.48" transform="rotate(110.77)"/>
  <use xlink:href="#f" x="241.44" y="119.63" transform="rotate(27.69)"/>
  <use xlink:href="#e" x="243.7" y="112.9" transform="rotate(27.69)"/>
  <use xlink:href="#j" x="235.98" y="-146.77" transform="rotate(83.08)"/>
  <use xlink:href="#a" x="281" y="-30.66" transform="rotate(55.38)"/>
  <use xlink:href="#i" x="-197.31" y="214.68" transform="rotate(276.92)"/>
  <use xlink:href="#e" x="-294.68" y="-30.75" transform="rotate(221.54)"/>
  <use xlink:href="#j" x="208.05" y="213.9"/>
  <use xlink:href="#i" x="-280.6" y="123.81" transform="rotate(249.23)"/>
  <use xlink:href="#l" x="-310.87" y="-13.24" transform="rotate(221.54)"/>
  <use xlink:href="#b" x="231.26" y="218.09"/>
  <use xlink:href="#a" x="-34.39" y="-322.28" transform="rotate(138.46)"/>
  <use xlink:href="#g" x="249.41" y="-219.98" transform="rotate(83.08)"/>
  <use xlink:href="#b" x="-221.04" y="32.89" transform="rotate(276.92)"/>
  <use xlink:href="#b" x="-190.19" y="287.02" transform="rotate(276.92)"/>
  <use xlink:href="#d" x="-67.14" y="-220.74" transform="rotate(193.85)"/>
  <use xlink:href="#d" x="122.66" y="189.49" transform="rotate(27.69)"/>
  <use xlink:href="#c" x="30" y="223.34"/>
  <use xlink:href="#a" x="-169.24" y="159.7" transform="rotate(304.62)"/>
  <use xlink:href="#k" x="211.48" y="92.12" transform="rotate(55.38)"/>
  <use xlink:href="#c" x="106.81" y="-208.83" transform="rotate(138.46)"/>
  <use xlink:href="#j" x="222.01" y="73.83" transform="rotate(55.38)"/>
  <use xlink:href="#k" x="-204.46" y="-116.47" transform="rotate(221.54)"/>
  <use xlink:href="#i" x="-30.15" y="243.24" transform="rotate(332.31)"/>
  <use xlink:href="#l" x="-35.98" y="-237.54" transform="rotate(166.15)"/>
  <use xlink:href="#k" x="236.11" y="-72.83" transform="rotate(83.08)"/>
  <use xlink:href="#l" x="-232.75" y="-98.48" transform="rotate(221.54)"/>
  <use xlink:href="#d" x="209.37" y="144.82" transform="rotate(27.69)"/>
  <use xlink:href="#l" x="3.57" y="261.72" transform="rotate(332.31)"/>
  <use xlink:href="#g" x="164.62" y="-205.8" transform="rotate(110.77)"/>
  <use xlink:href="#b" x="-258.3" y="54.27" transform="rotate(249.23)"/>
  <use xlink:href="#j" x="23.33" y="271.1" transform="rotate(332.31)"/>
  <use xlink:href="#a" x="-205.5" y="183.96" transform="rotate(276.92)"/>
  <use xlink:href="#h" x="-201.27" y="192.27" transform="rotate(276.92)"/>
  <use xlink:href="#g" x="49.13" y="280.32" transform="rotate(332.31)"/>
  <use xlink:href="#c" x="-123.11" y="-262.79" transform="rotate(166.15)"/>
  <use xlink:href="#e" x="62.96" y="291.74" transform="rotate(332.31)"/>
  <use xlink:href="#b" x="-249.8" y="-171.73" transform="rotate(193.85)"/>
  <use xlink:href="#e" x="289.76" y="100.54" transform="rotate(27.69)"/>
  <use xlink:href="#b" x="87.44" y="301.55" transform="rotate(332.31)"/>
  <use xlink:href="#k" x="307.33" y="96.88" transform="rotate(27.69)"/>
  <use xlink:href="#k" x="318.19" y="-64.12" transform="rotate(55.38)"/>
  <use xlink:href="#f" x="254.03" y="-213.89" transform="rotate(83.08)"/>
  <use xlink:href="#k" x="256.29" y="-223.35" transform="rotate(83.08)"/>
  <use xlink:href="#k" x="225.43" y="30.78" transform="rotate(83.08)"/>
  <use xlink:href="#e" x="214.27" y="-85.22" transform="rotate(110.77)"/>
  <use xlink:href="#e" x="123.49" y="-324.58" transform="rotate(110.77)"/>
  <use xlink:href="#g" x="148.34" y="-188.17" transform="rotate(138.46)"/>
  <use xlink:href="#k" x="140.25" y="-187.56" transform="rotate(138.46)"/>
  <use xlink:href="#b" x="234" y="-0.04" transform="rotate(83.08)"/>
  <use xlink:href="#l" x="-69.72" y="227.86" transform="rotate(332.31)"/>
  <use xlink:href="#b" x="116.16" y="-208.09" transform="rotate(138.46)"/>
  <use xlink:href="#j" x="240.87" y="-28.98" transform="rotate(83.08)"/>
  <use xlink:href="#l" x="-223.86" y="94.18" transform="rotate(276.92)"/>
  <use xlink:href="#f" x="97.8" y="-222.04" transform="rotate(138.46)"/>
  <use xlink:href="#b" x="243.92" y="-53.38" transform="rotate(83.08)"/>
  <use xlink:href="#c" x="-144.16" y="208.11" transform="rotate(304.62)"/>
  <use xlink:href="#g" x="81.17" y="-239.72" transform="rotate(138.46)"/>
  <use xlink:href="#l" x="-158.51" y="-203.14" transform="rotate(193.85)"/>
  <use xlink:href="#k" x="-6.91" y="260.01" transform="rotate(332.31)"/>
  <use xlink:href="#j" x="122.11" y="237.21"/>
  <use xlink:href="#l" x="132.17" y="236.05"/>
  <use xlink:href="#g" x="-79.97" y="-261.14" transform="rotate(166.15)"/>
  <use xlink:href="#g" x="279.35" y="12.83" transform="rotate(55.38)"/>
  <use xlink:href="#f" x="-100.87" y="264.61" transform="rotate(304.62)"/>
  <use xlink:href="#a" x="-216.33" y="-192.01" transform="rotate(193.85)"/>
  <use xlink:href="#d" x="154.67" y="-247.37" transform="rotate(110.77)"/>
  <use xlink:href="#g" x="18.87" y="-300.07" transform="rotate(138.46)"/>
  <use xlink:href="#b" x="193.57" y="237.18"/>
  <use xlink:href="#f" x="-79.35" y="297.71" transform="rotate(304.62)"/>
  <use xlink:href="#b" x="146.99" y="-277.03" transform="rotate(110.77)"/>
  <use xlink:href="#g" x="315.21" y="-43.94" transform="rotate(55.38)"/>
  <use xlink:href="#d" x="-11.12" y="-323.55" transform="rotate(138.46)"/>
  <use xlink:href="#h" x="134.39" y="-305.68" transform="rotate(110.77)"/>
  <use xlink:href="#i" x="-340.28" y="-14.74" transform="rotate(221.54)"/>
  <use xlink:href="#c" x="266.03" y="-223.41" transform="rotate(83.08)"/>
  <use xlink:href="#c" x="235.18" y="30.72" transform="rotate(83.08)"/>
  <use xlink:href="#d" x="222.6" y="-89.35" transform="rotate(110.77)"/>
  <use xlink:href="#d" x="131.82" y="-328.72" transform="rotate(110.77)"/>
  <use xlink:href="#j" x="207.72" y="132.25" transform="rotate(55.38)"/>
  <use xlink:href="#i" x="132.31" y="205.47" transform="rotate(27.69)"/>
  <use xlink:href="#i" x="29.74" y="239.36"/>
  <use xlink:href="#a" x="-238.34" y="-50.51" transform="rotate(249.23)"/>
  <use xlink:href="#b" x="152.88" y="193.46" transform="rotate(27.69)"/>
  <use xlink:href="#b" x="-251.68" y="-33.37" transform="rotate(249.23)"/>
  <use xlink:href="#h" x="-57.02" y="244" transform="rotate(332.31)"/>
  <use xlink:href="#e" x="-154.74" y="195.8" transform="rotate(304.62)"/>
  <use xlink:href="#f" x="199.96" y="-160.16" transform="rotate(110.77)"/>
  <use xlink:href="#i" x="-36.34" y="258.02" transform="rotate(332.31)"/>
  <use xlink:href="#d" x="-36.43" y="-258.12" transform="rotate(166.15)"/>
  <use xlink:href="#e" x="260.27" y="53.29" transform="rotate(55.38)"/>
  <use xlink:href="#b" x="212.45" y="161.1" transform="rotate(27.69)"/>
  <use xlink:href="#a" x="120.75" y="245.57"/>
  <use xlink:href="#h" x="-275.28" y="33.23" transform="rotate(249.23)"/>
  <use xlink:href="#b" x="-224.22" y="165.5" transform="rotate(276.92)"/>
  <use xlink:href="#c" x="246.29" y="147.37" transform="rotate(27.69)"/>
  <use xlink:href="#a" x="-277.45" y="-77.42" transform="rotate(221.54)"/>
  <use xlink:href="#a" x="-109.67" y="-272.33" transform="rotate(166.15)"/>
  <use xlink:href="#k" x="34.85" y="-298.26" transform="rotate(138.46)"/>
  <use xlink:href="#b" x="25.98" y="-300.24" transform="rotate(138.46)"/>
  <use xlink:href="#l" x="-220.22" y="215.72" transform="rotate(276.92)"/>
  <use xlink:href="#h" x="157.83" y="-272.85" transform="rotate(110.77)"/>
  <use xlink:href="#f" x="209.45" y="243.51"/>
  <use xlink:href="#c" x="79.68" y="315.55" transform="rotate(332.31)"/>
  <use xlink:href="#a" x="226.71" y="245.16"/>
  <use xlink:href="#b" x="264.17" y="-200.45" transform="rotate(83.08)"/>
  <use xlink:href="#c" x="-346.14" y="-21.11" transform="rotate(221.54)"/>
  <use xlink:href="#l" x="-27.03" y="-351.61" transform="rotate(138.46)"/>
  <use xlink:href="#l" x="164.59" y="-181.85" transform="rotate(138.46)"/>
  <use xlink:href="#e" x="-238.93" y="-88.38" transform="rotate(249.23)"/>
  <use xlink:href="#e" x="-329.71" y="150.98" transform="rotate(249.23)"/>
  <use xlink:href="#e" x="-90.35" y="241.76" transform="rotate(249.23)"/>
  <use xlink:href="#e" x="0.43" y="2.4" transform="rotate(249.23)"/>
  <use xlink:href="#e" x="-90.35" y="241.76" transform="rotate(249.23)"/>
  <use xlink:href="#l" x="215.53" y="136.34" transform="rotate(55.38)"/>
  <use xlink:href="#l" x="4.84" y="-9.08" transform="rotate(55.38)"/>
  <use xlink:href="#k" x="214.82" y="127.49" transform="rotate(55.38)"/>
  <use xlink:href="#e" x="141.81" y="205.96" transform="rotate(27.69)"/>
  <use xlink:href="#i" x="229.3" y="115.78" transform="rotate(55.38)"/>
  <use xlink:href="#i" x="18.61" y="-29.64" transform="rotate(55.38)"/>
  <use xlink:href="#j" x="229.58" y="107.82" transform="rotate(55.38)"/>
  <use xlink:href="#j" x="18.89" y="-37.61" transform="rotate(55.38)"/>
  <use xlink:href="#c" x="215.66" y="-135.51" transform="rotate(110.77)"/>
  <use xlink:href="#c" x="-23.71" y="-44.73" transform="rotate(110.77)"/>
  <use xlink:href="#j" x="175.39" y="193.22" transform="rotate(27.69)"/>
  <use xlink:href="#j" x="56.42" y="-33.46" transform="rotate(27.69)"/>
  <use xlink:href="#b" x="110.91" y="-233.84" transform="rotate(138.46)"/>
  <use xlink:href="#b" x="-58.85" y="-42.22" transform="rotate(138.46)"/>
  <use xlink:href="#h" x="206.44" y="-165.43" transform="rotate(110.77)"/>
  <use xlink:href="#h" x="-32.92" y="-74.65" transform="rotate(110.77)"/>
  <use xlink:href="#l" x="-269.51" y="-7.22" transform="rotate(249.23)"/>
  <use xlink:href="#l" x="-30.15" y="83.56" transform="rotate(249.23)"/>
  <use xlink:href="#d" x="-239.17" y="-123.01" transform="rotate(221.54)"/>
  <use xlink:href="#d" x="-69.41" y="68.61" transform="rotate(221.54)"/>
  <use xlink:href="#j" x="-82.71" y="71.97" transform="rotate(221.54)"/>
  <use xlink:href="#j" x="-252.46" y="-119.64" transform="rotate(221.54)"/>
  <use xlink:href="#k" x="193.43" y="-192.53" transform="rotate(110.77)"/>
  <use xlink:href="#l" x="-6.77" y="282.1" transform="rotate(332.31)"/>
  <use xlink:href="#l" x="112.19" y="55.42" transform="rotate(332.31)"/>
  <use xlink:href="#e" x="187.38" y="-215.95" transform="rotate(110.77)"/>
  <use xlink:href="#e" x="-51.99" y="-125.18" transform="rotate(110.77)"/>
  <use xlink:href="#d" x="243" y="154.92" transform="rotate(27.69)"/>
  <use xlink:href="#d" x="124.03" y="-71.76" transform="rotate(27.69)"/>
  <use xlink:href="#i" x="-289.71" y="52.25" transform="rotate(249.23)"/>
  <use xlink:href="#i" x="-50.35" y="143.02" transform="rotate(249.23)"/>
  <use xlink:href="#l" x="-95.95" y="-281.1" transform="rotate(166.15)"/>
  <use xlink:href="#c" x="167.92" y="252.85"/>
  <use xlink:href="#c" x="167.92" y="-3.15"/>
  <use xlink:href="#e" x="-300.7" y="-71.68" transform="rotate(221.54)"/>
  <use xlink:href="#e" x="-130.94" y="119.94" transform="rotate(221.54)"/>
  <use xlink:href="#f" x="274.01" y="-154.11" transform="rotate(83.08)"/>
  <use xlink:href="#f" x="19.88" y="-184.97" transform="rotate(83.08)"/>
  <use xlink:href="#l" x="-311.49" y="-59.87" transform="rotate(221.54)"/>
  <use xlink:href="#l" x="-141.73" y="131.75" transform="rotate(221.54)"/>
  <use xlink:href="#h" x="14.84" y="-322.3" transform="rotate(138.46)"/>
  <use xlink:href="#h" x="-154.92" y="-130.68" transform="rotate(138.46)"/>
  <use xlink:href="#k" x="8.14" y="-329.07" transform="rotate(138.46)"/>
  <use xlink:href="#k" x="-161.62" y="-137.45" transform="rotate(138.46)"/>
  <use xlink:href="#h" x="220.97" y="250.7"/>
  <use xlink:href="#h" x="220.97" y="-5.3"/>
  <use xlink:href="#l" x="-317.46" y="125.23" transform="rotate(249.23)"/>
  <use xlink:href="#l" x="-78.09" y="216.01" transform="rotate(249.23)"/>
  <use xlink:href="#k" x="-13.81" y="-340.6" transform="rotate(138.46)"/>
  <use xlink:href="#c" x="279.43" y="-208.92" transform="rotate(83.08)"/>
  <use xlink:href="#c" x="25.3" y="-239.78" transform="rotate(83.08)"/>
  <use xlink:href="#g" x="-303.85" y="-185.51" transform="rotate(193.85)"/>
  <use xlink:href="#g" x="-55.28" y="-246.78" transform="rotate(193.85)"/>
  <use xlink:href="#g" x="-242.58" y="63.05" transform="rotate(193.85)"/>
</g>
</svg>
