<svg xmlns="http://www.w3.org/2000/svg" width="128" height="128" viewBox="0 0 128 128">
  <rect id="mapnik_workaround" width="128" height="128" fill="none"/>
  <path fill="#ffffff" d="
M0,9 l2.5,-2 c.95,-.6 1.05,-.6 2,0 l2.5,2z
M9,25 l2.5,-2 c.95,-.6 1.05,-.6 2,0 l2.5,2z
M0,41 l2.5,-2 c.95,-.6 1.05,-.6 2,0 l2.5,2z
M9,57 l2.5,-2 c.95,-.6 1.05,-.6 2,0 l2.5,2z
M0,73 l2.5,-2 c.95,-.6 1.05,-.6 2,0 l2.5,2z
M9,89 l2.5,-2 c.95,-.6 1.05,-.6 2,0 l2.5,2z
M0,105 l2.5,-2 c.95,-.6 1.05,-.6 2,0 l2.5,2z
M9,121 l2.5,-2 c.95,-.6 1.05,-.6 2,0 l2.5,2z
M18,9 l2.5,-2 c.95,-.6 1.05,-.6 2,0 l2.5,2z
M28,25 l2.5,-2 c.95,-.6 1.05,-.6 2,0 l2.5,2z
M18,41 l2.5,-2 c.95,-.6 1.05,-.6 2,0 l2.5,2z
M28,57 l2.5,-2 c.95,-.6 1.05,-.6 2,0 l2.5,2z
M18,73 l2.5,-2 c.95,-.6 1.05,-.6 2,0 l2.5,2z
M28,89 l2.5,-2 c.95,-.6 1.05,-.6 2,0 l2.5,2z
M18,105 l2.5,-2 c.95,-.6 1.05,-.6 2,0 l2.5,2z
M28,121 l2.5,-2 c.95,-.6 1.05,-.6 2,0 l2.5,2z
M37,9 l2.5,-2 c.95,-.6 1.05,-.6 2,0 l2.5,2z
M46,25 l2.5,-2 c.95,-.6 1.05,-.6 2,0 l2.5,2z
M37,41 l2.5,-2 c.95,-.6 1.05,-.6 2,0 l2.5,2z
M46,57 l2.5,-2 c.95,-.6 1.05,-.6 2,0 l2.5,2z
M37,73 l2.5,-2 c.95,-.6 1.05,-.6 2,0 l2.5,2z
M46,89 l2.5,-2 c.95,-.6 1.05,-.6 2,0 l2.5,2z
M37,105 l2.5,-2 c.95,-.6 1.05,-.6 2,0 l2.5,2z
M46,121 l2.5,-2 c.95,-.6 1.05,-.6 2,0 l2.5,2z
M55,9 l2.5,-2 c.95,-.6 1.05,-.6 2,0 l2.5,2z
M64,25 l2.5,-2 c.95,-.6 1.05,-.6 2,0 l2.5,2z
M55,41 l2.5,-2 c.95,-.6 1.05,-.6 2,0 l2.5,2z
M64,57 l2.5,-2 c.95,-.6 1.05,-.6 2,0 l2.5,2z
M55,73 l2.5,-2 c.95,-.6 1.05,-.6 2,0 l2.5,2z
M64,89 l2.5,-2 c.95,-.6 1.05,-.6 2,0 l2.5,2z
M55,105 l2.5,-2 c.95,-.6 1.05,-.6 2,0 l2.5,2z
M64,121 l2.5,-2 c.95,-.6 1.05,-.6 2,0 l2.5,2z
M73,9 l2.5,-2 c.95,-.6 1.05,-.6 2,0 l2.5,2z
M82,25 l2.5,-2 c.95,-.6 1.05,-.6 2,0 l2.5,2z
M73,41 l2.5,-2 c.95,-.6 1.05,-.6 2,0 l2.5,2z
M82,57 l2.5,-2 c.95,-.6 1.05,-.6 2,0 l2.5,2z
M73,73 l2.5,-2 c.95,-.6 1.05,-.6 2,0 l2.5,2z
M82,89 l2.5,-2 c.95,-.6 1.05,-.6 2,0 l2.5,2z
M73,105 l2.5,-2 c.95,-.6 1.05,-.6 2,0 l2.5,2z
M82,121 l2.5,-2 c.95,-.6 1.05,-.6 2,0 l2.5,2z
M92,9 l2.5,-2 c.95,-.6 1.05,-.6 2,0 l2.5,2z
M101,25 l2.5,-2 c.95,-.6 1.05,-.6 2,0 l2.5,2z
M92,41 l2.5,-2 c.95,-.6 1.05,-.6 2,0 l2.5,2z
M101,57 l2.5,-2 c.95,-.6 1.05,-.6 2,0 l2.5,2z
M92,73 l2.5,-2 c.95,-.6 1.05,-.6 2,0 l2.5,2z
M101,89 l2.5,-2 c.95,-.6 1.05,-.6 2,0 l2.5,2z
M92,105 l2.5,-2 c.95,-.6 1.05,-.6 2,0 l2.5,2z
M101,121 l2.5,-2 c.95,-.6 1.05,-.6 2,0 l2.5,2z
M110,9 l2.5,-2 c.95,-.6 1.05,-.6 2,0 l2.5,2z
M119,25 l2.5,-2 c.95,-.6 1.05,-.6 2,0 l2.5,2z
M110,41 l2.5,-2 c.95,-.6 1.05,-.6 2,0 l2.5,2z
M119,57 l2.5,-2 c.95,-.6 1.05,-.6 2,0 l2.5,2z
M110,73 l2.5,-2 c.95,-.6 1.05,-.6 2,0 l2.5,2z
M119,89 l2.5,-2 c.95,-.6 1.05,-.6 2,0 l2.5,2z
M110,105 l2.5,-2 c.95,-.6 1.05,-.6 2,0 l2.5,2z
M119,121 l2.5,-2 c.95,-.6 1.05,-.6 2,0 l2.5,2z"/>
</svg>
