<svg xmlns="http://www.w3.org/2000/svg" width="256" height="256" viewBox="0 0 256 256">
  <path stroke-linecap="round" stroke-width="1.6" stroke="#ffffff" d="
M1.75,2.5 h0
M7.11,1.6 h0
M12.62,3.23 h0
M18.79,3.6 h0
M22.53,2.19 h0
M27.15,3.39 h0
M33.99,1.06 h0
M36.56,0.66 h0
M44.95,0.94 h0
M46.7,4.46 h0
M52,3.46 h0
M57.08,1.06 h0
M64.01,1.13 h0
M68.02,1.95 h0
M74.14,1.26 h0
M77.45,1.81 h0
M81.03,3.28 h0
M87.6,2.54 h0
M91.54,2.59 h0
M97.86,3.68 h0
M103.91,2.3 h0
M109.38,3.13 h0
M113.51,3.28 h0
M120.01,1.61 h0
M123.31,3.36 h0
M128.97,3.35 h0
M134.23,1.48 h0
M138.51,1.87 h0
M144.31,2.97 h0
M146.71,1.3 h0
M153.05,3.39 h0
M157.33,2.7 h0
M162.41,3.53 h0
M168.8,3.3 h0
M174.12,2.43 h0
M179.16,3.32 h0
M183.02,1.36 h0
M189.2,1.42 h0
M194.79,4.76 h0
M196.72,1.75 h0
M202.69,3.48 h0
M209,3.49 h0
M213.05,2 h0
M217.4,1.18 h0
M223.27,4.13 h0
M228.15,2.48 h0
M233.28,0.96 h0
M239.69,2.16 h0
M243.6,0.97 h0
M249.2,0.98 h0
M254.41,2.64 h0
M4.06,7.8 h0
M7.39,7.72 h0
M10.95,7.39 h0
M18.07,9.46 h0
M21.5,7.79 h0
M28.98,8.23 h0
M33,6.17 h0
M38.35,9.05 h0
M43.34,7.46 h0
M48.36,8.85 h0
M51.61,8.01 h0
M56.68,6.33 h0
M61.54,7.13 h0
M67.4,5.87 h0
M71.94,6.02 h0
M79.34,7.64 h0
M83.17,6.26 h0
M87.34,7.57 h0
M91.96,7.53 h0
M98.36,7.1 h0
M102.32,8.39 h0
M109.02,8.62 h0
M113.56,8.25 h0
M117.71,8.58 h0
M124.22,9.2 h0
M127.38,8.6 h0
M134.41,7.38 h0
M137.52,8.27 h0
M141.93,8.11 h0
M149.5,8.97 h0
M151.9,6.92 h0
M159.93,6.32 h0
M162.93,9.57 h0
M169.61,8.19 h0
M173.08,6.07 h0
M179.47,8.7 h0
M181.86,6.79 h0
M188.74,8.13 h0
M191.45,6.39 h0
M199.64,9.14 h0
M202.09,8.51 h0
M207.35,7.06 h0
M213.67,8.6 h0
M218.39,7.42 h0
M224.32,8.62 h0
M228.36,6.58 h0
M234.66,6.67 h0
M239.71,7.46 h0
M242.61,8.02 h0
M246.77,7.25 h0
M254.97,9 h0
M0.43,13.91 h0
M5.64,14.35 h0
M12.32,13.92 h0
M18.22,13.44 h0
M21.78,13.08 h0
M26.83,10.66 h0
M34.49,13.15 h0
M36.07,10.67 h0
M43.78,13.72 h0
M46.18,11.4 h0
M52.78,14.23 h0
M58.01,11.96 h0
M64.12,12.99 h0
M68.23,10.56 h0
M72.11,13.51 h0
M77.52,12.4 h0
M85.12,14.83 h0
M86.15,10.86 h0
M93.24,11.49 h0
M97.33,10.74 h0
M104.09,13.1 h0
M109.8,11.07 h0
M112.03,14.69 h0
M118.21,12.05 h0
M122.04,12.21 h0
M127.78,14.45 h0
M131.94,11.29 h0
M138.87,11.94 h0
M143.35,14.09 h0
M149.54,12.65 h0
M152.66,13.72 h0
M158.08,12.5 h0
M162.05,14.46 h0
M167.07,11.87 h0
M172.02,12.39 h0
M175.9,12.25 h0
M182.05,14.35 h0
M187.63,11.2 h0
M191.94,14.2 h0
M199.01,11.74 h0
M204.25,14.42 h0
M207.26,11.97 h0
M212.92,12.34 h0
M217.63,13.37 h0
M224.32,11.48 h0
M228.15,12.15 h0
M234.52,12.71 h0
M239.69,11.62 h0
M242.92,12.95 h0
M249.76,10.51 h0
M252.83,11.63 h0
M1.48,17.38 h0
M7.62,17.87 h0
M10.33,19.53 h0
M16.28,18.07 h0
M22.61,17.48 h0
M26.5,15.74 h0
M31.93,16.43 h0
M36.89,18.45 h0
M41.47,18.67 h0
M46.31,16.53 h0
M50.9,19.05 h0
M58.43,16.17 h0
M62.73,18.67 h0
M67.72,18.25 h0
M72.2,17.93 h0
M76.74,18.43 h0
M81.02,16.26 h0
M87.3,18.93 h0
M92.63,16.22 h0
M96.43,17.44 h0
M101.58,18.3 h0
M106.48,16.05 h0
M112.87,18.83 h0
M119.49,17.29 h0
M121.69,19.54 h0
M128.97,19.04 h0
M134.3,18.4 h0
M138.22,17.19 h0
M142.39,17.88 h0
M149.53,16.28 h0
M151.74,19.48 h0
M157.52,17.78 h0
M162.74,18.15 h0
M169.11,17.56 h0
M174.09,18.5 h0
M178.49,16.05 h0
M183.8,19.1 h0
M187.91,15.41 h0
M193.77,18.76 h0
M197.76,16.43 h0
M201.86,18.49 h0
M209.34,19.29 h0
M211.1,16.76 h0
M216.59,17.96 h0
M224.32,15.73 h0
M229.62,17.65 h0
M232.15,18.48 h0
M236.81,19.37 h0
M241.43,17.17 h0
M249.22,16.29 h0
M253.6,18.97 h0
M3.28,22.41 h0
M7.56,24.2 h0
M13.34,20.82 h0
M16.13,23.04 h0
M21.46,22.88 h0
M26.62,22.55 h0
M33.97,20.74 h0
M36.55,24.48 h0
M43.36,21.77 h0
M48.12,24.33 h0
M54.28,20.68 h0
M56.9,21.11 h0
M63.54,22.62 h0
M66.86,21.78 h0
M72.65,21.73 h0
M78.62,21.87 h0
M83.29,22.97 h0
M88.37,22.65 h0
M94.56,23.37 h0
M98.01,20.77 h0
M102.51,21.87 h0
M109.07,24.23 h0
M112.12,21.9 h0
M117.62,22.27 h0
M124.34,21.56 h0
M126.64,20.61 h0
M134.33,22.06 h0
M137.69,23.98 h0
M142.32,21.19 h0
M147.45,21.91 h0
M154.81,24.34 h0
M159.81,22.87 h0
M162.87,22.09 h0
M168.97,23.5 h0
M174.05,22.31 h0
M179.44,23.86 h0
M183.51,22.75 h0
M189.05,21.11 h0
M191.65,24.06 h0
M200.09,23.42 h0
M204.1,23.52 h0
M209.04,23.67 h0
M214.68,23.78 h0
M219.64,21.16 h0
M223.74,20.64 h0
M227.7,21.46 h0
M232.43,24.09 h0
M237.26,24.02 h0
M242.01,20.56 h0
M248.38,22.24 h0
M253.26,21.98 h0
M2.83,27.42 h0
M6.62,28.37 h0
M13.03,27.4 h0
M18.43,27.76 h0
M23.64,28.84 h0
M28.31,27.23 h0
M32.15,27.54 h0
M36.02,28.78 h0
M41.69,27.5 h0
M48.91,27.53 h0
M53.01,27.69 h0
M56.4,29.78 h0
M60.47,27.43 h0
M65.94,26.19 h0
M71.74,27.6 h0
M78.85,27.94 h0
M82.1,26.53 h0
M86.54,28.29 h0
M90.97,27.54 h0
M95.73,29.07 h0
M101.03,25.84 h0
M107.51,27.09 h0
M111.55,29.51 h0
M118.88,27.04 h0
M122.24,28.46 h0
M126.42,28.11 h0
M131.8,28.73 h0
M138.59,28.58 h0
M143.31,26.63 h0
M148.65,25.98 h0
M151.55,28.13 h0
M157.88,27.36 h0
M164.28,28.78 h0
M168.23,26.32 h0
M173.32,27.19 h0
M177.95,27.29 h0
M184.36,27.27 h0
M188.82,28.35 h0
M191.98,27.75 h0
M196.41,26.1 h0
M204.26,28.93 h0
M207.11,28.37 h0
M214.34,26.48 h0
M218.57,27.04 h0
M223.09,26.11 h0
M228.18,29.12 h0
M231.78,27.93 h0
M238.85,28.63 h0
M244.32,25.09 h0
M247.08,29.32 h0
M251.76,27.8 h0
M4.22,33.47 h0
M7.53,31.98 h0
M11.26,33.5 h0
M15.52,32.92 h0
M24.06,33.36 h0
M26.57,32.47 h0
M31.78,32.82 h0
M39.18,31.35 h0
M43.25,31.34 h0
M46.19,34.83 h0
M52.59,32.03 h0
M58.92,33.48 h0
M63.07,30.71 h0
M68.5,32.72 h0
M74.23,33.03 h0
M77.51,31.77 h0
M83.24,31.49 h0
M87.27,31.57 h0
M92.91,33.31 h0
M98.22,33.77 h0
M101.89,30.58 h0
M107.7,31.45 h0
M113.82,33.15 h0
M117.03,33.23 h0
M122.7,33.9 h0
M127.67,31.9 h0
M132.02,33.12 h0
M138.14,32.02 h0
M142.15,32.74 h0
M148.78,32.51 h0
M153.04,34.09 h0
M159.15,32.92 h0
M162.32,34.38 h0
M168.56,33.39 h0
M172.15,32.78 h0
M177.25,33.55 h0
M181.18,31.54 h0
M188.11,33.02 h0
M193.91,32.86 h0
M198.63,32.63 h0
M201.76,31.01 h0
M208.08,33.61 h0
M211.42,32.11 h0
M216.48,31.76 h0
M222.44,32.62 h0
M229.07,32.16 h0
M233.14,31.87 h0
M238.93,31.97 h0
M243.12,30.57 h0
M248.01,34.34 h0
M252.97,31.68 h0
M1.41,36.29 h0
M6.09,39.06 h0
M12.92,36.75 h0
M17.93,36.07 h0
M21.67,37.03 h0
M27.44,37.4 h0
M34.31,37.11 h0
M37.89,38.66 h0
M40.89,35.69 h0
M47.35,38.91 h0
M51.6,38.85 h0
M59.22,36.45 h0
M62.86,37.57 h0
M67.86,36.69 h0
M71.61,37.93 h0
M76.23,38.49 h0
M84.08,38.94 h0
M86.86,37.09 h0
M92.8,38.27 h0
M97.27,37.82 h0
M101.71,36.49 h0
M106.38,37.89 h0
M110.99,36.25 h0
M116.47,39.33 h0
M124.14,36.65 h0
M129.84,36.23 h0
M133.07,38.79 h0
M137.46,39.28 h0
M143.79,35.69 h0
M147.61,38.61 h0
M151.2,38.62 h0
M158.13,37.69 h0
M164.48,37.92 h0
M167.75,38.4 h0
M173.37,39.49 h0
M179.55,36.94 h0
M184.56,37.61 h0
M189.77,36.52 h0
M193.57,37.38 h0
M199.02,37.07 h0
M203.5,37.88 h0
M209.02,39.03 h0
M215.11,36.99 h0
M219.98,36.17 h0
M225.26,36.71 h0
M230.26,37.55 h0
M235.15,37.62 h0
M240.27,36.46 h0
M243.29,38.63 h0
M248.61,39.34 h0
M254.19,37.86 h0
M2.41,42.78 h0
M7.77,42.19 h0
M13.09,42.04 h0
M17.02,44.55 h0
M22.5,41.62 h0
M26.13,42.55 h0
M31.35,42.32 h0
M39.39,43.54 h0
M42.69,40.76 h0
M47.83,44.33 h0
M54.6,44.16 h0
M59.28,41.42 h0
M61.11,44.07 h0
M68.67,42.16 h0
M74.09,41.4 h0
M78.82,42.25 h0
M83.31,42.19 h0
M89.57,41.34 h0
M94.57,42.86 h0
M100,43.59 h0
M104.15,41.58 h0
M109.31,40.96 h0
M112.63,43.57 h0
M118.06,42.18 h0
M121.47,41.59 h0
M127.24,42.55 h0
M134.77,42.14 h0
M139.02,44.36 h0
M143.37,43.28 h0
M148.33,42.32 h0
M154.88,40.56 h0
M158.41,43.46 h0
M163.17,44.07 h0
M168.52,42.47 h0
M174.42,44.25 h0
M178.03,43.04 h0
M183.14,42.16 h0
M189.94,41.13 h0
M192.99,44.28 h0
M198.64,42.79 h0
M203.31,43.89 h0
M208.71,42.6 h0
M215.15,42.62 h0
M219.37,41.13 h0
M223.56,42.86 h0
M227.29,42.12 h0
M234.21,43.71 h0
M238.26,41.33 h0
M241.61,42.68 h0
M248.37,43.78 h0
M253.27,43.95 h0
M1.11,47.58 h0
M5.5,48.96 h0
M11.09,46.76 h0
M19.28,48.09 h0
M23.6,48.07 h0
M29.12,46.99 h0
M34.2,49.27 h0
M36.02,46.56 h0
M43.31,45.74 h0
M46.55,48.78 h0
M51.16,48.68 h0
M57.39,48.88 h0
M63.29,48.56 h0
M67.03,45.88 h0
M71.47,49.67 h0
M75.77,46.66 h0
M84.12,47.95 h0
M88.55,48.13 h0
M92.18,48.1 h0
M97.01,46.48 h0
M103.03,46.01 h0
M108.27,48.39 h0
M113.52,49.05 h0
M118.3,48.7 h0
M123.56,45.82 h0
M129.13,48.15 h0
M132.27,47.78 h0
M136.79,49.13 h0
M143.36,48.76 h0
M148.51,47.03 h0
M153.27,45.97 h0
M157.17,48.03 h0
M164.36,49.94 h0
M166.39,47.06 h0
M171.38,46.64 h0
M179.55,48.64 h0
M182.71,46.76 h0
M187.39,47.02 h0
M192,46.9 h0 m6.6,0 h0
M203.38,48.46 h0
M208.66,47.8 h0
M212.21,45.75 h0
M218.04,48.77 h0
M223.05,48.1 h0
M228.85,49.42 h0
M233.15,48.57 h0
M238.77,46.13 h0
M242.64,47.51 h0
M248.62,49.31 h0
M252.94,49.05 h0
M3.95,52.65 h0
M8.61,51.62 h0
M13.09,51.68 h0
M16.25,52.83 h0
M21.47,53.38 h0
M28.62,51.9 h0
M32.88,52.7 h0
M36.6,52.74 h0
M41.74,51.68 h0
M47.45,54.24 h0
M53.25,52.96 h0
M57.24,53.56 h0
M61.78,53.62 h0
M67.51,54.02 h0
M73.24,53.22 h0
M78.07,53.17 h0
M80.67,50.24 h0
M86.5,52.76 h0
M93.05,52.67 h0
M99.15,50.7 h0
M101.05,53.16 h0
M107.82,53.29 h0
M111.32,52.64 h0
M118.55,51.93 h0
M122.38,52.23 h0
M126.51,51.55 h0
M131.94,51.43 h0
M139.7,52.94 h0
M143.34,52.62 h0
M147.13,53.51 h0
M152.39,53.87 h0
M157.22,52.47 h0
M161.14,53.34 h0
M168.25,53.7 h0
M171.73,51.5 h0
M177.34,52.73 h0
M182.47,52.67 h0
M188.67,51.46 h0
M194.47,52.14 h0
M197.1,54.54 h0
M204.24,54.49 h0
M209.19,53 h0
M214.02,51.09 h0
M218.5,53.37 h0
M223.23,51.59 h0
M229.13,54.45 h0
M233.36,52.85 h0
M237.14,51.95 h0
M243.96,51.46 h0
M248.65,53.16 h0
M255.36,53.21 h0
M2.04,58.28 h0
M8.58,56.12 h0
M13.73,56.72 h0
M18.1,58.08 h0
M22.33,57.71 h0
M25.86,59.59 h0
M31.17,56.59 h0
M35.82,57.48 h0
M40.93,58.81 h0
M46.44,57.84 h0
M52.79,56.55 h0
M58.42,59.07 h0
M61.04,57.06 h0
M67.51,58.78 h0
M74.15,56.83 h0
M78.98,58.38 h0
M82.37,55.93 h0
M87.43,59.29 h0
M92.27,57.32 h0
M96.39,57.6 h0
M103.27,57.96 h0
M109.65,59.22 h0
M113.34,58.86 h0
M119.54,57.34 h0
M121.61,59.76 h0
M127.25,58.44 h0
M132.19,56.62 h0
M136.38,56.36 h0
M141.71,56.93 h0
M146.17,59.66 h0
M152.98,58.67 h0
M158.91,57.27 h0
M163.72,58.81 h0
M168.94,56.54 h0
M173.23,59.07 h0
M176.57,56.33 h0
M181.53,58.77 h0
M188.68,56.24 h0
M192.64,56.59 h0
M196.05,59.39 h0
M202.85,58.48 h0
M209.94,58.33 h0
M211.76,55.82 h0
M217.28,56.74 h0
M222.77,58.41 h0
M227.64,58.49 h0
M233.29,56.75 h0
M238.91,59.49 h0
M243.14,57.01 h0
M248.91,57.24 h0
M253.66,56.73 h0
M4.49,62.73 h0
M8.27,61.02 h0
M13.83,62.02 h0
M18.59,61.87 h0
M22.09,63.46 h0
M28.69,62.02 h0
M33.98,64.58 h0
M37.35,61.26 h0
M41.12,62.4 h0
M47.55,61.59 h0
M51.5,64.1 h0
M58.5,63.31 h0
M62.65,62.29 h0
M67.38,63.36 h0
M73.09,63.89 h0
M79.3,61.32 h0
M83.63,63.05 h0
M86.96,64.49 h0
M93.72,61.38 h0
M98.08,63.37 h0
M102.71,62.38 h0
M107.01,61.81 h0
M113.96,63.35 h0
M119.46,62.98 h0
M124.48,64.22 h0
M129.53,61.64 h0
M132.87,62.67 h0
M137.51,62.56 h0
M141.55,62.9 h0
M148.7,61.61 h0
M151.43,64.24 h0
M157.22,60.88 h0
M164.47,62.79 h0
M167.35,64.4 h0
M171.77,63.41 h0
M178.33,61.36 h0
M183.15,61.58 h0
M188.79,63.35 h0
M192.23,64.51 h0
M198.16,61.76 h0
M204.38,63.65 h0
M208.06,61.82 h0
M213.38,60.9 h0
M216.95,63.81 h0
M221.89,62.35 h0
M230.06,61.31 h0
M234.53,62.77 h0
M236.57,65.15 h0
M242.99,61.18 h0
M246.8,62.52 h0
M254.52,61.86 h0
M3.41,67.29 h0
M6.59,66.12 h0
M13.31,69.66 h0
M16.48,67.36 h0
M21.16,68.42 h0
M28.84,68.34 h0
M33.56,68.66 h0
M39.14,67.2 h0
M41.65,66.51 h0
M47.53,65.93 h0
M53.97,68.21 h0
M57.5,69.09 h0
M61.29,67.2 h0
M67.85,66.42 h0
M73.83,67.94 h0
M77.71,68.37 h0
M82.17,66.99 h0
M88.75,69.04 h0
M93.53,66.38 h0
M98.13,67.5 h0
M102.31,66.79 h0
M107.24,67.75 h0
M111.7,68.94 h0
M118.42,68.2 h0
M124.91,68.42 h0
M127.82,69.86 h0
M131.94,68.47 h0
M139.06,68.22 h0
M143.14,68.91 h0
M148.15,68.81 h0
M154.25,68.19 h0
M157.84,69.14 h0
M161.07,65.98 h0
M167.85,68.25 h0
M173.76,66.4 h0
M179.53,67.78 h0
M183.91,66.18 h0
M187.82,67.84 h0
M192.09,69.64 h0
M196.72,67.29 h0
M202.03,67.95 h0
M207.19,66.18 h0
M213.54,68.25 h0
M219.86,68.13 h0
M223.83,67.54 h0
M227.36,66.64 h0
M233.29,68.94 h0
M240.12,66.34 h0
M244.44,68.86 h0
M248.43,66.49 h0
M253.37,66.95 h0
M0.92,74.25 h0
M6.01,73.25 h0
M11.39,73.96 h0
M16.68,71.7 h0
M24.23,70.74 h0
M26.79,74.05 h0
M34.67,74.41 h0
M37.79,71.53 h0
M44.68,71.32 h0
M47.98,74.23 h0
M53,73.97 h0
M58.46,73.54 h0
M63.88,73.24 h0
M67.58,73.89 h0
M70.76,71.56 h0
M76.18,72.28 h0
M83.63,71.46 h0
M87.29,72.86 h0
M92.24,73.53 h0
M98.63,72.78 h0
M104.17,71.7 h0
M108.9,73.86 h0
M114.26,72.14 h0
M117.23,74.02 h0
M122.03,71.09 h0
M126.41,74.06 h0
M133.64,71.22 h0
M136.95,73.11 h0
M141.61,74.21 h0
M148.88,74.01 h0
M151.89,74.46 h0
M156.77,71.77 h0
M164.33,73.81 h0
M167.23,73.56 h0
M173.36,73.69 h0
M177.23,71.11 h0
M183.82,74.32 h0
M186.28,71.92 h0
M193.55,72.79 h0
M198.01,74.79 h0
M205.07,71.87 h0
M209.35,72.78 h0
M212.02,72.14 h0
M217.08,71.36 h0
M222.92,73.03 h0
M228.97,72.5 h0
M233.13,72.2 h0
M238.08,73.83 h0
M242.5,73.32 h0
M247.18,74.1 h0
M252.51,73.12 h0
M3.11,77.09 h0
M6.32,76.37 h0
M10.79,78.93 h0
M18.28,78.4 h0
M22.72,76.31 h0
M27.36,79.28 h0
M32.57,76.54 h0
M38.29,75.93 h0
M42.39,77.75 h0
M45.52,79.48 h0
M53.79,78.84 h0
M58.16,78.4 h0
M62.33,76.64 h0
M66.71,79.38 h0
M72.71,77.57 h0
M78.24,78.19 h0
M82.54,76.29 h0
M88.07,78.72 h0
M93.98,76.6 h0
M98.76,77.08 h0
M103.01,75.77 h0
M106.32,76.34 h0
M114.21,79.73 h0
M116.47,77.12 h0
M122.2,78.71 h0
M126.61,78.18 h0
M133.88,79.16 h0
M139.05,77.75 h0
M144.92,76.58 h0
M148.72,78.84 h0
M154.62,76.09 h0
M157.28,79.37 h0
M163.79,77.05 h0
M167.04,79.15 h0
M175.39,76.3 h0
M179.36,76.66 h0
M182.74,79.78 h0
M189.92,78 h0
M192.13,76.11 h0
M198.69,79.18 h0
M202.08,75.85 h0
M207.94,78.35 h0
M211.74,77.14 h0
M217.32,76.25 h0
M222.99,76.98 h0
M227.95,79.32 h0
M232.92,76.38 h0
M236.68,78.81 h0
M241.72,76.04 h0
M249.82,78.99 h0
M254,79.4 h0
M3.59,83.23 h0
M7.04,81.41 h0
M14.21,80.5 h0
M16.42,84.65 h0
M20.8,82.38 h0
M25.53,82.47 h0
M33.98,82.14 h0
M38.26,83.8 h0
M43.43,84.27 h0
M47.94,81.16 h0
M51.48,83.37 h0
M57.86,82.05 h0
M61.65,84.72 h0
M68.19,84.1 h0
M74.18,82.68 h0
M78.06,82.13 h0
M83.2,81.17 h0
M87.01,82.92 h0
M92.75,81.5 h0
M98.27,81.35 h0
M103.73,82.97 h0
M107.07,82.49 h0
M113.27,83.8 h0
M118.37,83.39 h0
M123,84.2 h0
M128.38,82.06 h0
M133.14,82.57 h0
M139.47,83.69 h0
M144.5,83.09 h0
M145.9,81.06 h0
M151.78,81.89 h0
M158.74,81.52 h0
M162.38,83.31 h0
M167.74,83.33 h0
M172.66,81.22 h0
M176.69,82.99 h0
M182.03,83.54 h0
M187.15,81 h0
M194.12,82.96 h0
M199.15,83.97 h0
M202.91,83.48 h0
M208.97,83.77 h0
M213.69,83.12 h0
M218.37,82.46 h0
M223.57,80.93 h0
M227.66,84.05 h0
M231.57,84.43 h0
M239.16,81.13 h0
M242.39,81.07 h0
M247.91,82.24 h0
M252.53,82.72 h0
M3.53,87.33 h0
M6.66,88.8 h0
M12.28,87.01 h0
M18.18,88.51 h0
M23.13,89.49 h0
M27.72,87.43 h0
M31.47,87.35 h0
M36.67,86.31 h0
M41.71,87.99 h0
M48.05,87.34 h0
M53.39,86.91 h0
M57.92,89.44 h0
M64.46,87.39 h0
M67.74,86.55 h0
M74.4,86.24 h0
M78.72,88.5 h0
M84.22,86.34 h0
M88.87,89.22 h0
M91.86,86.49 h0
M96.85,86.65 h0
M100.91,86.36 h0
M107.26,88.02 h0
M113.63,89.47 h0
M117.37,87.43 h0
M121.59,88.84 h0
M128.53,87.79 h0
M131.6,88.74 h0
M139.45,88.14 h0
M144.89,87.67 h0
M149.08,88.46 h0
M152.75,86.56 h0
M158.31,87.7 h0
M162.48,86.96 h0
M168.68,88.24 h0
M173.15,89.11 h0
M178.49,88.51 h0
M184.72,87.06 h0
M189.22,88.22 h0
M193.27,86.36 h0
M199.2,88.02 h0
M203.69,88.76 h0
M206.61,86.59 h0
M215.02,86.57 h0
M216.43,89.11 h0
M223.32,86.48 h0
M229.04,88.71 h0
M235.3,88.17 h0
M238.28,88.41 h0
M242.65,86.75 h0
M247.13,87.69 h0
M252.37,86.46 h0
M3.69,92.06 h0
M9.05,93.55 h0
M13.97,91.77 h0
M18.94,92.47 h0
M24.51,93.86 h0
M28.89,91.44 h0
M33.94,91.48 h0
M37.66,92.37 h0
M44.16,93.82 h0
M48.43,93.75 h0
M51.98,91.24 h0
M58.19,93.66 h0
M62.36,93.64 h0
M68,91.82 h0
M73.27,93.3 h0
M79.02,92.99 h0
M82.08,93.34 h0
M87.65,92.86 h0
M92.5,93.22 h0
M98.59,93.63 h0
M101.38,92.63 h0
M109,93.11 h0
M113.19,92.24 h0
M119.63,91.73 h0
M122.42,93.35 h0
M127.99,93.78 h0
M133.46,93.02 h0
M136.67,92.78 h0
M141.55,93.97 h0
M147.82,93.24 h0
M153.57,92.61 h0
M157.66,92.87 h0
M164.17,91.42 h0
M168.74,93.88 h0
M172.17,94.4 h0
M177.65,92.99 h0
M182.24,93.51 h0
M186.3,92.11 h0
M192.67,92.17 h0
M196.93,92.25 h0
M204.3,91.7 h0
M207.66,94.5 h0
M211.48,91.63 h0
M217.4,92.19 h0
M221.82,91.88 h0
M229.47,92.35 h0
M233.59,93.44 h0
M239.86,93.85 h0
M245.24,91.66 h0
M250.31,92.09 h0
M253.81,92.57 h0
M1.86,96.71 h0
M5.8,98.4 h0
M14.1,98.5 h0
M17.91,99.19 h0
M22.01,98.62 h0
M26.29,98.17 h0
M32.53,96.1 h0
M37.66,97.97 h0
M41.21,97.16 h0
M45.85,98.95 h0
M51.21,96.89 h0
M56.18,98.49 h0 m6.3,0 h0
M66.82,96.2 h0
M72.68,96.53 h0
M75.86,99.41 h0
M80.81,99.05 h0
M89.7,99.46 h0
M91.77,96.41 h0
M97.04,97.64 h0
M103.82,96.71 h0
M108.3,99.77 h0
M110.92,96.83 h0
M117.44,96.86 h0
M123.04,96.62 h0
M129.05,97.29 h0
M133.21,97.08 h0
M137.62,98.66 h0
M143.49,97.53 h0
M146.92,96.52 h0
M154.52,98.4 h0
M156.66,100.14 h0
M163.17,96.69 h0
M169.38,99.51 h0
M173.96,98.1 h0
M178.71,97.78 h0
M183.18,99.55 h0
M188.92,96.96 h0
M194.37,98.07 h0
M198.05,96.87 h0
M201.66,99.43 h0
M208.39,97.18 h0
M212.1,99.17 h0
M217.14,96.4 h0
M224.46,98.51 h0
M229.06,96.27 h0
M231.69,97.8 h0
M236.81,97.17 h0
M241.76,97.73 h0
M247.5,98.19 h0
M254.24,97.54 h0
M3.52,101.79 h0
M7.57,104.45 h0
M12.73,102.14 h0
M16.54,104.18 h0
M23.95,103.69 h0
M28.39,101.76 h0
M33.05,102.26 h0
M37.38,102.64 h0
M43.23,102.59 h0
M46.59,103.02 h0
M52.12,101.59 h0
M58.97,103.13 h0
M61.59,102.35 h0
M68.55,101.77 h0
M73.99,101.79 h0
M78.43,103.81 h0
M83.77,101.15 h0
M87.11,102.66 h0
M92.83,104.19 h0
M97.05,102.67 h0
M101.11,101.01 h0
M105.82,103.29 h0
M111.65,101.81 h0
M117.73,101.72 h0
M121.83,101.51 h0
M127.21,101.84 h0
M132.9,101.93 h0
M136.68,103.1 h0
M144.69,102.28 h0
M148.8,104.46 h0
M152.51,104.06 h0
M159.02,103.21 h0
M163.51,104.48 h0
M166.54,101.21 h0
M173.62,102.9 h0
M177.47,103.46 h0
M183.16,104.12 h0
M187.47,102.45 h0
M192.63,103.3 h0
M197.47,103.95 h0
M203.09,103.13 h0
M208.66,104.38 h0
M212.02,104.06 h0
M219.31,101.18 h0
M222.07,101.82 h0
M229.54,104.16 h0
M233.99,104.05 h0
M237.54,102.79 h0
M243.64,101.51 h0
M248.05,101.96 h0
M253.3,104.39 h0
M3.15,109.5 h0
M5.58,107.23 h0
M11.92,106.56 h0
M18.82,107.44 h0
M21.94,109.74 h0
M25.87,107.95 h0
M30.74,109.47 h0
M35.6,106.48 h0
M43.14,109.74 h0
M46.9,106.47 h0
M53.02,107.11 h0
M58.79,108.96 h0
M63.21,106.92 h0
M67.68,108.38 h0
M73.94,109.54 h0
M77.94,107.77 h0
M81.92,107.16 h0
M87.04,107.94 h0
M93.2,108.78 h0
M97.97,107.25 h0
M102.43,107.93 h0
M109.2,106.72 h0
M113.14,108.02 h0
M117.9,106.05 h0
M124.7,109.23 h0
M127.71,107.49 h0
M132.37,107.76 h0
M137.15,109.55 h0
M142.76,106.38 h0
M148.81,108.61 h0
M153.04,108.11 h0
M156.41,109.47 h0
M161.45,107.19 h0
M167.14,106.77 h0
M171.45,107.65 h0
M176.83,107.75 h0
M182.61,109.43 h0
M187.73,107.64 h0
M191.62,106.38 h0
M197.73,108.51 h0
M202.99,106.76 h0
M207.28,108.07 h0
M214.71,107.06 h0
M217.96,108.68 h0
M224.88,106.26 h0
M229.58,108.34 h0
M232.61,108.31 h0
M239.72,106.09 h0
M243.54,108.36 h0
M249.56,105.87 h0
M252.09,109.06 h0
M1.22,112.65 h0
M8.49,111.8 h0
M13.68,111.94 h0
M16.67,112.59 h0
M22.7,113.57 h0
M27.01,112.93 h0
M35.02,111.06 h0
M36.54,113.81 h0
M43.42,113.08 h0
M47.46,111.85 h0
M52.83,112.17 h0
M57.14,113.85 h0
M61.63,111.83 h0
M67.17,113 h0
M71.2,111.24 h0
M77.57,113.54 h0
M80.99,114.2 h0
M88.42,114.02 h0
M93.09,113.56 h0
M98.02,114.83 h0
M104.25,110.55 h0
M106.3,112.34 h0
M114.26,111.72 h0
M117.26,111.29 h0
M121.19,111.08 h0
M126.15,113.98 h0
M133.11,114.46 h0
M139.38,113.64 h0
M143.41,112.52 h0
M146.71,114.15 h0 m4.97,0 h0
M159.68,113.98 h0
M162.28,111.27 h0
M168.58,111.72 h0
M173.33,112.1 h0
M178.51,114.61 h0
M183.9,113.13 h0
M187.38,111.88 h0
M192.44,113.77 h0
M198.61,114.15 h0
M202.87,111.17 h0
M208.07,113.9 h0
M214.88,111.57 h0
M220.19,112.82 h0
M223.15,110.36 h0
M226.88,112.49 h0
M233.39,113.01 h0
M238.67,111.86 h0
M244.2,113.16 h0
M248.46,113.2 h0
M251.93,112.57 h0
M3.6,116.99 h0
M8.87,116.26 h0
M12.14,118.3 h0
M16.9,117.01 h0
M22.74,119.14 h0
M26.72,117.57 h0
M32.23,116.42 h0
M38.15,118.65 h0
M41.32,119.33 h0
M47.72,116.64 h0
M51.39,117.14 h0
M58.85,116.66 h0
M64.06,116.48 h0
M69.5,119.51 h0
M73.67,117.91 h0
M76.86,118.47 h0
M83.68,115.65 h0
M86.34,116.36 h0
M90.96,118.43 h0
M96.29,119.83 h0
M103.23,116.18 h0
M106.55,117.15 h0
M112.31,118.83 h0
M116.65,117.62 h0
M121.44,117.01 h0
M129.3,117.09 h0
M131.28,119.19 h0
M136.68,117.06 h0
M141.92,116.44 h0
M146.61,118.2 h0
M151.59,117.17 h0
M158.19,117.54 h0
M162.5,119.63 h0
M168.34,116.17 h0
M171.87,118.96 h0
M178.52,118.44 h0
M183.15,116.72 h0
M187.87,116.84 h0
M194.06,117.58 h0
M199.42,117.75 h0
M201.95,119.54 h0
M209.27,117.18 h0
M212.51,117.36 h0
M218.45,116.33 h0
M223.24,117.44 h0
M228.46,118.08 h0
M233.93,117.79 h0
M238.93,117.68 h0
M242.58,119.52 h0
M249.99,116.76 h0
M251.77,119.44 h0
M3.07,121.33 h0
M7.43,123.09 h0
M11.95,122.31 h0
M16.41,123.02 h0
M24.2,122.11 h0
M28.32,124.54 h0
M31.13,121.94 h0
M36.12,124.02 h0
M42.66,123.6 h0
M48.68,121.51 h0
M51.75,124.37 h0
M55.99,122.47 h0
M61.83,123.06 h0
M67.64,123.79 h0
M72.72,123.94 h0
M76.63,124.33 h0
M83.95,121.96 h0
M88.7,123.58 h0
M91.55,121.92 h0
M99.56,123.53 h0
M102.86,120.87 h0
M107.63,121.39 h0
M111.69,124.04 h0
M119.12,124.65 h0
M121.82,122.51 h0
M126.59,122.09 h0
M131.78,124.29 h0
M139.38,124.69 h0
M142.67,122.24 h0
M148.12,123.41 h0
M152.95,123.88 h0
M156.37,122.54 h0
M160.62,124.83 h0
M168.18,122.63 h0
M173.43,122.11 h0
M177.83,124.14 h0
M183.78,123.59 h0
M189.13,124.54 h0
M193.41,123.15 h0
M198.72,123.39 h0
M203.08,122.34 h0
M208.71,123.77 h0
M211.81,121.18 h0
M218.91,123.36 h0
M223.13,122.77 h0
M228.34,124.49 h0
M232.88,122.14 h0
M237.09,122.41 h0
M241.63,123.6 h0
M246.75,122.23 h0
M252.31,123.08 h0
M1.66,128.03 h0
M7.65,128.34 h0
M11.44,127.66 h0
M16.81,128.73 h0
M20.97,126.29 h0
M25.28,129.36 h0
M31.47,129.54 h0
M39.09,128.12 h0
M43.92,126.75 h0
M49.11,127.31 h0
M54.45,129.64 h0
M58,126.76 h0
M62.31,128.24 h0
M66.71,128.39 h0
M73.41,129.2 h0
M76.42,129 h0
M82.72,126.78 h0
M87.58,128.23 h0
M92.12,126.66 h0
M98.44,128.52 h0
M103.94,128.53 h0
M107,126.47 h0
M113.97,127.35 h0
M117.59,129.64 h0
M122.71,127.75 h0
M128.46,127.78 h0
M131.9,127.88 h0
M136.84,128.6 h0
M144.54,127.09 h0
M146.47,129.43 h0
M152.76,129.8 h0
M159.34,129.51 h0
M163.99,125.89 h0
M166.63,126.88 h0
M172.73,126.79 h0
M176.25,126.41 h0
M183.04,128.44 h0
M189.33,129.54 h0
M192.51,127.5 h0
M199.53,128.15 h0
M204.71,128.8 h0
M208.64,128.32 h0
M212.42,127.77 h0
M218.52,127.99 h0
M223.55,127.74 h0
M230.65,125.91 h0
M231.11,129.51 h0
M236.7,126.98 h0
M242.83,129.62 h0
M248.7,127.58 h0
M254.92,126.25 h0
M1.04,131.06 h0
M7.16,134.26 h0
M11.77,131.96 h0
M16.25,133.95 h0
M22.54,134.52 h0
M26.76,133.24 h0
M33.75,130.95 h0
M36.54,132.2 h0
M41.29,134.23 h0
M46.9,134.37 h0
M50.71,132.23 h0
M59.12,132.07 h0
M64.06,132.48 h0
M68.98,133.49 h0
M73.34,132.76 h0
M78.39,132.79 h0
M84.13,131.95 h0
M89.33,134.07 h0
M93.49,131.23 h0
M98.73,134.09 h0
M101.12,132.04 h0
M107.76,132.33 h0
M111.67,131.63 h0
M119.26,134.25 h0
M124.55,131.66 h0
M127.86,133.45 h0
M131.74,132.9 h0
M138.98,132.26 h0
M142.17,134.19 h0
M147.49,134.38 h0
M153.91,134.04 h0
M159.61,134.97 h0
M162.77,133.81 h0
M168.38,133.57 h0
M171.95,132.03 h0
M178.79,132.47 h0
M181.75,131.68 h0
M186.15,134.67 h0
M193.89,133.78 h0
M198.56,133.18 h0
M202.94,133.48 h0
M208.29,131.58 h0
M212.04,133.87 h0
M217.14,131.76 h0
M223.35,133.03 h0
M229.28,133.42 h0
M232.43,132.29 h0
M238.68,133.11 h0
M242.07,134.7 h0
M247.55,133.17 h0
M254.63,132.49 h0
M1.14,136.3 h0
M7.95,138.05 h0
M12.44,139.3 h0
M16.23,137.32 h0
M24.01,137.64 h0
M28.01,139.08 h0
M33.23,139.09 h0
M37.52,136.19 h0
M43.57,136.34 h0
M49.21,136.29 h0
M53.68,138.22 h0
M59.06,136.19 h0
M62.5,138.68 h0
M66.4,138.73 h0
M73.08,139.02 h0
M76.24,137.2 h0
M84.15,140.33 h0
M85.6,137.21 h0
M92.74,138.05 h0
M99.05,137.6 h0
M104.55,138.8 h0
M108.92,138.85 h0
M113.54,136.86 h0
M116.65,138.99 h0
M122.55,138.69 h0
M126.91,138.41 h0
M131.11,139.48 h0
M139.34,139 h0
M141.76,137.58 h0
M149.16,139.99 h0
M151.33,136.7 h0
M156.3,137.39 h0
M163.95,138.46 h0
M170.04,139.31 h0
M173.73,136.33 h0
M179.36,135.92 h0
M181.79,137.9 h0
M189.07,137.68 h0
M192.23,139.95 h0
M198.31,137.5 h0
M204.73,136.8 h0
M209.07,138.19 h0
M214.76,136.83 h0
M220.05,136.09 h0
M222.74,137.73 h0
M228.95,139.88 h0
M235.04,136.17 h0
M237.3,138.46 h0
M243.9,138.78 h0
M249.67,138.5 h0
M254.19,136.67 h0
M2.29,141.87 h0
M8.72,144.38 h0
M14.33,142.28 h0
M18.46,141.64 h0
M23.82,143.75 h0
M28.93,144.56 h0
M33.32,142.87 h0
M37.05,144.3 h0
M42.16,141.69 h0
M47.8,143.5 h0
M51.29,144.15 h0
M56.15,144.81 h0
M62.79,141.54 h0
M66.56,142.4 h0
M73.93,142.69 h0
M77.6,141.7 h0
M82.56,144.22 h0
M87.7,141.09 h0
M91.15,142.33 h0
M96.27,142.29 h0
M101.48,141.46 h0
M106.7,142.11 h0
M113.11,144.31 h0
M119.01,141.04 h0
M120.52,144.66 h0
M128.93,141.47 h0
M133.19,141.23 h0
M139.14,142.73 h0
M143.54,143.47 h0
M147.82,144.56 h0
M152.84,144.26 h0
M159.47,144.13 h0
M163.21,141.63 h0
M168.81,143.6 h0
M174.71,143.09 h0
M178.21,141.95 h0
M183.36,142.17 h0
M188.81,141.96 h0
M194.76,142.41 h0
M197.94,142.63 h0
M201.78,143.36 h0
M208.51,143.53 h0
M213.85,141.11 h0
M218.12,143.79 h0
M221.57,144.29 h0
M227.79,143.54 h0
M233.18,141.8 h0
M238.8,143.15 h0
M245.09,143.85 h0
M248.32,142.09 h0
M252.35,142.02 h0
M1.02,148.08 h0
M5.39,146.32 h0
M14.19,147.59 h0
M16.39,149.73 h0
M21.06,148.03 h0
M26.96,149.77 h0
M33.77,146.43 h0
M39.51,146.13 h0
M41.71,150.02 h0
M47.49,148.64 h0
M51.06,147.62 h0
M59.74,149.84 h0
M61.14,147.42 h0
M67.03,146.68 h0
M71.08,146.17 h0
M76.57,147.03 h0
M84.25,148.56 h0
M88.47,149.19 h0
M91.85,147.11 h0
M98.21,147.05 h0
M101.91,146.77 h0
M109.07,148.97 h0
M113.79,148.05 h0
M119.29,149.55 h0
M123.65,148.77 h0
M127.28,147.32 h0
M134.22,148.31 h0
M137.25,148.12 h0
M141.9,147.99 h0
M147.6,148.32 h0
M152.35,149.13 h0
M159.03,147.15 h0
M164.63,150.47 h0
M165.67,146.7 h0
M172.95,146.41 h0
M179.79,147.39 h0
M184.19,148.22 h0
M189.2,147.15 h0
M194.52,147.2 h0
M199.86,147.57 h0
M204.8,146.14 h0
M209.56,149.35 h0
M213.59,145.9 h0
M216.92,148.6 h0
M223.66,148.71 h0
M226.59,146.22 h0
M232.83,146.76 h0
M239.95,147.46 h0
M245,149.49 h0
M247.3,147.3 h0
M252.04,147.04 h0
M2.88,152.37 h0
M8.84,151.82 h0
M13.3,152.55 h0
M17.23,153.29 h0
M22.65,151.41 h0
M27.59,154.87 h0
M32.49,152.38 h0
M36.29,153.78 h0
M44.12,154.32 h0
M47.73,151.98 h0
M52.39,151.92 h0
M57.41,152.03 h0
M64.32,151.67 h0
M67.99,154.92 h0
M72.71,151.88 h0
M77.86,153.44 h0
M82.3,154.31 h0
M87.67,153.75 h0
M93.17,153.04 h0
M98.28,151.24 h0
M102.6,151.75 h0
M109.81,152.72 h0
M113.68,153.72 h0
M117.09,154.52 h0
M124.23,153.42 h0
M129.73,153.14 h0
M132.89,151.92 h0
M139.58,154.81 h0
M143.23,154.15 h0
M146.63,152.75 h0
M153.51,152.74 h0
M158.26,154.4 h0
M164.88,154.45 h0
M169.92,150.96 h0
M173.39,153.66 h0
M177.22,153.85 h0
M181.64,154.68 h0
M187.9,152.66 h0
M193.21,151.5 h0
M196.02,154.92 h0
M203.91,152.32 h0
M207.78,152.36 h0
M213.75,151.41 h0
M216.59,154.78 h0
M222.13,153.46 h0
M227.47,151.85 h0
M232.06,153.7 h0
M238.71,153.27 h0
M241.91,153.44 h0
M247.11,153.25 h0
M254.87,154.4 h0
M4.19,158.71 h0
M7.45,156.5 h0
M11.75,158.18 h0
M15.92,159.8 h0
M20.5,157.8 h0
M26.09,158.84 h0
M31.2,156.21 h0
M37.5,159.01 h0
M41.01,157.3 h0
M46.15,156.97 h0
M53.77,156.7 h0
M56.74,157.34 h0
M63.23,158.46 h0
M68.47,159.2 h0
M71.73,157.43 h0
M78.4,157.05 h0
M81.86,159.15 h0
M88.88,157.7 h0
M94.75,157.49 h0
M98.81,157.27 h0
M103.23,156.3 h0
M106.7,157.67 h0
M112,159.33 h0
M119.46,159.51 h0
M123.88,157.58 h0
M128.66,157.77 h0
M131.95,157.87 h0
M137.72,158.61 h0
M143.52,159.37 h0
M149.51,158.79 h0
M153.98,158.57 h0
M157.99,159.24 h0
M164.82,159.51 h0
M169.77,158.55 h0
M172.94,157 h0
M178.39,158.7 h0
M184.24,158.65 h0
M188.86,156.65 h0
M191.33,159.46 h0
M197.98,158.68 h0
M201.24,159.36 h0
M206.98,157.34 h0
M212.89,157.78 h0
M219.16,158.48 h0
M224.65,158.47 h0
M230.08,158.97 h0
M231.83,156.39 h0
M239.81,160 h0
M242.18,157.95 h0
M248.25,156.64 h0
M254.98,158.5 h0
M2.47,163.04 h0
M7.58,163.24 h0
M11.58,163.16 h0
M16.45,164.22 h0
M23.72,164.69 h0
M27.35,163.1 h0
M33.02,162.19 h0
M37.37,163.22 h0
M42.78,164.03 h0
M46.99,161.67 h0
M51.54,162.41 h0
M57.29,162.31 h0
M62.13,162.62 h0
M68.94,162.71 h0
M74.31,162.06 h0
M78.12,163.46 h0
M83.45,164.12 h0
M89.49,164.05 h0
M91.52,161.79 h0
M98.03,162.59 h0
M102.36,161.78 h0
M107.43,161.87 h0
M112.65,164.41 h0
M119.12,163.98 h0
M123.52,164.96 h0
M127.1,161.5 h0
M133.03,164.06 h0
M139.38,162.27 h0
M145.21,161.68 h0
M146.49,164.36 h0
M153.85,163.32 h0
M160.1,164.44 h0
M162.03,161.38 h0
M169.69,162.58 h0
M174.79,164.39 h0
M176.97,161.69 h0
M184.8,164.71 h0
M188.09,163.79 h0
M194.1,163.3 h0
M199.71,163.12 h0
M203.4,162.65 h0
M210,161.27 h0
M213.38,163.72 h0
M216.89,162.86 h0
M222.62,162.57 h0
M228.3,161.7 h0
M232.26,165.11 h0
M237.82,162.21 h0
M244.88,163.36 h0
M249.93,164.5 h0
M252.84,164.07 h0
M2.15,167.91 h0
M5.87,168.61 h0
M12.25,166.97 h0
M18.09,169.7 h0
M20.66,166.54 h0
M27.01,167.6 h0
M32.34,168.34 h0
M36.09,166.76 h0
M43.44,169.36 h0
M47.54,166.94 h0
M52.66,166.6 h0
M58.94,167.93 h0
M62.44,168.69 h0
M68.32,167.78 h0
M73.56,167.18 h0
M78.39,169.05 h0
M82.98,168.82 h0
M87.5,167.89 h0
M91.19,169.16 h0
M99.16,169.48 h0
M102.86,168.05 h0
M107.65,166.44 h0
M112.91,168.76 h0
M118.47,168.22 h0
M122.88,169.65 h0
M127.36,166.54 h0
M134.02,169.46 h0
M137.11,166.27 h0
M142.85,166.9 h0
M146.91,168.07 h0
M152.8,166.92 h0
M158.6,167.54 h0
M162.89,167.87 h0
M166.92,168.39 h0
M171.73,168.36 h0
M177.93,166.59 h0
M182.42,166.75 h0
M187.05,169.76 h0
M193.92,169.14 h0
M199.74,167.5 h0
M204.54,169.16 h0
M208.38,166 h0
M212.19,168.23 h0
M219.4,167.82 h0
M221.89,165.98 h0
M227.44,167.2 h0
M234.74,169.47 h0
M239.42,168.84 h0
M242,166.91 h0
M247.23,166.93 h0
M255.3,166.05 h0
M0.41,172.17 h0
M9.04,174.34 h0
M13.59,172.41 h0
M16.36,173.99 h0
M23.62,174.65 h0
M27.53,173.59 h0
M32.91,172.78 h0
M36.46,171.41 h0
M40.93,173.49 h0
M47.6,173.16 h0
M51.26,172.86 h0
M55.7,171.34 h0
M62.98,172.32 h0
M67.76,172.17 h0
M72.77,172.72 h0
M76.47,172.66 h0
M82.3,174 h0
M89.24,172.17 h0
M92.85,174.25 h0
M96.99,172.65 h0
M105.09,175.14 h0
M106.74,171.46 h0
M114.06,175.28 h0
M116.58,172.09 h0
M121.49,172.16 h0
M128.06,173.01 h0
M133.38,172.08 h0
M137.88,172.18 h0
M143.94,175.06 h0
M148.03,173.52 h0
M152.66,171.84 h0
M158.94,171.87 h0
M164.46,172.5 h0
M169.79,173.25 h0
M173.1,173.42 h0
M177.31,171.74 h0
M182.58,172.28 h0
M189.78,172.84 h0
M191.65,174.99 h0
M197.74,173.75 h0
M202.83,172.31 h0
M208.2,174.52 h0
M214.94,173.5 h0
M218.13,174.57 h0
M225.05,171.07 h0
M228.45,174.76 h0
M231.75,172.65 h0
M237.06,173.33 h0
M243.68,173.76 h0
M246.83,171.4 h0
M251.54,173.5 h0
M4.12,176.33 h0
M8.9,177.62 h0
M12.62,178.67 h0
M19.12,178.49 h0
M24.44,177.87 h0
M29.15,178.7 h0
M32.87,176.72 h0
M36.81,177.16 h0
M42.88,177.93 h0
M46.4,177.33 h0
M50.93,179.71 h0
M56.31,176.31 h0
M63.95,177.32 h0
M66.71,176.06 h0
M72.6,178.47 h0
M77.5,177.82 h0
M81.4,179.34 h0
M87.74,179.03 h0
M93.57,178.71 h0
M98.65,176.72 h0
M101.72,176.09 h0
M108.71,179.02 h0
M111.16,176.49 h0
M117.75,177.21 h0
M122.01,176.73 h0
M129.11,178.37 h0
M133.76,176.2 h0
M136.71,178.59 h0
M141.3,178.67 h0
M149.33,177.93 h0
M153.19,178.24 h0
M158.95,179.15 h0
M162.97,177.11 h0
M168.4,179.41 h0
M172.86,177.95 h0
M176.98,180.03 h0
M184.21,176.92 h0
M188.93,179.08 h0
M192.19,179.89 h0
M196.43,179.47 h0
M203.78,176.96 h0
M208.88,178.85 h0
M213.3,176.75 h0
M219.38,176.85 h0
M223.93,177.24 h0
M226.84,179.62 h0
M234.57,178.75 h0
M238.81,177.04 h0
M243.13,177.78 h0
M248.27,177.8 h0
M255.46,178.01 h0
M2.1,184.15 h0
M8.04,182.32 h0
M11.15,184.98 h0
M17.75,183.95 h0
M20.92,182.22 h0
M25.8,183.93 h0
M32.88,184.23 h0
M37.25,183.53 h0
M44.24,183.1 h0
M47.98,182.82 h0
M54.93,183.04 h0
M59.57,181.22 h0
M61.56,184.17 h0
M67.87,182.85 h0
M71.25,184.72 h0
M77.44,184.07 h0
M80.87,182.14 h0
M89.52,183.86 h0
M94.01,182.62 h0
M99.58,181.31 h0
M101.75,184.28 h0
M107.36,182.82 h0
M114.17,182.72 h0
M118.26,181.93 h0
M122.65,182.27 h0
M127.82,184.14 h0
M134.54,182.04 h0
M139.25,185.24 h0
M143.77,183.01 h0
M146.24,184.31 h0
M151.54,181.9 h0
M159.6,182.61 h0
M163.64,183.73 h0
M166.69,185.04 h0
M171.89,182.21 h0
M177.14,184.12 h0
M182.7,181.62 h0
M188.02,183.53 h0
M192.38,183.63 h0
M199.42,182.77 h0
M203.96,181.41 h0
M208.53,183.05 h0
M212.71,182.24 h0
M217.43,183.23 h0
M222.33,181.45 h0
M226.53,183.18 h0
M231.85,181.58 h0
M237.9,183.51 h0
M241.86,184.38 h0
M247.76,181.69 h0
M255.05,181.91 h0
M1.27,186.9 h0
M7.05,188.62 h0
M12.45,188.97 h0
M19,189.4 h0
M22.66,188.3 h0
M28.61,189.04 h0
M31.86,187.73 h0
M38.18,189.59 h0
M41.85,186.68 h0
M49.06,186.59 h0
M52.58,186.75 h0
M56.7,187.49 h0
M61.92,188.01 h0
M69.07,188.95 h0
M74.29,188.62 h0
M78.72,188.71 h0
M82.86,186.22 h0
M87.04,187.69 h0
M93.49,189.62 h0
M96.64,186.28 h0
M100.94,189.53 h0
M108.4,187.8 h0
M113.84,187.31 h0
M118.89,187.25 h0
M123.05,189.51 h0
M129.09,187.28 h0
M133.77,187.09 h0
M139.48,190.09 h0
M143.81,188.47 h0
M148.47,187.19 h0
M153.33,187.31 h0
M156.87,187.36 h0
M161.24,188.4 h0
M167.45,189.4 h0
M172.77,188.13 h0
M176.72,188.85 h0
M184.41,186.91 h0
M189.54,187.46 h0
M192.73,189.6 h0
M199.57,186.71 h0
M201.31,189.67 h0
M206.13,187.36 h0
M214.08,188.54 h0
M219.53,188.26 h0
M224.18,187.01 h0
M227.56,188.17 h0
M233.79,188.06 h0
M237.22,189.49 h0
M242.18,187.4 h0
M247.31,186.96 h0
M253.72,188.67 h0
M1.07,191.48 h0
M7.8,194.81 h0
M13.12,194.46 h0
M15.75,191.18 h0
M20.9,193.24 h0
M27.43,193.72 h0
M32.35,194.76 h0
M38.96,194.75 h0
M43.07,191.32 h0
M45.75,194.07 h0
M53.25,194.46 h0
M56.69,192.19 h0
M61.26,191.57 h0
M67.79,193.21 h0
M73.78,194.8 h0
M78.31,193.08 h0
M84.21,193.24 h0
M87.75,193.21 h0
M91.84,192.84 h0
M97.49,194.27 h0
M103.62,193.83 h0
M106.63,193.88 h0
M111.78,193.11 h0
M117.19,192.07 h0
M123.5,192.4 h0
M128.4,192.85 h0
M132.15,192.92 h0
M139.9,193.42 h0
M144.79,193.86 h0
M149.37,192.89 h0
M152.17,191.54 h0
M159.23,194.38 h0
M164.11,192.02 h0
M167.4,193 h0
M173.76,193.7 h0
M179.93,191.51 h0
M183.2,193.6 h0
M189.28,193.12 h0
M193.65,194.82 h0
M199.52,193.99 h0
M205.35,193.05 h0
M208.77,191.7 h0
M212.14,192.58 h0
M216.74,192.54 h0
M222.79,193 h0
M229.93,192.44 h0
M234.91,193 h0
M239.78,194.06 h0
M242.89,194.35 h0
M247,192.6 h0
M252.73,192.65 h0
M0.97,198.53 h0
M7.01,198.05 h0
M12.38,197.96 h0
M16.93,197.9 h0
M21.97,197.54 h0
M27.21,197.87 h0
M32.94,199.48 h0
M37.05,198.32 h0
M44.3,198.27 h0
M48.5,197.49 h0
M54.34,198.88 h0
M56.82,200.3 h0
M63.24,199.09 h0
M66.13,196.47 h0
M73.76,198.84 h0
M78.05,197.58 h0
M81.24,200.25 h0
M88.94,197.11 h0
M91.59,199.99 h0
M99.8,197.81 h0
M104.67,197.25 h0
M109.71,196.91 h0
M113.79,196.52 h0
M117.82,200.26 h0
M122.09,198.51 h0
M127.53,198.67 h0
M132.49,196.58 h0
M136.12,198.03 h0
M142.41,198.92 h0
M148.81,197.38 h0
M153.89,197.78 h0
M156.73,197.87 h0
M164.55,197.28 h0
M166.93,199.68 h0
M173.6,197.18 h0
M177.53,198.58 h0
M184.48,198.35 h0
M188.06,199.05 h0
M194.65,198.67 h0
M199.49,199.24 h0
M202.5,197.01 h0
M209.01,197.27 h0
M213.68,199.45 h0
M219.67,198.26 h0
M222.58,198.6 h0
M226.86,196.79 h0
M232.94,199.27 h0
M239.12,198.68 h0
M245.67,199.92 h0
M249.65,197.4 h0
M254.82,196.23 h0
M3.29,204.68 h0
M8.04,203.93 h0
M13.8,203.9 h0
M19.32,204.2 h0
M23.36,204.02 h0
M25.61,205.31 h0
M34.48,204.68 h0
M38.61,202.82 h0
M41.67,204.25 h0
M46.64,202.49 h0
M51.52,201.27 h0
M57.52,203.8 h0
M63.56,203.28 h0
M68.67,203.42 h0
M73.11,202.95 h0
M76.91,201.66 h0
M83.53,204.64 h0
M86.81,201.15 h0
M93.82,205.03 h0
M96.39,202.94 h0
M102.6,203.47 h0
M105.95,204.97 h0
M113.2,201.46 h0
M120.05,203.57 h0
M123.89,201.2 h0
M126.41,204.69 h0
M131.55,202.75 h0
M136.47,202.35 h0
M144.6,205.34 h0
M147.05,202.33 h0
M152.71,202.18 h0
M158.7,203.77 h0
M163.91,204.65 h0
M167.42,203.42 h0
M172.66,203.36 h0
M179.44,202.44 h0
M182.87,202.47 h0
M189.36,204.44 h0
M194.65,201.73 h0
M199.21,203.22 h0
M202.29,203.96 h0
M207.67,204.57 h0
M214.09,204.55 h0
M217.57,202.13 h0
M223.24,204.5 h0
M230.02,204.75 h0
M232.89,203.96 h0
M239.55,202.27 h0
M242.74,204.45 h0
M250.09,202.74 h0
M254.03,204.91 h0
M1.44,208.64 h0
M7.52,207.24 h0
M12.94,207.36 h0
M18.69,209.52 h0
M22.19,209.38 h0
M27.96,206.17 h0
M32.31,207.94 h0
M37.61,208.63 h0
M44.06,207.92 h0
M48.66,206.72 h0
M51.8,208.5 h0
M58.23,207.41 h0
M61.57,207.31 h0
M68.55,208.05 h0
M73.6,206.87 h0
M77.6,209.55 h0
M81.49,208.59 h0
M87.13,209.85 h0
M94.57,208.24 h0
M96.25,210.05 h0
M101.25,208.54 h0
M109.26,207.51 h0
M112.39,206.23 h0
M116.65,207.32 h0
M124.49,208.87 h0
M129.83,210.13 h0
M133.62,207.42 h0
M136.31,209.6 h0
M141.43,208.94 h0
M148.78,208.53 h0 m3.41,0 h0
M156.86,208.98 h0
M163.58,208.44 h0
M169.03,208.57 h0
M171.63,207.33 h0
M178.5,208.1 h0
M183.61,209.74 h0
M186.62,208.15 h0
M193.81,207.48 h0
M197.51,208.82 h0
M201.6,209.19 h0
M207.1,208.07 h0
M213.92,207.85 h0
M218.36,209.37 h0
M225.17,210.13 h0
M226.37,207.17 h0
M235.19,209.81 h0
M239.38,207.36 h0
M242.74,207.86 h0
M248.82,206.43 h0
M251.87,207.15 h0
M3.25,214.8 h0
M6.06,213.17 h0
M12.15,211.31 h0
M15.61,213.87 h0
M22.75,214.8 h0
M28.3,213.56 h0
M33.21,212.47 h0
M38.86,214.64 h0
M43.85,212.74 h0
M46.75,213.81 h0
M52.38,214.05 h0
M56.24,214.33 h0
M62.75,211.42 h0
M67.68,214.24 h0
M74.21,211.63 h0
M76.57,214.36 h0
M83.48,211.51 h0
M86.57,214.79 h0
M91.82,212.42 h0
M98.67,214.52 h0
M101.75,213.26 h0
M106.95,211.84 h0
M112.17,213.74 h0
M116.51,212.89 h0
M121.3,211.63 h0
M128.59,214.64 h0
M134.8,214.74 h0
M136.78,212.25 h0
M142.69,214.76 h0
M147.81,212.79 h0
M152.47,213.46 h0
M157.44,214.26 h0
M163.27,212.96 h0
M169.72,212.67 h0
M173.87,211.99 h0
M178.59,215.1 h0
M181.47,213.97 h0
M187.6,213.88 h0
M193.23,213.49 h0
M197.93,213.1 h0
M204.73,214.36 h0
M209.47,213.02 h0
M213.53,211.49 h0
M216.77,215.16 h0
M223.6,214.48 h0
M227.45,214.85 h0
M231.79,211.23 h0
M236.69,212.25 h0
M241.85,213.36 h0
M247.08,213.71 h0
M251.72,212.59 h0
M4,218.76 h0
M8.81,219.64 h0
M11.49,216.98 h0
M16.79,218.78 h0
M21.44,218.14 h0
M26.13,218.9 h0
M31.54,217.71 h0
M36.25,219.25 h0
M41.16,218.46 h0
M47.22,220.11 h0
M51.86,217.32 h0
M57.84,217.39 h0
M63.41,216.83 h0
M67.08,217.22 h0
M72.78,218.19 h0
M77.53,218.29 h0
M83.64,217.16 h0
M87.52,219.99 h0
M91.5,216.81 h0
M99.63,220.06 h0
M101.52,216.69 h0
M107.62,217.13 h0
M113.78,216.88 h0
M116.69,218.8 h0
M122.86,217 h0
M127.13,219.11 h0
M134.08,218.13 h0
M138.52,219.65 h0
M144.29,218.78 h0
M148.07,218.09 h0
M153.66,218.61 h0
M160.04,217.34 h0
M162.14,220.17 h0
M168.83,218.26 h0
M173.97,218.74 h0
M179.46,219.96 h0
M184.18,217.73 h0
M187.9,217.4 h0
M193.69,219.51 h0
M196.64,217.92 h0
M204.4,219.97 h0
M206.95,217.06 h0
M211.98,218.67 h0
M219.57,216.41 h0
M222.79,217.4 h0
M228.64,217.59 h0
M234.44,219.92 h0
M238.65,217.41 h0
M241.94,219.36 h0
M248.94,216.74 h0
M254.71,218.09 h0
M2.29,224.28 h0
M6.05,222.05 h0
M13.84,223.15 h0
M16.92,223.47 h0
M22.85,221.94 h0
M25.82,224.54 h0
M32.47,224.03 h0
M37.11,224.16 h0
M42.3,222.59 h0
M49.23,223.55 h0
M51.96,225.4 h0
M57.39,223.95 h0
M61.48,221.97 h0
M68.79,223.12 h0
M73.6,223.39 h0
M77.47,224.09 h0
M81.43,222.77 h0
M88.82,222.56 h0
M92.92,224.03 h0
M99.64,225.26 h0
M103.76,221.46 h0
M109.2,223.97 h0
M113.3,224.5 h0
M117.84,221.95 h0
M124.39,221.68 h0
M127.28,224.77 h0
M132.82,223.34 h0
M137.1,224.25 h0
M141.28,222.68 h0
M149.74,222.69 h0
M154.46,223.57 h0
M158.27,222.15 h0
M161.94,225.16 h0
M168.21,224.65 h0
M172.45,221.81 h0
M177.78,221.96 h0
M184.07,224 h0
M187.13,222.22 h0
M194.87,222.39 h0
M198.3,224.81 h0
M201.79,223.66 h0
M209.27,222.87 h0
M215.24,222.51 h0
M219.16,223.47 h0
M222,224.31 h0
M226.64,224.58 h0
M231.42,223.98 h0
M236.55,223.46 h0
M245.22,224.21 h0
M247.46,221.61 h0
M253.92,223.84 h0
M2.61,228.63 h0
M7.61,228.3 h0
M11.11,229.29 h0
M16.64,229.11 h0
M22.42,228.93 h0
M28.29,226.64 h0
M32.21,227.71 h0
M37.81,227.72 h0
M43.38,229.06 h0
M48.52,227.64 h0
M54.1,230.05 h0
M58.89,227.75 h0
M61.63,229.72 h0
M65.51,226.15 h0
M72.8,228.53 h0
M77.98,229.62 h0
M81.78,229.65 h0
M88.95,227.2 h0
M94.25,227.51 h0
M97.3,226.42 h0
M102.81,228.96 h0
M108.19,227.13 h0
M110.96,228.39 h0
M118.06,226.85 h0
M121.51,226.73 h0
M128.53,228.2 h0
M133.11,229.69 h0
M140.09,227.91 h0
M144.42,226.45 h0
M149.41,226.58 h0
M151.25,229.65 h0
M156.54,229.52 h0
M162.56,229.3 h0
M166.61,227.81 h0
M171.9,226.67 h0
M179.52,227.28 h0
M182.54,228.55 h0
M189.31,229.58 h0
M193.52,228.65 h0
M197.62,227.3 h0
M204.32,226.83 h0
M208.69,228.23 h0
M212.54,226.86 h0
M217.77,228.75 h0
M224.97,229.49 h0
M228.78,229.81 h0
M233.01,229.05 h0
M237.9,226.28 h0
M242.46,227.03 h0
M248.78,230.1 h0
M252.55,227.19 h0
M1.24,234.4 h0
M6.99,235.06 h0
M12.75,233.12 h0
M17.57,234.29 h0
M23.66,232.55 h0
M27.48,234.93 h0
M32.16,232.93 h0
M37.69,234.28 h0
M44.7,234.96 h0
M45.86,231.85 h0
M50.99,232.65 h0
M57.71,234.05 h0
M63.72,232.52 h0
M68.12,234.36 h0
M71.26,232.33 h0
M79.32,234.75 h0
M83.31,231.85 h0
M89.01,231.63 h0
M91.34,233.63 h0
M99.37,232.49 h0
M102.25,234.82 h0
M109.49,234.6 h0
M113.45,232.39 h0
M118.52,232.55 h0
M122.81,234.9 h0
M126.68,232.33 h0
M131.39,233.75 h0
M138.65,233.83 h0
M142.4,232.29 h0
M148.73,235.09 h0
M152.77,233.73 h0
M158.16,234.44 h0
M162.07,233.3 h0
M167.77,233.94 h0
M172.29,232.26 h0
M177.26,233.69 h0
M181.86,234.93 h0
M187.67,233.81 h0
M192.46,234.2 h0
M197.17,232.07 h0
M203.46,233.54 h0
M207.32,234.72 h0
M214.17,234.24 h0
M219.2,231.99 h0
M223.87,234.28 h0
M229.41,235.27 h0
M234.59,233.55 h0
M236.88,231.69 h0
M243.57,231.46 h0
M246.61,234.63 h0
M251.97,233.98 h0
M2.49,239.57 h0
M8.38,239.54 h0
M13.94,239.75 h0
M18.75,238.41 h0
M24.36,238.9 h0
M28.52,237.71 h0
M32.63,239.3 h0
M38.34,237.74 h0
M44.36,238.62 h0
M47.66,238.78 h0
M52.1,238.89 h0
M56.37,239.85 h0
M63.26,238.74 h0
M68.21,238.38 h0
M74.63,236.37 h0
M78.47,238.1 h0
M84.42,237.21 h0
M87.84,238.91 h0
M94.28,238.5 h0
M99.23,237.13 h0
M101.34,239.12 h0
M107.76,238.15 h0
M111.3,239.45 h0
M117.14,237.43 h0
M122.05,239.03 h0
M126.53,239.16 h0
M133.95,240.15 h0
M136.5,237.32 h0
M143.57,239.72 h0
M148.9,239.66 h0
M154.02,237.1 h0
M158.49,238.25 h0
M163.71,238.1 h0
M167.72,239.83 h0
M174.15,237.82 h0
M177.88,238.04 h0
M181.1,239.98 h0
M189.48,238.15 h0
M192.15,240.16 h0
M197.35,237.53 h0
M202.65,238.22 h0
M207.29,239.76 h0
M214.31,237.9 h0
M217.76,237.18 h0
M223.65,236.85 h0
M226.39,239.3 h0
M235.46,239.75 h0
M239.54,236.74 h0
M243.51,239.37 h0
M248.12,237.52 h0
M254.37,238.05 h0
M4.51,243.59 h0
M6.77,245.38 h0
M13.37,243.82 h0
M17.24,244.11 h0
M21.18,242.74 h0
M26.31,244.39 h0
M32.83,242.75 h0
M37.28,242.23 h0
M41.3,244.51 h0
M46.05,243.28 h0
M51.59,245.2 h0
M58.97,242.68 h0
M62.68,243.23 h0
M68.34,243.54 h0
M72.79,242.54 h0
M76.31,245.05 h0
M81.75,241.73 h0
M88.21,242.98 h0
M91.3,244.62 h0
M97.73,243.41 h0
M103,244.43 h0
M107.3,244.5 h0
M111.58,244.51 h0
M116.78,243.1 h0
M124.75,244.01 h0
M129.25,242.97 h0
M131.83,243.79 h0
M137.1,242.8 h0
M142.29,242.97 h0
M148.71,242.26 h0
M152.38,242.66 h0
M160.06,241.84 h0
M161.55,244.98 h0
M167.73,244.04 h0
M171.8,243.47 h0
M177.54,244.14 h0
M183.44,241.62 h0
M189.07,242.91 h0
M193.4,244.47 h0
M199.67,244.44 h0
M203.13,243.04 h0
M206.37,243.75 h0
M213.56,243.93 h0
M217.96,242.38 h0
M224.33,242.8 h0
M229.46,242.01 h0
M232.2,243.88 h0
M238.43,244.41 h0
M242.44,244.98 h0
M249.58,242.01 h0
M254.05,245.29 h0
M2.83,246.72 h0
M5.72,250.29 h0
M13.87,247.26 h0
M19.19,247.44 h0
M22.5,247.13 h0
M28.58,249.64 h0
M33.12,248.78 h0
M36.89,246.56 h0
M40.66,248.85 h0
M46.03,249.75 h0
M52.24,250.17 h0
M58.69,248 h0
M63.49,247.67 h0
M68.64,248.23 h0
M71.5,249.91 h0
M77.11,248.84 h0
M82.82,246.22 h0
M89.53,250.03 h0
M91.64,248.2 h0
M97.2,248.08 h0
M102.36,248.69 h0
M109.17,249.3 h0
M114.76,246.79 h0
M118.56,250.25 h0
M123.46,247.23 h0
M128.89,248.3 h0
M133.63,248.15 h0
M139.05,249.43 h0
M143.2,246.47 h0
M148.02,249.51 h0
M153.85,247.04 h0
M157.82,248.76 h0
M163.26,248.47 h0
M169.57,249.15 h0
M173.65,249.43 h0
M176.92,247.64 h0
M184.31,246.58 h0
M188,248.84 h0
M194.96,248.61 h0
M199.46,247.69 h0
M202.93,250.45 h0
M208.66,246.91 h0
M212.67,247.5 h0
M216.71,246.97 h0
M221.91,248.54 h0
M227.21,248.91 h0
M231.94,248.55 h0
M236.39,246.72 h0
M243.54,248.34 h0
M248.27,246.31 h0
M251.48,247.71 h0
M1.94,254.16 h0
M9.02,251.55 h0
M12.8,254.76 h0
M16.82,254.53 h0
M23.62,254.22 h0
M26.41,254.55 h0
M31.5,255.27 h0
M39.31,253.08 h0
M42.61,255.28 h0
M46.85,252.4 h0
M54.32,255.14 h0
M57.22,252.49 h0
M63.81,253.06 h0
M66.34,254.58 h0
M74.51,252.46 h0
M78.29,253.43 h0
M82.83,252.1 h0
M87.17,253.01 h0
M94.77,254.39 h0
M99.21,252.69 h0
M102.95,254.66 h0
M106.69,254.87 h0
M111.25,254.56 h0
M115.74,254 h0
M121.74,251.88 h0
M126.62,253.08 h0
M133.19,253.55 h0
M139.43,253.06 h0
M142.68,251.97 h0
M147.19,253.86 h0
M151.89,252.91 h0
M159.81,251.76 h0
M162.09,254.71 h0
M166.35,252.7 h0
M174.46,254.37 h0
M179.02,253.83 h0
M183.58,252.15 h0
M186.55,252.42 h0
M191.9,254.1 h0
M198.24,253.5 h0
M202.35,253.83 h0
M208.74,253.37 h0
M213.22,253.66 h0
M219.03,252.18 h0
M223.84,254.52 h0
M229.42,255.17 h0
M234.65,253.72 h0
M237.04,252.03 h0
M245.11,254.24 h0
M248.07,253.03 h0
M253.93,252.4 h0
M256.43,13.91 h0
M256.41,172.17 h0"/>
</svg>
