<svg xmlns="http://www.w3.org/2000/svg" width="256" height="256" viewBox="0 0 256 256">
  <rect id="mapnik_workaround" width="256" height="256" fill="none"/>
  <path stroke-linecap="round" stroke-width="1.6" stroke="#ffffff" d="
M227.75,17.5 h0.0001
M233.11,16.6 h0.0001
M238.62,18.23 h0.0001
M244.79,18.6 h0.0001
M248.53,17.19 h0.0001
M253.15,18.39 h0.0001
M3.99,16.06 h0.0001
M6.56,15.66 h0.0001
M14.95,15.94 h0.0001
M16.7,19.46 h0.0001
M22,18.46 h0.0001
M27.08,16.06 h0.0001
M34.01,16.13 h0.0001
M38.02,16.95 h0.0001
M44.14,16.26 h0.0001
M47.45,16.81 h0.0001
M51.03,18.28 h0.0001
M57.6,17.54 h0.0001
M61.54,17.59 h0.0001
M67.86,18.68 h0.0001
M73.91,17.3 h0.0001
M79.38,18.13 h0.0001
M83.51,18.28 h0.0001
M90.01,16.61 h0.0001
M93.31,18.36 h0.0001
M98.97,18.35 h0.0001
M104.23,16.48 h0.0001
M108.51,16.87 h0.0001
M114.31,17.97 h0.0001
M116.71,16.3 h0.0001
M123.05,18.39 h0.0001
M127.33,17.7 h0.0001
M132.41,18.53 h0.0001
M138.8,18.3 h0.0001
M144.12,17.43 h0.0001
M149.16,18.32 h0.0001
M153.02,16.36 h0.0001
M159.2,16.42 h0.0001
M164.79,19.76 h0.0001
M166.72,16.75 h0.0001
M172.69,18.48 h0.0001
M179,18.49 h0.0001
M183.05,17 h0.0001
M187.4,16.18 h0.0001
M193.27,19.13 h0.0001
M198.15,17.48 h0.0001
M203.28,15.96 h0.0001
M209.69,17.16 h0.0001
M213.6,15.97 h0.0001
M219.2,15.98 h0.0001
M224.41,17.64 h0.0001
M230.06,22.8 h0.0001
M233.39,22.72 h0.0001
M236.95,22.39 h0.0001
M244.07,24.46 h0.0001
M247.5,22.79 h0.0001
M254.98,23.23 h0.0001
M3,21.17 h0.0001
M8.35,24.05 h0.0001
M13.34,22.46 h0.0001
M18.36,23.85 h0.0001
M21.61,23.01 h0.0001
M26.68,21.33 h0.0001
M31.54,22.13 h0.0001
M37.4,20.87 h0.0001
M41.94,21.02 h0.0001
M49.34,22.64 h0.0001
M53.17,21.26 h0.0001
M57.34,22.57 h0.0001
M61.96,22.53 h0.0001
M68.36,22.1 h0.0001
M72.32,23.39 h0.0001
M79.02,23.62 h0.0001
M83.56,23.25 h0.0001
M87.71,23.58 h0.0001
M94.22,24.2 h0.0001
M97.38,23.6 h0.0001
M104.41,22.38 h0.0001
M107.52,23.27 h0.0001
M111.93,23.11 h0.0001
M119.5,23.97 h0.0001
M121.9,21.92 h0.0001
M129.93,21.32 h0.0001
M132.93,24.57 h0.0001
M139.61,23.19 h0.0001
M143.08,21.07 h0.0001
M149.47,23.7 h0.0001
M151.86,21.79 h0.0001
M158.74,23.13 h0.0001
M161.45,21.39 h0.0001
M169.64,24.14 h0.0001
M172.09,23.51 h0.0001
M177.35,22.06 h0.0001
M183.67,23.6 h0.0001
M188.39,22.42 h0.0001
M194.32,23.62 h0.0001
M198.36,21.58 h0.0001
M204.66,21.67 h0.0001
M209.71,22.46 h0.0001
M212.61,23.02 h0.0001
M216.77,22.25 h0.0001
M224.97,24 h0.0001
M226.43,28.91 h0.0001
M231.64,29.35 h0.0001
M238.32,28.92 h0.0001
M244.22,28.44 h0.0001
M247.78,28.08 h0.0001
M252.83,25.66 h0.0001
M4.49,28.15 h0.0001
M6.07,25.67 h0.0001
M13.78,28.72 h0.0001
M16.18,26.4 h0.0001
M22.78,29.23 h0.0001
M28.01,26.96 h0.0001
M34.12,27.99 h0.0001
M38.23,25.56 h0.0001
M42.11,28.51 h0.0001
M47.52,27.4 h0.0001
M55.12,29.83 h0.0001
M56.15,25.86 h0.0001
M63.24,26.49 h0.0001
M67.33,25.74 h0.0001
M74.09,28.1 h0.0001
M79.8,26.07 h0.0001
M82.03,29.69 h0.0001
M88.21,27.05 h0.0001
M92.04,27.21 h0.0001
M97.78,29.45 h0.0001
M101.94,26.29 h0.0001
M108.87,26.94 h0.0001
M113.35,29.09 h0.0001
M119.54,27.65 h0.0001
M122.66,28.72 h0.0001
M128.08,27.5 h0.0001
M132.05,29.46 h0.0001
M137.07,26.87 h0.0001
M142.02,27.39 h0.0001
M145.9,27.25 h0.0001
M152.05,29.35 h0.0001
M157.63,26.2 h0.0001
M161.94,29.2 h0.0001
M169.01,26.74 h0.0001
M174.25,29.42 h0.0001
M177.26,26.97 h0.0001
M182.92,27.34 h0.0001
M187.63,28.37 h0.0001
M194.32,26.48 h0.0001
M198.15,27.15 h0.0001
M204.52,27.71 h0.0001
M209.69,26.62 h0.0001
M212.92,27.95 h0.0001
M219.76,25.51 h0.0001
M222.83,26.63 h0.0001
M227.48,32.38 h0.0001
M233.62,32.87 h0.0001
M236.33,34.53 h0.0001
M242.28,33.07 h0.0001
M248.61,32.48 h0.0001
M252.5,30.74 h0.0001
M1.93,31.43 h0.0001
M6.89,33.45 h0.0001
M11.47,33.67 h0.0001
M16.31,31.53 h0.0001
M20.9,34.05 h0.0001
M28.43,31.17 h0.0001
M32.73,33.67 h0.0001
M37.72,33.25 h0.0001
M42.2,32.93 h0.0001
M46.74,33.43 h0.0001
M51.02,31.26 h0.0001
M57.3,33.93 h0.0001
M62.63,31.22 h0.0001
M66.43,32.44 h0.0001
M71.58,33.3 h0.0001
M76.48,31.05 h0.0001
M82.87,33.83 h0.0001
M89.49,32.29 h0.0001
M91.69,34.54 h0.0001
M98.97,34.04 h0.0001
M104.3,33.4 h0.0001
M108.22,32.19 h0.0001
M112.39,32.88 h0.0001
M119.53,31.28 h0.0001
M121.74,34.48 h0.0001
M127.52,32.78 h0.0001
M132.74,33.15 h0.0001
M139.11,32.56 h0.0001
M144.09,33.5 h0.0001
M148.49,31.05 h0.0001
M153.8,34.1 h0.0001
M157.91,30.41 h0.0001
M163.77,33.76 h0.0001
M167.76,31.43 h0.0001
M171.86,33.49 h0.0001
M179.34,34.29 h0.0001
M181.1,31.76 h0.0001
M186.59,32.96 h0.0001
M194.32,30.73 h0.0001
M199.62,32.65 h0.0001
M202.15,33.48 h0.0001
M206.81,34.37 h0.0001
M211.43,32.17 h0.0001
M219.22,31.29 h0.0001
M223.6,33.97 h0.0001
M229.28,37.41 h0.0001
M233.56,39.2 h0.0001
M239.34,35.82 h0.0001
M242.13,38.04 h0.0001
M247.46,37.88 h0.0001
M252.62,37.55 h0.0001
M3.97,35.74 h0.0001
M6.55,39.48 h0.0001
M13.36,36.77 h0.0001
M18.12,39.33 h0.0001
M24.28,35.68 h0.0001
M26.9,36.11 h0.0001
M33.54,37.62 h0.0001
M36.86,36.78 h0.0001
M42.65,36.73 h0.0001
M48.62,36.87 h0.0001
M53.29,37.97 h0.0001
M58.37,37.65 h0.0001
M64.56,38.37 h0.0001
M68.01,35.77 h0.0001
M72.51,36.87 h0.0001
M79.07,39.23 h0.0001
M82.12,36.9 h0.0001
M87.62,37.27 h0.0001
M94.34,36.56 h0.0001
M96.64,35.61 h0.0001
M104.33,37.06 h0.0001
M107.69,38.98 h0.0001
M112.32,36.19 h0.0001
M117.45,36.91 h0.0001
M124.81,39.34 h0.0001
M129.81,37.87 h0.0001
M132.87,37.09 h0.0001
M138.97,38.5 h0.0001
M144.05,37.31 h0.0001
M149.44,38.86 h0.0001
M153.51,37.75 h0.0001
M159.05,36.11 h0.0001
M161.65,39.06 h0.0001
M170.09,38.42 h0.0001
M174.1,38.52 h0.0001
M179.04,38.67 h0.0001
M184.68,38.78 h0.0001
M189.64,36.16 h0.0001
M193.74,35.64 h0.0001
M197.7,36.46 h0.0001
M202.43,39.09 h0.0001
M207.26,39.02 h0.0001
M212.01,35.56 h0.0001
M218.38,37.24 h0.0001
M223.26,36.98 h0.0001
M228.83,42.42 h0.0001
M232.62,43.37 h0.0001
M239.03,42.4 h0.0001
M244.43,42.76 h0.0001
M249.64,43.84 h0.0001
M254.31,42.23 h0.0001
M2.15,42.54 h0.0001
M6.02,43.78 h0.0001
M11.69,42.5 h0.0001
M18.91,42.53 h0.0001
M23.01,42.69 h0.0001
M26.4,44.78 h0.0001
M30.47,42.43 h0.0001
M35.94,41.19 h0.0001
M41.74,42.6 h0.0001
M48.85,42.94 h0.0001
M52.1,41.53 h0.0001
M56.54,43.29 h0.0001
M60.97,42.54 h0.0001
M65.73,44.07 h0.0001
M71.03,40.84 h0.0001
M77.51,42.09 h0.0001
M81.55,44.51 h0.0001
M88.88,42.04 h0.0001
M92.24,43.46 h0.0001
M96.42,43.11 h0.0001
M101.8,43.73 h0.0001
M108.59,43.58 h0.0001
M113.31,41.63 h0.0001
M118.65,40.98 h0.0001
M121.55,43.13 h0.0001
M127.88,42.36 h0.0001
M134.28,43.78 h0.0001
M138.23,41.32 h0.0001
M143.32,42.19 h0.0001
M147.95,42.29 h0.0001
M154.36,42.27 h0.0001
M158.82,43.35 h0.0001
M161.98,42.75 h0.0001
M166.41,41.1 h0.0001
M174.26,43.93 h0.0001
M177.11,43.37 h0.0001
M184.34,41.48 h0.0001
M188.57,42.04 h0.0001
M193.09,41.11 h0.0001
M198.18,44.12 h0.0001
M201.78,42.93 h0.0001
M208.85,43.63 h0.0001
M214.32,40.09 h0.0001
M217.08,44.32 h0.0001
M221.76,42.8 h0.0001
M230.22,48.47 h0.0001
M233.53,46.98 h0.0001
M237.26,48.5 h0.0001
M241.52,47.92 h0.0001
M250.06,48.36 h0.0001
M252.57,47.47 h0.0001
M1.78,47.82 h0.0001
M9.18,46.35 h0.0001
M13.25,46.34 h0.0001
M16.19,49.83 h0.0001
M22.59,47.03 h0.0001
M28.92,48.48 h0.0001
M33.07,45.71 h0.0001
M38.5,47.72 h0.0001
M44.23,48.03 h0.0001
M47.51,46.77 h0.0001
M53.24,46.49 h0.0001
M57.27,46.57 h0.0001
M62.91,48.31 h0.0001
M68.22,48.77 h0.0001
M71.89,45.58 h0.0001
M77.7,46.45 h0.0001
M83.82,48.15 h0.0001
M87.03,48.23 h0.0001
M92.7,48.9 h0.0001
M97.67,46.9 h0.0001
M102.02,48.12 h0.0001
M108.14,47.02 h0.0001
M112.15,47.74 h0.0001
M118.78,47.51 h0.0001
M123.04,49.09 h0.0001
M129.15,47.92 h0.0001
M132.32,49.38 h0.0001
M138.56,48.39 h0.0001
M142.15,47.78 h0.0001
M147.25,48.55 h0.0001
M151.18,46.54 h0.0001
M158.11,48.02 h0.0001
M163.91,47.86 h0.0001
M168.63,47.63 h0.0001
M171.76,46.01 h0.0001
M178.08,48.61 h0.0001
M181.42,47.11 h0.0001
M186.48,46.76 h0.0001
M192.44,47.62 h0.0001
M199.07,47.16 h0.0001
M203.14,46.87 h0.0001
M208.93,46.97 h0.0001
M213.12,45.57 h0.0001
M218.01,49.34 h0.0001
M222.97,46.68 h0.0001
M227.41,51.29 h0.0001
M232.09,54.06 h0.0001
M238.92,51.75 h0.0001
M243.93,51.07 h0.0001
M247.67,52.03 h0.0001
M253.44,52.4 h0.0001
M4.31,52.11 h0.0001
M7.89,53.66 h0.0001
M10.89,50.69 h0.0001
M17.35,53.91 h0.0001
M21.6,53.85 h0.0001
M29.22,51.45 h0.0001
M32.86,52.57 h0.0001
M37.86,51.69 h0.0001
M41.61,52.93 h0.0001
M46.23,53.49 h0.0001
M54.08,53.94 h0.0001
M56.86,52.09 h0.0001
M62.8,53.27 h0.0001
M67.27,52.82 h0.0001
M71.71,51.49 h0.0001
M76.38,52.89 h0.0001
M80.99,51.25 h0.0001
M86.47,54.33 h0.0001
M94.14,51.65 h0.0001
M99.84,51.23 h0.0001
M103.07,53.79 h0.0001
M107.46,54.28 h0.0001
M113.79,50.69 h0.0001
M117.61,53.61 h0.0001
M121.2,53.62 h0.0001
M128.13,52.69 h0.0001
M134.48,52.92 h0.0001
M137.75,53.4 h0.0001
M143.37,54.49 h0.0001
M149.55,51.94 h0.0001
M154.56,52.61 h0.0001
M159.77,51.52 h0.0001
M163.57,52.38 h0.0001
M169.02,52.07 h0.0001
M173.5,52.88 h0.0001
M179.02,54.03 h0.0001
M185.11,51.99 h0.0001
M189.98,51.17 h0.0001
M195.26,51.71 h0.0001
M200.26,52.55 h0.0001
M205.15,52.62 h0.0001
M210.27,51.46 h0.0001
M213.29,53.63 h0.0001
M218.61,54.34 h0.0001
M224.19,52.86 h0.0001
M228.41,57.78 h0.0001
M233.77,57.19 h0.0001
M239.09,57.04 h0.0001
M243.02,59.55 h0.0001
M248.5,56.62 h0.0001
M252.13,57.55 h0.0001
M1.35,57.32 h0.0001
M9.39,58.54 h0.0001
M12.69,55.76 h0.0001
M17.83,59.33 h0.0001
M24.6,59.16 h0.0001
M29.28,56.42 h0.0001
M31.11,59.07 h0.0001
M38.67,57.16 h0.0001
M44.09,56.4 h0.0001
M48.82,57.25 h0.0001
M53.31,57.19 h0.0001
M59.57,56.34 h0.0001
M64.57,57.86 h0.0001
M70,58.59 h0.0001
M74.15,56.58 h0.0001
M79.31,55.96 h0.0001
M82.63,58.57 h0.0001
M88.06,57.18 h0.0001
M91.47,56.59 h0.0001
M97.24,57.55 h0.0001
M104.77,57.14 h0.0001
M109.02,59.36 h0.0001
M113.37,58.28 h0.0001
M118.33,57.32 h0.0001
M124.88,55.56 h0.0001
M128.41,58.46 h0.0001
M133.17,59.07 h0.0001
M138.52,57.47 h0.0001
M144.42,59.25 h0.0001
M148.03,58.04 h0.0001
M153.14,57.16 h0.0001
M159.94,56.13 h0.0001
M162.99,59.28 h0.0001
M168.64,57.79 h0.0001
M173.31,58.89 h0.0001
M178.71,57.6 h0.0001
M185.15,57.62 h0.0001
M189.37,56.13 h0.0001
M193.56,57.86 h0.0001
M197.29,57.12 h0.0001
M204.21,58.71 h0.0001
M208.26,56.33 h0.0001
M211.61,57.68 h0.0001
M218.37,58.78 h0.0001
M223.27,58.95 h0.0001
M227.11,62.58 h0.0001
M231.5,63.96 h0.0001
M237.09,61.76 h0.0001
M245.28,63.09 h0.0001
M249.6,63.07 h0.0001
M255.12,61.99 h0.0001
M4.2,64.27 h0.0001
M6.02,61.56 h0.0001
M13.31,60.74 h0.0001
M16.55,63.78 h0.0001
M21.16,63.68 h0.0001
M27.39,63.88 h0.0001
M33.29,63.56 h0.0001
M37.03,60.88 h0.0001
M41.47,64.67 h0.0001
M45.77,61.66 h0.0001
M54.12,62.95 h0.0001
M58.55,63.13 h0.0001
M62.18,63.1 h0.0001
M67.01,61.48 h0.0001
M73.03,61.01 h0.0001
M78.27,63.39 h0.0001
M83.52,64.05 h0.0001
M88.3,63.7 h0.0001
M93.56,60.82 h0.0001
M99.13,63.15 h0.0001
M102.27,62.78 h0.0001
M106.79,64.13 h0.0001
M113.36,63.76 h0.0001
M118.51,62.03 h0.0001
M123.27,60.97 h0.0001
M127.17,63.03 h0.0001
M134.36,64.94 h0.0001
M136.39,62.06 h0.0001
M141.38,61.64 h0.0001
M149.55,63.64 h0.0001
M152.71,61.76 h0.0001
M157.39,62.02 h0.0001
M162,61.9 h0.0001 m6.5999,0 h0.0001
M173.38,63.46 h0.0001
M178.66,62.8 h0.0001
M182.21,60.75 h0.0001
M188.04,63.77 h0.0001
M193.05,63.1 h0.0001
M198.85,64.42 h0.0001
M203.15,63.57 h0.0001
M208.77,61.13 h0.0001
M212.64,62.51 h0.0001
M218.62,64.31 h0.0001
M222.94,64.05 h0.0001
M229.95,67.65 h0.0001
M234.61,66.62 h0.0001
M239.09,66.68 h0.0001
M242.25,67.83 h0.0001
M247.47,68.38 h0.0001
M254.62,66.9 h0.0001
M2.88,67.7 h0.0001
M6.6,67.74 h0.0001
M11.74,66.68 h0.0001
M17.45,69.24 h0.0001
M23.25,67.96 h0.0001
M27.24,68.56 h0.0001
M31.78,68.62 h0.0001
M37.51,69.02 h0.0001
M43.24,68.22 h0.0001
M48.07,68.17 h0.0001
M50.67,65.24 h0.0001
M56.5,67.76 h0.0001
M63.05,67.67 h0.0001
M69.15,65.7 h0.0001
M71.05,68.16 h0.0001
M77.82,68.29 h0.0001
M81.32,67.64 h0.0001
M88.55,66.93 h0.0001
M92.38,67.23 h0.0001
M96.51,66.55 h0.0001
M101.94,66.43 h0.0001
M109.7,67.94 h0.0001
M113.34,67.62 h0.0001
M117.13,68.51 h0.0001
M122.39,68.87 h0.0001
M127.22,67.47 h0.0001
M131.14,68.34 h0.0001
M138.25,68.7 h0.0001
M141.73,66.5 h0.0001
M147.34,67.73 h0.0001
M152.47,67.67 h0.0001
M158.67,66.46 h0.0001
M164.47,67.14 h0.0001
M167.1,69.54 h0.0001
M174.24,69.49 h0.0001
M179.19,68 h0.0001
M184.02,66.09 h0.0001
M188.5,68.37 h0.0001
M193.23,66.59 h0.0001
M199.13,69.45 h0.0001
M203.36,67.85 h0.0001
M207.14,66.95 h0.0001
M213.96,66.46 h0.0001
M218.65,68.16 h0.0001
M225.36,68.21 h0.0001
M228.04,73.28 h0.0001
M234.58,71.12 h0.0001
M239.73,71.72 h0.0001
M244.1,73.08 h0.0001
M248.33,72.71 h0.0001
M251.86,74.59 h0.0001
M1.17,71.59 h0.0001
M5.82,72.48 h0.0001
M10.93,73.81 h0.0001
M16.44,72.84 h0.0001
M22.79,71.55 h0.0001
M28.42,74.07 h0.0001
M31.04,72.06 h0.0001
M37.51,73.78 h0.0001
M44.15,71.83 h0.0001
M48.98,73.38 h0.0001
M52.37,70.93 h0.0001
M57.43,74.29 h0.0001
M62.27,72.32 h0.0001
M66.39,72.6 h0.0001
M73.27,72.96 h0.0001
M79.65,74.22 h0.0001
M83.34,73.86 h0.0001
M89.54,72.34 h0.0001
M91.61,74.76 h0.0001
M97.25,73.44 h0.0001
M102.19,71.62 h0.0001
M106.38,71.36 h0.0001
M111.71,71.93 h0.0001
M116.17,74.66 h0.0001
M122.98,73.67 h0.0001
M128.91,72.27 h0.0001
M133.72,73.81 h0.0001
M138.94,71.54 h0.0001
M143.23,74.07 h0.0001
M146.57,71.33 h0.0001
M151.53,73.77 h0.0001
M158.68,71.24 h0.0001
M162.64,71.59 h0.0001
M166.05,74.39 h0.0001
M172.85,73.48 h0.0001
M179.94,73.33 h0.0001
M181.76,70.82 h0.0001
M187.28,71.74 h0.0001
M192.77,73.41 h0.0001
M197.64,73.49 h0.0001
M203.29,71.75 h0.0001
M208.91,74.49 h0.0001
M213.14,72.01 h0.0001
M218.91,72.24 h0.0001
M223.66,71.73 h0.0001
M230.49,77.73 h0.0001
M234.27,76.02 h0.0001
M239.83,77.02 h0.0001
M244.59,76.87 h0.0001
M248.09,78.46 h0.0001
M254.69,77.02 h0.0001
M3.98,79.58 h0.0001
M7.35,76.26 h0.0001
M11.12,77.4 h0.0001
M17.55,76.59 h0.0001
M21.5,79.1 h0.0001
M28.5,78.31 h0.0001
M32.65,77.29 h0.0001
M37.38,78.36 h0.0001
M43.09,78.89 h0.0001
M49.3,76.32 h0.0001
M53.63,78.05 h0.0001
M56.96,79.49 h0.0001
M63.72,76.38 h0.0001
M68.08,78.37 h0.0001
M72.71,77.38 h0.0001
M77.01,76.81 h0.0001
M83.96,78.35 h0.0001
M89.46,77.98 h0.0001
M94.48,79.22 h0.0001
M99.53,76.64 h0.0001
M102.87,77.67 h0.0001
M107.51,77.56 h0.0001
M111.55,77.9 h0.0001
M118.7,76.61 h0.0001
M121.43,79.24 h0.0001
M127.22,75.88 h0.0001
M134.47,77.79 h0.0001
M137.35,79.4 h0.0001
M141.77,78.41 h0.0001
M148.33,76.36 h0.0001
M153.15,76.58 h0.0001
M158.79,78.35 h0.0001
M162.23,79.51 h0.0001
M168.16,76.76 h0.0001
M174.38,78.65 h0.0001
M178.06,76.82 h0.0001
M183.38,75.9 h0.0001
M186.95,78.81 h0.0001
M191.89,77.35 h0.0001
M200.06,76.31 h0.0001
M204.53,77.77 h0.0001
M206.57,80.15 h0.0001
M212.99,76.18 h0.0001
M216.8,77.52 h0.0001
M224.52,76.86 h0.0001
M229.41,82.29 h0.0001
M232.59,81.12 h0.0001
M239.31,84.66 h0.0001
M242.48,82.36 h0.0001
M247.16,83.42 h0.0001
M254.84,83.34 h0.0001
M3.56,83.66 h0.0001
M9.14,82.2 h0.0001
M11.65,81.51 h0.0001
M17.53,80.93 h0.0001
M23.97,83.21 h0.0001
M27.5,84.09 h0.0001
M31.29,82.2 h0.0001
M37.85,81.42 h0.0001
M43.83,82.94 h0.0001
M47.71,83.37 h0.0001
M52.17,81.99 h0.0001
M58.75,84.04 h0.0001
M63.53,81.38 h0.0001
M68.13,82.5 h0.0001
M72.31,81.79 h0.0001
M77.24,82.75 h0.0001
M81.7,83.94 h0.0001
M88.42,83.2 h0.0001
M94.91,83.42 h0.0001
M97.82,84.86 h0.0001
M101.94,83.47 h0.0001
M109.06,83.22 h0.0001
M113.14,83.91 h0.0001
M118.15,83.81 h0.0001
M124.25,83.19 h0.0001
M127.84,84.14 h0.0001
M131.07,80.98 h0.0001
M137.85,83.25 h0.0001
M143.76,81.4 h0.0001
M149.53,82.78 h0.0001
M153.91,81.18 h0.0001
M157.82,82.84 h0.0001
M162.09,84.64 h0.0001
M166.72,82.29 h0.0001
M172.03,82.95 h0.0001
M177.19,81.18 h0.0001
M183.54,83.25 h0.0001
M189.86,83.13 h0.0001
M193.83,82.54 h0.0001
M197.36,81.64 h0.0001
M203.29,83.94 h0.0001
M210.12,81.34 h0.0001
M214.44,83.86 h0.0001
M218.43,81.49 h0.0001
M223.37,81.95 h0.0001
M226.92,89.25 h0.0001
M232.01,88.25 h0.0001
M237.39,88.96 h0.0001
M242.68,86.7 h0.0001
M250.23,85.74 h0.0001
M252.79,89.05 h0.0001
M4.67,89.41 h0.0001
M7.79,86.53 h0.0001
M14.68,86.32 h0.0001
M17.98,89.23 h0.0001
M23,88.97 h0.0001
M28.46,88.54 h0.0001
M33.88,88.24 h0.0001
M37.58,88.89 h0.0001
M40.76,86.56 h0.0001
M46.18,87.28 h0.0001
M53.63,86.46 h0.0001
M57.29,87.86 h0.0001
M62.24,88.53 h0.0001
M68.63,87.78 h0.0001
M74.17,86.7 h0.0001
M78.9,88.86 h0.0001
M84.26,87.14 h0.0001
M87.23,89.02 h0.0001
M92.03,86.09 h0.0001
M96.41,89.06 h0.0001
M103.64,86.22 h0.0001
M106.95,88.11 h0.0001
M111.61,89.21 h0.0001
M118.88,89.01 h0.0001
M121.89,89.46 h0.0001
M126.77,86.77 h0.0001
M134.33,88.81 h0.0001
M137.23,88.56 h0.0001
M143.36,88.69 h0.0001
M147.23,86.11 h0.0001
M153.82,89.32 h0.0001
M156.28,86.92 h0.0001
M163.55,87.79 h0.0001
M168.01,89.79 h0.0001
M175.07,86.87 h0.0001
M179.35,87.78 h0.0001
M182.02,87.14 h0.0001
M187.08,86.36 h0.0001
M192.92,88.03 h0.0001
M198.97,87.5 h0.0001
M203.13,87.2 h0.0001
M208.08,88.83 h0.0001
M212.5,88.32 h0.0001
M217.18,89.1 h0.0001
M222.51,88.12 h0.0001
M229.11,92.09 h0.0001
M232.32,91.37 h0.0001
M236.79,93.93 h0.0001
M244.28,93.4 h0.0001
M248.72,91.31 h0.0001
M253.36,94.28 h0.0001
M2.57,91.54 h0.0001
M8.29,90.93 h0.0001
M12.39,92.75 h0.0001
M15.52,94.48 h0.0001
M23.79,93.84 h0.0001
M28.16,93.4 h0.0001
M32.33,91.64 h0.0001
M36.71,94.38 h0.0001
M42.71,92.57 h0.0001
M48.24,93.19 h0.0001
M52.54,91.29 h0.0001
M58.07,93.72 h0.0001
M63.98,91.6 h0.0001
M68.76,92.08 h0.0001
M73.01,90.77 h0.0001
M76.32,91.34 h0.0001
M84.21,94.73 h0.0001
M86.47,92.12 h0.0001
M92.2,93.71 h0.0001
M96.61,93.18 h0.0001
M103.88,94.16 h0.0001
M109.05,92.75 h0.0001
M114.92,91.58 h0.0001
M118.72,93.84 h0.0001
M124.62,91.09 h0.0001
M127.28,94.37 h0.0001
M133.79,92.05 h0.0001
M137.04,94.15 h0.0001
M145.39,91.3 h0.0001
M149.36,91.66 h0.0001
M152.74,94.78 h0.0001
M159.92,93 h0.0001
M162.13,91.11 h0.0001
M168.69,94.18 h0.0001
M172.08,90.85 h0.0001
M177.94,93.35 h0.0001
M181.74,92.14 h0.0001
M187.32,91.25 h0.0001
M192.99,91.98 h0.0001
M197.95,94.32 h0.0001
M202.92,91.38 h0.0001
M206.68,93.81 h0.0001
M211.72,91.04 h0.0001
M219.82,93.99 h0.0001
M224,94.4 h0.0001
M229.59,98.23 h0.0001
M233.04,96.41 h0.0001
M240.21,95.5 h0.0001
M242.42,99.65 h0.0001
M246.8,97.38 h0.0001
M251.53,97.47 h0.0001
M3.98,97.14 h0.0001
M8.26,98.8 h0.0001
M13.43,99.27 h0.0001
M17.94,96.16 h0.0001
M21.48,98.37 h0.0001
M27.86,97.05 h0.0001
M31.65,99.72 h0.0001
M38.19,99.1 h0.0001
M44.18,97.68 h0.0001
M48.06,97.13 h0.0001
M53.2,96.17 h0.0001
M57.01,97.92 h0.0001
M62.75,96.5 h0.0001
M68.27,96.35 h0.0001
M73.73,97.97 h0.0001
M77.07,97.49 h0.0001
M83.27,98.8 h0.0001
M88.37,98.39 h0.0001
M93,99.2 h0.0001
M98.38,97.06 h0.0001
M103.14,97.57 h0.0001
M109.47,98.69 h0.0001
M114.5,98.09 h0.0001
M115.9,96.06 h0.0001
M121.78,96.89 h0.0001
M128.74,96.52 h0.0001
M132.38,98.31 h0.0001
M137.74,98.33 h0.0001
M142.66,96.22 h0.0001
M146.69,97.99 h0.0001
M152.03,98.54 h0.0001
M157.15,96 h0.0001
M164.12,97.96 h0.0001
M169.15,98.97 h0.0001
M172.91,98.48 h0.0001
M178.97,98.77 h0.0001
M183.69,98.12 h0.0001
M188.37,97.46 h0.0001
M193.57,95.93 h0.0001
M197.66,99.05 h0.0001
M201.57,99.43 h0.0001
M209.16,96.13 h0.0001
M212.39,96.07 h0.0001
M217.91,97.24 h0.0001
M222.53,97.72 h0.0001
M229.53,102.33 h0.0001
M232.66,103.8 h0.0001
M238.28,102.01 h0.0001
M244.18,103.51 h0.0001
M249.13,104.49 h0.0001
M253.72,102.43 h0.0001
M1.47,102.35 h0.0001
M6.67,101.31 h0.0001
M11.71,102.99 h0.0001
M18.05,102.34 h0.0001
M23.39,101.91 h0.0001
M27.92,104.44 h0.0001
M34.46,102.39 h0.0001
M37.74,101.55 h0.0001
M44.4,101.24 h0.0001
M48.72,103.5 h0.0001
M54.22,101.34 h0.0001
M58.87,104.22 h0.0001
M61.86,101.49 h0.0001
M66.85,101.65 h0.0001
M70.91,101.36 h0.0001
M77.26,103.02 h0.0001
M83.63,104.47 h0.0001
M87.37,102.43 h0.0001
M91.59,103.84 h0.0001
M98.53,102.79 h0.0001
M101.6,103.74 h0.0001
M109.45,103.14 h0.0001
M114.89,102.67 h0.0001
M119.08,103.46 h0.0001
M122.75,101.56 h0.0001
M128.31,102.7 h0.0001
M132.48,101.96 h0.0001
M138.68,103.24 h0.0001
M143.15,104.11 h0.0001
M148.49,103.51 h0.0001
M154.72,102.06 h0.0001
M159.22,103.22 h0.0001
M163.27,101.36 h0.0001
M169.2,103.02 h0.0001
M173.69,103.76 h0.0001
M176.61,101.59 h0.0001
M185.02,101.57 h0.0001
M186.43,104.11 h0.0001
M193.32,101.48 h0.0001
M199.04,103.71 h0.0001
M205.3,103.17 h0.0001
M208.28,103.41 h0.0001
M212.65,101.75 h0.0001
M217.13,102.69 h0.0001
M222.37,101.46 h0.0001
M229.69,107.06 h0.0001
M235.05,108.55 h0.0001
M239.97,106.77 h0.0001
M244.94,107.47 h0.0001
M250.51,108.86 h0.0001
M254.89,106.44 h0.0001
M3.94,106.48 h0.0001
M7.66,107.37 h0.0001
M14.16,108.82 h0.0001
M18.43,108.75 h0.0001
M21.98,106.24 h0.0001
M28.19,108.66 h0.0001
M32.36,108.64 h0.0001
M38,106.82 h0.0001
M43.27,108.3 h0.0001
M49.02,107.99 h0.0001
M52.08,108.34 h0.0001
M57.65,107.86 h0.0001
M62.5,108.22 h0.0001
M68.59,108.63 h0.0001
M71.38,107.63 h0.0001
M79,108.11 h0.0001
M83.19,107.24 h0.0001
M89.63,106.73 h0.0001
M92.42,108.35 h0.0001
M97.99,108.78 h0.0001
M103.46,108.02 h0.0001
M106.67,107.78 h0.0001
M111.55,108.97 h0.0001
M117.82,108.24 h0.0001
M123.57,107.61 h0.0001
M127.66,107.87 h0.0001
M134.17,106.42 h0.0001
M138.74,108.88 h0.0001
M142.17,109.4 h0.0001
M147.65,107.99 h0.0001
M152.24,108.51 h0.0001
M156.3,107.11 h0.0001
M162.67,107.17 h0.0001
M166.93,107.25 h0.0001
M174.3,106.7 h0.0001
M177.66,109.5 h0.0001
M181.48,106.63 h0.0001
M187.4,107.19 h0.0001
M191.82,106.88 h0.0001
M199.47,107.35 h0.0001
M203.59,108.44 h0.0001
M209.86,108.85 h0.0001
M215.24,106.66 h0.0001
M220.31,107.09 h0.0001
M223.81,107.57 h0.0001
M227.86,111.71 h0.0001
M231.8,113.4 h0.0001
M240.1,113.5 h0.0001
M243.91,114.19 h0.0001
M248.01,113.62 h0.0001
M252.29,113.17 h0.0001
M2.53,111.1 h0.0001
M7.66,112.97 h0.0001
M11.21,112.16 h0.0001
M15.85,113.95 h0.0001
M21.21,111.89 h0.0001
M26.18,113.49 h0.0001 m6.2999,0 h0.0001
M36.82,111.2 h0.0001
M42.68,111.53 h0.0001
M45.86,114.41 h0.0001
M50.81,114.05 h0.0001
M59.7,114.46 h0.0001
M61.77,111.41 h0.0001
M67.04,112.64 h0.0001
M73.82,111.71 h0.0001
M78.3,114.77 h0.0001
M80.92,111.83 h0.0001
M87.44,111.86 h0.0001
M93.04,111.62 h0.0001
M99.05,112.29 h0.0001
M103.21,112.08 h0.0001
M107.62,113.66 h0.0001
M113.49,112.53 h0.0001
M116.92,111.52 h0.0001
M124.52,113.4 h0.0001
M126.66,115.14 h0.0001
M133.17,111.69 h0.0001
M139.38,114.51 h0.0001
M143.96,113.1 h0.0001
M148.71,112.78 h0.0001
M153.18,114.55 h0.0001
M158.92,111.96 h0.0001
M164.37,113.07 h0.0001
M168.05,111.87 h0.0001
M171.66,114.43 h0.0001
M178.39,112.18 h0.0001
M182.1,114.17 h0.0001
M187.14,111.4 h0.0001
M194.46,113.51 h0.0001
M199.06,111.27 h0.0001
M201.69,112.8 h0.0001
M206.81,112.17 h0.0001
M211.76,112.73 h0.0001
M217.5,113.19 h0.0001
M224.24,112.54 h0.0001
M229.52,116.79 h0.0001
M233.57,119.45 h0.0001
M238.73,117.14 h0.0001
M242.54,119.18 h0.0001
M249.95,118.69 h0.0001
M254.39,116.76 h0.0001
M3.05,117.26 h0.0001
M7.38,117.64 h0.0001
M13.23,117.59 h0.0001
M16.59,118.02 h0.0001
M22.12,116.59 h0.0001
M28.97,118.13 h0.0001
M31.59,117.35 h0.0001
M38.55,116.77 h0.0001
M43.99,116.79 h0.0001
M48.43,118.81 h0.0001
M53.77,116.15 h0.0001
M57.11,117.66 h0.0001
M62.83,119.19 h0.0001
M67.05,117.67 h0.0001
M71.11,116.01 h0.0001
M75.82,118.29 h0.0001
M81.65,116.81 h0.0001
M87.73,116.72 h0.0001
M91.83,116.51 h0.0001
M97.21,116.84 h0.0001
M102.9,116.93 h0.0001
M106.68,118.1 h0.0001
M114.69,117.28 h0.0001
M118.8,119.46 h0.0001
M122.51,119.06 h0.0001
M129.02,118.21 h0.0001
M133.51,119.48 h0.0001
M136.54,116.21 h0.0001
M143.62,117.9 h0.0001
M147.47,118.46 h0.0001
M153.16,119.12 h0.0001
M157.47,117.45 h0.0001
M162.63,118.3 h0.0001
M167.47,118.95 h0.0001
M173.09,118.13 h0.0001
M178.66,119.38 h0.0001
M182.02,119.06 h0.0001
M189.31,116.18 h0.0001
M192.07,116.82 h0.0001
M199.54,119.16 h0.0001
M203.99,119.05 h0.0001
M207.54,117.79 h0.0001
M213.64,116.51 h0.0001
M218.05,116.96 h0.0001
M223.3,119.39 h0.0001
M229.15,124.5 h0.0001
M231.58,122.23 h0.0001
M237.92,121.56 h0.0001
M244.82,122.44 h0.0001
M247.94,124.74 h0.0001
M251.87,122.95 h0.0001
M0.81,124.47 h0.0001
M5.6,121.48 h0.0001
M13.14,124.74 h0.0001
M16.9,121.47 h0.0001
M23.02,122.11 h0.0001
M28.79,123.96 h0.0001
M33.21,121.92 h0.0001
M37.68,123.38 h0.0001
M43.94,124.54 h0.0001
M47.94,122.77 h0.0001
M51.92,122.16 h0.0001
M57.04,122.94 h0.0001
M63.2,123.78 h0.0001
M67.97,122.25 h0.0001
M72.43,122.93 h0.0001
M79.2,121.72 h0.0001
M83.14,123.02 h0.0001
M87.9,121.05 h0.0001
M94.7,124.23 h0.0001
M97.71,122.49 h0.0001
M102.37,122.76 h0.0001
M107.15,124.55 h0.0001
M112.76,121.38 h0.0001
M118.81,123.61 h0.0001
M123.04,123.11 h0.0001
M126.41,124.47 h0.0001
M131.45,122.19 h0.0001
M137.14,121.77 h0.0001
M141.45,122.65 h0.0001
M146.83,122.75 h0.0001
M152.61,124.43 h0.0001
M157.73,122.64 h0.0001
M161.62,121.38 h0.0001
M167.73,123.51 h0.0001
M172.99,121.76 h0.0001
M177.28,123.07 h0.0001
M184.71,122.06 h0.0001
M187.96,123.68 h0.0001
M194.88,121.26 h0.0001
M199.58,123.34 h0.0001
M202.61,123.31 h0.0001
M209.72,121.09 h0.0001
M213.54,123.36 h0.0001
M219.56,120.87 h0.0001
M222.09,124.06 h0.0001
M227.22,127.65 h0.0001
M234.49,126.8 h0.0001
M239.68,126.94 h0.0001
M242.67,127.59 h0.0001
M248.7,128.57 h0.0001
M253.01,127.93 h0.0001
M5.02,126.06 h0.0001
M6.54,128.81 h0.0001
M13.42,128.08 h0.0001
M17.46,126.85 h0.0001
M22.83,127.17 h0.0001
M27.14,128.85 h0.0001
M31.63,126.83 h0.0001
M37.17,128 h0.0001
M41.2,126.24 h0.0001
M47.57,128.54 h0.0001
M50.99,129.2 h0.0001
M58.42,129.02 h0.0001
M63.09,128.56 h0.0001
M68.02,129.83 h0.0001
M74.25,125.55 h0.0001
M76.3,127.34 h0.0001
M84.26,126.72 h0.0001
M87.26,126.29 h0.0001
M91.19,126.08 h0.0001
M96.15,128.98 h0.0001
M103.11,129.46 h0.0001
M109.38,128.64 h0.0001
M113.41,127.52 h0.0001
M116.71,129.15 h0.0001 m4.9699,0 h0.0001
M129.68,128.98 h0.0001
M132.28,126.27 h0.0001
M138.58,126.72 h0.0001
M143.33,127.1 h0.0001
M148.51,129.61 h0.0001
M153.9,128.13 h0.0001
M157.38,126.88 h0.0001
M162.44,128.77 h0.0001
M168.61,129.15 h0.0001
M172.87,126.17 h0.0001
M178.07,128.9 h0.0001
M184.88,126.57 h0.0001
M190.19,127.82 h0.0001
M193.15,125.36 h0.0001
M196.88,127.49 h0.0001
M203.39,128.01 h0.0001
M208.67,126.86 h0.0001
M214.2,128.16 h0.0001
M218.46,128.2 h0.0001
M221.93,127.57 h0.0001
M229.6,131.99 h0.0001
M234.87,131.26 h0.0001
M238.14,133.3 h0.0001
M242.9,132.01 h0.0001
M248.74,134.14 h0.0001
M252.72,132.57 h0.0001
M2.23,131.42 h0.0001
M8.15,133.65 h0.0001
M11.32,134.33 h0.0001
M17.72,131.64 h0.0001
M21.39,132.14 h0.0001
M28.85,131.66 h0.0001
M34.06,131.48 h0.0001
M39.5,134.51 h0.0001
M43.67,132.91 h0.0001
M46.86,133.47 h0.0001
M53.68,130.65 h0.0001
M56.34,131.36 h0.0001
M60.96,133.43 h0.0001
M66.29,134.83 h0.0001
M73.23,131.18 h0.0001
M76.55,132.15 h0.0001
M82.31,133.83 h0.0001
M86.65,132.62 h0.0001
M91.44,132.01 h0.0001
M99.3,132.09 h0.0001
M101.28,134.19 h0.0001
M106.68,132.06 h0.0001
M111.92,131.44 h0.0001
M116.61,133.2 h0.0001
M121.59,132.17 h0.0001
M128.19,132.54 h0.0001
M132.5,134.63 h0.0001
M138.34,131.17 h0.0001
M141.87,133.96 h0.0001
M148.52,133.44 h0.0001
M153.15,131.72 h0.0001
M157.87,131.84 h0.0001
M164.06,132.58 h0.0001
M169.42,132.75 h0.0001
M171.95,134.54 h0.0001
M179.27,132.18 h0.0001
M182.51,132.36 h0.0001
M188.45,131.33 h0.0001
M193.24,132.44 h0.0001
M198.46,133.08 h0.0001
M203.93,132.79 h0.0001
M208.93,132.68 h0.0001
M212.58,134.52 h0.0001
M219.99,131.76 h0.0001
M221.77,134.44 h0.0001
M229.07,136.33 h0.0001
M233.43,138.09 h0.0001
M237.95,137.31 h0.0001
M242.41,138.02 h0.0001
M250.2,137.11 h0.0001
M254.32,139.54 h0.0001
M1.13,136.94 h0.0001
M6.12,139.02 h0.0001
M12.66,138.6 h0.0001
M18.68,136.51 h0.0001
M21.75,139.37 h0.0001
M25.99,137.47 h0.0001
M31.83,138.06 h0.0001
M37.64,138.79 h0.0001
M42.72,138.94 h0.0001
M46.63,139.33 h0.0001
M53.95,136.96 h0.0001
M58.7,138.58 h0.0001
M61.55,136.92 h0.0001
M69.56,138.53 h0.0001
M72.86,135.87 h0.0001
M77.63,136.39 h0.0001
M81.69,139.04 h0.0001
M89.12,139.65 h0.0001
M91.82,137.51 h0.0001
M96.59,137.09 h0.0001
M101.78,139.29 h0.0001
M109.38,139.69 h0.0001
M112.67,137.24 h0.0001
M118.12,138.41 h0.0001
M122.95,138.88 h0.0001
M126.37,137.54 h0.0001
M130.62,139.83 h0.0001
M138.18,137.63 h0.0001
M143.43,137.11 h0.0001
M147.83,139.14 h0.0001
M153.78,138.59 h0.0001
M159.13,139.54 h0.0001
M163.41,138.15 h0.0001
M168.72,138.39 h0.0001
M173.08,137.34 h0.0001
M178.71,138.77 h0.0001
M181.81,136.18 h0.0001
M188.91,138.36 h0.0001
M193.13,137.77 h0.0001
M198.34,139.49 h0.0001
M202.88,137.14 h0.0001
M207.09,137.41 h0.0001
M211.63,138.6 h0.0001
M216.75,137.23 h0.0001
M222.31,138.08 h0.0001
M227.66,143.03 h0.0001
M233.65,143.34 h0.0001
M237.44,142.66 h0.0001
M242.81,143.73 h0.0001
M246.97,141.29 h0.0001
M251.28,144.36 h0.0001
M1.47,144.54 h0.0001
M9.09,143.12 h0.0001
M13.92,141.75 h0.0001
M19.11,142.31 h0.0001
M24.45,144.64 h0.0001
M28,141.76 h0.0001
M32.31,143.24 h0.0001
M36.71,143.39 h0.0001
M43.41,144.2 h0.0001
M46.42,144 h0.0001
M52.72,141.78 h0.0001
M57.58,143.23 h0.0001
M62.12,141.66 h0.0001
M68.44,143.52 h0.0001
M73.94,143.53 h0.0001
M77,141.47 h0.0001
M83.97,142.35 h0.0001
M87.59,144.64 h0.0001
M92.71,142.75 h0.0001
M98.46,142.78 h0.0001
M101.9,142.88 h0.0001
M106.84,143.6 h0.0001
M114.54,142.09 h0.0001
M116.47,144.43 h0.0001
M122.76,144.8 h0.0001
M129.34,144.51 h0.0001
M133.99,140.89 h0.0001
M136.63,141.88 h0.0001
M142.73,141.79 h0.0001
M146.25,141.41 h0.0001
M153.04,143.44 h0.0001
M159.33,144.54 h0.0001
M162.51,142.5 h0.0001
M169.53,143.15 h0.0001
M174.71,143.8 h0.0001
M178.64,143.32 h0.0001
M182.42,142.77 h0.0001
M188.52,142.99 h0.0001
M193.55,142.74 h0.0001
M200.65,140.91 h0.0001
M201.11,144.51 h0.0001
M206.7,141.98 h0.0001
M212.83,144.62 h0.0001
M218.7,142.58 h0.0001
M224.92,141.25 h0.0001
M227.04,146.06 h0.0001
M233.16,149.26 h0.0001
M237.77,146.96 h0.0001
M242.25,148.95 h0.0001
M248.54,149.52 h0.0001
M252.76,148.24 h0.0001
M3.75,145.95 h0.0001
M6.54,147.2 h0.0001
M11.29,149.23 h0.0001
M16.9,149.37 h0.0001
M20.71,147.23 h0.0001
M29.12,147.07 h0.0001
M34.06,147.48 h0.0001
M38.98,148.49 h0.0001
M43.34,147.76 h0.0001
M48.39,147.79 h0.0001
M54.13,146.95 h0.0001
M59.33,149.07 h0.0001
M63.49,146.23 h0.0001
M68.73,149.09 h0.0001
M71.12,147.04 h0.0001
M77.76,147.33 h0.0001
M81.67,146.63 h0.0001
M89.26,149.25 h0.0001
M94.55,146.66 h0.0001
M97.86,148.45 h0.0001
M101.74,147.9 h0.0001
M108.98,147.26 h0.0001
M112.17,149.19 h0.0001
M117.49,149.38 h0.0001
M123.91,149.04 h0.0001
M129.61,149.97 h0.0001
M132.77,148.81 h0.0001
M138.38,148.57 h0.0001
M141.95,147.03 h0.0001
M148.79,147.47 h0.0001
M151.75,146.68 h0.0001
M156.15,149.67 h0.0001
M163.89,148.78 h0.0001
M168.56,148.18 h0.0001
M172.94,148.48 h0.0001
M178.29,146.58 h0.0001
M182.04,148.87 h0.0001
M187.14,146.76 h0.0001
M193.35,148.03 h0.0001
M199.28,148.42 h0.0001
M202.43,147.29 h0.0001
M208.68,148.11 h0.0001
M212.07,149.7 h0.0001
M217.55,148.17 h0.0001
M224.63,147.49 h0.0001
M227.14,151.3 h0.0001
M233.95,153.05 h0.0001
M238.44,154.3 h0.0001
M242.23,152.32 h0.0001
M250.01,152.64 h0.0001
M254.01,154.08 h0.0001
M3.23,154.09 h0.0001
M7.52,151.19 h0.0001
M13.57,151.34 h0.0001
M19.21,151.29 h0.0001
M23.68,153.22 h0.0001
M29.06,151.19 h0.0001
M32.5,153.68 h0.0001
M36.4,153.73 h0.0001
M43.08,154.02 h0.0001
M46.24,152.2 h0.0001
M54.15,155.33 h0.0001
M55.6,152.21 h0.0001
M62.74,153.05 h0.0001
M69.05,152.6 h0.0001
M74.55,153.8 h0.0001
M78.92,153.85 h0.0001
M83.54,151.86 h0.0001
M86.65,153.99 h0.0001
M92.55,153.69 h0.0001
M96.91,153.41 h0.0001
M101.11,154.48 h0.0001
M109.34,154 h0.0001
M111.76,152.58 h0.0001
M119.16,154.99 h0.0001
M121.33,151.7 h0.0001
M126.3,152.39 h0.0001
M133.95,153.46 h0.0001
M140.04,154.31 h0.0001
M143.73,151.33 h0.0001
M149.36,150.92 h0.0001
M151.79,152.9 h0.0001
M159.07,152.68 h0.0001
M162.23,154.95 h0.0001
M168.31,152.5 h0.0001
M174.73,151.8 h0.0001
M179.07,153.19 h0.0001
M184.76,151.83 h0.0001
M190.05,151.09 h0.0001
M192.74,152.73 h0.0001
M198.95,154.88 h0.0001
M205.04,151.17 h0.0001
M207.3,153.46 h0.0001
M213.9,153.78 h0.0001
M219.67,153.5 h0.0001
M224.19,151.67 h0.0001
M228.29,156.87 h0.0001
M234.72,159.38 h0.0001
M240.33,157.28 h0.0001
M244.46,156.64 h0.0001
M249.82,158.75 h0.0001
M254.93,159.56 h0.0001
M3.32,157.87 h0.0001
M7.05,159.3 h0.0001
M12.16,156.69 h0.0001
M17.8,158.5 h0.0001
M21.29,159.15 h0.0001
M26.15,159.81 h0.0001
M32.79,156.54 h0.0001
M36.56,157.4 h0.0001
M43.93,157.69 h0.0001
M47.6,156.7 h0.0001
M52.56,159.22 h0.0001
M57.7,156.09 h0.0001
M61.15,157.33 h0.0001
M66.27,157.29 h0.0001
M71.48,156.46 h0.0001
M76.7,157.11 h0.0001
M83.11,159.31 h0.0001
M89.01,156.04 h0.0001
M90.52,159.66 h0.0001
M98.93,156.47 h0.0001
M103.19,156.23 h0.0001
M109.14,157.73 h0.0001
M113.54,158.47 h0.0001
M117.82,159.56 h0.0001
M122.84,159.26 h0.0001
M129.47,159.13 h0.0001
M133.21,156.63 h0.0001
M138.81,158.6 h0.0001
M144.71,158.09 h0.0001
M148.21,156.95 h0.0001
M153.36,157.17 h0.0001
M158.81,156.96 h0.0001
M164.76,157.41 h0.0001
M167.94,157.63 h0.0001
M171.78,158.36 h0.0001
M178.51,158.53 h0.0001
M183.85,156.11 h0.0001
M188.12,158.79 h0.0001
M191.57,159.29 h0.0001
M197.79,158.54 h0.0001
M203.18,156.8 h0.0001
M208.8,158.15 h0.0001
M215.09,158.85 h0.0001
M218.32,157.09 h0.0001
M222.35,157.02 h0.0001
M227.02,163.08 h0.0001
M231.39,161.32 h0.0001
M240.19,162.59 h0.0001
M242.39,164.73 h0.0001
M247.06,163.03 h0.0001
M252.96,164.77 h0.0001
M3.77,161.43 h0.0001
M9.51,161.13 h0.0001
M11.71,165.02 h0.0001
M17.49,163.64 h0.0001
M21.06,162.62 h0.0001
M29.74,164.84 h0.0001
M31.14,162.42 h0.0001
M37.03,161.68 h0.0001
M41.08,161.17 h0.0001
M46.57,162.03 h0.0001
M54.25,163.56 h0.0001
M58.47,164.19 h0.0001
M61.85,162.11 h0.0001
M68.21,162.05 h0.0001
M71.91,161.77 h0.0001
M79.07,163.97 h0.0001
M83.79,163.05 h0.0001
M89.29,164.55 h0.0001
M93.65,163.77 h0.0001
M97.28,162.32 h0.0001
M104.22,163.31 h0.0001
M107.25,163.12 h0.0001
M111.9,162.99 h0.0001
M117.6,163.32 h0.0001
M122.35,164.13 h0.0001
M129.03,162.15 h0.0001
M134.63,165.47 h0.0001
M135.67,161.7 h0.0001
M142.95,161.41 h0.0001
M149.79,162.39 h0.0001
M154.19,163.22 h0.0001
M159.2,162.15 h0.0001
M164.52,162.2 h0.0001
M169.86,162.57 h0.0001
M174.8,161.14 h0.0001
M179.56,164.35 h0.0001
M183.59,160.9 h0.0001
M186.92,163.6 h0.0001
M193.66,163.71 h0.0001
M196.59,161.22 h0.0001
M202.83,161.76 h0.0001
M209.95,162.46 h0.0001
M215,164.49 h0.0001
M217.3,162.3 h0.0001
M222.04,162.04 h0.0001
M228.88,167.37 h0.0001
M234.84,166.82 h0.0001
M239.3,167.55 h0.0001
M243.23,168.29 h0.0001
M248.65,166.41 h0.0001
M253.59,169.87 h0.0001
M2.49,167.38 h0.0001
M6.29,168.78 h0.0001
M14.12,169.32 h0.0001
M17.73,166.98 h0.0001
M22.39,166.92 h0.0001
M27.41,167.03 h0.0001
M34.32,166.67 h0.0001
M37.99,169.92 h0.0001
M42.71,166.88 h0.0001
M47.86,168.44 h0.0001
M52.3,169.31 h0.0001
M57.67,168.75 h0.0001
M63.17,168.04 h0.0001
M68.28,166.24 h0.0001
M72.6,166.75 h0.0001
M79.81,167.72 h0.0001
M83.68,168.72 h0.0001
M87.09,169.52 h0.0001
M94.23,168.42 h0.0001
M99.73,168.14 h0.0001
M102.89,166.92 h0.0001
M109.58,169.81 h0.0001
M113.23,169.15 h0.0001
M116.63,167.75 h0.0001
M123.51,167.74 h0.0001
M128.26,169.4 h0.0001
M134.88,169.45 h0.0001
M139.92,165.96 h0.0001
M143.39,168.66 h0.0001
M147.22,168.85 h0.0001
M151.64,169.68 h0.0001
M157.9,167.66 h0.0001
M163.21,166.5 h0.0001
M166.02,169.92 h0.0001
M173.91,167.32 h0.0001
M177.78,167.36 h0.0001
M183.75,166.41 h0.0001
M186.59,169.78 h0.0001
M192.13,168.46 h0.0001
M197.47,166.85 h0.0001
M202.06,168.7 h0.0001
M208.71,168.27 h0.0001
M211.91,168.44 h0.0001
M217.11,168.25 h0.0001
M224.87,169.4 h0.0001
M230.19,173.71 h0.0001
M233.45,171.5 h0.0001
M237.75,173.18 h0.0001
M241.92,174.8 h0.0001
M246.5,172.8 h0.0001
M252.09,173.84 h0.0001
M1.2,171.21 h0.0001
M7.5,174.01 h0.0001
M11.01,172.3 h0.0001
M16.15,171.97 h0.0001
M23.77,171.7 h0.0001
M26.74,172.34 h0.0001
M33.23,173.46 h0.0001
M38.47,174.2 h0.0001
M41.73,172.43 h0.0001
M48.4,172.05 h0.0001
M51.86,174.15 h0.0001
M58.88,172.7 h0.0001
M64.75,172.49 h0.0001
M68.81,172.27 h0.0001
M73.23,171.3 h0.0001
M76.7,172.67 h0.0001
M82,174.33 h0.0001
M89.46,174.51 h0.0001
M93.88,172.58 h0.0001
M98.66,172.77 h0.0001
M101.95,172.87 h0.0001
M107.72,173.61 h0.0001
M113.52,174.37 h0.0001
M119.51,173.79 h0.0001
M123.98,173.57 h0.0001
M127.99,174.24 h0.0001
M134.82,174.51 h0.0001
M139.77,173.55 h0.0001
M142.94,172 h0.0001
M148.39,173.7 h0.0001
M154.24,173.65 h0.0001
M158.86,171.65 h0.0001
M161.33,174.46 h0.0001
M167.98,173.68 h0.0001
M171.24,174.36 h0.0001
M176.98,172.34 h0.0001
M182.89,172.78 h0.0001
M189.16,173.48 h0.0001
M194.65,173.47 h0.0001
M200.08,173.97 h0.0001
M201.83,171.39 h0.0001
M209.81,175 h0.0001
M212.18,172.95 h0.0001
M218.25,171.64 h0.0001
M224.98,173.5 h0.0001
M228.47,178.04 h0.0001
M233.58,178.24 h0.0001
M237.58,178.16 h0.0001
M242.45,179.22 h0.0001
M249.72,179.69 h0.0001
M253.35,178.1 h0.0001
M3.02,177.19 h0.0001
M7.37,178.22 h0.0001
M12.78,179.03 h0.0001
M16.99,176.67 h0.0001
M21.54,177.41 h0.0001
M27.29,177.31 h0.0001
M32.13,177.62 h0.0001
M38.94,177.71 h0.0001
M44.31,177.06 h0.0001
M48.12,178.46 h0.0001
M53.45,179.12 h0.0001
M59.49,179.05 h0.0001
M61.52,176.79 h0.0001
M68.03,177.59 h0.0001
M72.36,176.78 h0.0001
M77.43,176.87 h0.0001
M82.65,179.41 h0.0001
M89.12,178.98 h0.0001
M93.52,179.96 h0.0001
M97.1,176.5 h0.0001
M103.03,179.06 h0.0001
M109.38,177.27 h0.0001
M115.21,176.68 h0.0001
M116.49,179.36 h0.0001
M123.85,178.32 h0.0001
M130.1,179.44 h0.0001
M132.03,176.38 h0.0001
M139.69,177.58 h0.0001
M144.79,179.39 h0.0001
M146.97,176.69 h0.0001
M154.8,179.71 h0.0001
M158.09,178.79 h0.0001
M164.1,178.3 h0.0001
M169.71,178.12 h0.0001
M173.4,177.65 h0.0001
M180,176.27 h0.0001
M183.38,178.72 h0.0001
M186.89,177.86 h0.0001
M192.62,177.57 h0.0001
M198.3,176.7 h0.0001
M202.26,180.11 h0.0001
M207.82,177.21 h0.0001
M214.88,178.36 h0.0001
M219.93,179.5 h0.0001
M222.84,179.07 h0.0001
M228.15,182.91 h0.0001
M231.87,183.61 h0.0001
M238.25,181.97 h0.0001
M244.09,184.7 h0.0001
M246.66,181.54 h0.0001
M253.01,182.6 h0.0001
M2.34,183.34 h0.0001
M6.09,181.76 h0.0001
M13.44,184.36 h0.0001
M17.54,181.94 h0.0001
M22.66,181.6 h0.0001
M28.94,182.93 h0.0001
M32.44,183.69 h0.0001
M38.32,182.78 h0.0001
M43.56,182.18 h0.0001
M48.39,184.05 h0.0001
M52.98,183.82 h0.0001
M57.5,182.89 h0.0001
M61.19,184.16 h0.0001
M69.16,184.48 h0.0001
M72.86,183.05 h0.0001
M77.65,181.44 h0.0001
M82.91,183.76 h0.0001
M88.47,183.22 h0.0001
M92.88,184.65 h0.0001
M97.36,181.54 h0.0001
M104.02,184.46 h0.0001
M107.11,181.27 h0.0001
M112.85,181.9 h0.0001
M116.91,183.07 h0.0001
M122.8,181.92 h0.0001
M128.6,182.54 h0.0001
M132.89,182.87 h0.0001
M136.92,183.39 h0.0001
M141.73,183.36 h0.0001
M147.93,181.59 h0.0001
M152.42,181.75 h0.0001
M157.05,184.76 h0.0001
M163.92,184.14 h0.0001
M169.74,182.5 h0.0001
M174.54,184.16 h0.0001
M178.38,181 h0.0001
M182.19,183.23 h0.0001
M189.4,182.82 h0.0001
M191.89,180.98 h0.0001
M197.44,182.2 h0.0001
M204.74,184.47 h0.0001
M209.42,183.84 h0.0001
M212,181.91 h0.0001
M217.23,181.93 h0.0001
M225.3,181.05 h0.0001
M226.41,187.17 h0.0001
M235.04,189.34 h0.0001
M239.59,187.41 h0.0001
M242.36,188.99 h0.0001
M249.62,189.65 h0.0001
M253.53,188.59 h0.0001
M2.91,187.78 h0.0001
M6.46,186.41 h0.0001
M10.93,188.49 h0.0001
M17.6,188.16 h0.0001
M21.26,187.86 h0.0001
M25.7,186.34 h0.0001
M32.98,187.32 h0.0001
M37.76,187.17 h0.0001
M42.77,187.72 h0.0001
M46.47,187.66 h0.0001
M52.3,189 h0.0001
M59.24,187.17 h0.0001
M62.85,189.25 h0.0001
M66.99,187.65 h0.0001
M75.09,190.14 h0.0001
M76.74,186.46 h0.0001
M84.06,190.28 h0.0001
M86.58,187.09 h0.0001
M91.49,187.16 h0.0001
M98.06,188.01 h0.0001
M103.38,187.08 h0.0001
M107.88,187.18 h0.0001
M113.94,190.06 h0.0001
M118.03,188.52 h0.0001
M122.66,186.84 h0.0001
M128.94,186.87 h0.0001
M134.46,187.5 h0.0001
M139.79,188.25 h0.0001
M143.1,188.42 h0.0001
M147.31,186.74 h0.0001
M152.58,187.28 h0.0001
M159.78,187.84 h0.0001
M161.65,189.99 h0.0001
M167.74,188.75 h0.0001
M172.83,187.31 h0.0001
M178.2,189.52 h0.0001
M184.94,188.5 h0.0001
M188.13,189.57 h0.0001
M195.05,186.07 h0.0001
M198.45,189.76 h0.0001
M201.75,187.65 h0.0001
M207.06,188.33 h0.0001
M213.68,188.76 h0.0001
M216.83,186.4 h0.0001
M221.54,188.5 h0.0001
M230.12,191.33 h0.0001
M234.9,192.62 h0.0001
M238.62,193.67 h0.0001
M245.12,193.49 h0.0001
M250.44,192.87 h0.0001
M255.15,193.7 h0.0001
M2.87,191.72 h0.0001
M6.81,192.16 h0.0001
M12.88,192.93 h0.0001
M16.4,192.33 h0.0001
M20.93,194.71 h0.0001
M26.31,191.31 h0.0001
M33.95,192.32 h0.0001
M36.71,191.06 h0.0001
M42.6,193.47 h0.0001
M47.5,192.82 h0.0001
M51.4,194.34 h0.0001
M57.74,194.03 h0.0001
M63.57,193.71 h0.0001
M68.65,191.72 h0.0001
M71.72,191.09 h0.0001
M78.71,194.02 h0.0001
M81.16,191.49 h0.0001
M87.75,192.21 h0.0001
M92.01,191.73 h0.0001
M99.11,193.37 h0.0001
M103.76,191.2 h0.0001
M106.71,193.59 h0.0001
M111.3,193.67 h0.0001
M119.33,192.93 h0.0001
M123.19,193.24 h0.0001
M128.95,194.15 h0.0001
M132.97,192.11 h0.0001
M138.4,194.41 h0.0001
M142.86,192.95 h0.0001
M146.98,195.03 h0.0001
M154.21,191.92 h0.0001
M158.93,194.08 h0.0001
M162.19,194.89 h0.0001
M166.43,194.47 h0.0001
M173.78,191.96 h0.0001
M178.88,193.85 h0.0001
M183.3,191.75 h0.0001
M189.38,191.85 h0.0001
M193.93,192.24 h0.0001
M196.84,194.62 h0.0001
M204.57,193.75 h0.0001
M208.81,192.04 h0.0001
M213.13,192.78 h0.0001
M218.27,192.8 h0.0001
M225.46,193.01 h0.0001
M228.1,199.15 h0.0001
M234.04,197.32 h0.0001
M237.15,199.98 h0.0001
M243.75,198.95 h0.0001
M246.92,197.22 h0.0001
M251.8,198.93 h0.0001
M2.88,199.23 h0.0001
M7.25,198.53 h0.0001
M14.24,198.1 h0.0001
M17.98,197.82 h0.0001
M24.93,198.04 h0.0001
M29.57,196.22 h0.0001
M31.56,199.17 h0.0001
M37.87,197.85 h0.0001
M41.25,199.72 h0.0001
M47.44,199.07 h0.0001
M50.87,197.14 h0.0001
M59.52,198.86 h0.0001
M64.01,197.62 h0.0001
M69.58,196.31 h0.0001
M71.75,199.28 h0.0001
M77.36,197.82 h0.0001
M84.17,197.72 h0.0001
M88.26,196.93 h0.0001
M92.65,197.27 h0.0001
M97.82,199.14 h0.0001
M104.54,197.04 h0.0001
M109.25,200.24 h0.0001
M113.77,198.01 h0.0001
M116.24,199.31 h0.0001
M121.54,196.9 h0.0001
M129.6,197.61 h0.0001
M133.64,198.73 h0.0001
M136.69,200.04 h0.0001
M141.89,197.21 h0.0001
M147.14,199.12 h0.0001
M152.7,196.62 h0.0001
M158.02,198.53 h0.0001
M162.38,198.63 h0.0001
M169.42,197.77 h0.0001
M173.96,196.41 h0.0001
M178.53,198.05 h0.0001
M182.71,197.24 h0.0001
M187.43,198.23 h0.0001
M192.33,196.45 h0.0001
M196.53,198.18 h0.0001
M201.85,196.58 h0.0001
M207.9,198.51 h0.0001
M211.86,199.38 h0.0001
M217.76,196.69 h0.0001
M225.05,196.91 h0.0001
M227.27,201.9 h0.0001
M233.05,203.62 h0.0001
M238.45,203.97 h0.0001
M245,204.4 h0.0001
M248.66,203.3 h0.0001
M254.61,204.04 h0.0001
M1.86,202.73 h0.0001
M8.18,204.59 h0.0001
M11.85,201.68 h0.0001
M19.06,201.59 h0.0001
M22.58,201.75 h0.0001
M26.7,202.49 h0.0001
M31.92,203.01 h0.0001
M39.07,203.95 h0.0001
M44.29,203.62 h0.0001
M48.72,203.71 h0.0001
M52.86,201.22 h0.0001
M57.04,202.69 h0.0001
M63.49,204.62 h0.0001
M66.64,201.28 h0.0001
M70.94,204.53 h0.0001
M78.4,202.8 h0.0001
M83.84,202.31 h0.0001
M88.89,202.25 h0.0001
M93.05,204.51 h0.0001
M99.09,202.28 h0.0001
M103.77,202.09 h0.0001
M109.48,205.09 h0.0001
M113.81,203.47 h0.0001
M118.47,202.19 h0.0001
M123.33,202.31 h0.0001
M126.87,202.36 h0.0001
M131.24,203.4 h0.0001
M137.45,204.4 h0.0001
M142.77,203.13 h0.0001
M146.72,203.85 h0.0001
M154.41,201.91 h0.0001
M159.54,202.46 h0.0001
M162.73,204.6 h0.0001
M169.57,201.71 h0.0001
M171.31,204.67 h0.0001
M176.13,202.36 h0.0001
M184.08,203.54 h0.0001
M189.53,203.26 h0.0001
M194.18,202.01 h0.0001
M197.56,203.17 h0.0001
M203.79,203.06 h0.0001
M207.22,204.49 h0.0001
M212.18,202.4 h0.0001
M217.31,201.96 h0.0001
M223.72,203.67 h0.0001
M227.07,206.48 h0.0001
M233.8,209.81 h0.0001
M239.12,209.46 h0.0001
M241.75,206.18 h0.0001
M246.9,208.24 h0.0001
M253.43,208.72 h0.0001
M2.35,209.76 h0.0001
M8.96,209.75 h0.0001
M13.07,206.32 h0.0001
M15.75,209.07 h0.0001
M23.25,209.46 h0.0001
M26.69,207.19 h0.0001
M31.26,206.57 h0.0001
M37.79,208.21 h0.0001
M43.78,209.8 h0.0001
M48.31,208.08 h0.0001
M54.21,208.24 h0.0001
M57.75,208.21 h0.0001
M61.84,207.84 h0.0001
M67.49,209.27 h0.0001
M73.62,208.83 h0.0001
M76.63,208.88 h0.0001
M81.78,208.11 h0.0001
M87.19,207.07 h0.0001
M93.5,207.4 h0.0001
M98.4,207.85 h0.0001
M102.15,207.92 h0.0001
M109.9,208.42 h0.0001
M114.79,208.86 h0.0001
M119.37,207.89 h0.0001
M122.17,206.54 h0.0001
M129.23,209.38 h0.0001
M134.11,207.02 h0.0001
M137.4,208 h0.0001
M143.76,208.7 h0.0001
M149.93,206.51 h0.0001
M153.2,208.6 h0.0001
M159.28,208.12 h0.0001
M163.65,209.82 h0.0001
M169.52,208.99 h0.0001
M175.35,208.05 h0.0001
M178.77,206.7 h0.0001
M182.14,207.58 h0.0001
M186.74,207.54 h0.0001
M192.79,208 h0.0001
M199.93,207.44 h0.0001
M204.91,208 h0.0001
M209.78,209.06 h0.0001
M212.89,209.35 h0.0001
M217,207.6 h0.0001
M222.73,207.65 h0.0001
M226.97,213.53 h0.0001
M233.01,213.05 h0.0001
M238.38,212.96 h0.0001
M242.93,212.9 h0.0001
M247.97,212.54 h0.0001
M253.21,212.87 h0.0001
M2.94,214.48 h0.0001
M7.05,213.32 h0.0001
M14.3,213.27 h0.0001
M18.5,212.49 h0.0001
M24.34,213.88 h0.0001
M26.82,215.3 h0.0001
M33.24,214.09 h0.0001
M36.13,211.47 h0.0001
M43.76,213.84 h0.0001
M48.05,212.58 h0.0001
M51.24,215.25 h0.0001
M58.94,212.11 h0.0001
M61.59,214.99 h0.0001
M69.8,212.81 h0.0001
M74.67,212.25 h0.0001
M79.71,211.91 h0.0001
M83.79,211.52 h0.0001
M87.82,215.26 h0.0001
M92.09,213.51 h0.0001
M97.53,213.67 h0.0001
M102.49,211.58 h0.0001
M106.12,213.03 h0.0001
M112.41,213.92 h0.0001
M118.81,212.38 h0.0001
M123.89,212.78 h0.0001
M126.73,212.87 h0.0001
M134.55,212.28 h0.0001
M136.93,214.68 h0.0001
M143.6,212.18 h0.0001
M147.53,213.58 h0.0001
M154.48,213.35 h0.0001
M158.06,214.05 h0.0001
M164.65,213.67 h0.0001
M169.49,214.24 h0.0001
M172.5,212.01 h0.0001
M179.01,212.27 h0.0001
M183.68,214.45 h0.0001
M189.67,213.26 h0.0001
M192.58,213.6 h0.0001
M196.86,211.79 h0.0001
M202.94,214.27 h0.0001
M209.12,213.68 h0.0001
M215.67,214.92 h0.0001
M219.65,212.4 h0.0001
M224.82,211.23 h0.0001
M229.29,219.68 h0.0001
M234.04,218.93 h0.0001
M239.8,218.9 h0.0001
M245.32,219.2 h0.0001
M249.36,219.02 h0.0001
M251.61,220.31 h0.0001
M4.48,219.68 h0.0001
M8.61,217.82 h0.0001
M11.67,219.25 h0.0001
M16.64,217.49 h0.0001
M21.52,216.27 h0.0001
M27.52,218.8 h0.0001
M33.56,218.28 h0.0001
M38.67,218.42 h0.0001
M43.11,217.95 h0.0001
M46.91,216.66 h0.0001
M53.53,219.64 h0.0001
M56.81,216.15 h0.0001
M63.82,220.03 h0.0001
M66.39,217.94 h0.0001
M72.6,218.47 h0.0001
M75.95,219.97 h0.0001
M83.2,216.46 h0.0001
M90.05,218.57 h0.0001
M93.89,216.2 h0.0001
M96.41,219.69 h0.0001
M101.55,217.75 h0.0001
M106.47,217.35 h0.0001
M114.6,220.34 h0.0001
M117.05,217.33 h0.0001
M122.71,217.18 h0.0001
M128.7,218.77 h0.0001
M133.91,219.65 h0.0001
M137.42,218.42 h0.0001
M142.66,218.36 h0.0001
M149.44,217.44 h0.0001
M152.87,217.47 h0.0001
M159.36,219.44 h0.0001
M164.65,216.73 h0.0001
M169.21,218.22 h0.0001
M172.29,218.96 h0.0001
M177.67,219.57 h0.0001
M184.09,219.55 h0.0001
M187.57,217.13 h0.0001
M193.24,219.5 h0.0001
M200.02,219.75 h0.0001
M202.89,218.96 h0.0001
M209.55,217.27 h0.0001
M212.74,219.45 h0.0001
M220.09,217.74 h0.0001
M224.03,219.91 h0.0001
M227.44,223.64 h0.0001
M233.52,222.24 h0.0001
M238.94,222.36 h0.0001
M244.69,224.52 h0.0001
M248.19,224.38 h0.0001
M253.96,221.17 h0.0001
M2.31,222.94 h0.0001
M7.61,223.63 h0.0001
M14.06,222.92 h0.0001
M18.66,221.72 h0.0001
M21.8,223.5 h0.0001
M28.23,222.41 h0.0001
M31.57,222.31 h0.0001
M38.55,223.05 h0.0001
M43.6,221.87 h0.0001
M47.6,224.55 h0.0001
M51.49,223.59 h0.0001
M57.13,224.85 h0.0001
M64.57,223.24 h0.0001
M66.25,225.05 h0.0001
M71.25,223.54 h0.0001
M79.26,222.51 h0.0001
M82.39,221.23 h0.0001
M86.65,222.32 h0.0001
M94.49,223.87 h0.0001
M99.83,225.13 h0.0001
M103.62,222.42 h0.0001
M106.31,224.6 h0.0001
M111.43,223.94 h0.0001
M118.78,223.53 h0.0001 m3.4099,0 h0.0001
M126.86,223.98 h0.0001
M133.58,223.44 h0.0001
M139.03,223.57 h0.0001
M141.63,222.33 h0.0001
M148.5,223.1 h0.0001
M153.61,224.74 h0.0001
M156.62,223.15 h0.0001
M163.81,222.48 h0.0001
M167.51,223.82 h0.0001
M171.6,224.19 h0.0001
M177.1,223.07 h0.0001
M183.92,222.85 h0.0001
M188.36,224.37 h0.0001
M195.17,225.13 h0.0001
M196.37,222.17 h0.0001
M205.19,224.81 h0.0001
M209.38,222.36 h0.0001
M212.74,222.86 h0.0001
M218.82,221.43 h0.0001
M221.87,222.15 h0.0001
M229.25,229.8 h0.0001
M232.06,228.17 h0.0001
M238.15,226.31 h0.0001
M241.61,228.87 h0.0001
M248.75,229.8 h0.0001
M254.3,228.56 h0.0001
M3.21,227.47 h0.0001
M8.86,229.64 h0.0001
M13.85,227.74 h0.0001
M16.75,228.81 h0.0001
M22.38,229.05 h0.0001
M26.24,229.33 h0.0001
M32.75,226.42 h0.0001
M37.68,229.24 h0.0001
M44.21,226.63 h0.0001
M46.57,229.36 h0.0001
M53.48,226.51 h0.0001
M56.57,229.79 h0.0001
M61.82,227.42 h0.0001
M68.67,229.52 h0.0001
M71.75,228.26 h0.0001
M76.95,226.84 h0.0001
M82.17,228.74 h0.0001
M86.51,227.89 h0.0001
M91.3,226.63 h0.0001
M98.59,229.64 h0.0001
M104.8,229.74 h0.0001
M106.78,227.25 h0.0001
M112.69,229.76 h0.0001
M117.81,227.79 h0.0001
M122.47,228.46 h0.0001
M127.44,229.26 h0.0001
M133.27,227.96 h0.0001
M139.72,227.67 h0.0001
M143.87,226.99 h0.0001
M148.59,230.1 h0.0001
M151.47,228.97 h0.0001
M157.6,228.88 h0.0001
M163.23,228.49 h0.0001
M167.93,228.1 h0.0001
M174.73,229.36 h0.0001
M179.47,228.02 h0.0001
M183.53,226.49 h0.0001
M186.77,230.16 h0.0001
M193.6,229.48 h0.0001
M197.45,229.85 h0.0001
M201.79,226.23 h0.0001
M206.69,227.25 h0.0001
M211.85,228.36 h0.0001
M217.08,228.71 h0.0001
M221.72,227.59 h0.0001
M230,233.76 h0.0001
M234.81,234.64 h0.0001
M237.49,231.98 h0.0001
M242.79,233.78 h0.0001
M247.44,233.14 h0.0001
M252.13,233.9 h0.0001
M1.54,232.71 h0.0001
M6.25,234.25 h0.0001
M11.16,233.46 h0.0001
M17.22,235.11 h0.0001
M21.86,232.32 h0.0001
M27.84,232.39 h0.0001
M33.41,231.83 h0.0001
M37.08,232.22 h0.0001
M42.78,233.19 h0.0001
M47.53,233.29 h0.0001
M53.64,232.16 h0.0001
M57.52,234.99 h0.0001
M61.5,231.81 h0.0001
M69.63,235.06 h0.0001
M71.52,231.69 h0.0001
M77.62,232.13 h0.0001
M83.78,231.88 h0.0001
M86.69,233.8 h0.0001
M92.86,232 h0.0001
M97.13,234.11 h0.0001
M104.08,233.13 h0.0001
M108.52,234.65 h0.0001
M114.29,233.78 h0.0001
M118.07,233.09 h0.0001
M123.66,233.61 h0.0001
M130.04,232.34 h0.0001
M132.14,235.17 h0.0001
M138.83,233.26 h0.0001
M143.97,233.74 h0.0001
M149.46,234.96 h0.0001
M154.18,232.73 h0.0001
M157.9,232.4 h0.0001
M163.69,234.51 h0.0001
M166.64,232.92 h0.0001
M174.4,234.97 h0.0001
M176.95,232.06 h0.0001
M181.98,233.67 h0.0001
M189.57,231.41 h0.0001
M192.79,232.4 h0.0001
M198.64,232.59 h0.0001
M204.44,234.92 h0.0001
M208.65,232.41 h0.0001
M211.94,234.36 h0.0001
M218.94,231.74 h0.0001
M224.71,233.09 h0.0001
M228.29,239.28 h0.0001
M232.05,237.05 h0.0001
M239.84,238.15 h0.0001
M242.92,238.47 h0.0001
M248.85,236.94 h0.0001
M251.82,239.54 h0.0001
M2.47,239.03 h0.0001
M7.11,239.16 h0.0001
M12.3,237.59 h0.0001
M19.23,238.55 h0.0001
M21.96,240.4 h0.0001
M27.39,238.95 h0.0001
M31.48,236.97 h0.0001
M38.79,238.12 h0.0001
M43.6,238.39 h0.0001
M47.47,239.09 h0.0001
M51.43,237.77 h0.0001
M58.82,237.56 h0.0001
M62.92,239.03 h0.0001
M69.64,240.26 h0.0001
M73.76,236.46 h0.0001
M79.2,238.97 h0.0001
M83.3,239.5 h0.0001
M87.84,236.95 h0.0001
M94.39,236.68 h0.0001
M97.28,239.77 h0.0001
M102.82,238.34 h0.0001
M107.1,239.25 h0.0001
M111.28,237.68 h0.0001
M119.74,237.69 h0.0001
M124.46,238.57 h0.0001
M128.27,237.15 h0.0001
M131.94,240.16 h0.0001
M138.21,239.65 h0.0001
M142.45,236.81 h0.0001
M147.78,236.96 h0.0001
M154.07,239 h0.0001
M157.13,237.22 h0.0001
M164.87,237.39 h0.0001
M168.3,239.81 h0.0001
M171.79,238.66 h0.0001
M179.27,237.87 h0.0001
M185.24,237.51 h0.0001
M189.16,238.47 h0.0001
M192,239.31 h0.0001
M196.64,239.58 h0.0001
M201.42,238.98 h0.0001
M206.55,238.46 h0.0001
M215.22,239.21 h0.0001
M217.46,236.61 h0.0001
M223.92,238.84 h0.0001
M228.61,243.63 h0.0001
M233.61,243.3 h0.0001
M237.11,244.29 h0.0001
M242.64,244.11 h0.0001
M248.42,243.93 h0.0001
M254.29,241.64 h0.0001
M2.21,242.71 h0.0001
M7.81,242.72 h0.0001
M13.38,244.06 h0.0001
M18.52,242.64 h0.0001
M24.1,245.05 h0.0001
M28.89,242.75 h0.0001
M31.63,244.72 h0.0001
M35.51,241.15 h0.0001
M42.8,243.53 h0.0001
M47.98,244.62 h0.0001
M51.78,244.65 h0.0001
M58.95,242.2 h0.0001
M64.25,242.51 h0.0001
M67.3,241.42 h0.0001
M72.81,243.96 h0.0001
M78.19,242.13 h0.0001
M80.96,243.39 h0.0001
M88.06,241.85 h0.0001
M91.51,241.73 h0.0001
M98.53,243.2 h0.0001
M103.11,244.69 h0.0001
M110.09,242.91 h0.0001
M114.42,241.45 h0.0001
M119.41,241.58 h0.0001
M121.25,244.65 h0.0001
M126.54,244.52 h0.0001
M132.56,244.3 h0.0001
M136.61,242.81 h0.0001
M141.9,241.67 h0.0001
M149.52,242.28 h0.0001
M152.54,243.55 h0.0001
M159.31,244.58 h0.0001
M163.52,243.65 h0.0001
M167.62,242.3 h0.0001
M174.32,241.83 h0.0001
M178.69,243.23 h0.0001
M182.54,241.86 h0.0001
M187.77,243.75 h0.0001
M194.97,244.49 h0.0001
M198.78,244.81 h0.0001
M203.01,244.05 h0.0001
M207.9,241.28 h0.0001
M212.46,242.03 h0.0001
M218.78,245.1 h0.0001
M222.55,242.19 h0.0001
M227.24,249.4 h0.0001
M232.99,250.06 h0.0001
M238.75,248.12 h0.0001
M243.57,249.29 h0.0001
M249.66,247.55 h0.0001
M253.48,249.93 h0.0001
M2.16,247.93 h0.0001
M7.69,249.28 h0.0001
M14.7,249.96 h0.0001
M15.86,246.85 h0.0001
M20.99,247.65 h0.0001
M27.71,249.05 h0.0001
M33.72,247.52 h0.0001
M38.12,249.36 h0.0001
M41.26,247.33 h0.0001
M49.32,249.75 h0.0001
M53.31,246.85 h0.0001
M59.01,246.63 h0.0001
M61.34,248.63 h0.0001
M69.37,247.49 h0.0001
M72.25,249.82 h0.0001
M79.49,249.6 h0.0001
M83.45,247.39 h0.0001
M88.52,247.55 h0.0001
M92.81,249.9 h0.0001
M96.68,247.33 h0.0001
M101.39,248.75 h0.0001
M108.65,248.83 h0.0001
M112.4,247.29 h0.0001
M118.73,250.09 h0.0001
M122.77,248.73 h0.0001
M128.16,249.44 h0.0001
M132.07,248.3 h0.0001
M137.77,248.94 h0.0001
M142.29,247.26 h0.0001
M147.26,248.69 h0.0001
M151.86,249.93 h0.0001
M157.67,248.81 h0.0001
M162.46,249.2 h0.0001
M167.17,247.07 h0.0001
M173.46,248.54 h0.0001
M177.32,249.72 h0.0001
M184.17,249.24 h0.0001
M189.2,246.99 h0.0001
M193.87,249.28 h0.0001
M199.41,250.27 h0.0001
M204.59,248.55 h0.0001
M206.88,246.69 h0.0001
M213.57,246.46 h0.0001
M216.61,249.63 h0.0001
M221.97,248.98 h0.0001
M228.49,254.57 h0.0001
M234.38,254.54 h0.0001
M239.94,254.75 h0.0001
M244.75,253.41 h0.0001
M250.36,253.9 h0.0001
M254.52,252.71 h0.0001
M2.63,254.3 h0.0001
M8.34,252.74 h0.0001
M14.36,253.62 h0.0001
M17.66,253.78 h0.0001
M22.1,253.89 h0.0001
M26.37,254.85 h0.0001
M33.26,253.74 h0.0001
M38.21,253.38 h0.0001
M44.63,251.37 h0.0001
M48.47,253.1 h0.0001
M54.42,252.21 h0.0001
M57.84,253.91 h0.0001
M64.28,253.5 h0.0001
M69.23,252.13 h0.0001
M71.34,254.12 h0.0001
M77.76,253.15 h0.0001
M81.3,254.45 h0.0001
M87.14,252.43 h0.0001
M92.05,254.03 h0.0001
M96.53,254.16 h0.0001
M103.95,255.15 h0.0001
M106.5,252.32 h0.0001
M113.57,254.72 h0.0001
M118.9,254.66 h0.0001
M124.02,252.1 h0.0001
M128.49,253.25 h0.0001
M133.71,253.1 h0.0001
M137.72,254.83 h0.0001
M144.15,252.82 h0.0001
M147.88,253.04 h0.0001
M151.1,254.98 h0.0001
M159.48,253.15 h0.0001
M162.15,255.16 h0.0001
M167.35,252.53 h0.0001
M172.65,253.22 h0.0001
M177.29,254.76 h0.0001
M184.31,252.9 h0.0001
M187.76,252.18 h0.0001
M193.65,251.85 h0.0001
M196.39,254.3 h0.0001
M205.46,254.75 h0.0001
M209.54,251.74 h0.0001
M213.51,254.37 h0.0001
M218.12,252.52 h0.0001
M224.37,253.05 h0.0001
M230.51,2.59 h0.0001
M232.77,4.38 h0.0001
M239.37,2.82 h0.0001
M243.24,3.11 h0.0001
M247.18,1.74 h0.0001
M252.31,3.39 h0.0001
M2.83,1.75 h0.0001
M7.28,1.23 h0.0001
M11.3,3.51 h0.0001
M16.05,2.28 h0.0001
M21.59,4.2 h0.0001
M28.97,1.68 h0.0001
M32.68,2.23 h0.0001
M38.34,2.54 h0.0001
M42.79,1.54 h0.0001
M46.31,4.05 h0.0001
M51.75,0.8 h0.0001
M58.21,1.98 h0.0001
M61.3,3.62 h0.0001
M67.73,2.41 h0.0001
M73,3.43 h0.0001
M77.3,3.5 h0.0001
M81.58,3.51 h0.0001
M86.78,2.1 h0.0001
M94.75,3.01 h0.0001
M99.25,1.97 h0.0001
M101.83,2.79 h0.0001
M107.1,1.8 h0.0001
M112.29,1.97 h0.0001
M118.71,1.26 h0.0001
M122.38,1.66 h0.0001
M130.06,0.84 h0.0001
M131.55,3.98 h0.0001
M137.73,3.04 h0.0001
M141.8,2.47 h0.0001
M147.54,3.14 h0.0001
M153.44,0.8 h0.0001
M159.07,1.91 h0.0001
M163.4,3.47 h0.0001
M169.67,3.44 h0.0001
M173.13,2.04 h0.0001
M176.37,2.75 h0.0001
M183.56,2.93 h0.0001
M187.96,1.38 h0.0001
M194.33,1.8 h0.0001
M199.46,1.01 h0.0001
M202.2,2.88 h0.0001
M208.43,3.41 h0.0001
M212.44,3.98 h0.0001
M219.58,1.01 h0.0001
M224.05,4.29 h0.0001
M228.83,5.72 h0.0001
M231.72,9.29 h0.0001
M239.87,6.26 h0.0001
M245.19,6.44 h0.0001
M248.5,6.13 h0.0001
M254.58,8.64 h0.0001
M3.12,7.78 h0.0001
M6.89,5.56 h0.0001
M10.66,7.85 h0.0001
M16.03,8.75 h0.0001
M22.24,9.17 h0.0001
M28.69,7 h0.0001
M33.49,6.67 h0.0001
M38.64,7.23 h0.0001
M41.5,8.91 h0.0001
M47.11,7.84 h0.0001
M52.82,5.22 h0.0001
M59.53,9.03 h0.0001
M61.64,7.2 h0.0001
M67.2,7.08 h0.0001
M72.36,7.69 h0.0001
M79.17,8.3 h0.0001
M84.76,5.79 h0.0001
M88.56,9.25 h0.0001
M93.46,6.23 h0.0001
M98.89,7.3 h0.0001
M103.63,7.15 h0.0001
M109.05,8.43 h0.0001
M113.2,5.47 h0.0001
M118.02,8.51 h0.0001
M123.85,6.04 h0.0001
M127.82,7.76 h0.0001
M133.26,7.47 h0.0001
M139.57,8.15 h0.0001
M143.65,8.43 h0.0001
M146.92,6.64 h0.0001
M154.31,5.58 h0.0001
M158,7.84 h0.0001
M164.96,7.61 h0.0001
M169.46,6.69 h0.0001
M172.93,9.45 h0.0001
M178.66,5.91 h0.0001
M182.67,6.5 h0.0001
M186.71,5.97 h0.0001
M191.91,7.54 h0.0001
M197.21,7.91 h0.0001
M201.94,7.55 h0.0001
M206.39,5.72 h0.0001
M213.54,7.34 h0.0001
M218.27,5.31 h0.0001
M221.48,6.71 h0.0001
M227.94,13.16 h0.0001
M235.02,10.55 h0.0001
M238.8,13.76 h0.0001
M242.82,13.53 h0.0001
M249.62,13.22 h0.0001
M252.41,13.55 h0.0001
M1.5,14.27 h0.0001
M9.31,12.08 h0.0001
M12.61,14.28 h0.0001
M16.85,11.4 h0.0001
M24.32,14.14 h0.0001
M27.22,11.49 h0.0001
M33.81,12.06 h0.0001
M36.34,13.58 h0.0001
M44.51,11.46 h0.0001
M48.29,12.43 h0.0001
M52.83,11.1 h0.0001
M57.17,12.01 h0.0001
M64.77,13.39 h0.0001
M69.21,11.69 h0.0001
M72.95,13.66 h0.0001
M76.69,13.87 h0.0001
M81.25,13.56 h0.0001
M85.74,13 h0.0001
M91.74,10.88 h0.0001
M96.62,12.08 h0.0001
M103.19,12.55 h0.0001
M109.43,12.06 h0.0001
M112.68,10.97 h0.0001
M117.19,12.86 h0.0001
M121.89,11.91 h0.0001
M129.81,10.76 h0.0001
M132.09,13.71 h0.0001
M136.35,11.7 h0.0001
M144.46,13.37 h0.0001
M149.02,12.83 h0.0001
M153.58,11.15 h0.0001
M156.55,11.42 h0.0001
M161.9,13.1 h0.0001
M168.24,12.5 h0.0001
M172.35,12.83 h0.0001
M178.74,12.37 h0.0001
M183.22,12.66 h0.0001
M189.03,11.18 h0.0001
M193.84,13.52 h0.0001
M199.42,14.17 h0.0001
M204.65,12.72 h0.0001
M207.04,11.03 h0.0001
M215.11,13.24 h0.0001
M218.07,12.03 h0.0001
M223.93,11.4 h0.0001
M226.43,28.91 h0.0001
M226.41,187.17 h0.0001"/>
</svg>
