<svg xmlns="http://www.w3.org/2000/svg" xmlns:xlink="http://www.w3.org/1999/xlink" width="512" height="512" viewBox="0 0 512 512">
  <defs>
    <path id="scrub1" stroke-width="1" stroke="#b0be93" d="m-4,5.5 h7 m-3.5,0 v-5.5 m0,5.7 -2.5,-3.7 m5,0 -2.5,3.7"/>
  </defs>
  <use x="478" y="2" xlink:href="#scrub1"/>
  <use x="503" y="14" xlink:href="#scrub1"/>
  <use x="17" y="7" xlink:href="#scrub1"/>
  <use x="39" y="6" xlink:href="#scrub1"/>
  <use x="63" y="6" xlink:href="#scrub1"/>
  <use x="89" y="0" xlink:href="#scrub1"/>
  <use x="110" y="16" xlink:href="#scrub1"/>
  <use x="128" y="15" xlink:href="#scrub1"/>
  <use x="173" y="1" xlink:href="#scrub1"/>
  <use x="192" y="15" xlink:href="#scrub1"/>
  <use x="204" y="0" xlink:href="#scrub1"/>
  <use x="237" y="2" xlink:href="#scrub1"/>
  <use x="263" y="16" xlink:href="#scrub1"/>
  <use x="282" y="12" xlink:href="#scrub1"/>
  <use x="311" y="7" xlink:href="#scrub1"/>
  <use x="338" y="9" xlink:href="#scrub1"/>
  <use x="362" y="11" xlink:href="#scrub1"/>
  <use x="382" y="14" xlink:href="#scrub1"/>
  <use x="407" y="4" xlink:href="#scrub1"/>
  <use x="426" y="9" xlink:href="#scrub1"/>
  <use x="465" y="12" xlink:href="#scrub1"/>
  <use x="475" y="35" xlink:href="#scrub1"/>
  <use x="508" y="41" xlink:href="#scrub1"/>
  <use x="10" y="26" xlink:href="#scrub1"/>
  <use x="49" y="41" xlink:href="#scrub1"/>
  <use x="60" y="29" xlink:href="#scrub1"/>
  <use x="81" y="37" xlink:href="#scrub1"/>
  <use x="112" y="34" xlink:href="#scrub1"/>
  <use x="141" y="37" xlink:href="#scrub1"/>
  <use x="159" y="28" xlink:href="#scrub1"/>
  <use x="177" y="37" xlink:href="#scrub1"/>
  <use x="208" y="32" xlink:href="#scrub1"/>
  <use x="230" y="34" xlink:href="#scrub1"/>
  <use x="250" y="26" xlink:href="#scrub1"/>
  <use x="273" y="38" xlink:href="#scrub1"/>
  <use x="307" y="39" xlink:href="#scrub1"/>
  <use x="328" y="30" xlink:href="#scrub1"/>
  <use x="351" y="32" xlink:href="#scrub1"/>
  <use x="389" y="42" xlink:href="#scrub1"/>
  <use x="404" y="27" xlink:href="#scrub1"/>
  <use x="437" y="39" xlink:href="#scrub1"/>
  <use x="451" y="25" xlink:href="#scrub1"/>
  <use x="471" y="52" xlink:href="#scrub1"/>
  <use x="502" y="63" xlink:href="#scrub1"/>
  <use x="16" y="56" xlink:href="#scrub1"/>
  <use x="37" y="52" xlink:href="#scrub1"/>
  <use x="63" y="59" xlink:href="#scrub1"/>
  <use x="93" y="63" xlink:href="#scrub1"/>
  <use x="108" y="51" xlink:href="#scrub1"/>
  <use x="142" y="55" xlink:href="#scrub1"/>
  <use x="171" y="57" xlink:href="#scrub1"/>
  <use x="188" y="62" xlink:href="#scrub1"/>
  <use x="206" y="55" xlink:href="#scrub1"/>
  <use x="235" y="56" xlink:href="#scrub1"/>
  <use x="255" y="61" xlink:href="#scrub1"/>
  <use x="289" y="48" xlink:href="#scrub1"/>
  <use x="298" y="67" xlink:href="#scrub1"/>
  <use x="327" y="55" xlink:href="#scrub1"/>
  <use x="351" y="64" xlink:href="#scrub1"/>
  <use x="372" y="57" xlink:href="#scrub1"/>
  <use x="405" y="51" xlink:href="#scrub1"/>
  <use x="425" y="62" xlink:href="#scrub1"/>
  <use x="462" y="63" xlink:href="#scrub1"/>
  <use x="486" y="79" xlink:href="#scrub1"/>
  <use x="509" y="89" xlink:href="#scrub1"/>
  <use x="18" y="84" xlink:href="#scrub1"/>
  <use x="38" y="74" xlink:href="#scrub1"/>
  <use x="62" y="84" xlink:href="#scrub1"/>
  <use x="87" y="88" xlink:href="#scrub1"/>
  <use x="121" y="79" xlink:href="#scrub1"/>
  <use x="144" y="77" xlink:href="#scrub1"/>
  <use x="162" y="75" xlink:href="#scrub1"/>
  <use x="184" y="90" xlink:href="#scrub1"/>
  <use x="211" y="77" xlink:href="#scrub1"/>
  <use x="237" y="84" xlink:href="#scrub1"/>
  <use x="259" y="84" xlink:href="#scrub1"/>
  <use x="287" y="81" xlink:href="#scrub1"/>
  <use x="311" y="85" xlink:href="#scrub1"/>
  <use x="331" y="77" xlink:href="#scrub1"/>
  <use x="352" y="86" xlink:href="#scrub1"/>
  <use x="387" y="87" xlink:href="#scrub1"/>
  <use x="401" y="72" xlink:href="#scrub1"/>
  <use x="432" y="85" xlink:href="#scrub1"/>
  <use x="448" y="74" xlink:href="#scrub1"/>
  <use x="478" y="97" xlink:href="#scrub1"/>
  <use x="501" y="109" xlink:href="#scrub1"/>
  <use x="25" y="104" xlink:href="#scrub1"/>
  <use x="45" y="101" xlink:href="#scrub1"/>
  <use x="66" y="110" xlink:href="#scrub1"/>
  <use x="95" y="112" xlink:href="#scrub1"/>
  <use x="111" y="105" xlink:href="#scrub1"/>
  <use x="133" y="100" xlink:href="#scrub1"/>
  <use x="156" y="104" xlink:href="#scrub1"/>
  <use x="182" y="111" xlink:href="#scrub1"/>
  <use x="204" y="101" xlink:href="#scrub1"/>
  <use x="227" y="103" xlink:href="#scrub1"/>
  <use x="263" y="105" xlink:href="#scrub1"/>
  <use x="280" y="109" xlink:href="#scrub1"/>
  <use x="308" y="116" xlink:href="#scrub1"/>
  <use x="325" y="106" xlink:href="#scrub1"/>
  <use x="349" y="110" xlink:href="#scrub1"/>
  <use x="373" y="102" xlink:href="#scrub1"/>
  <use x="414" y="101" xlink:href="#scrub1"/>
  <use x="438" y="107" xlink:href="#scrub1"/>
  <use x="456" y="114" xlink:href="#scrub1"/>
  <use x="480" y="124" xlink:href="#scrub1"/>
  <use x="502" y="133" xlink:href="#scrub1"/>
  <use x="15" y="133" xlink:href="#scrub1"/>
  <use x="32" y="124" xlink:href="#scrub1"/>
  <use x="65" y="132" xlink:href="#scrub1"/>
  <use x="84" y="125" xlink:href="#scrub1"/>
  <use x="114" y="130" xlink:href="#scrub1"/>
  <use x="134" y="127" xlink:href="#scrub1"/>
  <use x="166" y="124" xlink:href="#scrub1"/>
  <use x="179" y="139" xlink:href="#scrub1"/>
  <use x="213" y="129" xlink:href="#scrub1"/>
  <use x="233" y="125" xlink:href="#scrub1"/>
  <use x="261" y="125" xlink:href="#scrub1"/>
  <use x="282" y="129" xlink:href="#scrub1"/>
  <use x="314" y="139" xlink:href="#scrub1"/>
  <use x="338" y="128" xlink:href="#scrub1"/>
  <use x="363" y="131" xlink:href="#scrub1"/>
  <use x="380" y="121" xlink:href="#scrub1"/>
  <use x="404" y="121" xlink:href="#scrub1"/>
  <use x="427" y="129" xlink:href="#scrub1"/>
  <use x="452" y="137" xlink:href="#scrub1"/>
  <use x="477" y="152" xlink:href="#scrub1"/>
  <use x="508" y="153" xlink:href="#scrub1"/>
  <use x="11" y="163" xlink:href="#scrub1"/>
  <use x="42" y="146" xlink:href="#scrub1"/>
  <use x="60" y="157" xlink:href="#scrub1"/>
  <use x="81" y="161" xlink:href="#scrub1"/>
  <use x="105" y="156" xlink:href="#scrub1"/>
  <use x="143" y="149" xlink:href="#scrub1"/>
  <use x="166" y="158" xlink:href="#scrub1"/>
  <use x="189" y="159" xlink:href="#scrub1"/>
  <use x="215" y="147" xlink:href="#scrub1"/>
  <use x="242" y="153" xlink:href="#scrub1"/>
  <use x="259" y="152" xlink:href="#scrub1"/>
  <use x="287" y="156" xlink:href="#scrub1"/>
  <use x="304" y="167" xlink:href="#scrub1"/>
  <use x="338" y="151" xlink:href="#scrub1"/>
  <use x="366" y="151" xlink:href="#scrub1"/>
  <use x="388" y="147" xlink:href="#scrub1"/>
  <use x="413" y="165" xlink:href="#scrub1"/>
  <use x="425" y="148" xlink:href="#scrub1"/>
  <use x="448" y="160" xlink:href="#scrub1"/>
  <use x="477" y="174" xlink:href="#scrub1"/>
  <use x="498" y="175" xlink:href="#scrub1"/>
  <use x="23" y="180" xlink:href="#scrub1"/>
  <use x="43" y="175" xlink:href="#scrub1"/>
  <use x="69" y="185" xlink:href="#scrub1"/>
  <use x="98" y="180" xlink:href="#scrub1"/>
  <use x="123" y="170" xlink:href="#scrub1"/>
  <use x="143" y="175" xlink:href="#scrub1"/>
  <use x="167" y="179" xlink:href="#scrub1"/>
  <use x="192" y="181" xlink:href="#scrub1"/>
  <use x="220" y="167" xlink:href="#scrub1"/>
  <use x="226" y="186" xlink:href="#scrub1"/>
  <use x="253" y="178" xlink:href="#scrub1"/>
  <use x="282" y="181" xlink:href="#scrub1"/>
  <use x="319" y="186" xlink:href="#scrub1"/>
  <use x="329" y="171" xlink:href="#scrub1"/>
  <use x="366" y="172" xlink:href="#scrub1"/>
  <use x="375" y="186" xlink:href="#scrub1"/>
  <use x="398" y="175" xlink:href="#scrub1"/>
  <use x="431" y="177" xlink:href="#scrub1"/>
  <use x="450" y="180" xlink:href="#scrub1"/>
  <use x="473" y="198" xlink:href="#scrub1"/>
  <use x="498" y="196" xlink:href="#scrub1"/>
  <use x="13" y="200" xlink:href="#scrub1"/>
  <use x="38" y="203" xlink:href="#scrub1"/>
  <use x="67" y="210" xlink:href="#scrub1"/>
  <use x="95" y="212" xlink:href="#scrub1"/>
  <use x="109" y="203" xlink:href="#scrub1"/>
  <use x="131" y="195" xlink:href="#scrub1"/>
  <use x="165" y="202" xlink:href="#scrub1"/>
  <use x="191" y="205" xlink:href="#scrub1"/>
  <use x="214" y="210" xlink:href="#scrub1"/>
  <use x="228" y="209" xlink:href="#scrub1"/>
  <use x="260" y="195" xlink:href="#scrub1"/>
  <use x="281" y="212" xlink:href="#scrub1"/>
  <use x="303" y="197" xlink:href="#scrub1"/>
  <use x="326" y="208" xlink:href="#scrub1"/>
  <use x="352" y="197" xlink:href="#scrub1"/>
  <use x="378" y="210" xlink:href="#scrub1"/>
  <use x="402" y="207" xlink:href="#scrub1"/>
  <use x="425" y="199" xlink:href="#scrub1"/>
  <use x="457" y="203" xlink:href="#scrub1"/>
  <use x="487" y="234" xlink:href="#scrub1"/>
  <use x="504" y="219" xlink:href="#scrub1"/>
  <use x="13" y="227" xlink:href="#scrub1"/>
  <use x="38" y="230" xlink:href="#scrub1"/>
  <use x="67" y="234" xlink:href="#scrub1"/>
  <use x="84" y="222" xlink:href="#scrub1"/>
  <use x="123" y="220" xlink:href="#scrub1"/>
  <use x="134" y="233" xlink:href="#scrub1"/>
  <use x="160" y="228" xlink:href="#scrub1"/>
  <use x="185" y="223" xlink:href="#scrub1"/>
  <use x="213" y="231" xlink:href="#scrub1"/>
  <use x="243" y="229" xlink:href="#scrub1"/>
  <use x="261" y="216" xlink:href="#scrub1"/>
  <use x="284" y="230" xlink:href="#scrub1"/>
  <use x="314" y="236" xlink:href="#scrub1"/>
  <use x="337" y="225" xlink:href="#scrub1"/>
  <use x="356" y="230" xlink:href="#scrub1"/>
  <use x="386" y="231" xlink:href="#scrub1"/>
  <use x="408" y="234" xlink:href="#scrub1"/>
  <use x="428" y="227" xlink:href="#scrub1"/>
  <use x="461" y="227" xlink:href="#scrub1"/>
  <use x="477" y="248" xlink:href="#scrub1"/>
  <use x="503" y="248" xlink:href="#scrub1"/>
  <use x="12" y="251" xlink:href="#scrub1"/>
  <use x="45" y="251" xlink:href="#scrub1"/>
  <use x="69" y="255" xlink:href="#scrub1"/>
  <use x="95" y="260" xlink:href="#scrub1"/>
  <use x="113" y="245" xlink:href="#scrub1"/>
  <use x="140" y="257" xlink:href="#scrub1"/>
  <use x="161" y="246" xlink:href="#scrub1"/>
  <use x="176" y="256" xlink:href="#scrub1"/>
  <use x="220" y="258" xlink:href="#scrub1"/>
  <use x="230" y="247" xlink:href="#scrub1"/>
  <use x="263" y="251" xlink:href="#scrub1"/>
  <use x="285" y="259" xlink:href="#scrub1"/>
  <use x="300" y="245" xlink:href="#scrub1"/>
  <use x="332" y="252" xlink:href="#scrub1"/>
  <use x="359" y="260" xlink:href="#scrub1"/>
  <use x="387" y="250" xlink:href="#scrub1"/>
  <use x="407" y="261" xlink:href="#scrub1"/>
  <use x="436" y="250" xlink:href="#scrub1"/>
  <use x="452" y="249" xlink:href="#scrub1"/>
  <use x="483" y="275" xlink:href="#scrub1"/>
  <use x="503" y="283" xlink:href="#scrub1"/>
  <use x="22" y="276" xlink:href="#scrub1"/>
  <use x="45" y="276" xlink:href="#scrub1"/>
  <use x="67" y="275" xlink:href="#scrub1"/>
  <use x="96" y="283" xlink:href="#scrub1"/>
  <use x="118" y="284" xlink:href="#scrub1"/>
  <use x="130" y="271" xlink:href="#scrub1"/>
  <use x="164" y="281" xlink:href="#scrub1"/>
  <use x="185" y="271" xlink:href="#scrub1"/>
  <use x="203" y="272" xlink:href="#scrub1"/>
  <use x="228" y="274" xlink:href="#scrub1"/>
  <use x="252" y="282" xlink:href="#scrub1"/>
  <use x="275" y="276" xlink:href="#scrub1"/>
  <use x="303" y="278" xlink:href="#scrub1"/>
  <use x="339" y="277" xlink:href="#scrub1"/>
  <use x="361" y="286" xlink:href="#scrub1"/>
  <use x="387" y="270" xlink:href="#scrub1"/>
  <use x="396" y="287" xlink:href="#scrub1"/>
  <use x="434" y="282" xlink:href="#scrub1"/>
  <use x="450" y="274" xlink:href="#scrub1"/>
  <use x="475" y="302" xlink:href="#scrub1"/>
  <use x="501" y="306" xlink:href="#scrub1"/>
  <use x="10" y="296" xlink:href="#scrub1"/>
  <use x="31" y="298" xlink:href="#scrub1"/>
  <use x="62" y="304" xlink:href="#scrub1"/>
  <use x="85" y="297" xlink:href="#scrub1"/>
  <use x="106" y="309" xlink:href="#scrub1"/>
  <use x="139" y="305" xlink:href="#scrub1"/>
  <use x="161" y="299" xlink:href="#scrub1"/>
  <use x="187" y="300" xlink:href="#scrub1"/>
  <use x="206" y="306" xlink:href="#scrub1"/>
  <use x="232" y="307" xlink:href="#scrub1"/>
  <use x="249" y="306" xlink:href="#scrub1"/>
  <use x="283" y="295" xlink:href="#scrub1"/>
  <use x="311" y="307" xlink:href="#scrub1"/>
  <use x="329" y="296" xlink:href="#scrub1"/>
  <use x="348" y="305" xlink:href="#scrub1"/>
  <use x="383" y="298" xlink:href="#scrub1"/>
  <use x="411" y="298" xlink:href="#scrub1"/>
  <use x="436" y="301" xlink:href="#scrub1"/>
  <use x="459" y="296" xlink:href="#scrub1"/>
  <use x="476" y="329" xlink:href="#scrub1"/>
  <use x="493" y="322" xlink:href="#scrub1"/>
  <use x="6" y="330" xlink:href="#scrub1"/>
  <use x="40" y="332" xlink:href="#scrub1"/>
  <use x="54" y="323" xlink:href="#scrub1"/>
  <use x="81" y="332" xlink:href="#scrub1"/>
  <use x="113" y="331" xlink:href="#scrub1"/>
  <use x="143" y="325" xlink:href="#scrub1"/>
  <use x="166" y="329" xlink:href="#scrub1"/>
  <use x="187" y="333" xlink:href="#scrub1"/>
  <use x="211" y="330" xlink:href="#scrub1"/>
  <use x="240" y="328" xlink:href="#scrub1"/>
  <use x="262" y="316" xlink:href="#scrub1"/>
  <use x="279" y="331" xlink:href="#scrub1"/>
  <use x="310" y="324" xlink:href="#scrub1"/>
  <use x="336" y="331" xlink:href="#scrub1"/>
  <use x="365" y="324" xlink:href="#scrub1"/>
  <use x="387" y="330" xlink:href="#scrub1"/>
  <use x="407" y="330" xlink:href="#scrub1"/>
  <use x="429" y="321" xlink:href="#scrub1"/>
  <use x="451" y="335" xlink:href="#scrub1"/>
  <use x="476" y="355" xlink:href="#scrub1"/>
  <use x="502" y="346" xlink:href="#scrub1"/>
  <use x="25" y="359" xlink:href="#scrub1"/>
  <use x="29" y="344" xlink:href="#scrub1"/>
  <use x="58" y="352" xlink:href="#scrub1"/>
  <use x="87" y="353" xlink:href="#scrub1"/>
  <use x="110" y="348" xlink:href="#scrub1"/>
  <use x="136" y="344" xlink:href="#scrub1"/>
  <use x="157" y="357" xlink:href="#scrub1"/>
  <use x="192" y="355" xlink:href="#scrub1"/>
  <use x="214" y="360" xlink:href="#scrub1"/>
  <use x="230" y="347" xlink:href="#scrub1"/>
  <use x="255" y="346" xlink:href="#scrub1"/>
  <use x="287" y="344" xlink:href="#scrub1"/>
  <use x="308" y="353" xlink:href="#scrub1"/>
  <use x="339" y="355" xlink:href="#scrub1"/>
  <use x="362" y="350" xlink:href="#scrub1"/>
  <use x="386" y="351" xlink:href="#scrub1"/>
  <use x="406" y="357" xlink:href="#scrub1"/>
  <use x="428" y="345" xlink:href="#scrub1"/>
  <use x="455" y="359" xlink:href="#scrub1"/>
  <use x="482" y="383" xlink:href="#scrub1"/>
  <use x="505" y="373" xlink:href="#scrub1"/>
  <use x="11" y="370" xlink:href="#scrub1"/>
  <use x="34" y="384" xlink:href="#scrub1"/>
  <use x="70" y="379" xlink:href="#scrub1"/>
  <use x="92" y="378" xlink:href="#scrub1"/>
  <use x="114" y="382" xlink:href="#scrub1"/>
  <use x="130" y="368" xlink:href="#scrub1"/>
  <use x="168" y="377" xlink:href="#scrub1"/>
  <use x="193" y="372" xlink:href="#scrub1"/>
  <use x="214" y="385" xlink:href="#scrub1"/>
  <use x="234" y="377" xlink:href="#scrub1"/>
  <use x="265" y="368" xlink:href="#scrub1"/>
  <use x="286" y="370" xlink:href="#scrub1"/>
  <use x="312" y="385" xlink:href="#scrub1"/>
  <use x="326" y="374" xlink:href="#scrub1"/>
  <use x="349" y="374" xlink:href="#scrub1"/>
  <use x="388" y="375" xlink:href="#scrub1"/>
  <use x="414" y="387" xlink:href="#scrub1"/>
  <use x="426" y="371" xlink:href="#scrub1"/>
  <use x="454" y="379" xlink:href="#scrub1"/>
  <use x="486" y="407" xlink:href="#scrub1"/>
  <use x="509" y="394" xlink:href="#scrub1"/>
  <use x="11" y="405" xlink:href="#scrub1"/>
  <use x="48" y="400" xlink:href="#scrub1"/>
  <use x="69" y="397" xlink:href="#scrub1"/>
  <use x="89" y="408" xlink:href="#scrub1"/>
  <use x="111" y="403" xlink:href="#scrub1"/>
  <use x="146" y="387" xlink:href="#scrub1"/>
  <use x="154" y="403" xlink:href="#scrub1"/>
  <use x="184" y="402" xlink:href="#scrub1"/>
  <use x="214" y="404" xlink:href="#scrub1"/>
  <use x="238" y="398" xlink:href="#scrub1"/>
  <use x="258" y="391" xlink:href="#scrub1"/>
  <use x="280" y="395" xlink:href="#scrub1"/>
  <use x="299" y="406" xlink:href="#scrub1"/>
  <use x="341" y="399" xlink:href="#scrub1"/>
  <use x="362" y="392" xlink:href="#scrub1"/>
  <use x="385" y="396" xlink:href="#scrub1"/>
  <use x="398" y="404" xlink:href="#scrub1"/>
  <use x="432" y="402" xlink:href="#scrub1"/>
  <use x="453" y="397" xlink:href="#scrub1"/>
  <use x="475" y="419" xlink:href="#scrub1"/>
  <use x="505" y="426" xlink:href="#scrub1"/>
  <use x="16" y="433" xlink:href="#scrub1"/>
  <use x="37" y="415" xlink:href="#scrub1"/>
  <use x="56" y="426" xlink:href="#scrub1"/>
  <use x="95" y="426" xlink:href="#scrub1"/>
  <use x="119" y="423" xlink:href="#scrub1"/>
  <use x="137" y="425" xlink:href="#scrub1"/>
  <use x="166" y="418" xlink:href="#scrub1"/>
  <use x="183" y="431" xlink:href="#scrub1"/>
  <use x="219" y="424" xlink:href="#scrub1"/>
  <use x="243" y="417" xlink:href="#scrub1"/>
  <use x="264" y="429" xlink:href="#scrub1"/>
  <use x="289" y="430" xlink:href="#scrub1"/>
  <use x="312" y="417" xlink:href="#scrub1"/>
  <use x="328" y="418" xlink:href="#scrub1"/>
  <use x="357" y="426" xlink:href="#scrub1"/>
  <use x="382" y="424" xlink:href="#scrub1"/>
  <use x="411" y="428" xlink:href="#scrub1"/>
  <use x="432" y="422" xlink:href="#scrub1"/>
  <use x="454" y="428" xlink:href="#scrub1"/>
  <use x="479" y="450" xlink:href="#scrub1"/>
  <use x="502" y="444" xlink:href="#scrub1"/>
  <use x="5" y="459" xlink:href="#scrub1"/>
  <use x="44" y="449" xlink:href="#scrub1"/>
  <use x="62" y="451" xlink:href="#scrub1"/>
  <use x="92" y="448" xlink:href="#scrub1"/>
  <use x="116" y="445" xlink:href="#scrub1"/>
  <use x="140" y="448" xlink:href="#scrub1"/>
  <use x="158" y="450" xlink:href="#scrub1"/>
  <use x="188" y="448" xlink:href="#scrub1"/>
  <use x="209" y="438" xlink:href="#scrub1"/>
  <use x="239" y="451" xlink:href="#scrub1"/>
  <use x="255" y="449" xlink:href="#scrub1"/>
  <use x="281" y="451" xlink:href="#scrub1"/>
  <use x="313" y="447" xlink:href="#scrub1"/>
  <use x="339" y="452" xlink:href="#scrub1"/>
  <use x="355" y="440" xlink:href="#scrub1"/>
  <use x="393" y="452" xlink:href="#scrub1"/>
  <use x="413" y="454" xlink:href="#scrub1"/>
  <use x="438" y="451" xlink:href="#scrub1"/>
  <use x="456" y="445" xlink:href="#scrub1"/>
  <use x="474" y="474" xlink:href="#scrub1"/>
  <use x="506" y="475" xlink:href="#scrub1"/>
  <use x="23" y="458" xlink:href="#scrub1"/>
  <use x="34" y="470" xlink:href="#scrub1"/>
  <use x="62" y="477" xlink:href="#scrub1"/>
  <use x="83" y="469" xlink:href="#scrub1"/>
  <use x="116" y="474" xlink:href="#scrub1"/>
  <use x="141" y="479" xlink:href="#scrub1"/>
  <use x="159" y="478" xlink:href="#scrub1"/>
  <use x="181" y="476" xlink:href="#scrub1"/>
  <use x="201" y="466" xlink:href="#scrub1"/>
  <use x="222" y="467" xlink:href="#scrub1"/>
  <use x="259" y="474" xlink:href="#scrub1"/>
  <use x="292" y="476" xlink:href="#scrub1"/>
  <use x="313" y="472" xlink:href="#scrub1"/>
  <use x="336" y="473" xlink:href="#scrub1"/>
  <use x="361" y="468" xlink:href="#scrub1"/>
  <use x="376" y="461" xlink:href="#scrub1"/>
  <use x="398" y="476" xlink:href="#scrub1"/>
  <use x="433" y="468" xlink:href="#scrub1"/>
  <use x="455" y="473" xlink:href="#scrub1"/>
  <use x="486" y="493" xlink:href="#scrub1"/>
  <use x="509" y="503" xlink:href="#scrub1"/>
  <use x="18" y="499" xlink:href="#scrub1"/>
  <use x="42" y="499" xlink:href="#scrub1"/>
  <use x="62" y="498" xlink:href="#scrub1"/>
  <use x="95" y="488" xlink:href="#scrub1"/>
  <use x="116" y="493" xlink:href="#scrub1"/>
  <use x="132" y="504" xlink:href="#scrub1"/>
  <use x="155" y="505" xlink:href="#scrub1"/>
  <use x="184" y="495" xlink:href="#scrub1"/>
  <use x="219" y="501" xlink:href="#scrub1"/>
  <use x="233" y="486" xlink:href="#scrub1"/>
  <use x="253" y="494" xlink:href="#scrub1"/>
  <use x="280" y="493" xlink:href="#scrub1"/>
  <use x="304" y="498" xlink:href="#scrub1"/>
  <use x="331" y="496" xlink:href="#scrub1"/>
  <use x="361" y="492" xlink:href="#scrub1"/>
  <use x="380" y="501" xlink:href="#scrub1"/>
  <use x="412" y="492" xlink:href="#scrub1"/>
  <use x="437" y="506" xlink:href="#scrub1"/>
  <use x="449" y="494" xlink:href="#scrub1"/>
</svg>
