<svg xmlns="http://www.w3.org/2000/svg" xmlns:xlink="http://www.w3.org/1999/xlink" width="512" height="512" viewBox="0 0 512 512">
  <defs>
    <path id="scrub1" stroke-width="1" stroke="#b0be93" d="m-4,9.5 h7 m-3.5,0 v-5.5 m0,5.7 -2.5,-3.7 m5,0 -2.5,3.7"/>
  </defs>
  <use x="11" y="5" xlink:href="#scrub1"/>
  <use x="36" y="17" xlink:href="#scrub1"/>
  <use x="62" y="10" xlink:href="#scrub1"/>
  <use x="84" y="9" xlink:href="#scrub1"/>
  <use x="108" y="9" xlink:href="#scrub1"/>
  <use x="134" y="3" xlink:href="#scrub1"/>
  <use x="155" y="19" xlink:href="#scrub1"/>
  <use x="173" y="18" xlink:href="#scrub1"/>
  <use x="218" y="4" xlink:href="#scrub1"/>
  <use x="237" y="18" xlink:href="#scrub1"/>
  <use x="249" y="3" xlink:href="#scrub1"/>
  <use x="282" y="5" xlink:href="#scrub1"/>
  <use x="308" y="19" xlink:href="#scrub1"/>
  <use x="327" y="15" xlink:href="#scrub1"/>
  <use x="356" y="10" xlink:href="#scrub1"/>
  <use x="383" y="12" xlink:href="#scrub1"/>
  <use x="407" y="14" xlink:href="#scrub1"/>
  <use x="427" y="17" xlink:href="#scrub1"/>
  <use x="452" y="7" xlink:href="#scrub1"/>
  <use x="471" y="12" xlink:href="#scrub1"/>
  <use x="510" y="15" xlink:href="#scrub1"/>
  <use x="-2" y="15" xlink:href="#scrub1"/>
  <use x="8" y="38" xlink:href="#scrub1"/>
  <use x="41" y="44" xlink:href="#scrub1"/>
  <use x="55" y="29" xlink:href="#scrub1"/>
  <use x="94" y="44" xlink:href="#scrub1"/>
  <use x="105" y="32" xlink:href="#scrub1"/>
  <use x="126" y="40" xlink:href="#scrub1"/>
  <use x="157" y="37" xlink:href="#scrub1"/>
  <use x="186" y="40" xlink:href="#scrub1"/>
  <use x="204" y="31" xlink:href="#scrub1"/>
  <use x="222" y="40" xlink:href="#scrub1"/>
  <use x="253" y="35" xlink:href="#scrub1"/>
  <use x="275" y="37" xlink:href="#scrub1"/>
  <use x="295" y="29" xlink:href="#scrub1"/>
  <use x="318" y="41" xlink:href="#scrub1"/>
  <use x="352" y="42" xlink:href="#scrub1"/>
  <use x="373" y="33" xlink:href="#scrub1"/>
  <use x="396" y="35" xlink:href="#scrub1"/>
  <use x="434" y="45" xlink:href="#scrub1"/>
  <use x="449" y="30" xlink:href="#scrub1"/>
  <use x="482" y="42" xlink:href="#scrub1"/>
  <use x="496" y="28" xlink:href="#scrub1"/>
  <use x="4" y="55" xlink:href="#scrub1"/>
  <use x="35" y="66" xlink:href="#scrub1"/>
  <use x="61" y="59" xlink:href="#scrub1"/>
  <use x="82" y="55" xlink:href="#scrub1"/>
  <use x="108" y="62" xlink:href="#scrub1"/>
  <use x="138" y="66" xlink:href="#scrub1"/>
  <use x="153" y="54" xlink:href="#scrub1"/>
  <use x="187" y="58" xlink:href="#scrub1"/>
  <use x="216" y="60" xlink:href="#scrub1"/>
  <use x="233" y="65" xlink:href="#scrub1"/>
  <use x="251" y="58" xlink:href="#scrub1"/>
  <use x="280" y="59" xlink:href="#scrub1"/>
  <use x="300" y="64" xlink:href="#scrub1"/>
  <use x="334" y="51" xlink:href="#scrub1"/>
  <use x="343" y="70" xlink:href="#scrub1"/>
  <use x="372" y="58" xlink:href="#scrub1"/>
  <use x="396" y="67" xlink:href="#scrub1"/>
  <use x="417" y="60" xlink:href="#scrub1"/>
  <use x="450" y="54" xlink:href="#scrub1"/>
  <use x="470" y="65" xlink:href="#scrub1"/>
  <use x="507" y="66" xlink:href="#scrub1"/>
  <use x="19" y="82" xlink:href="#scrub1"/>
  <use x="42" y="92" xlink:href="#scrub1"/>
  <use x="63" y="87" xlink:href="#scrub1"/>
  <use x="83" y="77" xlink:href="#scrub1"/>
  <use x="107" y="87" xlink:href="#scrub1"/>
  <use x="132" y="91" xlink:href="#scrub1"/>
  <use x="166" y="82" xlink:href="#scrub1"/>
  <use x="189" y="80" xlink:href="#scrub1"/>
  <use x="207" y="78" xlink:href="#scrub1"/>
  <use x="229" y="93" xlink:href="#scrub1"/>
  <use x="256" y="80" xlink:href="#scrub1"/>
  <use x="282" y="87" xlink:href="#scrub1"/>
  <use x="304" y="87" xlink:href="#scrub1"/>
  <use x="332" y="84" xlink:href="#scrub1"/>
  <use x="356" y="88" xlink:href="#scrub1"/>
  <use x="376" y="80" xlink:href="#scrub1"/>
  <use x="397" y="89" xlink:href="#scrub1"/>
  <use x="432" y="90" xlink:href="#scrub1"/>
  <use x="446" y="75" xlink:href="#scrub1"/>
  <use x="477" y="88" xlink:href="#scrub1"/>
  <use x="493" y="77" xlink:href="#scrub1"/>
  <use x="11" y="100" xlink:href="#scrub1"/>
  <use x="34" y="112" xlink:href="#scrub1"/>
  <use x="70" y="107" xlink:href="#scrub1"/>
  <use x="90" y="104" xlink:href="#scrub1"/>
  <use x="111" y="113" xlink:href="#scrub1"/>
  <use x="140" y="115" xlink:href="#scrub1"/>
  <use x="156" y="108" xlink:href="#scrub1"/>
  <use x="178" y="103" xlink:href="#scrub1"/>
  <use x="201" y="107" xlink:href="#scrub1"/>
  <use x="227" y="114" xlink:href="#scrub1"/>
  <use x="249" y="104" xlink:href="#scrub1"/>
  <use x="272" y="106" xlink:href="#scrub1"/>
  <use x="308" y="108" xlink:href="#scrub1"/>
  <use x="325" y="112" xlink:href="#scrub1"/>
  <use x="353" y="119" xlink:href="#scrub1"/>
  <use x="370" y="109" xlink:href="#scrub1"/>
  <use x="394" y="113" xlink:href="#scrub1"/>
  <use x="418" y="105" xlink:href="#scrub1"/>
  <use x="459" y="104" xlink:href="#scrub1"/>
  <use x="483" y="110" xlink:href="#scrub1"/>
  <use x="501" y="117" xlink:href="#scrub1"/>
  <use x="13" y="127" xlink:href="#scrub1"/>
  <use x="35" y="136" xlink:href="#scrub1"/>
  <use x="60" y="136" xlink:href="#scrub1"/>
  <use x="77" y="127" xlink:href="#scrub1"/>
  <use x="110" y="135" xlink:href="#scrub1"/>
  <use x="129" y="128" xlink:href="#scrub1"/>
  <use x="159" y="133" xlink:href="#scrub1"/>
  <use x="179" y="130" xlink:href="#scrub1"/>
  <use x="211" y="127" xlink:href="#scrub1"/>
  <use x="224" y="142" xlink:href="#scrub1"/>
  <use x="258" y="132" xlink:href="#scrub1"/>
  <use x="278" y="128" xlink:href="#scrub1"/>
  <use x="306" y="128" xlink:href="#scrub1"/>
  <use x="327" y="132" xlink:href="#scrub1"/>
  <use x="359" y="142" xlink:href="#scrub1"/>
  <use x="383" y="131" xlink:href="#scrub1"/>
  <use x="408" y="134" xlink:href="#scrub1"/>
  <use x="425" y="124" xlink:href="#scrub1"/>
  <use x="449" y="124" xlink:href="#scrub1"/>
  <use x="472" y="132" xlink:href="#scrub1"/>
  <use x="497" y="140" xlink:href="#scrub1"/>
  <use x="10" y="155" xlink:href="#scrub1"/>
  <use x="41" y="156" xlink:href="#scrub1"/>
  <use x="56" y="166" xlink:href="#scrub1"/>
  <use x="87" y="149" xlink:href="#scrub1"/>
  <use x="105" y="160" xlink:href="#scrub1"/>
  <use x="126" y="164" xlink:href="#scrub1"/>
  <use x="150" y="159" xlink:href="#scrub1"/>
  <use x="188" y="152" xlink:href="#scrub1"/>
  <use x="211" y="161" xlink:href="#scrub1"/>
  <use x="234" y="162" xlink:href="#scrub1"/>
  <use x="260" y="150" xlink:href="#scrub1"/>
  <use x="287" y="156" xlink:href="#scrub1"/>
  <use x="304" y="155" xlink:href="#scrub1"/>
  <use x="332" y="159" xlink:href="#scrub1"/>
  <use x="349" y="170" xlink:href="#scrub1"/>
  <use x="383" y="154" xlink:href="#scrub1"/>
  <use x="411" y="154" xlink:href="#scrub1"/>
  <use x="433" y="150" xlink:href="#scrub1"/>
  <use x="458" y="168" xlink:href="#scrub1"/>
  <use x="470" y="151" xlink:href="#scrub1"/>
  <use x="493" y="163" xlink:href="#scrub1"/>
  <use x="10" y="177" xlink:href="#scrub1"/>
  <use x="31" y="178" xlink:href="#scrub1"/>
  <use x="68" y="183" xlink:href="#scrub1"/>
  <use x="88" y="178" xlink:href="#scrub1"/>
  <use x="114" y="188" xlink:href="#scrub1"/>
  <use x="143" y="183" xlink:href="#scrub1"/>
  <use x="168" y="173" xlink:href="#scrub1"/>
  <use x="188" y="178" xlink:href="#scrub1"/>
  <use x="212" y="182" xlink:href="#scrub1"/>
  <use x="237" y="184" xlink:href="#scrub1"/>
  <use x="265" y="170" xlink:href="#scrub1"/>
  <use x="271" y="189" xlink:href="#scrub1"/>
  <use x="298" y="181" xlink:href="#scrub1"/>
  <use x="327" y="184" xlink:href="#scrub1"/>
  <use x="364" y="189" xlink:href="#scrub1"/>
  <use x="374" y="174" xlink:href="#scrub1"/>
  <use x="411" y="175" xlink:href="#scrub1"/>
  <use x="420" y="189" xlink:href="#scrub1"/>
  <use x="443" y="178" xlink:href="#scrub1"/>
  <use x="476" y="180" xlink:href="#scrub1"/>
  <use x="495" y="183" xlink:href="#scrub1"/>
  <use x="6" y="201" xlink:href="#scrub1"/>
  <use x="31" y="199" xlink:href="#scrub1"/>
  <use x="58" y="203" xlink:href="#scrub1"/>
  <use x="83" y="206" xlink:href="#scrub1"/>
  <use x="112" y="213" xlink:href="#scrub1"/>
  <use x="140" y="215" xlink:href="#scrub1"/>
  <use x="154" y="206" xlink:href="#scrub1"/>
  <use x="176" y="198" xlink:href="#scrub1"/>
  <use x="210" y="205" xlink:href="#scrub1"/>
  <use x="236" y="208" xlink:href="#scrub1"/>
  <use x="259" y="213" xlink:href="#scrub1"/>
  <use x="273" y="212" xlink:href="#scrub1"/>
  <use x="305" y="198" xlink:href="#scrub1"/>
  <use x="326" y="215" xlink:href="#scrub1"/>
  <use x="348" y="200" xlink:href="#scrub1"/>
  <use x="371" y="211" xlink:href="#scrub1"/>
  <use x="397" y="200" xlink:href="#scrub1"/>
  <use x="423" y="213" xlink:href="#scrub1"/>
  <use x="447" y="210" xlink:href="#scrub1"/>
  <use x="470" y="202" xlink:href="#scrub1"/>
  <use x="502" y="206" xlink:href="#scrub1"/>
  <use x="20" y="237" xlink:href="#scrub1"/>
  <use x="37" y="222" xlink:href="#scrub1"/>
  <use x="58" y="230" xlink:href="#scrub1"/>
  <use x="83" y="233" xlink:href="#scrub1"/>
  <use x="112" y="237" xlink:href="#scrub1"/>
  <use x="129" y="225" xlink:href="#scrub1"/>
  <use x="168" y="223" xlink:href="#scrub1"/>
  <use x="179" y="236" xlink:href="#scrub1"/>
  <use x="205" y="231" xlink:href="#scrub1"/>
  <use x="230" y="226" xlink:href="#scrub1"/>
  <use x="258" y="234" xlink:href="#scrub1"/>
  <use x="288" y="232" xlink:href="#scrub1"/>
  <use x="306" y="219" xlink:href="#scrub1"/>
  <use x="329" y="233" xlink:href="#scrub1"/>
  <use x="359" y="239" xlink:href="#scrub1"/>
  <use x="382" y="228" xlink:href="#scrub1"/>
  <use x="401" y="233" xlink:href="#scrub1"/>
  <use x="431" y="234" xlink:href="#scrub1"/>
  <use x="453" y="237" xlink:href="#scrub1"/>
  <use x="473" y="230" xlink:href="#scrub1"/>
  <use x="506" y="230" xlink:href="#scrub1"/>
  <use x="10" y="251" xlink:href="#scrub1"/>
  <use x="36" y="251" xlink:href="#scrub1"/>
  <use x="57" y="254" xlink:href="#scrub1"/>
  <use x="90" y="254" xlink:href="#scrub1"/>
  <use x="114" y="258" xlink:href="#scrub1"/>
  <use x="140" y="263" xlink:href="#scrub1"/>
  <use x="158" y="248" xlink:href="#scrub1"/>
  <use x="185" y="260" xlink:href="#scrub1"/>
  <use x="206" y="249" xlink:href="#scrub1"/>
  <use x="221" y="259" xlink:href="#scrub1"/>
  <use x="265" y="261" xlink:href="#scrub1"/>
  <use x="275" y="250" xlink:href="#scrub1"/>
  <use x="308" y="254" xlink:href="#scrub1"/>
  <use x="330" y="262" xlink:href="#scrub1"/>
  <use x="345" y="248" xlink:href="#scrub1"/>
  <use x="377" y="255" xlink:href="#scrub1"/>
  <use x="404" y="263" xlink:href="#scrub1"/>
  <use x="432" y="253" xlink:href="#scrub1"/>
  <use x="452" y="264" xlink:href="#scrub1"/>
  <use x="481" y="253" xlink:href="#scrub1"/>
  <use x="497" y="252" xlink:href="#scrub1"/>
  <use x="16" y="278" xlink:href="#scrub1"/>
  <use x="36" y="286" xlink:href="#scrub1"/>
  <use x="67" y="279" xlink:href="#scrub1"/>
  <use x="90" y="279" xlink:href="#scrub1"/>
  <use x="112" y="278" xlink:href="#scrub1"/>
  <use x="141" y="286" xlink:href="#scrub1"/>
  <use x="163" y="287" xlink:href="#scrub1"/>
  <use x="175" y="274" xlink:href="#scrub1"/>
  <use x="209" y="284" xlink:href="#scrub1"/>
  <use x="230" y="274" xlink:href="#scrub1"/>
  <use x="248" y="275" xlink:href="#scrub1"/>
  <use x="273" y="277" xlink:href="#scrub1"/>
  <use x="297" y="285" xlink:href="#scrub1"/>
  <use x="320" y="279" xlink:href="#scrub1"/>
  <use x="348" y="281" xlink:href="#scrub1"/>
  <use x="384" y="280" xlink:href="#scrub1"/>
  <use x="406" y="289" xlink:href="#scrub1"/>
  <use x="432" y="273" xlink:href="#scrub1"/>
  <use x="441" y="290" xlink:href="#scrub1"/>
  <use x="479" y="285" xlink:href="#scrub1"/>
  <use x="495" y="277" xlink:href="#scrub1"/>
  <use x="8" y="305" xlink:href="#scrub1"/>
  <use x="34" y="309" xlink:href="#scrub1"/>
  <use x="55" y="299" xlink:href="#scrub1"/>
  <use x="76" y="301" xlink:href="#scrub1"/>
  <use x="107" y="307" xlink:href="#scrub1"/>
  <use x="130" y="300" xlink:href="#scrub1"/>
  <use x="151" y="312" xlink:href="#scrub1"/>
  <use x="184" y="308" xlink:href="#scrub1"/>
  <use x="206" y="302" xlink:href="#scrub1"/>
  <use x="232" y="303" xlink:href="#scrub1"/>
  <use x="251" y="309" xlink:href="#scrub1"/>
  <use x="277" y="310" xlink:href="#scrub1"/>
  <use x="294" y="309" xlink:href="#scrub1"/>
  <use x="328" y="298" xlink:href="#scrub1"/>
  <use x="356" y="310" xlink:href="#scrub1"/>
  <use x="374" y="299" xlink:href="#scrub1"/>
  <use x="393" y="308" xlink:href="#scrub1"/>
  <use x="428" y="301" xlink:href="#scrub1"/>
  <use x="456" y="301" xlink:href="#scrub1"/>
  <use x="481" y="304" xlink:href="#scrub1"/>
  <use x="504" y="299" xlink:href="#scrub1"/>
  <use x="9" y="332" xlink:href="#scrub1"/>
  <use x="26" y="325" xlink:href="#scrub1"/>
  <use x="51" y="333" xlink:href="#scrub1"/>
  <use x="85" y="335" xlink:href="#scrub1"/>
  <use x="99" y="326" xlink:href="#scrub1"/>
  <use x="126" y="335" xlink:href="#scrub1"/>
  <use x="158" y="334" xlink:href="#scrub1"/>
  <use x="188" y="328" xlink:href="#scrub1"/>
  <use x="211" y="332" xlink:href="#scrub1"/>
  <use x="232" y="336" xlink:href="#scrub1"/>
  <use x="256" y="333" xlink:href="#scrub1"/>
  <use x="285" y="331" xlink:href="#scrub1"/>
  <use x="307" y="319" xlink:href="#scrub1"/>
  <use x="324" y="334" xlink:href="#scrub1"/>
  <use x="355" y="327" xlink:href="#scrub1"/>
  <use x="381" y="334" xlink:href="#scrub1"/>
  <use x="410" y="327" xlink:href="#scrub1"/>
  <use x="432" y="333" xlink:href="#scrub1"/>
  <use x="452" y="333" xlink:href="#scrub1"/>
  <use x="474" y="324" xlink:href="#scrub1"/>
  <use x="496" y="338" xlink:href="#scrub1"/>
  <use x="9" y="358" xlink:href="#scrub1"/>
  <use x="35" y="349" xlink:href="#scrub1"/>
  <use x="70" y="362" xlink:href="#scrub1"/>
  <use x="74" y="347" xlink:href="#scrub1"/>
  <use x="103" y="355" xlink:href="#scrub1"/>
  <use x="132" y="356" xlink:href="#scrub1"/>
  <use x="155" y="351" xlink:href="#scrub1"/>
  <use x="181" y="347" xlink:href="#scrub1"/>
  <use x="202" y="360" xlink:href="#scrub1"/>
  <use x="237" y="358" xlink:href="#scrub1"/>
  <use x="259" y="363" xlink:href="#scrub1"/>
  <use x="275" y="350" xlink:href="#scrub1"/>
  <use x="300" y="349" xlink:href="#scrub1"/>
  <use x="332" y="347" xlink:href="#scrub1"/>
  <use x="353" y="356" xlink:href="#scrub1"/>
  <use x="384" y="358" xlink:href="#scrub1"/>
  <use x="407" y="353" xlink:href="#scrub1"/>
  <use x="431" y="354" xlink:href="#scrub1"/>
  <use x="451" y="360" xlink:href="#scrub1"/>
  <use x="473" y="348" xlink:href="#scrub1"/>
  <use x="500" y="362" xlink:href="#scrub1"/>
  <use x="15" y="386" xlink:href="#scrub1"/>
  <use x="38" y="376" xlink:href="#scrub1"/>
  <use x="56" y="373" xlink:href="#scrub1"/>
  <use x="79" y="387" xlink:href="#scrub1"/>
  <use x="115" y="382" xlink:href="#scrub1"/>
  <use x="137" y="381" xlink:href="#scrub1"/>
  <use x="159" y="385" xlink:href="#scrub1"/>
  <use x="175" y="371" xlink:href="#scrub1"/>
  <use x="213" y="380" xlink:href="#scrub1"/>
  <use x="238" y="375" xlink:href="#scrub1"/>
  <use x="259" y="388" xlink:href="#scrub1"/>
  <use x="279" y="380" xlink:href="#scrub1"/>
  <use x="310" y="371" xlink:href="#scrub1"/>
  <use x="331" y="373" xlink:href="#scrub1"/>
  <use x="357" y="388" xlink:href="#scrub1"/>
  <use x="371" y="377" xlink:href="#scrub1"/>
  <use x="394" y="377" xlink:href="#scrub1"/>
  <use x="433" y="378" xlink:href="#scrub1"/>
  <use x="459" y="390" xlink:href="#scrub1"/>
  <use x="471" y="374" xlink:href="#scrub1"/>
  <use x="499" y="382" xlink:href="#scrub1"/>
  <use x="19" y="410" xlink:href="#scrub1"/>
  <use x="42" y="397" xlink:href="#scrub1"/>
  <use x="56" y="408" xlink:href="#scrub1"/>
  <use x="93" y="403" xlink:href="#scrub1"/>
  <use x="114" y="400" xlink:href="#scrub1"/>
  <use x="134" y="411" xlink:href="#scrub1"/>
  <use x="156" y="406" xlink:href="#scrub1"/>
  <use x="191" y="390" xlink:href="#scrub1"/>
  <use x="199" y="406" xlink:href="#scrub1"/>
  <use x="229" y="405" xlink:href="#scrub1"/>
  <use x="259" y="407" xlink:href="#scrub1"/>
  <use x="283" y="401" xlink:href="#scrub1"/>
  <use x="303" y="394" xlink:href="#scrub1"/>
  <use x="325" y="398" xlink:href="#scrub1"/>
  <use x="344" y="409" xlink:href="#scrub1"/>
  <use x="386" y="402" xlink:href="#scrub1"/>
  <use x="407" y="395" xlink:href="#scrub1"/>
  <use x="430" y="399" xlink:href="#scrub1"/>
  <use x="443" y="407" xlink:href="#scrub1"/>
  <use x="477" y="405" xlink:href="#scrub1"/>
  <use x="498" y="400" xlink:href="#scrub1"/>
  <use x="8" y="422" xlink:href="#scrub1"/>
  <use x="38" y="429" xlink:href="#scrub1"/>
  <use x="61" y="436" xlink:href="#scrub1"/>
  <use x="82" y="418" xlink:href="#scrub1"/>
  <use x="101" y="429" xlink:href="#scrub1"/>
  <use x="140" y="429" xlink:href="#scrub1"/>
  <use x="164" y="426" xlink:href="#scrub1"/>
  <use x="182" y="428" xlink:href="#scrub1"/>
  <use x="211" y="421" xlink:href="#scrub1"/>
  <use x="228" y="434" xlink:href="#scrub1"/>
  <use x="264" y="427" xlink:href="#scrub1"/>
  <use x="288" y="420" xlink:href="#scrub1"/>
  <use x="309" y="432" xlink:href="#scrub1"/>
  <use x="334" y="433" xlink:href="#scrub1"/>
  <use x="357" y="420" xlink:href="#scrub1"/>
  <use x="373" y="421" xlink:href="#scrub1"/>
  <use x="402" y="429" xlink:href="#scrub1"/>
  <use x="427" y="427" xlink:href="#scrub1"/>
  <use x="456" y="431" xlink:href="#scrub1"/>
  <use x="477" y="425" xlink:href="#scrub1"/>
  <use x="499" y="431" xlink:href="#scrub1"/>
  <use x="12" y="453" xlink:href="#scrub1"/>
  <use x="35" y="447" xlink:href="#scrub1"/>
  <use x="50" y="462" xlink:href="#scrub1"/>
  <use x="89" y="452" xlink:href="#scrub1"/>
  <use x="107" y="454" xlink:href="#scrub1"/>
  <use x="137" y="451" xlink:href="#scrub1"/>
  <use x="161" y="448" xlink:href="#scrub1"/>
  <use x="185" y="451" xlink:href="#scrub1"/>
  <use x="203" y="453" xlink:href="#scrub1"/>
  <use x="233" y="451" xlink:href="#scrub1"/>
  <use x="254" y="441" xlink:href="#scrub1"/>
  <use x="284" y="454" xlink:href="#scrub1"/>
  <use x="300" y="452" xlink:href="#scrub1"/>
  <use x="326" y="454" xlink:href="#scrub1"/>
  <use x="358" y="450" xlink:href="#scrub1"/>
  <use x="384" y="455" xlink:href="#scrub1"/>
  <use x="400" y="443" xlink:href="#scrub1"/>
  <use x="438" y="455" xlink:href="#scrub1"/>
  <use x="458" y="457" xlink:href="#scrub1"/>
  <use x="483" y="454" xlink:href="#scrub1"/>
  <use x="501" y="448" xlink:href="#scrub1"/>
  <use x="7" y="477" xlink:href="#scrub1"/>
  <use x="39" y="478" xlink:href="#scrub1"/>
  <use x="68" y="461" xlink:href="#scrub1"/>
  <use x="79" y="473" xlink:href="#scrub1"/>
  <use x="107" y="480" xlink:href="#scrub1"/>
  <use x="128" y="472" xlink:href="#scrub1"/>
  <use x="161" y="477" xlink:href="#scrub1"/>
  <use x="186" y="482" xlink:href="#scrub1"/>
  <use x="204" y="481" xlink:href="#scrub1"/>
  <use x="226" y="479" xlink:href="#scrub1"/>
  <use x="246" y="469" xlink:href="#scrub1"/>
  <use x="267" y="470" xlink:href="#scrub1"/>
  <use x="304" y="477" xlink:href="#scrub1"/>
  <use x="337" y="479" xlink:href="#scrub1"/>
  <use x="358" y="475" xlink:href="#scrub1"/>
  <use x="381" y="476" xlink:href="#scrub1"/>
  <use x="406" y="471" xlink:href="#scrub1"/>
  <use x="421" y="464" xlink:href="#scrub1"/>
  <use x="443" y="479" xlink:href="#scrub1"/>
  <use x="478" y="471" xlink:href="#scrub1"/>
  <use x="500" y="476" xlink:href="#scrub1"/>
  <use x="19" y="496" xlink:href="#scrub1"/>
  <use x="42" y="506" xlink:href="#scrub1"/>
  <use x="42" y="-6" xlink:href="#scrub1"/>
  <use x="63" y="502" xlink:href="#scrub1"/>
  <use x="87" y="502" xlink:href="#scrub1"/>
  <use x="107" y="501" xlink:href="#scrub1"/>
  <use x="140" y="491" xlink:href="#scrub1"/>
  <use x="161" y="496" xlink:href="#scrub1"/>
  <use x="177" y="507" xlink:href="#scrub1"/>
  <use x="177" y="-5" xlink:href="#scrub1"/>
  <use x="200" y="508" xlink:href="#scrub1"/>
  <use x="200" y="-4" xlink:href="#scrub1"/>
  <use x="229" y="498" xlink:href="#scrub1"/>
  <use x="264" y="504" xlink:href="#scrub1"/>
  <use x="264" y="-8" xlink:href="#scrub1"/>
  <use x="278" y="489" xlink:href="#scrub1"/>
  <use x="298" y="497" xlink:href="#scrub1"/>
  <use x="325" y="496" xlink:href="#scrub1"/>
  <use x="349" y="501" xlink:href="#scrub1"/>
  <use x="376" y="499" xlink:href="#scrub1"/>
  <use x="406" y="495" xlink:href="#scrub1"/>
  <use x="425" y="504" xlink:href="#scrub1"/>
  <use x="425" y="-8" xlink:href="#scrub1"/>
  <use x="457" y="495" xlink:href="#scrub1"/>
  <use x="482" y="509" xlink:href="#scrub1"/>
  <use x="482" y="-3" xlink:href="#scrub1"/>
  <use x="494" y="497" xlink:href="#scrub1"/>
</svg>
