<svg xmlns="http://www.w3.org/2000/svg" xmlns:xlink="http://www.w3.org/1999/xlink" width="512" height="512" viewBox="0 0 512 512">
  <defs>
    <path id="marsh1" fill="#73b386" d="m3.75,-1.25 c0,.25 -.25,1.25 -.5,2.5 s-.25,1.75 0,3.25 c-.25,0 -.8662,-.17 -1.25,-.25 .5,-.5 -.25,-1.5 .75,-4 .25,-.75 .25,-1 1,-1.5 z m-8.5,.75 c0,.25 .25,.5 .5,1.25 .25,2 .22479,1.99 .25,3.75 .5,-.25 .8662,-.17 1.25,-.25 0,-1.25 0,-3.25 -1.25,-4.25 -.25,-.25 -.25,-.25 -.75,-.5 z m6.25,-1.75 c-.25,0 -.5,.25 -.75,.75 -.75,2 -.5,4.25 -.75,5.5 .5,0 1,.25 1.5,.25 -.5,-1 -.25,-1.5 -.25,-4.75 0,-1 0,-.75 .25,-1.75 z m-4,-1 c0,.75 0,1 .25,2.25 0,1 .75,3.75 0,5.25 .5,0 1,-.25 1.5,-.25 .25,-2.5 -.25,-4 -1,-6 -.25,-.75 -.25,-1 -.75,-1.25 z"/>
    <path id="marsh2" fill="#73b386" d="m-4.5,-1.25 c0,.25 .25,1.25 .5,2.5 s.25,1.75 0,3.25 c.25,0 .8662,-.17 1.25,-.25 -.5,-.5 .25,-1.5 -.75,-4 -.25,-.75 -.25,-1 -1,-1.5 z m8.5,.75 c0,.25 -.25,.5 -.5,1.25 -.25,2 -.22479,1.99 -.25,3.75 -.5,-.25 -.8662,-.17 -1.25,-.25 0,-1.25 0,-3.25 1.25,-4.25 .25,-.25 .25,-.25 .75,-.5 z m-6.25,-1.75 c.25,0 .5,.25 .75,.75 .75,2 .5,4.25 .75,5.5 -.5,0 -1,.25 -1.5,.25 .5,-1 .25,-1.5 .25,-4.75 0,-1 0,-.75 -.25,-1.75 z m4,-1 c0,.75 0,1 -.25,2.25 0,1 -.75,3.75 0,5.25 -.5,0 -1,-.25 -1.5,-.25 -.25,-2.5 .25,-4 1,-6 .25,-.75 .25,-1 .75,-1.25 z"/>
  </defs>
  <rect id="mapnik_workaround" width="512" height="512" fill="none"/>
  <use x="411" y="70" xlink:href="#marsh1"/>
  <use x="433" y="64" xlink:href="#marsh1"/>
  <use x="476" y="70" xlink:href="#marsh1"/>
  <use x="15" y="68" xlink:href="#marsh1"/>
  <use x="84" y="50" xlink:href="#marsh1"/>
  <use x="127" y="54" xlink:href="#marsh1"/>
  <use x="144" y="69" xlink:href="#marsh1"/>
  <use x="175" y="49" xlink:href="#marsh1"/>
  <use x="247" y="61" xlink:href="#marsh1"/>
  <use x="310" y="69" xlink:href="#marsh1"/>
  <use x="340" y="50" xlink:href="#marsh1"/>
  <use x="392" y="46" xlink:href="#marsh1"/>
  <use x="395" y="72" xlink:href="#marsh1"/>
  <use x="455" y="83" xlink:href="#marsh1"/>
  <use x="38" y="89" xlink:href="#marsh1"/>
  <use x="56" y="80" xlink:href="#marsh1"/>
  <use x="79" y="75" xlink:href="#marsh1"/>
  <use x="102" y="89" xlink:href="#marsh1"/>
  <use x="120" y="81" xlink:href="#marsh1"/>
  <use x="235" y="82" xlink:href="#marsh1"/>
  <use x="282" y="76" xlink:href="#marsh1"/>
  <use x="317" y="88" xlink:href="#marsh1"/>
  <use x="371" y="82" xlink:href="#marsh1"/>
  <use x="400" y="95" xlink:href="#marsh1"/>
  <use x="453" y="106" xlink:href="#marsh1"/>
  <use x="19" y="99" xlink:href="#marsh1"/>
  <use x="64" y="110" xlink:href="#marsh1"/>
  <use x="82" y="100" xlink:href="#marsh1"/>
  <use x="240" y="108" xlink:href="#marsh1"/>
  <use x="265" y="102" xlink:href="#marsh1"/>
  <use x="307" y="110" xlink:href="#marsh1"/>
  <use x="380" y="100" xlink:href="#marsh1"/>
  <use x="417" y="134" xlink:href="#marsh1"/>
  <use x="440" y="123" xlink:href="#marsh1"/>
  <use x="478" y="134" xlink:href="#marsh1"/>
  <use x="500" y="129" xlink:href="#marsh1"/>
  <use x="5" y="124" xlink:href="#marsh1"/>
  <use x="84" y="134" xlink:href="#marsh1"/>
  <use x="109" y="129" xlink:href="#marsh1"/>
  <use x="175" y="125" xlink:href="#marsh1"/>
  <use x="196" y="133" xlink:href="#marsh1"/>
  <use x="258" y="124" xlink:href="#marsh1"/>
  <use x="295" y="129" xlink:href="#marsh1"/>
  <use x="322" y="127" xlink:href="#marsh1"/>
  <use x="339" y="136" xlink:href="#marsh1"/>
  <use x="369" y="131" xlink:href="#marsh1"/>
  <use x="412" y="155" xlink:href="#marsh1"/>
  <use x="481" y="153" xlink:href="#marsh1"/>
  <use x="49" y="155" xlink:href="#marsh1"/>
  <use x="75" y="152" xlink:href="#marsh1"/>
  <use x="99" y="154" xlink:href="#marsh1"/>
  <use x="141" y="159" xlink:href="#marsh1"/>
  <use x="195" y="153" xlink:href="#marsh1"/>
  <use x="231" y="156" xlink:href="#marsh1"/>
  <use x="238" y="140" xlink:href="#marsh1"/>
  <use x="295" y="155" xlink:href="#marsh1"/>
  <use x="311" y="152" xlink:href="#marsh1"/>
  <use x="366" y="150" xlink:href="#marsh1"/>
  <use x="449" y="177" xlink:href="#marsh1"/>
  <use x="469" y="180" xlink:href="#marsh1"/>
  <use x="53" y="177" xlink:href="#marsh1"/>
  <use x="128" y="181" xlink:href="#marsh1"/>
  <use x="151" y="178" xlink:href="#marsh1"/>
  <use x="176" y="171" xlink:href="#marsh1"/>
  <use x="212" y="165" xlink:href="#marsh1"/>
  <use x="247" y="172" xlink:href="#marsh1"/>
  <use x="276" y="166" xlink:href="#marsh1"/>
  <use x="290" y="180" xlink:href="#marsh1"/>
  <use x="366" y="173" xlink:href="#marsh1"/>
  <use x="385" y="184" xlink:href="#marsh1"/>
  <use x="426" y="197" xlink:href="#marsh1"/>
  <use x="482" y="195" xlink:href="#marsh1"/>
  <use x="109" y="192" xlink:href="#marsh1"/>
  <use x="180" y="193" xlink:href="#marsh1"/>
  <use x="209" y="205" xlink:href="#marsh1"/>
  <use x="223" y="188" xlink:href="#marsh1"/>
  <use x="244" y="193" xlink:href="#marsh1"/>
  <use x="263" y="203" xlink:href="#marsh1"/>
  <use x="281" y="200" xlink:href="#marsh1"/>
  <use x="308" y="191" xlink:href="#marsh1"/>
  <use x="384" y="207" xlink:href="#marsh1"/>
  <use x="427" y="229" xlink:href="#marsh1"/>
  <use x="448" y="215" xlink:href="#marsh1"/>
  <use x="10" y="224" xlink:href="#marsh1"/>
  <use x="70" y="216" xlink:href="#marsh1"/>
  <use x="105" y="224" xlink:href="#marsh1"/>
  <use x="126" y="222" xlink:href="#marsh1"/>
  <use x="175" y="214" xlink:href="#marsh1"/>
  <use x="191" y="228" xlink:href="#marsh1"/>
  <use x="239" y="219" xlink:href="#marsh1"/>
  <use x="419" y="252" xlink:href="#marsh1"/>
  <use x="442" y="240" xlink:href="#marsh1"/>
  <use x="483" y="251" xlink:href="#marsh1"/>
  <use x="505" y="243" xlink:href="#marsh1"/>
  <use x="15" y="247" xlink:href="#marsh1"/>
  <use x="70" y="243" xlink:href="#marsh1"/>
  <use x="104" y="248" xlink:href="#marsh1"/>
  <use x="129" y="246" xlink:href="#marsh1"/>
  <use x="193" y="252" xlink:href="#marsh1"/>
  <use x="215" y="246" xlink:href="#marsh1"/>
  <use x="342" y="232" xlink:href="#marsh1"/>
  <use x="355" y="243" xlink:href="#marsh1"/>
  <use x="393" y="248" xlink:href="#marsh1"/>
  <use x="413" y="271" xlink:href="#marsh1"/>
  <use x="437" y="266" xlink:href="#marsh1"/>
  <use x="455" y="264" xlink:href="#marsh1"/>
  <use x="479" y="271" xlink:href="#marsh1"/>
  <use x="48" y="276" xlink:href="#marsh1"/>
  <use x="106" y="269" xlink:href="#marsh1"/>
  <use x="139" y="265" xlink:href="#marsh1"/>
  <use x="159" y="276" xlink:href="#marsh1"/>
  <use x="251" y="266" xlink:href="#marsh1"/>
  <use x="284" y="264" xlink:href="#marsh1"/>
  <use x="329" y="259" xlink:href="#marsh1"/>
  <use x="376" y="263" xlink:href="#marsh1"/>
  <use x="413" y="295" xlink:href="#marsh1"/>
  <use x="435" y="292" xlink:href="#marsh1"/>
  <use x="461" y="292" xlink:href="#marsh1"/>
  <use x="500" y="295" xlink:href="#marsh1"/>
  <use x="12" y="300" xlink:href="#marsh1"/>
  <use x="168" y="293" xlink:href="#marsh1"/>
  <use x="196" y="297" xlink:href="#marsh1"/>
  <use x="359" y="291" xlink:href="#marsh1"/>
  <use x="447" y="309" xlink:href="#marsh1"/>
  <use x="5" y="323" xlink:href="#marsh1"/>
  <use x="31" y="315" xlink:href="#marsh1"/>
  <use x="65" y="318" xlink:href="#marsh1"/>
  <use x="88" y="304" xlink:href="#marsh1"/>
  <use x="109" y="316" xlink:href="#marsh1"/>
  <use x="133" y="315" xlink:href="#marsh1"/>
  <use x="176" y="313" xlink:href="#marsh1"/>
  <use x="221" y="310" xlink:href="#marsh1"/>
  <use x="284" y="322" xlink:href="#marsh1"/>
  <use x="296" y="303" xlink:href="#marsh1"/>
  <use x="315" y="320" xlink:href="#marsh1"/>
  <use x="338" y="317" xlink:href="#marsh1"/>
  <use x="360" y="307" xlink:href="#marsh1"/>
  <use x="384" y="301" xlink:href="#marsh1"/>
  <use x="396" y="343" xlink:href="#marsh1"/>
  <use x="428" y="342" xlink:href="#marsh1"/>
  <use x="445" y="330" xlink:href="#marsh1"/>
  <use x="491" y="349" xlink:href="#marsh1"/>
  <use x="58" y="345" xlink:href="#marsh1"/>
  <use x="121" y="335" xlink:href="#marsh1"/>
  <use x="148" y="339" xlink:href="#marsh1"/>
  <use x="201" y="342" xlink:href="#marsh1"/>
  <use x="220" y="331" xlink:href="#marsh1"/>
  <use x="265" y="329" xlink:href="#marsh1"/>
  <use x="342" y="344" xlink:href="#marsh1"/>
  <use x="359" y="330" xlink:href="#marsh1"/>
  <use x="411" y="359" xlink:href="#marsh1"/>
  <use x="472" y="368" xlink:href="#marsh1"/>
  <use x="507" y="357" xlink:href="#marsh1"/>
  <use x="31" y="362" xlink:href="#marsh1"/>
  <use x="64" y="364" xlink:href="#marsh1"/>
  <use x="82" y="354" xlink:href="#marsh1"/>
  <use x="182" y="360" xlink:href="#marsh1"/>
  <use x="220" y="359" xlink:href="#marsh1"/>
  <use x="242" y="360" xlink:href="#marsh1"/>
  <use x="263" y="357" xlink:href="#marsh1"/>
  <use x="306" y="365" xlink:href="#marsh1"/>
  <use x="326" y="360" xlink:href="#marsh1"/>
  <use x="385" y="360" xlink:href="#marsh1"/>
  <use x="439" y="394" xlink:href="#marsh1"/>
  <use x="450" y="373" xlink:href="#marsh1"/>
  <use x="480" y="383" xlink:href="#marsh1"/>
  <use x="499" y="384" xlink:href="#marsh1"/>
  <use x="35" y="389" xlink:href="#marsh1"/>
  <use x="79" y="383" xlink:href="#marsh1"/>
  <use x="103" y="390" xlink:href="#marsh1"/>
  <use x="173" y="377" xlink:href="#marsh1"/>
  <use x="226" y="380" xlink:href="#marsh1"/>
  <use x="324" y="383" xlink:href="#marsh1"/>
  <use x="345" y="379" xlink:href="#marsh1"/>
  <use x="364" y="375" xlink:href="#marsh1"/>
  <use x="388" y="387" xlink:href="#marsh1"/>
  <use x="403" y="416" xlink:href="#marsh1"/>
  <use x="501" y="412" xlink:href="#marsh1"/>
  <use x="18" y="407" xlink:href="#marsh1"/>
  <use x="83" y="407" xlink:href="#marsh1"/>
  <use x="106" y="412" xlink:href="#marsh1"/>
  <use x="129" y="400" xlink:href="#marsh1"/>
  <use x="153" y="413" xlink:href="#marsh1"/>
  <use x="168" y="400" xlink:href="#marsh1"/>
  <use x="229" y="404" xlink:href="#marsh1"/>
  <use x="251" y="415" xlink:href="#marsh1"/>
  <use x="313" y="401" xlink:href="#marsh1"/>
  <use x="377" y="410" xlink:href="#marsh1"/>
  <use x="407" y="437" xlink:href="#marsh1"/>
  <use x="440" y="419" xlink:href="#marsh1"/>
  <use x="11" y="430" xlink:href="#marsh1"/>
  <use x="114" y="436" xlink:href="#marsh1"/>
  <use x="195" y="425" xlink:href="#marsh1"/>
  <use x="242" y="431" xlink:href="#marsh1"/>
  <use x="345" y="421" xlink:href="#marsh1"/>
  <use x="429" y="437" xlink:href="#marsh1"/>
  <use x="452" y="457" xlink:href="#marsh1"/>
  <use x="14" y="452" xlink:href="#marsh1"/>
  <use x="72" y="445" xlink:href="#marsh1"/>
  <use x="77" y="462" xlink:href="#marsh1"/>
  <use x="184" y="453" xlink:href="#marsh1"/>
  <use x="202" y="458" xlink:href="#marsh1"/>
  <use x="219" y="457" xlink:href="#marsh1"/>
  <use x="238" y="451" xlink:href="#marsh1"/>
  <use x="261" y="444" xlink:href="#marsh1"/>
  <use x="298" y="461" xlink:href="#marsh1"/>
  <use x="323" y="447" xlink:href="#marsh1"/>
  <use x="339" y="461" xlink:href="#marsh1"/>
  <use x="349" y="443" xlink:href="#marsh1"/>
  <use x="388" y="456" xlink:href="#marsh1"/>
  <use x="405" y="474" xlink:href="#marsh1"/>
  <use x="430" y="474" xlink:href="#marsh1"/>
  <use x="504" y="476" xlink:href="#marsh1"/>
  <use x="13" y="471" xlink:href="#marsh1"/>
  <use x="50" y="489" xlink:href="#marsh1"/>
  <use x="108" y="479" xlink:href="#marsh1"/>
  <use x="149" y="485" xlink:href="#marsh1"/>
  <use x="173" y="471" xlink:href="#marsh1"/>
  <use x="213" y="483" xlink:href="#marsh1"/>
  <use x="244" y="477" xlink:href="#marsh1"/>
  <use x="264" y="469" xlink:href="#marsh1"/>
  <use x="314" y="477" xlink:href="#marsh1"/>
  <use x="377" y="474" xlink:href="#marsh1"/>
  <use x="414" y="499" xlink:href="#marsh1"/>
  <use x="435" y="500" xlink:href="#marsh1"/>
  <use x="455" y="498" xlink:href="#marsh1"/>
  <use x="477" y="502" xlink:href="#marsh1"/>
  <use x="499" y="501" xlink:href="#marsh1"/>
  <use x="10" y="499" xlink:href="#marsh1"/>
  <use x="103" y="501" xlink:href="#marsh1"/>
  <use x="122" y="500" xlink:href="#marsh1"/>
  <use x="169" y="497" xlink:href="#marsh1"/>
  <use x="206" y="506" xlink:href="#marsh1"/>
  <use x="229" y="499" xlink:href="#marsh1"/>
  <use x="290" y="502" xlink:href="#marsh1"/>
  <use x="318" y="499" xlink:href="#marsh1"/>
  <use x="392" y="494" xlink:href="#marsh1"/>
  <use x="412" y="11" xlink:href="#marsh1"/>
  <use x="436" y="11" xlink:href="#marsh1"/>
  <use x="84" y="7" xlink:href="#marsh1"/>
  <use x="136" y="11" xlink:href="#marsh1"/>
  <use x="163" y="13" xlink:href="#marsh1"/>
  <use x="334" y="9" xlink:href="#marsh1"/>
  <use x="352" y="21" xlink:href="#marsh1"/>
  <use x="390" y="9" xlink:href="#marsh1"/>
  <use x="413" y="34" xlink:href="#marsh1"/>
  <use x="429" y="44" xlink:href="#marsh1"/>
  <use x="449" y="40" xlink:href="#marsh1"/>
  <use x="495" y="36" xlink:href="#marsh1"/>
  <use x="5" y="40" xlink:href="#marsh1"/>
  <use x="28" y="37" xlink:href="#marsh1"/>
  <use x="51" y="36" xlink:href="#marsh1"/>
  <use x="75" y="31" xlink:href="#marsh1"/>
  <use x="166" y="35" xlink:href="#marsh1"/>
  <use x="201" y="40" xlink:href="#marsh1"/>
  <use x="250" y="40" xlink:href="#marsh1"/>
  <use x="278" y="36" xlink:href="#marsh1"/>
  <use x="329" y="33" xlink:href="#marsh1"/>
  <use x="365" y="40" xlink:href="#marsh1"/>
  <use x="463" y="53" xlink:href="#marsh2"/>
  <use x="502" y="62" xlink:href="#marsh2"/>
  <use x="41" y="64" xlink:href="#marsh2"/>
  <use x="61" y="55" xlink:href="#marsh2"/>
  <use x="109" y="64" xlink:href="#marsh2"/>
  <use x="190" y="62" xlink:href="#marsh2"/>
  <use x="221" y="56" xlink:href="#marsh2"/>
  <use x="269" y="54" xlink:href="#marsh2"/>
  <use x="293" y="57" xlink:href="#marsh2"/>
  <use x="370" y="59" xlink:href="#marsh2"/>
  <use x="437" y="84" xlink:href="#marsh2"/>
  <use x="473" y="89" xlink:href="#marsh2"/>
  <use x="493" y="87" xlink:href="#marsh2"/>
  <use x="5" y="83" xlink:href="#marsh2"/>
  <use x="157" y="87" xlink:href="#marsh2"/>
  <use x="172" y="74" xlink:href="#marsh2"/>
  <use x="197" y="78" xlink:href="#marsh2"/>
  <use x="217" y="80" xlink:href="#marsh2"/>
  <use x="259" y="80" xlink:href="#marsh2"/>
  <use x="346" y="91" xlink:href="#marsh2"/>
  <use x="345" y="72" xlink:href="#marsh2"/>
  <use x="422" y="102" xlink:href="#marsh2"/>
  <use x="470" y="116" xlink:href="#marsh2"/>
  <use x="501" y="102" xlink:href="#marsh2"/>
  <use x="23" y="117" xlink:href="#marsh2"/>
  <use x="97" y="112" xlink:href="#marsh2"/>
  <use x="135" y="96" xlink:href="#marsh2"/>
  <use x="149" y="114" xlink:href="#marsh2"/>
  <use x="176" y="102" xlink:href="#marsh2"/>
  <use x="199" y="103" xlink:href="#marsh2"/>
  <use x="223" y="112" xlink:href="#marsh2"/>
  <use x="288" y="100" xlink:href="#marsh2"/>
  <use x="332" y="108" xlink:href="#marsh2"/>
  <use x="357" y="112" xlink:href="#marsh2"/>
  <use x="403" y="121" xlink:href="#marsh2"/>
  <use x="46" y="117" xlink:href="#marsh2"/>
  <use x="57" y="135" xlink:href="#marsh2"/>
  <use x="127" y="118" xlink:href="#marsh2"/>
  <use x="153" y="135" xlink:href="#marsh2"/>
  <use x="212" y="124" xlink:href="#marsh2"/>
  <use x="275" y="136" xlink:href="#marsh2"/>
  <use x="385" y="122" xlink:href="#marsh2"/>
  <use x="438" y="144" xlink:href="#marsh2"/>
  <use x="458" y="149" xlink:href="#marsh2"/>
  <use x="507" y="159" xlink:href="#marsh2"/>
  <use x="12" y="147" xlink:href="#marsh2"/>
  <use x="32" y="142" xlink:href="#marsh2"/>
  <use x="128" y="144" xlink:href="#marsh2"/>
  <use x="170" y="150" xlink:href="#marsh2"/>
  <use x="259" y="154" xlink:href="#marsh2"/>
  <use x="346" y="155" xlink:href="#marsh2"/>
  <use x="387" y="158" xlink:href="#marsh2"/>
  <use x="406" y="177" xlink:href="#marsh2"/>
  <use x="430" y="166" xlink:href="#marsh2"/>
  <use x="495" y="172" xlink:href="#marsh2"/>
  <use x="15" y="183" xlink:href="#marsh2"/>
  <use x="31" y="176" xlink:href="#marsh2"/>
  <use x="79" y="173" xlink:href="#marsh2"/>
  <use x="112" y="168" xlink:href="#marsh2"/>
  <use x="197" y="185" xlink:href="#marsh2"/>
  <use x="320" y="172" xlink:href="#marsh2"/>
  <use x="340" y="174" xlink:href="#marsh2"/>
  <use x="407" y="199" xlink:href="#marsh2"/>
  <use x="448" y="197" xlink:href="#marsh2"/>
  <use x="505" y="192" xlink:href="#marsh2"/>
  <use x="8" y="204" xlink:href="#marsh2"/>
  <use x="45" y="202" xlink:href="#marsh2"/>
  <use x="68" y="196" xlink:href="#marsh2"/>
  <use x="91" y="199" xlink:href="#marsh2"/>
  <use x="132" y="202" xlink:href="#marsh2"/>
  <use x="156" y="200" xlink:href="#marsh2"/>
  <use x="344" y="206" xlink:href="#marsh2"/>
  <use x="358" y="194" xlink:href="#marsh2"/>
  <use x="405" y="224" xlink:href="#marsh2"/>
  <use x="472" y="214" xlink:href="#marsh2"/>
  <use x="495" y="221" xlink:href="#marsh2"/>
  <use x="30" y="215" xlink:href="#marsh2"/>
  <use x="87" y="230" xlink:href="#marsh2"/>
  <use x="150" y="223" xlink:href="#marsh2"/>
  <use x="216" y="222" xlink:href="#marsh2"/>
  <use x="272" y="230" xlink:href="#marsh2"/>
  <use x="294" y="219" xlink:href="#marsh2"/>
  <use x="312" y="220" xlink:href="#marsh2"/>
  <use x="326" y="210" xlink:href="#marsh2"/>
  <use x="365" y="218" xlink:href="#marsh2"/>
  <use x="381" y="234" xlink:href="#marsh2"/>
  <use x="466" y="238" xlink:href="#marsh2"/>
  <use x="42" y="234" xlink:href="#marsh2"/>
  <use x="52" y="251" xlink:href="#marsh2"/>
  <use x="155" y="239" xlink:href="#marsh2"/>
  <use x="168" y="255" xlink:href="#marsh2"/>
  <use x="240" y="249" xlink:href="#marsh2"/>
  <use x="254" y="233" xlink:href="#marsh2"/>
  <use x="286" y="244" xlink:href="#marsh2"/>
  <use x="316" y="242" xlink:href="#marsh2"/>
  <use x="503" y="266" xlink:href="#marsh2"/>
  <use x="14" y="277" xlink:href="#marsh2"/>
  <use x="30" y="264" xlink:href="#marsh2"/>
  <use x="76" y="261" xlink:href="#marsh2"/>
  <use x="184" y="277" xlink:href="#marsh2"/>
  <use x="203" y="272" xlink:href="#marsh2"/>
  <use x="226" y="267" xlink:href="#marsh2"/>
  <use x="267" y="277" xlink:href="#marsh2"/>
  <use x="304" y="262" xlink:href="#marsh2"/>
  <use x="357" y="266" xlink:href="#marsh2"/>
  <use x="481" y="291" xlink:href="#marsh2"/>
  <use x="32" y="297" xlink:href="#marsh2"/>
  <use x="56" y="296" xlink:href="#marsh2"/>
  <use x="77" y="284" xlink:href="#marsh2"/>
  <use x="101" y="292" xlink:href="#marsh2"/>
  <use x="119" y="285" xlink:href="#marsh2"/>
  <use x="141" y="292" xlink:href="#marsh2"/>
  <use x="224" y="286" xlink:href="#marsh2"/>
  <use x="245" y="296" xlink:href="#marsh2"/>
  <use x="276" y="294" xlink:href="#marsh2"/>
  <use x="306" y="284" xlink:href="#marsh2"/>
  <use x="323" y="299" xlink:href="#marsh2"/>
  <use x="337" y="280" xlink:href="#marsh2"/>
  <use x="390" y="280" xlink:href="#marsh2"/>
  <use x="403" y="321" xlink:href="#marsh2"/>
  <use x="422" y="316" xlink:href="#marsh2"/>
  <use x="474" y="314" xlink:href="#marsh2"/>
  <use x="494" y="320" xlink:href="#marsh2"/>
  <use x="152" y="317" xlink:href="#marsh2"/>
  <use x="198" y="318" xlink:href="#marsh2"/>
  <use x="252" y="313" xlink:href="#marsh2"/>
  <use x="470" y="335" xlink:href="#marsh2"/>
  <use x="18" y="343" xlink:href="#marsh2"/>
  <use x="38" y="334" xlink:href="#marsh2"/>
  <use x="84" y="329" xlink:href="#marsh2"/>
  <use x="97" y="345" xlink:href="#marsh2"/>
  <use x="178" y="338" xlink:href="#marsh2"/>
  <use x="242" y="336" xlink:href="#marsh2"/>
  <use x="283" y="345" xlink:href="#marsh2"/>
  <use x="311" y="338" xlink:href="#marsh2"/>
  <use x="381" y="326" xlink:href="#marsh2"/>
  <use x="428" y="371" xlink:href="#marsh2"/>
  <use x="460" y="351" xlink:href="#marsh2"/>
  <use x="13" y="367" xlink:href="#marsh2"/>
  <use x="110" y="366" xlink:href="#marsh2"/>
  <use x="127" y="355" xlink:href="#marsh2"/>
  <use x="156" y="357" xlink:href="#marsh2"/>
  <use x="202" y="371" xlink:href="#marsh2"/>
  <use x="283" y="369" xlink:href="#marsh2"/>
  <use x="364" y="356" xlink:href="#marsh2"/>
  <use x="409" y="384" xlink:href="#marsh2"/>
  <use x="5" y="389" xlink:href="#marsh2"/>
  <use x="51" y="380" xlink:href="#marsh2"/>
  <use x="129" y="379" xlink:href="#marsh2"/>
  <use x="149" y="380" xlink:href="#marsh2"/>
  <use x="208" y="394" xlink:href="#marsh2"/>
  <use x="246" y="387" xlink:href="#marsh2"/>
  <use x="265" y="383" xlink:href="#marsh2"/>
  <use x="291" y="388" xlink:href="#marsh2"/>
  <use x="419" y="403" xlink:href="#marsh2"/>
  <use x="460" y="400" xlink:href="#marsh2"/>
  <use x="480" y="412" xlink:href="#marsh2"/>
  <use x="44" y="407" xlink:href="#marsh2"/>
  <use x="64" y="408" xlink:href="#marsh2"/>
  <use x="189" y="403" xlink:href="#marsh2"/>
  <use x="271" y="408" xlink:href="#marsh2"/>
  <use x="292" y="414" xlink:href="#marsh2"/>
  <use x="335" y="407" xlink:href="#marsh2"/>
  <use x="360" y="399" xlink:href="#marsh2"/>
  <use x="453" y="433" xlink:href="#marsh2"/>
  <use x="473" y="435" xlink:href="#marsh2"/>
  <use x="506" y="438" xlink:href="#marsh2"/>
  <use x="34" y="428" xlink:href="#marsh2"/>
  <use x="57" y="434" xlink:href="#marsh2"/>
  <use x="92" y="429" xlink:href="#marsh2"/>
  <use x="130" y="424" xlink:href="#marsh2"/>
  <use x="156" y="437" xlink:href="#marsh2"/>
  <use x="177" y="430" xlink:href="#marsh2"/>
  <use x="217" y="425" xlink:href="#marsh2"/>
  <use x="279" y="439" xlink:href="#marsh2"/>
  <use x="298" y="438" xlink:href="#marsh2"/>
  <use x="314" y="425" xlink:href="#marsh2"/>
  <use x="365" y="439" xlink:href="#marsh2"/>
  <use x="384" y="430" xlink:href="#marsh2"/>
  <use x="418" y="457" xlink:href="#marsh2"/>
  <use x="487" y="462" xlink:href="#marsh2"/>
  <use x="487" y="445" xlink:href="#marsh2"/>
  <use x="39" y="452" xlink:href="#marsh2"/>
  <use x="103" y="457" xlink:href="#marsh2"/>
  <use x="134" y="445" xlink:href="#marsh2"/>
  <use x="153" y="461" xlink:href="#marsh2"/>
  <use x="456" y="478" xlink:href="#marsh2"/>
  <use x="477" y="479" xlink:href="#marsh2"/>
  <use x="43" y="469" xlink:href="#marsh2"/>
  <use x="71" y="479" xlink:href="#marsh2"/>
  <use x="129" y="472" xlink:href="#marsh2"/>
  <use x="191" y="489" xlink:href="#marsh2"/>
  <use x="287" y="478" xlink:href="#marsh2"/>
  <use x="337" y="486" xlink:href="#marsh2"/>
  <use x="356" y="474" xlink:href="#marsh2"/>
  <use x="28" y="492" xlink:href="#marsh2"/>
  <use x="51" y="507" xlink:href="#marsh2"/>
  <use x="84" y="493" xlink:href="#marsh2"/>
  <use x="146" y="505" xlink:href="#marsh2"/>
  <use x="251" y="500" xlink:href="#marsh2"/>
  <use x="270" y="496" xlink:href="#marsh2"/>
  <use x="350" y="506" xlink:href="#marsh2"/>
  <use x="372" y="502" xlink:href="#marsh2"/>
  <use x="453" y="21" xlink:href="#marsh2"/>
  <use x="474" y="9" xlink:href="#marsh2"/>
  <use x="506" y="20" xlink:href="#marsh2"/>
  <use x="8" y="9" xlink:href="#marsh2"/>
  <use x="30" y="15" xlink:href="#marsh2"/>
  <use x="63" y="13" xlink:href="#marsh2"/>
  <use x="104" y="19" xlink:href="#marsh2"/>
  <use x="182" y="7" xlink:href="#marsh2"/>
  <use x="201" y="17" xlink:href="#marsh2"/>
  <use x="224" y="8" xlink:href="#marsh2"/>
  <use x="245" y="18" xlink:href="#marsh2"/>
  <use x="265" y="10" xlink:href="#marsh2"/>
  <use x="288" y="12" xlink:href="#marsh2"/>
  <use x="311" y="7" xlink:href="#marsh2"/>
  <use x="477" y="31" xlink:href="#marsh2"/>
  <use x="103" y="41" xlink:href="#marsh2"/>
  <use x="125" y="30" xlink:href="#marsh2"/>
  <use x="145" y="38" xlink:href="#marsh2"/>
  <use x="228" y="33" xlink:href="#marsh2"/>
  <use x="302" y="28" xlink:href="#marsh2"/>
  <use x="314" y="47" xlink:href="#marsh2"/>
  <use x="378" y="22" xlink:href="#marsh2"/>
  <path stroke="#4aa5fa" stroke-width=".8" d="
M462,47.5 h7 m-462,0 h7 m393,0 h7 m25,0 h7 m39,0 h7 m-286,0 h7 m50,0 h7 m-119,0 h7 m25,0 h7 m39,0 h7
M21,48.5 h7 m62,0 h2 m14,0 h7 m164,0 h7 m62,0 h2 m14,0 h7
M73,49.5 h6 m47,0 h5 m198,0 h6 m45,0 h7
M420,50.5 h7 m5,0 h7 m72,0 h1 m-512,0 h6 m158,0 h7 m9,0 h3 m72,0 h7
M477,51.5 h7 m-442,0 h7 m5,0 h3 m42,0 h7 m97,0 h7 m14,0 h4 m70,0 h7 m50,0 h7
M404,52.5 h7 m33,0 h7 m41,0 h7 m-467,0 h7 m77,0 h7 m10,0 h5 m10,0 h7 m33,0 h7 m41,0 h7 m45,0 h5 m79,0 h7 m8,0 h7
M66,53.5 h4 m433,0 h7 m-191,0 h7 m-79,0 h7
M412,54.5 h7 m-397,0 h7 m127,0 h7 m115,0 h7
M452,55.5 h5 m-447,0 h7 m74,0 h7 m98,0 h7 m144,0 h7
M490,56.5 h7 m-359,0 h7 m323,0 h2 m6,0 h7 m-411,0 h7 m31,0 h7 m117,0 h7 m153,0 h7 m-194,0 h7 m114,0 h7
M432,57.5 h7 m-16,0 h7 m79,0 h3 m-512,0 h4 m35,0 h7 m130,0 h7 m-16,0 h7 m79,0 h7 m39,0 h3
M26,58.5 h7 m20,0 h2 m43,0 h7 m27,0 h3 m147,0 h5 m22,0 h7 m38,0 h7 m23,0 h7
M412,59.5 h7 m25,0 h7 m-295,0 h7
M400,60.5 h7 m62,0 h7 m8,0 h7 m-425,0 h3 m75,0 h7 m62,0 h2 m13,0 h7 m83,0 h7
M454,61.5 h7 m-453,0 h7 m4,0 h7 m19,0 h6 m38,0 h7 m25,0 h7 m70,0 h7 m59,0 h7 m4,0 h7 m18,0 h7 m38,0 h7 m25,0 h7
M439,62.5 h2 m-366,0 h7 m96,0 h6 m147,0 h7
M422,63.5 h6 m-262,0 h7
M489,64.5 h7 m-496,0 h7 m24,0 h4 m32,0 h7 m159,0 h7 m16,0 h7 m24,0 h7 m29,0 h7
M134,65.5 h7 m260,0 h7 m3,0 h7 m22,0 h7 m10,0 h7 m13,0 h7 m-438,0 h3 m5,0 h7 m21,0 h7 m10,0 h4 m11,0 h7 m269,0 h7 m-250,0 h5 m3,0 h7 m39,0 h7 m13,0 h7 m70,0 h7 m8,0 h4 m21,0 h7 m10,0 h7 m8,0 h7
M268,66.5 h7
M469,67.5 h4 m-260,0 h7
M23,68.5 h7 m143,0 h7 m99,0 h7
M447,69.5 h7 m39,0 h7 m8,0 h4 m-512,0 h3 m54,0 h7 m9,0 h7 m9,0 h7 m25,0 h7 m63,0 h7 m39,0 h7 m8,0 h7 m56,0 h5 m9,0 h7 m13,0 h3 m25,0 h7
M420,70.5 h7 m33,0 h7 m-434,0 h7 m65,0 h7 m25,0 h3 m24,0 h4 m36,0 h7 m78,0 h7 m65,0 h7
M5,71.5 h6 m32,0 h7 m104,0 h7 m100,0 h7 m31,0 h7
M485,72.5 h7 m-396,0 h7 m25,0 h7 m94,0 h7 m116,0 h7 m25,0 h7
M430,73.5 h7 m13,0 h7 m13,0 h2 m-406,0 h7 m105,0 h3 m13,0 h3 m17,0 h7 m101,0 h7
M401,74.5 h6 m-384,0 h7 m22,0 h7 m56,0 h7 m27,0 h3 m219,0 h7
M438,75.5 h7 m55,0 h7 m-495,0 h7 m65,0 h7 m91,0 h7 m55,0 h7 m17,0 h7
M478,76.5 h7 m25,0 h2 m-512,0 h5 m130,0 h7 m80,0 h7 m101,0 h7
M421,77.5 h7 m33,0 h7 m23,0 h7 m-454,0 h7 m55,0 h7 m92,0 h6 m24,0 h7 m58,0 h7 m55,0 h7
M406,78.5 h7 m37,0 h3 m1,0 h3 m-428,0 h7 m26,0 h6 m26,0 h7 m24,0 h6 m19,0 h7 m130,0 h5 m25,0 h7 m26,0 h7 m23,0 h7
M440,79.5 h5 m25,0 h7 m-295,0 h7
M9,80.5 h5 m4,0 h7 m240,0 h5 m4,0 h4
M413,81.5 h7 m7,0 h4 m-393,0 h7 m24,0 h7 m9,0 h7 m44,0 h7 m14,0 h7 m7,0 h7 m116,0 h7 m24,0 h7 m9,0 h7 m44,0 h7
M496,82.5 h5 m8,0 h2 m-410,0 h7 m94,0 h4 m34,0 h5 m64,0 h7 m41,0 h7 m12,0 h3
M482,83.5 h7 m-263,0 h5
M405,84.5 h7 m57,0 h4 m-445,0 h7 m114,0 h2 m30,0 h7 m96,0 h7
M423,85.5 h7 m72,0 h7 m-496,0 h7 m25,0 h7 m25,0 h7 m8,0 h7 m26,0 h6 m36,0 h7 m72,0 h7 m16,0 h7 m25,0 h7 m25,0 h7 m8,0 h7 m25,0 h7
M136,86.5 h7 m-80,0 h7 m37,0 h5 m280,0 h7 m-76,0 h3 m35,0 h6
M460,87.5 h4 m-263,0 h7
M413,88.5 h7 m27,0 h5 m46,0 h2 m-478,0 h7 m133,0 h2 m27,0 h7 m39,0 h7 m12,0 h7 m15,0 h7
M400,89.5 h7 m35,0 h2 m36,0 h7 m-444,0 h2 m9,0 h7 m20,0 h7 m38,0 h7 m11,0 h7 m30,0 h7 m26,0 h7 m3,0 h7 m63,0 h7 m9,0 h3 m24,0 h3 m42,0 h7
M11,90.5 h7 m77,0 h3 m14,0 h7 m148,0 h7 m78,0 h6 m10,0 h7
M420,91.5 h7 m-357,0 h7 m87,0 h7 m155,0 h7
M407,92.5 h7 m18,0 h7 m24,0 h4 m35,0 h7 m-479,0 h4 m142,0 h7 m24,0 h7 m17,0 h7 m8,0 h7 m33,0 h7
M449,93.5 h7 m-412,0 h7 m9,0 h7 m40,0 h4 m10,0 h7 m65,0 h7 m100,0 h7 m53,0 h7 m10,0 h7
M140,94.5 h6 m-132,0 h3 m1,0 h3 m69,0 h7 m173,0 h7 m74,0 h2
M511,95.5 h1 m-512,0 h6 m72,0 h2 m1,0 h4 m170,0 h7 m72,0 h6
M458,96.5 h7 m29,0 h7 m-475,0 h7 m17,0 h7 m145,0 h7 m29,0 h7 m37,0 h2 m22,0 h7
M418,97.5 h4 m12,0 h7 m39,0 h7 m-420,0 h7 m25,0 h7 m56,0 h7 m10,0 h6 m39,0 h7 m92,0 h7 m25,0 h7 m23,0 h7
M405,98.5 h7 m58,0 h7 m-474,0 h7 m139,0 h7 m58,0 h7 m38,0 h4
M446,99.5 h7 m52,0 h4 m-391,0 h7 m65,0 h5 m51,0 h7
M33,100.5 h7 m5,0 h7 m7,0 h7 m10,0 h2 m30,0 h7 m158,0 h7 m14,0 h2 m5,0 h7 m7,0 h7 m10,0 h7 m25,0 h7
M457,101.5 h7 m25,0 h6 m-403,0 h7 m297,0 h7 m-199,0 h4 m25,0 h7 m108,0 h7 m-215,0 h7
M414,102.5 h2 m12,0 h7 m-308,0 h7 m306,0 h7 m-289,0 h7 m220,0 h5 m-206,0 h7
M472,103.5 h7 m-474,0 h7 m12,0 h6 m186,0 h7 m56,0 h3
M52,104.5 h7 m9,0 h7 m12,0 h4 m217,0 h7 m9,0 h4 m12,0 h7
M506,105.5 h3 m-104,0 h7 m73,0 h7 m-457,0 h7 m73,0 h7 m124,0 h7 m-104,0 h7 m7,0 h7 m59,0 h7 m57,0 h5 m73,0 h6
M136,106.5 h7 m320,0 h7 m-367,0 h7 m282,0 h7 m-192,0 h7 m145,0 h7
M123,107.5 h7 m249,0 h7
M431,108.5 h7 m38,0 h7 m9,0 h7 m-495,0 h7 m3,0 h7 m23,0 h7 m25,0 h7 m8,0 h2 m82,0 h7 m78,0 h7 m3,0 h7 m23,0 h3 m13,0 h7 m24,0 h6
M442,109.5 h7 m-263,0 h7
M410,110.5 h7 m89,0 h6 m-512,0 h1 m24,0 h7 m76,0 h7 m343,0 h3 m-307,0 h7 m89,0 h7 m24,0 h7 m76,0 h7 m-173,0 h7
M134,111.5 h7 m281,0 h7 m-39,0 h7 m-231,0 h7
M463,112.5 h3 m10,0 h7 m13,0 h7 m-450,0 h7 m9,0 h6 m132,0 h7 m31,0 h2 m65,0 h4 m8,0 h2
M402,113.5 h7 m25,0 h7 m-409,0 h7 m83,0 h5 m51,0 h7 m103,0 h7 m83,0 h7
M447,114.5 h7 m-452,0 h7 m5,0 h3 m62,0 h7 m105,0 h7 m60,0 h7 m5,0 h7 m23,0 h3 m32,0 h7
M108,115.5 h7 m231,0 h5 m13,0 h7
M414,116.5 h7 m59,0 h7 m-350,0 h6 m15,0 h7 m63,0 h3 m162,0 h7
M425,117.5 h7 m61,0 h7 m7,0 h5 m-512,0 h2 m63,0 h7 m97,0 h7 m34,0 h7 m20,0 h7 m7,0 h7 m21,0 h7 m35,0 h7
M37,118.5 h3 m12,0 h7 m234,0 h7 m77,0 h4 m-73,0 h7
M80,119.5 h7 m321,0 h4 m42,0 h7 m-364,0 h7 m8,0 h7 m217,0 h7 m-189,0 h2 m25,0 h7 m10,0 h7 m148,0 h7 m8,0 h7
M132,120.5 h5 m253,0 h3
M475,121.5 h7 m16,0 h7 m-495,0 h4 m205,0 h7 m16,0 h7 m14,0 h7 m3,0 h7
M413,122.5 h7 m10,0 h5 m51,0 h7 m-465,0 h7 m26,0 h7 m22,0 h7 m60,0 h7 m66,0 h7 m47,0 h7 m9,0 h7 m10,0 h3 m1,0 h3 m22,0 h7
M445,123.5 h5 m14,0 h7 m38,0 h3 m-440,0 h7 m59,0 h7 m42,0 h7 m134,0 h7 m59,0 h3
M454,124.5 h7 m-263,0 h7
M422,125.5 h7 m-330,0 h7 m6,0 h7 m47,0 h5 m184,0 h7 m6,0 h7
M408,126.5 h6 m91,0 h2 m-470,0 h7 m428,0 h7 m-426,0 h7 m65,0 h7 m19,0 h7 m86,0 h7 m-34,0 h6 m86,0 h7
M85,127.5 h7 m171,0 h4 m74,0 h7
M398,128.5 h7 m40,0 h7 m33,0 h7 m-477,0 h7 m6,0 h7 m38,0 h7 m62,0 h7 m40,0 h5 m35,0 h7 m35,0 h7 m6,0 h6 m39,0 h7
M413,129.5 h2 m1,0 h4 m10,0 h7 m23,0 h7 m-310,0 h7 m40,0 h2 m155,0 h4
M43,130.5 h7 m10,0 h7 m62,0 h7 m164,0 h6 m10,0 h2 m67,0 h7
M471,131.5 h4 m19,0 h2 m11,0 h5 m-512,0 h2 m113,0 h7 m93,0 h7 m16,0 h7 m6,0 h7 m116,0 h4
M423,132.5 h6 m10,0 h7 m-423,0 h7 m68,0 h7 m61,0 h7 m10,0 h7 m89,0 h7 m56,0 h3 m9,0 h7
M135,133.5 h7 m312,0 h7 m-455,0 h7 m35,0 h3 m340,0 h7 m-197,0 h4 m57,0 h7 m35,0 h7
M486,134.5 h7 m-420,0 h7 m321,0 h7 m-178,0 h7 m92,0 h6 m-190,0 h2
M89,135.5 h6 m-81,0 h7 m42,0 h3 m279,0 h6 m-130,0 h7 m87,0 h7
M430,136.5 h7 m25,0 h7 m40,0 h3 m-512,0 h4 m24,0 h7 m83,0 h7 m35,0 h7 m7,0 h7 m25,0 h7 m40,0 h7 m24,0 h7 m83,0 h7
M493,137.5 h7 m-403,0 h7 m249,0 h7
M405,138.5 h7 m40,0 h7 m-415,0 h7 m57,0 h7 m17,0 h7 m62,0 h2 m97,0 h7 m57,0 h7 m17,0 h7
M441,139.5 h3 m58,0 h7 m-473,0 h6 m26,0 h7 m106,0 h7 m58,0 h7 m38,0 h7 m26,0 h7
M468,140.5 h7 m8,0 h7 m-485,0 h7 m9,0 h5 m60,0 h7 m119,0 h7 m8,0 h7 m27,0 h7 m12,0 h4 m26,0 h7 m27,0 h5 m32,0 h7
M424,141.5 h7 m-263,0 h7
M445,142.5 h7 m-376,0 h7 m315,0 h7 m7,0 h7 m-230,0 h7 m136,0 h7 m-197,0 h7 m7,0 h7
M96,143.5 h7 m355,0 h7 m-348,0 h5 m230,0 h7 m-157,0 h7 m164,0 h7
M475,144.5 h7 m10,0 h7 m7,0 h6 m-512,0 h1 m36,0 h2 m25,0 h7 m148,0 h7 m24,0 h7 m31,0 h7 m25,0 h7
M52,145.5 h7 m50,0 h7 m65,0 h7 m120,0 h7 m50,0 h7
M427,146.5 h5 m-412,0 h6 m61,0 h7 m80,0 h4 m83,0 h7 m8,0 h7 m60,0 h7
M409,147.5 h7 m51,0 h7 m11,0 h7 m-450,0 h7 m25,0 h7 m56,0 h7 m9,0 h7 m51,0 h7 m11,0 h7 m62,0 h7 m25,0 h7 m43,0 h7 m6,0 h7
M501,148.5 h7 m-263,0 h7
M443,149.5 h5 m-431,0 h2 m10,0 h7 m70,0 h7 m72,0 h7 m76,0 h7 m10,0 h7
M417,150.5 h7 m-362,0 h7 m92,0 h3 m36,0 h6 m112,0 h7
M400,151.5 h7 m-355,0 h4 m25,0 h6 m31,0 h7 m5,0 h7 m217,0 h7 m-217,0 h7 m185,0 h6 m32,0 h7 m5,0 h7
M467,152.5 h7 m13,0 h7 m-283,0 h7 m16,0 h4
M427,153.5 h7 m66,0 h7 m-504,0 h7 m25,0 h7 m49,0 h3 m81,0 h3 m66,0 h7 m100,0 h3
M437,154.5 h7 m-428,0 h7 m45,0 h3 m82,0 h7 m21,0 h7 m84,0 h7 m45,0 h7
M447,155.5 h7 m4,0 h7 m10,0 h2 m-366,0 h7 m84,0 h7 m10,0 h7 m145,0 h3
M398,156.5 h7 m13,0 h7 m-295,0 h7 m9,0 h3 m13,0 h7
M486,157.5 h6 m-492,0 h7 m14,0 h7 m11,0 h6 m9,0 h5 m21,0 h6 m18,0 h2 m171,0 h7 m16,0 h2 m33,0 h5 m15,0 h7
M63,158.5 h7 m427,0 h4 m-182,0 h7 m-85,0 h7
M120,159.5 h7 m249,0 h5
M465,160.5 h7 m-45,0 h7 m7,0 h7 m-436,0 h7 m12,0 h7 m50,0 h7 m116,0 h5 m-63,0 h7 m11,0 h7 m7,0 h7 m76,0 h7 m12,0 h5
M396,161.5 h7 m74,0 h7 m-441,0 h7 m22,0 h7 m24,0 h7 m111,0 h7 m71,0 h7 m22,0 h7 m24,0 h7
M59,162.5 h7 m179,0 h7 m63,0 h7
M417,163.5 h7 m25,0 h7 m-452,0 h7 m11,0 h7 m132,0 h7 m25,0 h7 m60,0 h7 m14,0 h4
M458,164.5 h7 m20,0 h7 m-362,0 h7 m65,0 h5 m22,0 h7 m130,0 h7 m13,0 h7
M406,165.5 h7 m25,0 h7 m25,0 h7 m30,0 h5 m-512,0 h2 m46,0 h7 m23,0 h7 m6,0 h7 m21,0 h7 m24,0 h7 m25,0 h7 m28,0 h4 m30,0 h7 m46,0 h7 m23,0 h7 m6,0 h7 m21,0 h7
M30,166.5 h7 m457,0 h7 m-215,0 h7 m-55,0 h7
M14,167.5 h7 m81,0 h4 m64,0 h4 m96,0 h2 m86,0 h7
M414,168.5 h7 m25,0 h7 m-393,0 h7 m91,0 h7 m25,0 h7
M398,169.5 h7 m-363,0 h7 m22,0 h4 m11,0 h7 m49,0 h7 m149,0 h7 m22,0 h7 m9,0 h6
M461,170.5 h7 m7,0 h7 m-476,0 h7 m117,0 h7 m68,0 h4 m10,0 h7 m36,0 h7 m117,0 h7
M435,171.5 h2 m49,0 h3 m16,0 h7 m-488,0 h7 m87,0 h7 m105,0 h7 m16,0 h3 m25,0 h6 m87,0 h7
M37,172.5 h7 m10,0 h7 m42,0 h3 m187,0 h7 m10,0 h4 m45,0 h2
M410,173.5 h3 m39,0 h5 m43,0 h2 m-352,0 h7 m37,0 h7 m38,0 h4
M436,174.5 h7 m24,0 h7 m-457,0 h7 m66,0 h7 m321,0 h7 m-244,0 h6 m24,0 h7 m55,0 h7 m66,0 h7 m-191,0 h7
M129,175.5 h7 m262,0 h2 m-336,0 h7 m40,0 h7 m214,0 h2 m51,0 h7 m-250,0 h6 m177,0 h2 m44,0 h3
M502,176.5 h7 m-503,0 h7 m84,0 h7 m158,0 h7 m84,0 h7
M426,177.5 h7 m25,0 h7 m9,0 h5 m8,0 h2 m-467,0 h3 m11,0 h7 m127,0 h7 m25,0 h7 m7,0 h7 m8,0 h7 m40,0 h7 m10,0 h4 m8,0 h7
M84,178.5 h6 m98,0 h7
M411,179.5 h3 m-413,0 h7 m113,0 h3 m32,0 h2 m99,0 h7 m113,0 h6
M418,180.5 h7 m-364,0 h7 m68,0 h7 m19,0 h7 m148,0 h7 m68,0 h7
M480,181.5 h7 m8,0 h7 m-456,0 h3 m47,0 h7 m8,0 h7 m106,0 h7 m8,0 h7 m56,0 h7 m43,0 h7 m8,0 h7
M439,182.5 h7 m9,0 h7 m-434,0 h7 m45,0 h7 m96,0 h7 m11,0 h5 m78,0 h2 m50,0 h7 m-73,0 h7
M0,183.5 h7 m62,0 h7 m180,0 h7 m62,0 h7
M410,184.5 h7 m10,0 h7 m40,0 h4 m-439,0 h7 m89,0 h7 m12,0 h7 m10,0 h7 m37,0 h6 m74,0 h7 m89,0 h7
M459,185.5 h7 m20,0 h7 m9,0 h7 m-452,0 h7 m23,0 h7 m25,0 h5 m79,0 h7 m20,0 h7 m9,0 h7 m60,0 h7 m23,0 h7 m25,0 h6
M107,186.5 h7 m154,0 h7 m88,0 h7
M435,187.5 h7 m-263,0 h7
M139,188.5 h7 m261,0 h7 m8,0 h7 m49,0 h7 m-455,0 h7 m7,0 h7 m45,0 h7 m23,0 h7 m262,0 h7 m-251,0 h7 m8,0 h7 m113,0 h7 m7,0 h5 m47,0 h7
M442,189.5 h7 m61,0 h2 m-512,0 h5 m63,0 h7 m111,0 h5 m63,0 h7 m63,0 h7
M457,190.5 h7 m27,0 h7 m-443,0 h7 m408,0 h7 m-455,0 h7 m173,0 h6 m27,0 h6 m73,0 h4 m-104,0 h5 m59,0 h7
M88,191.5 h7 m-84,0 h7 m326,0 h7 m-84,0 h7 m88,0 h7
M446,192.5 h2 m3,0 h2 m-379,0 h7 m41,0 h7 m121,0 h3 m-63,0 h7 m133,0 h7 m41,0 h7
M139,193.5 h7 m264,0 h7 m-22,0 h7 m-248,0 h7
M419,194.5 h4 m12,0 h7 m-408,0 h7 m7,0 h7 m108,0 h7 m120,0 h7 m21,0 h7
M464,195.5 h7 m23,0 h5 m-499,0 h7 m89,0 h7 m11,0 h4 m90,0 h7 m9,0 h7 m7,0 h2 m16,0 h7 m104,0 h7
M454,196.5 h3 m-444,0 h7 m5,0 h7 m49,0 h4 m44,0 h7 m58,0 h7 m68,0 h7 m8,0 h4 m49,0 h7 m41,0 h7
M431,197.5 h3 m-286,0 h2 m21,0 h5
M473,198.5 h5 m25,0 h7 m-461,0 h2 m22,0 h5 m139,0 h7 m25,0 h5 m46,0 h7 m20,0 h7
M103,199.5 h7 m347,0 h7 m-407,0 h5 m58,0 h6 m237,0 h3 m-165,0 h7 m105,0 h7 m25,0 h7 m24,0 h7
M137,200.5 h4 m-106,0 h4 m351,0 h7 m-106,0 h7
M435,201.5 h7 m50,0 h7 m-334,0 h7 m7,0 h7 m50,0 h7
M478,202.5 h7 m22,0 h5 m-512,0 h2 m112,0 h7 m26,0 h3 m72,0 h7 m22,0 h7 m112,0 h7
M444,203.5 h7 m-437,0 h4 m9,0 h7 m17,0 h7 m8,0 h7 m9,0 h3 m103,0 h7 m73,0 h6 m12,0 h4 m17,0 h7 m8,0 h7
M413,204.5 h7 m37,0 h7 m5,0 h7 m-376,0 h7 m54,0 h3 m37,0 h3 m11,0 h5 m136,0 h7
M429,205.5 h7 m49,0 h7 m-353,0 h7 m27,0 h7 m49,0 h7 m59,0 h7 m93,0 h7
M500,206.5 h7 m-487,0 h7 m64,0 h7 m146,0 h7 m25,0 h7 m67,0 h4
M406,207.5 h7 m-352,0 h7 m6,0 h7 m26,0 h7 m36,0 h7 m160,0 h3 m10,0 h7 m26,0 h7
M451,208.5 h7 m-263,0 h7
M419,209.5 h7 m13,0 h7 m32,0 h7 m8,0 h7 m9,0 h3 m-512,0 h2 m11,0 h3 m31,0 h7 m63,0 h7 m9,0 h7 m23,0 h7 m13,0 h7 m32,0 h7 m8,0 h7 m9,0 h7 m5,0 h7 m31,0 h7 m63,0 h7 m9,0 h7
M33,210.5 h3 m249,0 h7
M83,211.5 h7 m122,0 h7
M396,212.5 h7 m24,0 h7 m24,0 h7 m-447,0 h6 m16,0 h7 m8,0 h7 m11,0 h4 m16,0 h7 m40,0 h7 m55,0 h7 m65,0 h7 m15,0 h7 m8,0 h7 m13,0 h2 m16,0 h7
M409,213.5 h7 m69,0 h7 m-387,0 h7 m10,0 h7 m24,0 h7 m69,0 h7 m125,0 h4 m13,0 h7
M497,214.5 h7 m-497,0 h7 m178,0 h7 m42,0 h7 m15,0 h7
M436,215.5 h7 m65,0 h4 m-512,0 h3 m177,0 h7 m65,0 h7 m27,0 h4
M419,216.5 h7 m-351,0 h5 m52,0 h7 m24,0 h7 m159,0 h7 m52,0 h7
M405,217.5 h7 m-361,0 h7 m26,0 h7 m21,0 h7 m30,0 h7 m53,0 h7 m124,0 h7 m24,0 h4
M486,218.5 h3 m-467,0 h2 m78,0 h7 m121,0 h4 m44,0 h7
M428,219.5 h7 m7,0 h2 m33,0 h4 m-472,0 h6 m25,0 h7 m139,0 h7 m27,0 h5 m39,0 h7 m29,0 h3 m21,0 h7 m49,0 h7
M397,220.5 h4 m57,0 h7 m39,0 h7 m-454,0 h7 m28,0 h7 m42,0 h3 m58,0 h7 m39,0 h7 m63,0 h2 m28,0 h7
M415,221.5 h7 m-263,0 h7
M500,222.5 h2 m-470,0 h7 m76,0 h7 m328,0 h7 m-456,0 h5 m238,0 h2 m125,0 h7 m-184,0 h7 m56,0 h7
M482,223.5 h7 m-472,0 h7 m410,0 h7 m-309,0 h7 m87,0 h7 m40,0 h7 m-102,0 h7 m203,0 h7
M51,224.5 h7 m12,0 h7 m8,0 h7 m234,0 h7 m8,0 h7 m9,0 h7
M412,225.5 h7 m52,0 h7 m-322,0 h7
M396,226.5 h3 m33,0 h2 m23,0 h7 m-441,0 h7 m10,0 h7 m16,0 h7 m70,0 h4 m27,0 h7 m23,0 h7 m26,0 h7 m38,0 h7 m10,0 h7 m16,0 h7
M443,227.5 h7 m54,0 h7 m-496,0 h2 m60,0 h4 m29,0 h5 m133,0 h7 m78,0 h7 m24,0 h7 m9,0 h7
M92,228.5 h7 m249,0 h7
M465,229.5 h7 m-263,0 h7
M405,230.5 h7 m9,0 h2 m58,0 h7 m-487,0 h7 m24,0 h6 m17,0 h7 m87,0 h7 m9,0 h7 m53,0 h7 m26,0 h6 m24,0 h7 m16,0 h7
M117,231.5 h7 m249,0 h2
M139,232.5 h7 m296,0 h7 m41,0 h7 m-475,0 h7 m18,0 h6 m25,0 h3 m25,0 h7 m13,0 h7 m262,0 h7 m-168,0 h7 m37,0 h7 m17,0 h7 m25,0 h4 m24,0 h7 m17,0 h3
M432,233.5 h3 m23,0 h7 m9,0 h7 m25,0 h6 m-512,0 h1 m62,0 h7 m24,0 h7 m71,0 h7 m23,0 h7 m9,0 h7 m94,0 h7 m24,0 h7
M413,234.5 h7 m-262,0 h6
M34,235.5 h2 m254,0 h7
M450,236.5 h7 m14,0 h3 m24,0 h7 m-503,0 h7 m7,0 h7 m61,0 h7 m40,0 h7 m56,0 h7 m10,0 h7 m24,0 h6 m11,0 h6 m7,0 h7 m108,0 h7
M403,237.5 h7 m25,0 h4 m-386,0 h7 m9,0 h7 m24,0 h7 m9,0 h7 m24,0 h2 m30,0 h7 m123,0 h7 m9,0 h7 m24,0 h7 m9,0 h3
M424,238.5 h7 m56,0 h7 m-326,0 h7 m56,0 h7
M26,239.5 h7 m378,0 h7 m57,0 h7 m-475,0 h7 m268,0 h4 m-67,0 h7 m37,0 h7 m27,0 h7
M396,240.5 h7 m55,0 h2 m-400,0 h7 m25,0 h7 m41,0 h7 m38,0 h7 m10,0 h7 m112,0 h2 m25,0 h4
M499,241.5 h2 m-425,0 h7 m25,0 h7 m9,0 h3 m1,0 h3 m112,0 h7 m82,0 h7 m25,0 h7 m9,0 h7
M17,242.5 h7 m249,0 h7
M423,243.5 h7 m20,0 h7 m14,0 h4 m-445,0 h7 m12,0 h7 m78,0 h6 m27,0 h7 m20,0 h7 m104,0 h5 m79,0 h2 m1,0 h4
M411,244.5 h7 m63,0 h7 m22,0 h2 m-437,0 h2 m30,0 h2 m51,0 h2 m63,0 h7 m17,0 h7 m70,0 h7 m27,0 h5
M40,245.5 h7 m38,0 h7 m26,0 h6 m143,0 h7 m22,0 h7 m38,0 h7 m26,0 h7
M428,246.5 h7 m24,0 h7 m25,0 h7 m-498,0 h7 m165,0 h7 m24,0 h7 m46,0 h7
M441,247.5 h7 m-387,0 h5 m119,0 h6 m130,0 h3
M399,248.5 h7 m-376,0 h7 m59,0 h4 m34,0 h5 m4,0 h7 m141,0 h2
M469,249.5 h7 m13,0 h3 m-414,0 h7 m25,0 h7 m44,0 h7 m61,0 h5 m69,0 h7 m24,0 h7 m25,0 h7
M451,250.5 h7 m-438,0 h7 m172,0 h3 m74,0 h7
M405,251.5 h7 m27,0 h7 m54,0 h7 m-505,0 h7 m78,0 h7 m55,0 h7 m27,0 h5 m57,0 h6 m7,0 h7 m78,0 h7
M425,252.5 h7 m-375,0 h4 m7,0 h7 m43,0 h7 m47,0 h4 m46,0 h7 m81,0 h7 m7,0 h7 m26,0 h7 m10,0 h7
M9,253.5 h7 m20,0 h7 m87,0 h7 m128,0 h7 m20,0 h7 m87,0 h4
M457,254.5 h7 m28,0 h7 m-341,0 h4 m39,0 h7
M76,255.5 h7 m249,0 h7
M401,256.5 h7 m26,0 h7 m27,0 h7 m-456,0 h7 m34,0 h7 m78,0 h7 m26,0 h7 m27,0 h7 m56,0 h7 m19,0 h7 m8,0 h7
M449,257.5 h7 m29,0 h7 m8,0 h7 m-502,0 h7 m18,0 h7 m54,0 h7 m7,0 h7 m86,0 h2 m29,0 h7 m8,0 h7 m10,0 h7 m18,0 h7 m54,0 h7 m7,0 h7
M422,258.5 h7 m-308,0 h7 m6,0 h7 m236,0 h7 m6,0 h7
M461,260.5 h7 m42,0 h2 m-512,0 h5 m46,0 h7 m9,0 h3 m12,0 h6 m25,0 h7 m85,0 h7 m42,0 h7 m48,0 h5 m9,0 h2 m12,0 h7 m25,0 h4
M399,261.5 h7 m5,0 h7 m22,0 h7 m-433,0 h7 m122,0 h7 m5,0 h7 m22,0 h7 m79,0 h7
M470,262.5 h7 m5,0 h7 m-447,0 h7 m42,0 h7 m-63,0 h3 m176,0 h7 m8,0 h4 m114,0 h6 m-63,0 h4
M427,263.5 h7 m57,0 h6 m-394,0 h7 m86,0 h7 m-32,0 h7 m57,0 h7 m119,0 h5
M21,264.5 h3 m96,0 h7 m264,0 h7 m-121,0 h3 m101,0 h2
M415,265.5 h7 m-420,0 h7 m43,0 h7 m24,0 h7 m69,0 h7 m14,0 h7 m71,0 h7 m44,0 h6 m24,0 h7
M478,266.5 h5 m-158,0 h7
M461,267.5 h7 m-371,0 h5 m25,0 h7 m72,0 h6 m171,0 h7
M405,268.5 h5 m38,0 h3 m-438,0 h7 m41,0 h7 m44,0 h7 m30,0 h7 m36,0 h7 m70,0 h7 m41,0 h7 m44,0 h5
M426,269.5 h7 m55,0 h7 m13,0 h2 m-475,0 h4 m6,0 h7 m24,0 h7 m87,0 h7 m55,0 h7 m50,0 h6 m6,0 h7 m24,0 h7
M472,270.5 h2 m-452,0 h7 m187,0 h4 m174,0 h7 m-123,0 h7
M442,271.5 h6 m-30,0 h2 m-414,0 h7 m78,0 h7 m13,0 h2 m72,0 h7 m-34,0 h6 m98,0 h7 m78,0 h4 m11,0 h7
M496,272.5 h7 m-377,0 h7 m107,0 h7 m135,0 h7
M465,273.5 h7 m-431,0 h4 m164,0 h7 m81,0 h7
M402,274.5 h7 m44,0 h7 m50,0 h2 m-512,0 h5 m49,0 h5 m4,0 h7 m11,0 h7 m26,0 h7 m25,0 h7 m101,0 h7 m47,0 h7 m4,0 h7 m11,0 h7 m26,0 h7
M422,275.5 h7 m5,0 h7 m46,0 h7 m-465,0 h7 m130,0 h7 m58,0 h7 m34,0 h3 m10,0 h7
M137,276.5 h7 m299,0 h7 m-378,0 h7 m315,0 h6 m-210,0 h4 m25,0 h7 m102,0 h5
M412,277.5 h7 m-331,0 h7 m8,0 h7 m13,0 h7 m214,0 h7 m8,0 h7 m13,0 h5
M499,278.5 h7 m-467,0 h5 m-23,0 h7 m215,0 h7 m45,0 h7 m-25,0 h7
M464,279.5 h7 m-469,0 h6 m200,0 h7 m43,0 h3
M482,280.5 h7 m-436,0 h3 m13,0 h4 m23,0 h7 m123,0 h7 m77,0 h2 m13,0 h6 m21,0 h7
M405,281.5 h7 m9,0 h7 m8,0 h7 m9,0 h7 m-400,0 h7 m67,0 h7 m9,0 h7 m9,0 h7 m24,0 h7 m112,0 h7 m51,0 h7
M490,282.5 h7 m-470,0 h7 m200,0 h7 m31,0 h4 m7,0 h7
M459,283.5 h7 m38,0 h7 m-404,0 h6 m90,0 h7 m38,0 h7 m108,0 h7
M397,284.5 h7 m25,0 h7 m39,0 h7 m-443,0 h7 m95,0 h7 m25,0 h7 m115,0 h5
M413,285.5 h7 m25,0 h7 m-449,0 h7 m77,0 h7 m31,0 h7 m25,0 h7 m25,0 h7 m63,0 h7 m77,0 h7 m31,0 h3
M99,286.5 h7 m390,0 h7 m-436,0 h4 m284,0 h2 m1,0 h4 m-122,0 h7 m76,0 h7
M465,287.5 h7 m-424,0 h7 m-39,0 h7 m186,0 h7 m56,0 h7
M421,288.5 h7 m10,0 h5 m-333,0 h3 m20,0 h4 m30,0 h5 m8,0 h7 m179,0 h7 m16,0 h7
M472,289.5 h3 m11,0 h7 m-456,0 h7 m15,0 h7 m150,0 h2 m12,0 h7 m56,0 h7 m15,0 h7
M505,290.5 h7 m-506,0 h7 m13,0 h7 m42,0 h7 m11,0 h2 m154,0 h7 m6,0 h7 m13,0 h7 m42,0 h7 m11,0 h5
M398,291.5 h7 m11,0 h3 m27,0 h7 m-327,0 h7 m14,0 h2 m7,0 h7 m27,0 h7 m185,0 h7
M429,292.5 h2 m64,0 h2 m-482,0 h7 m63,0 h7 m24,0 h7 m51,0 h6 m24,0 h7 m28,0 h2 m100,0 h7 m24,0 h7
M106,293.5 h4 m200,0 h7 m47,0 h2
M44,294.5 h6 m169,0 h7 m74,0 h7
M399,295.5 h7 m34,0 h7 m-27,0 h7 m26,0 h4 m48,0 h5 m-445,0 h7 m74,0 h4 m34,0 h7 m11,0 h2 m47,0 h3
M487,296.5 h7 m-487,0 h3 m13,0 h3 m12,0 h4 m36,0 h7 m146,0 h7 m25,0 h7 m11,0 h5 m5,0 h7 m36,0 h7
M113,297.5 h7 m7,0 h7 m20,0 h7 m208,0 h7 m11,0 h3
M509,298.5 h3 m-512,0 h4 m457,0 h7 m9,0 h7 m-396,0 h7 m158,0 h7 m-55,0 h7 m9,0 h7 m116,0 h7
M430,299.5 h7 m-366,0 h7 m24,0 h7 m65,0 h7 m148,0 h5 m24,0 h7
M398,300.5 h7 m42,0 h7 m40,0 h3 m-480,0 h4 m121,0 h7 m121,0 h7 m33,0 h7
M470,301.5 h7 m-434,0 h7 m67,0 h7 m90,0 h7 m66,0 h5 m10,0 h4 m67,0 h7
M419,302.5 h7 m74,0 h7 m-413,0 h7 m-39,0 h7 m64,0 h7 m23,0 h7 m74,0 h7 m99,0 h7 m32,0 h7
M462,303.5 h7 m-62,0 h7 m25,0 h7 m39,0 h7 m-286,0 h7 m50,0 h7 m-119,0 h7 m25,0 h7 m39,0 h7
M21,304.5 h7 m78,0 h7 m164,0 h7 m57,0 h7 m17,0 h4
M73,305.5 h7 m44,0 h7 m198,0 h7
M420,306.5 h7 m5,0 h7 m72,0 h1 m-512,0 h6 m158,0 h7 m5,0 h7 m72,0 h7
M459,307.5 h7 m11,0 h7 m-442,0 h7 m5,0 h7 m38,0 h7 m97,0 h7 m16,0 h2 m73,0 h4 m5,0 h7
M404,308.5 h7 m81,0 h7 m-467,0 h7 m77,0 h7 m8,0 h7 m10,0 h7 m33,0 h7 m41,0 h7 m45,0 h5 m79,0 h7 m8,0 h7
M63,309.5 h7 m11,0 h4 m418,0 h7 m-191,0 h7 m11,0 h7
M412,310.5 h7 m-397,0 h7 m127,0 h7 m115,0 h7
M452,311.5 h7 m-449,0 h7 m74,0 h7 m98,0 h7 m63,0 h7 m74,0 h7
M490,312.5 h7 m-359,0 h7 m318,0 h5 m11,0 h4 m-411,0 h7 m33,0 h5 m117,0 h7 m153,0 h7 m-194,0 h7 m114,0 h7 m31,0 h7
M432,313.5 h7 m-13,0 h4 m79,0 h3 m-512,0 h4 m35,0 h7 m135,0 h2 m-16,0 h5 m86,0 h2 m35,0 h7
M53,314.5 h7 m38,0 h7 m177,0 h7 m20,0 h7 m38,0 h7 m23,0 h7
M412,315.5 h4 m28,0 h7 m-294,0 h6 m25,0 h4
M400,316.5 h3 m81,0 h6 m11,0 h7 m-364,0 h2 m67,0 h7 m8,0 h7 m83,0 h7
M454,317.5 h7 m-453,0 h7 m4,0 h7 m18,0 h7 m38,0 h7 m25,0 h7 m136,0 h7 m4,0 h7 m18,0 h7 m38,0 h7 m25,0 h7
M434,318.5 h7 m-366,0 h7 m99,0 h4 m146,0 h3 m29,0 h7
M427,319.5 h2 m-263,0 h7
M0,320.5 h2 m34,0 h2 m32,0 h4 m159,0 h7 m16,0 h7 m27,0 h4 m29,0 h7
M134,321.5 h7 m270,0 h5 m24,0 h7 m10,0 h7 m13,0 h7 m-442,0 h7 m5,0 h7 m21,0 h7 m10,0 h7 m8,0 h7 m269,0 h7 m-240,0 h5 m22,0 h7 m12,0 h5 m13,0 h7 m70,0 h7 m38,0 h2 m10,0 h7 m8,0 h7
M501,322.5 h7 m-496,0 h7 m226,0 h7 m16,0 h7
M469,323.5 h7 m-263,0 h7
M429,324.5 h7 m-413,0 h7 m143,0 h7
M447,325.5 h7 m54,0 h4 m-512,0 h1 m56,0 h7 m9,0 h7 m9,0 h7 m25,0 h7 m63,0 h7 m39,0 h7 m8,0 h7 m70,0 h7 m9,0 h7
M420,326.5 h7 m33,0 h7 m-434,0 h7 m65,0 h7 m25,0 h7 m20,0 h7 m33,0 h7 m78,0 h7 m66,0 h6 m25,0 h4
M410,327.5 h7 m-407,0 h2 m31,0 h7 m104,0 h7 m138,0 h7
M485,328.5 h7 m-396,0 h7 m25,0 h7 m94,0 h7 m116,0 h3 m31,0 h5
M430,329.5 h7 m14,0 h6 m13,0 h7 m-411,0 h7 m101,0 h7 m13,0 h7 m13,0 h2 m106,0 h7
M401,330.5 h7 m-385,0 h7 m22,0 h7 m56,0 h4 m1,0 h2 m23,0 h7 m127,0 h7 m22,0 h7 m56,0 h4
M438,331.5 h3 m59,0 h7 m-495,0 h7 m70,0 h2 m91,0 h7 m56,0 h6 m19,0 h5 m65,0 h7
M478,332.5 h7 m25,0 h2 m-512,0 h5 m69,0 h4 m57,0 h7 m83,0 h4 m25,0 h7 m69,0 h7 m54,0 h7
M421,333.5 h7 m33,0 h3 m27,0 h7 m-454,0 h7 m55,0 h7 m52,0 h7 m33,0 h7 m88,0 h7 m57,0 h5
M406,334.5 h7 m37,0 h7 m-428,0 h3 m29,0 h7 m26,0 h7 m26,0 h4 m19,0 h7 m37,0 h7 m84,0 h7 m25,0 h7 m26,0 h5 m25,0 h7
M438,335.5 h4 m-260,0 h7 m25,0 h2
M7,336.5 h7 m4,0 h7 m238,0 h7 m4,0 h7
M413,337.5 h7 m7,0 h7 m-391,0 h2 m24,0 h7 m9,0 h7 m44,0 h7 m14,0 h7 m130,0 h7 m24,0 h7 m9,0 h7 m44,0 h7
M455,338.5 h7 m32,0 h7 m8,0 h3 m-512,0 h4 m49,0 h7 m41,0 h7 m96,0 h2 m47,0 h7 m97,0 h7 m8,0 h7
M482,339.5 h7 m-263,0 h7
M405,340.5 h7 m25,0 h7 m-416,0 h7 m118,0 h3 m27,0 h5 m25,0 h7 m66,0 h5
M502,341.5 h7 m-464,0 h7 m25,0 h7 m40,0 h7 m36,0 h5 m75,0 h6 m16,0 h7 m25,0 h4 m28,0 h6 m9,0 h7 m25,0 h7
M136,342.5 h7 m-80,0 h7 m35,0 h7 m207,0 h7 m35,0 h7
M457,343.5 h7 m-258,0 h2
M413,344.5 h7 m27,0 h7 m39,0 h7 m-500,0 h7 m16,0 h6 m128,0 h7 m27,0 h6 m40,0 h7 m12,0 h7
M401,345.5 h6 m30,0 h7 m26,0 h7 m3,0 h7 m-449,0 h7 m36,0 h7 m38,0 h7 m11,0 h7 m30,0 h7 m26,0 h7 m3,0 h7 m63,0 h7 m9,0 h7 m65,0 h7
M112,346.5 h7 m148,0 h7 m77,0 h7 m10,0 h7
M420,347.5 h5 m-355,0 h7 m87,0 h7 m155,0 h7
M407,348.5 h7 m18,0 h7 m25,0 h6 m32,0 h7 m-479,0 h7 m114,0 h7 m18,0 h7 m24,0 h7 m17,0 h7 m8,0 h7 m35,0 h5
M449,349.5 h5 m-410,0 h7 m12,0 h4 m37,0 h7 m10,0 h7 m65,0 h7 m100,0 h7 m9,0 h7 m37,0 h7 m10,0 h7
M139,350.5 h7 m-132,0 h7 m374,0 h7 m-132,0 h7 m69,0 h7
M511,351.5 h1 m-512,0 h6 m249,0 h7 m72,0 h7
M496,352.5 h5 m-475,0 h7 m17,0 h7 m145,0 h7 m29,0 h7 m37,0 h7 m17,0 h7
M418,353.5 h7 m9,0 h7 m39,0 h7 m-420,0 h7 m25,0 h7 m26,0 h4 m26,0 h7 m9,0 h7 m39,0 h7 m92,0 h7 m25,0 h3 m27,0 h7
M405,354.5 h4 m1,0 h2 m58,0 h7 m-474,0 h7 m204,0 h4 m1,0 h2
M446,355.5 h7 m-335,0 h3 m69,0 h7 m49,0 h7 m121,0 h7
M17,356.5 h7 m9,0 h7 m5,0 h7 m7,0 h7 m10,0 h2 m30,0 h7 m158,0 h7 m9,0 h7 m5,0 h7 m7,0 h7 m10,0 h7
M457,357.5 h7 m25,0 h7 m-404,0 h7 m297,0 h7 m-202,0 h7 m25,0 h6 m109,0 h7 m-215,0 h7
M417,358.5 h4 m7,0 h7 m-303,0 h2 m306,0 h7 m-286,0 h4 m7,0 h6 m10,0 h3
M472,359.5 h7 m-474,0 h7 m11,0 h5 m251,0 h7
M52,360.5 h7 m9,0 h7 m9,0 h7 m217,0 h7 m25,0 h7
M405,361.5 h2 m12,0 h7 m23,0 h7 m29,0 h7 m-455,0 h5 m73,0 h7 m125,0 h6 m-90,0 h7 m23,0 h7 m29,0 h7 m55,0 h7 m73,0 h7
M136,362.5 h7 m320,0 h7 m-367,0 h3 m286,0 h7 m-192,0 h7 m145,0 h7
M123,363.5 h7 m249,0 h2
M431,364.5 h7 m38,0 h7 m9,0 h7 m-495,0 h3 m10,0 h4 m23,0 h7 m25,0 h7 m8,0 h7 m77,0 h3 m47,0 h2 m9,0 h2 m22,0 h7 m3,0 h7 m39,0 h6 m10,0 h7 m8,0 h7
M442,365.5 h7 m-262,0 h6
M410,366.5 h7 m89,0 h6 m-512,0 h1 m24,0 h2 m427,0 h7 m-307,0 h7 m89,0 h7 m107,0 h7 m-173,0 h4
M134,367.5 h7 m281,0 h2 m-327,0 h7 m286,0 h7 m-231,0 h7 m180,0 h7
M463,368.5 h5 m9,0 h6 m13,0 h7 m-450,0 h7 m9,0 h6 m132,0 h7 m6,0 h7 m13,0 h7 m64,0 h5 m8,0 h7
M402,369.5 h7 m25,0 h7 m-409,0 h7 m83,0 h7 m17,0 h7 m25,0 h7 m104,0 h6 m83,0 h7
M2,370.5 h5 m11,0 h3 m23,0 h7 m28,0 h7 m105,0 h5 m62,0 h7 m5,0 h7 m23,0 h3 m32,0 h7
M90,371.5 h7 m249,0 h7 m14,0 h4
M414,372.5 h7 m59,0 h7 m-350,0 h7 m14,0 h7 m59,0 h7 m162,0 h7
M466,373.5 h3 m24,0 h7 m7,0 h5 m-512,0 h2 m21,0 h7 m35,0 h7 m97,0 h2 m39,0 h7 m20,0 h7 m7,0 h7 m63,0 h7
M37,374.5 h7 m77,0 h7 m-76,0 h7 m234,0 h7 m77,0 h7 m-76,0 h7
M80,375.5 h7 m318,0 h7 m25,0 h7 m11,0 h6 m-364,0 h7 m8,0 h7 m217,0 h7 m-191,0 h4 m25,0 h7 m165,0 h7 m9,0 h6
M133,376.5 h4 m249,0 h7
M475,377.5 h7 m16,0 h7 m-498,0 h7 m3,0 h7 m195,0 h4 m19,0 h7 m14,0 h7 m3,0 h7
M413,378.5 h7 m10,0 h7 m49,0 h7 m-465,0 h7 m26,0 h7 m22,0 h7 m60,0 h7 m14,0 h3 m51,0 h5 m47,0 h7 m9,0 h7 m10,0 h5 m29,0 h2
M443,379.5 h7 m14,0 h7 m38,0 h3 m-512,0 h4 m68,0 h5 m61,0 h5 m44,0 h7 m14,0 h7 m38,0 h7 m68,0 h7 m59,0 h7
M454,380.5 h7 m-263,0 h7
M422,381.5 h7 m-330,0 h7 m6,0 h7 m47,0 h3 m186,0 h7 m6,0 h7
M505,382.5 h2 m-470,0 h7 m428,0 h3 m-419,0 h4 m94,0 h4 m86,0 h2 m3,0 h2 m42,0 h7 m-84,0 h6 m87,0 h7 m65,0 h5
M4,383.5 h7 m74,0 h7
M398,384.5 h5 m42,0 h7 m33,0 h7 m-477,0 h7 m6,0 h5 m40,0 h2 m114,0 h7 m35,0 h5 m35,0 h7 m6,0 h3 m42,0 h7
M414,385.5 h6 m10,0 h7 m23,0 h7 m-362,0 h7 m45,0 h7 m10,0 h7 m23,0 h7 m150,0 h7
M43,386.5 h7 m10,0 h7 m62,0 h7 m163,0 h7 m10,0 h4
M471,387.5 h5 m31,0 h4 m-396,0 h7 m93,0 h7 m16,0 h2 m12,0 h6 m113,0 h7
M422,388.5 h7 m10,0 h7 m-423,0 h7 m54,0 h5 m77,0 h7 m10,0 h7 m89,0 h6 m53,0 h7 m9,0 h7
M135,389.5 h7 m312,0 h7 m-450,0 h2 m35,0 h7 m338,0 h5 m-200,0 h7 m57,0 h7 m35,0 h7
M486,390.5 h7 m-420,0 h7 m321,0 h7 m-178,0 h7 m92,0 h7 m-191,0 h7
M88,391.5 h7 m382,0 h7 m-470,0 h7 m38,0 h7 m278,0 h7 m-130,0 h7 m42,0 h7 m38,0 h7
M416,392.5 h7 m7,0 h5 m27,0 h7 m40,0 h2 m-483,0 h3 m87,0 h7 m35,0 h7 m7,0 h7 m72,0 h7 m114,0 h7
M493,393.5 h7 m-403,0 h2 m138,0 h7 m109,0 h7
M405,394.5 h7 m40,0 h7 m-415,0 h7 m57,0 h7 m17,0 h7 m10,0 h7 m40,0 h6 m98,0 h7 m57,0 h7 m17,0 h7
M502,395.5 h7 m-474,0 h7 m26,0 h7 m106,0 h7 m58,0 h7 m38,0 h7 m26,0 h7
M468,396.5 h7 m8,0 h7 m-485,0 h7 m9,0 h7 m26,0 h7 m25,0 h7 m32,0 h2 m86,0 h6 m8,0 h7 m27,0 h7 m9,0 h7 m28,0 h5 m25,0 h7 m32,0 h7
M424,397.5 h7 m-258,0 h2
M445,398.5 h7 m-376,0 h7 m315,0 h7 m7,0 h7 m-227,0 h4 m136,0 h7 m-197,0 h7 m7,0 h7
M96,399.5 h7 m14,0 h7 m228,0 h2 m19,0 h7
M475,400.5 h7 m10,0 h7 m7,0 h6 m-512,0 h1 m31,0 h7 m25,0 h7 m148,0 h7 m10,0 h7 m7,0 h7 m31,0 h7 m25,0 h7
M437,401.5 h7 m-392,0 h7 m50,0 h7 m65,0 h2 m182,0 h7
M427,402.5 h7 m-429,0 h7 m8,0 h7 m60,0 h7 m79,0 h5 m83,0 h7 m8,0 h7 m60,0 h7
M409,403.5 h4 m54,0 h7 m11,0 h7 m-418,0 h7 m56,0 h7 m9,0 h7 m51,0 h7 m80,0 h7 m75,0 h7 m6,0 h7
M501,404.5 h7 m-263,0 h7
M441,405.5 h7 m-436,0 h2 m15,0 h7 m70,0 h7 m172,0 h7 m70,0 h7
M455,406.5 h7 m-301,0 h7 m31,0 h7 m112,0 h7
M98,407.5 h6 m296,0 h7 m-357,0 h6 m62,0 h7 m5,0 h7 m217,0 h7 m-217,0 h7 m154,0 h7 m29,0 h2 m43,0 h7
M467,408.5 h7 m13,0 h7 m-283,0 h7 m16,0 h4
M427,409.5 h7 m-431,0 h7 m25,0 h3 m53,0 h7 m73,0 h7 m66,0 h7 m8,0 h6 m30,0 h3 m49,0 h7
M409,410.5 h7 m21,0 h7 m-375,0 h6 m83,0 h2 m21,0 h7 m88,0 h3 m45,0 h5
M447,411.5 h7 m4,0 h7 m-353,0 h6 m73,0 h7 m4,0 h7 m10,0 h7 m141,0 h6
M398,412.5 h3 m17,0 h7 m-295,0 h7 m5,0 h6 m14,0 h7 m217,0 h7
M485,413.5 h7 m-492,0 h7 m14,0 h7 m11,0 h7 m6,0 h6 m21,0 h7 m13,0 h3 m127,0 h7 m21,0 h6 m14,0 h7 m14,0 h4 m6,0 h7 m20,0 h7 m13,0 h7
M63,414.5 h7 m249,0 h7 m-85,0 h5
M120,415.5 h7
M465,416.5 h7 m-63,0 h7 m11,0 h7 m11,0 h3 m-436,0 h7 m12,0 h7 m50,0 h7 m114,0 h7 m-58,0 h2 m11,0 h7 m7,0 h7 m76,0 h7 m69,0 h7
M396,417.5 h3 m-356,0 h7 m22,0 h7 m61,0 h7 m74,0 h7 m71,0 h7 m22,0 h7 m24,0 h7
M501,418.5 h7 m-449,0 h7 m179,0 h2 m68,0 h7
M417,419.5 h7 m25,0 h7 m-452,0 h7 m11,0 h7 m132,0 h7 m25,0 h7 m60,0 h7 m11,0 h7
M458,420.5 h7 m20,0 h7 m-382,0 h7 m17,0 h3 m65,0 h7 m20,0 h7 m130,0 h7 m13,0 h7
M408,421.5 h5 m57,0 h7 m30,0 h5 m-512,0 h2 m46,0 h7 m23,0 h7 m6,0 h7 m21,0 h5 m26,0 h7 m25,0 h7 m62,0 h7 m46,0 h6 m24,0 h7 m9,0 h4 m21,0 h7
M30,422.5 h7 m457,0 h7 m-215,0 h7 m-55,0 h7
M426,423.5 h7 m-419,0 h7 m81,0 h7 m61,0 h7 m93,0 h7 m81,0 h7
M414,424.5 h7 m25,0 h7 m-393,0 h7 m91,0 h7 m155,0 h3
M398,425.5 h7 m-363,0 h7 m22,0 h7 m8,0 h2 m54,0 h7 m149,0 h7 m22,0 h7
M461,426.5 h7 m7,0 h7 m-476,0 h3 m126,0 h2 m68,0 h6 m11,0 h4 m36,0 h7 m119,0 h5
M430,427.5 h7 m49,0 h7 m12,0 h7 m-488,0 h4 m90,0 h6 m106,0 h7 m12,0 h7 m24,0 h7 m87,0 h4
M40,428.5 h4 m10,0 h7 m42,0 h7 m183,0 h7 m59,0 h7
M406,429.5 h7 m82,0 h7 m-352,0 h7
M436,430.5 h7 m24,0 h6 m-456,0 h7 m394,0 h7 m-242,0 h4 m86,0 h7 m66,0 h7 m-191,0 h7
M76,431.5 h7 m46,0 h7 m262,0 h7 m-341,0 h7 m42,0 h5 m214,0 h7 m50,0 h3 m-250,0 h7 m171,0 h7 m40,0 h7
M502,432.5 h7 m-412,0 h7 m143,0 h6 m9,0 h7 m84,0 h7
M459,433.5 h6 m22,0 h7 m-472,0 h6 m11,0 h4 m159,0 h7 m7,0 h7 m8,0 h7 m40,0 h7 m7,0 h6 m9,0 h7
M444,434.5 h3 m-364,0 h3 m102,0 h7 m144,0 h7
M1,435.5 h7 m113,0 h7 m129,0 h7
M418,436.5 h6 m-362,0 h6 m68,0 h7 m19,0 h7 m148,0 h7 m68,0 h7
M480,437.5 h7 m8,0 h5 m-454,0 h5 m45,0 h7 m121,0 h7 m8,0 h7 m58,0 h5 m43,0 h7 m11,0 h4
M439,438.5 h7 m12,0 h4 m-434,0 h7 m45,0 h7 m-73,0 h7 m162,0 h7 m9,0 h7 m79,0 h6 m45,0 h7 m-73,0 h3
M0,439.5 h7 m62,0 h7 m180,0 h3 m1,0 h3 m62,0 h7
M412,440.5 h5 m-378,0 h7 m91,0 h5 m29,0 h7 m37,0 h7 m169,0 h7
M459,441.5 h7 m25,0 h2 m-436,0 h7 m23,0 h7 m25,0 h7 m77,0 h7 m20,0 h7 m9,0 h7 m60,0 h7 m23,0 h2 m30,0 h7
M12,442.5 h7 m88,0 h7 m154,0 h5
M435,443.5 h7 m-263,0 h7
M140,444.5 h6 m261,0 h7 m8,0 h7 m49,0 h3 m-451,0 h7 m7,0 h7 m45,0 h7 m23,0 h2 m267,0 h7 m-251,0 h7 m8,0 h7 m49,0 h7 m57,0 h7 m7,0 h7 m47,0 h5 m23,0 h7
M442,445.5 h7 m61,0 h2 m-512,0 h5 m181,0 h7 m61,0 h3 m72,0 h2
M457,446.5 h7 m28,0 h6 m-443,0 h7 m408,0 h7 m-455,0 h7 m172,0 h7 m29,0 h5 m69,0 h7 m-104,0 h7 m57,0 h7
M88,447.5 h7 m-82,0 h5 m88,0 h7 m154,0 h7 m88,0 h7
M502,448.5 h7 m-63,0 h7 m-376,0 h4 m41,0 h6 m118,0 h7 m-63,0 h7 m133,0 h7 m41,0 h7
M139,449.5 h7 m264,0 h7 m-22,0 h7 m-248,0 h7
M419,450.5 h7 m9,0 h7 m-394,0 h7 m7,0 h7 m94,0 h7 m9,0 h2 m109,0 h7 m7,0 h7
M464,451.5 h7 m9,0 h7 m7,0 h7 m-501,0 h7 m89,0 h7 m8,0 h7 m90,0 h7 m9,0 h7 m12,0 h2 m11,0 h7 m89,0 h7 m8,0 h7
M451,452.5 h6 m-432,0 h7 m49,0 h7 m41,0 h7 m58,0 h7 m68,0 h7 m5,0 h7 m49,0 h7
M404,453.5 h7 m16,0 h7 m-286,0 h7 m16,0 h7
M473,454.5 h7 m23,0 h7 m-466,0 h7 m20,0 h7 m169,0 h7 m46,0 h7 m20,0 h7
M108,455.5 h2 m348,0 h6 m-407,0 h7 m25,0 h7 m24,0 h7 m232,0 h7 m-53,0 h7 m25,0 h7 m24,0 h7
M134,456.5 h7 m-136,0 h5 m383,0 h4 m-136,0 h7 m23,0 h5
M424,457.5 h4 m7,0 h7 m50,0 h7 m-334,0 h7 m64,0 h7
M403,458.5 h7 m68,0 h5 m24,0 h5 m-512,0 h2 m112,0 h7 m103,0 h5 m22,0 h7 m112,0 h7
M444,459.5 h4 m-437,0 h7 m9,0 h7 m17,0 h7 m8,0 h7 m9,0 h7 m99,0 h7 m72,0 h7 m9,0 h7 m17,0 h7 m8,0 h7
M457,460.5 h7 m5,0 h7 m-317,0 h5 m49,0 h2 m141,0 h7
M429,461.5 h7 m-397,0 h7 m79,0 h7 m7,0 h7 m27,0 h7 m49,0 h7 m145,0 h4 m10,0 h7
M500,462.5 h7 m-487,0 h7 m64,0 h6 m147,0 h7 m25,0 h7 m64,0 h7
M406,463.5 h7 m-352,0 h7 m39,0 h7 m203,0 h7 m6,0 h5 m28,0 h7
M451,464.5 h7 m-263,0 h7
M419,465.5 h7 m13,0 h7 m32,0 h3 m12,0 h7 m9,0 h3 m-512,0 h4 m5,0 h7 m31,0 h7 m63,0 h7 m9,0 h7 m23,0 h7 m13,0 h7 m32,0 h7 m8,0 h7 m9,0 h7 m7,0 h5 m31,0 h7 m63,0 h7 m9,0 h7
M29,466.5 h7 m249,0 h7
M468,467.5 h7 m-392,0 h7 m122,0 h7 m120,0 h7
M396,468.5 h7 m24,0 h7 m24,0 h7 m-447,0 h7 m30,0 h7 m8,0 h7 m16,0 h7 m40,0 h7 m55,0 h7 m65,0 h7 m15,0 h7 m8,0 h7 m8,0 h7 m16,0 h7
M409,469.5 h7 m69,0 h7 m-387,0 h7 m41,0 h7 m69,0 h7 m125,0 h7 m10,0 h7
M448,470.5 h7 m42,0 h7 m-312,0 h7 m42,0 h7
M436,471.5 h7 m65,0 h4 m-512,0 h3 m27,0 h7 m143,0 h7 m65,0 h7 m27,0 h7
M419,472.5 h7 m-353,0 h7 m55,0 h4 m24,0 h6 m160,0 h7 m52,0 h7
M465,473.5 h7 m-421,0 h7 m26,0 h7 m21,0 h7 m30,0 h7 m53,0 h7 m91,0 h5 m28,0 h7 m21,0 h4
M486,474.5 h7 m-471,0 h7 m73,0 h4 m1,0 h2 m121,0 h7 m41,0 h5 m79,0 h3
M442,475.5 h7 m-409,0 h7 m139,0 h7 m25,0 h7 m39,0 h7 m25,0 h7 m21,0 h7 m51,0 h5
M397,476.5 h4 m60,0 h4 m44,0 h2 m-454,0 h7 m28,0 h7 m42,0 h7 m54,0 h7 m41,0 h5 m93,0 h2
M415,477.5 h7 m-263,0 h7
M495,478.5 h5 m-468,0 h7 m76,0 h7 m-121,0 h7 m285,0 h2 m76,0 h2 m-179,0 h7 m56,0 h7
M483,479.5 h6 m-472,0 h7 m411,0 h6 m-309,0 h7 m87,0 h7 m40,0 h7 m-102,0 h7 m203,0 h7
M51,480.5 h7 m27,0 h7 m9,0 h3 m203,0 h3 m16,0 h7 m8,0 h7 m9,0 h7
M412,481.5 h7 m-263,0 h7 m56,0 h3
M396,482.5 h7 m24,0 h7 m27,0 h3 m26,0 h7 m-474,0 h7 m10,0 h7 m16,0 h2 m75,0 h6 m25,0 h7 m23,0 h7 m26,0 h7 m38,0 h2 m15,0 h7 m16,0 h7
M443,483.5 h7 m54,0 h7 m-501,0 h7 m60,0 h7 m29,0 h2 m9,0 h7 m56,0 h7 m54,0 h7 m11,0 h7 m91,0 h7 m9,0 h7
M92,484.5 h7 m249,0 h7
M465,485.5 h7
M405,486.5 h7 m9,0 h7 m53,0 h7 m-487,0 h7 m24,0 h7 m16,0 h7 m92,0 h2 m9,0 h7 m53,0 h7 m25,0 h7 m24,0 h7 m16,0 h7
M117,487.5 h7 m249,0 h7
M139,488.5 h6 m297,0 h7 m41,0 h7 m-475,0 h2 m54,0 h6 m22,0 h7 m13,0 h7 m262,0 h7 m-168,0 h7 m37,0 h7 m17,0 h7 m53,0 h7 m13,0 h7
M428,489.5 h7 m23,0 h7 m9,0 h7 m25,0 h6 m-512,0 h1 m62,0 h7 m24,0 h7 m71,0 h7 m23,0 h7 m9,0 h7 m25,0 h7 m62,0 h7 m24,0 h7
M413,490.5 h7 m-263,0 h7
M34,491.5 h7 m249,0 h7
M450,492.5 h7 m10,0 h7 m24,0 h7 m-503,0 h7 m7,0 h6 m109,0 h7 m58,0 h5 m10,0 h7 m24,0 h7 m9,0 h7 m9,0 h5 m61,0 h7
M403,493.5 h7 m25,0 h7 m-387,0 h5 m9,0 h7 m24,0 h7 m9,0 h7 m24,0 h7 m25,0 h6 m124,0 h7 m9,0 h7 m24,0 h7 m9,0 h7
M424,494.5 h7 m56,0 h7 m-263,0 h7
M475,495.5 h7 m-441,0 h7 m234,0 h7 m-134,0 h7 m57,0 h7 m71,0 h7
M397,496.5 h6 m38,0 h7 m13,0 h4 m-405,0 h7 m25,0 h7 m41,0 h7 m38,0 h7 m10,0 h7 m139,0 h7
M502,497.5 h4 m-430,0 h2 m30,0 h7 m12,0 h4 m112,0 h2 m87,0 h7 m25,0 h7 m9,0 h7
M17,498.5 h7 m251,0 h5
M423,499.5 h7 m38,0 h6 m-444,0 h7 m12,0 h7 m77,0 h7 m54,0 h7 m11,0 h7 m86,0 h7
M483,500.5 h5 m17,0 h7 m-442,0 h7 m78,0 h7 m164,0 h7 m25,0 h7
M15,501.5 h3 m22,0 h7 m38,0 h7 m204,0 h7 m38,0 h7 m30,0 h3
M428,502.5 h3 m29,0 h6 m25,0 h4 m-495,0 h6 m168,0 h5 m56,0 h7 m14,0 h7
M441,503.5 h7 m-387,0 h7 m117,0 h7
M399,504.5 h7 m-376,0 h7 m59,0 h3 m33,0 h7 m216,0 h4 m29,0 h7
M417,505.5 h7 m45,0 h4 m12,0 h7 m-414,0 h7 m25,0 h7 m44,0 h7 m45,0 h7 m9,0 h7 m67,0 h7 m24,0 h7
M451,506.5 h7 m-438,0 h7 m168,0 h7 m74,0 h7
M405,507.5 h7 m27,0 h7 m54,0 h7 m-505,0 h7 m78,0 h7 m57,0 h5 m27,0 h7 m54,0 h7 m7,0 h7
M425,508.5 h7 m46,0 h7 m-429,0 h5 m7,0 h7 m26,0 h7 m10,0 h7 m44,0 h7 m46,0 h7 m81,0 h7 m7,0 h7 m26,0 h7 m10,0 h7
M9,509.5 h7 m20,0 h7 m87,0 h7 m128,0 h7 m20,0 h7 m87,0 h7
M414,510.5 h7 m36,0 h7 m28,0 h7 m-341,0 h7 m71,0 h7
M76,511.5 h7 m249,0 h7
M401,0.5 h7 m26,0 h7 m27,0 h7 m-456,0 h7 m34,0 h7 m78,0 h7 m26,0 h7 m27,0 h7 m56,0 h7 m19,0 h7 m8,0 h7
M449,1.5 h7 m29,0 h7 m8,0 h7 m-502,0 h7 m18,0 h7 m54,0 h7 m7,0 h7 m81,0 h7 m29,0 h7 m8,0 h7 m10,0 h7 m18,0 h7 m54,0 h7 m7,0 h7
M422,2.5 h7 m-308,0 h7 m6,0 h7 m25,0 h7 m204,0 h7 m6,0 h7
M461,4.5 h7 m42,0 h2 m-512,0 h5 m46,0 h7 m9,0 h7 m39,0 h7 m85,0 h7 m42,0 h7 m62,0 h7 m7,0 h7 m25,0 h7
M399,5.5 h7 m5,0 h7 m22,0 h7 m-433,0 h7 m122,0 h7 m5,0 h7 m25,0 h4 m79,0 h7
M482,6.5 h7 m-447,0 h7 m42,0 h7 m-67,0 h7 m176,0 h4 m11,0 h4 m65,0 h7 m42,0 h7 m-67,0 h7
M452,7.5 h7 m-32,0 h7 m57,0 h7 m-395,0 h7 m86,0 h7 m-32,0 h5 m59,0 h7 m117,0 h7
M502,8.5 h7 m-488,0 h7 m92,0 h7 m269,0 h2 m-152,0 h7 m24,0 h7 m92,0 h7
M418,9.5 h4 m-370,0 h7 m100,0 h2 m178,0 h7
M479,10.5 h4 m-414,0 h7 m249,0 h5
M461,11.5 h7 m-371,0 h7 m23,0 h5 m73,0 h7 m141,0 h7 m23,0 h3
M405,12.5 h3 m40,0 h7 m-442,0 h7 m92,0 h7 m30,0 h7 m36,0 h7 m71,0 h6 m41,0 h7 m44,0 h7
M426,13.5 h6 m56,0 h7 m8,0 h7 m-475,0 h4 m6,0 h7 m24,0 h7 m87,0 h7 m55,0 h7 m9,0 h6 m39,0 h2 m6,0 h7
M141,14.5 h4 m-123,0 h2 m192,0 h7 m172,0 h6 m-123,0 h4
M441,15.5 h7 m-31,0 h3 m-414,0 h7 m78,0 h7 m10,0 h5 m72,0 h7 m-35,0 h2 m188,0 h7 m8,0 h7
M496,16.5 h6 m-376,0 h7 m249,0 h7
M465,17.5 h7 m-431,0 h7 m161,0 h7 m81,0 h7
M402,18.5 h7 m48,0 h3 m51,0 h1 m-512,0 h5 m47,0 h5 m11,0 h2 m11,0 h7 m26,0 h7 m25,0 h7 m101,0 h7 m47,0 h7 m4,0 h7 m11,0 h7 m26,0 h4
M422,19.5 h7 m5,0 h7 m46,0 h7 m-482,0 h7 m147,0 h7 m5,0 h7 m46,0 h7 m30,0 h7 m10,0 h7
M137,20.5 h7 m299,0 h4 m28,0 h7 m-410,0 h7 m314,0 h7 m-213,0 h7 m25,0 h7 m102,0 h7
M412,21.5 h7 m-331,0 h7 m28,0 h7 m26,0 h7 m181,0 h4 m11,0 h7 m18,0 h2
M39,22.5 h7 m-25,0 h7 m267,0 h7 m-25,0 h7
M464,23.5 h7 m-469,0 h7 m199,0 h7 m43,0 h7
M482,24.5 h7 m-440,0 h7 m13,0 h7 m20,0 h2 m128,0 h7 m73,0 h6 m13,0 h7 m25,0 h2
M405,25.5 h7 m9,0 h7 m8,0 h7 m-384,0 h7 m51,0 h7 m9,0 h7 m9,0 h7 m9,0 h7 m8,0 h7 m9,0 h7 m112,0 h7 m67,0 h7
M490,26.5 h7 m-484,0 h7 m7,0 h7 m200,0 h7 m28,0 h7 m7,0 h7
M459,27.5 h7 m38,0 h7 m-433,0 h5 m24,0 h7 m89,0 h7 m38,0 h7 m77,0 h7 m24,0 h7
M397,28.5 h7 m25,0 h7 m-397,0 h7 m95,0 h7 m25,0 h7 m39,0 h7
M413,29.5 h7 m25,0 h7 m-449,0 h7 m77,0 h7 m63,0 h7 m25,0 h7 m63,0 h7 m77,0 h7 m31,0 h7
M99,30.5 h7 m390,0 h7 m-436,0 h3 m285,0 h7 m-122,0 h7 m76,0 h3
M465,31.5 h6 m-421,0 h5 m-39,0 h7 m186,0 h7 m91,0 h4 m-39,0 h4 m1,0 h2
M421,32.5 h7 m8,0 h7 m-333,0 h7 m16,0 h7 m40,0 h7 m179,0 h7 m16,0 h7
M486,33.5 h6 m-455,0 h7 m15,0 h7 m150,0 h6 m12,0 h3 m56,0 h3 m19,0 h7
M505,34.5 h7 m-506,0 h7 m67,0 h2 m11,0 h7 m149,0 h7 m6,0 h7 m15,0 h5 m45,0 h4 m11,0 h7
M398,35.5 h7 m43,0 h5 m-323,0 h3 m23,0 h6 m28,0 h7 m185,0 h7
M429,36.5 h7 m24,0 h7 m33,0 h2 m-487,0 h7 m63,0 h7 m24,0 h7 m50,0 h7 m24,0 h7 m28,0 h7 m25,0 h3 m67,0 h7 m24,0 h7
M56,37.5 h5 m46,0 h3 m200,0 h7 m42,0 h3
M475,38.5 h7 m-438,0 h3 m172,0 h3 m78,0 h7
M399,39.5 h7 m34,0 h4 m-24,0 h7 m28,0 h5 m43,0 h7 m-445,0 h7 m112,0 h7 m130,0 h7
M487,40.5 h4 m-481,0 h4 m21,0 h7 m36,0 h7 m146,0 h7 m25,0 h7 m13,0 h3 m5,0 h7 m36,0 h7
M410,41.5 h7 m-304,0 h7 m7,0 h7 m20,0 h7 m209,0 h6 m7,0 h7
M509,42.5 h3 m-512,0 h1 m460,0 h7 m9,0 h7 m-396,0 h7 m160,0 h5 m-54,0 h6 m9,0 h7 m116,0 h7
M435,43.5 h2 m-366,0 h7 m96,0 h7 m146,0 h7 m24,0 h3
M398,44.5 h7 m89,0 h7 m-487,0 h7 m33,0 h7 m81,0 h7 m42,0 h6 m41,0 h7 m25,0 h7
M470,45.5 h7 m-446,0 h7 m5,0 h7 m67,0 h7 m90,0 h7 m66,0 h7 m5,0 h7 m67,0 h7
M419,46.5 h6 m75,0 h7 m-413,0 h3 m-35,0 h7 m64,0 h7 m23,0 h7 m74,0 h7 m99,0 h7 m-37,0 h5"/>
</svg>
