<svg xmlns="http://www.w3.org/2000/svg" xmlns:xlink="http://www.w3.org/1999/xlink" width="512" height="512" viewBox="0 0 512 512">
  <defs>
    <path id="swamp1" fill="#6b8d5e" opacity=".4" d="m2,0-2 6v1h2v3h1v-3h2v-1l-2-6zm0.5 1 1.5 5h-3zm4.5 4h1v5h-1zm0.5-5a2.5 3 0 0 1 0 6v-1a1.5 2 0 0 0 0-4 1.5 2 0 1 0 0 4v1a2.5 3 0 1 1 0-6z"/>
    <path id="swamp2" fill="#6b8d5e" opacity=".4" d="m2,5h1v5h-1zm0.5-5a2.5 3 0 0 1 0 6v-1a1.5 2 0 0 0 0-4 1.5 2 0 1 0 0 4v1a2.5 3 0 1 1 0-6zm4.5 0-2 6v1h2v3h1v-3h2v-1l-2-6zm0.5 1 1.5 5h-3z"/>
  </defs>
  <use x="477" y="10" xlink:href="#swamp1"/>
  <use x="111" y="67" xlink:href="#swamp1"/>
  <use x="69" y="493" xlink:href="#swamp1"/>
  <use x="268" y="275" xlink:href="#swamp1"/>
  <use x="471" y="237" xlink:href="#swamp1"/>
  <use x="193" y="448" xlink:href="#swamp1"/>
  <use x="288" y="63" xlink:href="#swamp1"/>
  <use x="476" y="474" xlink:href="#swamp1"/>
  <use x="413" y="108" xlink:href="#swamp1"/>
  <use x="456" y="89" xlink:href="#swamp1"/>
  <use x="501" y="294" xlink:href="#swamp1"/>
  <use x="478" y="31" xlink:href="#swamp1"/>
  <use x="87" y="135" xlink:href="#swamp1"/>
  <use x="34" y="167" xlink:href="#swamp1"/>
  <use x="318" y="442" xlink:href="#swamp1"/>
  <use x="294" y="496" xlink:href="#swamp1"/>
  <use x="38" y="441" xlink:href="#swamp1"/>
  <use x="378" y="340" xlink:href="#swamp1"/>
  <use x="17" y="506" xlink:href="#swamp1"/>
  <use x="17" y="-6" xlink:href="#swamp1"/>
  <use x="457" y="194" xlink:href="#swamp1"/>
  <use x="194" y="220" xlink:href="#swamp1"/>
  <use x="290" y="236" xlink:href="#swamp1"/>
  <use x="137" y="34" xlink:href="#swamp1"/>
  <use x="263" y="316" xlink:href="#swamp1"/>
  <use x="82" y="190" xlink:href="#swamp1"/>
  <use x="159" y="58" xlink:href="#swamp1"/>
  <use x="86" y="91" xlink:href="#swamp1"/>
  <use x="392" y="375" xlink:href="#swamp1"/>
  <use x="220" y="361" xlink:href="#swamp1"/>
  <use x="496" y="377" xlink:href="#swamp1"/>
  <use x="432" y="394" xlink:href="#swamp1"/>
  <use x="349" y="474" xlink:href="#swamp1"/>
  <use x="362" y="276" xlink:href="#swamp1"/>
  <use x="190" y="370" xlink:href="#swamp1"/>
  <use x="344" y="422" xlink:href="#swamp1"/>
  <use x="504" y="57" xlink:href="#swamp1"/>
  <use x="-8" y="57" xlink:href="#swamp1"/>
  <use x="42" y="468" xlink:href="#swamp1"/>
  <use x="240" y="118" xlink:href="#swamp1"/>
  <use x="62" y="8" xlink:href="#swamp1"/>
  <use x="43" y="393" xlink:href="#swamp1"/>
  <use x="67" y="323" xlink:href="#swamp1"/>
  <use x="313" y="83" xlink:href="#swamp1"/>
  <use x="113" y="35" xlink:href="#swamp1"/>
  <use x="453" y="394" xlink:href="#swamp1"/>
  <use x="365" y="2" xlink:href="#swamp1"/>
  <use x="93" y="60" xlink:href="#swamp1"/>
  <use x="15" y="61" xlink:href="#swamp1"/>
  <use x="501" y="186" xlink:href="#swamp1"/>
  <use x="105" y="186" xlink:href="#swamp1"/>
  <use x="295" y="16" xlink:href="#swamp1"/>
  <use x="346" y="141" xlink:href="#swamp1"/>
  <use x="238" y="375" xlink:href="#swamp1"/>
  <use x="238" y="63" xlink:href="#swamp1"/>
  <use x="60" y="353" xlink:href="#swamp1"/>
  <use x="288" y="336" xlink:href="#swamp1"/>
  <use x="342" y="453" xlink:href="#swamp1"/>
  <use x="448" y="170" xlink:href="#swamp1"/>
  <use x="501" y="9" xlink:href="#swamp1"/>
  <use x="190" y="509" xlink:href="#swamp1"/>
  <use x="190" y="-3" xlink:href="#swamp1"/>
  <use x="110" y="401" xlink:href="#swamp1"/>
  <use x="220" y="340" xlink:href="#swamp1"/>
  <use x="64" y="114" xlink:href="#swamp1"/>
  <use x="441" y="62" xlink:href="#swamp1"/>
  <use x="346" y="160" xlink:href="#swamp1"/>
  <use x="506" y="470" xlink:href="#swamp1"/>
  <use x="-6" y="470" xlink:href="#swamp1"/>
  <use x="504" y="420" xlink:href="#swamp1"/>
  <use x="-8" y="420" xlink:href="#swamp1"/>
  <use x="17" y="114" xlink:href="#swamp1"/>
  <use x="373" y="461" xlink:href="#swamp1"/>
  <use x="39" y="40" xlink:href="#swamp1"/>
  <use x="230" y="427" xlink:href="#swamp1"/>
  <use x="86" y="423" xlink:href="#swamp1"/>
  <use x="37" y="291" xlink:href="#swamp1"/>
  <use x="346" y="327" xlink:href="#swamp1"/>
  <use x="496" y="273" xlink:href="#swamp1"/>
  <use x="242" y="9" xlink:href="#swamp1"/>
  <use x="371" y="293" xlink:href="#swamp1"/>
  <use x="353" y="372" xlink:href="#swamp1"/>
  <use x="4" y="322" xlink:href="#swamp1"/>
  <use x="243" y="159" xlink:href="#swamp1"/>
  <use x="373" y="367" xlink:href="#swamp1"/>
  <use x="59" y="298" xlink:href="#swamp1"/>
  <use x="32" y="142" xlink:href="#swamp1"/>
  <use x="241" y="86" xlink:href="#swamp1"/>
  <use x="218" y="241" xlink:href="#swamp1"/>
  <use x="483" y="213" xlink:href="#swamp1"/>
  <use x="433" y="34" xlink:href="#swamp1"/>
  <use x="156" y="429" xlink:href="#swamp1"/>
  <use x="38" y="83" xlink:href="#swamp1"/>
  <use x="418" y="479" xlink:href="#swamp1"/>
  <use x="396" y="509" xlink:href="#swamp1"/>
  <use x="396" y="-3" xlink:href="#swamp1"/>
  <use x="322" y="368" xlink:href="#swamp1"/>
  <use x="467" y="161" xlink:href="#swamp1"/>
  <use x="116" y="448" xlink:href="#swamp1"/>
  <use x="370" y="399" xlink:href="#swamp1"/>
  <use x="194" y="135" xlink:href="#swamp1"/>
  <use x="492" y="401" xlink:href="#swamp1"/>
  <use x="13" y="479" xlink:href="#swamp1"/>
  <use x="476" y="114" xlink:href="#swamp1"/>
  <use x="159" y="321" xlink:href="#swamp1"/>
  <use x="135" y="475" xlink:href="#swamp1"/>
  <use x="57" y="145" xlink:href="#swamp1"/>
  <use x="120" y="124" xlink:href="#swamp1"/>
  <use x="347" y="348" xlink:href="#swamp1"/>
  <use x="196" y="14" xlink:href="#swamp1"/>
  <use x="274" y="198" xlink:href="#swamp1"/>
  <use x="66" y="371" xlink:href="#swamp1"/>
  <use x="162" y="289" xlink:href="#swamp1"/>
  <use x="399" y="349" xlink:href="#swamp1"/>
  <use x="317" y="247" xlink:href="#swamp1"/>
  <use x="70" y="39" xlink:href="#swamp1"/>
  <use x="319" y="160" xlink:href="#swamp1"/>
  <use x="274" y="8" xlink:href="#swamp1"/>
  <use x="170" y="32" xlink:href="#swamp1"/>
  <use x="8" y="20" xlink:href="#swamp1"/>
  <use x="118" y="92" xlink:href="#swamp1"/>
  <use x="136" y="454" xlink:href="#swamp1"/>
  <use x="210" y="421" xlink:href="#swamp1"/>
  <use x="465" y="264" xlink:href="#swamp1"/>
  <use x="181" y="297" xlink:href="#swamp1"/>
  <use x="166" y="466" xlink:href="#swamp1"/>
  <use x="138" y="267" xlink:href="#swamp1"/>
  <use x="40" y="341" xlink:href="#swamp1"/>
  <use x="319" y="135" xlink:href="#swamp1"/>
  <use x="424" y="263" xlink:href="#swamp1"/>
  <use x="96" y="114" xlink:href="#swamp1"/>
  <use x="438" y="299" xlink:href="#swamp1"/>
  <use x="191" y="319" xlink:href="#swamp1"/>
  <use x="35" y="122" xlink:href="#swamp1"/>
  <use x="274" y="246" xlink:href="#swamp1"/>
  <use x="67" y="70" xlink:href="#swamp1"/>
  <use x="456" y="34" xlink:href="#swamp1"/>
  <use x="260" y="60" xlink:href="#swamp1"/>
  <use x="144" y="170" xlink:href="#swamp1"/>
  <use x="289" y="147" xlink:href="#swamp1"/>
  <use x="327" y="17" xlink:href="#swamp1"/>
  <use x="191" y="190" xlink:href="#swamp1"/>
  <use x="34" y="372" xlink:href="#swamp1"/>
  <use x="437" y="323" xlink:href="#swamp1"/>
  <use x="55" y="171" xlink:href="#swamp1"/>
  <use x="317" y="109" xlink:href="#swamp1"/>
  <use x="474" y="502" xlink:href="#swamp1"/>
  <use x="196" y="114" xlink:href="#swamp1"/>
  <use x="166" y="258" xlink:href="#swamp1"/>
  <use x="402" y="396" xlink:href="#swamp1"/>
  <use x="445" y="138" xlink:href="#swamp1"/>
  <use x="341" y="402" xlink:href="#swamp1"/>
  <use x="390" y="301" xlink:href="#swamp1"/>
  <use x="106" y="321" xlink:href="#swamp1"/>
  <use x="209" y="325" xlink:href="#swamp1"/>
  <use x="369" y="325" xlink:href="#swamp1"/>
  <use x="60" y="477" xlink:href="#swamp1"/>
  <use x="343" y="92" xlink:href="#swamp1"/>
  <use x="424" y="162" xlink:href="#swamp1"/>
  <use x="189" y="164" xlink:href="#swamp1"/>
  <use x="502" y="132" xlink:href="#swamp1"/>
  <use x="63" y="199" xlink:href="#swamp1"/>
  <use x="234" y="139" xlink:href="#swamp1"/>
  <use x="388" y="30" xlink:href="#swamp1"/>
  <use x="300" y="322" xlink:href="#swamp1"/>
  <use x="160" y="90" xlink:href="#swamp1"/>
  <use x="167" y="446" xlink:href="#swamp1"/>
  <use x="117" y="165" xlink:href="#swamp1"/>
  <use x="216" y="139" xlink:href="#swamp1"/>
  <use x="137" y="246" xlink:href="#swamp1"/>
  <use x="62" y="270" xlink:href="#swamp1"/>
  <use x="266" y="370" xlink:href="#swamp1"/>
  <use x="337" y="499" xlink:href="#swamp1"/>
  <use x="39" y="242" xlink:href="#swamp1"/>
  <use x="275" y="471" xlink:href="#swamp1"/>
  <use x="498" y="497" xlink:href="#swamp1"/>
  <use x="220" y="272" xlink:href="#swamp1"/>
  <use x="114" y="12" xlink:href="#swamp1"/>
  <use x="140" y="115" xlink:href="#swamp1"/>
  <use x="468" y="443" xlink:href="#swamp1"/>
  <use x="398" y="15" xlink:href="#swamp1"/>
  <use x="3" y="265" xlink:href="#swamp1"/>
  <use x="212" y="295" xlink:href="#swamp1"/>
  <use x="86" y="315" xlink:href="#swamp1"/>
  <use x="445" y="239" xlink:href="#swamp1"/>
  <use x="146" y="491" xlink:href="#swamp1"/>
  <use x="394" y="420" xlink:href="#swamp1"/>
  <use x="241" y="442" xlink:href="#swamp1"/>
  <use x="82" y="378" xlink:href="#swamp2"/>
  <use x="167" y="498" xlink:href="#swamp2"/>
  <use x="270" y="343" xlink:href="#swamp2"/>
  <use x="11" y="394" xlink:href="#swamp2"/>
  <use x="368" y="493" xlink:href="#swamp2"/>
  <use x="91" y="7" xlink:href="#swamp2"/>
  <use x="106" y="431" xlink:href="#swamp2"/>
  <use x="243" y="191" xlink:href="#swamp2"/>
  <use x="145" y="9" xlink:href="#swamp2"/>
  <use x="318" y="65" xlink:href="#swamp2"/>
  <use x="136" y="191" xlink:href="#swamp2"/>
  <use x="214" y="64" xlink:href="#swamp2"/>
  <use x="425" y="81" xlink:href="#swamp2"/>
  <use x="410" y="52" xlink:href="#swamp2"/>
  <use x="297" y="164" xlink:href="#swamp2"/>
  <use x="497" y="451" xlink:href="#swamp2"/>
  <use x="269" y="448" xlink:href="#swamp2"/>
  <use x="267" y="502" xlink:href="#swamp2"/>
  <use x="345" y="262" xlink:href="#swamp2"/>
  <use x="403" y="451" xlink:href="#swamp2"/>
  <use x="291" y="411" xlink:href="#swamp2"/>
  <use x="85" y="455" xlink:href="#swamp2"/>
  <use x="167" y="238" xlink:href="#swamp2"/>
  <use x="393" y="270" xlink:href="#swamp2"/>
  <use x="212" y="162" xlink:href="#swamp2"/>
  <use x="320" y="292" xlink:href="#swamp2"/>
  <use x="188" y="45" xlink:href="#swamp2"/>
  <use x="349" y="15" xlink:href="#swamp2"/>
  <use x="392" y="113" xlink:href="#swamp2"/>
  <use x="343" y="45" xlink:href="#swamp2"/>
  <use x="143" y="146" xlink:href="#swamp2"/>
  <use x="164" y="16" xlink:href="#swamp2"/>
  <use x="473" y="344" xlink:href="#swamp2"/>
  <use x="403" y="170" xlink:href="#swamp2"/>
  <use x="472" y="62" xlink:href="#swamp2"/>
  <use x="290" y="368" xlink:href="#swamp2"/>
  <use x="376" y="152" xlink:href="#swamp2"/>
  <use x="85" y="241" xlink:href="#swamp2"/>
  <use x="419" y="21" xlink:href="#swamp2"/>
  <use x="497" y="113" xlink:href="#swamp2"/>
  <use x="297" y="464" xlink:href="#swamp2"/>
  <use x="317" y="318" xlink:href="#swamp2"/>
  <use x="182" y="66" xlink:href="#swamp2"/>
  <use x="298" y="219" xlink:href="#swamp2"/>
  <use x="419" y="423" xlink:href="#swamp2"/>
  <use x="61" y="402" xlink:href="#swamp2"/>
  <use x="444" y="271" xlink:href="#swamp2"/>
  <use x="47" y="61" xlink:href="#swamp2"/>
  <use x="371" y="61" xlink:href="#swamp2"/>
  <use x="17" y="448" xlink:href="#swamp2"/>
  <use x="330" y="275" xlink:href="#swamp2"/>
  <use x="345" y="303" xlink:href="#swamp2"/>
  <use x="469" y="291" xlink:href="#swamp2"/>
  <use x="193" y="480" xlink:href="#swamp2"/>
  <use x="510" y="89" xlink:href="#swamp2"/>
  <use x="-2" y="89" xlink:href="#swamp2"/>
  <use x="424" y="130" xlink:href="#swamp2"/>
  <use x="85" y="161" xlink:href="#swamp2"/>
  <use x="367" y="93" xlink:href="#swamp2"/>
  <use x="8" y="171" xlink:href="#swamp2"/>
  <use x="235" y="401" xlink:href="#swamp2"/>
  <use x="426" y="192" xlink:href="#swamp2"/>
  <use x="314" y="45" xlink:href="#swamp2"/>
  <use x="394" y="238" xlink:href="#swamp2"/>
  <use x="134" y="422" xlink:href="#swamp2"/>
  <use x="189" y="273" xlink:href="#swamp2"/>
  <use x="62" y="220" xlink:href="#swamp2"/>
  <use x="217" y="107" xlink:href="#swamp2"/>
  <use x="22" y="92" xlink:href="#swamp2"/>
  <use x="215" y="40" xlink:href="#swamp2"/>
  <use x="388" y="218" xlink:href="#swamp2"/>
  <use x="337" y="213" xlink:href="#swamp2"/>
  <use x="55" y="423" xlink:href="#swamp2"/>
  <use x="10" y="146" xlink:href="#swamp2"/>
  <use x="34" y="266" xlink:href="#swamp2"/>
  <use x="489" y="316" xlink:href="#swamp2"/>
  <use x="496" y="40" xlink:href="#swamp2"/>
  <use x="467" y="312" xlink:href="#swamp2"/>
  <use x="10" y="366" xlink:href="#swamp2"/>
  <use x="391" y="62" xlink:href="#swamp2"/>
  <use x="139" y="223" xlink:href="#swamp2"/>
  <use x="92" y="471" xlink:href="#swamp2"/>
  <use x="424" y="352" xlink:href="#swamp2"/>
  <use x="496" y="347" xlink:href="#swamp2"/>
  <use x="363" y="426" xlink:href="#swamp2"/>
  <use x="316" y="350" xlink:href="#swamp2"/>
  <use x="16" y="346" xlink:href="#swamp2"/>
  <use x="109" y="293" xlink:href="#swamp2"/>
  <use x="211" y="391" xlink:href="#swamp2"/>
  <use x="221" y="182" xlink:href="#swamp2"/>
  <use x="134" y="60" xlink:href="#swamp2"/>
  <use x="120" y="349" xlink:href="#swamp2"/>
  <use x="270" y="36" xlink:href="#swamp2"/>
  <use x="133" y="378" xlink:href="#swamp2"/>
  <use x="35" y="320" xlink:href="#swamp2"/>
  <use x="240" y="217" xlink:href="#swamp2"/>
  <use x="314" y="192" xlink:href="#swamp2"/>
  <use x="364" y="195" xlink:href="#swamp2"/>
  <use x="248" y="344" xlink:href="#swamp2"/>
  <use x="402" y="138" xlink:href="#swamp2"/>
  <use x="265" y="392" xlink:href="#swamp2"/>
  <use x="266" y="216" xlink:href="#swamp2"/>
  <use x="165" y="171" xlink:href="#swamp2"/>
  <use x="452" y="368" xlink:href="#swamp2"/>
  <use x="317" y="474" xlink:href="#swamp2"/>
  <use x="238" y="314" xlink:href="#swamp2"/>
  <use x="266" y="136" xlink:href="#swamp2"/>
  <use x="260" y="417" xlink:href="#swamp2"/>
  <use x="373" y="246" xlink:href="#swamp2"/>
  <use x="422" y="371" xlink:href="#swamp2"/>
  <use x="185" y="96" xlink:href="#swamp2"/>
  <use x="93" y="266" xlink:href="#swamp2"/>
  <use x="88" y="347" xlink:href="#swamp2"/>
  <use x="14" y="241" xlink:href="#swamp2"/>
  <use x="119" y="502" xlink:href="#swamp2"/>
  <use x="211" y="453" xlink:href="#swamp2"/>
  <use x="142" y="400" xlink:href="#swamp2"/>
  <use x="87" y="500" xlink:href="#swamp2"/>
  <use x="86" y="29" xlink:href="#swamp2"/>
  <use x="1" y="202" xlink:href="#swamp2"/>
  <use x="170" y="214" xlink:href="#swamp2"/>
  <use x="490" y="244" xlink:href="#swamp2"/>
  <use x="8" y="428" xlink:href="#swamp2"/>
  <use x="290" y="188" xlink:href="#swamp2"/>
  <use x="342" y="182" xlink:href="#swamp2"/>
  <use x="396" y="81" xlink:href="#swamp2"/>
  <use x="24" y="414" xlink:href="#swamp2"/>
  <use x="297" y="388" xlink:href="#swamp2"/>
  <use x="260" y="111" xlink:href="#swamp2"/>
  <use x="41" y="223" xlink:href="#swamp2"/>
  <use x="396" y="199" xlink:href="#swamp2"/>
  <use x="247" y="241" xlink:href="#swamp2"/>
  <use x="477" y="373" xlink:href="#swamp2"/>
  <use x="485" y="83" xlink:href="#swamp2"/>
  <use x="245" y="259" xlink:href="#swamp2"/>
  <use x="221" y="11" xlink:href="#swamp2"/>
  <use x="326" y="389" xlink:href="#swamp2"/>
  <use x="164" y="144" xlink:href="#swamp2"/>
  <use x="288" y="95" xlink:href="#swamp2"/>
  <use x="414" y="246" xlink:href="#swamp2"/>
  <use x="129" y="318" xlink:href="#swamp2"/>
  <use x="421" y="447" xlink:href="#swamp2"/>
  <use x="93" y="216" xlink:href="#swamp2"/>
  <use x="345" y="116" xlink:href="#swamp2"/>
  <use x="400" y="317" xlink:href="#swamp2"/>
  <use x="449" y="339" xlink:href="#swamp2"/>
  <use x="479" y="185" xlink:href="#swamp2"/>
  <use x="197" y="249" xlink:href="#swamp2"/>
  <use x="161" y="374" xlink:href="#swamp2"/>
  <use x="113" y="241" xlink:href="#swamp2"/>
  <use x="368" y="215" xlink:href="#swamp2"/>
  <use x="445" y="106" xlink:href="#swamp2"/>
  <use x="54" y="96" xlink:href="#swamp2"/>
  <use x="18" y="212" xlink:href="#swamp2"/>
  <use x="31" y="192" xlink:href="#swamp2"/>
  <use x="276" y="305" xlink:href="#swamp2"/>
  <use x="68" y="449" xlink:href="#swamp2"/>
  <use x="452" y="453" xlink:href="#swamp2"/>
  <use x="224" y="472" xlink:href="#swamp2"/>
  <use x="419" y="290" xlink:href="#swamp2"/>
  <use x="245" y="31" xlink:href="#swamp2"/>
  <use x="160" y="198" xlink:href="#swamp2"/>
  <use x="446" y="4" xlink:href="#swamp2"/>
  <use x="250" y="491" xlink:href="#swamp2"/>
  <use x="216" y="209" xlink:href="#swamp2"/>
  <use x="163" y="398" xlink:href="#swamp2"/>
  <use x="270" y="90" xlink:href="#swamp2"/>
  <use x="15" y="36" xlink:href="#swamp2"/>
  <use x="420" y="220" xlink:href="#swamp2"/>
  <use x="64" y="252" xlink:href="#swamp2"/>
  <use x="343" y="72" xlink:href="#swamp2"/>
  <use x="109" y="477" xlink:href="#swamp2"/>
  <use x="244" y="291" xlink:href="#swamp2"/>
  <use x="287" y="435" xlink:href="#swamp2"/>
  <use x="86" y="292" xlink:href="#swamp2"/>
  <use x="372" y="443" xlink:href="#swamp2"/>
  <use x="320" y="223" xlink:href="#swamp2"/>
  <use x="141" y="295" xlink:href="#swamp2"/>
  <use x="451" y="212" xlink:href="#swamp2"/>
  <use x="417" y="322" xlink:href="#swamp2"/>
  <use x="118" y="214" xlink:href="#swamp2"/>
  <use x="243" y="466" xlink:href="#swamp2"/>
  <use x="393" y="481" xlink:href="#swamp2"/>
  <use x="348" y="239" xlink:href="#swamp2"/>
  <use x="299" y="267" xlink:href="#swamp2"/>
  <use x="219" y="499" xlink:href="#swamp2"/>
  <use x="171" y="344" xlink:href="#swamp2"/>
  <use x="265" y="168" xlink:href="#swamp2"/>
  <use x="292" y="118" xlink:href="#swamp2"/>
  <use x="300" y="33" xlink:href="#swamp2"/>
  <use x="317" y="505" xlink:href="#swamp2"/>
  <use x="317" y="-7" xlink:href="#swamp2"/>
  <use x="38" y="499" xlink:href="#swamp2"/>
  <use x="295" y="291" xlink:href="#swamp2"/>
  <use x="186" y="420" xlink:href="#swamp2"/>
  <use x="444" y="469" xlink:href="#swamp2"/>
  <use x="165" y="121" xlink:href="#swamp2"/>
  <use x="475" y="428" xlink:href="#swamp2"/>
  <use x="112" y="143" xlink:href="#swamp2"/>
  <use x="418" y="502" xlink:href="#swamp2"/>
  <use x="139" y="83" xlink:href="#swamp2"/>
  <use x="186" y="399" xlink:href="#swamp2"/>
  <use x="492" y="156" xlink:href="#swamp2"/>
  <use x="111" y="369" xlink:href="#swamp2"/>
  <use x="369" y="34" xlink:href="#swamp2"/>
  <use x="209" y="83" xlink:href="#swamp2"/>
  <use x="118" y="272" xlink:href="#swamp2"/>
  <use x="312" y="416" xlink:href="#swamp2"/>
  <use x="448" y="491" xlink:href="#swamp2"/>
  <use x="468" y="404" xlink:href="#swamp2"/>
  <use x="17" y="293" xlink:href="#swamp2"/>
  <use x="374" y="124" xlink:href="#swamp2"/>
  <use x="470" y="132" xlink:href="#swamp2"/>
  <use x="443" y="424" xlink:href="#swamp2"/>
  <use x="40" y="16" xlink:href="#swamp2"/>
  <use x="142" y="348" xlink:href="#swamp2"/>
  <use x="373" y="176" xlink:href="#swamp2"/>
  <use x="190" y="351" xlink:href="#swamp2"/>
  <use x="507" y="234" xlink:href="#swamp2"/>
  <use x="-5" y="234" xlink:href="#swamp2"/>
  <use x="92" y="395" xlink:href="#swamp2"/>
  <path stroke="#4aa5fa" stroke-width=".8" d="
M66,0.5 h7 m-62,0 h5 m27,0 h7 m39,0 h7 m231,0 h2 m50,0 h7 m-87,0 h7 m39,0 h7
M137,1.5 h7 m58,0 h6 m14,0 h7 m228,0 h7 m19,0 h2
M240,2.5 h7 m198,0 h2 m49,0 h7
M27,3.5 h4 m5,0 h7 m72,0 h7 m158,0 h7 m5,0 h7 m77,0 h2
M63,4.5 h7 m11,0 h7 m70,0 h7 m5,0 h7 m38,0 h7 m115,0 h7 m70,0 h7 m5,0 h7 m38,0 h7
M8,5.5 h7 m33,0 h7 m45,0 h3 m45,0 h7 m77,0 h7 m8,0 h7 m10,0 h7 m33,0 h7 m41,0 h7 m48,0 h4 m77,0 h7 m8,0 h7
M179,6.5 h7 m14,0 h4 m-97,0 h7 m321,0 h7 m16,0 h2
M16,7.5 h7 m115,0 h7 m249,0 h2
M56,8.5 h5 m65,0 h7 m74,0 h7 m98,0 h7 m63,0 h7 m74,0 h7
M-1,9.5 h6 m249,0 h7 m-181,0 h7 m101,0 h7 m35,0 h3 m117,0 h7 m154,0 h1 m-512,0 h5 m318,0 h7 m6,0 h7 m144,0 h2
M36,10.5 h7 m-16,0 h7 m79,0 h2 m42,0 h5 m130,0 h7 m-14,0 h5 m121,0 h7
M142,11.5 h2 m25,0 h7 m38,0 h7 m177,0 h7 m20,0 h7 m38,0 h5
M16,12.5 h7 m25,0 h7 m249,0 h7
M4,13.5 h7 m63,0 h6 m25,0 h7 m66,0 h7 m75,0 h7 m62,0 h7 m8,0 h6 m11,0 h5 m68,0 h7
M58,14.5 h3 m64,0 h6 m4,0 h7 m18,0 h5 m41,0 h6 m25,0 h4 m73,0 h7 m59,0 h7 m4,0 h6 m19,0 h7 m38,0 h7 m25,0 h7
M38,15.5 h2 m151,0 h3
M26,16.5 h7 m252,0 h4
M183,17.5 h7 m182,0 h7 m60,0 h7
M252,18.5 h5 m-258,0 h2 m4,0 h4 m8,0 h5 m59,0 h7 m70,0 h5 m52,0 h4 m12,0 h6 m274,0 h1 m-512,0 h1 m260,0 h7 m3,0 h3 m43,0 h7 m14,0 h6 m70,0 h7 m5,0 h7 m21,0 h7 m10,0 h6 m11,0 h5
M105,19.5 h7 m16,0 h7 m226,0 h7 m16,0 h7
M73,20.5 h7
M33,21.5 h5 m101,0 h7 m143,0 h5 m101,0 h2
M51,22.5 h7 m39,0 h7 m8,0 h2 m61,0 h5 m9,0 h7 m11,0 h5 m25,0 h7 m63,0 h7 m54,0 h7 m56,0 h5 m9,0 h7 m9,0 h7 m25,0 h7
M24,23.5 h7 m33,0 h7 m78,0 h7 m65,0 h7 m-231,0 h7 m249,0 h7 m20,0 h7 m33,0 h6 m83,0 h3 m65,0 h7 m25,0 h3 m-512,0 h4
M121,24.5 h7 m31,0 h4 m107,0 h7 m100,0 h7 m31,0 h3
M89,25.5 h7 m116,0 h7 m25,0 h7 m94,0 h4 m119,0 h7 m25,0 h7
M34,26.5 h6 m14,0 h7 m13,0 h7 m101,0 h7 m101,0 h5 m15,0 h7 m121,0 h7
M5,27.5 h3 m131,0 h7 m27,0 h2 m56,0 h7 m23,0 h7 m127,0 h7 m85,0 h7
M42,28.5 h7 m55,0 h7 m17,0 h7 m65,0 h7 m91,0 h7 m55,0 h7 m17,0 h5 m67,0 h7
M82,29.5 h4 m28,0 h7 m69,0 h7 m57,0 h4 m-263,0 h7 m336,0 h7 m25,0 h7 m69,0 h7 m54,0 h5 m-512,0 h2
M25,30.5 h7 m33,0 h7 m26,0 h4 m58,0 h7 m55,0 h7 m52,0 h7 m33,0 h7 m23,0 h7 m58,0 h3
M54,31.5 h7 m84,0 h7 m28,0 h4 m26,0 h7 m23,0 h5 m21,0 h7 m37,0 h7 m84,0 h7 m25,0 h7 m26,0 h7 m23,0 h7
M42,32.5 h7 m25,0 h7 m217,0 h2 m30,0 h7
M123,33.5 h7 m4,0 h2 m244,0 h6
M31,34.5 h7 m116,0 h7 m24,0 h7 m9,0 h7 m49,0 h2 m-263,0 h7 m284,0 h7 m116,0 h7 m26,0 h5 m60,0 h4 m-512,0 h3
M59,35.5 h7 m32,0 h7 m112,0 h7 m8,0 h7 m76,0 h7 m32,0 h7 m64,0 h6 m42,0 h3 m14,0 h5
M342,36.5 h7
M9,37.5 h5 m27,0 h7 m100,0 h3 m114,0 h4 m60,0 h7 m64,0 h7
M27,38.5 h7 m72,0 h5 m18,0 h6 m26,0 h7 m25,0 h7 m8,0 h7 m25,0 h3 m40,0 h7 m72,0 h5 m18,0 h3 m29,0 h7 m25,0 h5 m14,0 h3
M255,39.5 h4 m-263,0 h7 m179,0 h4 m40,0 h2 m280,0 h4 m-512,0 h3
M61,40.5 h7 m249,0 h7
M51,41.5 h7 m39,0 h7 m206,0 h4 m39,0 h7 m37,0 h4
M4,42.5 h7 m73,0 h7 m63,0 h7 m36,0 h7 m38,0 h4 m14,0 h7 m30,0 h3 m30,0 h7 m3,0 h7 m63,0 h7 m9,0 h7 m20,0 h3
M127,43.5 h7 m77,0 h3 m14,0 h7 m148,0 h7 m77,0 h7 m10,0 h7
M25,44.5 h6 m155,0 h2 m92,0 h7 m156,0 h6
M11,45.5 h4 m21,0 h2 m29,0 h2 m22,0 h7 m8,0 h7 m33,0 h7 m114,0 h3 m22,0 h7 m26,0 h5 m32,0 h7 m33,0 h7
M53,46.5 h7 m100,0 h7 m9,0 h7 m54,0 h7 m65,0 h4 m103,0 h7 m9,0 h7 m37,0 h7
M-1,47.5 h7 m249,0 h7 m-132,0 h7 m69,0 h7 m298,0 h1 m-512,0 h6 m380,0 h7 m69,0 h7
M115,48.5 h7 m249,0 h7 m72,0 h7
M62,49.5 h7 m29,0 h7 m37,0 h7 m17,0 h7 m182,0 h6 m37,0 h7 m17,0 h7
M22,50.5 h7 m55,0 h7 m92,0 h3 m59,0 h7 m26,0 h7 m9,0 h7 m138,0 h7 m25,0 h7 m28,0 h2
M9,51.5 h7 m58,0 h7 m38,0 h7 m139,0 h7 m58,0 h7 m38,0 h7
M50,52.5 h7 m49,0 h7 m121,0 h7 m65,0 h6 m50,0 h7 m121,0 h7
M133,53.5 h7 m9,0 h7 m5,0 h7 m7,0 h7 m42,0 h7 m158,0 h7 m9,0 h4 m13,0 h2 m7,0 h7 m10,0 h7 m25,0 h7
M61,54.5 h7 m25,0 h7 m108,0 h7 m-215,0 h7 m346,0 h3 m108,0 h7 m-215,0 h7
M18,55.5 h7 m7,0 h7 m204,0 h7 m-206,0 h7 m223,0 h7 m7,0 h7 m204,0 h6 m-205,0 h7
M76,56.5 h7 m38,0 h7 m11,0 h7 m186,0 h7 m38,0 h7 m11,0 h7
M169,57.5 h6 m9,0 h7 m9,0 h7 m217,0 h7 m9,0 h7 m9,0 h7
M106,58.5 h7 m-104,0 h7 m7,0 h7 m23,0 h7 m29,0 h5 m57,0 h7 m73,0 h7 m124,0 h7 m-100,0 h3 m7,0 h7 m23,0 h7 m29,0 h7 m135,0 h7
M252,59.5 h7 m-192,0 h7 m145,0 h7 m97,0 h7 m145,0 h7
M239,60.5 h7 m249,0 h7
M35,61.5 h7 m38,0 h7 m33,0 h7 m3,0 h3 m43,0 h7 m9,0 h7 m8,0 h7 m122,0 h7 m9,0 h7 m27,0 h5 m29,0 h3 m9,0 h7 m12,0 h4 m8,0 h7
M302,62.5 h7
M110,63.5 h7 m29,0 h2 m77,0 h6 m-172,0 h6 m206,0 h6 m89,0 h4 m114,0 h3 m-173,0 h5
M250,64.5 h7 m-231,0 h7 m249,0 h4 m183,0 h2
M67,65.5 h7 m6,0 h7 m18,0 h2 m64,0 h5 m160,0 h7 m13,0 h7 m62,0 h7
M6,66.5 h7 m25,0 h7 m103,0 h7 m144,0 h2 m103,0 h7 m83,0 h7
M121,67.5 h4 m5,0 h2 m63,0 h7 m105,0 h7 m72,0 h3 m27,0 h7 m30,0 h5
M206,68.5 h6 m14,0 h5 m231,0 h7 m14,0 h4
M84,69.5 h7 m-94,0 h7 m249,0 h7 m14,0 h7 m59,0 h7 m162,0 h3 m-512,0 h4
M29,70.5 h7 m108,0 h2 m139,0 h3 m41,0 h4 m20,0 h7 m7,0 h4 m66,0 h4
M153,71.5 h7 m8,0 h7 m234,0 h7 m77,0 h7 m-76,0 h7
M196,72.5 h7 m-194,0 h7 m25,0 h7 m10,0 h7 m163,0 h7 m217,0 h7 m-194,0 h7 m26,0 h6 m10,0 h2 m153,0 h3 m12,0 h7
M248,73.5 h5 m249,0 h7
M79,74.5 h7 m16,0 h7 m14,0 h7 m3,0 h7 m195,0 h7 m16,0 h7 m14,0 h7 m3,0 h7
M17,75.5 h7 m10,0 h7 m49,0 h7 m47,0 h7 m9,0 h7 m10,0 h5 m24,0 h7 m60,0 h7 m10,0 h7 m103,0 h7 m9,0 h7 m10,0 h7 m22,0 h7
M47,76.5 h7 m138,0 h3 m-197,0 h7 m249,0 h7 m42,0 h7 m17,0 h4 m38,0 h7 m68,0 h7 m59,0 h2 m-512,0 h5
M58,77.5 h7 m249,0 h7
M26,78.5 h7 m182,0 h7 m6,0 h7 m47,0 h7 m182,0 h7 m6,0 h7
M11,79.5 h7 m86,0 h7 m42,0 h7 m-83,0 h6 m86,0 h7 m65,0 h7 m19,0 h7 m86,0 h7 m42,0 h7 m-84,0 h7 m158,0 h7
M120,80.5 h7 m74,0 h7 m168,0 h7 m74,0 h7
M2,81.5 h7 m40,0 h7 m33,0 h7 m35,0 h7 m10,0 h3 m38,0 h7 m62,0 h7 m40,0 h7 m75,0 h7 m51,0 h7
M17,82.5 h7 m10,0 h3 m27,0 h7 m150,0 h7 m45,0 h7 m10,0 h7 m26,0 h4 m150,0 h7
M159,83.5 h7 m10,0 h7 m62,0 h7 m163,0 h7 m15,0 h2 m62,0 h7
M75,84.5 h7 m16,0 h7 m6,0 h7 m113,0 h7 m93,0 h7 m16,0 h7 m6,0 h7
M26,85.5 h7 m165,0 h7 m77,0 h7 m10,0 h7 m148,0 h7 m9,0 h7
M251,86.5 h7 m-263,0 h7 m56,0 h7 m57,0 h7 m35,0 h7 m336,0 h5 m-512,0 h2 m376,0 h7 m35,0 h3
M90,87.5 h7 m92,0 h7 m-189,0 h5 m334,0 h7 m92,0 h7 m-191,0 h7
M204,88.5 h3 m-126,0 h7 m42,0 h7 m38,0 h7 m155,0 h7 m42,0 h7 m42,0 h3
M20,89.5 h7 m7,0 h3 m29,0 h7 m40,0 h7 m114,0 h5 m42,0 h2 m7,0 h7 m28,0 h4 m40,0 h7
M97,90.5 h7 m249,0 h7 m109,0 h7
M10,91.5 h6 m40,0 h7 m161,0 h7 m22,0 h2 m10,0 h4 m147,0 h7 m57,0 h4 m20,0 h5
M106,92.5 h7 m38,0 h7 m26,0 h7 m106,0 h7 m58,0 h5 m40,0 h7 m26,0 h7
M72,93.5 h7 m58,0 h2 m32,0 h6 m25,0 h7 m119,0 h7 m43,0 h6 m9,0 h7 m26,0 h7 m64,0 h7
M284,94.5 h4
M49,95.5 h5 m142,0 h3 m-183,0 h5 m284,0 h7 m136,0 h7 m-197,0 h7
M212,96.5 h7 m-154,0 h4 m164,0 h7 m228,0 h7 m-157,0 h7 m164,0 h7
M79,97.5 h6 m13,0 h5 m7,0 h7 m31,0 h7 m25,0 h4 m151,0 h7 m13,0 h4 m45,0 h7 m25,0 h7
M41,98.5 h7 m123,0 h4 m50,0 h7 m68,0 h4 m120,0 h7 m50,0 h7
M32,99.5 h6 m98,0 h7 m60,0 h7 m168,0 h6 m8,0 h7
M13,100.5 h7 m51,0 h7 m80,0 h2 m80,0 h7 m-250,0 h2 m254,0 h7 m67,0 h7 m80,0 h7 m25,0 h7 m43,0 h7 m6,0 h2
M105,101.5 h7 m249,0 h5
M45,102.5 h7 m76,0 h7 m10,0 h7 m70,0 h7 m72,0 h7 m76,0 h7 m10,0 h7 m70,0 h7
M21,103.5 h2 m41,0 h2 m112,0 h5 m94,0 h7 m31,0 h7 m112,0 h7
M214,104.5 h7 m-217,0 h7 m154,0 h7 m24,0 h7 m31,0 h7 m5,0 h7 m217,0 h7 m-217,0 h7 m154,0 h7 m26,0 h5 m31,0 h7 m5,0 h7
M71,105.5 h7 m13,0 h7 m229,0 h7 m13,0 h7
M31,106.5 h7 m66,0 h7 m8,0 h7 m25,0 h7 m49,0 h7 m73,0 h2 m71,0 h7 m8,0 h7 m25,0 h7 m49,0 h7
M13,107.5 h7 m21,0 h7 m84,0 h7 m45,0 h2 m83,0 h7 m21,0 h7 m84,0 h7 m45,0 h4
M51,108.5 h7 m4,0 h7 m10,0 h7 m143,0 h5 m73,0 h7 m21,0 h7 m141,0 h7
M2,109.5 h7 m13,0 h7 m217,0 h7 m5,0 h3 m17,0 h7 m217,0 h7
M89,110.5 h7 m20,0 h7 m14,0 h7 m11,0 h7 m6,0 h7 m20,0 h7 m143,0 h7 m20,0 h7 m14,0 h7 m24,0 h7 m40,0 h7
M179,111.5 h7 m-85,0 h7 m327,0 h7 m-85,0 h7
M236,112.5 h7 m249,0 h5
M74,113.5 h2 m-63,0 h3 m15,0 h7 m7,0 h7 m76,0 h7 m14,0 h5 m52,0 h5 m118,0 h3 m-60,0 h4 m11,0 h7 m7,0 h7 m76,0 h7 m12,0 h7 m50,0 h7
M0,114.5 h7 m74,0 h7 m71,0 h7 m22,0 h7 m61,0 h3 m78,0 h7
M107,115.5 h5 m63,0 h7 m179,0 h7 m63,0 h7
M53,116.5 h7 m60,0 h7 m150,0 h7 m25,0 h7 m60,0 h7
M89,117.5 h5 m133,0 h6 m17,0 h3 m234,0 h2
M10,118.5 h5 m27,0 h7 m27,0 h5 m30,0 h7 m46,0 h7 m37,0 h6 m21,0 h4 m31,0 h3 m30,0 h2 m25,0 h7 m30,0 h7 m49,0 h4 m23,0 h7 m6,0 h7 m21,0 h4
M403,119.5 h6 m-52,0 h4
M30,120.5 h6 m94,0 h7 m81,0 h7 m61,0 h5 m95,0 h4
M50,121.5 h7 m119,0 h7 m91,0 h7 m25,0 h7 m119,0 h7
M2,122.5 h7 m149,0 h6 m23,0 h7 m13,0 h2 m49,0 h3 m153,0 h7 m22,0 h7 m8,0 h7
M79,123.5 h7 m235,0 h7 m7,0 h7 m165,0 h2
M90,124.5 h6 m13,0 h7 m118,0 h5 m126,0 h7 m29,0 h2 m87,0 h7
M153,125.5 h7 m59,0 h7 m183,0 h7 m10,0 h7 m42,0 h2
M10,126.5 h7 m37,0 h7 m38,0 h7 m160,0 h7 m37,0 h7 m38,0 h7
M71,127.5 h7 m55,0 h7 m66,0 h7 m-191,0 h7 m298,0 h7 m55,0 h7 m66,0 h7 m-191,0 h7
M192,128.5 h7 m51,0 h2 m-250,0 h7 m171,0 h7 m40,0 h7 m214,0 h7 m46,0 h7 m-250,0 h7 m171,0 h7 m40,0 h7
M106,129.5 h7 m100,0 h7 m142,0 h7 m100,0 h7
M30,130.5 h5 m27,0 h7 m7,0 h7 m8,0 h7 m40,0 h7 m7,0 h7 m127,0 h7 m25,0 h7 m7,0 h7 m8,0 h7 m40,0 h7 m7,0 h7
M48,131.5 h7 m144,0 h7 m98,0 h7 m144,0 h7
M11,132.5 h7 m99,0 h3 m117,0 h7 m23,0 h7 m219,0 h7
M22,133.5 h7 m148,0 h7 m68,0 h7 m-258,0 h2 m275,0 h7 m151,0 h4 m-439,0 h2
M84,134.5 h2 m13,0 h7 m56,0 h7 m43,0 h7 m8,0 h7 m106,0 h7 m8,0 h7 m56,0 h4 m61,0 h7
M43,135.5 h7 m9,0 h7 m78,0 h7 m-21,0 h7 m162,0 h7 m9,0 h3 m82,0 h7 m45,0 h7 m-73,0 h7
M116,136.5 h7 m62,0 h7 m180,0 h7 m62,0 h5
M14,137.5 h7 m10,0 h7 m37,0 h7 m73,0 h7 m89,0 h7 m29,0 h7 m37,0 h7 m75,0 h5
M63,138.5 h7 m36,0 h7 m60,0 h7 m25,0 h5 m136,0 h7 m9,0 h7 m65,0 h2 m23,0 h7 m25,0 h7
M128,139.5 h7 m91,0 h4 m154,0 h7 m89,0 h6
M41,140.5 h5 m249,0 h7
M0,141.5 h6 m249,0 h7 m-251,0 h7 m8,0 h5 m51,0 h4 m60,0 h7 m7,0 h7 m45,0 h2 m31,0 h4 m263,0 h0 m-512,0 h6 m276,0 h7 m49,0 h7 m71,0 h7 m45,0 h2 m28,0 h4
M46,142.5 h7 m131,0 h7 m111,0 h7 m61,0 h7 m63,0 h3
M66,143.5 h2 m30,0 h4 m73,0 h3 m-104,0 h7 m57,0 h7 m172,0 h2 m108,0 h7 m-104,0 h7 m57,0 h6
M204,144.5 h7 m-84,0 h7 m326,0 h7 m-84,0 h7 m88,0 h7
M106,145.5 h5 m-61,0 h6 m134,0 h4 m168,0 h7 m-63,0 h7 m181,0 h7
M-1,146.5 h7 m249,0 h7 m249,0 h1 m-512,0 h6
M23,147.5 h7 m14,0 h2 m109,0 h2 m21,0 h7 m94,0 h7 m13,0 h3 m118,0 h7 m7,0 h7
M68,148.5 h7 m9,0 h7 m7,0 h7 m107,0 h4 m11,0 h7 m90,0 h7 m9,0 h6 m12,0 h3 m11,0 h7 m89,0 h7 m8,0 h7
M129,149.5 h7 m61,0 h7 m41,0 h7 m58,0 h7 m68,0 h7 m5,0 h6 m51,0 h6 m41,0 h7
M264,150.5 h7
M77,151.5 h7 m23,0 h4 m49,0 h2 m25,0 h7 m139,0 h7 m23,0 h7 m46,0 h7 m20,0 h7
M219,152.5 h7 m-52,0 h6 m25,0 h7 m24,0 h7 m232,0 h7 m-165,0 h7 m105,0 h7 m25,0 h7 m24,0 h7
M250,153.5 h7 m-263,0 h7 m121,0 h6 m25,0 h5 m348,0 h6 m-512,0 h1 m406,0 h7
M25,154.5 h7 m7,0 h7 m50,0 h7 m178,0 h7 m64,0 h7
M7,155.5 h3 m72,0 h7 m22,0 h7 m112,0 h7 m26,0 h7 m68,0 h7 m22,0 h7 m112,0 h6
M48,156.5 h7 m72,0 h7 m33,0 h7 m8,0 h7 m9,0 h7 m99,0 h7 m77,0 h2 m9,0 h7 m17,0 h7 m8,0 h7 m9,0 h7
M19,157.5 h5 m37,0 h7 m5,0 h7 m136,0 h7 m50,0 h7 m37,0 h7 m5,0 h7 m136,0 h7
M33,158.5 h7 m49,0 h7 m59,0 h7 m-163,0 h7 m249,0 h7 m83,0 h2 m64,0 h7 m93,0 h1 m-512,0 h6
M104,159.5 h7 m25,0 h7 m64,0 h7 m146,0 h7 m25,0 h7 m64,0 h5
M10,160.5 h7 m160,0 h7 m6,0 h7 m26,0 h7 m36,0 h7 m160,0 h7 m6,0 h7 m26,0 h7
M55,161.5 h7 m249,0 h6
M23,162.5 h7 m13,0 h7 m32,0 h2 m13,0 h7 m9,0 h7 m5,0 h7 m31,0 h7 m63,0 h7 m14,0 h2 m23,0 h7 m52,0 h6 m13,0 h3 m9,0 h7 m10,0 h2 m31,0 h4 m82,0 h7
M145,163.5 h7 m249,0 h7
M72,164.5 h7 m120,0 h7 m125,0 h4 m120,0 h7
M0,165.5 h7 m24,0 h4 m27,0 h7 m65,0 h7 m15,0 h7 m8,0 h7 m31,0 h2 m45,0 h7 m24,0 h7 m96,0 h7 m15,0 h7 m23,0 h7
M13,166.5 h7 m204,0 h4 m10,0 h5 m31,0 h2 m203,0 h5
M52,167.5 h7 m42,0 h7 m20,0 h2 m179,0 h6 m43,0 h6 m15,0 h7
M45,168.5 h2 m65,0 h3 m253,0 h7 m27,0 h2
M23,169.5 h7 m223,0 h2 m24,0 h7 m159,0 h2 m57,0 h7
M69,170.5 h7 m125,0 h6 m21,0 h7 m94,0 h3 m126,0 h5 m21,0 h7
M95,171.5 h2 m41,0 h4 m80,0 h3 m169,0 h7 m76,0 h4
M46,172.5 h7 m25,0 h7 m44,0 h2 m25,0 h7 m21,0 h5 m51,0 h7 m41,0 h7 m12,0 h2 m25,0 h7 m39,0 h7 m28,0 h4 m21,0 h6 m50,0 h7
M1,173.5 h6 m59,0 h3 m39,0 h7 m62,0 h3 m28,0 h5 m44,0 h6 m55,0 h7 m39,0 h7 m62,0 h3 m28,0 h7
M20,174.5 h6 m250,0 h6
M99,175.5 h7 m125,0 h7 m117,0 h7 m125,0 h7 m-184,0 h7
M86,176.5 h7 m40,0 h7 m108,0 h7 m87,0 h7 m40,0 h7 m-102,0 h7 m203,0 h7
M186,177.5 h7 m8,0 h7 m9,0 h7 m199,0 h7 m12,0 h6 m12,0 h4 m9,0 h7
M18,178.5 h5 m52,0 h7 m193,0 h4 m52,0 h7
M0,179.5 h7 m24,0 h7 m28,0 h2 m26,0 h7 m38,0 h5 m12,0 h7 m16,0 h7 m70,0 h7 m24,0 h7 m23,0 h7 m26,0 h7 m38,0 h7 m11,0 h6 m16,0 h7
M47,180.5 h7 m54,0 h7 m11,0 h7 m60,0 h7 m40,0 h7 m56,0 h7 m54,0 h7 m14,0 h4 m91,0 h7 m9,0 h7
M208,181.5 h7 m249,0 h7
M69,182.5 h7 m249,0 h7
M9,183.5 h7 m9,0 h7 m53,0 h7 m25,0 h7 m24,0 h7 m16,0 h7 m87,0 h7 m9,0 h7 m116,0 h7 m16,0 h7
M233,184.5 h7 m250,0 h6
M-1,185.5 h7 m249,0 h7 m-216,0 h7 m41,0 h7 m37,0 h7 m17,0 h7 m25,0 h7 m41,0 h7 m262,0 h1 m-512,0 h6 m296,0 h7 m45,0 h3 m37,0 h7 m17,0 h7 m25,0 h7 m41,0 h2
M32,186.5 h7 m23,0 h7 m9,0 h7 m30,0 h2 m62,0 h7 m24,0 h7 m71,0 h3 m27,0 h7 m9,0 h6 m26,0 h7 m62,0 h7 m24,0 h7
M17,187.5 h7 m249,0 h7
M150,188.5 h7 m249,0 h7
M54,189.5 h7 m10,0 h7 m40,0 h7 m7,0 h5 m64,0 h6 m45,0 h2 m56,0 h7 m10,0 h7 m24,0 h7 m9,0 h7 m7,0 h7 m61,0 h7
M7,190.5 h7 m26,0 h6 m123,0 h7 m9,0 h5 m26,0 h4 m12,0 h7 m24,0 h7 m155,0 h2 m14,0 h7 m24,0 h5 m13,0 h5
M28,191.5 h3 m62,0 h5 m186,0 h5 m63,0 h2
M15,192.5 h7 m101,0 h7 m27,0 h7 m234,0 h7 m-134,0 h7 m57,0 h7 m37,0 h7 m27,0 h7
M1,193.5 h6 m38,0 h7 m10,0 h7 m107,0 h7 m25,0 h7 m41,0 h7 m38,0 h7 m159,0 h4
M103,194.5 h2 m119,0 h7 m9,0 h2 m117,0 h5 m84,0 h7 m41,0 h5
M389,195.5 h7
M27,196.5 h2 m25,0 h7 m11,0 h7 m68,0 h6 m16,0 h3 m82,0 h2 m27,0 h6 m21,0 h2 m16,0 h7 m67,0 h7 m12,0 h3
M15,197.5 h7 m92,0 h2 m70,0 h5 m27,0 h7 m46,0 h2 m68,0 h7 m94,0 h7 m25,0 h7
M127,198.5 h7 m22,0 h4 m42,0 h6 m26,0 h7 m142,0 h7 m22,0 h7 m71,0 h7
M95,199.5 h7 m14,0 h7 m165,0 h3 m33,0 h2 m25,0 h7 m18,0 h3
M45,200.5 h7 m125,0 h7 m117,0 h7 m128,0 h4
M146,201.5 h7 m59,0 h7 m34,0 h2 m4,0 h7 m203,0 h6 m29,0 h7
M21,202.5 h7 m46,0 h6 m9,0 h7 m98,0 h7 m25,0 h7 m96,0 h7 m9,0 h7 m67,0 h7 m24,0 h7 m25,0 h7
M55,203.5 h6 m75,0 h7 m168,0 h4 m77,0 h2
M13,204.5 h3 m27,0 h7 m54,0 h7 m7,0 h7 m78,0 h7 m55,0 h7 m27,0 h7 m54,0 h4 m10,0 h7
M29,205.5 h7 m46,0 h7 m81,0 h7 m7,0 h7 m26,0 h7 m10,0 h7 m45,0 h6 m46,0 h7 m81,0 h7 m7,0 h7 m26,0 h7 m10,0 h7
M125,206.5 h7 m20,0 h7 m87,0 h7 m128,0 h7 m20,0 h7 m87,0 h7
M18,207.5 h7 m36,0 h2 m33,0 h7 m214,0 h7 m28,0 h7
M192,208.5 h7 m249,0 h7
M38,209.5 h7 m28,0 h6 m56,0 h7 m34,0 h7 m78,0 h7 m26,0 h7 m27,0 h7 m56,0 h5 m21,0 h7 m8,0 h7
M53,210.5 h7 m29,0 h7 m8,0 h7 m10,0 h7 m18,0 h7 m54,0 h7 m95,0 h7 m29,0 h7 m8,0 h7 m10,0 h7 m21,0 h4 m54,0 h7 m7,0 h7
M29,211.5 h4 m204,0 h7 m6,0 h7 m-263,0 h7 m281,0 h7 m204,0 h7 m6,0 h6 m-512,0 h1
M65,213.5 h7 m42,0 h4 m49,0 h3 m13,0 h7 m7,0 h7 m25,0 h7 m85,0 h7 m95,0 h7 m9,0 h7
M3,214.5 h7 m5,0 h2 m27,0 h7 m79,0 h7 m122,0 h7 m9,0 h3 m22,0 h7 m79,0 h7
M74,215.5 h7 m5,0 h7 m65,0 h7 m42,0 h7 m-67,0 h7 m176,0 h6 m78,0 h7 m42,0 h7 m-67,0 h7
M56,216.5 h7 m-32,0 h7 m274,0 h7 m-32,0 h7 m57,0 h7 m117,0 h6
M251,217.5 h7 m-263,0 h7 m104,0 h7 m24,0 h7 m92,0 h4 m267,0 h5 m-512,0 h2 m360,0 h5 m128,0 h4
M40,218.5 h7 m156,0 h3 m72,0 h4 m14,0 h2 m131,0 h2
M80,219.5 h7 m98,0 h7 m249,0 h7
M213,220.5 h4 m104,0 h7 m141,0 h7 m23,0 h7
M9,221.5 h7 m36,0 h7 m70,0 h7 m44,0 h4 m44,0 h7 m75,0 h5 m70,0 h2 m46,0 h7
M30,222.5 h7 m70,0 h7 m36,0 h5 m6,0 h7 m118,0 h7 m55,0 h7 m8,0 h3 m38,0 h7 m6,0 h2 m29,0 h3
M76,223.5 h7 m-85,0 h7 m249,0 h7 m71,0 h5 m173,0 h2 m-512,0 h5 m394,0 h2
M17,224.5 h7 m183,0 h7 m8,0 h7 m47,0 h4 m98,0 h7 m78,0 h7 m8,0 h6
M103,225.5 h4 m249,0 h7 m135,0 h7
M73,226.5 h3 m81,0 h7 m249,0 h5
M6,227.5 h7 m44,0 h3 m54,0 h7 m47,0 h7 m4,0 h7 m44,0 h7 m25,0 h5 m46,0 h5 m52,0 h7 m58,0 h7 m11,0 h7 m26,0 h7
M26,228.5 h7 m58,0 h7 m30,0 h7 m15,0 h2 m130,0 h7 m5,0 h4 m49,0 h7 m30,0 h4 m13,0 h7
M-3,229.5 h7 m249,0 h7 m-208,0 h2 m25,0 h7 m102,0 h6 m315,0 h3 m-512,0 h4 m304,0 h2 m25,0 h7 m102,0 h7
M16,230.5 h7 m181,0 h7 m8,0 h7 m13,0 h7 m26,0 h7 m181,0 h7 m8,0 h7 m13,0 h7
M103,231.5 h7 m45,0 h7 m197,0 h7 m45,0 h7 m-25,0 h7
M68,232.5 h7 m43,0 h7 m249,0 h7
M86,233.5 h7 m72,0 h7 m13,0 h7 m20,0 h7 m123,0 h7 m72,0 h7 m13,0 h7 m20,0 h7
M9,234.5 h7 m9,0 h7 m8,0 h2 m14,0 h7 m112,0 h7 m51,0 h7 m9,0 h7 m9,0 h7 m9,0 h7 m11,0 h4 m9,0 h7 m112,0 h7 m51,0 h7 m9,0 h2
M94,235.5 h7 m28,0 h7 m7,0 h7 m200,0 h7 m28,0 h7 m7,0 h7
M63,236.5 h7 m38,0 h7 m77,0 h7 m24,0 h7 m89,0 h7 m38,0 h7 m77,0 h7 m26,0 h5
M33,237.5 h7 m39,0 h7 m69,0 h7 m95,0 h7 m71,0 h7 m69,0 h7
M17,238.5 h7 m25,0 h7 m63,0 h7 m77,0 h7 m31,0 h7 m25,0 h7 m25,0 h7 m63,0 h7 m77,0 h7 m31,0 h7
M215,239.5 h4 m-119,0 h7 m76,0 h7 m169,0 h4 m76,0 h5
M69,240.5 h7 m88,0 h2 m-34,0 h7 m186,0 h7 m88,0 h7 m-39,0 h5
M25,241.5 h7 m196,0 h5 m48,0 h7 m195,0 h6
M76,242.5 h7 m70,0 h7 m19,0 h3 m150,0 h7 m70,0 h7 m15,0 h7
M109,243.5 h3 m13,0 h4 m13,0 h7 m42,0 h7 m11,0 h7 m149,0 h7 m6,0 h7 m80,0 h5
M5,244.5 h4 m41,0 h7 m185,0 h4 m13,0 h6 m7,0 h3 m31,0 h7 m188,0 h4
M33,245.5 h4 m27,0 h7 m28,0 h7 m25,0 h5 m65,0 h7 m24,0 h7 m120,0 h3 m25,0 h5 m65,0 h7
M426,246.5 h7
M79,247.5 h4 m77,0 h7 m168,0 h7
M3,248.5 h7 m14,0 h7 m26,0 h7 m43,0 h4 m70,0 h7 m71,0 h7 m34,0 h7 m-22,0 h2 m26,0 h2 m48,0 h7 m67,0 h7
M95,249.5 h3 m25,0 h7 m21,0 h7 m36,0 h3 m210,0 h6 m42,0 h2
M229,250.5 h7 m7,0 h4 m23,0 h2 m213,0 h3 m13,0 h5
M81,251.5 h4 m124,0 h2 m158,0 h2 m-34,0 h7 m116,0 h7
M34,252.5 h5 m148,0 h7 m96,0 h7 m146,0 h7 m24,0 h7
M2,253.5 h7 m42,0 h7 m40,0 h7 m25,0 h7 m33,0 h7 m81,0 h7 m42,0 h7 m40,0 h7 m25,0 h7 m33,0 h7
M76,254.5 h5 m67,0 h6 m5,0 h7 m67,0 h7 m90,0 h7 m66,0 h7
M23,255.5 h7 m74,0 h7 m99,0 h7 m-39,0 h7 m64,0 h7 m28,0 h2 m74,0 h7 m99,0 h7 m-39,0 h7 m64,0 h7
M123,256.5 h7 m-119,0 h7 m25,0 h7 m39,0 h7 m231,0 h2 m54,0 h3 m-119,0 h7 m25,0 h7 m39,0 h7
M222,257.5 h7 m164,0 h7 m57,0 h7 m14,0 h7
M189,258.5 h7 m44,0 h5 m200,0 h7 m44,0 h7
M24,259.5 h7 m5,0 h7 m72,0 h7 m158,0 h7 m5,0 h7 m72,0 h7
M81,260.5 h7 m70,0 h6 m51,0 h7 m97,0 h7 m11,0 h7 m70,0 h7 m5,0 h7 m38,0 h7
M8,261.5 h7 m33,0 h7 m41,0 h7 m45,0 h7 m77,0 h7 m25,0 h7 m33,0 h7 m45,0 h3 m45,0 h7 m77,0 h7 m8,0 h7
M179,262.5 h7 m11,0 h7 m-97,0 h7 m321,0 h7 m11,0 h7 m-97,0 h7
M16,263.5 h7 m115,0 h7 m127,0 h7 m115,0 h7
M56,264.5 h7 m63,0 h7 m74,0 h7 m98,0 h7 m63,0 h7
M-2,265.5 h4 m254,0 h5 m-194,0 h7 m6,0 h7 m101,0 h7 m31,0 h7 m277,0 h2 m-512,0 h2 m321,0 h7 m6,0 h7 m101,0 h7 m31,0 h7
M27,266.5 h7 m79,0 h7 m35,0 h7 m130,0 h7 m-16,0 h7 m79,0 h7 m35,0 h7
M214,267.5 h7 m177,0 h7 m95,0 h7
M16,268.5 h7 m25,0 h7 m217,0 h7
M73,269.5 h7 m8,0 h4 m13,0 h7 m66,0 h7 m75,0 h7 m62,0 h7 m25,0 h7 m68,0 h5
M58,270.5 h3 m66,0 h4 m29,0 h7 m38,0 h7 m25,0 h7 m70,0 h7 m59,0 h7 m4,0 h2 m23,0 h7 m38,0 h3 m29,0 h7
M294,271.5 h3 m182,0 h7
M26,272.5 h6 m250,0 h7
M150,273.5 h4 m29,0 h6 m165,0 h2 m16,0 h7 m26,0 h5 m29,0 h4
M250,274.5 h7 m-262,0 h6 m14,0 h7 m22,0 h7 m30,0 h7 m70,0 h7 m5,0 h7 m24,0 h4 m10,0 h3 m13,0 h6 m270,0 h5 m-512,0 h1 m260,0 h6 m50,0 h7 m17,0 h3 m70,0 h7 m35,0 h5 m14,0 h3 m8,0 h7
M105,275.5 h7 m18,0 h5 m249,0 h7
M74,276.5 h6
M33,277.5 h2 m254,0 h7
M51,278.5 h7 m39,0 h7 m8,0 h4 m57,0 h7 m25,0 h7 m25,0 h7 m64,0 h6 m39,0 h7 m13,0 h2 m54,0 h7 m25,0 h7 m25,0 h2
M24,279.5 h7 m118,0 h7 m-159,0 h7 m249,0 h7 m20,0 h7 m33,0 h7 m78,0 h7 m65,0 h7 m25,0 h3 m-512,0 h4
M14,280.5 h7 m138,0 h7 m211,0 h7 m31,0 h7
M89,281.5 h7 m116,0 h7 m25,0 h7 m94,0 h7 m116,0 h7
M34,282.5 h7 m13,0 h7 m13,0 h7 m101,0 h7 m101,0 h7 m13,0 h7 m121,0 h7
M5,283.5 h7 m127,0 h7 m22,0 h7 m56,0 h7 m23,0 h7 m127,0 h7 m22,0 h7 m56,0 h7
M42,284.5 h7 m55,0 h7 m17,0 h7 m65,0 h7 m91,0 h7 m55,0 h2 m22,0 h7 m65,0 h7
M82,285.5 h7 m25,0 h7 m69,0 h7 m54,0 h7 m-263,0 h7 m338,0 h5 m27,0 h5 m69,0 h7 m54,0 h5 m-512,0 h2
M25,286.5 h7 m33,0 h7 m23,0 h7 m58,0 h7 m55,0 h7 m52,0 h7 m33,0 h7 m23,0 h7 m58,0 h7 m55,0 h7
M10,287.5 h7 m37,0 h7 m84,0 h7 m25,0 h7 m26,0 h7 m23,0 h7 m19,0 h7 m37,0 h7 m84,0 h7 m25,0 h7 m26,0 h7 m23,0 h7
M42,288.5 h7 m25,0 h7 m217,0 h7 m25,0 h7
M123,289.5 h7 m4,0 h7 m238,0 h7 m4,0 h7
M17,290.5 h7 m7,0 h5 m118,0 h6 m25,0 h7 m9,0 h7 m47,0 h4 m-263,0 h7 m270,0 h7 m7,0 h7 m116,0 h7 m24,0 h7 m9,0 h7 m44,0 h4 m-512,0 h3
M59,291.5 h7 m32,0 h7 m13,0 h2 m53,0 h3 m41,0 h7 m8,0 h7 m76,0 h5 m34,0 h7 m8,0 h3 m116,0 h7
M342,292.5 h7
M9,293.5 h7 m57,0 h7 m185,0 h7 m60,0 h4 m64,0 h7
M29,294.5 h5 m72,0 h2 m21,0 h7 m57,0 h7 m8,0 h3 m29,0 h3 m40,0 h7 m72,0 h7 m16,0 h7 m57,0 h7 m8,0 h4 m28,0 h4
M256,295.5 h3 m-259,0 h3 m176,0 h3 m40,0 h6 m284,0 h0 m-512,0 h3 m432,0 h7 m39,0 h3
M51,297.5 h7 m39,0 h7 m17,0 h2 m15,0 h2 m133,0 h7 m27,0 h7 m39,0 h7 m34,0 h7
M4,298.5 h7 m63,0 h7 m73,0 h7 m11,0 h5 m20,0 h7 m56,0 h7 m64,0 h6 m3,0 h7 m63,0 h7 m12,0 h4 m20,0 h7
M127,299.5 h7 m94,0 h7 m148,0 h7 m94,0 h7
M27,300.5 h4 m249,0 h7
M11,301.5 h5 m54,0 h4 m22,0 h2 m8,0 h2 m159,0 h7 m18,0 h3 m67,0 h7 m33,0 h7
M53,302.5 h4 m103,0 h7 m9,0 h4 m44,0 h3 m10,0 h7 m65,0 h7 m100,0 h7 m9,0 h4 m42,0 h5 m10,0 h7
M-1,303.5 h7 m249,0 h7 m-132,0 h7 m69,0 h6 m299,0 h1 m-512,0 h6 m380,0 h2 m74,0 h7
M118,304.5 h4 m72,0 h7 m249,0 h7
M98,305.5 h7 m61,0 h7 m145,0 h7 m32,0 h4 m41,0 h3 m17,0 h7
M22,306.5 h7 m9,0 h7 m39,0 h7 m154,0 h7 m42,0 h7 m39,0 h4 m127,0 h7 m23,0 h7
M9,307.5 h7 m58,0 h7 m38,0 h7 m139,0 h7 m58,0 h7 m38,0 h7
M50,308.5 h7 m49,0 h7 m121,0 h7 m65,0 h7 m49,0 h7 m121,0 h7
M133,309.5 h7 m9,0 h7 m5,0 h7 m7,0 h7 m10,0 h7 m25,0 h7 m174,0 h7 m5,0 h7 m7,0 h7 m10,0 h7 m25,0 h7
M61,310.5 h7 m25,0 h7 m108,0 h7 m-215,0 h7 m310,0 h7 m140,0 h4 m-212,0 h7
M18,311.5 h7 m7,0 h7 m204,0 h7 m-206,0 h7 m237,0 h7 m204,0 h7 m-206,0 h7
M76,312.5 h7 m38,0 h7 m11,0 h7 m186,0 h7 m38,0 h7 m15,0 h3
M168,313.5 h7 m9,0 h7 m9,0 h7 m217,0 h7 m9,0 h7 m9,0 h7
M106,314.5 h7 m-104,0 h7 m7,0 h7 m23,0 h7 m91,0 h7 m73,0 h7 m124,0 h7 m-60,0 h7 m91,0 h7 m73,0 h3
M252,315.5 h7 m-263,0 h7 m64,0 h7 m145,0 h7 m282,0 h4 m-512,0 h3 m320,0 h7 m149,0 h3
M500,316.5 h2
M35,317.5 h7 m38,0 h4 m13,0 h6 m17,0 h7 m33,0 h7 m9,0 h7 m24,0 h7 m77,0 h7 m38,0 h7 m9,0 h7 m17,0 h7 m3,0 h7 m23,0 h7 m9,0 h7 m9,0 h7 m8,0 h2
M46,318.5 h7 m249,0 h7
M14,319.5 h7 m94,0 h2 m24,0 h7 m76,0 h7 m-173,0 h7 m209,0 h3 m89,0 h7 m24,0 h2 m81,0 h7 m-173,0 h2
M250,320.5 h7 m-263,0 h7 m25,0 h7 m180,0 h7 m286,0 h6 m-512,0 h1 m281,0 h7
M80,321.5 h5 m15,0 h5 m64,0 h7 m8,0 h5 m147,0 h7 m13,0 h7 m65,0 h4
M148,322.5 h7 m139,0 h5
M51,323.5 h7 m60,0 h7 m186,0 h3 m64,0 h3 m5,0 h7 m58,0 h7
M206,324.5 h2 m16,0 h7 m231,0 h7 m11,0 h7
M18,325.5 h7 m59,0 h2 m-89,0 h5 m251,0 h7 m14,0 h7 m59,0 h7 m162,0 h3 m-512,0 h2
M29,326.5 h4 m64,0 h7 m35,0 h7 m35,0 h7 m97,0 h7 m35,0 h6 m23,0 h4 m35,0 h5
M153,327.5 h5 m79,0 h7 m-73,0 h4 m235,0 h5 m83,0 h2 m-72,0 h3
M201,328.5 h2 m-158,0 h3 m10,0 h7 m163,0 h7 m217,0 h7 m-194,0 h7 m25,0 h2 m15,0 h3 m152,0 h7 m8,0 h7
M246,329.5 h7 m249,0 h7
M79,330.5 h7 m16,0 h4 m17,0 h7 m3,0 h7 m195,0 h7 m16,0 h7 m16,0 h5 m3,0 h7
M17,331.5 h7 m10,0 h2 m54,0 h7 m47,0 h7 m26,0 h7 m22,0 h2 m65,0 h7 m10,0 h7 m103,0 h7 m26,0 h4 m25,0 h7
M47,332.5 h7 m61,0 h5 m68,0 h7 m-197,0 h6 m250,0 h7 m63,0 h7 m116,0 h4 m59,0 h2 m-512,0 h4
M58,333.5 h7 m249,0 h7
M26,334.5 h7 m186,0 h3 m6,0 h7 m47,0 h7 m182,0 h7 m6,0 h7
M11,335.5 h7 m86,0 h7 m42,0 h7 m-84,0 h7 m86,0 h7 m65,0 h7 m19,0 h7 m86,0 h7 m42,0 h7 m-84,0 h7 m86,0 h7 m65,0 h7
M120,336.5 h7 m74,0 h7 m170,0 h5 m74,0 h7
M2,337.5 h7 m40,0 h7 m33,0 h7 m35,0 h7 m6,0 h7 m38,0 h7 m62,0 h7 m40,0 h7 m75,0 h7 m6,0 h7 m38,0 h5
M17,338.5 h7 m10,0 h7 m23,0 h7 m202,0 h7 m40,0 h7 m150,0 h7
M159,339.5 h7 m10,0 h7 m62,0 h7 m163,0 h7 m10,0 h7 m62,0 h7
M75,340.5 h7 m16,0 h7 m6,0 h7 m113,0 h7 m93,0 h7 m16,0 h7 m6,0 h7 m113,0 h7
M26,341.5 h7 m106,0 h7 m52,0 h7 m9,0 h4 m64,0 h5 m13,0 h6 m89,0 h7 m68,0 h7
M-5,342.5 h7 m56,0 h7 m57,0 h7 m35,0 h7 m336,0 h5 m-512,0 h2 m312,0 h7 m99,0 h7
M90,343.5 h7 m92,0 h7 m-191,0 h7 m334,0 h7 m92,0 h2 m-186,0 h7
M204,344.5 h7 m-130,0 h7 m42,0 h7 m323,0 h7 m-130,0 h7 m46,0 h3 m38,0 h7
M34,345.5 h4 m28,0 h7 m40,0 h7 m24,0 h7 m83,0 h7 m81,0 h7 m40,0 h7 m24,0 h7 m83,0 h7
M99,346.5 h5 m109,0 h6 m137,0 h4 m109,0 h3
M9,347.5 h6 m41,0 h7 m97,0 h7 m98,0 h3 m44,0 h7 m97,0 h7 m62,0 h2 m20,0 h4
M106,348.5 h7 m40,0 h5 m26,0 h7 m106,0 h7 m58,0 h7 m40,0 h5 m26,0 h7
M72,349.5 h7 m58,0 h4 m61,0 h7 m32,0 h5 m82,0 h7 m8,0 h2 m48,0 h5 m28,0 h7 m26,0 h6
M28,350.5 h7 m249,0 h7
M50,351.5 h6 m-54,0 h7 m296,0 h7 m136,0 h7 m-197,0 h7
M212,352.5 h7 m14,0 h7 m228,0 h4 m17,0 h5
M79,353.5 h7 m13,0 h4 m7,0 h7 m36,0 h2 m26,0 h6 m148,0 h7 m24,0 h7 m63,0 h7
M41,354.5 h7 m120,0 h3 m54,0 h7 m65,0 h7 m179,0 h5
M31,355.5 h7 m98,0 h4 m63,0 h7 m77,0 h7 m83,0 h7 m8,0 h6 m61,0 h7
M13,356.5 h3 m55,0 h7 m80,0 h7 m75,0 h7 m-250,0 h7 m249,0 h7 m9,0 h7 m51,0 h7 m11,0 h2 m67,0 h7 m25,0 h7 m56,0 h3 m-512,0 h4
M105,357.5 h7 m249,0 h7
M45,358.5 h7 m78,0 h5 m87,0 h7 m72,0 h7 m76,0 h7 m87,0 h7
M21,359.5 h7 m150,0 h7 m92,0 h7 m150,0 h7
M214,360.5 h5 m-215,0 h7 m154,0 h7 m28,0 h3 m31,0 h7 m5,0 h7 m217,0 h7 m-217,0 h7 m154,0 h2 m29,0 h7 m31,0 h7 m5,0 h7
M71,361.5 h7 m13,0 h7 m229,0 h7 m13,0 h7
M31,362.5 h7 m66,0 h7 m8,0 h7 m25,0 h7 m49,0 h7 m73,0 h7 m66,0 h7 m8,0 h7 m25,0 h7 m49,0 h7
M13,363.5 h7 m21,0 h7 m84,0 h7 m45,0 h7 m78,0 h7 m21,0 h7 m84,0 h7 m45,0 h7
M51,364.5 h7 m21,0 h7 m145,0 h3 m73,0 h7 m4,0 h7 m10,0 h7 m141,0 h7
M2,365.5 h7 m13,0 h7 m217,0 h7 m5,0 h7 m13,0 h7 m217,0 h7
M89,366.5 h7 m20,0 h7 m14,0 h7 m11,0 h7 m6,0 h7 m20,0 h7 m13,0 h4 m126,0 h7 m41,0 h7 m11,0 h7 m6,0 h7 m20,0 h2 m18,0 h7
M179,367.5 h7 m-85,0 h7 m327,0 h7 m-85,0 h7
M236,368.5 h7 m249,0 h7
M31,369.5 h7 m7,0 h7 m76,0 h7 m12,0 h7 m50,0 h7 m76,0 h2 m13,0 h6 m76,0 h7 m12,0 h7 m54,0 h3
M0,370.5 h7 m74,0 h7 m71,0 h7 m90,0 h7 m74,0 h7 m71,0 h7 m22,0 h7 m24,0 h7
M105,371.5 h5 m65,0 h7 m181,0 h5 m65,0 h5
M21,372.5 h7 m25,0 h7 m63,0 h4 m11,0 h7 m132,0 h7 m25,0 h7 m78,0 h7
M62,373.5 h2 m25,0 h7 m130,0 h7 m14,0 h6 m65,0 h3 m24,0 h6 m151,0 h7
M45,374.5 h4 m28,0 h4 m126,0 h7 m21,0 h2 m64,0 h4 m29,0 h3 m30,0 h6 m90,0 h7 m21,0 h7
M146,375.5 h7 m-55,0 h7 m297,0 h7
M30,376.5 h2 m98,0 h4 m84,0 h7 m61,0 h3 m97,0 h4 m84,0 h2
M19,377.5 h6 m25,0 h7 m119,0 h7 m95,0 h3 m25,0 h7 m120,0 h6
M2,378.5 h7 m178,0 h3 m12,0 h7 m49,0 h7 m149,0 h6 m23,0 h7 m12,0 h3
M79,379.5 h2 m41,0 h7 m121,0 h3 m68,0 h2 m12,0 h7 m36,0 h7 m122,0 h2
M94,380.5 h3 m12,0 h3 m33,0 h2 m87,0 h3 m53,0 h7 m49,0 h7 m12,0 h7 m118,0 h4
M153,381.5 h6 m12,0 h6 m42,0 h7 m183,0 h7
M10,382.5 h7 m37,0 h7 m38,0 h7 m160,0 h7 m37,0 h7
M43,383.5 h4 m24,0 h7 m128,0 h7 m-191,0 h7 m267,0 h7 m24,0 h7 m55,0 h3 m70,0 h7 m-191,0 h7
M192,384.5 h7 m49,0 h4 m-250,0 h7 m171,0 h7 m40,0 h7 m214,0 h7 m-197,0 h7 m171,0 h7 m43,0 h4
M106,385.5 h7 m9,0 h7 m84,0 h7 m142,0 h7 m9,0 h7 m84,0 h7
M30,386.5 h7 m25,0 h7 m7,0 h5 m11,0 h6 m45,0 h2 m7,0 h7 m8,0 h7 m112,0 h7 m25,0 h7 m7,0 h7 m8,0 h7 m54,0 h7 m8,0 h7
M48,387.5 h7 m144,0 h7 m102,0 h3 m144,0 h7
M11,388.5 h7 m99,0 h7 m113,0 h7 m23,0 h7 m99,0 h7 m113,0 h4
M22,389.5 h7 m148,0 h7 m68,0 h7 m-263,0 h7 m275,0 h7 m148,0 h7 m68,0 h4 m-512,0 h3
M84,390.5 h7 m8,0 h7 m56,0 h7 m58,0 h7 m106,0 h7 m8,0 h7 m56,0 h7 m43,0 h7 m8,0 h7
M59,391.5 h7 m78,0 h7 m45,0 h7 m-73,0 h7 m178,0 h7 m78,0 h7 m45,0 h7 m-73,0 h7
M116,392.5 h7 m62,0 h7 m180,0 h7 m62,0 h7
M31,393.5 h7 m37,0 h7 m73,0 h7 m89,0 h7 m-263,0 h7 m285,0 h7 m117,0 h7 m89,0 h5 m-512,0 h2
M63,394.5 h7 m20,0 h2 m14,0 h7 m60,0 h7 m23,0 h7 m25,0 h7 m77,0 h5 m22,0 h7 m9,0 h7 m60,0 h2 m32,0 h3 m25,0 h7
M128,395.5 h7 m88,0 h7 m154,0 h7 m88,0 h7
M39,396.5 h2
M-1,397.5 h7 m249,0 h7 m-236,0 h7 m49,0 h7 m57,0 h7 m7,0 h3 m79,0 h7 m262,0 h1 m-512,0 h6 m276,0 h7 m49,0 h7 m71,0 h7 m45,0 h7 m23,0 h7
M114,398.5 h7 m63,0 h2 m121,0 h2 m135,0 h3
M61,399.5 h7 m107,0 h3 m-104,0 h7 m57,0 h4 m175,0 h7 m27,0 h7 m69,0 h4 m-37,0 h6
M204,400.5 h7 m-84,0 h7 m88,0 h7 m236,0 h2 m-84,0 h7 m88,0 h7
M106,401.5 h3 m-55,0 h3 m305,0 h6 m-62,0 h7 m133,0 h7
M-1,402.5 h7 m249,0 h7 m249,0 h1 m-512,0 h6 m269,0 h2
M23,403.5 h7 m9,0 h4 m111,0 h3 m21,0 h6 m95,0 h7 m9,0 h7 m118,0 h7
M73,404.5 h2 m9,0 h7 m11,0 h3 m16,0 h2 m89,0 h7 m8,0 h7 m90,0 h7 m23,0 h7 m122,0 h7
M54,405.5 h6 m69,0 h7 m61,0 h7 m43,0 h5 m58,0 h7 m68,0 h7 m5,0 h5 m102,0 h4
M8,406.5 h7 m16,0 h7 m226,0 h7 m16,0 h7
M77,407.5 h7 m23,0 h2 m51,0 h3 m170,0 h7 m23,0 h7 m46,0 h7 m20,0 h7
M219,408.5 h7 m-53,0 h7 m25,0 h7 m268,0 h2 m-165,0 h7 m105,0 h7 m25,0 h5
M250,409.5 h7 m-263,0 h7 m120,0 h7 m24,0 h6 m348,0 h6 m-512,0 h1 m379,0 h4 m23,0 h7
M25,410.5 h7 m7,0 h7 m50,0 h7 m178,0 h7 m64,0 h7
M7,411.5 h7 m68,0 h7 m141,0 h5 m28,0 h7 m68,0 h3 m26,0 h7 m112,0 h6
M48,412.5 h7 m72,0 h7 m9,0 h7 m17,0 h7 m8,0 h7 m9,0 h7 m99,0 h7 m72,0 h7 m9,0 h7 m17,0 h7 m8,0 h7 m9,0 h7
M17,413.5 h7 m49,0 h7 m136,0 h7 m50,0 h7 m37,0 h7 m5,0 h7
M35,414.5 h5 m49,0 h7 m59,0 h7 m79,0 h7 m-249,0 h7 m249,0 h7 m83,0 h7 m59,0 h7 m79,0 h7 m7,0 h1 m-512,0 h6
M104,415.5 h7 m25,0 h7 m64,0 h7 m146,0 h7 m25,0 h7 m64,0 h6
M10,416.5 h7 m160,0 h7 m6,0 h7 m26,0 h7 m41,0 h2 m160,0 h7 m6,0 h7 m26,0 h7
M55,417.5 h7
M43,418.5 h7 m32,0 h7 m8,0 h7 m9,0 h7 m5,0 h7 m31,0 h7 m63,0 h7 m9,0 h7 m23,0 h7 m15,0 h5 m32,0 h7 m8,0 h7 m9,0 h7 m5,0 h7 m31,0 h7 m63,0 h7
M145,419.5 h7 m252,0 h4
M72,420.5 h7 m120,0 h7 m122,0 h7 m120,0 h7
M3,421.5 h4 m27,0 h4 m26,0 h5 m87,0 h7 m8,0 h7 m78,0 h2 m29,0 h4 m32,0 h2 m65,0 h2 m20,0 h7 m9,0 h6 m8,0 h7 m16,0 h7
M13,422.5 h7 m201,0 h7 m10,0 h7 m26,0 h5 m201,0 h7 m10,0 h7
M52,423.5 h3 m46,0 h7 m15,0 h7 m178,0 h2 m47,0 h7 m15,0 h7
M40,424.5 h7 m65,0 h7 m27,0 h7 m143,0 h7 m69,0 h3 m31,0 h3
M23,425.5 h2 m223,0 h7 m24,0 h7
M69,426.5 h7 m91,0 h7 m26,0 h7 m63,0 h2 m53,0 h7 m124,0 h7 m21,0 h7
M222,427.5 h3
M32,428.5 h7 m7,0 h7 m25,0 h7 m39,0 h7 m110,0 h6 m41,0 h7 m7,0 h7 m25,0 h7 m39,0 h7 m25,0 h5 m79,0 h7
M2,429.5 h5 m59,0 h3 m104,0 h7 m28,0 h2 m47,0 h7 m54,0 h7 m105,0 h6 m28,0 h7
M20,430.5 h6 m249,0 h7
M99,431.5 h7 m42,0 h6 m-37,0 h7 m231,0 h6 m43,0 h7 m76,0 h7 m-184,0 h7 m57,0 h6
M38,432.5 h7 m203,0 h7 m87,0 h2 m45,0 h7 m-102,0 h7 m203,0 h7
M168,433.5 h6 m12,0 h7 m8,0 h7 m9,0 h7 m233,0 h7
M19,434.5 h4 m52,0 h7 m190,0 h7 m52,0 h7
M0,435.5 h6 m25,0 h7 m23,0 h7 m26,0 h7 m38,0 h7 m33,0 h7 m70,0 h7 m54,0 h7 m26,0 h7 m38,0 h7 m10,0 h7 m16,0 h7
M47,436.5 h7 m72,0 h7 m60,0 h7 m24,0 h6 m10,0 h7 m56,0 h7 m72,0 h7 m60,0 h7 m29,0 h2 m9,0 h7
M208,437.5 h7 m249,0 h7
M69,438.5 h7 m249,0 h7
M25,439.5 h7 m53,0 h7 m25,0 h7 m24,0 h7 m16,0 h7 m87,0 h7 m9,0 h4 m56,0 h7 m25,0 h7 m24,0 h7 m16,0 h7
M233,440.5 h7 m249,0 h7
M-1,441.5 h7 m249,0 h7 m-214,0 h5 m41,0 h7 m37,0 h7 m17,0 h7 m25,0 h7 m21,0 h7 m282,0 h1 m-512,0 h6 m296,0 h7 m41,0 h7 m37,0 h7 m17,0 h7 m25,0 h7 m21,0 h7 m13,0 h7
M32,442.5 h4 m26,0 h7 m9,0 h7 m30,0 h2 m62,0 h7 m24,0 h7 m117,0 h7 m25,0 h6 m63,0 h7
M17,443.5 h7 m249,0 h7
M150,444.5 h7 m249,0 h7
M54,445.5 h7 m10,0 h7 m24,0 h7 m9,0 h7 m7,0 h7 m61,0 h7 m45,0 h2 m56,0 h6 m13,0 h5 m24,0 h7 m23,0 h7 m61,0 h7 m40,0 h7
M7,446.5 h7 m171,0 h7 m24,0 h7 m9,0 h7 m24,0 h7 m26,0 h6 m139,0 h7 m40,0 h7
M28,447.5 h7 m56,0 h7 m186,0 h7 m56,0 h7
M142,448.5 h7 m-134,0 h2 m62,0 h7 m40,0 h4 m27,0 h7 m234,0 h7 m-70,0 h7 m41,0 h3 m27,0 h7
M0,449.5 h7 m42,0 h3 m10,0 h6 m110,0 h5 m25,0 h7 m41,0 h7 m38,0 h7 m125,0 h6 m25,0 h3
M103,450.5 h7 m114,0 h7 m128,0 h7 m82,0 h7 m25,0 h7
M133,451.5 h7 m249,0 h7
M29,452.5 h5 m20,0 h7 m85,0 h7 m98,0 h5 m27,0 h7 m20,0 h7 m11,0 h7 m174,0 h3
M109,453.5 h6 m71,0 h6 m30,0 h3 m140,0 h7 m70,0 h7 m29,0 h3
M128,454.5 h6 m22,0 h7 m42,0 h3 m26,0 h7 m142,0 h7 m25,0 h4 m71,0 h6
M32,455.5 h7 m24,0 h3 m30,0 h6 m186,0 h7 m24,0 h7 m27,0 h5 m14,0 h7
M45,456.5 h7 m125,0 h7 m117,0 h7 m125,0 h7
M3,457.5 h7 m137,0 h6 m95,0 h7 m4,0 h7 m202,0 h7 m33,0 h3
M78,458.5 h2 m83,0 h7 m56,0 h7 m46,0 h5 m45,0 h7 m83,0 h3 m60,0 h7
M55,459.5 h7 m249,0 h7 m74,0 h7
M9,460.5 h7 m27,0 h7 m54,0 h7 m7,0 h7 m78,0 h6 m56,0 h7 m27,0 h7 m54,0 h7 m95,0 h4
M29,461.5 h7 m134,0 h7 m7,0 h7 m30,0 h3 m10,0 h7 m44,0 h7 m46,0 h4 m84,0 h7 m7,0 h7 m26,0 h7 m10,0 h7
M125,462.5 h7 m20,0 h7 m87,0 h7 m131,0 h4 m24,0 h3 m91,0 h3
M18,463.5 h7 m36,0 h7 m28,0 h7 m171,0 h7 m36,0 h7 m28,0 h7
M192,464.5 h7 m249,0 h5
M5,465.5 h7 m26,0 h7 m27,0 h7 m56,0 h2 m24,0 h4 m11,0 h7 m78,0 h7 m26,0 h2 m32,0 h7 m56,0 h7 m19,0 h7 m8,0 h7
M53,466.5 h7 m34,0 h2 m8,0 h7 m10,0 h7 m18,0 h7 m54,0 h7 m7,0 h7 m81,0 h7 m29,0 h7 m8,0 h7 m35,0 h7 m54,0 h7 m7,0 h7
M26,467.5 h7 m204,0 h5 m13,0 h2 m-263,0 h7 m281,0 h7 m204,0 h7 m6,0 h6 m-512,0 h1
M65,469.5 h7 m42,0 h7 m62,0 h7 m7,0 h7 m25,0 h7 m85,0 h7 m42,0 h3 m50,0 h7 m9,0 h5 m11,0 h5 m25,0 h7
M4,470.5 h6 m5,0 h7 m108,0 h7 m122,0 h7 m5,0 h3 m112,0 h7
M74,471.5 h7 m5,0 h6 m66,0 h7 m42,0 h7 m-67,0 h7 m176,0 h7 m5,0 h7 m65,0 h7 m42,0 h7 m-67,0 h7
M56,472.5 h7 m-32,0 h7 m181,0 h5 m88,0 h6 m-31,0 h7 m181,0 h2
M253,473.5 h5 m-152,0 h7 m123,0 h5 m121,0 h7 m24,0 h7 m92,0 h7
M19,474.5 h7 m92,0 h7 m74,0 h7 m168,0 h7 m43,0 h7 m24,0 h7
M80,475.5 h7 m98,0 h7 m144,0 h7
M70,476.5 h2 m141,0 h7 m249,0 h5 m25,0 h6
M9,477.5 h5 m38,0 h7 m70,0 h4 m44,0 h7 m81,0 h7 m36,0 h7 m70,0 h7 m41,0 h7 m47,0 h4
M30,478.5 h7 m111,0 h7 m6,0 h7 m24,0 h2 m93,0 h6 m70,0 h7 m34,0 h7
M76,479.5 h7 m171,0 h7 m71,0 h7
M45,480.5 h7 m70,0 h7 m78,0 h7 m87,0 h7 m-35,0 h2 m103,0 h7 m78,0 h7
M102,481.5 h5 m135,0 h7 m112,0 h2 m135,0 h7
M72,482.5 h4 m81,0 h7 m163,0 h5 m81,0 h3
M6,483.5 h5 m46,0 h2 m109,0 h7 m4,0 h7 m47,0 h4 m25,0 h7 m44,0 h4 m53,0 h7 m58,0 h7 m11,0 h7 m26,0 h7
M26,484.5 h7 m5,0 h7 m46,0 h7 m30,0 h7 m10,0 h7 m130,0 h7 m5,0 h7 m46,0 h2 m35,0 h7 m14,0 h3
M-3,485.5 h7 m249,0 h7 m-213,0 h7 m25,0 h7 m102,0 h3 m318,0 h3 m-512,0 h4 m299,0 h7 m25,0 h7 m102,0 h7
M204,486.5 h7 m8,0 h7 m13,0 h7 m26,0 h7 m181,0 h7 m8,0 h7 m13,0 h7
M103,487.5 h6 m46,0 h7 m-25,0 h7 m215,0 h7 m45,0 h7
M69,488.5 h6 m43,0 h7 m199,0 h7 m43,0 h7
M86,489.5 h7 m72,0 h7 m13,0 h7 m20,0 h7 m123,0 h7 m92,0 h7 m20,0 h7
M9,490.5 h5 m11,0 h7 m8,0 h7 m9,0 h7 m112,0 h7 m51,0 h7 m25,0 h7 m9,0 h7 m8,0 h7 m9,0 h7 m112,0 h7 m51,0 h7 m9,0 h7
M94,491.5 h7 m28,0 h7 m7,0 h2 m205,0 h7 m28,0 h7 m11,0 h3
M63,492.5 h5 m40,0 h7 m77,0 h7 m24,0 h7 m89,0 h7 m38,0 h4 m111,0 h7
M1,493.5 h7 m25,0 h7 m39,0 h7 m71,0 h5 m100,0 h2 m25,0 h7 m39,0 h7 m69,0 h7
M17,494.5 h7 m25,0 h7 m63,0 h7 m77,0 h7 m31,0 h7 m25,0 h7 m25,0 h7 m68,0 h2 m78,0 h6 m31,0 h7
M215,495.5 h7 m-122,0 h7 m76,0 h7 m281,0 h7 m-122,0 h7 m76,0 h7
M164,496.5 h4 m-36,0 h7 m186,0 h7 m88,0 h7 m-39,0 h7
M25,497.5 h7 m196,0 h5 m48,0 h7 m194,0 h7 m19,0 h4
M81,498.5 h2 m75,0 h2 m18,0 h4 m150,0 h4 m11,0 h6 m56,0 h7 m15,0 h7
M109,499.5 h7 m6,0 h7 m13,0 h4 m45,0 h7 m11,0 h7 m163,0 h6 m13,0 h7 m60,0 h7
M2,500.5 h7 m7,0 h7 m27,0 h7 m185,0 h7 m11,0 h5 m11,0 h3 m27,0 h7
M33,501.5 h4 m27,0 h5 m30,0 h7 m25,0 h7 m63,0 h7 m24,0 h7 m50,0 h4 m27,0 h7 m28,0 h7 m25,0 h7 m64,0 h6 m24,0 h7
M429,502.5 h4
M79,503.5 h7 m74,0 h5
M3,504.5 h7 m39,0 h2 m-25,0 h5 m26,0 h7 m43,0 h7 m67,0 h7 m71,0 h7 m39,0 h2 m-27,0 h7 m26,0 h4 m46,0 h6 m68,0 h7
M139,505.5 h7 m5,0 h7 m36,0 h7 m148,0 h5 m25,0 h7 m9,0 h7 m5,0 h7 m36,0 h7
M14,506.5 h2 m213,0 h7 m7,0 h7 m236,0 h6
M113,507.5 h4 m-52,0 h7 m9,0 h4 m119,0 h7 m158,0 h7 m84,0 h7
M34,508.5 h4 m149,0 h2 m101,0 h7 m146,0 h7
M2,509.5 h7 m42,0 h7 m40,0 h7 m25,0 h7 m121,0 h7 m42,0 h7 m40,0 h7 m25,0 h7 m35,0 h5
M74,510.5 h7 m66,0 h7 m5,0 h7 m67,0 h7 m90,0 h7 m70,0 h3 m5,0 h2 m72,0 h7
M104,511.5 h7 m99,0 h7 m-39,0 h7 m64,0 h7 m23,0 h7 m74,0 h7 m99,0 h7 m-39,0 h7 m64,0 h7"/>
</svg>
