<svg xmlns="http://www.w3.org/2000/svg" width="256" height="256" viewBox="0 0 256 256">
  <rect id="mapnik_workaround" width="256" height="256" fill="none"/>
  <path stroke="#4aa5fa" stroke-width=".8" d="
M151,47.5 h7 m25,0 h7 m16,0 h7 m16,0 h7 m-229,0 h7
M21,48.5 h7 m57,0 h7 m14,0 h7
M73,49.5 h7 m44,0 h7
M164,50.5 h7 m5,0 h7 m72,0 h1 m-256,0 h6
M203,51.5 h7 m11,0 h7 m-186,0 h7 m5,0 h7 m38,0 h7
M148,52.5 h7 m33,0 h7 m41,0 h7 m-211,0 h7 m77,0 h7 m8,0 h7
M247,53.5 h7 m-191,0 h7 m11,0 h7
M156,54.5 h7 m-141,0 h7
M196,55.5 h7 m-193,0 h7 m74,0 h7
M207,56.5 h7 m6,0 h7 m7,0 h7 m-169,0 h7 m31,0 h7 m21,0 h7
M167,57.5 h7 m2,0 h7 m70,0 h3 m-256,0 h4 m35,0 h7
M26,58.5 h7 m20,0 h7 m38,0 h7 m23,0 h7
M156,59.5 h7 m25,0 h7
M144,60.5 h7 m62,0 h7 m8,0 h7 m10,0 h7 m-190,0 h7
M198,61.5 h7 m-197,0 h7 m4,0 h7 m18,0 h7 m38,0 h7 m25,0 h7
M178,62.5 h7 m-110,0 h7 m25,0 h7
M166,63.5 h7
M233,64.5 h7 m-240,0 h7 m24,0 h7 m29,0 h7
M145,65.5 h7 m3,0 h7 m22,0 h7 m10,0 h7 m13,0 h7 m-186,0 h7 m5,0 h7 m21,0 h7 m10,0 h7 m8,0 h7 m13,0 h7
M245,66.5 h7 m-240,0 h7
M213,67.5 h7
M173,68.5 h7 m-157,0 h7
M191,69.5 h7 m39,0 h7 m8,0 h4 m-256,0 h3 m54,0 h7 m9,0 h7 m9,0 h7 m25,0 h7
M164,70.5 h7 m33,0 h7 m-178,0 h7 m65,0 h7 m25,0 h7
M154,71.5 h7 m-156,0 h7 m31,0 h7
M229,72.5 h7 m-140,0 h7 m25,0 h7
M174,73.5 h7 m13,0 h7 m13,0 h7 m-155,0 h7
M145,74.5 h7 m-129,0 h7 m22,0 h7 m56,0 h7
M182,75.5 h7 m55,0 h7 m-239,0 h7 m65,0 h7
M222,76.5 h7 m25,0 h2 m-256,0 h5 m69,0 h7 m54,0 h7
M165,77.5 h7 m33,0 h7 m23,0 h7 m-198,0 h7 m55,0 h7
M150,78.5 h7 m37,0 h7 m-172,0 h7 m25,0 h7 m26,0 h7 m23,0 h7
M182,79.5 h7 m25,0 h7
M7,80.5 h7 m4,0 h7
M157,81.5 h7 m7,0 h7 m-140,0 h7 m24,0 h7 m9,0 h7 m44,0 h7
M199,82.5 h7 m32,0 h7 m8,0 h3 m-256,0 h4 m49,0 h7 m41,0 h7 m8,0 h7
M226,83.5 h7
M149,84.5 h7 m25,0 h7 m25,0 h7 m-192,0 h7
M167,85.5 h7 m72,0 h7 m-240,0 h7 m25,0 h7 m25,0 h7 m8,0 h7 m25,0 h7
M63,86.5 h7 m35,0 h7 m24,0 h7
M201,87.5 h7
M157,88.5 h7 m27,0 h7 m39,0 h7 m-244,0 h7 m15,0 h7
M144,89.5 h7 m30,0 h7 m26,0 h7 m3,0 h7 m-193,0 h7 m9,0 h7 m20,0 h7 m38,0 h7
M11,90.5 h7 m77,0 h7 m10,0 h7
M164,91.5 h7 m-101,0 h7
M151,92.5 h7 m18,0 h7 m24,0 h7 m17,0 h7 m8,0 h7 m-223,0 h7
M193,93.5 h7 m-156,0 h7 m9,0 h7 m37,0 h7 m10,0 h7
M14,94.5 h7 m69,0 h7 m42,0 h7
M255,95.5 h1 m-256,0 h6 m72,0 h7
M202,96.5 h7 m29,0 h7 m-219,0 h7 m17,0 h7
M162,97.5 h7 m9,0 h7 m39,0 h7 m-164,0 h7 m25,0 h7 m23,0 h7
M149,98.5 h7 m58,0 h7 m-218,0 h7
M190,99.5 h7 m49,0 h7 m-135,0 h7
M17,100.5 h7 m9,0 h7 m5,0 h7 m7,0 h7 m10,0 h7 m25,0 h7
M140,101.5 h7 m54,0 h7 m25,0 h7 m-148,0 h7
M158,102.5 h7 m7,0 h7 m5,0 h7 m-64,0 h7
M216,103.5 h7 m-218,0 h7 m11,0 h7
M52,104.5 h7 m9,0 h7 m9,0 h7
M149,105.5 h7 m7,0 h7 m23,0 h7 m29,0 h7 m10,0 h7 m-218,0 h7 m73,0 h7
M207,106.5 h7 m-111,0 h7 m26,0 h7
M123,107.5 h7
M175,108.5 h7 m38,0 h7 m9,0 h7 m-239,0 h7 m3,0 h7 m23,0 h7 m9,0 h7 m9,0 h7 m8,0 h7
M186,109.5 h7
M154,110.5 h7 m37,0 h7 m45,0 h6 m-256,0 h1 m24,0 h7 m76,0 h7
M166,111.5 h7 m-76,0 h7 m30,0 h7
M207,112.5 h7 m6,0 h7 m13,0 h7 m-194,0 h7 m8,0 h7
M146,113.5 h7 m25,0 h7 m-153,0 h7 m83,0 h7
M191,114.5 h7 m-196,0 h7 m5,0 h7 m23,0 h7 m28,0 h7
M90,115.5 h7 m11,0 h7
M158,116.5 h7 m59,0 h7 m-94,0 h7
M169,117.5 h7 m34,0 h7 m20,0 h7 m7,0 h5 m-256,0 h2 m21,0 h7 m35,0 h7
M37,118.5 h7 m8,0 h7 m62,0 h7
M149,119.5 h7 m25,0 h7 m10,0 h7 m-125,0 h7 m10,0 h7 m8,0 h7
M130,120.5 h7
M219,121.5 h7 m16,0 h7 m-242,0 h7 m3,0 h7
M157,122.5 h7 m10,0 h7 m49,0 h7 m-209,0 h7 m9,0 h7 m10,0 h7 m22,0 h7
M187,123.5 h7 m14,0 h7 m38,0 h3 m-256,0 h4 m68,0 h7 m59,0 h7
M198,124.5 h7
M166,125.5 h7 m-74,0 h7 m6,0 h7
M151,126.5 h7 m58,0 h7 m21,0 h7 m-214,0 h7 m9,0 h7 m65,0 h7
M4,127.5 h7 m74,0 h7
M142,128.5 h7 m40,0 h7 m33,0 h7 m-221,0 h7 m6,0 h7 m38,0 h7
M157,129.5 h7 m10,0 h7 m23,0 h7 m-106,0 h7
M43,130.5 h7 m10,0 h7 m62,0 h7
M215,131.5 h7 m16,0 h7 m6,0 h5 m-256,0 h2 m113,0 h7
M166,132.5 h7 m10,0 h7 m-167,0 h7 m52,0 h7 m9,0 h7
M198,133.5 h7 m-199,0 h7 m35,0 h7 m80,0 h7
M145,134.5 h7 m78,0 h7 m-164,0 h7
M221,135.5 h7 m-214,0 h7 m38,0 h7 m22,0 h7
M160,136.5 h7 m7,0 h7 m25,0 h7 m40,0 h3 m-256,0 h4 m24,0 h7 m83,0 h7
M237,137.5 h7 m-147,0 h7
M149,138.5 h7 m40,0 h7 m-159,0 h7 m57,0 h7 m17,0 h7
M181,139.5 h7 m58,0 h7 m-218,0 h7 m26,0 h7
M212,140.5 h7 m8,0 h7 m-229,0 h7 m9,0 h7 m26,0 h7 m25,0 h7 m32,0 h7
M168,141.5 h7
M142,142.5 h7 m7,0 h7 m26,0 h7 m-120,0 h7
M202,143.5 h7 m-113,0 h7 m14,0 h7
M219,144.5 h7 m10,0 h7 m7,0 h6 m-256,0 h1 m31,0 h7 m25,0 h7
M181,145.5 h7 m-136,0 h7 m50,0 h7
M171,146.5 h7 m-173,0 h7 m8,0 h7 m60,0 h7
M153,147.5 h7 m51,0 h7 m11,0 h7 m-194,0 h7 m25,0 h7 m43,0 h7 m6,0 h7
M245,148.5 h7
M185,149.5 h7 m-180,0 h7 m10,0 h7 m70,0 h7
M161,150.5 h7 m31,0 h7 m-144,0 h7
M144,151.5 h7 m-102,0 h7 m24,0 h7 m11,0 h7 m13,0 h7 m5,0 h7
M211,152.5 h7 m13,0 h7
M171,153.5 h7 m66,0 h7 m-248,0 h7 m25,0 h7 m49,0 h7
M153,154.5 h7 m21,0 h7 m-172,0 h7 m45,0 h7
M191,155.5 h7 m4,0 h7 m10,0 h7 m-115,0 h7
M142,156.5 h7 m13,0 h7 m-39,0 h7
M229,157.5 h7 m-236,0 h7 m14,0 h7 m11,0 h7 m6,0 h7 m20,0 h7 m13,0 h7
M241,158.5 h7 m-185,0 h7
M120,159.5 h7
M153,160.5 h7 m11,0 h7 m7,0 h7 m17,0 h7 m-204,0 h7 m12,0 h7 m50,0 h7
M140,161.5 h7 m74,0 h7 m-185,0 h7 m22,0 h7 m24,0 h7
M245,162.5 h7 m-193,0 h7
M161,163.5 h7 m25,0 h7 m-196,0 h7 m11,0 h7
M202,164.5 h7 m20,0 h7 m-126,0 h7 m13,0 h7
M150,165.5 h7 m25,0 h7 m25,0 h7 m30,0 h5 m-256,0 h2 m46,0 h7 m23,0 h7 m6,0 h7 m21,0 h7
M238,166.5 h7 m-215,0 h7
M170,167.5 h7 m-163,0 h7 m81,0 h7
M158,168.5 h7 m25,0 h7 m-137,0 h7
M142,169.5 h7 m-107,0 h7 m22,0 h7 m8,0 h7
M205,170.5 h7 m7,0 h7 m-220,0 h7 m117,0 h7
M174,171.5 h7 m49,0 h7 m12,0 h7 m-232,0 h7 m87,0 h7
M37,172.5 h7 m10,0 h7 m42,0 h7
M150,173.5 h7 m37,0 h7 m38,0 h7
M162,174.5 h7 m11,0 h7 m24,0 h7 m-201,0 h7 m66,0 h7
M142,175.5 h7 m-85,0 h7 m5,0 h7 m28,0 h7 m11,0 h7
M246,176.5 h7 m-247,0 h7 m84,0 h7
M170,177.5 h7 m25,0 h7 m7,0 h7 m8,0 h7 m-216,0 h7 m7,0 h7 m8,0 h7
M188,178.5 h7 m-112,0 h7
M151,179.5 h7 m-157,0 h7 m113,0 h7
M162,180.5 h7 m-108,0 h7 m68,0 h7
M224,181.5 h7 m8,0 h7 m-200,0 h7 m43,0 h7 m8,0 h7
M183,182.5 h7 m9,0 h7 m-192,0 h7 m7,0 h7 m45,0 h7
M0,183.5 h7 m62,0 h7
M154,184.5 h7 m10,0 h7 m37,0 h7 m-183,0 h7 m89,0 h7
M203,185.5 h7 m20,0 h7 m9,0 h7 m-196,0 h7 m23,0 h7 m25,0 h7
M12,186.5 h7 m88,0 h7
M179,187.5 h7
M151,188.5 h7 m8,0 h7 m49,0 h7 m-199,0 h7 m7,0 h7 m45,0 h7 m23,0 h7 m6,0 h7
M186,189.5 h7 m61,0 h2 m-256,0 h5 m63,0 h7
M201,190.5 h7 m6,0 h7 m14,0 h7 m-220,0 h7 m26,0 h7
M11,191.5 h7 m70,0 h7 m11,0 h7
M190,192.5 h7 m49,0 h7 m-179,0 h7 m41,0 h7
M154,193.5 h7 m-22,0 h7
M163,194.5 h7 m9,0 h7 m-152,0 h7 m7,0 h7 m7,0 h7
M208,195.5 h7 m9,0 h7 m7,0 h7 m-245,0 h7 m89,0 h7 m8,0 h7
M194,196.5 h7 m-188,0 h7 m5,0 h7 m49,0 h7 m41,0 h7
M148,197.5 h7 m16,0 h7
M217,198.5 h7 m23,0 h7 m-210,0 h7 m20,0 h7
M201,199.5 h7 m-151,0 h7 m25,0 h7 m7,0 h7 m10,0 h7
M5,200.5 h7 m23,0 h7 m92,0 h7
M165,201.5 h7 m7,0 h7 m50,0 h7
M147,202.5 h7 m68,0 h7 m22,0 h5 m-256,0 h2 m112,0 h7
M188,203.5 h7 m-184,0 h7 m9,0 h7 m17,0 h7 m8,0 h7 m9,0 h7
M157,204.5 h7 m37,0 h7 m5,0 h7 m-120,0 h7
M173,205.5 h7 m49,0 h7 m-197,0 h7 m79,0 h7 m7,0 h7
M244,206.5 h7 m-231,0 h7 m64,0 h7
M150,207.5 h7 m-96,0 h7 m6,0 h7 m26,0 h7
M195,208.5 h7
M163,209.5 h7 m13,0 h7 m32,0 h7 m8,0 h7 m9,0 h3 m-256,0 h4 m5,0 h7 m31,0 h7 m63,0 h7 m9,0 h7
M29,210.5 h7
M212,211.5 h7 m-136,0 h7
M140,212.5 h7 m24,0 h7 m24,0 h7 m-191,0 h7 m15,0 h7 m8,0 h7 m8,0 h7 m16,0 h7
M153,213.5 h7 m69,0 h7 m-131,0 h7 m10,0 h7
M192,214.5 h7 m42,0 h7 m-241,0 h7
M180,215.5 h7 m65,0 h4 m-256,0 h3 m27,0 h7
M163,216.5 h7 m-97,0 h7 m52,0 h7
M149,217.5 h7 m53,0 h7 m-165,0 h7 m26,0 h7 m21,0 h7
M230,218.5 h7 m-215,0 h7 m73,0 h7
M172,219.5 h7 m7,0 h7 m25,0 h7 m-217,0 h7 m25,0 h7 m21,0 h7 m49,0 h7
M141,220.5 h7 m54,0 h7 m39,0 h7 m-198,0 h7 m28,0 h7
M159,221.5 h7
M194,222.5 h7 m38,0 h7 m-245,0 h7 m24,0 h7 m76,0 h7
M178,223.5 h7 m41,0 h7 m-216,0 h7 m108,0 h7
M51,224.5 h7 m12,0 h7 m8,0 h7 m9,0 h7
M156,225.5 h7 m52,0 h7
M140,226.5 h7 m24,0 h7 m23,0 h7 m26,0 h7 m-218,0 h7 m10,0 h7 m16,0 h7
M187,227.5 h7 m54,0 h7 m-245,0 h7 m60,0 h7 m24,0 h7 m9,0 h7
M92,228.5 h7
M209,229.5 h7
M149,230.5 h7 m9,0 h7 m53,0 h7 m-231,0 h7 m24,0 h7 m16,0 h7
M117,231.5 h7
M186,232.5 h7 m41,0 h7 m-219,0 h7 m17,0 h7 m25,0 h7 m21,0 h7 m13,0 h7 m6,0 h7
M172,233.5 h7 m23,0 h7 m9,0 h7 m25,0 h6 m-256,0 h1 m62,0 h7 m24,0 h7
M157,234.5 h7
M34,235.5 h7
M194,236.5 h7 m10,0 h7 m24,0 h7 m-247,0 h7 m7,0 h7 m61,0 h7 m40,0 h7
M147,237.5 h7 m25,0 h7 m-133,0 h7 m9,0 h7 m24,0 h7 m9,0 h7
M168,238.5 h7 m56,0 h7
M155,239.5 h7 m57,0 h7 m-219,0 h7 m12,0 h7 m8,0 h7
M140,240.5 h7 m38,0 h7 m10,0 h7 m-149,0 h7 m25,0 h7
M243,241.5 h7 m-174,0 h7 m25,0 h7 m9,0 h7
M17,242.5 h7
M167,243.5 h7 m20,0 h7 m11,0 h7 m-189,0 h7 m12,0 h7 m77,0 h7
M155,244.5 h7 m63,0 h7 m17,0 h7 m-186,0 h7 m25,0 h7
M11,245.5 h7 m22,0 h7 m38,0 h7 m26,0 h7
M172,246.5 h7 m24,0 h7 m25,0 h7 m-242,0 h7
M185,247.5 h7 m-131,0 h7
M143,248.5 h7 m-120,0 h7 m59,0 h7 m29,0 h7
M161,249.5 h7 m45,0 h7 m9,0 h7 m-189,0 h7 m24,0 h7 m25,0 h7
M195,250.5 h7 m-182,0 h7
M149,251.5 h7 m27,0 h7 m54,0 h7 m-249,0 h7 m78,0 h7
M169,252.5 h7 m46,0 h7 m-175,0 h7 m7,0 h7 m26,0 h7 m10,0 h7
M9,253.5 h7 m20,0 h7 m87,0 h7
M158,254.5 h7 m36,0 h7 m28,0 h7
M76,255.5 h7
M145,0.5 h7 m26,0 h7 m27,0 h7 m-200,0 h7 m19,0 h7 m8,0 h7
M193,1.5 h7 m29,0 h7 m8,0 h7 m-246,0 h7 m18,0 h7 m54,0 h7 m7,0 h7
M166,2.5 h7 m-52,0 h7 m6,0 h7
M205,4.5 h7 m42,0 h2 m-256,0 h5 m46,0 h7 m9,0 h7 m7,0 h7 m25,0 h7
M143,5.5 h7 m5,0 h7 m22,0 h7 m-177,0 h7
M214,6.5 h7 m5,0 h7 m-202,0 h7 m4,0 h7 m42,0 h7
M171,7.5 h7 m18,0 h7 m32,0 h7 m-139,0 h7
M246,8.5 h7 m-232,0 h7 m92,0 h7 m8,0 h7
M159,9.5 h7 m14,0 h7 m-185,0 h7 m43,0 h7 m24,0 h7
M220,10.5 h7 m-158,0 h7
M205,11.5 h7 m-115,0 h7 m23,0 h7
M149,12.5 h7 m36,0 h7 m-186,0 h7 m41,0 h7 m44,0 h7
M170,13.5 h7 m55,0 h7 m8,0 h7 m-222,0 h7 m6,0 h7 m24,0 h7
M216,14.5 h7 m-201,0 h7 m109,0 h7
M157,15.5 h7 m21,0 h7 m-186,0 h7 m78,0 h7 m8,0 h7
M240,16.5 h7 m-121,0 h7
M209,17.5 h7 m-175,0 h7
M146,18.5 h7 m44,0 h7 m50,0 h2 m-256,0 h5 m47,0 h7 m4,0 h7 m11,0 h7 m26,0 h7
M166,19.5 h7 m5,0 h7 m46,0 h7 m-226,0 h7 m10,0 h7
M187,20.5 h7 m25,0 h7 m-154,0 h7 m58,0 h7
M156,21.5 h7 m-75,0 h7 m8,0 h7 m13,0 h7
M243,22.5 h7 m-229,0 h7 m11,0 h7
M208,23.5 h7 m-213,0 h7
M226,24.5 h7 m-184,0 h7 m13,0 h7 m20,0 h7
M149,25.5 h7 m9,0 h7 m8,0 h7 m9,0 h7 m-144,0 h7 m51,0 h7 m9,0 h7
M234,26.5 h7 m-228,0 h7 m7,0 h7
M203,27.5 h7 m38,0 h7 m-179,0 h7 m24,0 h7
M141,28.5 h7 m25,0 h7 m39,0 h7 m-187,0 h7
M157,29.5 h7 m25,0 h7 m-193,0 h7 m77,0 h7 m31,0 h7
M240,30.5 h7 m-180,0 h7 m25,0 h7
M209,31.5 h7 m-200,0 h7 m25,0 h7
M165,32.5 h7 m8,0 h7 m-77,0 h7 m16,0 h7
M216,33.5 h7 m7,0 h7 m-200,0 h7 m15,0 h7
M249,34.5 h7 m-250,0 h7 m13,0 h7 m42,0 h7 m11,0 h7
M142,35.5 h7 m7,0 h7 m27,0 h7 m-71,0 h7
M173,36.5 h7 m24,0 h7 m28,0 h7 m-231,0 h7 m63,0 h7 m24,0 h7
M54,37.5 h7 m42,0 h7
M219,38.5 h7 m-182,0 h7
M143,39.5 h7 m14,0 h7 m13,0 h7 m6,0 h7 m43,0 h7 m-189,0 h7
M231,40.5 h7 m-231,0 h7 m9,0 h7 m5,0 h7 m36,0 h7
M154,41.5 h7 m-48,0 h7 m7,0 h7
M205,42.5 h7 m9,0 h7 m25,0 h3 m-256,0 h4 m84,0 h7
M174,43.5 h7 m-110,0 h7 m24,0 h7
M142,44.5 h7 m42,0 h7 m40,0 h7 m-231,0 h7 m33,0 h7
M214,45.5 h7 m-190,0 h7 m5,0 h7 m67,0 h7
M163,46.5 h7 m74,0 h7 m-189,0 h7 m25,0 h7 m32,0 h7"/>
</svg>
