<svg xmlns="http://www.w3.org/2000/svg" xmlns:xlink="http://www.w3.org/1999/xlink" width="512" height="512" viewBox="0 0 512 512">
  <defs>
    <path id="marsh1" fill="#73b386" d="m4.75,-1.25 c0,.25 -.25,1.25 -.5,2.5 s-.25,1.75 0,3.25 c-.25,0 -.8662,-.17 -1.25,-.25 .5,-.5 -.25,-1.5 .75,-4 .25,-.75 .25,-1 1,-1.5 z m-8.5,.75 c0,.25 .25,.5 .5,1.25 .25,2 .22479,1.99 .25,3.75 .5,-.25 .8662,-.17 1.25,-.25 0,-1.25 0,-3.25 -1.25,-4.25 -.25,-.25 -.25,-.25 -.75,-.5 z m6.25,-1.75 c-.25,0 -.5,.25 -.75,.75 -.75,2 -.5,4.25 -.75,5.5 .5,0 1,.25 1.5,.25 -.5,-1 -.25,-1.5 -.25,-4.75 0,-1 0,-.75 .25,-1.75 z m-4,-1 c0,.75 0,1 .25,2.25 0,1 .75,3.75 0,5.25 .5,0 1,-.25 1.5,-.25 .25,-2.5 -.25,-4 -1,-6 -.25,-.75 -.25,-1 -.75,-1.25 z"/>
    <path id="marsh2" fill="#73b386" d="m-3.5,-1.25 c0,.25 .25,1.25 .5,2.5 s.25,1.75 0,3.25 c.25,0 .8662,-.17 1.25,-.25 -.5,-.5 .25,-1.5 -.75,-4 -.25,-.75 -.25,-1 -1,-1.5 z m8.5,.75 c0,.25 -.25,.5 -.5,1.25 -.25,2 -.22479,1.99 -.25,3.75 -.5,-.25 -.8662,-.17 -1.25,-.25 0,-1.25 0,-3.25 1.25,-4.25 .25,-.25 .25,-.25 .75,-.5 z m-6.25,-1.75 c.25,0 .5,.25 .75,.75 .75,2 .5,4.25 .75,5.5 -.5,0 -1,.25 -1.5,.25 .5,-1 .25,-1.5 .25,-4.75 0,-1 0,-.75 -.25,-1.75 z m4,-1 c0,.75 0,1 -.25,2.25 0,1 -.75,3.75 0,5.25 -.5,0 -1,-.25 -1.5,-.25 -.25,-2.5 .25,-4 1,-6 .25,-.75 .25,-1 .75,-1.25 z"/>
  </defs>
  <use x="15" y="23" xlink:href="#marsh1"/>
  <use x="37" y="17" xlink:href="#marsh1"/>
  <use x="80" y="23" xlink:href="#marsh1"/>
  <use x="131" y="21" xlink:href="#marsh1"/>
  <use x="200" y="3" xlink:href="#marsh1"/>
  <use x="200" y="515" xlink:href="#marsh1"/>
  <use x="243" y="7" xlink:href="#marsh1"/>
  <use x="260" y="22" xlink:href="#marsh1"/>
  <use x="291" y="2" xlink:href="#marsh1"/>
  <use x="291" y="514" xlink:href="#marsh1"/>
  <use x="363" y="14" xlink:href="#marsh1"/>
  <use x="426" y="22" xlink:href="#marsh1"/>
  <use x="456" y="3" xlink:href="#marsh1"/>
  <use x="456" y="515" xlink:href="#marsh1"/>
  <use x="508" y="511" xlink:href="#marsh1"/>
  <use x="-4" y="511" xlink:href="#marsh1"/>
  <use x="-4" y="-1" xlink:href="#marsh1"/>
  <use x="508" y="-1" xlink:href="#marsh1"/>
  <use x="511" y="25" xlink:href="#marsh1"/>
  <use x="-1" y="25" xlink:href="#marsh1"/>
  <use x="59" y="36" xlink:href="#marsh1"/>
  <use x="154" y="42" xlink:href="#marsh1"/>
  <use x="172" y="33" xlink:href="#marsh1"/>
  <use x="195" y="28" xlink:href="#marsh1"/>
  <use x="218" y="42" xlink:href="#marsh1"/>
  <use x="236" y="34" xlink:href="#marsh1"/>
  <use x="351" y="35" xlink:href="#marsh1"/>
  <use x="398" y="29" xlink:href="#marsh1"/>
  <use x="433" y="41" xlink:href="#marsh1"/>
  <use x="487" y="35" xlink:href="#marsh1"/>
  <use x="4" y="48" xlink:href="#marsh1"/>
  <use x="516" y="48" xlink:href="#marsh1"/>
  <use x="57" y="59" xlink:href="#marsh1"/>
  <use x="135" y="52" xlink:href="#marsh1"/>
  <use x="180" y="63" xlink:href="#marsh1"/>
  <use x="198" y="53" xlink:href="#marsh1"/>
  <use x="356" y="61" xlink:href="#marsh1"/>
  <use x="381" y="55" xlink:href="#marsh1"/>
  <use x="423" y="63" xlink:href="#marsh1"/>
  <use x="496" y="53" xlink:href="#marsh1"/>
  <use x="21" y="87" xlink:href="#marsh1"/>
  <use x="44" y="76" xlink:href="#marsh1"/>
  <use x="82" y="87" xlink:href="#marsh1"/>
  <use x="104" y="82" xlink:href="#marsh1"/>
  <use x="121" y="77" xlink:href="#marsh1"/>
  <use x="200" y="87" xlink:href="#marsh1"/>
  <use x="225" y="82" xlink:href="#marsh1"/>
  <use x="291" y="78" xlink:href="#marsh1"/>
  <use x="312" y="86" xlink:href="#marsh1"/>
  <use x="374" y="77" xlink:href="#marsh1"/>
  <use x="411" y="82" xlink:href="#marsh1"/>
  <use x="438" y="80" xlink:href="#marsh1"/>
  <use x="455" y="89" xlink:href="#marsh1"/>
  <use x="485" y="84" xlink:href="#marsh1"/>
  <use x="16" y="108" xlink:href="#marsh1"/>
  <use x="85" y="106" xlink:href="#marsh1"/>
  <use x="165" y="108" xlink:href="#marsh1"/>
  <use x="191" y="105" xlink:href="#marsh1"/>
  <use x="215" y="107" xlink:href="#marsh1"/>
  <use x="257" y="112" xlink:href="#marsh1"/>
  <use x="311" y="106" xlink:href="#marsh1"/>
  <use x="347" y="109" xlink:href="#marsh1"/>
  <use x="354" y="93" xlink:href="#marsh1"/>
  <use x="411" y="108" xlink:href="#marsh1"/>
  <use x="427" y="105" xlink:href="#marsh1"/>
  <use x="482" y="103" xlink:href="#marsh1"/>
  <use x="53" y="130" xlink:href="#marsh1"/>
  <use x="73" y="133" xlink:href="#marsh1"/>
  <use x="169" y="130" xlink:href="#marsh1"/>
  <use x="244" y="134" xlink:href="#marsh1"/>
  <use x="267" y="131" xlink:href="#marsh1"/>
  <use x="292" y="124" xlink:href="#marsh1"/>
  <use x="328" y="118" xlink:href="#marsh1"/>
  <use x="363" y="125" xlink:href="#marsh1"/>
  <use x="392" y="119" xlink:href="#marsh1"/>
  <use x="406" y="133" xlink:href="#marsh1"/>
  <use x="482" y="126" xlink:href="#marsh1"/>
  <use x="501" y="137" xlink:href="#marsh1"/>
  <use x="30" y="150" xlink:href="#marsh1"/>
  <use x="86" y="148" xlink:href="#marsh1"/>
  <use x="225" y="145" xlink:href="#marsh1"/>
  <use x="296" y="146" xlink:href="#marsh1"/>
  <use x="325" y="158" xlink:href="#marsh1"/>
  <use x="339" y="141" xlink:href="#marsh1"/>
  <use x="360" y="146" xlink:href="#marsh1"/>
  <use x="379" y="156" xlink:href="#marsh1"/>
  <use x="397" y="153" xlink:href="#marsh1"/>
  <use x="424" y="144" xlink:href="#marsh1"/>
  <use x="500" y="160" xlink:href="#marsh1"/>
  <use x="31" y="182" xlink:href="#marsh1"/>
  <use x="52" y="168" xlink:href="#marsh1"/>
  <use x="126" y="177" xlink:href="#marsh1"/>
  <use x="186" y="169" xlink:href="#marsh1"/>
  <use x="221" y="177" xlink:href="#marsh1"/>
  <use x="242" y="175" xlink:href="#marsh1"/>
  <use x="291" y="167" xlink:href="#marsh1"/>
  <use x="307" y="181" xlink:href="#marsh1"/>
  <use x="355" y="172" xlink:href="#marsh1"/>
  <use x="23" y="205" xlink:href="#marsh1"/>
  <use x="46" y="193" xlink:href="#marsh1"/>
  <use x="87" y="204" xlink:href="#marsh1"/>
  <use x="109" y="196" xlink:href="#marsh1"/>
  <use x="131" y="200" xlink:href="#marsh1"/>
  <use x="186" y="196" xlink:href="#marsh1"/>
  <use x="220" y="201" xlink:href="#marsh1"/>
  <use x="245" y="199" xlink:href="#marsh1"/>
  <use x="309" y="205" xlink:href="#marsh1"/>
  <use x="331" y="199" xlink:href="#marsh1"/>
  <use x="458" y="185" xlink:href="#marsh1"/>
  <use x="471" y="196" xlink:href="#marsh1"/>
  <use x="509" y="201" xlink:href="#marsh1"/>
  <use x="-3" y="201" xlink:href="#marsh1"/>
  <use x="17" y="224" xlink:href="#marsh1"/>
  <use x="41" y="219" xlink:href="#marsh1"/>
  <use x="59" y="217" xlink:href="#marsh1"/>
  <use x="83" y="224" xlink:href="#marsh1"/>
  <use x="164" y="229" xlink:href="#marsh1"/>
  <use x="222" y="222" xlink:href="#marsh1"/>
  <use x="255" y="218" xlink:href="#marsh1"/>
  <use x="275" y="229" xlink:href="#marsh1"/>
  <use x="367" y="219" xlink:href="#marsh1"/>
  <use x="400" y="217" xlink:href="#marsh1"/>
  <use x="445" y="212" xlink:href="#marsh1"/>
  <use x="492" y="216" xlink:href="#marsh1"/>
  <use x="17" y="248" xlink:href="#marsh1"/>
  <use x="39" y="245" xlink:href="#marsh1"/>
  <use x="65" y="245" xlink:href="#marsh1"/>
  <use x="104" y="248" xlink:href="#marsh1"/>
  <use x="128" y="253" xlink:href="#marsh1"/>
  <use x="284" y="246" xlink:href="#marsh1"/>
  <use x="312" y="250" xlink:href="#marsh1"/>
  <use x="475" y="244" xlink:href="#marsh1"/>
  <use x="51" y="262" xlink:href="#marsh1"/>
  <use x="120" y="276" xlink:href="#marsh1"/>
  <use x="147" y="268" xlink:href="#marsh1"/>
  <use x="181" y="271" xlink:href="#marsh1"/>
  <use x="204" y="257" xlink:href="#marsh1"/>
  <use x="225" y="269" xlink:href="#marsh1"/>
  <use x="249" y="268" xlink:href="#marsh1"/>
  <use x="292" y="266" xlink:href="#marsh1"/>
  <use x="337" y="263" xlink:href="#marsh1"/>
  <use x="400" y="275" xlink:href="#marsh1"/>
  <use x="412" y="256" xlink:href="#marsh1"/>
  <use x="431" y="273" xlink:href="#marsh1"/>
  <use x="454" y="270" xlink:href="#marsh1"/>
  <use x="476" y="260" xlink:href="#marsh1"/>
  <use x="500" y="254" xlink:href="#marsh1"/>
  <use x="0" y="296" xlink:href="#marsh1"/>
  <use x="512" y="296" xlink:href="#marsh1"/>
  <use x="32" y="295" xlink:href="#marsh1"/>
  <use x="49" y="283" xlink:href="#marsh1"/>
  <use x="95" y="302" xlink:href="#marsh1"/>
  <use x="174" y="298" xlink:href="#marsh1"/>
  <use x="237" y="288" xlink:href="#marsh1"/>
  <use x="264" y="292" xlink:href="#marsh1"/>
  <use x="317" y="295" xlink:href="#marsh1"/>
  <use x="336" y="284" xlink:href="#marsh1"/>
  <use x="381" y="282" xlink:href="#marsh1"/>
  <use x="458" y="297" xlink:href="#marsh1"/>
  <use x="475" y="283" xlink:href="#marsh1"/>
  <use x="15" y="312" xlink:href="#marsh1"/>
  <use x="76" y="321" xlink:href="#marsh1"/>
  <use x="111" y="310" xlink:href="#marsh1"/>
  <use x="147" y="315" xlink:href="#marsh1"/>
  <use x="180" y="317" xlink:href="#marsh1"/>
  <use x="198" y="307" xlink:href="#marsh1"/>
  <use x="298" y="313" xlink:href="#marsh1"/>
  <use x="336" y="312" xlink:href="#marsh1"/>
  <use x="358" y="313" xlink:href="#marsh1"/>
  <use x="379" y="310" xlink:href="#marsh1"/>
  <use x="422" y="318" xlink:href="#marsh1"/>
  <use x="442" y="313" xlink:href="#marsh1"/>
  <use x="501" y="313" xlink:href="#marsh1"/>
  <use x="43" y="347" xlink:href="#marsh1"/>
  <use x="54" y="326" xlink:href="#marsh1"/>
  <use x="84" y="336" xlink:href="#marsh1"/>
  <use x="103" y="337" xlink:href="#marsh1"/>
  <use x="151" y="342" xlink:href="#marsh1"/>
  <use x="195" y="336" xlink:href="#marsh1"/>
  <use x="219" y="343" xlink:href="#marsh1"/>
  <use x="289" y="330" xlink:href="#marsh1"/>
  <use x="342" y="333" xlink:href="#marsh1"/>
  <use x="440" y="336" xlink:href="#marsh1"/>
  <use x="461" y="332" xlink:href="#marsh1"/>
  <use x="480" y="328" xlink:href="#marsh1"/>
  <use x="504" y="340" xlink:href="#marsh1"/>
  <use x="7" y="369" xlink:href="#marsh1"/>
  <use x="105" y="365" xlink:href="#marsh1"/>
  <use x="134" y="360" xlink:href="#marsh1"/>
  <use x="199" y="360" xlink:href="#marsh1"/>
  <use x="222" y="365" xlink:href="#marsh1"/>
  <use x="245" y="353" xlink:href="#marsh1"/>
  <use x="269" y="366" xlink:href="#marsh1"/>
  <use x="284" y="353" xlink:href="#marsh1"/>
  <use x="345" y="357" xlink:href="#marsh1"/>
  <use x="367" y="368" xlink:href="#marsh1"/>
  <use x="429" y="354" xlink:href="#marsh1"/>
  <use x="493" y="363" xlink:href="#marsh1"/>
  <use x="11" y="390" xlink:href="#marsh1"/>
  <use x="44" y="372" xlink:href="#marsh1"/>
  <use x="127" y="383" xlink:href="#marsh1"/>
  <use x="230" y="389" xlink:href="#marsh1"/>
  <use x="311" y="378" xlink:href="#marsh1"/>
  <use x="358" y="384" xlink:href="#marsh1"/>
  <use x="461" y="374" xlink:href="#marsh1"/>
  <use x="33" y="390" xlink:href="#marsh1"/>
  <use x="56" y="410" xlink:href="#marsh1"/>
  <use x="130" y="405" xlink:href="#marsh1"/>
  <use x="188" y="398" xlink:href="#marsh1"/>
  <use x="193" y="415" xlink:href="#marsh1"/>
  <use x="300" y="406" xlink:href="#marsh1"/>
  <use x="318" y="411" xlink:href="#marsh1"/>
  <use x="335" y="410" xlink:href="#marsh1"/>
  <use x="354" y="404" xlink:href="#marsh1"/>
  <use x="377" y="397" xlink:href="#marsh1"/>
  <use x="414" y="414" xlink:href="#marsh1"/>
  <use x="439" y="400" xlink:href="#marsh1"/>
  <use x="455" y="414" xlink:href="#marsh1"/>
  <use x="465" y="396" xlink:href="#marsh1"/>
  <use x="504" y="409" xlink:href="#marsh1"/>
  <use x="9" y="427" xlink:href="#marsh1"/>
  <use x="34" y="427" xlink:href="#marsh1"/>
  <use x="108" y="429" xlink:href="#marsh1"/>
  <use x="129" y="424" xlink:href="#marsh1"/>
  <use x="166" y="442" xlink:href="#marsh1"/>
  <use x="224" y="432" xlink:href="#marsh1"/>
  <use x="265" y="438" xlink:href="#marsh1"/>
  <use x="289" y="424" xlink:href="#marsh1"/>
  <use x="329" y="436" xlink:href="#marsh1"/>
  <use x="360" y="430" xlink:href="#marsh1"/>
  <use x="380" y="422" xlink:href="#marsh1"/>
  <use x="430" y="430" xlink:href="#marsh1"/>
  <use x="493" y="427" xlink:href="#marsh1"/>
  <use x="18" y="452" xlink:href="#marsh1"/>
  <use x="39" y="453" xlink:href="#marsh1"/>
  <use x="59" y="451" xlink:href="#marsh1"/>
  <use x="81" y="455" xlink:href="#marsh1"/>
  <use x="103" y="454" xlink:href="#marsh1"/>
  <use x="126" y="452" xlink:href="#marsh1"/>
  <use x="219" y="454" xlink:href="#marsh1"/>
  <use x="238" y="453" xlink:href="#marsh1"/>
  <use x="285" y="450" xlink:href="#marsh1"/>
  <use x="322" y="459" xlink:href="#marsh1"/>
  <use x="345" y="452" xlink:href="#marsh1"/>
  <use x="406" y="455" xlink:href="#marsh1"/>
  <use x="434" y="452" xlink:href="#marsh1"/>
  <use x="508" y="447" xlink:href="#marsh1"/>
  <use x="-4" y="447" xlink:href="#marsh1"/>
  <use x="16" y="476" xlink:href="#marsh1"/>
  <use x="40" y="476" xlink:href="#marsh1"/>
  <use x="200" y="471" xlink:href="#marsh1"/>
  <use x="252" y="476" xlink:href="#marsh1"/>
  <use x="279" y="478" xlink:href="#marsh1"/>
  <use x="450" y="474" xlink:href="#marsh1"/>
  <use x="468" y="486" xlink:href="#marsh1"/>
  <use x="506" y="474" xlink:href="#marsh1"/>
  <use x="-6" y="474" xlink:href="#marsh1"/>
  <use x="17" y="499" xlink:href="#marsh1"/>
  <use x="33" y="509" xlink:href="#marsh1"/>
  <use x="33" y="-3" xlink:href="#marsh1"/>
  <use x="53" y="505" xlink:href="#marsh1"/>
  <use x="99" y="501" xlink:href="#marsh1"/>
  <use x="121" y="505" xlink:href="#marsh1"/>
  <use x="144" y="502" xlink:href="#marsh1"/>
  <use x="167" y="501" xlink:href="#marsh1"/>
  <use x="191" y="496" xlink:href="#marsh1"/>
  <use x="282" y="500" xlink:href="#marsh1"/>
  <use x="317" y="505" xlink:href="#marsh1"/>
  <use x="366" y="505" xlink:href="#marsh1"/>
  <use x="394" y="501" xlink:href="#marsh1"/>
  <use x="445" y="498" xlink:href="#marsh1"/>
  <use x="481" y="505" xlink:href="#marsh1"/>
  <use x="67" y="6" xlink:href="#marsh2"/>
  <use x="67" y="518" xlink:href="#marsh2"/>
  <use x="106" y="15" xlink:href="#marsh2"/>
  <use x="157" y="17" xlink:href="#marsh2"/>
  <use x="177" y="8" xlink:href="#marsh2"/>
  <use x="225" y="17" xlink:href="#marsh2"/>
  <use x="306" y="15" xlink:href="#marsh2"/>
  <use x="337" y="9" xlink:href="#marsh2"/>
  <use x="385" y="7" xlink:href="#marsh2"/>
  <use x="409" y="10" xlink:href="#marsh2"/>
  <use x="486" y="12" xlink:href="#marsh2"/>
  <use x="41" y="37" xlink:href="#marsh2"/>
  <use x="77" y="42" xlink:href="#marsh2"/>
  <use x="97" y="40" xlink:href="#marsh2"/>
  <use x="121" y="36" xlink:href="#marsh2"/>
  <use x="273" y="40" xlink:href="#marsh2"/>
  <use x="288" y="27" xlink:href="#marsh2"/>
  <use x="313" y="31" xlink:href="#marsh2"/>
  <use x="333" y="33" xlink:href="#marsh2"/>
  <use x="375" y="33" xlink:href="#marsh2"/>
  <use x="462" y="44" xlink:href="#marsh2"/>
  <use x="461" y="25" xlink:href="#marsh2"/>
  <use x="26" y="55" xlink:href="#marsh2"/>
  <use x="74" y="69" xlink:href="#marsh2"/>
  <use x="105" y="55" xlink:href="#marsh2"/>
  <use x="139" y="70" xlink:href="#marsh2"/>
  <use x="213" y="65" xlink:href="#marsh2"/>
  <use x="251" y="49" xlink:href="#marsh2"/>
  <use x="265" y="67" xlink:href="#marsh2"/>
  <use x="292" y="55" xlink:href="#marsh2"/>
  <use x="315" y="56" xlink:href="#marsh2"/>
  <use x="339" y="65" xlink:href="#marsh2"/>
  <use x="404" y="53" xlink:href="#marsh2"/>
  <use x="448" y="61" xlink:href="#marsh2"/>
  <use x="473" y="65" xlink:href="#marsh2"/>
  <use x="7" y="74" xlink:href="#marsh2"/>
  <use x="162" y="70" xlink:href="#marsh2"/>
  <use x="173" y="88" xlink:href="#marsh2"/>
  <use x="243" y="71" xlink:href="#marsh2"/>
  <use x="269" y="88" xlink:href="#marsh2"/>
  <use x="328" y="77" xlink:href="#marsh2"/>
  <use x="391" y="89" xlink:href="#marsh2"/>
  <use x="501" y="75" xlink:href="#marsh2"/>
  <use x="42" y="97" xlink:href="#marsh2"/>
  <use x="62" y="102" xlink:href="#marsh2"/>
  <use x="114" y="112" xlink:href="#marsh2"/>
  <use x="128" y="100" xlink:href="#marsh2"/>
  <use x="148" y="95" xlink:href="#marsh2"/>
  <use x="244" y="97" xlink:href="#marsh2"/>
  <use x="286" y="103" xlink:href="#marsh2"/>
  <use x="375" y="107" xlink:href="#marsh2"/>
  <use x="462" y="108" xlink:href="#marsh2"/>
  <use x="503" y="111" xlink:href="#marsh2"/>
  <use x="10" y="130" xlink:href="#marsh2"/>
  <use x="34" y="119" xlink:href="#marsh2"/>
  <use x="99" y="125" xlink:href="#marsh2"/>
  <use x="131" y="136" xlink:href="#marsh2"/>
  <use x="147" y="129" xlink:href="#marsh2"/>
  <use x="195" y="126" xlink:href="#marsh2"/>
  <use x="228" y="121" xlink:href="#marsh2"/>
  <use x="313" y="138" xlink:href="#marsh2"/>
  <use x="436" y="125" xlink:href="#marsh2"/>
  <use x="456" y="127" xlink:href="#marsh2"/>
  <use x="11" y="152" xlink:href="#marsh2"/>
  <use x="52" y="150" xlink:href="#marsh2"/>
  <use x="109" y="145" xlink:href="#marsh2"/>
  <use x="124" y="157" xlink:href="#marsh2"/>
  <use x="161" y="155" xlink:href="#marsh2"/>
  <use x="184" y="149" xlink:href="#marsh2"/>
  <use x="207" y="152" xlink:href="#marsh2"/>
  <use x="248" y="155" xlink:href="#marsh2"/>
  <use x="272" y="153" xlink:href="#marsh2"/>
  <use x="460" y="159" xlink:href="#marsh2"/>
  <use x="474" y="147" xlink:href="#marsh2"/>
  <use x="9" y="177" xlink:href="#marsh2"/>
  <use x="76" y="167" xlink:href="#marsh2"/>
  <use x="99" y="174" xlink:href="#marsh2"/>
  <use x="146" y="168" xlink:href="#marsh2"/>
  <use x="203" y="183" xlink:href="#marsh2"/>
  <use x="266" y="176" xlink:href="#marsh2"/>
  <use x="332" y="175" xlink:href="#marsh2"/>
  <use x="388" y="183" xlink:href="#marsh2"/>
  <use x="410" y="172" xlink:href="#marsh2"/>
  <use x="428" y="173" xlink:href="#marsh2"/>
  <use x="442" y="163" xlink:href="#marsh2"/>
  <use x="481" y="171" xlink:href="#marsh2"/>
  <use x="497" y="187" xlink:href="#marsh2"/>
  <use x="70" y="191" xlink:href="#marsh2"/>
  <use x="158" y="187" xlink:href="#marsh2"/>
  <use x="168" y="204" xlink:href="#marsh2"/>
  <use x="271" y="192" xlink:href="#marsh2"/>
  <use x="284" y="208" xlink:href="#marsh2"/>
  <use x="356" y="202" xlink:href="#marsh2"/>
  <use x="370" y="186" xlink:href="#marsh2"/>
  <use x="402" y="197" xlink:href="#marsh2"/>
  <use x="432" y="195" xlink:href="#marsh2"/>
  <use x="107" y="219" xlink:href="#marsh2"/>
  <use x="130" y="230" xlink:href="#marsh2"/>
  <use x="146" y="217" xlink:href="#marsh2"/>
  <use x="192" y="214" xlink:href="#marsh2"/>
  <use x="300" y="230" xlink:href="#marsh2"/>
  <use x="319" y="225" xlink:href="#marsh2"/>
  <use x="342" y="220" xlink:href="#marsh2"/>
  <use x="383" y="230" xlink:href="#marsh2"/>
  <use x="420" y="215" xlink:href="#marsh2"/>
  <use x="473" y="219" xlink:href="#marsh2"/>
  <use x="85" y="244" xlink:href="#marsh2"/>
  <use x="148" y="250" xlink:href="#marsh2"/>
  <use x="172" y="249" xlink:href="#marsh2"/>
  <use x="193" y="237" xlink:href="#marsh2"/>
  <use x="217" y="245" xlink:href="#marsh2"/>
  <use x="235" y="238" xlink:href="#marsh2"/>
  <use x="257" y="245" xlink:href="#marsh2"/>
  <use x="340" y="239" xlink:href="#marsh2"/>
  <use x="361" y="249" xlink:href="#marsh2"/>
  <use x="392" y="247" xlink:href="#marsh2"/>
  <use x="422" y="237" xlink:href="#marsh2"/>
  <use x="439" y="252" xlink:href="#marsh2"/>
  <use x="453" y="233" xlink:href="#marsh2"/>
  <use x="506" y="233" xlink:href="#marsh2"/>
  <use x="-6" y="233" xlink:href="#marsh2"/>
  <use x="7" y="274" xlink:href="#marsh2"/>
  <use x="26" y="269" xlink:href="#marsh2"/>
  <use x="78" y="267" xlink:href="#marsh2"/>
  <use x="98" y="273" xlink:href="#marsh2"/>
  <use x="268" y="270" xlink:href="#marsh2"/>
  <use x="314" y="271" xlink:href="#marsh2"/>
  <use x="368" y="266" xlink:href="#marsh2"/>
  <use x="74" y="288" xlink:href="#marsh2"/>
  <use x="134" y="296" xlink:href="#marsh2"/>
  <use x="154" y="287" xlink:href="#marsh2"/>
  <use x="200" y="282" xlink:href="#marsh2"/>
  <use x="213" y="298" xlink:href="#marsh2"/>
  <use x="294" y="291" xlink:href="#marsh2"/>
  <use x="358" y="289" xlink:href="#marsh2"/>
  <use x="399" y="298" xlink:href="#marsh2"/>
  <use x="427" y="291" xlink:href="#marsh2"/>
  <use x="497" y="279" xlink:href="#marsh2"/>
  <use x="32" y="324" xlink:href="#marsh2"/>
  <use x="64" y="304" xlink:href="#marsh2"/>
  <use x="129" y="320" xlink:href="#marsh2"/>
  <use x="226" y="319" xlink:href="#marsh2"/>
  <use x="243" y="308" xlink:href="#marsh2"/>
  <use x="272" y="310" xlink:href="#marsh2"/>
  <use x="318" y="324" xlink:href="#marsh2"/>
  <use x="399" y="322" xlink:href="#marsh2"/>
  <use x="480" y="309" xlink:href="#marsh2"/>
  <use x="13" y="337" xlink:href="#marsh2"/>
  <use x="121" y="342" xlink:href="#marsh2"/>
  <use x="167" y="333" xlink:href="#marsh2"/>
  <use x="245" y="332" xlink:href="#marsh2"/>
  <use x="265" y="333" xlink:href="#marsh2"/>
  <use x="324" y="347" xlink:href="#marsh2"/>
  <use x="362" y="340" xlink:href="#marsh2"/>
  <use x="381" y="336" xlink:href="#marsh2"/>
  <use x="407" y="341" xlink:href="#marsh2"/>
  <use x="23" y="356" xlink:href="#marsh2"/>
  <use x="64" y="353" xlink:href="#marsh2"/>
  <use x="84" y="365" xlink:href="#marsh2"/>
  <use x="160" y="360" xlink:href="#marsh2"/>
  <use x="180" y="361" xlink:href="#marsh2"/>
  <use x="305" y="356" xlink:href="#marsh2"/>
  <use x="387" y="361" xlink:href="#marsh2"/>
  <use x="408" y="367" xlink:href="#marsh2"/>
  <use x="451" y="360" xlink:href="#marsh2"/>
  <use x="476" y="352" xlink:href="#marsh2"/>
  <use x="57" y="386" xlink:href="#marsh2"/>
  <use x="77" y="388" xlink:href="#marsh2"/>
  <use x="110" y="391" xlink:href="#marsh2"/>
  <use x="150" y="381" xlink:href="#marsh2"/>
  <use x="173" y="387" xlink:href="#marsh2"/>
  <use x="208" y="382" xlink:href="#marsh2"/>
  <use x="246" y="377" xlink:href="#marsh2"/>
  <use x="272" y="390" xlink:href="#marsh2"/>
  <use x="293" y="383" xlink:href="#marsh2"/>
  <use x="333" y="378" xlink:href="#marsh2"/>
  <use x="395" y="392" xlink:href="#marsh2"/>
  <use x="414" y="391" xlink:href="#marsh2"/>
  <use x="430" y="378" xlink:href="#marsh2"/>
  <use x="481" y="392" xlink:href="#marsh2"/>
  <use x="500" y="383" xlink:href="#marsh2"/>
  <use x="22" y="410" xlink:href="#marsh2"/>
  <use x="91" y="415" xlink:href="#marsh2"/>
  <use x="91" y="398" xlink:href="#marsh2"/>
  <use x="155" y="405" xlink:href="#marsh2"/>
  <use x="219" y="410" xlink:href="#marsh2"/>
  <use x="250" y="398" xlink:href="#marsh2"/>
  <use x="269" y="414" xlink:href="#marsh2"/>
  <use x="60" y="431" xlink:href="#marsh2"/>
  <use x="81" y="432" xlink:href="#marsh2"/>
  <use x="159" y="422" xlink:href="#marsh2"/>
  <use x="187" y="432" xlink:href="#marsh2"/>
  <use x="245" y="425" xlink:href="#marsh2"/>
  <use x="307" y="442" xlink:href="#marsh2"/>
  <use x="403" y="431" xlink:href="#marsh2"/>
  <use x="453" y="439" xlink:href="#marsh2"/>
  <use x="472" y="427" xlink:href="#marsh2"/>
  <use x="144" y="445" xlink:href="#marsh2"/>
  <use x="167" y="461" xlink:href="#marsh2"/>
  <use x="200" y="446" xlink:href="#marsh2"/>
  <use x="262" y="458" xlink:href="#marsh2"/>
  <use x="367" y="453" xlink:href="#marsh2"/>
  <use x="386" y="449" xlink:href="#marsh2"/>
  <use x="466" y="459" xlink:href="#marsh2"/>
  <use x="488" y="455" xlink:href="#marsh2"/>
  <use x="57" y="486" xlink:href="#marsh2"/>
  <use x="78" y="474" xlink:href="#marsh2"/>
  <use x="110" y="485" xlink:href="#marsh2"/>
  <use x="124" y="474" xlink:href="#marsh2"/>
  <use x="146" y="480" xlink:href="#marsh2"/>
  <use x="179" y="478" xlink:href="#marsh2"/>
  <use x="220" y="484" xlink:href="#marsh2"/>
  <use x="298" y="472" xlink:href="#marsh2"/>
  <use x="317" y="482" xlink:href="#marsh2"/>
  <use x="340" y="473" xlink:href="#marsh2"/>
  <use x="361" y="483" xlink:href="#marsh2"/>
  <use x="381" y="475" xlink:href="#marsh2"/>
  <use x="404" y="477" xlink:href="#marsh2"/>
  <use x="427" y="472" xlink:href="#marsh2"/>
  <use x="81" y="496" xlink:href="#marsh2"/>
  <use x="219" y="506" xlink:href="#marsh2"/>
  <use x="219" y="-6" xlink:href="#marsh2"/>
  <use x="241" y="495" xlink:href="#marsh2"/>
  <use x="261" y="503" xlink:href="#marsh2"/>
  <use x="344" y="498" xlink:href="#marsh2"/>
  <use x="418" y="493" xlink:href="#marsh2"/>
  <use x="430" y="0" xlink:href="#marsh2"/>
  <use x="430" y="512" xlink:href="#marsh2"/>
  <use x="494" y="487" xlink:href="#marsh2"/>
  <path stroke="#4aa5fa" stroke-width=".8" d="
M66,0.5 h7 m50,0 h7 m-119,0 h7 m25,0 h7 m39,0 h7 m226,0 h7 m50,0 h7 m-119,0 h7 m25,0 h7 m39,0 h7
M137,1.5 h7 m78,0 h7 m164,0 h7 m78,0 h7
M189,2.5 h5 m49,0 h4 m198,0 h5 m46,0 h7
M24,3.5 h7 m5,0 h7 m72,0 h7 m158,0 h6 m11,0 h2 m72,0 h7
M81,4.5 h7 m70,0 h7 m5,0 h4 m41,0 h7 m97,0 h7 m15,0 h3 m70,0 h7 m50,0 h7
M8,5.5 h7 m33,0 h7 m41,0 h7 m45,0 h7 m77,0 h6 m12,0 h4 m10,0 h7 m33,0 h7 m41,0 h7 m45,0 h6 m78,0 h7 m8,0 h7
M183,6.5 h3 m-79,0 h7 m321,0 h7 m-79,0 h7
M16,7.5 h7 m115,0 h7 m127,0 h7 m115,0 h7
M56,8.5 h6 m64,0 h7 m74,0 h7 m98,0 h7 m144,0 h7
M94,9.5 h7 m-103,0 h7 m249,0 h7 m-181,0 h7 m101,0 h7 m31,0 h7 m117,0 h7 m153,0 h2 m-512,0 h5 m318,0 h7 m114,0 h7
M36,10.5 h7 m-16,0 h7 m79,0 h7 m35,0 h7 m130,0 h7 m-16,0 h7 m79,0 h7 m40,0 h2
M142,11.5 h7 m20,0 h3 m42,0 h7 m28,0 h2 m147,0 h6 m21,0 h7 m38,0 h7 m23,0 h7
M16,12.5 h7 m25,0 h7 m217,0 h7
M4,13.5 h7 m62,0 h7 m8,0 h7 m88,0 h2 m75,0 h7 m62,0 h3 m12,0 h7 m83,0 h7
M58,14.5 h7 m59,0 h7 m4,0 h7 m20,0 h5 m38,0 h7 m25,0 h7 m70,0 h7 m59,0 h7 m4,0 h7 m18,0 h7 m38,0 h7 m25,0 h7
M191,15.5 h7 m96,0 h7 m146,0 h7 m25,0 h2
M26,16.5 h5 m251,0 h7
M93,17.5 h7 m16,0 h7 m24,0 h5 m31,0 h7 m159,0 h7 m16,0 h7 m24,0 h7 m29,0 h7
M250,18.5 h7 m-263,0 h7 m4,0 h7 m3,0 h7 m22,0 h7 m10,0 h7 m13,0 h7 m75,0 h2 m5,0 h7 m21,0 h7 m10,0 h5 m11,0 h6 m269,0 h6 m-512,0 h1 m263,0 h4 m3,0 h7 m39,0 h7 m13,0 h7 m70,0 h7 m9,0 h3 m21,0 h7 m10,0 h7 m8,0 h7
M384,19.5 h7
M73,20.5 h3 m253,0 h7
M139,21.5 h7 m143,0 h7 m99,0 h7
M51,22.5 h7 m39,0 h7 m8,0 h7 m54,0 h7 m9,0 h7 m9,0 h7 m25,0 h7 m63,0 h7 m39,0 h7 m8,0 h7 m57,0 h4 m9,0 h7 m14,0 h2 m25,0 h7
M24,23.5 h7 m33,0 h7 m78,0 h7 m65,0 h7 m25,0 h2 m25,0 h5 m35,0 h7 m78,0 h7 m65,0 h7
M121,24.5 h5 m33,0 h7 m104,0 h7 m100,0 h7 m31,0 h6
M89,25.5 h7 m116,0 h7 m25,0 h7 m94,0 h7 m116,0 h7 m25,0 h6
M34,26.5 h7 m13,0 h7 m121,0 h7 m106,0 h2 m13,0 h4 m16,0 h7 m101,0 h7
M5,27.5 h5 m129,0 h7 m22,0 h7 m56,0 h7 m28,0 h2 m219,0 h7
M42,28.5 h7 m55,0 h7 m17,0 h7 m66,0 h6 m91,0 h7 m55,0 h7 m17,0 h7
M82,29.5 h7 m25,0 h7 m130,0 h7 m80,0 h7 m25,0 h2 m74,0 h7
M25,30.5 h7 m33,0 h7 m23,0 h7 m58,0 h7 m55,0 h7 m52,0 h2 m38,0 h7 m23,0 h7 m58,0 h7 m55,0 h6
M10,31.5 h7 m37,0 h2 m3,0 h2 m84,0 h7 m27,0 h5 m26,0 h7 m25,0 h5 m19,0 h7 m131,0 h4 m25,0 h7 m26,0 h7 m23,0 h7
M45,32.5 h4 m25,0 h7 m217,0 h7
M126,33.5 h4 m4,0 h7 m241,0 h4 m4,0 h3
M17,34.5 h7 m7,0 h5 m118,0 h7 m24,0 h7 m9,0 h7 m44,0 h7 m-263,0 h7 m270,0 h7 m7,0 h7 m116,0 h7 m24,0 h7 m9,0 h7 m44,0 h4 m-512,0 h3
M101,35.5 h4 m8,0 h3 m101,0 h7 m95,0 h3 m35,0 h4 m64,0 h7 m41,0 h7 m13,0 h2
M86,36.5 h7 m249,0 h4
M9,37.5 h7 m57,0 h5 m66,0 h7 m114,0 h3 m29,0 h7 m96,0 h7
M27,38.5 h7 m72,0 h7 m16,0 h7 m25,0 h7 m25,0 h7 m8,0 h7 m27,0 h5 m36,0 h7 m72,0 h7 m16,0 h7 m25,0 h7 m25,0 h7 m8,0 h7 m25,0 h7
M252,39.5 h7 m-263,0 h7 m176,0 h7 m38,0 h4 m280,0 h4 m-512,0 h3 m437,0 h2 m35,0 h5
M65,40.5 h3 m249,0 h7
M17,41.5 h7 m27,0 h4 m83,0 h7 m162,0 h7 m39,0 h7 m12,0 h7 m15,0 h7
M4,42.5 h7 m73,0 h7 m79,0 h7 m20,0 h7 m38,0 h7 m11,0 h7 m30,0 h7 m26,0 h7 m3,0 h7 m63,0 h7 m9,0 h2 m25,0 h4 m41,0 h7
M127,43.5 h7 m77,0 h2 m15,0 h7 m148,0 h7 m79,0 h5 m10,0 h7
M24,44.5 h7 m155,0 h7 m87,0 h7 m155,0 h7
M11,45.5 h7 m18,0 h7 m24,0 h5 m34,0 h7 m33,0 h3 m143,0 h7 m24,0 h7 m17,0 h7 m8,0 h7 m33,0 h7
M53,46.5 h7 m100,0 h7 m9,0 h7 m41,0 h3 m10,0 h7 m65,0 h7 m100,0 h7 m53,0 h7 m10,0 h7
M257,47.5 h5 m-132,0 h2 m3,0 h2 m69,0 h7 m173,0 h7
M115,48.5 h7 m76,0 h3 m170,0 h7 m72,0 h7
M62,49.5 h7 m29,0 h7 m37,0 h7 m17,0 h7 m145,0 h7 m29,0 h7 m37,0 h3 m21,0 h7
M22,50.5 h5 m11,0 h7 m39,0 h7 m92,0 h7 m25,0 h7 m56,0 h7 m11,0 h5 m39,0 h7 m92,0 h7 m25,0 h7 m24,0 h6
M10,51.5 h6 m58,0 h7 m38,0 h7 m139,0 h7 m58,0 h7 m38,0 h3
M50,52.5 h7 m53,0 h3 m121,0 h7 m65,0 h6 m50,0 h7
M149,53.5 h7 m5,0 h7 m7,0 h7 m42,0 h7 m158,0 h7 m21,0 h7 m7,0 h7 m10,0 h7 m25,0 h7
M61,54.5 h7 m25,0 h7 m108,0 h7 m-215,0 h7 m314,0 h3 m25,0 h7 m108,0 h7 m-214,0 h6
M18,55.5 h3 m12,0 h6 m204,0 h7 m-206,0 h7 m223,0 h7 m221,0 h4 m-206,0 h7
M76,56.5 h7 m38,0 h7 m13,0 h5 m186,0 h7 m56,0 h4
M168,57.5 h7 m9,0 h7 m13,0 h3 m217,0 h7 m9,0 h5 m11,0 h7
M111,58.5 h2 m-104,0 h7 m73,0 h7 m55,0 h7 m73,0 h7 m124,0 h7 m-104,0 h7 m7,0 h7 m59,0 h7 m58,0 h4 m73,0 h5
M252,59.5 h7 m-263,0 h7 m64,0 h7 m145,0 h7 m282,0 h4 m-512,0 h3 m320,0 h7 m145,0 h7
M239,60.5 h7 m249,0 h7
M35,61.5 h7 m38,0 h7 m9,0 h7 m17,0 h7 m3,0 h7 m23,0 h7 m25,0 h7 m8,0 h3 m81,0 h7 m78,0 h7 m3,0 h7 m23,0 h2 m14,0 h7 m24,0 h7
M46,62.5 h6 m250,0 h7
M14,63.5 h7 m89,0 h7 m24,0 h7 m76,0 h7 m-168,0 h2 m205,0 h7 m89,0 h7 m24,0 h7 m76,0 h7 m-173,0 h7
M250,64.5 h7 m-263,0 h7 m25,0 h7 m473,0 h6 m-512,0 h1 m281,0 h7
M67,65.5 h4 m9,0 h7 m13,0 h7 m62,0 h6 m11,0 h5 m132,0 h7 m99,0 h3 m8,0 h3
M6,66.5 h7 m25,0 h7 m103,0 h7 m83,0 h6 m50,0 h7 m103,0 h7 m83,0 h7
M51,67.5 h7 m60,0 h7 m5,0 h4 m61,0 h7 m105,0 h7 m60,0 h7 m5,0 h7 m23,0 h2 m33,0 h7
M206,68.5 h2 m16,0 h7 m231,0 h6 m12,0 h7
M18,69.5 h7 m59,0 h7 m-94,0 h7 m249,0 h7 m14,0 h7 m64,0 h2 m162,0 h3 m-512,0 h4
M29,70.5 h7 m61,0 h7 m7,0 h7 m63,0 h7 m97,0 h7 m34,0 h7 m20,0 h7 m7,0 h7 m21,0 h7 m35,0 h7
M153,71.5 h4 m11,0 h7 m234,0 h7 m77,0 h5 m-74,0 h7
M196,72.5 h7 m-190,0 h3 m42,0 h7 m148,0 h7 m8,0 h7 m217,0 h7 m-162,0 h7 m10,0 h7 m148,0 h7 m8,0 h7
M249,73.5 h4 m254,0 h2
M80,74.5 h6 m16,0 h7 m18,0 h3 m205,0 h7 m16,0 h7 m15,0 h6 m3,0 h7
M17,75.5 h7 m10,0 h4 m52,0 h7 m48,0 h6 m26,0 h7 m22,0 h7 m60,0 h7 m66,0 h7 m47,0 h7 m9,0 h7 m10,0 h2 m3,0 h2 m22,0 h7
M50,76.5 h4 m14,0 h7 m38,0 h2 m73,0 h7 m-197,0 h4 m252,0 h7 m42,0 h7 m134,0 h7 m59,0 h2 m-512,0 h2
M58,77.5 h7 m249,0 h7
M26,78.5 h7 m182,0 h7 m7,0 h6 m47,0 h4 m185,0 h7 m6,0 h7
M13,79.5 h5 m135,0 h7 m-84,0 h7 m86,0 h7 m65,0 h7 m19,0 h7 m86,0 h7 m-33,0 h5 m86,0 h7
M201,80.5 h7 m172,0 h3 m74,0 h7
M2,81.5 h7 m41,0 h6 m33,0 h7 m35,0 h7 m6,0 h7 m38,0 h7 m62,0 h7 m40,0 h4 m36,0 h7 m35,0 h7 m6,0 h5 m40,0 h7
M21,82.5 h3 m10,0 h7 m23,0 h7 m202,0 h7 m40,0 h3 m154,0 h3
M159,83.5 h7 m11,0 h6 m62,0 h7 m165,0 h5 m79,0 h7
M75,84.5 h3 m33,0 h7 m113,0 h7 m93,0 h7 m16,0 h7 m6,0 h7 m117,0 h3
M28,85.5 h5 m10,0 h7 m89,0 h7 m68,0 h6 m62,0 h7 m10,0 h7 m90,0 h6 m57,0 h2 m9,0 h7
M251,86.5 h7 m-263,0 h7 m56,0 h7 m57,0 h7 m35,0 h4 m339,0 h5 m-512,0 h2 m316,0 h3 m57,0 h7 m35,0 h7
M90,87.5 h7 m92,0 h6 m-190,0 h7 m334,0 h7 m92,0 h5 m-189,0 h3
M206,88.5 h5 m-81,0 h7 m43,0 h2 m280,0 h5 m-130,0 h7 m87,0 h7
M34,89.5 h7 m25,0 h7 m40,0 h7 m24,0 h7 m83,0 h7 m35,0 h7 m7,0 h7 m25,0 h7 m40,0 h7 m24,0 h7 m84,0 h6
M97,90.5 h7 m109,0 h7 m249,0 h7
M9,91.5 h7 m40,0 h7 m97,0 h7 m57,0 h7 m17,0 h7 m161,0 h7 m57,0 h7 m17,0 h7
M41,92.5 h2 m3,0 h2 m58,0 h7 m40,0 h5 m26,0 h7 m106,0 h7 m58,0 h7 m38,0 h7 m26,0 h7
M72,93.5 h7 m8,0 h7 m27,0 h7 m9,0 h6 m59,0 h7 m119,0 h7 m8,0 h6 m28,0 h7 m13,0 h3 m26,0 h7 m28,0 h4 m32,0 h7
M28,94.5 h7 m249,0 h7
M49,95.5 h7 m136,0 h7 m-197,0 h7 m7,0 h7 m282,0 h7 m136,0 h7 m-197,0 h7 m7,0 h7
M212,96.5 h7 m-157,0 h7 m164,0 h6 m229,0 h7 m-157,0 h7 m164,0 h7
M79,97.5 h7 m10,0 h7 m7,0 h7 m63,0 h7 m148,0 h7 m24,0 h7 m31,0 h7 m25,0 h7
M168,98.5 h7 m50,0 h7 m65,0 h7 m120,0 h7 m51,0 h6
M31,99.5 h6 m84,0 h2 m13,0 h7 m60,0 h7 m81,0 h3 m83,0 h7 m8,0 h7 m60,0 h7
M13,100.5 h7 m51,0 h7 m11,0 h7 m62,0 h7 m26,0 h6 m-200,0 h7 m249,0 h7 m9,0 h7 m51,0 h7 m11,0 h7 m62,0 h7 m25,0 h7 m43,0 h7 m6,0 h3 m-512,0 h4
M105,101.5 h7 m249,0 h7
M48,102.5 h4 m93,0 h7 m70,0 h7 m72,0 h7 m76,0 h7 m10,0 h7
M21,103.5 h7 m150,0 h7 m92,0 h4 m36,0 h5 m112,0 h7
M4,104.5 h7 m158,0 h3 m26,0 h5 m31,0 h7 m5,0 h7 m217,0 h7 m-217,0 h7 m185,0 h7 m31,0 h7 m5,0 h7
M71,105.5 h7 m14,0 h6 m229,0 h7 m17,0 h3
M31,106.5 h7 m66,0 h7 m8,0 h7 m25,0 h7 m49,0 h2 m83,0 h2 m66,0 h7 m101,0 h2
M41,107.5 h7 m84,0 h7 m45,0 h2 m83,0 h7 m21,0 h7 m84,0 h7 m45,0 h7
M51,108.5 h7 m4,0 h7 m158,0 h7 m84,0 h7 m10,0 h6 m147,0 h2
M2,109.5 h7 m13,0 h7 m217,0 h7 m10,0 h2 m13,0 h7
M91,110.5 h5 m24,0 h3 m14,0 h7 m11,0 h5 m11,0 h4 m22,0 h5 m191,0 h7 m51,0 h6 m14,0 h7
M179,111.5 h7 m-85,0 h7 m327,0 h7 m-85,0 h7
M236,112.5 h7 m249,0 h6
M69,113.5 h7 m-45,0 h7 m7,0 h7 m76,0 h7 m12,0 h7 m50,0 h7 m117,0 h4 m-63,0 h7 m11,0 h7 m7,0 h7 m76,0 h7 m12,0 h4
M0,114.5 h7 m74,0 h7 m71,0 h7 m22,0 h7 m24,0 h7 m111,0 h6 m72,0 h7 m22,0 h7 m24,0 h7
M105,115.5 h4 m66,0 h7 m179,0 h7 m63,0 h7
M21,116.5 h7 m25,0 h7 m60,0 h7 m11,0 h7 m132,0 h7 m25,0 h7 m60,0 h7 m15,0 h3
M62,117.5 h7 m20,0 h7 m150,0 h7 m65,0 h4 m23,0 h7 m130,0 h7 m13,0 h7
M10,118.5 h7 m25,0 h7 m25,0 h7 m30,0 h7 m46,0 h7 m23,0 h7 m6,0 h7 m21,0 h7 m24,0 h7 m25,0 h7 m29,0 h3 m30,0 h7 m46,0 h7 m23,0 h7 m6,0 h7 m21,0 h7
M146,119.5 h7 m-55,0 h7 m297,0 h7 m-55,0 h7
M130,120.5 h7 m81,0 h5 m63,0 h3 m185,0 h7
M18,121.5 h7 m25,0 h7 m119,0 h7 m91,0 h7 m25,0 h7
M2,122.5 h7 m149,0 h7 m22,0 h5 m10,0 h7 m49,0 h7 m149,0 h7 m22,0 h7 m10,0 h5
M65,123.5 h7 m7,0 h7 m36,0 h7 m117,0 h7 m68,0 h3 m11,0 h7 m36,0 h7 m117,0 h7
M90,124.5 h4 m15,0 h7 m24,0 h7 m87,0 h7 m105,0 h7 m17,0 h2 m26,0 h5 m87,0 h7
M153,125.5 h7 m10,0 h7 m42,0 h4 m186,0 h7 m10,0 h5
M15,126.5 h2 m40,0 h4 m206,0 h6 m37,0 h7 m38,0 h3
M40,127.5 h7 m24,0 h7 m55,0 h7 m66,0 h7 m-191,0 h7 m269,0 h5 m24,0 h7 m55,0 h7 m67,0 h6 m-191,0 h7
M245,128.5 h7 m-250,0 h3 m175,0 h7 m40,0 h7 m214,0 h3 m50,0 h7 m-250,0 h5 m225,0 h2
M106,129.5 h7 m9,0 h7 m84,0 h7 m158,0 h7 m84,0 h7
M30,130.5 h7 m25,0 h7 m10,0 h4 m8,0 h3 m44,0 h4 m11,0 h6 m127,0 h7 m25,0 h7 m7,0 h7 m8,0 h7 m40,0 h7 m11,0 h3 m8,0 h7
M201,131.5 h5 m98,0 h7
M16,132.5 h2 m99,0 h7 m113,0 h2 m134,0 h7 m113,0 h5
M22,133.5 h7 m148,0 h7 m68,0 h7 m-263,0 h7 m275,0 h7 m148,0 h7 m68,0 h4 m-512,0 h3
M84,134.5 h7 m8,0 h7 m56,0 h2 m48,0 h7 m8,0 h7 m106,0 h7 m8,0 h7 m56,0 h7 m43,0 h7 m8,0 h7
M43,135.5 h6 m10,0 h7 m78,0 h7 m45,0 h7 m96,0 h7 m12,0 h4 m130,0 h7 m-73,0 h7
M116,136.5 h7 m62,0 h7 m180,0 h7 m62,0 h7
M14,137.5 h7 m10,0 h7 m41,0 h3 m73,0 h7 m89,0 h7 m-263,0 h7 m268,0 h7 m10,0 h7 m37,0 h5 m76,0 h6 m89,0 h5 m-512,0 h2
M63,138.5 h6 m21,0 h7 m9,0 h7 m60,0 h7 m23,0 h7 m25,0 h4 m81,0 h6 m20,0 h7 m9,0 h7 m60,0 h7 m23,0 h7 m25,0 h5
M223,139.5 h7 m154,0 h7 m88,0 h7
M39,140.5 h7 m249,0 h7
M-1,141.5 h7 m249,0 h7 m-251,0 h7 m8,0 h7 m49,0 h7 m57,0 h7 m7,0 h7 m45,0 h7 m23,0 h7 m262,0 h1 m-512,0 h6 m261,0 h7 m8,0 h7 m113,0 h7 m7,0 h4 m48,0 h7
M46,142.5 h7 m61,0 h7 m63,0 h7 m111,0 h6 m62,0 h7 m63,0 h7
M61,143.5 h7 m27,0 h7 m69,0 h7 m-104,0 h7 m57,0 h7 m174,0 h5 m27,0 h5 m75,0 h3 m-104,0 h4 m60,0 h7
M204,144.5 h7 m-84,0 h7 m326,0 h7 m-84,0 h7 m89,0 h6
M50,145.5 h3 m137,0 h7 m41,0 h7 m122,0 h2 m-63,0 h7 m133,0 h7 m41,0 h7
M-1,146.5 h7 m249,0 h7 m-248,0 h7 m490,0 h1 m-512,0 h6 m264,0 h7
M23,147.5 h3 m13,0 h7 m104,0 h7 m7,0 h7 m108,0 h7 m120,0 h7 m21,0 h7
M68,148.5 h7 m23,0 h6 m12,0 h7 m89,0 h7 m12,0 h3 m90,0 h7 m9,0 h7 m25,0 h7 m104,0 h7
M59,149.5 h2 m68,0 h7 m5,0 h7 m49,0 h5 m43,0 h7 m58,0 h7 m68,0 h7 m9,0 h3 m49,0 h7 m41,0 h7
M36,150.5 h2 m226,0 h3 m20,0 h4
M77,151.5 h4 m26,0 h7 m76,0 h4 m139,0 h7 m26,0 h4 m46,0 h7 m20,0 h7
M219,152.5 h7 m-165,0 h7 m105,0 h6 m57,0 h7 m237,0 h2 m-165,0 h7 m105,0 h7 m25,0 h7 m24,0 h7
M254,153.5 h3 m-263,0 h7 m150,0 h5 m350,0 h6 m-512,0 h1 m406,0 h7
M39,154.5 h7 m50,0 h7 m178,0 h7 m7,0 h7 m50,0 h7
M82,155.5 h7 m22,0 h7 m112,0 h7 m26,0 h4 m71,0 h7 m22,0 h6 m113,0 h7
M48,156.5 h7 m76,0 h3 m9,0 h7 m17,0 h7 m8,0 h7 m9,0 h4 m102,0 h7 m74,0 h5 m13,0 h3 m17,0 h7 m8,0 h7
M17,157.5 h7 m37,0 h7 m5,0 h7 m136,0 h7 m55,0 h2 m37,0 h2 m13,0 h4 m136,0 h7
M33,158.5 h7 m49,0 h7 m145,0 h2 m-244,0 h7 m249,0 h7 m27,0 h7 m49,0 h7 m59,0 h7 m93,0 h1 m-512,0 h6
M104,159.5 h7 m25,0 h7 m64,0 h7 m146,0 h7 m25,0 h7 m68,0 h3
M10,160.5 h7 m160,0 h7 m6,0 h7 m26,0 h7 m36,0 h7 m160,0 h4 m10,0 h6 m26,0 h7
M55,161.5 h7 m249,0 h7
M23,162.5 h7 m13,0 h7 m32,0 h7 m8,0 h7 m9,0 h6 m11,0 h2 m31,0 h7 m63,0 h7 m9,0 h7 m23,0 h7 m13,0 h7 m32,0 h7 m8,0 h7 m9,0 h7 m5,0 h7 m31,0 h7 m63,0 h6 m11,0 h6
M145,163.5 h2 m3,0 h2 m249,0 h7
M199,164.5 h7 m122,0 h7
M0,165.5 h7 m24,0 h7 m24,0 h7 m65,0 h7 m15,0 h7 m8,0 h7 m12,0 h3 m16,0 h7 m40,0 h7 m55,0 h7 m65,0 h7 m15,0 h7 m8,0 h7 m31,0 h7
M13,166.5 h7 m69,0 h7 m125,0 h7 m10,0 h7 m24,0 h7 m69,0 h7 m125,0 h5 m12,0 h7
M101,167.5 h7 m15,0 h7 m178,0 h7 m42,0 h7 m15,0 h7
M40,168.5 h7 m65,0 h7 m178,0 h6 m65,0 h7 m27,0 h5
M23,169.5 h7 m162,0 h4 m52,0 h7 m24,0 h7 m159,0 h7 m52,0 h7
M9,170.5 h7 m53,0 h2 m96,0 h7 m26,0 h7 m21,0 h7 m30,0 h7 m53,0 h7 m124,0 h7 m25,0 h3
M90,171.5 h4 m44,0 h3 m77,0 h7 m121,0 h3 m45,0 h7 m73,0 h2
M32,172.5 h7 m43,0 h3 m41,0 h5 m25,0 h7 m139,0 h7 m28,0 h4 m39,0 h7 m30,0 h2 m21,0 h7 m49,0 h7
M1,173.5 h5 m56,0 h7 m39,0 h7 m58,0 h7 m28,0 h7 m42,0 h4 m57,0 h7 m39,0 h7 m93,0 h7
M19,174.5 h7 m249,0 h7
M148,175.5 h7 m76,0 h6 m-183,0 h7 m56,0 h4 m366,0 h7 m-184,0 h7 m56,0 h7
M86,176.5 h7 m40,0 h7 m-102,0 h7 m203,0 h7 m87,0 h7 m40,0 h7 m-102,0 h7 m203,0 h7
M167,177.5 h7 m12,0 h7 m8,0 h7 m234,0 h7 m8,0 h7 m9,0 h7
M16,178.5 h7 m52,0 h7 m190,0 h7
M0,179.5 h4 m57,0 h7 m71,0 h7 m10,0 h7 m16,0 h7 m70,0 h5 m26,0 h7 m23,0 h7 m26,0 h7 m38,0 h7 m10,0 h7 m16,0 h7
M47,180.5 h7 m54,0 h7 m78,0 h5 m29,0 h4 m133,0 h7 m78,0 h6 m25,0 h7 m9,0 h7
M209,181.5 h6 m249,0 h7
M69,182.5 h7 m249,0 h7
M9,183.5 h7 m69,0 h7 m25,0 h7 m24,0 h7 m16,0 h7 m87,0 h7 m9,0 h7 m53,0 h7 m27,0 h5 m24,0 h7 m16,0 h7
M233,184.5 h7 m249,0 h3
M-1,185.5 h7 m249,0 h7 m-216,0 h7 m41,0 h7 m37,0 h7 m19,0 h5 m25,0 h4 m24,0 h7 m13,0 h7 m262,0 h1 m-512,0 h6 m344,0 h7 m37,0 h7 m17,0 h7 m25,0 h3 m25,0 h7 m18,0 h2
M37,186.5 h2 m23,0 h7 m9,0 h7 m25,0 h7 m62,0 h7 m24,0 h7 m71,0 h7 m23,0 h7 m9,0 h7 m94,0 h7 m24,0 h7
M17,187.5 h7 m251,0 h5
M150,188.5 h3 m253,0 h7
M54,189.5 h7 m15,0 h2 m24,0 h7 m9,0 h7 m7,0 h7 m61,0 h7 m40,0 h7 m56,0 h7 m10,0 h7 m24,0 h7 m11,0 h5 m7,0 h7 m108,0 h7
M7,190.5 h7 m25,0 h3 m127,0 h7 m9,0 h7 m24,0 h7 m9,0 h7 m24,0 h3 m29,0 h7 m123,0 h7 m9,0 h7 m24,0 h7 m9,0 h4
M28,191.5 h7 m56,0 h7 m186,0 h7 m56,0 h7
M142,192.5 h7 m-134,0 h7 m57,0 h7 m37,0 h7 m268,0 h5 m-68,0 h7 m37,0 h7 m27,0 h7
M0,193.5 h7 m55,0 h3 m111,0 h6 m26,0 h7 m41,0 h7 m38,0 h7 m10,0 h7 m139,0 h3
M193,194.5 h6 m25,0 h7 m9,0 h2 m3,0 h2 m112,0 h7 m82,0 h7 m25,0 h7 m9,0 h7
M133,195.5 h7 m249,0 h7
M27,196.5 h7 m20,0 h7 m15,0 h3 m67,0 h7 m12,0 h7 m79,0 h5 m27,0 h7 m20,0 h7 m104,0 h6 m82,0 h3
M15,197.5 h7 m63,0 h7 m249,0 h7 m17,0 h7 m70,0 h7 m28,0 h4
M156,198.5 h7 m38,0 h7 m26,0 h5 m144,0 h7 m22,0 h7 m38,0 h7 m26,0 h7
M32,199.5 h7 m24,0 h7 m25,0 h7 m14,0 h7 m165,0 h7 m24,0 h7 m46,0 h7
M45,200.5 h7 m125,0 h4 m120,0 h5 m132,0 h2
M3,201.5 h7 m136,0 h7 m59,0 h3 m36,0 h4 m4,0 h7
M73,202.5 h7 m14,0 h2 m98,0 h7 m25,0 h7 m44,0 h7 m61,0 h6 m68,0 h7 m24,0 h7 m25,0 h7
M55,203.5 h7 m75,0 h6 m173,0 h2 m74,0 h7
M9,204.5 h7 m27,0 h7 m54,0 h7 m7,0 h7 m78,0 h7 m55,0 h7 m27,0 h4 m59,0 h5 m7,0 h7 m78,0 h7
M29,205.5 h7 m138,0 h3 m7,0 h7 m43,0 h7 m48,0 h3 m46,0 h7 m81,0 h7 m7,0 h7 m26,0 h7 m10,0 h7
M125,206.5 h7 m20,0 h7 m87,0 h7 m128,0 h7 m20,0 h7 m87,0 h3
M61,207.5 h7 m28,0 h7 m171,0 h5 m38,0 h7
M192,208.5 h7 m250,0 h6
M5,209.5 h7 m26,0 h7 m27,0 h7 m56,0 h7 m19,0 h2 m13,0 h7 m78,0 h7 m26,0 h7 m27,0 h7 m56,0 h7 m19,0 h7 m8,0 h7
M53,210.5 h7 m29,0 h7 m8,0 h7 m10,0 h7 m18,0 h7 m54,0 h7 m7,0 h7 m117,0 h7 m8,0 h7 m10,0 h7 m18,0 h7 m54,0 h7 m7,0 h7
M26,211.5 h7 m204,0 h7 m6,0 h7 m-263,0 h7 m492,0 h7 m6,0 h6 m-512,0 h1
M65,213.5 h7 m42,0 h7 m46,0 h7 m9,0 h4 m12,0 h5 m25,0 h7 m85,0 h7 m42,0 h7 m49,0 h4 m23,0 h7 m25,0 h3
M3,214.5 h7 m5,0 h7 m22,0 h7 m79,0 h7 m122,0 h7 m5,0 h7 m22,0 h7 m79,0 h7
M74,215.5 h7 m5,0 h7 m65,0 h7 m42,0 h7 m-62,0 h2 m176,0 h7 m9,0 h3 m114,0 h7 m-63,0 h3
M31,216.5 h6 m58,0 h7 m117,0 h7 m86,0 h7 m-32,0 h7 m57,0 h7 m120,0 h4
M-5,217.5 h7 m135,0 h4 m95,0 h7 m264,0 h5 m-512,0 h2 m391,0 h2
M19,218.5 h7 m92,0 h7 m43,0 h7 m24,0 h7 m69,0 h7 m14,0 h7 m71,0 h7 m45,0 h5 m24,0 h7
M83,219.5 h4 m98,0 h2 m254,0 h7
M65,220.5 h7 m141,0 h4 m26,0 h7 m73,0 h5 m171,0 h7
M9,221.5 h4 m39,0 h2 m75,0 h7 m41,0 h7 m45,0 h6 m30,0 h7 m36,0 h7 m70,0 h7 m41,0 h7 m44,0 h4
M30,222.5 h6 m56,0 h7 m53,0 h3 m6,0 h7 m24,0 h7 m87,0 h7 m55,0 h7 m51,0 h5 m6,0 h7 m24,0 h7
M-2,223.5 h7 m133,0 h7 m187,0 h5 m173,0 h2 m-512,0 h5 m389,0 h7
M47,224.5 h5 m70,0 h7 m78,0 h7 m87,0 h7 m-33,0 h5 m98,0 h7 m78,0 h5 m11,0 h6
M100,225.5 h7 m135,0 h7 m107,0 h7 m135,0 h7
M69,226.5 h7 m81,0 h3 m165,0 h7 m81,0 h7
M6,227.5 h6 m45,0 h7 m50,0 h7 m50,0 h4 m4,0 h7 m11,0 h7 m26,0 h7 m25,0 h7 m101,0 h7 m47,0 h7 m4,0 h7 m11,0 h7 m26,0 h7
M26,228.5 h7 m5,0 h7 m46,0 h7 m47,0 h7 m130,0 h7 m58,0 h7 m35,0 h2 m10,0 h7
M-1,229.5 h5 m249,0 h7 m-213,0 h7 m134,0 h7 m316,0 h1 m-512,0 h4 m303,0 h3 m25,0 h7 m102,0 h6
M16,230.5 h7 m181,0 h7 m8,0 h7 m13,0 h7 m214,0 h7 m8,0 h7 m13,0 h6
M103,231.5 h7 m45,0 h4 m-22,0 h7 m215,0 h7 m45,0 h7 m-25,0 h7
M68,232.5 h7 m43,0 h7 m199,0 h7 m43,0 h4
M86,233.5 h7 m77,0 h2 m13,0 h5 m22,0 h7 m123,0 h7 m92,0 h7 m20,0 h7
M9,234.5 h7 m9,0 h7 m8,0 h7 m9,0 h7 m112,0 h7 m67,0 h7 m9,0 h6 m10,0 h7 m24,0 h7 m112,0 h7 m51,0 h7
M94,235.5 h7 m42,0 h7 m200,0 h7 m32,0 h3 m7,0 h7
M63,236.5 h7 m38,0 h7 m108,0 h7 m89,0 h7 m38,0 h7 m108,0 h7
M1,237.5 h7 m25,0 h7 m39,0 h7 m69,0 h7 m95,0 h7 m25,0 h7 m115,0 h6
M17,238.5 h7 m25,0 h7 m63,0 h7 m77,0 h7 m32,0 h6 m25,0 h7 m25,0 h7 m63,0 h7 m77,0 h7 m31,0 h4
M215,239.5 h7 m-122,0 h7 m76,0 h5 m287,0 h3 m-122,0 h7 m76,0 h7
M69,240.5 h7 m88,0 h7 m-39,0 h7 m186,0 h7 m56,0 h7
M25,241.5 h7 m11,0 h4 m179,0 h4 m19,0 h5 m30,0 h4 m8,0 h7 m179,0 h7 m16,0 h7
M76,242.5 h4 m11,0 h6 m56,0 h7 m15,0 h7 m150,0 h3 m11,0 h7 m56,0 h7 m15,0 h7
M109,243.5 h7 m6,0 h7 m13,0 h7 m42,0 h7 m11,0 h3 m153,0 h7 m6,0 h7 m13,0 h7 m42,0 h7 m11,0 h4
M2,244.5 h7 m12,0 h2 m27,0 h7 m185,0 h7 m23,0 h7 m27,0 h7 m185,0 h7
M131,245.5 h7 m63,0 h7 m24,0 h7 m52,0 h5 m24,0 h7 m28,0 h3 m99,0 h7 m24,0 h7
M223,246.5 h3 m200,0 h7
M160,247.5 h7 m168,0 h7 m74,0 h7
M3,248.5 h7 m35,0 h6 m-27,0 h7 m26,0 h3 m50,0 h4 m67,0 h7 m75,0 h3 m34,0 h7 m61,0 h2
M91,249.5 h7 m25,0 h2 m14,0 h4 m12,0 h3 m36,0 h7 m146,0 h7 m25,0 h7 m12,0 h4 m5,0 h7 m36,0 h7
M229,250.5 h7 m7,0 h7 m20,0 h7 m208,0 h7 m12,0 h2
M113,251.5 h7 m-55,0 h7 m9,0 h7 m116,0 h7 m158,0 h7 m-55,0 h7 m9,0 h7 m116,0 h7
M34,252.5 h7 m146,0 h7 m24,0 h7 m65,0 h7 m149,0 h4 m24,0 h7
M2,253.5 h7 m42,0 h7 m40,0 h2 m34,0 h3 m121,0 h7 m89,0 h2 m30,0 h7 m33,0 h7
M74,254.5 h7 m78,0 h7 m67,0 h7 m90,0 h7 m66,0 h4 m12,0 h3 m67,0 h6
M23,255.5 h7 m74,0 h7 m100,0 h6 m-39,0 h7 m64,0 h7 m23,0 h7 m74,0 h7 m99,0 h7 m33,0 h6
M66,256.5 h7 m-62,0 h7 m25,0 h7 m39,0 h7 m226,0 h7 m50,0 h7 m-119,0 h7 m25,0 h7 m39,0 h7
M137,257.5 h7 m78,0 h7 m164,0 h7 m57,0 h7 m18,0 h3
M189,258.5 h7 m44,0 h7 m198,0 h7
M24,259.5 h7 m5,0 h7 m72,0 h7 m158,0 h7 m5,0 h7 m72,0 h7
M63,260.5 h7 m11,0 h7 m70,0 h7 m5,0 h7 m38,0 h7 m97,0 h7 m92,0 h3 m5,0 h7
M8,261.5 h7 m81,0 h7 m45,0 h7 m77,0 h7 m8,0 h7 m10,0 h7 m33,0 h7 m41,0 h7 m45,0 h4 m80,0 h7 m8,0 h7
M179,262.5 h7 m11,0 h3 m-93,0 h7 m321,0 h7 m11,0 h7 m-97,0 h2
M16,263.5 h7 m115,0 h6 m128,0 h7 m115,0 h7
M57,264.5 h6 m63,0 h7 m74,0 h7 m98,0 h7 m63,0 h7 m74,0 h7
M94,265.5 h7 m-103,0 h7 m250,0 h6 m-194,0 h6 m11,0 h3 m101,0 h7 m34,0 h4 m117,0 h7 m153,0 h2 m-512,0 h5 m318,0 h7 m114,0 h7 m31,0 h7
M36,266.5 h7 m-12,0 h3 m79,0 h7 m35,0 h7 m121,0 h4 m124,0 h7
M169,267.5 h7 m38,0 h6 m178,0 h7 m20,0 h7 m38,0 h7 m23,0 h7
M16,268.5 h5 m27,0 h7 m219,0 h5 m25,0 h5
M4,269.5 h4 m80,0 h7 m10,0 h7 m148,0 h3 m66,0 h7 m8,0 h7 m10,0 h2 m72,0 h6
M58,270.5 h7 m59,0 h7 m4,0 h7 m18,0 h7 m38,0 h7 m25,0 h7 m136,0 h7 m4,0 h6 m19,0 h7 m38,0 h7 m25,0 h7
M38,271.5 h7 m146,0 h7 m100,0 h3 m146,0 h2 m30,0 h7
M282,272.5 h7
M187,273.5 h3 m159,0 h7 m16,0 h7 m28,0 h3 m29,0 h7
M250,274.5 h7 m-263,0 h7 m14,0 h6 m23,0 h7 m10,0 h7 m13,0 h7 m70,0 h7 m5,0 h6 m22,0 h7 m10,0 h6 m10,0 h6 m269,0 h6 m-512,0 h1 m260,0 h2 m11,0 h4 m22,0 h7 m13,0 h4 m13,0 h7 m70,0 h7 m50,0 h7 m8,0 h7
M105,275.5 h7 m16,0 h7 m226,0 h7 m16,0 h7
M73,276.5 h7 m249,0 h7
M33,277.5 h7 m99,0 h7 m143,0 h7
M51,278.5 h7 m54,0 h3 m58,0 h7 m9,0 h7 m9,0 h7 m25,0 h7 m63,0 h7 m39,0 h7 m8,0 h7 m70,0 h7 m9,0 h7
M24,279.5 h7 m33,0 h7 m78,0 h7 m65,0 h7 m-231,0 h5 m251,0 h7 m20,0 h7 m33,0 h7 m79,0 h6 m67,0 h5 m25,0 h3 m-512,0 h2
M14,280.5 h7 m105,0 h2 m31,0 h7 m104,0 h7 m138,0 h7
M89,281.5 h7 m116,0 h7 m25,0 h7 m94,0 h7 m116,0 h2 m33,0 h4
M34,282.5 h7 m15,0 h5 m13,0 h7 m101,0 h7 m101,0 h7 m13,0 h7 m121,0 h7
M5,283.5 h7 m127,0 h7 m22,0 h7 m56,0 h3 m27,0 h7 m127,0 h7 m22,0 h7 m56,0 h5
M42,284.5 h2 m60,0 h7 m17,0 h7 m163,0 h7 m57,0 h5 m20,0 h4 m65,0 h7
M82,285.5 h7 m25,0 h7 m69,0 h5 m56,0 h7 m-263,0 h7 m340,0 h3 m25,0 h6 m70,0 h7 m54,0 h5 m-512,0 h2
M25,286.5 h7 m33,0 h4 m26,0 h7 m59,0 h6 m55,0 h7 m52,0 h7 m33,0 h7 m23,0 h2 m63,0 h7 m58,0 h4
M10,287.5 h7 m38,0 h6 m84,0 h4 m28,0 h7 m26,0 h7 m27,0 h3 m19,0 h7 m37,0 h7 m84,0 h7 m25,0 h7 m26,0 h4 m26,0 h7
M42,288.5 h3 m254,0 h6
M123,289.5 h7 m4,0 h7 m238,0 h7 m4,0 h7
M17,290.5 h7 m8,0 h6 m147,0 h7 m9,0 h7 m44,0 h7 m-263,0 h7 m270,0 h7 m7,0 h2 m121,0 h7 m24,0 h7 m9,0 h7 m44,0 h4 m-512,0 h3
M59,291.5 h7 m32,0 h7 m8,0 h7 m49,0 h7 m41,0 h7 m145,0 h7 m97,0 h7 m8,0 h7
M86,292.5 h7 m249,0 h7
M9,293.5 h7 m25,0 h7 m96,0 h7 m119,0 h2 m28,0 h4 m25,0 h7 m67,0 h4
M106,294.5 h7 m48,0 h7 m25,0 h7 m8,0 h2 m30,0 h7 m36,0 h6 m75,0 h5 m16,0 h7 m25,0 h5 m27,0 h5 m10,0 h7 m25,0 h7
M252,295.5 h7 m-79,0 h6 m35,0 h7 m207,0 h7 m35,0 h7
M61,296.5 h7
M17,297.5 h7 m27,0 h7 m39,0 h7 m12,0 h7 m17,0 h5 m128,0 h7 m27,0 h5 m41,0 h7 m12,0 h7
M6,298.5 h5 m30,0 h7 m26,0 h7 m3,0 h7 m63,0 h7 m36,0 h7 m38,0 h7 m11,0 h7 m30,0 h7 m26,0 h7 m3,0 h7 m63,0 h7 m9,0 h7 m65,0 h7
M127,299.5 h2 m99,0 h7 m148,0 h7 m77,0 h7 m10,0 h7
M24,300.5 h4 m158,0 h7 m87,0 h7 m155,0 h7
M11,301.5 h7 m18,0 h7 m26,0 h5 m32,0 h7 m33,0 h7 m114,0 h7 m18,0 h7 m24,0 h7 m17,0 h7 m8,0 h7 m36,0 h4
M53,302.5 h6 m101,0 h7 m13,0 h3 m37,0 h7 m10,0 h7 m65,0 h7 m100,0 h7 m9,0 h7 m37,0 h7 m10,0 h7
M-1,303.5 h7 m249,0 h7 m-132,0 h7 m69,0 h2 m303,0 h1 m-512,0 h6 m380,0 h7 m69,0 h7
M115,304.5 h7 m249,0 h7 m72,0 h7
M101,305.5 h4 m37,0 h7 m17,0 h7 m145,0 h7 m29,0 h7 m37,0 h7 m17,0 h7
M22,306.5 h7 m9,0 h7 m39,0 h6 m93,0 h7 m25,0 h7 m27,0 h3 m26,0 h7 m9,0 h7 m39,0 h7 m92,0 h7 m25,0 h4 m26,0 h7
M9,307.5 h3 m62,0 h7 m38,0 h7 m139,0 h2 m63,0 h3
M50,308.5 h7 m177,0 h4 m68,0 h7 m49,0 h7 m121,0 h7
M133,309.5 h7 m9,0 h7 m5,0 h7 m7,0 h7 m42,0 h7 m158,0 h7 m9,0 h7 m5,0 h7 m7,0 h7 m10,0 h7
M61,310.5 h7 m25,0 h7 m108,0 h7 m-215,0 h7 m310,0 h7 m25,0 h5 m110,0 h7 m-215,0 h7
M22,311.5 h3 m7,0 h7 m5,0 h7 m227,0 h3 m7,0 h5 m12,0 h2
M76,312.5 h7 m38,0 h7 m11,0 h4 m252,0 h7
M168,313.5 h7 m9,0 h7 m9,0 h7 m217,0 h7 m25,0 h7
M23,314.5 h7 m23,0 h7 m29,0 h7 m58,0 h4 m73,0 h7 m126,0 h5 m-104,0 h2 m12,0 h7 m23,0 h7 m29,0 h7 m55,0 h7 m73,0 h7
M252,315.5 h7 m-263,0 h7 m64,0 h7 m145,0 h4 m285,0 h4 m-512,0 h3 m320,0 h7 m145,0 h7
M239,316.5 h7
M35,317.5 h7 m38,0 h7 m9,0 h7 m17,0 h4 m10,0 h3 m23,0 h7 m25,0 h7 m8,0 h7 m77,0 h2 m83,0 h7 m3,0 h7 m39,0 h5 m11,0 h7 m8,0 h7
M46,318.5 h7 m251,0 h5
M14,319.5 h7 m89,0 h7 m-59,0 h7 m205,0 h7 m89,0 h7 m107,0 h7 m-173,0 h5
M250,320.5 h7 m-263,0 h7 m25,0 h3 m184,0 h7 m286,0 h6 m-512,0 h1 m281,0 h7 m180,0 h7
M67,321.5 h4 m11,0 h5 m13,0 h7 m62,0 h6 m11,0 h5 m132,0 h7 m6,0 h7 m13,0 h7 m65,0 h4 m8,0 h7
M6,322.5 h7 m25,0 h7 m103,0 h7 m83,0 h7 m17,0 h7 m25,0 h7 m105,0 h5 m83,0 h7
M118,323.5 h6 m11,0 h2 m23,0 h7 m28,0 h7 m105,0 h6 m61,0 h7 m5,0 h7 m23,0 h2 m33,0 h7
M206,324.5 h7 m249,0 h7 m15,0 h3
M18,325.5 h7 m59,0 h7 m-94,0 h7 m249,0 h7 m14,0 h7 m59,0 h7 m162,0 h3 m-512,0 h4
M70,326.5 h2 m25,0 h7 m7,0 h7 m21,0 h7 m35,0 h7 m138,0 h7 m20,0 h7 m7,0 h7 m63,0 h7
M153,327.5 h7 m77,0 h7 m-76,0 h7 m234,0 h7 m77,0 h7 m-76,0 h7
M196,328.5 h7 m-194,0 h7 m25,0 h7 m12,0 h5 m148,0 h7 m8,0 h7 m217,0 h6 m-189,0 h3 m25,0 h7 m165,0 h6 m11,0 h5
M250,329.5 h3 m249,0 h7
M79,330.5 h7 m16,0 h7 m14,0 h7 m3,0 h7 m195,0 h3 m20,0 h7 m14,0 h7 m3,0 h7
M17,331.5 h7 m10,0 h7 m49,0 h7 m47,0 h7 m9,0 h2 m15,0 h7 m22,0 h7 m60,0 h7 m15,0 h2 m52,0 h4 m47,0 h7 m9,0 h7 m10,0 h4
M47,332.5 h7 m14,0 h7 m38,0 h7 m68,0 h4 m-194,0 h7 m249,0 h6 m43,0 h7 m14,0 h7 m38,0 h7 m68,0 h7 m59,0 h2 m-512,0 h5
M58,333.5 h7 m249,0 h7
M26,334.5 h7 m182,0 h7 m6,0 h7 m47,0 h2 m187,0 h7 m6,0 h7
M153,335.5 h7 m-84,0 h2 m95,0 h3 m95,0 h3 m86,0 h3 m46,0 h7 m-84,0 h5 m88,0 h7 m65,0 h4
M120,336.5 h7 m74,0 h7
M2,337.5 h6 m41,0 h7 m34,0 h6 m35,0 h7 m6,0 h4 m110,0 h2 m45,0 h7 m36,0 h4 m35,0 h7 m6,0 h4 m42,0 h6
M19,338.5 h5 m10,0 h7 m23,0 h7 m150,0 h7 m45,0 h7 m10,0 h7 m23,0 h7 m150,0 h7
M159,339.5 h7 m10,0 h7 m62,0 h7 m163,0 h7 m10,0 h3
M75,340.5 h4 m32,0 h5 m115,0 h7 m93,0 h7 m16,0 h3 m12,0 h5 m113,0 h7
M26,341.5 h7 m10,0 h7 m89,0 h6 m56,0 h4 m77,0 h7 m10,0 h7 m89,0 h7 m52,0 h7 m9,0 h7
M251,342.5 h7 m-260,0 h4 m56,0 h7 m99,0 h7 m339,0 h2 m-512,0 h2 m312,0 h7 m57,0 h7 m35,0 h7
M90,343.5 h7 m92,0 h7 m-191,0 h7 m334,0 h7 m92,0 h7 m-191,0 h7
M204,344.5 h7 m-130,0 h7 m42,0 h7 m38,0 h7 m278,0 h7 m-130,0 h7 m42,0 h7 m38,0 h7
M20,345.5 h7 m7,0 h4 m28,0 h7 m40,0 h3 m28,0 h2 m88,0 h7 m35,0 h7 m7,0 h7 m72,0 h7 m24,0 h2 m88,0 h7
M97,346.5 h7 m249,0 h7 m109,0 h7
M9,347.5 h7 m40,0 h7 m97,0 h7 m58,0 h6 m17,0 h7 m10,0 h7 m40,0 h7 m97,0 h7 m57,0 h7 m17,0 h7
M106,348.5 h7 m38,0 h7 m26,0 h7 m106,0 h7 m58,0 h7 m38,0 h7 m26,0 h7
M72,349.5 h7 m8,0 h7 m27,0 h7 m9,0 h7 m26,0 h7 m25,0 h7 m121,0 h5 m8,0 h7 m27,0 h7 m9,0 h7 m29,0 h4 m25,0 h7 m32,0 h7
M28,350.5 h7
M49,351.5 h7 m136,0 h7 m-197,0 h7 m7,0 h7 m286,0 h3 m136,0 h7 m-197,0 h7 m7,0 h7
M212,352.5 h7 m14,0 h6 m229,0 h3 m18,0 h7
M79,353.5 h7 m10,0 h7 m7,0 h7 m31,0 h7 m25,0 h7 m148,0 h7 m10,0 h7 m7,0 h7 m31,0 h7 m25,0 h7
M41,354.5 h7 m120,0 h7 m50,0 h7 m65,0 h3 m182,0 h6
M31,355.5 h7 m83,0 h7 m8,0 h7 m60,0 h7 m80,0 h4 m83,0 h7 m8,0 h7 m60,0 h7
M13,356.5 h5 m53,0 h7 m11,0 h7 m94,0 h6 m-199,0 h7 m249,0 h7 m9,0 h7 m51,0 h7 m80,0 h7 m25,0 h2 m48,0 h7 m6,0 h3 m-512,0 h4
M105,357.5 h7 m249,0 h7
M45,358.5 h7 m93,0 h7 m70,0 h7 m172,0 h7 m70,0 h7
M59,359.5 h7 m211,0 h7 m31,0 h7 m113,0 h6
M214,360.5 h5 m-215,0 h7 m156,0 h5 m62,0 h7 m5,0 h7 m217,0 h7 m-217,0 h7 m154,0 h7 m74,0 h7
M71,361.5 h7 m13,0 h7 m229,0 h7 m17,0 h3
M31,362.5 h7 m81,0 h7 m25,0 h4 m52,0 h7 m73,0 h7 m66,0 h7 m8,0 h7 m25,0 h2 m3,0 h2 m49,0 h7
M13,363.5 h7 m21,0 h7 m138,0 h5 m106,0 h7 m89,0 h2 m45,0 h6
M51,364.5 h7 m4,0 h7 m160,0 h5 m73,0 h7 m4,0 h7 m10,0 h7 m141,0 h5
M2,365.5 h2 m18,0 h7 m217,0 h7 m5,0 h5 m15,0 h7 m217,0 h7
M90,366.5 h6 m20,0 h7 m14,0 h7 m11,0 h7 m6,0 h7 m20,0 h7 m13,0 h2 m128,0 h7 m22,0 h5 m14,0 h7 m15,0 h3 m6,0 h7 m20,0 h7 m13,0 h7
M179,367.5 h7 m249,0 h7 m-85,0 h4
M236,368.5 h7
M69,369.5 h7 m-63,0 h7 m11,0 h7 m12,0 h2 m76,0 h7 m12,0 h7 m50,0 h7 m114,0 h7 m-45,0 h7 m7,0 h7 m76,0 h7 m70,0 h6
M0,370.5 h2 m157,0 h7 m22,0 h7 m61,0 h7 m74,0 h7 m71,0 h7 m22,0 h7 m24,0 h7
M105,371.5 h7 m63,0 h7 m249,0 h7
M21,372.5 h7 m25,0 h7 m60,0 h7 m11,0 h7 m132,0 h7 m25,0 h7 m60,0 h7 m11,0 h7
M62,373.5 h7 m20,0 h7 m130,0 h7 m18,0 h2 m65,0 h7 m20,0 h7 m130,0 h7 m13,0 h7
M13,374.5 h4 m57,0 h7 m30,0 h7 m46,0 h7 m23,0 h7 m6,0 h7 m21,0 h6 m25,0 h7 m25,0 h7 m62,0 h7 m46,0 h7 m23,0 h6 m11,0 h3 m21,0 h7
M146,375.5 h7 m-55,0 h7 m297,0 h7 m-55,0 h7
M30,376.5 h7 m93,0 h7 m81,0 h7 m61,0 h7 m93,0 h7 m81,0 h7
M18,377.5 h7 m25,0 h7 m119,0 h7 m91,0 h7 m156,0 h2
M2,378.5 h7 m149,0 h7 m22,0 h7 m8,0 h3 m53,0 h7 m149,0 h7 m22,0 h7
M65,379.5 h7 m7,0 h7 m36,0 h2 m197,0 h7 m11,0 h3 m36,0 h7 m120,0 h4
M34,380.5 h7 m49,0 h7 m12,0 h7 m24,0 h5 m89,0 h7 m105,0 h7 m12,0 h7 m24,0 h7 m87,0 h5
M157,381.5 h3 m10,0 h7 m42,0 h7 m183,0 h7 m59,0 h7
M10,382.5 h7 m82,0 h7 m160,0 h7
M40,383.5 h7 m24,0 h7 m55,0 h7 m-118,0 h7 m271,0 h3 m86,0 h7 m66,0 h7 m-191,0 h7
M192,384.5 h7 m46,0 h7 m-250,0 h7 m171,0 h7 m43,0 h4 m214,0 h7 m51,0 h2 m-250,0 h7 m171,0 h7 m40,0 h7
M106,385.5 h7 m101,0 h6 m144,0 h5 m9,0 h7 m84,0 h7
M64,386.5 h5 m22,0 h7 m40,0 h7 m11,0 h3 m127,0 h2 m30,0 h7 m7,0 h7 m8,0 h6 m41,0 h7 m7,0 h7 m8,0 h7
M48,387.5 h4 m147,0 h4 m101,0 h7 m144,0 h7
M117,388.5 h6 m114,0 h7 m129,0 h7 m113,0 h2
M22,389.5 h5 m152,0 h5 m68,0 h7 m-263,0 h7 m276,0 h6 m148,0 h7 m68,0 h4 m-512,0 h3
M84,390.5 h7 m8,0 h6 m57,0 h6 m44,0 h7 m121,0 h7 m8,0 h7 m59,0 h4 m43,0 h7 m12,0 h3
M43,391.5 h7 m13,0 h3 m78,0 h7 m45,0 h7 m-73,0 h7 m162,0 h7 m9,0 h7 m80,0 h5 m45,0 h7 m-73,0 h4
M116,392.5 h7 m62,0 h7 m180,0 h2 m3,0 h2 m62,0 h7
M17,393.5 h4 m134,0 h7 m92,0 h4 m-263,0 h7 m285,0 h7 m37,0 h7 m169,0 h5 m-512,0 h2
M63,394.5 h7 m103,0 h7 m23,0 h7 m26,0 h6 m77,0 h7 m20,0 h7 m9,0 h7 m60,0 h7 m55,0 h7
M128,395.5 h7 m88,0 h7 m154,0 h6
M39,396.5 h7 m249,0 h7
M-1,397.5 h7 m251,0 h5 m-251,0 h7 m8,0 h7 m49,0 h4 m60,0 h7 m7,0 h7 m45,0 h7 m23,0 h3 m266,0 h1 m-512,0 h6 m261,0 h7 m8,0 h7 m49,0 h7 m57,0 h7 m7,0 h7 m48,0 h4 m23,0 h7
M46,398.5 h7 m61,0 h7 m181,0 h7 m61,0 h2
M61,399.5 h7 m29,0 h5 m69,0 h7 m-104,0 h7 m57,0 h7 m172,0 h7 m30,0 h4 m69,0 h6 m-103,0 h7 m57,0 h7
M204,400.5 h7 m-81,0 h4 m88,0 h7 m154,0 h7 m88,0 h7
M106,401.5 h7 m-63,0 h7 m137,0 h3 m41,0 h7 m117,0 h7 m-63,0 h7 m133,0 h7 m41,0 h7
M-1,402.5 h7 m250,0 h6 m-248,0 h7 m490,0 h1 m-512,0 h6 m264,0 h7
M23,403.5 h7 m9,0 h7 m118,0 h7 m7,0 h6 m95,0 h7 m120,0 h7 m7,0 h7
M68,404.5 h7 m9,0 h7 m7,0 h7 m11,0 h7 m89,0 h7 m8,0 h7 m90,0 h7 m9,0 h7 m25,0 h7 m89,0 h7 m8,0 h7
M56,405.5 h5 m80,0 h7 m49,0 h7 m41,0 h7 m58,0 h7 m68,0 h7 m5,0 h7 m49,0 h7
M8,406.5 h7 m16,0 h7 m226,0 h7 m16,0 h7
M77,407.5 h7 m23,0 h7 m47,0 h6 m20,0 h7 m169,0 h7 m46,0 h7 m20,0 h7
M63,408.5 h5 m105,0 h7 m25,0 h7 m24,0 h7 m232,0 h7 m-53,0 h7 m25,0 h7 m24,0 h6
M250,409.5 h7 m-259,0 h3 m120,0 h4 m385,0 h2 m-512,0 h1 m376,0 h7 m23,0 h4
M29,410.5 h3 m7,0 h7 m50,0 h7 m178,0 h7 m64,0 h7
M7,411.5 h7 m68,0 h6 m23,0 h7 m112,0 h7 m104,0 h4 m22,0 h7 m112,0 h7
M48,412.5 h3 m76,0 h7 m9,0 h7 m17,0 h7 m8,0 h7 m10,0 h6 m99,0 h7 m72,0 h7 m9,0 h7 m17,0 h7 m8,0 h7
M62,413.5 h6 m5,0 h7 m196,0 h4 m192,0 h7
M33,414.5 h7 m115,0 h7 m79,0 h7 m-249,0 h7 m249,0 h7 m27,0 h7 m49,0 h7 m145,0 h3 m11,0 h1 m-512,0 h6
M104,415.5 h7 m25,0 h7 m64,0 h7 m146,0 h7 m25,0 h7 m64,0 h7
M10,416.5 h7 m160,0 h7 m39,0 h7 m203,0 h7 m6,0 h4 m29,0 h7
M55,417.5 h7 m249,0 h7
M23,418.5 h7 m13,0 h7 m32,0 h4 m11,0 h7 m9,0 h7 m5,0 h7 m32,0 h6 m63,0 h7 m9,0 h7 m23,0 h7 m13,0 h7 m32,0 h7 m8,0 h7 m9,0 h7 m8,0 h4 m32,0 h6 m63,0 h7 m9,0 h7
M145,419.5 h7 m249,0 h7
M72,420.5 h7 m120,0 h7 m122,0 h7 m120,0 h7
M0,421.5 h7 m24,0 h7 m24,0 h7 m66,0 h6 m30,0 h7 m8,0 h7 m16,0 h7 m40,0 h7 m55,0 h7 m65,0 h7 m15,0 h7 m8,0 h7 m8,0 h7 m16,0 h7
M13,422.5 h7 m69,0 h7 m125,0 h7 m10,0 h2 m29,0 h7 m69,0 h7 m125,0 h7 m10,0 h7
M52,423.5 h7 m42,0 h7 m200,0 h7 m42,0 h7
M40,424.5 h7 m65,0 h7 m27,0 h7 m143,0 h7 m65,0 h7 m27,0 h7
M23,425.5 h6 m160,0 h7 m56,0 h3 m24,0 h5 m161,0 h7 m52,0 h7
M69,426.5 h7 m91,0 h7 m26,0 h7 m21,0 h7 m30,0 h7 m53,0 h7 m91,0 h4 m29,0 h7 m21,0 h3
M90,427.5 h7 m41,0 h7 m73,0 h3 m125,0 h7 m41,0 h6 m79,0 h2
M46,428.5 h7 m103,0 h7 m139,0 h7 m25,0 h7 m39,0 h7 m25,0 h7 m21,0 h7 m52,0 h4
M1,429.5 h3 m62,0 h3 m104,0 h7 m28,0 h7 m42,0 h7 m54,0 h7 m42,0 h4 m93,0 h3
M19,430.5 h7 m249,0 h7
M99,431.5 h4 m45,0 h7 m76,0 h7 m-121,0 h7 m186,0 h7 m56,0 h7
M88,432.5 h5 m40,0 h7 m-100,0 h5 m203,0 h7 m87,0 h7 m40,0 h7 m-102,0 h7 m203,0 h7
M167,433.5 h7 m27,0 h7 m9,0 h2 m204,0 h2 m17,0 h7 m8,0 h7 m9,0 h7
M16,434.5 h7 m249,0 h7 m57,0 h2
M0,435.5 h7 m24,0 h7 m28,0 h2 m26,0 h7 m38,0 h7 m10,0 h7 m16,0 h3 m74,0 h5 m26,0 h7 m23,0 h6 m27,0 h6 m39,0 h3 m14,0 h7 m17,0 h6
M47,436.5 h7 m54,0 h7 m11,0 h7 m60,0 h7 m40,0 h7 m56,0 h7 m54,0 h7 m11,0 h7 m91,0 h7 m9,0 h7
M208,437.5 h7 m249,0 h7
M69,438.5 h7
M9,439.5 h7 m9,0 h7 m53,0 h7 m25,0 h7 m24,0 h7 m17,0 h6 m103,0 h7 m53,0 h7 m25,0 h7 m24,0 h7 m16,0 h7
M233,440.5 h7 m249,0 h7
M-1,441.5 h7 m249,0 h5 m-214,0 h7 m41,0 h7 m37,0 h3 m53,0 h7 m21,0 h7 m13,0 h7 m262,0 h1 m-512,0 h6 m344,0 h7 m37,0 h7 m17,0 h7 m53,0 h7 m13,0 h7
M32,442.5 h7 m23,0 h7 m9,0 h7 m25,0 h7 m62,0 h7 m24,0 h7 m71,0 h7 m23,0 h7 m9,0 h7 m25,0 h7 m62,0 h7 m24,0 h7
M17,443.5 h7 m249,0 h7
M151,444.5 h6 m249,0 h7
M54,445.5 h7 m10,0 h7 m24,0 h7 m9,0 h7 m7,0 h7 m108,0 h7 m59,0 h4 m10,0 h7 m24,0 h7 m9,0 h7 m10,0 h4 m61,0 h7
M7,446.5 h7 m25,0 h7 m126,0 h4 m9,0 h7 m24,0 h7 m9,0 h7 m24,0 h7 m25,0 h7 m123,0 h7 m9,0 h7 m24,0 h7 m9,0 h7
M28,447.5 h7 m56,0 h7 m249,0 h7
M79,448.5 h7 m71,0 h7 m234,0 h7 m-134,0 h7 m57,0 h7 m37,0 h2 m32,0 h7
M2,449.5 h5 m38,0 h7 m14,0 h3 m107,0 h7 m25,0 h7 m41,0 h7 m38,0 h7 m10,0 h7 m139,0 h7
M107,450.5 h3 m82,0 h3 m29,0 h7 m13,0 h3 m112,0 h3 m86,0 h7 m25,0 h7 m9,0 h7
M133,451.5 h7 m252,0 h4
M27,452.5 h6 m39,0 h5 m69,0 h7 m12,0 h7 m77,0 h7 m54,0 h7 m11,0 h7 m86,0 h7
M88,453.5 h4 m18,0 h6 m70,0 h7 m78,0 h7 m164,0 h7 m25,0 h7
M132,454.5 h2 m22,0 h7 m38,0 h7 m205,0 h6 m38,0 h7 m31,0 h2
M32,455.5 h2 m31,0 h5 m25,0 h3 m18,0 h5 m170,0 h4 m56,0 h7 m15,0 h6
M45,456.5 h7 m125,0 h7 m117,0 h7
M3,457.5 h7 m136,0 h7 m59,0 h2 m34,0 h7 m217,0 h3 m29,0 h7
M21,458.5 h7 m45,0 h3 m13,0 h7 m98,0 h7 m25,0 h7 m44,0 h7 m45,0 h7 m9,0 h7 m67,0 h7 m24,0 h7
M55,459.5 h7 m74,0 h7 m168,0 h6 m75,0 h7
M9,460.5 h7 m27,0 h7 m54,0 h7 m7,0 h7 m78,0 h7 m58,0 h4 m27,0 h7 m54,0 h7 m7,0 h7 m78,0 h2
M29,461.5 h7 m46,0 h7 m85,0 h3 m7,0 h7 m26,0 h7 m10,0 h7 m44,0 h7 m46,0 h7 m81,0 h7 m7,0 h7 m26,0 h7 m10,0 h7
M125,462.5 h7 m20,0 h7 m87,0 h7 m128,0 h7 m20,0 h7 m87,0 h7
M18,463.5 h7 m36,0 h7 m28,0 h7 m171,0 h7 m71,0 h7
M192,464.5 h7 m249,0 h7
M5,465.5 h7 m26,0 h7 m27,0 h7 m56,0 h7 m34,0 h7 m78,0 h7 m26,0 h7 m27,0 h7 m56,0 h7 m19,0 h7 m8,0 h7
M53,466.5 h7 m29,0 h7 m8,0 h7 m10,0 h7 m18,0 h7 m54,0 h7 m7,0 h7 m81,0 h7 m29,0 h7 m8,0 h7 m10,0 h7 m18,0 h7 m54,0 h7 m7,0 h7
M26,467.5 h7 m204,0 h7 m6,0 h7 m-263,0 h7 m281,0 h7 m204,0 h7 m6,0 h6 m-512,0 h1
M65,469.5 h7 m42,0 h7 m46,0 h7 m9,0 h7 m39,0 h7 m85,0 h7 m42,0 h7 m62,0 h7 m7,0 h7 m25,0 h7
M3,470.5 h7 m5,0 h7 m22,0 h7 m79,0 h7 m122,0 h7 m5,0 h7 m26,0 h3 m79,0 h7
M86,471.5 h7 m65,0 h7 m42,0 h7 m-67,0 h7 m176,0 h5 m11,0 h3 m65,0 h7 m42,0 h7 m-67,0 h7
M56,472.5 h7 m-32,0 h6 m58,0 h7 m117,0 h7 m86,0 h7 m-32,0 h6 m58,0 h7 m117,0 h7
M106,473.5 h7 m24,0 h7 m92,0 h7 m119,0 h7 m24,0 h7 m92,0 h7
M23,474.5 h3 m142,0 h7 m199,0 h2 m80,0 h6
M84,475.5 h3 m98,0 h7 m249,0 h4
M65,476.5 h7 m141,0 h7 m23,0 h4 m74,0 h7 m141,0 h7 m23,0 h2
M9,477.5 h2 m41,0 h7 m71,0 h6 m92,0 h7 m30,0 h7 m36,0 h7 m72,0 h5 m41,0 h7 m44,0 h7
M30,478.5 h5 m57,0 h7 m8,0 h7 m38,0 h3 m6,0 h7 m24,0 h7 m87,0 h7 m55,0 h7 m10,0 h5 m47,0 h7
M0,479.5 h5 m253,0 h3 m-123,0 h3 m191,0 h7 m173,0 h0 m-512,0 h5 m389,0 h5
M46,480.5 h6 m-30,0 h2 m98,0 h7 m78,0 h7 m11,0 h4 m72,0 h7 m155,0 h7 m8,0 h7
M100,481.5 h7 m135,0 h6 m250,0 h7
M69,482.5 h7 m81,0 h7 m161,0 h7 m81,0 h7
M6,483.5 h7 m49,0 h2 m52,0 h5 m47,0 h6 m23,0 h7 m26,0 h7 m25,0 h7 m101,0 h7 m47,0 h7 m4,0 h7 m11,0 h7 m26,0 h5
M26,484.5 h7 m5,0 h7 m46,0 h7 m30,0 h7 m147,0 h7 m5,0 h7 m46,0 h7 m30,0 h7 m10,0 h7
M-3,485.5 h7 m249,0 h7 m-213,0 h5 m27,0 h7 m102,0 h7 m314,0 h3 m-512,0 h4 m299,0 h7 m25,0 h7 m102,0 h7
M16,486.5 h7 m181,0 h7 m28,0 h7 m26,0 h7 m181,0 h3 m12,0 h7
M103,487.5 h2 m50,0 h7 m-25,0 h7 m267,0 h7 m-25,0 h7
M68,488.5 h7 m43,0 h7 m199,0 h7 m43,0 h7
M86,489.5 h7 m72,0 h7 m13,0 h7 m20,0 h3 m127,0 h7 m74,0 h5 m13,0 h7
M9,490.5 h7 m9,0 h7 m8,0 h7 m128,0 h7 m51,0 h7 m9,0 h7 m9,0 h7 m9,0 h7 m8,0 h7 m9,0 h7 m112,0 h7 m67,0 h7
M94,491.5 h7 m28,0 h7 m7,0 h7 m200,0 h7 m28,0 h7 m7,0 h7
M63,492.5 h7 m38,0 h7 m80,0 h4 m24,0 h7 m89,0 h7 m38,0 h7 m77,0 h7 m24,0 h7
M1,493.5 h7 m25,0 h7 m115,0 h7 m95,0 h7 m25,0 h7 m39,0 h7 m69,0 h2
M17,494.5 h7 m25,0 h7 m63,0 h7 m77,0 h7 m63,0 h7 m25,0 h7 m63,0 h7 m77,0 h7 m31,0 h7
M215,495.5 h7 m-122,0 h7 m76,0 h2 m286,0 h7 m-122,0 h7 m76,0 h2
M69,496.5 h7 m91,0 h4 m-39,0 h7 m186,0 h7 m92,0 h3 m-39,0 h3
M25,497.5 h7 m8,0 h7 m179,0 h7 m16,0 h7 m40,0 h7 m179,0 h7 m16,0 h7
M90,498.5 h5 m58,0 h7 m15,0 h7 m150,0 h7 m12,0 h2 m56,0 h4 m18,0 h7
M109,499.5 h7 m6,0 h7 m80,0 h7 m149,0 h7 m6,0 h7 m16,0 h4 m46,0 h3 m11,0 h7
M2,500.5 h7 m44,0 h4 m190,0 h2 m23,0 h5 m29,0 h7 m185,0 h7
M33,501.5 h7 m24,0 h7 m60,0 h7 m63,0 h7 m24,0 h7 m50,0 h7 m25,0 h6 m28,0 h7 m25,0 h2 m68,0 h7 m24,0 h7
M173,502.5 h4 m47,0 h2 m200,0 h7 m42,0 h2
M79,503.5 h7 m74,0 h2 m173,0 h4 m77,0 h7
M3,504.5 h7 m34,0 h3 m-23,0 h6 m30,0 h4 m43,0 h7 m67,0 h7 m112,0 h7 m130,0 h7
M91,505.5 h3 m33,0 h3 m21,0 h7 m36,0 h7 m146,0 h7 m25,0 h7 m14,0 h2 m5,0 h7 m36,0 h7
M14,506.5 h7 m208,0 h7 m7,0 h7 m20,0 h7 m210,0 h5 m7,0 h6
M113,507.5 h3 m-51,0 h7 m9,0 h7 m116,0 h7 m161,0 h4 m-53,0 h5 m9,0 h7 m116,0 h7
M187,508.5 h7 m96,0 h7 m146,0 h7 m24,0 h2
M3,509.5 h6 m89,0 h7 m25,0 h7 m33,0 h7 m81,0 h7 m42,0 h5 m42,0 h7 m25,0 h7
M74,510.5 h7 m66,0 h7 m5,0 h7 m67,0 h7 m90,0 h7 m66,0 h7 m5,0 h7 m67,0 h7
M23,511.5 h5 m76,0 h7 m99,0 h4 m-36,0 h7 m64,0 h7 m23,0 h7 m74,0 h7 m99,0 h7 m-36,0 h4"/>
</svg>
