<svg xmlns="http://www.w3.org/2000/svg" width="256" height="256" viewBox="0 0 256 256">
  <path stroke="#4aa5fa" stroke-width=".8" d="
M11,0.5 h7 m25,0 h7 m16,0 h7 m16,0 h7 m27,0 h7
M137,1.5 h7 m57,0 h7 m14,0 h7
M189,2.5 h7 m44,0 h7
M24,3.5 h7 m5,0 h7 m72,0 h7
M63,4.5 h7 m11,0 h7 m70,0 h7 m5,0 h7 m38,0 h7
M8,5.5 h7 m33,0 h7 m41,0 h7 m45,0 h7 m77,0 h7 m8,0 h7
M107,6.5 h7 m65,0 h7 m11,0 h7
M16,7.5 h7 m115,0 h7
M56,8.5 h7 m63,0 h7 m74,0 h7
M-2,9.5 h7 m62,0 h7 m6,0 h7 m7,0 h7 m87,0 h7 m31,0 h7 m21,0 h2 m-256,0 h5
M27,10.5 h7 m2,0 h7 m70,0 h7 m35,0 h7
M142,11.5 h7 m20,0 h7 m38,0 h7 m23,0 h7
M16,12.5 h7 m25,0 h7
M4,13.5 h7 m62,0 h7 m8,0 h7 m10,0 h7 m66,0 h7
M58,14.5 h7 m59,0 h7 m4,0 h7 m18,0 h7 m38,0 h7 m25,0 h7
M38,15.5 h7 m146,0 h7 m25,0 h7
M26,16.5 h7
M93,17.5 h7 m16,0 h7 m24,0 h7 m29,0 h7
M-6,18.5 h7 m4,0 h7 m3,0 h7 m22,0 h7 m10,0 h7 m13,0 h7 m70,0 h7 m5,0 h7 m21,0 h7 m10,0 h7 m8,0 h7 m13,0 h6 m-256,0 h1
M105,19.5 h7 m16,0 h7
M73,20.5 h7
M33,21.5 h7 m99,0 h7
M51,22.5 h7 m39,0 h7 m8,0 h7 m54,0 h7 m9,0 h7 m9,0 h7 m25,0 h7
M-3,23.5 h7 m20,0 h7 m33,0 h7 m78,0 h7 m65,0 h7 m25,0 h3 m-256,0 h4
M14,24.5 h7 m100,0 h7 m31,0 h7
M89,25.5 h7 m116,0 h7 m25,0 h7
M34,26.5 h7 m13,0 h7 m13,0 h7 m101,0 h7
M5,27.5 h7 m127,0 h7 m22,0 h7 m56,0 h7
M42,28.5 h7 m55,0 h7 m17,0 h7 m65,0 h7
M-5,29.5 h7 m80,0 h7 m25,0 h7 m69,0 h7 m54,0 h5 m-256,0 h2
M25,30.5 h7 m33,0 h7 m23,0 h7 m58,0 h7 m55,0 h7
M10,31.5 h7 m37,0 h7 m84,0 h7 m25,0 h7 m26,0 h7 m23,0 h7
M42,32.5 h7 m25,0 h7
M123,33.5 h7 m4,0 h7
M-4,34.5 h7 m14,0 h7 m7,0 h7 m116,0 h7 m24,0 h7 m9,0 h7 m44,0 h4 m-256,0 h3
M59,35.5 h7 m32,0 h7 m8,0 h7 m49,0 h7 m41,0 h7 m8,0 h7
M86,36.5 h7
M9,37.5 h7 m25,0 h7 m25,0 h7 m64,0 h7
M27,38.5 h7 m72,0 h7 m16,0 h7 m25,0 h7 m25,0 h7 m8,0 h7 m25,0 h7
M-4,39.5 h7 m176,0 h7 m35,0 h7 m24,0 h4 m-256,0 h3
M61,40.5 h7
M17,41.5 h7 m27,0 h7 m39,0 h7 m12,0 h7 m15,0 h7
M4,42.5 h7 m30,0 h7 m26,0 h7 m3,0 h7 m63,0 h7 m9,0 h7 m20,0 h7 m38,0 h7
M127,43.5 h7 m77,0 h7 m10,0 h7
M24,44.5 h7 m155,0 h7
M11,45.5 h7 m18,0 h7 m24,0 h7 m17,0 h7 m8,0 h7 m33,0 h7
M53,46.5 h7 m100,0 h7 m9,0 h7 m37,0 h7 m10,0 h7
M-1,47.5 h7 m124,0 h7 m69,0 h7 m42,0 h1 m-256,0 h6
M115,48.5 h7 m72,0 h7
M62,49.5 h7 m29,0 h7 m37,0 h7 m17,0 h7
M22,50.5 h7 m9,0 h7 m39,0 h7 m92,0 h7 m25,0 h7 m23,0 h7
M9,51.5 h7 m58,0 h7 m38,0 h7
M50,52.5 h7 m49,0 h7 m121,0 h7
M133,53.5 h7 m9,0 h7 m5,0 h7 m7,0 h7 m10,0 h7 m25,0 h7
M0,54.5 h7 m54,0 h7 m25,0 h7 m108,0 h7
M18,55.5 h7 m7,0 h7 m5,0 h7 m192,0 h7
M76,56.5 h7 m38,0 h7 m11,0 h7
M168,57.5 h7 m9,0 h7 m9,0 h7
M9,58.5 h7 m7,0 h7 m23,0 h7 m29,0 h7 m10,0 h7 m38,0 h7 m73,0 h7
M-4,59.5 h7 m64,0 h7 m145,0 h7 m26,0 h4 m-256,0 h3
M239,60.5 h7
M35,61.5 h7 m38,0 h7 m9,0 h7 m17,0 h7 m3,0 h7 m23,0 h7 m9,0 h7 m9,0 h7 m8,0 h7
M46,62.5 h7
M14,63.5 h7 m37,0 h7 m45,0 h7 m24,0 h7 m76,0 h7
M-6,64.5 h7 m25,0 h7 m180,0 h7 m30,0 h6 m-256,0 h1
M67,65.5 h7 m6,0 h7 m13,0 h7 m62,0 h7 m8,0 h7
M6,66.5 h7 m25,0 h7 m103,0 h7 m83,0 h7
M51,67.5 h7 m60,0 h7 m5,0 h7 m23,0 h7 m28,0 h7
M206,68.5 h7 m11,0 h7
M-3,69.5 h7 m14,0 h7 m59,0 h7 m162,0 h3 m-256,0 h4
M29,70.5 h7 m34,0 h7 m20,0 h7 m7,0 h7 m21,0 h7 m35,0 h7
M153,71.5 h7 m8,0 h7 m62,0 h7
M9,72.5 h7 m25,0 h7 m10,0 h7 m131,0 h7 m10,0 h7 m8,0 h7
M246,73.5 h7
M79,74.5 h7 m16,0 h7 m14,0 h7 m3,0 h7
M17,75.5 h7 m10,0 h7 m49,0 h7 m47,0 h7 m9,0 h7 m10,0 h7 m22,0 h7
M-2,76.5 h7 m42,0 h7 m14,0 h7 m38,0 h7 m68,0 h7 m59,0 h2 m-256,0 h5
M58,77.5 h7
M26,78.5 h7 m182,0 h7 m6,0 h7
M11,79.5 h7 m58,0 h7 m21,0 h7 m42,0 h7 m9,0 h7 m65,0 h7
M120,80.5 h7 m74,0 h7
M2,81.5 h7 m40,0 h7 m33,0 h7 m35,0 h7 m6,0 h7 m38,0 h7
M17,82.5 h7 m10,0 h7 m23,0 h7 m150,0 h7
M159,83.5 h7 m10,0 h7 m62,0 h7
M75,84.5 h7 m16,0 h7 m6,0 h7 m113,0 h7
M26,85.5 h7 m10,0 h7 m89,0 h7 m52,0 h7 m9,0 h7
M-5,86.5 h7 m56,0 h7 m57,0 h7 m35,0 h7 m80,0 h5 m-256,0 h2
M5,87.5 h7 m78,0 h7 m92,0 h7
M81,88.5 h7 m42,0 h7 m38,0 h7 m22,0 h7
M20,89.5 h7 m7,0 h7 m25,0 h7 m40,0 h7 m24,0 h7 m83,0 h7
M97,90.5 h7 m109,0 h7
M9,91.5 h7 m40,0 h7 m97,0 h7 m57,0 h7 m17,0 h7
M41,92.5 h7 m58,0 h7 m38,0 h7 m26,0 h7
M72,93.5 h7 m8,0 h7 m27,0 h7 m9,0 h7 m26,0 h7 m25,0 h7 m32,0 h7
M28,94.5 h7
M2,95.5 h7 m7,0 h7 m26,0 h7 m136,0 h7
M62,96.5 h7 m143,0 h7 m14,0 h7
M79,97.5 h7 m10,0 h7 m7,0 h7 m31,0 h7 m25,0 h7
M41,98.5 h7 m120,0 h7 m50,0 h7
M31,99.5 h7 m83,0 h7 m8,0 h7 m60,0 h7
M-3,100.5 h7 m9,0 h7 m51,0 h7 m11,0 h7 m62,0 h7 m25,0 h7 m43,0 h7 m6,0 h3 m-256,0 h4
M105,101.5 h7
M45,102.5 h7 m76,0 h7 m10,0 h7 m70,0 h7
M21,103.5 h7 m31,0 h7 m112,0 h7
M4,104.5 h7 m154,0 h7 m24,0 h7 m11,0 h7 m13,0 h7 m5,0 h7
M71,105.5 h7 m13,0 h7
M31,106.5 h7 m66,0 h7 m8,0 h7 m25,0 h7 m49,0 h7
M13,107.5 h7 m21,0 h7 m84,0 h7 m45,0 h7
M51,108.5 h7 m4,0 h7 m10,0 h7 m141,0 h7
M2,109.5 h7 m13,0 h7 m217,0 h7
M89,110.5 h7 m20,0 h7 m14,0 h7 m11,0 h7 m6,0 h7 m20,0 h7 m13,0 h7
M101,111.5 h7 m71,0 h7
M236,112.5 h7
M13,113.5 h7 m11,0 h7 m7,0 h7 m17,0 h7 m52,0 h7 m12,0 h7 m50,0 h7
M0,114.5 h7 m74,0 h7 m71,0 h7 m22,0 h7 m24,0 h7
M105,115.5 h7 m63,0 h7
M21,116.5 h7 m25,0 h7 m60,0 h7 m11,0 h7
M62,117.5 h7 m20,0 h7 m130,0 h7 m13,0 h7
M10,118.5 h7 m25,0 h7 m25,0 h7 m30,0 h7 m46,0 h7 m23,0 h7 m6,0 h7 m21,0 h7
M98,119.5 h7 m41,0 h7
M30,120.5 h7 m93,0 h7 m81,0 h7
M18,121.5 h7 m25,0 h7 m119,0 h7
M2,122.5 h7 m149,0 h7 m22,0 h7 m8,0 h7
M65,123.5 h7 m7,0 h7 m36,0 h7 m117,0 h7
M34,124.5 h7 m49,0 h7 m12,0 h7 m24,0 h7 m87,0 h7
M153,125.5 h7 m10,0 h7 m42,0 h7
M10,126.5 h7 m37,0 h7 m38,0 h7
M22,127.5 h7 m11,0 h7 m24,0 h7 m55,0 h7 m66,0 h7
M2,128.5 h7 m171,0 h7 m5,0 h7 m28,0 h7 m11,0 h7
M106,129.5 h7 m9,0 h7 m84,0 h7
M30,130.5 h7 m25,0 h7 m7,0 h7 m8,0 h7 m40,0 h7 m7,0 h7 m8,0 h7
M48,131.5 h7 m144,0 h7
M11,132.5 h7 m99,0 h7 m113,0 h7
M-4,133.5 h7 m19,0 h7 m148,0 h7 m68,0 h4 m-256,0 h3
M84,134.5 h7 m8,0 h7 m56,0 h7 m43,0 h7 m8,0 h7
M43,135.5 h7 m9,0 h7 m64,0 h7 m7,0 h7 m45,0 h7
M116,136.5 h7 m62,0 h7
M-5,137.5 h7 m12,0 h7 m10,0 h7 m37,0 h7 m73,0 h7 m89,0 h5 m-256,0 h2
M63,138.5 h7 m20,0 h7 m9,0 h7 m60,0 h7 m23,0 h7 m25,0 h7
M128,139.5 h7 m88,0 h7
M39,140.5 h7
M-1,141.5 h7 m5,0 h7 m8,0 h7 m49,0 h7 m57,0 h7 m7,0 h7 m45,0 h7 m23,0 h7 m6,0 h1 m-256,0 h6
M46,142.5 h7 m61,0 h7 m63,0 h7
M61,143.5 h7 m6,0 h7 m14,0 h7 m36,0 h7 m26,0 h7
M127,144.5 h7 m70,0 h7 m11,0 h7
M50,145.5 h7 m49,0 h7 m77,0 h7 m41,0 h7
M-1,146.5 h7 m8,0 h7 m234,0 h1 m-256,0 h6
M23,147.5 h7 m9,0 h7 m104,0 h7 m7,0 h7 m7,0 h7
M68,148.5 h7 m9,0 h7 m7,0 h7 m11,0 h7 m89,0 h7 m8,0 h7
M54,149.5 h7 m68,0 h7 m5,0 h7 m49,0 h7 m41,0 h7
M8,150.5 h7 m16,0 h7
M77,151.5 h7 m23,0 h7 m46,0 h7 m20,0 h7
M61,152.5 h7 m105,0 h7 m25,0 h7 m7,0 h7 m10,0 h7
M-6,153.5 h7 m120,0 h7 m23,0 h7 m92,0 h6 m-256,0 h1
M25,154.5 h7 m7,0 h7 m50,0 h7
M7,155.5 h7 m68,0 h7 m22,0 h7 m112,0 h7
M48,156.5 h7 m72,0 h7 m9,0 h7 m17,0 h7 m8,0 h7 m9,0 h7
M17,157.5 h7 m37,0 h7 m5,0 h7 m136,0 h7
M-1,158.5 h7 m27,0 h7 m49,0 h7 m59,0 h7 m79,0 h7 m7,0 h1 m-256,0 h6
M104,159.5 h7 m25,0 h7 m64,0 h7
M10,160.5 h7 m160,0 h7 m6,0 h7 m26,0 h7
M55,161.5 h7
M23,162.5 h7 m13,0 h7 m32,0 h7 m8,0 h7 m9,0 h7 m5,0 h7 m31,0 h7 m63,0 h7 m9,0 h7
M145,163.5 h7
M72,164.5 h7 m120,0 h7
M0,165.5 h7 m24,0 h7 m24,0 h7 m65,0 h7 m15,0 h7 m8,0 h7 m8,0 h7 m16,0 h7
M13,166.5 h7 m69,0 h7 m125,0 h7 m10,0 h7
M52,167.5 h7 m42,0 h7 m15,0 h7
M40,168.5 h7 m65,0 h7 m27,0 h7
M23,169.5 h7 m159,0 h7 m52,0 h7
M9,170.5 h7 m53,0 h7 m91,0 h7 m26,0 h7 m21,0 h7
M90,171.5 h7 m41,0 h7 m73,0 h7
M32,172.5 h7 m7,0 h7 m25,0 h7 m39,0 h7 m25,0 h7 m21,0 h7 m49,0 h7
M1,173.5 h7 m54,0 h7 m39,0 h7 m58,0 h7 m28,0 h7
M19,174.5 h7
M54,175.5 h7 m38,0 h7 m11,0 h7 m24,0 h7 m76,0 h7
M38,176.5 h7 m41,0 h7 m40,0 h7 m108,0 h7
M167,177.5 h7 m12,0 h7 m8,0 h7 m9,0 h7
M16,178.5 h7 m52,0 h7
M0,179.5 h7 m24,0 h7 m23,0 h7 m26,0 h7 m38,0 h7 m10,0 h7 m16,0 h7
M47,180.5 h7 m54,0 h7 m11,0 h7 m60,0 h7 m24,0 h7 m9,0 h7
M208,181.5 h7
M69,182.5 h7
M9,183.5 h7 m9,0 h7 m53,0 h7 m25,0 h7 m24,0 h7 m16,0 h7
M233,184.5 h7
M-1,185.5 h7 m40,0 h7 m41,0 h7 m37,0 h7 m17,0 h7 m25,0 h7 m21,0 h7 m13,0 h7 m6,0 h1 m-256,0 h6
M32,186.5 h7 m23,0 h7 m9,0 h7 m25,0 h7 m62,0 h7 m24,0 h7
M17,187.5 h7
M150,188.5 h7
M54,189.5 h7 m10,0 h7 m24,0 h7 m9,0 h7 m7,0 h7 m61,0 h7 m40,0 h7
M7,190.5 h7 m25,0 h7 m123,0 h7 m9,0 h7 m24,0 h7 m9,0 h7
M28,191.5 h7 m56,0 h7
M15,192.5 h7 m57,0 h7 m37,0 h7 m12,0 h7 m8,0 h7
M0,193.5 h7 m38,0 h7 m10,0 h7 m107,0 h7 m25,0 h7
M103,194.5 h7 m82,0 h7 m25,0 h7 m9,0 h7
M133,195.5 h7
M27,196.5 h7 m20,0 h7 m11,0 h7 m67,0 h7 m12,0 h7 m77,0 h7
M15,197.5 h7 m63,0 h7 m17,0 h7 m70,0 h7 m25,0 h7
M127,198.5 h7 m22,0 h7 m38,0 h7 m26,0 h7
M32,199.5 h7 m24,0 h7 m25,0 h7 m14,0 h7
M45,200.5 h7 m125,0 h7
M3,201.5 h7 m136,0 h7 m59,0 h7 m29,0 h7
M21,202.5 h7 m45,0 h7 m9,0 h7 m67,0 h7 m24,0 h7 m25,0 h7
M55,203.5 h7 m74,0 h7
M9,204.5 h7 m27,0 h7 m54,0 h7 m7,0 h7 m78,0 h7
M29,205.5 h7 m46,0 h7 m81,0 h7 m7,0 h7 m26,0 h7 m10,0 h7
M125,206.5 h7 m20,0 h7 m87,0 h7
M18,207.5 h7 m36,0 h7 m28,0 h7
M192,208.5 h7
M5,209.5 h7 m26,0 h7 m27,0 h7 m56,0 h7 m19,0 h7 m8,0 h7
M53,210.5 h7 m29,0 h7 m8,0 h7 m10,0 h7 m18,0 h7 m54,0 h7 m7,0 h7
M-6,211.5 h7 m25,0 h7 m204,0 h7 m6,0 h6 m-256,0 h1
M65,213.5 h7 m42,0 h7 m46,0 h7 m9,0 h7 m7,0 h7 m25,0 h7
M3,214.5 h7 m5,0 h7 m22,0 h7 m79,0 h7
M74,215.5 h7 m5,0 h7 m54,0 h7 m4,0 h7 m42,0 h7
M31,216.5 h7 m18,0 h7 m32,0 h7 m117,0 h7
M-5,217.5 h7 m104,0 h7 m24,0 h7 m92,0 h7 m8,0 h5 m-256,0 h2
M19,218.5 h7 m14,0 h7 m71,0 h7 m43,0 h7 m24,0 h7
M80,219.5 h7 m98,0 h7
M65,220.5 h7 m141,0 h7 m23,0 h7
M9,221.5 h7 m36,0 h7 m70,0 h7 m41,0 h7 m44,0 h7
M30,222.5 h7 m55,0 h7 m8,0 h7 m34,0 h7 m6,0 h7 m24,0 h7
M-2,223.5 h7 m71,0 h7 m55,0 h7 m109,0 h2 m-256,0 h5
M17,224.5 h7 m21,0 h7 m70,0 h7 m78,0 h7 m8,0 h7
M100,225.5 h7 m135,0 h7
M69,226.5 h7 m81,0 h7
M6,227.5 h7 m44,0 h7 m50,0 h7 m47,0 h7 m4,0 h7 m11,0 h7 m26,0 h7
M26,228.5 h7 m5,0 h7 m46,0 h7 m30,0 h7 m10,0 h7
M-3,229.5 h7 m43,0 h7 m25,0 h7 m102,0 h7 m58,0 h3 m-256,0 h4
M16,230.5 h7 m181,0 h7 m8,0 h7 m13,0 h7
M103,231.5 h7 m27,0 h7 m11,0 h7
M68,232.5 h7 m43,0 h7
M86,233.5 h7 m72,0 h7 m13,0 h7 m20,0 h7
M9,234.5 h7 m9,0 h7 m8,0 h7 m9,0 h7 m112,0 h7 m51,0 h7 m9,0 h7
M94,235.5 h7 m28,0 h7 m7,0 h7
M63,236.5 h7 m38,0 h7 m77,0 h7 m24,0 h7
M1,237.5 h7 m25,0 h7 m39,0 h7 m69,0 h7
M17,238.5 h7 m25,0 h7 m63,0 h7 m77,0 h7 m31,0 h7
M100,239.5 h7 m76,0 h7 m25,0 h7
M69,240.5 h7 m56,0 h7 m25,0 h7
M25,241.5 h7 m8,0 h7 m179,0 h7 m16,0 h7
M76,242.5 h7 m7,0 h7 m56,0 h7 m15,0 h7
M109,243.5 h7 m6,0 h7 m13,0 h7 m42,0 h7 m11,0 h7
M2,244.5 h7 m7,0 h7 m27,0 h7 m185,0 h7
M33,245.5 h7 m24,0 h7 m28,0 h7 m25,0 h7 m63,0 h7 m24,0 h7
M170,246.5 h7 m42,0 h7
M79,247.5 h7 m74,0 h7
M3,248.5 h7 m14,0 h7 m13,0 h7 m6,0 h7 m43,0 h7 m67,0 h7
M91,249.5 h7 m25,0 h7 m9,0 h7 m5,0 h7 m36,0 h7
M14,250.5 h7 m208,0 h7 m7,0 h7
M65,251.5 h7 m9,0 h7 m25,0 h7 m84,0 h7
M34,252.5 h7 m146,0 h7 m24,0 h7
M2,253.5 h7 m42,0 h7 m40,0 h7 m25,0 h7 m33,0 h7
M74,254.5 h7 m66,0 h7 m5,0 h7 m67,0 h7
M23,255.5 h7 m74,0 h7 m67,0 h7 m25,0 h7 m32,0 h7"/>
</svg>
