<?xml version="1.0" encoding="utf-8"?>
<!-- Generator: Adobe Illustrator 14.0.0, SVG Export Plug-In . SVG Version: 6.00 Build 43363)  -->
<!DOCTYPE svg PUBLIC "-//W3C//DTD SVG 1.1//EN" "http://www.w3.org/Graphics/SVG/1.1/DTD/svg11.dtd">
<svg version="1.1"
	 id="svg2" xmlns:rdf="http://www.w3.org/1999/02/22-rdf-syntax-ns#" sodipodi:docname="transport_aerodrome.svg" inkscape:version="0.46" xmlns:svg="http://www.w3.org/2000/svg" xmlns:sodipodi="http://sodipodi.sourceforge.net/DTD/sodipodi-0.dtd" xmlns:inkscape="http://www.inkscape.org/namespaces/inkscape" xmlns:dc="http://purl.org/dc/elements/1.1/" sodipodi:version="0.32" xmlns:cc="http://creativecommons.org/ns#" inkscape:output_extension="org.inkscape.output.svg.inkscape" sodipodi:docbase="s:\Data\FacilityIcons"
	 xmlns="http://www.w3.org/2000/svg" xmlns:xlink="http://www.w3.org/1999/xlink" x="0px" y="0px" width="580px" height="580px"
	 viewBox="0 0 580 580" enable-background="new 0 0 580 580" xml:space="preserve">
<sodipodi:namedview  showgrid="false" inkscape:current-layer="svg2" inkscape:window-y="13" inkscape:window-x="11" inkscape:cy="55.113521" inkscape:cx="176.72974" inkscape:zoom="0.46083856" pagecolor="#ffffff" bordercolor="#666666" borderopacity="1.0" objecttolerance="10.0" gridtolerance="10.0" guidetolerance="10.0" inkscape:window-height="947" inkscape:window-width="1048" inkscape:pageshadow="2" inkscape:pageopacity="0.0" id="base">
	</sodipodi:namedview>
<defs>
	
	
		<inkscape:perspective  inkscape:persp3d-origin="290 : 193.33333 : 1" inkscape:vp_z="580 : 290 : 1" inkscape:vp_y="0 : 1000 : 0" inkscape:vp_x="0 : 290 : 1" sodipodi:type="inkscape:persp3d" id="perspective2441">
		</inkscape:perspective>
	
		<inkscape:perspective  inkscape:persp3d-origin="30 : 20 : 1" inkscape:vp_z="60 : 30 : 1" inkscape:vp_y="0 : 1000 : 0" inkscape:vp_x="0 : 30 : 1" sodipodi:type="inkscape:persp3d" id="perspective3452">
		</inkscape:perspective>
	
		<inkscape:perspective  inkscape:persp3d-origin="372.04724 : 350.78739 : 1" inkscape:vp_z="744.09448 : 526.18109 : 1" inkscape:vp_y="0 : 1000 : 0" inkscape:vp_x="0 : 526.18109 : 1" sodipodi:type="inkscape:persp3d" id="perspective4471">
		</inkscape:perspective>
	
		<inkscape:perspective  inkscape:persp3d-origin="6 : 4 : 1" inkscape:vp_z="12 : 6 : 1" inkscape:vp_y="0 : 1000 : 0" inkscape:vp_x="0 : 6 : 1" sodipodi:type="inkscape:persp3d" id="perspective4668">
		</inkscape:perspective>
	
		<inkscape:perspective  inkscape:persp3d-origin="16 : 10.666667 : 1" inkscape:vp_z="32 : 16 : 1" inkscape:vp_y="0 : 1000 : 0" inkscape:vp_x="0 : 16 : 1" sodipodi:type="inkscape:persp3d" id="perspective4904">
		</inkscape:perspective>
	
		<inkscape:perspective  inkscape:persp3d-origin="16 : 10.666667 : 1" inkscape:vp_z="32 : 16 : 1" inkscape:vp_y="0 : 1000 : 0" inkscape:vp_x="0 : 16 : 1" sodipodi:type="inkscape:persp3d" id="perspective5233">
		</inkscape:perspective>
	
		<inkscape:perspective  inkscape:persp3d-origin="250 : 166.66667 : 1" inkscape:vp_z="500 : 250 : 1" inkscape:vp_y="0 : 1000 : 0" inkscape:vp_x="0 : 250 : 1" sodipodi:type="inkscape:persp3d" id="perspective5412">
		</inkscape:perspective>
	
		<inkscape:perspective  inkscape:persp3d-origin="202.85715 : 136.19048 : 1" inkscape:vp_z="405.71429 : 204.28572 : 1" inkscape:vp_y="0 : 1000 : 0" inkscape:vp_x="0 : 204.28572 : 1" sodipodi:type="inkscape:persp3d" id="perspective5571">
		</inkscape:perspective>
	
		<inkscape:perspective  inkscape:persp3d-origin="64 : 42.666667 : 1" inkscape:vp_z="128 : 64 : 1" inkscape:vp_y="0 : 1000 : 0" inkscape:vp_x="0 : 64 : 1" sodipodi:type="inkscape:persp3d" id="perspective6552">
		</inkscape:perspective>
	
		<inkscape:perspective  inkscape:persp3d-origin="238.5 : 114.33333 : 1" inkscape:vp_z="477 : 171.5 : 1" inkscape:vp_y="0 : 1000 : 0" inkscape:vp_x="0 : 171.5 : 1" sodipodi:type="inkscape:persp3d" id="perspective8761">
		</inkscape:perspective>
	
		<inkscape:perspective  inkscape:persp3d-origin="52.830002 : 33.539668 : 1" inkscape:vp_z="105.66 : 50.309502 : 1" inkscape:vp_y="0 : 1000 : 0" inkscape:vp_x="0 : 50.309502 : 1" sodipodi:type="inkscape:persp3d" id="perspective10479">
		</inkscape:perspective>
	
		<inkscape:perspective  inkscape:persp3d-origin="223.9745 : 153.55566 : 1" inkscape:vp_z="447.94901 : 230.3335 : 1" inkscape:vp_y="0 : 1000 : 0" inkscape:vp_x="0 : 230.3335 : 1" sodipodi:type="inkscape:persp3d" id="perspective10853">
		</inkscape:perspective>
</defs>
<g id="layer3" transform="matrix(48.14969,0,0,48.14969,-536.27327,-33.306752)" inkscape:label="Layout" display="none">
	<rect id="rect4134" x="1" y="1" display="inline" fill="none" stroke="#757575" stroke-width="0.1" width="10" height="10"/>
	<rect id="rect4136" x="2" y="2" display="inline" fill="none" stroke="#757575" stroke-width="0.1" width="8" height="8"/>
</g>
<g id="g1970" transform="translate(68.799779,58.552307)">
	
		<path id="path1972" sodipodi:nodetypes="ccccccccccccccccccccccccccccc" fill="none" stroke="#0071BC" stroke-width="0.66" stroke-linejoin="round" d="
		M223.965,223.779c-0.748-0.013-1.308,0.816-1.131,1.516c-0.006,1.395,0.016,2.658-0.012,4.053c-0.507,0.424-1.143,0.65-1.668,1.05
		c-1.551,0.968-3.152,1.868-4.668,2.886c-0.309,0.598-0.073,1.282-0.151,1.917c0.066,0.346,0.532,0.446,0.792,0.249
		c1.929-0.597,3.825-1.295,5.762-1.864c-0.008,0.736,0.031,1.474,0.01,2.211c-0.017,0.225,0.021,0.474-0.047,0.684
		c-0.43,0.482-1.146,0.698-1.418,1.315c-0.089,0.401-0.014,0.819-0.039,1.226c0.032,0.285,0.336,0.546,0.621,0.412
		c0.563-0.18,1.136-0.331,1.688-0.533c0.293-0.106,0.607-0.067,0.886,0.055c0.622,0.189,1.244,0.485,1.902,0.477
		c0.317-0.148,0.266-0.556,0.234-0.841c0.057-0.421,0.068-0.962-0.335-1.221c-0.381-0.307-0.797-0.577-1.15-0.919
		c-0.023-0.953-0.053-1.951,0.007-2.877c0.743,0.255,1.501,0.464,2.242,0.727c1.312,0.433,2.615,0.908,3.954,1.248
		c0.336-0.057,0.415-0.488,0.319-0.768c-0.012-0.491,0.138-1.04-0.139-1.483c-1.134-0.817-2.39-1.443-3.563-2.199
		c-0.948-0.569-1.896-1.14-2.842-1.712c-0.107-0.613,0.029-1.242-0.037-1.86c-0.004-1.064,0.079-2.007-0.094-3.062
		C224.896,224.036,224.431,223.759,223.965,223.779z"/>
</g>
</svg>
