<?xml version="1.0" encoding="utf-8"?>
<!-- Generator: Adobe Illustrator 14.0.0, SVG Export Plug-In . SVG Version: 6.00 Build 43363)  -->
<!DOCTYPE svg PUBLIC "-//W3C//DTD SVG 1.1//EN" "http://www.w3.org/Graphics/SVG/1.1/DTD/svg11.dtd">
<svg version="1.1"
	 id="svg2" xmlns:rdf="http://www.w3.org/1999/02/22-rdf-syntax-ns#" sodipodi:docname="shopping_alcohol.svg" inkscape:version="0.48.0 r9654" xmlns:svg="http://www.w3.org/2000/svg" xmlns:sodipodi="http://sodipodi.sourceforge.net/DTD/sodipodi-0.dtd" xmlns:inkscape="http://www.inkscape.org/namespaces/inkscape" xmlns:dc="http://purl.org/dc/elements/1.1/" sodipodi:version="0.32" xmlns:cc="http://creativecommons.org/ns#" inkscape:output_extension="org.inkscape.output.svg.inkscape"
	 xmlns="http://www.w3.org/2000/svg" xmlns:xlink="http://www.w3.org/1999/xlink" x="0px" y="0px" width="580px" height="580px"
	 viewBox="0 0 580 580" enable-background="new 0 0 580 580" xml:space="preserve">
<sodipodi:namedview  showgrid="false" inkscape:current-layer="svg2" inkscape:window-y="24" inkscape:window-x="0" inkscape:cy="328.48623" inkscape:cx="294.77108" inkscape:zoom="0.65172414" pagecolor="#ffffff" bordercolor="#666666" borderopacity="1.0" objecttolerance="10.0" gridtolerance="10.0" guidetolerance="10.0" inkscape:window-height="1003" inkscape:window-width="1920" inkscape:pageshadow="2" inkscape:pageopacity="0.0" inkscape:window-maximized="1" id="base">
	</sodipodi:namedview>
<defs>
	
	
		<inkscape:perspective  inkscape:persp3d-origin="290 : 193.33333 : 1" inkscape:vp_z="580 : 290 : 1" inkscape:vp_y="6.1230318e-14 : 1000 : 0" inkscape:vp_x="0 : 290 : 1" sodipodi:type="inkscape:persp3d" id="perspective2441">
		</inkscape:perspective>
	
		<inkscape:perspective  inkscape:persp3d-origin="30 : 20 : 1" inkscape:vp_z="60 : 30 : 1" inkscape:vp_y="0 : 1000 : 0" inkscape:vp_x="0 : 30 : 1" sodipodi:type="inkscape:persp3d" id="perspective3452">
		</inkscape:perspective>
	
		<inkscape:perspective  inkscape:persp3d-origin="372.04724 : 350.78739 : 1" inkscape:vp_z="744.09448 : 526.18109 : 1" inkscape:vp_y="0 : 1000 : 0" inkscape:vp_x="0 : 526.18109 : 1" sodipodi:type="inkscape:persp3d" id="perspective4471">
		</inkscape:perspective>
	
		<inkscape:perspective  inkscape:persp3d-origin="6 : 4 : 1" inkscape:vp_z="12 : 6 : 1" inkscape:vp_y="0 : 1000 : 0" inkscape:vp_x="0 : 6 : 1" sodipodi:type="inkscape:persp3d" id="perspective4668">
		</inkscape:perspective>
	
		<inkscape:perspective  inkscape:persp3d-origin="0.5 : 0.33333333 : 1" inkscape:vp_z="1 : 0.5 : 1" inkscape:vp_y="0 : 1000 : 0" inkscape:vp_x="0 : 0.5 : 1" sodipodi:type="inkscape:persp3d" id="perspective3826">
		</inkscape:perspective>
	
		<inkscape:perspective  inkscape:persp3d-origin="0.5 : 0.33333333 : 1" inkscape:vp_z="1 : 0.5 : 1" inkscape:vp_y="0 : 1000 : 0" inkscape:vp_x="0 : 0.5 : 1" sodipodi:type="inkscape:persp3d" id="perspective3855">
		</inkscape:perspective>
	
		<inkscape:perspective  inkscape:persp3d-origin="0.5 : 0.33333333 : 1" inkscape:vp_z="1 : 0.5 : 1" inkscape:vp_y="0 : 1000 : 0" inkscape:vp_x="0 : 0.5 : 1" sodipodi:type="inkscape:persp3d" id="perspective3909">
		</inkscape:perspective>
</defs>
<g id="layer3" transform="matrix(48.14969,0,0,48.14969,-536.27327,-33.306752)" inkscape:label="Layout" display="none">
	<rect id="rect4134" x="1" y="1" display="inline" fill="none" stroke="#757575" stroke-width="0.1" width="10" height="10"/>
	<rect id="rect4136" x="2" y="2" display="inline" fill="none" stroke="#757575" stroke-width="0.1" width="8" height="8"/>
</g>
<g id="g3338" transform="matrix(1.3973279,-0.2437849,0.2437849,1.3973279,-185.07402,-56.183307)">
</g>
<g id="g7010" transform="matrix(1.0014414,0,0,1.0543874,-15.580879,-16.459021)">
	
		<path id="rect3771" sodipodi:nodetypes="ccccc" fill="#93278F" stroke="#93278F" stroke-width="0.459" stroke-linecap="round" stroke-linejoin="round" d="
		M308.672,283.257h1.135v3.746h-1.135V283.257z"/>
	
		<path id="path6978" sodipodi:nodetypes="czcccc" fill="#93278F" stroke="#93278F" stroke-width="1.3872" stroke-linecap="round" stroke-linejoin="round" d="
		M307.575,287.559c-0.05-0.285,1.205-0.88,1.67-0.881c0.465,0,1.672,0.675,1.761,0.881v9.509c-0.86,0.446-2.938,0.359-3.432,0
		V287.559L307.575,287.559z"/>
</g>
<path id="path3845" fill="none" stroke="#93278F" stroke-width="0.72" stroke-linecap="round" d="M301.638,293.224v3.679"/>
<path id="path3878" sodipodi:type="arc" sodipodi:ry="12.748499" sodipodi:rx="45.569103" sodipodi:cy="502.69528" sodipodi:cx="519.16229" fill="#93278F" d="
	M303.579,297.105c0.001,0.387-0.874,0.701-1.954,0.702c-1.079,0-1.955-0.313-1.956-0.701c0-0.001,0-0.001,0-0.001
	c-0.001-0.388,0.874-0.702,1.954-0.702C302.702,296.403,303.578,296.717,303.579,297.105
	C303.579,297.104,303.579,297.104,303.579,297.105z"/>
<g id="g4243" transform="matrix(1.1990081,0,0,1.2591238,-72.990402,-108.62601)">
	
		<path id="path3840-8" sodipodi:nodetypes="csssccc" opacity="0.75" fill="#93278F" stroke="#93278F" stroke-width="0.2439" stroke-linecap="round" stroke-linejoin="round" enable-background="new    " d="
		M310.774,316.614c-0.001,0.039-0.002,0.078-0.002,0.117c0,1.558,0.767,2.82,1.714,2.82s1.714-1.262,1.714-2.82
		c0-0.039,0-0.078-0.002-0.117C312.935,316.305,311.558,316.41,310.774,316.614L310.774,316.614L310.774,316.614z"/>
	<path id="path3840" sodipodi:nodetypes="csssccc" fill="#93278F" stroke="#93278F" stroke-width="0.03" d="M310.762,316.63
		c-0.001,0.039-0.002,0.078-0.002,0.117c0,1.558,0.767,2.82,1.714,2.82c0.946,0,1.714-1.262,1.714-2.82
		c0-0.039-0.001-0.078-0.002-0.117C313.23,316.928,312.21,317.121,310.762,316.63L310.762,316.63L310.762,316.63z"/>
</g>
<g id="flowRoot6831" transform="matrix(25.818296,0,0,25.818296,-7603.868,-1626.0059)">
	<path id="path6840" fill="#93278F" d="M306.117,73.922c-0.03,0-0.05,0.023-0.05,0.063c0,0.04,0.019,0.063,0.05,0.063
		c0.031,0,0.05-0.024,0.05-0.063C306.167,73.946,306.147,73.922,306.117,73.922 M306.243,73.926l-0.125,0.201h0.021l0.125-0.201
		H306.243 M306.116,73.936c0.013,0,0.021,0.016,0.021,0.049c0,0.033-0.007,0.05-0.021,0.05c-0.014,0-0.02-0.017-0.02-0.05
		C306.096,73.952,306.103,73.936,306.116,73.936 M306.265,74.005c-0.03,0-0.05,0.023-0.05,0.063c0,0.04,0.02,0.063,0.05,0.063
		c0.031,0,0.05-0.023,0.05-0.063C306.315,74.029,306.295,74.005,306.265,74.005 M306.264,74.018c0.013,0,0.021,0.017,0.021,0.05
		c0,0.033-0.007,0.049-0.021,0.049c-0.014,0-0.021-0.017-0.021-0.049S306.251,74.018,306.264,74.018"/>
</g>
</svg>
