<?xml version="1.0" encoding="utf-8"?>
<!-- Generator: Adobe Illustrator 14.0.0, SVG Export Plug-In . SVG Version: 6.00 Build 43363)  -->
<!DOCTYPE svg PUBLIC "-//W3C//DTD SVG 1.1//EN" "http://www.w3.org/Graphics/SVG/1.1/DTD/svg11.dtd">
<svg version="1.1"
	 id="svg2" xmlns:dc="http://purl.org/dc/elements/1.1/" xmlns:sodipodi="http://sodipodi.sourceforge.net/DTD/sodipodi-0.dtd" sodipodi:docname="accommodation_alpinehut.svg" xmlns:svg="http://www.w3.org/2000/svg" xmlns:inkscape="http://www.inkscape.org/namespaces/inkscape" xmlns:cc="http://creativecommons.org/ns#" xmlns:rdf="http://www.w3.org/1999/02/22-rdf-syntax-ns#" inkscape:version="0.46" inkscape:output_extension="org.inkscape.output.svg.inkscape" sodipodi:docbase="s:\Data\FacilityIcons" sodipodi:version="0.32"
	 xmlns="http://www.w3.org/2000/svg" xmlns:xlink="http://www.w3.org/1999/xlink" x="0px" y="0px" width="580px" height="580px"
	 viewBox="0 0 580 580" enable-background="new 0 0 580 580" xml:space="preserve">
<sodipodi:namedview  bordercolor="#666666" inkscape:window-width="1048" borderopacity="1.0" inkscape:cx="301.39438" inkscape:zoom="0.46083856" inkscape:cy="106.87694" inkscape:pageopacity="0.0" showgrid="false" inkscape:window-x="91" inkscape:pageshadow="2" inkscape:current-layer="svg2" pagecolor="#ffffff" inkscape:window-y="25" inkscape:window-height="947" id="base" objecttolerance="10.0" guidetolerance="10.0" gridtolerance="10.0">
	</sodipodi:namedview>
<defs>
	
	
		<inkscape:perspective  id="perspective2441" inkscape:vp_y="0 : 1000 : 0" inkscape:vp_x="0 : 290 : 1" inkscape:vp_z="580 : 290 : 1" sodipodi:type="inkscape:persp3d" inkscape:persp3d-origin="290 : 193.33333 : 1">
		</inkscape:perspective>
	
		<inkscape:perspective  id="perspective3452" inkscape:vp_y="0 : 1000 : 0" inkscape:vp_x="0 : 30 : 1" inkscape:vp_z="60 : 30 : 1" sodipodi:type="inkscape:persp3d" inkscape:persp3d-origin="30 : 20 : 1">
		</inkscape:perspective>
	
		<inkscape:perspective  id="perspective4471" inkscape:vp_y="0 : 1000 : 0" inkscape:vp_x="0 : 526.18109 : 1" inkscape:vp_z="744.09448 : 526.18109 : 1" sodipodi:type="inkscape:persp3d" inkscape:persp3d-origin="372.04724 : 350.78739 : 1">
		</inkscape:perspective>
	
		<inkscape:perspective  id="perspective4668" inkscape:vp_y="0 : 1000 : 0" inkscape:vp_x="0 : 6 : 1" inkscape:vp_z="12 : 6 : 1" sodipodi:type="inkscape:persp3d" inkscape:persp3d-origin="6 : 4 : 1">
		</inkscape:perspective>
</defs>
<g id="layer3" transform="matrix(48.14969,0,0,48.14969,-536.27327,-33.306752)" inkscape:label="Layout" display="none">
	<rect id="rect4134" x="1" y="1" display="inline" fill="none" stroke="#757575" stroke-width="0.1" width="10" height="10"/>
	<rect id="rect4136" x="2" y="2" display="inline" fill="none" stroke="#757575" stroke-width="0.1" width="8" height="8"/>
</g>
<path id="flowRoot3192" sodipodi:nodetypes="cccsccscccccsssccccccccccscccccccsscsssscccccccccccc" fill="#0092DA" d="
	M288.452,303.437l0.374,3.065c0.045,0.334,0.246,0.529,0.603,0.585c0.245,0.033,0.459-0.036,0.644-0.208
	c0.184-0.174,0.259-0.384,0.226-0.628l-0.44-3.483c-0.044-0.256-0.2-0.412-0.348-0.619l-1.143-1.593l1.105-1.925l0.552,0.703
	c0.045,0.066,0.111,0.117,0.202,0.15l1.241,0.604c0.055,0.021,0.104,0.031,0.148,0.031c0.158,0,0.291-0.059,0.403-0.182
	c0.11-0.125,0.168-0.263,0.168-0.42c0-0.279-0.135-0.463-0.403-0.551l-0.955-0.537l-1.372-1.656
	c-0.19-0.223-0.457-0.363-0.804-0.419c-0.602-0.09-1.054,0.122-1.355,0.636l-1.522,2.627c-0.101,0.168-0.145,0.374-0.133,0.62
	l0.05,3.329l-1.155,2.477c-0.044,0.101-0.072,0.184-0.083,0.251c-0.034,0.212,0.011,0.397,0.133,0.561
	c0.123,0.162,0.291,0.259,0.502,0.293c0.356,0.056,0.608-0.067,0.752-0.368l1.273-2.711c0.044-0.1,0.067-0.207,0.067-0.318
	l-0.018-2.059L288.452,303.437z M289.337,296.204c0.301,0,0.563-0.108,0.787-0.326c0.224-0.218,0.334-0.482,0.334-0.796
	c0-0.301-0.11-0.562-0.334-0.786c-0.224-0.224-0.485-0.334-0.787-0.334c-0.312,0-0.577,0.11-0.795,0.334
	c-0.217,0.224-0.326,0.485-0.326,0.786c0,0.312,0.109,0.578,0.326,0.796C288.76,296.096,289.024,296.204,289.337,296.204
	L289.337,296.204z M285.422,299.268l1.673-2.878c0.111-0.19,0.073-0.334-0.117-0.435l-0.536-0.32
	c-0.189-0.109-0.334-0.071-0.435,0.119l-1.674,2.877c-0.111,0.189-0.072,0.336,0.118,0.436l0.536,0.318
	C285.175,299.496,285.321,299.457,285.422,299.268L285.422,299.268z"/>
<path id="path2770" sodipodi:nodetypes="cc" fill="none" stroke="#7398CF" stroke-width="0.4632" stroke-linecap="round" d="
	M291.557,300.004v6.493"/>
<g id="g3548" transform="translate(0,-94)">
	
		<path id="path7057" sodipodi:nodetypes="ccccccccc" fill="#0092DA" stroke="#0092DA" stroke-width="0.826" stroke-linecap="round" stroke-linejoin="round" d="
		M279.062,387.27l9.238-4.928l9.239,4.928l-0.62,0.629l-3.089-1.245l-5.534-0.665l-5.547,0.655l-3.072,1.242L279.062,387.27z"/>
	
		<rect id="rect7061" x="294.365" y="387.246" fill="#0092DA" stroke="#0092DA" stroke-width="0.9059" stroke-linecap="round" stroke-linejoin="round" width="1.152" height="11.092"/>
	
		<rect id="rect3546" x="280.974" y="387.246" fill="#0092DA" stroke="#0092DA" stroke-width="0.9059" stroke-linecap="round" stroke-linejoin="round" width="1.152" height="11.092"/>
</g>
</svg>
