<?xml version="1.0" encoding="utf-8"?>
<!-- Generator: Adobe Illustrator 14.0.0, SVG Export Plug-In . SVG Version: 6.00 Build 43363)  -->
<!DOCTYPE svg PUBLIC "-//W3C//DTD SVG 1.1//EN" "http://www.w3.org/Graphics/SVG/1.1/DTD/svg11.dtd">
<svg version="1.1"
	 id="svg2" xmlns:rdf="http://www.w3.org/1999/02/22-rdf-syntax-ns#" sodipodi:docname="tourist_archaeological2.svg" inkscape:version="0.46" xmlns:svg="http://www.w3.org/2000/svg" xmlns:sodipodi="http://sodipodi.sourceforge.net/DTD/sodipodi-0.dtd" xmlns:inkscape="http://www.inkscape.org/namespaces/inkscape" xmlns:dc="http://purl.org/dc/elements/1.1/" sodipodi:version="0.32" xmlns:cc="http://creativecommons.org/ns#" inkscape:output_extension="org.inkscape.output.svg.inkscape" sodipodi:docbase="s:\Data\FacilityIcons"
	 xmlns="http://www.w3.org/2000/svg" xmlns:xlink="http://www.w3.org/1999/xlink" x="0px" y="0px" width="580px" height="580px"
	 viewBox="0 0 580 580" enable-background="new 0 0 580 580" xml:space="preserve">
<sodipodi:namedview  showgrid="false" inkscape:current-layer="svg2" inkscape:window-y="-4" inkscape:window-x="-4" inkscape:cy="242.12702" inkscape:cx="1018.8137" inkscape:zoom="0.46083856" pagecolor="#ffffff" bordercolor="#666666" borderopacity="1.0" objecttolerance="10.0" gridtolerance="10.0" guidetolerance="10.0" inkscape:window-height="1003" inkscape:window-width="1400" inkscape:pageshadow="2" inkscape:pageopacity="0.0" id="base">
	</sodipodi:namedview>
<defs>
	
	
		<inkscape:perspective  inkscape:persp3d-origin="290 : 193.33333 : 1" inkscape:vp_z="580 : 290 : 1" inkscape:vp_y="0 : 1000 : 0" inkscape:vp_x="0 : 290 : 1" sodipodi:type="inkscape:persp3d" id="perspective2441">
		</inkscape:perspective>
	
		<inkscape:perspective  inkscape:persp3d-origin="30 : 20 : 1" inkscape:vp_z="60 : 30 : 1" inkscape:vp_y="0 : 1000 : 0" inkscape:vp_x="0 : 30 : 1" sodipodi:type="inkscape:persp3d" id="perspective3452">
		</inkscape:perspective>
	
		<inkscape:perspective  inkscape:persp3d-origin="372.04724 : 350.78739 : 1" inkscape:vp_z="744.09448 : 526.18109 : 1" inkscape:vp_y="0 : 1000 : 0" inkscape:vp_x="0 : 526.18109 : 1" sodipodi:type="inkscape:persp3d" id="perspective4471">
		</inkscape:perspective>
	
		<inkscape:perspective  inkscape:persp3d-origin="6 : 4 : 1" inkscape:vp_z="12 : 6 : 1" inkscape:vp_y="0 : 1000 : 0" inkscape:vp_x="0 : 6 : 1" sodipodi:type="inkscape:persp3d" id="perspective4668">
		</inkscape:perspective>
	
		<inkscape:perspective  inkscape:persp3d-origin="372.04724 : 350.78739 : 1" inkscape:vp_z="744.09448 : 526.18109 : 1" inkscape:vp_y="0 : 1000 : 0" inkscape:vp_x="0 : 526.18109 : 1" sodipodi:type="inkscape:persp3d" id="perspective8054">
		</inkscape:perspective>
	
		<inkscape:perspective  inkscape:persp3d-origin="372.04724 : 350.78739 : 1" inkscape:vp_z="744.09448 : 526.18109 : 1" inkscape:vp_y="0 : 1000 : 0" inkscape:vp_x="0 : 526.18109 : 1" sodipodi:type="inkscape:persp3d" id="perspective8069">
		</inkscape:perspective>
	
		<inkscape:perspective  inkscape:persp3d-origin="372.04724 : 350.78739 : 1" inkscape:vp_z="744.09448 : 526.18109 : 1" inkscape:vp_y="0 : 1000 : 0" inkscape:vp_x="0 : 526.18109 : 1" sodipodi:type="inkscape:persp3d" id="perspective8896">
		</inkscape:perspective>
</defs>
<g id="layer3" transform="matrix(48.14969,0,0,48.14969,-536.27327,-33.306752)" inkscape:label="Layout" display="none">
	<rect id="rect4134" x="1" y="1" display="inline" fill="none" stroke="#757575" stroke-width="0.1" width="10" height="10"/>
	<rect id="rect4136" x="2" y="2" display="inline" fill="none" stroke="#757575" stroke-width="0.1" width="8" height="8"/>
</g>
<path id="path8938" fill="#754C24" d="M290.517,269.937c-0.043-0.001-0.085,0.001-0.123,0.004c-0.193,0.015-0.433,0.076-0.523,0.134
	c-0.039,0.024-0.116,0.07-0.172,0.103c-0.147,0.084-0.498,0.467-0.655,0.715c-0.1,0.157-0.21,0.338-0.247,0.405
	c-0.009,0.015-0.057,0.085-0.106,0.155s-0.11,0.165-0.135,0.211c-0.025,0.046-0.051,0.084-0.058,0.085
	c-0.007,0-0.054,0.068-0.104,0.15c-0.224,0.358-0.498,0.698-0.606,0.748c-0.146,0.067-0.396,0.293-0.534,0.487
	c-0.05,0.069-0.135,0.185-0.187,0.256c-0.117,0.159-0.308,0.489-0.374,0.646c-0.027,0.063-0.072,0.17-0.101,0.237
	c-0.061,0.142-0.165,0.425-0.171,0.468c-0.003,0.016-0.018,0.071-0.033,0.122c-0.016,0.05-0.039,0.131-0.052,0.18
	c-0.013,0.048-0.043,0.161-0.066,0.251c-0.024,0.089-0.049,0.191-0.055,0.225c-0.007,0.033-0.014,0.064-0.017,0.067
	c-0.005,0.005-0.039,0.163-0.067,0.325c-0.006,0.032-0.013,0.062-0.017,0.066c-0.012,0.012-0.091,0.575-0.086,0.608
	c0.002,0.017,0.001,0.034-0.003,0.039c-0.004,0.004-0.012,0.065-0.018,0.135c-0.006,0.069-0.013,0.154-0.016,0.188
	c-0.003,0.034-0.008,0.106-0.011,0.159c-0.003,0.053-0.009,0.127-0.012,0.166c-0.009,0.104-0.012,0.158-0.014,0.236
	c-0.001,0.038-0.004,0.072-0.006,0.074c-0.007,0.007-0.019,0.302-0.016,0.379c0.001,0.04,0.003,0.099,0.004,0.13
	c0.006,0.301,0.041,0.67,0.099,1.051c0.034,0.228,0.055,0.429,0.055,0.538c-0.001,0.091-0.001,0.091-0.043,0.078
	c-0.023-0.007-0.078-0.032-0.12-0.055c-0.043-0.023-0.108-0.05-0.145-0.061c-0.037-0.011-0.072-0.023-0.078-0.029
	c-0.007-0.006-0.089-0.023-0.183-0.039c-0.094-0.016-0.188-0.038-0.21-0.048c-0.076-0.035-0.29-0.084-0.399-0.092
	c-0.238-0.017-0.481,0.071-0.568,0.205c-0.076,0.116-0.124,0.309-0.111,0.45c0.017,0.194,0.123,0.594,0.169,0.637
	c0.004,0.004,0.015,0.028,0.024,0.056c0.018,0.051,0.076,0.151,0.178,0.302c0.032,0.048,0.064,0.103,0.072,0.122
	c0.014,0.035,0.164,0.239,0.396,0.536c0.066,0.086,0.135,0.175,0.152,0.198c0.012,0.017,0.168,0.164,0.385,0.365
	c0.572-0.028,1.188-0.028,1.788,0.032c2.034,0.203,2.984,0.271,4.883,0c0.409-0.059,0.858-0.113,1.322-0.162
	c0.201-0.064,0.352-0.119,0.475-0.174c0.04-0.019,0.105-0.045,0.146-0.06c0.222-0.083,0.732-0.371,0.921-0.52
	c0.052-0.041,0.112-0.084,0.135-0.096c0.108-0.058,0.256-0.193,0.505-0.464c0.271-0.294,0.277-0.303,0.437-0.592
	c0.11-0.201,0.492-0.598,0.713-0.739c0.029-0.02,0.094-0.065,0.144-0.104c0.151-0.118,0.239-0.182,0.292-0.213
	c0.027-0.017,0.068-0.046,0.092-0.066c0.022-0.021,0.079-0.065,0.124-0.098c0.403-0.298,0.692-0.567,0.827-0.773
	c0.079-0.123,0.133-0.284,0.169-0.509c0.027-0.172,0.026-0.194-0.017-0.421c-0.06-0.312-0.176-0.632-0.286-0.786
	c-0.168-0.234-0.271-0.333-0.529-0.503c-0.107-0.071-0.352-0.183-0.399-0.184c-0.018,0-0.037-0.007-0.045-0.014
	c-0.008-0.007-0.116-0.027-0.24-0.044c-0.124-0.018-0.229-0.035-0.234-0.039c-0.024-0.021,0.264-0.284,0.343-0.312
	c0.039-0.015,0.09,0.009,0.202,0.095c0.079,0.061,0.135,0.075,0.208,0.052c0.026-0.009,0.186-0.049,0.354-0.09
	c0.447-0.108,0.47-0.115,0.476-0.137c0.008-0.03-0.021-0.07-0.201-0.285c-0.091-0.108-0.178-0.212-0.192-0.23
	c-0.098-0.12-0.364-0.382-0.928-0.911c-0.721-0.677-2.683-2.483-2.757-2.538c-0.026-0.02-0.194-0.166-0.372-0.324
	c-0.513-0.456-1.13-0.965-1.278-1.052c-0.071-0.042-0.079-0.033-0.103,0.115c-0.011,0.065-0.039,0.181-0.063,0.256
	c-0.079,0.243-0.122,0.397-0.126,0.447c-0.006,0.064,0.056,0.182,0.145,0.275c0.039,0.041,0.071,0.085,0.073,0.1
	c0.005,0.048-0.068,0.17-0.188,0.314c-0.119,0.144-0.119,0.144-0.127,0.082c-0.016-0.121-0.088-0.483-0.105-0.53
	c-0.066-0.171-0.216-0.393-0.391-0.582c-0.136-0.146-0.452-0.367-0.642-0.448c-0.12-0.052-0.294-0.105-0.304-0.094
	c-0.005,0.004-0.02,0-0.034-0.008C290.78,269.954,290.646,269.938,290.517,269.937z M290.685,270.452
	c0.127-0.003,0.266,0.025,0.371,0.081c0.106,0.056,0.125,0.07,0.264,0.205c0.144,0.14,0.15,0.148,0.21,0.266
	c0.111,0.222,0.158,0.399,0.155,0.6c-0.003,0.146-0.044,0.407-0.068,0.435c-0.011,0.011-0.021,0.032-0.021,0.048
	c-0.007,0.061-0.098,0.208-0.188,0.308c-0.107,0.117-0.11,0.118-0.328,0.138c-0.428,0.037-0.604,0.024-1.092-0.081
	c-0.09-0.02-0.185-0.04-0.211-0.045c-0.027-0.006-0.104-0.024-0.172-0.04c-0.068-0.016-0.165-0.034-0.216-0.041
	c-0.051-0.007-0.109-0.021-0.129-0.028c-0.048-0.02-0.06-0.031-0.062-0.062c-0.004-0.035,0.05-0.176,0.091-0.239
	c0.034-0.054,0.107-0.184,0.163-0.29c0.016-0.032,0.062-0.107,0.101-0.169c0.039-0.062,0.097-0.16,0.131-0.217
	c0.229-0.394,0.546-0.722,0.798-0.829C290.536,270.466,290.608,270.453,290.685,270.452z M297.113,276.49
	c0.251,0.006,0.488,0.075,0.648,0.207c0.142,0.116,0.251,0.284,0.275,0.424c0.024,0.143-0.01,0.401-0.073,0.559
	c-0.048,0.119-0.057,0.13-0.256,0.347c-0.162,0.175-0.229,0.238-0.309,0.29c-0.057,0.036-0.14,0.093-0.186,0.125
	c-0.046,0.032-0.135,0.091-0.197,0.131c-0.062,0.04-0.157,0.1-0.209,0.136c-0.136,0.091-0.314,0.183-0.379,0.192
	c-0.069,0.01-0.075,0.005-0.082-0.085c-0.006-0.067-0.119-0.531-0.165-0.676c-0.037-0.114-0.116-0.504-0.131-0.644
	c-0.039-0.37,0.091-0.701,0.326-0.832C296.596,276.542,296.861,276.484,297.113,276.49z"/>
<path id="path9010" fill="none" stroke="#754C24" stroke-width="1.25" stroke-linecap="square" stroke-linejoin="bevel" d="
	M283.889,284.058c0.808-0.126,2.272-0.297,3.644-0.159c2.034,0.203,2.984,0.271,4.883,0c1.677-0.24,3.99-0.426,5.395-0.327"/>
</svg>
