<?xml version="1.0" encoding="UTF-8" standalone="no"?>
<svg
   xmlns:dc="http://purl.org/dc/elements/1.1/"
   xmlns:cc="http://creativecommons.org/ns#"
   xmlns:rdf="http://www.w3.org/1999/02/22-rdf-syntax-ns#"
   xmlns:svg="http://www.w3.org/2000/svg"
   xmlns="http://www.w3.org/2000/svg"
   xmlns:sodipodi="http://sodipodi.sourceforge.net/DTD/sodipodi-0.dtd"
   xmlns:inkscape="http://www.inkscape.org/namespaces/inkscape"
   version="1.1"
   height="32"
   width="32"
   id="Svg"
   sodipodi:docname="arete1a.svg"
   inkscape:version="0.92.2 5c3e80d, 2017-08-06">
  <sodipodi:namedview
     pagecolor="#ffffff"
     bordercolor="#666666"
     borderopacity="1"
     objecttolerance="10"
     gridtolerance="10"
     guidetolerance="10"
     inkscape:pageopacity="0"
     inkscape:pageshadow="2"
     inkscape:window-width="1039"
     inkscape:window-height="697"
     id="namedview8"
     showgrid="false"
     inkscape:zoom="22.627417"
     inkscape:cx="11.151882"
     inkscape:cy="10.625203"
     inkscape:window-x="51"
     inkscape:window-y="0"
     inkscape:window-maximized="0"
     inkscape:current-layer="Svg" />
  <metadata
     id="metadata936">
    <rdf:RDF>
      <cc:Work
         rdf:about="">
        <dc:format>image/svg+xml</dc:format>
        <dc:type
           rdf:resource="http://purl.org/dc/dcmitype/StillImage" />
        <dc:title></dc:title>
      </cc:Work>
    </rdf:RDF>
  </metadata>
  <defs
     id="defs3" />
  <path
     style="opacity:1;fill:#999999;fill-opacity:1;stroke:none;stroke-width:0.99961704"
     d="M 7.0725158,8.984 C 6.9637171,9.1539215 6.8553991,9.3238511 6.7466024,9.4937796 L 7.1954652,9.9371505 7.7282458,9.7125355 7.6814079,9.1246288 Z m 24.2620082,0.062502 -0.325914,0.5097796 0.448862,0.4433709 0.532782,-0.224615 -0.04684,-0.5879068 z m -11.756301,1.216829 -0.409832,0.0078 -0.288833,0.240242 0.160029,0.419933 0.249802,0.134769 0.271269,0.06641 0.202964,-0.402353 0.0527,-0.296883 z m 5.59322,0.04297 -0.310301,0.25196 0.04099,0.318368 0.206867,0.226569 0.39617,0.0918 0.206867,-0.337899 0.0059,-0.353525 -0.241996,-0.156255 z m -12.218825,0.210943 c -0.09244,0.07504 -0.202223,0.164177 -0.310301,0.25196 l 0.04099,0.316415 0.206867,0.228521 0.39617,0.08789 0.206867,-0.333994 0.0059,-0.353525 -0.241995,-0.156254 z m -12.5583994,0.101565 -0.31030078,0.251959 0.04098312,0.318368 0.20686719,0.226569 0.39617017,0.0918 0.20686719,-0.3379 0.005854,-0.353525 -0.24199558,-0.156254 z m 6.3445775,0.324226 c -0.082938,0.173826 -0.1668577,0.347669 -0.2498019,0.521499 l 0.4254439,0.408214 0.5464416,-0.296883 -0.093676,-0.599626 z m 24.7791749,0.09961 c -0.119932,0.03609 -0.239096,0.07127 -0.35909,0.107425 l -0.09758,0.367197 0.265415,0.220709 0.115143,0.248053 0.446911,-0.0098 0.05854,-0.36915 -0.07025,-0.357397 z m -12.031473,0.720722 -0.327865,0.05273 -0.251753,0.310555 0.185399,0.408214 0.327865,0.06445 0.339575,-0.148441 0.07221,-0.42384 z m 6.658781,0.132816 c -0.08293,0.173826 -0.166857,0.347668 -0.249802,0.521499 l 0.425444,0.408214 0.546442,-0.296883 -0.09368,-0.599625 z m -25.51491955,0.05273 -0.38446072,0.498061 0.28688185,0.501966 0.57571532,-0.117191 0.068305,-0.62111 z m 24.51180955,0 -0.384461,0.498061 0.286882,0.501966 0.575716,-0.117191 0.06831,-0.62111 z m -0.09758,1.000027 -0.462524,0.345712 0.187352,0.558609 0.622553,-0.0078 0.130755,-0.380869 0.0644,-0.191411 z m 0.478136,0.515639 0.113192,0.435559 0.158078,0.255865 0.290784,-0.0293 0.300544,-0.279305 0.05854,-0.371104 -0.398122,-0.207036 -0.277124,0.06445 z m -11.914378,-1.42582 -0.444959,0.02734 -0.177594,0.285164 0.01951,0.369151 0.370799,0.218756 0.366897,-0.23047 0.06636,-0.324227 z m -6.0323252,0.244147 c -0.122406,0.05271 -0.2444477,0.105486 -0.3668966,0.158207 l -0.025371,0.445325 0.2615114,0.210943 0.3668965,0.02539 0.2615157,-0.3418 -0.1814966,-0.392589 z m -0.9874941,0.06446 c -0.1199327,0.03609 -0.2390962,0.07127 -0.3590902,0.107425 l -0.097579,0.367198 0.2654145,0.220709 0.115143,0.248053 0.4469112,-0.0098 0.058548,-0.369151 -0.070256,-0.35743 z m 24.8123523,0.06055 c -0.122406,0.05271 -0.244448,0.105485 -0.366897,0.158207 l -0.02537,0.445325 0.261511,0.210942 0.366897,0.02539 0.261511,-0.341806 -0.181497,-0.392589 z m -29.9918382,0.376963 -0.277124,0.06445 -0.24589874,0.130864 0.11514304,0.435559 0.00391,0.0059 0.152223,0.250006 0.2907849,-0.0293 0.3024945,-0.279305 0.056596,-0.371103 z M 1.0050623,13.421619 0.4625238,13.097391 0,13.443103 l 0.18735141,0.558609 0.62255314,-0.0078 z M 12.691106,12.847384 c -0.09319,0.09228 -0.185888,0.185059 -0.279075,0.277352 l -0.09368,0.339853 0.199062,0.210943 0.286882,0.113284 0.361041,-0.169926 0.03708,-0.320322 -0.146369,-0.269538 z m -4.197842,0.101566 -0.4078796,0.0059 -0.1170946,0.376963 0.052692,0.234382 -0.2927365,-0.05469 -0.3337198,0.11719 -0.058548,0.283211 0.023418,0.109378 -0.4722817,0.04102 -0.1600293,0.480482 -0.035128,-0.0098 -0.240044,0.21485 -0.070257,0.298836 0.019516,0.04883 -0.2537051,0.0039 -0.093676,0.298837 -0.070256,0.01172 -0.01171,0.01367 -0.01171,-0.07813 0.078063,-0.261726 -0.341526,-0.28907 -0.056596,0.04687 -0.017564,-0.01758 -0.3103007,0.08008 -0.1990609,0.232429 -0.042935,0.40626 0.09953,0.04492 -0.025371,0.01953 -0.00195,0.02539 -0.1580777,0.187505 -0.066353,0.25782 -0.1170946,-0.04883 -0.327865,0.302743 0.1112399,0.175785 -0.1346588,0.390637 0.493749,0.392588 0.4917974,-0.212896 0.1444168,-0.482435 -0.052692,-0.0625 0.00976,-0.01563 0.019516,0.0332 0.4293469,0.02148 0.115143,-0.195318 0.017564,0.002 0.00586,0.0039 0.046838,0.12305 0.087821,0.04687 -0.290785,0.451185 0.4488627,0.445324 0.5327805,-0.224616 -0.00391,-0.03711 0.2068672,-0.002 0.2498019,-0.175785 0.1366104,-0.384777 -0.3083492,-0.244147 -0.3493324,-0.05078 0.013661,-0.02734 0.052692,-0.29493 -0.1561262,-0.113284 -0.019516,-0.12891 0.1541746,-0.20313 -0.060499,-0.156254 0.062451,-0.002 0.2946882,-0.195318 -0.00391,-0.140629 0.4566691,-0.138675 0.1053852,-0.525405 -0.00586,-0.0059 0.2556567,-0.136723 0.1405135,-0.273445 -0.039032,-0.283211 0.1873514,0.06445 0.304446,-0.0332 0.240044,-0.318367 -0.115143,-0.298836 z m 11.527966,0.134769 c -0.118974,0.06539 -0.238106,0.13186 -0.357138,0.197271 l 0.07025,0.386729 0.226382,0.269539 0.286882,-0.04492 0.253706,-0.171879 0.0059,-0.03516 v -0.410167 l -0.181497,-0.158207 z m -1.069465,0.0957 -0.277123,0.0625 -0.245899,0.132815 0.115143,0.435559 0.156126,0.255866 0.290786,-0.0293 0.302494,-0.279304 0.05659,-0.371103 z m 12.757462,0.33204 -0.333721,0.11719 -0.0605,0.283211 0.02537,0.109378 -0.472281,0.04102 -0.16003,0.480482 -0.03708,-0.0098 -0.238092,0.21485 -0.07025,0.298836 0.01951,0.04883 -0.253706,0.0039 -0.09562,0.298837 -0.07025,0.01172 -0.01171,0.01367 -0.339575,-0.109378 0.08002,-0.261726 -0.341526,-0.289069 -0.0566,0.04687 -0.01757,-0.01758 -0.310301,0.08008 -0.199061,0.232428 -0.04294,0.406261 0.425444,0.07617 -0.02342,0.01953 -0.002,0.02539 -0.158077,0.187505 -0.06831,0.25782 -0.115143,-0.04883 -0.327865,0.302743 0.11124,0.175785 -0.134658,0.390637 0.493748,0.392588 0.491798,-0.212896 0.144417,-0.482435 -0.05269,-0.0625 0.0098,-0.01563 0.01757,0.0332 0.431299,0.02148 0.113191,-0.195318 0.01951,0.002 0.0059,0.0039 0.04683,0.12305 0.08587,0.04687 -0.288833,0.451185 0.44691,0.445324 0.532782,-0.224616 -0.002,-0.03711 0.206868,-0.002 0.249802,-0.175785 0.13661,-0.384777 -0.308349,-0.244147 -0.349333,-0.05078 0.01366,-0.02734 0.05269,-0.29493 -0.156126,-0.113284 -0.01952,-0.12891 0.154175,-0.20313 -0.0605,-0.156254 0.06245,-0.002 0.294689,-0.195318 -0.0039,-0.140629 0.456668,-0.138675 0.105386,-0.525405 -0.0059,-0.0059 0.226382,-0.136723 v -0.695175 z m -25.5871293,0.01954 c -0.061894,0.07413 -0.123467,0.14845 -0.1853998,0.222662 l -0.078063,0.296883 0.2146734,0.339853 0.3181071,-0.0039 0.2498019,-0.175786 0.138562,-0.384776 L 6.47143,13.579832 Z m 11.6762863,0.03125 c -0.07709,0.127442 -0.153197,0.25538 -0.230286,0.382823 l 0.134658,0.306649 0.312252,0.195318 0.390316,-0.179693 0.02147,-0.435558 -0.230287,-0.238288 z m 6.153323,0.218756 c -0.06189,0.07413 -0.123468,0.14845 -0.1854,0.222662 l -0.07807,0.296883 0.214674,0.339853 0.318106,-0.0039 0.249802,-0.17774 0.138562,-0.382822 -0.308349,-0.2461 z m -22.7866154,0.136723 -0.18539984,0.222662 -0.0663537,0.25196 -0.0819663,-0.03906 -0.38446071,0.500013 0.0195158,0.0332 -0.23809243,0.0039 -0.22052822,0.185552 v 1.281284 l 0.02732208,0.002 0.05464416,0.115237 0.23028611,-0.0059 0.0897726,0.126957 0.0409831,0.07227 0.009758,-0.002 0.19906088,0.279303 0.12685252,-0.03516 0.30639765,0.261726 0.3376228,-0.20313 L 1.6002934,16.659938 1.4578282,16.407979 1.2080264,16.23024 h -0.00195 L 1.2002164,16.15211 1.077267,16.10914 1.094831,15.929448 0.92114067,15.845468 1.0967827,15.579835 0.83917443,15.331782 l 0.33762287,-0.06836 -0.033177,0.210943 0.452766,0.230475 -0.199061,0.414074 0.4254438,0.410167 0.5464416,-0.298836 -0.080014,-0.519545 0.1170946,0.16016 0.068305,0.388683 0.021467,0.02344 -0.00586,0.002 -0.2010125,0.232429 -0.040984,0.404307 0.3590902,0.164068 0.3493323,-0.03516 0.1268525,-0.259772 0.00391,-0.308602 -0.040984,-0.03906 0.1327073,-0.08789 0.1541746,0.265632 0.4957007,0.08594 0.3981216,-0.421887 -0.1912545,-0.44923 0.1717388,-0.02539 0.2556567,-0.17188 0.064402,-0.394542 -0.240044,-0.210943 -0.3063976,-0.03125 -0.355187,0.195318 0.066353,0.388683 0.1034336,0.121096 -0.4000733,-0.08594 -0.1502714,0.242193 -0.1775936,-0.156254 -0.089773,-0.0098 0.033177,-0.0098 0.1034336,-0.525405 -0.060499,-0.07617 0.3727512,-0.39651 L 3.19863,14.153993 2.593641,14.025084 2.261873,14.56416 2.4023865,14.804402 2.224793,14.820022 2.0823279,15.247769 1.809107,14.802444 l -0.4605722,0.07227 0.00976,-0.101565 h 0.076112 l 0.2498126,-0.17774 0.1366104,-0.382822 -0.3083492,-0.244148 z m 23.9809804,0 -0.1854,0.222662 -0.06636,0.25196 -0.08197,-0.03906 -0.384461,0.500013 0.01952,0.0332 -0.238092,0.0039 -0.220528,0.185552 -0.06831,0.05664 0.01562,0.04297 -0.197109,-0.130863 -0.28493,-0.08789 -0.199061,0.21485 -0.01757,0.185552 -0.124901,-0.07031 -0.460573,0.419933 0.187351,0.447278 -0.02342,0.002 -0.175642,0.287117 0.01171,0.220708 -0.07807,-0.02344 -0.302494,0.312508 0.01366,0.33204 0.277124,0.287118 0.425444,-0.13477 0.103434,-0.318367 -0.03123,-0.107425 0.337623,-0.210944 0.01366,-0.06641 0.191254,0.002 0.269319,-0.06836 -0.0039,-0.314462 0.120998,0.0039 0.02732,0.002 0.05465,0.115237 0.230286,-0.0059 0.08977,0.126957 0.04098,0.07227 0.0098,-0.002 0.199061,0.279303 0.126852,-0.03516 0.306398,0.261726 0.337622,-0.20313 0.169788,-0.308603 -0.142465,-0.251959 -0.249802,-0.177739 h -0.002 l -0.0059,-0.07813 -0.122948,-0.04297 0.01757,-0.179692 -0.173691,-0.08398 0.175642,-0.265633 -0.257609,-0.248053 0.337624,-0.06836 -0.03317,0.210943 0.452766,0.230475 -0.199061,0.414074 0.425443,0.410167 0.546442,-0.298836 -0.08197,-0.521499 0.119046,0.162114 0.06831,0.388683 0.02146,0.02344 -0.0059,0.002 -0.201013,0.232429 -0.04099,0.404307 0.35909,0.164068 0.349332,-0.03516 0.126852,-0.259772 0.0039,-0.308602 -0.04098,-0.03906 0.130755,-0.08789 0.156126,0.265632 0.495701,0.08594 0.398121,-0.421887 -0.191254,-0.44923 0.171739,-0.02539 0.255656,-0.17188 0.0644,-0.394542 -0.240045,-0.210943 -0.306397,-0.03125 -0.355187,0.195318 0.06636,0.388683 0.103433,0.121096 -0.400073,-0.08594 -0.150272,0.242193 -0.177593,-0.156254 -0.08977,-0.0098 0.03317,-0.0098 0.103434,-0.525405 -0.0605,-0.07617 0.372751,-0.396495 -0.228335,-0.535171 -0.604988,-0.128909 -0.331769,0.539076 0.140514,0.240242 -0.177594,0.01562 -0.142465,0.427747 -0.273221,-0.445325 -0.460572,0.07227 0.0098,-0.101565 h 0.07611 l 0.249802,-0.17774 0.136611,-0.382822 -0.30835,-0.244148 z m -11.793381,0.03711 -0.361041,0.06055 -0.09367,0.216802 -0.351285,0.07031 -0.310301,0.193365 -0.0605,0.373057 -0.144415,0.03125 -0.03513,0.298836 -0.03708,0.01758 -0.002,-0.002 -0.212722,-0.210944 -0.277123,0.09961 -0.226382,0.341805 0.02732,0.310555 -0.138563,0.08008 0.002,0.0059 -0.405928,-0.185551 -0.427395,0.322274 -0.02342,0.468763 -0.199074,-0.240242 -0.3298173,0.09375 L 9.882787,16.165833 9.7325156,15.650194 9.2699917,15.449017 9.1782677,15.509566 9.121672,15.064241 8.9128532,14.874783 8.6650028,14.745873 c -0.046465,0.05414 -0.092089,0.107965 -0.138562,0.162113 l -0.013661,-0.0918 0.078063,-0.263679 -0.3395745,-0.28907 -0.2888335,0.238288 -0.1834482,0.314461 0.1307556,0.392589 0.3415261,0.158208 0.00195,-0.002 0.1873514,0.218756 0.4000734,0.0918 0.3181071,-0.154301 -0.3747029,0.242194 0.017564,0.103519 -0.3883619,-0.117145 -0.3024945,0.312508 0.013661,0.33204 0.2771239,0.287118 0.4273954,-0.132817 0.064402,-0.20313 0.540587,0.263679 -0.1190463,0.343759 0.4957007,0.392589 0.4898464,-0.212897 0.144416,-0.480481 -0.09368,-0.113285 0.32201,0.238289 -0.01366,0.04492 0.07807,0.343759 0.27322,0.09375 0.306397,-0.0332 0.23419,-0.314462 0.232238,-0.0078 0.138563,-0.216803 0.273221,0.281258 0.427395,-0.132816 0.0098,-0.03125 0.03513,0.04297 0.286882,-0.04297 0.132707,-0.08984 0.109288,0.0039 0.0059,-0.002 -0.0527,0.199224 0.199061,0.210943 0.09953,0.03906 -0.124901,0.27735 0.002,-0.109378 -0.310301,-0.150394 -0.169788,-0.214849 c -0.143171,0.039 -0.287921,0.07816 -0.431298,0.117191 l 0.03123,0.373056 0.154173,0.330087 0.398123,0.115238 0.323961,-0.191411 0.002,-0.158208 0.241994,0.298836 0.329819,0.02734 0.320058,-0.24024 -0.08197,-0.439465 -0.212721,-0.09766 0.07416,-0.03516 0.03708,-0.318367 -0.142465,-0.261726 0.218577,-0.339852 -0.384461,-0.500014 -0.01561,0.002 0.226383,-0.109378 -0.04294,-0.341806 0.243947,0.0098 0.347381,-0.115238 0.161981,-0.380869 -0.150272,-0.343759 -0.374702,-0.05273 c -0.06245,0.09717 -0.124901,0.193851 -0.187352,0.291023 l -0.234189,0.144535 0.03122,0.207037 -0.0605,-0.05469 -0.24785,-0.128909 -0.292738,0.341806 -0.122949,0.275397 0.189304,0.222662 0.3103,0.07031 -0.308349,0.05078 -0.17369,0.28907 -0.179545,-0.01758 0.07416,-0.175786 0.04294,-1.068387 0.07807,-0.08008 0.05074,0.06445 0.331768,0.02734 0.318107,-0.240241 -0.08002,-0.439465 -0.304445,-0.140629 z m 6.165033,0.17188 -0.169788,0.263679 -0.341526,-0.154301 -0.288834,0.171879 -0.08391,0.181646 -0.179545,0.162113 -0.0059,0.02734 -0.444959,0.125003 -0.0059,0.0918 -0.09173,0.01953 -0.08977,0.05664 -0.113192,-0.03711 -0.355186,0.468762 0.08782,0.126957 h -0.03708 l -0.288834,0.242194 0.08392,0.216803 -0.267366,0.09766 -0.158078,0.367198 0.183448,0.261725 0.288834,0.105471 0.394218,-0.105471 0.01171,-0.17188 0.427395,-0.08789 0.03122,-0.281258 0.01562,-0.01563 0.181497,0.07813 0.304445,-0.130864 0.169788,-0.361337 -0.08977,-0.115238 0.208819,-0.06836 0.08002,-0.283211 0.24785,-0.166019 -0.0039,-0.136723 h 0.002 l 0.05659,-0.06836 0.03903,0.002 c -0.01204,0.01966 -0.02504,0.03893 -0.03708,0.05859 l 0.175643,0.302743 -0.02537,-0.02539 -0.310301,0.08008 -0.201012,0.232429 -0.04098,0.404307 0.150271,0.06836 -0.148319,0.121097 0.04098,0.318368 0.181497,0.197271 -0.111239,0.09375 0.160029,0.41798 0.249801,0.136723 0.27127,0.06445 0.202964,-0.402354 0.05269,-0.29493 -0.236141,-0.169927 0.03903,-0.0625 0.0078,-0.353524 -0.117095,-0.07617 0.09368,-0.191411 0.0039,-0.306649 -0.08002,-0.07617 0.405928,0.07031 0.396171,-0.421887 -0.226384,-0.53517 -0.208818,-0.04492 0.03903,-0.09375 -0.152223,-0.343759 z m -2.669758,0.380869 -0.450814,0.42384 0.216625,0.484388 -0.11124,-0.01563 -0.30835,0.251959 0.03903,0.320321 0.02342,0.02539 -0.243948,-0.101566 -0.0683,-0.439465 -0.63036,-0.03516 -0.24785,0.521498 0.423493,0.410168 0.07611,-0.04102 0.08782,0.585954 0.620601,0.11719 0.335671,-0.416027 -0.0722,-0.378916 0.300543,0.06836 0.206867,-0.337899 0.0078,-0.351572 -0.105385,-0.06836 0.240044,0.01953 0.351284,-0.361338 -0.120998,-0.566421 -0.567909,-0.115238 z m 15.134481,0.216803 -0.17369,0.316415 0.177593,0.279304 z m -24.1995571,0.519545 -0.5737637,0.263679 0.021467,0.576187 0.5659574,0.164067 0.3473807,-0.515638 z m 23.9809801,0 -0.589376,0.457044 0.163933,0.527358 0.599134,0.03516 0.04488,-0.281258 v -0.468762 z m -11.432339,0.376964 -0.542539,0.322273 0.02537,0.535172 0.400073,0.306648 0.312252,-0.109378 0.277125,0.484388 0.577666,-0.119143 0.06636,-0.611345 0.126852,-0.119144 0.20882,0.17188 0.115142,0.250006 0.446912,-0.0098 0.05854,-0.36915 -0.07025,-0.357431 -0.361041,-0.207038 -0.245899,0.07422 0.002,-0.01367 -0.398121,-0.207037 -0.277125,0.0625 -0.245899,0.132816 0.08782,0.328134 -0.11124,0.146488 0.02342,-0.29493 z m -5.747394,0.265632 -0.427396,0.265632 -0.01757,0.580093 0.524974,0.248054 0.538636,-0.304696 -0.109289,-0.62111 z m -5.5307703,0.802755 c -0.1497202,9e-4 -0.2990914,9.53e-4 -0.4488628,0.002 L 8.3898305,16.876789 8.2317527,17.107264 8.4327651,17.327973 8.2415106,17.230315 7.9819509,17.53501 7.962435,17.400241 7.6892142,17.142421 c -0.1321991,0.06982 -0.263955,0.139168 -0.3961702,0.20899 l -0.1034335,0.263679 -0.015613,0.125003 -0.277124,-0.05078 -0.3298165,0.119144 -0.06245,0.283211 0.068305,0.298836 0.3473808,0.201177 0.2829786,-0.150395 0.138562,-0.275397 -0.029274,-0.216803 0.2693176,0.09766 0.2985912,0.01758 0.050741,-0.09375 0.085869,0.09961 0.4000733,0.08984 0.3376228,-0.164067 -0.056596,-0.445325 -0.040983,-0.03711 0.1366105,0.08008 0.2439471,-0.162113 0.1385619,-0.386729 z m -1.172898,1.375037 c -0.1775932,0.08447 -0.3551871,0.16944 -0.5327805,0.253913 l 0.083917,0.617204 0.591328,0.125004 0.2556566,-0.578141 z M 6.5670573,17.808455 6.4441079,17.452977 c -0.1375337,5e-4 -0.2959313,0.0014 -0.4488627,0.002 l -0.2166251,0.183599 -0.1561262,0.232428 0.3044461,0.33204 0.2576082,0.154301 0.2439471,-0.162115 z m 11.6138357,-1.119171 -0.199061,0.216803 -0.04098,0.408214 0.202964,0.316414 0.437154,-0.109378 0.163932,-0.230474 0.09758,-0.261726 -0.376654,-0.251959 z m -16.6625659,0.316415 -0.1873514,0.291023 -0.2322377,0.144535 0.06245,0.4297 -0.1053853,-0.01953 -0.25565654,0.279305 0.13270725,0.318368 -0.0136611,0.273445 0.36494499,0.181645 -0.00976,0.16602 0.2615114,0.210944 0.3668965,0.02539 0.2634628,-0.341806 -0.1834482,-0.392588 -0.3142039,-0.105472 -0.089773,0.03711 0.066353,-0.230474 -0.2205282,-0.351573 -0.1893031,-0.03516 0.2985914,0.01172 0.3473807,-0.115239 0.1619809,-0.380869 -0.1502714,-0.345712 z m -0.59913423,1.716843 -0.3512839,-0.36915 -0.53278058,0.253912 0.08196624,0.619157 0.5913279,0.12305 0.2576082,-0.576186 z m 24.58011513,-1.716843 -0.187352,0.291023 -0.232238,0.144535 0.0644,0.441418 0.3708,0.01563 0.347381,-0.115239 0.16198,-0.380869 -0.150271,-0.345712 z m -13.717636,0.08789 -0.115144,0.248054 -0.265414,0.220709 0.09562,0.365243 c 0.119519,0.03613 0.239613,0.07326 0.35909,0.109378 l 0.361042,-0.208989 0.07025,-0.357432 -0.05854,-0.367197 z m 19.888523,0.04883 c -0.39617,0.20899 -0.263955,0.139169 -0.39617,0.20899 l -0.103434,0.263679 -0.01562,0.125003 -0.277124,-0.05078 -0.329816,0.119144 -0.06245,0.283211 0.06831,0.298836 0.34738,0.201177 0.282979,-0.150395 0.138562,-0.275397 -0.02928,-0.216803 0.269318,0.09766 0.298591,0.01758 0.136611,-0.226568 h -0.01562 V 17.208837 H 32 Z m -30.91883778,0.15821 c -0.14831846,0.0093 -0.29663983,0.02 -0.4449596,0.0293 l -0.17759352,0.285164 0.0175642,0.367198 0.37079966,0.220709 0.3688481,-0.230476 0.0663537,-0.32618 z m 23.98098078,0 c -0.148318,0.0093 -0.29664,0.02 -0.44496,0.0293 l -0.177593,0.285164 0.01757,0.367198 0.3708,0.220709 0.368847,-0.230476 0.06636,-0.32618 z m -0.604989,0.681659 -0.604989,-0.12891 -0.331768,0.539077 0.269317,0.462903 0.497652,0.08398 0.398123,-0.421886 z m 6.071357,-0.619158 c -0.137534,5e-4 -0.295932,0.0014 -0.448863,0.002 l -0.216626,0.183599 -0.156126,0.232428 0.304447,0.33204 0.257607,0.154301 0.243948,-0.162113 0.138562,-0.386729 z m -10.99909,0.04492 c -0.136569,0.0029 -0.27323,0.0049 -0.409831,0.0078 l -0.290785,0.24024 0.161981,0.419933 0.249802,0.13477 0.271269,0.06641 0.202964,-0.404308 0.05269,-0.29493 z m 7.64628,0.167974 -0.327865,0.05273 -0.251754,0.310556 0.183449,0.408214 0.329816,0.06445 0.337623,-0.148441 0.07416,-0.423839 z m -7.045194,0.125003 c -0.118559,0.04297 -0.238579,0.08594 -0.357139,0.12891 l -0.02928,0.341806 -0.140514,0.236334 0.263463,0.363291 0.335671,-0.162113 0.255657,-0.261726 -0.03513,-0.412121 z m -1.949626,0.154301 c -0.112182,0.08933 -0.223456,0.178243 -0.335671,0.267586 l 0.08392,0.425792 0.281027,0.177739 0.394219,-0.06445 0.130755,-0.427746 -0.204916,-0.265632 z m 7.570169,0.111331 c -0.0853,0.09317 -0.170305,0.186052 -0.255658,0.279305 l 0.132708,0.318367 -0.01366,0.273446 0.364944,0.181644 -0.0098,0.166021 0.261512,0.210943 0.366896,0.02539 0.263463,-0.341806 -0.183449,-0.392588 -0.314203,-0.105472 -0.08977,0.03711 0.06636,-0.230475 -0.220529,-0.351573 z m -11.387454,0.01563 c -0.04364,0.102185 -0.09538,0.224357 -0.146367,0.343759 l -0.01562,0.363291 0.300543,0.28907 0.374703,-0.01953 0.181497,-0.333993 -0.204917,-0.275398 -0.0527,-0.269539 z m -0.712325,0.162113 c -0.139544,0.05567 -0.280045,0.110349 -0.419588,0.166021 l -0.236142,0.185551 0.05659,0.25196 -0.0098,-0.01367 c -0.139538,0.05566 -0.28005,0.110349 -0.419588,0.16602 l -0.236142,0.185552 0.0644,0.287117 0.314204,0.263679 0.374702,0.01172 0.158078,-0.419933 -0.09758,-0.265632 -0.101483,-0.146489 0.275174,0.232428 0.374702,0.01172 0.158078,-0.421887 -0.09758,-0.265632 z m 18.426792,0.05664 c -0.177593,0.08447 -0.355188,0.16944 -0.532781,0.253912 l 0.08391,0.617205 0.591328,0.125003 0.09758,-0.533218 z m -6.723184,0.654314 -0.532781,0.253913 0.08197,0.619157 0.591327,0.12305 0.257609,-0.576187 z m -6.003051,0.05078 -0.540588,0.324228 0.02537,0.53517 0.398122,0.304696 0.548394,-0.187505 0.04488,-0.580094 z m -11.7036085,0.16602 c -0.1247133,0.0022 -0.2679525,0.0053 -0.4078796,0.0078 l -0.1190462,0.376975 0.078063,0.341806 0.2732208,0.0957 0.3044461,-0.0332 0.2419955,-0.320321 -0.115143,-0.298836 z m 6.4675265,0.07422 c -0.173659,0.02726 -0.374589,0.05918 -0.56986,0.08984 l -0.09368,0.584 0.5562,0.281257 0.439103,-0.416026 z m 17.618839,0.482435 c -0.124712,0.0022 -0.267952,0.0053 -0.407879,0.0078 l -0.119047,0.376963 0.07807,0.341806 0.273221,0.0957 0.304446,-0.0332 0.241996,-0.320322 -0.115144,-0.298836 z m -30.40752404,0.04101 -0.36494494,0.07422 -0.3083492,0.193364 -0.0663536,0.410167 0.22833453,0.298836 0.37665441,-0.04102 0.11123991,-0.326181 0.19320603,-0.195318 z M 25.856446,20.150315 c -0.112392,0.02295 -0.239991,0.04872 -0.364945,0.07422 l -0.308349,0.193365 -0.06636,0.410167 0.228335,0.298836 0.376654,-0.04102 0.11124,-0.326181 0.193207,-0.195318 z m -12.466674,0.263678 c -0.103433,0.02637 -0.206862,0.05372 -0.310301,0.08008 l -0.201014,0.232427 -0.04098,0.406261 0.35909,0.164067 0.349333,-0.03711 0.124904,-0.259773 0.0059,-0.306649 z m -13.37806254,0.29493 0.01366105,1.054716 0.21077033,-0.25782 0.15807776,-0.521498 z M 31.982447,21.064401 c -0.124884,0.05956 -0.304452,0.08886 -0.429347,0.148442 l -0.115143,0.357431 0.245899,0.287117 0.298591,-0.09375 z m -24.4415526,0.03125 c -0.1248839,0.05956 -0.2498079,0.120121 -0.3747029,0.179693 l -0.115143,0.35743 0.2458987,0.287118 0.3317681,-0.09375 0.2693177,0.04687 0.2458987,-0.373052 -0.2693176,-0.257819 z m 11.4908866,1.08206 c -0.124894,0.05908 -0.249804,0.118648 -0.374703,0.17774 L 18.541935,22.712883 18.789785,23 l 0.331768,-0.09375 0.269318,0.04687 0.06245,-0.09375 v -0.45509 l -0.08587,-0.08398 z"
     id="path962"
     inkscape:connector-curvature="0" />
  <rect
     style="fill:none;fill-opacity:1;stroke:none"
     id="rect8566"
     y="0.99218845"
     x="0"
     rx="0"
     height="24"
     width="24" />
  <desc
     id="desc932">Created with Snap</desc>
</svg>
