<?xml version="1.0" encoding="UTF-8" standalone="no"?>
<svg
   xmlns:dc="http://purl.org/dc/elements/1.1/"
   xmlns:cc="http://creativecommons.org/ns#"
   xmlns:rdf="http://www.w3.org/1999/02/22-rdf-syntax-ns#"
   xmlns:svg="http://www.w3.org/2000/svg"
   xmlns="http://www.w3.org/2000/svg"
   xmlns:sodipodi="http://sodipodi.sourceforge.net/DTD/sodipodi-0.dtd"
   xmlns:inkscape="http://www.inkscape.org/namespaces/inkscape"
   id="Svg"
   width="32"
   height="32"
   version="1.1"
   sodipodi:docname="arete-mz.svg"
   inkscape:version="0.92.2 5c3e80d, 2017-08-06">
  <sodipodi:namedview
     pagecolor="#ffffff"
     bordercolor="#666666"
     borderopacity="1"
     objecttolerance="10"
     gridtolerance="10"
     guidetolerance="10"
     inkscape:pageopacity="0"
     inkscape:pageshadow="2"
     inkscape:window-width="1284"
     inkscape:window-height="741"
     id="namedview8"
     showgrid="false"
     inkscape:zoom="16.208955"
     inkscape:cx="9.3595004"
     inkscape:cy="18.124755"
     inkscape:window-x="0"
     inkscape:window-y="0"
     inkscape:window-maximized="0"
     inkscape:current-layer="Svg" />
  <metadata
     id="metadata911">
    <rdf:RDF>
      <cc:Work
         rdf:about="">
        <dc:format>image/svg+xml</dc:format>
        <dc:type
           rdf:resource="http://purl.org/dc/dcmitype/StillImage" />
        <dc:title></dc:title>
      </cc:Work>
    </rdf:RDF>
  </metadata>
  <defs
     id="defs3" />
  <path
     id="path1023"
     style="fill:#999999;fill-opacity:1;stroke:none;stroke-width:0.72605091"
     d="m 23.959936,24.563482 -0.0973,0.14192 0.03244,0.13282 0.179149,0.18359 0.179148,-0.0924 0.0093,-0.23699 -0.08649,-0.11719 z m -8.108696,-1.860872 -0.08658,0.22266 0.113414,0.1901 0.208537,-0.0339 0.07805,-0.17838 -0.08293,-0.1875 z m -8.0834479,0.33903 -0.1870305,0.14844 0.017748,0.21744 0.2156995,0.0703 0.1569964,-0.11588 0.00956,-0.19922 z m -7.70724523,-0.51299 0.0097656,0.14323 -0.03125,0.14973 0.25,0.007 0.11132812,-0.14975 -0.11132812,-0.12369 z m 24.87232413,-0.90886 -0.236776,0.0417 -0.07305,0.23438 0.127204,0.16406 0.177582,0.056 0.195214,-0.15755 -0.04282,-0.22396 z m -16.568384,-1.23177 -0.2160495,0.11849 0.030864,0.21224 0.1641976,0.15885 0.1580248,0.0169 0.083951,-0.14583 0.062963,-0.25 -0.1333334,-0.0742 z m 7.67737,-0.11979 -0.139257,0.1888 -0.0026,0.17578 0.1061,0.15104 0.232095,-0.009 0.11671,-0.13411 0.04509,-0.15886 -0.139263,-0.14843 z m -15.60499639,-0.65885 -0.16112532,0.0143 -0.0882353,0.18099 0.0140665,0.22396 0.22122761,0.0599 0.16240409,-0.0599 L 0.6875,19.87889 0.59926471,19.66925 Z m 24.03647139,-0.14581 -0.196427,0.0651 -0.114796,0.15234 0.07398,0.24349 0.221936,0.0378 0.156888,-0.10156 0.0472,-0.24349 z m -7.825799,-0.0013 -0.231517,0.28515 0.201556,0.29818 0.347277,0.013 0.151167,-0.29818 L 16.963487,19.513 Z M 9.0399484,19.38021 8.8337629,19.48568 8.75,19.63932 8.770619,19.82161 8.9755159,19.91931 9.1365983,19.85421 9.25,19.73442 9.1984536,19.53911 Z m -1.0353991,-0.05078 -0.427962,0.0143 -0.1161138,0.3177 0.3599526,0.22396 0.3400474,-0.22005 z m 15.7922017,-0.267912 -0.227228,0.0286 -0.20198,0.13932 0.08911,0.22006 0.163367,0.10156 0.209405,10e-4 0.138119,-0.19401 -0.0505,-0.16927 z m 7.616572,-0.367508 -0.171826,0.11588 -0.02012,0.20313 0.148607,0.12891 0.198142,0.0794 0.153251,-0.17839 -0.08204,-0.11719 -0.01858,-0.16927 z m -15.248455,-0.07422 -0.160294,0.0729 -0.135295,0.10938 -0.03529,0.2552 0.217647,0.0937 0.258824,-0.0521 0.123529,-0.1276 -0.07941,-0.15625 z m -7.8406492,-0.23568 -0.2675782,0.043 -0.1074218,0.21615 0.125,0.15495 0.2011718,0.0977 0.2792969,-0.0742 0.2070313,-0.17969 -0.1914063,-0.19401 z m 9.0456692,-0.18359 -0.281152,0.10547 -0.01257,0.22786 0.144502,0.14714 0.29843,0.0182 0.157068,-0.20964 -0.106807,-0.1901 z m -16.64527862,-0.02084 -0.35351563,0.0651 -0.23242187,0.21615 0.005859,0.1901 0.26367187,0.0794 0.43554688,0.0404 0.0996094,-0.16796 0.0292969,-0.1836 z m 23.40820262,0.48959 0.134921,0.32812 0.43492,0.005 0.130159,-0.32031 -0.322222,-0.19791 z m -0.336411,-0.57292 -0.347905,0.0664 -0.07545,0.32422 0.216567,0.20573 0.326946,-0.0234 0.156487,-0.32943 z m -8.701837,-0.11328 -0.180132,0.125 0.0159,0.21484 0.186754,0.14974 0.209271,-0.0339 0.188079,-0.10677 -0.08609,-0.24088 -0.15894,-0.0117 z m -8.1277671,-0.02083 -0.2617188,0.0182 -0.2070312,0.12109 0.056641,0.22526 0.21875,0.0977 0.2460937,0.0247 0.1953126,-0.15365 0.058594,-0.22135 z m 18.2949221,-0.08203 -0.330078,0.0651 -0.117188,0.15625 -0.0078,0.16536 0.251953,0.11068 0.335937,0.0117 0.13086,-0.21615 -0.06055,-0.17057 z m 5.984375,-0.55339 -0.296875,0.25261 0.185547,0.26041 0.328125,0.0937 0.429687,-0.125 0.0332,-0.30729 -0.314453,-0.16276 z M 7,17.28385 l -0.1425781,0.23698 0.1640625,0.11198 0.095703,0.1862 0.3222656,0.0234 0.1972657,-0.17057 -0.058594,-0.23438 -0.2636719,-0.11068 z m 15.904297,-0.03255 -0.367188,0.0417 -0.113281,0.23307 0.197266,0.16537 0.27539,0.0547 0.302735,-0.15625 -0.06836,-0.22526 z M 0.69335938,17.24219 0.453125,17.32419 0.25,17.44658 l -0.0527344,0.28777 0.32617188,0.10546 0.30859375,-0.0469 0.0820313,0.14453 0.14257807,0.13152 0.3730469,0.0625 0.1757813,-0.181 -0.037109,-0.23307 -0.1699219,-0.1237 -0.2460937,0.0508 -0.15625005,0.069 0.0976563,-0.0755 -0.1171873,-0.17708 z M 24.833984,17.39586 24.4375,17.19924 l -0.464844,0.1836 0.167969,0.32812 0.533203,0.005 z m 0.31836,-0.26823 -0.21875,0.0977 -0.09961,0.17057 0.207032,0.18229 0.261718,0.0195 0.234375,-0.0547 0.06641,-0.19531 -0.101563,-0.21484 z m -9.398438,-0.02344 -0.521484,0.0807 -0.04102,0.33594 0.457032,0.1276 0.384765,-0.2526 z m 1.142578,0.4388 -0.519531,0.0742 -0.195312,0.30599 0.339843,0.24089 0.427735,-0.0495 0.230469,-0.26432 z m 0.308594,-0.44401 -0.287109,0.0833 -0.230469,0.14714 0.208984,0.21354 0.232422,-0.0274 0.285156,0.0534 L 17.625,17.4049 17.52539,17.20047 Z m -8.4199218,-0.10286 -0.5058593,0.013 -0.28125,0.23046 -0.1445313,0.29167 0.4785156,0.17708 0.2675782,-0.13671 0.4101562,-0.0599 0.1035156,-0.30209 z m 22.4404608,-0.239583 -0.261719,0.0807 -0.06836,0.2513 0.273438,0.13803 0.283203,-0.0156 0.234375,-0.194 -0.148438,-0.22527 z M 9.5214844,17.40627 9.2070312,17.51174 9.09375,17.66148 9.2519531,17.7969 9.5664062,17.94664 9.7460938,17.84117 9.8828125,17.70705 9.8359375,17.45184 Z m 0.2539062,-0.66146 -0.4589844,0.12891 -0.083984,0.29036 0.2890625,0.24219 0.5312493,-0.0677 0.08008,-0.35807 z m 13.9570314,-0.03906 -0.269531,0.22526 0.08984,0.29948 0.517578,0.10547 0.314454,-0.28516 -0.158204,-0.3151 z M 1.5410156,16.69922 1.2128906,16.76302 1.09375,16.91927 1.08594,17.08594 1.3378931,17.19661 1.6757837,17.20831 1.80469,16.99217 1.746096,16.82159 Z m 5,-0.05339 -0.453125,0.26042 0.2226563,0.34505 0.5507812,-0.0299 0.1835938,-0.38411 z m 19.4179684,-0.08593 -0.21289,0.0729 -0.179688,0.11067 -0.04687,0.25391 0.289063,0.0937 0.34375,-0.0508 0.162109,-0.1276 -0.103515,-0.15625 z M 31.998047,16.45052 31.728516,16.73568 32,16.95573 V 16.45052 Z M 0,16.45052 v 0.50521 l 0.04296875,0.0351 0.51757813,-0.10547 -0.0449219,-0.34505 z m 30.060732,0.01628 -0.259766,0.0234 -0.208984,0.0898 0.0059,0.20052 0.175781,0.19271 0.341797,-0.0521 0.177735,-0.12891 0.03516,-0.18229 z m -5.074404,-0.139983 -0.214844,0.10156 -0.123046,0.14453 0.146484,0.17708 0.291016,0.11459 0.265624,-0.15105 0.06641,-0.16927 -0.0957,-0.17187 z m -2.966797,-0.02084 -0.21289,0.0742 -0.179688,0.10938 -0.04687,0.2539 0.289063,0.0951 0.34375,-0.0521 0.162109,-0.1276 -0.103516,-0.15625 z m -4.300781,-0.0052 -0.203125,0.0977 0.04492,0.16927 0.173828,0.23047 0.232422,-0.0378 0.214844,-0.0781 0.136718,-0.23958 -0.248047,-0.13672 z m 13.060547,-0.11979 -0.322266,0.03 -0.128906,0.19661 0.140625,0.21875 0.296875,0.0651 0.318359,-0.009 0.05469,-0.2526 -0.199219,-0.082 z m -15.037109,-0.19401 -0.181641,0.11979 -0.185547,0.22656 0.177734,0.10677 0.210938,0.0703 0.04492,0.32162 0.429687,0.16536 0.402344,-0.19531 -0.02344,-0.28906 -0.365235,-0.1849 -0.09375,0.0286 0.01563,-0.11849 -0.193359,-0.19531 z m 2.552734,-0.35547 -0.396484,0.11588 -0.0293,0.0677 -0.109375,-0.12239 -0.453125,-0.0508 -0.277344,0.23828 -0.05273,-0.0117 -0.251953,0.13411 -0.02734,0.23568 0.216796,0.14974 0.289063,0.0924 0.224609,-0.20703 -0.03906,-0.0443 0.373047,0.009 0.09961,-0.13672 0.292969,0.19271 0.476562,-0.15495 0.08008,-0.32812 z m 1.023437,-0.04297 -0.330078,0.0651 -0.117187,0.15625 -0.0078,0.16537 0.183594,0.0807 -0.224609,0.069 -0.07031,0.2513 0.273438,0.13672 0.283203,-0.0143 0.234375,-0.19401 -0.136719,-0.20834 0.04492,0.001 0.130859,-0.21614 -0.06055,-0.17058 z M 32,15.54688 l -0.07422,0.10677 -0.130859,0.0195 -0.01758,0.0625 -0.02539,-0.005 -0.197265,0.1289 -0.09961,-0.0365 -0.261719,0.0182 -0.01758,0.0104 -0.06445,-0.15885 -0.308594,-0.0625 -0.27539,0.10547 -0.02539,-0.0742 h -0.240234 l -0.234375,0.0404 -0.02539,0.0247 -0.09766,0.0221 -0.171875,-0.0924 -0.300781,0.0638 -0.175782,0.15234 0.113282,0.24479 0.33789,0.0365 0.05078,-0.0208 0.07617,0.0651 0.314454,-0.0143 0.09961,-0.0534 0.08984,0.0169 0.134765,-0.0352 0.01172,0.0521 0.382813,0.006 0.09961,-0.14323 0.03125,-0.0169 0.04492,0.17709 0.21875,0.0977 0.24414,0.0247 0.158203,-0.1237 0.08984,0.0586 L 32,16.21446 Z m -16.974609,-0.03256 -0.246094,0.15886 0.002,0.0937 -0.294922,0.0599 -0.02734,-0.0482 -0.503906,0.0143 -0.136719,0.31771 0.275391,0.14583 -0.214844,0.0833 0.09961,0.32292 0.533203,0.0677 0.15625,-0.25 0.113281,0.0781 0.289062,0.0925 0.22461,-0.20703 -0.119141,-0.13542 -0.02734,-0.19661 -0.06055,-0.0143 0.0039,-0.0859 0.09961,0.007 L 15.5,15.92488 15.46484,15.69311 15.292965,15.56029 Z m 14.03125,-0.04036 -0.244141,0.0495 -0.322266,0.14323 0.04297,0.0781 h -0.132812 l -0.06445,0.125 -0.232422,-0.0443 -0.31836,0.25391 0.123047,0.27604 0.421875,0.12109 0.423828,-0.22396 -0.01953,-0.0365 0.109375,-0.043 0.226562,-0.16536 0.01758,0.003 0.175781,-0.17969 -0.03516,-0.23437 z M 6.3027344,15.4401 6.0566406,15.4557 5.9550781,15.58982 h -0.052734 l -0.234375,0.0404 -0.2207032,0.21093 0.1914063,0.17318 0.3398437,0.0612 0.234375,-0.0625 0.00977,-0.10286 0.058594,0.0104 0.046875,-0.0117 -0.015625,0.0768 0.033203,0.16015 0.2871094,0.17057 0.1308594,-0.0495 0.00195,0.003 0.042969,0.1836 0.2597656,0.16015 0.25,0.0169 0.1328125,-0.14713 0.021484,-0.0534 0.2578126,0.0286 0.2402343,-0.10156 0.072266,-0.24349 -0.2871094,-0.15365 -0.2382813,0.0521 -0.25,-0.27474 -0.484375,0.069 -0.054687,-0.007 -0.1464844,0.0104 0.1035133,-0.0989 L 6.5507812,15.5 Z M 0.3125,15.42578 0.04296875,15.48568 0,15.54688 v 0.66796 l 0.13085938,-0.0156 0.0390625,-0.0898 0.13671874,-0.0885 -0.007813,-0.12369 0.125,-0.007 0.22460938,-0.11849 -0.0136719,0.0221 0.10351563,0.0912 -0.0351563,0.12109 -0.17578125,0.15885 0.140625,0.17318 0.009766,0.0924 0.27734374,0.14974 0.28710938,-0.0326 0.048828,0.10156 0.53125,0.0117 0.2988282,-0.26562 -0.1113282,-0.13282 0.1015625,0.0312 0.3828125,0.0352 0.087891,-0.14844 0.00391,-0.0299 0.095703,0.14323 0.4296875,-0.0599 -0.015625,0.0651 0.4707031,0.17057 0.3632813,-0.23438 -0.054687,-0.0768 0.083984,0.0312 -0.027344,0.0326 0.03125,0.1823 0.3105469,0.0977 0.2441406,-0.0651 0.171875,-0.1198 -0.029297,-0.0755 0.1367188,0.14584 0.4921875,-0.0495 0.1816406,-0.26172 -0.1953125,-0.27735 -0.5390625,-0.0195 -0.1894531,0.30078 -0.1328125,-0.0885 0.00391,-0.003 -0.2167969,-0.29688 -0.5390625,0.0195 -0.054687,0.23047 -0.3632813,0.013 0.017578,-0.0859 -0.4570313,-0.14453 -0.2910156,0.20443 -0.125,-0.1211 -0.3105469,0.0573 -0.2050781,0.19011 0.00195,0.0508 -0.4296875,-0.0195 -0.1523437,0.10547 -0.033203,-10e-4 -0.013672,-0.19791 -0.017578,-0.0273 0.109375,-0.0247 0.066406,-0.19662 -0.1015625,-0.21484 -0.3496094,-0.004 -0.21875,0.0977 -0.0839844,0.14453 -0.0234375,-0.2526 z m 9.3984375,-0.0078 -0.2714844,0.28515 0.095703,0.0781 -0.042969,-0.003 -0.3085937,0.0599 0.023437,0.15495 -0.1074218,0.0365 -0.1796875,0.10938 -0.042969,0.23698 -0.1582031,-0.0651 -0.4355469,0.0964 -0.09375,0.35416 0.4628907,0.17448 0.4492187,-0.14192 -0.015625,-0.33073 0.076172,0.0247 0.34375,-0.0521 0.1640625,-0.12761 -0.03125,-0.0456 0.021484,0.013 0.3027344,-0.0794 0.054687,-0.21224 -0.074219,-0.0638 0.3300786,-0.0677 -0.04492,-0.34505 z M 26.158203,15.375 l -0.40625,0.22656 0.03711,0.33073 0.226563,0.0521 0.03125,0.19922 0.222656,0.0482 0.214844,0.13542 0.01953,-0.005 -0.193359,0.11198 0.05664,0.22526 0.21875,0.0977 0.246093,0.0247 0.195313,-0.15235 0.05859,-0.22265 -0.306641,-0.11198 -0.238281,0.0182 0.246093,-0.0651 0.0293,-0.11589 0.03906,0.082 0.339843,0.0378 0.240235,-0.10156 0.07227,-0.24349 -0.289062,-0.15495 -0.300781,0.0664 -0.16211,0.14063 -0.128906,-0.11198 -0.0625,-0.004 0.03711,-0.0182 0.02148,-0.30469 z m -18.3828124,-0.02995 -0.2695312,0.28516 0.3144531,0.25521 0.2890625,-0.0586 0.095703,0.17578 0.2148438,0.10156 0.2734375,0.001 0.1835937,-0.1927 -0.066406,-0.17058 -0.1601563,-0.1263 -0.2988281,0.0273 -0.029297,0.0156 -0.029297,-0.22396 z m 8.4160154,-0.14453 -0.246094,0.15755 0.0039,0.17579 0.107422,0.14974 0.300781,0.0195 0.308594,-0.0937 -0.03711,-0.23177 -0.171875,-0.13282 z M 2.2988281,15.08464 2.1035156,15.3099 l 0.064453,0.21224 0.3613281,0.14974 0.3632812,-0.14453 0.017578,-0.23828 -0.1738281,-0.1862 z m 25.8164059,-0.01693 -0.378906,0.0807 -0.21875,0.19401 0.142578,0.30729 0.425782,0.0482 0.302734,-0.1289 0.0918,-0.3073 z m -1.21875,-0.15625 -0.154296,0.14583 -0.0918,0.17188 0.152343,0.27214 0.363282,-0.008 0.300781,-0.17188 0.0625,-0.18359 -0.226563,-0.1198 z m -21.9667965,-0.02735 -0.3828125,0.0742 0.046875,0.3151 0.2773438,0.0586 0.265625,0.16797 0.375,-0.0977 0.068359,-0.26302 -0.265625,-0.23438 z m 25.1486335,-0.04815 -0.325467,0.0208 -0.186448,0.15495 0.01472,0.28125 0.318926,0.11589 0.255139,-0.125 0.111214,-0.20055 z m -16.855665,0.31901 -0.519531,-0.0117 -0.197266,0.33073 0.392579,0.21354 0.06641,-0.0286 -0.164063,0.26433 -0.132812,-0.0208 0.05469,-0.22005 -0.417968,-0.17969 -0.251954,0.0729 0.07422,-0.125 0.02539,-0.16146 -0.21875,-0.21224 -0.310547,0.0586 -0.205078,0.1901 0.0039,0.16797 0.234375,0.0703 0.332031,0.0299 -0.08008,0.0234 -0.115234,0.26433 -0.199219,-0.17448 -0.275391,-0.0156 0.04492,-0.0443 -0.04492,-0.25391 -0.314453,-0.0456 -0.316406,0.10547 -0.111328,0.14974 0.08789,0.0755 -0.292968,0.099 -0.126953,0.15365 0.01953,0.11718 -0.0039,-10e-4 -0.2656254,0.125 0.02539,0.21485 0.275391,0.14974 0.308594,-0.0338 0.277343,-0.10677 -0.121093,-0.23047 0.07031,-0.0195 0.171875,-0.11979 -0.07813,-0.19532 -0.0098,-0.007 0.07813,0.0365 0.02148,0.14323 0.222656,0.0482 0.0098,0.005 -0.113282,0.0547 0.02344,0.21354 0.275391,0.14974 0.308593,-0.0338 0.277344,-0.10677 -0.128906,-0.24088 -0.128906,-0.005 0.04101,-0.16276 0.363281,0.23828 0.171876,-0.056 0.0293,0.12369 0.259766,0.15886 0.25,0.0169 0.132812,-0.14583 0.03125,-0.0794 0.02539,0.026 0.492188,-0.0495 0.179687,-0.26172 -0.193359,-0.27735 -0.447266,-0.0156 0.220703,-0.0951 z m 0.291091,-0.32422 -0.18713,0.11849 -0.103961,0.20573 0.196041,0.15756 0.199011,0.0234 0.184159,-0.0847 0.02079,-0.22656 -0.13515,-0.13021 z m 8.027269,-0.02734 -0.50586,0.15625 0.04687,0.36328 0.445313,0.17057 0.322265,-0.15885 -0.05078,0.23568 0.121094,0.15885 -0.16211,0.13932 -0.0059,-0.0599 -0.324219,-0.0924 -0.279296,0.0612 -0.01953,0.0299 -0.43164,-0.0469 -0.201172,0.17448 -0.289063,-0.25651 -0.482422,0.11068 -0.03906,0.36979 0.515625,0.0963 0.185547,-0.17318 0.267578,0.27865 0.513672,0.0143 0.11914,-0.16797 0.25586,-0.0117 0.232422,-0.1237 -0.0039,-0.0482 0.208985,0.21615 0.513672,0.013 0.222656,-0.30729 -0.103516,-0.11979 0.210938,0.0404 0.154297,-0.12109 0.02148,0.15495 0.121094,0.0469 -0.126953,0.29297 0.423828,0.22396 0.40039,-0.22006 -0.07031,-0.1289 0.06055,0.0417 0.289062,0.0911 0.115235,-0.10677 0.234375,0.0443 0.210937,-0.16407 -0.02734,-0.0547 0.166016,0.10417 0.1875,-0.0495 0.01758,0.0586 0.207031,0.13542 0.376954,-0.0456 0.0957,-0.22005 -0.123047,-0.17058 -0.353516,-0.0768 -0.07813,0.0521 -0.1875,-0.16406 -0.310547,-0.0169 -0.308594,0.0599 0.01758,0.11328 -0.09961,-0.0312 -0.05859,0.0169 -0.002,-0.0221 -0.304687,-0.0729 -0.05859,0.0299 -0.0059,-0.0859 -0.365235,-0.1849 -0.476562,0.14584 -0.02539,-0.0547 -0.332031,-0.10547 -0.107422,0.0312 -0.01563,-0.0534 -0.294922,-0.0703 -0.333984,0.0417 0.08203,-0.0404 -0.02148,-0.29688 z M 3.5097656,14.79688 3.1601562,15.17578 3.625,15.47005 4.2148438,15.27083 4.1132812,14.86068 Z m 16.5566404,-0.28248 -0.314453,0.16667 -0.0332,0.29427 0.269531,0.1875 0.361328,0.11328 0.279297,-0.25781 -0.148437,-0.16667 -0.03516,-0.24479 z M 10.474679,14.49618 10.12704,14.61597 10.1,15.01961 10.470815,15.12639 10.7,14.79826 Z m 18.320243,-0.1211 -0.439453,0.12891 -0.142578,0.32292 0.425781,0.28125 0.527344,-0.17188 0.08789,-0.36198 z m -1.416016,-0.12239 -0.236328,0.0404 -0.21875,0.21094 0.191406,0.17317 0.339844,0.0612 0.232422,-0.0625 0.01758,-0.17057 -0.08789,-0.2526 z m -16.000666,-0.04107 -0.306641,0.13672 -0.138672,0.23828 0.289063,0.25521 0.367187,0.0273 0.328125,-0.0768 0.0957,-0.27344 -0.144531,-0.30078 z m -7.1398179,-0.01625 -0.2421768,0.13411 -0.048979,0.23177 0.039456,0.23828 0.3034012,0.006 0.077551,-0.16145 0.1795918,-0.14193 -0.066667,-0.23698 z m 17.2068899,-0.07552 -0.521484,0.0807 -0.04102,0.33593 0.457032,0.12761 0.384765,-0.25261 z m -2.533203,0.47265 -0.408203,0.22657 0.01367,0.10546 -0.222656,0.14063 -0.04883,0.23177 0.121094,0.14714 0.255859,-0.0104 0.363281,-0.0872 -0.01758,-0.099 0.04492,0.0104 0.34375,-0.17579 0.01953,-0.30599 z m -0.05664,-0.47656 -0.294922,0.15104 0.0625,0.24219 0.289062,0.0833 0.283203,-0.0365 0.158204,-0.23177 -0.216797,-0.17839 z M 2.536,14.11201 2.2,14.26305 2.232,14.61591 2.5266667,14.78128 2.8,14.58466 2.785334,14.2969 Z m 7.991636,-0.612283 -0.390444,0.14974 0.03733,0.35286 0.343778,0.16667 0.318889,-0.19662 -0.01711,-0.28776 z m 9.941114,0.364883 -0.396484,0.0117 -0.21875,0.17969 -0.113282,0.22396 0.373047,0.13802 0.207031,-0.10547 0.324219,-0.0456 0.08008,-0.23437 z m -15.4126007,-0.0039 -0.1624041,0.0234 -0.051151,0.16406 -0.00383,0.25781 0.1521739,0.0391 0.1585678,-0.003 0.1892583,-0.16927 -0.080563,-0.19921 z m 7.1918977,-0.10026 -0.205078,0.32682 0.265625,0.28125 0.492187,-0.0495 0.181641,-0.26172 -0.195313,-0.27734 z m 16.9499,-0.04818 -0.299509,0.23958 0.191686,0.32943 0.444985,-0.0716 0.06333,-0.35287 z m -1.414744,-0.09896 -0.384765,0.26823 0.246093,0.37109 0.572266,-0.0794 0.08008,-0.39713 z m -24.0213184,-0.155102 -0.4525105,0.02952 -0.067365,0.509734 0.3953974,0.255742 0.3046026,-0.35142 z m 16.5291314,0.05745 0.1575,0.21354 0.172083,-0.0273 0.212917,0.0534 0.1575,-0.16407 -0.07437,-0.20442 -0.239167,-0.10157 -0.214375,0.0833 z m -0.554688,-0.5586 -0.203125,0.32682 0.265625,0.28125 0.492188,-0.0495 0.179687,-0.26172 -0.193359,-0.27734 z m -7.701172,-0.07031 -0.458984,0.1276 -0.08203,0.28255 0.289062,0.23829 0.53125,-0.0677 0.08008,-0.35027 z M 28.123809,12.83203 27.8,13.01563 l 0.115646,0.32812 0.372789,0.005 L 28.4,13.02844 Z M 2.9652475,12.77083 2.7261386,12.8763 2.64,13.02604 2.760297,13.16146 2.9994059,13.3112 3.1360396,13.20573 3.24,13.07161 3.2043564,12.8164 Z m 7.8062365,-0.22917 -0.220703,0.15105 -0.05078,0.1888 0.271484,0.18099 0.326172,-0.0716 0.142578,-0.16406 -0.107422,-0.23829 z m -6.3231644,-0.04296 -0.1759259,0.0234 -0.1415343,0.0898 0.00529,0.20182 0.1190475,0.19141 0.2314815,-0.0508 0.1203703,-0.13021 0.023809,-0.18099 z m 7.6419204,-0.397821 -0.121545,0.19792 0.04005,0.18489 0.223755,0.13151 0.225137,-0.125 0.01105,-0.21093 -0.107734,-0.16276 z m 8.407828,0.09573 -0.22463,0.14974 0.04729,0.24219 0.218719,0.0846 0.214286,-0.0365 0.119704,-0.23307 -0.16404,-0.17708 z M 3.5396039,11.51563 3.3539604,11.63281 3.25,11.83854 l 0.1945544,0.15755 0.1990099,0.0234 0.1856434,-0.08329 0.020792,-0.22787 -0.1351485,-0.1302 z m 16.2283081,-0.0612 -0.262668,0.0273 -0.02133,0.15755 0.02266,0.16146 0.196001,0.17057 0.192001,-0.10547 0.08933,-0.21875 -0.044,-0.16146 z M 11.246377,11.27604 11.1,11.60807 11.391304,11.82031 11.7,11.64323 11.630435,11.28776 Z M 27.9127,11.23307 27.7,11.40625 27.74762,11.61198 27.915876,11.7474 28.222228,11.7018 28.3,11.48174 28.199999,11.31117 Z m -7.801721,-1.46744 -0.210527,0.0911 -0.06842,0.23178 0.203948,0.19791 0.253947,-0.12109 0.0421,-0.25781 z M 3.8167824,9.29297 3.6799309,9.34117 3.6,9.45315 3.652076,9.63413 3.8070935,9.66153 3.9160902,9.58603 3.95,9.40635 Z m 24.4500216,-0.55208 -0.132038,0.17187 0.113916,0.17969 0.199353,0.008 0.08673,-0.17969 -0.08803,-0.14974 z M 11.755859,8.71484 11.5,8.80344 l 0.03711,0.15755 0.19336,0.11979 0.1875,0.013 0.09766,-0.10938 0.07617,-0.18619 -0.158203,-0.056 z M 20.146851,7 l -0.16167,0.14888 -0.03205,0.15105 0.02648,0.15494 0.202089,0.004 0.05157,-0.10416 0.119859,-0.0937 -0.04321,-0.15365 z" />
  <rect
     width="32"
     height="32"
     rx="0"
     x="0"
     y="0"
     id="rect8566"
     style="fill:none;fill-opacity:1;stroke:none" />
  <desc
     id="desc907">Created with Snap</desc>
</svg>
