<?xml version="1.0" encoding="UTF-8" standalone="no"?>
<svg
   xmlns:dc="http://purl.org/dc/elements/1.1/"
   xmlns:cc="http://creativecommons.org/ns#"
   xmlns:rdf="http://www.w3.org/1999/02/22-rdf-syntax-ns#"
   xmlns:svg="http://www.w3.org/2000/svg"
   xmlns="http://www.w3.org/2000/svg"
   version="1.1"
   height="32"
   width="32"
   id="Svg">
  <metadata
     id="metadata936">
    <rdf:RDF>
      <cc:Work
         rdf:about="">
        <dc:format>image/svg+xml</dc:format>
        <dc:type
           rdf:resource="http://purl.org/dc/dcmitype/StillImage" />
        <dc:title></dc:title>
      </cc:Work>
    </rdf:RDF>
  </metadata>
  <defs
     id="defs3" />
  <path
     d="m 10.226562,2.9277344 0.582032,0.1289062 0.07031,0.359375 0.273438,0.3691406 -0.242188,0.4433594 -0.5,0.027344 -0.40039,-0.3847656 0.02148,-0.4863282 0.195312,-0.4570312 z m 8.490235,0.078125 0.8125,0.1875 0.0625,0.7851562 L 18.880859,4.2773438 18.28125,3.6855469 18.716797,3.0058594 Z M 27.087891,3.1464844 27.404297,3.375 27.333984,3.7695312 27.0625,4.3066406 26.701172,4.21875 26.369141,4.0390625 26.154297,3.4785156 26.539062,3.1582031 27.087891,3.1464844 Z M 2.953125,3.1679688 3.361328,3.2109375 3.681641,3.4921875 3.595703,4.0175781 3.255859,4.2460938 2.873047,4.3046875 2.568359,3.9472656 2.478516,3.4296875 2.953125,3.1679688 Z m 14.40625,1.8398437 0.419922,0.140625 0.244141,0.5234375 -0.34961,0.4550781 L 17.183594,6.09375 16.833984,5.8125 16.869141,5.21875 17.359375,5.0078125 Z M 0.865234,5.1484375 1.271484,5.203125 1.595703,5.4121094 1.585938,5.8828125 1.310547,6.3320312 0.78125,6.2109375 0.505859,5.9082031 0.451172,5.484375 0.865234,5.1484375 Z M 9.322266,5.1816406 9.742188,5.7070312 9.603516,6.4082031 8.796875,6.6523438 8.308594,5.9882812 8.552734,5.2519531 9.322266,5.1816406 Z M 25.28125,5.3046875 25.742187,5.65625 25.644531,6.2207031 25.193359,6.4179688 24.753906,6.3320312 24.507812,5.7890625 24.84375,5.375 25.28125,5.3046875 Z M 7.050781,6.8515625 7.857422,7.0253906 8.162109,7.7382812 7.630859,8.3007812 6.96875,8.1855469 6.609375,7.5703125 7.050781,6.8515625 Z m 16.142578,0.15625 0.40625,0.054687 0.324219,0.2089844 -0.0098,0.4707031 -0.27539,0.4472656 L 23.109375,8.0703125 22.833984,7.7675781 22.779297,7.34375 23.193359,7.0078125 Z m -8.101562,0.1230469 0.839844,0.044922 0.125,0.7988282 -0.730469,0.3964844 -0.566406,-0.5449219 0.332031,-0.6953125 z M 31.351562,7.1757812 31.757812,7.21875 32,7.4296875 32,7.9785156 31.992187,8.0253906 31.652344,8.2539062 31.269531,8.3125 30.966797,7.9550781 30.875,7.4375 31.351562,7.1757812 Z M 0,7.4296875 0.080078,7.5 0,7.9785156 0,7.4296875 Z M 13.666016,8.1933594 14.121094,8.578125 14.015625,8.9296875 14.085938,9.3847656 13.666016,9.6640625 13.210938,9.453125 13.037109,8.9296875 13.28125,8.5097656 13.666016,8.1933594 Z m 7.908203,0.8125 0.486328,0.2421875 0.195312,0.359375 -0.04883,0.4257811 -0.482422,0.226563 L 21.34375,10.109375 21.078125,9.828125 21.201172,9.375 21.574219,9.0058594 Z m 7.677734,0.2304687 0.53125,0.041016 0.306641,0.3183593 L 30.0625,10.175781 29.541016,10.416016 29.123047,10.15625 28.943359,9.7460938 29.251953,9.2363281 Z M 5.736328,9.2441406 6.177734,9.9609375 5.591797,10.517578 4.849609,10.140625 4.974609,9.3652344 5.736328,9.2441406 Z m 7.216797,0.6132813 0.330078,0.1718751 0.279297,0.253906 0.07422,0.595703 -0.451172,0.21875 -0.533203,-0.121094 -0.253906,-0.296874 0.162109,-0.365235 0.392578,-0.4570311 z m 15.119141,0.3046871 0.808593,0.173829 0.302735,0.71289 -0.529297,0.5625 -0.542969,-0.09375 0.107422,0.101563 -0.0059,0.410156 -0.169922,0.347656 -0.466797,0.04687 -0.478516,-0.21875 0.05469,-0.539062 0.267578,-0.310547 0.414062,-0.105469 0.0332,0.0332 -0.234375,-0.404297 0.439454,-0.716797 z m -7.433594,0.306641 0.267578,0.460938 -0.08789,0.433593 -0.490234,0.306641 -0.494141,-0.291016 -0.02539,-0.492187 0.236328,-0.38086 0.59375,-0.03711 z M 3.693359,10.947266 4.421875,11.296875 4.332031,12.125 3.5625,12.28125 3.179688,11.611328 3.693359,10.947266 Z m 8.556641,0.002 0.478516,0.277343 0.09375,0.476563 -0.07813,0.492187 -0.595703,0.01172 L 11.994141,11.876953 11.640625,11.582031 11.769531,11.09375 12.25,10.949219 Z m 7.365234,0.824219 0.5,0.07031 0.201172,0.458984 -0.216797,0.507813 -0.46289,0.152344 -0.326172,-0.01367 0.05859,0.457031 -0.451172,0.21875 -0.535157,-0.119141 -0.253906,-0.298828 0.164063,-0.365234 0.390625,-0.457031 0.330078,0.171875 0.08203,0.07422 -0.04102,-0.277343 0.310546,-0.191407 0.25,-0.388671 z m -8.292968,0.177734 0.341796,0.228516 0.154297,0.398437 -0.322265,0.423828 -0.40625,0.04492 -0.25,-0.08594 0.05273,0.376953 -0.185547,0.365234 -0.341797,0.181641 0.0059,0.0078 -0.140625,0.699219 -0.609375,0.185547 0.00586,0.1875 -0.392578,0.259765 -0.083984,0.0039 0.080078,0.207031 -0.205078,0.271484 0.02539,0.171875 0.208985,0.152344 -0.070313,0.392578 -0.017578,0.03711 0.464844,0.06641 0.412109,0.326172 -0.18164,0.511718 -0.333985,0.236328 -0.275391,0.002 0.00391,0.04883 -0.710938,0.298828 -0.597656,-0.591797 0.386719,-0.603516 -0.115235,-0.0625 -0.0625,-0.164062 -0.00781,-0.0039 -0.025391,-0.002 -0.152344,0.259765 -0.574218,-0.0293 -0.025391,-0.04297 -0.011719,0.01953 0.070313,0.08398 -0.193359,0.642578 -0.65625,0.283203 -0.658204,-0.523437 0.179688,-0.519531 -0.148438,-0.234375 0.4375,-0.404297 0.154297,0.06641 0.089844,-0.34375 0.210937,-0.251953 0.00195,-0.0332 0.033203,-0.02539 -0.13086,-0.06055 0.056641,-0.541015 0.265625,-0.310547 0.414063,-0.105469 0.023437,0.02344 0.076172,-0.0625 0.455078,0.384766 -0.105469,0.34961 0.015625,0.103515 0.015625,-0.01953 0.09375,-0.01563 0.126953,-0.396485 0.337891,-0.0059 -0.025391,-0.06445 0.09375,-0.400391 0.31836,-0.285156 0.048828,0.01367 0.212891,-0.640625 0.630859,-0.05664 -0.033203,-0.144531 0.080078,-0.376953 0.443359,-0.158203 0.390625,0.07422 -0.07031,-0.3125 0.158203,-0.501953 0.542969,-0.0098 z m -6.416016,0.121094 0.722656,0.43164 -0.259765,0.763672 -0.832032,0.01172 -0.248047,-0.746094 0.617188,-0.460937 z m 22.039062,0.09766 0.53125,0.27539 -0.07617,0.496094 -0.402344,0.371094 -0.388672,0.03906 -0.208984,-0.339843 -0.152344,-0.582031 0.328125,-0.175782 0.36914,-0.08398 z M 2.744141,12.378906 3.275391,12.65625 3.199219,13.150391 2.796875,13.521484 2.408203,13.5625 2.199219,13.220703 2.046875,12.638672 2.375,12.464844 2.744141,12.378906 Z m -1.201172,0.865235 0.464843,0.06641 0.41211,0.326172 -0.181641,0.511719 -0.333984,0.236328 -0.101563,0 -0.064453,0.617187 -0.628906,0.126953 0.34375,0.330078 -0.234375,0.355469 0.232422,0.111328 -0.025391,0.240235 0.164063,0.05664 0.00781,0.105469 0.00391,0 0.333985,0.236328 L 2.125,16.900391 1.898438,17.3125 1.447266,17.582031 1.039062,17.234375 0.869141,17.28125 0.603516,16.908203 l -0.011719,0.002 -0.054688,-0.0957 -0.121093,-0.169922 -0.306641,0.0078 L 0.037109,16.498047 0,16.496094 l 0,-1.708985 0.292969,-0.246093 0.318359,-0.0059 -0.02539,-0.04492 0.513671,-0.666015 0.109375,0.05273 0.087891,-0.335937 0.246094,-0.296875 z m 16.265625,0.04883 0.40625,0.1875 0.109375,0.585937 -0.425781,0.320313 -0.441407,-0.03516 -0.06836,-0.08594 -0.203125,0.207031 -0.111328,0.326172 0.123047,0.244141 -0.22461,0.289062 0.04297,0.28125 0.210937,0.181641 -0.09961,0.234375 0.240235,0.02539 0.230468,-0.386719 0.703125,-0.117188 0.513672,0.666016 -0.291015,0.453125 0.189453,0.349609 -0.04883,0.423828 -0.09961,0.04687 0.285156,0.13086 0.107422,0.585937 -0.425781,0.320313 -0.441406,-0.03516 -0.363282,-0.451172 0.207032,-0.466797 -0.132813,-0.05273 -0.265625,-0.28125 0.07031,-0.263672 -0.0059,0.002 -0.146484,-0.0059 -0.177734,0.119141 -0.382813,0.05859 -0.04687,-0.05664 -0.01367,0.04102 -0.568359,0.177734 -0.365234,-0.375 -0.185547,0.287109 -0.308594,0.01172 -0.314453,0.419922 -0.408203,0.04297 -0.365235,-0.125 -0.103515,-0.458985 0.01953,-0.05859 -0.429688,-0.31836 0.125,0.150391 -0.193359,0.642578 -0.654297,0.283203 -0.660156,-0.523437 0.158203,-0.458985 -0.720703,-0.351562 -0.08789,0.271484 -0.568359,0.177735 -0.371094,-0.384766 -0.01758,-0.441406 0.404297,-0.416016 0.517578,0.15625 -0.02344,-0.138672 0.648437,-0.419922 0.617187,0.269532 0.201172,0.685546 -0.183593,0.181641 0.439453,-0.126953 0.267578,0.322266 0.03125,-0.626954 0.568359,-0.429687 0.542969,0.248047 -0.002,-0.0078 0.185547,-0.105469 -0.03711,-0.414062 0.302735,-0.457031 0.36914,-0.132813 0.283203,0.28125 0.002,0.0039 0.04883,-0.02539 0.04687,-0.398438 0.193359,-0.04101 0.08203,-0.496094 0.41211,-0.257813 0.46875,-0.0957 0.125,-0.287109 0.484375,-0.08203 z m 8.226562,0.228515 0.5,0.06836 0.201172,0.458984 -0.216797,0.509766 -0.46289,0.15039 -0.34375,-0.01172 -0.07422,0.08984 -0.0039,0 0.0059,0.183594 -0.332031,0.220703 -0.105469,0.378906 -0.279297,0.08984 0.121094,0.154297 -0.228516,0.482422 -0.40625,0.173828 -0.240234,-0.103515 -0.02148,0.01953 -0.04102,0.375 -0.572266,0.117187 -0.01563,0.230469 -0.52539,0.140625 -0.384766,-0.140625 -0.244141,-0.349609 0.208985,-0.490235 0.357422,-0.128906 -0.111329,-0.291016 0.384766,-0.322265 0.05078,0 -0.117187,-0.167969 0.472656,-0.626953 0.150391,0.05078 0.121093,-0.07617 0.123047,-0.02539 0.0078,-0.123047 0.59375,-0.166016 0.0078,-0.03711 0.238282,-0.214844 0.113281,-0.244141 0.384765,-0.228515 0.457032,0.205078 0.226562,-0.351563 z m -3.5625,0.507813 0.759766,0.154297 0.162109,0.755859 -0.470703,0.480469 -0.320312,-0.02539 0.140625,0.0918 -0.0098,0.46875 -0.275391,0.449219 -0.402343,-0.08984 0.09766,0.503906 -0.449219,0.554688 -0.828125,-0.15625 -0.117187,-0.78125 -0.09961,0.05469 -0.566406,-0.544922 0.332031,-0.695312 0.839844,0.04687 0.0918,0.585937 0.326172,0.134766 -0.03125,-0.03516 -0.05273,-0.425781 0.41211,-0.335938 0.146484,0.01953 -0.287109,-0.644531 0.601562,-0.566406 z m 8.814453,0.599609 0.38086,0.117188 0.261718,0.173828 -0.02148,-0.05664 0.0918,-0.07617 0,1.708985 -0.162109,-0.0059 0.0059,0.419922 -0.359375,0.0918 -0.255859,-0.0039 -0.01758,0.08984 -0.451171,0.28125 0.04297,0.142578 -0.138672,0.425781 -0.568359,0.177734 -0.369141,-0.382812 -0.01953,-0.441406 0.404297,-0.416016 0.103516,0.03125 -0.01367,-0.294922 0.234375,-0.382812 0.03125,-0.002 -0.251953,-0.597656 0.615234,-0.560547 0.166016,0.0957 0.02539,-0.248046 0.265625,-0.28711 z M 10.375,15.011719 10.855469,15.662109 10.392578,16.351562 9.636719,16.132812 9.609375,15.363281 10.375,15.011719 Z m -8.1875,0.472656 0.839844,0.04492 0.125,0.798828 L 2.421875,16.724609 1.855469,16.179688 2.1875,15.484375 Z m 24.931641,0.0293 0.634765,0.529297 -0.03125,0.392578 0.148438,-0.193359 -0.115235,-0.439454 0.328125,-0.175781 0.369141,-0.08398 0.53125,0.27539 -0.0039,0.01953 0.330078,-0.09961 0.480469,0.277344 0.09375,0.476563 -0.07813,0.490234 -0.595704,0.01367 -0.154296,-0.332032 -0.277344,-0.230468 -0.169922,0.158203 -0.08789,0.816406 -0.771484,0.158203 -0.369141,-0.644531 -0.417968,0.144531 -0.533204,-0.408203 -0.0332,-0.712891 0.722657,-0.43164 z m -22.59961,0 0.806641,0.173828 0.304687,0.712891 -0.53125,0.5625 L 4.4375,16.847656 4.230469,16.494141 4.054688,16.611328 4.109375,16.664062 4.103516,17.074219 3.935547,17.421875 3.46875,17.46875 2.990234,17.25 3.044922,16.710938 3.3125,16.400391 l 0.00781,-0.002 -0.029296,-0.0332 -0.089844,-0.517578 0.474609,-0.261718 0.408203,0.04297 0.236328,0.208985 0.199219,-0.324219 z m 14.931641,0.355469 0.679687,0.222656 0.144532,0.830078 -0.71875,0.40625 -0.699219,-0.332031 0.02344,-0.773438 0.570313,-0.353515 z m 6.146484,0.15039 0.40625,0.05469 0.324219,0.208984 -0.0098,0.470703 -0.05273,0.08398 0.316406,0.226562 -0.07031,0.392578 -0.271485,0.53711 -0.361328,-0.08594 -0.333984,-0.181641 -0.214844,-0.558593 0.148438,-0.125 -0.240235,-0.263672 -0.05469,-0.423828 0.414062,-0.335938 z m -3.009765,1.15625 0.392578,0.3125 0.04492,0.550781 -0.339844,0.34961 -0.449219,0.214844 -0.349609,-0.484375 0.185547,-0.314453 0.04102,-0.457032 0.47461,-0.171875 z M 10.826172,17.25 10.990234,17.724609 10.804688,18.240234 10.478516,18.457031 10.136719,18.251953 9.730469,17.806641 9.939453,17.5 10.226562,17.253906 10.826172,17.25 Z m 13.535156,0.08984 0.380859,0.117187 0.501954,0.333985 -0.13086,0.349609 -0.21875,0.306641 -0.582031,0.146484 -0.271484,-0.421875 0.05469,-0.544922 0.265625,-0.287109 z m -22.345703,0.02148 0.5,0.06836 0.201172,0.458984 L 2.5,18.398438 2.037109,18.550781 1.541016,18.53125 1.455078,17.941406 l 0.310547,-0.193359 0.25,-0.386719 z m 18.257813,0.05273 0.480468,0.277344 0.09375,0.476563 -0.07813,0.490234 -0.595703,0.01367 -0.154297,-0.332031 -0.353515,-0.292969 0.128906,-0.488281 0.478516,-0.144532 z m -15.205079,0.002 0.53125,0.558593 -0.341797,0.769532 -0.789062,-0.166016 -0.111328,-0.824219 0.710937,-0.33789 z m 8.208985,0.822265 0.330078,0.169922 0.279297,0.255859 0.07422,0.59375 -0.449219,0.220704 -0.535157,-0.121094 -0.253906,-0.298828 0.16211,-0.363282 0.392578,-0.457031 z m 12.974609,0.376953 0.466797,0.150391 0.273437,0.355469 -0.175781,0.570312 -0.52539,0.08594 -0.375,-0.236328 -0.113282,-0.56836 0.449219,-0.357422 z m -22.873047,0.103516 0.492188,0.0957 0.294922,0.46875 -0.089844,0.306641 0.11914,-0.05078 0.419922,0.140626 0.244141,0.52539 L 4.509766,20.660156 4.019531,20.625 3.669922,20.345703 3.683594,20.123047 3.197266,19.880859 3.214844,19.517578 3.037109,19.091797 3.378906,18.71875 Z m 8.103516,0.130859 0.517578,0.09766 0.07617,0.539062 -0.185547,0.365234 -0.376953,0.201172 -0.462891,-0.267578 -0.0918,-0.398437 0.08203,-0.378907 0.441406,-0.158203 z m 8.892578,0.03516 0.212891,0.304687 0.128906,0.355469 -0.210938,0.560547 -0.5,-0.01563 -0.417968,-0.353516 -0.08594,-0.382812 0.314453,-0.246094 0.558594,-0.222656 z m 7.789062,0.478515 0.31836,0.228516 -0.07031,0.392578 -0.271484,0.539063 -0.361328,-0.08789 -0.333985,-0.181641 -0.214843,-0.558594 0.386718,-0.320312 0.546875,-0.01172 z M 5.496094,20.240234 5.720703,20.792969 5.464844,21.052734 5.314453,21.488281 4.8125,21.541016 4.507812,21.144531 4.595703,20.597656 5.007812,20.339844 5.496094,20.240234 Z m 23.986328,0.257813 0.634765,0.529297 -0.06055,0.771484 -0.730469,0.251953 -0.533203,-0.408203 -0.0332,-0.71289 0.722656,-0.431641 z m -15.966797,0.253906 0.464844,0.06445 0.412109,0.328125 -0.183594,0.511719 -0.333984,0.236328 -0.425781,0.0039 -0.285157,-0.451172 0.103516,-0.396484 0.248047,-0.296875 z m 8.382813,0.236328 0.21289,0.304688 0.128906,0.355469 -0.210937,0.560546 -0.5,-0.01367 -0.417969,-0.355468 -0.08594,-0.382813 0.314453,-0.246093 0.558594,-0.222657 z M 31.4375,22.447266 31.884766,22.638672 32,22.75 l 0,0.605469 -0.08398,0.126953 -0.359375,-0.0625 -0.44336,0.125 -0.330078,-0.382813 0.154297,-0.478515 0.5,-0.236328 z M 7.259766,22.689453 7.791016,23.248047 7.449219,24.017578 6.660156,23.851562 6.548828,23.027344 7.259766,22.689453 Z M 0,22.75 0.244141,22.984375 0,23.355469 0,22.75 Z m 15.517578,0.01563 0.365234,0.34375 0.07617,0.542969 -0.1875,0.341797 -0.398437,-0.02344 -0.566406,-0.203125 0.04297,-0.371094 0.138672,-0.351562 0.529297,-0.279297 z m 8.113281,0.238281 0.441407,0.716797 -0.585938,0.556641 -0.742187,-0.376953 0.126953,-0.777344 0.759765,-0.119141 z m -23.167968,1.341797 0.80664,0.171875 0.304688,0.712891 -0.53125,0.5625 L 0.380859,25.679688 0.021484,25.0625 0.462891,24.345703 Z M 9.027344,24.667969 9.488281,25.017578 9.390625,25.583984 8.939453,25.78125 8.5,25.695312 8.253906,25.152344 l 0.335938,-0.414063 0.4375,-0.07031 z m 15.52539,0.267578 0.228516,0.285156 0.414062,0.201172 -0.0078,0.503906 -0.431641,0.25586 -0.53125,-0.154297 -0.205078,-0.439453 -0.04102,-0.496094 0.574218,-0.15625 z m -6.830078,0.576172 0.339844,0.226562 0.154297,0.398438 -0.322266,0.425781 -0.40625,0.04492 -0.365234,-0.126953 -0.103516,-0.457031 0.158203,-0.501954 0.544922,-0.0098 z m -14.49414,1.146484 0.447265,0.193359 0.359375,0.34375 -0.328125,0.498047 -0.359375,-0.0625 -0.443359,0.125 -0.328125,-0.382812 0.152344,-0.476563 0.5,-0.238281 z m 24.083984,0.357422 0.382812,0.371094 -0.0059,0.410156 -0.167969,0.345703 -0.466797,0.04883 -0.478515,-0.21875 0.05469,-0.541015 0.267578,-0.310547 0.414063,-0.105469 z m -7.603516,0.111328 0.164063,0.474609 -0.183594,0.515626 -0.326172,0.214843 -0.34375,-0.205078 -0.40625,-0.443359 0.208985,-0.308594 0.289062,-0.246094 0.597656,-0.002 z m -8.421875,0.02148 0.267579,0.460937 -0.08789,0.433594 -0.492188,0.30664 -0.49414,-0.292968 -0.02344,-0.490235 0.236328,-0.380859 0.59375,-0.03711 z"
     id="path4280" style="fill:#999999;fill-opacity:1;stroke:none" />
  <rect
     style="fill:none;fill-opacity:1;stroke:none"
     id="rect8566"
     y="0"
     x="0"
     rx="0"
     height="32"
     width="32" />
  <desc
     id="desc932">Created with Snap</desc>
</svg>
