<?xml version="1.0" encoding="UTF-8" standalone="no"?>
<svg
   xmlns:dc="http://purl.org/dc/elements/1.1/"
   xmlns:cc="http://creativecommons.org/ns#"
   xmlns:rdf="http://www.w3.org/1999/02/22-rdf-syntax-ns#"
   xmlns:svg="http://www.w3.org/2000/svg"
   xmlns="http://www.w3.org/2000/svg"
   xmlns:sodipodi="http://sodipodi.sourceforge.net/DTD/sodipodi-0.dtd"
   xmlns:inkscape="http://www.inkscape.org/namespaces/inkscape"
   id="Svg"
   width="32"
   height="32"
   version="1.1"
   sodipodi:docname="arete0a.svg"
   inkscape:version="0.92.2 5c3e80d, 2017-08-06">
  <sodipodi:namedview
     pagecolor="#ffffff"
     bordercolor="#666666"
     borderopacity="1"
     objecttolerance="10"
     gridtolerance="10"
     guidetolerance="10"
     inkscape:pageopacity="0"
     inkscape:pageshadow="2"
     inkscape:window-width="1104"
     inkscape:window-height="675"
     id="namedview8"
     showgrid="false"
     inkscape:zoom="20.874442"
     inkscape:cx="16.098048"
     inkscape:cy="19.985882"
     inkscape:window-x="183"
     inkscape:window-y="156"
     inkscape:window-maximized="0"
     inkscape:current-layer="Svg" />
  <metadata
     id="metadata936">
    <rdf:RDF>
      <cc:Work
         rdf:about="">
        <dc:format>image/svg+xml</dc:format>
        <dc:type
           rdf:resource="http://purl.org/dc/dcmitype/StillImage" />
        <dc:title></dc:title>
      </cc:Work>
    </rdf:RDF>
  </metadata>
  <defs
     id="defs3" />
  <path
     style="opacity:1;fill:#999999;fill-opacity:1;stroke:none;stroke-width:0.65488625"
     d="m 4.7128906,11.482422 c -0.072589,0.10931 -0.1442069,0.21881 -0.2167968,0.328125 l 0.2988281,0.285156 0.3554687,-0.144531 -0.03125,-0.378906 z m 16.0000004,0 c -0.07259,0.10931 -0.144207,0.21881 -0.216797,0.328125 l 0.298828,0.285156 0.355469,-0.144531 -0.03125,-0.378906 z m -7.947266,0.681641 -0.273437,0.0059 -0.19336,0.154297 0.107422,0.271484 0.166016,0.08594 0.18164,0.04297 0.134766,-0.259765 0.03516,-0.189453 z m 16,0 -0.273437,0.0059 -0.19336,0.154297 0.107422,0.271484 0.166016,0.08594 0.18164,0.04297 0.134766,-0.259765 0.03516,-0.189453 z M 8.6367188,12.46875 c -0.061658,0.04828 -0.1349113,0.105639 -0.2070313,0.162109 l 0.027344,0.205078 0.1367188,0.146485 0.265625,0.05664 0.1367188,-0.216797 0.00586,-0.226563 -0.1621093,-0.09961 z m 16.0000002,0 c -0.06166,0.04828 -0.134911,0.105639 -0.207031,0.162109 l 0.02734,0.205078 0.136719,0.146485 0.265625,0.05664 0.136719,-0.216797 0.0059,-0.226563 -0.162109,-0.09961 z m -24.18164088,0.06641 -0.20703124,0.16211 0.0273437,0.203125 0.13867188,0.146484 0.26367188,0.05859 0.13867187,-0.216797 0.003906,-0.226563 -0.16210938,-0.101562 z m 15.99999988,0 -0.207031,0.16211 0.02734,0.203125 0.138671,0.146484 0.263672,0.05859 0.138672,-0.216797 0.0039,-0.226563 -0.162109,-0.101562 z M 4.3339844,12.833984 C 4.2786454,12.94581 4.2233088,13.05614 4.1679688,13.167969 l 0.2832031,0.263672 0.3652343,-0.191407 -0.0625,-0.384765 z m 15.9999996,0 c -0.05534,0.111826 -0.110675,0.222156 -0.166015,0.333985 l 0.283203,0.263672 0.365234,-0.191407 -0.0625,-0.384765 z m -7.33789,0.4375 -0.21875,0.0332 -0.167969,0.201172 0.123047,0.261719 0.220703,0.04102 0.224609,-0.0957 0.04883,-0.271485 z m 16,0 -0.21875,0.0332 -0.167969,0.201172 0.123047,0.261719 0.220703,0.04102 0.224609,-0.0957 0.04883,-0.271485 z m -28.22656275,0.119141 -0.2578125,0.320312 0.19140625,0.322266 0.3847656,-0.07617 0.044922,-0.398437 z m 15.99999975,0 -0.255859,0.320312 0.191406,0.322266 0.384766,-0.07617 0.04492,-0.398437 z m -7.6953122,0.05664 -0.296875,0.01953 -0.1171876,0.183594 0.011719,0.236328 0.2480469,0.140625 0.2441406,-0.148438 0.044922,-0.208984 z m 16.0000002,0 -0.296875,0.01953 -0.117188,0.183594 0.01172,0.236328 0.248047,0.140625 0.24414,-0.148438 0.04492,-0.208984 z M 4.3105469,13.646484 c -0.08002,0.02322 -0.1601644,0.04706 -0.2402344,0.07031 l -0.064453,0.234375 0.1757812,0.142578 0.078125,0.160156 0.296875,-0.0059 0.039063,-0.238281 -0.046875,-0.230469 z m 16.0000001,0 c -0.08002,0.02322 -0.160165,0.04706 -0.240235,0.07031 l -0.06445,0.234375 0.175782,0.142578 0.07813,0.160156 0.296875,-0.0059 0.03906,-0.238281 -0.04687,-0.230469 z m -15.3652345,0.03906 c -0.081665,0.03391 -0.1624506,0.06764 -0.2441406,0.101562 l -0.017578,0.28711 0.1738281,0.134765 0.2460937,0.01563 0.1738282,-0.21875 L 5.15625,13.753906 Z m 15.9999995,0 c -0.08166,0.03391 -0.16245,0.06764 -0.24414,0.101562 l -0.01758,0.28711 0.173828,0.134765 0.246094,0.01563 0.173828,-0.21875 -0.121094,-0.251953 z M 8.3574219,13.917969 c -0.062186,0.05937 -0.1234169,0.118364 -0.1855469,0.177734 l -0.0625,0.21875 0.1328125,0.136719 0.1914063,0.07226 0.2402343,-0.109374 0.025391,-0.205079 -0.097656,-0.173828 z m 16.0000001,0 c -0.06219,0.05937 -0.123417,0.118364 -0.185547,0.177734 l -0.0625,0.21875 0.132813,0.136719 0.191406,0.07226 0.240234,-0.109374 0.02539,-0.205079 -0.09766,-0.173828 z m -11.199219,0.03906 c -0.07938,0.04208 -0.158931,0.08488 -0.238281,0.126953 l 0.04687,0.25 0.150391,0.171875 0.191406,-0.02734 0.169922,-0.111329 0.0059,-0.02148 v -0.265625 l -0.121094,-0.101562 -0.203125,-0.02149 z m 16.001953,0 c -0.07938,0.04208 -0.158931,0.08488 -0.238281,0.126953 l 0.04492,0.25 0.150391,0.171875 0.191406,-0.02734 0.169922,-0.111329 0.0059,-0.02148 V 14.080083 L 29.36332,13.978521 Z m -23.4999998,0.07617 -0.2714843,0.0039 -0.078125,0.242188 0.035156,0.15039 -0.1953125,-0.03516 -0.2226562,0.07617 -0.039063,0.181641 0.015625,0.07031 -0.3144531,0.02734 -0.1074219,0.308594 -0.023437,-0.0059 -0.1601563,0.136719 -0.046875,0.19336 0.013672,0.03125 -0.1699219,0.0039 -0.0625,0.191406 -0.046875,0.0059 -0.00781,0.0098 -0.00781,-0.04883 0.052734,-0.169922 -0.2285156,-0.185547 -0.037109,0.03125 -0.011719,-0.01172 -0.2070313,0.05078 -0.1328125,0.15039 -0.029297,0.259766 0.066406,0.0293 -0.017578,0.01367 v 0.01563 l -0.1054687,0.121093 -0.044922,0.166016 -0.078125,-0.03125 -0.21875,0.193359 0.074219,0.113282 -0.089844,0.251953 0.3300782,0.251953 0.328125,-0.136719 0.095703,-0.310547 -0.035156,-0.03906 0.00586,-0.0098 0.013672,0.01953 0.2871093,0.01563 0.076172,-0.126953 0.011719,0.002 0.00391,0.002 0.03125,0.07813 0.058594,0.03125 -0.1933594,0.291015 0.2949219,0.185547 0.359375,-0.04492 -0.00195,-0.02344 H 4.765625 L 4.9335938,16.644531 5.0234375,16.398437 4.8183594,16.240234 4.5859375,16.208984 4.59375,16.191406 4.75,15.974609 4.734375,15.820313 l -0.2226562,0.02539 0.1601562,-0.130859 -0.097656,-0.09961 0.1621093,-0.0293 0.076172,-0.09961 -0.00195,-0.08984 0.3046875,-0.08984 0.070312,-0.335938 -0.00391,-0.0039 0.171875,-0.08789 0.091797,-0.175781 -0.025391,-0.183594 0.125,0.04297 0.203125,-0.02148 L 5.908202,14.335952 5.83203,14.142593 Z m -1.3886718,2.794926 c -0.09176,4.58e-4 -0.1967912,-3.76e-4 -0.2988282,0 l -0.1445312,0.119141 -0.1054688,0.148437 0.203125,0.214844 0.171875,0.09766 0.1640626,-0.103516 0.091797,-0.248046 z m 17.3906246,-2.794922 -0.271484,0.0039 -0.08008,0.242188 0.03516,0.15039 -0.195312,-0.03516 -0.220703,0.07617 -0.04102,0.181641 0.01758,0.07031 -0.316406,0.02734 -0.107422,0.308594 -0.02344,-0.0059 -0.160156,0.136719 -0.04687,0.19336 0.01367,0.03125 -0.169922,0.0039 -0.0625,0.191406 -0.04687,0.0059 -0.0078,0.0098 -0.0078,-0.04883 0.05273,-0.169922 -0.226563,-0.185547 -0.03906,0.03125 -0.01172,-0.01172 -0.207032,0.05078 -0.132812,0.15039 -0.02734,0.259766 0.06445,0.0293 -0.01563,0.01367 -0.002,0.01563 -0.105469,0.121093 -0.04492,0.166016 -0.07617,-0.03125 -0.21875,0.193359 0.07422,0.113282 -0.08984,0.251953 0.328125,0.251953 0.328125,-0.136719 0.09766,-0.310547 -0.03516,-0.03906 0.0039,-0.0098 0.01367,0.01953 0.287109,0.01563 0.07617,-0.126953 0.01172,0.002 0.0059,0.002 0.03125,0.07813 0.05664,0.03125 -0.19336,0.291015 0.294922,0.185547 0.359375,-0.04492 -0.002,-0.02344 h 0.136719 l 0.167969,-0.115235 0.08984,-0.246094 -0.205079,-0.158203 -0.232421,-0.03125 0.0078,-0.01758 0.15625,-0.216797 -0.01563,-0.154296 -0.222656,0.02539 0.160156,-0.130859 -0.09766,-0.09961 0.164062,-0.0293 0.07422,-0.09961 -0.002,-0.08984 0.304687,-0.08984 0.07031,-0.335938 -0.002,-0.0039 0.169922,-0.08789 0.09375,-0.175781 -0.02734,-0.183594 0.125,0.04297 0.203125,-0.02148 0.162109,-0.205079 -0.07813,-0.193359 z m -1.390625,2.794922 c -0.09176,4.58e-4 -0.196791,-3.76e-4 -0.298828,0 l -0.144531,0.119141 -0.105469,0.148437 0.203125,0.214844 0.171875,0.09766 0.164063,-0.103516 0.0918,-0.248046 z M 0.38671875,14.128906 0.078125,14.351563 l 0.125,0.359374 0.41601562,-0.0059 0.12890626,-0.367187 z m 16.00000025,0 -0.308594,0.222657 0.125,0.359374 0.416016,-0.0059 0.128906,-0.367187 z m -3.748047,0.05274 -0.183594,0.04101 -0.164062,0.08399 0.07617,0.28125 0.103515,0.164062 0.195313,-0.01953 0.201172,-0.177735 0.03711,-0.240234 z m 16,0 -0.183594,0.04101 -0.164062,0.08399 0.07617,0.28125 0.103515,0.164062 0.195313,-0.01953 0.201172,-0.177735 0.03711,-0.240234 z m -27.2675782,0.05859 -0.1835938,0.04102 -0.1640625,0.08398 0.076172,0.28125 0.1035156,0.164063 0.1953125,-0.01953 0.2011719,-0.179688 0.037109,-0.238281 z m 16.0019532,0 -0.185547,0.04102 -0.164062,0.08398 0.07617,0.28125 0.105469,0.164063 0.19336,-0.01953 0.201171,-0.179688 0.03906,-0.238281 z M 4.0800781,14.408203 c -0.041291,0.04769 -0.08366,0.09484 -0.125,0.142578 l -0.050781,0.191406 0.1425781,0.21875 0.2128906,-0.002 0.1660156,-0.115234 0.091797,-0.246094 L 4.3125,14.439453 Z m 15.9999999,0 c -0.04129,0.04769 -0.08366,0.09484 -0.125,0.142578 l -0.05078,0.191406 0.142578,0.21875 0.212891,-0.002 0.166015,-0.115234 0.0918,-0.246094 -0.205078,-0.158203 z m -8.210937,0.01953 c -0.05143,0.08198 -0.102817,0.164104 -0.154297,0.246094 l 0.08984,0.199219 0.208984,0.125 0.261719,-0.117188 0.01367,-0.279296 -0.154296,-0.154297 z m 16.001953,0 c -0.05143,0.08198 -0.102817,0.164104 -0.154297,0.246094 l 0.08984,0.199219 0.208984,0.125 0.259766,-0.117188 0.01367,-0.279296 -0.152343,-0.154297 z M 0.77148438,14.656249 0.6484375,14.80078 0.6054688,14.96289 0.5507813,14.9375 0.2929688,15.257813 0.3046876,15.279293 0.14648448,15.283193 0,15.402344 v 0.824219 h 0.01757813 l 0.03710937,0.07422 0.15429688,-0.0039 0.0605469,0.08203 0.0273438,0.04687 0.005859,-0.002 0.1328125,0.181641 0.0839844,-0.02344 0.20507813,0.167969 L 0.94921875,16.619141 1.0625,16.421875 0.96875,16.259766 0.80078125,16.144531 h -0.001953 l -0.003906,-0.05078 -0.0820313,-0.02734 0.0117188,-0.115234 -0.11523438,-0.05469 0.1171875,-0.171875 -0.171875,-0.158203 0.2265625,-0.04297 -0.0234375,0.134766 0.30273443,0.148438 -0.13281255,0.267578 0.28320315,0.261718 0.3652344,-0.191406 -0.054687,-0.332031 0.078125,0.101563 h 0.00195 l 0.044922,0.248046 0.013672,0.01758 h -0.0039 l -0.1328125,0.150391 -0.027344,0.259766 0.2382812,0.105469 0.234375,-0.02344 0.083984,-0.166016 0.00195,-0.199218 -0.027344,-0.02539 0.087891,-0.05664 0.1035156,0.171875 0.3300781,0.05469 0.265625,-0.271485 -0.1289062,-0.289062 0.1171875,-0.01758 0.1699218,-0.109375 0.042969,-0.253906 -0.1601562,-0.134766 -0.2050782,-0.02148 -0.2363281,0.126953 0.044922,0.25 0.068359,0.07813 -0.2675782,-0.05664 -0.099609,0.15625 -0.1171874,-0.101562 -0.060547,-0.0059 0.021484,-0.0059 0.068359,-0.337891 -0.041016,-0.04883 0.25,-0.255859 -0.1523438,-0.34375 -0.4042968,-0.08399 -0.2207032,0.347657 0.09375,0.154297 -0.1191406,0.01172 -0.095703,0.273438 -0.1816406,-0.28711 -0.30664065,0.04687 0.005859,-0.06445 h 0.0507813 l 0.16796875,-0.113281 0.089844,-0.248047 -0.2050782,-0.15625 z m 15.99999962,0 -0.123046,0.144531 -0.04297,0.16211 -0.05469,-0.02539 -0.257812,0.320313 0.01367,0.02148 -0.160157,0.0039 L 16,15.402344 l -0.04492,0.03516 0.0098,0.02734 -0.13086,-0.08399 -0.189453,-0.05664 -0.132812,0.138672 -0.01367,0.121093 -0.08203,-0.04687 -0.308594,0.269532 0.126953,0.289062 -0.01563,0.002 -0.117188,0.183594 0.0078,0.142578 -0.05078,-0.01563 -0.203125,0.201172 0.0098,0.212891 0.185547,0.185547 0.283203,-0.08594 0.07031,-0.205078 -0.02149,-0.07031 0.22461,-0.134765 0.0078,-0.04297 0.128907,0.002 0.179687,-0.04492 -0.0039,-0.203125 0.08008,0.0039 h 0.01953 l 0.03516,0.07422 0.154296,-0.0039 0.06055,0.08203 0.02734,0.04687 0.0059,-0.002 0.132813,0.181641 0.08398,-0.02344 0.205078,0.167969 0.22461,-0.130859 0.113198,-0.197303 -0.09375,-0.162109 -0.167969,-0.115235 h -0.002 l -0.0039,-0.05078 -0.08203,-0.02734 0.01367,-0.115234 -0.117187,-0.05469 0.117187,-0.171875 -0.171874,-0.158203 0.226562,-0.04297 -0.02344,0.134766 0.302735,0.148438 -0.132813,0.267578 0.283204,0.261718 0.365234,-0.191406 -0.05469,-0.335937 0.08008,0.103515 v 0.002 l 0.04492,0.248046 0.01367,0.01758 h -0.0039 l -0.132812,0.150391 -0.02734,0.259766 0.238281,0.105469 0.234375,-0.02344 0.08398,-0.166016 0.002,-0.199218 -0.02734,-0.02539 0.08789,-0.05664 0.103516,0.171875 0.332031,0.05469 0.265625,-0.271485 -0.128906,-0.289062 0.115234,-0.01758 0.169922,-0.109375 0.04297,-0.253906 -0.160156,-0.134766 -0.205078,-0.02148 -0.236329,0.126953 0.04492,0.25 0.06836,0.07617 -0.267578,-0.05469 -0.09961,0.15625 -0.117187,-0.101562 -0.05859,-0.0059 0.01953,-0.0059 0.07031,-0.337891 -0.04102,-0.05078 0.248047,-0.253906 -0.152344,-0.34375 -0.404297,-0.08399 -0.220703,0.347657 0.09375,0.154297 -0.11914,0.01172 -0.09375,0.275391 -0.183594,-0.289063 -0.306641,0.04687 0.0078,-0.06445 h 0.05078 l 0.166016,-0.113281 0.0918,-0.248047 -0.207032,-0.15625 z m -7.8691402,0.02344 -0.2421876,0.04102 -0.0625,0.138672 -0.234375,0.04492 -0.2070312,0.125 -0.041016,0.240234 -0.095703,0.01953 -0.023437,0.191406 -0.025391,0.01172 v -0.002 l -0.1425781,-0.134765 -0.1835938,0.06445 -0.1523437,0.220703 0.019531,0.199219 -0.09375,0.05078 0.00195,0.0039 -0.2714844,-0.11914 -0.2851563,0.207031 -0.015625,0.302734 -0.1328124,-0.15625 -0.2207032,0.06055 0.091797,-0.08789 -0.099609,-0.330079 -0.3085937,-0.128906 -0.058594,0.03711 -0.037109,-0.285156 -0.140625,-0.123047 -0.1640624,-0.08203 -0.09375,0.105469 -0.00976,-0.0605 L 5.726565,15.064453 5.5,14.878906 5.3066406,15.03125 5.1855469,15.234375 5.2714844,15.486328 5.5,15.589844 l 0.00195,-0.002 0.125,0.140625 0.265625,0.05859 0.2089844,-0.09766 -0.2480469,0.154297 0.011719,0.06836 -0.2597656,-0.07617 -0.2011719,0.201172 -0.095703,0.384766 0.1621093,0.103516 0.4121094,-0.175782 0.042969,-0.130859 0.3613282,0.169922 -0.080078,0.220703 0.3300782,0.251953 0.328125,-0.136719 0.095703,-0.308593 -0.0625,-0.07227 0.2148437,0.152344 -0.00977,0.0293 0.052734,0.220703 0.1816406,0.06055 0.2050782,-0.02149 0.15625,-0.201172 0.1542968,-0.0059 0.09375,-0.138672 0.1816406,0.179688 0.2851563,-0.08594 0.00781,-0.01953 0.023437,0.02734 0.1914063,-0.02734 0.087891,-0.05859 0.074219,0.0039 0.00391,-0.002 -0.035156,0.128906 0.1328125,0.134766 0.066406,0.02539 -0.082031,0.177734 0.00195,-0.07031 -0.2070313,-0.0957 L 8.5644444,16.619 H 8.5625 c -0.095522,0.02508 -0.1914494,0.05106 -0.2871094,0.07617 l 0.021484,0.238281 0.1015625,0.21289 0.265625,0.07422 0.2167969,-0.123047 0.00195,-0.103515 0.1621094,0.195312 0.2207031,0.01563 0.2128906,-0.154297 -0.054687,-0.28125 -0.1425781,-0.06445 0.050781,-0.02148 0.025391,-0.205078 -0.095703,-0.167969 0.1464843,-0.21875 -0.2578125,-0.322266 0.1425782,-0.06836 -0.03125,-0.220703 0.1640624,0.0059 0.2304688,-0.07226 0.109375,-0.246094 -0.1015625,-0.220703 -0.2480469,-0.0332 c -0.041662,0.06251 -0.08331,0.12498 -0.125,0.1875 l -0.15625,0.0918 0.021484,0.132813 -0.041016,-0.03516 -0.1660156,-0.08203 -0.1953126,0.220703 -0.082031,0.175782 0.1269531,0.144531 0.2050781,0.04297 -0.2050781,0.0332 -0.1152343,0.1875 -0.1191407,-0.01367 0.048828,-0.113281 -0.1054687,-0.08594 -0.021484,-0.136718 0.1132813,-0.138672 -0.0625,-0.119141 0.054687,-0.15625 0.1015625,-0.09961 0.035156,0.04101 0.2207032,0.01758 0.2128906,-0.15625 -0.054687,-0.28125 -0.203125,-0.0918 z m -3.6308594,0.806641 -0.5234375,0.193359 0.054687,0.425782 0.4492187,0.140625 0.2402344,-0.421875 z m 19.6308596,-0.806641 -0.242188,0.04102 -0.0625,0.138672 -0.234375,0.04492 -0.205078,0.125 -0.04102,0.240234 -0.09766,0.01953 -0.02344,0.191406 -0.02344,0.01172 -0.002,-0.002 -0.140625,-0.134765 -0.185547,0.06445 -0.15039,0.220703 0.01758,0.199219 -0.0918,0.05078 v 0.0039 l -0.271484,-0.11914 -0.283204,0.207031 -0.01563,0.302734 -0.134765,-0.15625 -0.21875,0.06055 0.0918,-0.08789 -0.101563,-0.330079 -0.308594,-0.128906 -0.05859,0.03711 -0.03711,-0.285156 -0.140625,-0.123047 -0.164062,-0.08203 -0.09375,0.105469 -0.0098,-0.06055 0.05273,-0.169922 L 21.5,14.878906 l -0.193359,0.152344 -0.121094,0.203125 0.08594,0.251953 0.228516,0.103516 0.002,-0.002 0.125,0.140625 0.265625,0.05859 0.208984,-0.09766 -0.248046,0.154297 0.01172,0.06836 -0.257812,-0.07617 -0.203125,0.201172 -0.0957,0.384766 0.162109,0.103516 0.412109,-0.175782 0.04492,-0.130859 0.359375,0.169922 -0.07813,0.220703 0.330078,0.251953 0.326172,-0.136719 0.09766,-0.308593 -0.0625,-0.07227 0.214843,0.152344 -0.01172,0.0293 0.05273,0.220703 0.183594,0.06055 0.203125,-0.02149 0.158203,-0.201172 0.154297,-0.0059 0.0918,-0.138672 0.183593,0.179688 0.283203,-0.08594 0.0078,-0.01953 0.02344,0.02734 0.191407,-0.02734 0.08984,-0.05859 0.07227,0.0039 0.0039,-0.002 -0.03516,0.128906 0.132813,0.134766 0.06641,0.02539 -0.08203,0.177734 0.002,-0.07031 -0.207031,-0.0957 L 24.564534,16.619 c -0.09552,0.02508 -0.191449,0.05106 -0.287109,0.07617 l 0.01953,0.238281 0.103516,0.21289 0.265625,0.07422 0.214843,-0.123047 0.002,-0.103515 0.16211,0.195312 0.220703,0.01563 0.212891,-0.154297 -0.05273,-0.28125 -0.142578,-0.06445 0.04883,-0.02148 0.02539,-0.205078 -0.0957,-0.167969 0.146484,-0.21875 -0.257812,-0.322266 0.142578,-0.06836 -0.0293,-0.220703 0.162109,0.0059 0.232422,-0.07226 0.107422,-0.246094 -0.09961,-0.220703 -0.25,-0.0332 c -0.04166,0.06251 -0.08331,0.12498 -0.125,0.1875 l -0.15625,0.0918 0.02148,0.132813 -0.04102,-0.03516 -0.166015,-0.08203 -0.195313,0.220703 -0.08203,0.175782 0.126953,0.144531 0.205078,0.04297 -0.205078,0.0332 -0.115234,0.1875 -0.119141,-0.01367 0.04883,-0.113281 -0.105469,-0.08594 -0.02148,-0.136718 0.113281,-0.138672 -0.0625,-0.119141 0.05664,-0.15625 0.101562,-0.09961 0.0332,0.04101 0.220703,0.01758 0.21289,-0.15625 -0.05469,-0.28125 -0.203125,-0.0918 z m -3.63086,0.806641 -0.523437,0.193359 0.05469,0.425782 0.449219,0.140625 0.240235,-0.421875 z m -8.25,-0.695312 -0.113281,0.169921 -0.228515,-0.09961 -0.191407,0.109375 -0.05664,0.119141 -0.119141,0.103515 -0.0059,0.01758 -0.296875,0.08008 -0.0059,0.05859 -0.0625,0.01367 -0.06055,0.03711 -0.07422,-0.02539 -0.236329,0.302734 0.05859,0.08008 h -0.02539 l -0.19336,0.15625 0.05664,0.140624 -0.179688,0.0625 -0.103515,0.236329 0.121094,0.167968 0.193359,0.06836 0.261719,-0.06836 0.0078,-0.111328 0.28711,-0.05664 0.01953,-0.179688 0.01172,-0.0098 0.11914,0.04883 0.203125,-0.08399 0.115235,-0.232422 -0.06055,-0.07422 0.138671,-0.04297 0.05274,-0.183594 0.166015,-0.105469 -0.0039,-0.08984 h 0.002 l 0.03711,-0.04297 h 0.02344 c -0.0081,0.0128 -0.01532,0.02626 -0.02344,0.03906 l 0.117187,0.195313 -0.01563,-0.01563 -0.207031,0.05078 -0.134766,0.148438 -0.02734,0.259765 0.101562,0.04492 -0.09961,0.07813 0.02734,0.205078 0.11914,0.126953 -0.07422,0.06055 0.107422,0.269532 0.167969,0.08789 0.179688,0.04102 0.136718,-0.259766 0.03516,-0.189453 -0.158203,-0.109375 0.02539,-0.04102 0.0078,-0.226562 -0.08008,-0.05078 0.0625,-0.121094 0.0039,-0.197266 -0.05274,-0.04883 0.271485,0.04492 0.263671,-0.271484 -0.15039,-0.34375 -0.142578,-0.0293 0.02734,-0.06055 -0.09961,-0.220703 z m 16,0 -0.113281,0.169921 -0.228515,-0.09961 -0.191407,0.109375 -0.05664,0.119141 -0.119141,0.103515 -0.0059,0.01758 -0.296875,0.08008 -0.0059,0.05859 -0.0625,0.01367 -0.06055,0.03711 -0.07422,-0.02539 -0.236329,0.302734 0.05859,0.08008 h -0.02539 l -0.19336,0.15625 0.05664,0.140624 -0.179688,0.0625 -0.103515,0.236329 0.121094,0.167968 0.193359,0.06836 0.261719,-0.06836 0.0078,-0.111328 0.28711,-0.05664 0.01953,-0.179688 0.01172,-0.0098 0.11914,0.04883 0.203125,-0.08399 0.115235,-0.232422 -0.06055,-0.07422 0.138671,-0.04297 0.05273,-0.183594 0.166015,-0.105469 -0.0039,-0.08984 h 0.0039 l 0.03711,-0.04297 h 0.02344 c -0.0081,0.01283 -0.0153,0.02623 -0.02344,0.03906 l 0.117187,0.195313 -0.01758,-0.01563 -0.207031,0.05078 -0.134766,0.148438 -0.02734,0.259765 0.101562,0.04492 -0.09961,0.07813 0.02734,0.205078 0.11914,0.126953 -0.07422,0.06055 0.107422,0.269532 0.167969,0.08789 0.179688,0.04102 0.136718,-0.259766 0.03516,-0.189453 -0.158203,-0.109375 0.02539,-0.04102 0.0078,-0.226562 -0.08008,-0.05078 0.0625,-0.121094 0.0039,-0.197266 -0.05273,-0.04883 0.271485,0.04492 0.263671,-0.271484 -0.15039,-0.34375 -0.140625,-0.0293 0.02734,-0.06055 -0.101563,-0.220703 z m -17.787109,0.24414 -0.300781,0.273438 0.142578,0.310547 -0.07227,-0.0078 -0.207031,0.162109 0.02734,0.205079 0.01563,0.01563 -0.164063,-0.06445 -0.04492,-0.283203 -0.419921,-0.02148 -0.166016,0.335937 0.283203,0.261719 0.04883,-0.02539 0.05859,0.376953 0.414062,0.07422 0.22461,-0.267578 -0.04883,-0.242187 0.201171,0.04297 0.138672,-0.216797 0.0059,-0.226563 -0.07031,-0.04297 0.160157,0.01172 0.236328,-0.232422 -0.08203,-0.365234 -0.378906,-0.07422 z m 16,0 -0.300781,0.273438 0.142578,0.310547 -0.07227,-0.0078 -0.207031,0.162109 0.02734,0.205079 0.01563,0.01563 -0.164063,-0.06445 -0.04492,-0.283203 -0.419921,-0.02148 -0.166016,0.335937 0.283203,0.261719 0.04883,-0.02539 0.05859,0.376953 0.414062,0.07422 0.22461,-0.267578 -0.04883,-0.242187 0.201171,0.04297 0.138672,-0.216797 0.0078,-0.226563 -0.07031,-0.04297 0.160157,0.01172 0.234375,-0.232422 -0.08008,-0.365234 -0.38086,-0.07422 z m 4.410156,0.289063 -0.132812,0.138672 -0.01172,0.121093 -0.08398,-0.04687 -0.306641,0.269532 0.125,0.289062 -0.01563,0.002 -0.117188,0.183594 0.0078,0.142578 -0.05078,-0.01563 -0.203125,0.201172 0.0098,0.212891 0.185547,0.185547 0.283203,-0.08594 0.07031,-0.205078 -0.02148,-0.07031 0.22461,-0.134765 0.0078,-0.04297 0.128907,0.002 0.179687,-0.04492 -0.0039,-0.203125 0.08008,0.0039 v -0.824219 l -0.04492,0.03516 0.0098,0.02734 -0.13086,-0.08399 z m -30.2714841,0.291015 0.109375,0.142579 -0.25,-0.01172 z m 16.0019531,0 0.109375,0.142579 -0.251953,-0.01172 z m -3.816406,0.136719 -0.361328,0.208984 0.01758,0.34375 0.265625,0.197266 0.208984,-0.07031 0.185547,0.310546 0.384766,-0.07617 0.04492,-0.394532 0.08398,-0.07617 0.138672,0.111328 0.07813,0.160156 0.296875,-0.0059 0.03906,-0.236328 -0.04687,-0.230468 -0.240234,-0.132813 -0.164063,0.04687 0.002,-0.0098 -0.265626,-0.132812 -0.183593,0.04102 -0.164063,0.08398 0.05664,0.212891 -0.07422,0.09375 0.01563,-0.189453 z m 16,0 -0.361328,0.208984 0.01758,0.34375 0.265625,0.197266 0.208984,-0.07031 0.185547,0.310546 0.384766,-0.07617 0.04492,-0.394532 0.08398,-0.07617 0.138672,0.111328 0.07813,0.160156 0.296875,-0.0059 0.03906,-0.236328 -0.04687,-0.230468 -0.240234,-0.132813 -0.164063,0.04687 0.002,-0.0098 -0.265626,-0.132812 -0.183593,0.04102 -0.164063,0.08398 0.05664,0.212891 -0.07422,0.09375 0.01563,-0.189453 L 29.5606,15.75188 Z M 9.7246094,15.92383 9.4414062,16.093752 9.4296872,16.466799 9.7792966,16.626955 10.138672,16.431643 10.064452,16.031252 9.7265612,15.92383 Z m 16.0019526,0 -0.285156,0.169922 -0.01172,0.373047 0.349609,0.160156 0.359375,-0.195312 -0.07227,-0.400391 z M 6.0351562,16.439453 c -0.099895,5e-4 -0.1989081,0.0013 -0.2988281,0.002 L 5.5917969,16.560547 5.4882812,16.708984 5.6230469,16.851563 5.4941406,16.787109 5.328125,16.972656 5.3085938,16.751953 5.0839844,16.585937 c -0.08817,0.04494 -0.1344363,0.234387 -0.2226563,0.279297 l -0.070312,0.169922 -0.00977,0.08203 -0.1855469,-0.03516 -0.2207031,0.07617 -0.041016,0.183594 0.046875,0.191406 0.2304687,0.13086 0.1894531,-0.09766 0.091797,-0.175781 -0.019531,-0.140625 0.1796875,0.0625 0.1992187,0.01172 0.035156,-0.06055 0.056641,0.06445 0.2675781,0.05859 0.2246094,-0.107422 -0.037109,-0.285156 -0.027344,-0.02344 0.089844,0.05078 0.1640625,-0.103515 0.091797,-0.25 z m 6.0898438,0 -0.132812,0.138672 -0.02734,0.263672 0.136718,0.203125 0.291016,-0.07031 0.109375,-0.148437 0.06445,-0.167969 -0.25,-0.162109 z m 9.910156,0 c -0.0999,5e-4 -0.198908,0.0013 -0.298828,0.002 l -0.144531,0.119141 -0.103516,0.148437 0.132813,0.140625 -0.126953,-0.0625 -0.166016,0.1875 -0.01953,-0.222656 -0.222656,-0.166016 c -0.08817,0.04494 -0.13639,0.234387 -0.22461,0.279297 l -0.07031,0.169922 -0.0098,0.08203 -0.183594,-0.03516 -0.220703,0.07617 -0.04102,0.183594 0.04492,0.191406 0.232422,0.13086 0.1875,-0.09766 0.09375,-0.175781 -0.02148,-0.140625 0.179687,0.0625 0.199219,0.01172 0.03516,-0.06055 0.05664,0.06445 0.267578,0.05859 0.22461,-0.107422 -0.03711,-0.285156 -0.02539,-0.02344 0.08789,0.05078 0.164063,-0.103515 0.0918,-0.25 z m 6.089844,0 -0.132812,0.138672 -0.02734,0.263672 0.136718,0.203125 0.291016,-0.07031 0.109375,-0.148437 0.06445,-0.167969 -0.25,-0.162109 z m -27.1171875,0.203125 -0.125,0.1875 -0.15625,0.09375 0.0429687,0.283203 0.2480468,0.0098 0.232422,-0.0723 0.1074219,-0.246094 -0.099609,-0.222656 z m 15.9999995,0 -0.125,0.1875 -0.154296,0.09375 0.04297,0.283203 0.248047,0.0098 0.230469,-0.07227 0.109375,-0.246094 -0.101563,-0.222656 z m -9.1523432,0.05664 -0.078125,0.160156 -0.1757813,0.140625 0.064453,0.236328 c 0.07976,0.02319 0.1585703,0.04696 0.2382813,0.07031 l 0.2402344,-0.134762 0.046875,-0.230469 -0.039062,-0.236328 z m 16.0000002,0 -0.07617,0.160156 -0.177735,0.140625 0.06445,0.236328 c 0.07976,0.02319 0.160523,0.04696 0.240234,0.07031 l 0.240234,-0.134766 0.04687,-0.230469 -0.03906,-0.236328 z M 0.49609375,16.833984 c -0.098957,0.0059 -0.197915,0.01198 -0.296875,0.01758 l -0.11914063,0.183593 0.01171875,0.236328 0.24804688,0.140625 0.24609375,-0.146484 0.0429687,-0.208984 z m 16.00000025,0 c -0.09896,0.0059 -0.197915,0.01198 -0.296875,0.01758 l -0.117188,0.183593 0.01172,0.236328 0.246094,0.140625 0.246094,-0.146484 0.04492,-0.208984 z m -14.6796878,0.04883 c -0.066717,0.01031 -0.1437299,0.02158 -0.21875,0.0332 l -0.1679687,0.199218 0.1230469,0.263672 0.2207031,0.04102 0.2246094,-0.0957 0.050781,-0.273438 -0.2304687,-0.167968 z m 16.0019528,0 c -0.06672,0.01031 -0.14373,0.02158 -0.21875,0.0332 l -0.167968,0.199218 0.123047,0.263672 0.21875,0.04102 L 18,17.324224 18.04883,17.050786 Z m -5.013671,0.01953 c -0.09109,0.0011 -0.182268,0.0038 -0.273438,0.0059 l -0.193359,0.154297 0.107421,0.269531 0.166016,0.08789 0.181641,0.04101 0.134765,-0.259765 0.03516,-0.189453 z m 16,0 c -0.09109,0.0011 -0.182268,0.0038 -0.273438,0.0059 l -0.193359,0.154297 0.107421,0.269531 0.166016,0.08789 0.181641,0.04101 0.134765,-0.259765 0.03516,-0.189453 z m -13.376954,0.08203 c -0.0658,0.103091 -0.143793,0.227173 -0.220703,0.347656 l 0.179688,0.296875 0.330078,0.05469 0.265625,-0.271485 -0.152344,-0.34375 z m 16,0 c -0.0658,0.103091 -0.143793,0.227173 -0.220703,0.347656 l 0.179688,0.296875 0.330078,0.05469 0.265625,-0.271485 -0.152344,-0.34375 z m -18.222656,0.105469 c -0.07909,0.02758 -0.157128,0.0564 -0.236328,0.08398 l -0.02148,0.21875 -0.0918,0.152344 0.173828,0.234375 0.224609,-0.103516 0.169922,-0.169922 -0.02148,-0.265625 z m 16,0 c -0.07909,0.02758 -0.157128,0.0564 -0.236328,0.08398 l -0.02148,0.21875 -0.0918,0.152344 0.173828,0.234375 0.224609,-0.103516 0.169922,-0.169922 -0.02148,-0.265625 z m -17.220703,0.126953 c -0.07486,0.05747 -0.149839,0.116398 -0.224609,0.173828 l 0.05664,0.273438 0.1875,0.113281 0.261719,-0.04102 0.08789,-0.275391 -0.136719,-0.171874 z m 16,0 c -0.07486,0.05747 -0.149839,0.116398 -0.224609,0.173828 l 0.05664,0.273438 0.1875,0.113281 0.261719,-0.04102 0.08789,-0.275391 -0.136719,-0.171874 z m -27.02734375,0.04492 c -0.056915,0.05994 -0.114945,0.119647 -0.171875,0.179687 l 0.0898438,0.20508 -0.009766,0.175782 0.24414055,0.117187 -0.00781,0.107422 0.1738281,0.134766 0.2460938,0.01563 0.1738281,-0.21875 -0.1210937,-0.253907 -0.2109376,-0.06836 -0.058594,0.02539 0.044922,-0.148438 -0.1484375,-0.226562 z m 15.99999975,0 c -0.05692,0.05994 -0.114945,0.119647 -0.171875,0.179687 l 0.08984,0.205078 -0.0098,0.175782 0.244141,0.117187 -0.0078,0.107422 0.175782,0.134766 0.24414,0.01563 0.175782,-0.21875 -0.123047,-0.253907 -0.208985,-0.06836 -0.06055,0.02539 0.04492,-0.148438 -0.146484,-0.226562 z m -7.5996091,0.0098 c -0.02921,0.06574 -0.063486,0.143853 -0.097656,0.220703 L 9.25,17.726563 l 0.1992188,0.185546 0.25,-0.01367 0.1210937,-0.21289 -0.1367187,-0.177734 -0.035156,-0.173829 z m 16.0000001,0 c -0.02921,0.06574 -0.06349,0.143853 -0.09766,0.220703 l -0.0098,0.234376 0.201172,0.185546 0.25,-0.01367 0.121094,-0.21289 -0.136719,-0.177734 -0.03516,-0.173829 -0.291016,-0.0625 z M 8.8828125,17.376953 c -0.093107,0.0358 -0.1861969,0.07166 -0.2792969,0.107422 l -0.1582031,0.117188 0.037109,0.160156 -0.00586,-0.0059 c -0.093099,0.03579 -0.1861969,0.07172 -0.2792969,0.107422 l -0.1582031,0.117188 0.042969,0.185547 0.2089844,0.169921 0.25,0.0078 0.1054688,-0.271484 -0.064453,-0.169922 -0.064453,-0.0918 0.1796875,0.148437 0.25,0.0059 0.1054688,-0.271485 -0.064453,-0.171875 z m 15.9999995,0 c -0.09311,0.0358 -0.186196,0.07166 -0.279296,0.107422 l -0.158204,0.117188 0.03711,0.160156 -0.0059,-0.0059 c -0.0931,0.03579 -0.186196,0.07172 -0.279296,0.107422 l -0.158204,0.117188 0.04297,0.185547 0.208985,0.169921 0.25,0.0078 0.105468,-0.271484 -0.06445,-0.169922 -0.06445,-0.0918 0.179688,0.148437 0.25,0.0059 0.105468,-0.271485 -0.06445,-0.171875 z m -19.7050776,0.03516 c -0.11849,0.05434 -0.2369758,0.10771 -0.3554688,0.16211 l 0.054687,0.398437 0.3945313,0.08008 0.171875,-0.371093 z m 15.9999996,0 c -0.11849,0.05434 -0.236975,0.10771 -0.355468,0.16211 l 0.05664,0.398437 0.394532,0.08008 0.169921,-0.371093 z M 0.52929688,17.691406 0.17382812,17.853516 0.23046875,18.251953 0.625,18.332031 0.79492188,17.960937 Z m 16.00000012,0 -0.355469,0.16211 0.05664,0.398437 0.394531,0.08008 0.169922,-0.371094 z m -3.988281,0.154297 c -0.120456,0.06942 -0.240848,0.139564 -0.361328,0.208984 l 0.01562,0.34375 0.267579,0.197266 0.365234,-0.123047 0.0293,-0.371093 z m 16,0 c -0.120456,0.06942 -0.240847,0.139564 -0.361328,0.208984 l 0.01758,0.34375 0.265625,0.197266 0.365234,-0.123047 0.03125,-0.371093 z M 9.1933594,18.021484 c -0.115866,0.01729 -0.2505754,0.03698 -0.3808594,0.05664 l -0.0625,0.375 0.3710938,0.181641 0.2929687,-0.267579 z m 15.9999996,0 c -0.115866,0.01729 -0.250575,0.03698 -0.380859,0.05664 l -0.0625,0.375 0.371094,0.181641 0.292968,-0.267579 z M 4.6386719,18.259766 c -0.083208,0 -0.1800775,0.0014 -0.2734375,0.0039 l -0.078125,0.242187 0.050781,0.220704 0.1835938,0.0625 0.203125,-0.02148 0.1601562,-0.207031 -0.076172,-0.191406 z m 16.0000001,0 c -0.08321,0 -0.178124,0.0014 -0.271484,0.0039 l -0.08008,0.242187 0.05273,0.220704 0.18164,0.0625 0.203125,-0.02148 0.16211,-0.207031 -0.07813,-0.191406 z M 1.1015625,18.486328 c -0.074992,0.0149 -0.16077062,0.03037 -0.24414062,0.04687 l -0.20703126,0.125 -0.0429687,0.263672 0.15234374,0.191406 0.24999994,-0.02539 0.076172,-0.210938 0.1269531,-0.125 z m 15.9999995,0 c -0.07499,0.0149 -0.16077,0.03037 -0.24414,0.04687 l -0.207031,0.125 -0.04297,0.263672 0.152344,0.191406 0.25,-0.02539 0.07617,-0.210938 0.126953,-0.125 z m -8.1757808,0.349609 c -0.06901,0.01713 -0.1379712,0.03392 -0.2070312,0.05078 l -0.1328125,0.15039 -0.027344,0.259766 0.2382812,0.105469 0.234375,-0.02344 0.083984,-0.166015 0.00391,-0.197266 -0.1914062,-0.179688 z m 16.0019528,0 c -0.06901,0.01713 -0.137971,0.03392 -0.207031,0.05078 l -0.134765,0.15039 -0.02734,0.259766 0.240234,0.105469 0.232422,-0.02344 0.08398,-0.166015 0.0039,-0.197266 z M 5.0253906,19.275391 c -0.08332,0.03832 -0.16668,0.07493 -0.25,0.113281 l -0.076172,0.230469 0.1640624,0.185546 0.2226563,-0.06055 0.1796875,0.0293 L 5.4296875,19.533203 5.25,19.367187 Z m 16.0000004,0 c -0.08332,0.03832 -0.16668,0.07493 -0.25,0.113281 l -0.07617,0.230469 0.164062,0.185546 0.222657,-0.06055 0.179687,0.0293 L 21.42969,19.533203 21.25,19.367187 Z m -8.519532,0.695312 c -0.08335,0.03792 -0.16665,0.07519 -0.25,0.113281 l -0.07813,0.230469 0.166016,0.185547 0.220703,-0.06055 0.179688,0.0293 0.04297,-0.06055 v -0.292969 l -0.05859,-0.05273 z m 16,0 c -0.08335,0.03792 -0.16665,0.07519 -0.25,0.113281 l -0.07813,0.230469 0.166016,0.185547 0.220703,-0.06055 0.179688,0.0293 0.04297,-0.06055 v -0.292969 l -0.05859,-0.05273 z"
     id="path4280"
     inkscape:connector-curvature="0" />
  <rect
     width="24"
     height="24"
     rx="0"
     x="15.933154"
     y="13.029006"
     id="rect8566"
     style="fill:none;fill-opacity:1;stroke:none" />
  <desc
     id="desc932">Created with Snap</desc>
  <rect
     style="fill:none;fill-opacity:1;stroke:none"
     id="rect818"
     y="12.984375"
     x="0.044630677"
     rx="0"
     height="24"
     width="24" />
</svg>
