<?xml version="1.0" encoding="UTF-8" standalone="no"?>
<svg
   xmlns:dc="http://purl.org/dc/elements/1.1/"
   xmlns:cc="http://creativecommons.org/ns#"
   xmlns:rdf="http://www.w3.org/1999/02/22-rdf-syntax-ns#"
   xmlns:svg="http://www.w3.org/2000/svg"
   xmlns="http://www.w3.org/2000/svg"
   id="Svg"
   width="24"
   height="24"
   version="1.1">
  <metadata
     id="metadata936">
    <rdf:RDF>
      <cc:Work
         rdf:about="">
        <dc:format>image/svg+xml</dc:format>
        <dc:type
           rdf:resource="http://purl.org/dc/dcmitype/StillImage" />
        <dc:title></dc:title>
      </cc:Work>
    </rdf:RDF>
  </metadata>
  <defs
     id="defs3" />
  <path
     id="path4280"
     d="m 7.6699215,2.1958008 0.436524,0.09668 0.052733,0.2695313 0.2050784,0.2768554 -0.1816409,0.3325196 -0.375,0.020508 L 7.5073231,2.9033205 7.523433,2.5385743 7.669917,2.195801 Z m 6.3676765,0.058594 0.609374,0.1406251 0.04687,0.588867 -0.533204,0.2241213 -0.449706,-0.4438478 0.32666,-0.5097656 z m 6.278321,0.1054686 0.237304,0.1713867 -0.05273,0.2958984 -0.203613,0.4028321 -0.270996,-0.065918 -0.249023,-0.1347656 -0.161133,-0.4204102 0.288574,-0.2402343 0.411622,-0.00879 z M 2.2148438,2.3759763 2.520996,2.408203 2.7612307,2.6191406 2.6967773,3.0131835 2.4418942,3.1845703 2.1547853,3.2285158 1.9262693,2.9604494 1.8588871,2.5722657 2.2148438,2.3759767 Z m 10.8046872,1.3798828 0.314942,0.1054687 0.183105,0.3925782 -0.262207,0.3413084 -0.367676,-0.024903 -0.262206,-0.2109375 0.02638,-0.4453125 0.367675,-0.158203 z M 0.6489255,3.8613278 0.953613,3.9023431 1.1967772,4.0590814 1.1894498,4.4121087 0.98291025,4.7490234 0.5859375,4.6582031 0.37939425,4.4311524 0.33837901,4.1132812 0.6489255,3.8613281 Z M 6.9916995,3.8862301 7.306641,4.2802729 7.202637,4.806152 6.5976563,4.9892575 6.2314456,4.4912106 6.4145505,3.9389644 6.9916995,3.8862305 Z m 11.9692375,0.092286 0.345703,0.2636718 -0.07324,0.4233399 -0.33838,0.1479492 -0.329589,-0.064454 -0.184572,-0.4072265 0.251955,-0.3105468 0.328124,-0.052734 z M 5.2880858,5.1386715 5.8930665,5.2690425 6.1215818,5.8037105 5.7231443,6.2255855 5.2265625,6.1391598 4.9570312,5.677734 5.2880858,5.1386715 Z M 17.39502,5.255859 17.699707,5.2968736 17.942871,5.453612 17.935432,5.8066393 17.72889,6.1420885 17.331942,6.0527331 17.125399,5.8256823 17.084385,5.5078112 17.394931,5.255858 Z m -6.076173,0.092286 0.629883,0.033691 0.09375,0.599121 -0.547849,0.2973636 -0.424804,-0.4086914 0.249022,-0.5214844 z m 12.194825,0.033691 0.304687,0.032227 L 24,5.572266 l 0,0.4116211 -0.0058,0.035156 -0.254892,0.1713867 -0.28711,0.043945 L 23.225117,5.9663084 23.156269,5.5781248 23.51369,5.3818357 Z M 0,5.5722656 0.0600585,5.6249999 0,5.9838867 0,5.5722656 Z m 10.249512,0.5727539 0.341309,0.2885743 -0.0791,0.2636718 0.05273,0.3413086 L 10.249512,7.2480469 9.9082035,7.0898437 9.7778318,6.6972656 9.9609374,6.3823242 10.249512,6.1450195 Z m 5.931152,0.609375 0.364746,0.1816406 0.146484,0.2695313 -0.03663,0.3193358 L 16.293448,7.6948244 16.007805,7.5820313 15.808586,7.3710937 15.900867,7.03125 16.180652,6.7543945 Z m 5.758301,0.1728516 0.398437,0.030761 0.229982,0.2387695 -0.02051,0.4350583 L 22.155763,7.8120118 21.842286,7.6171872 21.70752,7.30957 21.938966,6.9272458 Z M 4.302246,6.9331055 4.6333005,7.4707031 4.1938477,7.8881835 3.6372068,7.6054687 3.7309568,7.0239258 4.302246,6.9331055 Z M 9.7148437,7.3930664 9.9624023,7.5219728 10.171875,7.7124023 10.227545,8.1591795 9.889165,8.323242 9.4892627,8.232421 9.2988332,8.0097655 9.4204151,7.7358392 9.7148486,7.3930659 Z M 21.0542,7.6215817 l 0.606444,0.1303718 0.227052,0.5346674 -0.396974,0.4218751 -0.407226,-0.070312 0.08057,0.076172 -0.0044,0.307617 -0.127441,0.2607421 -0.350097,0.035153 -0.358887,-0.1640624 0.04101,-0.4042966 0.200683,-0.2329103 0.310547,-0.079102 0.0249,0.024901 -0.17578,-0.3032226 0.32959,-0.5375978 z m -5.575195,0.2299807 0.200683,0.3457037 -0.06592,0.3251946 -0.367676,0.2299809 -0.370606,-0.2182621 -0.01904,-0.3691403 0.177246,-0.2856449 0.445313,-0.027832 z M 2.7700193,8.2104494 3.3164062,8.4726562 3.2490233,9.09375 2.671875,9.2109375 2.384766,8.708496 2.7700193,8.2104494 Z M 9.1875,8.2119472 9.546387,8.4199544 9.6166992,8.7773767 9.558101,9.1465169 9.1113236,9.1553127 8.9956057,8.9077147 8.7304687,8.6865232 8.8271483,8.3203125 9.1875,8.2119143 Z m 5.523926,0.6181643 0.375,0.052733 0.150878,0.344238 -0.162597,0.3808598 -0.347167,0.114258 -0.244629,-0.010252 0.04394,0.3427735 -0.33838,0.164062 -0.401367,-0.08935 -0.19043,-0.2241216 0.123048,-0.2739254 0.292969,-0.3427732 0.247558,0.1289062 0.06152,0.055665 -0.03076,-0.2080071 0.232909,-0.1435553 0.1875,-0.2915032 z m -6.2197265,0.133301 0.256347,0.1713869 0.1157228,0.2988278 -0.2416988,0.317871 -0.3046875,0.033691 -0.1875,-0.064455 0.039548,0.282714 -0.1391603,0.273926 -0.2563477,0.13623 0.00442,0.0058 -0.1054687,0.524414 -0.4570313,0.13916 0.00439,0.140625 -0.2944336,0.194824 -0.062988,0.0029 0.060059,0.155274 -0.1538084,0.203612 0.019042,0.128907 0.1567388,0.114258 -0.052735,0.294433 -0.013184,0.02783 0.3486329,0.04981 0.3090818,0.24463 -0.13623,0.383788 -0.2504887,0.177246 -0.2065434,0.0015 0.00293,0.03663 -0.5332035,0.224121 -0.4482419,-0.443848 0.2900392,-0.452637 -0.086426,-0.04687 -0.046875,-0.123047 -0.00586,-0.0029 -0.019043,-0.0015 -0.1142581,0.194824 -0.4306634,-0.02197 -0.019043,-0.03223 -0.00879,0.01465 0.052735,0.06299 -0.1450193,0.481933 -0.4921874,0.212403 -0.4936531,-0.392578 0.134766,-0.389648 -0.1113285,-0.175781 0.328125,-0.303223 0.1157227,0.04981 0.067383,-0.257812 0.1582027,-0.188966 0.00146,-0.0249 0.024903,-0.01904 -0.098145,-0.04541 0.042481,-0.405761 0.1992188,-0.23291 0.3105473,-0.0791 0.017578,0.01758 0.057129,-0.04687 0.3413085,0.288574 -0.079102,0.262208 0.011719,0.07764 0.011719,-0.01465 0.070312,-0.01172 0.095215,-0.297364 0.2534182,-0.0044 -0.019043,-0.04834 0.070312,-0.300294 0.23877,-0.213867 0.036621,0.01025 L 6.8847978,10.078128 7.357942,10.035645 7.3330398,9.9272475 7.3930988,9.6445321 7.725618,9.5258798 8.0185868,9.5815446 7.9658541,9.3471697 8.0845064,8.9707048 8.4917331,8.9633593 Z m -4.8120119,0.090822 0.5419919,0.32373 -0.1948238,0.572754 -0.624024,0.00879 L 3.2167965,9.3999382 3.6796876,9.0542355 Z M 20.208985,9.1274792 20.607421,9.3340218 20.550293,9.7060923 20.248536,9.984413 19.95703,10.013706 19.800293,9.7588235 19.686035,9.3223002 19.932129,9.1904637 20.208984,9.1274786 Z M 2.0581058,9.2841795 2.4565432,9.4921874 2.3994143,9.8627929 2.0976562,10.141112 1.8061523,10.171876 1.6494142,9.9155275 1.5351563,9.479004 1.78125,9.348633 2.0581058,9.2841795 Z m -0.9008791,0.6489255 0.3486323,0.049809 0.3090825,0.2446286 -0.1362307,0.383789 -0.250488,0.177246 -0.076172,0 -0.04834,0.46289 -0.47167944,0.09522 0.25781254,0.247559 -0.17578129,0.266602 0.17431659,0.0835 -0.019043,0.180176 0.1230472,0.04248 0.00586,0.0791 0.00293,0 0.2504888,0.177246 0.1420882,0.251951 -0.1699214,0.309082 -0.3383791,0.202148 -0.30615295,-0.260742 -0.12744075,0.03515 -0.19921876,-0.279784 -0.00879,0.0015 -0.0410159,-0.07177 -0.0908197,-0.127442 -0.22998076,0.0058 L 0.02783176,12.373535 0,12.372071 l 0,-1.28174 0.21972675,-0.184569 0.23876925,-0.0044 -0.0190426,-0.03369 0.38525325,-0.49951 0.0820312,0.03955 0.0659183,-0.251955 0.18457047,-0.2226552 z m 12.1992183,0.036631 0.304689,0.1406243 0.08203,0.439453 -0.319335,0.240234 -0.331056,-0.02638 -0.05127,-0.06446 -0.152344,0.155274 -0.08349,0.244628 0.09228,0.183106 -0.168458,0.216796 0.03223,0.210937 0.158203,0.136231 -0.0747,0.175782 0.180177,0.01904 0.17285,-0.290038 0.527343,-0.0879 0.385255,0.499512 -0.218261,0.339844 0.142089,0.262206 -0.03662,0.317871 -0.07471,0.03514 0.213867,0.09815 0.08057,0.439454 -0.319335,0.240235 -0.331056,-0.02638 -0.272461,-0.338379 0.155275,-0.350097 -0.09961,-0.03955 -0.199218,-0.210938 0.05273,-0.197754 -0.0044,0.0015 -0.109863,-0.0044 -0.1333,0.08936 -0.28711,0.04394 -0.03514,-0.04248 -0.01025,0.03076 -0.426269,0.133301 -0.273926,-0.28125 -0.13916,0.215331 -0.231446,0.0088 -0.235839,0.314942 -0.306153,0.03223 -0.273925,-0.09375 -0.07764,-0.344238 0.01466,-0.04394 -0.322267,-0.23877 0.09375,0.112793 -0.145019,0.481933 -0.4907225,0.212404 -0.495117,-0.392578 0.1186523,-0.34424 -0.5405273,-0.263671 -0.065917,0.203613 -0.4262692,0.133301 -0.2783205,-0.288574 -0.013185,-0.331056 0.3032227,-0.312011 0.3881836,0.117188 -0.01758,-0.104004 0.4863278,-0.314942 0.4628901,0.20215 0.1508791,0.51416 -0.1376948,0.13623 0.3295893,-0.09522 0.200685,0.241699 0.02343,-0.470215 0.426269,-0.322265 0.407226,0.186034 -0.0015,-0.0058 0.139161,-0.0791 -0.02783,-0.310547 0.227051,-0.342774 0.276855,-0.09961 0.212402,0.210937 0.0015,0.0029 0.03663,-0.01904 0.03514,-0.298828 0.145018,-0.03076 0.06152,-0.37207 0.309082,-0.193361 0.351563,-0.07177 0.09375,-0.215332 0.363281,-0.06152 z m 6.169922,0.1713853 0.374999,0.05127 0.15088,0.344238 -0.162598,0.382325 -0.347167,0.112792 -0.257813,-0.0088 -0.05566,0.06738 -0.0029,0 0.0044,0.137696 -0.249023,0.165527 -0.0791,0.284179 -0.209473,0.06738 0.09082,0.115724 -0.171388,0.361815 -0.304687,0.130371 -0.180175,-0.07763 -0.01611,0.01465 -0.03076,0.28125 -0.4292,0.0879 -0.01172,0.172851 -0.394042,0.105468 -0.288575,-0.105468 -0.183105,-0.262207 0.156739,-0.367677 0.268067,-0.09668 -0.08349,-0.218262 0.288575,-0.2417 0.03809,0 -0.0879,-0.125977 0.354493,-0.470214 0.112792,0.03809 0.09082,-0.05713 0.09228,-0.01905 0.0058,-0.09228 0.445312,-0.124512 0.0058,-0.02783 0.178711,-0.161133 0.08495,-0.183106 0.288574,-0.171386 0.342774,0.153807 0.169921,-0.263672 z m -2.671874,0.38086 0.569823,0.115723 0.121582,0.566894 -0.353027,0.360352 -0.240234,-0.01905 0.105468,0.06885 -0.0074,0.351563 -0.206543,0.336914 -0.301757,-0.06738 0.07324,0.37793 -0.336913,0.416015 -0.621095,-0.117186 -0.0879,-0.585939 -0.0747,0.04101 -0.424806,-0.408692 0.249024,-0.521484 0.629884,0.03515 0.06885,0.439452 0.244629,0.101077 -0.02343,-0.02638 -0.03955,-0.319336 0.309082,-0.251952 0.109864,0.01465 -0.215333,-0.483398 0.451171,-0.424804 z m 6.610839,0.449707 0.285644,0.0879 0.19629,0.130372 -0.01611,-0.04248 0.06885,-0.05713 0,1.28174 -0.121582,-0.0044 0.0044,0.314942 -0.269532,0.06885 -0.191894,-0.0029 -0.01318,0.06738 -0.338377,0.210938 0.03223,0.106933 -0.104004,0.319336 -0.426269,0.1333 -0.276856,-0.287109 -0.01466,-0.331054 0.303223,-0.312012 0.07764,0.02343 -0.01025,-0.221192 0.17578,-0.287109 0.02343,-0.0015 -0.188965,-0.448243 0.461426,-0.420411 0.124512,0.07177 0.01904,-0.186035 0.199219,-0.215332 z M 7.78125,11.258796 8.1416018,11.746589 7.7944335,12.263678 7.2275392,12.099616 7.2070314,11.522468 7.7812502,11.258796 Z m -6.140625,0.354493 0.629883,0.03369 0.093749,0.599122 -0.5478515,0.297361 -0.4248046,-0.408691 0.2490233,-0.521484 z m 18.698731,0.02197 0.476074,0.396973 -0.02343,0.294433 0.111329,-0.145019 -0.08643,-0.329591 0.246094,-0.131835 0.276855,-0.06298 0.398437,0.206542 -0.0029,0.01465 0.24756,-0.0747 0.360352,0.208008 0.07032,0.357422 -0.0586,0.367676 -0.446778,0.01025 -0.115722,-0.249024 -0.208008,-0.17285 -0.127442,0.118652 -0.06592,0.612304 -0.578613,0.118652 -0.276856,-0.483398 -0.313476,0.108399 -0.399903,-0.306153 -0.0249,-0.534669 0.541993,-0.323729 z m -16.9497077,0 0.6049807,0.130371 0.2285152,0.534669 -0.3984374,0.421874 -0.4965818,-0.08642 -0.1552733,-0.265137 -0.1318357,0.0879 0.041015,0.03956 -0.00439,0.307617 -0.1259767,0.260742 -0.3500977,0.03515 -0.358887,-0.164062 0.041016,-0.404296 0.2006836,-0.232911 0.00586,-0.0015 -0.021972,-0.0249 -0.067383,-0.388183 0.3559567,-0.196289 0.3061522,0.03223 0.1772461,0.15674 L 3.38965,11.63524 Z m 11.1987307,0.266602 0.509765,0.166993 0.1084,0.622558 -0.539063,0.304687 -0.524414,-0.249023 0.01758,-0.580078 0.427735,-0.265137 z m 4.609862,0.112793 0.304689,0.04101 0.243164,0.156737 -0.0074,0.353028 -0.03955,0.06298 0.237304,0.169921 -0.05274,0.294433 -0.203614,0.402832 -0.270996,-0.06446 -0.250488,-0.136231 -0.161133,-0.418945 0.111328,-0.09375 -0.180176,-0.197754 -0.04101,-0.317871 0.310547,-0.251954 z m -2.257322,0.867187 0.294432,0.234374 0.03369,0.413087 -0.254883,0.262208 -0.336915,0.161133 -0.262206,-0.363282 0.139161,-0.23584 0.03076,-0.342774 0.355958,-0.128906 z m -8.82129,0.05566 0.1230465,0.355957 -0.1391595,0.386718 -0.2446291,0.162599 -0.2563477,-0.15381 -0.3046874,-0.333983 0.1567379,-0.229981 0.2153318,-0.184571 0.4497075,-0.0029 z m 10.151367,0.06738 0.285645,0.0879 0.376465,0.250489 -0.09815,0.262207 -0.164062,0.229981 -0.436523,0.109863 -0.203613,-0.316406 0.04101,-0.408692 0.199219,-0.215331 z M 1.5117187,13.021 l 0.375,0.05127 0.150879,0.344237 L 1.875,13.798835 1.5278317,13.913093 1.155762,13.898446 1.0913083,13.456062 1.3242187,13.311043 1.5117186,13.021005 Z m 13.6933603,0.03954 0.360351,0.208009 0.07032,0.357422 -0.05859,0.367675 -0.446777,0.01025 -0.115723,-0.249023 -0.265136,-0.219728 0.09668,-0.36621 0.358887,-0.1084 z M 3.8012692,13.062059 4.1997068,13.481004 3.943359,14.058153 3.3515625,13.933642 3.2680663,13.315477 3.801269,13.062059 Z m 6.1567388,0.616699 0.247558,0.127442 0.209473,0.191894 0.05566,0.445313 -0.336915,0.165528 -0.4013618,-0.09082 -0.1904294,-0.224121 0.1215825,-0.272462 0.2944334,-0.342774 z m 9.730956,0.282716 0.350099,0.112792 0.205077,0.266603 -0.131836,0.427733 -0.394042,0.06446 -0.28125,-0.177245 -0.08495,-0.426271 0.336913,-0.268066 z m -17.1547844,0.07764 0.3691409,0.07177 0.2211915,0.351563 -0.067383,0.229981 0.089355,-0.03809 0.3149415,0.10547 0.1831058,0.394043 -0.2622071,0.341282 -0.3676763,-0.02636 -0.2622068,-0.209473 0.010255,-0.166992 -0.364746,-0.18164 0.013184,-0.272462 -0.1333012,-0.319335 0.2563478,-0.279786 z M 8.6118165,14.137269 9,14.210511 9.0571276,14.614807 8.917967,14.888703 8.6352522,15.039583 8.288084,14.838899 8.2192344,14.540071 8.2807568,14.25589 8.6118113,14.137238 Z m 6.6694345,0.02638 0.159667,0.228515 0.09668,0.266602 -0.158202,0.42041 -0.375,-0.01172 -0.313477,-0.265137 -0.06446,-0.287108 0.235841,-0.184571 0.418945,-0.166992 z m 5.841795,0.358886 0.23877,0.171387 -0.05273,0.294433 -0.203612,0.404298 -0.270998,-0.06592 -0.250488,-0.13623 -0.161131,-0.418946 0.290037,-0.240234 0.410157,-0.0088 z m -17.0009755,0.657686 0.1684567,0.414552 -0.1918942,0.194824 -0.1127932,0.32666 -0.3764648,0.03956 -0.2285159,-0.297363 0.065918,-0.410157 0.3090818,-0.193359 0.3662115,-0.0747 z m 17.9897465,0.19336 0.476074,0.396973 -0.04542,0.578613 -0.547852,0.188966 -0.399902,-0.306153 -0.02491,-0.534668 0.541993,-0.323731 z m -11.975098,0.19043 0.348633,0.04834 0.309082,0.246095 -0.137696,0.383789 -0.250488,0.177246 -0.319336,0.0029 -0.2138675,-0.338379 0.077636,-0.297363 0.1860352,-0.222656 z m 6.28711,0.177245 0.159667,0.228517 0.09667,0.266602 -0.158203,0.42041 -0.375,-0.01025 -0.313477,-0.266601 -0.06446,-0.28711 0.23584,-0.18457 0.418946,-0.166993 z m 7.154296,1.094239 0.33545,0.143556 0.08642,0.08349 0,0.454102 -0.06299,0.09521 -0.269532,-0.04687 -0.332519,0.09375 -0.247559,-0.287109 0.115723,-0.358887 0.375,-0.177247 z M 5.4448246,17.01709 5.843262,17.436035 5.5869143,18.013183 4.995117,17.888672 4.911621,17.270508 5.4448246,17.01709 Z M 0,17.062501 0.18310574,17.238281 0,17.516602 0,17.062501 Z m 11.638184,0.01172 0.273924,0.257814 0.05713,0.407225 -0.140626,0.256349 -0.298828,-0.01758 -0.424803,-0.152343 0.03223,-0.278321 0.104005,-0.263671 0.396973,-0.209473 z m 6.08496,0.178712 0.331055,0.537597 -0.439453,0.417481 -0.556641,-0.282716 0.09521,-0.583007 0.569824,-0.08936 z M 0.34716825,18.259282 0.95214826,18.388187 1.1806642,18.922856 0.78222675,19.344731 0.28564426,19.259766 0.016113,18.796876 0.34716825,18.259278 Z m 6.42333985,0.241695 0.3457027,0.262206 -0.073241,0.424805 -0.3383791,0.147949 -0.3295896,-0.06445 -0.1845706,-0.407227 0.2519535,-0.310547 0.3281251,-0.05273 z m 11.6440429,0.200684 0.171387,0.213867 0.310546,0.150878 -0.0058,0.37793 -0.323731,0.191894 -0.398437,-0.115722 -0.153809,-0.32959 -0.03076,-0.372071 0.430664,-0.117186 z m -5.122559,0.432129 0.254883,0.169921 0.115722,0.298829 -0.241698,0.319335 -0.304688,0.03369 -0.273926,-0.09522 -0.07764,-0.342774 0.118652,-0.376465 0.408691,-0.0074 z m -10.870605,0.859862 0.3354488,0.145019 0.2695312,0.257814 -0.2460937,0.373534 -0.2695313,-0.04688 -0.3325193,0.09375 -0.2460937,-0.28711 0.114258,-0.357421 0.375,-0.178712 z m 18.062988,0.268067 0.287109,0.278321 -0.0044,0.307616 -0.125976,0.259277 -0.350098,0.03663 -0.358886,-0.164063 0.04101,-0.405761 0.200683,-0.23291 0.310548,-0.0791 z m -5.702637,0.08349 0.123048,0.355957 -0.137696,0.386719 -0.244629,0.161132 -0.257812,-0.153809 -0.304689,-0.332518 0.156739,-0.231446 0.216797,-0.18457 0.448242,-0.0015 z m -6.3164063,0.01611 0.2006843,0.345702 -0.065917,0.325196 -0.3691409,0.22998 -0.3706051,-0.219727 -0.01758,-0.367675 0.1772459,-0.285645 0.4453125,-0.02783 z" style="fill:#999999;fill-opacity:1;stroke:none" />
  <rect
     width="24"
     height="24"
     rx="0"
     x="0"
     y="-1.2212453e-15"
     id="rect8566"
     style="fill:none;fill-opacity:1;stroke:none" />
  <desc
     id="desc932">Created with Snap</desc>
</svg>
