<?xml version="1.0" encoding="UTF-8" standalone="no"?>
<svg
   xmlns:dc="http://purl.org/dc/elements/1.1/"
   xmlns:cc="http://creativecommons.org/ns#"
   xmlns:rdf="http://www.w3.org/1999/02/22-rdf-syntax-ns#"
   xmlns:svg="http://www.w3.org/2000/svg"
   xmlns="http://www.w3.org/2000/svg"
   xmlns:sodipodi="http://sodipodi.sourceforge.net/DTD/sodipodi-0.dtd"
   xmlns:inkscape="http://www.inkscape.org/namespaces/inkscape"
   version="1.1"
   height="32"
   width="32"
   id="Svg"
   sodipodi:docname="arete3c.svg"
   inkscape:version="0.92.2 5c3e80d, 2017-08-06">
  <sodipodi:namedview
     pagecolor="#ffffff"
     bordercolor="#666666"
     borderopacity="1"
     objecttolerance="10"
     gridtolerance="10"
     guidetolerance="10"
     inkscape:pageopacity="0"
     inkscape:pageshadow="2"
     inkscape:window-width="1039"
     inkscape:window-height="697"
     id="namedview8"
     showgrid="false"
     inkscape:zoom="18.094808"
     inkscape:cx="20.450424"
     inkscape:cy="11.253556"
     inkscape:window-x="154"
     inkscape:window-y="15"
     inkscape:window-maximized="0"
     inkscape:current-layer="Svg" />
  <metadata
     id="metadata936">
    <rdf:RDF>
      <cc:Work
         rdf:about="">
        <dc:format>image/svg+xml</dc:format>
        <dc:type
           rdf:resource="http://purl.org/dc/dcmitype/StillImage" />
        <dc:title />
      </cc:Work>
    </rdf:RDF>
  </metadata>
  <defs
     id="defs3" />
  <path
     style="opacity:1;fill:#999999;fill-opacity:1;stroke:none;stroke-width:1.49978518"
     d="m 10.605469,6 -0.490235,0.751733 0.673828,0.66582 0.800782,-0.335839 -0.07031,-0.884507 z m 18.11914,1.005564 -0.61914,0.01367 -0.431641,0.35927 0.242188,0.630674 0.373046,0.203066 0.40625,0.09763 L 29,7.706531 29.08008,7.263301 Z m -9.292968,0.708777 -0.464844,0.376843 0.06055,0.478375 0.310547,0.339745 0.595703,0.134725 0.308594,-0.503758 0.01172,-0.529142 L 19.888677,7.77487 19.433599,7.71434 Z M 1.0253906,7.868593 0.55859375,8.245435 0.62109375,8.721859 0.9296875,9.063556 1.5253906,9.198281 1.8359375,8.694523 1.8476565,8.165381 1.4824222,7.929122 Z M 10.060547,8.384067 9.6875,9.16704 10.324219,9.780143 11.146484,9.333008 11.005859,8.434834 Z m 19.181641,1.20082 -0.492188,0.0781 -0.378906,0.46666 0.277344,0.611149 0.49414,0.09567 0.507813,-0.220638 0.109375,-0.636533 z m -27.5097661,0.27531 -0.578125,0.747828 0.4296875,0.753685 0.8652344,-0.175729 0.1015624,-0.931368 z m 18.6855471,0.136679 -0.667969,0.041 -0.265625,0.429562 0.02734,0.552572 0.55664,0.328029 0.550782,-0.345601 0.09961,-0.488138 z m -10.9375002,0.462755 -0.5410157,0.162062 -0.1445312,0.548667 0.3984375,0.331934 0.1738281,0.370985 0.6699215,-0.01367 0.08789,-0.552573 -0.105469,-0.536951 z m 1.6484372,0.09177 -0.552734,0.236258 -0.03906,0.667774 0.392579,0.316313 0.552734,0.0371 0.392578,-0.511569 -0.275391,-0.587719 z m 7.675782,0.540857 -0.419922,0.415893 -0.138672,0.509617 0.298828,0.316313 0.429687,0.16792 0.542969,-0.253831 0.05469,-0.478376 -0.220704,-0.404179 z m -6.066407,0.2675 -0.611328,0.01172 -0.177734,0.564288 0.07813,0.351459 -0.439453,-0.08201 -0.498047,0.177682 L 11,12.806599 l 0.03711,0.162063 -0.708984,0.06443 -0.240234,0.720492 -0.05469,-0.01562 -0.3574218,0.320219 -0.1054687,0.451039 0.027344,0.07224 -0.3789062,0.0059 -0.1445312,0.445183 -0.1054688,0.01757 -0.017578,0.02343 -0.017578,-0.117153 0.1191406,-0.392463 -0.5117188,-0.433467 -0.085937,0.07029 -0.025391,-0.02538 -0.4667969,0.117153 -0.2988281,0.349507 -0.0625,0.609197 0.1464844,0.06834 -0.037109,0.02734 -0.00195,0.0371 -0.2382813,0.285073 -0.1015625,0.386605 -0.1738281,-0.07615 -0.4921875,0.454945 0.1679688,0.263594 -0.203125,0.583814 0.7421874,0.589671 0.7382813,-0.318267 0.2167969,-0.722444 -0.080078,-0.09567 0.013672,-0.02148 0.029297,0.04881 0.6445312,0.03319 0.171875,-0.292883 0.029297,0.002 0.00781,0.0039 0.070312,0.183541 0.1308594,0.07029 -0.4355469,0.679488 0.671875,0.665821 0.7988288,-0.337792 -0.0059,-0.05467 h 0.310547 l 0.375,-0.267501 0.205078,-0.574049 -0.46289,-0.367081 -0.523438,-0.07615 0.01953,-0.041 0.08008,-0.441277 -0.236328,-0.171824 -0.02734,-0.193303 0.230468,-0.304598 -0.08984,-0.232354 0.09375,-0.0059 0.441406,-0.29093 -0.0059,-0.210876 0.685546,-0.208923 0.158204,-0.78688 -0.0059,-0.0078 0.384766,-0.203066 0.208984,-0.411988 -0.05859,-0.423704 0.28125,0.09763 0.457032,-0.05077 0.361328,-0.476422 -0.173828,-0.449088 z m 17.306641,0.205018 -0.535156,0.292883 0.103515,0.581861 0.341797,0.402226 0.429688,-0.06443 0.382812,-0.257738 0.0059,-0.05272 V 11.84985 l -0.271485,-0.238211 -0.455078,-0.04686 z m -29.17382825,0.01953 -0.69335937,0.517426 0.27734374,0.839599 0.93749998,-0.01367 0.2910157,-0.859124 z M 28.4375,11.707312 l -0.414062,0.09372 -0.369141,0.197208 0.169922,0.656058 0.236328,0.380747 0.4375,-0.04296 0.451172,-0.417847 0.08594,-0.558429 z m -25.3496094,0.134727 -0.4160156,0.09567 -0.3691406,0.195254 0.171875,0.656058 0.234375,0.384653 0.4375,-0.04686 0.453125,-0.417846 0.085937,-0.554525 z m 6.0917969,0.392463 -0.2792969,0.333886 -0.1171875,0.447135 0.3222657,0.507663 0.4785156,-0.0059 0.375,-0.265547 0.2070316,-0.576004 -0.462891,-0.369033 z m 17.5273435,0.04686 -0.347656,0.57405 0.203125,0.460803 0.470703,0.292883 0.585938,-0.271406 0.03125,-0.652152 -0.345703,-0.357317 z M 1.7363281,12.81441 1.4589844,13.148296 1.359375,13.527092 1.2363281,13.468515 0.66015625,14.216343 0.6875,14.267109 0.33007812,14.272966 0,14.550229 v 1.921312 l 0.04101562,0.0039 0.08203126,0.171825 0.34570312,-0.0078 0.13476562,0.19135 0.0625,0.107391 0.0117188,-0.002 0.29882812,0.419799 0.19140626,-0.05272 0.4589843,0.39051 L 2.1347656,17.391194 2.390625,16.926486 2.1777344,16.549643 1.8007812,16.284096 h -0.00391 l -0.00781,-0.119106 -0.1855469,-0.06443 0.029297,-0.269452 -0.2617187,-0.124963 0.2636718,-0.400274 -0.3867187,-0.370984 0.5078125,-0.101534 -0.050781,0.314361 0.6796875,0.345602 -0.296875,0.622864 0.6367188,0.613102 0.8222656,-0.445182 -0.1230469,-0.781021 0.1777344,0.240164 0.099609,0.581861 0.033203,0.0371 -0.00781,0.002 -0.3007813,0.349507 -0.0625,0.607244 0.5390626,0.246021 0.5253906,-0.05272 0.1894531,-0.392463 0.00586,-0.460803 -0.0625,-0.05858 0.1992187,-0.132773 0.2324219,0.39832 0.7441406,0.128869 L 6.3339844,16.364151 6.046875,15.69052 6.3046875,15.65147 6.6875,15.393732 6.7832031,14.804061 6.4238281,14.487748 5.9648438,14.438934 5.4296875,14.733769 5.53125,15.31563 5.6855469,15.497218 5.0839844,15.366396 v 0.002 L 4.859375,15.733477 4.59375,15.497218 4.4589844,15.48355 l 0.048828,-0.01562 0.15625,-0.788832 -0.091797,-0.1152 0.5585938,-0.591623 -0.3417969,-0.802499 -0.9082031,-0.195256 -0.4960938,0.808357 0.2109375,0.361222 -0.2695312,0.02343 -0.2109375,0.640439 -0.4121094,-0.667774 -0.6914062,0.109343 0.015625,-0.152299 h 0.1152343 l 0.375,-0.265547 0.2050781,-0.576004 -0.4648437,-0.367079 z m 18.2988279,0.05467 -0.542968,0.09372 -0.140626,0.322172 -0.527343,0.10739 -0.464844,0.290931 -0.0918,0.556477 -0.216797,0.04686 -0.05469,0.449088 -0.05469,0.02734 v -0.0039 l -0.320312,-0.316313 -0.414063,0.150347 -0.341797,0.513521 0.04297,0.464707 -0.208984,0.119106 0.002,0.0078 -0.611328,-0.279214 -0.638672,0.484233 -0.03516,0.704871 -0.300782,-0.363174 -0.496093,0.144488 0.207031,-0.205018 -0.226563,-0.771259 -0.693359,-0.302645 -0.140625,0.09177 -0.08398,-0.667773 -0.3125,-0.287025 -0.373047,-0.193304 -0.207032,0.242118 -0.02148,-0.134727 0.119141,-0.396368 -0.513672,-0.431514 -0.431641,0.355364 -0.27539,0.472518 0.195312,0.587719 0.511719,0.238211 0.0039,-0.002 0.28125,0.328029 0.599609,0.136679 0.490235,-0.238213 -0.572266,0.370986 0.02734,0.156204 -0.582031,-0.17573 -0.455078,0.466661 0.01953,0.495948 0.417969,0.433466 0.638672,-0.19916 0.09766,-0.30655 0.8125,0.396367 -0.179688,0.515474 0.744141,0.589672 0.736328,-0.318266 0.216797,-0.724398 -0.140625,-0.167919 0.484375,0.357317 -0.02344,0.06639 0.117188,0.515474 0.410156,0.140584 0.460938,-0.04686 0.353515,-0.472519 0.345703,-0.01367 0.208985,-0.32217 0.412109,0.421751 0.638672,-0.201113 0.01563,-0.04491 0.05273,0.06248 0.429688,-0.06443 0.201172,-0.134727 0.164062,0.0059 0.0059,-0.002 -0.08008,0.296788 0.298829,0.316313 0.15039,0.05858 -0.183593,0.415893 0.002,-0.162061 -0.466797,-0.226497 -0.25586,-0.32217 -0.644531,0.175729 0.04687,0.55843 0.230469,0.493996 0.597656,0.173777 0.484375,-0.287025 0.0039,-0.238211 0.361328,0.45104 0.496094,0.03905 0.478516,-0.35927 -0.119141,-0.659962 -0.322265,-0.146441 0.113281,-0.05272 0.05469,-0.476422 -0.214843,-0.394417 0.328125,-0.509616 -0.578125,-0.747827 -0.01758,0.0039 0.335938,-0.164014 -0.06445,-0.515474 0.365234,0.01562 0.521485,-0.169872 0.24414,-0.572099 -0.226562,-0.515474 -0.5625,-0.08005 -0.28125,0.437372 -0.34961,0.214781 0.04687,0.312408 -0.0918,-0.08396 -0.371093,-0.193303 0.478515,-0.359269 -0.123046,-0.659963 -0.455079,-0.210876 z m 9.25,0.257737 -0.255859,0.396368 -0.513672,-0.230401 -0.431641,0.255785 -0.128906,0.275309 -0.267578,0.242117 -0.0059,0.041 -0.667969,0.187445 -0.0078,0.136678 -0.138671,0.02929 -0.136719,0.08591 -0.167969,-0.05662 -0.53125,0.704871 0.130859,0.189398 h -0.05664 l -0.433594,0.361223 0.125,0.328028 -0.402344,0.14449 -0.234375,0.550619 0.275391,0.394416 0.431641,0.158157 0.591796,-0.158157 0.01758,-0.259689 0.644532,-0.130822 0.04492,-0.421751 0.02539,-0.02343 0.269532,0.117152 0.457031,-0.195254 0.257812,-0.54281 -0.136719,-0.173778 0.314454,-0.101533 0.11914,-0.425656 0.373047,-0.247974 -0.0059,-0.206971 h 0.0039 l 0.08398,-0.101533 0.05664,0.002 -0.05469,0.08787 0.265624,0.454944 -0.03711,-0.0371 -0.466797,0.117153 -0.300781,0.349508 -0.0625,0.607244 0.226563,0.103484 -0.220704,0.179636 0.06055,0.476422 0.271485,0.296788 -0.167969,0.140584 0.242187,0.628723 0.376954,0.205018 0.40625,0.09567 0.304687,-0.60334 0.08008,-0.441276 -0.357422,-0.255784 0.06055,-0.09372 0.0078,-0.529142 -0.175782,-0.113248 0.140625,-0.288978 0.0059,-0.460802 -0.121094,-0.113249 0.609375,0.105438 0.595703,-0.632627 -0.339844,-0.802499 -0.314453,-0.06834 0.05859,-0.138632 -0.226563,-0.517426 -0.5625,-0.07615 z m -4,0.572098 -0.677734,0.636532 0.324219,0.724398 -0.166016,-0.02148 -0.462891,0.376843 0.05859,0.480328 0.03516,0.03905 -0.367187,-0.1523 -0.103516,-0.65801 -0.943359,-0.05272 -0.375,0.781022 0.638672,0.613102 0.111328,-0.06053 0.130859,0.878648 0.931641,0.17573 0.505859,-0.624817 -0.109375,-0.56624 0.453125,0.09958 0.308594,-0.503759 0.0098,-0.527189 -0.158203,-0.103485 0.359374,0.02733 0.529297,-0.538904 -0.18164,-0.851313 z m -5.722656,0.265548 0.07617,0.09567 0.496094,0.03905 -0.439454,0.515474 -0.183593,0.410036 0.285156,0.33584 0.460937,0.103486 -0.460937,0.07615 -0.259766,0.43542 -0.269531,-0.02929 0.111328,-0.263594 -0.236328,-0.203066 -0.04883,-0.316313 0.253906,-0.326077 -0.138672,-0.273357 0.125,-0.36708 z M 32,14.550229 l -0.40625,0.124964 -0.369141,0.19916 0.13086,0.493996 -0.167969,0.216733 -0.363281,-0.308503 -0.314453,0.08982 -0.189454,0.05858 -0.623046,0.427609 0.03711,0.8025 0.599609,0.458849 0.583985,-0.372938 0.58789,0.09763 L 32,16.717563 Z m -20.328125,0.251879 -0.861328,0.396368 0.03125,0.864982 0.849609,0.246022 0.521485,-0.775164 z m -8.5800781,0.246022 0.2441406,0.331934 -0.5625,-0.02929 z m 18.7910151,0.71854 -0.642578,0.39832 -0.02539,0.868887 0.787109,0.37489 0.808594,-0.456897 -0.164063,-0.935273 z m -8.302734,1.204725 -0.675781,0.0039 -0.322266,0.27531 -0.234375,0.345602 0.306641,0.33584 -0.292969,-0.150347 -0.390625,0.454944 -0.0293,-0.201113 -0.410156,-0.386606 -0.595703,0.314362 -0.15625,0.396368 -0.02149,0.187445 -0.416015,-0.0781 -0.4960939,0.177682 -0.091797,0.42761 0.1035157,0.447134 0.5195312,0.300693 0.423828,-0.226496 0.208985,-0.410036 -0.04687,-0.328029 0.40625,0.146441 0.447265,0.02734 0.07813,-0.142536 0.128907,0.152299 0.601562,0.134726 0.505859,-0.247974 -0.08398,-0.667774 -0.05469,-0.04881 0.197265,0.117153 0.365235,-0.244069 0.208984,-0.579908 z m 13.701172,0 -0.298828,0.322172 -0.06055,0.613101 0.304687,0.47447 0.654297,-0.164014 0.246094,-0.345602 0.148438,-0.392464 -0.566407,-0.37489 z m -25.0136719,0.47447 -0.28125,0.435419 -0.3496093,0.216734 0.097656,0.663868 0.5566406,0.02148 L 2.8125,18.611539 3.0566406,18.037489 2.8300781,17.522015 Z m 15.4062499,0.128869 -0.171875,0.37489 -0.398437,0.328029 0.144531,0.55062 0.539062,0.162061 0.539063,-0.312408 0.105469,-0.534999 -0.08789,-0.552572 z m -16.5585936,0.312409 -0.66796878,0.04296 -0.265625,0.42761 0.0273438,0.55062 0.5546875,0.329981 0.55468748,-0.343649 0.097656,-0.488138 z m 8.2050781,0.09372 -0.671875,0.002 -0.3242187,0.275309 -0.2363282,0.347555 0.4570313,0.499854 0.3867187,0.2304 0.3671875,-0.242116 0.2070313,-0.579908 z m -5.2304687,0.02148 -0.4921876,0.0781 -0.3789062,0.46666 0.2773438,0.611149 0.4941406,0.09567 0.5078125,-0.220638 0.109375,-0.638485 z m 24.7187502,0.04491 -0.615235,0.01367 -0.433593,0.35927 L 28,19.048911 l 0.376953,0.205018 0.40625,0.09763 0.304688,-0.605291 0.08008,-0.441278 z m 0.904297,0.439324 -0.535157,0.193302 -0.04492,0.513522 -0.208984,0.353412 0.392578,0.544763 0.50586,-0.240165 0.382812,-0.394415 -0.05078,-0.618959 z m -3.253907,0.04491 -0.505859,0.402226 0.126953,0.638484 0.421875,0.265548 0.591797,-0.09568 0.197266,-0.64239 -0.308594,-0.400272 z m -24.3085934,0.353411 -0.3847656,0.419799 0.2011719,0.478376 -0.019531,0.408084 0.546875,0.273358 -0.015625,0.249926 0.3925782,0.314361 0.5527343,0.03905 L 3.8164065,20.556284 3.5410159,19.96466 3.0703128,19.806503 2.9355472,19.865083 3.0371097,19.519481 2.7050784,18.992292 Z m 18.9062504,0.02538 -0.220703,0.513521 -0.02344,0.546715 0.451172,0.433467 0.5625,-0.03124 0.271484,-0.499854 -0.30664,-0.413942 -0.08008,-0.404178 z m -1.072266,0.242117 -0.626953,0.249927 -0.355469,0.277262 0.08594,0.378796 -0.01563,-0.02343 h -0.002 l -0.626953,0.25188 -0.353515,0.27531 0.0957,0.431515 0.470703,0.396367 0.5625,0.01757 0.236328,-0.628721 -0.144531,-0.400274 -0.152344,-0.218686 0.412109,0.349506 0.5625,0.01562 0.236329,-0.630675 -0.144532,-0.400273 z m -8.333984,0.08396 -0.800782,0.380748 0.125,0.927463 0.888672,0.185493 0.384766,-0.864982 z M 1.1914062,20.583617 0.390625,20.964365 0.51757812,21.891827 1.4042969,22.07732 1.7890625,21.21234 Z m 19.4921878,0.07224 -0.853516,0.134725 -0.144531,0.874744 0.835937,0.423705 0.658204,-0.62677 z m 7.533203,0.46666 -0.8125,0.486185 0.03711,0.800547 0.59961,0.460803 0.822265,-0.285074 0.06836,-0.866933 z m -18.011719,0.554524 v 0.002 l -0.6132811,0.0078 -0.1777344,0.564287 0.1152344,0.515474 0.4121093,0.142536 0.4570318,-0.05077 0.361328,-0.478376 -0.171875,-0.449086 z m 9.882813,1.64405 -0.464844,0.119106 -0.300781,0.349507 -0.0625,0.607244 0.539062,0.246022 0.525391,-0.05467 0.189453,-0.388559 0.0039,-0.460803 z M 2.0898438,23.453871 1.5410156,23.567119 1.078125,23.856097 0.97851562,24.471151 1.3222656,24.918286 1.8867188,24.857757 2.0546875,24.367666 2.34375,24.076735 Z m 8.9863282,0.587719 -0.5625,0.269452 -0.171875,0.534999 0.369141,0.431515 0.498046,-0.140584 0.404297,0.07029 0.369141,-0.560383 -0.404297,-0.386604 z m 17.060547,0.724397 -0.5625,0.265547 -0.173828,0.538904 L 27.771484,26 l 0.5,-0.140584 0.404297,0.07029 0.09375,-0.142538 v -0.68144 l -0.128906,-0.124963 z"
     id="path4280"
     inkscape:connector-curvature="0" />
  <rect
     style="fill:none;fill-opacity:1;stroke:none"
     id="rect8566"
     y="10.738715"
     x="-0.068726577"
     rx="0"
     height="24"
     width="24" />
  <desc
     id="desc932">Created with Snap</desc>
</svg>
