<?xml version="1.0" encoding="UTF-8" standalone="no"?>
<svg
   xmlns:dc="http://purl.org/dc/elements/1.1/"
   xmlns:cc="http://creativecommons.org/ns#"
   xmlns:rdf="http://www.w3.org/1999/02/22-rdf-syntax-ns#"
   xmlns:svg="http://www.w3.org/2000/svg"
   xmlns="http://www.w3.org/2000/svg"
   xmlns:sodipodi="http://sodipodi.sourceforge.net/DTD/sodipodi-0.dtd"
   xmlns:inkscape="http://www.inkscape.org/namespaces/inkscape"
   version="1.1"
   height="29.920055"
   width="48"
   id="Svg"
   sodipodi:docname="arete3.svg"
   inkscape:version="0.92.2 5c3e80d, 2017-08-06">
  <sodipodi:namedview
     pagecolor="#ffffff"
     bordercolor="#666666"
     borderopacity="1"
     objecttolerance="10"
     gridtolerance="10"
     guidetolerance="10"
     inkscape:pageopacity="0"
     inkscape:pageshadow="2"
     inkscape:window-width="1039"
     inkscape:window-height="697"
     id="namedview8"
     showgrid="false"
     inkscape:zoom="9.2831079"
     inkscape:cx="15.824714"
     inkscape:cy="12.787414"
     inkscape:window-x="154"
     inkscape:window-y="15"
     inkscape:window-maximized="0"
     inkscape:current-layer="Svg" />
  <metadata
     id="metadata936">
    <rdf:RDF>
      <cc:Work
         rdf:about="">
        <dc:format>image/svg+xml</dc:format>
        <dc:type
           rdf:resource="http://purl.org/dc/dcmitype/StillImage" />
        <dc:title></dc:title>
      </cc:Work>
    </rdf:RDF>
  </metadata>
  <defs
     id="defs3" />
  <path
     style="opacity:0.8;fill:#999999;fill-opacity:1;stroke:none;stroke-width:2.08559561"
     d="m 28.074899,19.103465 0.87306,0.210229 0.105522,0.586186 0.410236,0.602134 -0.363291,0.723154 -0.750084,0.04495 -0.600559,-0.627596 0.03264,-0.793308 c 0.101673,-0.259653 0.205632,-0.523206 0.292985,-0.745464 z M 14.139917,0 l 1.218738,0.2868088 0.0939,1.2806913 -1.066451,0.4874292 -0.899461,-0.9652971 C 13.709755,0.7110974 13.939242,0.3405685 14.139917,0 Z m 24.158306,1.8386637 0.474636,0.3727386 -0.10553,0.643532 L 38.260152,3.7310301 37.71806,3.5876642 37.220093,3.2945726 36.897742,2.3802468 37.474973,1.857775 Z M 7.9523483,12.619283 l 0.6122986,0.0701 0.4804735,0.458756 -0.1288994,0.856986 -0.5097727,0.372742 -0.5742067,0.09559 -0.4570387,-0.582991 -0.134756,-0.844262 z m 6.8851267,-5.638937 0.629949,0.2293765 0.366223,0.8537977 -0.524481,0.7422913 -0.73534,-0.054171 -0.524381,-0.4587551 0.05278,-0.9684842 C 14.347267,7.2097298 14.592504,7.0949784 14.83748,6.9803389 Z M 1.8999237,2.5564509 2.509304,2.6456529 2.9956339,2.986532 2.9809709,3.7543117 2.5679022,4.4870488 1.7739502,4.2895286 1.3608628,3.7957284 1.2788322,3.1044109 Z M 5.589851,12.111947 6.2197414,12.968932 6.011726,14.11263 4.8017726,14.510855 4.0693456,13.427692 4.4355522,12.226647 Z M 38.98865,5.5794659 39.68014,6.1529086 39.533669,7.0736062 38.856907,7.3953731 38.197752,7.2551905 37.828492,6.3695369 38.332426,5.6941469 Z M 5.1754179,10.495279 6.3853877,10.778815 6.8424108,11.941633 6.045543,12.859148 5.0523789,12.671201 4.5133071,11.667668 Z M 26.062255,2.4859886 26.671557,2.5752116 26.519214,2.9560683 27.143316,3.6838695 26.730573,4.4134132 25.936537,4.2190812 25.523442,3.725283 25.441572,3.0339623 c 0.216333,-0.190909 0.435665,-0.3847667 0.620683,-0.5479737 z m -12.342188,0.6674368 1.259739,0.073276 0.187547,1.302993 -1.095742,0.6467195 -0.849601,-0.8888378 c 0.166033,-0.3780445 0.332048,-0.75611 0.498057,-1.1341507 z m 25.962673,4.7043017 0.6093,0.070068 0.36329,0.3440655 v 0.8952156 l -0.0079,0.076431 -0.51074,0.3727459 -0.574263,0.09553 -0.454377,-0.5829815 -0.137811,-0.84424 c 0.237746,-0.1422863 0.47616,-0.2846662 0.714266,-0.4268856 z m -23.184234,3.1585919 0.6826,0.627601 -0.158252,0.573437 0.105496,0.742291 -0.629839,0.455575 -0.682616,-0.344067 -0.260831,-0.853799 0.36622,-0.68494 z m 8.574801,-3.2502419 0.729536,0.3950394 0.292906,0.586189 -0.07289,0.6945037 L 25.29908,9.811363 24.72783,9.5660563 24.329404,9.1073012 24.513854,8.3681949 c 0.186554,-0.2007284 0.373018,-0.401424 0.559564,-0.6021178 z m 10.536865,1.7249918 0.796854,0.066889 0.459925,0.5192871 -0.04136,0.94618 -0.782225,0.391867 -0.626944,-0.423728 -0.269562,-0.66901 c 0.154449,-0.277163 0.308732,-0.5543378 0.463077,-0.8314954 z M 3.6037947,12.18649 4.2659054,13.355681 3.3870066,14.263636 2.2737155,13.648778 2.4612151,12.384006 Z m 13.7256253,-0.123631 0.495059,0.280352 0.418959,0.414146 0.111137,0.971669 -0.676746,0.356811 -0.799767,-0.197574 -0.380911,-0.48425 0.243197,-0.595746 c 0.196287,-0.248468 0.392599,-0.496999 0.588872,-0.74546 z m 21.903,-0.468691 1.212895,0.283543 0.454099,1.162807 -0.79394,0.917518 -0.814474,-0.152879 0.161218,0.165692 -0.0057,0.669018 -0.254891,0.567062 -0.700192,0.07664 -0.717814,-0.356795 0.08181,-0.879285 0.401367,-0.506538 0.621092,-0.172067 0.04933,0.05408 -0.351854,-0.659492 C 38.794764,12.373733 39.01455,11.98398 39.234238,11.59428 Z M 27.223195,6.1768686 27.624527,6.9287189 27.49268,7.6359661 26.757459,8.1361479 26.016146,7.6614683 25.978006,6.8586488 26.332558,6.2374152 Z M 1.9585203,5.6839 3.0512941,6.2541578 2.9165375,7.604939 1.7622371,7.8598022 1.1880167,6.7670729 Z M 12.640877,6.847232 13.358664,7.2996141 13.499305,8.0769517 13.382079,8.8797732 12.488503,8.898897 12.257077,8.360416 11.726815,7.8793579 11.920162,7.0829078 c 0.240189,-0.07862 0.480652,-0.1571748 0.720716,-0.2356777 z m 15.604255,4.283513 0.750069,0.114694 0.301668,0.748653 -0.325122,0.828323 -0.694398,0.248488 -0.489213,-0.02226 0.08748,0.745483 -0.676703,0.356818 -0.802764,-0.194219 -0.38084,-0.48743 0.246072,-0.595747 0.58592,-0.745478 0.495169,0.280348 0.12354,0.120963 -0.06185,-0.452392 0.465892,-0.312208 c 0.124888,-0.211345 0.250028,-0.422678 0.374955,-0.634003 z m -11.261743,-2.9754664 0.512679,0.372739 0.23144,0.6499033 -0.483403,0.6913181 -0.609299,0.073232 -0.374979,-0.1402061 0.07855,0.6148561 -0.278324,0.59574 -0.512687,0.296277 0.0066,0.01126 -0.210937,1.140528 -0.914063,0.302655 0.0066,0.305832 -0.588932,0.42371 -0.125757,0.0059 0.120083,0.337696 -0.307612,0.442825 0.03814,0.280351 0.313487,0.248499 -0.105514,0.64035 -0.02646,0.06074 0.697276,0.108446 0.618163,0.532035 -0.272464,0.834656 -0.500976,0.385493 -0.413091,0.002 0.0041,0.0793 -1.063406,0.487879 -0.896267,-0.965254 0.580076,-0.984399 -0.17285,-0.101826 -0.09367,-0.267633 -0.01087,-0.0052 -0.03814,-0.0026 -0.228553,0.423698 -0.861327,-0.04767 -0.03808,-0.06986 -0.01757,0.03181 0.105508,0.137186 -0.289352,1.048261 -0.9843364,0.461897 -0.9871211,-0.853895 0.2695313,-0.847399 -0.2226608,-0.382304 0.6562503,-0.659459 0.2314489,0.108423 0.1347863,-0.560577 0.3164035,-0.410962 0.0033,-0.05409 0.04993,-0.04145 -0.196279,-0.09875 0.08489,-0.882457 0.398437,-0.506554 0.621098,-0.172063 0.0352,0.03811 0.114246,-0.101964 0.68261,0.627603 -0.158208,0.570265 0.02353,0.168805 0.02352,-0.03185 0.140632,-0.02552 0.190438,-0.646859 0.506828,-0.0087 -0.03811,-0.105173 0.140602,-0.652981 0.477577,-0.465153 0.07316,0.02216 0.3193,-1.045178 0.946251,-0.09243 -0.04931,-0.235654 0.120099,-0.6148608 0.66506,-0.2580528 0.585971,0.1210625 -0.105764,-0.5097476 0.237363,-0.8187535 0.814436,-0.015932 z M 1.161624,8.4791582 2.245615,9.1832184 1.855964,10.428864 0.60791198,10.448014 0.23584181,9.2310283 Z m 36.756001,0.1779494 0.796867,0.4491967 -0.114404,0.8091944 -0.603473,0.6052973 -0.583066,0.06369 L 37.100125,10.03018 36.871623,9.0808097 37.363749,8.794087 37.917525,8.657121 Z M 3.8738312,8.3950758 4.6707119,8.8474598 4.5564585,9.6534692 3.9529314,10.258771 3.3699232,10.325675 3.0564578,9.7681582 2.8279391,8.8187859 3.3201274,8.5352503 Z M 2.3144553,10.264207 3.0117154,10.37253 3.6298882,10.904567 3.3574176,11.739238 2.8564413,12.124723 H 2.7041111 l -0.096654,1.006711 -0.9433597,0.20716 0.5156241,0.538406 -0.3515613,0.579828 0.3486321,0.181669 -0.038055,0.391838 0.2460937,0.09251 0.011077,0.172102 h 0.00551 l 0.5012936,0.385494 0.2841746,0.547937 -0.3398348,0.672214 -0.6767653,0.439622 -0.6122965,-0.567067 -0.2548844,0.07666 -0.39843627,-0.608505 -0.0175837,0.0024 -0.0820153,-0.15621 L 0.62352299,15.810495 0.16356074,15.821711 0.05565961,15.571857 0,15.568669 v -2.787595 l 0.4394541,-0.401401 0.47753829,-0.0084 -0.038082,-0.07332 0.77050481,-1.086486 0.1640632,0.08596 0.1318353,-0.548222 0.3691484,-0.484308 z m 24.3984767,0.07972 0.609305,0.305823 0.164042,0.955748 -0.638587,0.52247 -0.662205,-0.0574 -0.101973,-0.140294 -0.304679,0.337698 -0.167053,0.532044 0.184467,0.398226 -0.336903,0.471488 0.06399,0.458757 0.316412,0.296265 -0.149279,0.382318 0.36027,0.04145 0.345793,-0.630766 1.054651,-0.191208 0.770493,1.08637 -0.436475,0.739112 0.284171,0.570234 -0.0729,0.691313 -0.149261,0.07685 0.427749,0.21347 0.161237,0.955739 -0.638689,0.522452 -0.662087,-0.05753 -0.544965,-0.735914 0.310517,-0.761388 -0.199226,-0.08602 -0.398421,-0.458761 0.105549,-0.430091 -0.0057,0.0023 -0.21973,-0.008 -0.266608,0.194314 -0.574205,0.09535 -0.07078,-0.09263 -0.02013,0.06702 -0.852541,0.289864 -0.547943,-0.61169 -0.278314,0.468304 -0.462892,0.01877 -0.471663,0.684935 -0.612297,0.06964 -0.547907,-0.203886 -0.155185,-0.748628 0.02905,-0.09534 -0.644668,-0.519214 0.187507,0.245314 -0.290092,1.048187 -0.981485,0.461947 -0.990438,-0.853987 0.237321,-0.748657 -1.08103,-0.573415 -0.131468,0.442823 -0.852501,0.28991 -0.556627,-0.627593 -0.02632,-0.72 0.606434,-0.678573 0.776376,0.254868 -0.03478,-0.226194 0.97266,-0.684942 0.925781,0.439625 0.301765,1.118211 -0.275397,0.296277 0.659186,-0.207164 0.401365,0.52565 0.04726,-1.022627 0.85253,-0.700886 0.814455,0.404602 -0.0015,-0.0116 0.278312,-0.172092 -0.05619,-0.675392 0.454103,-0.745468 0.553719,-0.21664 0.424798,0.458759 0.0015,0.0059 0.07289,-0.04141 0.07077,-0.649907 0.290034,-0.06699 0.12358,-0.8092 0.618191,-0.420707 0.70312,-0.156098 0.187526,-0.468303 0.726569,-0.133771 z m 12.339848,0.372731 0.749928,0.111481 0.301794,0.748673 -0.325131,0.831492 -0.694396,0.245302 -0.515585,-0.01861 -0.110991,0.146517 h -0.0029 l 0.0045,0.299462 -0.498076,0.359999 -0.158218,0.618042 -0.418929,0.146517 0.181682,0.251673 -0.342788,0.786891 -0.609325,0.283527 -0.360381,-0.168687 -0.03259,0.0318 -0.06181,0.611684 -0.85836,0.191185 -0.02371,0.375917 -0.788003,0.229376 -0.577074,-0.229411 -0.366159,-0.570237 0.313472,-0.799646 0.536143,-0.210218 -0.166968,-0.474701 0.577176,-0.525646 h 0.07649 l -0.175816,-0.273995 0.708974,-1.022634 0.22559,0.08292 0.181688,-0.124345 0.184526,-0.04141 0.0077,-0.200632 0.890633,-0.270795 0.0077,-0.06065 0.357417,-0.350433 0.169824,-0.398232 0.57714,-0.372737 0.685556,0.334503 0.339844,-0.573448 z m -5.343795,0.8283 1.139617,0.251676 0.243226,1.232901 -0.706068,0.783716 -0.480471,-0.04144 0.210881,0.149765 -0.01001,0.764607 -0.412985,0.732746 -0.603517,-0.146459 0.146694,0.82195 -0.673893,0.904775 -1.242219,-0.254879 -0.175816,-1.274308 -0.149238,0.08916 -0.849656,-0.888853 0.498038,-1.134124 1.259779,0.07656 0.137925,0.955731 0.48927,0.219809 -0.04718,-0.0574 -0.0788,-0.694489 0.618173,-0.547961 0.219713,0.03189 -0.430877,-1.051297 0.902332,-0.923878 z m 13.22167,0.978037 0.571271,0.19122 0.392585,0.28352 -0.03248,-0.09247 L 48,12.780957 v 2.78759 l -0.243213,-0.0085 0.0052,0.684945 -0.539067,0.14992 -0.383789,-0.0047 -0.0262,0.146442 -0.676755,0.458755 0.06395,0.232571 -0.208003,0.694471 -0.852524,0.289934 -0.553733,-0.624433 -0.02907,-0.719976 0.606445,-0.678567 0.155165,0.05116 -0.02015,-0.481067 0.351557,-0.624411 0.04724,-0.0026 -0.377896,-0.974922 0.922889,-0.914326 0.249002,0.15614 0.03827,-0.404621 0.398457,-0.468554 z m -31.368128,0.624381 0.720649,1.060862 -0.694273,1.124596 -1.133795,-0.35683 -0.04116,-1.255187 z m -12.281283,0.770957 1.2597787,0.07325 0.187502,1.303012 -1.0957035,0.646712 -0.8496207,-0.888848 0.4980478,-1.134142 z m 37.397453,0.04768 0.952187,0.863365 -0.04717,0.640326 0.222665,-0.315375 -0.172834,-0.716816 0.492137,-0.286722 0.553771,-0.136843 0.796846,0.449196 -0.0029,0.03185 0.49514,-0.16233 0.720673,0.452373 0.140411,0.777349 -0.116626,0.799634 -0.893661,0.02215 -0.231796,-0.541573 -0.416006,-0.375972 -0.254884,0.258087 -0.132005,1.331656 -1.157234,0.258023 -0.553746,-1.051293 -0.626993,0.235778 -0.799779,-0.665858 -0.04939,-1.162825 1.083995,-0.704034 z m -33.8994029,0 1.2099685,0.283561 0.457024,1.162823 -0.7968673,0.917509 -0.9931654,-0.187935 -0.3105521,-0.576637 -0.2636687,0.191229 0.082049,0.08591 -0.00906,0.669016 -0.2519612,0.567128 -0.7001961,0.07675 -0.7177686,-0.35678 0.082054,-0.879296 0.4013684,-0.506514 0.011153,-0.0025 -0.043853,-0.05407 -0.1346847,-0.844434 0.7119101,-0.426905 0.6123063,0.07004 0.3544928,0.340881 0.2988136,-0.528857 z m 22.3974939,0.579817 1.019525,0.36319 0.216849,1.353975 -1.078126,0.662683 -1.048947,-0.541617 0.03477,-1.261584 0.855507,-0.576647 z m 9.219757,0.245311 0.609308,0.08915 0.486311,0.340877 -0.01001,0.767772 -0.07877,0.136742 0.474608,0.369553 -0.105508,0.64033 -0.407086,0.876123 -0.542087,-0.140385 -0.501388,-0.296288 -0.322381,-0.911119 0.222649,-0.203867 -0.360263,-0.430082 -0.08184,-0.691321 0.621088,-0.548027 z m 1.219404,3.69865 0.588883,0.509723 0.06729,0.898377 -0.509765,0.570284 -0.673736,0.35042 -0.524468,-0.79008 0.278354,-0.512891 0.06187,-0.745495 c 0.237345,-0.09357 0.474593,-0.187019 0.711932,-0.280338 z m -21.509788,-2.199038 0.24614,0.774183 -0.278353,0.84105 -0.489205,0.353622 -0.51269,-0.334489 -0.609446,-0.726354 0.313473,-0.500186 0.430645,-0.401413 c 0.299835,-0.0016 0.59981,-0.0033 0.899436,-0.0047 z m 18.26918,0.0016 0.571249,0.191259 0.752995,0.54475 -0.196314,0.57028 -0.32819,0.500132 -0.873052,0.238973 -0.407171,-0.688147 0.08181,-0.888833 z m -33.3519078,0.687603 0.7500008,0.11127 0.3017636,0.748659 -0.3251978,0.83148 -0.694333,0.24851 -0.7441401,-0.0318 -0.1289288,-0.962132 0.465823,-0.315377 z m 20.6918898,2.240187 0.72063,-0.452379 0.14047,-0.777346 -0.116584,-0.799636 -0.893534,-0.02209 -0.231424,0.541558 -0.530316,0.477881 0.193361,0.796465 c 0.23918,0.07844 0.478601,0.157025 0.717705,0.235709 z m -8.258783,1.49216 0.796865,0.911126 -0.512684,1.255252 -1.183617,-0.270835 -0.167008,-1.344404 c 0.355507,-0.183649 0.710921,-0.36742 1.066444,-0.551139 z m 1.025684,-3.24442 0.49506,0.277166 0.418965,0.417321 0.111024,0.968517 -0.673874,0.359973 -0.802706,-0.197529 -0.380897,-0.487416 0.243223,-0.592569 z m 19.25224,1.885943 0.700106,0.245285 0.410225,0.579823 -0.263762,0.930271 -0.787985,0.140386 -0.562511,-0.385476 -0.169842,-0.927092 c -0.140748,0.12184 0.178794,-0.15476 0.673769,-0.583197 z m -32.8664132,-0.286534 0.7382845,0.156205 0.4423793,0.764607 -0.1347908,0.500158 0.1787121,-0.08311 0.6298856,0.229355 0.3662127,0.856946 -0.5244075,0.742281 -0.7353528,-0.05744 -0.5244144,-0.455569 0.020548,-0.363177 -0.7295041,-0.395081 0.026379,-0.592527 -0.2666106,-0.694525 c 0.1708353,-0.202791 0.341946,-0.405722 0.5126901,-0.608367 z m 10.8948632,-0.144359 0.77633,0.159262 0.114441,0.87931 -0.278291,0.595662 -0.56542,0.328146 -0.694388,-0.436481 -0.137701,-0.649912 0.123106,-0.618055 c 0.220469,-0.08593 0.442115,-0.172279 0.661923,-0.257932 z m 11.665561,1.813551 0.319296,0.497015 0.193348,0.579786 -0.316374,0.914314 -0.750078,-0.02582 -0.62694,-0.576624 -0.129151,-0.624418 0.471726,-0.401405 c 0.279301,-0.120876 0.558625,-0.24213 0.837876,-0.363181 z m 12.983708,-2.88357 0.47756,0.372735 -0.105523,0.640348 -0.407259,0.879307 -0.541974,-0.142882 -0.501034,-0.2963 -0.322204,-0.911115 0.580007,-0.522467 c 0.273474,-0.0036 0.547024,-0.009 0.820313,-0.01899 z m -35.6250141,8.22302 0.3369128,0.901613 -0.3837802,0.423679 -0.2255906,0.710436 -0.7529287,0.0859 L 1.304748,27.55084 1.4365946,26.658813 2.0547644,26.238304 C 2.3058789,26.182184 2.5638167,26.125213 2.787169,26.07593 Z m 34.8356861,-3.762491 0.952,0.863335 -0.09103,1.258404 -1.095735,0.410916 -0.799779,-0.66579 -0.0493,-1.162815 c 0.361268,-0.23473 0.722653,-0.469376 1.084006,-0.704045 z M 12.239002,9.4233746 l 0.697261,0.1051312 0.618146,0.5352162 -0.275373,0.834682 -0.50098,0.385491 -0.638659,0.0061 -0.427734,-0.735986 0.155267,-0.6467102 c 0.123955,-0.1612682 0.248175,-0.3228454 0.372072,-0.4840585 z m 14.407785,10.0311974 0.319298,0.496964 0.193322,0.579834 -0.316374,0.914335 -0.750064,-0.02209 -0.626942,-0.579829 -0.129131,-0.624385 0.471716,-0.401419 c 0.279317,-0.120943 0.558647,-0.24212 0.837953,-0.363184 z m 10.869075,8.675403 0.670952,0.312216 0.17283,0.181625 v 0.987614 l -0.12562,0.207131 -0.539072,-0.102414 -0.665019,0.203909 -0.495141,-0.624388 0.231458,-0.780593 c 0.24998,-0.128846 0.5,-0.256927 0.749979,-0.385388 z M 1.5883585,21.531796 2.3852263,22.44292 1.8725326,23.698147 0.68893974,23.427339 0.52194767,22.08295 Z m 13.7869445,-4.256113 0.547795,0.560707 0.114548,0.885636 -0.281241,0.55751 -0.597674,-0.03784 -0.849601,-0.33132 0.06434,-0.605288 0.207986,-0.573465 c 0.264603,-0.151727 0.529336,-0.303745 0.793924,-0.455589 z m 12.088944,5.655797 0.509851,0.559824 -0.878895,0.90795 -1.113379,-0.614856 0.190497,-1.267953 c 0.390837,-0.06686 0.792061,-0.135289 1.139641,-0.194346 z m 18.816954,-4.795916 1.210003,0.280345 0.456996,1.162828 -0.796836,0.917506 -0.993145,-0.184704 -0.539055,-1.006691 c 0.230543,-0.407255 0.464697,-0.820676 0.662037,-1.169185 z M 5.4523158,17.787452 6.1437164,18.3577 5.9972306,19.28157 5.3204736,19.603369 4.6612921,19.46313 4.2921582,18.577495 4.7960639,17.902114 C 5.0211316,17.862466 5.2521596,17.822795 5.452315,17.7873 Z m 20.2419722,-0.887611 0.342758,0.465129 0.621097,0.328129 -0.0075,0.821964 -0.647444,0.417337 -0.796829,-0.251694 -0.30762,-0.716791 -0.06191,-0.809196 c 0.286813,-0.08454 0.574479,-0.170092 0.861044,-0.254878 z m -11.935659,6.749645 0.509755,0.369548 0.231492,0.64994 -0.48339,0.694475 -0.60941,0.07306 -0.54784,-0.207091 -0.155277,-0.745538 0.237303,-0.818689 c 0.280068,-0.0025 0.567746,-0.0086 0.817367,-0.0116 z m 1.009042,3.202716 0.67093,0.315394 0.539053,0.560757 -0.492234,0.812357 -0.539075,-0.101739 -0.664984,0.203856 -0.492234,-0.624427 0.228514,-0.777313 c 0.249991,-0.129798 0.500038,-0.259148 0.75003,-0.388708 z m 12.015815,-1.350636 0.574161,0.605272 -0.0057,0.669044 -0.251949,0.563873 -0.700183,0.07934 -0.717794,-0.356852 0.08181,-0.882392 0.401375,-0.506619 c 0.216095,-0.05975 0.43737,-0.121048 0.620534,-0.171822 z m -14.355711,-7.746183 0.246102,0.774153 -0.275418,0.841037 -0.489235,0.350424 -0.515648,-0.334497 -0.609369,-0.723176 0.31349,-0.503341 0.433583,-0.401416 c 0.306106,-0.0012 0.621199,-0.0013 0.896495,-0.002 z M 1.4878414,17.621668 1.8892042,18.373539 1.7573694,19.080787 1.0190861,19.580964 0.27787537,19.103078 0.24271317,18.303436 0.59720581,17.682207 c 0.29687514,-0.0199 0.59375269,-0.04068 0.89062409,-0.06098 z"
     id="path4280"
     inkscape:connector-curvature="0"
     sodipodi:nodetypes="cccccccccccccccccccccccccccccccccccccccccccccccccccccccccccccccccccccccccccccccccccccccccccccccccccccccccccccccccccccccccccccccccccccccccccccccccccccccccccccccccccccccccccccccccccccccccccccccccccccccccccccccccccccccccccccccccccccccccccccccccccccccccccccccccccccccccccccccccccccccccccccccccccccccccccccccccccccccccccccccccccccccccccccccccccccccccccccccccccccccccccccccccccccccccccccccccccccccccccccccccccccccccccccccccccccccccccccccccccccccccccccccccccccccccccccccccccccccccccccccccccccccccccccccccccccccccccccccccccccccccccccccccccccccccccccccccccccccccccccccccccccccccccccccccccccccccccccccccccccccccccccccccccccccccccccccccccccccccccccccccccccccccccccccccccccccccccccccccccccccccccccccccccccccccccccccccccccccccccccccccccccccccccccccccccccccccccccccccccccccccccccccccccccccccccccccccccccccccccccccccccccccccccccccccccccccccccccccccccccccccccccccccccccccccccccccccccccc" />
  <rect
     style="fill:none;fill-opacity:1;stroke:none"
     id="rect8566"
     y="8.1255827"
     x="-0.068726577"
     rx="0"
     height="24"
     width="24" />
  <desc
     id="desc932">Created with Snap</desc>
</svg>
