<?xml version="1.0" encoding="UTF-8" standalone="no"?>
<svg
   xmlns:dc="http://purl.org/dc/elements/1.1/"
   xmlns:cc="http://creativecommons.org/ns#"
   xmlns:rdf="http://www.w3.org/1999/02/22-rdf-syntax-ns#"
   xmlns:svg="http://www.w3.org/2000/svg"
   xmlns="http://www.w3.org/2000/svg"
   xmlns:sodipodi="http://sodipodi.sourceforge.net/DTD/sodipodi-0.dtd"
   xmlns:inkscape="http://www.inkscape.org/namespaces/inkscape"
   id="Svg"
   width="32"
   height="32"
   version="1.1"
   sodipodi:docname="arete-lz.svg"
   inkscape:version="0.92.2 5c3e80d, 2017-08-06">
  <sodipodi:namedview
     pagecolor="#ffffff"
     bordercolor="#666666"
     borderopacity="1"
     objecttolerance="10"
     gridtolerance="10"
     guidetolerance="10"
     inkscape:pageopacity="0"
     inkscape:pageshadow="2"
     inkscape:window-width="1280"
     inkscape:window-height="741"
     id="namedview8"
     showgrid="false"
     inkscape:zoom="34.380713"
     inkscape:cx="7.497404"
     inkscape:cy="15.516097"
     inkscape:window-x="0"
     inkscape:window-y="0"
     inkscape:window-maximized="0"
     inkscape:current-layer="Svg" />
  <metadata
     id="metadata911">
    <rdf:RDF>
      <cc:Work
         rdf:about="">
        <dc:format>image/svg+xml</dc:format>
        <dc:type
           rdf:resource="http://purl.org/dc/dcmitype/StillImage" />
        <dc:title />
      </cc:Work>
    </rdf:RDF>
  </metadata>
  <defs
     id="defs3" />
  <path
     style="fill:#999999;fill-opacity:1;stroke:none;stroke-width:0.68290639"
     d="m 20.146851,9.999987 -0.16167,0.131707 -0.03205,0.133632 0.02648,0.137074 0.202089,0.0036 0.05157,-0.09215 0.119859,-0.08289 -0.04321,-0.135931 z"
     id="path1018"
     inkscape:connector-curvature="0" />
  <path
     style="fill:#999999;fill-opacity:1;stroke:none;stroke-width:0.79291016"
     d="M 11.755859,10.942193 11.5,11.047852 l 0.03711,0.187902 0.19336,0.142863 0.1875,0.01558 0.09766,-0.130449 0.07617,-0.22206 -0.158203,-0.06679 z"
     id="path1016"
     inkscape:connector-curvature="0" />
  <path
     style="fill:#999999;fill-opacity:1;stroke:none;stroke-width:0.80230939"
     d="m 28.266804,10.959576 -0.132038,0.209868 0.113916,0.219419 0.199353,0.0097 0.08673,-0.219418 -0.08803,-0.182854 z"
     id="path1014"
     inkscape:connector-curvature="0" />
  <path
     style="fill:#999999;fill-opacity:1;stroke:none;stroke-width:0.90461856"
     d="M 3.8787202,11.327205 3.7027683,11.385401 3.6,11.520606 3.666955,11.739122 3.8662632,11.772202 4.0064018,11.681042 4.05,11.4641 Z"
     id="path1012"
     inkscape:connector-curvature="0" />
  <path
     style="fill:#999999;fill-opacity:1;stroke:none;stroke-width:0.7440986"
     d="m 20.110979,11.641292 -0.210527,0.09568 -0.06842,0.243446 0.203948,0.207871 0.253947,-0.127186 0.0421,-0.270786 z"
     id="path1010"
     inkscape:connector-curvature="0" />
  <path
     style="fill:#999999;fill-opacity:1;stroke:none;stroke-width:0.86954987"
     d="M 27.948151,12.528766 27.7,12.741681 l 0.05556,0.252931 0.196299,0.166489 0.357412,-0.05605 L 28.4,12.834502 28.283332,12.624798 Z"
     id="path1008"
     inkscape:connector-curvature="0" />
  <path
     style="fill:#999999;fill-opacity:1;stroke:none;stroke-width:0.86489224"
     d="M 11.270773,12.54765 11.1,12.951502 11.439855,13.20965 11.8,12.994266 11.718841,12.561905 Z"
     id="path1006"
     inkscape:connector-curvature="0" />
  <path
     style="fill:#999999;fill-opacity:1;stroke:none;stroke-width:0.88779086"
     d="m 19.824717,12.666191 -0.315207,0.03401 -0.0256,0.196299 0.02719,0.20117 0.235205,0.21252 0.230405,-0.131412 0.107198,-0.27255 -0.0528,-0.201169 z"
     id="path1004"
     inkscape:connector-curvature="0" />
  <path
     style="fill:#999999;fill-opacity:1;stroke:none;stroke-width:0.88039052"
     d="M 3.5878714,12.707269 3.3712872,12.854951 3.25,13.114229 3.4769802,13.312786 3.7091586,13.342266 3.9257427,13.237294 3.95,12.950113 3.7923267,12.786033 Z"
     id="path1002"
     inkscape:connector-curvature="0" />
  <path
     style="fill:#999999;fill-opacity:1;stroke:none;stroke-width:0.75625014"
     d="m 20.498068,13.260517 -0.22463,0.162463 0.04729,0.262754 0.218719,0.09178 0.214286,-0.0396 0.119704,-0.252862 -0.16404,-0.192117 z"
     id="path1000"
     inkscape:connector-curvature="0" />
  <path
     style="fill:#999999;fill-opacity:1;stroke:none;stroke-width:0.7453292"
     d="m 12.09024,13.19694 -0.121545,0.208569 0.04005,0.19484 0.223755,0.138591 0.225137,-0.131722 0.01105,-0.22228 -0.107734,-0.171519 z"
     id="path998"
     inkscape:connector-curvature="0" />
  <path
     style="fill:#999999;fill-opacity:1;stroke:none;stroke-width:0.89199871"
     d="m 4.5118129,13.361583 -0.2111118,0.02943 -0.1698417,0.112965 0.00635,0.253848 0.1428575,0.240757 0.2777788,-0.0639 0.1444448,-0.163775 0.028571,-0.22765 z"
     id="path996"
     inkscape:connector-curvature="0" />
  <path
     style="fill:#999999;fill-opacity:1;stroke:none;stroke-width:0.74406159"
     d="m 10.771484,13.489781 -0.220703,0.158636 -0.05078,0.198283 0.271484,0.190081 0.326172,-0.0752 0.142578,-0.1723 -0.107422,-0.250258 z"
     id="path994"
     inkscape:connector-curvature="0" />
  <path
     style="fill:#999999;fill-opacity:1;stroke:none;stroke-width:0.73911375"
     d="m 2.9652475,13.642387 -0.2391089,0.109298 -0.086139,0.155183 0.120297,0.140336 0.2391089,0.155183 L 3.1360392,14.093089 3.24,13.954077 3.2043564,13.6896 Z"
     id="path992"
     inkscape:connector-curvature="0" />
  <path
     style="fill:#999999;fill-opacity:1;stroke:none;stroke-width:0.8754701"
     d="M 28.277777,13.482974 27.9,13.711784 28.03492,14.1207 28.469841,14.127 28.6,13.727748 Z"
     id="path990"
     inkscape:connector-curvature="0" />
  <path
     style="fill:#999999;fill-opacity:1;stroke:none;stroke-width:0.71679145"
     d="m 12.035156,13.719519 -0.458984,0.12436 -0.08203,0.275388 0.289062,0.232252 0.53125,-0.06599 0.08008,-0.341391 z"
     id="path988"
     inkscape:connector-curvature="0" />
  <path
     style="fill:#999999;fill-opacity:1;stroke:none;stroke-width:0.72421527"
     d="m 19.736328,13.766463 -0.203125,0.32517 0.265625,0.27983 0.492188,-0.04925 0.179687,-0.260399 -0.193359,-0.27594 z"
     id="path986"
     inkscape:connector-curvature="0" />
  <path
     style="fill:#999999;fill-opacity:1;stroke:none;stroke-width:0.75849032"
     d="m 20.291016,14.236558 0.1575,0.233047 0.172083,-0.0298 0.212917,0.05828 0.1575,-0.179058 -0.07437,-0.223095 -0.239167,-0.110847 -0.214375,0.09091 z"
     id="path984"
     inkscape:connector-curvature="0" />
  <path
     style="fill:#999999;fill-opacity:1;stroke:none;stroke-width:0.79260665"
     d="m 3.8361525,14.000615 -0.5171548,0.03078 -0.076989,0.531537 0.4518827,0.26668 0.3481173,-0.366452 z"
     id="path982"
     inkscape:connector-curvature="0" />
  <path
     style="fill:#999999;fill-opacity:1;stroke:none;stroke-width:0.71844721"
     d="m 27.783203,14.203234 -0.384765,0.262642 0.246093,0.363358 0.572266,-0.07775 0.08008,-0.388854 z"
     id="path980"
     inkscape:connector-curvature="0" />
  <path
     style="fill:#999999;fill-opacity:1;stroke:none;stroke-width:0.73239672"
     d="m 29.197947,14.269307 -0.299509,0.243786 0.191686,0.335214 0.444985,-0.07287 0.06333,-0.359065 z"
     id="path978"
     inkscape:connector-curvature="0" />
  <path
     style="fill:#999999;fill-opacity:1;stroke:none;stroke-width:0.7242161"
     d="m 12.248047,14.301395 -0.205078,0.32517 0.265625,0.27983 0.492187,-0.04925 0.181641,-0.260398 -0.195313,-0.275939 z"
     id="path976"
     inkscape:connector-curvature="0" />
  <path
     style="fill:#999999;fill-opacity:1;stroke:none;stroke-width:0.75444925"
     d="m 5.0561493,14.367786 -0.1624041,0.02526 -0.051151,0.177145 -0.00383,0.278371 0.1521739,0.04222 0.1585678,-0.0032 0.1892583,-0.18277 -0.080563,-0.215099 z"
     id="path974"
     inkscape:connector-curvature="0" />
  <path
     style="fill:#999999;fill-opacity:1;stroke:none;stroke-width:0.73558336"
     d="m 20.46875,14.371334 -0.396484,0.01202 -0.21875,0.18444 -0.113282,0.229879 0.373047,0.141665 0.207031,-0.108261 0.324219,-0.0468 0.08008,-0.240564 z"
     id="path972"
     inkscape:connector-curvature="0" />
  <path
     style="fill:#999999;fill-opacity:1;stroke:none;stroke-width:0.76653832"
     d="m 10.527636,14.027549 -0.390444,0.166912 0.03733,0.393311 0.343778,0.185777 0.318889,-0.21916 -0.01711,-0.320748 z"
     id="path970"
     inkscape:connector-curvature="0" />
  <path
     style="fill:#999999;fill-opacity:1;stroke:none;stroke-width:0.82796073"
     d="M 2.692,14.335 2.3,14.503356 2.3373333,14.896671 2.6811112,15.081 3,14.861839 2.9828897,14.541085 Z"
     id="path968"
     inkscape:connector-curvature="0" />
  <path
     style="fill:#999999;fill-opacity:1;stroke:none;stroke-width:0.82615536"
     d="m 18.955922,14.239 -0.294922,0.195562 0.0625,0.313576 0.289062,0.107862 0.283203,-0.04726 0.158204,-0.300088 -0.216797,-0.230971 z"
     id="path966"
     inkscape:connector-curvature="0" />
  <path
     style="fill:#999999;fill-opacity:1;stroke:none;stroke-width:0.68905383"
     d="m 18.912109,14.855553 -0.408203,0.204068 0.01367,0.09498 -0.222656,0.126663 -0.04883,0.208752 0.121094,0.132533 0.255859,-0.0093 0.363281,-0.07854 -0.01758,-0.08916 0.04492,0.0093 0.34375,-0.158332 0.01953,-0.275599 z"
     id="path964"
     inkscape:connector-curvature="0" />
  <path
     style="fill:#999999;fill-opacity:1;stroke:none;stroke-width:0.73779863"
     d="m 21.445312,14.541196 -0.521484,0.08334 -0.04102,0.346889 0.457032,0.131772 0.384765,-0.260849 z"
     id="path962"
     inkscape:connector-curvature="0" />
  <path
     style="fill:#999999;fill-opacity:1;stroke:none;stroke-width:0.84354019"
     d="m 4.2869481,14.491412 -0.2825396,0.155167 -0.057142,0.268155 0.046032,0.275688 0.3539681,0.007 0.090476,-0.186796 0.2095238,-0.16422 -0.077778,-0.274184 z"
     id="path960"
     inkscape:connector-curvature="0" />
  <path
     style="fill:#999999;fill-opacity:1;stroke:none;stroke-width:0.81966513"
     d="m 11.37824,14.401726 -0.306641,0.174257 -0.138672,0.303686 0.289063,0.325265 0.367187,0.03479 0.328125,-0.09788 0.0957,-0.348498 -0.144531,-0.383344 z"
     id="path958"
     inkscape:connector-curvature="0" />
  <path
     style="fill:#999999;fill-opacity:1;stroke:none;stroke-width:0.75328469"
     d="m 27.378757,14.629678 -0.236251,0.0435 -0.218678,0.227137 0.191343,0.186465 0.339732,0.0659 0.232346,-0.06731 0.01758,-0.183666 -0.08786,-0.271994 z"
     id="path956"
     inkscape:connector-curvature="0" />
  <path
     style="fill:#999999;fill-opacity:1;stroke:none;stroke-width:0.70336962"
     d="m 28.794922,14.710888 -0.439453,0.120987 -0.142578,0.303061 0.425781,0.263952 0.527344,-0.161309 0.08789,-0.339718 z"
     id="path954"
     inkscape:connector-curvature="0" />
  <path
     style="fill:#999999;fill-opacity:1;stroke:none;stroke-width:0.77784944"
     d="M 10.537126,14.791023 10.131547,14.908868 10.1,15.305972 10.532618,15.411023 10.8,15.088225 Z"
     id="path952"
     inkscape:connector-curvature="0" />
  <path
     style="fill:#999999;fill-opacity:1;stroke:none;stroke-width:0.7724722"
     d="m 20.14274,14.803723 -0.383497,0.154697 -0.04049,0.27313 0.328713,0.174031 0.440664,0.105142 0.340623,-0.239291 -0.18103,-0.154697 -0.04288,-0.227204 z"
     id="path950"
     inkscape:connector-curvature="0" />
  <path
     style="fill:#999999;fill-opacity:1;stroke:none;stroke-width:0.71234787"
     d="M 3.5097656,14.991865 3.1601562,15.356597 3.625,15.639865 4.2148438,15.448094 4.1132812,15.05328 Z"
     id="path948"
     inkscape:connector-curvature="0" />
  <path
     style="fill:#999999;fill-opacity:1;stroke:none;stroke-width:0.59245926"
     d="m 21.541016,15.195928 -0.50586,0.104041 0.04687,0.241893 0.445313,0.113576 0.322265,-0.105772 -0.05078,0.15693 0.121094,0.105772 -0.16211,0.09277 -0.0059,-0.03988 -0.324219,-0.06152 -0.279296,0.04075 -0.01953,0.01991 -0.43164,-0.03123 -0.201172,0.116179 -0.289063,-0.1708 -0.482422,0.0737 -0.03906,0.246228 0.515625,0.06412 0.185547,-0.115313 0.267578,0.185541 0.513672,0.0095 0.11914,-0.111844 0.25586,-0.0078 0.232422,-0.08237 -0.0039,-0.03209 0.208985,0.143926 0.513672,0.0087 0.222656,-0.204612 -0.103516,-0.07976 0.210938,0.0269 0.154297,-0.08063 0.02148,0.103175 0.121094,0.03123 -0.126953,0.195077 0.423828,0.149126 0.40039,-0.146529 -0.07031,-0.08583 0.06055,0.02777 0.289062,0.06066 0.115235,-0.07109 0.234375,0.0295 0.210937,-0.109247 -0.02734,-0.03642 0.166016,0.06936 0.1875,-0.03296 0.01758,0.03902 0.207031,0.09017 0.376954,-0.03036 0.0957,-0.146523 -0.123047,-0.113582 -0.353516,-0.05114 -0.07813,0.03469 -0.1875,-0.109241 -0.310547,-0.01125 -0.308594,0.03989 0.01758,0.07543 -0.09961,-0.02078 -0.05859,0.01125 -0.002,-0.01472 -0.304687,-0.04854 -0.05859,0.01991 -0.0059,-0.0572 -0.365235,-0.123117 -0.476562,0.09711 -0.02539,-0.03642 -0.332031,-0.07023 -0.107422,0.02078 -0.01563,-0.03556 -0.294922,-0.04681 -0.333984,0.02777 0.08203,-0.0269 -0.02148,-0.19768 z"
     id="path946" />
  <path
     style="fill:#999999;fill-opacity:1;stroke:none;stroke-width:0.59245926"
     d="m 13.513747,15.214138 -0.18713,0.0789 -0.103961,0.136988 0.196041,0.104913 0.199011,0.01558 0.184159,-0.0564 0.02079,-0.150857 -0.13515,-0.0867 z"
     id="path944" />
  <path
     style="fill:#999999;fill-opacity:1;stroke:none;stroke-width:0.59245926"
     d="m 13.222656,15.430023 -0.519531,-0.0078 -0.197266,0.22022 0.392579,0.142188 0.06641,-0.01904 -0.164063,0.176007 -0.132812,-0.01385 0.05469,-0.146523 -0.417968,-0.119648 -0.251954,0.04854 0.07422,-0.08323 0.02539,-0.10751 -0.21875,-0.141322 -0.310547,0.03902 -0.205078,0.12658 0.0039,0.111845 0.234375,0.04681 0.332031,0.01991 -0.08008,0.01558 -0.115234,0.176007 -0.199219,-0.116179 -0.275391,-0.01039 0.04492,-0.0295 -0.04492,-0.169069 -0.314453,-0.03036 -0.316406,0.07023 -0.111328,0.09971 0.08789,0.05027 -0.292968,0.06592 -0.126953,0.10231 0.01953,0.07803 -0.0039,-6.66e-4 -0.2656254,0.08323 0.02539,0.14306 0.275391,0.09971 0.308594,-0.02251 0.277343,-0.07109 -0.121093,-0.153461 0.07031,-0.01298 0.171875,-0.07976 -0.07813,-0.130055 -0.0098,-0.0047 0.07813,0.0243 0.02148,0.09537 0.222656,0.03209 0.0098,0.0033 -0.113282,0.03642 0.02344,0.142188 0.275391,0.09971 0.308593,-0.02251 0.277344,-0.07109 -0.128906,-0.160393 -0.128906,-0.0033 0.04101,-0.108375 0.363281,0.158661 0.171876,-0.03729 0.0293,0.08236 0.259766,0.105778 0.25,0.01125 0.132812,-0.0971 0.03125,-0.05287 0.02539,0.01731 0.492188,-0.03296 0.179687,-0.174269 -0.193359,-0.184676 -0.447266,-0.01039 0.220703,-0.06332 z"
     id="path942" />
  <path
     style="fill:#999999;fill-opacity:1;stroke:none;stroke-width:0.73117536"
     d="m 30.078321,15.018066 -0.325467,0.02109 -0.186448,0.157145 0.01472,0.285234 0.318926,0.117531 0.255139,-0.126767 0.111214,-0.203392 z"
     id="path940"
     inkscape:connector-curvature="0" />
  <path
     style="fill:#999999;fill-opacity:1;stroke:none;stroke-width:0.72257555"
     d="m 4.9296875,15.049759 -0.3828125,0.0735 0.046875,0.31209 0.2773438,0.05804 0.265625,0.166367 0.375,-0.09677 0.068359,-0.260508 -0.265625,-0.232141 z"
     id="path938"
     inkscape:connector-curvature="0" />
  <path
     style="fill:#999999;fill-opacity:1;stroke:none;stroke-width:0.7279883"
     d="m 26.896484,15.067633 -0.154296,0.146606 -0.0918,0.172798 0.152343,0.273596 0.363282,-0.0081 0.300781,-0.172799 0.0625,-0.184572 -0.226563,-0.12044 z"
     id="path936"
     inkscape:connector-curvature="0" />
  <path
     style="fill:#999999;fill-opacity:1;stroke:none;stroke-width:0.72016042"
     d="m 28.115234,15.171532 -0.378906,0.07938 -0.21875,0.190873 0.142578,0.302325 0.425782,0.04742 0.302734,-0.126818 0.0918,-0.302333 z"
     id="path934"
     inkscape:connector-curvature="0" />
  <path
     style="fill:#999999;fill-opacity:1;stroke:none;stroke-width:0.72836834"
     d="m 2.2988281,15.183211 -0.1953125,0.2267 0.064453,0.213596 0.3613281,0.150704 0.3632812,-0.145459 0.017578,-0.239804 -0.1738281,-0.187392 z"
     id="path932"
     inkscape:connector-curvature="0" />
  <path
     style="fill:#999999;fill-opacity:1;stroke:none;stroke-width:0.59245926"
     d="m 16.191406,15.460348 -0.246094,0.104906 0.0039,0.117051 0.107422,0.09971 0.300781,0.01298 0.308594,-0.06239 -0.03711,-0.154326 -0.171875,-0.08844 z"
     id="path930" />
  <path
     style="fill:#999999;fill-opacity:1;stroke:none;stroke-width:0.59245926"
     d="m 7.7753906,15.556588 -0.2695312,0.189877 0.3144531,0.169934 0.2890625,-0.03902 0.095703,0.117044 0.2148438,0.06762 0.2734375,6.66e-4 0.1835937,-0.128311 -0.066406,-0.113583 -0.1601563,-0.0841 -0.2988281,0.01818 -0.029297,0.01039 -0.029297,-0.149126 z"
     id="path928" />
  <path
     style="fill:#999999;fill-opacity:1;stroke:none;stroke-width:0.59245926"
     d="m 26.158203,15.576528 -0.40625,0.150857 0.03711,0.22022 0.226563,0.03469 0.03125,0.132653 0.222656,0.03209 0.214844,0.09017 0.01953,-0.0033 -0.193359,0.07456 0.05664,0.149991 0.21875,0.06506 0.246093,0.01645 0.195313,-0.101443 0.05859,-0.148254 -0.306641,-0.07456 -0.238281,0.01212 0.246093,-0.04335 0.0293,-0.07717 0.03906,0.0546 0.339843,0.02517 0.240235,-0.06762 0.07227,-0.16213 -0.289062,-0.103175 -0.300781,0.04421 -0.16211,0.09364 -0.128906,-0.07456 -0.0625,-0.0027 0.03711,-0.01212 0.02148,-0.202881 z"
     id="path926" />
  <path
     style="fill:#999999;fill-opacity:1;stroke:none;stroke-width:0.59245926"
     d="m 9.7109375,15.605148 -0.2714844,0.18987 0.095703,0.052 -0.042969,-0.002 -0.3085937,0.03988 0.023437,0.103175 -0.1074218,0.0243 -0.1796875,0.07283 -0.042969,0.157795 -0.1582031,-0.04335 -0.4355469,0.06419 -0.09375,0.235821 0.4628907,0.116179 0.4492187,-0.0945 -0.015625,-0.22022 0.076172,0.01645 0.34375,-0.03469 0.1640625,-0.08497 -0.03125,-0.03036 0.021484,0.0087 0.3027344,-0.05287 0.054687,-0.141322 -0.074219,-0.04248 0.3300786,-0.04508 -0.04492,-0.229754 z"
     id="path924" />
  <path
     style="fill:#999999;fill-opacity:1;stroke:none;stroke-width:0.59245926"
     d="M 0.3125,15.610387 0.04296875,15.650272 0,15.691023 v 0.444767 l 0.13085938,-0.01039 0.0390625,-0.05979 0.13671874,-0.05893 -0.007813,-0.08236 0.125,-0.0047 0.22460938,-0.0789 -0.0136719,0.01472 0.10351563,0.06073 -0.0351563,0.08063 -0.17578125,0.105772 0.140625,0.115314 0.009766,0.06152 0.27734374,0.09971 0.28710938,-0.02171 0.048828,0.06762 0.53125,0.0078 0.2988282,-0.176866 -0.1113282,-0.08844 0.1015625,0.02078 0.3828125,0.02344 0.087891,-0.09884 0.00391,-0.01991 0.095703,0.09537 0.4296875,-0.03989 -0.015625,0.04335 0.4707031,0.113576 0.3632813,-0.156064 -0.054687,-0.05114 0.083984,0.02077 -0.027344,0.02171 0.03125,0.121387 0.3105469,0.06505 0.2441406,-0.04335 0.171875,-0.07977 -0.029297,-0.05027 0.1367188,0.09711 0.4921875,-0.03296 0.1816406,-0.174269 -0.1953125,-0.184676 -0.5390625,-0.01298 -0.1894531,0.200277 -0.1328125,-0.05893 0.00391,-0.002 -0.2167969,-0.19768 -0.5390625,0.01298 -0.054687,0.153461 -0.3632813,0.0087 0.017578,-0.0572 -0.4570313,-0.09624 -0.2910156,0.136121 -0.125,-0.08064 -0.3105469,0.03815 -0.2050781,0.126586 0.00195,0.03383 -0.4296875,-0.01298 -0.1523437,0.07023 -0.033203,-6.66e-4 -0.013672,-0.13178 -0.017578,-0.01818 0.109375,-0.01645 0.066406,-0.130921 -0.1015625,-0.143054 -0.3496094,-0.0027 -0.21875,0.06505 -0.0839844,0.09624 -0.0234375,-0.168196 z"
     id="path922" />
  <path
     style="fill:#999999;fill-opacity:1;stroke:none;stroke-width:0.59245926"
     d="m 6.3027344,15.619887 -0.2460938,0.01039 -0.1015625,0.0893 h -0.052734 l -0.234375,0.0269 -0.2207032,0.14045 0.1914063,0.115314 0.3398437,0.04075 0.234375,-0.04162 0.00977,-0.06849 0.058594,0.0069 0.046875,-0.0078 -0.015625,0.05114 0.033203,0.106638 0.2871094,0.113576 0.1308594,-0.03296 0.00195,0.002 0.042969,0.122252 0.2597656,0.106637 0.25,0.01125 0.1328125,-0.09797 0.021484,-0.03556 0.2578126,0.01904 0.2402343,-0.06762 0.072266,-0.16213 L 7.7558613,15.966 7.51758,16.00069 l -0.25,-0.182938 -0.484375,0.04594 -0.054687,-0.0047 -0.1464844,0.0069 0.1035133,-0.06585 -0.1347657,-0.140344 z"
     id="path920" />
  <path
     style="fill:#999999;fill-opacity:1;stroke:none;stroke-width:0.59245926"
     d="m 29.056641,15.642437 -0.244141,0.03296 -0.322266,0.09537 0.04297,0.052 h -0.132812 l -0.06445,0.08323 -0.232422,-0.0295 -0.31836,0.169068 0.123047,0.183804 0.421875,0.08063 0.423828,-0.149126 -0.01953,-0.0243 0.109375,-0.02863 0.226562,-0.110106 0.01758,0.002 0.175781,-0.119648 -0.03516,-0.156057 z"
     id="path918" />
  <path
     style="fill:#999999;fill-opacity:1;stroke:none;stroke-width:0.59245926"
     d="m 15.025391,15.669307 -0.246094,0.105779 0.002,0.06239 -0.294922,0.03989 -0.02734,-0.0321 -0.503906,0.0095 -0.136719,0.211551 0.275391,0.0971 -0.214844,0.05547 0.09961,0.215019 0.533203,0.04508 0.15625,-0.166465 0.113281,0.052 0.289062,0.06159 0.22461,-0.137853 -0.119141,-0.09017 -0.02734,-0.130914 -0.06055,-0.0095 0.0039,-0.0572 0.09961,0.0047 0.308548,-0.06243 -0.03516,-0.154327 -0.171875,-0.08844 z"
     id="path916" />
  <path
     style="fill:#999999;fill-opacity:1;stroke:none;stroke-width:0.59245926"
     d="m 32,15.691023 -0.07422,0.07109 -0.130859,0.01298 -0.01758,0.04162 -0.02539,-0.0033 -0.197265,0.08583 -0.09961,-0.0243 -0.261719,0.01212 -0.01758,0.0069 -0.06445,-0.105772 -0.308594,-0.04162 -0.27539,0.07023 -0.02539,-0.04941 h -0.240234 l -0.234375,0.0269 -0.02539,0.01645 -0.09766,0.01472 -0.171875,-0.06152 -0.300781,0.04248 -0.175782,0.101437 0.113282,0.162995 0.33789,0.0243 0.05078,-0.01385 0.07617,0.04335 0.314454,-0.0095 0.09961,-0.03556 0.08984,0.01125 0.134765,-0.02344 0.01172,0.03469 0.382813,0.004 0.09961,-0.09537 0.03125,-0.01125 0.04492,0.117917 0.21875,0.06506 0.24414,0.01645 0.158203,-0.08237 0.08984,0.03902 L 32,16.135537 Z"
     id="path914" />
  <path
     style="fill:#999999;fill-opacity:1;stroke:none;stroke-width:0.59245926"
     d="m 19.318359,15.718763 -0.330078,0.04335 -0.117187,0.104041 -0.0078,0.110113 0.183594,0.05373 -0.224609,0.04594 -0.07031,0.167331 0.273438,0.09104 0.283203,-0.0095 0.234375,-0.129183 -0.136719,-0.138726 0.04492,6.66e-4 0.130859,-0.143919 -0.06055,-0.113582 z"
     id="path912" />
  <path
     style="fill:#999999;fill-opacity:1;stroke:none;stroke-width:0.59245926"
     d="m 18.294922,15.747373 -0.396484,0.07716 -0.0293,0.04508 -0.109375,-0.0815 -0.453125,-0.03383 -0.277344,0.158661 -0.05273,-0.0078 -0.251953,0.0893 -0.02734,0.15693 0.216796,0.09971 0.289063,0.06153 0.224609,-0.137853 -0.03906,-0.0295 0.373047,0.006 0.09961,-0.09104 0.292969,0.128318 0.476562,-0.103175 0.08008,-0.218482 z"
     id="path910" />
  <path
     style="fill:#999999;fill-opacity:1;stroke:none;stroke-width:0.59245926"
     d="m 15.742188,15.984067 -0.181641,0.07976 -0.185547,0.150857 0.177734,0.07109 0.210938,0.04681 0.04492,0.214154 0.429687,0.110106 0.402344,-0.130049 -0.02344,-0.192473 -0.365235,-0.123118 -0.09375,0.01904 0.01563,-0.0789 -0.193359,-0.130049 z"
     id="path908" />
  <path
     style="fill:#999999;fill-opacity:1;stroke:none;stroke-width:0.74675673"
     d="m 30.779297,16.113 -0.322266,0.03174 -0.128906,0.207985 0.140625,0.231403 0.296875,0.06887 0.318359,-0.0096 0.05469,-0.267213 -0.199219,-0.08674 z"
     id="path906"
     inkscape:connector-curvature="0" />
  <path
     style="fill:#999999;fill-opacity:1;stroke:none;stroke-width:0.7501443"
     d="m 17.71875,16.193662 -0.203125,0.104289 0.04492,0.18069 0.173828,0.246021 0.232422,-0.04035 0.214844,-0.08336 0.136718,-0.255745 -0.248047,-0.14595 z"
     id="path904"
     inkscape:connector-curvature="0" />
  <path
     style="fill:#999999;fill-opacity:1;stroke:none;stroke-width:0.80518317"
     d="m 22.019531,16.096564 -0.21289,0.09127 -0.179688,0.134511 -0.04687,0.312261 0.289063,0.116954 0.34375,-0.06407 0.162109,-0.156924 -0.103516,-0.192165 z"
     id="path902"
     inkscape:connector-curvature="0" />
  <path
     style="fill:#999999;fill-opacity:1;stroke:none;stroke-width:0.80313742"
     d="m 24.986328,16.110882 -0.214844,0.124259 -0.123046,0.176857 0.146484,0.216677 0.291016,0.140207 0.265624,-0.184827 0.06641,-0.207122 -0.0957,-0.210301 z"
     id="path900"
     inkscape:connector-curvature="0" />
  <path
     style="fill:#999999;fill-opacity:1;stroke:none;stroke-width:0.74765366"
     d="m 30.060732,16.303995 -0.259766,0.02481 -0.208984,0.09521 0.0059,0.21263 0.175781,0.204349 0.341797,-0.05525 0.177735,-0.136702 0.03516,-0.1933 z"
     id="path898"
     inkscape:connector-curvature="0" />
  <path
     style="fill:#999999;fill-opacity:1;stroke:none;stroke-width:0.59245926"
     d="m 0,16.29272 v 0.336399 l 0.04296875,0.02337 0.51757813,-0.07023 -0.0449219,-0.229755 z"
     id="path896" />
  <path
     style="fill:#999999;fill-opacity:1;stroke:none;stroke-width:0.59245926"
     d="M 31.998047,16.29272 31.728516,16.482597 32,16.629119 V 16.29272 Z"
     id="path894" />
  <path
     style="fill:#999999;fill-opacity:1;stroke:none;stroke-width:0.80563766"
     d="m 25.958984,16.265659 -0.21289,0.08975 -0.179688,0.136261 -0.04687,0.312625 0.289063,0.11536 0.34375,-0.06254 0.162109,-0.1571 -0.103515,-0.192384 z"
     id="path892"
     inkscape:connector-curvature="0" />
  <path
     style="fill:#999999;fill-opacity:1;stroke:none;stroke-width:0.78233248"
     d="M 6.5410008,16.223 6.0878906,16.525369 6.3105396,16.926 6.8613028,16.89128 7.0448906,16.4453 Z"
     id="path890"
     inkscape:connector-curvature="0" />
  <path
     style="fill:#999999;fill-opacity:1;stroke:none;stroke-width:0.59245926"
     d="M 1.5410156,16.45832 1.2128906,16.5008 1.09375,16.604841 1.08594,16.71582 1.3378931,16.78951 1.6757837,16.79731 1.80469,16.653383 1.746096,16.539801 Z"
     id="path888" />
  <path
     style="fill:#999999;fill-opacity:1;stroke:none;stroke-width:0.72014225"
     d="m 23.732422,16.263 -0.269531,0.221608 0.08984,0.294626 0.517578,0.103766 0.314454,-0.280536 -0.158204,-0.309994 z"
     id="path886"
     inkscape:connector-curvature="0" />
  <path
     style="fill:#999999;fill-opacity:1;stroke:none;stroke-width:0.71417248"
     d="m 9.7753906,16.289074 -0.4589844,0.124732 -0.083984,0.280937 0.2890625,0.234331 0.5312493,-0.06551 0.08008,-0.346449 z"
     id="path884"
     inkscape:connector-curvature="0" />
  <path
     style="fill:#999999;fill-opacity:1;stroke:none;stroke-width:0.80239421"
     d="M 9.5214844,16.829 9.2070312,16.957819 9.09375,17.140712 9.2519531,17.306107 9.5664062,17.489 l 0.1796876,-0.128819 0.1367187,-0.163818 -0.046875,-0.3117 z"
     id="path882"
     inkscape:connector-curvature="0" />
  <path
     style="fill:#999999;fill-opacity:1;stroke:none;stroke-width:0.7585206"
     d="m 31.225617,16.495997 -0.261719,0.08807 -0.06836,0.274278 0.273438,0.150654 0.283203,-0.01703 0.234375,-0.211737 -0.148438,-0.245871 z"
     id="path880"
     inkscape:connector-curvature="0" />
  <path
     style="fill:#999999;fill-opacity:1;stroke:none;stroke-width:0.65177745"
     d="M 8.7851562,16.655999 8.2792969,16.666529 7.9980469,16.85225 7.8535156,17.087297 8.3320312,17.23 8.5996094,17.119829 9.0097656,17.071549 9.1132812,16.828103 Z"
     id="path878"
     inkscape:connector-curvature="0" />
  <path
     style="fill:#999999;fill-opacity:1;stroke:none;stroke-width:0.82919556"
     d="m 17.205078,16.624822 -0.287109,0.108645 -0.230469,0.191907 0.208984,0.278523 0.232422,-0.03573 0.285156,0.06965 0.210938,-0.213984 -0.09961,-0.266642 z"
     id="path876"
     inkscape:connector-curvature="0" />
  <path
     style="fill:#999999;fill-opacity:1;stroke:none;stroke-width:0.72189903"
     d="m 16.896484,17.020086 -0.519531,0.07336 -0.195312,0.302499 0.339843,0.238143 0.427735,-0.04893 0.230469,-0.261306 z"
     id="path874"
     inkscape:connector-curvature="0" />
  <path
     style="fill:#999999;fill-opacity:1;stroke:none;stroke-width:0.80076534"
     d="m 15.753906,16.628734 -0.521484,0.09816 -0.04102,0.408638 0.457032,0.155205 0.384765,-0.307262 z"
     id="path872"
     inkscape:connector-curvature="0" />
  <path
     style="fill:#999999;fill-opacity:1;stroke:none;stroke-width:0.75849128"
     d="m 25.152344,16.743954 -0.21875,0.106613 -0.09961,0.186154 0.207032,0.198943 0.261718,0.02129 0.234375,-0.0597 0.06641,-0.213152 -0.101563,-0.234467 z"
     id="path870"
     inkscape:connector-curvature="0" />
  <path
     style="fill:#999999;fill-opacity:1;stroke:none;stroke-width:0.85614109"
     d="m 24.933656,17.03701 -0.442365,-0.245036 -0.518635,0.22881 0.187406,0.408916 0.594905,0.0063 z"
     id="path868"
     inkscape:connector-curvature="0" />
  <path
     style="fill:#999999;fill-opacity:1;stroke:none;stroke-width:0.68519258"
     d="M 0.69335938,16.619991 0.453125,16.693021 0.25,16.802031 l -0.0527344,0.256292 0.32617188,0.09392 0.30859375,-0.04178 0.0820313,0.128726 0.14257807,0.117129 0.3730469,0.05567 0.1757813,-0.161202 -0.037109,-0.207576 -0.1699219,-0.110171 -0.2460937,0.04524 -0.15625005,0.06145 0.0976563,-0.06724 -0.1171868,-0.157711 z"
     id="path866"
     inkscape:connector-curvature="0" />
  <path
     style="fill:#999999;fill-opacity:1;stroke:none;stroke-width:1.05378604"
     d="m 23.027984,16.627 -0.461714,0.06988 -0.142442,0.390457 0.248048,0.277041 0.346284,0.09162 0.380668,-0.261763 -0.08596,-0.377375 z"
     id="path864"
     inkscape:connector-curvature="0" />
  <path
     style="fill:#999999;fill-opacity:1;stroke:none;stroke-width:0.796381"
     d="M 7.0995781,16.547516 6.957,16.832631 l 0.1640625,0.134715 0.095703,0.224021 0.3222656,0.02815 L 7.7362968,17.0143 7.6777028,16.732316 7.4140309,16.599153 Z"
     id="path862"
     inkscape:connector-curvature="0" />
  <path
     style="fill:#999999;fill-opacity:1;stroke:none;stroke-width:0.72441846"
     d="m 31.246094,16.876005 -0.296875,0.251476 0.185547,0.25924 0.328125,0.09328 0.429687,-0.124435 0.0332,-0.30591 -0.314453,-0.162028 z"
     id="path860"
     inkscape:connector-curvature="0" />
  <path
     style="fill:#999999;fill-opacity:1;stroke:none;stroke-width:0.74705905"
     d="m 25.261719,17.245115 -0.330078,0.06893 -0.117188,0.165423 -0.0078,0.175068 0.251953,0.11718 0.335937,0.0124 0.13086,-0.22884 -0.06055,-0.180583 z"
     id="path858"
     inkscape:connector-curvature="0" />
  <path
     style="fill:#999999;fill-opacity:1;stroke:none;stroke-width:0.82189929"
     d="m 7.2167655,17.191367 -0.2617188,0.02333 -0.2070312,0.155173 0.056641,0.288661 0.21875,0.125184 0.2460937,0.03165 0.1953126,-0.196895 0.058594,-0.283649 z"
     id="path856"
     inkscape:connector-curvature="0" />
  <path
     style="fill:#999999;fill-opacity:1;stroke:none;stroke-width:0.82099563"
     d="m 15.094564,17.213602 -0.180132,0.159825 0.0159,0.274705 0.186754,0.19147 0.209271,-0.04333 0.188079,-0.136514 -0.08609,-0.307998 -0.15894,-0.01497 z"
     id="path854"
     inkscape:connector-curvature="0" />
  <path
     style="fill:#999999;fill-opacity:1;stroke:none;stroke-width:0.72645169"
     d="m 23.796401,17.389117 -0.347905,0.06646 -0.07545,0.324579 0.216567,0.205958 0.326946,-0.02342 0.156487,-0.329795 z"
     id="path852"
     inkscape:connector-curvature="0" />
  <path
     style="fill:#999999;fill-opacity:1;stroke:none;stroke-width:0.86593592"
     d="m 24.132812,17.777718 0.154195,0.408393 0.497052,0.0063 0.148753,-0.398673 -0.368254,-0.246327 z"
     id="path850"
     inkscape:connector-curvature="0" />
  <path
     style="fill:#999999;fill-opacity:1;stroke:none;stroke-width:0.72780085"
     d="m 0.72460938,17.443995 -0.35351563,0.06541 -0.23242187,0.217192 0.005859,0.191019 0.26367187,0.07978 0.43554688,0.04059 0.0996094,-0.16877 0.0292969,-0.184486 z"
     id="path848"
     inkscape:connector-curvature="0" />
  <path
     style="fill:#999999;fill-opacity:1;stroke:none;stroke-width:0.81735706"
     d="m 17.369888,17.35846 -0.281152,0.13367 -0.01257,0.288773 0.144502,0.186487 0.29843,0.02307 0.157068,-0.265682 -0.106807,-0.240921 z"
     id="path846"
     inkscape:connector-curvature="0" />
  <path
     style="fill:#999999;fill-opacity:1;stroke:none;stroke-width:0.90728408"
     d="m 8.4167572,17.280002 -0.3336081,0.05385 -0.1339303,0.270721 0.1558461,0.194071 0.2508148,0.122357 0.3482188,-0.09294 0.2581203,-0.225056 -0.2386395,-0.24299 z"
     id="path844"
     inkscape:connector-curvature="0" />
  <path
     style="fill:#999999;fill-opacity:1;stroke:none;stroke-width:0.80562419"
     d="m 16.164868,17.637277 -0.160294,0.08975 -0.135295,0.134671 -0.03529,0.314204 0.217647,0.115371 0.258824,-0.06415 0.123529,-0.157095 -0.07941,-0.192374 z"
     id="path842"
     inkscape:connector-curvature="0" />
  <path
     style="fill:#999999;fill-opacity:1;stroke:none;stroke-width:0.80670339"
     d="m 31.413323,17.787008 -0.171826,0.143059 -0.02012,0.250766 0.148607,0.159147 0.198142,0.09803 0.153251,-0.220222 -0.08204,-0.144668 -0.01858,-0.208965 z"
     id="path840"
     inkscape:connector-curvature="0" />
  <path
     style="fill:#999999;fill-opacity:1;stroke:none;stroke-width:0.75255734"
     d="m 23.796751,18.031332 -0.227228,0.03072 -0.20198,0.149682 0.08911,0.236421 0.163367,0.109103 0.209405,0.0011 0.138119,-0.208435 -0.0505,-0.181854 z"
     id="path838"
     inkscape:connector-curvature="0" />
  <path
     style="fill:#999999;fill-opacity:1;stroke:none;stroke-width:0.85210019"
     d="m 8.0822744,17.909845 -0.4890994,0.0172 -0.1327015,0.382889 0.4113744,0.269914 0.3886256,-0.265201 z"
     id="path836"
     inkscape:connector-curvature="0" />
  <path
     style="fill:#999999;fill-opacity:1;stroke:none;stroke-width:0.80274266"
     d="m 8.7040985,17.828061 -0.2061855,0.128928 -0.083763,0.187813 0.020619,0.222835 0.2048969,0.119424 0.1610824,-0.07958 0.1134018,-0.146429 -0.051546,-0.23875 z"
     id="path834"
     inkscape:connector-curvature="0" />
  <path
     style="fill:#999999;fill-opacity:1;stroke:none;stroke-width:0.78490239"
     d="m 16.647533,18.198667 -0.231517,0.333249 0.201556,0.34848 0.347277,0.01527 0.151167,-0.348478 -0.152529,-0.289157 z"
     id="path832"
     inkscape:connector-curvature="0" />
  <path
     style="fill:#999999;fill-opacity:1;stroke:none;stroke-width:0.74987847"
     d="m 24.473332,18.299497 -0.196427,0.06944 -0.114796,0.162503 0.07398,0.259734 0.221936,0.04032 0.156888,-0.108322 0.0472,-0.259736 z"
     id="path830"
     inkscape:connector-curvature="0" />
  <path
     style="fill:#999999;fill-opacity:1;stroke:none;stroke-width:0.75566584"
     d="M 0.43686061,18.396 0.27573529,18.41146 0.18749999,18.607516 0.20156649,18.85012 0.4227941,18.915 0.58519819,18.85012 0.6875,18.687944 0.59926471,18.460854 Z"
     id="path828"
     inkscape:connector-curvature="0" />
  <path
     style="fill:#999999;fill-opacity:1;stroke:none;stroke-width:0.81078827"
     d="M 16.041857,18.836 15.9026,19.071441 15.9,19.290646 16.0061,19.479 l 0.232095,-0.01113 0.11671,-0.167244 0.04509,-0.198103 -0.139263,-0.185092 z"
     id="path826"
     inkscape:connector-curvature="0" />
  <path
     style="fill:#999999;fill-opacity:1;stroke:none;stroke-width:0.93335009"
     d="m 8.1899706,18.715006 -0.2160495,0.195815 0.030864,0.350738 0.1641976,0.262509 0.1580248,0.02794 0.083951,-0.240987 0.062963,-0.413138 -0.1333334,-0.122619 z"
     id="path824"
     inkscape:connector-curvature="0" />
  <path
     style="fill:#999999;fill-opacity:1;stroke:none;stroke-width:0.89622068"
     d="m 24.325856,19.286501 -0.284131,0.05297 -0.08766,0.297602 0.152645,0.208313 0.213098,0.07112 0.234257,-0.200047 -0.05138,-0.284371 z"
     id="path822"
     inkscape:connector-curvature="0" />
  <path
     style="fill:#999999;fill-opacity:1;stroke:none;stroke-width:0.83828747"
     d="m 0.06054687,20.339965 0.0097656,0.190933 -0.03125,0.199602 0.25,0.0095 0.11132812,-0.199621 -0.11132812,-0.164887 z"
     id="path820"
     inkscape:connector-curvature="0" />
  <path
     style="fill:#999999;fill-opacity:1;stroke:none;stroke-width:0.76953453"
     d="m 7.7677901,20.681997 -0.1870285,0.166755 0.017748,0.244268 0.2156972,0.07898 0.1569948,-0.130177 0.00956,-0.223801 z"
     id="path818"
     inkscape:connector-curvature="0" />
  <path
     style="fill:#999999;fill-opacity:1;stroke:none;stroke-width:0.59245926"
     d="m 15.85124,20.65616 -0.08658,0.14826 0.113414,0.12658 0.208537,-0.02257 0.07805,-0.118776 -0.08293,-0.124849 z"
     id="path816"
     inkscape:connector-curvature="0" />
  <path
     style="fill:#999999;fill-opacity:1;stroke:none;stroke-width:0.76211488"
     d="m 23.959936,21.695 -0.0973,0.15637 0.03244,0.146344 0.179149,0.202286 0.179148,-0.101798 0.0093,-0.26112 -0.08649,-0.129118 z"
     id="path1023"
     inkscape:connector-curvature="0" />
  <rect
     width="32"
     height="32"
     rx="0"
     x="0"
     y="0"
     id="rect8566"
     style="fill:none;fill-opacity:1;stroke:none" />
  <desc
     id="desc907">Created with Snap</desc>
</svg>
