<?xml version="1.0" encoding="UTF-8" standalone="no"?>
<svg
   xmlns:dc="http://purl.org/dc/elements/1.1/"
   xmlns:cc="http://creativecommons.org/ns#"
   xmlns:rdf="http://www.w3.org/1999/02/22-rdf-syntax-ns#"
   xmlns:svg="http://www.w3.org/2000/svg"
   xmlns="http://www.w3.org/2000/svg"
   id="svg2"
   viewBox="0 0 14 14"
   height="14"
   width="14"
   version="1.1">
  <metadata
     id="metadata8">
    <rdf:RDF>
      <cc:Work
         rdf:about="">
        <dc:format>image/svg+xml</dc:format>
        <dc:type
           rdf:resource="http://purl.org/dc/dcmitype/StillImage" />
        <dc:title></dc:title>
      </cc:Work>
    </rdf:RDF>
  </metadata>
  <defs
     id="defs6" />
  <rect
     style="visibility:hidden;fill:none;stroke:none"
     id="canvas"
     y="-2"
     x="0"
     height="16"
     width="16" />
  <path
     id="monument"
     d="M 7 -0.009765625 C 6.3372585 -0.009765625 5.8007812 0.50741207 5.8007812 1.1464844 C 5.8007812 1.7855567 6.3372585 2.3027344 7 2.3027344 C 7.6627417 2.3027344 8.1992187 1.7855567 8.1992188 1.1464844 C 8.1992188 0.50741207 7.6627417 -0.009765625 7 -0.009765625 z M 5.8007812 3 C 5.378914 3 5 3.374187 5 3.7792969 C 5 4.5590588 6.4003906 6.9105056 6.4003906 7.6777344 L 6.4003906 10.017578 L 7.5996094 10.017578 L 7.5996094 7.6777344 C 7.5996094 6.9256876 9 4.5590588 9 3.7792969 C 9 3.3477891 8.6402618 3 8.1992188 3 L 5.8007812 3 z M 5 11 C 4.3333333 11 4.3339844 11.667318 4.3339844 12.333984 L 3.6660156 12.333984 L 3 13 L 11 13 L 10.333984 12.333984 L 9.6660156 12.333984 C 9.6660156 11.667318 9.666666 11 9 11 L 5 11 z "
     style="fill:#000000;fill-opacity:1;stroke:none" />
</svg>
