<?xml version="1.0" encoding="UTF-8" standalone="no"?>
<!-- Created with Inkscape (http://www.inkscape.org/) -->

<svg
   xmlns:dc="http://purl.org/dc/elements/1.1/"
   xmlns:cc="http://creativecommons.org/ns#"
   xmlns:rdf="http://www.w3.org/1999/02/22-rdf-syntax-ns#"
   xmlns:svg="http://www.w3.org/2000/svg"
   xmlns="http://www.w3.org/2000/svg"
   version="1.1"
   width="100%"
   height="100%"
   viewBox="0 0 18 18"
   id="svg2">
  <metadata
     id="metadata8">
    <rdf:RDF>
      <cc:Work
         rdf:about="">
        <dc:format>image/svg+xml</dc:format>
        <dc:type
           rdf:resource="http://purl.org/dc/dcmitype/StillImage" />
        <dc:title></dc:title>
      </cc:Work>
    </rdf:RDF>
  </metadata>
  <defs
     id="defs6" />
  <rect
     width="18"
     height="18"
     x="0"
     y="0"
     id="canvas"
     style="fill:none;stroke:none;visibility:hidden" />
  <g
     id="atm">
    <path
       d="M 3,2 C 2.4576271,2 2,2.4576271 2,3 l 0,2 c 0,0.559322 0.4886174,1 1,1 l 0,-2 12,0 0,2 c 0.511382,0 1,-0.4857094 1,-1 L 16,3 C 16,2.4576271 15.508475,2 15,2 z m 1,3 0,8 c 0,0.599243 0.400757,1 1,1 l 8,0 c 0.527334,0 1,-0.448696 1,-1 l 0,-8 -1,0 0,6 c -1,0 -2,1 -2,2 L 7,13 C 7,12 6,11 5,11 L 5,5 z M 9,6 C 7.4292037,6 6,6.9528024 6,8 6,9.047198 7.4292037,10 9,10 10.570796,10 12,9.047198 12,8 12,6.9528024 10.570796,6 9,6 z M 4,14.5 C 4,15.554668 4.4247267,16 5,16 l 8,0 c 0.527334,0 1,-0.445332 1,-1.5 -0.305085,0.271186 -0.496636,0.49272 -1,0.46875 l -8,0.0625 C 4.5206056,15.00728 4.3050847,14.805085 4,14.5 z"
       id="halo"
       style="opacity:0.3;fill:#ffffff;fill-opacity:1;stroke:#ffffff;stroke-width:2;stroke-miterlimit:4;stroke-opacity:1;stroke-dasharray:none" />
    <path
       d="M 3,2 C 2.457627,2 2,2.4576271 2,3 l 0,2 c 0,0.559322 0.488617,1 1,1 l 0,-2 12,0 0,2 c 0.511382,0 1,-0.4857094 1,-1 L 16,3 C 16,2.4576271 15.508475,2 15,2 z m 1,3 0,8 c 0,0.599243 0.400757,1 1,1 l 8,0 c 0.527334,0 1,-0.448696 1,-1 l 0,-8 -1,0 0,6 c -1,0 -2,1 -2,2 L 7,13 C 7,12 6,11 5,11 L 5,5 z M 9,6 C 7.429204,6 6,6.9528024 6,8 6,9.047198 7.429204,10 9,10 10.570796,10 12,9.047198 12,8 12,6.9528024 10.570796,6 9,6 z M 4,14.5 C 4,15.554668 4.424727,16 5,16 l 8,0 c 0.527334,0 1,-0.445332 1,-1.5 -0.305085,0.271186 -0.496636,0.49272 -1,0.46875 l -8,0.0625 C 4.520606,15.00728 4.305085,14.805085 4,14.5 z"
       id="icon"
       style="fill:#1a1a1a;fill-opacity:1;stroke:none" />
  </g>
</svg>
