<?xml version="1.0" encoding="UTF-8" standalone="no"?>
<!-- Created with Inkscape (http://www.inkscape.org/) -->

<svg
   xmlns="http://www.w3.org/2000/svg"
   version="1.1"
   width="100%"
   height="100%"
   viewBox="0 0 16 16">
  <path
     d="M 2,1 C 1.4576271,1 1,1.4576271 1,2 l 0,2 c 0,0.559322 0.4886174,1 1,1 l 0,-2 12,0 0,2 c 0.511382,0 1,-0.4857094 1,-1 L 15,2 C 15,1.4576271 14.508475,1 14,1 z m 1,3 0,8 c 0,0.599243 0.400757,1 1,1 l 8,0 c 0.527334,0 1,-0.448696 1,-1 l 0,-8 -1,0 0,6 c -1,0 -2,1 -2,2 L 6,12 C 6,11 5,10 4,10 L 4,4 z M 8,5 C 6.4292037,5 5,5.9528024 5,7 5,8.0471976 6.4292037,9 8,9 9.5707963,9 11,8.0471976 11,7 11,5.9528024 9.5707963,5 8,5 z M 3,13.5 C 3,14.554668 3.4247267,15 4,15 l 8,0 c 0.527334,0 1,-0.445332 1,-1.5 -0.305085,0.271186 -0.496636,0.49272 -1,0.46875 l -8,0.0625 C 3.5206056,14.00728 3.3050847,13.805085 3,13.5 z" />
</svg>
