<?xml version="1.0" encoding="utf-8"?>
<!-- Generator: Adobe Illustrator 14.0.0, SVG Export Plug-In . SVG Version: 6.00 Build 43363)  -->
<!DOCTYPE svg PUBLIC "-//W3C//DTD SVG 1.1//EN" "http://www.w3.org/Graphics/SVG/1.1/DTD/svg11.dtd">
<svg version="1.1"
	 id="svg2" xmlns:rdf="http://www.w3.org/1999/02/22-rdf-syntax-ns#" sodipodi:docname="money_atm2.svg" inkscape:version="0.46" xmlns:svg="http://www.w3.org/2000/svg" xmlns:sodipodi="http://sodipodi.sourceforge.net/DTD/sodipodi-0.dtd" xmlns:inkscape="http://www.inkscape.org/namespaces/inkscape" xmlns:dc="http://purl.org/dc/elements/1.1/" sodipodi:version="0.32" xmlns:cc="http://creativecommons.org/ns#" inkscape:output_extension="org.inkscape.output.svg.inkscape" sodipodi:docbase="s:\Data\FacilityIcons"
	 xmlns="http://www.w3.org/2000/svg" xmlns:xlink="http://www.w3.org/1999/xlink" x="0px" y="0px" width="580px" height="580px"
	 viewBox="0 0 580 580" enable-background="new 0 0 580 580" xml:space="preserve">
<path id="rect7186" sodipodi:nodetypes="ccccccccc" fill="#999999" d="M284.477,295.254v2.645h2.13
	c0.169-0.614,0.278-1.521,0.286-1.571l6.621-0.042l0.312,1.613h2.101v-2.645H284.477z"/>
<sodipodi:namedview  showgrid="false" inkscape:current-layer="svg2" inkscape:window-y="18" inkscape:window-x="112" inkscape:cy="91.206074" inkscape:cx="1063.2002" inkscape:zoom="0.46083857" pagecolor="#ffffff" bordercolor="#666666" borderopacity="1.0" objecttolerance="10.0" gridtolerance="10.0" guidetolerance="10.0" inkscape:window-height="1005" inkscape:window-width="1280" inkscape:pageshadow="2" inkscape:pageopacity="0.0" id="base">
	</sodipodi:namedview>
<defs>
	
	
		<inkscape:perspective  inkscape:persp3d-origin="290 : 193.33333 : 1" inkscape:vp_z="580 : 290 : 1" inkscape:vp_y="0 : 1000 : 0" inkscape:vp_x="0 : 290 : 1" sodipodi:type="inkscape:persp3d" id="perspective2441">
		</inkscape:perspective>
</defs>
<path id="path3243" sodipodi:nodetypes="ccccc" fill="none" stroke="#FFFFFF" stroke-width="0.5784" stroke-linejoin="round" d="
	M286.893,296.556c-0.046,0.269-2.526,10.878-2.526,10.878l11.68-0.1l-2.531-10.822L286.893,296.556z"/>
<path id="path3163" sodipodi:nodetypes="ccccc" fill="#E6E6E6" stroke="#4D4D4D" stroke-width="0.5784" stroke-linecap="round" stroke-linejoin="round" d="
	M286.893,296.556c-0.046,0.269-2.526,10.878-2.526,10.878l11.68-0.1l-2.531-10.822L286.893,296.556z"/>
<g id="g4372" transform="translate(-130.0802,122.26983)">
</g>
<g enable-background="new    ">
	<path fill="#333333" d="M292.814,305.688c-0.354,0.239-0.956,0.466-1.697,0.466c-0.922,0-1.752-0.352-2.311-1.012
		c-0.432-0.478-0.717-1.139-0.82-1.959h-0.706v-0.568h0.648c0-0.057,0-0.113,0-0.171c0-0.171,0.012-0.341,0.023-0.501h-0.672v-0.57
		h0.751c0.137-0.797,0.467-1.457,0.934-1.924c0.568-0.604,1.32-0.944,2.244-0.944c0.682,0,1.206,0.193,1.523,0.363l-0.227,0.751
		c-0.297-0.17-0.764-0.318-1.273-0.318c-0.617,0-1.129,0.217-1.516,0.615c-0.331,0.342-0.558,0.854-0.672,1.457h3.177v0.569h-3.279
		c-0.022,0.147-0.022,0.309-0.022,0.478c0,0.069,0,0.127,0,0.193h3.302v0.57H289c0.09,0.66,0.307,1.149,0.626,1.491
		c0.421,0.456,0.992,0.659,1.607,0.659c0.603,0,1.126-0.215,1.389-0.376L292.814,305.688z"/>
</g>
</svg>
