<?xml version="1.0" encoding="utf-8"?>
<!-- Generator: Adobe Illustrator 14.0.0, SVG Export Plug-In . SVG Version: 6.00 Build 43363)  -->
<!DOCTYPE svg PUBLIC "-//W3C//DTD SVG 1.1//EN" "http://www.w3.org/Graphics/SVG/1.1/DTD/svg11.dtd">
<svg version="1.1"
	 id="svg2" xmlns:rdf="http://www.w3.org/1999/02/22-rdf-syntax-ns#" sodipodi:docname="hotel.svg" inkscape:version="0.46" xmlns:svg="http://www.w3.org/2000/svg" xmlns:sodipodi="http://sodipodi.sourceforge.net/DTD/sodipodi-0.dtd" xmlns:inkscape="http://www.inkscape.org/namespaces/inkscape" xmlns:dc="http://purl.org/dc/elements/1.1/" sodipodi:version="0.32" xmlns:cc="http://creativecommons.org/ns#" inkscape:output_extension="org.inkscape.output.svg.inkscape" sodipodi:docbase="s:\Data\FacilityIcons"
	 xmlns="http://www.w3.org/2000/svg" xmlns:xlink="http://www.w3.org/1999/xlink" x="0px" y="0px" width="580px" height="580px"
	 viewBox="0 0 580 580" enable-background="new 0 0 580 580" xml:space="preserve">
<sodipodi:namedview  showgrid="false" inkscape:current-layer="svg2" inkscape:window-y="25" inkscape:window-x="91" inkscape:cy="281.19503" inkscape:cx="331.95305" inkscape:zoom="0.92167712" pagecolor="#ffffff" bordercolor="#666666" borderopacity="1.0" objecttolerance="10.0" gridtolerance="10.0" guidetolerance="10.0" inkscape:window-height="947" inkscape:window-width="1048" inkscape:pageshadow="2" inkscape:pageopacity="0.0" id="base">
	</sodipodi:namedview>
<defs>
	
	
		<inkscape:perspective  inkscape:persp3d-origin="290 : 193.33333 : 1" inkscape:vp_z="580 : 290 : 1" inkscape:vp_y="0 : 1000 : 0" inkscape:vp_x="0 : 290 : 1" sodipodi:type="inkscape:persp3d" id="perspective2441">
		</inkscape:perspective>
	
		<inkscape:perspective  inkscape:persp3d-origin="30 : 20 : 1" inkscape:vp_z="60 : 30 : 1" inkscape:vp_y="0 : 1000 : 0" inkscape:vp_x="0 : 30 : 1" sodipodi:type="inkscape:persp3d" id="perspective3452">
		</inkscape:perspective>
	
		<inkscape:perspective  inkscape:persp3d-origin="372.04724 : 350.78739 : 1" inkscape:vp_z="744.09448 : 526.18109 : 1" inkscape:vp_y="0 : 1000 : 0" inkscape:vp_x="0 : 526.18109 : 1" sodipodi:type="inkscape:persp3d" id="perspective4471">
		</inkscape:perspective>
	
		<inkscape:perspective  inkscape:persp3d-origin="6 : 4 : 1" inkscape:vp_z="12 : 6 : 1" inkscape:vp_y="0 : 1000 : 0" inkscape:vp_x="0 : 6 : 1" sodipodi:type="inkscape:persp3d" id="perspective4668">
		</inkscape:perspective>
	
		<inkscape:perspective  inkscape:persp3d-origin="16 : 10.666667 : 1" inkscape:vp_z="32 : 16 : 1" inkscape:vp_y="0 : 1000 : 0" inkscape:vp_x="0 : 16 : 1" sodipodi:type="inkscape:persp3d" id="perspective4904">
		</inkscape:perspective>
</defs>
<g id="layer3" transform="matrix(48.14969,0,0,48.14969,-536.27327,-33.306752)" inkscape:label="Layout" display="none">
	<rect id="rect4134" x="1" y="1" display="inline" fill="none" stroke="#757575" stroke-width="0.1" width="10" height="10"/>
	<rect id="rect4136" x="2" y="2" display="inline" fill="none" stroke="#757575" stroke-width="0.1" width="8" height="8"/>
</g>
<path id="path645" sodipodi:nodetypes="ccccccccccccc" opacity="0.351" fill="#29ABE2" stroke="#FFFFFF" stroke-width="0.0428" enable-background="new    " d="
	M290.837,270.502l-7.481,7.679h1.496V289.7h4.489v-5.854h3.097v5.854h4.386v-11.519h1.497L290.837,270.502L290.837,270.502
	L290.837,270.502z"/>
<path id="path2157" fill="#FFFFFF" stroke="#29ABE2" stroke-width="1.3449" d="M281.544,280.066l-0.12,9.366"/>
<path id="path2159" fill="#29ABE2" stroke="#29ABE2" stroke-width="1.3449" d="M281.664,285.95l18.012,0.12"/>
<path id="path2161" fill="#29ABE2" stroke="#29ABE2" stroke-width="1.3449" d="M299.796,289.072l0.12-6.124"/>
<path id="rect2163" fill="#29ABE2" stroke="#29ABE2" stroke-width="1.5466" d="M289.349,282.528h7.805
	c0.464,0,0.841,0.376,0.841,0.841l0,0c0,0.464-0.377,0.84-0.841,0.84h-7.805c-0.464,0-0.84-0.376-0.84-0.84l0,0
	C288.509,282.904,288.885,282.528,289.349,282.528z"/>
<path id="path2167" sodipodi:type="arc" sodipodi:ry="1.3392857" sodipodi:rx="1.5178572" sodipodi:cy="16.017857" sodipodi:cx="7.7678571" fill="#29ABE2" stroke="#29ABE2" stroke-width="0.092" d="
	M287.146,280.847c0,0.641-0.586,1.16-1.309,1.161c-0.724,0-1.311-0.519-1.311-1.16c0,0,0,0,0-0.001c0-0.641,0.586-1.16,1.31-1.16
	S287.146,280.206,287.146,280.847L287.146,280.847z"/>
<path id="rect2169" fill="#29ABE2" stroke="#29ABE2" stroke-width="1.3449" d="M283.315,283.849h3.362c0.083,0,0.15,0.067,0.15,0.15
	l0,0c0,0.083-0.067,0.15-0.15,0.15h-3.362c-0.083,0-0.15-0.067-0.15-0.15l0,0C283.165,283.916,283.232,283.849,283.315,283.849z"/>
<path id="text9544" fill="#29ABE2" d="M283.967,273.349h2.385c0.397,0,0.702,0.099,0.915,0.295s0.319,0.44,0.319,0.731
	c0,0.244-0.076,0.453-0.228,0.627c-0.102,0.116-0.25,0.208-0.444,0.276c0.296,0.071,0.514,0.193,0.653,0.367
	c0.14,0.174,0.21,0.392,0.21,0.654c0,0.214-0.05,0.405-0.149,0.576c-0.099,0.171-0.235,0.306-0.407,0.405
	c-0.107,0.062-0.269,0.106-0.484,0.135c-0.286,0.038-0.477,0.057-0.57,0.057h-2.199V273.349z M285.252,274.966h0.554
	c0.199,0,0.337-0.034,0.415-0.103s0.116-0.167,0.116-0.296c0-0.12-0.038-0.214-0.116-0.281c-0.078-0.068-0.214-0.102-0.406-0.102
	h-0.562V274.966z M285.252,276.587h0.649c0.22,0,0.374-0.039,0.464-0.117s0.135-0.183,0.135-0.313c0-0.122-0.044-0.22-0.133-0.294
	c-0.09-0.074-0.245-0.111-0.469-0.111h-0.646V276.587z M291.695,275.467l0.895,0.2c-0.047,0.165-0.092,0.297-0.136,0.396
	c-0.043,0.099-0.104,0.216-0.183,0.352l0.431,0.295c0.053,0.034,0.12,0.074,0.202,0.121l-0.616,0.709
	c-0.112-0.061-0.229-0.13-0.35-0.208c-0.121-0.079-0.229-0.146-0.325-0.203c-0.198,0.132-0.397,0.228-0.596,0.287
	c-0.276,0.083-0.589,0.124-0.939,0.124c-0.55,0-0.958-0.114-1.227-0.344c-0.268-0.229-0.402-0.506-0.402-0.832
	c0-0.234,0.079-0.456,0.236-0.665s0.415-0.386,0.773-0.53c-0.149-0.182-0.253-0.34-0.31-0.474c-0.056-0.134-0.084-0.271-0.084-0.409
	c0-0.293,0.111-0.534,0.335-0.723c0.223-0.189,0.562-0.284,1.015-0.284c0.464,0,0.804,0.09,1.021,0.27
	c0.218,0.18,0.326,0.396,0.326,0.647c0,0.141-0.033,0.276-0.1,0.405c-0.067,0.13-0.147,0.234-0.241,0.315
	c-0.094,0.081-0.261,0.2-0.503,0.36c0.2,0.201,0.409,0.387,0.627,0.56C291.604,275.719,291.654,275.597,291.695,275.467
	L291.695,275.467z M290.379,274.744c0.148-0.081,0.263-0.168,0.343-0.263c0.081-0.095,0.121-0.185,0.121-0.269
	c0-0.088-0.033-0.163-0.102-0.224c-0.067-0.061-0.16-0.092-0.278-0.092c-0.116,0-0.211,0.034-0.284,0.102
	c-0.072,0.067-0.109,0.147-0.109,0.239C290.069,274.354,290.173,274.523,290.379,274.744L290.379,274.744z M289.971,275.746
	c-0.157,0.11-0.262,0.205-0.313,0.284c-0.052,0.079-0.077,0.163-0.077,0.25c0,0.137,0.059,0.259,0.177,0.366s0.272,0.16,0.462,0.16
	c0.204,0,0.434-0.079,0.688-0.239C290.664,276.379,290.352,276.105,289.971,275.746L289.971,275.746z M293.562,273.349h2.385
	c0.397,0,0.703,0.099,0.916,0.295s0.319,0.44,0.319,0.731c0,0.244-0.076,0.453-0.229,0.627c-0.101,0.116-0.249,0.208-0.444,0.276
	c0.297,0.071,0.515,0.193,0.654,0.367c0.14,0.174,0.209,0.392,0.209,0.654c0,0.214-0.049,0.405-0.148,0.576
	s-0.235,0.306-0.408,0.405c-0.106,0.062-0.268,0.106-0.483,0.135c-0.287,0.038-0.478,0.057-0.571,0.057h-2.199V273.349z
	 M294.848,274.966h0.555c0.198,0,0.337-0.034,0.414-0.103c0.078-0.068,0.117-0.167,0.117-0.296c0-0.12-0.039-0.214-0.117-0.281
	c-0.077-0.068-0.213-0.102-0.406-0.102h-0.562V274.966z M294.848,276.587h0.65c0.219,0,0.374-0.039,0.464-0.117
	s0.135-0.183,0.135-0.313c0-0.122-0.045-0.22-0.134-0.294s-0.245-0.111-0.468-0.111h-0.647V276.587z"/>
</svg>
