<?xml version="1.0" encoding="UTF-8" standalone="no"?>
<!-- Created with Inkscape (http://www.inkscape.org/) -->

<svg
   xmlns="http://www.w3.org/2000/svg"
   version="1.1"
   width="100%"
   height="100%"
   viewBox="0 0 16 16">
  <path
     d="m 1,3 0,7 c 0,0.627119 0.4237288,1 1,1 l 12,0 c 0.576271,0 1,-0.423729 1,-1 L 15,3 1,3 z m 3,1 8,0 c 0,1 1,2 2,2 l 0,2 c -1,0 -2,1 -2,2 L 4,10 C 4,9 3,8 2,8 L 2,6 C 3,6 4,5 4,4 z M 8,5 C 6.3431459,5 5,5.8954305 5,7 5,8.1045695 6.3431459,9 8,9 9.6568547,9 11,8.1045695 11,7 11,5.8954305 9.6568547,5 8,5 z M 1,11.5 C 1,12.626577 1.4486964,13 2,13 l 12,0 c 0.551304,0 1,-0.445333 1,-1.5 -0.288136,0.271186 -0.559322,0.5 -1,0.5 L 2,12 C 1.559322,12 1.2711864,11.754237 1,11.5 z" />
</svg>
