<?xml version="1.0" encoding="utf-8"?>
<!-- Generator: Adobe Illustrator 14.0.0, SVG Export Plug-In . SVG Version: 6.00 Build 43363)  -->
<!DOCTYPE svg PUBLIC "-//W3C//DTD SVG 1.1//EN" "http://www.w3.org/Graphics/SVG/1.1/DTD/svg11.dtd">
<svg version="1.1"
	 id="svg2" xmlns:rdf="http://www.w3.org/1999/02/22-rdf-syntax-ns#" sodipodi:docname="food_bar.svg" inkscape:version="0.48.1 r9760" xmlns:svg="http://www.w3.org/2000/svg" xmlns:sodipodi="http://sodipodi.sourceforge.net/DTD/sodipodi-0.dtd" xmlns:inkscape="http://www.inkscape.org/namespaces/inkscape" xmlns:dc="http://purl.org/dc/elements/1.1/" xmlns:cc="http://creativecommons.org/ns#"
	 xmlns="http://www.w3.org/2000/svg" xmlns:xlink="http://www.w3.org/1999/xlink" x="0px" y="0px" width="580px" height="580px"
	 viewBox="0 0 580 580" enable-background="new 0 0 580 580" xml:space="preserve">
<path id="path2209" inkscape:connector-curvature="0" fill="#754C24" d="M293.324,285.37h-0.008c0.01-0.008,0.015-0.017,0.015-0.025
	c0-0.196-2.675-0.355-5.975-0.355s-5.976,0.159-5.976,0.355c0,0.008,0.005,0.017,0.015,0.025h-0.015l5.296,4.901v5.547l-3.431,2.452
	h0.009c-0.017,0.009-0.025,0.018-0.025,0.027c0,0.135,1.848,0.245,4.127,0.245c2.279,0,4.127-0.11,4.127-0.245
	c0-0.01-0.009-0.019-0.025-0.027h0.002l-3.431-2.452v-5.547L293.324,285.37z M287.526,289.318c-0.096,0.088-0.252,0.088-0.348,0
	l-2.559-2.368c-0.095-0.088-0.067-0.161,0.063-0.161h5.339c0.13,0,0.159,0.072,0.063,0.161L287.526,289.318z"/>
</svg>
