<?xml version="1.0" encoding="UTF-8" standalone="no"?>
<svg
   xmlns:dc="http://purl.org/dc/elements/1.1/"
   xmlns:cc="http://creativecommons.org/ns#"
   xmlns:rdf="http://www.w3.org/1999/02/22-rdf-syntax-ns#"
   xmlns:svg="http://www.w3.org/2000/svg"
   xmlns="http://www.w3.org/2000/svg"
   id="svg2"
   viewBox="0 0 14 14"
   height="100%"
   width="100%"
   version="1.1">
  <metadata
     id="metadata8">
    <rdf:RDF>
      <cc:Work
         rdf:about="">
        <dc:format>image/svg+xml</dc:format>
        <dc:type
           rdf:resource="http://purl.org/dc/dcmitype/StillImage" />
        <dc:title></dc:title>
      </cc:Work>
    </rdf:RDF>
  </metadata>
  <defs
     id="defs6" />
  <rect
     style="fill:none;stroke:none;visibility:hidden"
     id="canvas"
     y="0"
     x="0"
     height="14"
     width="14" />
  <g
     id="g3809">
    <g
       id="g3817">
      <g
         id="g3813">
        <path
           d="m 7,6 1,7 c 0,0 0,1 1,1 l 2,0 c 1,0 1,-1 1,-1 L 13,6 Z M 14,1 11,1 10,5 11,5 11.75761,2 14,2 Z M 3,0 C 2,0 2,0.4670568 2,1 L 2,3 C 2,4 0,4 0,6 l 0,7 c 0,0.566252 0.467057,1 1,1 l 4,0 c 0.599561,0 1,-0.400439 1,-1 L 6,6 C 6,4 4,4 4,3 L 4,1 C 4,0.4337479 4,0 3,0 Z"
           style="fill:#000000;fill-opacity:1;stroke:none"
           id="beverages" />
      </g>
    </g>
  </g>
</svg>
