<?xml version="1.0" encoding="UTF-8" standalone="no"?>
<svg
   xmlns:dc="http://purl.org/dc/elements/1.1/"
   xmlns:cc="http://creativecommons.org/ns#"
   xmlns:rdf="http://www.w3.org/1999/02/22-rdf-syntax-ns#"
   xmlns:svg="http://www.w3.org/2000/svg"
   xmlns="http://www.w3.org/2000/svg"
   id="svg2"
   viewBox="0 0 14 14"
   height="100%"
   width="100%"
   version="1.1">
  <metadata
     id="metadata10">
    <rdf:RDF>
      <cc:Work
         rdf:about="">
        <dc:format>image/svg+xml</dc:format>
        <dc:type
           rdf:resource="http://purl.org/dc/dcmitype/StillImage" />
        <dc:title></dc:title>
      </cc:Work>
    </rdf:RDF>
  </metadata>
  <defs
     id="defs8" />
  <path
     d="M 10.500001,-1e-7 C 9.574658,-1e-7 8.776015,0.502762 8.34375,1.25 L 2.5,1.25 C 1.622246,1.25 1,1.7711864 1,2.5 1,3.2288136 1.603432,3.75 2.5,3.75 l 5.84375,0 C 8.776015,4.4972377 9.574658,5 10.500001,5 c 0.925343,0 1.723985,-0.5027623 2.15625,-1.25 l -1.65625,0 -1.5,-1.25 1.5,-1.25 1.65625,0 C 12.223985,0.5027623 11.425344,-1e-7 10.500001,-1e-7 Z M 2.5,2 C 2.776142,2 3,2.2238576 3,2.5 3,2.7761424 2.776142,3 2.5,3 2.223858,3 2,2.7761424 2,2.5 2,2.2238576 2.223858,2 2.5,2 Z m 5.5,3.4375 0.03125,1 L 9,7 9,8 5.25,8 5,8 5,7 5.5,7 c 1,0 1,-1 0,-1 l -2,0 c -1,0 -1,1 0,1 L 4,7 4,8 3.4375,9.375 c -0.041654,-0.0023 -0.082838,0 -0.125,0 C 2.0420041,9.375 1,10.417004 1,11.6875 1,12.957996 2.0420041,14 3.3125,14 4.5829959,14 5.625,12.957996 5.625,11.6875 5.625,11.447485 5.5695688,11.218899 5.5,11 L 6,11 7,11 9.15625,9 9.4375,9.71875 C 8.7978612,10.135655 8.375,10.877559 8.375,11.6875 8.375,12.957996 9.417004,14 10.6875,14 c 1.270496,0 2.34375,-1.042004 2.34375,-2.3125 0,-1.270496 -1.073254,-2.3125 -2.34375,-2.3125 -0.04216,0 -0.08335,-0.0023 -0.125,0 L 10,8 10,6.625 8,5.4375 Z M 4.84375,9 7.9550781,9 6.6503906,10.25 5.09375,10.25 C 4.9398886,10.062277 4.7662923,9.851578 4.5625,9.71875 L 4.84375,9 Z M 3.3125,10.5 C 3.9750008,10.5 4.5,11.024999 4.5,11.6875 4.5,12.350001 3.9750008,12.875 3.3125,12.875 2.6499993,12.875 2.125,12.350001 2.125,11.6875 2.125,11.024999 2.6499993,10.5 3.3125,10.5 Z m 7.375,0 c 0.662501,0 1.1875,0.524999 1.1875,1.1875 0,0.662501 -0.524999,1.1875 -1.1875,1.1875 -0.662501,0 -1.15625,-0.524999 -1.15625,-1.1875 0,-0.662501 0.493749,-1.1875 1.15625,-1.1875 z"
     style="fill:#1a1a1a;stroke:none"
     id="path4147" />
</svg>
