<?xml version="1.0" encoding="UTF-8" standalone="no"?>
<!-- Created with Inkscape (http://www.inkscape.org/) -->
<svg xmlns:dc="http://purl.org/dc/elements/1.1/" xmlns:cc="http://creativecommons.org/ns#" xmlns:rdf="http://www.w3.org/1999/02/22-rdf-syntax-ns#" xmlns:svg="http://www.w3.org/2000/svg" xmlns="http://www.w3.org/2000/svg" version="1.1" width="100%" height="100%" viewBox="0 0 18 18" id="svg2">
  <metadata id="metadata8">
    <rdf:RDF>
      <cc:Work rdf:about="">
        <dc:format>image/svg+xml</dc:format>
        <dc:type rdf:resource="http://purl.org/dc/dcmitype/StillImage"/>
        <dc:title/>
      </cc:Work>
    </rdf:RDF>
  </metadata>
  <defs id="defs6"/>
  <rect width="18" height="18" x="0" y="0" id="canvas" style="fill:none;stroke:none;visibility:hidden"/>
  <g id="parking-bicycle">
    <path d="m 3,2 0,10 2.0000773,0 0,-3.5 2.5000966,0 c 1.9761539,3e-7 3.5001351,-1 3.5001351,-3.25 C 11.000309,3 9.4870996,2.0000002 7.968942,2 z m 2.0000773,2 2.5000966,0 c 0.9636082,0 1.500058,0.5254308 1.500058,1.25 0,0.7245692 -0.6318042,1.25 -1.500058,1.25 l -2.5000966,0 z m 7.5002897,5.5 0,1.25 -3.0001158,0 0,-0.25 0.5000198,0 c 0.479412,0 0.455442,-0.5 0,-0.5 l -1.5000584,0 c -0.5000194,0 -0.5000194,0.452061 0,0.5 l 0.5000193,0 0,0.25 -0.5625218,1.28125 C 8.2963842,12.001436 8.1479564,12 8.0001932,12 c -1.0218203,0 -2.0000773,0.793929 -2.0000773,2 0,1.206071 0.978257,2 2.0000773,2 1.0218203,0 1.9375749,-0.856429 1.9375749,-2.0625 0,-0.150759 -0.00387,-0.302075 -0.031251,-0.4375 l 0.8437829,0 1.821945,-2 0.365639,0.78125 C 12.383285,12.615837 12.000348,13.229684 12.000348,14 c 0,1.206071 0.978257,2 2.000077,2 C 15.022246,16 15.938,15.143571 15.938,13.9375 15.938,12.731429 15.022246,12 14.000425,12 c -0.15008,0 -0.292278,0.02946 -0.437517,0.0625 l -0.562522,-1.3125 0,-0.5 z m -3.0938694,2 2.1938344,0 -1.193796,1.25 -0.8437824,0 C 9.4226359,12.56342 9.2582659,12.401358 9.0627343,12.28125 z M 8.0001932,13 c 0.6350982,0 1.0000387,0.549217 1.0000387,1 0,0.450783 -0.3649405,1 -1.0000387,1 -0.6350981,0 -1.0000386,-0.549217 -1.0000386,-1 0,-0.450783 0.3649405,-1 1.0000386,-1 z m 6.0002318,0 c 0.635099,0 1.000039,0.549217 1.000039,1 0,0.450783 -0.36494,1 -1.000039,1 -0.635098,0 -1.000039,-0.549217 -1.000039,-1 0,-0.450783 0.364941,-1 1.000039,-1 z" id="halo" style="opacity:0.3;fill:#ffffff;fill-opacity:1;fill-rule:evenodd;stroke:#ffffff;stroke-width:2;stroke-miterlimit:4;stroke-opacity:1;stroke-dasharray:none"/>
    <path d="m 3,2 0,10 2.000077,0 0,-3.5 2.500097,0 c 1.976154,3e-7 3.500135,-1 3.500135,-3.25 C 11.000309,3 9.4871,2.0000002 7.968942,2 z m 2.000077,2 2.500097,0 c 0.963608,0 1.500058,0.5254308 1.500058,1.25 0,0.7245692 -0.631804,1.25 -1.500058,1.25 l -2.500097,0 z m 7.50029,5.5 0,1.25 -3.000116,0 0,-0.25 0.50002,0 c 0.479412,0 0.455442,-0.5 0,-0.5 l -1.500058,0 c -0.50002,0 -0.50002,0.452061 0,0.5 l 0.500019,0 0,0.25 -0.562522,1.28125 C 8.296384,12.001436 8.147956,12 8.000193,12 c -1.02182,0 -2.000077,0.793929 -2.000077,2 0,1.206071 0.978257,2 2.000077,2 1.02182,0 1.937575,-0.856429 1.937575,-2.0625 0,-0.150759 -0.0039,-0.302075 -0.03125,-0.4375 l 0.843783,0 1.821945,-2 0.365639,0.78125 c -0.5546,0.334587 -0.937537,0.948434 -0.937537,1.71875 0,1.206071 0.978257,2 2.000077,2 C 15.022246,16 15.938,15.143571 15.938,13.9375 15.938,12.731429 15.022246,12 14.000425,12 c -0.15008,0 -0.292278,0.02946 -0.437517,0.0625 l -0.562522,-1.3125 0,-0.5 z m -3.093869,2 2.193834,0 -1.193796,1.25 -0.843782,0 C 9.422636,12.56342 9.258266,12.401358 9.062734,12.28125 z M 8.000193,13 c 0.635098,0 1.000039,0.549217 1.000039,1 0,0.450783 -0.364941,1 -1.000039,1 -0.635098,0 -1.000038,-0.549217 -1.000038,-1 0,-0.450783 0.36494,-1 1.000038,-1 z m 6.000232,0 c 0.635099,0 1.000039,0.549217 1.000039,1 0,0.450783 -0.36494,1 -1.000039,1 -0.635098,0 -1.000039,-0.549217 -1.000039,-1 0,-0.450783 0.364941,-1 1.000039,-1 z" id="icon" style="fill:#1a1a1a;fill-rule:evenodd"/>
  </g>
</svg>