<?xml version="1.0" encoding="UTF-8" standalone="no"?>
<!-- Created with Inkscape (http://www.inkscape.org/) -->

<svg
   xmlns:dc="http://purl.org/dc/elements/1.1/"
   xmlns:cc="http://creativecommons.org/ns#"
   xmlns:rdf="http://www.w3.org/1999/02/22-rdf-syntax-ns#"
   xmlns:svg="http://www.w3.org/2000/svg"
   xmlns="http://www.w3.org/2000/svg"
   version="1.1"
   width="100%"
   height="100%"
   viewBox="0 0 16 16"
   id="svg2">
  <metadata
     id="metadata8">
    <rdf:RDF>
      <cc:Work
         rdf:about="">
        <dc:format>image/svg+xml</dc:format>
        <dc:type
           rdf:resource="http://purl.org/dc/dcmitype/StillImage" />
        <dc:title></dc:title>
      </cc:Work>
    </rdf:RDF>
  </metadata>
  <defs
     id="defs6" />
  <rect
     width="16"
     height="16"
     x="0"
     y="0"
     id="canvas"
     style="fill:none;stroke:none;visibility:hidden" />
  <path
     d="m 2,1 0,10 2,0 0,-3.5 2.5,0 c 1.9760775,3e-7 3.5,-1 3.5,-3.25 C 10,2 8.4868489,1.0000002 6.96875,1 z M 4,3 6.5,3 C 7.4635709,3 8,3.5254308 8,4.25 8,4.9745692 7.3682202,5.5 6.5,5.5 L 4,5.5 z m 7.5,5.5 0,1.25 -3,0 0,-0.25 0.5,0 C 9.4793944,9.5 9.4554247,9 9,9 L 7.5,9 C 7,9 7,9.4520606 7.5,9.5 L 8,9.5 8,9.75 7.4375,11.03125 C 7.2961795,11.001436 7.1477575,11 7,11 c -1.0217808,0 -2,0.793929 -2,2 0,1.206071 0.9782192,2 2,2 1.0217808,0 1.9375,-0.856429 1.9375,-2.0625 0,-0.150759 -0.00387,-0.302075 -0.03125,-0.4375 l 0.84375,0 1.821875,-2 0.365625,0.78125 C 11.382922,11.615837 11,12.229684 11,13 c 0,1.206071 0.978219,2 2,2 1.021781,0 1.9375,-0.856429 1.9375,-2.0625 C 14.9375,11.731429 14.021781,11 13,11 c -0.150074,0 -0.292267,0.02946 -0.4375,0.0625 L 12,9.75 12,9.25 z m -3.09375,2 2.19375,0 -1.19375,1.25 -0.84375,0 C 8.4223877,11.56342 8.258024,11.401358 8.0625,11.28125 z M 7,12 c 0.6350736,0 1,0.549217 1,1 0,0.450783 -0.3649264,1 -1,1 -0.6350736,0 -1,-0.549217 -1,-1 0,-0.450783 0.3649264,-1 1,-1 z m 6,0 c 0.635074,0 1,0.549217 1,1 0,0.450783 -0.364926,1 -1,1 -0.635074,0 -1,-0.549217 -1,-1 0,-0.450783 0.364926,-1 1,-1 z"
     id="parking-bicycle"
     style="fill:#1a1a1a;fill-rule:evenodd" />
</svg>
