<?xml version="1.0" encoding="UTF-8" standalone="no"?>
<!-- Created with Inkscape (http://www.inkscape.org/) -->

<svg
   xmlns:dc="http://purl.org/dc/elements/1.1/"
   xmlns:cc="http://creativecommons.org/ns#"
   xmlns:rdf="http://www.w3.org/1999/02/22-rdf-syntax-ns#"
   xmlns:svg="http://www.w3.org/2000/svg"
   xmlns="http://www.w3.org/2000/svg"
   version="1.1"
   width="100%"
   height="100%"
   viewBox="0 0 18 18"
   id="svg2">
  <metadata
     id="metadata8">
    <rdf:RDF>
      <cc:Work
         rdf:about="">
        <dc:format>image/svg+xml</dc:format>
        <dc:type
           rdf:resource="http://purl.org/dc/dcmitype/StillImage" />
        <dc:title></dc:title>
      </cc:Work>
    </rdf:RDF>
  </metadata>
  <defs
     id="defs6" />
  <rect
     width="18"
     height="18"
     x="0"
     y="0"
     id="canvas"
     style="fill:none;stroke:none;visibility:hidden" />
  <g
     id="biergarten">
    <path
       d="M 5,2 C 4,2 3,3 3,4 l 0,10 c 0,1 -1,2 -1,2 l 11,0 c 0,0 -1,-1 -1,-2 l 3,0 c 1,0 1,-1 1,-1 L 16,7 C 16,6 15,5 14,5 L 12,5 12,4 C 12,2.7603028 11.263667,2 10,2 z m 1,1 3,0 c 1.380981,0 2,0.3528175 2,1 C 8,4 5.85459,4.19773 6,7 6,9 4,9 4,7 L 4,5 C 4,3.4966359 4.4966359,3 6,3 z m 6,3.5 1,0 c 0.690253,0 1.5,0.027334 1.5,1.5 l 0,4.5 -2.5,0 z m -8,7.5 7,0 0,1 -7,0 z"
       id="halo"
       style="opacity:0.3;fill:#ffffff;fill-opacity:1;stroke:#ffffff;stroke-width:2;stroke-miterlimit:4;stroke-opacity:1;stroke-dasharray:none" />
    <path
       d="M 5,2 C 4,2 3,3 3,4 l 0,10 c 0,1 -1,2 -1,2 l 11,0 c 0,0 -1,-1 -1,-2 l 3,0 c 1,0 1,-1 1,-1 L 16,7 C 16,6 15,5 14,5 L 12,5 12,4 C 12,2.7603028 11.263667,2 10,2 z m 1,1 3,0 c 1.380981,0 2,0.3528175 2,1 C 8,4 5.85459,4.19773 6,7 6,9 4,9 4,7 L 4,5 C 4,3.4966359 4.496636,3 6,3 z m 6,3.5 1,0 c 0.690253,0 1.5,0.027334 1.5,1.5 l 0,4.5 -2.5,0 z m -8,7.5 7,0 0,1 -7,0 z"
       id="icon"
       style="fill:#1a1a1a;fill-opacity:1;stroke:none" />
  </g>
</svg>
