<?xml version="1.0" encoding="UTF-8" standalone="no"?>
<svg
   xmlns:dc="http://purl.org/dc/elements/1.1/"
   xmlns:cc="http://creativecommons.org/ns#"
   xmlns:rdf="http://www.w3.org/1999/02/22-rdf-syntax-ns#"
   xmlns:svg="http://www.w3.org/2000/svg"
   xmlns="http://www.w3.org/2000/svg"
   viewBox="0 0 14 14"
   version="1.1"
   id="svg3800"
   height="14"
   width="14">
  <defs
     id="defs3802" />
  <metadata
     id="metadata3805">
    <rdf:RDF>
      <cc:Work
         rdf:about="">
        <dc:format>image/svg+xml</dc:format>
        <dc:type
           rdf:resource="http://purl.org/dc/dcmitype/StillImage" />
        <dc:title></dc:title>
      </cc:Work>
    </rdf:RDF>
  </metadata>
  <path
     id="rect239-1"
     d="M 3.0710695,0.10833 V 2.015194 H 5.7318342 V 0.10833 Z m 5.2096283,0 V 2.015194 H 10.945605 V 0.10833 Z m 0,2.5037956 v 5.2646027 c 0,0.2525691 0.2033707,0.4559935 0.4558908,0.4559935 h 0.033149 0.4227382 v 5.1029302 c 0,0.244081 0.1994286,0.443555 0.4434623,0.443555 h 3.9124009 c 0.244028,0 0.443463,-0.19947 0.443463,-0.443555 v -3.17534 L 14,9.7960303 12.3049,2.6121256 Z M 1.6992419,2.6204383 0,9.8043411 0.00831104,10.272767 v 3.175343 c 7.43e-6,0.244086 0.19944083,0.44356 0.44346846,0.44356 h 3.9124021 c 0.2482716,0 0.4476051,-0.19947 0.4476051,-0.443553 V 8.3493131 h 0.4185857 0.033155 c 0.2525149,0 0.455894,-0.2075714 0.455894,-0.4601346 V 2.6204164 Z m 4.6086768,0 V 7.5160781 H 7.6880332 V 2.6204164 Z"
     style="fill:#010101;stroke-width:2.12220192" />
</svg>
