<?xml version="1.0" encoding="UTF-8" standalone="no"?>
<svg
   xmlns:dc="http://purl.org/dc/elements/1.1/"
   xmlns:cc="http://creativecommons.org/ns#"
   xmlns:rdf="http://www.w3.org/1999/02/22-rdf-syntax-ns#"
   xmlns:svg="http://www.w3.org/2000/svg"
   xmlns="http://www.w3.org/2000/svg"
   width="14"
   height="14"
   id="svg3800"
   version="1.1"
   viewBox="0 0 14 14">
  <defs
     id="defs3802" />
  <metadata
     id="metadata3805">
    <rdf:RDF>
      <cc:Work
         rdf:about="">
        <dc:format>image/svg+xml</dc:format>
        <dc:type
           rdf:resource="http://purl.org/dc/dcmitype/StillImage" />
        <dc:title></dc:title>
      </cc:Work>
    </rdf:RDF>
  </metadata>
  <g
     transform="translate(1.5520395,2.8104498)"
     id="g97">
    <g
       id="g105">
      <path
         id="path818-3"
         transform="translate(-1.5520395,-2.8104498)"
         d="M 11 0 C 9.8954305 -1e-007 8.9999999 0.8954305 9 2 C 9.00107 2.3513949 9.3232274 2.6963044 9.5 3 L 12.5 3 C 12.67609 2.696115 12.999519 2.3512172 13 2 C 13 0.8954303 12.104569 -3e-007 11 0 z M 9.5 4 L 9.5 5 L 12.5 5 L 12.5 4 L 9.5 4 z M 9.5 6 C 9.2156306 6.5752845 8.8489337 7.2576044 8.5488281 8 A 4.2222223 4.4444442 0 0 1 9 10 A 4.2222223 4.4444442 0 0 1 8.3730469 12.318359 C 8.578129 12.913881 8.8249294 13.482017 9 14 L 13 14 C 13.350634 12.956902 13.999701 11.716901 14 10.445312 C 13.999882 8.7729298 13.076063 7.1701786 12.5 6 L 9.5 6 z M 4 6.0546875 A 4 4 0 0 0 0 10.054688 A 4 4 0 0 0 4 14.054688 A 4 4 0 0 0 8 10.054688 A 4 4 0 0 0 4 6.0546875 z M 4 7 A 1 1 0 0 1 5 8 A 1 1 0 0 1 4 9 A 1 1 0 0 1 3 8 A 1 1 0 0 1 4 7 z M 6 9 A 1 1 0 0 1 7 10 A 1 1 0 0 1 6 11 A 1 1 0 0 1 5 10 A 1 1 0 0 1 6 9 z M 3.5 9.5 A 1 1 0 0 1 4.5 10.5 A 1 1 0 0 1 3.5 11.5 A 1 1 0 0 1 2.5 10.5 A 1 1 0 0 1 3.5 9.5 z "
         style="fill:#000000;fill-opacity:1;stroke:none;stroke-width:3.41398311;stroke-linecap:square;stroke-miterlimit:4;stroke-dasharray:none;stroke-opacity:1;paint-order:markers stroke fill" />
    </g>
  </g>
</svg>
