<?xml version="1.0" encoding="UTF-8" standalone="no"?>
<svg
   xmlns:dc="http://purl.org/dc/elements/1.1/"
   xmlns:cc="http://creativecommons.org/ns#"
   xmlns:rdf="http://www.w3.org/1999/02/22-rdf-syntax-ns#"
   xmlns:svg="http://www.w3.org/2000/svg"
   xmlns="http://www.w3.org/2000/svg"
   viewBox="0 0 14 14"
   height="14"
   width="14"
   id="svg109"
   version="1.1">
  <metadata
     id="metadata115">
    <rdf:RDF>
      <cc:Work
         rdf:about="">
        <dc:format>image/svg+xml</dc:format>
        <dc:type
           rdf:resource="http://purl.org/dc/dcmitype/StillImage" />
        <dc:title></dc:title>
      </cc:Work>
    </rdf:RDF>
  </metadata>
  <defs
     id="defs113" />
  <path
     id="text4497-3"
     d="M 2.703125 0 L 2.703125 0.5 C 1.9649806 0.56982823 1.4084613 0.75996442 1.0332031 1.0703125 C 0.47237874 1.5319556 0.19140625 2.1360236 0.19140625 2.8808594 C 0.19140625 3.2998294 0.28687479 3.6741613 0.4765625 4.0039062 C 0.67037707 4.3336515 0.94419032 4.591135 1.2988281 4.7773438 C 1.7771796 5.029502 2.2453928 5.1958765 2.703125 5.2773438 L 2.703125 8.6113281 C 2.266011 8.5686499 1.8915274 8.3626523 1.578125 7.9902344 C 1.3595696 7.726438 1.2057382 7.3125055 1.1191406 6.75 L 0 6.9472656 C 0.04123647 7.4903743 0.18790645 7.9498743 0.43945312 8.3261719 C 0.69512452 8.7024692 0.99540637 8.9777467 1.3417969 9.1484375 C 1.6923122 9.315248 2.1464232 9.4301438 2.703125 9.4960938 L 2.703125 10 L 3.359375 10 L 3.359375 9.484375 C 4.138758 9.4494565 4.7729506 9.1899975 5.2636719 8.7050781 C 5.7543943 8.2201587 6 7.6160635 6 6.890625 C 6 6.5608803 5.9398993 6.2538956 5.8203125 5.9707031 C 5.704843 5.6875091 5.53887 5.4419326 5.3203125 5.2363281 C 5.101756 5.0307221 4.8190479 4.8564264 4.4726562 4.7128906 C 4.2912115 4.6391816 3.9202005 4.5361954 3.359375 4.4042969 L 3.359375 1.3847656 C 3.7222623 1.4545946 4.0067051 1.6011427 4.2128906 1.8222656 C 4.4232008 2.0395095 4.5609737 2.3524604 4.6269531 2.7636719 L 5.7773438 2.6015625 C 5.6783751 1.9381933 5.3850362 1.4153328 4.8984375 1.0351562 C 4.5190567 0.73644623 4.0067992 0.55819026 3.359375 0.5 L 3.359375 0 L 2.703125 0 z M 2.703125 1.3730469 L 2.703125 4.2714844 C 2.195908 4.1279485 1.8355265 3.9358323 1.6210938 3.6953125 C 1.4107846 3.4547925 1.3046875 3.1557286 1.3046875 2.7988281 C 1.3046875 2.4380485 1.4283657 2.1251241 1.6757812 1.8613281 C 1.927328 1.5975321 2.2701347 1.4351166 2.703125 1.3730469 z M 12.070312 5 C 11.272662 5 10.542827 5.1731994 9.8808594 5.5214844 C 8.8077316 6.0834897 8.1435911 7.0105437 7.8886719 8.3007812 L 7.171875 8.3007812 L 7 9.0957031 L 7.8085938 9.0957031 C 7.8044821 9.1788166 7.8027344 9.2606881 7.8027344 9.3398438 C 7.8027344 9.5337752 7.8079777 9.7146325 7.8203125 9.8808594 L 7.171875 9.8808594 L 7 10.675781 L 7.9433594 10.675781 C 8.0379262 11.103222 8.1516319 11.466787 8.2832031 11.767578 C 8.9369476 13.255705 10.192338 14 12.050781 14 C 12.671633 14 13.239956 13.885801 13.753906 13.65625 L 13.753906 12.433594 C 13.322188 12.821457 12.721994 13.013672 11.953125 13.013672 C 11.40217 13.013672 10.88885 12.878556 10.416016 12.605469 C 9.7581595 12.225522 9.3445622 11.582114 9.171875 10.675781 L 12.839844 10.675781 L 13.013672 9.8808594 L 9.0410156 9.8808594 C 9.036904 9.8214926 9.0351562 9.6387337 9.0351562 9.3339844 C 9.0351562 9.2587865 9.036904 9.1788166 9.0410156 9.0957031 L 13.179688 9.0957031 L 13.345703 8.3007812 L 9.140625 8.3007812 C 9.181741 7.976243 9.3166254 7.6335958 9.546875 7.2734375 C 9.773013 6.9251525 10.027052 6.6567705 10.306641 6.4667969 C 10.775363 6.1462164 11.354173 5.9863281 12.044922 5.9863281 C 12.68222 5.9863281 13.252291 6.1862013 13.753906 6.5859375 L 14 5.4804688 C 13.477827 5.1598883 12.83507 5 12.070312 5 z M 3.359375 5.4238281 C 3.9573154 5.606158 4.3547961 5.8141138 4.5527344 6.046875 C 4.7547962 6.275757 4.8554687 6.5788083 4.8554688 6.9589844 C 4.8554688 7.4051099 4.7142297 7.7794411 4.4296875 8.0820312 C 4.1492743 8.3846209 3.7923664 8.5608974 3.359375 8.6113281 L 3.359375 5.4238281 z "
     style="font-style:normal;font-weight:normal;font-size:61.96160507px;line-height:1.25;font-family:sans-serif;letter-spacing:0px;word-spacing:0px;fill:#000000;fill-opacity:1;stroke:none;stroke-width:1.54904032" />
</svg>
