<?xml version="1.0" encoding="UTF-8" standalone="no"?>
<svg
   xmlns:dc="http://purl.org/dc/elements/1.1/"
   xmlns:cc="http://creativecommons.org/ns#"
   xmlns:rdf="http://www.w3.org/1999/02/22-rdf-syntax-ns#"
   xmlns:svg="http://www.w3.org/2000/svg"
   xmlns="http://www.w3.org/2000/svg"
   viewBox="0 0 14 14"
   height="14"
   width="14"
   id="svg109"
   version="1.1">
  <metadata
     id="metadata115">
    <rdf:RDF>
      <cc:Work
         rdf:about="">
        <dc:format>image/svg+xml</dc:format>
        <dc:type
           rdf:resource="http://purl.org/dc/dcmitype/StillImage" />
        <dc:title></dc:title>
      </cc:Work>
    </rdf:RDF>
  </metadata>
  <defs
     id="defs113" />
  <g
     id="text4497-3"
     style="font-style:normal;font-weight:normal;font-size:61.96160507px;line-height:1.25;font-family:sans-serif;letter-spacing:0px;word-spacing:0px;fill:#000000;fill-opacity:1;stroke:none;stroke-width:1.54904032"
     transform="scale(1.019247,0.98111647)"
     aria-label="€">
    <path
       id="path823"
       transform="scale(0.98111645,1.019247)"
       d="M 2.5 0 L 2.5 0.4765625 C 1.8659727 0.55235169 1.371795 0.71086899 1.0332031 0.96289062 C 0.47237881 1.3783695 0.19140625 1.9214446 0.19140625 2.5917969 C 0.19140625 2.9688699 0.28687445 3.3067452 0.4765625 3.6035156 C 0.670377 3.9002864 0.94419039 4.1312402 1.2988281 4.2988281 C 1.707327 4.4926307 2.1065386 4.6194011 2.5 4.7011719 L 2.5 7.7128906 C 2.1497621 7.640645 1.8411961 7.4727543 1.578125 7.1914062 C 1.3595696 6.9539896 1.2057382 6.5804737 1.1191406 6.0742188 L 0 6.2539062 C 0.0412365 6.742704 0.18790646 7.1554728 0.43945312 7.4941406 C 0.69512452 7.8328082 0.99540631 8.0788001 1.3417969 8.2324219 C 1.6453278 8.3624274 2.0418541 8.4517363 2.5 8.5136719 L 2.5 9 L 3.5 9 L 3.5 8.5214844 C 4.2130874 8.4680825 4.8039395 8.2428515 5.2636719 7.8339844 C 5.7543943 7.3975569 6 6.8540666 6 6.2011719 C 6 5.9044017 5.9398993 5.6279202 5.8203125 5.3730469 C 5.704843 5.1181723 5.53887 4.8979347 5.3203125 4.7128906 C 5.101756 4.5278452 4.8190479 4.3713697 4.4726562 4.2421875 C 4.3141356 4.1842307 3.9480938 4.0979298 3.5 4 L 3.5 1.2890625 C 3.7907054 1.3596864 4.0366613 1.468575 4.2128906 1.6386719 C 4.4232008 1.8341914 4.5609737 2.1181911 4.6269531 2.4882812 L 5.7773438 2.3417969 C 5.6783751 1.7447646 5.3850362 1.2737995 4.8984375 0.93164062 C 4.5497402 0.68454476 4.0751364 0.54078958 3.5 0.4765625 L 3.5 0 L 2.5 0 z M 10.597656 0 L 8 1.5 L 10.597656 3 L 10.597656 1.9980469 C 11.383924 2.0514049 11.994824 2.7041116 11.996094 3.4921875 C 11.995686 3.6653757 11.96529 3.8371851 11.90625 4 L 12.941406 4 C 12.976926 3.8330401 12.995244 3.6628815 12.996094 3.4921875 C 12.995102 2.1516977 11.93704 1.0505504 10.597656 0.99609375 L 10.597656 0 z M 2.5 1.2890625 L 2.5 3.7734375 C 2.1104935 3.6529187 1.8020644 3.50886 1.6210938 3.3261719 C 1.4107846 3.1097039 1.3046875 2.8407419 1.3046875 2.5195312 C 1.3046875 2.1948296 1.4283658 1.913198 1.6757812 1.6757812 C 1.8834568 1.4797717 2.1686518 1.361324 2.5 1.2890625 z M 3.5 4.9296875 C 4.0076146 5.0822174 4.3734137 5.2516249 4.5527344 5.4414062 C 4.7547962 5.6474 4.8554687 5.9215134 4.8554688 6.2636719 C 4.8554688 6.6651849 4.7142297 7.0011063 4.4296875 7.2734375 C 4.1826427 7.5133616 3.8654704 7.6491118 3.5 7.7128906 L 3.5 4.9296875 z M 12.070312 5 C 11.272662 5 10.542827 5.1731994 9.8808594 5.5214844 C 8.8077316 6.0834897 8.2982708 6.7650052 7.8886719 8 L 7.171875 8 L 7 9 L 7.8085938 9 C 7.8088302 9.3387519 7.7926624 9.6596751 7.8203125 10 L 7.171875 10 L 7 11 L 7.9433594 11 C 8.0379262 11.42744 8.0461631 11.49413 8.1777344 11.794922 C 8.8314789 13.283049 10.192337 14 12.050781 14 C 12.671633 14 13.239956 13.885802 13.753906 13.65625 L 13.753906 12.433594 C 13.322189 12.821457 12.721995 13.013672 11.953125 13.013672 C 11.40217 13.013672 10.888849 12.878556 10.416016 12.605469 C 9.7581597 12.225522 9.3445622 11.906332 9.171875 11 L 12.839844 11 L 13.013672 10 L 9.0410156 10 C 9.0382229 9.6668555 9.0283749 9.3332043 9.0410156 9 L 13.179688 9 L 13.345703 8 L 9.140625 8 C 9.181741 7.6754618 9.2404535 7.6003927 9.4707031 7.2402344 C 9.6968411 6.8919494 10.027052 6.6567706 10.306641 6.4667969 C 10.775363 6.1462164 11.354173 5.9863281 12.044922 5.9863281 C 12.68222 5.9863281 13.252291 6.1862013 13.753906 6.5859375 L 14 5.4804688 C 13.477827 5.1598883 12.83507 5 12.070312 5 z M 1.0585938 9.9980469 C 1.0230738 10.165006 1.0047573 10.335165 1.0039062 10.505859 C 1.0048964 11.846349 2.0629598 12.947496 3.4023438 13.001953 L 3.4023438 14 L 6 12.5 L 3.4023438 11 L 3.4023438 12 C 2.6160755 11.94664 2.0051762 11.293935 2.0039062 10.505859 C 2.0043146 10.332671 2.034711 10.160861 2.09375 9.9980469 L 1.0585938 9.9980469 z "
       style="font-style:normal;font-variant:normal;font-weight:normal;font-stretch:normal;font-size:12.39232254px;font-family:Arial;-inkscape-font-specification:Arial;fill:#000000;stroke-width:1.54904032" />
  </g>
</svg>
