<?xml version="1.0" encoding="UTF-8" standalone="no"?>
<svg
   xmlns:dc="http://purl.org/dc/elements/1.1/"
   xmlns:cc="http://creativecommons.org/ns#"
   xmlns:rdf="http://www.w3.org/1999/02/22-rdf-syntax-ns#"
   xmlns:svg="http://www.w3.org/2000/svg"
   xmlns="http://www.w3.org/2000/svg"
   viewBox="0 0 14 14"
   height="14"
   width="14"
   id="svg109"
   version="1.1">
  <metadata
     id="metadata115">
    <rdf:RDF>
      <cc:Work
         rdf:about="">
        <dc:format>image/svg+xml</dc:format>
        <dc:type
           rdf:resource="http://purl.org/dc/dcmitype/StillImage" />
        <dc:title></dc:title>
      </cc:Work>
    </rdf:RDF>
  </metadata>
  <defs
     id="defs113" />
  <path
     id="text4497-3"
     d="M 2.703125 0 L 2.703125 0.45117188 C 1.9649806 0.51401728 1.4084613 0.68357736 1.0332031 0.96289062 C 0.47237874 1.3783695 0.19140625 1.9214446 0.19140625 2.5917969 C 0.19140625 2.9688699 0.28687479 3.3067452 0.4765625 3.6035156 C 0.67037707 3.9002864 0.94419032 4.1312402 1.2988281 4.2988281 C 1.7771796 4.5257706 2.2453928 4.6766795 2.703125 4.75 L 2.703125 7.75 C 2.266011 7.7115896 1.8915274 7.5265823 1.578125 7.1914062 C 1.3595696 6.9539896 1.2057382 6.5804738 1.1191406 6.0742188 L 0 6.2539062 C 0.04123647 6.742704 0.18790645 7.1554728 0.43945312 7.4941406 C 0.69512452 7.8328082 0.99540637 8.0788001 1.3417969 8.2324219 C 1.6923122 8.3825513 2.1464232 8.4875201 2.703125 8.546875 L 2.703125 9 L 3.359375 9 L 3.359375 8.5371094 C 4.138758 8.5056828 4.7729506 8.2704118 5.2636719 7.8339844 C 5.7543943 7.3975569 6 6.8540666 6 6.2011719 C 6 5.9044017 5.9398993 5.6279202 5.8203125 5.3730469 C 5.704843 5.1181723 5.53887 4.8979347 5.3203125 4.7128906 C 5.101756 4.5278452 4.8190479 4.3713697 4.4726562 4.2421875 C 4.2912115 4.1758494 3.9202005 4.0835524 3.359375 3.9648438 L 3.359375 1.2460938 C 3.7222623 1.3089397 4.0067051 1.4396613 4.2128906 1.6386719 C 4.4232008 1.8341914 4.5609737 2.1181909 4.6269531 2.4882812 L 5.7773438 2.3417969 C 5.6783751 1.7447646 5.3850362 1.2737995 4.8984375 0.93164062 C 4.5190567 0.6628016 4.0067992 0.5035431 3.359375 0.45117188 L 3.359375 0 L 2.703125 0 z M 10.597656 0 L 8 1.5 L 10.597656 3 L 10.597656 1.9980469 C 11.383924 2.0514049 11.994824 2.7041116 11.996094 3.4921875 C 11.995686 3.6653757 11.96529 3.8371851 11.90625 4 L 12.941406 4 C 12.976926 3.8330401 12.995244 3.6628815 12.996094 3.4921875 C 12.995104 2.1516977 11.93704 1.0505504 10.597656 0.99609375 L 10.597656 0 z M 2.703125 1.2363281 L 2.703125 3.84375 C 2.195908 3.7145677 1.8355265 3.5426398 1.6210938 3.3261719 C 1.4107846 3.1097039 1.3046875 2.8407418 1.3046875 2.5195312 C 1.3046875 2.1948296 1.4283657 1.9131977 1.6757812 1.6757812 C 1.927328 1.4383648 2.2701347 1.2921908 2.703125 1.2363281 z M 3.359375 4.8808594 C 3.9573154 5.0449563 4.3547961 5.2319211 4.5527344 5.4414062 C 4.7547962 5.6474 4.8554687 5.9215134 4.8554688 6.2636719 C 4.8554688 6.6651849 4.7142297 7.0011063 4.4296875 7.2734375 C 4.1492743 7.5457682 3.7923664 7.7046123 3.359375 7.75 L 3.359375 4.8808594 z M 12.070312 5 C 11.272662 5 10.542827 5.1731994 9.8808594 5.5214844 C 8.8077316 6.0834897 8.1435911 7.0105437 7.8886719 8.3007812 L 7.171875 8.3007812 L 7 9.0957031 L 7.8085938 9.0957031 C 7.8044821 9.1788166 7.8027344 9.2606881 7.8027344 9.3398438 C 7.8027344 9.5337752 7.8079777 9.7146325 7.8203125 9.8808594 L 7.171875 9.8808594 L 7 10.675781 L 7.9433594 10.675781 C 8.0379262 11.103222 8.1516319 11.466787 8.2832031 11.767578 C 8.9369476 13.255705 10.192338 14 12.050781 14 C 12.671633 14 13.239956 13.885801 13.753906 13.65625 L 13.753906 12.433594 C 13.322188 12.821457 12.721994 13.013672 11.953125 13.013672 C 11.40217 13.013672 10.88885 12.878556 10.416016 12.605469 C 9.7581595 12.225522 9.3445622 11.582114 9.171875 10.675781 L 12.839844 10.675781 L 13.013672 9.8808594 L 9.0410156 9.8808594 C 9.036904 9.8214926 9.0351562 9.6387337 9.0351562 9.3339844 C 9.0351562 9.2587865 9.036904 9.1788166 9.0410156 9.0957031 L 13.179688 9.0957031 L 13.345703 8.3007812 L 9.140625 8.3007812 C 9.181741 7.976243 9.3166254 7.6335958 9.546875 7.2734375 C 9.773013 6.9251525 10.027052 6.6567705 10.306641 6.4667969 C 10.775363 6.1462164 11.354173 5.9863281 12.044922 5.9863281 C 12.68222 5.9863281 13.252291 6.1862013 13.753906 6.5859375 L 14 5.4804688 C 13.477827 5.1598883 12.83507 5 12.070312 5 z M 1.0585938 9.9980469 C 1.0230738 10.165006 1.0047563 10.335165 1.0039062 10.505859 C 1.0048963 11.846349 2.0629598 12.947496 3.4023438 13.001953 L 3.4023438 14 L 6 12.5 L 3.4023438 11 L 3.4023438 12 C 2.6160757 11.94664 2.0051762 11.293935 2.0039062 10.505859 C 2.0043144 10.332671 2.034711 10.160861 2.09375 9.9980469 L 1.0585938 9.9980469 z "
     style="font-style:normal;font-weight:normal;font-size:61.96160507px;line-height:1.25;font-family:sans-serif;letter-spacing:0px;word-spacing:0px;fill:#000000;fill-opacity:1;stroke:none;stroke-width:1.54904032" />
</svg>
