<?xml version="1.0" encoding="UTF-8" standalone="no"?>
<svg
   xmlns:dc="http://purl.org/dc/elements/1.1/"
   xmlns:cc="http://creativecommons.org/ns#"
   xmlns:rdf="http://www.w3.org/1999/02/22-rdf-syntax-ns#"
   xmlns:svg="http://www.w3.org/2000/svg"
   xmlns="http://www.w3.org/2000/svg"
   version="1.1"
   width="100%"
   height="100%"
   viewBox="0 0 14 14"
   id="svg2">
  <metadata
     id="metadata8">
    <rdf:RDF>
      <cc:Work
         rdf:about="">
        <dc:format>image/svg+xml</dc:format>
        <dc:type
           rdf:resource="http://purl.org/dc/dcmitype/StillImage" />
        <dc:title></dc:title>
      </cc:Work>
    </rdf:RDF>
  </metadata>
  <defs
     id="defs6" />
  <rect
     width="14"
     height="14"
     x="0"
     y="0"
     id="canvas"
     style="fill:none;stroke:none;visibility:hidden" />
  <g
     id="layer1"
     style="display:inline">
    <rect
       style="opacity:1;fill:#0092da;fill-opacity:1;fill-rule:evenodd;stroke:none;stroke-opacity:1"
       id="rect4185"
       width="14"
       height="14"
       x="0"
       y="0" />
  </g>
  <g
     id="layer2"
     style="display:inline">
    <path
       d="M 6,1 C 4,1 2,3 2,7 l 0,4 1,0 c 0,0.515625 0,1.5 1,1.5 1,0 1,-0.984375 1,-1.5 l 4,0 c 0,0.484375 0,1.5 1,1.5 1,0 1,-1.015625 1,-1.5 l 1,0 0,-4 C 12,3 10,1 8,1 Z M 5,3 9,3 c 0.527334,0 1,1 1,4 L 4,6.96875 C 4,4 4.503364,3 5,3 Z m -1,5 2,0 0,2 -2,0 z m 4,0 2,0 0,2 -2,0 z"
       id="bus-station"
       style="fill:#ffffff;fill-opacity:1;stroke:none" />
  </g>
</svg>
