<?xml version="1.0" encoding="UTF-8" standalone="no"?>
<!-- Created with Inkscape (http://www.inkscape.org/) -->

<svg
   xmlns="http://www.w3.org/2000/svg"
   version="1.1"
   width="100%"
   height="100%"
   viewBox="0 0 16 16">
  <rect
     width="16"
     height="16"
     x="0"
     y="0"
     style="fill:none;stroke:none;visibility:hidden" />
  <path
     d="M 4,1 C 3,1 2,2 2,3 l 0,10.484375 1,0 C 3,14 3,15 4,15 5,15 5,14 5,13.484375 l 6,0.03125 C 11,14 11,15 12,15 c 1,0 1,-1 1,-1.484375 l 1,0 L 14,3 C 14,2 13,1 12,1 z m 1,1 6,0 0,1 -6,0 z M 4,3.96875 12,4 12,8 4,7.96875 z M 5,10 c 0.5522847,0 1,0.447715 1,1 0,0.552284 -0.4477153,1 -1,1 -0.5522847,0 -1,-0.447716 -1,-1 0,-0.552285 0.4477153,-1 1,-1 z m 6,0 c 0.552285,0 1,0.447715 1,1 0,0.552284 -0.447715,1 -1,1 -0.552285,0 -1,-0.447716 -1,-1 0,-0.552285 0.447715,-1 1,-1 z" />
</svg>
