<?xml version="1.0" encoding="utf-8"?>
<!-- Generator: Adobe Illustrator 14.0.0, SVG Export Plug-In . SVG Version: 6.00 Build 43363)  -->
<!DOCTYPE svg PUBLIC "-//W3C//DTD SVG 1.1//EN" "http://www.w3.org/Graphics/SVG/1.1/DTD/svg11.dtd">
<svg version="1.1"
	 id="svg2" xmlns:rdf="http://www.w3.org/1999/02/22-rdf-syntax-ns#" sodipodi:docname="shopping_butcher2.svg" inkscape:version="0.48.0 r9654" xmlns:svg="http://www.w3.org/2000/svg" xmlns:sodipodi="http://sodipodi.sourceforge.net/DTD/sodipodi-0.dtd" xmlns:inkscape="http://www.inkscape.org/namespaces/inkscape" xmlns:dc="http://purl.org/dc/elements/1.1/" sodipodi:version="0.32" xmlns:cc="http://creativecommons.org/ns#" inkscape:output_extension="org.inkscape.output.svg.inkscape"
	 xmlns="http://www.w3.org/2000/svg" xmlns:xlink="http://www.w3.org/1999/xlink" x="0px" y="0px" width="580px" height="580px"
	 viewBox="0 0 580 580" enable-background="new 0 0 580 580" xml:space="preserve">
<sodipodi:namedview  showgrid="false" inkscape:current-layer="svg2" inkscape:window-y="24" inkscape:window-x="97" inkscape:cy="229.13057" inkscape:cx="300.45434" inkscape:zoom="1.0610557" pagecolor="#ffffff" bordercolor="#666666" borderopacity="1.0" objecttolerance="10.0" gridtolerance="10.0" guidetolerance="10.0" inkscape:window-height="1002" inkscape:window-width="1280" inkscape:pageshadow="2" inkscape:pageopacity="0.0" inkscape:window-maximized="0" id="base">
	</sodipodi:namedview>
<defs>
	
	
		<inkscape:perspective  inkscape:persp3d-origin="290 : 193.33333 : 1" inkscape:vp_z="580 : 290 : 1" inkscape:vp_y="0 : 1000 : 0" inkscape:vp_x="0 : 290 : 1" sodipodi:type="inkscape:persp3d" id="perspective12">
		</inkscape:perspective>
	
		<inkscape:perspective  inkscape:persp3d-origin="29.116032 : 19.410688 : 1" inkscape:vp_z="58.232063 : 29.116032 : 1" inkscape:vp_y="0 : 1000 : 0" inkscape:vp_x="0 : 29.116032 : 1" sodipodi:type="inkscape:persp3d" id="perspective6807">
		</inkscape:perspective>
	
		<inkscape:perspective  inkscape:persp3d-origin="290 : 193.33333 : 1" inkscape:vp_z="580 : 290 : 1" inkscape:vp_y="0 : 1000 : 0" inkscape:vp_x="0 : 290 : 1" sodipodi:type="inkscape:persp3d" id="perspective6954">
		</inkscape:perspective>
	
		<inkscape:perspective  inkscape:persp3d-origin="178.5405 : 158.483 : 1" inkscape:vp_z="357.08099 : 237.7245 : 1" inkscape:vp_y="0 : 1000 : 0" inkscape:vp_x="0 : 237.7245 : 1" sodipodi:type="inkscape:persp3d" id="perspective7597">
		</inkscape:perspective>
</defs>
<g id="g13" transform="translate(166.42563,67.96431)">
</g>
<g id="layer1" transform="matrix(32.112803,0,0,32.112803,41.50013,-33245.965)">
	<path id="path3670" inkscape:connector-curvature="0" fill="#FFFFFF" d="M7.981,1044.459c0,0-0.033-0.039-0.068-0.096
		c-0.028-0.045-0.053-0.105-0.055-0.111c0.019-0.014,0.115-0.057,0.134-0.061c0.006,0.022,0.015,0.065,0.033,0.106
		c0.019,0.043,0.043,0.076,0.051,0.088C8.055,1044.405,7.981,1044.459,7.981,1044.459L7.981,1044.459z M8.046,1044.435
		c0.002,0.02,0.07,0.113,0.093,0.13c0.009,0.007,0.015,0.001,0.03-0.009c0.015-0.01,0.021-0.02,0.015-0.032
		c-0.011-0.026-0.06-0.12-0.083-0.135c-0.022-0.032-0.041-0.057-0.059-0.101c-0.019-0.046-0.031-0.093-0.038-0.121
		c-0.026,0.007-0.068,0.026-0.094,0.038c-0.029,0.013-0.05,0.026-0.073,0.039c0.007,0.021,0.025,0.074,0.061,0.13
		c0.029,0.045,0.053,0.08,0.081,0.108L8.046,1044.435L8.046,1044.435z M7.945,1044.249c0-0.01,0.009-0.019,0.02-0.019
		c0.011,0,0.02,0.008,0.02,0.019s-0.009,0.019-0.02,0.019C7.953,1044.268,7.945,1044.259,7.945,1044.249z"/>
	<path id="path4008" inkscape:connector-curvature="0" fill="#FFFFFF" d="M7.981,1044.459c0,0-0.033-0.039-0.068-0.096
		c-0.028-0.045-0.053-0.105-0.055-0.111c0.019-0.014,0.115-0.057,0.134-0.061c0.006,0.022,0.015,0.065,0.033,0.106
		c0.019,0.043,0.043,0.076,0.051,0.088C8.055,1044.405,7.981,1044.459,7.981,1044.459L7.981,1044.459z M8.046,1044.435
		c0.002,0.02,0.07,0.113,0.093,0.13c0.009,0.007,0.015,0.001,0.03-0.009c0.015-0.01,0.021-0.02,0.015-0.032
		c-0.011-0.026-0.06-0.12-0.083-0.135c-0.022-0.032-0.041-0.057-0.059-0.101c-0.019-0.046-0.031-0.093-0.038-0.121
		c-0.026,0.007-0.068,0.026-0.094,0.038c-0.029,0.013-0.05,0.026-0.073,0.039c0.007,0.021,0.025,0.074,0.061,0.13
		c0.029,0.045,0.053,0.08,0.081,0.108L8.046,1044.435L8.046,1044.435z M7.945,1044.249c0-0.01,0.009-0.019,0.02-0.019
		c0.011,0,0.02,0.008,0.02,0.019s-0.009,0.019-0.02,0.019C7.953,1044.268,7.945,1044.259,7.945,1044.249z"/>
</g>
<g id="g4034" transform="matrix(32.112803,0,0,32.112803,41.50013,-33245.965)">
	<path id="path4036" inkscape:connector-curvature="0" fill="#93278F" d="M7.981,1044.459c0,0-0.033-0.039-0.068-0.096
		c-0.028-0.045-0.053-0.105-0.055-0.111c0.019-0.014,0.115-0.057,0.134-0.061c0.006,0.022,0.015,0.065,0.033,0.106
		c0.019,0.043,0.043,0.076,0.051,0.088C8.055,1044.405,7.981,1044.459,7.981,1044.459L7.981,1044.459z M8.046,1044.435
		c0.002,0.02,0.07,0.113,0.093,0.13c0.009,0.007,0.015,0.001,0.03-0.009c0.015-0.01,0.021-0.02,0.015-0.032
		c-0.011-0.026-0.06-0.12-0.083-0.135c-0.022-0.032-0.041-0.057-0.059-0.101c-0.019-0.046-0.031-0.093-0.038-0.121
		c-0.026,0.007-0.068,0.026-0.094,0.038c-0.029,0.013-0.05,0.026-0.073,0.039c0.007,0.021,0.025,0.074,0.061,0.13
		c0.029,0.045,0.053,0.08,0.081,0.108L8.046,1044.435L8.046,1044.435z M7.945,1044.249c0-0.01,0.009-0.019,0.02-0.019
		c0.011,0,0.02,0.008,0.02,0.019s-0.009,0.019-0.02,0.019C7.953,1044.268,7.945,1044.259,7.945,1044.249z"/>
	
		<path id="path4038" sodipodi:nodetypes="cccccccccscc" inkscape:connector-curvature="0" opacity="0.1" fill="#93278F" enable-background="new    " d="
		M8.046,1044.435c0.002,0.02,0.07,0.113,0.093,0.13c0.009,0.007,0.015,0.001,0.03-0.009c0.015-0.01,0.021-0.02,0.015-0.032
		c-0.011-0.026-0.06-0.12-0.083-0.135c-0.022-0.032-0.041-0.057-0.059-0.101c-0.019-0.046-0.031-0.093-0.038-0.121
		c-0.026,0.007-0.068,0.026-0.094,0.038c-0.029,0.013-0.05,0.026-0.073,0.039c0.007,0.021,0.025,0.074,0.061,0.13
		c0.029,0.045,0.053,0.08,0.081,0.108L8.046,1044.435z"/>
</g>
</svg>
