<?xml version="1.0" encoding="UTF-8" standalone="no"?>
<!-- Created with Inkscape (http://www.inkscape.org/) -->

<svg
   xmlns:dc="http://purl.org/dc/elements/1.1/"
   xmlns:cc="http://creativecommons.org/ns#"
   xmlns:rdf="http://www.w3.org/1999/02/22-rdf-syntax-ns#"
   xmlns:svg="http://www.w3.org/2000/svg"
   xmlns="http://www.w3.org/2000/svg"
   version="1.1"
   width="100%"
   height="100%"
   viewBox="0 0 16 16"
   id="svg2">
  <metadata
     id="metadata8">
    <rdf:RDF>
      <cc:Work
         rdf:about="">
        <dc:format>image/svg+xml</dc:format>
        <dc:type
           rdf:resource="http://purl.org/dc/dcmitype/StillImage" />
        <dc:title></dc:title>
      </cc:Work>
    </rdf:RDF>
  </metadata>
  <defs
     id="defs6" />
  <rect
     width="16"
     height="16"
     x="0"
     y="0"
     id="canvas"
     style="fill:none;stroke:none;visibility:hidden" />
  <path
     d="M 4.90625,1 A 1.25,1.25 0 0 0 3.75,2.25 1.25,1.25 0 0 0 6.25,2.25 1.25,1.25 0 0 0 4.90625,1 z m 6,0 A 1.25,1.25 0 0 0 9.75,2.25 a 1.25,1.25 0 0 0 2.5,0 A 1.25,1.25 0 0 0 11.03125,1 1.25,1.25 0 0 0 11,1 1.25,1.25 0 0 0 10.90625,1 z M 4,4 C 3,4 3,5 3,5 L 3,6 7,6 7,5 C 7,5 7,4 6,4 L 4,4 z m 6,0 C 9,4 9,5 9,5 l 0,1 4,0 0,-1 C 13,5 13,4 12,4 L 10,4 z M 5,7 4,10 c -0.616485,0 -1,0.431455 -1,1 l 0,3 1,0 c 0,0 0,1 1,1 1,0 1,-1 1,-1 l 4,0 c 0,0 0,1 1,1 1,0 1,-1 1,-1 l 1,0 0,-3 c 0,-0.520606 -0.479394,-1 -1,-1 L 11,7 5,7 z m 1,1 4,0 0.625,2 -5.25,0 L 6,8 z m -1,3.25 c 0.414214,0 0.75,0.335786 0.75,0.75 0,0.414214 -0.335786,0.75 -0.75,0.75 -0.414214,0 -0.75,-0.335786 -0.75,-0.75 0,-0.414214 0.335786,-0.75 0.75,-0.75 z m 6,0 c 0.414214,0 0.75,0.335786 0.75,0.75 0,0.414214 -0.335786,0.75 -0.75,0.75 -0.414214,0 -0.75,-0.335786 -0.75,-0.75 0,-0.414214 0.335786,-0.75 0.75,-0.75 z"
     id="shared-car"
     style="fill:#1a1a1a;stroke:none" />
</svg>
