<?xml version="1.0" encoding="utf-8"?>
<!-- Generator: Adobe Illustrator 14.0.0, SVG Export Plug-In . SVG Version: 6.00 Build 43363)  -->
<!DOCTYPE svg PUBLIC "-//W3C//DTD SVG 1.1//EN" "http://www.w3.org/Graphics/SVG/1.1/DTD/svg11.dtd">
<svg version="1.1" id="Calque_1" xmlns="http://www.w3.org/2000/svg" xmlns:xlink="http://www.w3.org/1999/xlink" x="0px" y="0px"
	 width="400px" height="400px" viewBox="0 0 400 400" enable-background="new 0 0 400 400" xml:space="preserve">
<path id="path2323" fill="#29ABE2" d="M197.811,199.502c-0.625,0-0.956,0.341-1.11,0.739l-0.811,2.097
	c-0.322,0.041-0.893,0.42-0.893,1.135v2.666h0.79v0.852c0,1.049,1.485,1.037,1.485,0v-0.852h2.671l0,0h2.67v0.852
	c0,1.037,1.483,1.049,1.483,0v-0.852h0.791v-2.666c0-0.715-0.57-1.094-0.892-1.135l-0.813-2.097
	c-0.151-0.398-0.483-0.739-1.107-0.739h-1.147h-1.957H197.811z M197.801,200.265h2.139h0.004l0,0h2.141
	c0.268,0.002,0.383,0.17,0.458,0.401l0.612,1.65h-3.211l0,0h-0.004h-3.209l0.612-1.65
	C197.418,200.435,197.534,200.267,197.801,200.265z M196.554,203.118c0.379,0,0.685,0.315,0.685,0.707
	c0,0.39-0.306,0.706-0.685,0.706s-0.686-0.316-0.686-0.706C195.868,203.435,196.175,203.118,196.554,203.118z M203.332,203.118
	c0.378,0,0.686,0.315,0.686,0.707c0,0.39-0.308,0.706-0.686,0.706c-0.379,0-0.688-0.316-0.688-0.706
	C202.645,203.435,202.953,203.118,203.332,203.118z"/>
<g id="g2325" transform="translate(879.29125,36.805119)">
</g>
<g>
	<path id="path8791-2" sodipodi:nodetypes="cccscccsccccccccsccccccsccc" inkscape:connector-curvature="0" fill="#29ABE2" d="
		M197.382,192.856c-0.31,0-0.579,0.112-0.808,0.336c-0.229,0.224-0.345,0.496-0.345,0.817s0.115,0.595,0.345,0.818
		c0.229,0.224,0.499,0.336,0.808,0.336c0.012,0,0.023-0.001,0.034-0.001c0.012,0,0.022,0.001,0.035,0.001
		c0.31,0,0.58-0.112,0.809-0.336s0.343-0.497,0.343-0.818c0-0.32-0.113-0.593-0.343-0.817s-0.5-0.336-0.809-0.336
		c-0.012,0-0.023,0-0.035,0C197.405,192.856,197.394,192.856,197.382,192.856z M196.505,195.42c-0.07,0-0.133,0.007-0.19,0.022
		c-0.038-0.003-0.075-0.003-0.112-0.003c-0.257,0.007-0.51,0.118-0.688,0.304c-0.177,0.186-0.277,0.444-0.271,0.701l0.021,2.292
		c0,0.002,0,0.002,0,0.004c0.105-0.076,0.214-0.145,0.332-0.202c1.284-0.038,2.571-0.041,3.857-0.037l-0.019-2.076
		c0.001-0.248-0.096-0.496-0.266-0.675c-0.169-0.181-0.41-0.293-0.657-0.31c-0.055-0.013-0.114-0.02-0.181-0.02H196.505
		L196.505,195.42z"/>
	<path id="path21180" sodipodi:nodetypes="cccscccsccccccccsccccccsccc" inkscape:connector-curvature="0" fill="#29ABE2" d="
		M202.499,192.856c0.311,0,0.579,0.112,0.808,0.336s0.346,0.496,0.346,0.817s-0.117,0.595-0.346,0.818
		c-0.229,0.223-0.497,0.336-0.808,0.336c-0.012,0-0.023-0.001-0.035-0.001c-0.01,0-0.021,0.001-0.034,0.001
		c-0.31,0-0.58-0.112-0.809-0.336c-0.23-0.224-0.343-0.497-0.343-0.818c0-0.32,0.112-0.593,0.343-0.817
		c0.229-0.224,0.499-0.336,0.809-0.336c0.013,0,0.024,0,0.034,0C202.476,192.856,202.487,192.856,202.499,192.856z M203.377,195.42
		c0.069,0,0.132,0.007,0.19,0.022c0.037-0.003,0.073-0.003,0.112-0.003c0.257,0.007,0.509,0.118,0.688,0.304
		c0.176,0.186,0.278,0.444,0.271,0.701l-0.02,2.292c0,0.002,0,0.002,0,0.004c-0.105-0.076-0.214-0.145-0.332-0.202
		c-1.283-0.038-2.57-0.041-3.857-0.037l0.019-2.076c-0.001-0.248,0.097-0.496,0.266-0.675c0.169-0.181,0.41-0.293,0.656-0.31
		c0.056-0.013,0.115-0.02,0.182-0.02H203.377L203.377,195.42z"/>
</g>
</svg>
