<?xml version="1.0" encoding="utf-8"?>
<!-- Generator: Adobe Illustrator 14.0.0, SVG Export Plug-In . SVG Version: 6.00 Build 43363)  -->
<!DOCTYPE svg PUBLIC "-//W3C//DTD SVG 1.1//EN" "http://www.w3.org/Graphics/SVG/1.1/DTD/svg11.dtd">
<svg version="1.1"
	 id="svg2" xmlns:rdf="http://www.w3.org/1999/02/22-rdf-syntax-ns#" sodipodi:docname="shopping_car_repair.svg" inkscape:version="0.46" xmlns:svg="http://www.w3.org/2000/svg" xmlns:sodipodi="http://sodipodi.sourceforge.net/DTD/sodipodi-0.dtd" xmlns:inkscape="http://www.inkscape.org/namespaces/inkscape" xmlns:dc="http://purl.org/dc/elements/1.1/" sodipodi:version="0.32" xmlns:cc="http://creativecommons.org/ns#" inkscape:output_extension="org.inkscape.output.svg.inkscape"
	 xmlns="http://www.w3.org/2000/svg" xmlns:xlink="http://www.w3.org/1999/xlink" x="0px" y="0px" width="580px" height="580px"
	 viewBox="0 0 580 580" enable-background="new 0 0 580 580" xml:space="preserve">
<sodipodi:namedview  showgrid="false" inkscape:current-layer="svg2" inkscape:window-y="18" inkscape:window-x="112" inkscape:cy="399.03428" inkscape:cx="-28.16038" inkscape:zoom="0.70710678" pagecolor="#ffffff" bordercolor="#666666" borderopacity="1.0" objecttolerance="10.0" gridtolerance="10.0" guidetolerance="10.0" inkscape:window-height="1005" inkscape:window-width="1280" inkscape:pageshadow="2" inkscape:pageopacity="0.0" id="base">
	</sodipodi:namedview>
<defs>
	
	
		<inkscape:perspective  inkscape:persp3d-origin="290 : 193.33333 : 1" inkscape:vp_z="580 : 290 : 1" inkscape:vp_y="0 : 1000 : 0" inkscape:vp_x="0 : 290 : 1" sodipodi:type="inkscape:persp3d" id="perspective12">
		</inkscape:perspective>
	
		<inkscape:perspective  inkscape:persp3d-origin="29.116032 : 19.410688 : 1" inkscape:vp_z="58.232063 : 29.116032 : 1" inkscape:vp_y="0 : 1000 : 0" inkscape:vp_x="0 : 29.116032 : 1" sodipodi:type="inkscape:persp3d" id="perspective6807">
		</inkscape:perspective>
	
		<inkscape:perspective  inkscape:persp3d-origin="290 : 193.33333 : 1" inkscape:vp_z="580 : 290 : 1" inkscape:vp_y="0 : 1000 : 0" inkscape:vp_x="0 : 290 : 1" sodipodi:type="inkscape:persp3d" id="perspective6954">
		</inkscape:perspective>
	
		<inkscape:perspective  inkscape:persp3d-origin="178.5405 : 158.483 : 1" inkscape:vp_z="357.08099 : 237.7245 : 1" inkscape:vp_y="0 : 1000 : 0" inkscape:vp_x="0 : 237.7245 : 1" sodipodi:type="inkscape:persp3d" id="perspective7597">
		</inkscape:perspective>
</defs>
<path id="path2323" fill="#93278F" d="M284.313,283.58c-0.64,0-0.98,0.35-1.137,0.759l-0.833,2.15
	c-0.33,0.042-0.915,0.43-0.915,1.164v2.734h0.81v0.875c0,1.075,1.522,1.062,1.522,0v-0.875h2.738h0h2.738v0.875
	c0,1.062,1.522,1.075,1.522,0v-0.875h0.811v-2.734c0-0.734-0.585-1.122-0.915-1.164l-0.833-2.15
	c-0.157-0.409-0.497-0.759-1.137-0.759h-1.177h-2.004H284.313z M284.304,284.363h2.194h0.002h0h2.195
	c0.274,0.002,0.392,0.174,0.47,0.412l0.627,1.691H286.5h0h-0.002h-3.292l0.627-1.691
	C283.912,284.537,284.029,284.365,284.304,284.363z M283.025,287.289c0.388,0,0.703,0.324,0.703,0.725
	c0,0.4-0.315,0.725-0.703,0.725s-0.703-0.325-0.703-0.725C282.322,287.613,282.637,287.289,283.025,287.289z M289.976,287.289
	c0.388,0,0.703,0.324,0.703,0.725c0,0.4-0.315,0.725-0.703,0.725s-0.704-0.325-0.704-0.725
	C289.271,287.613,289.587,287.289,289.976,287.289z"/>
<g id="g2319" transform="translate(879.29125,36.805119)">
</g>
<g id="spanner" transform="matrix(-1.9177282,-1.988248,1.988248,-1.9177282,460.24478,551.21965)">
	<g id="use4649">
		<path id="outline1" fill="#93278F" d="M109.145,21.47l0.389,0.389l-0.075,0.263l-0.263,0.075l-0.389-0.389l-0.176,0.176
			l0.447,0.644l0.527-0.1l1.849,1.969c0.283,0.285,0.665-0.142,0.4-0.386l-1.975-1.868l0.12-0.533l-0.664-0.428L109.145,21.47z
			 M111.577,24.229c0.05-0.051,0.132-0.051,0.183,0c0.05,0.05,0.05,0.132,0,0.183c-0.05,0.05-0.132,0.05-0.182,0
			C111.526,24.361,111.526,24.28,111.577,24.229z"/>
	</g>
	<g id="use4651">
		<path id="outline1_1_" fill="#93278F" d="M109.145,21.47l0.389,0.389l-0.075,0.263l-0.263,0.075l-0.389-0.389l-0.176,0.176
			l0.447,0.644l0.527-0.1l1.849,1.969c0.283,0.285,0.665-0.142,0.4-0.386l-1.975-1.868l0.12-0.533l-0.664-0.428L109.145,21.47z
			 M111.577,24.229c0.05-0.051,0.132-0.051,0.183,0c0.05,0.05,0.05,0.132,0,0.183c-0.05,0.05-0.132,0.05-0.182,0
			C111.526,24.361,111.526,24.28,111.577,24.229z"/>
	</g>
	<g id="use4653">
		<path id="outline1_2_" fill="#93278F" d="M109.145,21.47l0.389,0.389l-0.075,0.263l-0.263,0.075l-0.389-0.389l-0.176,0.176
			l0.447,0.644l0.527-0.1l1.849,1.969c0.283,0.285,0.665-0.142,0.4-0.386l-1.975-1.868l0.12-0.533l-0.664-0.428L109.145,21.47z
			 M111.577,24.229c0.05-0.051,0.132-0.051,0.183,0c0.05,0.05,0.05,0.132,0,0.183c-0.05,0.05-0.132,0.05-0.182,0
			C111.526,24.361,111.526,24.28,111.577,24.229z"/>
	</g>
	<g>
		<defs>
			<path id="SVGID_1_" d="M109.145,21.47l0.389,0.389l-0.075,0.263l-0.263,0.075l-0.389-0.389l-0.176,0.176l0.447,0.644l0.527-0.1
				l1.849,1.969c0.283,0.285,0.665-0.142,0.4-0.386l-1.975-1.868l0.12-0.533l-0.664-0.428L109.145,21.47z M111.577,24.229
				c0.05-0.051,0.132-0.051,0.183,0c0.05,0.05,0.05,0.132,0,0.183c-0.05,0.05-0.132,0.05-0.182,0
				C111.526,24.361,111.526,24.28,111.577,24.229z"/>
		</defs>
		<use xlink:href="#SVGID_1_"  overflow="visible" fill="#93278F"/>
		<clipPath id="SVGID_2_">
			<use xlink:href="#SVGID_1_"  overflow="visible"/>
		</clipPath>
		<g id="use4655" clip-path="url(#SVGID_2_)">
			<path id="outline1_3_" fill="#93278F" d="M109.145,21.47l0.389,0.389l-0.075,0.263l-0.263,0.075l-0.389-0.389l-0.176,0.176
				l0.447,0.644l0.527-0.1l1.849,1.969c0.283,0.285,0.665-0.142,0.4-0.386l-1.975-1.868l0.12-0.533l-0.664-0.428L109.145,21.47z
				 M111.577,24.229c0.05-0.051,0.132-0.051,0.183,0c0.05,0.05,0.05,0.132,0,0.183c-0.05,0.05-0.132,0.05-0.182,0
				C111.526,24.361,111.526,24.28,111.577,24.229z"/>
		</g>
	</g>
	<path id="path4657" fill="#93278F" d="M109.202,21.416l0.403,0.401l-0.1,0.351l-0.329,0.098l-0.407-0.412l-0.142,0.136l0.426,0.598
		l0.567-0.124l1.875,1.991c0.225,0.249,0.606-0.08,0.334-0.348l-2.007-1.893l0.116-0.515l-0.599-0.421L109.202,21.416z
		 M111.601,24.215c0.05-0.05,0.139-0.06,0.189-0.009c0.051,0.05,0.092,0.139,0.019,0.235c-0.06,0.06-0.156,0.057-0.216-0.007
		C111.543,24.384,111.55,24.266,111.601,24.215z"/>
	<path id="path4659" fill="#93278F" d="M109.198,21.417l0.704,0.71l0.096-0.416l-0.663-0.432L109.198,21.417z"/>
</g>
</svg>
