<?xml version="1.0" encoding="utf-8"?>
<!-- Generator: Adobe Illustrator 14.0.0, SVG Export Plug-In . SVG Version: 6.00 Build 43363)  -->
<!DOCTYPE svg PUBLIC "-//W3C//DTD SVG 1.1//EN" "http://www.w3.org/Graphics/SVG/1.1/DTD/svg11.dtd">
<svg version="1.1"
	 id="svg2" xmlns:dc="http://purl.org/dc/elements/1.1/" xmlns:sodipodi="http://sodipodi.sourceforge.net/DTD/sodipodi-0.dtd" sodipodi:docname="caravan.svg" xmlns:svg="http://www.w3.org/2000/svg" xmlns:inkscape="http://www.inkscape.org/namespaces/inkscape" xmlns:cc="http://creativecommons.org/ns#" xmlns:rdf="http://www.w3.org/1999/02/22-rdf-syntax-ns#" inkscape:version="0.46" inkscape:output_extension="org.inkscape.output.svg.inkscape" sodipodi:docbase="s:\Data\FacilityIcons" sodipodi:version="0.32"
	 xmlns="http://www.w3.org/2000/svg" xmlns:xlink="http://www.w3.org/1999/xlink" x="0px" y="0px" width="580px" height="580px"
	 viewBox="0 0 580 580" enable-background="new 0 0 580 580" xml:space="preserve">
<sodipodi:namedview  bordercolor="#666666" inkscape:window-width="1048" borderopacity="1.0" inkscape:cx="301.5186" inkscape:zoom="0.92167712" inkscape:cy="281.19503" inkscape:pageopacity="0.0" showgrid="false" inkscape:window-x="91" inkscape:pageshadow="2" inkscape:current-layer="svg2" pagecolor="#ffffff" inkscape:window-y="25" inkscape:window-height="947" id="base" objecttolerance="10.0" guidetolerance="10.0" gridtolerance="10.0">
	</sodipodi:namedview>
<defs>
	
	
		<inkscape:perspective  id="perspective2441" inkscape:vp_y="0 : 1000 : 0" inkscape:vp_x="0 : 290 : 1" inkscape:vp_z="580 : 290 : 1" sodipodi:type="inkscape:persp3d" inkscape:persp3d-origin="290 : 193.33333 : 1">
		</inkscape:perspective>
	
		<inkscape:perspective  id="perspective3452" inkscape:vp_y="0 : 1000 : 0" inkscape:vp_x="0 : 30 : 1" inkscape:vp_z="60 : 30 : 1" sodipodi:type="inkscape:persp3d" inkscape:persp3d-origin="30 : 20 : 1">
		</inkscape:perspective>
	
		<inkscape:perspective  id="perspective4471" inkscape:vp_y="0 : 1000 : 0" inkscape:vp_x="0 : 526.18109 : 1" inkscape:vp_z="744.09448 : 526.18109 : 1" sodipodi:type="inkscape:persp3d" inkscape:persp3d-origin="372.04724 : 350.78739 : 1">
		</inkscape:perspective>
	
		<inkscape:perspective  id="perspective4668" inkscape:vp_y="0 : 1000 : 0" inkscape:vp_x="0 : 6 : 1" inkscape:vp_z="12 : 6 : 1" sodipodi:type="inkscape:persp3d" inkscape:persp3d-origin="6 : 4 : 1">
		</inkscape:perspective>
</defs>
<g id="layer3" transform="matrix(48.14969,0,0,48.14969,-536.27327,-33.306752)" inkscape:label="Layout" display="none">
	<rect id="rect4134" x="1" y="1" display="inline" fill="none" stroke="#757575" stroke-width="0.1" width="10" height="10"/>
	<rect id="rect4136" x="2" y="2" display="inline" fill="none" stroke="#757575" stroke-width="0.1" width="8" height="8"/>
</g>
<path id="flowRoot3192" fill="#0092DA" d="M303.163,300.797c0,0.408-0.198,0.613-0.592,0.613h-2.093
	c-0.396,0-0.592-0.205-0.592-0.613v-0.993c0-0.396,0.196-0.593,0.592-0.593h2.093c0.395,0,0.592,0.197,0.592,0.593V300.797z
	 M297.199,300.818c0,0.395-0.203,0.592-0.613,0.592h-4.525c-0.395,0-0.594-0.197-0.594-0.592v-1.015
	c0-0.396,0.199-0.593,0.594-0.593h4.525c0.41,0,0.613,0.197,0.613,0.593V300.818z M306.483,305.576h-1.522v-5.287
	c0-0.816-0.286-1.508-0.857-2.072c-0.57-0.562-1.257-0.846-2.061-0.846h-9.896c-0.818,0-1.51,0.283-2.074,0.846
	c-0.563,0.564-0.845,1.255-0.845,2.072v3.744c0,0.592,0.212,1.099,0.634,1.521c0.423,0.422,0.931,0.635,1.522,0.635h3.405
	c0.043-0.607,0.281-1.121,0.719-1.545s0.966-0.633,1.586-0.633c0.607,0,1.133,0.209,1.575,0.633c0.444,0.423,0.681,0.93,0.71,1.522
	h7.697C307.074,305.773,306.878,305.576,306.483,305.576L306.483,305.576z M297.094,307.057c-0.197,0-0.367-0.07-0.507-0.211
	c-0.141-0.141-0.21-0.311-0.21-0.508c0-0.211,0.069-0.384,0.21-0.518c0.14-0.133,0.31-0.201,0.507-0.201s0.365,0.066,0.508,0.201
	c0.141,0.134,0.211,0.307,0.211,0.518c0,0.197-0.07,0.367-0.211,0.508C297.459,306.986,297.291,307.057,297.094,307.057
	L297.094,307.057z M297.094,304.668c-0.465,0-0.861,0.161-1.184,0.486c-0.324,0.324-0.486,0.719-0.486,1.184
	c0,0.451,0.162,0.84,0.486,1.163c0.322,0.325,0.719,0.486,1.184,0.486c0.45,0,0.84-0.163,1.163-0.486
	c0.324-0.324,0.485-0.712,0.485-1.163c0-0.467-0.161-0.859-0.485-1.184C297.934,304.829,297.544,304.668,297.094,304.668
	L297.094,304.668z"/>
</svg>
