<?xml version="1.0" encoding="utf-8"?>
<!-- Generator: Adobe Illustrator 14.0.0, SVG Export Plug-In . SVG Version: 6.00 Build 43363)  -->
<!DOCTYPE svg PUBLIC "-//W3C//DTD SVG 1.1//EN" "http://www.w3.org/Graphics/SVG/1.1/DTD/svg11.dtd">
<svg version="1.1"
	 id="svg2" xmlns:rdf="http://www.w3.org/1999/02/22-rdf-syntax-ns#" sodipodi:docname="accommodation_chalet.svg" inkscape:version="0.47 r22583" xmlns:svg="http://www.w3.org/2000/svg" xmlns:sodipodi="http://sodipodi.sourceforge.net/DTD/sodipodi-0.dtd" xmlns:inkscape="http://www.inkscape.org/namespaces/inkscape" xmlns:dc="http://purl.org/dc/elements/1.1/" sodipodi:version="0.32" xmlns:cc="http://creativecommons.org/ns#" inkscape:output_extension="org.inkscape.output.svg.inkscape"
	 xmlns="http://www.w3.org/2000/svg" xmlns:xlink="http://www.w3.org/1999/xlink" x="0px" y="0px" width="580px" height="580px"
	 viewBox="0 0 580 580" enable-background="new 0 0 580 580" xml:space="preserve">
<sodipodi:namedview  showgrid="false" inkscape:current-layer="svg2" inkscape:window-y="0" inkscape:window-x="0" inkscape:cy="-8.0156721" inkscape:cx="322.10986" inkscape:zoom="0.16293104" pagecolor="#ffffff" bordercolor="#666666" borderopacity="1.0" objecttolerance="10.0" gridtolerance="10.0" guidetolerance="10.0" inkscape:window-height="973" inkscape:window-width="1280" inkscape:pageshadow="2" inkscape:pageopacity="0.0" inkscape:window-maximized="1" id="base">
	</sodipodi:namedview>
<defs>
	
	
		<inkscape:perspective  inkscape:persp3d-origin="290 : 193.33333 : 1" inkscape:vp_z="580 : 290 : 1" inkscape:vp_y="0 : 1000 : 0" inkscape:vp_x="0 : 290 : 1" sodipodi:type="inkscape:persp3d" id="perspective2441">
		</inkscape:perspective>
	
		<inkscape:perspective  inkscape:persp3d-origin="30 : 20 : 1" inkscape:vp_z="60 : 30 : 1" inkscape:vp_y="0 : 1000 : 0" inkscape:vp_x="0 : 30 : 1" sodipodi:type="inkscape:persp3d" id="perspective3452">
		</inkscape:perspective>
	
		<inkscape:perspective  inkscape:persp3d-origin="372.04724 : 350.78739 : 1" inkscape:vp_z="744.09448 : 526.18109 : 1" inkscape:vp_y="0 : 1000 : 0" inkscape:vp_x="0 : 526.18109 : 1" sodipodi:type="inkscape:persp3d" id="perspective4471">
		</inkscape:perspective>
	
		<inkscape:perspective  inkscape:persp3d-origin="6 : 4 : 1" inkscape:vp_z="12 : 6 : 1" inkscape:vp_y="0 : 1000 : 0" inkscape:vp_x="0 : 6 : 1" sodipodi:type="inkscape:persp3d" id="perspective4668">
		</inkscape:perspective>
	
		<inkscape:perspective  inkscape:persp3d-origin="16 : 10.666667 : 1" inkscape:vp_z="32 : 16 : 1" inkscape:vp_y="0 : 1000 : 0" inkscape:vp_x="0 : 16 : 1" sodipodi:type="inkscape:persp3d" id="perspective4904">
		</inkscape:perspective>
	
		<inkscape:perspective  inkscape:persp3d-origin="0.5 : 0.33333333 : 1" inkscape:vp_z="1 : 0.5 : 1" inkscape:vp_y="0 : 1000 : 0" inkscape:vp_x="0 : 0.5 : 1" sodipodi:type="inkscape:persp3d" id="perspective3728">
		</inkscape:perspective>
	
		<inkscape:perspective  inkscape:persp3d-origin="0.5 : 0.33333333 : 1" inkscape:vp_z="1 : 0.5 : 1" inkscape:vp_y="0 : 1000 : 0" inkscape:vp_x="0 : 0.5 : 1" sodipodi:type="inkscape:persp3d" id="perspective3959">
		</inkscape:perspective>
</defs>
<g id="layer3" transform="matrix(48.14969,0,0,48.14969,-536.27327,-33.306752)" inkscape:label="Layout" display="none">
	<rect id="rect4134" x="1" y="1" display="inline" fill="none" stroke="#757575" stroke-width="0.1" width="10" height="10"/>
	<rect id="rect4136" x="2" y="2" display="inline" fill="none" stroke="#757575" stroke-width="0.1" width="8" height="8"/>
</g>
<g id="g3757" transform="matrix(3.2822464,0,0,3.2822464,-751.11276,-1010.2429)" opacity="0.5">
	<path id="path3734" fill="none" stroke="#FFFFFF" stroke-width="0.125" d="M317.119,394.051c-0.172,0.365-0.345,0.73-0.518,1.094
		c-0.096-0.133-0.193-0.265-0.29-0.396c-0.298,0.477-0.593,0.956-0.893,1.431c0.936,0.008,1.872,0.015,2.808,0.023
		c-0.353-0.75-0.707-1.5-1.062-2.249C317.149,393.987,317.134,394.019,317.119,394.051z"/>
	<path id="path3744" fill="#FFFFFF" d="M317.164,393.809l-0.056,0.12l-0.045,0.096c-0.157,0.334-0.315,0.667-0.474,1
		c-0.076-0.104-0.152-0.208-0.228-0.312l-0.055-0.074l-0.048,0.078c-0.298,0.477-0.593,0.956-0.893,1.431l-0.059,0.094l0.112,0.001
		c0.936,0.008,1.872,0.015,2.808,0.024l0.1,0.001l-0.043-0.09c-0.353-0.751-0.707-1.5-1.062-2.249L317.164,393.809z
		 M317.164,394.867c0.019,0,0.038,0.009,0.049,0.024c0.056,0.07,0.11,0.128,0.132,0.137c0.011,0.004,0.008,0.005,0.019-0.002
		c0.011-0.007,0.034-0.031,0.06-0.08c0.011-0.02,0.033-0.034,0.056-0.033c0.023,0,0.046,0.014,0.056,0.035l0.509,1.078
		c0.018,0.038-0.015,0.09-0.057,0.09l-2.302-0.019c-0.022,0-0.043-0.013-0.054-0.032c-0.011-0.019-0.01-0.045,0.002-0.063
		l0.453-0.727c0.02-0.032,0.07-0.038,0.097-0.012c0.04,0.04,0.075,0.061,0.117,0.064c0.042,0.003,0.1-0.013,0.187-0.077
		c0.026-0.02,0.069-0.014,0.088,0.013l0.04,0.055l0.164-0.347c0.01-0.021,0.032-0.036,0.055-0.037
		c0.023-0.001,0.046,0.013,0.057,0.033c0.016,0.029,0.032,0.046,0.044,0.053c0.012,0.007,0.02,0.008,0.034,0.006
		c0.029-0.006,0.085-0.046,0.142-0.13C317.125,394.878,317.144,394.868,317.164,394.867z"/>
</g>
<path id="path645" sodipodi:nodetypes="ccccccccccccc" fill="#29ABE2" stroke="#FFFFFF" stroke-width="0.0213" d="M284.522,279.466
	l-4.061,3.509h0.812v5.264h2.437v-2.675h1.68v2.675h2.381v-5.264h0.812L284.522,279.466L284.522,279.466L284.522,279.466
	L284.522,279.466z"/>
<g id="g5238" transform="matrix(3.2822464,0,0,3.2822464,-751.11276,-1010.2429)" opacity="0.25">
	<path id="path5240" fill="none" stroke="#FFFFFF" stroke-width="0.125" d="M317.119,394.051c-0.172,0.365-0.345,0.73-0.518,1.094
		c-0.096-0.133-0.193-0.265-0.29-0.396c-0.298,0.477-0.593,0.956-0.893,1.431c0.936,0.008,1.872,0.015,2.808,0.023
		c-0.353-0.75-0.707-1.5-1.062-2.249C317.149,393.987,317.134,394.019,317.119,394.051z"/>
	<path id="path5242" sodipodi:nodetypes="ccccccccccccccc" fill="#29ABE2" d="M317.164,393.809l-0.056,0.12l-0.045,0.096
		c-0.157,0.334-0.315,0.667-0.474,1c-0.076-0.104-0.152-0.208-0.228-0.312l-0.055-0.074l-0.048,0.078
		c-0.298,0.477-0.593,0.956-0.893,1.431l-0.059,0.094l0.112,0.001c0.936,0.008,1.872,0.015,2.808,0.024l0.1,0.001l-0.043-0.09
		c-0.353-0.751-0.707-1.5-1.062-2.249L317.164,393.809z"/>
</g>
</svg>
