<?xml version="1.0" encoding="UTF-8" standalone="no"?>
<svg
   xmlns:dc="http://purl.org/dc/elements/1.1/"
   xmlns:cc="http://creativecommons.org/ns#"
   xmlns:rdf="http://www.w3.org/1999/02/22-rdf-syntax-ns#"
   xmlns:svg="http://www.w3.org/2000/svg"
   xmlns="http://www.w3.org/2000/svg"
   id="svg2"
   viewBox="0 0 16 16"
   height="16"
   width="16"
   version="1.1">
  <metadata
     id="metadata8">
    <rdf:RDF>
      <cc:Work
         rdf:about="">
        <dc:format>image/svg+xml</dc:format>
        <dc:type
           rdf:resource="http://purl.org/dc/dcmitype/StillImage" />
        <dc:title></dc:title>
      </cc:Work>
    </rdf:RDF>
  </metadata>
  <defs
     id="defs6" />
  <rect
     style="visibility:hidden;fill:none;stroke:none"
     id="canvas"
     y="1"
     x="1"
     height="14"
     width="14" />
  <path
     style="fill:#000000;fill-opacity:1;stroke:none"
     id="charging-station"
     d="M 3,2 C 1.8344723,2 1,2.7955215 1,4 L 1,15 8,15 8,7.125 C 8,7.125 8.875,7 8.875,8 l 0,4 c 0,2 1.864698,2.125 2.125,2.125 0.275652,0 2.125,-0.124975 2.125,-2.125 l 0,-4 c 0,0 1.387558,0.017377 1.375,-2.96875 l -0.75,0 0,-2 C 13.75,2.4640917 13,2.4675079 13,3 l 0,2 -1,0 0,-2 C 12,2.4538157 11.25,2.4548128 11.25,3 l 0,2 -0.75,0 c 0.01252,2.9863904 1.375,3 1.375,3 l 0,4 c 0,0.874159 -0.767136,0.875 -0.875,0.875 -0.107864,0 -0.875,-0.04279 -0.875,-0.875 l 0,-4 C 10.125,6.7190916 9,5.875 8,5.875 L 8,4 C 8,2.7775442 7.1835046,2 6,2 Z M 4,5 6,5 4.75,7 6.25,7 3.5,11 3,11 4,8 2.75,8 Z" />
</svg>
