<?xml version="1.0" encoding="utf-8"?>
<!-- Generator: Adobe Illustrator 14.0.0, SVG Export Plug-In . SVG Version: 6.00 Build 43363)  -->
<!DOCTYPE svg PUBLIC "-//W3C//DTD SVG 1.1//EN" "http://www.w3.org/Graphics/SVG/1.1/DTD/svg11.dtd">
<svg version="1.1"
	 id="svg2" xmlns:rdf="http://www.w3.org/1999/02/22-rdf-syntax-ns#" sodipodi:docname="cinema.svg" inkscape:version="0.46" xmlns:svg="http://www.w3.org/2000/svg" xmlns:sodipodi="http://sodipodi.sourceforge.net/DTD/sodipodi-0.dtd" xmlns:inkscape="http://www.inkscape.org/namespaces/inkscape" xmlns:dc="http://purl.org/dc/elements/1.1/" sodipodi:version="0.32" xmlns:cc="http://creativecommons.org/ns#" inkscape:output_extension="org.inkscape.output.svg.inkscape"
	 xmlns="http://www.w3.org/2000/svg" xmlns:xlink="http://www.w3.org/1999/xlink" x="0px" y="0px" width="580px" height="580px"
	 viewBox="0 0 580 580" enable-background="new 0 0 580 580" xml:space="preserve">
<sodipodi:namedview  showgrid="false" inkscape:current-layer="svg2" inkscape:window-y="-4" inkscape:window-x="-4" inkscape:cy="244.87767" inkscape:cx="142.25421" inkscape:zoom="0.39827586" pagecolor="#ffffff" bordercolor="#666666" borderopacity="1.0" objecttolerance="10.0" gridtolerance="10.0" guidetolerance="10.0" inkscape:window-height="1003" inkscape:window-width="1400" inkscape:pageshadow="2" inkscape:pageopacity="0.0" id="base">
	</sodipodi:namedview>
<defs>
	
	
		<inkscape:perspective  inkscape:persp3d-origin="290 : 193.33333 : 1" inkscape:vp_z="580 : 290 : 1" inkscape:vp_y="0 : 1000 : 0" inkscape:vp_x="0 : 290 : 1" sodipodi:type="inkscape:persp3d" id="perspective12">
		</inkscape:perspective>
	
		<inkscape:perspective  inkscape:persp3d-origin="16 : 10.666667 : 1" inkscape:vp_z="32 : 16 : 1" inkscape:vp_y="0 : 1000 : 0" inkscape:vp_x="0 : 16 : 1" sodipodi:type="inkscape:persp3d" id="perspective2539">
		</inkscape:perspective>
</defs>
<path id="rect3391" fill="#603813" d="M284.507,283.122l7.497,15.583l7.035-3.385l-7.497-15.583L284.507,283.122z M285.734,282.903
	l4.812-2.312l2.219,4.61l-4.812,2.314L285.734,282.903z M284.988,283.499l0.519-0.249l0.402,0.834l-0.519,0.25L284.988,283.499z
	 M290.944,280.632l0.52-0.247l0.398,0.832l-0.514,0.25L290.944,280.632z M285.905,285.397l0.516-0.25l0.402,0.834l-0.519,0.25
	L285.905,285.397z M291.859,282.532l0.519-0.249l0.399,0.836l-0.517,0.249L291.859,282.532z M286.821,287.297l0.515-0.249
	l0.402,0.834l-0.517,0.249L286.821,287.297z M292.775,284.433l0.516-0.248l0.401,0.833l-0.517,0.25L292.775,284.433z
	 M288.174,287.974l4.812-2.315l2.219,4.612l-4.812,2.314L288.174,287.974z M287.733,289.198l0.519-0.249l0.4,0.833l-0.518,0.249
	L287.733,289.198z M293.686,286.331l0.519-0.248l0.399,0.835l-0.516,0.249L293.686,286.331z M288.648,291.101l0.515-0.251
	l0.401,0.831l-0.516,0.251L288.648,291.101z M294.602,288.233l0.518-0.25l0.398,0.834l-0.518,0.25L294.602,288.233z
	 M289.562,292.998l0.517-0.253l0.403,0.835l-0.518,0.252L289.562,292.998z M295.516,290.134l0.517-0.249l0.401,0.833l-0.517,0.252
	L295.516,290.134z M290.611,293.038l4.811-2.314l2.22,4.609l-4.811,2.319L290.611,293.038z M290.479,294.896l0.516-0.249
	l0.399,0.834l-0.514,0.251L290.479,294.896z M296.428,292.035l0.52-0.251l0.4,0.831l-0.518,0.253L296.428,292.035z M291.39,296.796
	l0.52-0.248l0.398,0.835l-0.516,0.25L291.39,296.796z M297.344,293.932l0.519-0.249l0.402,0.834l-0.52,0.251L297.344,293.932z"/>
<rect id="rect3445" x="286.607" y="281.485" transform="matrix(-0.9012 0.4334 -0.4334 -0.9012 673.0795 414.6486)" opacity="0.3317" fill="#FFFFFF" enable-background="new    " width="5.34" height="5.119"/>
<rect id="rect3447" x="289.013" y="286.571" transform="matrix(-0.9011 0.4336 -0.4336 -0.9011 679.8811 423.2129)" opacity="0.3317" fill="#FFFFFF" enable-background="new    " width="5.341" height="5.12"/>
<rect id="rect3449" x="291.474" y="291.64" transform="matrix(-0.901 0.4338 -0.4338 -0.901 686.8013 431.6536)" opacity="0.3317" fill="#FFFFFF" enable-background="new    " width="5.339" height="5.117"/>
</svg>
