<?xml version="1.0" encoding="UTF-8" standalone="no"?>
<!-- Created with Inkscape (http://www.inkscape.org/) -->

<svg
   xmlns:dc="http://purl.org/dc/elements/1.1/"
   xmlns:cc="http://creativecommons.org/ns#"
   xmlns:rdf="http://www.w3.org/1999/02/22-rdf-syntax-ns#"
   xmlns:svg="http://www.w3.org/2000/svg"
   xmlns="http://www.w3.org/2000/svg"
   version="1.1"
   width="100%"
   height="100%"
   viewBox="0 0 18 18"
   id="svg2">
  <metadata
     id="metadata8">
    <rdf:RDF>
      <cc:Work
         rdf:about="">
        <dc:format>image/svg+xml</dc:format>
        <dc:type
           rdf:resource="http://purl.org/dc/dcmitype/StillImage" />
        <dc:title></dc:title>
      </cc:Work>
    </rdf:RDF>
  </metadata>
  <defs
     id="defs6" />
  <rect
     width="18"
     height="18"
     x="0"
     y="0"
     id="canvas"
     style="fill:none;stroke:none;visibility:hidden" />
  <g
     id="cinema">
    <path
       d="M 3,3 C 2.446,3 2,3.446 2,4 l 0,11 c 0,0.554 0.446,1 1,1 l 12,0 c 0.554,0 1,-0.446 1,-1 L 16,4 C 16,3.446 15.554,3 15,3 L 3,3 z m 0.25,1 0.5,0 C 3.8885,4 4,4.1115 4,4.25 l 0,0.5 C 4,4.8885 3.8885,5 3.75,5 L 3.25,5 C 3.1115,5 3,4.8885 3,4.75 L 3,4.25 C 3,4.1115 3.1115,4 3.25,4 z M 6,4 12,4 12,9 6,9 6,4 z m 8.25,0 0.5,0 C 14.8885,4 15,4.1115 15,4.25 l 0,0.5 C 15,4.8885 14.8885,5 14.75,5 l -0.5,0 C 14.1115,5 14,4.8885 14,4.75 l 0,-0.5 C 14,4.1115 14.1115,4 14.25,4 z m -11,2 0.5,0 C 3.8885,6 4,6.1115 4,6.25 l 0,0.5 C 4,6.8885 3.8885,7 3.75,7 L 3.25,7 C 3.1115,7 3,6.8885 3,6.75 L 3,6.25 C 3,6.1115 3.1115,6 3.25,6 z m 11,0 0.5,0 C 14.8885,6 15,6.1115 15,6.25 l 0,0.5 C 15,6.8885 14.8885,7 14.75,7 l -0.5,0 C 14.1115,7 14,6.8885 14,6.75 l 0,-0.5 C 14,6.1115 14.1115,6 14.25,6 z m -11,2 0.5,0 C 3.8885,8 4,8.1115 4,8.25 l 0,0.5 C 4,8.8885 3.8885,9 3.75,9 L 3.25,9 C 3.1115,9 3,8.8885 3,8.75 L 3,8.25 C 3,8.1115 3.1115,8 3.25,8 z m 11,0 0.5,0 C 14.8885,8 15,8.1115 15,8.25 l 0,0.5 C 15,8.8885 14.8885,9 14.75,9 l -0.5,0 C 14.1115,9 14,8.8885 14,8.75 l 0,-0.5 C 14,8.1115 14.1115,8 14.25,8 z m -11,2 0.5,0 C 3.8885,10 4,10.1115 4,10.25 l 0,0.5 C 4,10.8885 3.8885,11 3.75,11 l -0.5,0 C 3.1115,11 3,10.8885 3,10.75 l 0,-0.5 C 3,10.1115 3.1115,10 3.25,10 z m 2.75,0 6,0 0,5 -6,0 0,-5 z m 8.25,0 0.5,0 c 0.1385,0 0.25,0.1115 0.25,0.25 l 0,0.5 C 15,10.8885 14.8885,11 14.75,11 l -0.5,0 C 14.1115,11 14,10.8885 14,10.75 l 0,-0.5 C 14,10.1115 14.1115,10 14.25,10 z m -11,2 0.5,0 C 3.8885,12 4,12.1115 4,12.25 l 0,0.5 C 4,12.8885 3.8885,13 3.75,13 l -0.5,0 C 3.1115,13 3,12.8885 3,12.75 l 0,-0.5 C 3,12.1115 3.1115,12 3.25,12 z m 11,0 0.5,0 c 0.1385,0 0.25,0.1115 0.25,0.25 l 0,0.5 C 15,12.8885 14.8885,13 14.75,13 l -0.5,0 C 14.1115,13 14,12.8885 14,12.75 l 0,-0.5 C 14,12.1115 14.1115,12 14.25,12 z m -11,2 0.5,0 C 3.8885,14 4,14.1115 4,14.25 l 0,0.5 C 4,14.8885 3.8885,15 3.75,15 l -0.5,0 C 3.1115,15 3,14.8885 3,14.75 l 0,-0.5 C 3,14.1115 3.1115,14 3.25,14 z m 11,0 0.5,0 c 0.1385,0 0.25,0.1115 0.25,0.25 l 0,0.5 C 15,14.8885 14.8885,15 14.75,15 l -0.5,0 C 14.1115,15 14,14.8885 14,14.75 l 0,-0.5 C 14,14.1115 14.1115,14 14.25,14 z"
       id="halo"
       style="opacity:0.3;fill:#ffffff;fill-opacity:1;stroke:#ffffff;stroke-width:2;stroke-miterlimit:4;stroke-opacity:1;stroke-dasharray:none" />
    <path
       d="M 3,3 C 2.446,3 2,3.446 2,4 l 0,11 c 0,0.554 0.446,1 1,1 l 12,0 c 0.554,0 1,-0.446 1,-1 L 16,4 C 16,3.446 15.554,3 15,3 L 3,3 z m 0.25,1 0.5,0 C 3.8885,4 4,4.1115 4,4.25 l 0,0.5 C 4,4.8885 3.8885,5 3.75,5 L 3.25,5 C 3.1115,5 3,4.8885 3,4.75 L 3,4.25 C 3,4.1115 3.1115,4 3.25,4 z M 6,4 12,4 12,9 6,9 6,4 z m 8.25,0 0.5,0 C 14.8885,4 15,4.1115 15,4.25 l 0,0.5 C 15,4.8885 14.8885,5 14.75,5 l -0.5,0 C 14.1115,5 14,4.8885 14,4.75 l 0,-0.5 C 14,4.1115 14.1115,4 14.25,4 z m -11,2 0.5,0 C 3.8885,6 4,6.1115 4,6.25 l 0,0.5 C 4,6.8885 3.8885,7 3.75,7 L 3.25,7 C 3.1115,7 3,6.8885 3,6.75 L 3,6.25 C 3,6.1115 3.1115,6 3.25,6 z m 11,0 0.5,0 C 14.8885,6 15,6.1115 15,6.25 l 0,0.5 C 15,6.8885 14.8885,7 14.75,7 l -0.5,0 C 14.1115,7 14,6.8885 14,6.75 l 0,-0.5 C 14,6.1115 14.1115,6 14.25,6 z m -11,2 0.5,0 C 3.8885,8 4,8.1115 4,8.25 l 0,0.5 C 4,8.8885 3.8885,9 3.75,9 L 3.25,9 C 3.1115,9 3,8.8885 3,8.75 L 3,8.25 C 3,8.1115 3.1115,8 3.25,8 z m 11,0 0.5,0 C 14.8885,8 15,8.1115 15,8.25 l 0,0.5 C 15,8.8885 14.8885,9 14.75,9 l -0.5,0 C 14.1115,9 14,8.8885 14,8.75 l 0,-0.5 C 14,8.1115 14.1115,8 14.25,8 z m -11,2 0.5,0 C 3.8885,10 4,10.1115 4,10.25 l 0,0.5 C 4,10.8885 3.8885,11 3.75,11 l -0.5,0 C 3.1115,11 3,10.8885 3,10.75 l 0,-0.5 C 3,10.1115 3.1115,10 3.25,10 z m 2.75,0 6,0 0,5 -6,0 0,-5 z m 8.25,0 0.5,0 c 0.1385,0 0.25,0.1115 0.25,0.25 l 0,0.5 C 15,10.8885 14.8885,11 14.75,11 l -0.5,0 C 14.1115,11 14,10.8885 14,10.75 l 0,-0.5 C 14,10.1115 14.1115,10 14.25,10 z m -11,2 0.5,0 C 3.8885,12 4,12.1115 4,12.25 l 0,0.5 C 4,12.8885 3.8885,13 3.75,13 l -0.5,0 C 3.1115,13 3,12.8885 3,12.75 l 0,-0.5 C 3,12.1115 3.1115,12 3.25,12 z m 11,0 0.5,0 c 0.1385,0 0.25,0.1115 0.25,0.25 l 0,0.5 C 15,12.8885 14.8885,13 14.75,13 l -0.5,0 C 14.1115,13 14,12.8885 14,12.75 l 0,-0.5 C 14,12.1115 14.1115,12 14.25,12 z m -11,2 0.5,0 C 3.8885,14 4,14.1115 4,14.25 l 0,0.5 C 4,14.8885 3.8885,15 3.75,15 l -0.5,0 C 3.1115,15 3,14.8885 3,14.75 l 0,-0.5 C 3,14.1115 3.1115,14 3.25,14 z m 11,0 0.5,0 c 0.1385,0 0.25,0.1115 0.25,0.25 l 0,0.5 C 15,14.8885 14.8885,15 14.75,15 l -0.5,0 C 14.1115,15 14,14.8885 14,14.75 l 0,-0.5 C 14,14.1115 14.1115,14 14.25,14 z"
       id="icon"
       style="fill:#1a1a1a;fill-opacity:1;stroke:none" />
  </g>
</svg>
