<?xml version="1.0" encoding="UTF-8" standalone="no"?>
<!-- Created with Inkscape (http://www.inkscape.org/) -->

<svg
   xmlns="http://www.w3.org/2000/svg"
   version="1.1"
   width="100%"
   height="100%"
   viewBox="0 0 16 16">
  <path
     d="M 2,2 C 1.446,2 1,2.446 1,3 l 0,11 c 0,0.554 0.446,1 1,1 l 12,0 c 0.554,0 1,-0.446 1,-1 L 15,3 C 15,2.446 14.554,2 14,2 L 2,2 z m 0.25,1 0.5,0 C 2.8885,3 3,3.1115 3,3.25 l 0,0.5 C 3,3.8885 2.8885,4 2.75,4 L 2.25,4 C 2.1115,4 2,3.8885 2,3.75 L 2,3.25 C 2,3.1115 2.1115,3 2.25,3 z M 5,3 11,3 11,8 5,8 5,3 z m 8.25,0 0.5,0 C 13.8885,3 14,3.1115 14,3.25 l 0,0.5 C 14,3.8885 13.8885,4 13.75,4 l -0.5,0 C 13.1115,4 13,3.8885 13,3.75 l 0,-0.5 C 13,3.1115 13.1115,3 13.25,3 z m -11,2 0.5,0 C 2.8885,5 3,5.1115 3,5.25 l 0,0.5 C 3,5.8885 2.8885,6 2.75,6 L 2.25,6 C 2.1115,6 2,5.8885 2,5.75 L 2,5.25 C 2,5.1115 2.1115,5 2.25,5 z m 11,0 0.5,0 C 13.8885,5 14,5.1115 14,5.25 l 0,0.5 C 14,5.8885 13.8885,6 13.75,6 l -0.5,0 C 13.1115,6 13,5.8885 13,5.75 l 0,-0.5 C 13,5.1115 13.1115,5 13.25,5 z m -11,2 0.5,0 C 2.8885,7 3,7.1115 3,7.25 l 0,0.5 C 3,7.8885 2.8885,8 2.75,8 L 2.25,8 C 2.1115,8 2,7.8885 2,7.75 L 2,7.25 C 2,7.1115 2.1115,7 2.25,7 z m 11,0 0.5,0 C 13.8885,7 14,7.1115 14,7.25 l 0,0.5 C 14,7.8885 13.8885,8 13.75,8 l -0.5,0 C 13.1115,8 13,7.8885 13,7.75 l 0,-0.5 C 13,7.1115 13.1115,7 13.25,7 z m -11,2 0.5,0 C 2.8885,9 3,9.1115 3,9.25 l 0,0.5 C 3,9.8885 2.8885,10 2.75,10 l -0.5,0 C 2.1115,10 2,9.8885 2,9.75 L 2,9.25 C 2,9.1115 2.1115,9 2.25,9 z M 5,9 l 6,0 0,5 -6,0 0,-5 z m 8.25,0 0.5,0 C 13.8885,9 14,9.1115 14,9.25 l 0,0.5 C 14,9.8885 13.8885,10 13.75,10 l -0.5,0 C 13.1115,10 13,9.8885 13,9.75 l 0,-0.5 C 13,9.1115 13.1115,9 13.25,9 z m -11,2 0.5,0 C 2.8885,11 3,11.1115 3,11.25 l 0,0.5 C 3,11.8885 2.8885,12 2.75,12 l -0.5,0 C 2.1115,12 2,11.8885 2,11.75 l 0,-0.5 C 2,11.1115 2.1115,11 2.25,11 z m 11,0 0.5,0 c 0.1385,0 0.25,0.1115 0.25,0.25 l 0,0.5 C 14,11.8885 13.8885,12 13.75,12 l -0.5,0 C 13.1115,12 13,11.8885 13,11.75 l 0,-0.5 C 13,11.1115 13.1115,11 13.25,11 z m -11,2 0.5,0 C 2.8885,13 3,13.1115 3,13.25 l 0,0.5 C 3,13.8885 2.8885,14 2.75,14 l -0.5,0 C 2.1115,14 2,13.8885 2,13.75 l 0,-0.5 C 2,13.1115 2.1115,13 2.25,13 z m 11,0 0.5,0 c 0.1385,0 0.25,0.1115 0.25,0.25 l 0,0.5 C 14,13.8885 13.8885,14 13.75,14 l -0.5,0 C 13.1115,14 13,13.8885 13,13.75 l 0,-0.5 C 13,13.1115 13.1115,13 13.25,13 z" />
</svg>
