<?xml version="1.0" encoding="UTF-8" standalone="no"?>
<svg
   xmlns:dc="http://purl.org/dc/elements/1.1/"
   xmlns:cc="http://creativecommons.org/ns#"
   xmlns:rdf="http://www.w3.org/1999/02/22-rdf-syntax-ns#"
   xmlns:svg="http://www.w3.org/2000/svg"
   xmlns="http://www.w3.org/2000/svg"
   id="svg2"
   viewBox="0 0 16 16"
   height="100%"
   width="100%"
   version="1.1">
  <metadata
     id="metadata8">
    <rdf:RDF>
      <cc:Work
         rdf:about="">
        <dc:format>image/svg+xml</dc:format>
        <dc:type
           rdf:resource="http://purl.org/dc/dcmitype/StillImage" />
        <dc:title></dc:title>
      </cc:Work>
    </rdf:RDF>
  </metadata>
  <defs
     id="defs6" />
  <rect
     style="fill:none;stroke:none;visibility:hidden"
     id="canvas"
     y="0"
     x="0"
     height="16"
     width="16" />
  <path
     d="M 8,1.3144531 C 4.3165659,1.3144531 1.3144531,4.3165659 1.3144531,8 c 0,3.683434 3.0021128,6.685547 6.6855469,6.685547 3.683434,0 6.685547,-3.002113 6.685547,-6.685547 C 14.685547,4.3165659 11.683434,1.3144531 8,1.3144531 Z m 0,1.4589844 c 2.894857,0 5.226562,2.3317054 5.226562,5.2265625 0,2.894857 -2.331705,5.226562 -5.226562,5.226562 C 5.1051429,13.226562 2.7734375,10.894857 2.7734375,8 2.7734375,5.1051429 5.1051429,2.7734375 8,2.7734375 Z m -0.013672,0.8280588 c -0.496594,0.00733 -0.8934048,0.4155061 -0.8867187,0.9121093 l 0,3.4863944 c 3.445e-4,0.3289101 0.1800668,0.6314427 0.46875,0.7890625 L 9.7039859,10.076734 C 10.774551,10.717761 11.68448,9.0543621 10.567267,8.4986096 l -1.6668764,-1.0318127 0,-2.9531913 C 8.9072275,4.006289 8.4936289,3.5935742 7.9863281,3.6014963 Z"
     style="color:#000000;font-style:normal;font-variant:normal;font-weight:normal;font-stretch:normal;font-size:medium;line-height:normal;font-family:sans-serif;text-indent:0;text-align:start;text-decoration:none;text-decoration-line:none;text-decoration-style:solid;text-decoration-color:#000000;letter-spacing:normal;word-spacing:normal;text-transform:none;direction:ltr;block-progression:tb;writing-mode:lr-tb;baseline-shift:baseline;text-anchor:start;white-space:normal;clip-rule:nonzero;display:inline;overflow:visible;visibility:visible;opacity:1;isolation:auto;mix-blend-mode:normal;color-interpolation:sRGB;color-interpolation-filters:linearRGB;solid-color:#000000;solid-opacity:1;fill-opacity:1;fill-rule:nonzero;marker:none;color-rendering:auto;image-rendering:auto;shape-rendering:auto;text-rendering:auto;enable-background:accumulate"
     id="path4476" />
</svg>
