<?xml version="1.0" encoding="UTF-8" standalone="no"?>
<!-- Created with Inkscape (http://www.inkscape.org/) -->

<svg
   xmlns="http://www.w3.org/2000/svg"
   version="1.1"
   width="14"
   height="14"
   viewBox="0 0 14 14">
  <rect
     width="14"
     height="14"
     x="0"
     y="0"
     id="canvas"
     style="fill:none;stroke:none;visibility:hidden" />
  <path
     d="M 4.00025,0.40625 C 2.23301,1.1855669 0.969,2.9521023 0.969,5 c 0,2.047898 1.26401,3.814433 3.03125,4.59375 l 0,-1.15625 c -1.19553,-0.690791 -2,-1.9493498 -2,-3.4375 0,-1.4881502 0.80447,-2.7467086 2,-3.4375 l 0,-1.15625 z m 6,0 0,1.15625 c 1.19553,0.6907914 2,1.9493498 2,3.4375 0,1.4881502 -0.80447,2.746709 -2,3.4375 l 0,1.15625 C 11.76749,8.814433 13.0315,7.047898 13.0315,5 c 0,-2.0478977 -1.26401,-3.8144331 -3.03125,-4.59375 z m -5,1.78125 c -1.157046,0.4168642 -2,1.5158306 -2,2.8125 0,1.2966694 0.842954,2.395636 2,2.8125 l 0,-1.09375 c -0.596919,-0.3447208 -1,-0.9751803 -1,-1.71875 0,-0.7435697 0.403081,-1.3740292 1,-1.71875 l 0,-1.09375 z m 4,0 0,1.09375 c 0.596919,0.3447208 1,0.9751803 1,1.71875 0,0.7435697 -0.403081,1.3740292 -1,1.71875 l 0,1.09375 c 1.157046,-0.416864 2,-1.5158306 2,-2.8125 0,-1.2966694 -0.842954,-2.3956358 -2,-2.8125 z M 6.844,4 C 6.56275,4.046875 6.00025,4.25 6.00025,5 l 0,8 -3,0 0,1 8,0 0,-1 -3,0 0,-8 c 0,-1 -1,-1 -1,-1 0,0 -0.0625,-0.015625 -0.15625,0 z"
     id="mast-communications" />
</svg>
