<?xml version="1.0" encoding="UTF-8" standalone="no"?>
<!-- Created with Inkscape (http://www.inkscape.org/) -->

<svg
   xmlns="http://www.w3.org/2000/svg"
   version="1.1"
   width="100%"
   height="100%"
   viewBox="0 0 16 16">
  <path
     d="M 5,1.40625 C 3.2327602,2.1855669 1.96875,3.9521023 1.96875,6 1.96875,8.0478977 3.2327602,9.8144331 5,10.59375 L 5,9.4375 C 3.8044698,8.7467087 3,7.4881502 3,6 3,4.5118498 3.8044698,3.2532914 5,2.5625 L 5,1.40625 z m 6,0 0,1.15625 C 12.19553,3.2532914 13,4.5118498 13,6 13,7.4881502 12.19553,8.7467087 11,9.4375 l 0,1.15625 C 12.76724,9.8144331 14.03125,8.0478977 14.03125,6 14.03125,3.9521023 12.76724,2.1855669 11,1.40625 z M 6,3.1875 C 4.8429537,3.6043642 4,4.7033306 4,6 4,7.2966694 4.8429537,8.3956358 6,8.8125 L 6,7.71875 C 5.4030811,7.3740292 5,6.7435697 5,6 5,5.2564303 5.4030811,4.6259708 6,4.28125 L 6,3.1875 z m 4,0 0,1.09375 C 10.596919,4.6259708 11,5.2564303 11,6 11,6.7435697 10.596919,7.3740292 10,7.71875 L 10,8.8125 C 11.157046,8.3956358 12,7.2966694 12,6 12,4.7033306 11.157046,3.6043642 10,3.1875 z M 7.84375,5 C 7.5625,5.046875 7,5.25 7,6 l 0,8 -3,0 0,1 8,0 0,-1 -3,0 0,-8 C 9,5 8,5 8,5 8,5 7.9375,4.984375 7.84375,5 z" />
</svg>
