<?xml version="1.0" encoding="UTF-8" standalone="no"?>
<!-- Created with Inkscape (http://www.inkscape.org/) -->

<svg
   xmlns:dc="http://purl.org/dc/elements/1.1/"
   xmlns:cc="http://creativecommons.org/ns#"
   xmlns:rdf="http://www.w3.org/1999/02/22-rdf-syntax-ns#"
   xmlns:svg="http://www.w3.org/2000/svg"
   xmlns="http://www.w3.org/2000/svg"
   version="1.1"
   width="100%"
   height="100%"
   viewBox="0 0 18 18"
   id="svg2">
  <metadata
     id="metadata8">
    <rdf:RDF>
      <cc:Work
         rdf:about="">
        <dc:format>image/svg+xml</dc:format>
        <dc:type
           rdf:resource="http://purl.org/dc/dcmitype/StillImage" />
        <dc:title></dc:title>
      </cc:Work>
    </rdf:RDF>
  </metadata>
  <defs
     id="defs6" />
  <rect
     width="18"
     height="18"
     x="0"
     y="0"
     id="canvas"
     style="fill:none;stroke:none;visibility:hidden" />
  <g
     id="mast-communications">
    <path
       d="M 6.00025,2.40625 C 4.2330102,3.1855669 2.969,4.9521023 2.969,7 c 0,2.047898 1.2640102,3.814433 3.03125,4.59375 l 0,-1.15625 c -1.1955302,-0.690791 -2,-1.9493498 -2,-3.4375 0,-1.4881502 0.8044698,-2.7467086 2,-3.4375 l 0,-1.15625 z m 6,0 0,1.15625 c 1.19553,0.6907914 2,1.9493498 2,3.4375 0,1.4881502 -0.80447,2.746709 -2,3.4375 l 0,1.15625 C 13.76749,10.814433 15.0315,9.047898 15.0315,7 c 0,-2.0478977 -1.26401,-3.8144331 -3.03125,-4.59375 z m -5,1.78125 c -1.1570463,0.4168642 -2,1.5158306 -2,2.8125 0,1.2966694 0.8429537,2.395636 2,2.8125 l 0,-1.09375 c -0.5969189,-0.3447208 -1,-0.9751803 -1,-1.71875 0,-0.7435697 0.4030811,-1.3740292 1,-1.71875 l 0,-1.09375 z m 4,0 0,1.09375 c 0.596919,0.3447208 1,0.9751803 1,1.71875 0,0.7435697 -0.403081,1.3740292 -1,1.71875 l 0,1.09375 c 1.157046,-0.416864 2,-1.5158306 2,-2.8125 0,-1.2966694 -0.842954,-2.3956358 -2,-2.8125 z M 8.844,6 C 8.56275,6.046875 8.00025,6.25 8.00025,7 l 0,8 -3,0 0,1 8,0 0,-1 -3,0 0,-8 c 0,-1 -1,-1 -1,-1 0,0 -0.0625,-0.015625 -0.15625,0 z"
       id="halo"
       style="opacity:0.3;fill:#ffffff;fill-opacity:1;stroke:#ffffff;stroke-width:2;stroke-miterlimit:4;stroke-opacity:1;stroke-dasharray:none" />
    <path
       d="M 6.00025,2.40625 C 4.23301,3.1855669 2.969,4.9521023 2.969,7 c 0,2.047898 1.26401,3.814433 3.03125,4.59375 l 0,-1.15625 c -1.19553,-0.690791 -2,-1.9493498 -2,-3.4375 0,-1.4881502 0.80447,-2.7467086 2,-3.4375 l 0,-1.15625 z m 6,0 0,1.15625 c 1.19553,0.6907914 2,1.9493498 2,3.4375 0,1.4881502 -0.80447,2.746709 -2,3.4375 l 0,1.15625 C 13.76749,10.814433 15.0315,9.047898 15.0315,7 c 0,-2.0478977 -1.26401,-3.8144331 -3.03125,-4.59375 z m -5,1.78125 c -1.157046,0.4168642 -2,1.5158306 -2,2.8125 0,1.2966694 0.842954,2.395636 2,2.8125 l 0,-1.09375 c -0.596919,-0.3447208 -1,-0.9751803 -1,-1.71875 0,-0.7435697 0.403081,-1.3740292 1,-1.71875 l 0,-1.09375 z m 4,0 0,1.09375 c 0.596919,0.3447208 1,0.9751803 1,1.71875 0,0.7435697 -0.403081,1.3740292 -1,1.71875 l 0,1.09375 c 1.157046,-0.416864 2,-1.5158306 2,-2.8125 0,-1.2966694 -0.842954,-2.3956358 -2,-2.8125 z M 8.844,6 C 8.56275,6.046875 8.00025,6.25 8.00025,7 l 0,8 -3,0 0,1 8,0 0,-1 -3,0 0,-8 c 0,-1 -1,-1 -1,-1 0,0 -0.0625,-0.015625 -0.15625,0 z"
       id="icon"
       style="fill:#1a1a1a;fill-opacity:1;stroke:none" />
  </g>
</svg>
