<?xml version="1.0" encoding="UTF-8" standalone="no"?>
<!-- Created with Inkscape (http://www.inkscape.org/) -->

<svg
   xmlns:dc="http://purl.org/dc/elements/1.1/"
   xmlns:cc="http://creativecommons.org/ns#"
   xmlns:rdf="http://www.w3.org/1999/02/22-rdf-syntax-ns#"
   xmlns:svg="http://www.w3.org/2000/svg"
   xmlns="http://www.w3.org/2000/svg"
   version="1.1"
   width="100%"
   height="100%"
   viewBox="0 0 16 16"
   id="svg2">
  <metadata
     id="metadata8">
    <rdf:RDF>
      <cc:Work
         rdf:about="">
        <dc:format>image/svg+xml</dc:format>
        <dc:type
           rdf:resource="http://purl.org/dc/dcmitype/StillImage" />
        <dc:title></dc:title>
      </cc:Work>
    </rdf:RDF>
  </metadata>
  <defs
     id="defs6" />
  <rect
     width="16"
     height="16"
     x="0"
     y="0"
     id="canvas"
     style="fill:none;stroke:none;visibility:hidden" />
  <path
     d="M 8,1 C 7,1 7,2 7,2 L 3.25,3 3.25,4 1,9 c 0,1 0.792008,2 2.5,2 C 5.207992,11 6,10 6,9 L 3.75,4 7,4 7,14 3,14 2,15 14,15 13,14 9,14 9,4 12.25,4 10,9 c 0,1 0.77294,2 2.5,2 1.72706,0 2.5,-1 2.5,-2 L 12.75,4 12.75,3 9,2 C 9,2 9,1 8,1 z M 3.5,5 5.25,9 1.75,9 z m 9,0 1.75,4 -3.5,0 z"
     id="courthouse"
     style="fill:#1a1a1a;fill-opacity:1" />
</svg>
