<?xml version="1.0" encoding="UTF-8" standalone="no"?>
<!-- Created with Inkscape (http://www.inkscape.org/) -->

<svg
   xmlns:dc="http://purl.org/dc/elements/1.1/"
   xmlns:cc="http://creativecommons.org/ns#"
   xmlns:rdf="http://www.w3.org/1999/02/22-rdf-syntax-ns#"
   xmlns:svg="http://www.w3.org/2000/svg"
   xmlns="http://www.w3.org/2000/svg"
   version="1.1"
   width="100%"
   height="100%"
   viewBox="0 0 18 18"
   id="svg2">
  <metadata
     id="metadata8">
    <rdf:RDF>
      <cc:Work
         rdf:about="">
        <dc:format>image/svg+xml</dc:format>
        <dc:type
           rdf:resource="http://purl.org/dc/dcmitype/StillImage" />
        <dc:title></dc:title>
      </cc:Work>
    </rdf:RDF>
  </metadata>
  <defs
     id="defs6" />
  <rect
     width="18"
     height="18"
     x="0"
     y="0"
     id="canvas"
     style="fill:none;stroke:none;visibility:hidden" />
  <g
     id="dentist">
    <path
       d="m 9,10 c 2,0 2,1 2,3 0,1 -1.0091211,3 0,3 1,0 1.751359,-1.142963 2,-3 0.248641,-1.857037 0,-3 0,-4 C 13,7 14,5 14,4 14,3 13.599761,2.21742 13,2 11,2 11,3 9,3 7,3 7,2 5,2 4.400799,2.21742 4,3 4,4 c 0,1 1,3 1,5 0,1 -0.1223902,2.57334 0,4 0.1223902,1.42666 1,3 2,3 1.008702,0 0,-2 0,-3 0,-2 0,-3 2,-3 z"
       id="halo"
       style="opacity:0.3;fill:#ffffff;fill-opacity:1;stroke:#ffffff;stroke-width:2;stroke-miterlimit:4;stroke-opacity:1;stroke-dasharray:none" />
    <path
       d="m 9,10 c 2,0 2,1 2,3 0,1 -1.009121,3 0,3 1,0 1.751359,-1.142963 2,-3 0.248641,-1.857037 0,-3 0,-4 C 13,7 14,5 14,4 14,3 13.599761,2.21742 13,2 11,2 11,3 9,3 7,3 7,2 5,2 4.400799,2.21742 4,3 4,4 c 0,1 1,3 1,5 0,1 -0.12239,2.57334 0,4 0.12239,1.42666 1,3 2,3 1.008702,0 0,-2 0,-3 0,-2 0,-3 2,-3 z"
       id="icon"
       style="fill:#1a1a1a;fill-opacity:1;stroke:none" />
  </g>
</svg>
