<?xml version="1.0" encoding="UTF-8" standalone="no"?>
<svg
   xmlns:dc="http://purl.org/dc/elements/1.1/"
   xmlns:cc="http://creativecommons.org/ns#"
   xmlns:rdf="http://www.w3.org/1999/02/22-rdf-syntax-ns#"
   xmlns:svg="http://www.w3.org/2000/svg"
   xmlns="http://www.w3.org/2000/svg"
   version="1.1"
   id="svg2"
   viewBox="0 0 12.131796 14"
   height="3.9511111mm"
   width="3.4238625mm">
  <defs
     id="defs4" />
  <metadata
     id="metadata7">
    <rdf:RDF>
      <cc:Work
         rdf:about="">
        <dc:format>image/svg+xml</dc:format>
        <dc:type
           rdf:resource="http://purl.org/dc/dcmitype/StillImage" />
        <dc:title></dc:title>
      </cc:Work>
    </rdf:RDF>
  </metadata>
  <g
     transform="translate(-47.54492,-1002.3066)"
     id="layer1">
    <path
       id="rect3477"
       transform="translate(47.54492,1002.3066)"
       d="M 6.0996094 0 C 5.4632694 0 4.8273554 0.16062188 4.2558594 0.48242188 C 3.1356934 1.1133219 2.4263235 2.2802344 2.3984375 3.5527344 L 0.53125 3.5527344 L 0.033203125 12.972656 L 0.033203125 14 L 12.097656 14 L 11.544922 3.5527344 L 9.8007812 3.5527344 C 9.7728812 2.2802344 9.0635344 1.1133219 7.9433594 0.48242188 C 7.3718644 0.16062187 6.7359504 0 6.0996094 0 z M 6.0996094 1.5273438 C 6.4782704 1.5273438 6.8572935 1.6223 7.1953125 1.8125 C 7.8477355 2.18 8.2462705 2.8365344 8.2734375 3.5527344 L 3.9257812 3.5527344 C 3.9529012 2.8365344 4.3514833 2.18 5.0039062 1.8125 C 5.3419253 1.6222 5.7209494 1.5273438 6.0996094 1.5273438 z M 5.8007812 5.2011719 C 6.5757967 5.2011719 7.1457908 5.3530763 7.5097656 5.6542969 C 7.8737405 5.9555174 8.0546875 6.3158744 8.0546875 6.7363281 C 8.0546875 6.9716567 7.9996765 7.1975602 7.8867188 7.4140625 C 7.7768988 7.6305648 7.6432138 7.8064845 7.4863281 7.9414062 C 7.3294424 8.076328 7.0492964 8.276263 6.6445312 8.5429688 C 6.9802667 8.8787042 7.3293845 9.191799 7.6933594 9.4804688 C 7.7906285 9.2859305 7.8743297 9.0797835 7.9433594 8.8632812 L 9.4394531 9.1972656 C 9.3610103 9.4733845 9.2850581 9.6950293 9.2128906 9.8613281 C 9.1407232 10.027627 9.0399871 10.223303 8.9082031 10.449219 L 9.6269531 10.943359 C 9.7148091 10.999838 9.8287374 11.068042 9.9667969 11.146484 L 8.9355469 12.332031 C 8.747284 12.231624 8.5516077 12.116159 8.3476562 11.984375 C 8.1468425 11.852591 7.9666641 11.738663 7.8066406 11.644531 C 7.4740429 11.864171 7.1411915 12.024593 6.8085938 12.125 C 6.3473498 12.263059 5.8230807 12.332031 5.2363281 12.332031 C 4.3169779 12.332031 3.6322869 12.140614 3.1835938 11.757812 C 2.7349006 11.375011 2.5117188 10.911197 2.5117188 10.365234 C 2.5117188 9.9730201 2.642682 9.6021925 2.90625 9.2539062 C 3.169818 8.9024823 3.6018685 8.6068384 4.2011719 8.3652344 C 3.9501547 8.0608761 3.7777252 7.7969965 3.6835938 7.5742188 C 3.5894623 7.3483033 3.5429688 7.1189096 3.5429688 6.8867188 C 3.5429688 6.3972353 3.7281745 5.9946435 4.1015625 5.6777344 C 4.4749505 5.3608252 5.0414544 5.2011719 5.8007812 5.2011719 z M 5.8808594 6.2363281 C 5.6863211 6.2363281 5.5286209 6.2932923 5.40625 6.40625 C 5.2838791 6.5192077 5.2226562 6.6528926 5.2226562 6.8066406 C 5.2226562 7.0011789 5.3950858 7.2840466 5.7402344 7.6542969 C 5.9881138 7.5193752 6.1795314 7.3736826 6.3144531 7.2167969 C 6.4493748 7.0567734 6.515625 6.904869 6.515625 6.7636719 C 6.515625 6.6161993 6.460614 6.492985 6.3476562 6.3925781 C 6.2346985 6.2890336 6.0785354 6.2363281 5.8808594 6.2363281 z M 5.0566406 9.3300781 C 4.7930726 9.5152033 4.619106 9.6729035 4.53125 9.8046875 C 4.4465317 9.9364715 4.4023438 10.075184 4.4023438 10.222656 C 4.4023438 10.451709 4.5015428 10.657088 4.6992188 10.835938 C 4.8968947 11.014787 5.1557471 11.103516 5.4726562 11.103516 C 5.8146671 11.103516 6.1982709 10.969831 6.625 10.703125 C 6.2170972 10.389354 5.6935966 9.9325193 5.0566406 9.3300781 z "
       style="opacity:1;fill:#000000;fill-opacity:1;stroke:none;stroke-width:8;stroke-miterlimit:4;stroke-dasharray:none;stroke-dashoffset:0;stroke-opacity:1" />
  </g>
</svg>
