<?xml version="1.0" encoding="utf-8"?>
<!-- Generator: Adobe Illustrator 14.0.0, SVG Export Plug-In . SVG Version: 6.00 Build 43363)  -->
<!DOCTYPE svg PUBLIC "-//W3C//DTD SVG 1.1//EN" "http://www.w3.org/Graphics/SVG/1.1/DTD/svg11.dtd">
<svg version="1.1"
	 id="svg2" xmlns:rdf="http://www.w3.org/1999/02/22-rdf-syntax-ns#" sodipodi:docname="shopping_department_store.svg" inkscape:version="0.48.0 r9654" xmlns:svg="http://www.w3.org/2000/svg" xmlns:sodipodi="http://sodipodi.sourceforge.net/DTD/sodipodi-0.dtd" xmlns:inkscape="http://www.inkscape.org/namespaces/inkscape" xmlns:dc="http://purl.org/dc/elements/1.1/" sodipodi:version="0.32" xmlns:cc="http://creativecommons.org/ns#" inkscape:output_extension="org.inkscape.output.svg.inkscape"
	 xmlns="http://www.w3.org/2000/svg" xmlns:xlink="http://www.w3.org/1999/xlink" x="0px" y="0px" width="580px" height="580px"
	 viewBox="0 0 580 580" enable-background="new 0 0 580 580" xml:space="preserve">
<sodipodi:namedview  showgrid="false" inkscape:current-layer="svg2" inkscape:window-y="24" inkscape:window-x="0" inkscape:cy="179.42334" inkscape:cx="396.84257" inkscape:zoom="0.9216771" pagecolor="#ffffff" bordercolor="#666666" borderopacity="1.0" objecttolerance="10.0" gridtolerance="10.0" guidetolerance="10.0" inkscape:window-height="1002" inkscape:window-width="1278" inkscape:pageshadow="2" inkscape:pageopacity="0.0" inkscape:window-maximized="0" id="base" inkscape:guide-bbox="true" showguides="true">
	</sodipodi:namedview>
<defs>
	
	
		<inkscape:perspective  inkscape:persp3d-origin="290 : 193.33333 : 1" inkscape:vp_z="580 : 290 : 1" inkscape:vp_y="6.1230318e-14 : 1000 : 0" inkscape:vp_x="0 : 290 : 1" sodipodi:type="inkscape:persp3d" id="perspective2441">
		</inkscape:perspective>
	
		<inkscape:perspective  inkscape:persp3d-origin="30 : 20 : 1" inkscape:vp_z="60 : 30 : 1" inkscape:vp_y="0 : 1000 : 0" inkscape:vp_x="0 : 30 : 1" sodipodi:type="inkscape:persp3d" id="perspective3452">
		</inkscape:perspective>
	
		<inkscape:perspective  inkscape:persp3d-origin="372.04724 : 350.78739 : 1" inkscape:vp_z="744.09448 : 526.18109 : 1" inkscape:vp_y="0 : 1000 : 0" inkscape:vp_x="0 : 526.18109 : 1" sodipodi:type="inkscape:persp3d" id="perspective4471">
		</inkscape:perspective>
	
		<inkscape:perspective  inkscape:persp3d-origin="6 : 4 : 1" inkscape:vp_z="12 : 6 : 1" inkscape:vp_y="0 : 1000 : 0" inkscape:vp_x="0 : 6 : 1" sodipodi:type="inkscape:persp3d" id="perspective4668">
		</inkscape:perspective>
	
		<inkscape:perspective  inkscape:persp3d-origin="0.5 : 0.33333333 : 1" inkscape:vp_z="1 : 0.5 : 1" inkscape:vp_y="0 : 1000 : 0" inkscape:vp_x="0 : 0.5 : 1" sodipodi:type="inkscape:persp3d" id="perspective3826">
		</inkscape:perspective>
	
		<inkscape:perspective  inkscape:persp3d-origin="0.5 : 0.33333333 : 1" inkscape:vp_z="1 : 0.5 : 1" inkscape:vp_y="0 : 1000 : 0" inkscape:vp_x="0 : 0.5 : 1" sodipodi:type="inkscape:persp3d" id="perspective3855">
		</inkscape:perspective>
	
		<inkscape:perspective  inkscape:persp3d-origin="0.5 : 0.33333333 : 1" inkscape:vp_z="1 : 0.5 : 1" inkscape:vp_y="0 : 1000 : 0" inkscape:vp_x="0 : 0.5 : 1" sodipodi:type="inkscape:persp3d" id="perspective3909">
		</inkscape:perspective>
	
		<inkscape:perspective  inkscape:persp3d-origin="0.5 : 0.33333333 : 1" inkscape:vp_z="1 : 0.5 : 1" inkscape:vp_y="0 : 1000 : 0" inkscape:vp_x="0 : 0.5 : 1" sodipodi:type="inkscape:persp3d" id="perspective3950">
		</inkscape:perspective>
	
		<inkscape:perspective  inkscape:persp3d-origin="0.5 : 0.33333333 : 1" inkscape:vp_z="1 : 0.5 : 1" inkscape:vp_y="0 : 1000 : 0" inkscape:vp_x="0 : 0.5 : 1" sodipodi:type="inkscape:persp3d" id="perspective3972">
		</inkscape:perspective>
	
		<inkscape:perspective  inkscape:persp3d-origin="0.5 : 0.33333333 : 1" inkscape:vp_z="1 : 0.5 : 1" inkscape:vp_y="0 : 1000 : 0" inkscape:vp_x="0 : 0.5 : 1" sodipodi:type="inkscape:persp3d" id="perspective3994">
		</inkscape:perspective>
	
		<inkscape:perspective  inkscape:persp3d-origin="0.5 : 0.33333333 : 1" inkscape:vp_z="1 : 0.5 : 1" inkscape:vp_y="0 : 1000 : 0" inkscape:vp_x="0 : 0.5 : 1" sodipodi:type="inkscape:persp3d" id="perspective4016">
		</inkscape:perspective>
	
		<inkscape:perspective  inkscape:persp3d-origin="0.5 : 0.33333333 : 1" inkscape:vp_z="1 : 0.5 : 1" inkscape:vp_y="0 : 1000 : 0" inkscape:vp_x="0 : 0.5 : 1" sodipodi:type="inkscape:persp3d" id="perspective4837">
		</inkscape:perspective>
	
		<inkscape:perspective  inkscape:persp3d-origin="0.5 : 0.33333333 : 1" inkscape:vp_z="1 : 0.5 : 1" inkscape:vp_y="0 : 1000 : 0" inkscape:vp_x="0 : 0.5 : 1" sodipodi:type="inkscape:persp3d" id="perspective4971">
		</inkscape:perspective>
	
		<inkscape:perspective  inkscape:persp3d-origin="0.5 : 0.33333333 : 1" inkscape:vp_z="1 : 0.5 : 1" inkscape:vp_y="0 : 1000 : 0" inkscape:vp_x="0 : 0.5 : 1" sodipodi:type="inkscape:persp3d" id="perspective6216">
		</inkscape:perspective>
	
		<inkscape:perspective  inkscape:persp3d-origin="0.5 : 0.33333333 : 1" inkscape:vp_z="1 : 0.5 : 1" inkscape:vp_y="0 : 1000 : 0" inkscape:vp_x="0 : 0.5 : 1" sodipodi:type="inkscape:persp3d" id="perspective6764">
		</inkscape:perspective>
	
		<inkscape:perspective  inkscape:persp3d-origin="0.5 : 0.33333333 : 1" inkscape:vp_z="1 : 0.5 : 1" inkscape:vp_y="0 : 1000 : 0" inkscape:vp_x="0 : 0.5 : 1" sodipodi:type="inkscape:persp3d" id="perspective6817">
		</inkscape:perspective>
	
		<inkscape:perspective  inkscape:persp3d-origin="0.5 : 0.33333333 : 1" inkscape:vp_z="1 : 0.5 : 1" inkscape:vp_y="0 : 1000 : 0" inkscape:vp_x="0 : 0.5 : 1" sodipodi:type="inkscape:persp3d" id="perspective6928">
		</inkscape:perspective>
	
		<inkscape:perspective  inkscape:persp3d-origin="0.5 : 0.33333333 : 1" inkscape:vp_z="1 : 0.5 : 1" inkscape:vp_y="0 : 1000 : 0" inkscape:vp_x="0 : 0.5 : 1" sodipodi:type="inkscape:persp3d" id="perspective10781">
		</inkscape:perspective>
	
		<inkscape:perspective  inkscape:persp3d-origin="0.5 : 0.33333333 : 1" inkscape:vp_z="1 : 0.5 : 1" inkscape:vp_y="0 : 1000 : 0" inkscape:vp_x="0 : 0.5 : 1" sodipodi:type="inkscape:persp3d" id="perspective10806">
		</inkscape:perspective>
	
		<inkscape:perspective  inkscape:persp3d-origin="0.5 : 0.33333333 : 1" inkscape:vp_z="1 : 0.5 : 1" inkscape:vp_y="0 : 1000 : 0" inkscape:vp_x="0 : 0.5 : 1" sodipodi:type="inkscape:persp3d" id="perspective10878">
		</inkscape:perspective>
	
		<inkscape:perspective  inkscape:persp3d-origin="0.5 : 0.33333333 : 1" inkscape:vp_z="1 : 0.5 : 1" inkscape:vp_y="0 : 1000 : 0" inkscape:vp_x="0 : 0.5 : 1" sodipodi:type="inkscape:persp3d" id="perspective10919">
		</inkscape:perspective>
</defs>
<g id="layer3" transform="matrix(48.14969,0,0,48.14969,-536.27327,-33.306752)" inkscape:label="Layout" display="none">
	<rect id="rect4134" x="1" y="1" display="inline" fill="none" stroke="#757575" stroke-width="0.1" width="10" height="10"/>
	<rect id="rect4136" x="2" y="2" display="inline" fill="none" stroke="#757575" stroke-width="0.1" width="8" height="8"/>
</g>
<g id="g3338" transform="matrix(1.3973279,-0.2437849,0.2437849,1.3973279,-185.07402,-56.183307)">
</g>
<g id="g4238" transform="matrix(1.9550492,0,0,1.9550492,130.03311,-143.33673)">
	<path id="path6571" inkscape:connector-curvature="0" fill="#93278F" d="M86.663,224.198c0,0-0.317,1.074-1.248,0.754
		C85.415,224.952,85.528,224.016,86.663,224.198L86.663,224.198z"/>
	<path id="path6573" inkscape:connector-curvature="0" fill="#93278F" d="M85.103,225.526c0.161-0.159,0.381-0.255,0.624-0.255
		c0.492,0,0.893,0.399,0.893,0.892c0,0.018,0,0.033-0.001,0.052h-0.001c-0.015,0.193-0.077,0.433-0.222,0.73
		c0,0-0.25,0.479-0.451,0.698l-0.018,0.017c-0.097,0.098-0.233,0.159-0.382,0.159c-0.181,0-0.342-0.088-0.44-0.225h-0.003
		c-0.098,0.137-0.259,0.225-0.441,0.225c-0.149,0-0.284-0.061-0.382-0.159l-0.018-0.017c-0.199-0.219-0.451-0.698-0.451-0.698
		c-0.145-0.298-0.207-0.539-0.221-0.73h-0.004c-0.002-0.018-0.002-0.033-0.002-0.052c0-0.493,0.401-0.892,0.895-0.892
		C84.72,225.271,84.94,225.367,85.103,225.526"/>
	<path id="path10957" inkscape:connector-curvature="0" fill="#93278F" d="M83.781,223.864c0,0,0.188,0.938,1.006,0.736
		C84.787,224.601,84.762,223.796,83.781,223.864z"/>
	<path id="path10959" inkscape:connector-curvature="0" fill="#93278F" d="M85.077,225.337c0,0-0.009-0.963-0.109-1.214
		c-0.1-0.251,0.336,0,0.336,0L85.077,225.337z"/>
</g>
<g id="g4015" transform="translate(2,-4)">
	
		<path id="path3470" inkscape:connector-curvature="0" fill="#93278F" stroke="#93278F" stroke-width="0.1647" stroke-linecap="round" stroke-linejoin="round" d="
		M283.016,300.277l3.45,4.532l3.744-1.812l-3.357-4.493L283.016,300.277z"/>
	
		<path id="path3474" inkscape:connector-curvature="0" fill="#93278F" stroke="#93278F" stroke-width="0.1647" stroke-linecap="round" stroke-linejoin="round" d="
		M282.595,300.727l3.391,4.464l-0.098,1.592l-3.422-4.474L282.595,300.727z"/>
	
		<path id="path3476" sodipodi:nodetypes="ccccc" inkscape:connector-curvature="0" opacity="0.75" fill="#93278F" stroke="#93278F" stroke-width="0.2714" stroke-linecap="round" stroke-linejoin="round" enable-background="new    " d="
		M290.119,303.851l-3.531,1.743l-0.006,0.053l3.528-1.743L290.119,303.851z"/>
	
		<path id="path3505" sodipodi:nodetypes="ccccc" inkscape:connector-curvature="0" opacity="0.75" fill="#93278F" stroke="#93278F" stroke-width="0.2714" stroke-linecap="round" stroke-linejoin="round" enable-background="new    " d="
		M290.051,304.81l-3.531,1.743l-0.006,0.052l3.527-1.742L290.051,304.81z"/>
</g>
<g id="g3753" transform="matrix(0.46271964,0,0,0.46271964,307.94236,19.163088)">
	<g id="g3709" transform="matrix(31.921892,0,0,31.921892,35.399153,14.948442)">
		
			<path id="path3700" inkscape:connector-curvature="0" fill="none" stroke="#93278F" stroke-width="0.03" stroke-linejoin="round" d="
			M-1.881,18.102l-0.225-0.27h0.45L-1.881,18.102z"/>
		
			<path id="path3702" inkscape:connector-curvature="0" fill="none" stroke="#93278F" stroke-width="0.03" stroke-linejoin="round" d="
			M-2.106,17.832l0.075-0.09h0.3l0.075,0.09H-2.106z"/>
		
			<path id="path3706" inkscape:connector-curvature="0" fill="none" stroke="#93278F" stroke-width="0.03" stroke-linejoin="round" d="
			M-1.986,17.742l0.105,0.36l0.105-0.36"/>
	</g>
	
		<path id="path3700-3" inkscape:connector-curvature="0" opacity="0.1" fill="#FFFFFF" stroke="#93278F" stroke-width="0.9577" stroke-linejoin="round" enable-background="new    " d="
		M-24.653,592.807l-7.182-8.619h14.366L-24.653,592.807z"/>
	
		<path id="path3702-2" inkscape:connector-curvature="0" opacity="0.1" fill="#FFFFFF" stroke="#93278F" stroke-width="0.9577" stroke-linejoin="round" enable-background="new    " d="
		M-31.835,584.188l2.395-2.873h9.575l2.395,2.873H-31.835z"/>
</g>
<g id="g3219" transform="matrix(1.7547704,0,0,1.7547704,-87.875856,-928.42807)">
	
		<path id="path2427" sodipodi:nodetypes="ccccccccccc" inkscape:connector-curvature="0" fill="#93278F" stroke="#93278F" stroke-width="0.06" d="
		M212.028,693.334c0.734-0.393,1.361-0.353,1.981-0.692c0.333,0.073,0.581,0.044,0.81-0.008c0.703,0.324,1.321,0.376,1.981,0.708
		c-0.055,0.347-0.176,0.646-0.378,0.888c-0.244-0.131-0.476-0.183-0.7-0.189l-0.016,2.359c-0.964,0.179-1.781,0.102-2.579-0.008
		l-0.008-2.343c-0.281-0.008-0.495,0.096-0.715,0.189C212.193,693.948,212.094,693.644,212.028,693.334L212.028,693.334z"/>
	
		<path id="path3199" sodipodi:nodetypes="cc" inkscape:connector-curvature="0" fill="#93278F" stroke="#93278F" stroke-width="0.03" d="
		M212.138,693.294c0.066,0.323,0.183,0.624,0.409,0.88"/>
	
		<path id="path3203" sodipodi:nodetypes="cc" inkscape:connector-curvature="0" fill="#93278F" stroke="#93278F" stroke-width="0.03" d="
		M213.16,696.266c0.844,0.139,1.688,0.168,2.532-0.008"/>
	
		<path id="path3205" sodipodi:nodetypes="czc" inkscape:connector-curvature="0" fill="#93278F" stroke="#93278F" stroke-width="0.03" d="
		M214.001,692.65c-0.007,0.07,0.051,0.382,0.417,0.401c0.358,0.019,0.428-0.346,0.417-0.393"/>
	
		<path id="path3207" sodipodi:nodetypes="czc" inkscape:connector-curvature="0" fill="#93278F" stroke="#93278F" stroke-width="0.03" d="
		M213.846,692.734c-0.007,0.07,0.137,0.453,0.55,0.464c0.421,0.011,0.593-0.44,0.582-0.488"/>
	
		<path id="path3209" sodipodi:nodetypes="cc" inkscape:connector-curvature="0" fill="#93278F" stroke="#93278F" stroke-width="0.03" d="
		M214.035,692.791c0.256,0.067,0.482,0.053,0.76-0.006"/>
	
		<path id="path3213" sodipodi:nodetypes="cc" inkscape:connector-curvature="0" fill="#93278F" stroke="#93278F" stroke-width="0.03" d="
		M213.124,692.97c0.077,0.296,0.205,0.644-0.008,1.061"/>
	
		<path id="path3215" sodipodi:nodetypes="cc" inkscape:connector-curvature="0" fill="#93278F" stroke="#93278F" stroke-width="0.03" d="
		M215.71,692.975c-0.077,0.297-0.205,0.645,0.008,1.062"/>
	
		<path id="path3217" sodipodi:nodetypes="cc" inkscape:connector-curvature="0" fill="#93278F" stroke="#93278F" stroke-width="0.03" d="
		M216.698,693.286c-0.066,0.323-0.183,0.624-0.409,0.881"/>
</g>
</svg>
