<?xml version="1.0" encoding="utf-8"?>
<!-- Generator: Adobe Illustrator 14.0.0, SVG Export Plug-In . SVG Version: 6.00 Build 43363)  -->
<!DOCTYPE svg PUBLIC "-//W3C//DTD SVG 1.1//EN" "http://www.w3.org/Graphics/SVG/1.1/DTD/svg11.dtd">
<svg version="1.1"
	 id="svg2" xmlns:rdf="http://www.w3.org/1999/02/22-rdf-syntax-ns#" sodipodi:docname="shopping_diy.svg" inkscape:version="0.46" xmlns:svg="http://www.w3.org/2000/svg" xmlns:sodipodi="http://sodipodi.sourceforge.net/DTD/sodipodi-0.dtd" xmlns:inkscape="http://www.inkscape.org/namespaces/inkscape" xmlns:dc="http://purl.org/dc/elements/1.1/" sodipodi:version="0.32" xmlns:cc="http://creativecommons.org/ns#" inkscape:output_extension="org.inkscape.output.svg.inkscape" sodipodi:docbase="s:\Data\FacilityIcons"
	 xmlns="http://www.w3.org/2000/svg" xmlns:xlink="http://www.w3.org/1999/xlink" x="0px" y="0px" width="580px" height="580px"
	 viewBox="0 0 580 580" enable-background="new 0 0 580 580" xml:space="preserve">
	<path id="outline1_2_" fill="#93278F" stroke="#93278F" stroke-width="0.2476" stroke-linecap="round" stroke-linejoin="round" d="
		M291.675,280.941l0.009,1.934l0.844,0.463l0.84-0.475l-0.01-1.934l0.875-0.006l0.504,2.709l-1.554,1.068l0.343,9.491
		c0.014,1.413-2.002,1.308-1.957,0.045l0.219-9.559l-1.627-1.018l0.572-2.719H291.675z M292.55,293.842
		c-0.248,0-0.452,0.205-0.451,0.454c0.003,0.251,0.206,0.452,0.454,0.451c0.249,0,0.452-0.206,0.451-0.454
		C293.007,294.042,292.801,293.838,292.55,293.842z"/>
<path id="SVGID_3_" fill="#93278F" d="M280.147,283.315l0.077-0.05c0.492-0.986,3.12-1.682,3.616-0.449
	c0.042,0.229,0.299,0.454,0.564,0.492l0.007,4.153c-0.232,0-0.488,0.262-0.493,0.495l-0.128,6.729
	c-0.012,0.612,0.49,0.621,0.756,0.623l1.232-0.002c0.269,0,0.805-0.177,0.789-0.697l-0.185-6.654
	c-0.006-0.232-0.261-0.487-0.492-0.49l-0.001-0.002l-0.005-4.168c0.418-0.022,0.643-0.213,0.786-0.464
	c0.276-0.485,0.861-0.326,1.361-0.283l-0.001,0.204c0.002,0.307,0.276,0.551,0.618,0.551c0.342,0,0.616-0.247,0.615-0.552
	l-0.001-1.361c-0.002-0.306-0.276-0.551-0.617-0.549c-0.309,0-0.552,0.204-0.597,0.47c-0.991-0.056-0.825-0.379-2.123-0.444
	l-2.333-0.021C281.944,280.862,280.867,281.944,280.147,283.315z"/>
</svg>
