<?xml version="1.0" encoding="utf-8"?>
<!-- Generator: Adobe Illustrator 14.0.0, SVG Export Plug-In . SVG Version: 6.00 Build 43363)  -->
<!DOCTYPE svg PUBLIC "-//W3C//DTD SVG 1.1//EN" "http://www.w3.org/Graphics/SVG/1.1/DTD/svg11.dtd">
<svg version="1.1"
	 id="svg2" xmlns:rdf="http://www.w3.org/1999/02/22-rdf-syntax-ns#" sodipodi:docname="shopping_diy.svg" inkscape:version="0.46" xmlns:svg="http://www.w3.org/2000/svg" xmlns:sodipodi="http://sodipodi.sourceforge.net/DTD/sodipodi-0.dtd" xmlns:inkscape="http://www.inkscape.org/namespaces/inkscape" xmlns:dc="http://purl.org/dc/elements/1.1/" sodipodi:version="0.32" xmlns:cc="http://creativecommons.org/ns#" inkscape:output_extension="org.inkscape.output.svg.inkscape" sodipodi:docbase="s:\Data\FacilityIcons"
	 xmlns="http://www.w3.org/2000/svg" xmlns:xlink="http://www.w3.org/1999/xlink" x="0px" y="0px" width="580px" height="580px"
	 viewBox="0 0 580 580" enable-background="new 0 0 580 580" xml:space="preserve">
<sodipodi:namedview  showgrid="false" inkscape:current-layer="svg2" inkscape:window-y="1" inkscape:window-x="1" inkscape:cy="279.75046" inkscape:cx="850.77138" inkscape:zoom="0.46083856" pagecolor="#ffffff" bordercolor="#666666" borderopacity="1.0" objecttolerance="10.0" gridtolerance="10.0" guidetolerance="10.0" inkscape:window-height="711" inkscape:window-width="1014" inkscape:pageshadow="2" inkscape:pageopacity="0.0" id="base">
	</sodipodi:namedview>
<defs>
	
	
		<inkscape:perspective  inkscape:persp3d-origin="290 : 193.33333 : 1" inkscape:vp_z="580 : 290 : 1" inkscape:vp_y="0 : 1000 : 0" inkscape:vp_x="0 : 290 : 1" sodipodi:type="inkscape:persp3d" id="perspective2441">
		</inkscape:perspective>
	
		<inkscape:perspective  inkscape:persp3d-origin="30 : 20 : 1" inkscape:vp_z="60 : 30 : 1" inkscape:vp_y="0 : 1000 : 0" inkscape:vp_x="0 : 30 : 1" sodipodi:type="inkscape:persp3d" id="perspective3452">
		</inkscape:perspective>
	
		<inkscape:perspective  inkscape:persp3d-origin="372.04724 : 350.78739 : 1" inkscape:vp_z="744.09448 : 526.18109 : 1" inkscape:vp_y="0 : 1000 : 0" inkscape:vp_x="0 : 526.18109 : 1" sodipodi:type="inkscape:persp3d" id="perspective4471">
		</inkscape:perspective>
	
		<inkscape:perspective  inkscape:persp3d-origin="6 : 4 : 1" inkscape:vp_z="12 : 6 : 1" inkscape:vp_y="0 : 1000 : 0" inkscape:vp_x="0 : 6 : 1" sodipodi:type="inkscape:persp3d" id="perspective4668">
		</inkscape:perspective>
	
		<inkscape:perspective  inkscape:persp3d-origin="16 : 10.666667 : 1" inkscape:vp_z="32 : 16 : 1" inkscape:vp_y="0 : 1000 : 0" inkscape:vp_x="0 : 16 : 1" sodipodi:type="inkscape:persp3d" id="perspective4904">
		</inkscape:perspective>
	
		<inkscape:perspective  inkscape:persp3d-origin="16 : 10.666667 : 1" inkscape:vp_z="32 : 16 : 1" inkscape:vp_y="0 : 1000 : 0" inkscape:vp_x="0 : 16 : 1" sodipodi:type="inkscape:persp3d" id="perspective5233">
		</inkscape:perspective>
	
		<inkscape:perspective  inkscape:persp3d-origin="250 : 166.66667 : 1" inkscape:vp_z="500 : 250 : 1" inkscape:vp_y="0 : 1000 : 0" inkscape:vp_x="0 : 250 : 1" sodipodi:type="inkscape:persp3d" id="perspective5412">
		</inkscape:perspective>
	
		<inkscape:perspective  inkscape:persp3d-origin="202.85715 : 136.19048 : 1" inkscape:vp_z="405.71429 : 204.28572 : 1" inkscape:vp_y="0 : 1000 : 0" inkscape:vp_x="0 : 204.28572 : 1" sodipodi:type="inkscape:persp3d" id="perspective5571">
		</inkscape:perspective>
	
		<inkscape:perspective  inkscape:persp3d-origin="64 : 42.666667 : 1" inkscape:vp_z="128 : 64 : 1" inkscape:vp_y="0 : 1000 : 0" inkscape:vp_x="0 : 64 : 1" sodipodi:type="inkscape:persp3d" id="perspective6552">
		</inkscape:perspective>
	
		<inkscape:perspective  inkscape:persp3d-origin="238.5 : 114.33333 : 1" inkscape:vp_z="477 : 171.5 : 1" inkscape:vp_y="0 : 1000 : 0" inkscape:vp_x="0 : 171.5 : 1" sodipodi:type="inkscape:persp3d" id="perspective8761">
		</inkscape:perspective>
	
		<inkscape:perspective  inkscape:persp3d-origin="52.830002 : 33.539668 : 1" inkscape:vp_z="105.66 : 50.309502 : 1" inkscape:vp_y="0 : 1000 : 0" inkscape:vp_x="0 : 50.309502 : 1" sodipodi:type="inkscape:persp3d" id="perspective10479">
		</inkscape:perspective>
	
		<inkscape:perspective  inkscape:persp3d-origin="223.9745 : 153.55566 : 1" inkscape:vp_z="447.94901 : 230.3335 : 1" inkscape:vp_y="0 : 1000 : 0" inkscape:vp_x="0 : 230.3335 : 1" sodipodi:type="inkscape:persp3d" id="perspective10853">
		</inkscape:perspective>
	
		<inkscape:perspective  inkscape:persp3d-origin="64 : 42.666667 : 1" inkscape:vp_z="128 : 64 : 1" inkscape:vp_y="0 : 1000 : 0" inkscape:vp_x="0 : 64 : 1" sodipodi:type="inkscape:persp3d" id="perspective4693">
		</inkscape:perspective>
</defs>
<g id="layer3" transform="matrix(48.14969,0,0,48.14969,-536.27327,-33.306752)" inkscape:label="Layout" display="none">
	<rect id="rect4134" x="1" y="1" display="inline" fill="none" stroke="#757575" stroke-width="0.1" width="10" height="10"/>
	<rect id="rect4136" x="2" y="2" display="inline" fill="none" stroke="#757575" stroke-width="0.1" width="8" height="8"/>
</g>
<g id="spanner" transform="matrix(-2.39037,-2.47827,2.47827,-2.39037,402.26708,618.45764)">
	<g id="use4649">
		<path id="outline1" fill="#93278F" stroke="#93278F" stroke-width="0.2476" stroke-linecap="round" stroke-linejoin="round" d="
			M92.851,44.933l-0.406-0.388l-0.267,0.083l-0.07,0.271l0.406,0.388l-0.175,0.184l-0.668-0.441l0.09-0.54l-2.053-1.842
			c-0.298-0.282,0.13-0.682,0.385-0.418l1.954,1.973l0.541-0.135l0.453,0.668L92.851,44.933z M89.978,42.515
			c0.05-0.052,0.048-0.136-0.004-0.186c-0.053-0.05-0.136-0.048-0.186,0.004c-0.05,0.052-0.048,0.136,0.004,0.186
			C89.844,42.57,89.928,42.568,89.978,42.515z"/>
	</g>
	<g id="use4651">
		
			<path id="outline1_1_" fill="#93278F" stroke="#93278F" stroke-width="0.2476" stroke-linecap="round" stroke-linejoin="round" d="
			M92.851,44.933l-0.406-0.388l-0.267,0.083l-0.07,0.271l0.406,0.388l-0.175,0.184l-0.668-0.441l0.09-0.54l-2.053-1.842
			c-0.298-0.282,0.13-0.682,0.385-0.418l1.954,1.973l0.541-0.135l0.453,0.668L92.851,44.933z M89.978,42.515
			c0.05-0.052,0.048-0.136-0.004-0.186c-0.053-0.05-0.136-0.048-0.186,0.004c-0.05,0.052-0.048,0.136,0.004,0.186
			C89.844,42.57,89.928,42.568,89.978,42.515z"/>
	</g>
	<g id="use4653">
		
			<path id="outline1_2_" fill="#93278F" stroke="#93278F" stroke-width="0.2476" stroke-linecap="round" stroke-linejoin="round" d="
			M92.851,44.933l-0.406-0.388l-0.267,0.083l-0.07,0.271l0.406,0.388l-0.175,0.184l-0.668-0.441l0.09-0.54l-2.053-1.842
			c-0.298-0.282,0.13-0.682,0.385-0.418l1.954,1.973l0.541-0.135l0.453,0.668L92.851,44.933z M89.978,42.515
			c0.05-0.052,0.048-0.136-0.004-0.186c-0.053-0.05-0.136-0.048-0.186,0.004c-0.05,0.052-0.048,0.136,0.004,0.186
			C89.844,42.57,89.928,42.568,89.978,42.515z"/>
	</g>
	<g>
		<defs>
			<path id="SVGID_1_" d="M92.851,44.933l-0.406-0.388l-0.267,0.083l-0.07,0.271l0.406,0.388l-0.175,0.184l-0.668-0.441l0.09-0.54
				l-2.053-1.842c-0.298-0.282,0.13-0.682,0.385-0.418l1.954,1.973l0.541-0.135l0.453,0.668L92.851,44.933z M89.978,42.515
				c0.05-0.052,0.048-0.136-0.004-0.186c-0.053-0.05-0.136-0.048-0.186,0.004c-0.05,0.052-0.048,0.136,0.004,0.186
				C89.844,42.57,89.928,42.568,89.978,42.515z"/>
		</defs>
		<use xlink:href="#SVGID_1_"  overflow="visible" fill="#93278F"/>
		<clipPath id="SVGID_2_">
			<use xlink:href="#SVGID_1_"  overflow="visible"/>
		</clipPath>
		<g id="use4655" clip-path="url(#SVGID_2_)">
			
				<path id="outline1_3_" fill="#93278F" stroke="#93278F" stroke-width="0.2476" stroke-linecap="round" stroke-linejoin="round" d="
				M92.851,44.933l-0.406-0.388l-0.267,0.083l-0.07,0.271l0.406,0.388l-0.175,0.184l-0.668-0.441l0.09-0.54l-2.053-1.842
				c-0.298-0.282,0.13-0.682,0.385-0.418l1.954,1.973l0.541-0.135l0.453,0.668L92.851,44.933z M89.978,42.515
				c0.05-0.052,0.048-0.136-0.004-0.186c-0.053-0.05-0.136-0.048-0.186,0.004c-0.05,0.052-0.048,0.136,0.004,0.186
				C89.844,42.57,89.928,42.568,89.978,42.515z"/>
		</g>
		<use xlink:href="#SVGID_1_"  overflow="visible" fill="none" stroke="#93278F" stroke-width="0.03"/>
	</g>
	<path id="path4657" fill="#93278F" stroke="#93278F" stroke-width="0.2476" stroke-linecap="round" stroke-linejoin="round" d="
		M92.905,44.874l-0.419-0.402l-0.356,0.11l-0.092,0.338l0.43,0.406l-0.136,0.148l-0.621-0.421l0.114-0.582l-2.076-1.868
		c-0.26-0.224,0.068-0.621,0.348-0.349l1.979,2.005l0.523-0.13l0.444,0.602L92.905,44.874z M89.992,42.49
		c0.05-0.052,0.058-0.143,0.005-0.193c-0.052-0.051-0.144-0.09-0.241-0.015c-0.06,0.063-0.055,0.161,0.012,0.22
		C89.821,42.553,89.941,42.543,89.992,42.49z"/>
	<path id="path4659" fill="#93278F" stroke="#93278F" stroke-width="0.2476" stroke-linecap="round" stroke-linejoin="round" d="
		M92.904,44.878l-0.74-0.702l0.422-0.108l0.456,0.667L92.904,44.878z"/>
</g>
<g>
	<defs>
		<path id="SVGID_3_" d="M280.147,283.315l0.077-0.05c0.492-0.986,3.12-1.682,3.616-0.449c0.042,0.229,0.299,0.454,0.564,0.492
			l0.007,4.153c-0.232,0-0.488,0.262-0.493,0.495l-0.128,6.729c-0.012,0.613,0.49,0.622,0.756,0.624l1.232-0.002
			c0.269-0.001,0.805-0.177,0.789-0.697l-0.185-6.655c-0.006-0.232-0.261-0.487-0.492-0.49c0,0-0.001-0.002-0.001-0.002
			l-0.005-4.168c0.418-0.022,0.643-0.213,0.786-0.464c0.276-0.485,0.861-0.326,1.361-0.283l-0.001,0.204
			c0.002,0.307,0.276,0.551,0.618,0.551s0.616-0.247,0.615-0.552l-0.001-1.361c-0.002-0.306-0.276-0.551-0.617-0.549
			c-0.309,0-0.552,0.204-0.597,0.47c-0.991-0.056-0.825-0.379-2.123-0.444l-2.333-0.021
			C281.944,280.862,280.867,281.944,280.147,283.315z"/>
	</defs>
	<use xlink:href="#SVGID_3_"  overflow="visible" fill="#93278F"/>
	<clipPath id="SVGID_4_">
		<use xlink:href="#SVGID_3_"  overflow="visible"/>
	</clipPath>
	<g id="use4686" transform="matrix(2.7849965,-2.7934095,2.7934095,2.7849965,-144.60212,251.90736)" clip-path="url(#SVGID_4_)">
		<path id="outline2" fill="#93278F" stroke="#93278F" stroke-width="0.0761" stroke-linecap="round" stroke-linejoin="round" d="
			M280.147,283.315l0.077-0.05c0.492-0.986,3.12-1.682,3.616-0.449c0.042,0.229,0.299,0.454,0.564,0.492l0.007,4.153
			c-0.232,0-0.488,0.262-0.493,0.495l-0.128,6.729c-0.012,0.613,0.49,0.622,0.756,0.624l1.232-0.002
			c0.269-0.001,0.805-0.177,0.789-0.697l-0.185-6.655c-0.006-0.232-0.261-0.487-0.492-0.49c0,0-0.001-0.002-0.001-0.002
			l-0.005-4.168c0.418-0.022,0.643-0.213,0.786-0.464c0.276-0.485,0.861-0.326,1.361-0.283l-0.001,0.204
			c0.002,0.307,0.276,0.551,0.618,0.551s0.616-0.247,0.615-0.552l-0.001-1.361c-0.002-0.306-0.276-0.551-0.617-0.549
			c-0.309,0-0.552,0.204-0.597,0.47c-0.991-0.056-0.825-0.379-2.123-0.444l-2.333-0.021
			C281.944,280.862,280.867,281.944,280.147,283.315z"/>
	</g>
	<use xlink:href="#SVGID_3_"  overflow="visible" fill="none" stroke="#93278F" stroke-width="0.03"/>
</g>
</svg>
