<?xml version="1.0" encoding="UTF-8" standalone="no"?>
<!-- Created with Inkscape (http://www.inkscape.org/) -->

<svg
   xmlns="http://www.w3.org/2000/svg"
   version="1.1"
   width="100%"
   height="100%"
   viewBox="0 0 16 16">
  <path
     d="M 8,2 C 6.83929,2 5.6678336,2.5047052 4.875,3.5 4.1875142,4.3630449 4,5 3.90625,6.0000004 1.01009,6.0238004 1,7.0817104 1,14 l 14,0 C 15,7.0817104 14.9899,6.0237504 12.09375,6.0000004 12,5 11.795537,4.3460958 11.125,3.5 10.334655,2.5027279 9.16071,2 8,2 z m 0,2 c 1.281412,-0.00489 2,1 2.0625,2.0000004 l -4.125,0 C 6,5 6.718588,4.0048937 8,4 z m -1,3.0000004 2,0 L 9,9 l 2,0 0,2 -2,0 0,2 -2,0 0,-2 -2,0 0,-2 2,0 z" />
</svg>
