<?xml version="1.0" encoding="UTF-8" standalone="no"?>
<!-- Created with Inkscape (http://www.inkscape.org/) -->

<svg
   xmlns:dc="http://purl.org/dc/elements/1.1/"
   xmlns:cc="http://creativecommons.org/ns#"
   xmlns:rdf="http://www.w3.org/1999/02/22-rdf-syntax-ns#"
   xmlns:svg="http://www.w3.org/2000/svg"
   xmlns="http://www.w3.org/2000/svg"
   version="1.1"
   width="100%"
   height="100%"
   viewBox="0 0 18 18"
   id="svg2">
  <metadata
     id="metadata8">
    <rdf:RDF>
      <cc:Work
         rdf:about="">
        <dc:format>image/svg+xml</dc:format>
        <dc:type
           rdf:resource="http://purl.org/dc/dcmitype/StillImage" />
        <dc:title></dc:title>
      </cc:Work>
    </rdf:RDF>
  </metadata>
  <defs
     id="defs6" />
  <rect
     width="18"
     height="18"
     x="0"
     y="0"
     id="canvas"
     style="fill:none;stroke:none;visibility:hidden" />
  <g
     id="doctor">
    <path
       d="M 9,3 C 7.83929,3 6.6678336,3.5047052 5.875,4.5 5.1875142,5.3630449 5,6 4.90625,7.0000004 2.01009,7.0238004 2,8.0817104 2,15 l 14,0 C 16,8.0817104 15.9899,7.0237504 13.09375,7.0000004 13,6 12.795537,5.3460958 12.125,4.5 11.334655,3.5027279 10.16071,3 9,3 z m 0,2 c 1.281412,-0.00489 2,1 2.0625,2.0000004 l -4.125,0 C 7,6 7.718588,5.0048937 9,5 z m -1,3.0000004 2,0 L 10,10 l 2,0 0,2 -2,0 0,2 -2,0 0,-2 -2,0 0,-2 2,0 z"
       id="halo"
       style="opacity:0.3;fill:#ffffff;fill-opacity:1;stroke:#ffffff;stroke-width:2;stroke-miterlimit:4;stroke-opacity:1;stroke-dasharray:none" />
    <path
       d="M 9,3 C 7.83929,3 6.667834,3.5047052 5.875,4.5 5.187514,5.3630449 5,6 4.90625,7.0000004 2.01009,7.0238004 2,8.0817104 2,15 l 14,0 C 16,8.0817104 15.9899,7.0237504 13.09375,7.0000004 13,6 12.795537,5.3460958 12.125,4.5 11.334655,3.5027279 10.16071,3 9,3 z m 0,2 c 1.281412,-0.00489 2,1 2.0625,2.0000004 l -4.125,0 C 7,6 7.718588,5.0048937 9,5 z m -1,3.0000004 2,0 L 10,10 l 2,0 0,2 -2,0 0,2 -2,0 0,-2 -2,0 0,-2 2,0 z"
       id="icon"
       style="fill:#1a1a1a;fill-opacity:1;stroke:none" />
  </g>
</svg>
