<?xml version="1.0" encoding="utf-8"?>
<!-- Generator: Adobe Illustrator 14.0.0, SVG Export Plug-In . SVG Version: 6.00 Build 43363)  -->
<!DOCTYPE svg PUBLIC "-//W3C//DTD SVG 1.1//EN" "http://www.w3.org/Graphics/SVG/1.1/DTD/svg11.dtd">
<svg version="1.1" id="Calque_1" xmlns="http://www.w3.org/2000/svg" xmlns:xlink="http://www.w3.org/1999/xlink" x="0px" y="0px"
	 width="300px" height="500px" viewBox="0 0 300 500" enable-background="new 0 0 300 500" xml:space="preserve">
<path fill="#0000FF" d="M146,262.4h8c1.104,0,2,0.895,2,2v8c0,1.104-0.896,2-2,2h-8c-1.105,0-2-0.896-2-2v-8
	C144,263.295,144.895,262.4,146,262.4z"/>
<rect x="145.6" y="264" fill="#FFFFFF" width="8.8" height="8.8"/>
<g>
	<g id="person">
		<circle cx="147.2" cy="265.6" r="0.6"/>
		<path d="M146.6,266.4h1.2c0.332,0,0.6,0.268,0.6,0.6v1.6c0,0.332-0.269,0.6-0.6,0.6h-1.2c-0.332,0-0.6-0.268-0.6-0.6V267
			C146,266.668,146.268,266.4,146.6,266.4z"/>
		<path d="M146.76,268.8L146.76,268.8c0.199,0,0.36,0.269,0.36,0.601v2.399c0,0.331-0.161,0.601-0.36,0.601l0,0
			c-0.199,0-0.36-0.27-0.36-0.601V269.4C146.4,269.068,146.561,268.8,146.76,268.8z"/>
		<path d="M147.64,268.8L147.64,268.8c0.199,0,0.36,0.269,0.36,0.601v2.399c0,0.331-0.162,0.601-0.36,0.601l0,0
			c-0.199,0-0.36-0.27-0.36-0.601V269.4C147.28,269.068,147.441,268.8,147.64,268.8z"/>
	</g>
</g>
<g>
	<g id="person_1_">
		<circle cx="150" cy="265.6" r="0.6"/>
		<path d="M149.4,266.4h1.2c0.332,0,0.6,0.268,0.6,0.6v1.6c0,0.332-0.268,0.6-0.6,0.6h-1.2c-0.332,0-0.6-0.268-0.6-0.6V267
			C148.8,266.668,149.068,266.4,149.4,266.4z"/>
		<path d="M149.56,268.8L149.56,268.8c0.199,0,0.36,0.269,0.36,0.601v2.399c0,0.331-0.162,0.601-0.36,0.601l0,0
			c-0.199,0-0.36-0.27-0.36-0.601V269.4C149.2,269.068,149.361,268.8,149.56,268.8z"/>
		<path d="M150.44,268.8L150.44,268.8c0.199,0,0.36,0.269,0.36,0.601v2.399c0,0.331-0.161,0.601-0.36,0.601l0,0
			c-0.199,0-0.36-0.27-0.36-0.601V269.4C150.08,269.068,150.241,268.8,150.44,268.8z"/>
	</g>
</g>
<g>
	<g id="person_2_">
		<circle cx="152.8" cy="265.6" r="0.6"/>
		<path d="M152.199,266.4h1.201c0.33,0,0.6,0.268,0.6,0.6v1.6c0,0.332-0.27,0.6-0.6,0.6h-1.201c-0.33,0-0.6-0.268-0.6-0.6V267
			C151.6,266.668,151.869,266.4,152.199,266.4z"/>
		<path d="M152.359,268.8L152.359,268.8c0.199,0,0.359,0.269,0.359,0.601v2.399c0,0.331-0.16,0.601-0.359,0.601l0,0
			c-0.199,0-0.359-0.27-0.359-0.601V269.4C152,269.068,152.16,268.8,152.359,268.8z"/>
		<path d="M153.24,268.8L153.24,268.8c0.199,0,0.359,0.269,0.359,0.601v2.399c0,0.331-0.16,0.601-0.359,0.601l0,0
			c-0.199,0-0.361-0.27-0.361-0.601V269.4C152.879,269.068,153.041,268.8,153.24,268.8z"/>
	</g>
</g>
<polyline fill="none" stroke="#0000FF" stroke-width="1.4" stroke-linecap="round" stroke-linejoin="round" points="145.6,258 
	147.6,255.6 149.6,258 147.6,255.6 147.6,261.199 "/>
<polyline fill="none" stroke="#0000FF" stroke-width="1.4" stroke-linecap="round" stroke-linejoin="round" points="154.8,258.8 
	152.8,261.199 150.8,258.8 152.8,261.199 152.8,255.6 "/>
</svg>
