<?xml version="1.0" encoding="UTF-8" standalone="no"?>
<!-- Created with Inkscape (http://www.inkscape.org/) -->

<svg
   xmlns:dc="http://purl.org/dc/elements/1.1/"
   xmlns:cc="http://creativecommons.org/ns#"
   xmlns:rdf="http://www.w3.org/1999/02/22-rdf-syntax-ns#"
   xmlns:svg="http://www.w3.org/2000/svg"
   xmlns="http://www.w3.org/2000/svg"
   version="1.1"
   width="100%"
   height="100%"
   viewBox="0 0 18 18"
   id="svg2">
  <metadata
     id="metadata8">
    <rdf:RDF>
      <cc:Work
         rdf:about="">
        <dc:format>image/svg+xml</dc:format>
        <dc:type
           rdf:resource="http://purl.org/dc/dcmitype/StillImage" />
        <dc:title></dc:title>
      </cc:Work>
    </rdf:RDF>
  </metadata>
  <defs
     id="defs6" />
  <rect
     width="18"
     height="18"
     x="0"
     y="0"
     id="canvas"
     style="fill:none;stroke:none;visibility:hidden" />
  <g
     id="embassy">
    <path
       d="M 10,3 C 7,5 5,3 5,3 l 0,7 c 0,0 2,2 5,0 3,-2 5,0 5,0 L 15,3 C 15,3 13,1 10,3 z M 3.5,2.25 C 3.25,2.25 3,2.5 3,3 l 0,12 c 0,1 1,1 1,0 L 4,3 C 4,2.5 3.75,2.25 3.5,2.25 z"
       id="halo"
       style="opacity:0.3;fill:#ffffff;fill-opacity:1;stroke:#ffffff;stroke-width:2;stroke-miterlimit:4;stroke-opacity:1;stroke-dasharray:none" />
    <path
       d="M 10,3 C 7,5 5,3 5,3 l 0,7 c 0,0 2,2 5,0 3,-2 5,0 5,0 L 15,3 C 15,3 13,1 10,3 z M 3.5,2.25 C 3.25,2.25 3,2.5 3,3 l 0,12 c 0,1 1,1 1,0 L 4,3 C 4,2.5 3.75,2.25 3.5,2.25 z"
       id="icon"
       style="fill:#1a1a1a;fill-opacity:1;stroke:none" />
  </g>
</svg>
