<?xml version="1.0" encoding="UTF-8" standalone="no"?>
<!-- Created with Inkscape (http://www.inkscape.org/) -->

<svg
   xmlns="http://www.w3.org/2000/svg"
   version="1.1"
   width="14"
   height="14"
   viewBox="0 0 14 14">
  <rect
     width="14"
     height="14"
     x="0"
     y="0"
     id="canvas"
     style="fill:none;stroke:none;visibility:hidden" />
  <path
     d="M 8,1 C 5,3 3,1 3,1 l 0,7 c 0,0 2,2 5,0 3,-2 5,0 5,0 L 13,1 C 13,1 11,-1 8,1 z M 1.5,0.25 C 1.25,0.25 1,0.5 1,1 l 0,12 c 0,1 1,1 1,0 L 2,1 C 2,0.5 1.75,0.25 1.5,0.25 z"
     id="embassy"
     style="fill:#000000;fill-opacity:1;stroke:none" />
</svg>
