<?xml version="1.0" encoding="utf-8"?>
<!-- Generator: Adobe Illustrator 14.0.0, SVG Export Plug-In . SVG Version: 6.00 Build 43363)  -->
<!DOCTYPE svg PUBLIC "-//W3C//DTD SVG 1.1//EN" "http://www.w3.org/Graphics/SVG/1.1/DTD/svg11.dtd">
<svg version="1.1"
	 id="svg2" xmlns:rdf="http://www.w3.org/1999/02/22-rdf-syntax-ns#" sodipodi:docname="sport_canoe.svg" inkscape:version="0.48.0 r9654" xmlns:svg="http://www.w3.org/2000/svg" xmlns:sodipodi="http://sodipodi.sourceforge.net/DTD/sodipodi-0.dtd" xmlns:inkscape="http://www.inkscape.org/namespaces/inkscape" xmlns:dc="http://purl.org/dc/elements/1.1/" sodipodi:version="0.32" xmlns:cc="http://creativecommons.org/ns#" inkscape:output_extension="org.inkscape.output.svg.inkscape"
	 xmlns="http://www.w3.org/2000/svg" xmlns:xlink="http://www.w3.org/1999/xlink" x="0px" y="0px" width="580px" height="580px"
	 viewBox="0 0 580 580" enable-background="new 0 0 580 580" xml:space="preserve">
<sodipodi:namedview  showgrid="false" inkscape:current-layer="svg2" inkscape:window-y="24" inkscape:window-x="1" inkscape:cy="297.6084" inkscape:cx="588.63997" inkscape:zoom="0.46083856" pagecolor="#ffffff" bordercolor="#666666" borderopacity="1.0" objecttolerance="10.0" gridtolerance="10.0" guidetolerance="10.0" inkscape:window-height="711" inkscape:window-width="1014" inkscape:pageshadow="2" inkscape:pageopacity="0.0" inkscape:window-maximized="0" id="base">
	</sodipodi:namedview>
<defs>
	
	
		<inkscape:perspective  inkscape:persp3d-origin="290 : 193.33333 : 1" inkscape:vp_z="580 : 290 : 1" inkscape:vp_y="0 : 1000 : 0" inkscape:vp_x="0 : 290 : 1" sodipodi:type="inkscape:persp3d" id="perspective2441">
		</inkscape:perspective>
	
		<inkscape:perspective  inkscape:persp3d-origin="30 : 20 : 1" inkscape:vp_z="60 : 30 : 1" inkscape:vp_y="0 : 1000 : 0" inkscape:vp_x="0 : 30 : 1" sodipodi:type="inkscape:persp3d" id="perspective3452">
		</inkscape:perspective>
	
		<inkscape:perspective  inkscape:persp3d-origin="372.04724 : 350.78739 : 1" inkscape:vp_z="744.09448 : 526.18109 : 1" inkscape:vp_y="0 : 1000 : 0" inkscape:vp_x="0 : 526.18109 : 1" sodipodi:type="inkscape:persp3d" id="perspective4471">
		</inkscape:perspective>
	
		<inkscape:perspective  inkscape:persp3d-origin="6 : 4 : 1" inkscape:vp_z="12 : 6 : 1" inkscape:vp_y="0 : 1000 : 0" inkscape:vp_x="0 : 6 : 1" sodipodi:type="inkscape:persp3d" id="perspective4668">
		</inkscape:perspective>
	
		<inkscape:perspective  inkscape:persp3d-origin="16 : 10.666667 : 1" inkscape:vp_z="32 : 16 : 1" inkscape:vp_y="0 : 1000 : 0" inkscape:vp_x="0 : 16 : 1" sodipodi:type="inkscape:persp3d" id="perspective4904">
		</inkscape:perspective>
	
		<inkscape:perspective  inkscape:persp3d-origin="16 : 10.666667 : 1" inkscape:vp_z="32 : 16 : 1" inkscape:vp_y="0 : 1000 : 0" inkscape:vp_x="0 : 16 : 1" sodipodi:type="inkscape:persp3d" id="perspective5233">
		</inkscape:perspective>
	
		<inkscape:perspective  inkscape:persp3d-origin="250 : 166.66667 : 1" inkscape:vp_z="500 : 250 : 1" inkscape:vp_y="0 : 1000 : 0" inkscape:vp_x="0 : 250 : 1" sodipodi:type="inkscape:persp3d" id="perspective5412">
		</inkscape:perspective>
	
		<inkscape:perspective  inkscape:persp3d-origin="202.85715 : 136.19048 : 1" inkscape:vp_z="405.71429 : 204.28572 : 1" inkscape:vp_y="0 : 1000 : 0" inkscape:vp_x="0 : 204.28572 : 1" sodipodi:type="inkscape:persp3d" id="perspective5571">
		</inkscape:perspective>
	
		<inkscape:perspective  inkscape:persp3d-origin="64 : 42.666667 : 1" inkscape:vp_z="128 : 64 : 1" inkscape:vp_y="0 : 1000 : 0" inkscape:vp_x="0 : 64 : 1" sodipodi:type="inkscape:persp3d" id="perspective6552">
		</inkscape:perspective>
	
		<inkscape:perspective  inkscape:persp3d-origin="238.5 : 114.33333 : 1" inkscape:vp_z="477 : 171.5 : 1" inkscape:vp_y="0 : 1000 : 0" inkscape:vp_x="0 : 171.5 : 1" sodipodi:type="inkscape:persp3d" id="perspective8761">
		</inkscape:perspective>
	
		<inkscape:perspective  inkscape:persp3d-origin="52.830002 : 33.539668 : 1" inkscape:vp_z="105.66 : 50.309502 : 1" inkscape:vp_y="0 : 1000 : 0" inkscape:vp_x="0 : 50.309502 : 1" sodipodi:type="inkscape:persp3d" id="perspective10479">
		</inkscape:perspective>
	
		<inkscape:perspective  inkscape:persp3d-origin="223.9745 : 153.55566 : 1" inkscape:vp_z="447.94901 : 230.3335 : 1" inkscape:vp_y="0 : 1000 : 0" inkscape:vp_x="0 : 230.3335 : 1" sodipodi:type="inkscape:persp3d" id="perspective10853">
		</inkscape:perspective>
</defs>
<g id="g1327">
	<path id="path1329" fill="#0071BC" stroke="#EEEEEE" stroke-width="0.0852" d="M284.335,283.214c-1.033,0-1.614,0.535-1.614,1.626
		v11.253c0,1.021,0.522,1.556,1.555,1.556h11.3c1.033,0,1.557-0.508,1.557-1.556V284.84c0-1.065-0.523-1.626-1.589-1.626
		C295.544,283.214,284.332,283.21,284.335,283.214z"/>
</g>
<g id="layer3" transform="matrix(48.14969,0,0,48.14969,-536.27327,-33.306752)" inkscape:label="Layout" display="none">
	<rect id="rect4134" x="1" y="1" display="inline" fill="none" stroke="#757575" stroke-width="0.1" width="10" height="10"/>
	<rect id="rect4136" x="2" y="2" display="inline" fill="none" stroke="#757575" stroke-width="0.1" width="8" height="8"/>
</g>
<g id="g3244" transform="translate(20,0)">
	<path id="path5601" inkscape:connector-curvature="0" fill="#FFFFFF" d="M270.084,284.308c-0.578,0.062-2.684,1.027-2.746,5.987
		c-0.065,5.228,2.167,6.327,2.752,6.317v-3.452c-0.482,0-0.578-0.523-0.689-1.607c-0.071-0.717-0.093-1.603,0-2.484
		c0.068-0.619,0.181-1.223,0.687-1.223L270.084,284.308z"/>
	<path id="path5603" inkscape:connector-curvature="0" fill="#FFFFFF" d="M271.682,296.618c0.224,0,0.384-0.182,0.384-0.387
		l0.003-0.003c0,0-0.003-2.689-0.003-2.691c0-0.213-0.173-0.381-0.384-0.381h-0.979v3.461c0,0,0.976,0.002,0.976,0L271.682,296.618
		L271.682,296.618z"/>
	<path id="path5605" inkscape:connector-curvature="0" fill="#FFFFFF" d="M271.682,287.846c0.224,0,0.384-0.182,0.384-0.386h0.003
		c0,0-0.003-2.768-0.003-2.771c0-0.212-0.173-0.38-0.384-0.38h-0.979v3.538l0.976,0.003L271.682,287.846z"/>
</g>
</svg>
