<?xml version="1.0" encoding="utf-8"?>
<!-- Generator: Adobe Illustrator 14.0.0, SVG Export Plug-In . SVG Version: 6.00 Build 43363)  -->
<!DOCTYPE svg PUBLIC "-//W3C//DTD SVG 1.1//EN" "http://www.w3.org/Graphics/SVG/1.1/DTD/svg11.dtd">
<svg version="1.1"
	 id="svg2962" xmlns:rdf="http://www.w3.org/1999/02/22-rdf-syntax-ns#" xmlns:cc="http://web.resource.org/cc/" xmlns:dc="http://purl.org/dc/elements/1.1/" inkscape:version="0.43" xmlns:inkscape="http://www.inkscape.org/namespaces/inkscape" xmlns:sodipodi="http://inkscape.sourceforge.net/DTD/sodipodi-0.dtd" xmlns:svg="http://www.w3.org/2000/svg" sodipodi:docname="Aiga_escalator.svg" sodipodi:docbase="C:\Documents and Settings\Owner\Desktop\SVG\Warning Signs" sodipodi:version="0.32"
	 xmlns="http://www.w3.org/2000/svg" xmlns:xlink="http://www.w3.org/1999/xlink" x="0px" y="0px" width="412px" height="321px"
	 viewBox="0 0 412 321" enable-background="new 0 0 412 321" xml:space="preserve">
<sodipodi:namedview  inkscape:cx="225.38411" inkscape:pageopacity="0.0" inkscape:current-layer="svg2962" inkscape:window-height="543" borderopacity="1.0" inkscape:window-width="756" inkscape:cy="237.67691" pagecolor="#ffffff" inkscape:window-x="110" inkscape:pageshadow="2" inkscape:zoom="0.70508045" bordercolor="#666666" inkscape:window-y="139" id="base">
	</sodipodi:namedview>
<g id="g3852" transform="translate(1.418278,1.418278)">
	<path id="path2973" fill="#0000FF" d="M250.049,207.004c-0.117-0.027-0.299-0.082-0.402-0.125
		c-0.817-0.324-1.449-1.279-1.449-2.188c0-0.807,0.502-1.664,1.182-2.018c0.461-0.237,0.524-0.248,1.658-0.264
		c0.562-0.009,1.062-0.023,1.11-0.033c0.055-0.012,0.539-0.47,1.294-1.222l1.207-1.205l0.011-1.729l0.011-1.729l0.096-0.18
		c0.361-0.685,1.334-0.831,1.883-0.282c0.27,0.271,0.331,0.466,0.331,1.062c0,0.348,0.012,0.476,0.043,0.476
		c0.021,0,0.653-0.608,1.401-1.351c1.271-1.266,1.379-1.36,1.644-1.498c0.157-0.08,0.411-0.183,0.563-0.227
		c0.275-0.081,0.309-0.083,2.045-0.083c1.74,0,1.766,0.002,1.973,0.08c0.672,0.253,1.236,0.837,1.451,1.501
		c0.117,0.362,0.131,0.896,0.033,1.26c-0.192,0.719-0.791,1.396-1.465,1.653c-0.225,0.087-0.252,0.09-1.34,0.101
		c-0.611,0.006-1.15,0.02-1.201,0.029c-0.056,0.014-1.431,1.36-3.772,3.697c-2.416,2.411-3.763,3.729-3.909,3.826
		c-0.261,0.176-0.573,0.324-0.871,0.412c-0.184,0.054-0.402,0.062-1.761,0.07C250.604,207.049,250.213,207.039,250.049,207.004z
		 M253.363,205.806c0.098-0.026,0.247-0.084,0.335-0.127c0.113-0.059,1.213-1.133,3.933-3.846c3.76-3.753,3.858-3.848,4.195-3.961
		c0.061-0.021,0.631-0.046,1.271-0.058c1.324-0.022,1.32-0.022,1.599-0.341c0.294-0.334,0.392-0.858,0.226-1.223
		c-0.095-0.207-0.362-0.502-0.554-0.604c-0.14-0.073-0.17-0.076-1.764-0.076c-1.491,0-1.64,0.006-1.816,0.066
		c-0.185,0.062-0.374,0.244-4.021,3.883c-2.105,2.099-3.883,3.85-3.951,3.89c-0.296,0.175-0.441,0.193-1.6,0.208
		c-1.25,0.016-1.305,0.026-1.588,0.33c-0.275,0.294-0.349,0.805-0.172,1.206c0.131,0.296,0.439,0.569,0.749,0.665
		c0.05,0.014,0.739,0.027,1.534,0.029C252.841,205.852,253.227,205.841,253.363,205.806z M255.418,195.399
		c-0.481-0.185-0.779-0.615-0.779-1.134c0-0.452,0.27-0.865,0.69-1.057c0.431-0.197,0.929-0.115,1.284,0.207
		c0.604,0.545,0.446,1.572-0.295,1.93C256.105,195.448,255.62,195.477,255.418,195.399z"/>
</g>
<g id="g12" transform="translate(280,273)">
	<path id="path14" fill="#0000FF" d="M-17.369-64.539h3.246c0.914,0,0.914-1.371,0-1.371h-1.645l3.153-3.153
		c0.687-0.686-0.32-1.692-1.052-0.961l-3.107,3.107v-1.646c0-0.867-1.371-0.914-1.371,0v3.246
		C-18.145-64.857-17.826-64.539-17.369-64.539z"/>
</g>
</svg>
