<?xml version="1.0" encoding="UTF-8" standalone="no"?>
<svg
   xmlns:dc="http://purl.org/dc/elements/1.1/"
   xmlns:cc="http://creativecommons.org/ns#"
   xmlns:rdf="http://www.w3.org/1999/02/22-rdf-syntax-ns#"
   xmlns:svg="http://www.w3.org/2000/svg"
   xmlns="http://www.w3.org/2000/svg"
   version="1.1"
   width="100%"
   height="100%"
   viewBox="0 0 14 14"
   id="svg2">
  <metadata
     id="metadata8">
    <rdf:RDF>
      <cc:Work
         rdf:about="">
        <dc:format>image/svg+xml</dc:format>
        <dc:type
           rdf:resource="http://purl.org/dc/dcmitype/StillImage" />
        <dc:title></dc:title>
      </cc:Work>
    </rdf:RDF>
  </metadata>
  <defs
     id="defs6" />
  <rect
     width="14"
     height="14"
     x="0"
     y="0"
     id="canvas"
     style="fill:none;stroke:none;visibility:hidden" />
  <path
     d="M 4,5 3,5 3,2 5,2 5,0 9,0 9,2 11,2 11,5 10,5 10,3 8,3 8,2 6,2 6,3 4,3 Z m -1,6.5 c -0.5338983,0 -1.4922852,1 -2,1 L 1,14 c 0.5371839,0 1.5254237,-1 2,-1 0.5042373,0 1.4661017,1 2,1 0.4755023,0 1.4922852,-1 2,-1 0.5042373,0 1.5217305,1 2,1 0.5042373,0 1.525424,-1 2,-1 0.474576,0 1.495763,1 2,1 l 0,-1.5 c -0.415254,0 -1.466102,-1.029661 -2,-1 -0.47827,0 -1.4652784,1 -2,1 -0.4449153,0 -1.4957627,-1 -2,-1 -0.5042373,0 -1.5540971,1 -2,1 -0.4755023,0 -1.4661017,-1 -2,-1 z M 7,4 1,7 3,9 3,10 c 0.4459029,0 1.4948911,1 2,1 0.5042373,0 1.5254237,-1 2,-1 0.4755023,0 1.4957627,1 2,1 0.4745763,0 1.52173,-1 2,-1 l 0,-1 2,-2 z"
     style="fill:#000000;fill-opacity:1;fill-rule:evenodd;stroke:none;stroke-opacity:1"
     id="path3411" />
</svg>
