<?xml version="1.0" encoding="UTF-8" standalone="no"?>
<!-- Created with Inkscape (http://www.inkscape.org/) -->

<svg
   xmlns:dc="http://purl.org/dc/elements/1.1/"
   xmlns:cc="http://creativecommons.org/ns#"
   xmlns:rdf="http://www.w3.org/1999/02/22-rdf-syntax-ns#"
   xmlns:svg="http://www.w3.org/2000/svg"
   xmlns="http://www.w3.org/2000/svg"
   version="1.1"
   width="100%"
   height="100%"
   viewBox="0 0 18 18"
   id="svg2">
  <metadata
     id="metadata8">
    <rdf:RDF>
      <cc:Work
         rdf:about="">
        <dc:format>image/svg+xml</dc:format>
        <dc:type
           rdf:resource="http://purl.org/dc/dcmitype/StillImage" />
        <dc:title></dc:title>
      </cc:Work>
    </rdf:RDF>
  </metadata>
  <defs
     id="defs6" />
  <rect
     width="18"
     height="18"
     x="0"
     y="0"
     id="canvas"
     style="fill:none;stroke:none;visibility:hidden" />
  <g
     id="fire-station">
    <path
       d="m 9,2 c -3.5758387,1.2414283 -5,5 -5,8 0,3 1.7449329,5.259763 4,6 -2,-3.258584 -2,-6 1,-8 -0.5049218,1.352818 0,4 1,5 0.431455,-0.400757 1,-1.424727 1,-2 2,2 0.562898,3.633261 0,5 1.08818,-0.559102 3,-2 3,-5 C 14,8 12,7 12,4 10.616484,4.5992431 10,6 10,7 9.0479394,6.4434404 8,4.2464256 9,2 z"
       id="halo"
       style="opacity:0.3;fill:#ffffff;fill-opacity:1;stroke:#ffffff;stroke-width:2;stroke-miterlimit:4;stroke-opacity:1;stroke-dasharray:none" />
    <path
       d="m 9,2 c -3.575839,1.2414283 -5,5 -5,8 0,3 1.744933,5.259763 4,6 -2,-3.258584 -2,-6 1,-8 -0.504922,1.352818 0,4 1,5 0.431455,-0.400757 1,-1.424727 1,-2 2,2 0.562898,3.633261 0,5 1.08818,-0.559102 3,-2 3,-5 C 14,8 12,7 12,4 10.616484,4.5992431 10,6 10,7 9.047939,6.4434404 8,4.2464256 9,2 z"
       id="icon"
       style="fill:#1a1a1a;fill-opacity:1;stroke:none" />
  </g>
</svg>
