<?xml version="1.0" encoding="utf-8"?>
<!-- Generator: Adobe Illustrator 14.0.0, SVG Export Plug-In . SVG Version: 6.00 Build 43363)  -->
<!DOCTYPE svg PUBLIC "-//W3C//DTD SVG 1.1//EN" "http://www.w3.org/Graphics/SVG/1.1/DTD/svg11.dtd">
<svg version="1.1"
	 id="svg2" xmlns:rdf="http://www.w3.org/1999/02/22-rdf-syntax-ns#" sodipodi:docname="shopping_fish.svg" inkscape:version="0.48.0 r9654" xmlns:svg="http://www.w3.org/2000/svg" xmlns:sodipodi="http://sodipodi.sourceforge.net/DTD/sodipodi-0.dtd" xmlns:inkscape="http://www.inkscape.org/namespaces/inkscape" xmlns:dc="http://purl.org/dc/elements/1.1/" sodipodi:version="0.32" xmlns:cc="http://creativecommons.org/ns#" inkscape:output_extension="org.inkscape.output.svg.inkscape"
	 xmlns="http://www.w3.org/2000/svg" xmlns:xlink="http://www.w3.org/1999/xlink" x="0px" y="0px" width="580px" height="580px"
	 viewBox="0 0 580 580" enable-background="new 0 0 580 580" xml:space="preserve">
<sodipodi:namedview  showgrid="false" inkscape:current-layer="svg2" inkscape:window-y="24" inkscape:window-x="0" inkscape:cy="-34.065334" inkscape:cx="-748.33157" inkscape:zoom="0.23041928" pagecolor="#ffffff" bordercolor="#666666" borderopacity="1.0" objecttolerance="10.0" gridtolerance="10.0" guidetolerance="10.0" inkscape:window-height="1003" inkscape:window-width="1920" inkscape:pageshadow="2" inkscape:pageopacity="0.0" inkscape:window-maximized="1" id="base">
	</sodipodi:namedview>
<defs>
	
	
		<inkscape:perspective  inkscape:persp3d-origin="290 : 193.33333 : 1" inkscape:vp_z="580 : 290 : 1" inkscape:vp_y="0 : 1000 : 0" inkscape:vp_x="0 : 290 : 1" sodipodi:type="inkscape:persp3d" id="perspective2441">
		</inkscape:perspective>
	
		<inkscape:perspective  inkscape:persp3d-origin="30 : 20 : 1" inkscape:vp_z="60 : 30 : 1" inkscape:vp_y="0 : 1000 : 0" inkscape:vp_x="0 : 30 : 1" sodipodi:type="inkscape:persp3d" id="perspective3452">
		</inkscape:perspective>
	
		<inkscape:perspective  inkscape:persp3d-origin="372.04724 : 350.78739 : 1" inkscape:vp_z="744.09448 : 526.18109 : 1" inkscape:vp_y="0 : 1000 : 0" inkscape:vp_x="0 : 526.18109 : 1" sodipodi:type="inkscape:persp3d" id="perspective4471">
		</inkscape:perspective>
	
		<inkscape:perspective  inkscape:persp3d-origin="6 : 4 : 1" inkscape:vp_z="12 : 6 : 1" inkscape:vp_y="0 : 1000 : 0" inkscape:vp_x="0 : 6 : 1" sodipodi:type="inkscape:persp3d" id="perspective4668">
		</inkscape:perspective>
	
		<inkscape:perspective  inkscape:persp3d-origin="0.5 : 0.33333333 : 1" inkscape:vp_z="1 : 0.5 : 1" inkscape:vp_y="0 : 1000 : 0" inkscape:vp_x="0 : 0.5 : 1" sodipodi:type="inkscape:persp3d" id="perspective2918">
		</inkscape:perspective>
	
		<inkscape:perspective  inkscape:persp3d-origin="0.5 : 0.33333333 : 1" inkscape:vp_z="1 : 0.5 : 1" inkscape:vp_y="0 : 1000 : 0" inkscape:vp_x="0 : 0.5 : 1" sodipodi:type="inkscape:persp3d" id="perspective5519">
		</inkscape:perspective>
</defs>
<g id="layer3" transform="matrix(48.14969,0,0,48.14969,-536.27327,-33.306752)" inkscape:label="Layout" display="none">
	<rect id="rect4134" x="1" y="1" display="inline" fill="none" stroke="#757575" stroke-width="0.1" width="10" height="10"/>
	<rect id="rect4136" x="2" y="2" display="inline" fill="none" stroke="#757575" stroke-width="0.1" width="8" height="8"/>
</g>
<g id="g6176" transform="matrix(1.0411257,0,0,1.0411257,-11.955882,-11.56325)">
	<path id="path1932" sodipodi:nodetypes="cscccccsssscccccssccssscccssssssccsssc" fill="#93278F" d="M290.408,277.583
		c-0.004,0-0.008,0.001-0.012,0.003c-0.053,0.021-0.334,0.332-0.626,0.693l-0.53,0.655l-0.384,0.029
		c-1.755,0.212-3.184,0.931-4.501,2.087c-0.273,0.288-1.301,1.246-1.238,1.478c0.022,0.023,0.266-0.006,0.536,0.029
		c0.505,0.065,1.278,0.164,1.274,0.269c-0.002,0.054-0.436,0.107-1.23,0.208c-0.68,0.087-0.674,0.23,0.02,0.475
		c0.831,0.293,1.922,0.476,3.687,0.348c1.312,0.014,2.48-0.452,3.717-0.747c0.086-0.005,0.341-0.077,0.565-0.163
		c1.348-0.385,2.456-0.763,3.557-0.649c1.019,0.052,1.697,0.744,2.5,1.242c0.034,0.001,0.238,0.134,0.454,0.295
		c0.587,0.439,0.736,0.377,0.507-0.209c-0.189-0.481-0.5-1.576-0.493-1.74c0.176-0.542,0.358-1.205,0.596-1.727
		c0.136-0.24,0.161-0.482,0.052-0.484c-0.018,0-0.095,0.028-0.173,0.064c-0.079,0.036-0.282,0.13-0.449,0.205
		s-0.371,0.193-0.452,0.265c-0.488,0.32-1.016,0.475-1.609,0.449c-0.662-0.133-1.521-0.237-2.184-0.688
		c-1.018-0.547-1.105-0.59-1.528-0.74c-0.23-0.081-0.427-0.158-0.438-0.169c-0.01-0.011,0.047-0.08,0.128-0.154
		c0.08-0.074,0.139-0.172,0.13-0.217c-0.008-0.045-0.251-0.168-0.538-0.278c-0.335-0.128-0.653-0.319-0.886-0.531
		C290.67,277.708,290.476,277.581,290.408,277.583z M285.057,281.412c0.147,0,0.265,0.119,0.265,0.266s-0.119,0.265-0.265,0.265
		s-0.266-0.119-0.266-0.265S284.91,281.412,285.057,281.412z"/>
	<path id="path5541" sodipodi:nodetypes="ccccscsc" fill="#93278F" d="M286.831,282.695c-0.903-1.271-0.725,0.021-0.327-0.885
		l2.126-1.635c4.792-1.287-1.746,1.408,1.464,0.766c-0.027,0.029,0.116,0.201,0.317,0.385c0.2,0.184,0.348,0.428,0.327,0.541
		c-2.216,1.225,0.27,3.002-1.768,2.87C287.97,284.672,286.359,282.821,286.831,282.695z"/>
</g>
</svg>
