<?xml version="1.0" encoding="UTF-8"?>
<svg width="14" height="14" version="1.1" viewBox="0 0 14 14" xmlns="http://www.w3.org/2000/svg" xmlns:cc="http://creativecommons.org/ns#" xmlns:dc="http://purl.org/dc/elements/1.1/" xmlns:rdf="http://www.w3.org/1999/02/22-rdf-syntax-ns#">
 <metadata>
  <rdf:RDF>
   <cc:Work rdf:about="">
    <dc:format>image/svg+xml</dc:format>
    <dc:type rdf:resource="http://purl.org/dc/dcmitype/StillImage"/>
    <dc:title/>
   </cc:Work>
  </rdf:RDF>
 </metadata>
 <rect id="canvas" width="14" height="14" fill="none" visibility="hidden"/>
 <path id="ford" d="m5 2-4 3.5 4 3.5v-2h4v2l4-3.5-4-3.5v2h-4v-2zm-3.3379 9c-0.42859 0-1.07 0.3619-1.6543 0.65039l-0.015625 2.0273c0.61304-0.29229 1.277-0.67773 1.6699-0.67773 0.67232 0 1.9561 1 2.668 1 0.634 0 1.9891-1 2.666-1 0.67232 0 2.0283 1 2.666 1 0.67232 0 2.0352-1 2.668-1 0.39604 0 1.0506 0.39244 1.6699 0.68555l0.023438-2.0234c-0.60292-0.29952-1.2543-0.6865-1.6934-0.66211-0.63769 0-1.955 1-2.668 1-0.59322 0-1.9937-1-2.666-1-0.67232 0-2.0715 1-2.666 1-0.634 0-1.9561-1-2.668-1z"/>
</svg>
