<?xml version="1.0" encoding="UTF-8"?>
<svg width="14" height="14" version="1.1" viewBox="0 0 14 14" xmlns="http://www.w3.org/2000/svg" xmlns:cc="http://creativecommons.org/ns#" xmlns:dc="http://purl.org/dc/elements/1.1/" xmlns:rdf="http://www.w3.org/1999/02/22-rdf-syntax-ns#">
 <metadata>
  <rdf:RDF>
   <cc:Work rdf:about="">
    <dc:format>image/svg+xml</dc:format>
    <dc:type rdf:resource="http://purl.org/dc/dcmitype/StillImage"/>
    <dc:title/>
   </cc:Work>
  </rdf:RDF>
 </metadata>
 <rect id="canvas" width="14" height="14" fill="none" visibility="hidden"/>
 <path id="ford" d="m5 2-4 3.5 4 3.5v-2h4v2l4-3.5-4-3.5v2h-4z"/>
 <path d="m1 10c0.641 0 1.829 1 2.4 1 0.535 0 1.795-1 2.4-1s1.866 1 2.4 1c0.642 0 1.825-1 2.399-1 0.641-0.029 1.902 1 2.4 1v2c-0.604 0-1.83-1-2.4-1-0.569 0-1.795 1-2.399 1-0.574 0-1.795-1-2.4-1-0.609 0-1.829 1-2.4 1-0.64 0-1.794-1-2.4-1z"/>
</svg>
