<?xml version="1.0" encoding="UTF-8" standalone="no"?>
<svg
   xmlns:dc="http://purl.org/dc/elements/1.1/"
   xmlns:cc="http://creativecommons.org/ns#"
   xmlns:rdf="http://www.w3.org/1999/02/22-rdf-syntax-ns#"
   xmlns:svg="http://www.w3.org/2000/svg"
   xmlns="http://www.w3.org/2000/svg"
   version="1.1"
   height="512"
   width="512"
   id="Svg">
  <metadata
     id="metadata943">
    <rdf:RDF>
      <cc:Work
         rdf:about="">
        <dc:format>image/svg+xml</dc:format>
        <dc:type
           rdf:resource="http://purl.org/dc/dcmitype/StillImage" />
      </cc:Work>
    </rdf:RDF>
  </metadata>
  <defs
     id="defs3" />
  <path
     id="path10085"
     d="M 107.64062 0 A 2.5 3 0 0 0 109 0.9375 L 109 5 L 110 5 L 110 0.93554688 A 2.5 3 0 0 0 111.36328 0 L 109.5 0 L 107.64062 0 z M 112.33398 0 L 112 1 L 112 2 L 114 2 L 114 5 L 115 5 L 115 2 L 117 2 L 117 1 L 116.66602 0 L 115.69922 0 L 116 1 L 113 1 L 113.30078 0 L 112.33398 0 z M 199.66602 0 L 199 2 L 199 3 L 201 3 L 201 6 L 202 6 L 202 3 L 204 3 L 204 2 L 203.33398 0 L 202.40039 0 L 203 2 L 200 2 L 200.59961 0 L 199.66602 0 z M 204.14648 0 A 2.5 3 0 0 0 206 1.9375 L 206 6 L 207 6 L 207 1.9355469 A 2.5 3 0 0 0 208.85547 0 L 207.79688 0 A 1.5 2 0 0 1 206.5 1 A 1.5 2 0 0 1 205.20117 0 L 204.14648 0 z M 469 3 L 467 9 L 467 10 L 469 10 L 469 13 L 470 13 L 470 10 L 472 10 L 472 9 L 470 3 L 469 3 z M 474.5 3 A 2.5 3 0 0 0 474 8.9375 L 474 13 L 475 13 L 475 8.9355469 A 2.5 3 0 0 0 474.5 3 z M 264 4 L 262 10 L 262 11 L 264 11 L 264 14 L 265 14 L 265 11 L 267 11 L 267 10 L 265 4 L 264 4 z M 269.5 4 A 2.5 3 0 0 0 269 9.9375 L 269 14 L 270 14 L 270 9.9355469 A 2.5 3 0 0 0 269.5 4 z M 294 4 L 292 10 L 292 11 L 294 11 L 294 14 L 295 14 L 295 11 L 297 11 L 297 10 L 295 4 L 294 4 z M 299.5 4 A 2.5 3 0 0 0 299 9.9375 L 299 14 L 300 14 L 300 9.9355469 A 2.5 3 0 0 0 299.5 4 z M 342 4 L 340 10 L 340 11 L 342 11 L 342 14 L 343 14 L 343 11 L 345 11 L 345 10 L 343 4 L 342 4 z M 347.5 4 A 2.5 3 0 0 0 347 9.9375 L 347 14 L 348 14 L 348 9.9355469 A 2.5 3 0 0 0 347.5 4 z M 469.5 4 L 471 9 L 468 9 L 469.5 4 z M 474.5 4 A 1.5 2 0 0 1 474.5 8 A 1.5 2 0 0 1 474.5 4 z M 264.5 5 L 266 10 L 263 10 L 264.5 5 z M 269.5 5 A 1.5 2 0 0 1 269.5 9 A 1.5 2 0 0 1 269.5 5 z M 294.5 5 L 296 10 L 293 10 L 294.5 5 z M 299.5 5 A 1.5 2 0 0 1 299.5 9 A 1.5 2 0 0 1 299.5 5 z M 342.5 5 L 344 10 L 341 10 L 342.5 5 z M 347.5 5 A 1.5 2 0 0 1 347.5 9 A 1.5 2 0 0 1 347.5 5 z M 46 6 L 44 12 L 44 13 L 46 13 L 46 16 L 47 16 L 47 13 L 49 13 L 49 12 L 47 6 L 46 6 z M 51.5 6 A 2.5 3 0 0 0 51 11.9375 L 51 16 L 52 16 L 52 11.935547 A 2.5 3 0 0 0 51.5 6 z M 405 6 L 403 12 L 403 13 L 405 13 L 405 16 L 406 16 L 406 13 L 408 13 L 408 12 L 406 6 L 405 6 z M 410.5 6 A 2.5 3 0 0 0 410 11.9375 L 410 16 L 411 16 L 411 11.935547 A 2.5 3 0 0 0 410.5 6 z M 46.5 7 L 48 12 L 45 12 L 46.5 7 z M 51.5 7 A 1.5 2 0 0 1 51.5 11 A 1.5 2 0 0 1 51.5 7 z M 405.5 7 L 407 12 L 404 12 L 405.5 7 z M 410.5 7 A 1.5 2 0 0 1 410.5 11 A 1.5 2 0 0 1 410.5 7 z M 138.5 10 A 2.5 3 0 0 0 138 15.9375 L 138 20 L 139 20 L 139 15.935547 A 2.5 3 0 0 0 138.5 10 z M 143 10 L 141 16 L 141 17 L 143 17 L 143 20 L 144 20 L 144 17 L 146 17 L 146 16 L 144 10 L 143 10 z M 172 10 L 170 16 L 170 17 L 172 17 L 172 20 L 173 20 L 173 17 L 175 17 L 175 16 L 173 10 L 172 10 z M 177.5 10 A 2.5 3 0 0 0 177 15.9375 L 177 20 L 178 20 L 178 15.935547 A 2.5 3 0 0 0 177.5 10 z M 376.5 10 A 2.5 3 0 0 0 376 15.9375 L 376 20 L 377 20 L 377 15.935547 A 2.5 3 0 0 0 376.5 10 z M 381 10 L 379 16 L 379 17 L 381 17 L 381 20 L 382 20 L 382 17 L 384 17 L 384 16 L 382 10 L 381 10 z M 75 11 L 73 17 L 73 18 L 75 18 L 75 21 L 76 21 L 76 18 L 78 18 L 78 17 L 76 11 L 75 11 z M 80.5 11 A 2.5 3 0 0 0 80 16.9375 L 80 21 L 81 21 L 81 16.935547 A 2.5 3 0 0 0 80.5 11 z M 138.5 11 A 1.5 2 0 0 1 138.5 15 A 1.5 2 0 0 1 138.5 11 z M 143.5 11 L 145 16 L 142 16 L 143.5 11 z M 172.5 11 L 174 16 L 171 16 L 172.5 11 z M 177.5 11 A 1.5 2 0 0 1 177.5 15 A 1.5 2 0 0 1 177.5 11 z M 376.5 11 A 1.5 2 0 0 1 376.5 15 A 1.5 2 0 0 1 376.5 11 z M 381.5 11 L 383 16 L 380 16 L 381.5 11 z M 75.5 12 L 77 17 L 74 17 L 75.5 12 z M 80.5 12 A 1.5 2 0 0 1 80.5 16 A 1.5 2 0 0 1 80.5 12 z M 234.5 12 A 2.5 3 0 0 0 234 17.9375 L 234 22 L 235 22 L 235 17.935547 A 2.5 3 0 0 0 234.5 12 z M 239 12 L 237 18 L 237 19 L 239 19 L 239 22 L 240 22 L 240 19 L 242 19 L 242 18 L 240 12 L 239 12 z M 234.5 13 A 1.5 2 0 0 1 234.5 17 A 1.5 2 0 0 1 234.5 13 z M 239.5 13 L 241 18 L 238 18 L 239.5 13 z M 440 15 L 438 21 L 438 22 L 440 22 L 440 25 L 441 25 L 441 22 L 443 22 L 443 21 L 441 15 L 440 15 z M 445.5 15 A 2.5 3 0 0 0 445 20.9375 L 445 25 L 446 25 L 446 20.935547 A 2.5 3 0 0 0 445.5 15 z M 20 16 L 18 22 L 18 23 L 20 23 L 20 26 L 21 26 L 21 23 L 23 23 L 23 22 L 21 16 L 20 16 z M 25.5 16 A 2.5 3 0 0 0 25 21.9375 L 25 26 L 26 26 L 26 21.935547 A 2.5 3 0 0 0 25.5 16 z M 440.5 16 L 442 21 L 439 21 L 440.5 16 z M 445.5 16 A 1.5 2 0 0 1 445.5 20 A 1.5 2 0 0 1 445.5 16 z M 501 16 L 499 22 L 499 23 L 501 23 L 501 26 L 502 26 L 502 23 L 504 23 L 504 22 L 502 16 L 501 16 z M 506.5 16 A 2.5 3 0 0 0 506 21.9375 L 506 26 L 507 26 L 507 21.935547 A 2.5 3 0 0 0 506.5 16 z M 20.5 17 L 22 22 L 19 22 L 20.5 17 z M 25.5 17 A 1.5 2 0 0 1 25.5 21 A 1.5 2 0 0 1 25.5 17 z M 501.5 17 L 503 22 L 500 22 L 501.5 17 z M 506.5 17 A 1.5 2 0 0 1 506.5 21 A 1.5 2 0 0 1 506.5 17 z M 203.5 23 A 2.5 3 0 0 0 203 28.9375 L 203 33 L 204 33 L 204 28.935547 A 2.5 3 0 0 0 203.5 23 z M 208 23 L 206 29 L 206 30 L 208 30 L 208 33 L 209 33 L 209 30 L 211 30 L 211 29 L 209 23 L 208 23 z M 203.5 24 A 1.5 2 0 0 1 203.5 28 A 1.5 2 0 0 1 203.5 24 z M 208.5 24 L 210 29 L 207 29 L 208.5 24 z M 318 24 L 316 30 L 316 31 L 318 31 L 318 34 L 319 34 L 319 31 L 321 31 L 321 30 L 319 24 L 318 24 z M 323.5 24 A 2.5 3 0 0 0 323 29.9375 L 323 34 L 324 34 L 324 29.935547 A 2.5 3 0 0 0 323.5 24 z M 111.5 25 A 2.5 3 0 0 0 111 30.9375 L 111 35 L 112 35 L 112 30.935547 A 2.5 3 0 0 0 111.5 25 z M 116 25 L 114 31 L 114 32 L 116 32 L 116 35 L 117 35 L 117 32 L 119 32 L 119 31 L 117 25 L 116 25 z M 318.5 25 L 320 30 L 317 30 L 318.5 25 z M 323.5 25 A 1.5 2 0 0 1 323.5 29 A 1.5 2 0 0 1 323.5 25 z M 111.5 26 A 1.5 2 0 0 1 111.5 30 A 1.5 2 0 0 1 111.5 26 z M 116.5 26 L 118 31 L 115 31 L 116.5 26 z M 350 35 L 348 41 L 348 42 L 350 42 L 350 45 L 351 45 L 351 42 L 353 42 L 353 41 L 351 35 L 350 35 z M 355.5 35 A 2.5 3 0 0 0 355 40.9375 L 355 45 L 356 45 L 356 40.935547 A 2.5 3 0 0 0 355.5 35 z M 259.5 36 A 2.5 3 0 0 0 259 41.9375 L 259 46 L 260 46 L 260 41.935547 A 2.5 3 0 0 0 259.5 36 z M 264 36 L 262 42 L 262 43 L 264 43 L 264 46 L 265 46 L 265 43 L 267 43 L 267 42 L 265 36 L 264 36 z M 286 36 L 284 42 L 284 43 L 286 43 L 286 46 L 287 46 L 287 43 L 289 43 L 289 42 L 287 36 L 286 36 z M 291.5 36 A 2.5 3 0 0 0 291 41.9375 L 291 46 L 292 46 L 292 41.935547 A 2.5 3 0 0 0 291.5 36 z M 350.5 36 L 352 41 L 349 41 L 350.5 36 z M 355.5 36 A 1.5 2 0 0 1 355.5 40 A 1.5 2 0 0 1 355.5 36 z M 141 37 L 139 43 L 139 44 L 141 44 L 141 47 L 142 47 L 142 44 L 144 44 L 144 43 L 142 37 L 141 37 z M 146.5 37 A 2.5 3 0 0 0 146 42.9375 L 146 47 L 147 47 L 147 42.935547 A 2.5 3 0 0 0 146.5 37 z M 259.5 37 A 1.5 2 0 0 1 259.5 41 A 1.5 2 0 0 1 259.5 37 z M 264.5 37 L 266 42 L 263 42 L 264.5 37 z M 286.5 37 L 288 42 L 285 42 L 286.5 37 z M 291.5 37 A 1.5 2 0 0 1 291.5 41 A 1.5 2 0 0 1 291.5 37 z M 471 37 L 469 43 L 469 44 L 471 44 L 471 47 L 472 47 L 472 44 L 474 44 L 474 43 L 472 37 L 471 37 z M 476.5 37 A 2.5 3 0 0 0 476 42.9375 L 476 47 L 477 47 L 477 42.935547 A 2.5 3 0 0 0 476.5 37 z M 80.5 38 A 2.5 3 0 0 0 80 43.9375 L 80 48 L 81 48 L 81 43.935547 A 2.5 3 0 0 0 80.5 38 z M 85 38 L 83 44 L 83 45 L 85 45 L 85 48 L 86 48 L 86 45 L 88 45 L 88 44 L 86 38 L 85 38 z M 141.5 38 L 143 43 L 140 43 L 141.5 38 z M 146.5 38 A 1.5 2 0 0 1 146.5 42 A 1.5 2 0 0 1 146.5 38 z M 381.5 38 A 2.5 3 0 0 0 381 43.9375 L 381 48 L 382 48 L 382 43.935547 A 2.5 3 0 0 0 381.5 38 z M 386 38 L 384 44 L 384 45 L 386 45 L 386 48 L 387 48 L 387 45 L 389 45 L 389 44 L 387 38 L 386 38 z M 471.5 38 L 473 43 L 470 43 L 471.5 38 z M 476.5 38 A 1.5 2 0 0 1 476.5 42 A 1.5 2 0 0 1 476.5 38 z M 80.5 39 A 1.5 2 0 0 1 80.5 43 A 1.5 2 0 0 1 80.5 39 z M 85.5 39 L 87 44 L 84 44 L 85.5 39 z M 173.5 39 A 2.5 3 0 0 0 173 44.9375 L 173 49 L 174 49 L 174 44.935547 A 2.5 3 0 0 0 173.5 39 z M 178 39 L 176 45 L 176 46 L 178 46 L 178 49 L 179 49 L 179 46 L 181 46 L 181 45 L 179 39 L 178 39 z M 381.5 39 A 1.5 2 0 0 1 381.5 43 A 1.5 2 0 0 1 381.5 39 z M 386.5 39 L 388 44 L 385 44 L 386.5 39 z M 410 39 L 408 45 L 408 46 L 410 46 L 410 49 L 411 49 L 411 46 L 413 46 L 413 45 L 411 39 L 410 39 z M 415.5 39 A 2.5 3 0 0 0 415 44.9375 L 415 49 L 416 49 L 416 44.935547 A 2.5 3 0 0 0 415.5 39 z M 173.5 40 A 1.5 2 0 0 1 173.5 44 A 1.5 2 0 0 1 173.5 40 z M 178.5 40 L 180 45 L 177 45 L 178.5 40 z M 410.5 40 L 412 45 L 409 45 L 410.5 40 z M 415.5 40 A 1.5 2 0 0 1 415.5 44 A 1.5 2 0 0 1 415.5 40 z M 49.5 42 A 2.5 3 0 0 0 49 47.9375 L 49 52 L 50 52 L 50 47.935547 A 2.5 3 0 0 0 49.5 42 z M 54 42 L 52 48 L 52 49 L 54 49 L 54 52 L 55 52 L 55 49 L 57 49 L 57 48 L 55 42 L 54 42 z M 49.5 43 A 1.5 2 0 0 1 49.5 47 A 1.5 2 0 0 1 49.5 43 z M 54.5 43 L 56 48 L 53 48 L 54.5 43 z M 441 43 L 439 49 L 439 50 L 441 50 L 441 53 L 442 53 L 442 50 L 444 50 L 444 49 L 442 43 L 441 43 z M 446.5 43 A 2.5 3 0 0 0 446 48.9375 L 446 53 L 447 53 L 447 48.935547 A 2.5 3 0 0 0 446.5 43 z M 15.5 44 A 2.5 3 0 0 0 15 49.9375 L 15 54 L 16 54 L 16 49.935547 A 2.5 3 0 0 0 15.5 44 z M 20 44 L 18 50 L 18 51 L 20 51 L 20 54 L 21 54 L 21 51 L 23 51 L 23 50 L 21 44 L 20 44 z M 441.5 44 L 443 49 L 440 49 L 441.5 44 z M 446.5 44 A 1.5 2 0 0 1 446.5 48 A 1.5 2 0 0 1 446.5 44 z M 15.5 45 A 1.5 2 0 0 1 15.5 49 A 1.5 2 0 0 1 15.5 45 z M 20.5 45 L 22 50 L 19 50 L 20.5 45 z M 228.5 45 A 2.5 3 0 0 0 228 50.9375 L 228 55 L 229 55 L 229 50.935547 A 2.5 3 0 0 0 228.5 45 z M 233 45 L 231 51 L 231 52 L 233 52 L 233 55 L 234 55 L 234 52 L 236 52 L 236 51 L 234 45 L 233 45 z M 228.5 46 A 1.5 2 0 0 1 228.5 50 A 1.5 2 0 0 1 228.5 46 z M 233.5 46 L 235 51 L 232 51 L 233.5 46 z M 498.5 47 A 2.5 3 0 0 0 498 52.9375 L 498 57 L 499 57 L 499 52.935547 A 2.5 3 0 0 0 498.5 47 z M 503 47 L 501 53 L 501 54 L 503 54 L 503 57 L 504 57 L 504 54 L 506 54 L 506 53 L 504 47 L 503 47 z M 498.5 48 A 1.5 2 0 0 1 498.5 52 A 1.5 2 0 0 1 498.5 48 z M 503.5 48 L 505 53 L 502 53 L 503.5 48 z M 319 54 L 317 60 L 317 61 L 319 61 L 319 64 L 320 64 L 320 61 L 322 61 L 322 60 L 320 54 L 319 54 z M 324.5 54 A 2.5 3 0 0 0 324 59.9375 L 324 64 L 325 64 L 325 59.935547 A 2.5 3 0 0 0 324.5 54 z M 319.5 55 L 321 60 L 318 60 L 319.5 55 z M 324.5 55 A 1.5 2 0 0 1 324.5 59 A 1.5 2 0 0 1 324.5 55 z M 111.5 59 A 2.5 3 0 0 0 111 64.9375 L 111 69 L 112 69 L 112 64.935547 A 2.5 3 0 0 0 111.5 59 z M 116 59 L 114 65 L 114 66 L 116 66 L 116 69 L 117 69 L 117 66 L 119 66 L 119 65 L 117 59 L 116 59 z M 111.5 60 A 1.5 2 0 0 1 111.5 64 A 1.5 2 0 0 1 111.5 60 z M 116.5 60 L 118 65 L 115 65 L 116.5 60 z M 201.5 60 A 2.5 3 0 0 0 201 65.9375 L 201 70 L 202 70 L 202 65.935547 A 2.5 3 0 0 0 201.5 60 z M 206 60 L 204 66 L 204 67 L 206 67 L 206 70 L 207 70 L 207 67 L 209 67 L 209 66 L 207 60 L 206 60 z M 201.5 61 A 1.5 2 0 0 1 201.5 65 A 1.5 2 0 0 1 201.5 61 z M 206.5 61 L 208 66 L 205 66 L 206.5 61 z M 40.5 65 A 2.5 3 0 0 0 40 70.9375 L 40 75 L 41 75 L 41 70.935547 A 2.5 3 0 0 0 40.5 65 z M 45 65 L 43 71 L 43 72 L 45 72 L 45 75 L 46 75 L 46 72 L 48 72 L 48 71 L 46 65 L 45 65 z M 343.5 65 A 2.5 3 0 0 0 343 70.9375 L 343 75 L 344 75 L 344 70.935547 A 2.5 3 0 0 0 343.5 65 z M 348 65 L 346 71 L 346 72 L 348 72 L 348 75 L 349 75 L 349 72 L 351 72 L 351 71 L 349 65 L 348 65 z M 380.5 65 A 2.5 3 0 0 0 380 70.9375 L 380 75 L 381 75 L 381 70.935547 A 2.5 3 0 0 0 380.5 65 z M 385 65 L 383 71 L 383 72 L 385 72 L 385 75 L 386 75 L 386 72 L 388 72 L 388 71 L 386 65 L 385 65 z M 40.5 66 A 1.5 2 0 0 1 40.5 70 A 1.5 2 0 0 1 40.5 66 z M 45.5 66 L 47 71 L 44 71 L 45.5 66 z M 343.5 66 A 1.5 2 0 0 1 343.5 70 A 1.5 2 0 0 1 343.5 66 z M 348.5 66 L 350 71 L 347 71 L 348.5 66 z M 380.5 66 A 1.5 2 0 0 1 380.5 70 A 1.5 2 0 0 1 380.5 66 z M 385.5 66 L 387 71 L 384 71 L 385.5 66 z M 138.5 67 A 2.5 3 0 0 0 138 72.9375 L 138 77 L 139 77 L 139 72.935547 A 2.5 3 0 0 0 138.5 67 z M 143 67 L 141 73 L 141 74 L 143 74 L 143 77 L 144 77 L 144 74 L 146 74 L 146 73 L 144 67 L 143 67 z M 264.5 67 A 2.5 3 0 0 0 264 72.9375 L 264 77 L 265 77 L 265 72.935547 A 2.5 3 0 0 0 264.5 67 z M 269 67 L 267 73 L 267 74 L 269 74 L 269 77 L 270 77 L 270 74 L 272 74 L 272 73 L 270 67 L 269 67 z M 467 67 L 465 73 L 465 74 L 467 74 L 467 77 L 468 77 L 468 74 L 470 74 L 470 73 L 468 67 L 467 67 z M 472.5 67 A 2.5 3 0 0 0 472 72.9375 L 472 77 L 473 77 L 473 72.935547 A 2.5 3 0 0 0 472.5 67 z M 138.5 68 A 1.5 2 0 0 1 138.5 72 A 1.5 2 0 0 1 138.5 68 z M 143.5 68 L 145 73 L 142 73 L 143.5 68 z M 264.5 68 A 1.5 2 0 0 1 264.5 72 A 1.5 2 0 0 1 264.5 68 z M 269.5 68 L 271 73 L 268 73 L 269.5 68 z M 295.5 68 A 2.5 3 0 0 0 295 73.9375 L 295 78 L 296 78 L 296 73.935547 A 2.5 3 0 0 0 295.5 68 z M 300 68 L 298 74 L 298 75 L 300 75 L 300 78 L 301 78 L 301 75 L 303 75 L 303 74 L 301 68 L 300 68 z M 467.5 68 L 469 73 L 466 73 L 467.5 68 z M 472.5 68 A 1.5 2 0 0 1 472.5 72 A 1.5 2 0 0 1 472.5 68 z M 74 69 L 72 75 L 72 76 L 74 76 L 74 79 L 75 79 L 75 76 L 77 76 L 77 75 L 75 69 L 74 69 z M 79.5 69 A 2.5 3 0 0 0 79 74.9375 L 79 79 L 80 79 L 80 74.935547 A 2.5 3 0 0 0 79.5 69 z M 295.5 69 A 1.5 2 0 0 1 295.5 73 A 1.5 2 0 0 1 295.5 69 z M 300.5 69 L 302 74 L 299 74 L 300.5 69 z M 74.5 70 L 76 75 L 73 75 L 74.5 70 z M 79.5 70 A 1.5 2 0 0 1 79.5 74 A 1.5 2 0 0 1 79.5 70 z M 168 70 L 166 76 L 166 77 L 168 77 L 168 80 L 169 80 L 169 77 L 171 77 L 171 76 L 169 70 L 168 70 z M 173.5 70 A 2.5 3 0 0 0 173 75.9375 L 173 80 L 174 80 L 174 75.935547 A 2.5 3 0 0 0 173.5 70 z M 407.5 70 A 2.5 3 0 0 0 407 75.9375 L 407 80 L 408 80 L 408 75.935547 A 2.5 3 0 0 0 407.5 70 z M 412 70 L 410 76 L 410 77 L 412 77 L 412 80 L 413 80 L 413 77 L 415 77 L 415 76 L 413 70 L 412 70 z M 168.5 71 L 170 76 L 167 76 L 168.5 71 z M 173.5 71 A 1.5 2 0 0 1 173.5 75 A 1.5 2 0 0 1 173.5 71 z M 407.5 71 A 1.5 2 0 0 1 407.5 75 A 1.5 2 0 0 1 407.5 71 z M 412.5 71 L 414 76 L 411 76 L 412.5 71 z M 440.5 74 A 2.5 3 0 0 0 440 79.9375 L 440 84 L 441 84 L 441 79.935547 A 2.5 3 0 0 0 440.5 74 z M 445 74 L 443 80 L 443 81 L 445 81 L 445 84 L 446 84 L 446 81 L 448 81 L 448 80 L 446 74 L 445 74 z M 232 75 L 230 81 L 230 82 L 232 82 L 232 85 L 233 85 L 233 82 L 235 82 L 235 81 L 233 75 L 232 75 z M 237.5 75 A 2.5 3 0 0 0 237 80.9375 L 237 85 L 238 85 L 238 80.935547 A 2.5 3 0 0 0 237.5 75 z M 440.5 75 A 1.5 2 0 0 1 440.5 79 A 1.5 2 0 0 1 440.5 75 z M 445.5 75 L 447 80 L 444 80 L 445.5 75 z M 232.5 76 L 234 81 L 231 81 L 232.5 76 z M 237.5 76 A 1.5 2 0 0 1 237.5 80 A 1.5 2 0 0 1 237.5 76 z M 10.5 77 A 2.5 3 0 0 0 10 82.9375 L 10 87 L 11 87 L 11 82.935547 A 2.5 3 0 0 0 10.5 77 z M 15 77 L 13 83 L 13 84 L 15 84 L 15 87 L 16 87 L 16 84 L 18 84 L 18 83 L 16 77 L 15 77 z M 10.5 78 A 1.5 2 0 0 1 10.5 82 A 1.5 2 0 0 1 10.5 78 z M 15.5 78 L 17 83 L 14 83 L 15.5 78 z M 491.5 82 A 2.5 3 0 0 0 491 87.9375 L 491 92 L 492 92 L 492 87.935547 A 2.5 3 0 0 0 491.5 82 z M 496 82 L 494 88 L 494 89 L 496 89 L 496 92 L 497 92 L 497 89 L 499 89 L 499 88 L 497 82 L 496 82 z M 491.5 83 A 1.5 2 0 0 1 491.5 87 A 1.5 2 0 0 1 491.5 83 z M 496.5 83 L 498 88 L 495 88 L 496.5 83 z M 96.5 85 A 2.5 3 0 0 0 96 90.9375 L 96 95 L 97 95 L 97 90.935547 A 2.5 3 0 0 0 96.5 85 z M 101 85 L 99 91 L 99 92 L 101 92 L 101 95 L 102 95 L 102 92 L 104 92 L 104 91 L 102 85 L 101 85 z M 96.5 86 A 1.5 2 0 0 1 96.5 90 A 1.5 2 0 0 1 96.5 86 z M 101.5 86 L 103 91 L 100 91 L 101.5 86 z M 202.5 87 A 2.5 3 0 0 0 202 92.9375 L 202 97 L 203 97 L 203 92.935547 A 2.5 3 0 0 0 202.5 87 z M 207 87 L 205 93 L 205 94 L 207 94 L 207 97 L 208 97 L 208 94 L 210 94 L 210 93 L 208 87 L 207 87 z M 202.5 88 A 1.5 2 0 0 1 202.5 92 A 1.5 2 0 0 1 202.5 88 z M 207.5 88 L 209 93 L 206 93 L 207.5 88 z M 321.5 89 A 2.5 3 0 0 0 321 94.9375 L 321 99 L 322 99 L 322 94.935547 A 2.5 3 0 0 0 321.5 89 z M 326 89 L 324 95 L 324 96 L 326 96 L 326 99 L 327 99 L 327 96 L 329 96 L 329 95 L 327 89 L 326 89 z M 55 90 L 53 96 L 53 97 L 55 97 L 55 100 L 56 100 L 56 97 L 58 97 L 58 96 L 56 90 L 55 90 z M 60.5 90 A 2.5 3 0 0 0 60 95.9375 L 60 100 L 61 100 L 61 95.935547 A 2.5 3 0 0 0 60.5 90 z M 321.5 90 A 1.5 2 0 0 1 321.5 94 A 1.5 2 0 0 1 321.5 90 z M 326.5 90 L 328 95 L 325 95 L 326.5 90 z M 55.5 91 L 57 96 L 54 96 L 55.5 91 z M 60.5 91 A 1.5 2 0 0 1 60.5 95 A 1.5 2 0 0 1 60.5 91 z M 366.5 93 A 2.5 3 0 0 0 366 98.9375 L 366 103 L 367 103 L 367 98.935547 A 2.5 3 0 0 0 366.5 93 z M 371 93 L 369 99 L 369 100 L 371 100 L 371 103 L 372 103 L 372 100 L 374 100 L 374 99 L 372 93 L 371 93 z M 366.5 94 A 1.5 2 0 0 1 366.5 98 A 1.5 2 0 0 1 366.5 94 z M 371.5 94 L 373 99 L 370 99 L 371.5 94 z M 118 97 L 116 103 L 116 104 L 118 104 L 118 107 L 119 107 L 119 104 L 121 104 L 121 103 L 119 97 L 118 97 z M 123.5 97 A 2.5 3 0 0 0 123 102.9375 L 123 107 L 124 107 L 124 102.93555 A 2.5 3 0 0 0 123.5 97 z M 279 97 L 277 103 L 277 104 L 279 104 L 279 107 L 280 107 L 280 104 L 282 104 L 282 103 L 280 97 L 279 97 z M 284.5 97 A 2.5 3 0 0 0 284 102.9375 L 284 107 L 285 107 L 285 102.93555 A 2.5 3 0 0 0 284.5 97 z M 118.5 98 L 120 103 L 117 103 L 118.5 98 z M 123.5 98 A 1.5 2 0 0 1 123.5 102 A 1.5 2 0 0 1 123.5 98 z M 279.5 98 L 281 103 L 278 103 L 279.5 98 z M 284.5 98 A 1.5 2 0 0 1 284.5 102 A 1.5 2 0 0 1 284.5 98 z M 150.5 99 A 2.5 3 0 0 0 150 104.9375 L 150 109 L 151 109 L 151 104.93555 A 2.5 3 0 0 0 150.5 99 z M 155 99 L 153 105 L 153 106 L 155 106 L 155 109 L 156 109 L 156 106 L 158 106 L 158 105 L 156 99 L 155 99 z M 150.5 100 A 1.5 2 0 0 1 150.5 104 A 1.5 2 0 0 1 150.5 100 z M 155.5 100 L 157 105 L 154 105 L 155.5 100 z M 251 100 L 249 106 L 249 107 L 251 107 L 251 110 L 252 110 L 252 107 L 254 107 L 254 106 L 252 100 L 251 100 z M 256.5 100 A 2.5 3 0 0 0 256 105.9375 L 256 110 L 257 110 L 257 105.93555 A 2.5 3 0 0 0 256.5 100 z M 396 100 L 394 106 L 394 107 L 396 107 L 396 110 L 397 110 L 397 107 L 399 107 L 399 106 L 397 100 L 396 100 z M 401.5 100 A 2.5 3 0 0 0 401 105.9375 L 401 110 L 402 110 L 402 105.93555 A 2.5 3 0 0 0 401.5 100 z M 430 100 L 428 106 L 428 107 L 430 107 L 430 110 L 431 110 L 431 107 L 433 107 L 433 106 L 431 100 L 430 100 z M 435.5 100 A 2.5 3 0 0 0 435 105.9375 L 435 110 L 436 110 L 436 105.93555 A 2.5 3 0 0 0 435.5 100 z M 463.5 100 A 2.5 3 0 0 0 463 105.9375 L 463 110 L 464 110 L 464 105.93555 A 2.5 3 0 0 0 463.5 100 z M 468 100 L 466 106 L 466 107 L 468 107 L 468 110 L 469 110 L 469 107 L 471 107 L 471 106 L 469 100 L 468 100 z M 251.5 101 L 253 106 L 250 106 L 251.5 101 z M 256.5 101 A 1.5 2 0 0 1 256.5 105 A 1.5 2 0 0 1 256.5 101 z M 396.5 101 L 398 106 L 395 106 L 396.5 101 z M 401.5 101 A 1.5 2 0 0 1 401.5 105 A 1.5 2 0 0 1 401.5 101 z M 430.5 101 L 432 106 L 429 106 L 430.5 101 z M 435.5 101 A 1.5 2 0 0 1 435.5 105 A 1.5 2 0 0 1 435.5 101 z M 463.5 101 A 1.5 2 0 0 1 463.5 105 A 1.5 2 0 0 1 463.5 101 z M 468.5 101 L 470 106 L 467 106 L 468.5 101 z M 174 103 L 172 109 L 172 110 L 174 110 L 174 113 L 175 113 L 175 110 L 177 110 L 177 109 L 175 103 L 174 103 z M 179.5 103 A 2.5 3 0 0 0 179 108.9375 L 179 113 L 180 113 L 180 108.93555 A 2.5 3 0 0 0 179.5 103 z M 174.5 104 L 176 109 L 173 109 L 174.5 104 z M 179.5 104 A 1.5 2 0 0 1 179.5 108 A 1.5 2 0 0 1 179.5 104 z M 28 105 L 26 111 L 26 112 L 28 112 L 28 115 L 29 115 L 29 112 L 31 112 L 31 111 L 29 105 L 28 105 z M 33.5 105 A 2.5 3 0 0 0 33 110.9375 L 33 115 L 34 115 L 34 110.93555 A 2.5 3 0 0 0 33.5 105 z M 28.5 106 L 30 111 L 27 111 L 28.5 106 z M 33.5 106 A 1.5 2 0 0 1 33.5 110 A 1.5 2 0 0 1 33.5 106 z M 219.5 108 A 2.5 3 0 0 0 219 113.9375 L 219 118 L 220 118 L 220 113.93555 A 2.5 3 0 0 0 219.5 108 z M 224 108 L 222 114 L 222 115 L 224 115 L 224 118 L 225 118 L 225 115 L 227 115 L 227 114 L 225 108 L 224 108 z M 219.5 109 A 1.5 2 0 0 1 219.5 113 A 1.5 2 0 0 1 219.5 109 z M 224.5 109 L 226 114 L 223 114 L 224.5 109 z M 2.5 110 A 2.5 3 0 0 0 2 115.9375 L 2 120 L 3 120 L 3 115.93555 A 2.5 3 0 0 0 2.5 110 z M 509 110 L 507 116 L 507 117 L 509 117 L 509 120 L 510 120 L 510 117 L 512 117 L 512 116 L 510 110 L 509 110 z M 2.5 111 A 1.5 2 0 0 1 2.5 115 A 1.5 2 0 0 1 2.5 111 z M 509.5 111 L 511 116 L 508 116 L 509.5 111 z M 77.5 112 A 2.5 3 0 0 0 77 117.9375 L 77 122 L 78 122 L 78 117.93555 A 2.5 3 0 0 0 77.5 112 z M 82 112 L 80 118 L 80 119 L 82 119 L 82 122 L 83 122 L 83 119 L 85 119 L 85 118 L 83 112 L 82 112 z M 77.5 113 A 1.5 2 0 0 1 77.5 117 A 1.5 2 0 0 1 77.5 113 z M 82.5 113 L 84 118 L 81 118 L 82.5 113 z M 339 114 L 337 120 L 337 121 L 339 121 L 339 124 L 340 124 L 340 121 L 342 121 L 342 120 L 340 114 L 339 114 z M 344.5 114 A 2.5 3 0 0 0 344 119.9375 L 344 124 L 345 124 L 345 119.93555 A 2.5 3 0 0 0 344.5 114 z M 339.5 115 L 341 120 L 338 120 L 339.5 115 z M 344.5 115 A 1.5 2 0 0 1 344.5 119 A 1.5 2 0 0 1 344.5 115 z M 306.5 116 A 2.5 3 0 0 0 306 121.9375 L 306 126 L 307 126 L 307 121.93555 A 2.5 3 0 0 0 306.5 116 z M 311 116 L 309 122 L 309 123 L 311 123 L 311 126 L 312 126 L 312 123 L 314 123 L 314 122 L 312 116 L 311 116 z M 306.5 117 A 1.5 2 0 0 1 306.5 121 A 1.5 2 0 0 1 306.5 117 z M 311.5 117 L 313 122 L 310 122 L 311.5 117 z M 369 122 L 367 128 L 367 129 L 369 129 L 369 132 L 370 132 L 370 129 L 372 129 L 372 128 L 370 122 L 369 122 z M 374.5 122 A 2.5 3 0 0 0 374 127.9375 L 374 132 L 375 132 L 375 127.93555 A 2.5 3 0 0 0 374.5 122 z M 369.5 123 L 371 128 L 368 128 L 369.5 123 z M 374.5 123 A 1.5 2 0 0 1 374.5 127 A 1.5 2 0 0 1 374.5 123 z M 109 124 L 107 130 L 107 131 L 109 131 L 109 134 L 110 134 L 110 131 L 112 131 L 112 130 L 110 124 L 109 124 z M 114.5 124 A 2.5 3 0 0 0 114 129.9375 L 114 134 L 115 134 L 115 129.93555 A 2.5 3 0 0 0 114.5 124 z M 480 124 L 478 130 L 478 131 L 480 131 L 480 134 L 481 134 L 481 131 L 483 131 L 483 130 L 481 124 L 480 124 z M 485.5 124 A 2.5 3 0 0 0 485 129.9375 L 485 134 L 486 134 L 486 129.93555 A 2.5 3 0 0 0 485.5 124 z M 109.5 125 L 111 130 L 108 130 L 109.5 125 z M 114.5 125 A 1.5 2 0 0 1 114.5 129 A 1.5 2 0 0 1 114.5 125 z M 480.5 125 L 482 130 L 479 130 L 480.5 125 z M 485.5 125 A 1.5 2 0 0 1 485.5 129 A 1.5 2 0 0 1 485.5 125 z M 192 126 L 190 132 L 190 133 L 192 133 L 192 136 L 193 136 L 193 133 L 195 133 L 195 132 L 193 126 L 192 126 z M 197.5 126 A 2.5 3 0 0 0 197 131.9375 L 197 136 L 198 136 L 198 131.93555 A 2.5 3 0 0 0 197.5 126 z M 140.5 127 A 2.5 3 0 0 0 140 132.9375 L 140 137 L 141 137 L 141 132.93555 A 2.5 3 0 0 0 140.5 127 z M 145 127 L 143 133 L 143 134 L 145 134 L 145 137 L 146 137 L 146 134 L 148 134 L 148 133 L 146 127 L 145 127 z M 192.5 127 L 194 132 L 191 132 L 192.5 127 z M 197.5 127 A 1.5 2 0 0 1 197.5 131 A 1.5 2 0 0 1 197.5 127 z M 48 128 L 46 134 L 46 135 L 48 135 L 48 138 L 49 138 L 49 135 L 51 135 L 51 134 L 49 128 L 48 128 z M 53.5 128 A 2.5 3 0 0 0 53 133.9375 L 53 138 L 54 138 L 54 133.93555 A 2.5 3 0 0 0 53.5 128 z M 140.5 128 A 1.5 2 0 0 1 140.5 132 A 1.5 2 0 0 1 140.5 128 z M 145.5 128 L 147 133 L 144 133 L 145.5 128 z M 402.5 128 A 2.5 3 0 0 0 402 133.9375 L 402 138 L 403 138 L 403 133.93555 A 2.5 3 0 0 0 402.5 128 z M 407 128 L 405 134 L 405 135 L 407 135 L 407 138 L 408 138 L 408 135 L 410 135 L 410 134 L 408 128 L 407 128 z M 48.5 129 L 50 134 L 47 134 L 48.5 129 z M 53.5 129 A 1.5 2 0 0 1 53.5 133 A 1.5 2 0 0 1 53.5 129 z M 280 129 L 278 135 L 278 136 L 280 136 L 280 139 L 281 139 L 281 136 L 283 136 L 283 135 L 281 129 L 280 129 z M 285.5 129 A 2.5 3 0 0 0 285 134.9375 L 285 139 L 286 139 L 286 134.93555 A 2.5 3 0 0 0 285.5 129 z M 402.5 129 A 1.5 2 0 0 1 402.5 133 A 1.5 2 0 0 1 402.5 129 z M 407.5 129 L 409 134 L 406 134 L 407.5 129 z M 250.5 130 A 2.5 3 0 0 0 250 135.9375 L 250 140 L 251 140 L 251 135.93555 A 2.5 3 0 0 0 250.5 130 z M 255 130 L 253 136 L 253 137 L 255 137 L 255 140 L 256 140 L 256 137 L 258 137 L 258 136 L 256 130 L 255 130 z M 280.5 130 L 282 135 L 279 135 L 280.5 130 z M 285.5 130 A 1.5 2 0 0 1 285.5 134 A 1.5 2 0 0 1 285.5 130 z M 250.5 131 A 1.5 2 0 0 1 250.5 135 A 1.5 2 0 0 1 250.5 131 z M 255.5 131 L 257 136 L 254 136 L 255.5 131 z M 429.5 131 A 2.5 3 0 0 0 429 136.9375 L 429 141 L 430 141 L 430 136.93555 A 2.5 3 0 0 0 429.5 131 z M 434 131 L 432 137 L 432 138 L 434 138 L 434 141 L 435 141 L 435 138 L 437 138 L 437 137 L 435 131 L 434 131 z M 429.5 132 A 1.5 2 0 0 1 429.5 136 A 1.5 2 0 0 1 429.5 132 z M 434.5 132 L 436 137 L 433 137 L 434.5 132 z M 451 132 L 449 138 L 449 139 L 451 139 L 451 142 L 452 142 L 452 139 L 454 139 L 454 138 L 452 132 L 451 132 z M 456.5 132 A 2.5 3 0 0 0 456 137.9375 L 456 142 L 457 142 L 457 137.93555 A 2.5 3 0 0 0 456.5 132 z M 451.5 133 L 453 138 L 450 138 L 451.5 133 z M 456.5 133 A 1.5 2 0 0 1 456.5 137 A 1.5 2 0 0 1 456.5 133 z M 15.5 136 A 2.5 3 0 0 0 15 141.9375 L 15 146 L 16 146 L 16 141.93555 A 2.5 3 0 0 0 15.5 136 z M 20 136 L 18 142 L 18 143 L 20 143 L 20 146 L 21 146 L 21 143 L 23 143 L 23 142 L 21 136 L 20 136 z M 15.5 137 A 1.5 2 0 0 1 15.5 141 A 1.5 2 0 0 1 15.5 137 z M 20.5 137 L 22 142 L 19 142 L 20.5 137 z M 219.5 138 A 2.5 3 0 0 0 219 143.9375 L 219 148 L 220 148 L 220 143.93555 A 2.5 3 0 0 0 219.5 138 z M 224 138 L 222 144 L 222 145 L 224 145 L 224 148 L 225 148 L 225 145 L 227 145 L 227 144 L 225 138 L 224 138 z M 166.5 139 A 2.5 3 0 0 0 166 144.9375 L 166 149 L 167 149 L 167 144.93555 A 2.5 3 0 0 0 166.5 139 z M 171 139 L 169 145 L 169 146 L 171 146 L 171 149 L 172 149 L 172 146 L 174 146 L 174 145 L 172 139 L 171 139 z M 219.5 139 A 1.5 2 0 0 1 219.5 143 A 1.5 2 0 0 1 219.5 139 z M 224.5 139 L 226 144 L 223 144 L 224.5 139 z M 166.5 140 A 1.5 2 0 0 1 166.5 144 A 1.5 2 0 0 1 166.5 140 z M 171.5 140 L 173 145 L 170 145 L 171.5 140 z M 321.5 141 A 2.5 3 0 0 0 321 146.9375 L 321 151 L 322 151 L 322 146.93555 A 2.5 3 0 0 0 321.5 141 z M 326 141 L 324 147 L 324 148 L 326 148 L 326 151 L 327 151 L 327 148 L 329 148 L 329 147 L 327 141 L 326 141 z M 321.5 142 A 1.5 2 0 0 1 321.5 146 A 1.5 2 0 0 1 321.5 142 z M 326.5 142 L 328 147 L 325 147 L 326.5 142 z M 78 145 L 76 151 L 76 152 L 78 152 L 78 155 L 79 155 L 79 152 L 81 152 L 81 151 L 79 145 L 78 145 z M 83.5 145 A 2.5 3 0 0 0 83 150.9375 L 83 155 L 84 155 L 84 150.93555 A 2.5 3 0 0 0 83.5 145 z M 498 145 L 496 151 L 496 152 L 498 152 L 498 155 L 499 155 L 499 152 L 501 152 L 501 151 L 499 145 L 498 145 z M 503.5 145 A 2.5 3 0 0 0 503 150.9375 L 503 155 L 504 155 L 504 150.93555 A 2.5 3 0 0 0 503.5 145 z M 78.5 146 L 80 151 L 77 151 L 78.5 146 z M 83.5 146 A 1.5 2 0 0 1 83.5 150 A 1.5 2 0 0 1 83.5 146 z M 498.5 146 L 500 151 L 497 151 L 498.5 146 z M 503.5 146 A 1.5 2 0 0 1 503.5 150 A 1.5 2 0 0 1 503.5 146 z M 350.5 147 A 2.5 3 0 0 0 350 152.9375 L 350 157 L 351 157 L 351 152.93555 A 2.5 3 0 0 0 350.5 147 z M 355 147 L 353 153 L 353 154 L 355 154 L 355 157 L 356 157 L 356 154 L 358 154 L 358 153 L 356 147 L 355 147 z M 350.5 148 A 1.5 2 0 0 1 350.5 152 A 1.5 2 0 0 1 350.5 148 z M 355.5 148 L 357 153 L 354 153 L 355.5 148 z M 48.5 154 A 2.5 3 0 0 0 48 159.9375 L 48 164 L 49 164 L 49 159.93555 A 2.5 3 0 0 0 48.5 154 z M 53 154 L 51 160 L 51 161 L 53 161 L 53 164 L 54 164 L 54 161 L 56 161 L 56 160 L 54 154 L 53 154 z M 48.5 155 A 1.5 2 0 0 1 48.5 159 A 1.5 2 0 0 1 48.5 155 z M 53.5 155 L 55 160 L 52 160 L 53.5 155 z M 383 155 L 381 161 L 381 162 L 383 162 L 383 165 L 384 165 L 384 162 L 386 162 L 386 161 L 384 155 L 383 155 z M 388.5 155 A 2.5 3 0 0 0 388 160.9375 L 388 165 L 389 165 L 389 160.93555 A 2.5 3 0 0 0 388.5 155 z M 132 156 L 130 162 L 130 163 L 132 163 L 132 166 L 133 166 L 133 163 L 135 163 L 135 162 L 133 156 L 132 156 z M 137.5 156 A 2.5 3 0 0 0 137 161.9375 L 137 166 L 138 166 L 138 161.93555 A 2.5 3 0 0 0 137.5 156 z M 259 156 L 257 162 L 257 163 L 259 163 L 259 166 L 260 166 L 260 163 L 262 163 L 262 162 L 260 156 L 259 156 z M 264.5 156 A 2.5 3 0 0 0 264 161.9375 L 264 166 L 265 166 L 265 161.93555 A 2.5 3 0 0 0 264.5 156 z M 383.5 156 L 385 161 L 382 161 L 383.5 156 z M 388.5 156 A 1.5 2 0 0 1 388.5 160 A 1.5 2 0 0 1 388.5 156 z M 132.5 157 L 134 162 L 131 162 L 132.5 157 z M 137.5 157 A 1.5 2 0 0 1 137.5 161 A 1.5 2 0 0 1 137.5 157 z M 259.5 157 L 261 162 L 258 162 L 259.5 157 z M 264.5 157 A 1.5 2 0 0 1 264.5 161 A 1.5 2 0 0 1 264.5 157 z M 467.5 158 A 2.5 3 0 0 0 467 163.9375 L 467 168 L 468 168 L 468 163.93555 A 2.5 3 0 0 0 467.5 158 z M 472 158 L 470 164 L 470 165 L 472 165 L 472 168 L 473 168 L 473 165 L 475 165 L 475 164 L 473 158 L 472 158 z M 104 159 L 102 165 L 102 166 L 104 166 L 104 169 L 105 169 L 105 166 L 107 166 L 107 165 L 105 159 L 104 159 z M 109.5 159 A 2.5 3 0 0 0 109 164.9375 L 109 169 L 110 169 L 110 164.93555 A 2.5 3 0 0 0 109.5 159 z M 467.5 159 A 1.5 2 0 0 1 467.5 163 A 1.5 2 0 0 1 467.5 159 z M 472.5 159 L 474 164 L 471 164 L 472.5 159 z M 104.5 160 L 106 165 L 103 165 L 104.5 160 z M 109.5 160 A 1.5 2 0 0 1 109.5 164 A 1.5 2 0 0 1 109.5 160 z M 294.5 160 A 2.5 3 0 0 0 294 165.9375 L 294 170 L 295 170 L 295 165.93555 A 2.5 3 0 0 0 294.5 160 z M 299 160 L 297 166 L 297 167 L 299 167 L 299 170 L 300 170 L 300 167 L 302 167 L 302 166 L 300 160 L 299 160 z M 294.5 161 A 1.5 2 0 0 1 294.5 165 A 1.5 2 0 0 1 294.5 161 z M 299.5 161 L 301 166 L 298 166 L 299.5 161 z M 412.5 162 A 2.5 3 0 0 0 412 167.9375 L 412 172 L 413 172 L 413 167.93555 A 2.5 3 0 0 0 412.5 162 z M 417 162 L 415 168 L 415 169 L 417 169 L 417 172 L 418 172 L 418 169 L 420 169 L 420 168 L 418 162 L 417 162 z M 195 163 L 193 169 L 193 170 L 195 170 L 195 173 L 196 173 L 196 170 L 198 170 L 198 169 L 196 163 L 195 163 z M 200.5 163 A 2.5 3 0 0 0 200 168.9375 L 200 173 L 201 173 L 201 168.93555 A 2.5 3 0 0 0 200.5 163 z M 412.5 163 A 1.5 2 0 0 1 412.5 167 A 1.5 2 0 0 1 412.5 163 z M 417.5 163 L 419 168 L 416 168 L 417.5 163 z M 195.5 164 L 197 169 L 194 169 L 195.5 164 z M 200.5 164 A 1.5 2 0 0 1 200.5 168 A 1.5 2 0 0 1 200.5 164 z M 161.5 166 A 2.5 3 0 0 0 161 171.9375 L 161 176 L 162 176 L 162 171.93555 A 2.5 3 0 0 0 161.5 166 z M 166 166 L 164 172 L 164 173 L 166 173 L 166 176 L 167 176 L 167 173 L 169 173 L 169 172 L 167 166 L 166 166 z M 161.5 167 A 1.5 2 0 0 1 161.5 171 A 1.5 2 0 0 1 161.5 167 z M 166.5 167 L 168 172 L 165 172 L 166.5 167 z M 15.5 168 A 2.5 3 0 0 0 15 173.9375 L 15 178 L 16 178 L 16 173.93555 A 2.5 3 0 0 0 15.5 168 z M 20 168 L 18 174 L 18 175 L 20 175 L 20 178 L 21 178 L 21 175 L 23 175 L 23 174 L 21 168 L 20 168 z M 15.5 169 A 1.5 2 0 0 1 15.5 173 A 1.5 2 0 0 1 15.5 169 z M 20.5 169 L 22 174 L 19 174 L 20.5 169 z M 230.5 170 A 2.5 3 0 0 0 230 175.9375 L 230 180 L 231 180 L 231 175.93555 A 2.5 3 0 0 0 230.5 170 z M 235 170 L 233 176 L 233 177 L 235 177 L 235 180 L 236 180 L 236 177 L 238 177 L 238 176 L 236 170 L 235 170 z M 230.5 171 A 1.5 2 0 0 1 230.5 175 A 1.5 2 0 0 1 230.5 171 z M 235.5 171 L 237 176 L 234 176 L 235.5 171 z M 500.5 174 A 2.5 3 0 0 0 500 179.9375 L 500 184 L 501 184 L 501 179.93555 A 2.5 3 0 0 0 500.5 174 z M 505 174 L 503 180 L 503 181 L 505 181 L 505 184 L 506 184 L 506 181 L 508 181 L 508 180 L 506 174 L 505 174 z M 70 175 L 68 181 L 68 182 L 70 182 L 70 185 L 71 185 L 71 182 L 73 182 L 73 181 L 71 175 L 70 175 z M 75.5 175 A 2.5 3 0 0 0 75 180.9375 L 75 185 L 76 185 L 76 180.93555 A 2.5 3 0 0 0 75.5 175 z M 500.5 175 A 1.5 2 0 0 1 500.5 179 A 1.5 2 0 0 1 500.5 175 z M 505.5 175 L 507 180 L 504 180 L 505.5 175 z M 70.5 176 L 72 181 L 69 181 L 70.5 176 z M 75.5 176 A 1.5 2 0 0 1 75.5 180 A 1.5 2 0 0 1 75.5 176 z M 323.5 176 A 2.5 3 0 0 0 323 181.9375 L 323 186 L 324 186 L 324 181.93555 A 2.5 3 0 0 0 323.5 176 z M 328 176 L 326 182 L 326 183 L 328 183 L 328 186 L 329 186 L 329 183 L 331 183 L 331 182 L 329 176 L 328 176 z M 355.5 176 A 2.5 3 0 0 0 355 181.9375 L 355 186 L 356 186 L 356 181.93555 A 2.5 3 0 0 0 355.5 176 z M 360 176 L 358 182 L 358 183 L 360 183 L 360 186 L 361 186 L 361 183 L 363 183 L 363 182 L 361 176 L 360 176 z M 323.5 177 A 1.5 2 0 0 1 323.5 181 A 1.5 2 0 0 1 323.5 177 z M 328.5 177 L 330 182 L 327 182 L 328.5 177 z M 355.5 177 A 1.5 2 0 0 1 355.5 181 A 1.5 2 0 0 1 355.5 177 z M 360.5 177 L 362 182 L 359 182 L 360.5 177 z M 443 177 L 441 183 L 441 184 L 443 184 L 443 187 L 444 187 L 444 184 L 446 184 L 446 183 L 444 177 L 443 177 z M 448.5 177 A 2.5 3 0 0 0 448 182.9375 L 448 187 L 449 187 L 449 182.93555 A 2.5 3 0 0 0 448.5 177 z M 443.5 178 L 445 183 L 442 183 L 443.5 178 z M 448.5 178 A 1.5 2 0 0 1 448.5 182 A 1.5 2 0 0 1 448.5 178 z M 256 183 L 254 189 L 254 190 L 256 190 L 256 193 L 257 193 L 257 190 L 259 190 L 259 189 L 257 183 L 256 183 z M 261.5 183 A 2.5 3 0 0 0 261 188.9375 L 261 193 L 262 193 L 262 188.93555 A 2.5 3 0 0 0 261.5 183 z M 386.5 183 A 2.5 3 0 0 0 386 188.9375 L 386 193 L 387 193 L 387 188.93555 A 2.5 3 0 0 0 386.5 183 z M 391 183 L 389 189 L 389 190 L 391 190 L 391 193 L 392 193 L 392 190 L 394 190 L 394 189 L 392 183 L 391 183 z M 256.5 184 L 258 189 L 255 189 L 256.5 184 z M 261.5 184 A 1.5 2 0 0 1 261.5 188 A 1.5 2 0 0 1 261.5 184 z M 386.5 184 A 1.5 2 0 0 1 386.5 188 A 1.5 2 0 0 1 386.5 184 z M 391.5 184 L 393 189 L 390 189 L 391.5 184 z M 128.5 185 A 2.5 3 0 0 0 128 190.9375 L 128 195 L 129 195 L 129 190.93555 A 2.5 3 0 0 0 128.5 185 z M 133 185 L 131 191 L 131 192 L 133 192 L 133 195 L 134 195 L 134 192 L 136 192 L 136 191 L 134 185 L 133 185 z M 128.5 186 A 1.5 2 0 0 1 128.5 190 A 1.5 2 0 0 1 128.5 186 z M 133.5 186 L 135 191 L 132 191 L 133.5 186 z M 36 187 L 34 193 L 34 194 L 36 194 L 36 197 L 37 197 L 37 194 L 39 194 L 39 193 L 37 187 L 36 187 z M 41.5 187 A 2.5 3 0 0 0 41 192.9375 L 41 197 L 42 197 L 42 192.93555 A 2.5 3 0 0 0 41.5 187 z M 36.5 188 L 38 193 L 35 193 L 36.5 188 z M 41.5 188 A 1.5 2 0 0 1 41.5 192 A 1.5 2 0 0 1 41.5 188 z M 190.5 189 A 2.5 3 0 0 0 190 194.9375 L 190 199 L 191 199 L 191 194.93555 A 2.5 3 0 0 0 190.5 189 z M 195 189 L 193 195 L 193 196 L 195 196 L 195 199 L 196 199 L 196 196 L 198 196 L 198 195 L 196 189 L 195 189 z M 466 189 L 464 195 L 464 196 L 466 196 L 466 199 L 467 199 L 467 196 L 469 196 L 469 195 L 467 189 L 466 189 z M 471.5 189 A 2.5 3 0 0 0 471 194.9375 L 471 199 L 472 199 L 472 194.93555 A 2.5 3 0 0 0 471.5 189 z M 190.5 190 A 1.5 2 0 0 1 190.5 194 A 1.5 2 0 0 1 190.5 190 z M 195.5 190 L 197 195 L 194 195 L 195.5 190 z M 280.5 190 A 2.5 3 0 0 0 280 195.9375 L 280 200 L 281 200 L 281 195.93555 A 2.5 3 0 0 0 280.5 190 z M 285 190 L 283 196 L 283 197 L 285 197 L 285 200 L 286 200 L 286 197 L 288 197 L 288 196 L 286 190 L 285 190 z M 418 190 L 416 196 L 416 197 L 418 197 L 418 200 L 419 200 L 419 197 L 421 197 L 421 196 L 419 190 L 418 190 z M 423.5 190 A 2.5 3 0 0 0 423 195.9375 L 423 200 L 424 200 L 424 195.93555 A 2.5 3 0 0 0 423.5 190 z M 466.5 190 L 468 195 L 465 195 L 466.5 190 z M 471.5 190 A 1.5 2 0 0 1 471.5 194 A 1.5 2 0 0 1 471.5 190 z M 280.5 191 A 1.5 2 0 0 1 280.5 195 A 1.5 2 0 0 1 280.5 191 z M 285.5 191 L 287 196 L 284 196 L 285.5 191 z M 418.5 191 L 420 196 L 417 196 L 418.5 191 z M 423.5 191 A 1.5 2 0 0 1 423.5 195 A 1.5 2 0 0 1 423.5 191 z M 216 193 L 214 199 L 214 200 L 216 200 L 216 203 L 217 203 L 217 200 L 219 200 L 219 199 L 217 193 L 216 193 z M 221.5 193 A 2.5 3 0 0 0 221 198.9375 L 221 203 L 222 203 L 222 198.93555 A 2.5 3 0 0 0 221.5 193 z M 216.5 194 L 218 199 L 215 199 L 216.5 194 z M 221.5 194 A 1.5 2 0 0 1 221.5 198 A 1.5 2 0 0 1 221.5 194 z M 309 196 L 307 202 L 307 203 L 309 203 L 309 206 L 310 206 L 310 203 L 312 203 L 312 202 L 310 196 L 309 196 z M 314.5 196 A 2.5 3 0 0 0 314 201.9375 L 314 206 L 315 206 L 315 201.93555 A 2.5 3 0 0 0 314.5 196 z M 95 197 L 93 203 L 93 204 L 95 204 L 95 207 L 96 207 L 96 204 L 98 204 L 98 203 L 96 197 L 95 197 z M 100.5 197 A 2.5 3 0 0 0 100 202.9375 L 100 207 L 101 207 L 101 202.93555 A 2.5 3 0 0 0 100.5 197 z M 309.5 197 L 311 202 L 308 202 L 309.5 197 z M 314.5 197 A 1.5 2 0 0 1 314.5 201 A 1.5 2 0 0 1 314.5 197 z M 95.5 198 L 97 203 L 94 203 L 95.5 198 z M 100.5 198 A 1.5 2 0 0 1 100.5 202 A 1.5 2 0 0 1 100.5 198 z M 12.5 200 A 2.5 3 0 0 0 12 205.9375 L 12 210 L 13 210 L 13 205.93555 A 2.5 3 0 0 0 12.5 200 z M 17 200 L 15 206 L 15 207 L 17 207 L 17 210 L 18 210 L 18 207 L 20 207 L 20 206 L 18 200 L 17 200 z M 159.5 200 A 2.5 3 0 0 0 159 205.9375 L 159 210 L 160 210 L 160 205.93555 A 2.5 3 0 0 0 159.5 200 z M 164 200 L 162 206 L 162 207 L 164 207 L 164 210 L 165 210 L 165 207 L 167 207 L 167 206 L 165 200 L 164 200 z M 12.5 201 A 1.5 2 0 0 1 12.5 205 A 1.5 2 0 0 1 12.5 201 z M 17.5 201 L 19 206 L 16 206 L 17.5 201 z M 159.5 201 A 1.5 2 0 0 1 159.5 205 A 1.5 2 0 0 1 159.5 201 z M 164.5 201 L 166 206 L 163 206 L 164.5 201 z M 340 202 L 338 208 L 338 209 L 340 209 L 340 212 L 341 212 L 341 209 L 343 209 L 343 208 L 341 202 L 340 202 z M 345.5 202 A 2.5 3 0 0 0 345 207.9375 L 345 212 L 346 212 L 346 207.93555 A 2.5 3 0 0 0 345.5 202 z M 340.5 203 L 342 208 L 339 208 L 340.5 203 z M 345.5 203 A 1.5 2 0 0 1 345.5 207 A 1.5 2 0 0 1 345.5 203 z M 65 207 L 63 213 L 63 214 L 65 214 L 65 217 L 66 217 L 66 214 L 68 214 L 68 213 L 66 207 L 65 207 z M 70.5 207 A 2.5 3 0 0 0 70 212.9375 L 70 217 L 71 217 L 71 212.93555 A 2.5 3 0 0 0 70.5 207 z M 487.5 207 A 2.5 3 0 0 0 487 212.9375 L 487 217 L 488 217 L 488 212.93555 A 2.5 3 0 0 0 487.5 207 z M 492 207 L 490 213 L 490 214 L 492 214 L 492 217 L 493 217 L 493 214 L 495 214 L 495 213 L 493 207 L 492 207 z M 65.5 208 L 67 213 L 64 213 L 65.5 208 z M 70.5 208 A 1.5 2 0 0 1 70.5 212 A 1.5 2 0 0 1 70.5 208 z M 487.5 208 A 1.5 2 0 0 1 487.5 212 A 1.5 2 0 0 1 487.5 208 z M 492.5 208 L 494 213 L 491 213 L 492.5 208 z M 250 211 L 248 217 L 248 218 L 250 218 L 250 221 L 251 221 L 251 218 L 253 218 L 253 217 L 251 211 L 250 211 z M 255.5 211 A 2.5 3 0 0 0 255 216.9375 L 255 221 L 256 221 L 256 216.93555 A 2.5 3 0 0 0 255.5 211 z M 250.5 212 L 252 217 L 249 217 L 250.5 212 z M 255.5 212 A 1.5 2 0 0 1 255.5 216 A 1.5 2 0 0 1 255.5 212 z M 371.5 212 A 2.5 3 0 0 0 371 217.9375 L 371 222 L 372 222 L 372 217.93555 A 2.5 3 0 0 0 371.5 212 z M 376 212 L 374 218 L 374 219 L 376 219 L 376 222 L 377 222 L 377 219 L 379 219 L 379 218 L 377 212 L 376 212 z M 371.5 213 A 1.5 2 0 0 1 371.5 217 A 1.5 2 0 0 1 371.5 213 z M 376.5 213 L 378 218 L 375 218 L 376.5 213 z M 118 214 L 116 220 L 116 221 L 118 221 L 118 224 L 119 224 L 119 221 L 121 221 L 121 220 L 119 214 L 118 214 z M 123.5 214 A 2.5 3 0 0 0 123 219.9375 L 123 224 L 124 224 L 124 219.93555 A 2.5 3 0 0 0 123.5 214 z M 118.5 215 L 120 220 L 117 220 L 118.5 215 z M 123.5 215 A 1.5 2 0 0 1 123.5 219 A 1.5 2 0 0 1 123.5 215 z M 402.5 216 A 2.5 3 0 0 0 402 221.9375 L 402 226 L 403 226 L 403 221.93555 A 2.5 3 0 0 0 402.5 216 z M 407 216 L 405 222 L 405 223 L 407 223 L 407 226 L 408 226 L 408 223 L 410 223 L 410 222 L 408 216 L 407 216 z M 402.5 217 A 1.5 2 0 0 1 402.5 221 A 1.5 2 0 0 1 402.5 217 z M 407.5 217 L 409 222 L 406 222 L 407.5 217 z M 435.5 218 A 2.5 3 0 0 0 435 223.9375 L 435 228 L 436 228 L 436 223.93555 A 2.5 3 0 0 0 435.5 218 z M 440 218 L 438 224 L 438 225 L 440 225 L 440 228 L 441 228 L 441 225 L 443 225 L 443 224 L 441 218 L 440 218 z M 140.5 219 A 2.5 3 0 0 0 140 224.9375 L 140 229 L 141 229 L 141 224.93555 A 2.5 3 0 0 0 140.5 219 z M 145 219 L 143 225 L 143 226 L 145 226 L 145 229 L 146 229 L 146 226 L 148 226 L 148 225 L 146 219 L 145 219 z M 435.5 219 A 1.5 2 0 0 1 435.5 223 A 1.5 2 0 0 1 435.5 219 z M 440.5 219 L 442 224 L 439 224 L 440.5 219 z M 140.5 220 A 1.5 2 0 0 1 140.5 224 A 1.5 2 0 0 1 140.5 220 z M 145.5 220 L 147 225 L 144 225 L 145.5 220 z M 193.5 221 A 2.5 3 0 0 0 193 226.9375 L 193 231 L 194 231 L 194 226.93555 A 2.5 3 0 0 0 193.5 221 z M 198 221 L 196 227 L 196 228 L 198 228 L 198 231 L 199 231 L 199 228 L 201 228 L 201 227 L 199 221 L 198 221 z M 193.5 222 A 1.5 2 0 0 1 193.5 226 A 1.5 2 0 0 1 193.5 222 z M 198.5 222 L 200 227 L 197 227 L 198.5 222 z M 311 222 L 309 228 L 309 229 L 311 229 L 311 232 L 312 232 L 312 229 L 314 229 L 314 228 L 312 222 L 311 222 z M 316.5 222 A 2.5 3 0 0 0 316 227.9375 L 316 232 L 317 232 L 317 227.93555 A 2.5 3 0 0 0 316.5 222 z M 37 223 L 35 229 L 35 230 L 37 230 L 37 233 L 38 233 L 38 230 L 40 230 L 40 229 L 38 223 L 37 223 z M 42.5 223 A 2.5 3 0 0 0 42 228.9375 L 42 233 L 43 233 L 43 228.93555 A 2.5 3 0 0 0 42.5 223 z M 311.5 223 L 313 228 L 310 228 L 311.5 223 z M 316.5 223 A 1.5 2 0 0 1 316.5 227 A 1.5 2 0 0 1 316.5 223 z M 37.5 224 L 39 229 L 36 229 L 37.5 224 z M 42.5 224 A 1.5 2 0 0 1 42.5 228 A 1.5 2 0 0 1 42.5 224 z M 226 224 L 224 230 L 224 231 L 226 231 L 226 234 L 227 234 L 227 231 L 229 231 L 229 230 L 227 224 L 226 224 z M 231.5 224 A 2.5 3 0 0 0 231 229.9375 L 231 234 L 232 234 L 232 229.93555 A 2.5 3 0 0 0 231.5 224 z M 280 224 L 278 230 L 278 231 L 280 231 L 280 234 L 281 234 L 281 231 L 283 231 L 283 230 L 281 224 L 280 224 z M 285.5 224 A 2.5 3 0 0 0 285 229.9375 L 285 234 L 286 234 L 286 229.93555 A 2.5 3 0 0 0 285.5 224 z M 464 224 L 462 230 L 462 231 L 464 231 L 464 234 L 465 234 L 465 231 L 467 231 L 467 230 L 465 224 L 464 224 z M 469.5 224 A 2.5 3 0 0 0 469 229.9375 L 469 234 L 470 234 L 470 229.93555 A 2.5 3 0 0 0 469.5 224 z M 226.5 225 L 228 230 L 225 230 L 226.5 225 z M 231.5 225 A 1.5 2 0 0 1 231.5 229 A 1.5 2 0 0 1 231.5 225 z M 280.5 225 L 282 230 L 279 230 L 280.5 225 z M 285.5 225 A 1.5 2 0 0 1 285.5 229 A 1.5 2 0 0 1 285.5 225 z M 464.5 225 L 466 230 L 463 230 L 464.5 225 z M 469.5 225 A 1.5 2 0 0 1 469.5 229 A 1.5 2 0 0 1 469.5 225 z M 84 229 L 82 235 L 82 236 L 84 236 L 84 239 L 85 239 L 85 236 L 87 236 L 87 235 L 85 229 L 84 229 z M 89.5 229 A 2.5 3 0 0 0 89 234.9375 L 89 239 L 90 239 L 90 234.93555 A 2.5 3 0 0 0 89.5 229 z M 84.5 230 L 86 235 L 83 235 L 84.5 230 z M 89.5 230 A 1.5 2 0 0 1 89.5 234 A 1.5 2 0 0 1 89.5 230 z M 498.5 231 A 2.5 3 0 0 0 498 236.9375 L 498 241 L 499 241 L 499 236.93555 A 2.5 3 0 0 0 498.5 231 z M 503 231 L 501 237 L 501 238 L 503 238 L 503 241 L 504 241 L 504 238 L 506 238 L 506 237 L 504 231 L 503 231 z M 498.5 232 A 1.5 2 0 0 1 498.5 236 A 1.5 2 0 0 1 498.5 232 z M 503.5 232 L 505 237 L 502 237 L 503.5 232 z M 10.5 233 A 2.5 3 0 0 0 10 238.9375 L 10 243 L 11 243 L 11 238.93555 A 2.5 3 0 0 0 10.5 233 z M 15 233 L 13 239 L 13 240 L 15 240 L 15 243 L 16 243 L 16 240 L 18 240 L 18 239 L 16 233 L 15 233 z M 166 233 L 164 239 L 164 240 L 166 240 L 166 243 L 167 243 L 167 240 L 169 240 L 169 239 L 167 233 L 166 233 z M 171.5 233 A 2.5 3 0 0 0 171 238.9375 L 171 243 L 172 243 L 172 238.93555 A 2.5 3 0 0 0 171.5 233 z M 10.5 234 A 1.5 2 0 0 1 10.5 238 A 1.5 2 0 0 1 10.5 234 z M 15.5 234 L 17 239 L 14 239 L 15.5 234 z M 166.5 234 L 168 239 L 165 239 L 166.5 234 z M 171.5 234 A 1.5 2 0 0 1 171.5 238 A 1.5 2 0 0 1 171.5 234 z M 374.5 237 A 2.5 3 0 0 0 374 242.9375 L 374 247 L 375 247 L 375 242.93555 A 2.5 3 0 0 0 374.5 237 z M 379 237 L 377 243 L 377 244 L 379 244 L 379 247 L 380 247 L 380 244 L 382 244 L 382 243 L 380 237 L 379 237 z M 342 238 L 340 244 L 340 245 L 342 245 L 342 248 L 343 248 L 343 245 L 345 245 L 345 244 L 343 238 L 342 238 z M 347.5 238 A 2.5 3 0 0 0 347 243.9375 L 347 248 L 348 248 L 348 243.93555 A 2.5 3 0 0 0 347.5 238 z M 374.5 238 A 1.5 2 0 0 1 374.5 242 A 1.5 2 0 0 1 374.5 238 z M 379.5 238 L 381 243 L 378 243 L 379.5 238 z M 342.5 239 L 344 244 L 341 244 L 342.5 239 z M 347.5 239 A 1.5 2 0 0 1 347.5 243 A 1.5 2 0 0 1 347.5 239 z M 61.5 241 A 2.5 3 0 0 0 61 246.9375 L 61 251 L 62 251 L 62 246.93555 A 2.5 3 0 0 0 61.5 241 z M 66 241 L 64 247 L 64 248 L 66 248 L 66 251 L 67 251 L 67 248 L 69 248 L 69 247 L 67 241 L 66 241 z M 61.5 242 A 1.5 2 0 0 1 61.5 246 A 1.5 2 0 0 1 61.5 242 z M 66.5 242 L 68 247 L 65 247 L 66.5 242 z M 312 245 L 310 251 L 310 252 L 312 252 L 312 255 L 313 255 L 313 252 L 315 252 L 315 251 L 313 245 L 312 245 z M 317.5 245 A 2.5 3 0 0 0 317 250.9375 L 317 255 L 318 255 L 318 250.93555 A 2.5 3 0 0 0 317.5 245 z M 404.5 245 A 2.5 3 0 0 0 404 250.9375 L 404 255 L 405 255 L 405 250.93555 A 2.5 3 0 0 0 404.5 245 z M 409 245 L 407 251 L 407 252 L 409 252 L 409 255 L 410 255 L 410 252 L 412 252 L 412 251 L 410 245 L 409 245 z M 435 245 L 433 251 L 433 252 L 435 252 L 435 255 L 436 255 L 436 252 L 438 252 L 438 251 L 436 245 L 435 245 z M 440.5 245 A 2.5 3 0 0 0 440 250.9375 L 440 255 L 441 255 L 441 250.93555 A 2.5 3 0 0 0 440.5 245 z M 252.5 246 A 2.5 3 0 0 0 252 251.9375 L 252 256 L 253 256 L 253 251.93555 A 2.5 3 0 0 0 252.5 246 z M 257 246 L 255 252 L 255 253 L 257 253 L 257 256 L 258 256 L 258 253 L 260 253 L 260 252 L 258 246 L 257 246 z M 312.5 246 L 314 251 L 311 251 L 312.5 246 z M 317.5 246 A 1.5 2 0 0 1 317.5 250 A 1.5 2 0 0 1 317.5 246 z M 404.5 246 A 1.5 2 0 0 1 404.5 250 A 1.5 2 0 0 1 404.5 246 z M 409.5 246 L 411 251 L 408 251 L 409.5 246 z M 435.5 246 L 437 251 L 434 251 L 435.5 246 z M 440.5 246 A 1.5 2 0 0 1 440.5 250 A 1.5 2 0 0 1 440.5 246 z M 115 247 L 113 253 L 113 254 L 115 254 L 115 257 L 116 257 L 116 254 L 118 254 L 118 253 L 116 247 L 115 247 z M 120.5 247 A 2.5 3 0 0 0 120 252.9375 L 120 257 L 121 257 L 121 252.93555 A 2.5 3 0 0 0 120.5 247 z M 252.5 247 A 1.5 2 0 0 1 252.5 251 A 1.5 2 0 0 1 252.5 247 z M 257.5 247 L 259 252 L 256 252 L 257.5 247 z M 115.5 248 L 117 253 L 114 253 L 115.5 248 z M 120.5 248 A 1.5 2 0 0 1 120.5 252 A 1.5 2 0 0 1 120.5 248 z M 199.5 250 A 2.5 3 0 0 0 199 255.9375 L 199 260 L 200 260 L 200 255.93555 A 2.5 3 0 0 0 199.5 250 z M 204 250 L 202 256 L 202 257 L 204 257 L 204 260 L 205 260 L 205 257 L 207 257 L 207 256 L 205 250 L 204 250 z M 199.5 251 A 1.5 2 0 0 1 199.5 255 A 1.5 2 0 0 1 199.5 251 z M 204.5 251 L 206 256 L 203 256 L 204.5 251 z M 461.5 253 A 2.5 3 0 0 0 461 258.9375 L 461 263 L 462 263 L 462 258.93555 A 2.5 3 0 0 0 461.5 253 z M 466 253 L 464 259 L 464 260 L 466 260 L 466 263 L 467 263 L 467 260 L 469 260 L 469 259 L 467 253 L 466 253 z M 461.5 254 A 1.5 2 0 0 1 461.5 258 A 1.5 2 0 0 1 461.5 254 z M 466.5 254 L 468 259 L 465 259 L 466.5 254 z M 225 257 L 223 263 L 223 264 L 225 264 L 225 267 L 226 267 L 226 264 L 228 264 L 228 263 L 226 257 L 225 257 z M 230.5 257 A 2.5 3 0 0 0 230 262.9375 L 230 267 L 231 267 L 231 262.93555 A 2.5 3 0 0 0 230.5 257 z M 289.5 257 A 2.5 3 0 0 0 289 262.9375 L 289 267 L 290 267 L 290 262.93555 A 2.5 3 0 0 0 289.5 257 z M 294 257 L 292 263 L 292 264 L 294 264 L 294 267 L 295 267 L 295 264 L 297 264 L 297 263 L 295 257 L 294 257 z M 40.5 258 A 2.5 3 0 0 0 40 263.9375 L 40 268 L 41 268 L 41 263.93555 A 2.5 3 0 0 0 40.5 258 z M 45 258 L 43 264 L 43 265 L 45 265 L 45 268 L 46 268 L 46 265 L 48 265 L 48 264 L 46 258 L 45 258 z M 141.5 258 A 2.5 3 0 0 0 141 263.9375 L 141 268 L 142 268 L 142 263.93555 A 2.5 3 0 0 0 141.5 258 z M 146 258 L 144 264 L 144 265 L 146 265 L 146 268 L 147 268 L 147 265 L 149 265 L 149 264 L 147 258 L 146 258 z M 225.5 258 L 227 263 L 224 263 L 225.5 258 z M 230.5 258 A 1.5 2 0 0 1 230.5 262 A 1.5 2 0 0 1 230.5 258 z M 289.5 258 A 1.5 2 0 0 1 289.5 262 A 1.5 2 0 0 1 289.5 258 z M 294.5 258 L 296 263 L 293 263 L 294.5 258 z M 40.5 259 A 1.5 2 0 0 1 40.5 263 A 1.5 2 0 0 1 40.5 259 z M 45.5 259 L 47 264 L 44 264 L 45.5 259 z M 141.5 259 A 1.5 2 0 0 1 141.5 263 A 1.5 2 0 0 1 141.5 259 z M 146.5 259 L 148 264 L 145 264 L 146.5 259 z M 7.5 263 A 2.5 3 0 0 0 7 268.9375 L 7 273 L 8 273 L 8 268.93555 A 2.5 3 0 0 0 7.5 263 z M 12 263 L 10 269 L 10 270 L 12 270 L 12 273 L 13 273 L 13 270 L 15 270 L 15 269 L 13 263 L 12 263 z M 356.5 263 A 2.5 3 0 0 0 356 268.9375 L 356 273 L 357 273 L 357 268.93555 A 2.5 3 0 0 0 356.5 263 z M 361 263 L 359 269 L 359 270 L 361 270 L 361 273 L 362 273 L 362 270 L 364 270 L 364 269 L 362 263 L 361 263 z M 7.5 264 A 1.5 2 0 0 1 7.5 268 A 1.5 2 0 0 1 7.5 264 z M 12.5 264 L 14 269 L 11 269 L 12.5 264 z M 89 264 L 87 270 L 87 271 L 89 271 L 89 274 L 90 274 L 90 271 L 92 271 L 92 270 L 90 264 L 89 264 z M 94.5 264 A 2.5 3 0 0 0 94 269.9375 L 94 274 L 95 274 L 95 269.93555 A 2.5 3 0 0 0 94.5 264 z M 356.5 264 A 1.5 2 0 0 1 356.5 268 A 1.5 2 0 0 1 356.5 264 z M 361.5 264 L 363 269 L 360 269 L 361.5 264 z M 493.5 264 A 2.5 3 0 0 0 493 269.9375 L 493 274 L 494 274 L 494 269.93555 A 2.5 3 0 0 0 493.5 264 z M 498 264 L 496 270 L 496 271 L 498 271 L 498 274 L 499 274 L 499 271 L 501 271 L 501 270 L 499 264 L 498 264 z M 89.5 265 L 91 270 L 88 270 L 89.5 265 z M 94.5 265 A 1.5 2 0 0 1 94.5 269 A 1.5 2 0 0 1 94.5 265 z M 176 265 L 174 271 L 174 272 L 176 272 L 176 275 L 177 275 L 177 272 L 179 272 L 179 271 L 177 265 L 176 265 z M 181.5 265 A 2.5 3 0 0 0 181 270.9375 L 181 275 L 182 275 L 182 270.93555 A 2.5 3 0 0 0 181.5 265 z M 493.5 265 A 1.5 2 0 0 1 493.5 269 A 1.5 2 0 0 1 493.5 265 z M 498.5 265 L 500 270 L 497 270 L 498.5 265 z M 176.5 266 L 178 271 L 175 271 L 176.5 266 z M 181.5 266 A 1.5 2 0 0 1 181.5 270 A 1.5 2 0 0 1 181.5 266 z M 258.5 274 A 2.5 3 0 0 0 258 279.9375 L 258 284 L 259 284 L 259 279.93555 A 2.5 3 0 0 0 258.5 274 z M 263 274 L 261 280 L 261 281 L 263 281 L 263 284 L 264 284 L 264 281 L 266 281 L 266 280 L 264 274 L 263 274 z M 321.5 274 A 2.5 3 0 0 0 321 279.9375 L 321 284 L 322 284 L 322 279.93555 A 2.5 3 0 0 0 321.5 274 z M 326 274 L 324 280 L 324 281 L 326 281 L 326 284 L 327 284 L 327 281 L 329 281 L 329 280 L 327 274 L 326 274 z M 417 274 L 415 280 L 415 281 L 417 281 L 417 284 L 418 284 L 418 281 L 420 281 L 420 280 L 418 274 L 417 274 z M 422.5 274 A 2.5 3 0 0 0 422 279.9375 L 422 284 L 423 284 L 423 279.93555 A 2.5 3 0 0 0 422.5 274 z M 258.5 275 A 1.5 2 0 0 1 258.5 279 A 1.5 2 0 0 1 258.5 275 z M 263.5 275 L 265 280 L 262 280 L 263.5 275 z M 321.5 275 A 1.5 2 0 0 1 321.5 279 A 1.5 2 0 0 1 321.5 275 z M 326.5 275 L 328 280 L 325 280 L 326.5 275 z M 417.5 275 L 419 280 L 416 280 L 417.5 275 z M 422.5 275 A 1.5 2 0 0 1 422.5 279 A 1.5 2 0 0 1 422.5 275 z M 385 277 L 383 283 L 383 284 L 385 284 L 385 287 L 386 287 L 386 284 L 388 284 L 388 283 L 386 277 L 385 277 z M 390.5 277 A 2.5 3 0 0 0 390 282.9375 L 390 287 L 391 287 L 391 282.93555 A 2.5 3 0 0 0 390.5 277 z M 114 278 L 112 284 L 112 285 L 114 285 L 114 288 L 115 288 L 115 285 L 117 285 L 117 284 L 115 278 L 114 278 z M 119.5 278 A 2.5 3 0 0 0 119 283.9375 L 119 288 L 120 288 L 120 283.93555 A 2.5 3 0 0 0 119.5 278 z M 385.5 278 L 387 283 L 384 283 L 385.5 278 z M 390.5 278 A 1.5 2 0 0 1 390.5 282 A 1.5 2 0 0 1 390.5 278 z M 114.5 279 L 116 284 L 113 284 L 114.5 279 z M 119.5 279 A 1.5 2 0 0 1 119.5 283 A 1.5 2 0 0 1 119.5 279 z M 62 282 L 60 288 L 60 289 L 62 289 L 62 292 L 63 292 L 63 289 L 65 289 L 65 288 L 63 282 L 62 282 z M 67.5 282 A 2.5 3 0 0 0 67 287.9375 L 67 292 L 68 292 L 68 287.93555 A 2.5 3 0 0 0 67.5 282 z M 62.5 283 L 64 288 L 61 288 L 62.5 283 z M 67.5 283 A 1.5 2 0 0 1 67.5 287 A 1.5 2 0 0 1 67.5 283 z M 150 283 L 148 289 L 148 290 L 150 290 L 150 293 L 151 293 L 151 290 L 153 290 L 153 289 L 151 283 L 150 283 z M 155.5 283 A 2.5 3 0 0 0 155 288.9375 L 155 293 L 156 293 L 156 288.93555 A 2.5 3 0 0 0 155.5 283 z M 200.5 283 A 2.5 3 0 0 0 200 288.9375 L 200 293 L 201 293 L 201 288.93555 A 2.5 3 0 0 0 200.5 283 z M 205 283 L 203 289 L 203 290 L 205 290 L 205 293 L 206 293 L 206 290 L 208 290 L 208 289 L 206 283 L 205 283 z M 150.5 284 L 152 289 L 149 289 L 150.5 284 z M 155.5 284 A 1.5 2 0 0 1 155.5 288 A 1.5 2 0 0 1 155.5 284 z M 200.5 284 A 1.5 2 0 0 1 200.5 288 A 1.5 2 0 0 1 200.5 284 z M 205.5 284 L 207 289 L 204 289 L 205.5 284 z M 445 284 L 443 290 L 443 291 L 445 291 L 445 294 L 446 294 L 446 291 L 448 291 L 448 290 L 446 284 L 445 284 z M 450.5 284 A 2.5 3 0 0 0 450 289.9375 L 450 294 L 451 294 L 451 289.93555 A 2.5 3 0 0 0 450.5 284 z M 445.5 285 L 447 290 L 444 290 L 445.5 285 z M 450.5 285 A 1.5 2 0 0 1 450.5 289 A 1.5 2 0 0 1 450.5 285 z M 475.5 285 A 2.5 3 0 0 0 475 290.9375 L 475 295 L 476 295 L 476 290.93555 A 2.5 3 0 0 0 475.5 285 z M 480 285 L 478 291 L 478 292 L 480 292 L 480 295 L 481 295 L 481 292 L 483 292 L 483 291 L 481 285 L 480 285 z M 475.5 286 A 1.5 2 0 0 1 475.5 290 A 1.5 2 0 0 1 475.5 286 z M 480.5 286 L 482 291 L 479 291 L 480.5 286 z M 32.5 288 A 2.5 3 0 0 0 32 293.9375 L 32 298 L 33 298 L 33 293.93555 A 2.5 3 0 0 0 32.5 288 z M 37 288 L 35 294 L 35 295 L 37 295 L 37 298 L 38 298 L 38 295 L 40 295 L 40 294 L 38 288 L 37 288 z M 236 288 L 234 294 L 234 295 L 236 295 L 236 298 L 237 298 L 237 295 L 239 295 L 239 294 L 237 288 L 236 288 z M 241.5 288 A 2.5 3 0 0 0 241 293.9375 L 241 298 L 242 298 L 242 293.93555 A 2.5 3 0 0 0 241.5 288 z M 32.5 289 A 1.5 2 0 0 1 32.5 293 A 1.5 2 0 0 1 32.5 289 z M 37.5 289 L 39 294 L 36 294 L 37.5 289 z M 236.5 289 L 238 294 L 235 294 L 236.5 289 z M 241.5 289 A 1.5 2 0 0 1 241.5 293 A 1.5 2 0 0 1 241.5 289 z M 357 290 L 355 296 L 355 297 L 357 297 L 357 300 L 358 300 L 358 297 L 360 297 L 360 296 L 358 290 L 357 290 z M 362.5 290 A 2.5 3 0 0 0 362 295.9375 L 362 300 L 363 300 L 363 295.93555 A 2.5 3 0 0 0 362.5 290 z M 284 291 L 282 297 L 282 298 L 284 298 L 284 301 L 285 301 L 285 298 L 287 298 L 287 297 L 285 291 L 284 291 z M 289.5 291 A 2.5 3 0 0 0 289 296.9375 L 289 301 L 290 301 L 290 296.93555 A 2.5 3 0 0 0 289.5 291 z M 357.5 291 L 359 296 L 356 296 L 357.5 291 z M 362.5 291 A 1.5 2 0 0 1 362.5 295 A 1.5 2 0 0 1 362.5 291 z M 284.5 292 L 286 297 L 283 297 L 284.5 292 z M 289.5 292 A 1.5 2 0 0 1 289.5 296 A 1.5 2 0 0 1 289.5 292 z M 4 293 L 2 299 L 2 300 L 4 300 L 4 303 L 5 303 L 5 300 L 7 300 L 7 299 L 5 293 L 4 293 z M 511.5 293 A 2.5 3 0 0 0 511 298.9375 L 511 303 L 512 303 L 512 298.93555 L 512 297.88281 A 1.5 2 0 0 1 511.5 298 A 1.5 2 0 0 1 511.5 294 A 1.5 2 0 0 1 512 294.11523 L 512 293.0625 A 2.5 3 0 0 0 511.5 293 z M 0 293.0625 L 0 294.11523 A 1.5 2 0 0 1 0 297.88281 L 0 298.93555 A 2.5 3 0 0 0 0 293.0625 z M 4.5 294 L 6 299 L 3 299 L 4.5 294 z M 88.5 299 A 2.5 3 0 0 0 88 304.9375 L 88 309 L 89 309 L 89 304.93555 A 2.5 3 0 0 0 88.5 299 z M 93 299 L 91 305 L 91 306 L 93 306 L 93 309 L 94 309 L 94 306 L 96 306 L 96 305 L 94 299 L 93 299 z M 88.5 300 A 1.5 2 0 0 1 88.5 304 A 1.5 2 0 0 1 88.5 300 z M 93.5 300 L 95 305 L 92 305 L 93.5 300 z M 173 300 L 171 306 L 171 307 L 173 307 L 173 310 L 174 310 L 174 307 L 176 307 L 176 306 L 174 300 L 173 300 z M 178.5 300 A 2.5 3 0 0 0 178 305.9375 L 178 310 L 179 310 L 179 305.93555 A 2.5 3 0 0 0 178.5 300 z M 173.5 301 L 175 306 L 172 306 L 173.5 301 z M 178.5 301 A 1.5 2 0 0 1 178.5 305 A 1.5 2 0 0 1 178.5 301 z M 305 302 L 303 308 L 303 309 L 305 309 L 305 312 L 306 312 L 306 309 L 308 309 L 308 308 L 306 302 L 305 302 z M 310.5 302 A 2.5 3 0 0 0 310 307.9375 L 310 312 L 311 312 L 311 307.93555 A 2.5 3 0 0 0 310.5 302 z M 305.5 303 L 307 308 L 304 308 L 305.5 303 z M 310.5 303 A 1.5 2 0 0 1 310.5 307 A 1.5 2 0 0 1 310.5 303 z M 423 304 L 421 310 L 421 311 L 423 311 L 423 314 L 424 314 L 424 311 L 426 311 L 426 310 L 424 304 L 423 304 z M 428.5 304 A 2.5 3 0 0 0 428 309.9375 L 428 314 L 429 314 L 429 309.93555 A 2.5 3 0 0 0 428.5 304 z M 333 305 L 331 311 L 331 312 L 333 312 L 333 315 L 334 315 L 334 312 L 336 312 L 336 311 L 334 305 L 333 305 z M 338.5 305 A 2.5 3 0 0 0 338 310.9375 L 338 315 L 339 315 L 339 310.93555 A 2.5 3 0 0 0 338.5 305 z M 423.5 305 L 425 310 L 422 310 L 423.5 305 z M 428.5 305 A 1.5 2 0 0 1 428.5 309 A 1.5 2 0 0 1 428.5 305 z M 139 306 L 137 312 L 137 313 L 139 313 L 139 316 L 140 316 L 140 313 L 142 313 L 142 312 L 140 306 L 139 306 z M 144.5 306 A 2.5 3 0 0 0 144 311.9375 L 144 316 L 145 316 L 145 311.93555 A 2.5 3 0 0 0 144.5 306 z M 333.5 306 L 335 311 L 332 311 L 333.5 306 z M 338.5 306 A 1.5 2 0 0 1 338.5 310 A 1.5 2 0 0 1 338.5 306 z M 139.5 307 L 141 312 L 138 312 L 139.5 307 z M 144.5 307 A 1.5 2 0 0 1 144.5 311 A 1.5 2 0 0 1 144.5 307 z M 396 308 L 394 314 L 394 315 L 396 315 L 396 318 L 397 318 L 397 315 L 399 315 L 399 314 L 397 308 L 396 308 z M 401.5 308 A 2.5 3 0 0 0 401 313.9375 L 401 318 L 402 318 L 402 313.93555 A 2.5 3 0 0 0 401.5 308 z M 223.5 309 A 2.5 3 0 0 0 223 314.9375 L 223 319 L 224 319 L 224 314.93555 A 2.5 3 0 0 0 223.5 309 z M 228 309 L 226 315 L 226 316 L 228 316 L 228 319 L 229 319 L 229 316 L 231 316 L 231 315 L 229 309 L 228 309 z M 262 309 L 260 315 L 260 316 L 262 316 L 262 319 L 263 319 L 263 316 L 265 316 L 265 315 L 263 309 L 262 309 z M 267.5 309 A 2.5 3 0 0 0 267 314.9375 L 267 319 L 268 319 L 268 314.93555 A 2.5 3 0 0 0 267.5 309 z M 396.5 309 L 398 314 L 395 314 L 396.5 309 z M 401.5 309 A 1.5 2 0 0 1 401.5 313 A 1.5 2 0 0 1 401.5 309 z M 223.5 310 A 1.5 2 0 0 1 223.5 314 A 1.5 2 0 0 1 223.5 310 z M 228.5 310 L 230 315 L 227 315 L 228.5 310 z M 262.5 310 L 264 315 L 261 315 L 262.5 310 z M 267.5 310 A 1.5 2 0 0 1 267.5 314 A 1.5 2 0 0 1 267.5 310 z M 490 310 L 488 316 L 488 317 L 490 317 L 490 320 L 491 320 L 491 317 L 493 317 L 493 316 L 491 310 L 490 310 z M 495.5 310 A 2.5 3 0 0 0 495 315.9375 L 495 320 L 496 320 L 496 315.93555 A 2.5 3 0 0 0 495.5 310 z M 490.5 311 L 492 316 L 489 316 L 490.5 311 z M 495.5 311 A 1.5 2 0 0 1 495.5 315 A 1.5 2 0 0 1 495.5 311 z M 49 313 L 47 319 L 47 320 L 49 320 L 49 323 L 50 323 L 50 320 L 52 320 L 52 319 L 50 313 L 49 313 z M 54.5 313 A 2.5 3 0 0 0 54 318.9375 L 54 323 L 55 323 L 55 318.93555 A 2.5 3 0 0 0 54.5 313 z M 111.5 313 A 2.5 3 0 0 0 111 318.9375 L 111 323 L 112 323 L 112 318.93555 A 2.5 3 0 0 0 111.5 313 z M 116 313 L 114 319 L 114 320 L 116 320 L 116 323 L 117 323 L 117 320 L 119 320 L 119 319 L 117 313 L 116 313 z M 49.5 314 L 51 319 L 48 319 L 49.5 314 z M 54.5 314 A 1.5 2 0 0 1 54.5 318 A 1.5 2 0 0 1 54.5 314 z M 111.5 314 A 1.5 2 0 0 1 111.5 318 A 1.5 2 0 0 1 111.5 314 z M 116.5 314 L 118 319 L 115 319 L 116.5 314 z M 460.5 315 A 2.5 3 0 0 0 460 320.9375 L 460 325 L 461 325 L 461 320.93555 A 2.5 3 0 0 0 460.5 315 z M 465 315 L 463 321 L 463 322 L 465 322 L 465 325 L 466 325 L 466 322 L 468 322 L 468 321 L 466 315 L 465 315 z M 201 316 L 199 322 L 199 323 L 201 323 L 201 326 L 202 326 L 202 323 L 204 323 L 204 322 L 202 316 L 201 316 z M 206.5 316 A 2.5 3 0 0 0 206 321.9375 L 206 326 L 207 326 L 207 321.93555 A 2.5 3 0 0 0 206.5 316 z M 369.5 316 A 2.5 3 0 0 0 369 321.9375 L 369 326 L 370 326 L 370 321.93555 A 2.5 3 0 0 0 369.5 316 z M 374 316 L 372 322 L 372 323 L 374 323 L 374 326 L 375 326 L 375 323 L 377 323 L 377 322 L 375 316 L 374 316 z M 460.5 316 A 1.5 2 0 0 1 460.5 320 A 1.5 2 0 0 1 460.5 316 z M 465.5 316 L 467 321 L 464 321 L 465.5 316 z M 16 317 L 14 323 L 14 324 L 16 324 L 16 327 L 17 327 L 17 324 L 19 324 L 19 323 L 17 317 L 16 317 z M 21.5 317 A 2.5 3 0 0 0 21 322.9375 L 21 327 L 22 327 L 22 322.93555 A 2.5 3 0 0 0 21.5 317 z M 201.5 317 L 203 322 L 200 322 L 201.5 317 z M 206.5 317 A 1.5 2 0 0 1 206.5 321 A 1.5 2 0 0 1 206.5 317 z M 369.5 317 A 1.5 2 0 0 1 369.5 321 A 1.5 2 0 0 1 369.5 317 z M 374.5 317 L 376 322 L 373 322 L 374.5 317 z M 16.5 318 L 18 323 L 15 323 L 16.5 318 z M 21.5 318 A 1.5 2 0 0 1 21.5 322 A 1.5 2 0 0 1 21.5 318 z M 79 331 L 77 337 L 77 338 L 79 338 L 79 341 L 80 341 L 80 338 L 82 338 L 82 337 L 80 331 L 79 331 z M 84.5 331 A 2.5 3 0 0 0 84 336.9375 L 84 341 L 85 341 L 85 336.93555 A 2.5 3 0 0 0 84.5 331 z M 79.5 332 L 81 337 L 78 337 L 79.5 332 z M 84.5 332 A 1.5 2 0 0 1 84.5 336 A 1.5 2 0 0 1 84.5 332 z M 178 334 L 176 340 L 176 341 L 178 341 L 178 344 L 179 344 L 179 341 L 181 341 L 181 340 L 179 334 L 178 334 z M 183.5 334 A 2.5 3 0 0 0 183 339.9375 L 183 344 L 184 344 L 184 339.93555 A 2.5 3 0 0 0 183.5 334 z M 310.5 334 A 2.5 3 0 0 0 310 339.9375 L 310 344 L 311 344 L 311 339.93555 A 2.5 3 0 0 0 310.5 334 z M 315 334 L 313 340 L 313 341 L 315 341 L 315 344 L 316 344 L 316 341 L 318 341 L 318 340 L 316 334 L 315 334 z M 178.5 335 L 180 340 L 177 340 L 178.5 335 z M 183.5 335 A 1.5 2 0 0 1 183.5 339 A 1.5 2 0 0 1 183.5 335 z M 280 335 L 278 341 L 278 342 L 280 342 L 280 345 L 281 345 L 281 342 L 283 342 L 283 341 L 281 335 L 280 335 z M 285.5 335 A 2.5 3 0 0 0 285 340.9375 L 285 345 L 286 345 L 286 340.93555 A 2.5 3 0 0 0 285.5 335 z M 310.5 335 A 1.5 2 0 0 1 310.5 339 A 1.5 2 0 0 1 310.5 335 z M 315.5 335 L 317 340 L 314 340 L 315.5 335 z M 435.5 335 A 2.5 3 0 0 0 435 340.9375 L 435 345 L 436 345 L 436 340.93555 A 2.5 3 0 0 0 435.5 335 z M 440 335 L 438 341 L 438 342 L 440 342 L 440 345 L 441 345 L 441 342 L 443 342 L 443 341 L 441 335 L 440 335 z M 129 336 L 127 342 L 127 343 L 129 343 L 129 346 L 130 346 L 130 343 L 132 343 L 132 342 L 130 336 L 129 336 z M 134.5 336 A 2.5 3 0 0 0 134 341.9375 L 134 346 L 135 346 L 135 341.93555 A 2.5 3 0 0 0 134.5 336 z M 237 336 L 235 342 L 235 343 L 237 343 L 237 346 L 238 346 L 238 343 L 240 343 L 240 342 L 238 336 L 237 336 z M 242.5 336 A 2.5 3 0 0 0 242 341.9375 L 242 346 L 243 346 L 243 341.93555 A 2.5 3 0 0 0 242.5 336 z M 280.5 336 L 282 341 L 279 341 L 280.5 336 z M 285.5 336 A 1.5 2 0 0 1 285.5 340 A 1.5 2 0 0 1 285.5 336 z M 435.5 336 A 1.5 2 0 0 1 435.5 340 A 1.5 2 0 0 1 435.5 336 z M 440.5 336 L 442 341 L 439 341 L 440.5 336 z M 129.5 337 L 131 342 L 128 342 L 129.5 337 z M 134.5 337 A 1.5 2 0 0 1 134.5 341 A 1.5 2 0 0 1 134.5 337 z M 237.5 337 L 239 342 L 236 342 L 237.5 337 z M 242.5 337 A 1.5 2 0 0 1 242.5 341 A 1.5 2 0 0 1 242.5 337 z M 340.5 337 A 2.5 3 0 0 0 340 342.9375 L 340 347 L 341 347 L 341 342.93555 A 2.5 3 0 0 0 340.5 337 z M 345 337 L 343 343 L 343 344 L 345 344 L 345 347 L 346 347 L 346 344 L 348 344 L 348 343 L 346 337 L 345 337 z M 499.5 337 A 2.5 3 0 0 0 499 342.9375 L 499 347 L 500 347 L 500 342.93555 A 2.5 3 0 0 0 499.5 337 z M 504 337 L 502 343 L 502 344 L 504 344 L 504 347 L 505 347 L 505 344 L 507 344 L 507 343 L 505 337 L 504 337 z M 44 338 L 42 344 L 42 345 L 44 345 L 44 348 L 45 348 L 45 345 L 47 345 L 47 344 L 45 338 L 44 338 z M 49.5 338 A 2.5 3 0 0 0 49 343.9375 L 49 348 L 50 348 L 50 343.93555 A 2.5 3 0 0 0 49.5 338 z M 340.5 338 A 1.5 2 0 0 1 340.5 342 A 1.5 2 0 0 1 340.5 338 z M 345.5 338 L 347 343 L 344 343 L 345.5 338 z M 404 338 L 402 344 L 402 345 L 404 345 L 404 348 L 405 348 L 405 345 L 407 345 L 407 344 L 405 338 L 404 338 z M 409.5 338 A 2.5 3 0 0 0 409 343.9375 L 409 348 L 410 348 L 410 343.93555 A 2.5 3 0 0 0 409.5 338 z M 499.5 338 A 1.5 2 0 0 1 499.5 342 A 1.5 2 0 0 1 499.5 338 z M 504.5 338 L 506 343 L 503 343 L 504.5 338 z M 44.5 339 L 46 344 L 43 344 L 44.5 339 z M 49.5 339 A 1.5 2 0 0 1 49.5 343 A 1.5 2 0 0 1 49.5 339 z M 404.5 339 L 406 344 L 403 344 L 404.5 339 z M 409.5 339 A 1.5 2 0 0 1 409.5 343 A 1.5 2 0 0 1 409.5 339 z M 105.5 344 A 2.5 3 0 0 0 105 349.9375 L 105 354 L 106 354 L 106 349.93555 A 2.5 3 0 0 0 105.5 344 z M 110 344 L 108 350 L 108 351 L 110 351 L 110 354 L 111 354 L 111 351 L 113 351 L 113 350 L 111 344 L 110 344 z M 468 344 L 466 350 L 466 351 L 468 351 L 468 354 L 469 354 L 469 351 L 471 351 L 471 350 L 469 344 L 468 344 z M 473.5 344 A 2.5 3 0 0 0 473 349.9375 L 473 354 L 474 354 L 474 349.93555 A 2.5 3 0 0 0 473.5 344 z M 105.5 345 A 1.5 2 0 0 1 105.5 349 A 1.5 2 0 0 1 105.5 345 z M 110.5 345 L 112 350 L 109 350 L 110.5 345 z M 373.5 345 A 2.5 3 0 0 0 373 350.9375 L 373 355 L 374 355 L 374 350.93555 A 2.5 3 0 0 0 373.5 345 z M 378 345 L 376 351 L 376 352 L 378 352 L 378 355 L 379 355 L 379 352 L 381 352 L 381 351 L 379 345 L 378 345 z M 468.5 345 L 470 350 L 467 350 L 468.5 345 z M 473.5 345 A 1.5 2 0 0 1 473.5 349 A 1.5 2 0 0 1 473.5 345 z M 210.5 346 A 2.5 3 0 0 0 210 351.9375 L 210 356 L 211 356 L 211 351.93555 A 2.5 3 0 0 0 210.5 346 z M 215 346 L 213 352 L 213 353 L 215 353 L 215 356 L 216 356 L 216 353 L 218 353 L 218 352 L 216 346 L 215 346 z M 373.5 346 A 1.5 2 0 0 1 373.5 350 A 1.5 2 0 0 1 373.5 346 z M 378.5 346 L 380 351 L 377 351 L 378.5 346 z M 151.5 347 A 2.5 3 0 0 0 151 352.9375 L 151 357 L 152 357 L 152 352.93555 A 2.5 3 0 0 0 151.5 347 z M 156 347 L 154 353 L 154 354 L 156 354 L 156 357 L 157 357 L 157 354 L 159 354 L 159 353 L 157 347 L 156 347 z M 210.5 347 A 1.5 2 0 0 1 210.5 351 A 1.5 2 0 0 1 210.5 347 z M 215.5 347 L 217 352 L 214 352 L 215.5 347 z M 151.5 348 A 1.5 2 0 0 1 151.5 352 A 1.5 2 0 0 1 151.5 348 z M 156.5 348 L 158 353 L 155 353 L 156.5 348 z M 256 348 L 254 354 L 254 355 L 256 355 L 256 358 L 257 358 L 257 355 L 259 355 L 259 354 L 257 348 L 256 348 z M 261.5 348 A 2.5 3 0 0 0 261 353.9375 L 261 358 L 262 358 L 262 353.93555 A 2.5 3 0 0 0 261.5 348 z M 256.5 349 L 258 354 L 255 354 L 256.5 349 z M 261.5 349 A 1.5 2 0 0 1 261.5 353 A 1.5 2 0 0 1 261.5 349 z M 18.5 350 A 2.5 3 0 0 0 18 355.9375 L 18 360 L 19 360 L 19 355.93555 A 2.5 3 0 0 0 18.5 350 z M 23 350 L 21 356 L 21 357 L 23 357 L 23 360 L 24 360 L 24 357 L 26 357 L 26 356 L 24 350 L 23 350 z M 18.5 351 A 1.5 2 0 0 1 18.5 355 A 1.5 2 0 0 1 18.5 351 z M 23.5 351 L 25 356 L 22 356 L 23.5 351 z M 66.5 359 A 2.5 3 0 0 0 66 364.9375 L 66 369 L 67 369 L 67 364.93555 A 2.5 3 0 0 0 66.5 359 z M 71 359 L 69 365 L 69 366 L 71 366 L 71 369 L 72 369 L 72 366 L 74 366 L 74 365 L 72 359 L 71 359 z M 66.5 360 A 1.5 2 0 0 1 66.5 364 A 1.5 2 0 0 1 66.5 360 z M 71.5 360 L 73 365 L 70 365 L 71.5 360 z M 178.5 362 A 2.5 3 0 0 0 178 367.9375 L 178 372 L 179 372 L 179 367.93555 A 2.5 3 0 0 0 178.5 362 z M 183 362 L 181 368 L 181 369 L 183 369 L 183 372 L 184 372 L 184 369 L 186 369 L 186 368 L 184 362 L 183 362 z M 281 362 L 279 368 L 279 369 L 281 369 L 281 372 L 282 372 L 282 369 L 284 369 L 284 368 L 282 362 L 281 362 z M 286.5 362 A 2.5 3 0 0 0 286 367.9375 L 286 372 L 287 372 L 287 367.93555 A 2.5 3 0 0 0 286.5 362 z M 440 362 L 438 368 L 438 369 L 440 369 L 440 372 L 441 372 L 441 369 L 443 369 L 443 368 L 441 362 L 440 362 z M 445.5 362 A 2.5 3 0 0 0 445 367.9375 L 445 372 L 446 372 L 446 367.93555 A 2.5 3 0 0 0 445.5 362 z M 178.5 363 A 1.5 2 0 0 1 178.5 367 A 1.5 2 0 0 1 178.5 363 z M 183.5 363 L 185 368 L 182 368 L 183.5 363 z M 281.5 363 L 283 368 L 280 368 L 281.5 363 z M 286.5 363 A 1.5 2 0 0 1 286.5 367 A 1.5 2 0 0 1 286.5 363 z M 440.5 363 L 442 368 L 439 368 L 440.5 363 z M 445.5 363 A 1.5 2 0 0 1 445.5 367 A 1.5 2 0 0 1 445.5 363 z M 318 364 L 316 370 L 316 371 L 318 371 L 318 374 L 319 374 L 319 371 L 321 371 L 321 370 L 319 364 L 318 364 z M 323.5 364 A 2.5 3 0 0 0 323 369.9375 L 323 374 L 324 374 L 324 369.93555 A 2.5 3 0 0 0 323.5 364 z M 318.5 365 L 320 370 L 317 370 L 318.5 365 z M 323.5 365 A 1.5 2 0 0 1 323.5 369 A 1.5 2 0 0 1 323.5 365 z M 347.5 368 A 2.5 3 0 0 0 347 373.9375 L 347 378 L 348 378 L 348 373.93555 A 2.5 3 0 0 0 347.5 368 z M 352 368 L 350 374 L 350 375 L 352 375 L 352 378 L 353 378 L 353 375 L 355 375 L 355 374 L 353 368 L 352 368 z M 411 368 L 409 374 L 409 375 L 411 375 L 411 378 L 412 378 L 412 375 L 414 375 L 414 374 L 412 368 L 411 368 z M 416.5 368 A 2.5 3 0 0 0 416 373.9375 L 416 378 L 417 378 L 417 373.93555 A 2.5 3 0 0 0 416.5 368 z M 347.5 369 A 1.5 2 0 0 1 347.5 373 A 1.5 2 0 0 1 347.5 369 z M 352.5 369 L 354 374 L 351 374 L 352.5 369 z M 411.5 369 L 413 374 L 410 374 L 411.5 369 z M 416.5 369 A 1.5 2 0 0 1 416.5 373 A 1.5 2 0 0 1 416.5 369 z M 491 369 L 489 375 L 489 376 L 491 376 L 491 379 L 492 379 L 492 376 L 494 376 L 494 375 L 492 369 L 491 369 z M 496.5 369 A 2.5 3 0 0 0 496 374.9375 L 496 379 L 497 379 L 497 374.93555 A 2.5 3 0 0 0 496.5 369 z M 491.5 370 L 493 375 L 490 375 L 491.5 370 z M 496.5 370 A 1.5 2 0 0 1 496.5 374 A 1.5 2 0 0 1 496.5 370 z M 382 371 L 380 377 L 380 378 L 382 378 L 382 381 L 383 381 L 383 378 L 385 378 L 385 377 L 383 371 L 382 371 z M 387.5 371 A 2.5 3 0 0 0 387 376.9375 L 387 381 L 388 381 L 388 376.93555 A 2.5 3 0 0 0 387.5 371 z M 382.5 372 L 384 377 L 381 377 L 382.5 372 z M 387.5 372 A 1.5 2 0 0 1 387.5 376 A 1.5 2 0 0 1 387.5 372 z M 128.5 373 A 2.5 3 0 0 0 128 378.9375 L 128 383 L 129 383 L 129 378.93555 A 2.5 3 0 0 0 128.5 373 z M 133 373 L 131 379 L 131 380 L 133 380 L 133 383 L 134 383 L 134 380 L 136 380 L 136 379 L 134 373 L 133 373 z M 228.5 373 A 2.5 3 0 0 0 228 378.9375 L 228 383 L 229 383 L 229 378.93555 A 2.5 3 0 0 0 228.5 373 z M 233 373 L 231 379 L 231 380 L 233 380 L 233 383 L 234 383 L 234 380 L 236 380 L 236 379 L 234 373 L 233 373 z M 4.5 374 A 2.5 3 0 0 0 4 379.9375 L 4 384 L 5 384 L 5 379.93555 A 2.5 3 0 0 0 4.5 374 z M 9 374 L 7 380 L 7 381 L 9 381 L 9 384 L 10 384 L 10 381 L 12 381 L 12 380 L 10 374 L 9 374 z M 93 374 L 91 380 L 91 381 L 93 381 L 93 384 L 94 384 L 94 381 L 96 381 L 96 380 L 94 374 L 93 374 z M 98.5 374 A 2.5 3 0 0 0 98 379.9375 L 98 384 L 99 384 L 99 379.93555 A 2.5 3 0 0 0 98.5 374 z M 128.5 374 A 1.5 2 0 0 1 128.5 378 A 1.5 2 0 0 1 128.5 374 z M 133.5 374 L 135 379 L 132 379 L 133.5 374 z M 228.5 374 A 1.5 2 0 0 1 228.5 378 A 1.5 2 0 0 1 228.5 374 z M 233.5 374 L 235 379 L 232 379 L 233.5 374 z M 4.5 375 A 1.5 2 0 0 1 4.5 379 A 1.5 2 0 0 1 4.5 375 z M 9.5 375 L 11 380 L 8 380 L 9.5 375 z M 93.5 375 L 95 380 L 92 380 L 93.5 375 z M 98.5 375 A 1.5 2 0 0 1 98.5 379 A 1.5 2 0 0 1 98.5 375 z M 38 376 L 36 382 L 36 383 L 38 383 L 38 386 L 39 386 L 39 383 L 41 383 L 41 382 L 39 376 L 38 376 z M 43.5 376 A 2.5 3 0 0 0 43 381.9375 L 43 386 L 44 386 L 44 381.93555 A 2.5 3 0 0 0 43.5 376 z M 38.5 377 L 40 382 L 37 382 L 38.5 377 z M 43.5 377 A 1.5 2 0 0 1 43.5 381 A 1.5 2 0 0 1 43.5 377 z M 292.5 379 A 2.5 3 0 0 0 292 384.9375 L 292 389 L 293 389 L 293 384.93555 A 2.5 3 0 0 0 292.5 379 z M 297 379 L 295 385 L 295 386 L 297 386 L 297 389 L 298 389 L 298 386 L 300 386 L 300 385 L 298 379 L 297 379 z M 461.5 379 A 2.5 3 0 0 0 461 384.9375 L 461 389 L 462 389 L 462 384.93555 A 2.5 3 0 0 0 461.5 379 z M 466 379 L 464 385 L 464 386 L 466 386 L 466 389 L 467 389 L 467 386 L 469 386 L 469 385 L 467 379 L 466 379 z M 292.5 380 A 1.5 2 0 0 1 292.5 384 A 1.5 2 0 0 1 292.5 380 z M 297.5 380 L 299 385 L 296 385 L 297.5 380 z M 461.5 380 A 1.5 2 0 0 1 461.5 384 A 1.5 2 0 0 1 461.5 380 z M 466.5 380 L 468 385 L 465 385 L 466.5 380 z M 156.5 382 A 2.5 3 0 0 0 156 387.9375 L 156 392 L 157 392 L 157 387.93555 A 2.5 3 0 0 0 156.5 382 z M 161 382 L 159 388 L 159 389 L 161 389 L 161 392 L 162 392 L 162 389 L 164 389 L 164 388 L 162 382 L 161 382 z M 156.5 383 A 1.5 2 0 0 1 156.5 387 A 1.5 2 0 0 1 156.5 383 z M 161.5 383 L 163 388 L 160 388 L 161.5 383 z M 204.5 384 A 2.5 3 0 0 0 204 389.9375 L 204 394 L 205 394 L 205 389.93555 A 2.5 3 0 0 0 204.5 384 z M 209 384 L 207 390 L 207 391 L 209 391 L 209 394 L 210 394 L 210 391 L 212 391 L 212 390 L 210 384 L 209 384 z M 204.5 385 A 1.5 2 0 0 1 204.5 389 A 1.5 2 0 0 1 204.5 385 z M 209.5 385 L 211 390 L 208 390 L 209.5 385 z M 64.5 394 A 2.5 3 0 0 0 64 399.9375 L 64 404 L 65 404 L 65 399.93555 A 2.5 3 0 0 0 64.5 394 z M 69 394 L 67 400 L 67 401 L 69 401 L 69 404 L 70 404 L 70 401 L 72 401 L 72 400 L 70 394 L 69 394 z M 64.5 395 A 1.5 2 0 0 1 64.5 399 A 1.5 2 0 0 1 64.5 395 z M 69.5 395 L 71 400 L 68 400 L 69.5 395 z M 369 395 L 367 401 L 367 402 L 369 402 L 369 405 L 370 405 L 370 402 L 372 402 L 372 401 L 370 395 L 369 395 z M 374.5 395 A 2.5 3 0 0 0 374 400.9375 L 374 405 L 375 405 L 375 400.93555 A 2.5 3 0 0 0 374.5 395 z M 369.5 396 L 371 401 L 368 401 L 369.5 396 z M 374.5 396 A 1.5 2 0 0 1 374.5 400 A 1.5 2 0 0 1 374.5 396 z M 248 397 L 246 403 L 246 404 L 248 404 L 248 407 L 249 407 L 249 404 L 251 404 L 251 403 L 249 397 L 248 397 z M 253.5 397 A 2.5 3 0 0 0 253 402.9375 L 253 407 L 254 407 L 254 402.93555 A 2.5 3 0 0 0 253.5 397 z M 433 397 L 431 403 L 431 404 L 433 404 L 433 407 L 434 407 L 434 404 L 436 404 L 436 403 L 434 397 L 433 397 z M 438.5 397 A 2.5 3 0 0 0 438 402.9375 L 438 407 L 439 407 L 439 402.93555 A 2.5 3 0 0 0 438.5 397 z M 116 398 L 114 404 L 114 405 L 116 405 L 116 408 L 117 408 L 117 405 L 119 405 L 119 404 L 117 398 L 116 398 z M 121.5 398 A 2.5 3 0 0 0 121 403.9375 L 121 408 L 122 408 L 122 403.93555 A 2.5 3 0 0 0 121.5 398 z M 248.5 398 L 250 403 L 247 403 L 248.5 398 z M 253.5 398 A 1.5 2 0 0 1 253.5 402 A 1.5 2 0 0 1 253.5 398 z M 309 398 L 307 404 L 307 405 L 309 405 L 309 408 L 310 408 L 310 405 L 312 405 L 312 404 L 310 398 L 309 398 z M 314.5 398 A 2.5 3 0 0 0 314 403.9375 L 314 408 L 315 408 L 315 403.93555 A 2.5 3 0 0 0 314.5 398 z M 338.5 398 A 2.5 3 0 0 0 338 403.9375 L 338 408 L 339 408 L 339 403.93555 A 2.5 3 0 0 0 338.5 398 z M 343 398 L 341 404 L 341 405 L 343 405 L 343 408 L 344 408 L 344 405 L 346 405 L 346 404 L 344 398 L 343 398 z M 433.5 398 L 435 403 L 432 403 L 433.5 398 z M 438.5 398 A 1.5 2 0 0 1 438.5 402 A 1.5 2 0 0 1 438.5 398 z M 116.5 399 L 118 404 L 115 404 L 116.5 399 z M 121.5 399 A 1.5 2 0 0 1 121.5 403 A 1.5 2 0 0 1 121.5 399 z M 309.5 399 L 311 404 L 308 404 L 309.5 399 z M 314.5 399 A 1.5 2 0 0 1 314.5 403 A 1.5 2 0 0 1 314.5 399 z M 338.5 399 A 1.5 2 0 0 1 338.5 403 A 1.5 2 0 0 1 338.5 399 z M 343.5 399 L 345 404 L 342 404 L 343.5 399 z M 180 400 L 178 406 L 178 407 L 180 407 L 180 410 L 181 410 L 181 407 L 183 407 L 183 406 L 181 400 L 180 400 z M 185.5 400 A 2.5 3 0 0 0 185 405.9375 L 185 410 L 186 410 L 186 405.93555 A 2.5 3 0 0 0 185.5 400 z M 180.5 401 L 182 406 L 179 406 L 180.5 401 z M 185.5 401 A 1.5 2 0 0 1 185.5 405 A 1.5 2 0 0 1 185.5 401 z M 491.5 401 A 2.5 3 0 0 0 491 406.9375 L 491 411 L 492 411 L 492 406.93555 A 2.5 3 0 0 0 491.5 401 z M 496 401 L 494 407 L 494 408 L 496 408 L 496 411 L 497 411 L 497 408 L 499 408 L 499 407 L 497 401 L 496 401 z M 34 402 L 32 408 L 32 409 L 34 409 L 34 412 L 35 412 L 35 409 L 37 409 L 37 408 L 35 402 L 34 402 z M 39.5 402 A 2.5 3 0 0 0 39 407.9375 L 39 412 L 40 412 L 40 407.93555 A 2.5 3 0 0 0 39.5 402 z M 402 402 L 400 408 L 400 409 L 402 409 L 402 412 L 403 412 L 403 409 L 405 409 L 405 408 L 403 402 L 402 402 z M 407.5 402 A 2.5 3 0 0 0 407 407.9375 L 407 412 L 408 412 L 408 407.93555 A 2.5 3 0 0 0 407.5 402 z M 491.5 402 A 1.5 2 0 0 1 491.5 406 A 1.5 2 0 0 1 491.5 402 z M 496.5 402 L 498 407 L 495 407 L 496.5 402 z M 34.5 403 L 36 408 L 33 408 L 34.5 403 z M 39.5 403 A 1.5 2 0 0 1 39.5 407 A 1.5 2 0 0 1 39.5 403 z M 402.5 403 L 404 408 L 401 408 L 402.5 403 z M 407.5 403 A 1.5 2 0 0 1 407.5 407 A 1.5 2 0 0 1 407.5 403 z M 274.5 404 A 2.5 3 0 0 0 274 409.9375 L 274 414 L 275 414 L 275 409.93555 A 2.5 3 0 0 0 274.5 404 z M 279 404 L 277 410 L 277 411 L 279 411 L 279 414 L 280 414 L 280 411 L 282 411 L 282 410 L 280 404 L 279 404 z M 274.5 405 A 1.5 2 0 0 1 274.5 409 A 1.5 2 0 0 1 274.5 405 z M 279.5 405 L 281 410 L 278 410 L 279.5 405 z M 87.5 406 A 2.5 3 0 0 0 87 411.9375 L 87 416 L 88 416 L 88 411.93555 A 2.5 3 0 0 0 87.5 406 z M 92 406 L 90 412 L 90 413 L 92 413 L 92 416 L 93 416 L 93 413 L 95 413 L 95 412 L 93 406 L 92 406 z M 87.5 407 A 1.5 2 0 0 1 87.5 411 A 1.5 2 0 0 1 87.5 407 z M 92.5 407 L 94 412 L 91 412 L 92.5 407 z M 222 407 L 220 413 L 220 414 L 222 414 L 222 417 L 223 417 L 223 414 L 225 414 L 225 413 L 223 407 L 222 407 z M 227.5 407 A 2.5 3 0 0 0 227 412.9375 L 227 417 L 228 417 L 228 412.93555 A 2.5 3 0 0 0 227.5 407 z M 222.5 408 L 224 413 L 221 413 L 222.5 408 z M 227.5 408 A 1.5 2 0 0 1 227.5 412 A 1.5 2 0 0 1 227.5 408 z M 462.5 408 A 2.5 3 0 0 0 462 413.9375 L 462 418 L 463 418 L 463 413.93555 A 2.5 3 0 0 0 462.5 408 z M 467 408 L 465 414 L 465 415 L 467 415 L 467 418 L 468 418 L 468 415 L 470 415 L 470 414 L 468 408 L 467 408 z M 462.5 409 A 1.5 2 0 0 1 462.5 413 A 1.5 2 0 0 1 462.5 409 z M 467.5 409 L 469 414 L 466 414 L 467.5 409 z M 5 410 L 3 416 L 3 417 L 5 417 L 5 420 L 6 420 L 6 417 L 8 417 L 8 416 L 6 410 L 5 410 z M 10.5 410 A 2.5 3 0 0 0 10 415.9375 L 10 420 L 11 420 L 11 415.93555 A 2.5 3 0 0 0 10.5 410 z M 146.5 410 A 2.5 3 0 0 0 146 415.9375 L 146 420 L 147 420 L 147 415.93555 A 2.5 3 0 0 0 146.5 410 z M 151 410 L 149 416 L 149 417 L 151 417 L 151 420 L 152 420 L 152 417 L 154 417 L 154 416 L 152 410 L 151 410 z M 5.5 411 L 7 416 L 4 416 L 5.5 411 z M 10.5 411 A 1.5 2 0 0 1 10.5 415 A 1.5 2 0 0 1 10.5 411 z M 146.5 411 A 1.5 2 0 0 1 146.5 415 A 1.5 2 0 0 1 146.5 411 z M 151.5 411 L 153 416 L 150 416 L 151.5 411 z M 190 424 L 188 430 L 188 431 L 190 431 L 190 434 L 191 434 L 191 431 L 193 431 L 193 430 L 191 424 L 190 424 z M 195.5 424 A 2.5 3 0 0 0 195 429.9375 L 195 434 L 196 434 L 196 429.93555 A 2.5 3 0 0 0 195.5 424 z M 342 424 L 340 430 L 340 431 L 342 431 L 342 434 L 343 434 L 343 431 L 345 431 L 345 430 L 343 424 L 342 424 z M 347.5 424 A 2.5 3 0 0 0 347 429.9375 L 347 434 L 348 434 L 348 429.93555 A 2.5 3 0 0 0 347.5 424 z M 190.5 425 L 192 430 L 189 430 L 190.5 425 z M 195.5 425 A 1.5 2 0 0 1 195.5 429 A 1.5 2 0 0 1 195.5 425 z M 342.5 425 L 344 430 L 341 430 L 342.5 425 z M 347.5 425 A 1.5 2 0 0 1 347.5 429 A 1.5 2 0 0 1 347.5 425 z M 375 425 L 373 431 L 373 432 L 375 432 L 375 435 L 376 435 L 376 432 L 378 432 L 378 431 L 376 425 L 375 425 z M 380.5 425 A 2.5 3 0 0 0 380 430.9375 L 380 435 L 381 435 L 381 430.93555 A 2.5 3 0 0 0 380.5 425 z M 41.5 426 A 2.5 3 0 0 0 41 431.9375 L 41 436 L 42 436 L 42 431.93555 A 2.5 3 0 0 0 41.5 426 z M 46 426 L 44 432 L 44 433 L 46 433 L 46 436 L 47 436 L 47 433 L 49 433 L 49 432 L 47 426 L 46 426 z M 375.5 426 L 377 431 L 374 431 L 375.5 426 z M 380.5 426 A 1.5 2 0 0 1 380.5 430 A 1.5 2 0 0 1 380.5 426 z M 41.5 427 A 1.5 2 0 0 1 41.5 431 A 1.5 2 0 0 1 41.5 427 z M 46.5 427 L 48 432 L 45 432 L 46.5 427 z M 433.5 428 A 2.5 3 0 0 0 433 433.9375 L 433 438 L 434 438 L 434 433.93555 A 2.5 3 0 0 0 433.5 428 z M 438 428 L 436 434 L 436 435 L 438 435 L 438 438 L 439 438 L 439 435 L 441 435 L 441 434 L 439 428 L 438 428 z M 251.5 429 A 2.5 3 0 0 0 251 434.9375 L 251 439 L 252 439 L 252 434.93555 A 2.5 3 0 0 0 251.5 429 z M 256 429 L 254 435 L 254 436 L 256 436 L 256 439 L 257 439 L 257 436 L 259 436 L 259 435 L 257 429 L 256 429 z M 282 429 L 280 435 L 280 436 L 282 436 L 282 439 L 283 439 L 283 436 L 285 436 L 285 435 L 283 429 L 282 429 z M 287.5 429 A 2.5 3 0 0 0 287 434.9375 L 287 439 L 288 439 L 288 434.93555 A 2.5 3 0 0 0 287.5 429 z M 433.5 429 A 1.5 2 0 0 1 433.5 433 A 1.5 2 0 0 1 433.5 429 z M 438.5 429 L 440 434 L 437 434 L 438.5 429 z M 100 430 L 98 436 L 98 437 L 100 437 L 100 440 L 101 440 L 101 437 L 103 437 L 103 436 L 101 430 L 100 430 z M 105.5 430 A 2.5 3 0 0 0 105 435.9375 L 105 440 L 106 440 L 106 435.93555 A 2.5 3 0 0 0 105.5 430 z M 251.5 430 A 1.5 2 0 0 1 251.5 434 A 1.5 2 0 0 1 251.5 430 z M 256.5 430 L 258 435 L 255 435 L 256.5 430 z M 282.5 430 L 284 435 L 281 435 L 282.5 430 z M 287.5 430 A 1.5 2 0 0 1 287.5 434 A 1.5 2 0 0 1 287.5 430 z M 315 430 L 313 436 L 313 437 L 315 437 L 315 440 L 316 440 L 316 437 L 318 437 L 318 436 L 316 430 L 315 430 z M 320.5 430 A 2.5 3 0 0 0 320 435.9375 L 320 440 L 321 440 L 321 435.93555 A 2.5 3 0 0 0 320.5 430 z M 405.5 430 A 2.5 3 0 0 0 405 435.9375 L 405 440 L 406 440 L 406 435.93555 A 2.5 3 0 0 0 405.5 430 z M 410 430 L 408 436 L 408 437 L 410 437 L 410 440 L 411 440 L 411 437 L 413 437 L 413 436 L 411 430 L 410 430 z M 100.5 431 L 102 436 L 99 436 L 100.5 431 z M 105.5 431 A 1.5 2 0 0 1 105.5 435 A 1.5 2 0 0 1 105.5 431 z M 315.5 431 L 317 436 L 314 436 L 315.5 431 z M 320.5 431 A 1.5 2 0 0 1 320.5 435 A 1.5 2 0 0 1 320.5 431 z M 405.5 431 A 1.5 2 0 0 1 405.5 435 A 1.5 2 0 0 1 405.5 431 z M 410.5 431 L 412 436 L 409 436 L 410.5 431 z M 490.5 433 A 2.5 3 0 0 0 490 438.9375 L 490 443 L 491 443 L 491 438.93555 A 2.5 3 0 0 0 490.5 433 z M 495 433 L 493 439 L 493 440 L 495 440 L 495 443 L 496 443 L 496 440 L 498 440 L 498 439 L 496 433 L 495 433 z M 71 434 L 69 440 L 69 441 L 71 441 L 71 444 L 72 444 L 72 441 L 74 441 L 74 440 L 72 434 L 71 434 z M 76.5 434 A 2.5 3 0 0 0 76 439.9375 L 76 444 L 77 444 L 77 439.93555 A 2.5 3 0 0 0 76.5 434 z M 164 434 L 162 440 L 162 441 L 164 441 L 164 444 L 165 444 L 165 441 L 167 441 L 167 440 L 165 434 L 164 434 z M 169.5 434 A 2.5 3 0 0 0 169 439.9375 L 169 444 L 170 444 L 170 439.93555 A 2.5 3 0 0 0 169.5 434 z M 490.5 434 A 1.5 2 0 0 1 490.5 438 A 1.5 2 0 0 1 490.5 434 z M 495.5 434 L 497 439 L 494 439 L 495.5 434 z M 71.5 435 L 73 440 L 70 440 L 71.5 435 z M 76.5 435 A 1.5 2 0 0 1 76.5 439 A 1.5 2 0 0 1 76.5 435 z M 164.5 435 L 166 440 L 163 440 L 164.5 435 z M 169.5 435 A 1.5 2 0 0 1 169.5 439 A 1.5 2 0 0 1 169.5 435 z M 218 436 L 216 442 L 216 443 L 218 443 L 218 446 L 219 446 L 219 443 L 221 443 L 221 442 L 219 436 L 218 436 z M 223.5 436 A 2.5 3 0 0 0 223 441.9375 L 223 446 L 224 446 L 224 441.93555 A 2.5 3 0 0 0 223.5 436 z M 127 437 L 125 443 L 125 444 L 127 444 L 127 447 L 128 447 L 128 444 L 130 444 L 130 443 L 128 437 L 127 437 z M 132.5 437 A 2.5 3 0 0 0 132 442.9375 L 132 447 L 133 447 L 133 442.93555 A 2.5 3 0 0 0 132.5 437 z M 218.5 437 L 220 442 L 217 442 L 218.5 437 z M 223.5 437 A 1.5 2 0 0 1 223.5 441 A 1.5 2 0 0 1 223.5 437 z M 8.5 438 A 2.5 3 0 0 0 8 443.9375 L 8 448 L 9 448 L 9 443.93555 A 2.5 3 0 0 0 8.5 438 z M 13 438 L 11 444 L 11 445 L 13 445 L 13 448 L 14 448 L 14 445 L 16 445 L 16 444 L 14 438 L 13 438 z M 127.5 438 L 129 443 L 126 443 L 127.5 438 z M 132.5 438 A 1.5 2 0 0 1 132.5 442 A 1.5 2 0 0 1 132.5 438 z M 8.5 439 A 1.5 2 0 0 1 8.5 443 A 1.5 2 0 0 1 8.5 439 z M 13.5 439 L 15 444 L 12 444 L 13.5 439 z M 463 443 L 461 449 L 461 450 L 463 450 L 463 453 L 464 453 L 464 450 L 466 450 L 466 449 L 464 443 L 463 443 z M 468.5 443 A 2.5 3 0 0 0 468 448.9375 L 468 453 L 469 453 L 469 448.93555 A 2.5 3 0 0 0 468.5 443 z M 463.5 444 L 465 449 L 462 449 L 463.5 444 z M 468.5 444 A 1.5 2 0 0 1 468.5 448 A 1.5 2 0 0 1 468.5 444 z M 399.5 452 A 2.5 3 0 0 0 399 457.9375 L 399 462 L 400 462 L 400 457.93555 A 2.5 3 0 0 0 399.5 452 z M 404 452 L 402 458 L 402 459 L 404 459 L 404 462 L 405 462 L 405 459 L 407 459 L 407 458 L 405 452 L 404 452 z M 341.5 453 A 2.5 3 0 0 0 341 458.9375 L 341 463 L 342 463 L 342 458.93555 A 2.5 3 0 0 0 341.5 453 z M 346 453 L 344 459 L 344 460 L 346 460 L 346 463 L 347 463 L 347 460 L 349 460 L 349 459 L 347 453 L 346 453 z M 399.5 453 A 1.5 2 0 0 1 399.5 457 A 1.5 2 0 0 1 399.5 453 z M 404.5 453 L 406 458 L 403 458 L 404.5 453 z M 41 454 L 39 460 L 39 461 L 41 461 L 41 464 L 42 464 L 42 461 L 44 461 L 44 460 L 42 454 L 41 454 z M 46.5 454 A 2.5 3 0 0 0 46 459.9375 L 46 464 L 47 464 L 47 459.93555 A 2.5 3 0 0 0 46.5 454 z M 278.5 454 A 2.5 3 0 0 0 278 459.9375 L 278 464 L 279 464 L 279 459.93555 A 2.5 3 0 0 0 278.5 454 z M 283 454 L 281 460 L 281 461 L 283 461 L 283 464 L 284 464 L 284 461 L 286 461 L 286 460 L 284 454 L 283 454 z M 341.5 454 A 1.5 2 0 0 1 341.5 458 A 1.5 2 0 0 1 341.5 454 z M 346.5 454 L 348 459 L 345 459 L 346.5 454 z M 41.5 455 L 43 460 L 40 460 L 41.5 455 z M 46.5 455 A 1.5 2 0 0 1 46.5 459 A 1.5 2 0 0 1 46.5 455 z M 278.5 455 A 1.5 2 0 0 1 278.5 459 A 1.5 2 0 0 1 278.5 455 z M 283.5 455 L 285 460 L 282 460 L 283.5 455 z M 370.5 458 A 2.5 3 0 0 0 370 463.9375 L 370 468 L 371 468 L 371 463.93555 A 2.5 3 0 0 0 370.5 458 z M 375 458 L 373 464 L 373 465 L 375 465 L 375 468 L 376 468 L 376 465 L 378 465 L 378 464 L 376 458 L 375 458 z M 370.5 459 A 1.5 2 0 0 1 370.5 463 A 1.5 2 0 0 1 370.5 459 z M 375.5 459 L 377 464 L 374 464 L 375.5 459 z M 68 460 L 66 466 L 66 467 L 68 467 L 68 470 L 69 470 L 69 467 L 71 467 L 71 466 L 69 460 L 68 460 z M 73.5 460 A 2.5 3 0 0 0 73 465.9375 L 73 470 L 74 470 L 74 465.93555 A 2.5 3 0 0 0 73.5 460 z M 156 460 L 154 466 L 154 467 L 156 467 L 156 470 L 157 470 L 157 467 L 159 467 L 159 466 L 157 460 L 156 460 z M 161.5 460 A 2.5 3 0 0 0 161 465.9375 L 161 470 L 162 470 L 162 465.93555 A 2.5 3 0 0 0 161.5 460 z M 186 460 L 184 466 L 184 467 L 186 467 L 186 470 L 187 470 L 187 467 L 189 467 L 189 466 L 187 460 L 186 460 z M 191.5 460 A 2.5 3 0 0 0 191 465.9375 L 191 470 L 192 470 L 192 465.93555 A 2.5 3 0 0 0 191.5 460 z M 243 460 L 241 466 L 241 467 L 243 467 L 243 470 L 244 470 L 244 467 L 246 467 L 246 466 L 244 460 L 243 460 z M 248.5 460 A 2.5 3 0 0 0 248 465.9375 L 248 470 L 249 470 L 249 465.93555 A 2.5 3 0 0 0 248.5 460 z M 68.5 461 L 70 466 L 67 466 L 68.5 461 z M 73.5 461 A 1.5 2 0 0 1 73.5 465 A 1.5 2 0 0 1 73.5 461 z M 156.5 461 L 158 466 L 155 466 L 156.5 461 z M 161.5 461 A 1.5 2 0 0 1 161.5 465 A 1.5 2 0 0 1 161.5 461 z M 186.5 461 L 188 466 L 185 466 L 186.5 461 z M 191.5 461 A 1.5 2 0 0 1 191.5 465 A 1.5 2 0 0 1 191.5 461 z M 243.5 461 L 245 466 L 242 466 L 243.5 461 z M 248.5 461 A 1.5 2 0 0 1 248.5 465 A 1.5 2 0 0 1 248.5 461 z M 117 462 L 115 468 L 115 469 L 117 469 L 117 472 L 118 472 L 118 469 L 120 469 L 120 468 L 118 462 L 117 462 z M 122.5 462 A 2.5 3 0 0 0 122 467.9375 L 122 472 L 123 472 L 123 467.93555 A 2.5 3 0 0 0 122.5 462 z M 117.5 463 L 119 468 L 116 468 L 117.5 463 z M 122.5 463 A 1.5 2 0 0 1 122.5 467 A 1.5 2 0 0 1 122.5 463 z M 439.5 464 A 2.5 3 0 0 0 439 469.9375 L 439 474 L 440 474 L 440 469.93555 A 2.5 3 0 0 0 439.5 464 z M 444 464 L 442 470 L 442 471 L 444 471 L 444 474 L 445 474 L 445 471 L 447 471 L 447 470 L 445 464 L 444 464 z M 502.5 464 A 2.5 3 0 0 0 502 469.9375 L 502 474 L 503 474 L 503 469.93555 A 2.5 3 0 0 0 502.5 464 z M 507 464 L 505 470 L 505 471 L 507 471 L 507 474 L 508 474 L 508 471 L 510 471 L 510 470 L 508 464 L 507 464 z M 439.5 465 A 1.5 2 0 0 1 439.5 469 A 1.5 2 0 0 1 439.5 465 z M 444.5 465 L 446 470 L 443 470 L 444.5 465 z M 502.5 465 A 1.5 2 0 0 1 502.5 469 A 1.5 2 0 0 1 502.5 465 z M 507.5 465 L 509 470 L 506 470 L 507.5 465 z M 307.5 466 A 2.5 3 0 0 0 307 471.9375 L 307 476 L 308 476 L 308 471.93555 A 2.5 3 0 0 0 307.5 466 z M 312 466 L 310 472 L 310 473 L 312 473 L 312 476 L 313 476 L 313 473 L 315 473 L 315 472 L 313 466 L 312 466 z M 307.5 467 A 1.5 2 0 0 1 307.5 471 A 1.5 2 0 0 1 307.5 467 z M 312.5 467 L 314 472 L 311 472 L 312.5 467 z M 216.5 471 A 2.5 3 0 0 0 216 476.9375 L 216 481 L 217 481 L 217 476.93555 A 2.5 3 0 0 0 216.5 471 z M 221 471 L 219 477 L 219 478 L 221 478 L 221 481 L 222 481 L 222 478 L 224 478 L 224 477 L 222 471 L 221 471 z M 20.5 472 A 2.5 3 0 0 0 20 477.9375 L 20 482 L 21 482 L 21 477.93555 A 2.5 3 0 0 0 20.5 472 z M 25 472 L 23 478 L 23 479 L 25 479 L 25 482 L 26 482 L 26 479 L 28 479 L 28 478 L 26 472 L 25 472 z M 216.5 472 A 1.5 2 0 0 1 216.5 476 A 1.5 2 0 0 1 216.5 472 z M 221.5 472 L 223 477 L 220 477 L 221.5 472 z M 470.5 472 A 2.5 3 0 0 0 470 477.9375 L 470 482 L 471 482 L 471 477.93555 A 2.5 3 0 0 0 470.5 472 z M 475 472 L 473 478 L 473 479 L 475 479 L 475 482 L 476 482 L 476 479 L 478 479 L 478 478 L 476 472 L 475 472 z M 20.5 473 A 1.5 2 0 0 1 20.5 477 A 1.5 2 0 0 1 20.5 473 z M 25.5 473 L 27 478 L 24 478 L 25.5 473 z M 406 473 L 404 479 L 404 480 L 406 480 L 406 483 L 407 483 L 407 480 L 409 480 L 409 479 L 407 473 L 406 473 z M 411.5 473 A 2.5 3 0 0 0 411 478.9375 L 411 483 L 412 483 L 412 478.93555 A 2.5 3 0 0 0 411.5 473 z M 470.5 473 A 1.5 2 0 0 1 470.5 477 A 1.5 2 0 0 1 470.5 473 z M 475.5 473 L 477 478 L 474 478 L 475.5 473 z M 406.5 474 L 408 479 L 405 479 L 406.5 474 z M 411.5 474 A 1.5 2 0 0 1 411.5 478 A 1.5 2 0 0 1 411.5 474 z M 94 475 L 92 481 L 92 482 L 94 482 L 94 485 L 95 485 L 95 482 L 97 482 L 97 481 L 95 475 L 94 475 z M 99.5 475 A 2.5 3 0 0 0 99 480.9375 L 99 485 L 100 485 L 100 480.93555 A 2.5 3 0 0 0 99.5 475 z M 94.5 476 L 96 481 L 93 481 L 94.5 476 z M 99.5 476 A 1.5 2 0 0 1 99.5 480 A 1.5 2 0 0 1 99.5 476 z M 349 483 L 347 489 L 347 490 L 349 490 L 349 493 L 350 493 L 350 490 L 352 490 L 352 489 L 350 483 L 349 483 z M 354.5 483 A 2.5 3 0 0 0 354 488.9375 L 354 493 L 355 493 L 355 488.93555 A 2.5 3 0 0 0 354.5 483 z M 349.5 484 L 351 489 L 348 489 L 349.5 484 z M 354.5 484 A 1.5 2 0 0 1 354.5 488 A 1.5 2 0 0 1 354.5 484 z M 285 485 L 283 491 L 283 492 L 285 492 L 285 495 L 286 495 L 286 492 L 288 492 L 288 491 L 286 485 L 285 485 z M 290.5 485 A 2.5 3 0 0 0 290 490.9375 L 290 495 L 291 495 L 291 490.93555 A 2.5 3 0 0 0 290.5 485 z M 285.5 486 L 287 491 L 284 491 L 285.5 486 z M 290.5 486 A 1.5 2 0 0 1 290.5 490 A 1.5 2 0 0 1 290.5 486 z M 127 487 L 125 493 L 125 494 L 127 494 L 127 497 L 128 497 L 128 494 L 130 494 L 130 493 L 128 487 L 127 487 z M 132.5 487 A 2.5 3 0 0 0 132 492.9375 L 132 497 L 133 497 L 133 492.93555 A 2.5 3 0 0 0 132.5 487 z M 127.5 488 L 129 493 L 126 493 L 127.5 488 z M 132.5 488 A 1.5 2 0 0 1 132.5 492 A 1.5 2 0 0 1 132.5 488 z M 186.5 488 A 2.5 3 0 0 0 186 493.9375 L 186 498 L 187 498 L 187 493.93555 A 2.5 3 0 0 0 186.5 488 z M 191 488 L 189 494 L 189 495 L 191 495 L 191 498 L 192 498 L 192 495 L 194 495 L 194 494 L 192 488 L 191 488 z M 256.5 488 A 2.5 3 0 0 0 256 493.9375 L 256 498 L 257 498 L 257 493.93555 A 2.5 3 0 0 0 256.5 488 z M 261 488 L 259 494 L 259 495 L 261 495 L 261 498 L 262 498 L 262 495 L 264 495 L 264 494 L 262 488 L 261 488 z M 186.5 489 A 1.5 2 0 0 1 186.5 493 A 1.5 2 0 0 1 186.5 489 z M 191.5 489 L 193 494 L 190 494 L 191.5 489 z M 256.5 489 A 1.5 2 0 0 1 256.5 493 A 1.5 2 0 0 1 256.5 489 z M 261.5 489 L 263 494 L 260 494 L 261.5 489 z M 48.5 490 A 2.5 3 0 0 0 48 495.9375 L 48 500 L 49 500 L 49 495.93555 A 2.5 3 0 0 0 48.5 490 z M 53 490 L 51 496 L 51 497 L 53 497 L 53 500 L 54 500 L 54 497 L 56 497 L 56 496 L 54 490 L 53 490 z M 48.5 491 A 1.5 2 0 0 1 48.5 495 A 1.5 2 0 0 1 48.5 491 z M 53.5 491 L 55 496 L 52 496 L 53.5 491 z M 382.5 491 A 2.5 3 0 0 0 382 496.9375 L 382 501 L 383 501 L 383 496.93555 A 2.5 3 0 0 0 382.5 491 z M 387 491 L 385 497 L 385 498 L 387 498 L 387 501 L 388 501 L 388 498 L 390 498 L 390 497 L 388 491 L 387 491 z M 156 492 L 154 498 L 154 499 L 156 499 L 156 502 L 157 502 L 157 499 L 159 499 L 159 498 L 157 492 L 156 492 z M 161.5 492 A 2.5 3 0 0 0 161 497.9375 L 161 502 L 162 502 L 162 497.93555 A 2.5 3 0 0 0 161.5 492 z M 382.5 492 A 1.5 2 0 0 1 382.5 496 A 1.5 2 0 0 1 382.5 492 z M 387.5 492 L 389 497 L 386 497 L 387.5 492 z M 156.5 493 L 158 498 L 155 498 L 156.5 493 z M 161.5 493 A 1.5 2 0 0 1 161.5 497 A 1.5 2 0 0 1 161.5 493 z M 320.5 493 A 2.5 3 0 0 0 320 498.9375 L 320 503 L 321 503 L 321 498.93555 A 2.5 3 0 0 0 320.5 493 z M 325 493 L 323 499 L 323 500 L 325 500 L 325 503 L 326 503 L 326 500 L 328 500 L 328 499 L 326 493 L 325 493 z M 320.5 494 A 1.5 2 0 0 1 320.5 498 A 1.5 2 0 0 1 320.5 494 z M 325.5 494 L 327 499 L 324 499 L 325.5 494 z M 230 495 L 228 501 L 228 502 L 230 502 L 230 505 L 231 505 L 231 502 L 233 502 L 233 501 L 231 495 L 230 495 z M 235.5 495 A 2.5 3 0 0 0 235 500.9375 L 235 505 L 236 505 L 236 500.93555 A 2.5 3 0 0 0 235.5 495 z M 446 495 L 444 501 L 444 502 L 446 502 L 446 505 L 447 505 L 447 502 L 449 502 L 449 501 L 447 495 L 446 495 z M 451.5 495 A 2.5 3 0 0 0 451 500.9375 L 451 505 L 452 505 L 452 500.93555 A 2.5 3 0 0 0 451.5 495 z M 230.5 496 L 232 501 L 229 501 L 230.5 496 z M 235.5 496 A 1.5 2 0 0 1 235.5 500 A 1.5 2 0 0 1 235.5 496 z M 418 496 L 416 502 L 416 503 L 418 503 L 418 506 L 419 506 L 419 503 L 421 503 L 421 502 L 419 496 L 418 496 z M 423.5 496 A 2.5 3 0 0 0 423 501.9375 L 423 506 L 424 506 L 424 501.93555 A 2.5 3 0 0 0 423.5 496 z M 446.5 496 L 448 501 L 445 501 L 446.5 496 z M 451.5 496 A 1.5 2 0 0 1 451.5 500 A 1.5 2 0 0 1 451.5 496 z M 418.5 497 L 420 502 L 417 502 L 418.5 497 z M 423.5 497 A 1.5 2 0 0 1 423.5 501 A 1.5 2 0 0 1 423.5 497 z M 496.5 497 A 2.5 3 0 0 0 496 502.9375 L 496 507 L 497 507 L 497 502.93555 A 2.5 3 0 0 0 496.5 497 z M 501 497 L 499 503 L 499 504 L 501 504 L 501 507 L 502 507 L 502 504 L 504 504 L 504 503 L 502 497 L 501 497 z M 79 498 L 77 504 L 77 505 L 79 505 L 79 508 L 80 508 L 80 505 L 82 505 L 82 504 L 80 498 L 79 498 z M 84.5 498 A 2.5 3 0 0 0 84 503.9375 L 84 508 L 85 508 L 85 503.93555 A 2.5 3 0 0 0 84.5 498 z M 496.5 498 A 1.5 2 0 0 1 496.5 502 A 1.5 2 0 0 1 496.5 498 z M 501.5 498 L 503 503 L 500 503 L 501.5 498 z M 79.5 499 L 81 504 L 78 504 L 79.5 499 z M 84.5 499 A 1.5 2 0 0 1 84.5 503 A 1.5 2 0 0 1 84.5 499 z M 15 501 L 13 507 L 13 508 L 15 508 L 15 511 L 16 511 L 16 508 L 18 508 L 18 507 L 16 501 L 15 501 z M 20.5 501 A 2.5 3 0 0 0 20 506.9375 L 20 511 L 21 511 L 21 506.93555 A 2.5 3 0 0 0 20.5 501 z M 15.5 502 L 17 507 L 14 507 L 15.5 502 z M 20.5 502 A 1.5 2 0 0 1 20.5 506 A 1.5 2 0 0 1 20.5 502 z M 109.5 507 A 2.5 3 0 0 0 107.64062 512 L 109.5 512 A 1.5 2 0 0 1 109.5 508 A 1.5 2 0 0 1 109.5 512 L 111.36328 512 A 2.5 3 0 0 0 109.5 507 z M 114 507 L 112.33398 512 L 113.30078 512 L 114.5 508 L 115.69922 512 L 116.66602 512 L 115 507 L 114 507 z M 201 508 L 199.66602 512 L 200.59961 512 L 201.5 509 L 202.40039 512 L 203.33398 512 L 202 508 L 201 508 z M 206.5 508 A 2.5 3 0 0 0 204.14648 512 L 205.20117 512 A 1.5 2 0 0 1 206.5 509 A 1.5 2 0 0 1 207.79688 512 L 208.85547 512 A 2.5 3 0 0 0 206.5 508 z "
     style="fill:#6b8d5e" />
  <desc
     id="desc939">Created with Snap</desc>
</svg>
