<?xml version="1.0" encoding="utf-8"?>
<!-- Generator: Adobe Illustrator 14.0.0, SVG Export Plug-In . SVG Version: 6.00 Build 43363)  -->
<!DOCTYPE svg PUBLIC "-//W3C//DTD SVG 1.1//EN" "http://www.w3.org/Graphics/SVG/1.1/DTD/svg11.dtd">
<svg version="1.1"
	 id="svg2" xmlns:rdf="http://www.w3.org/1999/02/22-rdf-syntax-ns#" sodipodi:docname="fuel_lpg.svg" inkscape:version="0.46" xmlns:svg="http://www.w3.org/2000/svg" xmlns:sodipodi="http://sodipodi.sourceforge.net/DTD/sodipodi-0.dtd" xmlns:inkscape="http://www.inkscape.org/namespaces/inkscape" xmlns:dc="http://purl.org/dc/elements/1.1/" sodipodi:version="0.32" xmlns:cc="http://creativecommons.org/ns#" inkscape:output_extension="org.inkscape.output.svg.inkscape"
	 xmlns="http://www.w3.org/2000/svg" xmlns:xlink="http://www.w3.org/1999/xlink" x="0px" y="0px" width="580px" height="580px"
	 viewBox="0 0 580 580" enable-background="new 0 0 580 580" xml:space="preserve">
<sodipodi:namedview  showgrid="false" inkscape:current-layer="svg2" inkscape:window-y="0" inkscape:window-x="0" inkscape:cy="447.56013" inkscape:cx="58.821176" inkscape:zoom="0.70710678" pagecolor="#ffffff" bordercolor="#666666" borderopacity="1.0" objecttolerance="10.0" gridtolerance="10.0" guidetolerance="10.0" inkscape:window-height="1005" inkscape:window-width="1280" inkscape:pageshadow="2" inkscape:pageopacity="0.0" id="base">
	</sodipodi:namedview>
<defs>
	
	
		<inkscape:perspective  inkscape:persp3d-origin="290 : 193.33333 : 1" inkscape:vp_z="580 : 290 : 1" inkscape:vp_y="0 : 1000 : 0" inkscape:vp_x="0 : 290 : 1" sodipodi:type="inkscape:persp3d" id="perspective12">
		</inkscape:perspective>
	
		<inkscape:perspective  inkscape:persp3d-origin="29.116032 : 19.410688 : 1" inkscape:vp_z="58.232063 : 29.116032 : 1" inkscape:vp_y="0 : 1000 : 0" inkscape:vp_x="0 : 29.116032 : 1" sodipodi:type="inkscape:persp3d" id="perspective6807">
		</inkscape:perspective>
	
		<inkscape:perspective  inkscape:persp3d-origin="290 : 193.33333 : 1" inkscape:vp_z="580 : 290 : 1" inkscape:vp_y="0 : 1000 : 0" inkscape:vp_x="0 : 290 : 1" sodipodi:type="inkscape:persp3d" id="perspective6954">
		</inkscape:perspective>
	
		<inkscape:perspective  inkscape:persp3d-origin="178.5405 : 158.483 : 1" inkscape:vp_z="357.08099 : 237.7245 : 1" inkscape:vp_y="0 : 1000 : 0" inkscape:vp_x="0 : 237.7245 : 1" sodipodi:type="inkscape:persp3d" id="perspective7597">
		</inkscape:perspective>
	
		<inkscape:perspective  inkscape:persp3d-origin="205.96652 : 131.6262 : 1" inkscape:vp_z="411.93304 : 197.4393 : 1" inkscape:vp_y="0 : 1000 : 0" inkscape:vp_x="0 : 197.4393 : 1" sodipodi:type="inkscape:persp3d" id="perspective8018">
		</inkscape:perspective>
	
		<inkscape:perspective  inkscape:persp3d-origin="99.087723 : 77.339676 : 1" inkscape:vp_z="198.17545 : 116.00951 : 1" inkscape:vp_y="0 : 1000 : 0" inkscape:vp_x="0 : 116.00951 : 1" sodipodi:type="inkscape:persp3d" id="perspective8269">
		</inkscape:perspective>
</defs>
<path id="path1897" fill="#0071BC" d="M275.208,276.082c-0.28,0-0.559,0.202-0.559,0.526l-0.006,10.403h0.576l0.005,0.823
	l5.283-0.003l0.004-0.82l0.495,0.004V276.5c0-0.224-0.13-0.418-0.374-0.418H275.208z M276.092,277.231h3.462
	c0.191,0,0.342,0.078,0.342,0.342v2.735c0,0.185-0.099,0.32-0.311,0.32l-3.484-0.009c-0.201,0-0.375-0.149-0.375-0.365l0.018-2.689
	C275.744,277.349,275.893,277.231,276.092,277.231z"/>
<path id="path1899" fill="#0071BC" d="M274.674,279.657l-0.529-0.003c-0.003,2.151,0.012,6.397,0.021,6.47
	c0.019,0.155,0.007,0.315-0.032,0.462c-0.829,2.088-3.511,1.129-3.13-0.903c0.836-2.015,2.009-3.379,2.593-5.756l0.052,1.767
	c-0.525,1.022-1.452,2.817-2.171,4.318c-0.061,1.386,1.588,1.842,2.104,0.355c0.23-2.603-0.009-5.44-0.013-8.161
	c0.335-0.997,0.706-1.092,1.081-1.045"/>
<path id="text3390" fill="#0071BC" d="M272.659,289.298h1.051v2.564h1.64v0.837h-2.691V289.298z M275.829,289.298h1.748
	c0.38,0,0.666,0.091,0.855,0.271c0.189,0.181,0.284,0.438,0.284,0.773c0,0.343-0.104,0.612-0.31,0.805s-0.521,0.29-0.945,0.29
	h-0.576v1.262h-1.056V289.298z M276.884,290.748h0.258c0.203,0,0.345-0.035,0.427-0.105s0.123-0.161,0.123-0.271
	c0-0.106-0.036-0.197-0.107-0.271c-0.071-0.075-0.205-0.112-0.401-0.112h-0.299V290.748z M280.978,291.468v-0.708h1.624v1.45
	c-0.311,0.212-0.586,0.356-0.825,0.433c-0.239,0.077-0.522,0.115-0.851,0.115c-0.403,0-0.732-0.069-0.987-0.207
	c-0.254-0.138-0.452-0.343-0.591-0.614c-0.14-0.272-0.21-0.585-0.21-0.938c0-0.371,0.076-0.694,0.229-0.969
	c0.153-0.275,0.377-0.483,0.673-0.625c0.23-0.11,0.541-0.165,0.931-0.165c0.376,0,0.657,0.034,0.843,0.102
	c0.187,0.068,0.341,0.173,0.464,0.316c0.123,0.143,0.216,0.325,0.277,0.544l-1.014,0.181c-0.042-0.128-0.113-0.227-0.212-0.294
	c-0.1-0.068-0.227-0.102-0.382-0.102c-0.23,0-0.414,0.08-0.551,0.24c-0.137,0.16-0.206,0.413-0.206,0.76
	c0,0.368,0.069,0.631,0.208,0.789c0.139,0.157,0.332,0.236,0.579,0.236c0.118,0,0.229-0.017,0.336-0.051s0.229-0.092,0.367-0.174
	v-0.32H280.978z"/>
</svg>
