<?xml version="1.0" encoding="utf-8"?>
<!-- Generator: Adobe Illustrator 14.0.0, SVG Export Plug-In . SVG Version: 6.00 Build 43363)  -->
<!DOCTYPE svg PUBLIC "-//W3C//DTD SVG 1.1//EN" "http://www.w3.org/Graphics/SVG/1.1/DTD/svg11.dtd">
<svg version="1.1"
	 id="svg2" xmlns:rdf="http://www.w3.org/1999/02/22-rdf-syntax-ns#" sodipodi:docname="fuel.svg" inkscape:version="0.46" xmlns:svg="http://www.w3.org/2000/svg" xmlns:sodipodi="http://sodipodi.sourceforge.net/DTD/sodipodi-0.dtd" xmlns:inkscape="http://www.inkscape.org/namespaces/inkscape" xmlns:dc="http://purl.org/dc/elements/1.1/" sodipodi:version="0.32" xmlns:cc="http://creativecommons.org/ns#" inkscape:output_extension="org.inkscape.output.svg.inkscape"
	 xmlns="http://www.w3.org/2000/svg" xmlns:xlink="http://www.w3.org/1999/xlink" x="0px" y="0px" width="580px" height="580px"
	 viewBox="0 0 580 580" enable-background="new 0 0 580 580" xml:space="preserve">
<sodipodi:namedview  showgrid="false" inkscape:current-layer="svg2" inkscape:window-y="0" inkscape:window-x="0" inkscape:cy="447.56013" inkscape:cx="58.821176" inkscape:zoom="0.70710678" pagecolor="#ffffff" bordercolor="#666666" borderopacity="1.0" objecttolerance="10.0" gridtolerance="10.0" guidetolerance="10.0" inkscape:window-height="1005" inkscape:window-width="1280" inkscape:pageshadow="2" inkscape:pageopacity="0.0" id="base">
	</sodipodi:namedview>
<defs>
	
	
		<inkscape:perspective  inkscape:persp3d-origin="290 : 193.33333 : 1" inkscape:vp_z="580 : 290 : 1" inkscape:vp_y="0 : 1000 : 0" inkscape:vp_x="0 : 290 : 1" sodipodi:type="inkscape:persp3d" id="perspective12">
		</inkscape:perspective>
	
		<inkscape:perspective  inkscape:persp3d-origin="29.116032 : 19.410688 : 1" inkscape:vp_z="58.232063 : 29.116032 : 1" inkscape:vp_y="0 : 1000 : 0" inkscape:vp_x="0 : 29.116032 : 1" sodipodi:type="inkscape:persp3d" id="perspective6807">
		</inkscape:perspective>
	
		<inkscape:perspective  inkscape:persp3d-origin="290 : 193.33333 : 1" inkscape:vp_z="580 : 290 : 1" inkscape:vp_y="0 : 1000 : 0" inkscape:vp_x="0 : 290 : 1" sodipodi:type="inkscape:persp3d" id="perspective6954">
		</inkscape:perspective>
	
		<inkscape:perspective  inkscape:persp3d-origin="178.5405 : 158.483 : 1" inkscape:vp_z="357.08099 : 237.7245 : 1" inkscape:vp_y="0 : 1000 : 0" inkscape:vp_x="0 : 237.7245 : 1" sodipodi:type="inkscape:persp3d" id="perspective7597">
		</inkscape:perspective>
	
		<inkscape:perspective  inkscape:persp3d-origin="205.96652 : 131.6262 : 1" inkscape:vp_z="411.93304 : 197.4393 : 1" inkscape:vp_y="0 : 1000 : 0" inkscape:vp_x="0 : 197.4393 : 1" sodipodi:type="inkscape:persp3d" id="perspective8018">
		</inkscape:perspective>
	
		<inkscape:perspective  inkscape:persp3d-origin="99.087723 : 77.339676 : 1" inkscape:vp_z="198.17545 : 116.00951 : 1" inkscape:vp_y="0 : 1000 : 0" inkscape:vp_x="0 : 116.00951 : 1" sodipodi:type="inkscape:persp3d" id="perspective8269">
		</inkscape:perspective>
</defs>
<path id="path1897" fill="#0071BC" d="M271.892,284.471c-0.254,0-0.508,0.184-0.508,0.478l-0.005,9.458h0.523l0.005,0.748
	l4.803-0.003l0.003-0.745l0.45,0.004v-9.559c0-0.204-0.118-0.381-0.34-0.381H271.892z M272.695,285.516h3.147
	c0.174,0,0.311,0.071,0.311,0.311v2.486c0,0.168-0.09,0.291-0.282,0.291l-3.168-0.008c-0.183,0-0.34-0.135-0.34-0.332l0.016-2.445
	C272.379,285.623,272.515,285.516,272.695,285.516z"/>
<path id="path1899" fill="#0071BC" d="M271.407,287.722l-0.48-0.003c-0.003,1.956,0.011,5.815,0.019,5.882
	c0.018,0.141,0.007,0.287-0.029,0.42c-0.753,1.898-3.191,1.026-2.845-0.821c0.76-1.832,1.827-3.071,2.357-5.232l0.047,1.606
	c-0.478,0.93-1.32,2.562-1.973,3.926c-0.055,1.259,1.443,1.674,1.912,0.322c0.209-2.366-0.008-4.946-0.012-7.419
	c0.305-0.906,0.642-0.993,0.983-0.95"/>
</svg>
