<?xml version="1.0" encoding="UTF-8" standalone="no"?>
<!-- Created with Inkscape (http://www.inkscape.org/) -->

<svg
   xmlns="http://www.w3.org/2000/svg"
   version="1.1"
   width="100%"
   height="100%"
   viewBox="0 0 16 16">
  <path
     d="m 11.78125,1 -0.625,0.71875 1.1875,1.09375 c 0.03621,0.036212 0.0856,0.084693 0.125,0.125 l -0.25,0.28125 C 11.818532,3.6189681 12.105689,4.1369332 12.25,4.28125 L 13,5.03125 13,11 c 0,1 -0.392136,1 -0.5,1 C 12.392136,12 12,12 12,11 L 12,7 C 12,5.7190916 11,5 10,5 L 10,3 C 10,2.4486964 9.5752733,2 9,2 L 3,2 C 2.400757,2 2,2.4247267 2,3 l 0,12 8,0 0,-9 c 0,0 1,0 1,1 l 0,4 c 0,2 1.239698,2 1.5,2 0.275652,0 1.5,0 1.5,-2 L 14,4 C 14,3 13.713983,2.7907839 13.375,2.46875 L 11.78125,1 z M 3,4 9,4 9,7 3,7 3,4 z" />
</svg>
