<?xml version="1.0" encoding="utf-8"?>
<!-- Generator: Adobe Illustrator 14.0.0, SVG Export Plug-In . SVG Version: 6.00 Build 43363)  -->
<!DOCTYPE svg PUBLIC "-//W3C//DTD SVG 1.1//EN" "http://www.w3.org/Graphics/SVG/1.1/DTD/svg11.dtd">
<svg version="1.1" id="Calque_1" xmlns="http://www.w3.org/2000/svg" xmlns:xlink="http://www.w3.org/1999/xlink" x="0px" y="0px"
	 width="400px" height="400px" viewBox="0 0 400 400" enable-background="new 0 0 400 400" xml:space="preserve">
<path fill="#93278F" stroke="#93278F" stroke-width="0.035" stroke-linecap="round" stroke-linejoin="round" d="M205.974,194.623
	c0,0-0.362,3.737-0.388,4.526s-0.065,3.312-0.078,3.828c-0.013,0.518,0.311,4.694,0.389,4.915c0.077,0.219-0.221,0.103-0.221,0.103
	s-0.298,0-0.298-0.077s-0.374-2.237-0.4-2.443c-0.026-0.207-0.155-1.992-0.155-1.992s-0.479,0.22-0.943,0.388
	c-0.467,0.169-1.255,0.388-1.255,0.388l-0.117,5.277l-0.232,0.063h-0.31l-0.272-5.288c0,0-0.167,0.051-0.349,0.038
	c-0.182-0.014-0.182-0.014-0.182-0.014s0.194,1.733,0.22,1.876c0.026,0.143,0.182,1.151,0.182,1.151l-0.194,0.103l-0.284-0.025
	c0,0-0.298-1.177-0.336-1.475c-0.039-0.297-0.181-1.72-0.181-1.72l-3.467-0.337l-0.297,4.851l-0.246,0.077l-0.311-0.025v-5.199
	c0,0-0.129-0.116-0.142-0.246c-0.013-0.129-0.091-0.556,0.064-0.802c0.155-0.245,0.22-0.284,0.388-0.362
	c0.168-0.076,1.953-0.387,2.34-0.452c0.388-0.065,1.345-0.143,1.345-0.143s0.078-2.134,0.116-3.246
	c0.039-1.112,0.143-3.181,0.246-3.479s0.091-0.414,0.22-0.492s0.245-0.116,0.582-0.09c0.336,0.026,3.893,0.143,4.178,0.207
	C205.87,194.571,205.974,194.623,205.974,194.623z"/>
</svg>
