<?xml version="1.0" encoding="utf-8"?>
<!-- Generator: Adobe Illustrator 14.0.0, SVG Export Plug-In . SVG Version: 6.00 Build 43363)  -->
<!DOCTYPE svg PUBLIC "-//W3C//DTD SVG 1.1//EN" "http://www.w3.org/Graphics/SVG/1.1/DTD/svg11.dtd">
<svg version="1.1"
	 id="svg2" xmlns:rdf="http://www.w3.org/1999/02/22-rdf-syntax-ns#" sodipodi:docname="shopping_gift.svg" inkscape:version="0.47 r22583" xmlns:svg="http://www.w3.org/2000/svg" xmlns:sodipodi="http://sodipodi.sourceforge.net/DTD/sodipodi-0.dtd" xmlns:inkscape="http://www.inkscape.org/namespaces/inkscape" xmlns:dc="http://purl.org/dc/elements/1.1/" sodipodi:version="0.32" xmlns:cc="http://creativecommons.org/ns#" inkscape:output_extension="org.inkscape.output.svg.inkscape"
	 xmlns="http://www.w3.org/2000/svg" xmlns:xlink="http://www.w3.org/1999/xlink" x="0px" y="0px" width="580px" height="580px"
	 viewBox="0 0 580 580" enable-background="new 0 0 580 580" xml:space="preserve">
<sodipodi:namedview  showgrid="false" inkscape:current-layer="svg2" inkscape:window-y="-4" inkscape:window-x="-4" inkscape:cy="407.56604" inkscape:cx="184.46062" inkscape:zoom="0.92167712" pagecolor="#ffffff" bordercolor="#666666" borderopacity="1.0" objecttolerance="10.0" gridtolerance="10.0" guidetolerance="10.0" inkscape:window-height="1005" inkscape:window-width="1280" inkscape:pageshadow="2" inkscape:pageopacity="0.0" inkscape:window-maximized="1" id="base" inkscape:guide-bbox="true" showguides="true">
	</sodipodi:namedview>
<defs>
	
	
		<inkscape:perspective  inkscape:persp3d-origin="290 : 193.33333 : 1" inkscape:vp_z="580 : 290 : 1" inkscape:vp_y="6.1230318e-14 : 1000 : 0" inkscape:vp_x="0 : 290 : 1" sodipodi:type="inkscape:persp3d" id="perspective2441">
		</inkscape:perspective>
	
		<inkscape:perspective  inkscape:persp3d-origin="30 : 20 : 1" inkscape:vp_z="60 : 30 : 1" inkscape:vp_y="0 : 1000 : 0" inkscape:vp_x="0 : 30 : 1" sodipodi:type="inkscape:persp3d" id="perspective3452">
		</inkscape:perspective>
	
		<inkscape:perspective  inkscape:persp3d-origin="372.04724 : 350.78739 : 1" inkscape:vp_z="744.09448 : 526.18109 : 1" inkscape:vp_y="0 : 1000 : 0" inkscape:vp_x="0 : 526.18109 : 1" sodipodi:type="inkscape:persp3d" id="perspective4471">
		</inkscape:perspective>
	
		<inkscape:perspective  inkscape:persp3d-origin="6 : 4 : 1" inkscape:vp_z="12 : 6 : 1" inkscape:vp_y="0 : 1000 : 0" inkscape:vp_x="0 : 6 : 1" sodipodi:type="inkscape:persp3d" id="perspective4668">
		</inkscape:perspective>
	
		<inkscape:perspective  inkscape:persp3d-origin="0.5 : 0.33333333 : 1" inkscape:vp_z="1 : 0.5 : 1" inkscape:vp_y="0 : 1000 : 0" inkscape:vp_x="0 : 0.5 : 1" sodipodi:type="inkscape:persp3d" id="perspective3826">
		</inkscape:perspective>
	
		<inkscape:perspective  inkscape:persp3d-origin="0.5 : 0.33333333 : 1" inkscape:vp_z="1 : 0.5 : 1" inkscape:vp_y="0 : 1000 : 0" inkscape:vp_x="0 : 0.5 : 1" sodipodi:type="inkscape:persp3d" id="perspective3855">
		</inkscape:perspective>
	
		<inkscape:perspective  inkscape:persp3d-origin="0.5 : 0.33333333 : 1" inkscape:vp_z="1 : 0.5 : 1" inkscape:vp_y="0 : 1000 : 0" inkscape:vp_x="0 : 0.5 : 1" sodipodi:type="inkscape:persp3d" id="perspective3909">
		</inkscape:perspective>
	
		<inkscape:perspective  inkscape:persp3d-origin="0.5 : 0.33333333 : 1" inkscape:vp_z="1 : 0.5 : 1" inkscape:vp_y="0 : 1000 : 0" inkscape:vp_x="0 : 0.5 : 1" sodipodi:type="inkscape:persp3d" id="perspective3950">
		</inkscape:perspective>
	
		<inkscape:perspective  inkscape:persp3d-origin="0.5 : 0.33333333 : 1" inkscape:vp_z="1 : 0.5 : 1" inkscape:vp_y="0 : 1000 : 0" inkscape:vp_x="0 : 0.5 : 1" sodipodi:type="inkscape:persp3d" id="perspective3972">
		</inkscape:perspective>
	
		<inkscape:perspective  inkscape:persp3d-origin="0.5 : 0.33333333 : 1" inkscape:vp_z="1 : 0.5 : 1" inkscape:vp_y="0 : 1000 : 0" inkscape:vp_x="0 : 0.5 : 1" sodipodi:type="inkscape:persp3d" id="perspective3994">
		</inkscape:perspective>
	
		<inkscape:perspective  inkscape:persp3d-origin="0.5 : 0.33333333 : 1" inkscape:vp_z="1 : 0.5 : 1" inkscape:vp_y="0 : 1000 : 0" inkscape:vp_x="0 : 0.5 : 1" sodipodi:type="inkscape:persp3d" id="perspective4016">
		</inkscape:perspective>
	
		<inkscape:perspective  inkscape:persp3d-origin="0.5 : 0.33333333 : 1" inkscape:vp_z="1 : 0.5 : 1" inkscape:vp_y="0 : 1000 : 0" inkscape:vp_x="0 : 0.5 : 1" sodipodi:type="inkscape:persp3d" id="perspective4837">
		</inkscape:perspective>
	
		<inkscape:perspective  inkscape:persp3d-origin="0.5 : 0.33333333 : 1" inkscape:vp_z="1 : 0.5 : 1" inkscape:vp_y="0 : 1000 : 0" inkscape:vp_x="0 : 0.5 : 1" sodipodi:type="inkscape:persp3d" id="perspective4971">
		</inkscape:perspective>
</defs>
<g id="layer3" transform="matrix(48.14969,0,0,48.14969,-536.27327,-33.306752)" inkscape:label="Layout" display="none">
	<rect id="rect4134" x="1" y="1" display="inline" fill="none" stroke="#757575" stroke-width="0.1" width="10" height="10"/>
	<rect id="rect4136" x="2" y="2" display="inline" fill="none" stroke="#757575" stroke-width="0.1" width="8" height="8"/>
</g>
<g id="g3338" transform="matrix(1.3973279,-0.2437849,0.2437849,1.3973279,-185.07402,-56.183307)">
</g>
<g id="g16695" transform="matrix(1.304394,0,0,1.304394,-86.584517,-49.272085)">
	<path id="path16658" sodipodi:nodetypes="cscssscccccccccccccccccc" fill="#93278F" d="M292.68,262.72
		c-0.001,0.002-0.003,0.004-0.004,0.007c-0.034,0.043-0.07,0.083-0.109,0.121c-0.039,0.044-0.081,0.085-0.125,0.121
		c-0.044,0.037-0.091,0.07-0.139,0.1c-0.048,0.029-0.098,0.055-0.15,0.078c-0.029,0.013-0.059,0.022-0.089,0.032v2.155h4.374v-2.223
		c0-0.216-0.174-0.391-0.392-0.391H292.68z M296.437,265.333v1.238V265.333z M296.437,266.571h-4.374v2.518h3.982
		c0.217,0,0.392-0.174,0.392-0.391V266.571z M292.063,266.571v-1.238V266.571z"/>
	<path id="path16654" sodipodi:nodetypes="cccccsssscccccccccccccc" fill="#93278F" d="M286.835,262.72
		c-0.217,0-0.391,0.174-0.391,0.391v2.223h4.535v-2.192c-0.049-0.02-0.097-0.043-0.144-0.068c-0.05-0.027-0.098-0.056-0.144-0.089
		c-0.046-0.033-0.091-0.069-0.133-0.107c-0.042-0.038-0.081-0.078-0.118-0.121c-0.01-0.012-0.017-0.025-0.027-0.037H286.835z
		 M290.979,265.333v1.238V265.333z M290.979,266.571h-4.535v2.127c0,0.217,0.174,0.391,0.391,0.391h4.144V266.571z M286.444,266.571
		v-1.238V266.571z"/>
	
		<path id="path16082" sodipodi:type="arc" sodipodi:ry="28.209444" sodipodi:rx="28.209444" sodipodi:cy="152.51842" sodipodi:cx="265.81976" fill="#93278F" d="
		M292.387,261.716c0,0.464-0.377,0.841-0.841,0.841c-0.465,0-0.842-0.377-0.842-0.841c0-0.465,0.377-0.842,0.842-0.842
		C292.011,260.873,292.387,261.251,292.387,261.716z"/>
	<g id="g16617" transform="matrix(0.84551507,0,0,0.84551507,96.720584,80.35071)">
		<path id="path16086" sodipodi:nodetypes="cccccc" fill="#93278F" d="M236.274,211.818c-1.03-0.009-3.491,0.925-4.354,1.887
			c0.212,0.113,0.556,0.18,1.125,0.136c1.124-0.727,2.73-1.341,3.732-1.214c0.239-0.294,0.015-0.608-0.132-0.715
			C236.577,211.85,236.447,211.819,236.274,211.818z"/>
		<path id="path16105" sodipodi:nodetypes="csscc" fill="#93278F" d="M231.993,215.035c-0.087,0.061,3.963-0.095,5.072-1.365
			c0.746-0.857-0.642-2.102-0.218-1.662c1.151,1.194-4.089,2.282-4.904,1.793C232.204,214.212,232.191,214.624,231.993,215.035z"/>
	</g>
	<g id="g16621" transform="matrix(-0.84551507,0,0,0.84551507,486.43471,79.098119)">
		<path id="path16623" sodipodi:nodetypes="cccccc" fill="#93278F" d="M236.273,213.255c-1.029-0.009-3.491,0.925-4.353,1.887
			c0.212,0.113,0.556,0.18,1.125,0.136c1.124-0.727,2.73-1.342,3.733-1.214c0.239-0.293,0.014-0.607-0.132-0.715
			C236.576,213.286,236.447,213.256,236.273,213.255z"/>
		<path id="path16625" sodipodi:nodetypes="csscc" fill="#93278F" d="M231.992,216.472c-0.087,0.062,3.963-0.094,5.071-1.365
			c0.747-0.856-0.641-2.101-0.217-1.661c1.151,1.194-4.089,2.282-4.904,1.793C232.204,215.649,232.19,216.061,231.992,216.472z"/>
	</g>
</g>
</svg>
