<?xml version="1.0" encoding="UTF-8" standalone="no"?>
<svg
   xmlns:dc="http://purl.org/dc/elements/1.1/"
   xmlns:cc="http://creativecommons.org/ns#"
   xmlns:rdf="http://www.w3.org/1999/02/22-rdf-syntax-ns#"
   xmlns:svg="http://www.w3.org/2000/svg"
   xmlns="http://www.w3.org/2000/svg"
   version="1.1"
   width="32"
   height="32"
   viewBox="0 0 32 32"
   id="svg4">
  <metadata
     id="metadata10">
    <rdf:RDF>
      <cc:Work
         rdf:about="">
        <dc:format>image/svg+xml</dc:format>
        <dc:type
           rdf:resource="http://purl.org/dc/dcmitype/StillImage" />
        <dc:title></dc:title>
      </cc:Work>
    </rdf:RDF>
  </metadata>
  <defs
     id="defs8" />
  <rect
     width="32"
     height="32"
     x="0"
     y="0"
     id="canvas"
     style="visibility:hidden;fill:none;stroke:none" />
  <path
     style="fill:#88b78e;fill-opacity:1;stroke-width:0.63707328"
     id="jewish"
     d="M 9.4999993,5 7.9995769,7.4999999 H 5 L 6.5004222,10 5,12.5 H 7.9995769 L 9.4999993,15 11.000422,12.5 h 2.999577 L 12.499576,10 14,7.4999999 h -2.999578 z m 0,1.2512207 0.7495777,1.2487792 H 8.750422 Z M 6.1262682,8.1249999 H 7.6254221 L 6.8758452,9.373779 Z m 2.2499991,0 H 10.623731 L 11.748732,10 10.623731,11.875 H 8.3762673 L 7.2512681,10 Z m 2.9983097,0 H 12.87373 L 12.124154,9.373779 Z M 6.8758452,10.626221 7.6254221,11.875 H 6.1262682 Z m 5.2483088,0 L 12.87373,11.875 H 11.374577 Z M 8.750422,12.5 h 1.499155 l -0.7495777,1.248779 z" />
</svg>
