<?xml version="1.0" encoding="UTF-8" standalone="no"?>
<svg
   xmlns:dc="http://purl.org/dc/elements/1.1/"
   xmlns:cc="http://creativecommons.org/ns#"
   xmlns:rdf="http://www.w3.org/1999/02/22-rdf-syntax-ns#"
   xmlns:svg="http://www.w3.org/2000/svg"
   xmlns="http://www.w3.org/2000/svg"
   id="svg4"
   viewBox="0 0 32 32"
   height="32"
   width="32"
   version="1.1">
  <metadata
     id="metadata10">
    <rdf:RDF>
      <cc:Work
         rdf:about="">
        <dc:format>image/svg+xml</dc:format>
        <dc:type
           rdf:resource="http://purl.org/dc/dcmitype/StillImage" />
        <dc:title></dc:title>
      </cc:Work>
    </rdf:RDF>
  </metadata>
  <defs
     id="defs8" />
  <rect
     style="visibility:hidden;fill:none;stroke:none"
     id="canvas"
     y="0"
     x="0"
     height="32"
     width="32" />
  <path
     style="fill:#88b78e;fill-opacity:1;stroke-width:0.82572263"
     id="muslim"
     d="M 9.2857117,4.9999998 C 6.8639878,4.9999998 5,6.9572 5,9.4999998 5,12.042801 6.8639878,14 9.2857117,14 c 1.3540403,0 2.7670813,-0.487273 3.5714243,-1.499997 -0.52557,0.35925 -1.468998,0.749998 -2.142854,0.749998 -1.8519054,0 -3.5714259,-1.805476 -3.5714259,-3.7500012 0,-1.9445247 1.7195205,-3.7499992 3.5714259,-3.7499992 0.673856,0 1.617284,0.3908247 2.142854,0.7499999 C 12.052793,5.4873502 10.639752,4.9999998 9.2857117,4.9999998 Z M 12.5,7.2500005 11.785715,8.7499999 H 9.9999964 L 11.42857,9.8749998 10.714283,11.750003 12.5,10.624999 14.285713,11.750003 13.57142,9.8749998 15,8.7499999 h -1.785717 z" />
</svg>
