<?xml version="1.0" encoding="utf-8"?>
<!-- Generator: Adobe Illustrator 14.0.0, SVG Export Plug-In . SVG Version: 6.00 Build 43363)  -->
<!DOCTYPE svg PUBLIC "-//W3C//DTD SVG 1.1//EN" "http://www.w3.org/Graphics/SVG/1.1/DTD/svg11.dtd">
<svg version="1.1"
	 id="svg2" xmlns:rdf="http://www.w3.org/1999/02/22-rdf-syntax-ns#" sodipodi:docname="hotel.svg" inkscape:version="0.46" xmlns:svg="http://www.w3.org/2000/svg" xmlns:sodipodi="http://sodipodi.sourceforge.net/DTD/sodipodi-0.dtd" xmlns:inkscape="http://www.inkscape.org/namespaces/inkscape" xmlns:dc="http://purl.org/dc/elements/1.1/" sodipodi:version="0.32" xmlns:cc="http://creativecommons.org/ns#" inkscape:output_extension="org.inkscape.output.svg.inkscape" sodipodi:docbase="s:\Data\FacilityIcons"
	 xmlns="http://www.w3.org/2000/svg" xmlns:xlink="http://www.w3.org/1999/xlink" x="0px" y="0px" width="580px" height="580px"
	 viewBox="0 0 580 580" enable-background="new 0 0 580 580" xml:space="preserve">
<sodipodi:namedview  showgrid="false" inkscape:current-layer="svg2" inkscape:window-y="25" inkscape:window-x="91" inkscape:cy="281.19503" inkscape:cx="331.95305" inkscape:zoom="0.92167712" pagecolor="#ffffff" bordercolor="#666666" borderopacity="1.0" objecttolerance="10.0" gridtolerance="10.0" guidetolerance="10.0" inkscape:window-height="947" inkscape:window-width="1048" inkscape:pageshadow="2" inkscape:pageopacity="0.0" id="base">
	</sodipodi:namedview>
<defs>
	
	
		<inkscape:perspective  inkscape:persp3d-origin="290 : 193.33333 : 1" inkscape:vp_z="580 : 290 : 1" inkscape:vp_y="0 : 1000 : 0" inkscape:vp_x="0 : 290 : 1" sodipodi:type="inkscape:persp3d" id="perspective2441">
		</inkscape:perspective>
	
		<inkscape:perspective  inkscape:persp3d-origin="30 : 20 : 1" inkscape:vp_z="60 : 30 : 1" inkscape:vp_y="0 : 1000 : 0" inkscape:vp_x="0 : 30 : 1" sodipodi:type="inkscape:persp3d" id="perspective3452">
		</inkscape:perspective>
	
		<inkscape:perspective  inkscape:persp3d-origin="372.04724 : 350.78739 : 1" inkscape:vp_z="744.09448 : 526.18109 : 1" inkscape:vp_y="0 : 1000 : 0" inkscape:vp_x="0 : 526.18109 : 1" sodipodi:type="inkscape:persp3d" id="perspective4471">
		</inkscape:perspective>
	
		<inkscape:perspective  inkscape:persp3d-origin="6 : 4 : 1" inkscape:vp_z="12 : 6 : 1" inkscape:vp_y="0 : 1000 : 0" inkscape:vp_x="0 : 6 : 1" sodipodi:type="inkscape:persp3d" id="perspective4668">
		</inkscape:perspective>
	
		<inkscape:perspective  inkscape:persp3d-origin="16 : 10.666667 : 1" inkscape:vp_z="32 : 16 : 1" inkscape:vp_y="0 : 1000 : 0" inkscape:vp_x="0 : 16 : 1" sodipodi:type="inkscape:persp3d" id="perspective4904">
		</inkscape:perspective>
</defs>
<g id="layer3" transform="matrix(48.14969,0,0,48.14969,-536.27327,-33.306752)" inkscape:label="Layout" display="none">
	<rect id="rect4134" x="1" y="1" display="inline" fill="none" stroke="#757575" stroke-width="0.1" width="10" height="10"/>
	<rect id="rect4136" x="2" y="2" display="inline" fill="none" stroke="#757575" stroke-width="0.1" width="8" height="8"/>
</g>
<path id="path645" sodipodi:nodetypes="ccccccccccccc" opacity="0.351" fill="#29ABE2" stroke="#FFFFFF" stroke-width="0.0428" enable-background="new    " d="
	M290.837,270.502l-7.481,7.679h1.496v11.519h4.489v-5.854h3.096v5.854h4.386v-11.519h1.497L290.837,270.502L290.837,270.502
	L290.837,270.502z"/>
<path id="path2157" fill="#FFFFFF" stroke="#29ABE2" stroke-width="1.3449" d="M281.544,280.066l-0.12,9.366"/>
<path id="path2159" fill="#29ABE2" stroke="#29ABE2" stroke-width="1.3449" d="M281.664,285.95l18.012,0.12"/>
<path id="path2161" fill="#29ABE2" stroke="#29ABE2" stroke-width="1.3449" d="M299.796,289.072l0.12-6.124"/>
<path id="rect2163" fill="#29ABE2" stroke="#29ABE2" stroke-width="1.5466" d="M289.349,282.528h7.805
	c0.464,0,0.841,0.376,0.841,0.841l0,0c0,0.464-0.377,0.84-0.841,0.84h-7.805c-0.464,0-0.84-0.376-0.84-0.84l0,0
	C288.509,282.904,288.885,282.528,289.349,282.528z"/>
<path id="path2167" sodipodi:type="arc" sodipodi:ry="1.3392857" sodipodi:rx="1.5178572" sodipodi:cy="16.017857" sodipodi:cx="7.7678571" fill="#29ABE2" stroke="#29ABE2" stroke-width="0.092" d="
	M287.146,280.847c0,0.641-0.586,1.16-1.309,1.161c-0.724,0-1.311-0.519-1.311-1.16c0,0,0,0,0-0.001c0-0.641,0.586-1.16,1.31-1.16
	C286.56,279.687,287.146,280.206,287.146,280.847L287.146,280.847z"/>
<path id="rect2169" fill="#29ABE2" stroke="#29ABE2" stroke-width="1.3449" d="M283.315,283.849h3.362c0.083,0,0.15,0.067,0.15,0.15
	l0,0c0,0.083-0.067,0.15-0.15,0.15h-3.362c-0.083,0-0.15-0.067-0.15-0.15l0,0C283.165,283.916,283.232,283.849,283.315,283.849z"/>
</svg>
