<?xml version="1.0" encoding="UTF-8" standalone="no"?>
<svg
   xmlns:dc="http://purl.org/dc/elements/1.1/"
   xmlns:cc="http://creativecommons.org/ns#"
   xmlns:rdf="http://www.w3.org/1999/02/22-rdf-syntax-ns#"
   xmlns:svg="http://www.w3.org/2000/svg"
   xmlns="http://www.w3.org/2000/svg"
   version="1.1"
   id="svg2"
   width="14"
   height="14"
   viewBox="0 0 14 14">
  <metadata
     id="metadata8">
    <rdf:RDF>
      <cc:Work
         rdf:about="">
        <dc:format>image/svg+xml</dc:format>
        <dc:type
           rdf:resource="http://purl.org/dc/dcmitype/StillImage" />
        <dc:title></dc:title>
      </cc:Work>
    </rdf:RDF>
  </metadata>
  <defs
     id="defs6" />
  <path
     d="m 0.62499976,6.0000004 c -0.375,0 -0.625,0.25 -0.625,0.75 V 14 H 1.2499997 v -1.75 c 0,0 10.3806903,0.01892 11.5000003,0 V 14 H 14 V 11.625 7.7500004 c 0,-0.3297418 -0.13801,-0.75 -0.625,-0.75 -0.48699,0 -0.625,0.4202582 -0.625,0.75 V 11 H 1.2499997 V 6.7500004 c 0,-0.5 -0.24999994,-0.75 -0.62499994,-0.75 z m 2.87499994,1 c -0.82843,0 -1.5,0.671573 -1.5,1.5 0,0.828427 0.67157,1.4999996 1.5,1.4999996 0.82842,0 1.5,-0.6715726 1.5,-1.4999996 0,-0.828427 -0.67158,-1.5 -1.5,-1.5 z m 2,1 V 10 H 12 C 12,9.0000004 10.96382,8.0000004 9.9999997,8.0000004 Z"
     id="hotel" />
  <path
     style="fill-opacity:0.3;stroke-width:0.01526906;opacity:0.9;fill:#000000"
     d="M 6.9999997,0.85331316 2.7578122,4.833782 h 0.4902344 v 8.312905 H 5.8437497 V 8.3533131 H 8.1562495 V 13.146687 H 10.751954 V 4.833782 h 0.490234 z"
     id="polygon4-1" />
</svg>
