<?xml version="1.0" encoding="utf-8"?>
<!-- Generator: Adobe Illustrator 14.0.0, SVG Export Plug-In . SVG Version: 6.00 Build 43363)  -->
<!DOCTYPE svg PUBLIC "-//W3C//DTD SVG 1.1//EN" "http://www.w3.org/Graphics/SVG/1.1/DTD/svg11.dtd">
<svg version="1.1"
	 id="svg2" xmlns:rdf="http://www.w3.org/1999/02/22-rdf-syntax-ns#" sodipodi:docname="shopping_hairdresser.svg" inkscape:version="0.48.0 r9654" xmlns:svg="http://www.w3.org/2000/svg" xmlns:sodipodi="http://sodipodi.sourceforge.net/DTD/sodipodi-0.dtd" xmlns:inkscape="http://www.inkscape.org/namespaces/inkscape" xmlns:dc="http://purl.org/dc/elements/1.1/" sodipodi:version="0.32" xmlns:cc="http://creativecommons.org/ns#" inkscape:output_extension="org.inkscape.output.svg.inkscape"
	 xmlns="http://www.w3.org/2000/svg" xmlns:xlink="http://www.w3.org/1999/xlink" x="0px" y="0px" width="580px" height="580px"
	 viewBox="0 0 580 580" enable-background="new 0 0 580 580" xml:space="preserve">
<sodipodi:namedview  showgrid="false" inkscape:current-layer="svg2" inkscape:window-y="24" inkscape:window-x="0" inkscape:cy="288.5487" inkscape:cx="430.43217" inkscape:zoom="0.92167712" pagecolor="#ffffff" bordercolor="#666666" borderopacity="1.0" objecttolerance="10.0" gridtolerance="10.0" guidetolerance="10.0" inkscape:window-height="1003" inkscape:window-width="1920" inkscape:pageshadow="2" inkscape:pageopacity="0.0" inkscape:window-maximized="1" id="base">
	</sodipodi:namedview>
<defs>
	
	
		<inkscape:perspective  inkscape:persp3d-origin="290 : 193.33333 : 1" inkscape:vp_z="580 : 290 : 1" inkscape:vp_y="0 : 1000 : 0" inkscape:vp_x="0 : 290 : 1" sodipodi:type="inkscape:persp3d" id="perspective2441">
		</inkscape:perspective>
	
		<inkscape:perspective  inkscape:persp3d-origin="30 : 20 : 1" inkscape:vp_z="60 : 30 : 1" inkscape:vp_y="0 : 1000 : 0" inkscape:vp_x="0 : 30 : 1" sodipodi:type="inkscape:persp3d" id="perspective3452">
		</inkscape:perspective>
	
		<inkscape:perspective  inkscape:persp3d-origin="372.04724 : 350.78739 : 1" inkscape:vp_z="744.09448 : 526.18109 : 1" inkscape:vp_y="0 : 1000 : 0" inkscape:vp_x="0 : 526.18109 : 1" sodipodi:type="inkscape:persp3d" id="perspective4471">
		</inkscape:perspective>
	
		<inkscape:perspective  inkscape:persp3d-origin="6 : 4 : 1" inkscape:vp_z="12 : 6 : 1" inkscape:vp_y="0 : 1000 : 0" inkscape:vp_x="0 : 6 : 1" sodipodi:type="inkscape:persp3d" id="perspective4668">
		</inkscape:perspective>
	
		<inkscape:perspective  inkscape:persp3d-origin="0.5 : 0.33333333 : 1" inkscape:vp_z="1 : 0.5 : 1" inkscape:vp_y="0 : 1000 : 0" inkscape:vp_x="0 : 0.5 : 1" sodipodi:type="inkscape:persp3d" id="perspective2918">
		</inkscape:perspective>
</defs>
<g id="layer3" transform="matrix(48.14969,0,0,48.14969,-536.27327,-33.306752)" inkscape:label="Layout" display="none">
	<rect id="rect4134" x="1" y="1" display="inline" fill="none" stroke="#757575" stroke-width="0.1" width="10" height="10"/>
	<rect id="rect4136" x="2" y="2" display="inline" fill="none" stroke="#757575" stroke-width="0.1" width="8" height="8"/>
</g>
<g>
	
		<path id="path3292" sodipodi:nodetypes="csscccc" inkscape:connector-curvature="0" fill="#93278F" stroke="#93278F" stroke-width="0.2792" stroke-linecap="round" stroke-linejoin="round" d="
		M298.335,269.321c0,0-3.558-0.449-3.974-0.221c-0.417,0.229-2.77,12.412-2.475,12.906c0.294,0.494,4.167,0.468,4.167,0.468
		l-4.026-0.573l2.472-12.696L298.335,269.321z"/>
	
		<path id="path3296" sodipodi:nodetypes="cccc" inkscape:connector-curvature="0" fill="#93278F" stroke="#93278F" stroke-width="0.1861" stroke-linecap="square" d="
		M294.236,270.279l3.859,0.522l-3.928-0.074L294.236,270.279L294.236,270.279z"/>
	
		<path id="path3298" sodipodi:nodetypes="cccc" inkscape:connector-curvature="0" fill="#93278F" stroke="#93278F" stroke-width="0.1861" stroke-linecap="square" d="
		M294.015,271.718l3.859,0.522l-3.928-0.074L294.015,271.718z"/>
	
		<path id="path3304" sodipodi:nodetypes="cccc" inkscape:connector-curvature="0" fill="#93278F" stroke="#93278F" stroke-width="0.1861" stroke-linecap="square" d="
		M293.756,273.156l3.859,0.522l-3.929-0.074L293.756,273.156z"/>
	
		<path id="path3310" sodipodi:nodetypes="cccc" inkscape:connector-curvature="0" fill="#93278F" stroke="#93278F" stroke-width="0.1861" stroke-linecap="square" d="
		M293.47,274.595l3.859,0.522l-3.928-0.074L293.47,274.595L293.47,274.595z"/>
	
		<path id="path3318" sodipodi:nodetypes="cccc" inkscape:connector-curvature="0" fill="#93278F" stroke="#93278F" stroke-width="0.1861" stroke-linecap="square" d="
		M293.204,276.033l3.859,0.522l-3.928-0.074L293.204,276.033z"/>
	
		<path id="path3326" sodipodi:nodetypes="cccc" inkscape:connector-curvature="0" fill="#93278F" stroke="#93278F" stroke-width="0.1861" stroke-linecap="square" d="
		M292.969,277.472l3.859,0.522l-3.928-0.074L292.969,277.472z"/>
	
		<path id="path3328" sodipodi:nodetypes="cccc" inkscape:connector-curvature="0" fill="#93278F" stroke="#93278F" stroke-width="0.1861" stroke-linecap="square" d="
		M292.624,278.91l3.859,0.522l-3.928-0.075L292.624,278.91z"/>
	
		<path id="path3330" sodipodi:nodetypes="cccc" inkscape:connector-curvature="0" fill="#93278F" stroke="#93278F" stroke-width="0.1861" stroke-linecap="square" d="
		M292.402,280.349l3.858,0.522l-3.928-0.075L292.402,280.349z"/>
</g>
<g id="g3380" transform="matrix(1.2390707,0,0,1.2390707,-109.93184,-67.239453)">
	
		<path id="path3363" sodipodi:nodetypes="csssssccccccssc" fill="#93278F" stroke="#93278F" stroke-width="0.24" stroke-linecap="round" stroke-linejoin="round" d="
		M331.651,270.892c-0.1,0.009,0.395,3.164,0.597,3.94c0.307,1.184,0.011,0.14,0.462,2.028c0.66,2.766,1.352,5.037,1.657,5.365
		c0.461,0.496,1.35,0.333,1.635-0.464c0.213-0.598,0.331-1.428-0.407-1.949c-0.731-0.515-1.464,0.05-1.464,0.05l-2.451-8.963
		C331.676,270.892,331.665,270.89,331.651,270.892z M335.038,279.914c0.432,0.001,0.872,0.506,0.872,1.148v0.002
		c0,0.642-0.442,1.179-0.875,1.177c-0.433-0.001-0.889-0.629-0.888-1.271S334.605,279.913,335.038,279.914z"/>
	
		<path id="path3378" sodipodi:nodetypes="csssssccccccssc" fill="#93278F" stroke="#93278F" stroke-width="0.24" stroke-linecap="round" stroke-linejoin="round" d="
		M334.653,270.924c0.1,0.009-0.396,3.164-0.597,3.94c-0.307,1.183-0.01,0.14-0.461,2.028c-0.661,2.767-1.353,5.037-1.657,5.366
		c-0.461,0.496-1.351,0.333-1.635-0.464c-0.214-0.599-0.331-1.428,0.407-1.949c0.73-0.515,1.464,0.049,1.464,0.049l2.451-8.963
		C334.627,270.925,334.638,270.923,334.653,270.924z M331.265,279.947c-0.433,0.001-0.872,0.506-0.872,1.148v0.002
		c0.001,0.642,0.443,1.179,0.876,1.178c0.433-0.001,0.889-0.629,0.888-1.271C332.156,280.361,331.698,279.945,331.265,279.947z"/>
</g>
</svg>
