<?xml version="1.0" encoding="utf-8"?>
<svg xmlns="http://www.w3.org/2000/svg" width="100%" height="100%" viewBox="0 0 16 16">
	<path fill-rule="evenodd" d="M 8 0.5 C 3.8578644 0.5 0.5 3.8579 0.5 8 C 0.5 12.1421 3.8578644 15.5 8 15.5 C 12.142136 15.5 15.5 12.1421 15.5 8 C 15.5 3.8579 12.142136 0.5 8 0.5 z M 8 1.5 C 11.589851 1.5 14.5 4.4101491 14.5 8 C 14.5 11.589851 11.589851 14.5 8 14.5 C 4.4101491 14.5 1.5 11.589851 1.5 8 C 1.5 4.4101491 4.4101491 1.5 8 1.5 z M 5 3 L 4.25 3.75 L 4.25 12.25 C 4.25 12.2501 4.9999904 13 5 13 L 6 13 L 6 9 L 10 9 L 10 13 L 11 13 L 11.75 12.25 L 11.75 3.75 L 11 3 L 10 3 L 10 7 L 6 7 L 6 3 L 5 3 z"/>
</svg>
