<?xml version="1.0" encoding="utf-8"?>
<!-- Generator: Adobe Illustrator 14.0.0, SVG Export Plug-In . SVG Version: 6.00 Build 43363)  -->
<!DOCTYPE svg PUBLIC "-//W3C//DTD SVG 1.1//EN" "http://www.w3.org/Graphics/SVG/1.1/DTD/svg11.dtd">
<svg version="1.1"
	 id="svg2" xmlns:rdf="http://www.w3.org/1999/02/22-rdf-syntax-ns#" sodipodi:docname="shopping_hifi.svg" inkscape:version="0.47 r22583" xmlns:svg="http://www.w3.org/2000/svg" xmlns:sodipodi="http://sodipodi.sourceforge.net/DTD/sodipodi-0.dtd" xmlns:inkscape="http://www.inkscape.org/namespaces/inkscape" xmlns:dc="http://purl.org/dc/elements/1.1/" sodipodi:version="0.32" xmlns:cc="http://creativecommons.org/ns#" inkscape:output_extension="org.inkscape.output.svg.inkscape"
	 xmlns="http://www.w3.org/2000/svg" xmlns:xlink="http://www.w3.org/1999/xlink" x="0px" y="0px" width="580px" height="580px"
	 viewBox="0 0 580 580" enable-background="new 0 0 580 580" xml:space="preserve">
<sodipodi:namedview  showgrid="false" inkscape:current-layer="svg2" inkscape:window-y="-4" inkscape:window-x="-4" inkscape:cy="198.28305" inkscape:cx="279.80938" inkscape:zoom="0.92167712" pagecolor="#ffffff" bordercolor="#666666" borderopacity="1.0" objecttolerance="10.0" gridtolerance="10.0" guidetolerance="10.0" inkscape:window-height="1005" inkscape:window-width="1280" inkscape:pageshadow="2" inkscape:pageopacity="0.0" inkscape:window-maximized="1" id="base" inkscape:guide-bbox="true" showguides="true">
	</sodipodi:namedview>
<defs>
	
	
		<inkscape:perspective  inkscape:persp3d-origin="290 : 193.33333 : 1" inkscape:vp_z="580 : 290 : 1" inkscape:vp_y="6.1230318e-14 : 1000 : 0" inkscape:vp_x="0 : 290 : 1" sodipodi:type="inkscape:persp3d" id="perspective2441">
		</inkscape:perspective>
	
		<inkscape:perspective  inkscape:persp3d-origin="30 : 20 : 1" inkscape:vp_z="60 : 30 : 1" inkscape:vp_y="0 : 1000 : 0" inkscape:vp_x="0 : 30 : 1" sodipodi:type="inkscape:persp3d" id="perspective3452">
		</inkscape:perspective>
	
		<inkscape:perspective  inkscape:persp3d-origin="372.04724 : 350.78739 : 1" inkscape:vp_z="744.09448 : 526.18109 : 1" inkscape:vp_y="0 : 1000 : 0" inkscape:vp_x="0 : 526.18109 : 1" sodipodi:type="inkscape:persp3d" id="perspective4471">
		</inkscape:perspective>
	
		<inkscape:perspective  inkscape:persp3d-origin="6 : 4 : 1" inkscape:vp_z="12 : 6 : 1" inkscape:vp_y="0 : 1000 : 0" inkscape:vp_x="0 : 6 : 1" sodipodi:type="inkscape:persp3d" id="perspective4668">
		</inkscape:perspective>
	
		<inkscape:perspective  inkscape:persp3d-origin="0.5 : 0.33333333 : 1" inkscape:vp_z="1 : 0.5 : 1" inkscape:vp_y="0 : 1000 : 0" inkscape:vp_x="0 : 0.5 : 1" sodipodi:type="inkscape:persp3d" id="perspective3826">
		</inkscape:perspective>
	
		<inkscape:perspective  inkscape:persp3d-origin="0.5 : 0.33333333 : 1" inkscape:vp_z="1 : 0.5 : 1" inkscape:vp_y="0 : 1000 : 0" inkscape:vp_x="0 : 0.5 : 1" sodipodi:type="inkscape:persp3d" id="perspective3855">
		</inkscape:perspective>
	
		<inkscape:perspective  inkscape:persp3d-origin="0.5 : 0.33333333 : 1" inkscape:vp_z="1 : 0.5 : 1" inkscape:vp_y="0 : 1000 : 0" inkscape:vp_x="0 : 0.5 : 1" sodipodi:type="inkscape:persp3d" id="perspective3909">
		</inkscape:perspective>
	
		<inkscape:perspective  inkscape:persp3d-origin="0.5 : 0.33333333 : 1" inkscape:vp_z="1 : 0.5 : 1" inkscape:vp_y="0 : 1000 : 0" inkscape:vp_x="0 : 0.5 : 1" sodipodi:type="inkscape:persp3d" id="perspective3950">
		</inkscape:perspective>
	
		<inkscape:perspective  inkscape:persp3d-origin="0.5 : 0.33333333 : 1" inkscape:vp_z="1 : 0.5 : 1" inkscape:vp_y="0 : 1000 : 0" inkscape:vp_x="0 : 0.5 : 1" sodipodi:type="inkscape:persp3d" id="perspective3972">
		</inkscape:perspective>
	
		<inkscape:perspective  inkscape:persp3d-origin="0.5 : 0.33333333 : 1" inkscape:vp_z="1 : 0.5 : 1" inkscape:vp_y="0 : 1000 : 0" inkscape:vp_x="0 : 0.5 : 1" sodipodi:type="inkscape:persp3d" id="perspective3994">
		</inkscape:perspective>
	
		<inkscape:perspective  inkscape:persp3d-origin="0.5 : 0.33333333 : 1" inkscape:vp_z="1 : 0.5 : 1" inkscape:vp_y="0 : 1000 : 0" inkscape:vp_x="0 : 0.5 : 1" sodipodi:type="inkscape:persp3d" id="perspective4016">
		</inkscape:perspective>
	
		<inkscape:perspective  inkscape:persp3d-origin="0.5 : 0.33333333 : 1" inkscape:vp_z="1 : 0.5 : 1" inkscape:vp_y="0 : 1000 : 0" inkscape:vp_x="0 : 0.5 : 1" sodipodi:type="inkscape:persp3d" id="perspective4837">
		</inkscape:perspective>
	
		<inkscape:perspective  inkscape:persp3d-origin="0.5 : 0.33333333 : 1" inkscape:vp_z="1 : 0.5 : 1" inkscape:vp_y="0 : 1000 : 0" inkscape:vp_x="0 : 0.5 : 1" sodipodi:type="inkscape:persp3d" id="perspective4971">
		</inkscape:perspective>
</defs>
<g id="layer3" transform="matrix(48.14969,0,0,48.14969,-536.27327,-33.306752)" inkscape:label="Layout" display="none">
	<rect id="rect4134" x="1" y="1" display="inline" fill="none" stroke="#757575" stroke-width="0.1" width="10" height="10"/>
	<rect id="rect4136" x="2" y="2" display="inline" fill="none" stroke="#757575" stroke-width="0.1" width="8" height="8"/>
</g>
<g id="g3338" transform="matrix(1.3973279,-0.2437849,0.2437849,1.3973279,-185.07402,-56.183307)">
</g>
<g id="g4872" transform="matrix(2.3378763,0,0,2.3378763,-390.83818,-608.90721)">
	<path id="rect4866" sodipodi:nodetypes="ccccccccccccccccccccccccccccccccccccccccccccc" fill="#93278F" d="M289.994,387.823
		c-0.114,0-0.207,0.092-0.207,0.207v0.718c0,0.114,0.092,0.207,0.207,0.207h5.901c0.114,0,0.207-0.092,0.207-0.207v-0.718
		c0-0.114-0.092-0.207-0.207-0.207H289.994z M290.13,388.169h0.86c0.082,0,0.147,0.066,0.147,0.148v0.177
		c0,0.082-0.066,0.148-0.147,0.148h-0.86c-0.082,0-0.148-0.066-0.148-0.148v-0.177C289.982,388.235,290.049,388.169,290.13,388.169z
		 M291.689,388.169h0.86c0.082,0,0.147,0.066,0.147,0.148v0.177c0,0.082-0.066,0.148-0.147,0.148h-0.86
		c-0.082,0-0.148-0.066-0.148-0.148v-0.177C291.54,388.235,291.606,388.169,291.689,388.169z M293.246,388.169h0.86
		c0.082,0,0.147,0.066,0.147,0.148v0.177c0,0.082-0.066,0.148-0.147,0.148h-0.86c-0.082,0-0.148-0.066-0.148-0.148v-0.177
		C293.098,388.235,293.164,388.169,293.246,388.169z M294.804,388.169h0.86c0.082,0,0.147,0.066,0.147,0.148v0.177
		c0,0.082-0.066,0.148-0.147,0.148h-0.86c-0.082,0-0.148-0.066-0.148-0.148v-0.177C294.657,388.235,294.723,388.169,294.804,388.169
		z"/>
	<path id="rect4868" fill="#93278F" d="M290.368,388.824h0.716c0.108,0,0.195,0.087,0.195,0.195l0,0
		c0,0.108-0.088,0.195-0.195,0.195h-0.716c-0.108,0-0.195-0.087-0.195-0.195l0,0C290.173,388.911,290.26,388.824,290.368,388.824z"
		/>
	<path id="rect4870" fill="#93278F" d="M294.808,388.824h0.716c0.108,0,0.195,0.087,0.195,0.195l0,0
		c0,0.108-0.087,0.195-0.195,0.195h-0.716c-0.108,0-0.195-0.087-0.195-0.195l0,0C294.613,388.911,294.7,388.824,294.808,388.824z"/>
</g>
<g id="g4877" transform="matrix(2.3378763,0,0,2.3378763,-390.83818,-760.5313)">
	<path id="rect4879" sodipodi:nodetypes="ccccccccccssscccccccccc" fill="#93278F" d="M289.994,450.322
		c-0.114,0-0.207,0.092-0.207,0.207v1.128c0,0.115,0.092,0.207,0.207,0.207h5.901c0.114,0,0.207-0.092,0.207-0.207v-1.128
		c0-0.114-0.092-0.207-0.207-0.207H289.994z M295.162,450.561c0.324,0,0.586,0.262,0.586,0.586c0,0.324-0.262,0.586-0.586,0.586
		s-0.586-0.262-0.586-0.586C294.576,450.823,294.838,450.561,295.162,450.561z M290.204,450.623h0.86
		c0.082,0,0.148,0.066,0.148,0.148v0.177c0,0.082-0.066,0.148-0.148,0.148h-0.86c-0.082,0-0.147-0.066-0.147-0.148v-0.177
		C290.056,450.689,290.122,450.623,290.204,450.623z"/>
	<path id="rect4881" fill="#93278F" d="M290.368,451.734h0.716c0.108,0,0.195,0.087,0.195,0.195l0,0
		c0,0.108-0.087,0.195-0.195,0.195h-0.716c-0.108,0-0.195-0.087-0.195-0.195l0,0C290.173,451.821,290.26,451.734,290.368,451.734z"
		/>
	<path id="rect4883" fill="#93278F" d="M294.808,451.734h0.716c0.108,0,0.195,0.087,0.195,0.195l0,0
		c0,0.108-0.087,0.195-0.195,0.195h-0.716c-0.108,0-0.195-0.087-0.195-0.195l0,0C294.613,451.821,294.7,451.734,294.808,451.734z"/>
</g>
</svg>
