<?xml version="1.0" encoding="UTF-8" standalone="no"?>
<!-- Created with Inkscape (http://www.inkscape.org/) -->

<svg
   xmlns="http://www.w3.org/2000/svg"
   version="1.1"
   width="100%"
   height="100%"
   viewBox="0 0 16 16">
  <path
     d="M 7,3 C 7,3 8.598346,5.8202261 11,3.5 11.330985,4 12,5 12,5 12,5 8.5566276,7.3559064 7,3 z M 2,5 C 2.2886214,5.6087858 2.6605301,6.357316 3,7 3.5044529,6 5,6 5,6 6,6 6.7338601,6.3918109 6.7338601,7.0271271 6.7338601,7.6624433 6,8 5,8 5,8 5,9 5,9.5 6.3108541,9.251282 7.0026347,10.289559 6.6821476,11.006988 6.074951,12.36634 2.5039264,12.526644 1,10 c 0,3.987823 3.4414924,4 4,4 2,0 3,-2 3,-4 0.5208035,0.543036 1.354855,0.545623 2,0 0.904803,-0.7652747 1.258697,-2.0101204 2.5,-2 1.513712,0.012341 1.5,3 0.5,4 -1,1 -3.3940417,0.644701 -4,-1 0,1 0,3.001353 3,3 3,-0.0014 3.608129,-3.383953 2.5,-6 C 13.815126,6.3831655 12.532891,5.9499041 11.150024,6.3783041 10.081908,6.7092042 10.130789,7.1826541 9.5,8 9.1705614,8.3957084 9,9 8,9 7.6528812,9 7.2283233,8.7255178 7,8.5 8.2381398,7.6151627 8.0558004,5.9129516 7,5 5.6121477,3.7999227 3.1598684,4.0452627 2,5 z M 8,3 9,2 10,3 9,4 z" />
</svg>
