<?xml version="1.0" encoding="UTF-8" standalone="no"?>
<!-- Created with Inkscape (http://www.inkscape.org/) -->

<svg
   xmlns:dc="http://purl.org/dc/elements/1.1/"
   xmlns:cc="http://creativecommons.org/ns#"
   xmlns:rdf="http://www.w3.org/1999/02/22-rdf-syntax-ns#"
   xmlns:svg="http://www.w3.org/2000/svg"
   xmlns="http://www.w3.org/2000/svg"
   version="1.1"
   width="100%"
   height="100%"
   viewBox="0 0 18 18"
   id="svg2">
  <metadata
     id="metadata8">
    <rdf:RDF>
      <cc:Work
         rdf:about="">
        <dc:format>image/svg+xml</dc:format>
        <dc:type
           rdf:resource="http://purl.org/dc/dcmitype/StillImage" />
        <dc:title></dc:title>
      </cc:Work>
    </rdf:RDF>
  </metadata>
  <defs
     id="defs6" />
  <rect
     width="18"
     height="18"
     x="0"
     y="0"
     id="canvas"
     style="fill:none;stroke:none;visibility:hidden" />
  <g
     id="hinduist">
    <path
       d="m 8,3.9999993 c 0,0 1.598346,2.8202261 4,0.5 0.330985,0.5 1,1.5 1,1.5 0,0 -3.4433724,2.3559064 -5,-2 z m -5,2 c 0.2886214,0.6087858 0.6605301,1.357316 1,2 0.5044529,-1 2,-1 2,-1 1,0 1.7338601,0.3918109 1.7338601,1.0271271 C 7.7338601,8.6624426 7,8.9999993 6,8.9999993 c 0,0 0,1 0,1.4999997 1.3108541,-0.248718 2.0026347,0.789559 1.6821476,1.506988 C 7.074951,13.366339 3.5039264,13.526643 2,10.999999 c 0,3.987823 3.4414924,4 4,4 2,0 3,-2 3,-4 0.5208035,0.543036 1.354855,0.545623 2,0 0.904803,-0.765275 1.258697,-2.0101201 2.5,-1.9999997 1.513712,0.01234 1.5,2.9999997 0.5,3.9999997 -1,1 -3.394042,0.644701 -4,-1 0,1 0,3.001353 3,3 3,-0.0014 3.608129,-3.383953 2.5,-5.9999997 C 14.815126,7.3831648 13.532891,6.9499034 12.150024,7.3783034 11.081908,7.7092035 11.130789,8.1826534 10.5,8.9999993 c -0.329439,0.395708 -0.5,1 -1.5,1 -0.3471188,0 -0.7716767,-0.274482 -1,-0.5 1.2381398,-0.8848373 1.0558004,-2.5870484 0,-3.5 -1.3878523,-1.2000773 -3.8401316,-0.9547373 -5,0 z m 6,-2 1,-1 1,1 -1,1 z"
       id="halo"
       style="opacity:0.3;fill:#ffffff;fill-opacity:1;stroke:#ffffff;stroke-width:2;stroke-miterlimit:4;stroke-opacity:1;stroke-dasharray:none" />
    <path
       d="m 8,3.9999993 c 0,0 1.598346,2.8202261 4,0.5 0.330985,0.5 1,1.5 1,1.5 0,0 -3.443372,2.3559064 -5,-2 z m -5,2 c 0.288621,0.6087858 0.66053,1.357316 1,2 0.504453,-1 2,-1 2,-1 1,0 1.73386,0.3918109 1.73386,1.0271271 C 7.73386,8.6624426 7,8.9999993 6,8.9999993 c 0,0 0,1 0,1.4999997 1.310854,-0.248718 2.002635,0.789559 1.682148,1.506988 C 7.074951,13.366339 3.503926,13.526643 2,10.999999 c 0,3.987823 3.441492,4 4,4 2,0 3,-2 3,-4 0.520803,0.543036 1.354855,0.545623 2,0 0.904803,-0.765275 1.258697,-2.0101201 2.5,-1.9999997 1.513712,0.01234 1.5,2.9999997 0.5,3.9999997 -1,1 -3.394042,0.644701 -4,-1 0,1 0,3.001353 3,3 3,-0.0014 3.608129,-3.383953 2.5,-5.9999997 C 14.815126,7.3831648 13.532891,6.9499034 12.150024,7.3783034 11.081908,7.7092035 11.130789,8.1826534 10.5,8.9999993 c -0.329439,0.395708 -0.5,1 -1.5,1 -0.347119,0 -0.771677,-0.274482 -1,-0.5 1.23814,-0.8848373 1.0558,-2.5870484 0,-3.5 -1.387852,-1.2000773 -3.840132,-0.9547373 -5,0 z m 6,-2 1,-1 1,1 -1,1 z"
       id="icon"
       style="fill:#1a1a1a;fill-opacity:1;stroke:none" />
  </g>
</svg>
