<?xml version="1.0" encoding="UTF-8" standalone="no"?>
<!-- Created with Inkscape (http://www.inkscape.org/) -->

<svg
   xmlns="http://www.w3.org/2000/svg"
   version="1.1"
   width="100%"
   height="100%"
   viewBox="0 0 16 16">
  <path
     d="M 8,0.96875 C 4.1945765,0.96875 1.03125,4.0714285 1.03125,8 c 0,3.928572 3.1633265,7.03125 6.96875,7.03125 3.805424,0 6.96875,-3.102679 6.96875,-7.03125 C 14.96875,4.0714285 11.805424,0.96875 8,0.96875 z m 0,1.0625 c 3.374278,0 6.03125,2.7176196 6.03125,5.96875 0,3.251131 -2.656972,5.96875 -6.03125,5.96875 C 4.6257218,13.96875 1.96875,11.251131 1.96875,8 1.96875,4.7488696 4.6257218,2.03125 8,2.03125 z M 6,3 6,6 3,6 l 0,4 3,0 0,3 4,0 0,-3 3,0 0,-4 -3,0 0,-3 -4,0 z" />
</svg>
