<?xml version="1.0" encoding="UTF-8" standalone="no"?>
<!-- Created with Inkscape (http://www.inkscape.org/) -->

<svg
   xmlns:dc="http://purl.org/dc/elements/1.1/"
   xmlns:cc="http://creativecommons.org/ns#"
   xmlns:rdf="http://www.w3.org/1999/02/22-rdf-syntax-ns#"
   xmlns:svg="http://www.w3.org/2000/svg"
   xmlns="http://www.w3.org/2000/svg"
   version="1.1"
   width="100%"
   height="100%"
   viewBox="0 0 16 16"
   id="svg2">
  <metadata
     id="metadata8">
    <rdf:RDF>
      <cc:Work
         rdf:about="">
        <dc:format>image/svg+xml</dc:format>
        <dc:type
           rdf:resource="http://purl.org/dc/dcmitype/StillImage" />
        <dc:title></dc:title>
      </cc:Work>
    </rdf:RDF>
  </metadata>
  <defs
     id="defs6" />
  <rect
     width="16"
     height="16"
     x="0"
     y="0"
     id="canvas"
     style="fill:none;stroke:none;visibility:hidden" />
  <path
     d="M 1.625,1 C 1.25,1 1,1.25 1,1.75 L 1,15 l 1.25,0 0,-2 11.5,0 0,2 1.25,0 C 15.02275,15 15,1.75 15,1.75 15,1.25 14.75,1 14.375,1 14,1 13.75,1.25 13.75,1.75 l 0,4.25 -11.5,0 0,-4.25 C 2.25,1.25 2,1 1.625,1 z M 4.5,2 C 3.671573,2 3,2.671573 3,3.5 3,4.328427 3.671573,5 4.5,5 5.328427,5 6,4.328427 6,3.5 6,2.671573 5.328427,2 4.5,2 z m 2,1 0,2 6.5,0 C 13,4 11.963825,3 11,3 z m -4.25,4 11.5,0 0,5 -11.5,0 c 0.02355,0 0,-5 0,-5 z M 4.5,8 C 3.671573,8 3,8.671573 3,9.5 3,10.328427 3.671573,11 4.5,11 5.328427,11 6,10.328427 6,9.5 6,8.671573 5.328427,8 4.5,8 z m 2,1 0,2 6.5,0.01288 C 13,10 11.963825,9 11,9 z"
     id="hostel"
     style="fill:#1a1a1a;fill-opacity:1;stroke:none" />
</svg>
