<?xml version="1.0" encoding="utf-8"?>
<!-- Generator: Adobe Illustrator 14.0.0, SVG Export Plug-In . SVG Version: 6.00 Build 43363)  -->
<!DOCTYPE svg PUBLIC "-//W3C//DTD SVG 1.1//EN" "http://www.w3.org/Graphics/SVG/1.1/DTD/svg11.dtd">
<svg version="1.1"
	 id="svg2" xmlns:rdf="http://www.w3.org/1999/02/22-rdf-syntax-ns#" sodipodi:docname="accommodation_hostel.svg" inkscape:version="0.48.0 r9654" xmlns:svg="http://www.w3.org/2000/svg" xmlns:sodipodi="http://sodipodi.sourceforge.net/DTD/sodipodi-0.dtd" xmlns:inkscape="http://www.inkscape.org/namespaces/inkscape" xmlns:dc="http://purl.org/dc/elements/1.1/" sodipodi:version="0.32" xmlns:cc="http://creativecommons.org/ns#" inkscape:output_extension="org.inkscape.output.svg.inkscape"
	 xmlns="http://www.w3.org/2000/svg" xmlns:xlink="http://www.w3.org/1999/xlink" x="0px" y="0px" width="580px" height="580px"
	 viewBox="0 0 580 580" enable-background="new 0 0 580 580" xml:space="preserve">
<path id="path2157" sodipodi:nodetypes="cc" inkscape:connector-curvature="0" fill="#0071BC" stroke="#0071BC" stroke-width="1.0749" stroke-linecap="round" d="
	M283.376,283.337l-0.096,14.842"/>
<path id="path2159" sodipodi:nodetypes="cc" inkscape:connector-curvature="0" fill="#0071BC" stroke="#0071BC" stroke-width="1.0749" d="
	M283.472,296.596l14.395,0.096"/>
<path id="path2161" sodipodi:nodetypes="cc" inkscape:connector-curvature="0" fill="#0071BC" stroke="#0071BC" stroke-width="1.0749" stroke-linecap="round" d="
	M297.964,297.891l0.096-11.534"/>
<path id="rect2163" fill="#0071BC" stroke="#0071BC" stroke-width="1.0411" d="M289.643,293.844h5.081
	c0.319,0,0.579,0.26,0.579,0.579l0,0c0,0.32-0.26,0.579-0.579,0.579h-5.081c-0.32,0-0.579-0.259-0.579-0.579l0,0
	C289.063,294.104,289.323,293.844,289.643,293.844z"/>
<path id="path2167" sodipodi:type="arc" sodipodi:ry="1.3392857" sodipodi:rx="1.5178572" sodipodi:cy="16.017857" sodipodi:cx="7.7678571" fill="#0071BC" stroke="#0071BC" stroke-width="0.069" d="
	M288.108,292.48c0,0.441-0.385,0.799-0.861,0.799c-0.476,0-0.862-0.357-0.862-0.799l0,0c0-0.441,0.385-0.8,0.861-0.8
	C287.722,291.681,288.108,292.038,288.108,292.48L288.108,292.48z"/>
<path id="rect2169" fill="#0071BC" stroke="#0071BC" stroke-width="0.9053" d="M285.652,294.754h2.202
	c0.057,0,0.104,0.047,0.104,0.104l0,0c0,0.058-0.046,0.104-0.104,0.104h-2.202c-0.057,0-0.103-0.046-0.103-0.104l0,0
	C285.549,294.801,285.595,294.754,285.652,294.754z"/>
<path id="path2159-3" sodipodi:nodetypes="cc" inkscape:connector-curvature="0" fill="#0071BC" stroke="#0071BC" stroke-width="1.0749" d="
	M283.615,289.525l14.396,0.096"/>
<path id="rect2163-5" fill="#0071BC" stroke="#0071BC" stroke-width="1.0411" d="M289.779,286.811h5.08
	c0.32,0,0.579,0.259,0.579,0.579l0,0c0,0.32-0.259,0.579-0.579,0.579h-5.08c-0.32,0-0.579-0.259-0.579-0.579l0,0
	C289.2,287.07,289.459,286.811,289.779,286.811z"/>
<path id="path2167-9" sodipodi:type="arc" sodipodi:ry="1.3392857" sodipodi:rx="1.5178572" sodipodi:cy="16.017857" sodipodi:cx="7.7678571" fill="#0071BC" stroke="#0071BC" stroke-width="0.069" d="
	M288.244,285.447c0,0.441-0.385,0.799-0.861,0.799c-0.476,0-0.861-0.357-0.862-0.799c0,0,0,0,0,0c0-0.441,0.385-0.799,0.861-0.799
	S288.244,285.005,288.244,285.447L288.244,285.447z"/>
<path id="rect2169-6" fill="#0071BC" stroke="#0071BC" stroke-width="0.9053" d="M285.789,287.721h2.202
	c0.057,0,0.104,0.046,0.104,0.104l0,0c0,0.057-0.046,0.104-0.104,0.104h-2.202c-0.057,0-0.104-0.046-0.104-0.104l0,0
	C285.686,287.767,285.732,287.721,285.789,287.721z"/>
</svg>
