<?xml version="1.0" encoding="UTF-8" standalone="no"?>
<!-- Created with Inkscape (http://www.inkscape.org/) -->

<svg
   xmlns:dc="http://purl.org/dc/elements/1.1/"
   xmlns:cc="http://creativecommons.org/ns#"
   xmlns:rdf="http://www.w3.org/1999/02/22-rdf-syntax-ns#"
   xmlns:svg="http://www.w3.org/2000/svg"
   xmlns="http://www.w3.org/2000/svg"
   version="1.1"
   width="14"
   height="14"
   viewBox="0 0 14 14"
   id="svg2">
  <metadata
     id="metadata8">
    <rdf:RDF>
      <cc:Work
         rdf:about="">
        <dc:format>image/svg+xml</dc:format>
        <dc:type
           rdf:resource="http://purl.org/dc/dcmitype/StillImage" />
        <dc:title></dc:title>
      </cc:Work>
    </rdf:RDF>
  </metadata>
  <defs
     id="defs6" />
  <rect
     width="14"
     height="14"
     x="0"
     y="0"
     id="canvas"
     style="fill:none;stroke:none;visibility:hidden" />
  <path
     d="M 0.625,0 C 0.25,0 0,0.25 0,0.75 L 0,14 l 1.25,0 0,-2 11.5,0 0,2 1.25,0 C 14.02275,14 14,0.75 14,0.75 14,0.25 13.75,0 13.375,0 13,0 12.75,0.25 12.75,0.75 l 0,4.25 -11.5,0 0,-4.25 C 1.25,0.25 1,0 0.625,0 z M 3.5,1 C 2.671573,1 2,1.671573 2,2.5 2,3.328427 2.671573,4 3.5,4 4.328427,4 5,3.328427 5,2.5 5,1.671573 4.328427,1 3.5,1 z m 2,1 0,2 6.5,0 C 12,3 10.963825,2 10,2 z m -4.25,4 11.5,0 0,5 -11.5,0 c 0.02355,0 0,-5 0,-5 z M 3.5,7 C 2.671573,7 2,7.671573 2,8.5 2,9.328427 2.671573,10 3.5,10 4.328427,10 5,9.328427 5,8.5 5,7.671573 4.328427,7 3.5,7 z m 2,1 0,2 6.5,0.01288 C 12,9 10.963825,8 10,8 z"
     id="hostel" />
</svg>
