<?xml version="1.0" encoding="UTF-8" standalone="no"?>
<!-- Created with Inkscape (http://www.inkscape.org/) -->

<svg
   xmlns:dc="http://purl.org/dc/elements/1.1/"
   xmlns:cc="http://creativecommons.org/ns#"
   xmlns:rdf="http://www.w3.org/1999/02/22-rdf-syntax-ns#"
   xmlns:svg="http://www.w3.org/2000/svg"
   xmlns="http://www.w3.org/2000/svg"
   version="1.1"
   width="14"
   height="14"
   viewBox="0 0 14 14"
   id="svg2">
  <metadata
     id="metadata8">
    <rdf:RDF>
      <cc:Work
         rdf:about="">
        <dc:format>image/svg+xml</dc:format>
        <dc:type
           rdf:resource="http://purl.org/dc/dcmitype/StillImage" />
        <dc:title></dc:title>
      </cc:Work>
    </rdf:RDF>
  </metadata>
  <defs
     id="defs6" />
  <rect
     width="14"
     height="14"
     x="0"
     y="0"
     id="canvas"
     style="fill:none;stroke:none;visibility:hidden" />
  <path
     d="M 0.625,3 C 0.25,3 0,3.25 0,3.75 l 0,7.25 1.25,0 0,-1.75 c 0,0 10.380697,0.01892 11.5,0 L 12.75,11 14,11 14,8.625 14,4.75 C 14,4.4202582 13.86199,4 13.375,4 12.88801,4 12.75,4.4202582 12.75,4.75 l 0,3.25 -11.5,0 0,-4.25 C 1.25,3.25 1,3 0.625,3 z M 3.5,4 C 2.671573,4 2,4.671573 2,5.5 2,6.328427 2.671573,7 3.5,7 4.328427,7 5,6.328427 5,5.5 5,4.671573 4.328427,4 3.5,4 z m 2,1 0,2 6.5,0 C 12,6 10.963825,5 10,5 z"
     id="hotel" />
</svg>
