<?xml version="1.0" encoding="utf-8"?>
<!-- Generator: Adobe Illustrator 14.0.0, SVG Export Plug-In . SVG Version: 6.00 Build 43363)  -->
<!DOCTYPE svg PUBLIC "-//W3C//DTD SVG 1.1//EN" "http://www.w3.org/Graphics/SVG/1.1/DTD/svg11.dtd">
<svg version="1.1"
	 id="svg2" xmlns:dc="http://purl.org/dc/elements/1.1/" xmlns:sodipodi="http://sodipodi.sourceforge.net/DTD/sodipodi-0.dtd" sodipodi:docname="accommodation_hotel2.svg" xmlns:svg="http://www.w3.org/2000/svg" xmlns:inkscape="http://www.inkscape.org/namespaces/inkscape" xmlns:cc="http://creativecommons.org/ns#" xmlns:rdf="http://www.w3.org/1999/02/22-rdf-syntax-ns#" inkscape:version="0.46" inkscape:output_extension="org.inkscape.output.svg.inkscape" sodipodi:docbase="s:\Data\FacilityIcons" sodipodi:version="0.32"
	 xmlns="http://www.w3.org/2000/svg" xmlns:xlink="http://www.w3.org/1999/xlink" x="0px" y="0px" width="580px" height="580px"
	 viewBox="0 0 580 580" enable-background="new 0 0 580 580" xml:space="preserve">
<sodipodi:namedview  bordercolor="#666666" inkscape:window-width="1048" borderopacity="1.0" inkscape:cx="331.95305" inkscape:zoom="0.92167712" inkscape:cy="281.19503" inkscape:pageopacity="0.0" showgrid="false" inkscape:window-x="91" inkscape:pageshadow="2" inkscape:current-layer="svg2" pagecolor="#ffffff" inkscape:window-y="25" inkscape:window-height="947" id="base" objecttolerance="10.0" guidetolerance="10.0" gridtolerance="10.0">
	</sodipodi:namedview>
<defs>
	
	
		<inkscape:perspective  id="perspective2441" inkscape:vp_y="0 : 1000 : 0" inkscape:vp_x="0 : 290 : 1" inkscape:vp_z="580 : 290 : 1" sodipodi:type="inkscape:persp3d" inkscape:persp3d-origin="290 : 193.33333 : 1">
		</inkscape:perspective>
	
		<inkscape:perspective  id="perspective3452" inkscape:vp_y="0 : 1000 : 0" inkscape:vp_x="0 : 30 : 1" inkscape:vp_z="60 : 30 : 1" sodipodi:type="inkscape:persp3d" inkscape:persp3d-origin="30 : 20 : 1">
		</inkscape:perspective>
	
		<inkscape:perspective  id="perspective4471" inkscape:vp_y="0 : 1000 : 0" inkscape:vp_x="0 : 526.18109 : 1" inkscape:vp_z="744.09448 : 526.18109 : 1" sodipodi:type="inkscape:persp3d" inkscape:persp3d-origin="372.04724 : 350.78739 : 1">
		</inkscape:perspective>
	
		<inkscape:perspective  id="perspective4668" inkscape:vp_y="0 : 1000 : 0" inkscape:vp_x="0 : 6 : 1" inkscape:vp_z="12 : 6 : 1" sodipodi:type="inkscape:persp3d" inkscape:persp3d-origin="6 : 4 : 1">
		</inkscape:perspective>
	
		<inkscape:perspective  id="perspective4904" inkscape:vp_y="0 : 1000 : 0" inkscape:vp_x="0 : 16 : 1" inkscape:vp_z="32 : 16 : 1" sodipodi:type="inkscape:persp3d" inkscape:persp3d-origin="16 : 10.666667 : 1">
		</inkscape:perspective>
</defs>
<g id="layer3" transform="matrix(48.14969,0,0,48.14969,-536.27327,-33.306752)" inkscape:label="Layout" display="none">
	<rect id="rect4134" x="1" y="1" display="inline" fill="none" stroke="#757575" stroke-width="0.1" width="10" height="10"/>
	<rect id="rect4136" x="2" y="2" display="inline" fill="none" stroke="#757575" stroke-width="0.1" width="8" height="8"/>
</g>
<path id="path2157" fill="#0092DA" stroke="#0092DA" stroke-width="1.2899" stroke-linecap="round" d="M281.917,300.799
	l-0.115,8.983"/>
<path id="path2159" fill="#7398CF" stroke="#0092DA" stroke-width="1.2899" d="M282.033,306.442l17.273,0.114"/>
<path id="path2161" fill="#0092DA" stroke="#0092DA" stroke-width="1.2899" stroke-linecap="round" d="M299.422,309.437l0.117-5.872
	"/>
<path id="rect2163" fill="#0092DA" stroke="#0092DA" stroke-width="1.4833" d="M289.404,303.16h7.485
	c0.445,0,0.807,0.361,0.807,0.807l0,0c0,0.444-0.36,0.807-0.807,0.807h-7.485c-0.445,0-0.806-0.362-0.806-0.807l0,0
	C288.597,303.521,288.958,303.16,289.404,303.16z"/>
<path id="path2167" sodipodi:cx="7.7678571" sodipodi:rx="1.5178572" sodipodi:ry="1.3392857" sodipodi:cy="16.017857" sodipodi:type="arc" fill="#0092DA" stroke="#0092DA" stroke-width="0.0828" d="
	M287.292,301.011c0,0.614-0.562,1.112-1.256,1.113c-0.694,0-1.256-0.497-1.256-1.112c0,0,0,0,0-0.001
	c0-0.614,0.562-1.112,1.256-1.112C286.728,299.896,287.291,300.395,287.292,301.011L287.292,301.011z"/>
<path id="rect2169" fill="#0092DA" stroke="#0092DA" stroke-width="1.2899" d="M283.617,304.427h3.225
	c0.079,0,0.145,0.065,0.145,0.144l0,0c0,0.08-0.064,0.145-0.145,0.145h-3.225c-0.079,0-0.144-0.064-0.144-0.145l0,0
	C283.472,304.491,283.537,304.427,283.617,304.427z"/>
</svg>
