<?xml version="1.0" encoding="utf-8"?>
<!-- Generator: Adobe Illustrator 14.0.0, SVG Export Plug-In . SVG Version: 6.00 Build 43363)  -->
<!DOCTYPE svg PUBLIC "-//W3C//DTD SVG 1.1//EN" "http://www.w3.org/Graphics/SVG/1.1/DTD/svg11.dtd">
<svg version="1.1"
	 id="svg2" xmlns:rdf="http://www.w3.org/1999/02/22-rdf-syntax-ns#" sodipodi:docname="information.svg" inkscape:version="0.46" xmlns:svg="http://www.w3.org/2000/svg" xmlns:sodipodi="http://sodipodi.sourceforge.net/DTD/sodipodi-0.dtd" xmlns:inkscape="http://www.inkscape.org/namespaces/inkscape" xmlns:dc="http://purl.org/dc/elements/1.1/" sodipodi:version="0.32" xmlns:cc="http://creativecommons.org/ns#" inkscape:output_extension="org.inkscape.output.svg.inkscape"
	 xmlns="http://www.w3.org/2000/svg" xmlns:xlink="http://www.w3.org/1999/xlink" x="0px" y="0px" width="580px" height="580px"
	 viewBox="0 0 580 580" enable-background="new 0 0 580 580" xml:space="preserve">
<sodipodi:namedview  showgrid="false" inkscape:current-layer="svg2" inkscape:window-y="-4" inkscape:window-x="1276" inkscape:cy="207.09985" inkscape:cx="1208.418" inkscape:zoom="0.35355339" pagecolor="#ffffff" bordercolor="#666666" borderopacity="1.0" objecttolerance="10.0" gridtolerance="10.0" guidetolerance="10.0" inkscape:window-height="941" inkscape:window-width="1280" inkscape:pageshadow="2" inkscape:pageopacity="0.0" id="base">
	</sodipodi:namedview>
<defs>
	
	
		<inkscape:perspective  inkscape:persp3d-origin="290 : 193.33333 : 1" inkscape:vp_z="580 : 290 : 1" inkscape:vp_y="0 : 1000 : 0" inkscape:vp_x="0 : 290 : 1" sodipodi:type="inkscape:persp3d" id="perspective12">
		</inkscape:perspective>
	
		<inkscape:perspective  inkscape:persp3d-origin="29.116032 : 19.410688 : 1" inkscape:vp_z="58.232063 : 29.116032 : 1" inkscape:vp_y="0 : 1000 : 0" inkscape:vp_x="0 : 29.116032 : 1" sodipodi:type="inkscape:persp3d" id="perspective6807">
		</inkscape:perspective>
</defs>
<path id="flowRoot6828" fill="#603813" d="M291.904,278.331c0-0.435,0.141-0.791,0.422-1.068c0.281-0.277,0.644-0.416,1.086-0.416
	c0.475,0,0.869,0.146,1.183,0.44c0.314,0.293,0.471,0.625,0.471,0.996c0,0.273-0.062,0.547-0.187,0.82
	c-0.125,0.274-0.322,0.493-0.592,0.658c-0.27,0.165-0.545,0.248-0.826,0.248c-0.387,0-0.742-0.165-1.068-0.495
	C292.066,279.184,291.904,278.79,291.904,278.331L291.904,278.331z M290.214,292.729l-0.024-0.785l1.363-0.181
	c0.201-0.057,0.34-0.139,0.417-0.247c0.076-0.109,0.114-0.353,0.114-0.73v-0.133c0-0.097,0.006-0.271,0.018-0.525
	c0.013-0.253,0.019-0.477,0.019-0.67c0-0.153-0.012-0.446-0.036-0.881l0.012-0.604l-0.012-0.567l0.024-1.967
	c0-0.25-0.024-0.507-0.073-0.772c-0.088-0.121-0.249-0.225-0.482-0.313c-0.233-0.089-0.64-0.153-1.219-0.193v-0.676
	c0.829-0.048,1.557-0.221,2.185-0.519c0.426-0.193,0.889-0.535,1.388-1.025h0.809c0.032,0.998,0.048,2.293,0.048,3.886l-0.084,4.924
	c0,0.338,0.016,0.644,0.048,0.917c0.25,0.089,0.656,0.177,1.219,0.266c0.218,0.032,0.391,0.072,0.52,0.121l-0.013,0.663
	c-0.217,0.008-0.378,0.013-0.482,0.013c-0.121,0-0.306-0.009-0.555-0.024c-0.821-0.04-1.919-0.061-3.295-0.061
	c-0.395,0-0.776,0.015-1.146,0.042C290.604,292.714,290.351,292.729,290.214,292.729L290.214,292.729z"/>
</svg>
