<?xml version="1.0" encoding="utf-8"?>
<!-- Generator: Adobe Illustrator 14.0.0, SVG Export Plug-In . SVG Version: 6.00 Build 43363)  -->
<!DOCTYPE svg PUBLIC "-//W3C//DTD SVG 1.1//EN" "http://www.w3.org/Graphics/SVG/1.1/DTD/svg11.dtd">
<svg version="1.1"
	 id="svg2" xmlns:rdf="http://www.w3.org/1999/02/22-rdf-syntax-ns#" sodipodi:docname="shopping_jewelry.svg" inkscape:version="0.46" xmlns:svg="http://www.w3.org/2000/svg" xmlns:sodipodi="http://sodipodi.sourceforge.net/DTD/sodipodi-0.dtd" xmlns:inkscape="http://www.inkscape.org/namespaces/inkscape" xmlns:dc="http://purl.org/dc/elements/1.1/" sodipodi:version="0.32" xmlns:cc="http://creativecommons.org/ns#" inkscape:output_extension="org.inkscape.output.svg.inkscape" sodipodi:docbase="s:\Data\FacilityIcons"
	 xmlns="http://www.w3.org/2000/svg" xmlns:xlink="http://www.w3.org/1999/xlink" x="0px" y="0px" width="580px" height="580px"
	 viewBox="0 0 580 580" enable-background="new 0 0 580 580" xml:space="preserve">
<sodipodi:namedview  showgrid="false" inkscape:current-layer="svg2" inkscape:window-y="45" inkscape:window-x="0" inkscape:cy="442.3878" inkscape:cx="181.98368" inkscape:zoom="1.8433542" pagecolor="#ffffff" bordercolor="#666666" borderopacity="1.0" objecttolerance="10.0" gridtolerance="10.0" guidetolerance="10.0" inkscape:window-height="978" inkscape:window-width="1400" inkscape:pageshadow="2" inkscape:pageopacity="0.0" id="base">
	</sodipodi:namedview>
<defs>
	
	
		<inkscape:perspective  inkscape:persp3d-origin="290 : 193.33333 : 1" inkscape:vp_z="580 : 290 : 1" inkscape:vp_y="6.1230318e-14 : 1000 : 0" inkscape:vp_x="0 : 290 : 1" sodipodi:type="inkscape:persp3d" id="perspective2441">
		</inkscape:perspective>
	
		<inkscape:perspective  inkscape:persp3d-origin="30 : 20 : 1" inkscape:vp_z="60 : 30 : 1" inkscape:vp_y="0 : 1000 : 0" inkscape:vp_x="0 : 30 : 1" sodipodi:type="inkscape:persp3d" id="perspective3452">
		</inkscape:perspective>
	
		<inkscape:perspective  inkscape:persp3d-origin="372.04724 : 350.78739 : 1" inkscape:vp_z="744.09448 : 526.18109 : 1" inkscape:vp_y="0 : 1000 : 0" inkscape:vp_x="0 : 526.18109 : 1" sodipodi:type="inkscape:persp3d" id="perspective4471">
		</inkscape:perspective>
	
		<inkscape:perspective  inkscape:persp3d-origin="6 : 4 : 1" inkscape:vp_z="12 : 6 : 1" inkscape:vp_y="0 : 1000 : 0" inkscape:vp_x="0 : 6 : 1" sodipodi:type="inkscape:persp3d" id="perspective4668">
		</inkscape:perspective>
</defs>
<g id="layer3" transform="matrix(48.14969,0,0,48.14969,-536.27327,-33.306752)" inkscape:label="Layout" display="none">
	<rect id="rect4134" x="1" y="1" display="inline" fill="none" stroke="#757575" stroke-width="0.1" width="10" height="10"/>
	<rect id="rect4136" x="2" y="2" display="inline" fill="none" stroke="#757575" stroke-width="0.1" width="8" height="8"/>
</g>
<g id="g3338" transform="matrix(1.3973279,-0.2437849,0.2437849,1.3973279,-185.07402,-56.183307)">
</g>
<path id="path7112" sodipodi:type="arc" sodipodi:ry="180.10646" sodipodi:rx="180.10646" sodipodi:cy="326.11499" sodipodi:cx="277.75455" fill="none" stroke="#93278F" stroke-width="1.8116" stroke-linecap="round" stroke-linejoin="round" d="
	M299.145,274.652c0,2.226-1.804,4.03-4.03,4.03s-4.03-1.804-4.03-4.03c0-2.227,1.804-4.031,4.03-4.031
	S299.145,272.425,299.145,274.652z"/>
<g id="g7124" transform="matrix(1.3954028,0,0,1.3954028,-121.6059,-34.815923)" opacity="0.4">
	<path id="path7114" sodipodi:nodetypes="cccccc" fill="#FFFFFF" stroke="#FFFFFF" stroke-width="0.3481" d="M297.387,219.007
		l-1.215-2.255l1.517-0.994h1.455l0.131,3.022L297.387,219.007z"/>
	<path id="path7116" sodipodi:nodetypes="cccccc" fill="#FFFFFF" stroke="#FFFFFF" stroke-width="0.3481" d="M299.9,219.007
		l1.214-2.255l-1.517-0.994h-1.695l0.108,3.022L299.9,219.007z"/>
</g>
<path id="path7951" opacity="0.6" fill="none" stroke="#93278F" stroke-width="0.4858" enable-background="new    " d="
	M293.789,266.254l-2.115,1.387l1.694,3.146l1.754-0.211l1.754,0.211l1.694-3.146l-2.116-1.387h-0.634h-1.731H293.789z"/>
<path id="path7960" sodipodi:nodetypes="cccccccc" opacity="0.6" fill="none" stroke="#93278F" stroke-width="0.4858" stroke-linejoin="bevel" enable-background="new    " d="
	M293.789,267.989l-2.115-0.348l1.694,3.146l1.754-0.211l1.754,0.211l1.694-3.146l-2.116,0.348H293.789z"/>
<path id="path7962" sodipodi:nodetypes="cccccccc" opacity="0.6" fill="none" stroke="#93278F" stroke-width="0.4858" enable-background="new    " d="
	M293.756,267.988l-0.388,2.799l1.754-0.211l1.754,0.211l-0.3-2.784l-0.209-1.749h-2.452L293.756,267.988z"/>
</svg>
