<?xml version="1.0" encoding="UTF-8" standalone="no"?>
<!-- Created with Inkscape (http://www.inkscape.org/) -->

<svg
   xmlns:dc="http://purl.org/dc/elements/1.1/"
   xmlns:cc="http://creativecommons.org/ns#"
   xmlns:rdf="http://www.w3.org/1999/02/22-rdf-syntax-ns#"
   xmlns:svg="http://www.w3.org/2000/svg"
   xmlns="http://www.w3.org/2000/svg"
   version="1.1"
   width="100%"
   height="100%"
   viewBox="0 0 18 18"
   id="svg2">
  <metadata
     id="metadata8">
    <rdf:RDF>
      <cc:Work
         rdf:about="">
        <dc:format>image/svg+xml</dc:format>
        <dc:type
           rdf:resource="http://purl.org/dc/dcmitype/StillImage" />
        <dc:title></dc:title>
      </cc:Work>
    </rdf:RDF>
  </metadata>
  <defs
     id="defs6" />
  <rect
     width="18"
     height="18"
     x="0"
     y="0"
     id="canvas"
     style="fill:none;stroke:none;visibility:hidden" />
  <g
     id="jewish">
    <path
       d="M 9.03125,2.3435 7,5.87475 l -4,0 2,3.5 -2,3.5 4,0 2.03125,3.53125 2,-3.53125 3.96875,0 -1.96875,-3.5 1.96875,-3.5 -3.96875,0 -2,-3.53125 z m 0,2.5 0.59375,1.03125 -1.1875,0 L 9.03125,4.8435 z M 5.125,7.031 l 1.21875,0 -0.625,1.0625 L 5.125,7.031 z m 2.65625,0 2.5,0 1.3125,2.34375 -1.3125,2.34375 -2.5,0 L 6.46875,9.37475 7.78125,7.031 z m 3.90625,0 1.25,0 -0.625,1.09375 -0.625,-1.09375 z m 0.625,3.59375 0.625,1.09375 -1.25,0 0.625,-1.09375 z m -6.59375,0.03125 0.625,1.0625 -1.21875,0 0.59375,-1.0625 z m 2.71875,2.21875 1.1875,0 L 9.03125,13.906 8.4375,12.87475 z"
       id="halo"
       style="opacity:0.3;fill:#ffffff;fill-opacity:1;stroke:#ffffff;stroke-width:2;stroke-miterlimit:4;stroke-opacity:1;stroke-dasharray:none" />
    <path
       d="M 9.03125,2.3435 7,5.87475 l -4,0 2,3.5 -2,3.5 4,0 2.03125,3.53125 2,-3.53125 3.96875,0 -1.96875,-3.5 1.96875,-3.5 -3.96875,0 -2,-3.53125 z m 0,2.5 0.59375,1.03125 -1.1875,0 L 9.03125,4.8435 z M 5.125,7.031 l 1.21875,0 -0.625,1.0625 L 5.125,7.031 z m 2.65625,0 2.5,0 1.3125,2.34375 -1.3125,2.34375 -2.5,0 L 6.46875,9.37475 7.78125,7.031 z m 3.90625,0 1.25,0 -0.625,1.09375 -0.625,-1.09375 z m 0.625,3.59375 0.625,1.09375 -1.25,0 0.625,-1.09375 z m -6.59375,0.03125 0.625,1.0625 -1.21875,0 0.59375,-1.0625 z m 2.71875,2.21875 1.1875,0 L 9.03125,13.906 8.4375,12.87475 z"
       id="icon"
       style="fill:#1a1a1a;fill-opacity:1;stroke:none" />
  </g>
</svg>
