<?xml version="1.0" encoding="UTF-8" standalone="no"?>
<!-- Created with Inkscape (http://www.inkscape.org/) -->

<svg
   xmlns="http://www.w3.org/2000/svg"
   version="1.1"
   width="14"
   height="14"
   viewBox="0 0 14 14">
  <rect
     width="14"
     height="14"
     x="0"
     y="0"
     id="canvas"
     style="fill:none;stroke:none;visibility:hidden" />
  <path
     d="M 7.03125,0 5,3.46875 l -4,0 2,3.5 -2,3.5 4,0 L 7.03125,14 l 2,-3.53125 3.96875,0 -1.96875,-3.5 1.96875,-3.5 -3.96875,0 z m 0,2.4375 0.59375,1.03125 -1.1875,0 z M 3.125,4.625 l 1.21875,0 -0.625,1.0625 z m 2.65625,0 2.5,0 1.3125,2.34375 -1.3125,2.34375 -2.5,0 -1.3125,-2.34375 z m 3.90625,0 1.25,0 -0.625,1.09375 z m 0.625,3.59375 0.625,1.09375 -1.25,0 z M 3.71875,8.25 l 0.625,1.0625 -1.21875,0 z m 2.71875,2.21875 1.1875,0 L 7.03125,11.5 z"
     id="jewish" />
</svg>
