<?xml version="1.0" encoding="utf-8"?>
<!-- Generator: Adobe Illustrator 14.0.0, SVG Export Plug-In . SVG Version: 6.00 Build 43363)  -->
<!DOCTYPE svg PUBLIC "-//W3C//DTD SVG 1.1//EN" "http://www.w3.org/Graphics/SVG/1.1/DTD/svg11.dtd">
<svg version="1.1"
	 id="svg2" xmlns:rdf="http://www.w3.org/1999/02/22-rdf-syntax-ns#" sodipodi:docname="shopping_laundrette.svg" inkscape:version="0.48.0 r9654" xmlns:svg="http://www.w3.org/2000/svg" xmlns:sodipodi="http://sodipodi.sourceforge.net/DTD/sodipodi-0.dtd" xmlns:inkscape="http://www.inkscape.org/namespaces/inkscape" xmlns:dc="http://purl.org/dc/elements/1.1/" sodipodi:version="0.32" xmlns:cc="http://creativecommons.org/ns#" inkscape:output_extension="org.inkscape.output.svg.inkscape"
	 xmlns="http://www.w3.org/2000/svg" xmlns:xlink="http://www.w3.org/1999/xlink" x="0px" y="0px" width="580px" height="580px"
	 viewBox="0 0 580 580" enable-background="new 0 0 580 580" xml:space="preserve">
<path id="path7099" fill="#FFFFFF" stroke="#93278F" stroke-width="0.6287" stroke-linecap="round" stroke-linejoin="round" enable-background="new    " d="
	M282.151,286.066v13.648h12.354v-13.648H282.151z M288.258,290.047c1.657,0,3,1.346,3,3.002s-1.344,3.001-3,3.001
	s-3.002-1.345-3.002-3.001S286.602,290.047,288.258,290.047z"/>
<sodipodi:namedview  showgrid="false" inkscape:current-layer="svg2" inkscape:window-y="24" inkscape:window-x="0" inkscape:cy="963.87757" inkscape:cx="978.97337" inkscape:zoom="0.23041928" pagecolor="#ffffff" bordercolor="#666666" borderopacity="1.0" objecttolerance="10.0" gridtolerance="10.0" guidetolerance="10.0" inkscape:window-height="978" inkscape:window-width="1400" inkscape:pageshadow="2" inkscape:pageopacity="0.0" inkscape:window-maximized="0" id="base">
	</sodipodi:namedview>
<defs>
	
	
		<inkscape:perspective  inkscape:persp3d-origin="290 : 193.33333 : 1" inkscape:vp_z="580 : 290 : 1" inkscape:vp_y="6.1230318e-14 : 1000 : 0" inkscape:vp_x="0 : 290 : 1" sodipodi:type="inkscape:persp3d" id="perspective2441">
		</inkscape:perspective>
	
		<inkscape:perspective  inkscape:persp3d-origin="30 : 20 : 1" inkscape:vp_z="60 : 30 : 1" inkscape:vp_y="0 : 1000 : 0" inkscape:vp_x="0 : 30 : 1" sodipodi:type="inkscape:persp3d" id="perspective3452">
		</inkscape:perspective>
	
		<inkscape:perspective  inkscape:persp3d-origin="372.04724 : 350.78739 : 1" inkscape:vp_z="744.09448 : 526.18109 : 1" inkscape:vp_y="0 : 1000 : 0" inkscape:vp_x="0 : 526.18109 : 1" sodipodi:type="inkscape:persp3d" id="perspective4471">
		</inkscape:perspective>
	
		<inkscape:perspective  inkscape:persp3d-origin="6 : 4 : 1" inkscape:vp_z="12 : 6 : 1" inkscape:vp_y="0 : 1000 : 0" inkscape:vp_x="0 : 6 : 1" sodipodi:type="inkscape:persp3d" id="perspective4668">
		</inkscape:perspective>
</defs>
<g id="layer3" transform="matrix(48.14969,0,0,48.14969,-536.27327,-33.306752)" inkscape:label="Layout" display="none">
	<rect id="rect4134" x="1" y="1" display="inline" fill="none" stroke="#757575" stroke-width="0.1" width="10" height="10"/>
	<rect id="rect4136" x="2" y="2" display="inline" fill="none" stroke="#757575" stroke-width="0.1" width="8" height="8"/>
</g>
<g id="g3338" transform="matrix(1.3973279,-0.2437849,0.2437849,1.3973279,-185.07402,-56.183307)">
</g>
<path id="rect7039" fill="none" stroke="#93278F" stroke-width="0.6287" stroke-linecap="round" stroke-linejoin="round" d="
	M282.151,286.066v13.648h12.354v-13.648H282.151z M288.258,290.047c1.657,0,3,1.346,3,3.002s-1.344,3.001-3,3.001
	s-3.002-1.345-3.002-3.001S286.602,290.047,288.258,290.047z"/>
<g id="g7055" transform="matrix(1.0477726,0,0,1.0477726,-9.5831747,-13.991926)">
	
		<path id="path7043" sodipodi:type="arc" sodipodi:ry="95.478119" sodipodi:rx="95.478119" sodipodi:cy="276.20596" sodipodi:cx="277.75455" fill="none" stroke="#93278F" stroke-width="0.6" stroke-linecap="round" stroke-linejoin="round" d="
		M287.125,293.041c0,1.582-1.282,2.864-2.864,2.864c-1.582,0-2.864-1.282-2.864-2.864c0-1.583,1.282-2.865,2.864-2.865
		C285.843,290.177,287.125,291.459,287.125,293.041z"/>
	<path id="path7045" sodipodi:nodetypes="cc" fill="none" stroke="#93278F" stroke-width="0.56" stroke-linecap="round" d="
		M281.522,291.61v2.993"/>
	<path id="path7047" fill="none" stroke="#93278F" stroke-width="1.194" stroke-linecap="round" stroke-linejoin="round" d="
		M286.901,293.106h-0.597"/>
</g>
<path id="path7049" sodipodi:type="arc" sodipodi:ry="10.849787" sodipodi:rx="10.849787" sodipodi:cy="124.30897" sodipodi:cx="340.68329" fill="none" stroke="#93278F" stroke-width="0.75" stroke-linecap="round" stroke-linejoin="round" d="
	M291.46,287.646c0,0.153-0.124,0.278-0.277,0.278s-0.277-0.125-0.277-0.278s0.124-0.278,0.277-0.278S291.46,287.493,291.46,287.646
	L291.46,287.646z"/>
<path id="path7051" sodipodi:type="arc" sodipodi:ry="10.849787" sodipodi:rx="10.849787" sodipodi:cy="124.30897" sodipodi:cx="340.68329" fill="none" stroke="#93278F" stroke-width="0.75" stroke-linecap="round" stroke-linejoin="round" d="
	M293.179,287.646c0,0.153-0.124,0.278-0.277,0.278s-0.278-0.125-0.278-0.278s0.125-0.278,0.278-0.278
	S293.179,287.493,293.179,287.646L293.179,287.646z"/>
<path id="path7053" sodipodi:type="arc" sodipodi:ry="10.849787" sodipodi:rx="10.849787" sodipodi:cy="124.30897" sodipodi:cx="340.68329" fill="none" stroke="#93278F" stroke-width="0.75" stroke-linecap="round" stroke-linejoin="round" d="
	M289.742,287.646c0,0.153-0.125,0.278-0.278,0.278s-0.278-0.125-0.278-0.278s0.125-0.278,0.278-0.278
	S289.742,287.493,289.742,287.646L289.742,287.646z"/>
</svg>
