<?xml version="1.0" encoding="UTF-8" standalone="no"?>
<!-- Created with Inkscape (http://www.inkscape.org/) -->

<svg
   xmlns:dc="http://purl.org/dc/elements/1.1/"
   xmlns:cc="http://creativecommons.org/ns#"
   xmlns:rdf="http://www.w3.org/1999/02/22-rdf-syntax-ns#"
   xmlns:svg="http://www.w3.org/2000/svg"
   xmlns="http://www.w3.org/2000/svg"
   version="1.1"
   width="100%"
   height="100%"
   viewBox="0 0 14 14"
   id="svg2">
  <defs
     id="defs3053" />
  <metadata
     id="metadata8">
    <rdf:RDF>
      <cc:Work
         rdf:about="">
        <dc:format>image/svg+xml</dc:format>
        <dc:type
           rdf:resource="http://purl.org/dc/dcmitype/StillImage" />
        <dc:title></dc:title>
      </cc:Work>
    </rdf:RDF>
  </metadata>
  <rect
     width="14"
     height="14"
     x="0"
     y="0"
     id="canvas"
     style="fill:none;stroke:none;visibility:hidden" />
  <path
     d="m 8.3484087,7.8911223 a 1.477387,1.442211 0 0 1 -3.19e-5,0.00947"
     id="path3855"
     style="fill:#000000;fill-opacity:1;fill-rule:evenodd;stroke:none" />
  <path
     d="M 20,6.5 C 20,7.8807119 18.880712,9 17.5,9 16.119509,9 15.000312,7.8810564 15,6.5005654 M 11.5,-2 l 0,14 12,0 0,-14 -12,0 z m 2,1 5,0 0,2 -5,0 0,-2 z m 7,0 2,0 0,2 -2,0 0,-2 z m -3,4 c 1.60466,0 3.01542,1.0999131 3.40625,2.65625 L 21,6.5 C 21,8.432997 19.432997,10 17.5,10 15.567003,10 14,8.432997 14,6.5 14,4.5670034 15.567003,3 17.5,3 z"
     transform="translate(-10.5,2)"
     id="path3051"
     style="fill:#000000;fill-opacity:1;fill-rule:evenodd;stroke:none" />
</svg>
