<?xml version="1.0" encoding="UTF-8" standalone="no"?>
<svg
   xmlns:dc="http://purl.org/dc/elements/1.1/"
   xmlns:cc="http://creativecommons.org/ns#"
   xmlns:rdf="http://www.w3.org/1999/02/22-rdf-syntax-ns#"
   xmlns:svg="http://www.w3.org/2000/svg"
   xmlns="http://www.w3.org/2000/svg"
   version="1.1"
   height="256"
   width="256"
   id="Svg">
  <metadata
     id="metadata330">
    <rdf:RDF>
      <cc:Work
         rdf:about="">
        <dc:format>image/svg+xml</dc:format>
        <dc:type
           rdf:resource="http://purl.org/dc/dcmitype/StillImage" />
      </cc:Work>
    </rdf:RDF>
  </metadata>
  <defs
     id="defs3" />
  <path
     id="path5241"
     d="M 151 0 L 151 1 L 154 1 L 154 5 L 155 5 L 155 1 L 158 1 L 158 0 L 157 0 L 152 0 L 151 0 z M 190 0 L 190 3 L 191 3 L 191 0 L 190 0 z M 248 0 L 248 1 L 249 1 L 249 0 L 248 0 z M 116 4 L 113 12 L 113 13 L 116 13 L 116 17 L 117 17 L 117 13 L 120 13 L 120 12 L 117 4 L 116 4 z M 116.5 5 L 119 12 L 114 12 L 116.5 5 z M 50 6 L 47 14 L 47 15 L 50 15 L 50 19 L 51 19 L 51 15 L 54 15 L 54 14 L 51 6 L 50 6 z M 50.5 7 L 53 14 L 48 14 L 50.5 7 z M 13 11 L 10 19 L 10 20 L 13 20 L 13 24 L 14 24 L 14 20 L 17 20 L 17 19 L 14 11 L 13 11 z M 13.5 12 L 16 19 L 11 19 L 13.5 12 z M 215 12 L 212 20 L 212 21 L 215 21 L 215 25 L 216 25 L 216 21 L 219 21 L 219 20 L 216 12 L 215 12 z M 215.5 13 L 218 20 L 213 20 L 215.5 13 z M 178 18 L 175 26 L 175 27 L 178 27 L 178 31 L 179 31 L 179 27 L 182 27 L 182 26 L 179 18 L 178 18 z M 76 19 L 73 27 L 73 28 L 76 28 L 76 32 L 77 32 L 77 28 L 80 28 L 80 27 L 77 19 L 76 19 z M 178.5 19 L 181 26 L 176 26 L 178.5 19 z M 76.5 20 L 79 27 L 74 27 L 76.5 20 z M 137 22 L 134 30 L 134 31 L 137 31 L 137 35 L 138 35 L 138 31 L 141 31 L 141 30 L 138 22 L 137 22 z M 137.5 23 L 140 30 L 135 30 L 137.5 23 z M 241 28 L 238 36 L 238 37 L 241 37 L 241 41 L 242 41 L 242 37 L 245 37 L 245 36 L 242 28 L 241 28 z M 241.5 29 L 244 36 L 239 36 L 241.5 29 z M 45 39 L 42 47 L 42 48 L 45 48 L 45 52 L 46 52 L 46 48 L 49 48 L 49 47 L 46 39 L 45 39 z M 45.5 40 L 48 47 L 43 47 L 45.5 40 z M 113 41 L 110 49 L 110 50 L 113 50 L 113 54 L 114 54 L 114 50 L 117 50 L 117 49 L 114 41 L 113 41 z M 113.5 42 L 116 49 L 111 49 L 113.5 42 z M 156 44 L 153 52 L 153 53 L 156 53 L 156 57 L 157 57 L 157 53 L 160 53 L 160 52 L 157 44 L 156 44 z M 156.5 45 L 159 52 L 154 52 L 156.5 45 z M 220 46 L 217 54 L 217 55 L 220 55 L 220 59 L 221 59 L 221 55 L 224 55 L 224 54 L 221 46 L 220 46 z M 220.5 47 L 223 54 L 218 54 L 220.5 47 z M 74 48 L 71 56 L 71 57 L 74 57 L 74 61 L 75 61 L 75 57 L 78 57 L 78 56 L 75 48 L 74 48 z M 10 49 L 7 57 L 7 58 L 10 58 L 10 62 L 11 62 L 11 58 L 14 58 L 14 57 L 11 49 L 10 49 z M 74.5 49 L 77 56 L 72 56 L 74.5 49 z M 10.5 50 L 13 57 L 8 57 L 10.5 50 z M 182 53 L 179 61 L 179 62 L 182 62 L 182 66 L 183 66 L 183 62 L 186 62 L 186 61 L 183 53 L 182 53 z M 182.5 54 L 185 61 L 180 61 L 182.5 54 z M 35 68 L 32 76 L 32 77 L 35 77 L 35 81 L 36 81 L 36 77 L 39 77 L 39 76 L 36 68 L 35 68 z M 35.5 69 L 38 76 L 33 76 L 35.5 69 z M 101 69 L 98 77 L 98 78 L 101 78 L 101 82 L 102 82 L 102 78 L 105 78 L 105 77 L 102 69 L 101 69 z M 101.5 70 L 104 77 L 99 77 L 101.5 70 z M 134 71 L 131 79 L 131 80 L 134 80 L 134 84 L 135 84 L 135 80 L 138 80 L 138 79 L 135 71 L 134 71 z M 134.5 72 L 137 79 L 132 79 L 134.5 72 z M 207 75 L 204 83 L 204 84 L 207 84 L 207 88 L 208 88 L 208 84 L 211 84 L 211 83 L 208 75 L 207 75 z M 207.5 76 L 210 83 L 205 83 L 207.5 76 z M 164 79 L 161 87 L 161 88 L 164 88 L 164 92 L 165 92 L 165 88 L 168 88 L 168 87 L 165 79 L 164 79 z M 164.5 80 L 167 87 L 162 87 L 164.5 80 z M 74 82 L 71 90 L 71 91 L 74 91 L 74 95 L 75 95 L 75 91 L 78 91 L 78 90 L 75 82 L 74 82 z M 74.5 83 L 77 90 L 72 90 L 74.5 83 z M 237 85 L 234 93 L 234 94 L 237 94 L 237 98 L 238 98 L 238 94 L 241 94 L 241 93 L 238 85 L 237 85 z M 11 86 L 8 94 L 8 95 L 11 95 L 11 99 L 12 99 L 12 95 L 15 95 L 15 94 L 12 86 L 11 86 z M 237.5 86 L 240 93 L 235 93 L 237.5 86 z M 11.5 87 L 14 94 L 9 94 L 11.5 87 z M 186 100 L 183 108 L 183 109 L 186 109 L 186 113 L 187 113 L 187 109 L 190 109 L 190 108 L 187 100 L 186 100 z M 48 101 L 45 109 L 45 110 L 48 110 L 48 114 L 49 114 L 49 110 L 52 110 L 52 109 L 49 101 L 48 101 z M 110 101 L 107 109 L 107 110 L 110 110 L 110 114 L 111 114 L 111 110 L 114 110 L 114 109 L 111 101 L 110 101 z M 186.5 101 L 189 108 L 184 108 L 186.5 101 z M 48.5 102 L 51 109 L 46 109 L 48.5 102 z M 110.5 102 L 113 109 L 108 109 L 110.5 102 z M 146 107 L 143 115 L 143 116 L 146 116 L 146 120 L 147 120 L 147 116 L 150 116 L 150 115 L 147 107 L 146 107 z M 146.5 108 L 149 115 L 144 115 L 146.5 108 z M 216 110 L 213 118 L 213 119 L 216 119 L 216 123 L 217 123 L 217 119 L 220 119 L 220 118 L 217 110 L 216 110 z M 82 111 L 79 119 L 79 120 L 82 120 L 82 124 L 83 124 L 83 120 L 86 120 L 86 119 L 83 111 L 82 111 z M 216.5 111 L 219 118 L 214 118 L 216.5 111 z M 82.5 112 L 85 119 L 80 119 L 82.5 112 z M 18 113 L 15 121 L 15 122 L 18 122 L 18 126 L 19 126 L 19 122 L 22 122 L 22 121 L 19 113 L 18 113 z M 18.5 114 L 21 121 L 16 121 L 18.5 114 z M 245 123 L 242 131 L 242 132 L 245 132 L 245 136 L 246 136 L 246 132 L 249 132 L 249 131 L 246 123 L 245 123 z M 245.5 124 L 248 131 L 243 131 L 245.5 124 z M 168 125 L 165 133 L 165 134 L 168 134 L 168 138 L 169 138 L 169 134 L 172 134 L 172 133 L 169 125 L 168 125 z M 168.5 126 L 171 133 L 166 133 L 168.5 126 z M 114 132 L 111 140 L 111 141 L 114 141 L 114 145 L 115 145 L 115 141 L 118 141 L 118 140 L 115 132 L 114 132 z M 39 133 L 36 141 L 36 142 L 39 142 L 39 146 L 40 146 L 40 142 L 43 142 L 43 141 L 40 133 L 39 133 z M 114.5 133 L 117 140 L 112 140 L 114.5 133 z M 39.5 134 L 42 141 L 37 141 L 39.5 134 z M 202 139 L 199 147 L 199 148 L 202 148 L 202 152 L 203 152 L 203 148 L 206 148 L 206 147 L 203 139 L 202 139 z M 202.5 140 L 205 147 L 200 147 L 202.5 140 z M 82 145 L 79 153 L 79 154 L 82 154 L 82 158 L 83 158 L 83 154 L 86 154 L 86 153 L 83 145 L 82 145 z M 82.5 146 L 85 153 L 80 153 L 82.5 146 z M 228 149 L 225 157 L 225 158 L 228 158 L 228 162 L 229 162 L 229 158 L 232 158 L 232 157 L 229 149 L 228 149 z M 11 150 L 8 158 L 8 159 L 11 159 L 11 163 L 12 163 L 12 159 L 15 159 L 15 158 L 12 150 L 11 150 z M 146 150 L 143 158 L 143 159 L 146 159 L 146 163 L 147 163 L 147 159 L 150 159 L 150 158 L 147 150 L 146 150 z M 228.5 150 L 231 157 L 226 157 L 228.5 150 z M 11.5 151 L 14 158 L 9 158 L 11.5 151 z M 146.5 151 L 149 158 L 144 158 L 146.5 151 z M 54 156 L 51 164 L 51 165 L 54 165 L 54 169 L 55 169 L 55 165 L 58 165 L 58 164 L 55 156 L 54 156 z M 54.5 157 L 57 164 L 52 164 L 54.5 157 z M 176 160 L 173 168 L 173 169 L 176 169 L 176 173 L 177 173 L 177 169 L 180 169 L 180 168 L 177 160 L 176 160 z M 176.5 161 L 179 168 L 174 168 L 176.5 161 z M 117 164 L 114 172 L 114 173 L 117 173 L 117 177 L 118 177 L 118 173 L 121 173 L 121 172 L 118 164 L 117 164 z M 117.5 165 L 120 172 L 115 172 L 117.5 165 z M 209 174 L 206 182 L 206 183 L 209 183 L 209 187 L 210 187 L 210 183 L 213 183 L 213 182 L 210 174 L 209 174 z M 87 175 L 84 183 L 84 184 L 87 184 L 87 188 L 88 188 L 88 184 L 91 184 L 91 183 L 88 175 L 87 175 z M 209.5 175 L 212 182 L 207 182 L 209.5 175 z M 26 176 L 23 184 L 23 185 L 26 185 L 26 189 L 27 189 L 27 185 L 30 185 L 30 184 L 27 176 L 26 176 z M 87.5 176 L 90 183 L 85 183 L 87.5 176 z M 26.5 177 L 29 184 L 24 184 L 26.5 177 z M 251 180 L 248 188 L 248 189 L 251 189 L 251 193 L 252 193 L 252 189 L 255 189 L 255 188 L 252 180 L 251 180 z M 251.5 181 L 254 188 L 249 188 L 251.5 181 z M 146 185 L 143 193 L 143 194 L 146 194 L 146 198 L 147 198 L 147 194 L 150 194 L 150 193 L 147 185 L 146 185 z M 146.5 186 L 149 193 L 144 193 L 146.5 186 z M 177 189 L 174 197 L 174 198 L 177 198 L 177 202 L 178 202 L 178 198 L 181 198 L 181 197 L 178 189 L 177 189 z M 177.5 190 L 180 197 L 175 197 L 177.5 190 z M 57 194 L 54 202 L 54 203 L 57 203 L 57 207 L 58 207 L 58 203 L 61 203 L 61 202 L 58 194 L 57 194 z M 57.5 195 L 60 202 L 55 202 L 57.5 195 z M 113 196 L 110 204 L 110 205 L 113 205 L 113 209 L 114 209 L 114 205 L 117 205 L 117 204 L 114 196 L 113 196 z M 113.5 197 L 116 204 L 111 204 L 113.5 197 z M 234 205 L 231 213 L 231 214 L 234 214 L 234 218 L 235 218 L 235 214 L 238 214 L 238 213 L 235 205 L 234 205 z M 234.5 206 L 237 213 L 232 213 L 234.5 206 z M 15 207 L 12 215 L 12 216 L 15 216 L 15 220 L 16 220 L 16 216 L 19 216 L 19 215 L 16 207 L 15 207 z M 15.5 208 L 18 215 L 13 215 L 15.5 208 z M 203 208 L 200 216 L 200 217 L 203 217 L 203 221 L 204 221 L 204 217 L 207 217 L 207 216 L 204 208 L 203 208 z M 203.5 209 L 206 216 L 201 216 L 203.5 209 z M 79 211 L 76 219 L 76 220 L 79 220 L 79 224 L 80 224 L 80 220 L 83 220 L 83 219 L 80 211 L 79 211 z M 79.5 212 L 82 219 L 77 219 L 79.5 212 z M 139 214 L 136 222 L 136 223 L 139 223 L 139 227 L 140 227 L 140 223 L 143 223 L 143 222 L 140 214 L 139 214 z M 139.5 215 L 142 222 L 137 222 L 139.5 215 z M 45 220 L 42 228 L 42 229 L 45 229 L 45 233 L 46 233 L 46 229 L 49 229 L 49 228 L 46 220 L 45 220 z M 45.5 221 L 48 228 L 43 228 L 45.5 221 z M 169 223 L 166 231 L 166 232 L 169 232 L 169 236 L 170 236 L 170 232 L 173 232 L 173 231 L 170 223 L 169 223 z M 169.5 224 L 172 231 L 167 231 L 169.5 224 z M 107 234 L 104 242 L 104 243 L 107 243 L 107 247 L 108 247 L 108 243 L 111 243 L 111 242 L 108 234 L 107 234 z M 107.5 235 L 110 242 L 105 242 L 107.5 235 z M 218 238 L 215 246 L 215 247 L 218 247 L 218 251 L 219 251 L 219 247 L 222 247 L 222 246 L 219 238 L 218 238 z M 218.5 239 L 221 246 L 216 246 L 218.5 239 z M 22 240 L 19 248 L 19 249 L 22 249 L 22 253 L 23 253 L 23 249 L 26 249 L 26 248 L 23 240 L 22 240 z M 22.5 241 L 25 248 L 20 248 L 22.5 241 z M 81 242 L 78 250 L 78 251 L 81 251 L 81 255 L 82 255 L 82 251 L 85 251 L 85 250 L 82 242 L 81 242 z M 81.5 243 L 84 250 L 79 250 L 81.5 243 z M 248 244 L 245 252 L 245 253 L 248 253 L 248 256 L 249 256 L 249 253 L 252 253 L 252 252 L 249 244 L 248 244 z M 248.5 245 L 251 252 L 246 252 L 248.5 245 z M 190 246 L 187 254 L 187 255 L 190 255 L 190 256 L 191 256 L 191 255 L 194 255 L 194 254 L 191 246 L 190 246 z M 190.5 247 L 193 254 L 188 254 L 190.5 247 z M 154 248 L 151 256 L 152 256 L 154.5 249 L 157 256 L 158 256 L 155 248 L 154 248 z "
     style="fill:#6b8d5e" />
  <rect
     style="fill:none;fill-opacity:1;stroke:none"
     id="rect8566"
     y="0"
     x="0"
     rx="0"
     height="256"
     width="256" />
  <desc
     id="desc326">Created with Snap</desc>
</svg>
