<?xml version="1.0" encoding="UTF-8" standalone="no"?>
<svg
   xmlns:dc="http://purl.org/dc/elements/1.1/"
   xmlns:cc="http://creativecommons.org/ns#"
   xmlns:rdf="http://www.w3.org/1999/02/22-rdf-syntax-ns#"
   xmlns:svg="http://www.w3.org/2000/svg"
   xmlns="http://www.w3.org/2000/svg"
   version="1.1"
   height="512"
   width="512"
   id="Svg">
  <metadata
     id="metadata937">
    <rdf:RDF>
      <cc:Work
         rdf:about="">
        <dc:format>image/svg+xml</dc:format>
        <dc:type
           rdf:resource="http://purl.org/dc/dcmitype/StillImage" />
      </cc:Work>
    </rdf:RDF>
  </metadata>
  <defs
     id="defs3" />
  <path
     id="path10046"
     d="M 4.6660156 0 L 3 5 L 3 6 L 5 6 L 5 9 L 6 9 L 6 6 L 8 6 L 8 5 L 6.3339844 0 L 5.5 0 L 7 5 L 4 5 L 5.5 0 L 4.6660156 0 z M 8.6367188 0 A 2.5 3 0 0 0 10 4.9375 L 10 9 L 11 9 L 11 4.9355469 A 2.5 3 0 0 0 12.359375 0 L 10.5 0 A 1.5 2 0 0 1 10.5 4 A 1.5 2 0 0 1 10.5 0 L 8.6367188 0 z M 87.5 0 A 2.5 3 0 0 0 87 5.9375 L 87 10 L 88 10 L 88 5.9355469 A 2.5 3 0 0 0 87.5 0 z M 92 0 L 90 6 L 90 7 L 92 7 L 92 10 L 93 10 L 93 7 L 95 7 L 95 6 L 93 0 L 92 0 z M 127.14453 0 A 2.5 3 0 0 0 129 3.9375 L 129 8 L 130 8 L 130 3.9355469 A 2.5 3 0 0 0 131.85352 0 L 130.79883 0 A 1.5 2 0 0 1 129.5 3 A 1.5 2 0 0 1 128.20312 0 L 127.14453 0 z M 133.33398 0 L 132 4 L 132 5 L 134 5 L 134 8 L 135 8 L 135 5 L 137 5 L 137 4 L 135.66602 0 L 134.80078 0 L 136 4 L 133 4 L 134.19922 0 L 133.33398 0 z M 198.14453 0 A 2.5 3 0 0 0 200 3.9375 L 200 8 L 201 8 L 201 3.9355469 A 2.5 3 0 0 0 202.85352 0 L 201.79883 0 A 1.5 2 0 0 1 200.5 3 A 1.5 2 0 0 1 199.20312 0 L 198.14453 0 z M 204.33398 0 L 203 4 L 203 5 L 205 5 L 205 8 L 206 8 L 206 5 L 208 5 L 208 4 L 206.66602 0 L 205.80078 0 L 207 4 L 204 4 L 205.19922 0 L 204.33398 0 z M 87.5 1 A 1.5 2 0 0 1 87.5 5 A 1.5 2 0 0 1 87.5 1 z M 92.5 1 L 94 6 L 91 6 L 92.5 1 z M 464 1 L 462 7 L 462 8 L 464 8 L 464 11 L 465 11 L 465 8 L 467 8 L 467 7 L 465 1 L 464 1 z M 469.5 1 A 2.5 3 0 0 0 469 6.9375 L 469 11 L 470 11 L 470 6.9355469 A 2.5 3 0 0 0 469.5 1 z M 464.5 2 L 466 7 L 463 7 L 464.5 2 z M 469.5 2 A 1.5 2 0 0 1 469.5 6 A 1.5 2 0 0 1 469.5 2 z M 342 3 L 340 9 L 340 10 L 342 10 L 342 13 L 343 13 L 343 10 L 345 10 L 345 9 L 343 3 L 342 3 z M 347.5 3 A 2.5 3 0 0 0 347 8.9375 L 347 13 L 348 13 L 348 8.9355469 A 2.5 3 0 0 0 347.5 3 z M 264.5 4 A 2.5 3 0 0 0 264 9.9375 L 264 14 L 265 14 L 265 9.9355469 A 2.5 3 0 0 0 264.5 4 z M 269 4 L 267 10 L 267 11 L 269 11 L 269 14 L 270 14 L 270 11 L 272 11 L 272 10 L 270 4 L 269 4 z M 294 4 L 292 10 L 292 11 L 294 11 L 294 14 L 295 14 L 295 11 L 297 11 L 297 10 L 295 4 L 294 4 z M 299.5 4 A 2.5 3 0 0 0 299 9.9375 L 299 14 L 300 14 L 300 9.9355469 A 2.5 3 0 0 0 299.5 4 z M 342.5 4 L 344 9 L 341 9 L 342.5 4 z M 347.5 4 A 1.5 2 0 0 1 347.5 8 A 1.5 2 0 0 1 347.5 4 z M 264.5 5 A 1.5 2 0 0 1 264.5 9 A 1.5 2 0 0 1 264.5 5 z M 269.5 5 L 271 10 L 268 10 L 269.5 5 z M 294.5 5 L 296 10 L 293 10 L 294.5 5 z M 299.5 5 A 1.5 2 0 0 1 299.5 9 A 1.5 2 0 0 1 299.5 5 z M 402 7 L 400 13 L 400 14 L 402 14 L 402 17 L 403 17 L 403 14 L 405 14 L 405 13 L 403 7 L 402 7 z M 407.5 7 A 2.5 3 0 0 0 407 12.9375 L 407 17 L 408 17 L 408 12.935547 A 2.5 3 0 0 0 407.5 7 z M 374.5 8 A 2.5 3 0 0 0 374 13.9375 L 374 18 L 375 18 L 375 13.935547 A 2.5 3 0 0 0 374.5 8 z M 379 8 L 377 14 L 377 15 L 379 15 L 379 18 L 380 18 L 380 15 L 382 15 L 382 14 L 380 8 L 379 8 z M 402.5 8 L 404 13 L 401 13 L 402.5 8 z M 407.5 8 A 1.5 2 0 0 1 407.5 12 A 1.5 2 0 0 1 407.5 8 z M 172 9 L 170 15 L 170 16 L 172 16 L 172 19 L 173 19 L 173 16 L 175 16 L 175 15 L 173 9 L 172 9 z M 177.5 9 A 2.5 3 0 0 0 177 14.9375 L 177 19 L 178 19 L 178 14.935547 A 2.5 3 0 0 0 177.5 9 z M 374.5 9 A 1.5 2 0 0 1 374.5 13 A 1.5 2 0 0 1 374.5 9 z M 379.5 9 L 381 14 L 378 14 L 379.5 9 z M 172.5 10 L 174 15 L 171 15 L 172.5 10 z M 177.5 10 A 1.5 2 0 0 1 177.5 14 A 1.5 2 0 0 1 177.5 10 z M 232 10 L 230 16 L 230 17 L 232 17 L 232 20 L 233 20 L 233 17 L 235 17 L 235 16 L 233 10 L 232 10 z M 237.5 10 A 2.5 3 0 0 0 237 15.9375 L 237 20 L 238 20 L 238 15.935547 A 2.5 3 0 0 0 237.5 10 z M 232.5 11 L 234 16 L 231 16 L 232.5 11 z M 237.5 11 A 1.5 2 0 0 1 237.5 15 A 1.5 2 0 0 1 237.5 11 z M 34 16 L 32 22 L 32 23 L 34 23 L 34 26 L 35 26 L 35 23 L 37 23 L 37 22 L 35 16 L 34 16 z M 39.5 16 A 2.5 3 0 0 0 39 21.9375 L 39 26 L 40 26 L 40 21.935547 A 2.5 3 0 0 0 39.5 16 z M 34.5 17 L 36 22 L 33 22 L 34.5 17 z M 39.5 17 A 1.5 2 0 0 1 39.5 21 A 1.5 2 0 0 1 39.5 17 z M 67.5 17 A 2.5 3 0 0 0 67 22.9375 L 67 27 L 68 27 L 68 22.935547 A 2.5 3 0 0 0 67.5 17 z M 72 17 L 70 23 L 70 24 L 72 24 L 72 27 L 73 27 L 73 24 L 75 24 L 75 23 L 73 17 L 72 17 z M 437 17 L 435 23 L 435 24 L 437 24 L 437 27 L 438 27 L 438 24 L 440 24 L 440 23 L 438 17 L 437 17 z M 442.5 17 A 2.5 3 0 0 0 442 22.9375 L 442 27 L 443 27 L 443 22.935547 A 2.5 3 0 0 0 442.5 17 z M 496.5 17 A 2.5 3 0 0 0 496 22.9375 L 496 27 L 497 27 L 497 22.935547 A 2.5 3 0 0 0 496.5 17 z M 501 17 L 499 23 L 499 24 L 501 24 L 501 27 L 502 27 L 502 24 L 504 24 L 504 23 L 502 17 L 501 17 z M 67.5 18 A 1.5 2 0 0 1 67.5 22 A 1.5 2 0 0 1 67.5 18 z M 72.5 18 L 74 23 L 71 23 L 72.5 18 z M 437.5 18 L 439 23 L 436 23 L 437.5 18 z M 442.5 18 A 1.5 2 0 0 1 442.5 22 A 1.5 2 0 0 1 442.5 18 z M 496.5 18 A 1.5 2 0 0 1 496.5 22 A 1.5 2 0 0 1 496.5 18 z M 501.5 18 L 503 23 L 500 23 L 501.5 18 z M 316.5 23 A 2.5 3 0 0 0 316 28.9375 L 316 33 L 317 33 L 317 28.935547 A 2.5 3 0 0 0 316.5 23 z M 321 23 L 319 29 L 319 30 L 321 30 L 321 33 L 322 33 L 322 30 L 324 30 L 324 29 L 322 23 L 321 23 z M 316.5 24 A 1.5 2 0 0 1 316.5 28 A 1.5 2 0 0 1 316.5 24 z M 321.5 24 L 323 29 L 320 29 L 321.5 24 z M 204 26 L 202 32 L 202 33 L 204 33 L 204 36 L 205 36 L 205 33 L 207 33 L 207 32 L 205 26 L 204 26 z M 209.5 26 A 2.5 3 0 0 0 209 31.9375 L 209 36 L 210 36 L 210 31.935547 A 2.5 3 0 0 0 209.5 26 z M 204.5 27 L 206 32 L 203 32 L 204.5 27 z M 209.5 27 A 1.5 2 0 0 1 209.5 31 A 1.5 2 0 0 1 209.5 27 z M 142 31 L 140 37 L 140 38 L 142 38 L 142 41 L 143 41 L 143 38 L 145 38 L 145 37 L 143 31 L 142 31 z M 147.5 31 A 2.5 3 0 0 0 147 36.9375 L 147 41 L 148 41 L 148 36.935547 A 2.5 3 0 0 0 147.5 31 z M 113.5 32 A 2.5 3 0 0 0 113 37.9375 L 113 42 L 114 42 L 114 37.935547 A 2.5 3 0 0 0 113.5 32 z M 118 32 L 116 38 L 116 39 L 118 39 L 118 42 L 119 42 L 119 39 L 121 39 L 121 38 L 119 32 L 118 32 z M 142.5 32 L 144 37 L 141 37 L 142.5 32 z M 147.5 32 A 1.5 2 0 0 1 147.5 36 A 1.5 2 0 0 1 147.5 32 z M 86.5 33 A 2.5 3 0 0 0 86 38.9375 L 86 43 L 87 43 L 87 38.935547 A 2.5 3 0 0 0 86.5 33 z M 91 33 L 89 39 L 89 40 L 91 40 L 91 43 L 92 43 L 92 40 L 94 40 L 94 39 L 92 33 L 91 33 z M 113.5 33 A 1.5 2 0 0 1 113.5 37 A 1.5 2 0 0 1 113.5 33 z M 118.5 33 L 120 38 L 117 38 L 118.5 33 z M 86.5 34 A 1.5 2 0 0 1 86.5 38 A 1.5 2 0 0 1 86.5 34 z M 91.5 34 L 93 39 L 90 39 L 91.5 34 z M 348.5 34 A 2.5 3 0 0 0 348 39.9375 L 348 44 L 349 44 L 349 39.935547 A 2.5 3 0 0 0 348.5 34 z M 353 34 L 351 40 L 351 41 L 353 41 L 353 44 L 354 44 L 354 41 L 356 41 L 356 40 L 354 34 L 353 34 z M 257.5 35 A 2.5 3 0 0 0 257 40.9375 L 257 45 L 258 45 L 258 40.935547 A 2.5 3 0 0 0 257.5 35 z M 262 35 L 260 41 L 260 42 L 262 42 L 262 45 L 263 45 L 263 42 L 265 42 L 265 41 L 263 35 L 262 35 z M 286.5 35 A 2.5 3 0 0 0 286 40.9375 L 286 45 L 287 45 L 287 40.935547 A 2.5 3 0 0 0 286.5 35 z M 291 35 L 289 41 L 289 42 L 291 42 L 291 45 L 292 45 L 292 42 L 294 42 L 294 41 L 292 35 L 291 35 z M 348.5 35 A 1.5 2 0 0 1 348.5 39 A 1.5 2 0 0 1 348.5 35 z M 353.5 35 L 355 40 L 352 40 L 353.5 35 z M 257.5 36 A 1.5 2 0 0 1 257.5 40 A 1.5 2 0 0 1 257.5 36 z M 262.5 36 L 264 41 L 261 41 L 262.5 36 z M 286.5 36 A 1.5 2 0 0 1 286.5 40 A 1.5 2 0 0 1 286.5 36 z M 291.5 36 L 293 41 L 290 41 L 291.5 36 z M 462 36 L 460 42 L 460 43 L 462 43 L 462 46 L 463 46 L 463 43 L 465 43 L 465 42 L 463 36 L 462 36 z M 467.5 36 A 2.5 3 0 0 0 467 41.9375 L 467 46 L 468 46 L 468 41.935547 A 2.5 3 0 0 0 467.5 36 z M 462.5 37 L 464 42 L 461 42 L 462.5 37 z M 467.5 37 A 1.5 2 0 0 1 467.5 41 A 1.5 2 0 0 1 467.5 37 z M 11 38 L 9 44 L 9 45 L 11 45 L 11 48 L 12 48 L 12 45 L 14 45 L 14 44 L 12 38 L 11 38 z M 16.5 38 A 2.5 3 0 0 0 16 43.9375 L 16 48 L 17 48 L 17 43.935547 A 2.5 3 0 0 0 16.5 38 z M 377 38 L 375 44 L 375 45 L 377 45 L 377 48 L 378 48 L 378 45 L 380 45 L 380 44 L 378 38 L 377 38 z M 382.5 38 A 2.5 3 0 0 0 382 43.9375 L 382 48 L 383 48 L 383 43.935547 A 2.5 3 0 0 0 382.5 38 z M 407.5 38 A 2.5 3 0 0 0 407 43.9375 L 407 48 L 408 48 L 408 43.935547 A 2.5 3 0 0 0 407.5 38 z M 412 38 L 410 44 L 410 45 L 412 45 L 412 48 L 413 48 L 413 45 L 415 45 L 415 44 L 413 38 L 412 38 z M 11.5 39 L 13 44 L 10 44 L 11.5 39 z M 16.5 39 A 1.5 2 0 0 1 16.5 43 A 1.5 2 0 0 1 16.5 39 z M 175 39 L 173 45 L 173 46 L 175 46 L 175 49 L 176 49 L 176 46 L 178 46 L 178 45 L 176 39 L 175 39 z M 180.5 39 A 2.5 3 0 0 0 180 44.9375 L 180 49 L 181 49 L 181 44.935547 A 2.5 3 0 0 0 180.5 39 z M 377.5 39 L 379 44 L 376 44 L 377.5 39 z M 382.5 39 A 1.5 2 0 0 1 382.5 43 A 1.5 2 0 0 1 382.5 39 z M 407.5 39 A 1.5 2 0 0 1 407.5 43 A 1.5 2 0 0 1 407.5 39 z M 412.5 39 L 414 44 L 411 44 L 412.5 39 z M 175.5 40 L 177 45 L 174 45 L 175.5 40 z M 180.5 40 A 1.5 2 0 0 1 180.5 44 A 1.5 2 0 0 1 180.5 40 z M 50.5 41 A 2.5 3 0 0 0 50 46.9375 L 50 51 L 51 51 L 51 46.935547 A 2.5 3 0 0 0 50.5 41 z M 55 41 L 53 47 L 53 48 L 55 48 L 55 51 L 56 51 L 56 48 L 58 48 L 58 47 L 56 41 L 55 41 z M 50.5 42 A 1.5 2 0 0 1 50.5 46 A 1.5 2 0 0 1 50.5 42 z M 55.5 42 L 57 47 L 54 47 L 55.5 42 z M 230.5 46 A 2.5 3 0 0 0 230 51.9375 L 230 56 L 231 56 L 231 51.935547 A 2.5 3 0 0 0 230.5 46 z M 235 46 L 233 52 L 233 53 L 235 53 L 235 56 L 236 56 L 236 53 L 238 53 L 238 52 L 236 46 L 235 46 z M 230.5 47 A 1.5 2 0 0 1 230.5 51 A 1.5 2 0 0 1 230.5 47 z M 235.5 47 L 237 52 L 234 52 L 235.5 47 z M 434.5 47 A 2.5 3 0 0 0 434 52.9375 L 434 57 L 435 57 L 435 52.935547 A 2.5 3 0 0 0 434.5 47 z M 439 47 L 437 53 L 437 54 L 439 54 L 439 57 L 440 57 L 440 54 L 442 54 L 442 53 L 440 47 L 439 47 z M 434.5 48 A 1.5 2 0 0 1 434.5 52 A 1.5 2 0 0 1 434.5 48 z M 439.5 48 L 441 53 L 438 53 L 439.5 48 z M 495.5 49 A 2.5 3 0 0 0 495 54.9375 L 495 59 L 496 59 L 496 54.935547 A 2.5 3 0 0 0 495.5 49 z M 500 49 L 498 55 L 498 56 L 500 56 L 500 59 L 501 59 L 501 56 L 503 56 L 503 55 L 501 49 L 500 49 z M 495.5 50 A 1.5 2 0 0 1 495.5 54 A 1.5 2 0 0 1 495.5 50 z M 500.5 50 L 502 55 L 499 55 L 500.5 50 z M 316 54 L 314 60 L 314 61 L 316 61 L 316 64 L 317 64 L 317 61 L 319 61 L 319 60 L 317 54 L 316 54 z M 321.5 54 A 2.5 3 0 0 0 321 59.9375 L 321 64 L 322 64 L 322 59.935547 A 2.5 3 0 0 0 321.5 54 z M 316.5 55 L 318 60 L 315 60 L 316.5 55 z M 321.5 55 A 1.5 2 0 0 1 321.5 59 A 1.5 2 0 0 1 321.5 55 z M 33 59 L 31 65 L 31 66 L 33 66 L 33 69 L 34 69 L 34 66 L 36 66 L 36 65 L 34 59 L 33 59 z M 38.5 59 A 2.5 3 0 0 0 38 64.9375 L 38 69 L 39 69 L 39 64.935547 A 2.5 3 0 0 0 38.5 59 z M 112.5 59 A 2.5 3 0 0 0 112 64.9375 L 112 69 L 113 69 L 113 64.935547 A 2.5 3 0 0 0 112.5 59 z M 117 59 L 115 65 L 115 66 L 117 66 L 117 69 L 118 69 L 118 66 L 120 66 L 120 65 L 118 59 L 117 59 z M 33.5 60 L 35 65 L 32 65 L 33.5 60 z M 38.5 60 A 1.5 2 0 0 1 38.5 64 A 1.5 2 0 0 1 38.5 60 z M 112.5 60 A 1.5 2 0 0 1 112.5 64 A 1.5 2 0 0 1 112.5 60 z M 117.5 60 L 119 65 L 116 65 L 117.5 60 z M 141 62 L 139 68 L 139 69 L 141 69 L 141 72 L 142 72 L 142 69 L 144 69 L 144 68 L 142 62 L 141 62 z M 146.5 62 A 2.5 3 0 0 0 146 67.9375 L 146 72 L 147 72 L 147 67.935547 A 2.5 3 0 0 0 146.5 62 z M 199 62 L 197 68 L 197 69 L 199 69 L 199 72 L 200 72 L 200 69 L 202 69 L 202 68 L 200 62 L 199 62 z M 204.5 62 A 2.5 3 0 0 0 204 67.9375 L 204 72 L 205 72 L 205 67.935547 A 2.5 3 0 0 0 204.5 62 z M 141.5 63 L 143 68 L 140 68 L 141.5 63 z M 146.5 63 A 1.5 2 0 0 1 146.5 67 A 1.5 2 0 0 1 146.5 63 z M 199.5 63 L 201 68 L 198 68 L 199.5 63 z M 204.5 63 A 1.5 2 0 0 1 204.5 67 A 1.5 2 0 0 1 204.5 63 z M 77.5 64 A 2.5 3 0 0 0 77 69.9375 L 77 74 L 78 74 L 78 69.935547 A 2.5 3 0 0 0 77.5 64 z M 82 64 L 80 70 L 80 71 L 82 71 L 82 74 L 83 74 L 83 71 L 85 71 L 85 70 L 83 64 L 82 64 z M 77.5 65 A 1.5 2 0 0 1 77.5 69 A 1.5 2 0 0 1 77.5 65 z M 82.5 65 L 84 70 L 81 70 L 82.5 65 z M 376.5 65 A 2.5 3 0 0 0 376 70.9375 L 376 75 L 377 75 L 377 70.935547 A 2.5 3 0 0 0 376.5 65 z M 381 65 L 379 71 L 379 72 L 381 72 L 381 75 L 382 75 L 382 72 L 384 72 L 384 71 L 382 65 L 381 65 z M 465.5 65 A 2.5 3 0 0 0 465 70.9375 L 465 75 L 466 75 L 466 70.935547 A 2.5 3 0 0 0 465.5 65 z M 470 65 L 468 71 L 468 72 L 470 72 L 470 75 L 471 75 L 471 72 L 473 72 L 473 71 L 471 65 L 470 65 z M 263.5 66 A 2.5 3 0 0 0 263 71.9375 L 263 76 L 264 76 L 264 71.935547 A 2.5 3 0 0 0 263.5 66 z M 268 66 L 266 72 L 266 73 L 268 73 L 268 76 L 269 76 L 269 73 L 271 73 L 271 72 L 269 66 L 268 66 z M 342.5 66 A 2.5 3 0 0 0 342 71.9375 L 342 76 L 343 76 L 343 71.935547 A 2.5 3 0 0 0 342.5 66 z M 347 66 L 345 72 L 345 73 L 347 73 L 347 76 L 348 76 L 348 73 L 350 73 L 350 72 L 348 66 L 347 66 z M 376.5 66 A 1.5 2 0 0 1 376.5 70 A 1.5 2 0 0 1 376.5 66 z M 381.5 66 L 383 71 L 380 71 L 381.5 66 z M 465.5 66 A 1.5 2 0 0 1 465.5 70 A 1.5 2 0 0 1 465.5 66 z M 470.5 66 L 472 71 L 469 71 L 470.5 66 z M 263.5 67 A 1.5 2 0 0 1 263.5 71 A 1.5 2 0 0 1 263.5 67 z M 268.5 67 L 270 72 L 267 72 L 268.5 67 z M 342.5 67 A 1.5 2 0 0 1 342.5 71 A 1.5 2 0 0 1 342.5 67 z M 347.5 67 L 349 72 L 346 72 L 347.5 67 z M 170.5 68 A 2.5 3 0 0 0 170 73.9375 L 170 78 L 171 78 L 171 73.935547 A 2.5 3 0 0 0 170.5 68 z M 175 68 L 173 74 L 173 75 L 175 75 L 175 78 L 176 78 L 176 75 L 178 75 L 178 74 L 176 68 L 175 68 z M 294 68 L 292 74 L 292 75 L 294 75 L 294 78 L 295 78 L 295 75 L 297 75 L 297 74 L 295 68 L 294 68 z M 299.5 68 A 2.5 3 0 0 0 299 73.9375 L 299 78 L 300 78 L 300 73.935547 A 2.5 3 0 0 0 299.5 68 z M 170.5 69 A 1.5 2 0 0 1 170.5 73 A 1.5 2 0 0 1 170.5 69 z M 175.5 69 L 177 74 L 174 74 L 175.5 69 z M 294.5 69 L 296 74 L 293 74 L 294.5 69 z M 299.5 69 A 1.5 2 0 0 1 299.5 73 A 1.5 2 0 0 1 299.5 69 z M 404.5 71 A 2.5 3 0 0 0 404 76.9375 L 404 81 L 405 81 L 405 76.935547 A 2.5 3 0 0 0 404.5 71 z M 409 71 L 407 77 L 407 78 L 409 78 L 409 81 L 410 81 L 410 78 L 412 78 L 412 77 L 410 71 L 409 71 z M 3 72 L 1 78 L 1 79 L 3 79 L 3 82 L 4 82 L 4 79 L 6 79 L 6 78 L 4 72 L 3 72 z M 8.5 72 A 2.5 3 0 0 0 8 77.9375 L 8 82 L 9 82 L 9 77.935547 A 2.5 3 0 0 0 8.5 72 z M 404.5 72 A 1.5 2 0 0 1 404.5 76 A 1.5 2 0 0 1 404.5 72 z M 409.5 72 L 411 77 L 408 77 L 409.5 72 z M 3.5 73 L 5 78 L 2 78 L 3.5 73 z M 8.5 73 A 1.5 2 0 0 1 8.5 77 A 1.5 2 0 0 1 8.5 73 z M 230.5 74 A 2.5 3 0 0 0 230 79.9375 L 230 84 L 231 84 L 231 79.935547 A 2.5 3 0 0 0 230.5 74 z M 235 74 L 233 80 L 233 81 L 235 81 L 235 84 L 236 84 L 236 81 L 238 81 L 238 80 L 236 74 L 235 74 z M 230.5 75 A 1.5 2 0 0 1 230.5 79 A 1.5 2 0 0 1 230.5 75 z M 235.5 75 L 237 80 L 234 80 L 235.5 75 z M 438.5 78 A 2.5 3 0 0 0 438 83.9375 L 438 88 L 439 88 L 439 83.935547 A 2.5 3 0 0 0 438.5 78 z M 443 78 L 441 84 L 441 85 L 443 85 L 443 88 L 444 88 L 444 85 L 446 85 L 446 84 L 444 78 L 443 78 z M 438.5 79 A 1.5 2 0 0 1 438.5 83 A 1.5 2 0 0 1 438.5 79 z M 443.5 79 L 445 84 L 442 84 L 443.5 79 z M 53.5 83 A 2.5 3 0 0 0 53 88.9375 L 53 93 L 54 93 L 54 88.935547 A 2.5 3 0 0 0 53.5 83 z M 58 83 L 56 89 L 56 90 L 58 90 L 58 93 L 59 93 L 59 90 L 61 90 L 61 89 L 59 83 L 58 83 z M 53.5 84 A 1.5 2 0 0 1 53.5 88 A 1.5 2 0 0 1 53.5 84 z M 58.5 84 L 60 89 L 57 89 L 58.5 84 z M 487.5 85 A 2.5 3 0 0 0 487 90.9375 L 487 95 L 488 95 L 488 90.935547 A 2.5 3 0 0 0 487.5 85 z M 492 85 L 490 91 L 490 92 L 492 92 L 492 95 L 493 95 L 493 92 L 495 92 L 495 91 L 493 85 L 492 85 z M 487.5 86 A 1.5 2 0 0 1 487.5 90 A 1.5 2 0 0 1 487.5 86 z M 492.5 86 L 494 91 L 491 91 L 492.5 86 z M 201 90 L 199 96 L 199 97 L 201 97 L 201 100 L 202 100 L 202 97 L 204 97 L 204 96 L 202 90 L 201 90 z M 206.5 90 A 2.5 3 0 0 0 206 95.9375 L 206 100 L 207 100 L 207 95.935547 A 2.5 3 0 0 0 206.5 90 z M 88 91 L 86 97 L 86 98 L 88 98 L 88 101 L 89 101 L 89 98 L 91 98 L 91 97 L 89 91 L 88 91 z M 93.5 91 A 2.5 3 0 0 0 93 96.9375 L 93 101 L 94 101 L 94 96.935547 A 2.5 3 0 0 0 93.5 91 z M 201.5 91 L 203 96 L 200 96 L 201.5 91 z M 206.5 91 A 1.5 2 0 0 1 206.5 95 A 1.5 2 0 0 1 206.5 91 z M 318.5 91 A 2.5 3 0 0 0 318 96.9375 L 318 101 L 319 101 L 319 96.935547 A 2.5 3 0 0 0 318.5 91 z M 323 91 L 321 97 L 321 98 L 323 98 L 323 101 L 324 101 L 324 98 L 326 98 L 326 97 L 324 91 L 323 91 z M 88.5 92 L 90 97 L 87 97 L 88.5 92 z M 93.5 92 A 1.5 2 0 0 1 93.5 96 A 1.5 2 0 0 1 93.5 92 z M 117.5 92 A 2.5 3 0 0 0 117 97.9375 L 117 102 L 118 102 L 118 97.935547 A 2.5 3 0 0 0 117.5 92 z M 122 92 L 120 98 L 120 99 L 122 99 L 122 102 L 123 102 L 123 99 L 125 99 L 125 98 L 123 92 L 122 92 z M 318.5 92 A 1.5 2 0 0 1 318.5 96 A 1.5 2 0 0 1 318.5 92 z M 323.5 92 L 325 97 L 322 97 L 323.5 92 z M 117.5 93 A 1.5 2 0 0 1 117.5 97 A 1.5 2 0 0 1 117.5 93 z M 122.5 93 L 124 98 L 121 98 L 122.5 93 z M 363.5 94 A 2.5 3 0 0 0 363 99.9375 L 363 104 L 364 104 L 364 99.935547 A 2.5 3 0 0 0 363.5 94 z M 368 94 L 366 100 L 366 101 L 368 101 L 368 104 L 369 104 L 369 101 L 371 101 L 371 100 L 369 94 L 368 94 z M 144 95 L 142 101 L 142 102 L 144 102 L 144 105 L 145 105 L 145 102 L 147 102 L 147 101 L 145 95 L 144 95 z M 149.5 95 A 2.5 3 0 0 0 149 100.9375 L 149 105 L 150 105 L 150 100.93555 A 2.5 3 0 0 0 149.5 95 z M 363.5 95 A 1.5 2 0 0 1 363.5 99 A 1.5 2 0 0 1 363.5 95 z M 368.5 95 L 370 100 L 367 100 L 368.5 95 z M 144.5 96 L 146 101 L 143 101 L 144.5 96 z M 149.5 96 A 1.5 2 0 0 1 149.5 100 A 1.5 2 0 0 1 149.5 96 z M 278 96 L 276 102 L 276 103 L 278 103 L 278 106 L 279 106 L 279 103 L 281 103 L 281 102 L 279 96 L 278 96 z M 283.5 96 A 2.5 3 0 0 0 283 101.9375 L 283 106 L 284 106 L 284 101.93555 A 2.5 3 0 0 0 283.5 96 z M 278.5 97 L 280 102 L 277 102 L 278.5 97 z M 283.5 97 A 1.5 2 0 0 1 283.5 101 A 1.5 2 0 0 1 283.5 97 z M 23.5 99 A 2.5 3 0 0 0 23 104.9375 L 23 109 L 24 109 L 24 104.93555 A 2.5 3 0 0 0 23.5 99 z M 28 99 L 26 105 L 26 106 L 28 106 L 28 109 L 29 109 L 29 106 L 31 106 L 31 105 L 29 99 L 28 99 z M 250 99 L 248 105 L 248 106 L 250 106 L 250 109 L 251 109 L 251 106 L 253 106 L 253 105 L 251 99 L 250 99 z M 255.5 99 A 2.5 3 0 0 0 255 104.9375 L 255 109 L 256 109 L 256 104.93555 A 2.5 3 0 0 0 255.5 99 z M 23.5 100 A 1.5 2 0 0 1 23.5 104 A 1.5 2 0 0 1 23.5 100 z M 28.5 100 L 30 105 L 27 105 L 28.5 100 z M 250.5 100 L 252 105 L 249 105 L 250.5 100 z M 255.5 100 A 1.5 2 0 0 1 255.5 104 A 1.5 2 0 0 1 255.5 100 z M 396 101 L 394 107 L 394 108 L 396 108 L 396 111 L 397 111 L 397 108 L 399 108 L 399 107 L 397 101 L 396 101 z M 401.5 101 A 2.5 3 0 0 0 401 106.9375 L 401 111 L 402 111 L 402 106.93555 A 2.5 3 0 0 0 401.5 101 z M 396.5 102 L 398 107 L 395 107 L 396.5 102 z M 401.5 102 A 1.5 2 0 0 1 401.5 106 A 1.5 2 0 0 1 401.5 102 z M 460.5 102 A 2.5 3 0 0 0 460 107.9375 L 460 112 L 461 112 L 461 107.93555 A 2.5 3 0 0 0 460.5 102 z M 465 102 L 463 108 L 463 109 L 465 109 L 465 112 L 466 112 L 466 109 L 468 109 L 468 108 L 466 102 L 465 102 z M 171.5 103 A 2.5 3 0 0 0 171 108.9375 L 171 113 L 172 113 L 172 108.93555 A 2.5 3 0 0 0 171.5 103 z M 176 103 L 174 109 L 174 110 L 176 110 L 176 113 L 177 113 L 177 110 L 179 110 L 179 109 L 177 103 L 176 103 z M 460.5 103 A 1.5 2 0 0 1 460.5 107 A 1.5 2 0 0 1 460.5 103 z M 465.5 103 L 467 108 L 464 108 L 465.5 103 z M 171.5 104 A 1.5 2 0 0 1 171.5 108 A 1.5 2 0 0 1 171.5 104 z M 176.5 104 L 178 109 L 175 109 L 176.5 104 z M 426.5 105 A 2.5 3 0 0 0 426 110.9375 L 426 115 L 427 115 L 427 110.93555 A 2.5 3 0 0 0 426.5 105 z M 431 105 L 429 111 L 429 112 L 431 112 L 431 115 L 432 115 L 432 112 L 434 112 L 434 111 L 432 105 L 431 105 z M 426.5 106 A 1.5 2 0 0 1 426.5 110 A 1.5 2 0 0 1 426.5 106 z M 431.5 106 L 433 111 L 430 111 L 431.5 106 z M 73.5 108 A 2.5 3 0 0 0 73 113.9375 L 73 118 L 74 118 L 74 113.93555 A 2.5 3 0 0 0 73.5 108 z M 78 108 L 76 114 L 76 115 L 78 115 L 78 118 L 79 118 L 79 115 L 81 115 L 81 114 L 79 108 L 78 108 z M 73.5 109 A 1.5 2 0 0 1 73.5 113 A 1.5 2 0 0 1 73.5 109 z M 78.5 109 L 80 114 L 77 114 L 78.5 109 z M 219 109 L 217 115 L 217 116 L 219 116 L 219 119 L 220 119 L 220 116 L 222 116 L 222 115 L 220 109 L 219 109 z M 224.5 109 A 2.5 3 0 0 0 224 114.9375 L 224 119 L 225 119 L 225 114.93555 A 2.5 3 0 0 0 224.5 109 z M 2.5 110 A 2.5 3 0 0 0 2 115.9375 L 2 120 L 3 120 L 3 115.93555 A 2.5 3 0 0 0 2.5 110 z M 219.5 110 L 221 115 L 218 115 L 219.5 110 z M 224.5 110 A 1.5 2 0 0 1 224.5 114 A 1.5 2 0 0 1 224.5 110 z M 509 110 L 507 116 L 507 117 L 509 117 L 509 120 L 510 120 L 510 117 L 512 117 L 512 116 L 510 110 L 509 110 z M 2.5 111 A 1.5 2 0 0 1 2.5 115 A 1.5 2 0 0 1 2.5 111 z M 509.5 111 L 511 116 L 508 116 L 509.5 111 z M 339 114 L 337 120 L 337 121 L 339 121 L 339 124 L 340 124 L 340 121 L 342 121 L 342 120 L 340 114 L 339 114 z M 344.5 114 A 2.5 3 0 0 0 344 119.9375 L 344 124 L 345 124 L 345 119.93555 A 2.5 3 0 0 0 344.5 114 z M 339.5 115 L 341 120 L 338 120 L 339.5 115 z M 344.5 115 A 1.5 2 0 0 1 344.5 119 A 1.5 2 0 0 1 344.5 115 z M 304 117 L 302 123 L 302 124 L 304 124 L 304 127 L 305 127 L 305 124 L 307 124 L 307 123 L 305 117 L 304 117 z M 309.5 117 A 2.5 3 0 0 0 309 122.9375 L 309 127 L 310 127 L 310 122.93555 A 2.5 3 0 0 0 309.5 117 z M 304.5 118 L 306 123 L 303 123 L 304.5 118 z M 309.5 118 A 1.5 2 0 0 1 309.5 122 A 1.5 2 0 0 1 309.5 118 z M 46.5 120 A 2.5 3 0 0 0 46 125.9375 L 46 130 L 47 130 L 47 125.93555 A 2.5 3 0 0 0 46.5 120 z M 51 120 L 49 126 L 49 127 L 51 127 L 51 130 L 52 130 L 52 127 L 54 127 L 54 126 L 52 120 L 51 120 z M 46.5 121 A 1.5 2 0 0 1 46.5 125 A 1.5 2 0 0 1 46.5 121 z M 51.5 121 L 53 126 L 50 126 L 51.5 121 z M 110 123 L 108 129 L 108 130 L 110 130 L 110 133 L 111 133 L 111 130 L 113 130 L 113 129 L 111 123 L 110 123 z M 115.5 123 A 2.5 3 0 0 0 115 128.9375 L 115 133 L 116 133 L 116 128.93555 A 2.5 3 0 0 0 115.5 123 z M 110.5 124 L 112 129 L 109 129 L 110.5 124 z M 115.5 124 A 1.5 2 0 0 1 115.5 128 A 1.5 2 0 0 1 115.5 124 z M 367 124 L 365 130 L 365 131 L 367 131 L 367 134 L 368 134 L 368 131 L 370 131 L 370 130 L 368 124 L 367 124 z M 372.5 124 A 2.5 3 0 0 0 372 129.9375 L 372 134 L 373 134 L 373 129.93555 A 2.5 3 0 0 0 372.5 124 z M 141.5 125 A 2.5 3 0 0 0 141 130.9375 L 141 135 L 142 135 L 142 130.93555 A 2.5 3 0 0 0 141.5 125 z M 146 125 L 144 131 L 144 132 L 146 132 L 146 135 L 147 135 L 147 132 L 149 132 L 149 131 L 147 125 L 146 125 z M 367.5 125 L 369 130 L 366 130 L 367.5 125 z M 372.5 125 A 1.5 2 0 0 1 372.5 129 A 1.5 2 0 0 1 372.5 125 z M 480 125 L 478 131 L 478 132 L 480 132 L 480 135 L 481 135 L 481 132 L 483 132 L 483 131 L 481 125 L 480 125 z M 485.5 125 A 2.5 3 0 0 0 485 130.9375 L 485 135 L 486 135 L 486 130.93555 A 2.5 3 0 0 0 485.5 125 z M 141.5 126 A 1.5 2 0 0 1 141.5 130 A 1.5 2 0 0 1 141.5 126 z M 146.5 126 L 148 131 L 145 131 L 146.5 126 z M 192 126 L 190 132 L 190 133 L 192 133 L 192 136 L 193 136 L 193 133 L 195 133 L 195 132 L 193 126 L 192 126 z M 197.5 126 A 2.5 3 0 0 0 197 131.9375 L 197 136 L 198 136 L 198 131.93555 A 2.5 3 0 0 0 197.5 126 z M 480.5 126 L 482 131 L 479 131 L 480.5 126 z M 485.5 126 A 1.5 2 0 0 1 485.5 130 A 1.5 2 0 0 1 485.5 126 z M 192.5 127 L 194 132 L 191 132 L 192.5 127 z M 197.5 127 A 1.5 2 0 0 1 197.5 131 A 1.5 2 0 0 1 197.5 127 z M 251 129 L 249 135 L 249 136 L 251 136 L 251 139 L 252 139 L 252 136 L 254 136 L 254 135 L 252 129 L 251 129 z M 256.5 129 A 2.5 3 0 0 0 256 134.9375 L 256 139 L 257 139 L 257 134.93555 A 2.5 3 0 0 0 256.5 129 z M 251.5 130 L 253 135 L 250 135 L 251.5 130 z M 256.5 130 A 1.5 2 0 0 1 256.5 134 A 1.5 2 0 0 1 256.5 130 z M 279 130 L 277 136 L 277 137 L 279 137 L 279 140 L 280 140 L 280 137 L 282 137 L 282 136 L 280 130 L 279 130 z M 284.5 130 A 2.5 3 0 0 0 284 135.9375 L 284 140 L 285 140 L 285 135.93555 A 2.5 3 0 0 0 284.5 130 z M 431.5 130 A 2.5 3 0 0 0 431 135.9375 L 431 140 L 432 140 L 432 135.93555 A 2.5 3 0 0 0 431.5 130 z M 436 130 L 434 136 L 434 137 L 436 137 L 436 140 L 437 140 L 437 137 L 439 137 L 439 136 L 437 130 L 436 130 z M 279.5 131 L 281 136 L 278 136 L 279.5 131 z M 284.5 131 A 1.5 2 0 0 1 284.5 135 A 1.5 2 0 0 1 284.5 131 z M 401 131 L 399 137 L 399 138 L 401 138 L 401 141 L 402 141 L 402 138 L 404 138 L 404 137 L 402 131 L 401 131 z M 406.5 131 A 2.5 3 0 0 0 406 136.9375 L 406 141 L 407 141 L 407 136.93555 A 2.5 3 0 0 0 406.5 131 z M 431.5 131 A 1.5 2 0 0 1 431.5 135 A 1.5 2 0 0 1 431.5 131 z M 436.5 131 L 438 136 L 435 136 L 436.5 131 z M 401.5 132 L 403 137 L 400 137 L 401.5 132 z M 406.5 132 A 1.5 2 0 0 1 406.5 136 A 1.5 2 0 0 1 406.5 132 z M 15.5 135 A 2.5 3 0 0 0 15 140.9375 L 15 145 L 16 145 L 16 140.93555 A 2.5 3 0 0 0 15.5 135 z M 20 135 L 18 141 L 18 142 L 20 142 L 20 145 L 21 145 L 21 142 L 23 142 L 23 141 L 21 135 L 20 135 z M 15.5 136 A 1.5 2 0 0 1 15.5 140 A 1.5 2 0 0 1 15.5 136 z M 20.5 136 L 22 141 L 19 141 L 20.5 136 z M 162.5 137 A 2.5 3 0 0 0 162 142.9375 L 162 147 L 163 147 L 163 142.93555 A 2.5 3 0 0 0 162.5 137 z M 167 137 L 165 143 L 165 144 L 167 144 L 167 147 L 168 147 L 168 144 L 170 144 L 170 143 L 168 137 L 167 137 z M 219 137 L 217 143 L 217 144 L 219 144 L 219 147 L 220 147 L 220 144 L 222 144 L 222 143 L 220 137 L 219 137 z M 224.5 137 A 2.5 3 0 0 0 224 142.9375 L 224 147 L 225 147 L 225 142.93555 A 2.5 3 0 0 0 224.5 137 z M 162.5 138 A 1.5 2 0 0 1 162.5 142 A 1.5 2 0 0 1 162.5 138 z M 167.5 138 L 169 143 L 166 143 L 167.5 138 z M 219.5 138 L 221 143 L 218 143 L 219.5 138 z M 224.5 138 A 1.5 2 0 0 1 224.5 142 A 1.5 2 0 0 1 224.5 138 z M 452.5 139 A 2.5 3 0 0 0 452 144.9375 L 452 149 L 453 149 L 453 144.93555 A 2.5 3 0 0 0 452.5 139 z M 457 139 L 455 145 L 455 146 L 457 146 L 457 149 L 458 149 L 458 146 L 460 146 L 460 145 L 458 139 L 457 139 z M 452.5 140 A 1.5 2 0 0 1 452.5 144 A 1.5 2 0 0 1 452.5 140 z M 457.5 140 L 459 145 L 456 145 L 457.5 140 z M 79.5 141 A 2.5 3 0 0 0 79 146.9375 L 79 151 L 80 151 L 80 146.93555 A 2.5 3 0 0 0 79.5 141 z M 84 141 L 82 147 L 82 148 L 84 148 L 84 151 L 85 151 L 85 148 L 87 148 L 87 147 L 85 141 L 84 141 z M 321.5 141 A 2.5 3 0 0 0 321 146.9375 L 321 151 L 322 151 L 322 146.93555 A 2.5 3 0 0 0 321.5 141 z M 326 141 L 324 147 L 324 148 L 326 148 L 326 151 L 327 151 L 327 148 L 329 148 L 329 147 L 327 141 L 326 141 z M 79.5 142 A 1.5 2 0 0 1 79.5 146 A 1.5 2 0 0 1 79.5 142 z M 84.5 142 L 86 147 L 83 147 L 84.5 142 z M 321.5 142 A 1.5 2 0 0 1 321.5 146 A 1.5 2 0 0 1 321.5 142 z M 326.5 142 L 328 147 L 325 147 L 326.5 142 z M 499.5 146 A 2.5 3 0 0 0 499 151.9375 L 499 156 L 500 156 L 500 151.93555 A 2.5 3 0 0 0 499.5 146 z M 504 146 L 502 152 L 502 153 L 504 153 L 504 156 L 505 156 L 505 153 L 507 153 L 507 152 L 505 146 L 504 146 z M 51 147 L 49 153 L 49 154 L 51 154 L 51 157 L 52 157 L 52 154 L 54 154 L 54 153 L 52 147 L 51 147 z M 56.5 147 A 2.5 3 0 0 0 56 152.9375 L 56 157 L 57 157 L 57 152.93555 A 2.5 3 0 0 0 56.5 147 z M 348 147 L 346 153 L 346 154 L 348 154 L 348 157 L 349 157 L 349 154 L 351 154 L 351 153 L 349 147 L 348 147 z M 353.5 147 A 2.5 3 0 0 0 353 152.9375 L 353 157 L 354 157 L 354 152.93555 A 2.5 3 0 0 0 353.5 147 z M 499.5 147 A 1.5 2 0 0 1 499.5 151 A 1.5 2 0 0 1 499.5 147 z M 504.5 147 L 506 152 L 503 152 L 504.5 147 z M 51.5 148 L 53 153 L 50 153 L 51.5 148 z M 56.5 148 A 1.5 2 0 0 1 56.5 152 A 1.5 2 0 0 1 56.5 148 z M 348.5 148 L 350 153 L 347 153 L 348.5 148 z M 353.5 148 A 1.5 2 0 0 1 353.5 152 A 1.5 2 0 0 1 353.5 148 z M 101.5 154 A 2.5 3 0 0 0 101 159.9375 L 101 164 L 102 164 L 102 159.93555 A 2.5 3 0 0 0 101.5 154 z M 106 154 L 104 160 L 104 161 L 106 161 L 106 164 L 107 164 L 107 161 L 109 161 L 109 160 L 107 154 L 106 154 z M 383 154 L 381 160 L 381 161 L 383 161 L 383 164 L 384 164 L 384 161 L 386 161 L 386 160 L 384 154 L 383 154 z M 388.5 154 A 2.5 3 0 0 0 388 159.9375 L 388 164 L 389 164 L 389 159.93555 A 2.5 3 0 0 0 388.5 154 z M 101.5 155 A 1.5 2 0 0 1 101.5 159 A 1.5 2 0 0 1 101.5 155 z M 106.5 155 L 108 160 L 105 160 L 106.5 155 z M 133 155 L 131 161 L 131 162 L 133 162 L 133 165 L 134 165 L 134 162 L 136 162 L 136 161 L 134 155 L 133 155 z M 138.5 155 A 2.5 3 0 0 0 138 160.9375 L 138 165 L 139 165 L 139 160.93555 A 2.5 3 0 0 0 138.5 155 z M 383.5 155 L 385 160 L 382 160 L 383.5 155 z M 388.5 155 A 1.5 2 0 0 1 388.5 159 A 1.5 2 0 0 1 388.5 155 z M 133.5 156 L 135 161 L 132 161 L 133.5 156 z M 138.5 156 A 1.5 2 0 0 1 138.5 160 A 1.5 2 0 0 1 138.5 156 z M 259.5 156 A 2.5 3 0 0 0 259 161.9375 L 259 166 L 260 166 L 260 161.93555 A 2.5 3 0 0 0 259.5 156 z M 264 156 L 262 162 L 262 163 L 264 163 L 264 166 L 265 166 L 265 163 L 267 163 L 267 162 L 265 156 L 264 156 z M 259.5 157 A 1.5 2 0 0 1 259.5 161 A 1.5 2 0 0 1 259.5 157 z M 264.5 157 L 266 162 L 263 162 L 264.5 157 z M 195.5 160 A 2.5 3 0 0 0 195 165.9375 L 195 170 L 196 170 L 196 165.93555 A 2.5 3 0 0 0 195.5 160 z M 200 160 L 198 166 L 198 167 L 200 167 L 200 170 L 201 170 L 201 167 L 203 167 L 203 166 L 201 160 L 200 160 z M 294.5 160 A 2.5 3 0 0 0 294 165.9375 L 294 170 L 295 170 L 295 165.93555 A 2.5 3 0 0 0 294.5 160 z M 299 160 L 297 166 L 297 167 L 299 167 L 299 170 L 300 170 L 300 167 L 302 167 L 302 166 L 300 160 L 299 160 z M 468.5 160 A 2.5 3 0 0 0 468 165.9375 L 468 170 L 469 170 L 469 165.93555 A 2.5 3 0 0 0 468.5 160 z M 473 160 L 471 166 L 471 167 L 473 167 L 473 170 L 474 170 L 474 167 L 476 167 L 476 166 L 474 160 L 473 160 z M 195.5 161 A 1.5 2 0 0 1 195.5 165 A 1.5 2 0 0 1 195.5 161 z M 200.5 161 L 202 166 L 199 166 L 200.5 161 z M 294.5 161 A 1.5 2 0 0 1 294.5 165 A 1.5 2 0 0 1 294.5 161 z M 299.5 161 L 301 166 L 298 166 L 299.5 161 z M 468.5 161 A 1.5 2 0 0 1 468.5 165 A 1.5 2 0 0 1 468.5 161 z M 473.5 161 L 475 166 L 472 166 L 473.5 161 z M 19.5 163 A 2.5 3 0 0 0 19 168.9375 L 19 173 L 20 173 L 20 168.93555 A 2.5 3 0 0 0 19.5 163 z M 24 163 L 22 169 L 22 170 L 24 170 L 24 173 L 25 173 L 25 170 L 27 170 L 27 169 L 25 163 L 24 163 z M 410.5 163 A 2.5 3 0 0 0 410 168.9375 L 410 173 L 411 173 L 411 168.93555 A 2.5 3 0 0 0 410.5 163 z M 415 163 L 413 169 L 413 170 L 415 170 L 415 173 L 416 173 L 416 170 L 418 170 L 418 169 L 416 163 L 415 163 z M 19.5 164 A 1.5 2 0 0 1 19.5 168 A 1.5 2 0 0 1 19.5 164 z M 24.5 164 L 26 169 L 23 169 L 24.5 164 z M 410.5 164 A 1.5 2 0 0 1 410.5 168 A 1.5 2 0 0 1 410.5 164 z M 415.5 164 L 417 169 L 414 169 L 415.5 164 z M 162.5 167 A 2.5 3 0 0 0 162 172.9375 L 162 177 L 163 177 L 163 172.93555 A 2.5 3 0 0 0 162.5 167 z M 167 167 L 165 173 L 165 174 L 167 174 L 167 177 L 168 177 L 168 174 L 170 174 L 170 173 L 168 167 L 167 167 z M 162.5 168 A 1.5 2 0 0 1 162.5 172 A 1.5 2 0 0 1 162.5 168 z M 167.5 168 L 169 173 L 166 173 L 167.5 168 z M 229 170 L 227 176 L 227 177 L 229 177 L 229 180 L 230 180 L 230 177 L 232 177 L 232 176 L 230 170 L 229 170 z M 234.5 170 A 2.5 3 0 0 0 234 175.9375 L 234 180 L 235 180 L 235 175.93555 A 2.5 3 0 0 0 234.5 170 z M 229.5 171 L 231 176 L 228 176 L 229.5 171 z M 234.5 171 A 1.5 2 0 0 1 234.5 175 A 1.5 2 0 0 1 234.5 171 z M 71 172 L 69 178 L 69 179 L 71 179 L 71 182 L 72 182 L 72 179 L 74 179 L 74 178 L 72 172 L 71 172 z M 76.5 172 A 2.5 3 0 0 0 76 177.9375 L 76 182 L 77 182 L 77 177.93555 A 2.5 3 0 0 0 76.5 172 z M 71.5 173 L 73 178 L 70 178 L 71.5 173 z M 76.5 173 A 1.5 2 0 0 1 76.5 177 A 1.5 2 0 0 1 76.5 173 z M 505 174 L 503 180 L 503 181 L 505 181 L 505 184 L 506 184 L 506 181 L 508 181 L 508 180 L 506 174 L 505 174 z M 510.5 174 A 2.5 3 0 0 0 510 179.9375 L 510 184 L 511 184 L 511 179.93555 A 2.5 3 0 0 0 512 179.40039 L 512 176.94141 A 1.5 2 0 0 1 510.5 179 A 1.5 2 0 0 1 510.5 175 A 1.5 2 0 0 1 512 176.94141 L 512 174.60352 A 2.5 3 0 0 0 510.5 174 z M 0 174.60352 L 0 176.94141 L 0 179.40039 A 2.5 3 0 0 0 0 174.60352 z M 505.5 175 L 507 180 L 504 180 L 505.5 175 z M 356 176 L 354 182 L 354 183 L 356 183 L 356 186 L 357 186 L 357 183 L 359 183 L 359 182 L 357 176 L 356 176 z M 361.5 176 A 2.5 3 0 0 0 361 181.9375 L 361 186 L 362 186 L 362 181.93555 A 2.5 3 0 0 0 361.5 176 z M 323 177 L 321 183 L 321 184 L 323 184 L 323 187 L 324 187 L 324 184 L 326 184 L 326 183 L 324 177 L 323 177 z M 328.5 177 A 2.5 3 0 0 0 328 182.9375 L 328 187 L 329 187 L 329 182.93555 A 2.5 3 0 0 0 328.5 177 z M 356.5 177 L 358 182 L 355 182 L 356.5 177 z M 361.5 177 A 1.5 2 0 0 1 361.5 181 A 1.5 2 0 0 1 361.5 177 z M 443.5 177 A 2.5 3 0 0 0 443 182.9375 L 443 187 L 444 187 L 444 182.93555 A 2.5 3 0 0 0 443.5 177 z M 448 177 L 446 183 L 446 184 L 448 184 L 448 187 L 449 187 L 449 184 L 451 184 L 451 183 L 449 177 L 448 177 z M 323.5 178 L 325 183 L 322 183 L 323.5 178 z M 328.5 178 A 1.5 2 0 0 1 328.5 182 A 1.5 2 0 0 1 328.5 178 z M 443.5 178 A 1.5 2 0 0 1 443.5 182 A 1.5 2 0 0 1 443.5 178 z M 448.5 178 L 450 183 L 447 183 L 448.5 178 z M 254 183 L 252 189 L 252 190 L 254 190 L 254 193 L 255 193 L 255 190 L 257 190 L 257 189 L 255 183 L 254 183 z M 259.5 183 A 2.5 3 0 0 0 259 188.9375 L 259 193 L 260 193 L 260 188.93555 A 2.5 3 0 0 0 259.5 183 z M 41 184 L 39 190 L 39 191 L 41 191 L 41 194 L 42 194 L 42 191 L 44 191 L 44 190 L 42 184 L 41 184 z M 46.5 184 A 2.5 3 0 0 0 46 189.9375 L 46 194 L 47 194 L 47 189.93555 A 2.5 3 0 0 0 46.5 184 z M 128 184 L 126 190 L 126 191 L 128 191 L 128 194 L 129 194 L 129 191 L 131 191 L 131 190 L 129 184 L 128 184 z M 133.5 184 A 2.5 3 0 0 0 133 189.9375 L 133 194 L 134 194 L 134 189.93555 A 2.5 3 0 0 0 133.5 184 z M 254.5 184 L 256 189 L 253 189 L 254.5 184 z M 259.5 184 A 1.5 2 0 0 1 259.5 188 A 1.5 2 0 0 1 259.5 184 z M 41.5 185 L 43 190 L 40 190 L 41.5 185 z M 46.5 185 A 1.5 2 0 0 1 46.5 189 A 1.5 2 0 0 1 46.5 185 z M 128.5 185 L 130 190 L 127 190 L 128.5 185 z M 133.5 185 A 1.5 2 0 0 1 133.5 189 A 1.5 2 0 0 1 133.5 185 z M 386 185 L 384 191 L 384 192 L 386 192 L 386 195 L 387 195 L 387 192 L 389 192 L 389 191 L 387 185 L 386 185 z M 391.5 185 A 2.5 3 0 0 0 391 190.9375 L 391 195 L 392 195 L 392 190.93555 A 2.5 3 0 0 0 391.5 185 z M 386.5 186 L 388 191 L 385 191 L 386.5 186 z M 391.5 186 A 1.5 2 0 0 1 391.5 190 A 1.5 2 0 0 1 391.5 186 z M 469.5 188 A 2.5 3 0 0 0 469 193.9375 L 469 198 L 470 198 L 470 193.93555 A 2.5 3 0 0 0 469.5 188 z M 474 188 L 472 194 L 472 195 L 474 195 L 474 198 L 475 198 L 475 195 L 477 195 L 477 194 L 475 188 L 474 188 z M 191.5 189 A 2.5 3 0 0 0 191 194.9375 L 191 199 L 192 199 L 192 194.93555 A 2.5 3 0 0 0 191.5 189 z M 196 189 L 194 195 L 194 196 L 196 196 L 196 199 L 197 199 L 197 196 L 199 196 L 199 195 L 197 189 L 196 189 z M 280.5 189 A 2.5 3 0 0 0 280 194.9375 L 280 199 L 281 199 L 281 194.93555 A 2.5 3 0 0 0 280.5 189 z M 285 189 L 283 195 L 283 196 L 285 196 L 285 199 L 286 199 L 286 196 L 288 196 L 288 195 L 286 189 L 285 189 z M 469.5 189 A 1.5 2 0 0 1 469.5 193 A 1.5 2 0 0 1 469.5 189 z M 474.5 189 L 476 194 L 473 194 L 474.5 189 z M 98.5 190 A 2.5 3 0 0 0 98 195.9375 L 98 200 L 99 200 L 99 195.93555 A 2.5 3 0 0 0 98.5 190 z M 103 190 L 101 196 L 101 197 L 103 197 L 103 200 L 104 200 L 104 197 L 106 197 L 106 196 L 104 190 L 103 190 z M 191.5 190 A 1.5 2 0 0 1 191.5 194 A 1.5 2 0 0 1 191.5 190 z M 196.5 190 L 198 195 L 195 195 L 196.5 190 z M 280.5 190 A 1.5 2 0 0 1 280.5 194 A 1.5 2 0 0 1 280.5 190 z M 285.5 190 L 287 195 L 284 195 L 285.5 190 z M 98.5 191 A 1.5 2 0 0 1 98.5 195 A 1.5 2 0 0 1 98.5 191 z M 103.5 191 L 105 196 L 102 196 L 103.5 191 z M 418 193 L 416 199 L 416 200 L 418 200 L 418 203 L 419 203 L 419 200 L 421 200 L 421 199 L 419 193 L 418 193 z M 423.5 193 A 2.5 3 0 0 0 423 198.9375 L 423 203 L 424 203 L 424 198.93555 A 2.5 3 0 0 0 423.5 193 z M 216.5 194 A 2.5 3 0 0 0 216 199.9375 L 216 204 L 217 204 L 217 199.93555 A 2.5 3 0 0 0 216.5 194 z M 221 194 L 219 200 L 219 201 L 221 201 L 221 204 L 222 204 L 222 201 L 224 201 L 224 200 L 222 194 L 221 194 z M 418.5 194 L 420 199 L 417 199 L 418.5 194 z M 423.5 194 A 1.5 2 0 0 1 423.5 198 A 1.5 2 0 0 1 423.5 194 z M 216.5 195 A 1.5 2 0 0 1 216.5 199 A 1.5 2 0 0 1 216.5 195 z M 221.5 195 L 223 200 L 220 200 L 221.5 195 z M 308 197 L 306 203 L 306 204 L 308 204 L 308 207 L 309 207 L 309 204 L 311 204 L 311 203 L 309 197 L 308 197 z M 313.5 197 A 2.5 3 0 0 0 313 202.9375 L 313 207 L 314 207 L 314 202.93555 A 2.5 3 0 0 0 313.5 197 z M 308.5 198 L 310 203 L 307 203 L 308.5 198 z M 313.5 198 A 1.5 2 0 0 1 313.5 202 A 1.5 2 0 0 1 313.5 198 z M 14.5 199 A 2.5 3 0 0 0 14 204.9375 L 14 209 L 15 209 L 15 204.93555 A 2.5 3 0 0 0 14.5 199 z M 19 199 L 17 205 L 17 206 L 19 206 L 19 209 L 20 209 L 20 206 L 22 206 L 22 205 L 20 199 L 19 199 z M 14.5 200 A 1.5 2 0 0 1 14.5 204 A 1.5 2 0 0 1 14.5 200 z M 19.5 200 L 21 205 L 18 205 L 19.5 200 z M 161.5 201 A 2.5 3 0 0 0 161 206.9375 L 161 211 L 162 211 L 162 206.93555 A 2.5 3 0 0 0 161.5 201 z M 166 201 L 164 207 L 164 208 L 166 208 L 166 211 L 167 211 L 167 208 L 169 208 L 169 207 L 167 201 L 166 201 z M 161.5 202 A 1.5 2 0 0 1 161.5 206 A 1.5 2 0 0 1 161.5 202 z M 166.5 202 L 168 207 L 165 207 L 166.5 202 z M 342.5 203 A 2.5 3 0 0 0 342 208.9375 L 342 213 L 343 213 L 343 208.93555 A 2.5 3 0 0 0 342.5 203 z M 347 203 L 345 209 L 345 210 L 347 210 L 347 213 L 348 213 L 348 210 L 350 210 L 350 209 L 348 203 L 347 203 z M 68.5 204 A 2.5 3 0 0 0 68 209.9375 L 68 214 L 69 214 L 69 209.93555 A 2.5 3 0 0 0 68.5 204 z M 73 204 L 71 210 L 71 211 L 73 211 L 73 214 L 74 214 L 74 211 L 76 211 L 76 210 L 74 204 L 73 204 z M 342.5 204 A 1.5 2 0 0 1 342.5 208 A 1.5 2 0 0 1 342.5 204 z M 347.5 204 L 349 209 L 346 209 L 347.5 204 z M 492 204 L 490 210 L 490 211 L 492 211 L 492 214 L 493 214 L 493 211 L 495 211 L 495 210 L 493 204 L 492 204 z M 497.5 204 A 2.5 3 0 0 0 497 209.9375 L 497 214 L 498 214 L 498 209.93555 A 2.5 3 0 0 0 497.5 204 z M 68.5 205 A 1.5 2 0 0 1 68.5 209 A 1.5 2 0 0 1 68.5 205 z M 73.5 205 L 75 210 L 72 210 L 73.5 205 z M 492.5 205 L 494 210 L 491 210 L 492.5 205 z M 497.5 205 A 1.5 2 0 0 1 497.5 209 A 1.5 2 0 0 1 497.5 205 z M 251.5 211 A 2.5 3 0 0 0 251 216.9375 L 251 221 L 252 221 L 252 216.93555 A 2.5 3 0 0 0 251.5 211 z M 256 211 L 254 217 L 254 218 L 256 218 L 256 221 L 257 221 L 257 218 L 259 218 L 259 217 L 257 211 L 256 211 z M 251.5 212 A 1.5 2 0 0 1 251.5 216 A 1.5 2 0 0 1 251.5 212 z M 256.5 212 L 258 217 L 255 217 L 256.5 212 z M 370.5 213 A 2.5 3 0 0 0 370 218.9375 L 370 223 L 371 223 L 371 218.93555 A 2.5 3 0 0 0 370.5 213 z M 375 213 L 373 219 L 373 220 L 375 220 L 375 223 L 376 223 L 376 220 L 378 220 L 378 219 L 376 213 L 375 213 z M 370.5 214 A 1.5 2 0 0 1 370.5 218 A 1.5 2 0 0 1 370.5 214 z M 375.5 214 L 377 219 L 374 219 L 375.5 214 z M 112 215 L 110 221 L 110 222 L 112 222 L 112 225 L 113 225 L 113 222 L 115 222 L 115 221 L 113 215 L 112 215 z M 117.5 215 A 2.5 3 0 0 0 117 220.9375 L 117 225 L 118 225 L 118 220.93555 A 2.5 3 0 0 0 117.5 215 z M 112.5 216 L 114 221 L 111 221 L 112.5 216 z M 117.5 216 A 1.5 2 0 0 1 117.5 220 A 1.5 2 0 0 1 117.5 216 z M 404 218 L 402 224 L 402 225 L 404 225 L 404 228 L 405 228 L 405 225 L 407 225 L 407 224 L 405 218 L 404 218 z M 409.5 218 A 2.5 3 0 0 0 409 223.9375 L 409 228 L 410 228 L 410 223.93555 A 2.5 3 0 0 0 409.5 218 z M 441 218 L 439 224 L 439 225 L 441 225 L 441 228 L 442 228 L 442 225 L 444 225 L 444 224 L 442 218 L 441 218 z M 446.5 218 A 2.5 3 0 0 0 446 223.9375 L 446 228 L 447 228 L 447 223.93555 A 2.5 3 0 0 0 446.5 218 z M 136 219 L 134 225 L 134 226 L 136 226 L 136 229 L 137 229 L 137 226 L 139 226 L 139 225 L 137 219 L 136 219 z M 141.5 219 A 2.5 3 0 0 0 141 224.9375 L 141 229 L 142 229 L 142 224.93555 A 2.5 3 0 0 0 141.5 219 z M 404.5 219 L 406 224 L 403 224 L 404.5 219 z M 409.5 219 A 1.5 2 0 0 1 409.5 223 A 1.5 2 0 0 1 409.5 219 z M 441.5 219 L 443 224 L 440 224 L 441.5 219 z M 446.5 219 A 1.5 2 0 0 1 446.5 223 A 1.5 2 0 0 1 446.5 219 z M 136.5 220 L 138 225 L 135 225 L 136.5 220 z M 141.5 220 A 1.5 2 0 0 1 141.5 224 A 1.5 2 0 0 1 141.5 220 z M 311.5 221 A 2.5 3 0 0 0 311 226.9375 L 311 231 L 312 231 L 312 226.93555 A 2.5 3 0 0 0 311.5 221 z M 316 221 L 314 227 L 314 228 L 316 228 L 316 231 L 317 231 L 317 228 L 319 228 L 319 227 L 317 221 L 316 221 z M 42.5 222 A 2.5 3 0 0 0 42 227.9375 L 42 232 L 43 232 L 43 227.93555 A 2.5 3 0 0 0 42.5 222 z M 47 222 L 45 228 L 45 229 L 47 229 L 47 232 L 48 232 L 48 229 L 50 229 L 50 228 L 48 222 L 47 222 z M 193 222 L 191 228 L 191 229 L 193 229 L 193 232 L 194 232 L 194 229 L 196 229 L 196 228 L 194 222 L 193 222 z M 198.5 222 A 2.5 3 0 0 0 198 227.9375 L 198 232 L 199 232 L 199 227.93555 A 2.5 3 0 0 0 198.5 222 z M 225.5 222 A 2.5 3 0 0 0 225 227.9375 L 225 232 L 226 232 L 226 227.93555 A 2.5 3 0 0 0 225.5 222 z M 230 222 L 228 228 L 228 229 L 230 229 L 230 232 L 231 232 L 231 229 L 233 229 L 233 228 L 231 222 L 230 222 z M 311.5 222 A 1.5 2 0 0 1 311.5 226 A 1.5 2 0 0 1 311.5 222 z M 316.5 222 L 318 227 L 315 227 L 316.5 222 z M 42.5 223 A 1.5 2 0 0 1 42.5 227 A 1.5 2 0 0 1 42.5 223 z M 47.5 223 L 49 228 L 46 228 L 47.5 223 z M 193.5 223 L 195 228 L 192 228 L 193.5 223 z M 198.5 223 A 1.5 2 0 0 1 198.5 227 A 1.5 2 0 0 1 198.5 223 z M 225.5 223 A 1.5 2 0 0 1 225.5 227 A 1.5 2 0 0 1 225.5 223 z M 230.5 223 L 232 228 L 229 228 L 230.5 223 z M 467.5 224 A 2.5 3 0 0 0 467 229.9375 L 467 234 L 468 234 L 468 229.93555 A 2.5 3 0 0 0 467.5 224 z M 472 224 L 470 230 L 470 231 L 472 231 L 472 234 L 473 234 L 473 231 L 475 231 L 475 230 L 473 224 L 472 224 z M 280 225 L 278 231 L 278 232 L 280 232 L 280 235 L 281 235 L 281 232 L 283 232 L 283 231 L 281 225 L 280 225 z M 285.5 225 A 2.5 3 0 0 0 285 230.9375 L 285 235 L 286 235 L 286 230.93555 A 2.5 3 0 0 0 285.5 225 z M 467.5 225 A 1.5 2 0 0 1 467.5 229 A 1.5 2 0 0 1 467.5 225 z M 472.5 225 L 474 230 L 471 230 L 472.5 225 z M 13 226 L 11 232 L 11 233 L 13 233 L 13 236 L 14 236 L 14 233 L 16 233 L 16 232 L 14 226 L 13 226 z M 18.5 226 A 2.5 3 0 0 0 18 231.9375 L 18 236 L 19 236 L 19 231.93555 A 2.5 3 0 0 0 18.5 226 z M 280.5 226 L 282 231 L 279 231 L 280.5 226 z M 285.5 226 A 1.5 2 0 0 1 285.5 230 A 1.5 2 0 0 1 285.5 226 z M 13.5 227 L 15 232 L 12 232 L 13.5 227 z M 18.5 227 A 1.5 2 0 0 1 18.5 231 A 1.5 2 0 0 1 18.5 227 z M 83 229 L 81 235 L 81 236 L 83 236 L 83 239 L 84 239 L 84 236 L 86 236 L 86 235 L 84 229 L 83 229 z M 88.5 229 A 2.5 3 0 0 0 88 234.9375 L 88 239 L 89 239 L 89 234.93555 A 2.5 3 0 0 0 88.5 229 z M 83.5 230 L 85 235 L 82 235 L 83.5 230 z M 88.5 230 A 1.5 2 0 0 1 88.5 234 A 1.5 2 0 0 1 88.5 230 z M 164 231 L 162 237 L 162 238 L 164 238 L 164 241 L 165 241 L 165 238 L 167 238 L 167 237 L 165 231 L 164 231 z M 169.5 231 A 2.5 3 0 0 0 169 236.9375 L 169 241 L 170 241 L 170 236.93555 A 2.5 3 0 0 0 169.5 231 z M 164.5 232 L 166 237 L 163 237 L 164.5 232 z M 169.5 232 A 1.5 2 0 0 1 169.5 236 A 1.5 2 0 0 1 169.5 232 z M 501 234 L 499 240 L 499 241 L 501 241 L 501 244 L 502 244 L 502 241 L 504 241 L 504 240 L 502 234 L 501 234 z M 506.5 234 A 2.5 3 0 0 0 506 239.9375 L 506 244 L 507 244 L 507 239.93555 A 2.5 3 0 0 0 506.5 234 z M 501.5 235 L 503 240 L 500 240 L 501.5 235 z M 506.5 235 A 1.5 2 0 0 1 506.5 239 A 1.5 2 0 0 1 506.5 235 z M 342.5 238 A 2.5 3 0 0 0 342 243.9375 L 342 248 L 343 248 L 343 243.93555 A 2.5 3 0 0 0 342.5 238 z M 347 238 L 345 244 L 345 245 L 347 245 L 347 248 L 348 248 L 348 245 L 350 245 L 350 244 L 348 238 L 347 238 z M 373.5 238 A 2.5 3 0 0 0 373 243.9375 L 373 248 L 374 248 L 374 243.93555 A 2.5 3 0 0 0 373.5 238 z M 378 238 L 376 244 L 376 245 L 378 245 L 378 248 L 379 248 L 379 245 L 381 245 L 381 244 L 379 238 L 378 238 z M 342.5 239 A 1.5 2 0 0 1 342.5 243 A 1.5 2 0 0 1 342.5 239 z M 347.5 239 L 349 244 L 346 244 L 347.5 239 z M 373.5 239 A 1.5 2 0 0 1 373.5 243 A 1.5 2 0 0 1 373.5 239 z M 378.5 239 L 380 244 L 377 244 L 378.5 239 z M 432.5 240 A 2.5 3 0 0 0 432 245.9375 L 432 250 L 433 250 L 433 245.93555 A 2.5 3 0 0 0 432.5 240 z M 437 240 L 435 246 L 435 247 L 437 247 L 437 250 L 438 250 L 438 247 L 440 247 L 440 246 L 438 240 L 437 240 z M 432.5 241 A 1.5 2 0 0 1 432.5 245 A 1.5 2 0 0 1 432.5 241 z M 437.5 241 L 439 246 L 436 246 L 437.5 241 z M 61 244 L 59 250 L 59 251 L 61 251 L 61 254 L 62 254 L 62 251 L 64 251 L 64 250 L 62 244 L 61 244 z M 66.5 244 A 2.5 3 0 0 0 66 249.9375 L 66 254 L 67 254 L 67 249.93555 A 2.5 3 0 0 0 66.5 244 z M 311 244 L 309 250 L 309 251 L 311 251 L 311 254 L 312 254 L 312 251 L 314 251 L 314 250 L 312 244 L 311 244 z M 316.5 244 A 2.5 3 0 0 0 316 249.9375 L 316 254 L 317 254 L 317 249.93555 A 2.5 3 0 0 0 316.5 244 z M 61.5 245 L 63 250 L 60 250 L 61.5 245 z M 66.5 245 A 1.5 2 0 0 1 66.5 249 A 1.5 2 0 0 1 66.5 245 z M 311.5 245 L 313 250 L 310 250 L 311.5 245 z M 316.5 245 A 1.5 2 0 0 1 316.5 249 A 1.5 2 0 0 1 316.5 245 z M 403.5 246 A 2.5 3 0 0 0 403 251.9375 L 403 256 L 404 256 L 404 251.93555 A 2.5 3 0 0 0 403.5 246 z M 408 246 L 406 252 L 406 253 L 408 253 L 408 256 L 409 256 L 409 253 L 411 253 L 411 252 L 409 246 L 408 246 z M 116 247 L 114 253 L 114 254 L 116 254 L 116 257 L 117 257 L 117 254 L 119 254 L 119 253 L 117 247 L 116 247 z M 121.5 247 A 2.5 3 0 0 0 121 252.9375 L 121 257 L 122 257 L 122 252.93555 A 2.5 3 0 0 0 121.5 247 z M 252 247 L 250 253 L 250 254 L 252 254 L 252 257 L 253 257 L 253 254 L 255 254 L 255 253 L 253 247 L 252 247 z M 257.5 247 A 2.5 3 0 0 0 257 252.9375 L 257 257 L 258 257 L 258 252.93555 A 2.5 3 0 0 0 257.5 247 z M 403.5 247 A 1.5 2 0 0 1 403.5 251 A 1.5 2 0 0 1 403.5 247 z M 408.5 247 L 410 252 L 407 252 L 408.5 247 z M 116.5 248 L 118 253 L 115 253 L 116.5 248 z M 121.5 248 A 1.5 2 0 0 1 121.5 252 A 1.5 2 0 0 1 121.5 248 z M 252.5 248 L 254 253 L 251 253 L 252.5 248 z M 257.5 248 A 1.5 2 0 0 1 257.5 252 A 1.5 2 0 0 1 257.5 248 z M 201.5 250 A 2.5 3 0 0 0 201 255.9375 L 201 260 L 202 260 L 202 255.93555 A 2.5 3 0 0 0 201.5 250 z M 206 250 L 204 256 L 204 257 L 206 257 L 206 260 L 207 260 L 207 257 L 209 257 L 209 256 L 207 250 L 206 250 z M 201.5 251 A 1.5 2 0 0 1 201.5 255 A 1.5 2 0 0 1 201.5 251 z M 206.5 251 L 208 256 L 205 256 L 206.5 251 z M 459.5 251 A 2.5 3 0 0 0 459 256.9375 L 459 261 L 460 261 L 460 256.93555 A 2.5 3 0 0 0 459.5 251 z M 464 251 L 462 257 L 462 258 L 464 258 L 464 261 L 465 261 L 465 258 L 467 258 L 467 257 L 465 251 L 464 251 z M 459.5 252 A 1.5 2 0 0 1 459.5 256 A 1.5 2 0 0 1 459.5 252 z M 464.5 252 L 466 257 L 463 257 L 464.5 252 z M 36 257 L 34 263 L 34 264 L 36 264 L 36 267 L 37 267 L 37 264 L 39 264 L 39 263 L 37 257 L 36 257 z M 41.5 257 A 2.5 3 0 0 0 41 262.9375 L 41 267 L 42 267 L 42 262.93555 A 2.5 3 0 0 0 41.5 257 z M 140.5 257 A 2.5 3 0 0 0 140 262.9375 L 140 267 L 141 267 L 141 262.93555 A 2.5 3 0 0 0 140.5 257 z M 145 257 L 143 263 L 143 264 L 145 264 L 145 267 L 146 267 L 146 264 L 148 264 L 148 263 L 146 257 L 145 257 z M 225 257 L 223 263 L 223 264 L 225 264 L 225 267 L 226 267 L 226 264 L 228 264 L 228 263 L 226 257 L 225 257 z M 230.5 257 A 2.5 3 0 0 0 230 262.9375 L 230 267 L 231 267 L 231 262.93555 A 2.5 3 0 0 0 230.5 257 z M 36.5 258 L 38 263 L 35 263 L 36.5 258 z M 41.5 258 A 1.5 2 0 0 1 41.5 262 A 1.5 2 0 0 1 41.5 258 z M 140.5 258 A 1.5 2 0 0 1 140.5 262 A 1.5 2 0 0 1 140.5 258 z M 145.5 258 L 147 263 L 144 263 L 145.5 258 z M 225.5 258 L 227 263 L 224 263 L 225.5 258 z M 230.5 258 A 1.5 2 0 0 1 230.5 262 A 1.5 2 0 0 1 230.5 258 z M 289 258 L 287 264 L 287 265 L 289 265 L 289 268 L 290 268 L 290 265 L 292 265 L 292 264 L 290 258 L 289 258 z M 294.5 258 A 2.5 3 0 0 0 294 263.9375 L 294 268 L 295 268 L 295 263.93555 A 2.5 3 0 0 0 294.5 258 z M 289.5 259 L 291 264 L 288 264 L 289.5 259 z M 294.5 259 A 1.5 2 0 0 1 294.5 263 A 1.5 2 0 0 1 294.5 259 z M 7.5 262 A 2.5 3 0 0 0 7 267.9375 L 7 272 L 8 272 L 8 267.93555 A 2.5 3 0 0 0 7.5 262 z M 12 262 L 10 268 L 10 269 L 12 269 L 12 272 L 13 272 L 13 269 L 15 269 L 15 268 L 13 262 L 12 262 z M 7.5 263 A 1.5 2 0 0 1 7.5 267 A 1.5 2 0 0 1 7.5 263 z M 12.5 263 L 14 268 L 11 268 L 12.5 263 z M 177 263 L 175 269 L 175 270 L 177 270 L 177 273 L 178 273 L 178 270 L 180 270 L 180 269 L 178 263 L 177 263 z M 182.5 263 A 2.5 3 0 0 0 182 268.9375 L 182 273 L 183 273 L 183 268.93555 A 2.5 3 0 0 0 182.5 263 z M 89 264 L 87 270 L 87 271 L 89 271 L 89 274 L 90 274 L 90 271 L 92 271 L 92 270 L 90 264 L 89 264 z M 94.5 264 A 2.5 3 0 0 0 94 269.9375 L 94 274 L 95 274 L 95 269.93555 A 2.5 3 0 0 0 94.5 264 z M 177.5 264 L 179 269 L 176 269 L 177.5 264 z M 182.5 264 A 1.5 2 0 0 1 182.5 268 A 1.5 2 0 0 1 182.5 264 z M 359 264 L 357 270 L 357 271 L 359 271 L 359 274 L 360 274 L 360 271 L 362 271 L 362 270 L 360 264 L 359 264 z M 364.5 264 A 2.5 3 0 0 0 364 269.9375 L 364 274 L 365 274 L 365 269.93555 A 2.5 3 0 0 0 364.5 264 z M 89.5 265 L 91 270 L 88 270 L 89.5 265 z M 94.5 265 A 1.5 2 0 0 1 94.5 269 A 1.5 2 0 0 1 94.5 265 z M 359.5 265 L 361 270 L 358 270 L 359.5 265 z M 364.5 265 A 1.5 2 0 0 1 364.5 269 A 1.5 2 0 0 1 364.5 265 z M 487.5 266 A 2.5 3 0 0 0 487 271.9375 L 487 276 L 488 276 L 488 271.93555 A 2.5 3 0 0 0 487.5 266 z M 492 266 L 490 272 L 490 273 L 492 273 L 492 276 L 493 276 L 493 273 L 495 273 L 495 272 L 493 266 L 492 266 z M 487.5 267 A 1.5 2 0 0 1 487.5 271 A 1.5 2 0 0 1 487.5 267 z M 492.5 267 L 494 272 L 491 272 L 492.5 267 z M 323 272 L 321 278 L 321 279 L 323 279 L 323 282 L 324 282 L 324 279 L 326 279 L 326 278 L 324 272 L 323 272 z M 328.5 272 A 2.5 3 0 0 0 328 277.9375 L 328 282 L 329 282 L 329 277.93555 A 2.5 3 0 0 0 328.5 272 z M 323.5 273 L 325 278 L 322 278 L 323.5 273 z M 328.5 273 A 1.5 2 0 0 1 328.5 277 A 1.5 2 0 0 1 328.5 273 z M 260.5 275 A 2.5 3 0 0 0 260 280.9375 L 260 285 L 261 285 L 261 280.93555 A 2.5 3 0 0 0 260.5 275 z M 265 275 L 263 281 L 263 282 L 265 282 L 265 285 L 266 285 L 266 282 L 268 282 L 268 281 L 266 275 L 265 275 z M 416 275 L 414 281 L 414 282 L 416 282 L 416 285 L 417 285 L 417 282 L 419 282 L 419 281 L 417 275 L 416 275 z M 421.5 275 A 2.5 3 0 0 0 421 280.9375 L 421 285 L 422 285 L 422 280.93555 A 2.5 3 0 0 0 421.5 275 z M 260.5 276 A 1.5 2 0 0 1 260.5 280 A 1.5 2 0 0 1 260.5 276 z M 265.5 276 L 267 281 L 264 281 L 265.5 276 z M 416.5 276 L 418 281 L 415 281 L 416.5 276 z M 421.5 276 A 1.5 2 0 0 1 421.5 280 A 1.5 2 0 0 1 421.5 276 z M 115 279 L 113 285 L 113 286 L 115 286 L 115 289 L 116 289 L 116 286 L 118 286 L 118 285 L 116 279 L 115 279 z M 120.5 279 A 2.5 3 0 0 0 120 284.9375 L 120 289 L 121 289 L 121 284.93555 A 2.5 3 0 0 0 120.5 279 z M 115.5 280 L 117 285 L 114 285 L 115.5 280 z M 120.5 280 A 1.5 2 0 0 1 120.5 284 A 1.5 2 0 0 1 120.5 280 z M 386 280 L 384 286 L 384 287 L 386 287 L 386 290 L 387 290 L 387 287 L 389 287 L 389 286 L 387 280 L 386 280 z M 391.5 280 A 2.5 3 0 0 0 391 285.9375 L 391 290 L 392 290 L 392 285.93555 A 2.5 3 0 0 0 391.5 280 z M 149.5 281 A 2.5 3 0 0 0 149 286.9375 L 149 291 L 150 291 L 150 286.93555 A 2.5 3 0 0 0 149.5 281 z M 154 281 L 152 287 L 152 288 L 154 288 L 154 291 L 155 291 L 155 288 L 157 288 L 157 287 L 155 281 L 154 281 z M 386.5 281 L 388 286 L 385 286 L 386.5 281 z M 391.5 281 A 1.5 2 0 0 1 391.5 285 A 1.5 2 0 0 1 391.5 281 z M 62.5 282 A 2.5 3 0 0 0 62 287.9375 L 62 292 L 63 292 L 63 287.93555 A 2.5 3 0 0 0 62.5 282 z M 67 282 L 65 288 L 65 289 L 67 289 L 67 292 L 68 292 L 68 289 L 70 289 L 70 288 L 68 282 L 67 282 z M 149.5 282 A 1.5 2 0 0 1 149.5 286 A 1.5 2 0 0 1 149.5 282 z M 154.5 282 L 156 287 L 153 287 L 154.5 282 z M 445 282 L 443 288 L 443 289 L 445 289 L 445 292 L 446 292 L 446 289 L 448 289 L 448 288 L 446 282 L 445 282 z M 450.5 282 A 2.5 3 0 0 0 450 287.9375 L 450 292 L 451 292 L 451 287.93555 A 2.5 3 0 0 0 450.5 282 z M 62.5 283 A 1.5 2 0 0 1 62.5 287 A 1.5 2 0 0 1 62.5 283 z M 67.5 283 L 69 288 L 66 288 L 67.5 283 z M 445.5 283 L 447 288 L 444 288 L 445.5 283 z M 450.5 283 A 1.5 2 0 0 1 450.5 287 A 1.5 2 0 0 1 450.5 283 z M 200.5 284 A 2.5 3 0 0 0 200 289.9375 L 200 294 L 201 294 L 201 289.93555 A 2.5 3 0 0 0 200.5 284 z M 205 284 L 203 290 L 203 291 L 205 291 L 205 294 L 206 294 L 206 291 L 208 291 L 208 290 L 206 284 L 205 284 z M 200.5 285 A 1.5 2 0 0 1 200.5 289 A 1.5 2 0 0 1 200.5 285 z M 205.5 285 L 207 290 L 204 290 L 205.5 285 z M 237.5 285 A 2.5 3 0 0 0 237 290.9375 L 237 295 L 238 295 L 238 290.93555 A 2.5 3 0 0 0 237.5 285 z M 242 285 L 240 291 L 240 292 L 242 292 L 242 295 L 243 295 L 243 292 L 245 292 L 245 291 L 243 285 L 242 285 z M 237.5 286 A 1.5 2 0 0 1 237.5 290 A 1.5 2 0 0 1 237.5 286 z M 242.5 286 L 244 291 L 241 291 L 242.5 286 z M 30.5 287 A 2.5 3 0 0 0 30 292.9375 L 30 297 L 31 297 L 31 292.93555 A 2.5 3 0 0 0 30.5 287 z M 35 287 L 33 293 L 33 294 L 35 294 L 35 297 L 36 297 L 36 294 L 38 294 L 38 293 L 36 287 L 35 287 z M 475.5 287 A 2.5 3 0 0 0 475 292.9375 L 475 297 L 476 297 L 476 292.93555 A 2.5 3 0 0 0 475.5 287 z M 480 287 L 478 293 L 478 294 L 480 294 L 480 297 L 481 297 L 481 294 L 483 294 L 483 293 L 481 287 L 480 287 z M 30.5 288 A 1.5 2 0 0 1 30.5 292 A 1.5 2 0 0 1 30.5 288 z M 35.5 288 L 37 293 L 34 293 L 35.5 288 z M 475.5 288 A 1.5 2 0 0 1 475.5 292 A 1.5 2 0 0 1 475.5 288 z M 480.5 288 L 482 293 L 479 293 L 480.5 288 z M 4 289 L 2 295 L 2 296 L 4 296 L 4 299 L 5 299 L 5 296 L 7 296 L 7 295 L 5 289 L 4 289 z M 356 289 L 354 295 L 354 296 L 356 296 L 356 299 L 357 299 L 357 296 L 359 296 L 359 295 L 357 289 L 356 289 z M 361.5 289 A 2.5 3 0 0 0 361 294.9375 L 361 299 L 362 299 L 362 294.93555 A 2.5 3 0 0 0 361.5 289 z M 511.5 289 A 2.5 3 0 0 0 511 294.9375 L 511 299 L 512 299 L 512 294.93555 L 512 293.88281 A 1.5 2 0 0 1 511.5 294 A 1.5 2 0 0 1 511.5 290 A 1.5 2 0 0 1 512 290.11523 L 512 289.0625 A 2.5 3 0 0 0 511.5 289 z M 0 289.0625 L 0 290.11523 A 1.5 2 0 0 1 0 293.88281 L 0 294.93555 A 2.5 3 0 0 0 0 289.0625 z M 4.5 290 L 6 295 L 3 295 L 4.5 290 z M 356.5 290 L 358 295 L 355 295 L 356.5 290 z M 361.5 290 A 1.5 2 0 0 1 361.5 294 A 1.5 2 0 0 1 361.5 290 z M 284 295 L 282 301 L 282 302 L 284 302 L 284 305 L 285 305 L 285 302 L 287 302 L 287 301 L 285 295 L 284 295 z M 289.5 295 A 2.5 3 0 0 0 289 300.9375 L 289 305 L 290 305 L 290 300.93555 A 2.5 3 0 0 0 289.5 295 z M 284.5 296 L 286 301 L 283 301 L 284.5 296 z M 289.5 296 A 1.5 2 0 0 1 289.5 300 A 1.5 2 0 0 1 289.5 296 z M 87.5 297 A 2.5 3 0 0 0 87 302.9375 L 87 307 L 88 307 L 88 302.93555 A 2.5 3 0 0 0 87.5 297 z M 92 297 L 90 303 L 90 304 L 92 304 L 92 307 L 93 307 L 93 304 L 95 304 L 95 303 L 93 297 L 92 297 z M 87.5 298 A 1.5 2 0 0 1 87.5 302 A 1.5 2 0 0 1 87.5 298 z M 92.5 298 L 94 303 L 91 303 L 92.5 298 z M 174 298 L 172 304 L 172 305 L 174 305 L 174 308 L 175 308 L 175 305 L 177 305 L 177 304 L 175 298 L 174 298 z M 179.5 298 A 2.5 3 0 0 0 179 303.9375 L 179 308 L 180 308 L 180 303.93555 A 2.5 3 0 0 0 179.5 298 z M 174.5 299 L 176 304 L 173 304 L 174.5 299 z M 179.5 299 A 1.5 2 0 0 1 179.5 303 A 1.5 2 0 0 1 179.5 299 z M 307.5 301 A 2.5 3 0 0 0 307 306.9375 L 307 311 L 308 311 L 308 306.93555 A 2.5 3 0 0 0 307.5 301 z M 312 301 L 310 307 L 310 308 L 312 308 L 312 311 L 313 311 L 313 308 L 315 308 L 315 307 L 313 301 L 312 301 z M 307.5 302 A 1.5 2 0 0 1 307.5 306 A 1.5 2 0 0 1 307.5 302 z M 312.5 302 L 314 307 L 311 307 L 312.5 302 z M 334 304 L 332 310 L 332 311 L 334 311 L 334 314 L 335 314 L 335 311 L 337 311 L 337 310 L 335 304 L 334 304 z M 339.5 304 A 2.5 3 0 0 0 339 309.9375 L 339 314 L 340 314 L 340 309.93555 A 2.5 3 0 0 0 339.5 304 z M 334.5 305 L 336 310 L 333 310 L 334.5 305 z M 339.5 305 A 1.5 2 0 0 1 339.5 309 A 1.5 2 0 0 1 339.5 305 z M 425 305 L 423 311 L 423 312 L 425 312 L 425 315 L 426 315 L 426 312 L 428 312 L 428 311 L 426 305 L 425 305 z M 430.5 305 A 2.5 3 0 0 0 430 310.9375 L 430 315 L 431 315 L 431 310.93555 A 2.5 3 0 0 0 430.5 305 z M 425.5 306 L 427 311 L 424 311 L 425.5 306 z M 430.5 306 A 1.5 2 0 0 1 430.5 310 A 1.5 2 0 0 1 430.5 306 z M 141.5 310 A 2.5 3 0 0 0 141 315.9375 L 141 320 L 142 320 L 142 315.93555 A 2.5 3 0 0 0 141.5 310 z M 146 310 L 144 316 L 144 317 L 146 317 L 146 320 L 147 320 L 147 317 L 149 317 L 149 316 L 147 310 L 146 310 z M 222 310 L 220 316 L 220 317 L 222 317 L 222 320 L 223 320 L 223 317 L 225 317 L 225 316 L 223 310 L 222 310 z M 227.5 310 A 2.5 3 0 0 0 227 315.9375 L 227 320 L 228 320 L 228 315.93555 A 2.5 3 0 0 0 227.5 310 z M 259 310 L 257 316 L 257 317 L 259 317 L 259 320 L 260 320 L 260 317 L 262 317 L 262 316 L 260 310 L 259 310 z M 264.5 310 A 2.5 3 0 0 0 264 315.9375 L 264 320 L 265 320 L 265 315.93555 A 2.5 3 0 0 0 264.5 310 z M 398.5 310 A 2.5 3 0 0 0 398 315.9375 L 398 320 L 399 320 L 399 315.93555 A 2.5 3 0 0 0 398.5 310 z M 403 310 L 401 316 L 401 317 L 403 317 L 403 320 L 404 320 L 404 317 L 406 317 L 406 316 L 404 310 L 403 310 z M 111 311 L 109 317 L 109 318 L 111 318 L 111 321 L 112 321 L 112 318 L 114 318 L 114 317 L 112 311 L 111 311 z M 116.5 311 A 2.5 3 0 0 0 116 316.9375 L 116 321 L 117 321 L 117 316.93555 A 2.5 3 0 0 0 116.5 311 z M 141.5 311 A 1.5 2 0 0 1 141.5 315 A 1.5 2 0 0 1 141.5 311 z M 146.5 311 L 148 316 L 145 316 L 146.5 311 z M 222.5 311 L 224 316 L 221 316 L 222.5 311 z M 227.5 311 A 1.5 2 0 0 1 227.5 315 A 1.5 2 0 0 1 227.5 311 z M 259.5 311 L 261 316 L 258 316 L 259.5 311 z M 264.5 311 A 1.5 2 0 0 1 264.5 315 A 1.5 2 0 0 1 264.5 311 z M 398.5 311 A 1.5 2 0 0 1 398.5 315 A 1.5 2 0 0 1 398.5 311 z M 403.5 311 L 405 316 L 402 316 L 403.5 311 z M 47.5 312 A 2.5 3 0 0 0 47 317.9375 L 47 322 L 48 322 L 48 317.93555 A 2.5 3 0 0 0 47.5 312 z M 52 312 L 50 318 L 50 319 L 52 319 L 52 322 L 53 322 L 53 319 L 55 319 L 55 318 L 53 312 L 52 312 z M 111.5 312 L 113 317 L 110 317 L 111.5 312 z M 116.5 312 A 1.5 2 0 0 1 116.5 316 A 1.5 2 0 0 1 116.5 312 z M 47.5 313 A 1.5 2 0 0 1 47.5 317 A 1.5 2 0 0 1 47.5 313 z M 52.5 313 L 54 318 L 51 318 L 52.5 313 z M 494 313 L 492 319 L 492 320 L 494 320 L 494 323 L 495 323 L 495 320 L 497 320 L 497 319 L 495 313 L 494 313 z M 499.5 313 A 2.5 3 0 0 0 499 318.9375 L 499 323 L 500 323 L 500 318.93555 A 2.5 3 0 0 0 499.5 313 z M 462.5 314 A 2.5 3 0 0 0 462 319.9375 L 462 324 L 463 324 L 463 319.93555 A 2.5 3 0 0 0 462.5 314 z M 467 314 L 465 320 L 465 321 L 467 321 L 467 324 L 468 324 L 468 321 L 470 321 L 470 320 L 468 314 L 467 314 z M 494.5 314 L 496 319 L 493 319 L 494.5 314 z M 499.5 314 A 1.5 2 0 0 1 499.5 318 A 1.5 2 0 0 1 499.5 314 z M 462.5 315 A 1.5 2 0 0 1 462.5 319 A 1.5 2 0 0 1 462.5 315 z M 467.5 315 L 469 320 L 466 320 L 467.5 315 z M 200.5 316 A 2.5 3 0 0 0 200 321.9375 L 200 326 L 201 326 L 201 321.93555 A 2.5 3 0 0 0 200.5 316 z M 205 316 L 203 322 L 203 323 L 205 323 L 205 326 L 206 326 L 206 323 L 208 323 L 208 322 L 206 316 L 205 316 z M 15.5 317 A 2.5 3 0 0 0 15 322.9375 L 15 327 L 16 327 L 16 322.93555 A 2.5 3 0 0 0 15.5 317 z M 20 317 L 18 323 L 18 324 L 20 324 L 20 327 L 21 327 L 21 324 L 23 324 L 23 323 L 21 317 L 20 317 z M 200.5 317 A 1.5 2 0 0 1 200.5 321 A 1.5 2 0 0 1 200.5 317 z M 205.5 317 L 207 322 L 204 322 L 205.5 317 z M 368 317 L 366 323 L 366 324 L 368 324 L 368 327 L 369 327 L 369 324 L 371 324 L 371 323 L 369 317 L 368 317 z M 373.5 317 A 2.5 3 0 0 0 373 322.9375 L 373 327 L 374 327 L 374 322.93555 A 2.5 3 0 0 0 373.5 317 z M 15.5 318 A 1.5 2 0 0 1 15.5 322 A 1.5 2 0 0 1 15.5 318 z M 20.5 318 L 22 323 L 19 323 L 20.5 318 z M 368.5 318 L 370 323 L 367 323 L 368.5 318 z M 373.5 318 A 1.5 2 0 0 1 373.5 322 A 1.5 2 0 0 1 373.5 318 z M 78 330 L 76 336 L 76 337 L 78 337 L 78 340 L 79 340 L 79 337 L 81 337 L 81 336 L 79 330 L 78 330 z M 83.5 330 A 2.5 3 0 0 0 83 335.9375 L 83 340 L 84 340 L 84 335.93555 A 2.5 3 0 0 0 83.5 330 z M 78.5 331 L 80 336 L 77 336 L 78.5 331 z M 83.5 331 A 1.5 2 0 0 1 83.5 335 A 1.5 2 0 0 1 83.5 331 z M 175.5 332 A 2.5 3 0 0 0 175 337.9375 L 175 342 L 176 342 L 176 337.93555 A 2.5 3 0 0 0 175.5 332 z M 180 332 L 178 338 L 178 339 L 180 339 L 180 342 L 181 342 L 181 339 L 183 339 L 183 338 L 181 332 L 180 332 z M 175.5 333 A 1.5 2 0 0 1 175.5 337 A 1.5 2 0 0 1 175.5 333 z M 180.5 333 L 182 338 L 179 338 L 180.5 333 z M 281 334 L 279 340 L 279 341 L 281 341 L 281 344 L 282 344 L 282 341 L 284 341 L 284 340 L 282 334 L 281 334 z M 286.5 334 A 2.5 3 0 0 0 286 339.9375 L 286 344 L 287 344 L 287 339.93555 A 2.5 3 0 0 0 286.5 334 z M 310 334 L 308 340 L 308 341 L 310 341 L 310 344 L 311 344 L 311 341 L 313 341 L 313 340 L 311 334 L 310 334 z M 315.5 334 A 2.5 3 0 0 0 315 339.9375 L 315 344 L 316 344 L 316 339.93555 A 2.5 3 0 0 0 315.5 334 z M 281.5 335 L 283 340 L 280 340 L 281.5 335 z M 286.5 335 A 1.5 2 0 0 1 286.5 339 A 1.5 2 0 0 1 286.5 335 z M 310.5 335 L 312 340 L 309 340 L 310.5 335 z M 315.5 335 A 1.5 2 0 0 1 315.5 339 A 1.5 2 0 0 1 315.5 335 z M 340.5 335 A 2.5 3 0 0 0 340 340.9375 L 340 345 L 341 345 L 341 340.93555 A 2.5 3 0 0 0 340.5 335 z M 345 335 L 343 341 L 343 342 L 345 342 L 345 345 L 346 345 L 346 342 L 348 342 L 348 341 L 346 335 L 345 335 z M 236 336 L 234 342 L 234 343 L 236 343 L 236 346 L 237 346 L 237 343 L 239 343 L 239 342 L 237 336 L 236 336 z M 241.5 336 A 2.5 3 0 0 0 241 341.9375 L 241 346 L 242 346 L 242 341.93555 A 2.5 3 0 0 0 241.5 336 z M 340.5 336 A 1.5 2 0 0 1 340.5 340 A 1.5 2 0 0 1 340.5 336 z M 345.5 336 L 347 341 L 344 341 L 345.5 336 z M 434 336 L 432 342 L 432 343 L 434 343 L 434 346 L 435 346 L 435 343 L 437 343 L 437 342 L 435 336 L 434 336 z M 439.5 336 A 2.5 3 0 0 0 439 341.9375 L 439 346 L 440 346 L 440 341.93555 A 2.5 3 0 0 0 439.5 336 z M 127 337 L 125 343 L 125 344 L 127 344 L 127 347 L 128 347 L 128 344 L 130 344 L 130 343 L 128 337 L 127 337 z M 132.5 337 A 2.5 3 0 0 0 132 342.9375 L 132 347 L 133 347 L 133 342.93555 A 2.5 3 0 0 0 132.5 337 z M 236.5 337 L 238 342 L 235 342 L 236.5 337 z M 241.5 337 A 1.5 2 0 0 1 241.5 341 A 1.5 2 0 0 1 241.5 337 z M 434.5 337 L 436 342 L 433 342 L 434.5 337 z M 439.5 337 A 1.5 2 0 0 1 439.5 341 A 1.5 2 0 0 1 439.5 337 z M 40.5 338 A 2.5 3 0 0 0 40 343.9375 L 40 348 L 41 348 L 41 343.93555 A 2.5 3 0 0 0 40.5 338 z M 45 338 L 43 344 L 43 345 L 45 345 L 45 348 L 46 348 L 46 345 L 48 345 L 48 344 L 46 338 L 45 338 z M 127.5 338 L 129 343 L 126 343 L 127.5 338 z M 132.5 338 A 1.5 2 0 0 1 132.5 342 A 1.5 2 0 0 1 132.5 338 z M 498 338 L 496 344 L 496 345 L 498 345 L 498 348 L 499 348 L 499 345 L 501 345 L 501 344 L 499 338 L 498 338 z M 503.5 338 A 2.5 3 0 0 0 503 343.9375 L 503 348 L 504 348 L 504 343.93555 A 2.5 3 0 0 0 503.5 338 z M 40.5 339 A 1.5 2 0 0 1 40.5 343 A 1.5 2 0 0 1 40.5 339 z M 45.5 339 L 47 344 L 44 344 L 45.5 339 z M 404 339 L 402 345 L 402 346 L 404 346 L 404 349 L 405 349 L 405 346 L 407 346 L 407 345 L 405 339 L 404 339 z M 409.5 339 A 2.5 3 0 0 0 409 344.9375 L 409 349 L 410 349 L 410 344.93555 A 2.5 3 0 0 0 409.5 339 z M 498.5 339 L 500 344 L 497 344 L 498.5 339 z M 503.5 339 A 1.5 2 0 0 1 503.5 343 A 1.5 2 0 0 1 503.5 339 z M 404.5 340 L 406 345 L 403 345 L 404.5 340 z M 409.5 340 A 1.5 2 0 0 1 409.5 344 A 1.5 2 0 0 1 409.5 340 z M 104.5 342 A 2.5 3 0 0 0 104 347.9375 L 104 352 L 105 352 L 105 347.93555 A 2.5 3 0 0 0 104.5 342 z M 109 342 L 107 348 L 107 349 L 109 349 L 109 352 L 110 352 L 110 349 L 112 349 L 112 348 L 110 342 L 109 342 z M 104.5 343 A 1.5 2 0 0 1 104.5 347 A 1.5 2 0 0 1 104.5 343 z M 109.5 343 L 111 348 L 108 348 L 109.5 343 z M 468.5 343 A 2.5 3 0 0 0 468 348.9375 L 468 353 L 469 353 L 469 348.93555 A 2.5 3 0 0 0 468.5 343 z M 473 343 L 471 349 L 471 350 L 473 350 L 473 353 L 474 353 L 474 350 L 476 350 L 476 349 L 474 343 L 473 343 z M 374.5 344 A 2.5 3 0 0 0 374 349.9375 L 374 354 L 375 354 L 375 349.93555 A 2.5 3 0 0 0 374.5 344 z M 379 344 L 377 350 L 377 351 L 379 351 L 379 354 L 380 354 L 380 351 L 382 351 L 382 350 L 380 344 L 379 344 z M 468.5 344 A 1.5 2 0 0 1 468.5 348 A 1.5 2 0 0 1 468.5 344 z M 473.5 344 L 475 349 L 472 349 L 473.5 344 z M 150.5 345 A 2.5 3 0 0 0 150 350.9375 L 150 355 L 151 355 L 151 350.93555 A 2.5 3 0 0 0 150.5 345 z M 155 345 L 153 351 L 153 352 L 155 352 L 155 355 L 156 355 L 156 352 L 158 352 L 158 351 L 156 345 L 155 345 z M 374.5 345 A 1.5 2 0 0 1 374.5 349 A 1.5 2 0 0 1 374.5 345 z M 379.5 345 L 381 350 L 378 350 L 379.5 345 z M 150.5 346 A 1.5 2 0 0 1 150.5 350 A 1.5 2 0 0 1 150.5 346 z M 155.5 346 L 157 351 L 154 351 L 155.5 346 z M 257 346 L 255 352 L 255 353 L 257 353 L 257 356 L 258 356 L 258 353 L 260 353 L 260 352 L 258 346 L 257 346 z M 262.5 346 A 2.5 3 0 0 0 262 351.9375 L 262 356 L 263 356 L 263 351.93555 A 2.5 3 0 0 0 262.5 346 z M 208 347 L 206 353 L 206 354 L 208 354 L 208 357 L 209 357 L 209 354 L 211 354 L 211 353 L 209 347 L 208 347 z M 213.5 347 A 2.5 3 0 0 0 213 352.9375 L 213 357 L 214 357 L 214 352.93555 A 2.5 3 0 0 0 213.5 347 z M 257.5 347 L 259 352 L 256 352 L 257.5 347 z M 262.5 347 A 1.5 2 0 0 1 262.5 351 A 1.5 2 0 0 1 262.5 347 z M 208.5 348 L 210 353 L 207 353 L 208.5 348 z M 213.5 348 A 1.5 2 0 0 1 213.5 352 A 1.5 2 0 0 1 213.5 348 z M 17.5 350 A 2.5 3 0 0 0 17 355.9375 L 17 360 L 18 360 L 18 355.93555 A 2.5 3 0 0 0 17.5 350 z M 22 350 L 20 356 L 20 357 L 22 357 L 22 360 L 23 360 L 23 357 L 25 357 L 25 356 L 23 350 L 22 350 z M 17.5 351 A 1.5 2 0 0 1 17.5 355 A 1.5 2 0 0 1 17.5 351 z M 22.5 351 L 24 356 L 21 356 L 22.5 351 z M 66 357 L 64 363 L 64 364 L 66 364 L 66 367 L 67 367 L 67 364 L 69 364 L 69 363 L 67 357 L 66 357 z M 71.5 357 A 2.5 3 0 0 0 71 362.9375 L 71 367 L 72 367 L 72 362.93555 A 2.5 3 0 0 0 71.5 357 z M 66.5 358 L 68 363 L 65 363 L 66.5 358 z M 71.5 358 A 1.5 2 0 0 1 71.5 362 A 1.5 2 0 0 1 71.5 358 z M 281 360 L 279 366 L 279 367 L 281 367 L 281 370 L 282 370 L 282 367 L 284 367 L 284 366 L 282 360 L 281 360 z M 286.5 360 A 2.5 3 0 0 0 286 365.9375 L 286 370 L 287 370 L 287 365.93555 A 2.5 3 0 0 0 286.5 360 z M 281.5 361 L 283 366 L 280 366 L 281.5 361 z M 286.5 361 A 1.5 2 0 0 1 286.5 365 A 1.5 2 0 0 1 286.5 361 z M 177.5 362 A 2.5 3 0 0 0 177 367.9375 L 177 372 L 178 372 L 178 367.93555 A 2.5 3 0 0 0 177.5 362 z M 182 362 L 180 368 L 180 369 L 182 369 L 182 372 L 183 372 L 183 369 L 185 369 L 185 368 L 183 362 L 182 362 z M 177.5 363 A 1.5 2 0 0 1 177.5 367 A 1.5 2 0 0 1 177.5 363 z M 182.5 363 L 184 368 L 181 368 L 182.5 363 z M 318 364 L 316 370 L 316 371 L 318 371 L 318 374 L 319 374 L 319 371 L 321 371 L 321 370 L 319 364 L 318 364 z M 323.5 364 A 2.5 3 0 0 0 323 369.9375 L 323 374 L 324 374 L 324 369.93555 A 2.5 3 0 0 0 323.5 364 z M 318.5 365 L 320 370 L 317 370 L 318.5 365 z M 323.5 365 A 1.5 2 0 0 1 323.5 369 A 1.5 2 0 0 1 323.5 365 z M 440.5 365 A 2.5 3 0 0 0 440 370.9375 L 440 375 L 441 375 L 441 370.93555 A 2.5 3 0 0 0 440.5 365 z M 445 365 L 443 371 L 443 372 L 445 372 L 445 375 L 446 375 L 446 372 L 448 372 L 448 371 L 446 365 L 445 365 z M 440.5 366 A 1.5 2 0 0 1 440.5 370 A 1.5 2 0 0 1 440.5 366 z M 445.5 366 L 447 371 L 444 371 L 445.5 366 z M 346 367 L 344 373 L 344 374 L 346 374 L 346 377 L 347 377 L 347 374 L 349 374 L 349 373 L 347 367 L 346 367 z M 351.5 367 A 2.5 3 0 0 0 351 372.9375 L 351 377 L 352 377 L 352 372.93555 A 2.5 3 0 0 0 351.5 367 z M 346.5 368 L 348 373 L 345 373 L 346.5 368 z M 351.5 368 A 1.5 2 0 0 1 351.5 372 A 1.5 2 0 0 1 351.5 368 z M 410.5 369 A 2.5 3 0 0 0 410 374.9375 L 410 379 L 411 379 L 411 374.93555 A 2.5 3 0 0 0 410.5 369 z M 415 369 L 413 375 L 413 376 L 415 376 L 415 379 L 416 379 L 416 376 L 418 376 L 418 375 L 416 369 L 415 369 z M 410.5 370 A 1.5 2 0 0 1 410.5 374 A 1.5 2 0 0 1 410.5 370 z M 415.5 370 L 417 375 L 414 375 L 415.5 370 z M 490.5 370 A 2.5 3 0 0 0 490 375.9375 L 490 380 L 491 380 L 491 375.93555 A 2.5 3 0 0 0 490.5 370 z M 495 370 L 493 376 L 493 377 L 495 377 L 495 380 L 496 380 L 496 377 L 498 377 L 498 376 L 496 370 L 495 370 z M 490.5 371 A 1.5 2 0 0 1 490.5 375 A 1.5 2 0 0 1 490.5 371 z M 495.5 371 L 497 376 L 494 376 L 495.5 371 z M 230.5 372 A 2.5 3 0 0 0 230 377.9375 L 230 382 L 231 382 L 231 377.93555 A 2.5 3 0 0 0 230.5 372 z M 235 372 L 233 378 L 233 379 L 235 379 L 235 382 L 236 382 L 236 379 L 238 379 L 238 378 L 236 372 L 235 372 z M 381 372 L 379 378 L 379 379 L 381 379 L 381 382 L 382 382 L 382 379 L 384 379 L 384 378 L 382 372 L 381 372 z M 386.5 372 A 2.5 3 0 0 0 386 377.9375 L 386 382 L 387 382 L 387 377.93555 A 2.5 3 0 0 0 386.5 372 z M 94 373 L 92 379 L 92 380 L 94 380 L 94 383 L 95 383 L 95 380 L 97 380 L 97 379 L 95 373 L 94 373 z M 99.5 373 A 2.5 3 0 0 0 99 378.9375 L 99 383 L 100 383 L 100 378.93555 A 2.5 3 0 0 0 99.5 373 z M 126.5 373 A 2.5 3 0 0 0 126 378.9375 L 126 383 L 127 383 L 127 378.93555 A 2.5 3 0 0 0 126.5 373 z M 131 373 L 129 379 L 129 380 L 131 380 L 131 383 L 132 383 L 132 380 L 134 380 L 134 379 L 132 373 L 131 373 z M 230.5 373 A 1.5 2 0 0 1 230.5 377 A 1.5 2 0 0 1 230.5 373 z M 235.5 373 L 237 378 L 234 378 L 235.5 373 z M 381.5 373 L 383 378 L 380 378 L 381.5 373 z M 386.5 373 A 1.5 2 0 0 1 386.5 377 A 1.5 2 0 0 1 386.5 373 z M 94.5 374 L 96 379 L 93 379 L 94.5 374 z M 99.5 374 A 1.5 2 0 0 1 99.5 378 A 1.5 2 0 0 1 99.5 374 z M 126.5 374 A 1.5 2 0 0 1 126.5 378 A 1.5 2 0 0 1 126.5 374 z M 131.5 374 L 133 379 L 130 379 L 131.5 374 z M 38 375 L 36 381 L 36 382 L 38 382 L 38 385 L 39 385 L 39 382 L 41 382 L 41 381 L 39 375 L 38 375 z M 43.5 375 A 2.5 3 0 0 0 43 380.9375 L 43 385 L 44 385 L 44 380.93555 A 2.5 3 0 0 0 43.5 375 z M 38.5 376 L 40 381 L 37 381 L 38.5 376 z M 43.5 376 A 1.5 2 0 0 1 43.5 380 A 1.5 2 0 0 1 43.5 376 z M 6.5 378 A 2.5 3 0 0 0 6 383.9375 L 6 388 L 7 388 L 7 383.93555 A 2.5 3 0 0 0 6.5 378 z M 11 378 L 9 384 L 9 385 L 11 385 L 11 388 L 12 388 L 12 385 L 14 385 L 14 384 L 12 378 L 11 378 z M 462 378 L 460 384 L 460 385 L 462 385 L 462 388 L 463 388 L 463 385 L 465 385 L 465 384 L 463 378 L 462 378 z M 467.5 378 A 2.5 3 0 0 0 467 383.9375 L 467 388 L 468 388 L 468 383.93555 A 2.5 3 0 0 0 467.5 378 z M 6.5 379 A 1.5 2 0 0 1 6.5 383 A 1.5 2 0 0 1 6.5 379 z M 11.5 379 L 13 384 L 10 384 L 11.5 379 z M 292.5 379 A 2.5 3 0 0 0 292 384.9375 L 292 389 L 293 389 L 293 384.93555 A 2.5 3 0 0 0 292.5 379 z M 297 379 L 295 385 L 295 386 L 297 386 L 297 389 L 298 389 L 298 386 L 300 386 L 300 385 L 298 379 L 297 379 z M 462.5 379 L 464 384 L 461 384 L 462.5 379 z M 467.5 379 A 1.5 2 0 0 1 467.5 383 A 1.5 2 0 0 1 467.5 379 z M 292.5 380 A 1.5 2 0 0 1 292.5 384 A 1.5 2 0 0 1 292.5 380 z M 297.5 380 L 299 385 L 296 385 L 297.5 380 z M 155 381 L 153 387 L 153 388 L 155 388 L 155 391 L 156 391 L 156 388 L 158 388 L 158 387 L 156 381 L 155 381 z M 160.5 381 A 2.5 3 0 0 0 160 386.9375 L 160 391 L 161 391 L 161 386.93555 A 2.5 3 0 0 0 160.5 381 z M 206.5 381 A 2.5 3 0 0 0 206 386.9375 L 206 391 L 207 391 L 207 386.93555 A 2.5 3 0 0 0 206.5 381 z M 211 381 L 209 387 L 209 388 L 211 388 L 211 391 L 212 391 L 212 388 L 214 388 L 214 387 L 212 381 L 211 381 z M 155.5 382 L 157 387 L 154 387 L 155.5 382 z M 160.5 382 A 1.5 2 0 0 1 160.5 386 A 1.5 2 0 0 1 160.5 382 z M 206.5 382 A 1.5 2 0 0 1 206.5 386 A 1.5 2 0 0 1 206.5 382 z M 211.5 382 L 213 387 L 210 387 L 211.5 382 z M 65 392 L 63 398 L 63 399 L 65 399 L 65 402 L 66 402 L 66 399 L 68 399 L 68 398 L 66 392 L 65 392 z M 70.5 392 A 2.5 3 0 0 0 70 397.9375 L 70 402 L 71 402 L 71 397.93555 A 2.5 3 0 0 0 70.5 392 z M 65.5 393 L 67 398 L 64 398 L 65.5 393 z M 70.5 393 A 1.5 2 0 0 1 70.5 397 A 1.5 2 0 0 1 70.5 393 z M 369.5 394 A 2.5 3 0 0 0 369 399.9375 L 369 404 L 370 404 L 370 399.93555 A 2.5 3 0 0 0 369.5 394 z M 374 394 L 372 400 L 372 401 L 374 401 L 374 404 L 375 404 L 375 401 L 377 401 L 377 400 L 375 394 L 374 394 z M 246.5 395 A 2.5 3 0 0 0 246 400.9375 L 246 405 L 247 405 L 247 400.93555 A 2.5 3 0 0 0 246.5 395 z M 251 395 L 249 401 L 249 402 L 251 402 L 251 405 L 252 405 L 252 402 L 254 402 L 254 401 L 252 395 L 251 395 z M 369.5 395 A 1.5 2 0 0 1 369.5 399 A 1.5 2 0 0 1 369.5 395 z M 374.5 395 L 376 400 L 373 400 L 374.5 395 z M 182.5 396 A 2.5 3 0 0 0 182 401.9375 L 182 406 L 183 406 L 183 401.93555 A 2.5 3 0 0 0 182.5 396 z M 187 396 L 185 402 L 185 403 L 187 403 L 187 406 L 188 406 L 188 403 L 190 403 L 190 402 L 188 396 L 187 396 z M 246.5 396 A 1.5 2 0 0 1 246.5 400 A 1.5 2 0 0 1 246.5 396 z M 251.5 396 L 253 401 L 250 401 L 251.5 396 z M 337.5 396 A 2.5 3 0 0 0 337 401.9375 L 337 406 L 338 406 L 338 401.93555 A 2.5 3 0 0 0 337.5 396 z M 342 396 L 340 402 L 340 403 L 342 403 L 342 406 L 343 406 L 343 403 L 345 403 L 345 402 L 343 396 L 342 396 z M 182.5 397 A 1.5 2 0 0 1 182.5 401 A 1.5 2 0 0 1 182.5 397 z M 187.5 397 L 189 402 L 186 402 L 187.5 397 z M 337.5 397 A 1.5 2 0 0 1 337.5 401 A 1.5 2 0 0 1 337.5 397 z M 342.5 397 L 344 402 L 341 402 L 342.5 397 z M 307.5 398 A 2.5 3 0 0 0 307 403.9375 L 307 408 L 308 408 L 308 403.93555 A 2.5 3 0 0 0 307.5 398 z M 312 398 L 310 404 L 310 405 L 312 405 L 312 408 L 313 408 L 313 405 L 315 405 L 315 404 L 313 398 L 312 398 z M 433.5 398 A 2.5 3 0 0 0 433 403.9375 L 433 408 L 434 408 L 434 403.93555 A 2.5 3 0 0 0 433.5 398 z M 438 398 L 436 404 L 436 405 L 438 405 L 438 408 L 439 408 L 439 405 L 441 405 L 441 404 L 439 398 L 438 398 z M 307.5 399 A 1.5 2 0 0 1 307.5 403 A 1.5 2 0 0 1 307.5 399 z M 312.5 399 L 314 404 L 311 404 L 312.5 399 z M 433.5 399 A 1.5 2 0 0 1 433.5 403 A 1.5 2 0 0 1 433.5 399 z M 438.5 399 L 440 404 L 437 404 L 438.5 399 z M 118 400 L 116 406 L 116 407 L 118 407 L 118 410 L 119 410 L 119 407 L 121 407 L 121 406 L 119 400 L 118 400 z M 123.5 400 A 2.5 3 0 0 0 123 405.9375 L 123 410 L 124 410 L 124 405.93555 A 2.5 3 0 0 0 123.5 400 z M 34 401 L 32 407 L 32 408 L 34 408 L 34 411 L 35 411 L 35 408 L 37 408 L 37 407 L 35 401 L 34 401 z M 39.5 401 A 2.5 3 0 0 0 39 406.9375 L 39 411 L 40 411 L 40 406.93555 A 2.5 3 0 0 0 39.5 401 z M 118.5 401 L 120 406 L 117 406 L 118.5 401 z M 123.5 401 A 1.5 2 0 0 1 123.5 405 A 1.5 2 0 0 1 123.5 401 z M 34.5 402 L 36 407 L 33 407 L 34.5 402 z M 39.5 402 A 1.5 2 0 0 1 39.5 406 A 1.5 2 0 0 1 39.5 402 z M 401 402 L 399 408 L 399 409 L 401 409 L 401 412 L 402 412 L 402 409 L 404 409 L 404 408 L 402 402 L 401 402 z M 406.5 402 A 2.5 3 0 0 0 406 407.9375 L 406 412 L 407 412 L 407 407.93555 A 2.5 3 0 0 0 406.5 402 z M 492 402 L 490 408 L 490 409 L 492 409 L 492 412 L 493 412 L 493 409 L 495 409 L 495 408 L 493 402 L 492 402 z M 497.5 402 A 2.5 3 0 0 0 497 407.9375 L 497 412 L 498 412 L 498 407.93555 A 2.5 3 0 0 0 497.5 402 z M 401.5 403 L 403 408 L 400 408 L 401.5 403 z M 406.5 403 A 1.5 2 0 0 1 406.5 407 A 1.5 2 0 0 1 406.5 403 z M 492.5 403 L 494 408 L 491 408 L 492.5 403 z M 497.5 403 A 1.5 2 0 0 1 497.5 407 A 1.5 2 0 0 1 497.5 403 z M 87 404 L 85 410 L 85 411 L 87 411 L 87 414 L 88 414 L 88 411 L 90 411 L 90 410 L 88 404 L 87 404 z M 92.5 404 A 2.5 3 0 0 0 92 409.9375 L 92 414 L 93 414 L 93 409.93555 A 2.5 3 0 0 0 92.5 404 z M 272 404 L 270 410 L 270 411 L 272 411 L 272 414 L 273 414 L 273 411 L 275 411 L 275 410 L 273 404 L 272 404 z M 277.5 404 A 2.5 3 0 0 0 277 409.9375 L 277 414 L 278 414 L 278 409.93555 A 2.5 3 0 0 0 277.5 404 z M 87.5 405 L 89 410 L 86 410 L 87.5 405 z M 92.5 405 A 1.5 2 0 0 1 92.5 409 A 1.5 2 0 0 1 92.5 405 z M 272.5 405 L 274 410 L 271 410 L 272.5 405 z M 277.5 405 A 1.5 2 0 0 1 277.5 409 A 1.5 2 0 0 1 277.5 405 z M 462.5 407 A 2.5 3 0 0 0 462 412.9375 L 462 417 L 463 417 L 463 412.93555 A 2.5 3 0 0 0 462.5 407 z M 467 407 L 465 413 L 465 414 L 467 414 L 467 417 L 468 417 L 468 414 L 470 414 L 470 413 L 468 407 L 467 407 z M 462.5 408 A 1.5 2 0 0 1 462.5 412 A 1.5 2 0 0 1 462.5 408 z M 467.5 408 L 469 413 L 466 413 L 467.5 408 z M 149.5 409 A 2.5 3 0 0 0 149 414.9375 L 149 419 L 150 419 L 150 414.93555 A 2.5 3 0 0 0 149.5 409 z M 154 409 L 152 415 L 152 416 L 154 416 L 154 419 L 155 419 L 155 416 L 157 416 L 157 415 L 155 409 L 154 409 z M 149.5 410 A 1.5 2 0 0 1 149.5 414 A 1.5 2 0 0 1 149.5 410 z M 154.5 410 L 156 415 L 153 415 L 154.5 410 z M 220 410 L 218 416 L 218 417 L 220 417 L 220 420 L 221 420 L 221 417 L 223 417 L 223 416 L 221 410 L 220 410 z M 225.5 410 A 2.5 3 0 0 0 225 415.9375 L 225 420 L 226 420 L 226 415.93555 A 2.5 3 0 0 0 225.5 410 z M 220.5 411 L 222 416 L 219 416 L 220.5 411 z M 225.5 411 A 1.5 2 0 0 1 225.5 415 A 1.5 2 0 0 1 225.5 411 z M 6 413 L 4 419 L 4 420 L 6 420 L 6 423 L 7 423 L 7 420 L 9 420 L 9 419 L 7 413 L 6 413 z M 11.5 413 A 2.5 3 0 0 0 11 418.9375 L 11 423 L 12 423 L 12 418.93555 A 2.5 3 0 0 0 11.5 413 z M 6.5 414 L 8 419 L 5 419 L 6.5 414 z M 11.5 414 A 1.5 2 0 0 1 11.5 418 A 1.5 2 0 0 1 11.5 414 z M 187.5 420 A 2.5 3 0 0 0 187 425.9375 L 187 430 L 188 430 L 188 425.93555 A 2.5 3 0 0 0 187.5 420 z M 192 420 L 190 426 L 190 427 L 192 427 L 192 430 L 193 430 L 193 427 L 195 427 L 195 426 L 193 420 L 192 420 z M 187.5 421 A 1.5 2 0 0 1 187.5 425 A 1.5 2 0 0 1 187.5 421 z M 192.5 421 L 194 426 L 191 426 L 192.5 421 z M 342 423 L 340 429 L 340 430 L 342 430 L 342 433 L 343 433 L 343 430 L 345 430 L 345 429 L 343 423 L 342 423 z M 347.5 423 A 2.5 3 0 0 0 347 428.9375 L 347 433 L 348 433 L 348 428.93555 A 2.5 3 0 0 0 347.5 423 z M 342.5 424 L 344 429 L 341 429 L 342.5 424 z M 347.5 424 A 1.5 2 0 0 1 347.5 428 A 1.5 2 0 0 1 347.5 424 z M 375.5 425 A 2.5 3 0 0 0 375 430.9375 L 375 435 L 376 435 L 376 430.93555 A 2.5 3 0 0 0 375.5 425 z M 380 425 L 378 431 L 378 432 L 380 432 L 380 435 L 381 435 L 381 432 L 383 432 L 383 431 L 381 425 L 380 425 z M 375.5 426 A 1.5 2 0 0 1 375.5 430 A 1.5 2 0 0 1 375.5 426 z M 380.5 426 L 382 431 L 379 431 L 380.5 426 z M 102 427 L 100 433 L 100 434 L 102 434 L 102 437 L 103 437 L 103 434 L 105 434 L 105 433 L 103 427 L 102 427 z M 107.5 427 A 2.5 3 0 0 0 107 432.9375 L 107 437 L 108 437 L 108 432.93555 A 2.5 3 0 0 0 107.5 427 z M 282.5 427 A 2.5 3 0 0 0 282 432.9375 L 282 437 L 283 437 L 283 432.93555 A 2.5 3 0 0 0 282.5 427 z M 287 427 L 285 433 L 285 434 L 287 434 L 287 437 L 288 437 L 288 434 L 290 434 L 290 433 L 288 427 L 287 427 z M 102.5 428 L 104 433 L 101 433 L 102.5 428 z M 107.5 428 A 1.5 2 0 0 1 107.5 432 A 1.5 2 0 0 1 107.5 428 z M 251.5 428 A 2.5 3 0 0 0 251 433.9375 L 251 438 L 252 438 L 252 433.93555 A 2.5 3 0 0 0 251.5 428 z M 256 428 L 254 434 L 254 435 L 256 435 L 256 438 L 257 438 L 257 435 L 259 435 L 259 434 L 257 428 L 256 428 z M 282.5 428 A 1.5 2 0 0 1 282.5 432 A 1.5 2 0 0 1 282.5 428 z M 287.5 428 L 289 433 L 286 433 L 287.5 428 z M 251.5 429 A 1.5 2 0 0 1 251.5 433 A 1.5 2 0 0 1 251.5 429 z M 256.5 429 L 258 434 L 255 434 L 256.5 429 z M 315.5 429 A 2.5 3 0 0 0 315 434.9375 L 315 439 L 316 439 L 316 434.93555 A 2.5 3 0 0 0 315.5 429 z M 320 429 L 318 435 L 318 436 L 320 436 L 320 439 L 321 439 L 321 436 L 323 436 L 323 435 L 321 429 L 320 429 z M 434 429 L 432 435 L 432 436 L 434 436 L 434 439 L 435 439 L 435 436 L 437 436 L 437 435 L 435 429 L 434 429 z M 439.5 429 A 2.5 3 0 0 0 439 434.9375 L 439 439 L 440 439 L 440 434.93555 A 2.5 3 0 0 0 439.5 429 z M 73 430 L 71 436 L 71 437 L 73 437 L 73 440 L 74 440 L 74 437 L 76 437 L 76 436 L 74 430 L 73 430 z M 78.5 430 A 2.5 3 0 0 0 78 435.9375 L 78 440 L 79 440 L 79 435.93555 A 2.5 3 0 0 0 78.5 430 z M 315.5 430 A 1.5 2 0 0 1 315.5 434 A 1.5 2 0 0 1 315.5 430 z M 320.5 430 L 322 435 L 319 435 L 320.5 430 z M 434.5 430 L 436 435 L 433 435 L 434.5 430 z M 439.5 430 A 1.5 2 0 0 1 439.5 434 A 1.5 2 0 0 1 439.5 430 z M 73.5 431 L 75 436 L 72 436 L 73.5 431 z M 78.5 431 A 1.5 2 0 0 1 78.5 435 A 1.5 2 0 0 1 78.5 431 z M 406.5 431 A 2.5 3 0 0 0 406 436.9375 L 406 441 L 407 441 L 407 436.93555 A 2.5 3 0 0 0 406.5 431 z M 411 431 L 409 437 L 409 438 L 411 438 L 411 441 L 412 441 L 412 438 L 414 438 L 414 437 L 412 431 L 411 431 z M 40 432 L 38 438 L 38 439 L 40 439 L 40 442 L 41 442 L 41 439 L 43 439 L 43 438 L 41 432 L 40 432 z M 45.5 432 A 2.5 3 0 0 0 45 437.9375 L 45 442 L 46 442 L 46 437.93555 A 2.5 3 0 0 0 45.5 432 z M 406.5 432 A 1.5 2 0 0 1 406.5 436 A 1.5 2 0 0 1 406.5 432 z M 411.5 432 L 413 437 L 410 437 L 411.5 432 z M 40.5 433 L 42 438 L 39 438 L 40.5 433 z M 45.5 433 A 1.5 2 0 0 1 45.5 437 A 1.5 2 0 0 1 45.5 433 z M 491.5 434 A 2.5 3 0 0 0 491 439.9375 L 491 444 L 492 444 L 492 439.93555 A 2.5 3 0 0 0 491.5 434 z M 496 434 L 494 440 L 494 441 L 496 441 L 496 444 L 497 444 L 497 441 L 499 441 L 499 440 L 497 434 L 496 434 z M 491.5 435 A 1.5 2 0 0 1 491.5 439 A 1.5 2 0 0 1 491.5 435 z M 496.5 435 L 498 440 L 495 440 L 496.5 435 z M 133 437 L 131 443 L 131 444 L 133 444 L 133 447 L 134 447 L 134 444 L 136 444 L 136 443 L 134 437 L 133 437 z M 138.5 437 A 2.5 3 0 0 0 138 442.9375 L 138 447 L 139 447 L 139 442.93555 A 2.5 3 0 0 0 138.5 437 z M 133.5 438 L 135 443 L 132 443 L 133.5 438 z M 138.5 438 A 1.5 2 0 0 1 138.5 442 A 1.5 2 0 0 1 138.5 438 z M 212 439 L 210 445 L 210 446 L 212 446 L 212 449 L 213 449 L 213 446 L 215 446 L 215 445 L 213 439 L 212 439 z M 217.5 439 A 2.5 3 0 0 0 217 444.9375 L 217 449 L 218 449 L 218 444.93555 A 2.5 3 0 0 0 217.5 439 z M 212.5 440 L 214 445 L 211 445 L 212.5 440 z M 217.5 440 A 1.5 2 0 0 1 217.5 444 A 1.5 2 0 0 1 217.5 440 z M 10 441 L 8 447 L 8 448 L 10 448 L 10 451 L 11 451 L 11 448 L 13 448 L 13 447 L 11 441 L 10 441 z M 15.5 441 A 2.5 3 0 0 0 15 446.9375 L 15 451 L 16 451 L 16 446.93555 A 2.5 3 0 0 0 15.5 441 z M 10.5 442 L 12 447 L 9 447 L 10.5 442 z M 15.5 442 A 1.5 2 0 0 1 15.5 446 A 1.5 2 0 0 1 15.5 442 z M 165 442 L 163 448 L 163 449 L 165 449 L 165 452 L 166 452 L 166 449 L 168 449 L 168 448 L 166 442 L 165 442 z M 170.5 442 A 2.5 3 0 0 0 170 447.9375 L 170 452 L 171 452 L 171 447.93555 A 2.5 3 0 0 0 170.5 442 z M 461 442 L 459 448 L 459 449 L 461 449 L 461 452 L 462 452 L 462 449 L 464 449 L 464 448 L 462 442 L 461 442 z M 466.5 442 A 2.5 3 0 0 0 466 447.9375 L 466 452 L 467 452 L 467 447.93555 A 2.5 3 0 0 0 466.5 442 z M 165.5 443 L 167 448 L 164 448 L 165.5 443 z M 170.5 443 A 1.5 2 0 0 1 170.5 447 A 1.5 2 0 0 1 170.5 443 z M 461.5 443 L 463 448 L 460 448 L 461.5 443 z M 466.5 443 A 1.5 2 0 0 1 466.5 447 A 1.5 2 0 0 1 466.5 443 z M 398.5 451 A 2.5 3 0 0 0 398 456.9375 L 398 461 L 399 461 L 399 456.93555 A 2.5 3 0 0 0 398.5 451 z M 403 451 L 401 457 L 401 458 L 403 458 L 403 461 L 404 461 L 404 458 L 406 458 L 406 457 L 404 451 L 403 451 z M 398.5 452 A 1.5 2 0 0 1 398.5 456 A 1.5 2 0 0 1 398.5 452 z M 403.5 452 L 405 457 L 402 457 L 403.5 452 z M 274 453 L 272 459 L 272 460 L 274 460 L 274 463 L 275 463 L 275 460 L 277 460 L 277 459 L 275 453 L 274 453 z M 279.5 453 A 2.5 3 0 0 0 279 458.9375 L 279 463 L 280 463 L 280 458.93555 A 2.5 3 0 0 0 279.5 453 z M 274.5 454 L 276 459 L 273 459 L 274.5 454 z M 279.5 454 A 1.5 2 0 0 1 279.5 458 A 1.5 2 0 0 1 279.5 454 z M 338.5 454 A 2.5 3 0 0 0 338 459.9375 L 338 464 L 339 464 L 339 459.93555 A 2.5 3 0 0 0 338.5 454 z M 343 454 L 341 460 L 341 461 L 343 461 L 343 464 L 344 464 L 344 461 L 346 461 L 346 460 L 344 454 L 343 454 z M 69.5 455 A 2.5 3 0 0 0 69 460.9375 L 69 465 L 70 465 L 70 460.93555 A 2.5 3 0 0 0 69.5 455 z M 74 455 L 72 461 L 72 462 L 74 462 L 74 465 L 75 465 L 75 462 L 77 462 L 77 461 L 75 455 L 74 455 z M 338.5 455 A 1.5 2 0 0 1 338.5 459 A 1.5 2 0 0 1 338.5 455 z M 343.5 455 L 345 460 L 342 460 L 343.5 455 z M 69.5 456 A 1.5 2 0 0 1 69.5 460 A 1.5 2 0 0 1 69.5 456 z M 74.5 456 L 76 461 L 73 461 L 74.5 456 z M 367 456 L 365 462 L 365 463 L 367 463 L 367 466 L 368 466 L 368 463 L 370 463 L 370 462 L 368 456 L 367 456 z M 372.5 456 A 2.5 3 0 0 0 372 461.9375 L 372 466 L 373 466 L 373 461.93555 A 2.5 3 0 0 0 372.5 456 z M 367.5 457 L 369 462 L 366 462 L 367.5 457 z M 372.5 457 A 1.5 2 0 0 1 372.5 461 A 1.5 2 0 0 1 372.5 457 z M 121 458 L 119 464 L 119 465 L 121 465 L 121 468 L 122 468 L 122 465 L 124 465 L 124 464 L 122 458 L 121 458 z M 126.5 458 A 2.5 3 0 0 0 126 463.9375 L 126 468 L 127 468 L 127 463.93555 A 2.5 3 0 0 0 126.5 458 z M 121.5 459 L 123 464 L 120 464 L 121.5 459 z M 126.5 459 A 1.5 2 0 0 1 126.5 463 A 1.5 2 0 0 1 126.5 459 z M 190.5 459 A 2.5 3 0 0 0 190 464.9375 L 190 469 L 191 469 L 191 464.93555 A 2.5 3 0 0 0 190.5 459 z M 195 459 L 193 465 L 193 466 L 195 466 L 195 469 L 196 469 L 196 466 L 198 466 L 198 465 L 196 459 L 195 459 z M 239.5 459 A 2.5 3 0 0 0 239 464.9375 L 239 469 L 240 469 L 240 464.93555 A 2.5 3 0 0 0 239.5 459 z M 244 459 L 242 465 L 242 466 L 244 466 L 244 469 L 245 469 L 245 466 L 247 466 L 247 465 L 245 459 L 244 459 z M 190.5 460 A 1.5 2 0 0 1 190.5 464 A 1.5 2 0 0 1 190.5 460 z M 195.5 460 L 197 465 L 194 465 L 195.5 460 z M 239.5 460 A 1.5 2 0 0 1 239.5 464 A 1.5 2 0 0 1 239.5 460 z M 244.5 460 L 246 465 L 243 465 L 244.5 460 z M 48 461 L 46 467 L 46 468 L 48 468 L 48 471 L 49 471 L 49 468 L 51 468 L 51 467 L 49 461 L 48 461 z M 53.5 461 A 2.5 3 0 0 0 53 466.9375 L 53 471 L 54 471 L 54 466.93555 A 2.5 3 0 0 0 53.5 461 z M 48.5 462 L 50 467 L 47 467 L 48.5 462 z M 53.5 462 A 1.5 2 0 0 1 53.5 466 A 1.5 2 0 0 1 53.5 462 z M 303 464 L 301 470 L 301 471 L 303 471 L 303 474 L 304 474 L 304 471 L 306 471 L 306 470 L 304 464 L 303 464 z M 308.5 464 A 2.5 3 0 0 0 308 469.9375 L 308 474 L 309 474 L 309 469.93555 A 2.5 3 0 0 0 308.5 464 z M 303.5 465 L 305 470 L 302 470 L 303.5 465 z M 308.5 465 A 1.5 2 0 0 1 308.5 469 A 1.5 2 0 0 1 308.5 465 z M 437.5 465 A 2.5 3 0 0 0 437 470.9375 L 437 475 L 438 475 L 438 470.93555 A 2.5 3 0 0 0 437.5 465 z M 442 465 L 440 471 L 440 472 L 442 472 L 442 475 L 443 475 L 443 472 L 445 472 L 445 471 L 443 465 L 442 465 z M 499.5 465 A 2.5 3 0 0 0 499 470.9375 L 499 475 L 500 475 L 500 470.93555 A 2.5 3 0 0 0 499.5 465 z M 504 465 L 502 471 L 502 472 L 504 472 L 504 475 L 505 475 L 505 472 L 507 472 L 507 471 L 505 465 L 504 465 z M 437.5 466 A 1.5 2 0 0 1 437.5 470 A 1.5 2 0 0 1 437.5 466 z M 442.5 466 L 444 471 L 441 471 L 442.5 466 z M 499.5 466 A 1.5 2 0 0 1 499.5 470 A 1.5 2 0 0 1 499.5 466 z M 504.5 466 L 506 471 L 503 471 L 504.5 466 z M 152 468 L 150 474 L 150 475 L 152 475 L 152 478 L 153 478 L 153 475 L 155 475 L 155 474 L 153 468 L 152 468 z M 157.5 468 A 2.5 3 0 0 0 157 473.9375 L 157 478 L 158 478 L 158 473.93555 A 2.5 3 0 0 0 157.5 468 z M 152.5 469 L 154 474 L 151 474 L 152.5 469 z M 157.5 469 A 1.5 2 0 0 1 157.5 473 A 1.5 2 0 0 1 157.5 469 z M 93 470 L 91 476 L 91 477 L 93 477 L 93 480 L 94 480 L 94 477 L 96 477 L 96 476 L 94 470 L 93 470 z M 98.5 470 A 2.5 3 0 0 0 98 475.9375 L 98 480 L 99 480 L 99 475.93555 A 2.5 3 0 0 0 98.5 470 z M 93.5 471 L 95 476 L 92 476 L 93.5 471 z M 98.5 471 A 1.5 2 0 0 1 98.5 475 A 1.5 2 0 0 1 98.5 471 z M 471 471 L 469 477 L 469 478 L 471 478 L 471 481 L 472 481 L 472 478 L 474 478 L 474 477 L 472 471 L 471 471 z M 476.5 471 A 2.5 3 0 0 0 476 476.9375 L 476 481 L 477 481 L 477 476.93555 A 2.5 3 0 0 0 476.5 471 z M 408.5 472 A 2.5 3 0 0 0 408 477.9375 L 408 482 L 409 482 L 409 477.93555 A 2.5 3 0 0 0 408.5 472 z M 413 472 L 411 478 L 411 479 L 413 479 L 413 482 L 414 482 L 414 479 L 416 479 L 416 478 L 414 472 L 413 472 z M 471.5 472 L 473 477 L 470 477 L 471.5 472 z M 476.5 472 A 1.5 2 0 0 1 476.5 476 A 1.5 2 0 0 1 476.5 472 z M 408.5 473 A 1.5 2 0 0 1 408.5 477 A 1.5 2 0 0 1 408.5 473 z M 413.5 473 L 415 478 L 412 478 L 413.5 473 z M 27.5 474 A 2.5 3 0 0 0 27 479.9375 L 27 484 L 28 484 L 28 479.93555 A 2.5 3 0 0 0 27.5 474 z M 32 474 L 30 480 L 30 481 L 32 481 L 32 484 L 33 484 L 33 481 L 35 481 L 35 480 L 33 474 L 32 474 z M 27.5 475 A 1.5 2 0 0 1 27.5 479 A 1.5 2 0 0 1 27.5 475 z M 32.5 475 L 34 480 L 31 480 L 32.5 475 z M 215.5 475 A 2.5 3 0 0 0 215 480.9375 L 215 485 L 216 485 L 216 480.93555 A 2.5 3 0 0 0 215.5 475 z M 220 475 L 218 481 L 218 482 L 220 482 L 220 485 L 221 485 L 221 482 L 223 482 L 223 481 L 221 475 L 220 475 z M 215.5 476 A 1.5 2 0 0 1 215.5 480 A 1.5 2 0 0 1 215.5 476 z M 220.5 476 L 222 481 L 219 481 L 220.5 476 z M 257.5 483 A 2.5 3 0 0 0 257 488.9375 L 257 493 L 258 493 L 258 488.93555 A 2.5 3 0 0 0 257.5 483 z M 262 483 L 260 489 L 260 490 L 262 490 L 262 493 L 263 493 L 263 490 L 265 490 L 265 489 L 263 483 L 262 483 z M 349 483 L 347 489 L 347 490 L 349 490 L 349 493 L 350 493 L 350 490 L 352 490 L 352 489 L 350 483 L 349 483 z M 354.5 483 A 2.5 3 0 0 0 354 488.9375 L 354 493 L 355 493 L 355 488.93555 A 2.5 3 0 0 0 354.5 483 z M 180.5 484 A 2.5 3 0 0 0 180 489.9375 L 180 494 L 181 494 L 181 489.93555 A 2.5 3 0 0 0 180.5 484 z M 185 484 L 183 490 L 183 491 L 185 491 L 185 494 L 186 494 L 186 491 L 188 491 L 188 490 L 186 484 L 185 484 z M 257.5 484 A 1.5 2 0 0 1 257.5 488 A 1.5 2 0 0 1 257.5 484 z M 262.5 484 L 264 489 L 261 489 L 262.5 484 z M 349.5 484 L 351 489 L 348 489 L 349.5 484 z M 354.5 484 A 1.5 2 0 0 1 354.5 488 A 1.5 2 0 0 1 354.5 484 z M 180.5 485 A 1.5 2 0 0 1 180.5 489 A 1.5 2 0 0 1 180.5 485 z M 185.5 485 L 187 490 L 184 490 L 185.5 485 z M 285.5 486 A 2.5 3 0 0 0 285 491.9375 L 285 496 L 286 496 L 286 491.93555 A 2.5 3 0 0 0 285.5 486 z M 290 486 L 288 492 L 288 493 L 290 493 L 290 496 L 291 496 L 291 493 L 293 493 L 293 492 L 291 486 L 290 486 z M 285.5 487 A 1.5 2 0 0 1 285.5 491 A 1.5 2 0 0 1 285.5 487 z M 290.5 487 L 292 492 L 289 492 L 290.5 487 z M 12 489 L 10 495 L 10 496 L 12 496 L 12 499 L 13 499 L 13 496 L 15 496 L 15 495 L 13 489 L 12 489 z M 17.5 489 A 2.5 3 0 0 0 17 494.9375 L 17 499 L 18 499 L 18 494.93555 A 2.5 3 0 0 0 17.5 489 z M 116.5 489 A 2.5 3 0 0 0 116 494.9375 L 116 499 L 117 499 L 117 494.93555 A 2.5 3 0 0 0 116.5 489 z M 121 489 L 119 495 L 119 496 L 121 496 L 121 499 L 122 499 L 122 496 L 124 496 L 124 495 L 122 489 L 121 489 z M 379.5 489 A 2.5 3 0 0 0 379 494.9375 L 379 499 L 380 499 L 380 494.93555 A 2.5 3 0 0 0 379.5 489 z M 384 489 L 382 495 L 382 496 L 384 496 L 384 499 L 385 499 L 385 496 L 387 496 L 387 495 L 385 489 L 384 489 z M 12.5 490 L 14 495 L 11 495 L 12.5 490 z M 17.5 490 A 1.5 2 0 0 1 17.5 494 A 1.5 2 0 0 1 17.5 490 z M 116.5 490 A 1.5 2 0 0 1 116.5 494 A 1.5 2 0 0 1 116.5 490 z M 121.5 490 L 123 495 L 120 495 L 121.5 490 z M 379.5 490 A 1.5 2 0 0 1 379.5 494 A 1.5 2 0 0 1 379.5 490 z M 384.5 490 L 386 495 L 383 495 L 384.5 490 z M 320.5 493 A 2.5 3 0 0 0 320 498.9375 L 320 503 L 321 503 L 321 498.93555 A 2.5 3 0 0 0 320.5 493 z M 325 493 L 323 499 L 323 500 L 325 500 L 325 503 L 326 503 L 326 500 L 328 500 L 328 499 L 326 493 L 325 493 z M 74 494 L 72 500 L 72 501 L 74 501 L 74 504 L 75 504 L 75 501 L 77 501 L 77 500 L 75 494 L 74 494 z M 79.5 494 A 2.5 3 0 0 0 79 499.9375 L 79 504 L 80 504 L 80 499.93555 A 2.5 3 0 0 0 79.5 494 z M 320.5 494 A 1.5 2 0 0 1 320.5 498 A 1.5 2 0 0 1 320.5 494 z M 325.5 494 L 327 499 L 324 499 L 325.5 494 z M 45.5 495 A 2.5 3 0 0 0 45 500.9375 L 45 505 L 46 505 L 46 500.93555 A 2.5 3 0 0 0 45.5 495 z M 50 495 L 48 501 L 48 502 L 50 502 L 50 505 L 51 505 L 51 502 L 53 502 L 53 501 L 51 495 L 50 495 z M 74.5 495 L 76 500 L 73 500 L 74.5 495 z M 79.5 495 A 1.5 2 0 0 1 79.5 499 A 1.5 2 0 0 1 79.5 495 z M 45.5 496 A 1.5 2 0 0 1 45.5 500 A 1.5 2 0 0 1 45.5 496 z M 50.5 496 L 52 501 L 49 501 L 50.5 496 z M 234 496 L 232 502 L 232 503 L 234 503 L 234 506 L 235 506 L 235 503 L 237 503 L 237 502 L 235 496 L 234 496 z M 239.5 496 A 2.5 3 0 0 0 239 501.9375 L 239 506 L 240 506 L 240 501.93555 A 2.5 3 0 0 0 239.5 496 z M 442 496 L 440 502 L 440 503 L 442 503 L 442 506 L 443 506 L 443 503 L 445 503 L 445 502 L 443 496 L 442 496 z M 447.5 496 A 2.5 3 0 0 0 447 501.9375 L 447 506 L 448 506 L 448 501.93555 A 2.5 3 0 0 0 447.5 496 z M 234.5 497 L 236 502 L 233 502 L 234.5 497 z M 239.5 497 A 1.5 2 0 0 1 239.5 501 A 1.5 2 0 0 1 239.5 497 z M 442.5 497 L 444 502 L 441 502 L 442.5 497 z M 447.5 497 A 1.5 2 0 0 1 447.5 501 A 1.5 2 0 0 1 447.5 497 z M 490.5 497 A 2.5 3 0 0 0 490 502.9375 L 490 507 L 491 507 L 491 502.93555 A 2.5 3 0 0 0 490.5 497 z M 495 497 L 493 503 L 493 504 L 495 504 L 495 507 L 496 507 L 496 504 L 498 504 L 498 503 L 496 497 L 495 497 z M 153 498 L 151 504 L 151 505 L 153 505 L 153 508 L 154 508 L 154 505 L 156 505 L 156 504 L 154 498 L 153 498 z M 158.5 498 A 2.5 3 0 0 0 158 503.9375 L 158 508 L 159 508 L 159 503.93555 A 2.5 3 0 0 0 158.5 498 z M 414.5 498 A 2.5 3 0 0 0 414 503.9375 L 414 508 L 415 508 L 415 503.93555 A 2.5 3 0 0 0 414.5 498 z M 419 498 L 417 504 L 417 505 L 419 505 L 419 508 L 420 508 L 420 505 L 422 505 L 422 504 L 420 498 L 419 498 z M 490.5 498 A 1.5 2 0 0 1 490.5 502 A 1.5 2 0 0 1 490.5 498 z M 495.5 498 L 497 503 L 494 503 L 495.5 498 z M 153.5 499 L 155 504 L 152 504 L 153.5 499 z M 158.5 499 A 1.5 2 0 0 1 158.5 503 A 1.5 2 0 0 1 158.5 499 z M 414.5 499 A 1.5 2 0 0 1 414.5 503 A 1.5 2 0 0 1 414.5 499 z M 419.5 499 L 421 504 L 418 504 L 419.5 499 z M 129.5 510 A 2.5 3 0 0 0 127.14453 512 L 128.20312 512 A 1.5 2 0 0 1 129.5 511 A 1.5 2 0 0 1 130.79883 512 L 131.85352 512 A 2.5 3 0 0 0 129.5 510 z M 134 510 L 133.33398 512 L 134.19922 512 L 134.5 511 L 134.80078 512 L 135.66602 512 L 135 510 L 134 510 z M 200.5 510 A 2.5 3 0 0 0 198.14453 512 L 199.20312 512 A 1.5 2 0 0 1 200.5 511 A 1.5 2 0 0 1 201.79883 512 L 202.85352 512 A 2.5 3 0 0 0 200.5 510 z M 205 510 L 204.33398 512 L 205.19922 512 L 205.5 511 L 205.80078 512 L 206.66602 512 L 206 510 L 205 510 z M 5 511 L 4.6660156 512 L 5.5 512 L 6.3339844 512 L 6 511 L 5 511 z M 10.5 511 A 2.5 3 0 0 0 8.6367188 512 L 10.5 512 L 12.359375 512 A 2.5 3 0 0 0 10.5 511 z "
     style="fill:#6b8d5e" />
  <rect
     style="fill:none;fill-opacity:1;stroke:none"
     id="rect8566"
     y="0"
     x="0"
     rx="0"
     height="512"
     width="512" />
  <desc
     id="desc933">Created with Snap</desc>
</svg>
