<?xml version="1.0" encoding="UTF-8" standalone="no"?>
<svg
   xmlns:dc="http://purl.org/dc/elements/1.1/"
   xmlns:cc="http://creativecommons.org/ns#"
   xmlns:rdf="http://www.w3.org/1999/02/22-rdf-syntax-ns#"
   xmlns:svg="http://www.w3.org/2000/svg"
   xmlns="http://www.w3.org/2000/svg"
   version="1.1"
   height="256"
   width="256"
   id="Svg">
  <metadata
     id="metadata333">
    <rdf:RDF>
      <cc:Work
         rdf:about="">
        <dc:format>image/svg+xml</dc:format>
        <dc:type
           rdf:resource="http://purl.org/dc/dcmitype/StillImage" />
      </cc:Work>
    </rdf:RDF>
  </metadata>
  <defs
     id="defs3" />
  <path
     id="path5244"
     d="M 154 0 L 154 4 L 155 4 L 155 1 L 157.5 1 A 0.50005 0.50005 0 0 0 158 0.5 L 158 0 L 157 0 L 155 0 L 154 0 z M 190 0 L 190 2 L 191 2 L 191 0 L 190 0 z M 116.49219 3.9921875 A 0.50005 0.50005 0 0 0 116 4.5 L 116 9 L 114 9 L 114 5.5 A 0.50005 0.50005 0 0 0 113.49219 4.9921875 A 0.50005 0.50005 0 0 0 113 5.5 L 113 9.5 A 0.50005 0.50005 0 0 0 113.5 10 L 116 10 L 116 12 L 116 16 L 117 16 L 117 13 L 119.5 13 A 0.50005 0.50005 0 0 0 120 12.5 L 120 7.5 A 0.50005 0.50005 0 0 0 119.49219 6.9921875 A 0.50005 0.50005 0 0 0 119 7.5 L 119 12 L 117 12 L 117 5 L 117 4.5 A 0.50005 0.50005 0 0 0 116.49219 3.9921875 z M 50.492188 5.9921875 A 0.50005 0.50005 0 0 0 50 6.5 L 50 11 L 48 11 L 48 7.5 A 0.50005 0.50005 0 0 0 47.492188 6.9921875 A 0.50005 0.50005 0 0 0 47 7.5 L 47 11.5 A 0.50005 0.50005 0 0 0 47.5 12 L 50 12 L 50 14 L 50 18 L 51 18 L 51 15 L 53.5 15 A 0.50005 0.50005 0 0 0 54 14.5 L 54 9.5 A 0.50005 0.50005 0 0 0 53.492188 8.9921875 A 0.50005 0.50005 0 0 0 53 9.5 L 53 14 L 51 14 L 51 7 L 51 6.5 A 0.50005 0.50005 0 0 0 50.492188 5.9921875 z M 13.492188 10.992188 A 0.50005 0.50005 0 0 0 13 11.5 L 13 16 L 11 16 L 11 12.5 A 0.50005 0.50005 0 0 0 10.492188 11.992188 A 0.50005 0.50005 0 0 0 10 12.5 L 10 16.5 A 0.50005 0.50005 0 0 0 10.5 17 L 13 17 L 13 19 L 13 23 L 14 23 L 14 20 L 16.5 20 A 0.50005 0.50005 0 0 0 17 19.5 L 17 14.5 A 0.50005 0.50005 0 0 0 16.492188 13.992188 A 0.50005 0.50005 0 0 0 16 14.5 L 16 19 L 14 19 L 14 12 L 14 11.5 A 0.50005 0.50005 0 0 0 13.492188 10.992188 z M 215.50586 11.992188 A 0.50005 0.50005 0 0 0 215 12.5 L 215 13 L 215 20 L 213 20 L 213 15.5 A 0.50005 0.50005 0 0 0 212.50781 14.992188 A 0.50005 0.50005 0 0 0 212 15.5 L 212 20.5 A 0.50005 0.50005 0 0 0 212.5 21 L 215 21 L 215 24 L 216 24 L 216 20 L 216 18 L 218.5 18 A 0.50005 0.50005 0 0 0 219 17.5 L 219 13.5 A 0.50005 0.50005 0 0 0 218.50781 12.992188 A 0.50005 0.50005 0 0 0 218 13.5 L 218 17 L 216 17 L 216 12.5 A 0.50005 0.50005 0 0 0 215.50781 11.992188 A 0.50005 0.50005 0 0 1 215.50586 11.992188 z M 178.50586 17.992188 A 0.50005 0.50005 0 0 0 178 18.5 L 178 19 L 178 26 L 176 26 L 176 21.5 A 0.50005 0.50005 0 0 0 175.50781 20.992188 A 0.50005 0.50005 0 0 0 175 21.5 L 175 26.5 A 0.50005 0.50005 0 0 0 175.5 27 L 178 27 L 178 30 L 179 30 L 179 26 L 179 24 L 181.5 24 A 0.50005 0.50005 0 0 0 182 23.5 L 182 19.5 A 0.50005 0.50005 0 0 0 181.50781 18.992188 A 0.50005 0.50005 0 0 0 181 19.5 L 181 23 L 179 23 L 179 18.5 A 0.50005 0.50005 0 0 0 178.50781 17.992188 A 0.50005 0.50005 0 0 1 178.50586 17.992188 z M 76.492188 18.992188 A 0.50005 0.50005 0 0 0 76 19.5 L 76 24 L 74 24 L 74 20.5 A 0.50005 0.50005 0 0 0 73.492188 19.992188 A 0.50005 0.50005 0 0 0 73 20.5 L 73 24.5 A 0.50005 0.50005 0 0 0 73.5 25 L 76 25 L 76 27 L 76 31 L 77 31 L 77 28 L 79.5 28 A 0.50005 0.50005 0 0 0 80 27.5 L 80 22.5 A 0.50005 0.50005 0 0 0 79.492188 21.992188 A 0.50005 0.50005 0 0 0 79 22.5 L 79 27 L 77 27 L 77 20 L 77 19.5 A 0.50005 0.50005 0 0 0 76.492188 18.992188 z M 137.50586 21.992188 A 0.50005 0.50005 0 0 0 137 22.5 L 137 23 L 137 30 L 135 30 L 135 25.5 A 0.50005 0.50005 0 0 0 134.50781 24.992188 A 0.50005 0.50005 0 0 0 134 25.5 L 134 30.5 A 0.50005 0.50005 0 0 0 134.5 31 L 137 31 L 137 34 L 138 34 L 138 30 L 138 28 L 140.5 28 A 0.50005 0.50005 0 0 0 141 27.5 L 141 23.5 A 0.50005 0.50005 0 0 0 140.50781 22.992188 A 0.50005 0.50005 0 0 0 140 23.5 L 140 27 L 138 27 L 138 22.5 A 0.50005 0.50005 0 0 0 137.50781 21.992188 A 0.50005 0.50005 0 0 1 137.50586 21.992188 z M 241.50586 27.992188 A 0.50005 0.50005 0 0 0 241 28.5 L 241 29 L 241 36 L 239 36 L 239 31.5 A 0.50005 0.50005 0 0 0 238.50781 30.992188 A 0.50005 0.50005 0 0 0 238 31.5 L 238 36.5 A 0.50005 0.50005 0 0 0 238.5 37 L 241 37 L 241 40 L 242 40 L 242 36 L 242 34 L 244.5 34 A 0.50005 0.50005 0 0 0 245 33.5 L 245 29.5 A 0.50005 0.50005 0 0 0 244.50781 28.992188 A 0.50005 0.50005 0 0 0 244 29.5 L 244 33 L 242 33 L 242 28.5 A 0.50005 0.50005 0 0 0 241.50781 27.992188 A 0.50005 0.50005 0 0 1 241.50586 27.992188 z M 45.505859 38.992188 A 0.50005 0.50005 0 0 0 45 39.5 L 45 40 L 45 47 L 43 47 L 43 42.5 A 0.50005 0.50005 0 0 0 42.507812 41.992188 A 0.50005 0.50005 0 0 0 42 42.5 L 42 47.5 A 0.50005 0.50005 0 0 0 42.5 48 L 45 48 L 45 51 L 46 51 L 46 47 L 46 45 L 48.5 45 A 0.50005 0.50005 0 0 0 49 44.5 L 49 40.5 A 0.50005 0.50005 0 0 0 48.507812 39.992188 A 0.50005 0.50005 0 0 0 48 40.5 L 48 44 L 46 44 L 46 39.5 A 0.50005 0.50005 0 0 0 45.507812 38.992188 A 0.50005 0.50005 0 0 1 45.505859 38.992188 z M 113.50586 40.992188 A 0.50005 0.50005 0 0 0 113 41.5 L 113 42 L 113 49 L 111 49 L 111 44.5 A 0.50005 0.50005 0 0 0 110.50781 43.992188 A 0.50005 0.50005 0 0 0 110 44.5 L 110 49.5 A 0.50005 0.50005 0 0 0 110.5 50 L 113 50 L 113 53 L 114 53 L 114 49 L 114 47 L 116.5 47 A 0.50005 0.50005 0 0 0 117 46.5 L 117 42.5 A 0.50005 0.50005 0 0 0 116.50781 41.992188 A 0.50005 0.50005 0 0 0 116 42.5 L 116 46 L 114 46 L 114 41.5 A 0.50005 0.50005 0 0 0 113.50781 40.992188 A 0.50005 0.50005 0 0 1 113.50586 40.992188 z M 156.49219 43.992188 A 0.50005 0.50005 0 0 0 156 44.5 L 156 49 L 154 49 L 154 45.5 A 0.50005 0.50005 0 0 0 153.49219 44.992188 A 0.50005 0.50005 0 0 0 153 45.5 L 153 49.5 A 0.50005 0.50005 0 0 0 153.5 50 L 156 50 L 156 52 L 156 56 L 157 56 L 157 53 L 159.5 53 A 0.50005 0.50005 0 0 0 160 52.5 L 160 47.5 A 0.50005 0.50005 0 0 0 159.49219 46.992188 A 0.50005 0.50005 0 0 0 159 47.5 L 159 52 L 157 52 L 157 45 L 157 44.5 A 0.50005 0.50005 0 0 0 156.49219 43.992188 z M 220.50586 45.992188 A 0.50005 0.50005 0 0 0 220 46.5 L 220 47 L 220 54 L 218 54 L 218 49.5 A 0.50005 0.50005 0 0 0 217.50781 48.992188 A 0.50005 0.50005 0 0 0 217 49.5 L 217 54.5 A 0.50005 0.50005 0 0 0 217.5 55 L 220 55 L 220 58 L 221 58 L 221 54 L 221 52 L 223.5 52 A 0.50005 0.50005 0 0 0 224 51.5 L 224 47.5 A 0.50005 0.50005 0 0 0 223.50781 46.992188 A 0.50005 0.50005 0 0 0 223 47.5 L 223 51 L 221 51 L 221 46.5 A 0.50005 0.50005 0 0 0 220.50781 45.992188 A 0.50005 0.50005 0 0 1 220.50586 45.992188 z M 74.492188 47.992188 A 0.50005 0.50005 0 0 0 74 48.5 L 74 53 L 72 53 L 72 49.5 A 0.50005 0.50005 0 0 0 71.492188 48.992188 A 0.50005 0.50005 0 0 0 71 49.5 L 71 53.5 A 0.50005 0.50005 0 0 0 71.5 54 L 74 54 L 74 56 L 74 60 L 75 60 L 75 57 L 77.5 57 A 0.50005 0.50005 0 0 0 78 56.5 L 78 51.5 A 0.50005 0.50005 0 0 0 77.492188 50.992188 A 0.50005 0.50005 0 0 0 77 51.5 L 77 56 L 75 56 L 75 49 L 75 48.5 A 0.50005 0.50005 0 0 0 74.492188 47.992188 z M 10.492188 48.992188 A 0.50005 0.50005 0 0 0 10 49.5 L 10 54 L 8 54 L 8 50.5 A 0.50005 0.50005 0 0 0 7.4921875 49.992188 A 0.50005 0.50005 0 0 0 7 50.5 L 7 54.5 A 0.50005 0.50005 0 0 0 7.5 55 L 10 55 L 10 57 L 10 61 L 11 61 L 11 58 L 13.5 58 A 0.50005 0.50005 0 0 0 14 57.5 L 14 52.5 A 0.50005 0.50005 0 0 0 13.492188 51.992188 A 0.50005 0.50005 0 0 0 13 52.5 L 13 57 L 11 57 L 11 50 L 11 49.5 A 0.50005 0.50005 0 0 0 10.492188 48.992188 z M 182.49219 52.992188 A 0.50005 0.50005 0 0 0 182 53.5 L 182 58 L 180 58 L 180 54.5 A 0.50005 0.50005 0 0 0 179.49219 53.992188 A 0.50005 0.50005 0 0 0 179 54.5 L 179 58.5 A 0.50005 0.50005 0 0 0 179.5 59 L 182 59 L 182 61 L 182 65 L 183 65 L 183 62 L 185.5 62 A 0.50005 0.50005 0 0 0 186 61.5 L 186 56.5 A 0.50005 0.50005 0 0 0 185.49219 55.992188 A 0.50005 0.50005 0 0 0 185 56.5 L 185 61 L 183 61 L 183 54 L 183 53.5 A 0.50005 0.50005 0 0 0 182.49219 52.992188 z M 35.492188 67.992188 A 0.50005 0.50005 0 0 0 35 68.5 L 35 73 L 33 73 L 33 69.5 A 0.50005 0.50005 0 0 0 32.492188 68.992188 A 0.50005 0.50005 0 0 0 32 69.5 L 32 73.5 A 0.50005 0.50005 0 0 0 32.5 74 L 35 74 L 35 76 L 35 80 L 36 80 L 36 77 L 38.5 77 A 0.50005 0.50005 0 0 0 39 76.5 L 39 71.5 A 0.50005 0.50005 0 0 0 38.492188 70.992188 A 0.50005 0.50005 0 0 0 38 71.5 L 38 76 L 36 76 L 36 69 L 36 68.5 A 0.50005 0.50005 0 0 0 35.492188 67.992188 z M 101.49219 68.992188 A 0.50005 0.50005 0 0 0 101 69.5 L 101 74 L 99 74 L 99 70.5 A 0.50005 0.50005 0 0 0 98.492188 69.992188 A 0.50005 0.50005 0 0 0 98 70.5 L 98 74.5 A 0.50005 0.50005 0 0 0 98.5 75 L 101 75 L 101 77 L 101 81 L 102 81 L 102 78 L 104.5 78 A 0.50005 0.50005 0 0 0 105 77.5 L 105 72.5 A 0.50005 0.50005 0 0 0 104.49219 71.992188 A 0.50005 0.50005 0 0 0 104 72.5 L 104 77 L 102 77 L 102 70 L 102 69.5 A 0.50005 0.50005 0 0 0 101.49219 68.992188 z M 134.50586 70.992188 A 0.50005 0.50005 0 0 0 134 71.5 L 134 72 L 134 79 L 132 79 L 132 74.5 A 0.50005 0.50005 0 0 0 131.50781 73.992188 A 0.50005 0.50005 0 0 0 131 74.5 L 131 79.5 A 0.50005 0.50005 0 0 0 131.5 80 L 134 80 L 134 83 L 135 83 L 135 79 L 135 77 L 137.5 77 A 0.50005 0.50005 0 0 0 138 76.5 L 138 72.5 A 0.50005 0.50005 0 0 0 137.50781 71.992188 A 0.50005 0.50005 0 0 0 137 72.5 L 137 76 L 135 76 L 135 71.5 A 0.50005 0.50005 0 0 0 134.50781 70.992188 A 0.50005 0.50005 0 0 1 134.50586 70.992188 z M 207.49219 74.992188 A 0.50005 0.50005 0 0 0 207 75.5 L 207 80 L 205 80 L 205 76.5 A 0.50005 0.50005 0 0 0 204.49219 75.992188 A 0.50005 0.50005 0 0 0 204 76.5 L 204 80.5 A 0.50005 0.50005 0 0 0 204.5 81 L 207 81 L 207 83 L 207 87 L 208 87 L 208 84 L 210.5 84 A 0.50005 0.50005 0 0 0 211 83.5 L 211 78.5 A 0.50005 0.50005 0 0 0 210.49219 77.992188 A 0.50005 0.50005 0 0 0 210 78.5 L 210 83 L 208 83 L 208 76 L 208 75.5 A 0.50005 0.50005 0 0 0 207.49219 74.992188 z M 164.49219 78.992188 A 0.50005 0.50005 0 0 0 164 79.5 L 164 84 L 162 84 L 162 80.5 A 0.50005 0.50005 0 0 0 161.49219 79.992188 A 0.50005 0.50005 0 0 0 161 80.5 L 161 84.5 A 0.50005 0.50005 0 0 0 161.5 85 L 164 85 L 164 87 L 164 91 L 165 91 L 165 88 L 167.5 88 A 0.50005 0.50005 0 0 0 168 87.5 L 168 82.5 A 0.50005 0.50005 0 0 0 167.49219 81.992188 A 0.50005 0.50005 0 0 0 167 82.5 L 167 87 L 165 87 L 165 80 L 165 79.5 A 0.50005 0.50005 0 0 0 164.49219 78.992188 z M 74.492188 81.992188 A 0.50005 0.50005 0 0 0 74 82.5 L 74 87 L 72 87 L 72 83.5 A 0.50005 0.50005 0 0 0 71.492188 82.992188 A 0.50005 0.50005 0 0 0 71 83.5 L 71 87.5 A 0.50005 0.50005 0 0 0 71.5 88 L 74 88 L 74 90 L 74 94 L 75 94 L 75 91 L 77.5 91 A 0.50005 0.50005 0 0 0 78 90.5 L 78 85.5 A 0.50005 0.50005 0 0 0 77.492188 84.992188 A 0.50005 0.50005 0 0 0 77 85.5 L 77 90 L 75 90 L 75 83 L 75 82.5 A 0.50005 0.50005 0 0 0 74.492188 81.992188 z M 237.50586 84.992188 A 0.50005 0.50005 0 0 0 237 85.5 L 237 86 L 237 93 L 235 93 L 235 88.5 A 0.50005 0.50005 0 0 0 234.50781 87.992188 A 0.50005 0.50005 0 0 0 234 88.5 L 234 93.5 A 0.50005 0.50005 0 0 0 234.5 94 L 237 94 L 237 97 L 238 97 L 238 93 L 238 91 L 240.5 91 A 0.50005 0.50005 0 0 0 241 90.5 L 241 86.5 A 0.50005 0.50005 0 0 0 240.50781 85.992188 A 0.50005 0.50005 0 0 0 240 86.5 L 240 90 L 238 90 L 238 85.5 A 0.50005 0.50005 0 0 0 237.50781 84.992188 A 0.50005 0.50005 0 0 1 237.50586 84.992188 z M 11.505859 85.992188 A 0.50005 0.50005 0 0 0 11 86.5 L 11 87 L 11 94 L 9 94 L 9 89.5 A 0.50005 0.50005 0 0 0 8.5078125 88.992188 A 0.50005 0.50005 0 0 0 8 89.5 L 8 94.5 A 0.50005 0.50005 0 0 0 8.5 95 L 11 95 L 11 98 L 12 98 L 12 94 L 12 92 L 14.5 92 A 0.50005 0.50005 0 0 0 15 91.5 L 15 87.5 A 0.50005 0.50005 0 0 0 14.507812 86.992188 A 0.50005 0.50005 0 0 0 14 87.5 L 14 91 L 12 91 L 12 86.5 A 0.50005 0.50005 0 0 0 11.507812 85.992188 A 0.50005 0.50005 0 0 1 11.505859 85.992188 z M 186.50586 99.992188 A 0.50005 0.50005 0 0 0 186 100.5 L 186 101 L 186 108 L 184 108 L 184 103.5 A 0.50005 0.50005 0 0 0 183.50781 102.99219 A 0.50005 0.50005 0 0 0 183 103.5 L 183 108.5 A 0.50005 0.50005 0 0 0 183.5 109 L 186 109 L 186 112 L 187 112 L 187 108 L 187 106 L 189.5 106 A 0.50005 0.50005 0 0 0 190 105.5 L 190 101.5 A 0.50005 0.50005 0 0 0 189.50781 100.99219 A 0.50005 0.50005 0 0 0 189 101.5 L 189 105 L 187 105 L 187 100.5 A 0.50005 0.50005 0 0 0 186.50781 99.992188 A 0.50005 0.50005 0 0 1 186.50586 99.992188 z M 48.492188 100.99219 A 0.50005 0.50005 0 0 0 48 101.5 L 48 106 L 46 106 L 46 102.5 A 0.50005 0.50005 0 0 0 45.492188 101.99219 A 0.50005 0.50005 0 0 0 45 102.5 L 45 106.5 A 0.50005 0.50005 0 0 0 45.5 107 L 48 107 L 48 109 L 48 113 L 49 113 L 49 110 L 51.5 110 A 0.50005 0.50005 0 0 0 52 109.5 L 52 104.5 A 0.50005 0.50005 0 0 0 51.492188 103.99219 A 0.50005 0.50005 0 0 0 51 104.5 L 51 109 L 49 109 L 49 102 L 49 101.5 A 0.50005 0.50005 0 0 0 48.492188 100.99219 z M 110.50586 100.99219 A 0.50005 0.50005 0 0 0 110 101.5 L 110 102 L 110 109 L 108 109 L 108 104.5 A 0.50005 0.50005 0 0 0 107.50781 103.99219 A 0.50005 0.50005 0 0 0 107 104.5 L 107 109.5 A 0.50005 0.50005 0 0 0 107.5 110 L 110 110 L 110 113 L 111 113 L 111 109 L 111 107 L 113.5 107 A 0.50005 0.50005 0 0 0 114 106.5 L 114 102.5 A 0.50005 0.50005 0 0 0 113.50781 101.99219 A 0.50005 0.50005 0 0 0 113 102.5 L 113 106 L 111 106 L 111 101.5 A 0.50005 0.50005 0 0 0 110.50781 100.99219 A 0.50005 0.50005 0 0 1 110.50586 100.99219 z M 146.50586 106.99219 A 0.50005 0.50005 0 0 0 146 107.5 L 146 108 L 146 115 L 144 115 L 144 110.5 A 0.50005 0.50005 0 0 0 143.50781 109.99219 A 0.50005 0.50005 0 0 0 143 110.5 L 143 115.5 A 0.50005 0.50005 0 0 0 143.5 116 L 146 116 L 146 119 L 147 119 L 147 115 L 147 113 L 149.5 113 A 0.50005 0.50005 0 0 0 150 112.5 L 150 108.5 A 0.50005 0.50005 0 0 0 149.50781 107.99219 A 0.50005 0.50005 0 0 0 149 108.5 L 149 112 L 147 112 L 147 107.5 A 0.50005 0.50005 0 0 0 146.50781 106.99219 A 0.50005 0.50005 0 0 1 146.50586 106.99219 z M 216.50586 109.99219 A 0.50005 0.50005 0 0 0 216 110.5 L 216 111 L 216 118 L 214 118 L 214 113.5 A 0.50005 0.50005 0 0 0 213.50781 112.99219 A 0.50005 0.50005 0 0 0 213 113.5 L 213 118.5 A 0.50005 0.50005 0 0 0 213.5 119 L 216 119 L 216 122 L 217 122 L 217 118 L 217 116 L 219.5 116 A 0.50005 0.50005 0 0 0 220 115.5 L 220 111.5 A 0.50005 0.50005 0 0 0 219.50781 110.99219 A 0.50005 0.50005 0 0 0 219 111.5 L 219 115 L 217 115 L 217 110.5 A 0.50005 0.50005 0 0 0 216.50781 109.99219 A 0.50005 0.50005 0 0 1 216.50586 109.99219 z M 82.505859 110.99219 A 0.50005 0.50005 0 0 0 82 111.5 L 82 112 L 82 119 L 80 119 L 80 114.5 A 0.50005 0.50005 0 0 0 79.507812 113.99219 A 0.50005 0.50005 0 0 0 79 114.5 L 79 119.5 A 0.50005 0.50005 0 0 0 79.5 120 L 82 120 L 82 123 L 83 123 L 83 119 L 83 117 L 85.5 117 A 0.50005 0.50005 0 0 0 86 116.5 L 86 112.5 A 0.50005 0.50005 0 0 0 85.507812 111.99219 A 0.50005 0.50005 0 0 0 85 112.5 L 85 116 L 83 116 L 83 111.5 A 0.50005 0.50005 0 0 0 82.507812 110.99219 A 0.50005 0.50005 0 0 1 82.505859 110.99219 z M 18.505859 112.99219 A 0.50005 0.50005 0 0 0 18 113.5 L 18 114 L 18 121 L 16 121 L 16 116.5 A 0.50005 0.50005 0 0 0 15.507812 115.99219 A 0.50005 0.50005 0 0 0 15 116.5 L 15 121.5 A 0.50005 0.50005 0 0 0 15.5 122 L 18 122 L 18 125 L 19 125 L 19 121 L 19 119 L 21.5 119 A 0.50005 0.50005 0 0 0 22 118.5 L 22 114.5 A 0.50005 0.50005 0 0 0 21.507812 113.99219 A 0.50005 0.50005 0 0 0 21 114.5 L 21 118 L 19 118 L 19 113.5 A 0.50005 0.50005 0 0 0 18.507812 112.99219 A 0.50005 0.50005 0 0 1 18.505859 112.99219 z M 245.50586 122.99219 A 0.50005 0.50005 0 0 0 245 123.5 L 245 124 L 245 131 L 243 131 L 243 126.5 A 0.50005 0.50005 0 0 0 242.50781 125.99219 A 0.50005 0.50005 0 0 0 242 126.5 L 242 131.5 A 0.50005 0.50005 0 0 0 242.5 132 L 245 132 L 245 135 L 246 135 L 246 131 L 246 129 L 248.5 129 A 0.50005 0.50005 0 0 0 249 128.5 L 249 124.5 A 0.50005 0.50005 0 0 0 248.50781 123.99219 A 0.50005 0.50005 0 0 0 248 124.5 L 248 128 L 246 128 L 246 123.5 A 0.50005 0.50005 0 0 0 245.50781 122.99219 A 0.50005 0.50005 0 0 1 245.50586 122.99219 z M 168.50586 124.99219 A 0.50005 0.50005 0 0 0 168 125.5 L 168 126 L 168 133 L 166 133 L 166 128.5 A 0.50005 0.50005 0 0 0 165.50781 127.99219 A 0.50005 0.50005 0 0 0 165 128.5 L 165 133.5 A 0.50005 0.50005 0 0 0 165.5 134 L 168 134 L 168 137 L 169 137 L 169 133 L 169 131 L 171.5 131 A 0.50005 0.50005 0 0 0 172 130.5 L 172 126.5 A 0.50005 0.50005 0 0 0 171.50781 125.99219 A 0.50005 0.50005 0 0 0 171 126.5 L 171 130 L 169 130 L 169 125.5 A 0.50005 0.50005 0 0 0 168.50781 124.99219 A 0.50005 0.50005 0 0 1 168.50586 124.99219 z M 114.50586 131.99219 A 0.50005 0.50005 0 0 0 114 132.5 L 114 133 L 114 140 L 112 140 L 112 135.5 A 0.50005 0.50005 0 0 0 111.50781 134.99219 A 0.50005 0.50005 0 0 0 111 135.5 L 111 140.5 A 0.50005 0.50005 0 0 0 111.5 141 L 114 141 L 114 144 L 115 144 L 115 140 L 115 138 L 117.5 138 A 0.50005 0.50005 0 0 0 118 137.5 L 118 133.5 A 0.50005 0.50005 0 0 0 117.50781 132.99219 A 0.50005 0.50005 0 0 0 117 133.5 L 117 137 L 115 137 L 115 132.5 A 0.50005 0.50005 0 0 0 114.50781 131.99219 A 0.50005 0.50005 0 0 1 114.50586 131.99219 z M 39.505859 132.99219 A 0.50005 0.50005 0 0 0 39 133.5 L 39 134 L 39 141 L 37 141 L 37 136.5 A 0.50005 0.50005 0 0 0 36.507812 135.99219 A 0.50005 0.50005 0 0 0 36 136.5 L 36 141.5 A 0.50005 0.50005 0 0 0 36.5 142 L 39 142 L 39 145 L 40 145 L 40 141 L 40 139 L 42.5 139 A 0.50005 0.50005 0 0 0 43 138.5 L 43 134.5 A 0.50005 0.50005 0 0 0 42.507812 133.99219 A 0.50005 0.50005 0 0 0 42 134.5 L 42 138 L 40 138 L 40 133.5 A 0.50005 0.50005 0 0 0 39.507812 132.99219 A 0.50005 0.50005 0 0 1 39.505859 132.99219 z M 202.50586 138.99219 A 0.50005 0.50005 0 0 0 202 139.5 L 202 140 L 202 147 L 200 147 L 200 142.5 A 0.50005 0.50005 0 0 0 199.50781 141.99219 A 0.50005 0.50005 0 0 0 199 142.5 L 199 147.5 A 0.50005 0.50005 0 0 0 199.5 148 L 202 148 L 202 151 L 203 151 L 203 147 L 203 145 L 205.5 145 A 0.50005 0.50005 0 0 0 206 144.5 L 206 140.5 A 0.50005 0.50005 0 0 0 205.50781 139.99219 A 0.50005 0.50005 0 0 0 205 140.5 L 205 144 L 203 144 L 203 139.5 A 0.50005 0.50005 0 0 0 202.50781 138.99219 A 0.50005 0.50005 0 0 1 202.50586 138.99219 z M 82.505859 144.99219 A 0.50005 0.50005 0 0 0 82 145.5 L 82 146 L 82 153 L 80 153 L 80 148.5 A 0.50005 0.50005 0 0 0 79.507812 147.99219 A 0.50005 0.50005 0 0 0 79 148.5 L 79 153.5 A 0.50005 0.50005 0 0 0 79.5 154 L 82 154 L 82 157 L 83 157 L 83 153 L 83 151 L 85.5 151 A 0.50005 0.50005 0 0 0 86 150.5 L 86 146.5 A 0.50005 0.50005 0 0 0 85.507812 145.99219 A 0.50005 0.50005 0 0 0 85 146.5 L 85 150 L 83 150 L 83 145.5 A 0.50005 0.50005 0 0 0 82.507812 144.99219 A 0.50005 0.50005 0 0 1 82.505859 144.99219 z M 228.50586 148.99219 A 0.50005 0.50005 0 0 0 228 149.5 L 228 150 L 228 157 L 226 157 L 226 152.5 A 0.50005 0.50005 0 0 0 225.50781 151.99219 A 0.50005 0.50005 0 0 0 225 152.5 L 225 157.5 A 0.50005 0.50005 0 0 0 225.5 158 L 228 158 L 228 161 L 229 161 L 229 157 L 229 155 L 231.5 155 A 0.50005 0.50005 0 0 0 232 154.5 L 232 150.5 A 0.50005 0.50005 0 0 0 231.50781 149.99219 A 0.50005 0.50005 0 0 0 231 150.5 L 231 154 L 229 154 L 229 149.5 A 0.50005 0.50005 0 0 0 228.50781 148.99219 A 0.50005 0.50005 0 0 1 228.50586 148.99219 z M 11.505859 149.99219 A 0.50005 0.50005 0 0 0 11 150.5 L 11 151 L 11 158 L 9 158 L 9 153.5 A 0.50005 0.50005 0 0 0 8.5078125 152.99219 A 0.50005 0.50005 0 0 0 8 153.5 L 8 158.5 A 0.50005 0.50005 0 0 0 8.5 159 L 11 159 L 11 162 L 12 162 L 12 158 L 12 156 L 14.5 156 A 0.50005 0.50005 0 0 0 15 155.5 L 15 151.5 A 0.50005 0.50005 0 0 0 14.507812 150.99219 A 0.50005 0.50005 0 0 0 14 151.5 L 14 155 L 12 155 L 12 150.5 A 0.50005 0.50005 0 0 0 11.507812 149.99219 A 0.50005 0.50005 0 0 1 11.505859 149.99219 z M 146.49219 149.99219 A 0.50005 0.50005 0 0 0 146 150.5 L 146 155 L 144 155 L 144 151.5 A 0.50005 0.50005 0 0 0 143.49219 150.99219 A 0.50005 0.50005 0 0 0 143 151.5 L 143 155.5 A 0.50005 0.50005 0 0 0 143.5 156 L 146 156 L 146 158 L 146 162 L 147 162 L 147 159 L 149.5 159 A 0.50005 0.50005 0 0 0 150 158.5 L 150 153.5 A 0.50005 0.50005 0 0 0 149.49219 152.99219 A 0.50005 0.50005 0 0 0 149 153.5 L 149 158 L 147 158 L 147 151 L 147 150.5 A 0.50005 0.50005 0 0 0 146.49219 149.99219 z M 54.505859 155.99219 A 0.50005 0.50005 0 0 0 54 156.5 L 54 157 L 54 164 L 52 164 L 52 159.5 A 0.50005 0.50005 0 0 0 51.507812 158.99219 A 0.50005 0.50005 0 0 0 51 159.5 L 51 164.5 A 0.50005 0.50005 0 0 0 51.5 165 L 54 165 L 54 168 L 55 168 L 55 164 L 55 162 L 57.5 162 A 0.50005 0.50005 0 0 0 58 161.5 L 58 157.5 A 0.50005 0.50005 0 0 0 57.507812 156.99219 A 0.50005 0.50005 0 0 0 57 157.5 L 57 161 L 55 161 L 55 156.5 A 0.50005 0.50005 0 0 0 54.507812 155.99219 A 0.50005 0.50005 0 0 1 54.505859 155.99219 z M 176.50586 159.99219 A 0.50005 0.50005 0 0 0 176 160.5 L 176 161 L 176 168 L 174 168 L 174 163.5 A 0.50005 0.50005 0 0 0 173.50781 162.99219 A 0.50005 0.50005 0 0 0 173 163.5 L 173 168.5 A 0.50005 0.50005 0 0 0 173.5 169 L 176 169 L 176 172 L 177 172 L 177 168 L 177 166 L 179.5 166 A 0.50005 0.50005 0 0 0 180 165.5 L 180 161.5 A 0.50005 0.50005 0 0 0 179.50781 160.99219 A 0.50005 0.50005 0 0 0 179 161.5 L 179 165 L 177 165 L 177 160.5 A 0.50005 0.50005 0 0 0 176.50781 159.99219 A 0.50005 0.50005 0 0 1 176.50586 159.99219 z M 117.50586 163.99219 A 0.50005 0.50005 0 0 0 117 164.5 L 117 165 L 117 172 L 115 172 L 115 167.5 A 0.50005 0.50005 0 0 0 114.50781 166.99219 A 0.50005 0.50005 0 0 0 114 167.5 L 114 172.5 A 0.50005 0.50005 0 0 0 114.5 173 L 117 173 L 117 176 L 118 176 L 118 172 L 118 170 L 120.5 170 A 0.50005 0.50005 0 0 0 121 169.5 L 121 165.5 A 0.50005 0.50005 0 0 0 120.50781 164.99219 A 0.50005 0.50005 0 0 0 120 165.5 L 120 169 L 118 169 L 118 164.5 A 0.50005 0.50005 0 0 0 117.50781 163.99219 A 0.50005 0.50005 0 0 1 117.50586 163.99219 z M 209.49219 173.99219 A 0.50005 0.50005 0 0 0 209 174.5 L 209 179 L 207 179 L 207 175.5 A 0.50005 0.50005 0 0 0 206.49219 174.99219 A 0.50005 0.50005 0 0 0 206 175.5 L 206 179.5 A 0.50005 0.50005 0 0 0 206.5 180 L 209 180 L 209 182 L 209 186 L 210 186 L 210 183 L 212.5 183 A 0.50005 0.50005 0 0 0 213 182.5 L 213 177.5 A 0.50005 0.50005 0 0 0 212.49219 176.99219 A 0.50005 0.50005 0 0 0 212 177.5 L 212 182 L 210 182 L 210 175 L 210 174.5 A 0.50005 0.50005 0 0 0 209.49219 173.99219 z M 87.492188 174.99219 A 0.50005 0.50005 0 0 0 87 175.5 L 87 180 L 85 180 L 85 176.5 A 0.50005 0.50005 0 0 0 84.492188 175.99219 A 0.50005 0.50005 0 0 0 84 176.5 L 84 180.5 A 0.50005 0.50005 0 0 0 84.5 181 L 87 181 L 87 183 L 87 187 L 88 187 L 88 184 L 90.5 184 A 0.50005 0.50005 0 0 0 91 183.5 L 91 178.5 A 0.50005 0.50005 0 0 0 90.492188 177.99219 A 0.50005 0.50005 0 0 0 90 178.5 L 90 183 L 88 183 L 88 176 L 88 175.5 A 0.50005 0.50005 0 0 0 87.492188 174.99219 z M 26.505859 175.99219 A 0.50005 0.50005 0 0 0 26 176.5 L 26 177 L 26 184 L 24 184 L 24 179.5 A 0.50005 0.50005 0 0 0 23.507812 178.99219 A 0.50005 0.50005 0 0 0 23 179.5 L 23 184.5 A 0.50005 0.50005 0 0 0 23.5 185 L 26 185 L 26 188 L 27 188 L 27 184 L 27 182 L 29.5 182 A 0.50005 0.50005 0 0 0 30 181.5 L 30 177.5 A 0.50005 0.50005 0 0 0 29.507812 176.99219 A 0.50005 0.50005 0 0 0 29 177.5 L 29 181 L 27 181 L 27 176.5 A 0.50005 0.50005 0 0 0 26.507812 175.99219 A 0.50005 0.50005 0 0 1 26.505859 175.99219 z M 251.50586 179.99219 A 0.50005 0.50005 0 0 0 251 180.5 L 251 181 L 251 188 L 249 188 L 249 183.5 A 0.50005 0.50005 0 0 0 248.50781 182.99219 A 0.50005 0.50005 0 0 0 248 183.5 L 248 188.5 A 0.50005 0.50005 0 0 0 248.5 189 L 251 189 L 251 192 L 252 192 L 252 188 L 252 186 L 254.5 186 A 0.50005 0.50005 0 0 0 255 185.5 L 255 181.5 A 0.50005 0.50005 0 0 0 254.50781 180.99219 A 0.50005 0.50005 0 0 0 254 181.5 L 254 185 L 252 185 L 252 180.5 A 0.50005 0.50005 0 0 0 251.50781 179.99219 A 0.50005 0.50005 0 0 1 251.50586 179.99219 z M 146.49219 184.99219 A 0.50005 0.50005 0 0 0 146 185.5 L 146 190 L 144 190 L 144 186.5 A 0.50005 0.50005 0 0 0 143.49219 185.99219 A 0.50005 0.50005 0 0 0 143 186.5 L 143 190.5 A 0.50005 0.50005 0 0 0 143.5 191 L 146 191 L 146 193 L 146 197 L 147 197 L 147 194 L 149.5 194 A 0.50005 0.50005 0 0 0 150 193.5 L 150 188.5 A 0.50005 0.50005 0 0 0 149.49219 187.99219 A 0.50005 0.50005 0 0 0 149 188.5 L 149 193 L 147 193 L 147 186 L 147 185.5 A 0.50005 0.50005 0 0 0 146.49219 184.99219 z M 177.50586 188.99219 A 0.50005 0.50005 0 0 0 177 189.5 L 177 190 L 177 197 L 175 197 L 175 192.5 A 0.50005 0.50005 0 0 0 174.50781 191.99219 A 0.50005 0.50005 0 0 0 174 192.5 L 174 197.5 A 0.50005 0.50005 0 0 0 174.5 198 L 177 198 L 177 201 L 178 201 L 178 197 L 178 195 L 180.5 195 A 0.50005 0.50005 0 0 0 181 194.5 L 181 190.5 A 0.50005 0.50005 0 0 0 180.50781 189.99219 A 0.50005 0.50005 0 0 0 180 190.5 L 180 194 L 178 194 L 178 189.5 A 0.50005 0.50005 0 0 0 177.50781 188.99219 A 0.50005 0.50005 0 0 1 177.50586 188.99219 z M 57.505859 193.99219 A 0.50005 0.50005 0 0 0 57 194.5 L 57 195 L 57 202 L 55 202 L 55 197.5 A 0.50005 0.50005 0 0 0 54.507812 196.99219 A 0.50005 0.50005 0 0 0 54 197.5 L 54 202.5 A 0.50005 0.50005 0 0 0 54.5 203 L 57 203 L 57 206 L 58 206 L 58 202 L 58 200 L 60.5 200 A 0.50005 0.50005 0 0 0 61 199.5 L 61 195.5 A 0.50005 0.50005 0 0 0 60.507812 194.99219 A 0.50005 0.50005 0 0 0 60 195.5 L 60 199 L 58 199 L 58 194.5 A 0.50005 0.50005 0 0 0 57.507812 193.99219 A 0.50005 0.50005 0 0 1 57.505859 193.99219 z M 113.50586 195.99219 A 0.50005 0.50005 0 0 0 113 196.5 L 113 197 L 113 204 L 111 204 L 111 199.5 A 0.50005 0.50005 0 0 0 110.50781 198.99219 A 0.50005 0.50005 0 0 0 110 199.5 L 110 204.5 A 0.50005 0.50005 0 0 0 110.5 205 L 113 205 L 113 208 L 114 208 L 114 204 L 114 202 L 116.5 202 A 0.50005 0.50005 0 0 0 117 201.5 L 117 197.5 A 0.50005 0.50005 0 0 0 116.50781 196.99219 A 0.50005 0.50005 0 0 0 116 197.5 L 116 201 L 114 201 L 114 196.5 A 0.50005 0.50005 0 0 0 113.50781 195.99219 A 0.50005 0.50005 0 0 1 113.50586 195.99219 z M 234.49219 204.99219 A 0.50005 0.50005 0 0 0 234 205.5 L 234 210 L 232 210 L 232 206.5 A 0.50005 0.50005 0 0 0 231.49219 205.99219 A 0.50005 0.50005 0 0 0 231 206.5 L 231 210.5 A 0.50005 0.50005 0 0 0 231.5 211 L 234 211 L 234 213 L 234 217 L 235 217 L 235 214 L 237.5 214 A 0.50005 0.50005 0 0 0 238 213.5 L 238 208.5 A 0.50005 0.50005 0 0 0 237.49219 207.99219 A 0.50005 0.50005 0 0 0 237 208.5 L 237 213 L 235 213 L 235 206 L 235 205.5 A 0.50005 0.50005 0 0 0 234.49219 204.99219 z M 15.505859 206.99219 A 0.50005 0.50005 0 0 0 15 207.5 L 15 208 L 15 215 L 13 215 L 13 210.5 A 0.50005 0.50005 0 0 0 12.507812 209.99219 A 0.50005 0.50005 0 0 0 12 210.5 L 12 215.5 A 0.50005 0.50005 0 0 0 12.5 216 L 15 216 L 15 219 L 16 219 L 16 215 L 16 213 L 18.5 213 A 0.50005 0.50005 0 0 0 19 212.5 L 19 208.5 A 0.50005 0.50005 0 0 0 18.507812 207.99219 A 0.50005 0.50005 0 0 0 18 208.5 L 18 212 L 16 212 L 16 207.5 A 0.50005 0.50005 0 0 0 15.507812 206.99219 A 0.50005 0.50005 0 0 1 15.505859 206.99219 z M 203.50586 207.99219 A 0.50005 0.50005 0 0 0 203 208.5 L 203 209 L 203 216 L 201 216 L 201 211.5 A 0.50005 0.50005 0 0 0 200.50781 210.99219 A 0.50005 0.50005 0 0 0 200 211.5 L 200 216.5 A 0.50005 0.50005 0 0 0 200.5 217 L 203 217 L 203 220 L 204 220 L 204 216 L 204 214 L 206.5 214 A 0.50005 0.50005 0 0 0 207 213.5 L 207 209.5 A 0.50005 0.50005 0 0 0 206.50781 208.99219 A 0.50005 0.50005 0 0 0 206 209.5 L 206 213 L 204 213 L 204 208.5 A 0.50005 0.50005 0 0 0 203.50781 207.99219 A 0.50005 0.50005 0 0 1 203.50586 207.99219 z M 79.505859 210.99219 A 0.50005 0.50005 0 0 0 79 211.5 L 79 212 L 79 219 L 77 219 L 77 214.5 A 0.50005 0.50005 0 0 0 76.507812 213.99219 A 0.50005 0.50005 0 0 0 76 214.5 L 76 219.5 A 0.50005 0.50005 0 0 0 76.5 220 L 79 220 L 79 223 L 80 223 L 80 219 L 80 217 L 82.5 217 A 0.50005 0.50005 0 0 0 83 216.5 L 83 212.5 A 0.50005 0.50005 0 0 0 82.507812 211.99219 A 0.50005 0.50005 0 0 0 82 212.5 L 82 216 L 80 216 L 80 211.5 A 0.50005 0.50005 0 0 0 79.507812 210.99219 A 0.50005 0.50005 0 0 1 79.505859 210.99219 z M 139.50586 213.99219 A 0.50005 0.50005 0 0 0 139 214.5 L 139 215 L 139 222 L 137 222 L 137 217.5 A 0.50005 0.50005 0 0 0 136.50781 216.99219 A 0.50005 0.50005 0 0 0 136 217.5 L 136 222.5 A 0.50005 0.50005 0 0 0 136.5 223 L 139 223 L 139 226 L 140 226 L 140 222 L 140 220 L 142.5 220 A 0.50005 0.50005 0 0 0 143 219.5 L 143 215.5 A 0.50005 0.50005 0 0 0 142.50781 214.99219 A 0.50005 0.50005 0 0 0 142 215.5 L 142 219 L 140 219 L 140 214.5 A 0.50005 0.50005 0 0 0 139.50781 213.99219 A 0.50005 0.50005 0 0 1 139.50586 213.99219 z M 45.492188 219.99219 A 0.50005 0.50005 0 0 0 45 220.5 L 45 225 L 43 225 L 43 221.5 A 0.50005 0.50005 0 0 0 42.492188 220.99219 A 0.50005 0.50005 0 0 0 42 221.5 L 42 225.5 A 0.50005 0.50005 0 0 0 42.5 226 L 45 226 L 45 228 L 45 232 L 46 232 L 46 229 L 48.5 229 A 0.50005 0.50005 0 0 0 49 228.5 L 49 223.5 A 0.50005 0.50005 0 0 0 48.492188 222.99219 A 0.50005 0.50005 0 0 0 48 223.5 L 48 228 L 46 228 L 46 221 L 46 220.5 A 0.50005 0.50005 0 0 0 45.492188 219.99219 z M 169.50586 222.99219 A 0.50005 0.50005 0 0 0 169 223.5 L 169 224 L 169 231 L 167 231 L 167 226.5 A 0.50005 0.50005 0 0 0 166.50781 225.99219 A 0.50005 0.50005 0 0 0 166 226.5 L 166 231.5 A 0.50005 0.50005 0 0 0 166.5 232 L 169 232 L 169 235 L 170 235 L 170 231 L 170 229 L 172.5 229 A 0.50005 0.50005 0 0 0 173 228.5 L 173 224.5 A 0.50005 0.50005 0 0 0 172.50781 223.99219 A 0.50005 0.50005 0 0 0 172 224.5 L 172 228 L 170 228 L 170 223.5 A 0.50005 0.50005 0 0 0 169.50781 222.99219 A 0.50005 0.50005 0 0 1 169.50586 222.99219 z M 107.49219 233.99219 A 0.50005 0.50005 0 0 0 107 234.5 L 107 239 L 105 239 L 105 235.5 A 0.50005 0.50005 0 0 0 104.49219 234.99219 A 0.50005 0.50005 0 0 0 104 235.5 L 104 239.5 A 0.50005 0.50005 0 0 0 104.5 240 L 107 240 L 107 242 L 107 246 L 108 246 L 108 243 L 110.5 243 A 0.50005 0.50005 0 0 0 111 242.5 L 111 237.5 A 0.50005 0.50005 0 0 0 110.49219 236.99219 A 0.50005 0.50005 0 0 0 110 237.5 L 110 242 L 108 242 L 108 235 L 108 234.5 A 0.50005 0.50005 0 0 0 107.49219 233.99219 z M 218.50586 237.99219 A 0.50005 0.50005 0 0 0 218 238.5 L 218 239 L 218 246 L 216 246 L 216 241.5 A 0.50005 0.50005 0 0 0 215.50781 240.99219 A 0.50005 0.50005 0 0 0 215 241.5 L 215 246.5 A 0.50005 0.50005 0 0 0 215.5 247 L 218 247 L 218 250 L 219 250 L 219 246 L 219 244 L 221.5 244 A 0.50005 0.50005 0 0 0 222 243.5 L 222 239.5 A 0.50005 0.50005 0 0 0 221.50781 238.99219 A 0.50005 0.50005 0 0 0 221 239.5 L 221 243 L 219 243 L 219 238.5 A 0.50005 0.50005 0 0 0 218.50781 237.99219 A 0.50005 0.50005 0 0 1 218.50586 237.99219 z M 22.505859 239.99219 A 0.50005 0.50005 0 0 0 22 240.5 L 22 241 L 22 248 L 20 248 L 20 243.5 A 0.50005 0.50005 0 0 0 19.507812 242.99219 A 0.50005 0.50005 0 0 0 19 243.5 L 19 248.5 A 0.50005 0.50005 0 0 0 19.5 249 L 22 249 L 22 252 L 23 252 L 23 248 L 23 246 L 25.5 246 A 0.50005 0.50005 0 0 0 26 245.5 L 26 241.5 A 0.50005 0.50005 0 0 0 25.507812 240.99219 A 0.50005 0.50005 0 0 0 25 241.5 L 25 245 L 23 245 L 23 240.5 A 0.50005 0.50005 0 0 0 22.507812 239.99219 A 0.50005 0.50005 0 0 1 22.505859 239.99219 z M 81.505859 241.99219 A 0.50005 0.50005 0 0 0 81 242.5 L 81 243 L 81 250 L 79 250 L 79 245.5 A 0.50005 0.50005 0 0 0 78.507812 244.99219 A 0.50005 0.50005 0 0 0 78 245.5 L 78 250.5 A 0.50005 0.50005 0 0 0 78.5 251 L 81 251 L 81 254 L 82 254 L 82 250 L 82 248 L 84.5 248 A 0.50005 0.50005 0 0 0 85 247.5 L 85 243.5 A 0.50005 0.50005 0 0 0 84.507812 242.99219 A 0.50005 0.50005 0 0 0 84 243.5 L 84 247 L 82 247 L 82 242.5 A 0.50005 0.50005 0 0 0 81.507812 241.99219 A 0.50005 0.50005 0 0 1 81.505859 241.99219 z M 248.49219 243.99219 A 0.50005 0.50005 0 0 0 248 244.5 L 248 249 L 246 249 L 246 245.5 A 0.50005 0.50005 0 0 0 245.49219 244.99219 A 0.50005 0.50005 0 0 0 245 245.5 L 245 249.5 A 0.50005 0.50005 0 0 0 245.5 250 L 248 250 L 248 252 L 248 256 L 249 256 L 249 253 L 251.5 253 A 0.50005 0.50005 0 0 0 252 252.5 L 252 247.5 A 0.50005 0.50005 0 0 0 251.49219 246.99219 A 0.50005 0.50005 0 0 0 251 247.5 L 251 252 L 249 252 L 249 245 L 249 244.5 A 0.50005 0.50005 0 0 0 248.49219 243.99219 z M 190.49219 245.99219 A 0.50005 0.50005 0 0 0 190 246.5 L 190 251 L 188 251 L 188 247.5 A 0.50005 0.50005 0 0 0 187.49219 246.99219 A 0.50005 0.50005 0 0 0 187 247.5 L 187 251.5 A 0.50005 0.50005 0 0 0 187.5 252 L 190 252 L 190 254 L 190 256 L 191 256 L 191 255 L 193.5 255 A 0.50005 0.50005 0 0 0 194 254.5 L 194 249.5 A 0.50005 0.50005 0 0 0 193.49219 248.99219 A 0.50005 0.50005 0 0 0 193 249.5 L 193 254 L 191 254 L 191 247 L 191 246.5 A 0.50005 0.50005 0 0 0 190.49219 245.99219 z M 154.49219 247.99219 A 0.50005 0.50005 0 0 0 154 248.5 L 154 253 L 152 253 L 152 249.5 A 0.50005 0.50005 0 0 0 151.49219 248.99219 A 0.50005 0.50005 0 0 0 151 249.5 L 151 253.5 A 0.50005 0.50005 0 0 0 151.5 254 L 154 254 L 154 256 L 155 256 L 155 249 L 155 248.5 A 0.50005 0.50005 0 0 0 154.49219 247.99219 z M 157.49219 250.99219 A 0.50005 0.50005 0 0 0 157 251.5 L 157 256 L 158 256 L 158 251.5 A 0.50005 0.50005 0 0 0 157.49219 250.99219 z "
     style="fill:#6b8d5e" />
  <rect
     style="fill:none;fill-opacity:1;stroke:none"
     id="rect8566"
     y="0"
     x="0"
     rx="0"
     height="256"
     width="256" />
  <desc
     id="desc329">Created with Snap</desc>
</svg>
