<?xml version="1.0" encoding="UTF-8" standalone="no"?>
<svg
   xmlns:dc="http://purl.org/dc/elements/1.1/"
   xmlns:cc="http://creativecommons.org/ns#"
   xmlns:rdf="http://www.w3.org/1999/02/22-rdf-syntax-ns#"
   xmlns:svg="http://www.w3.org/2000/svg"
   xmlns="http://www.w3.org/2000/svg"
   version="1.1"
   height="512"
   width="512"
   id="Svg">
  <metadata
     id="metadata922">
    <rdf:RDF>
      <cc:Work
         rdf:about="">
        <dc:format>image/svg+xml</dc:format>
        <dc:type
           rdf:resource="http://purl.org/dc/dcmitype/StillImage" />
      </cc:Work>
    </rdf:RDF>
  </metadata>
  <defs
     id="defs3" />
  <path
     id="path7313"
     d="M 4.6660156 0 L 3 5 L 3 6 L 5 6 L 5 9 L 6 9 L 6 6 L 8 6 L 8 5 L 6.3339844 0 L 5.5 0 L 7 5 L 4 5 L 5.5 0 L 4.6660156 0 z M 87 0 L 85 6 L 85 7 L 87 7 L 87 10 L 88 10 L 88 7 L 90 7 L 90 6 L 88 0 L 87 0 z M 128.33398 0 L 127 4 L 127 5 L 129 5 L 129 8 L 130 8 L 130 5 L 132 5 L 132 4 L 130.66602 0 L 129.80078 0 L 131 4 L 128 4 L 129.19922 0 L 128.33398 0 z M 199.33398 0 L 198 4 L 198 5 L 200 5 L 200 8 L 201 8 L 201 5 L 203 5 L 203 4 L 201.66602 0 L 200.80078 0 L 202 4 L 199 4 L 200.19922 0 L 199.33398 0 z M 87.5 1 L 89 6 L 86 6 L 87.5 1 z M 464 1 L 462 7 L 462 8 L 464 8 L 464 11 L 465 11 L 465 8 L 467 8 L 467 7 L 465 1 L 464 1 z M 464.5 2 L 466 7 L 463 7 L 464.5 2 z M 342 3 L 340 9 L 340 10 L 342 10 L 342 13 L 343 13 L 343 10 L 345 10 L 345 9 L 343 3 L 342 3 z M 264 4 L 262 10 L 262 11 L 264 11 L 264 14 L 265 14 L 265 11 L 267 11 L 267 10 L 265 4 L 264 4 z M 294 4 L 292 10 L 292 11 L 294 11 L 294 14 L 295 14 L 295 11 L 297 11 L 297 10 L 295 4 L 294 4 z M 342.5 4 L 344 9 L 341 9 L 342.5 4 z M 264.5 5 L 266 10 L 263 10 L 264.5 5 z M 294.5 5 L 296 10 L 293 10 L 294.5 5 z M 402 7 L 400 13 L 400 14 L 402 14 L 402 17 L 403 17 L 403 14 L 405 14 L 405 13 L 403 7 L 402 7 z M 374 8 L 372 14 L 372 15 L 374 15 L 374 18 L 375 18 L 375 15 L 377 15 L 377 14 L 375 8 L 374 8 z M 402.5 8 L 404 13 L 401 13 L 402.5 8 z M 172 9 L 170 15 L 170 16 L 172 16 L 172 19 L 173 19 L 173 16 L 175 16 L 175 15 L 173 9 L 172 9 z M 374.5 9 L 376 14 L 373 14 L 374.5 9 z M 172.5 10 L 174 15 L 171 15 L 172.5 10 z M 232 10 L 230 16 L 230 17 L 232 17 L 232 20 L 233 20 L 233 17 L 235 17 L 235 16 L 233 10 L 232 10 z M 232.5 11 L 234 16 L 231 16 L 232.5 11 z M 34 16 L 32 22 L 32 23 L 34 23 L 34 26 L 35 26 L 35 23 L 37 23 L 37 22 L 35 16 L 34 16 z M 34.5 17 L 36 22 L 33 22 L 34.5 17 z M 67 17 L 65 23 L 65 24 L 67 24 L 67 27 L 68 27 L 68 24 L 70 24 L 70 23 L 68 17 L 67 17 z M 437 17 L 435 23 L 435 24 L 437 24 L 437 27 L 438 27 L 438 24 L 440 24 L 440 23 L 438 17 L 437 17 z M 496 17 L 494 23 L 494 24 L 496 24 L 496 27 L 497 27 L 497 24 L 499 24 L 499 23 L 497 17 L 496 17 z M 67.5 18 L 69 23 L 66 23 L 67.5 18 z M 437.5 18 L 439 23 L 436 23 L 437.5 18 z M 496.5 18 L 498 23 L 495 23 L 496.5 18 z M 316 23 L 314 29 L 314 30 L 316 30 L 316 33 L 317 33 L 317 30 L 319 30 L 319 29 L 317 23 L 316 23 z M 316.5 24 L 318 29 L 315 29 L 316.5 24 z M 204 26 L 202 32 L 202 33 L 204 33 L 204 36 L 205 36 L 205 33 L 207 33 L 207 32 L 205 26 L 204 26 z M 204.5 27 L 206 32 L 203 32 L 204.5 27 z M 142 31 L 140 37 L 140 38 L 142 38 L 142 41 L 143 41 L 143 38 L 145 38 L 145 37 L 143 31 L 142 31 z M 113 32 L 111 38 L 111 39 L 113 39 L 113 42 L 114 42 L 114 39 L 116 39 L 116 38 L 114 32 L 113 32 z M 142.5 32 L 144 37 L 141 37 L 142.5 32 z M 86 33 L 84 39 L 84 40 L 86 40 L 86 43 L 87 43 L 87 40 L 89 40 L 89 39 L 87 33 L 86 33 z M 113.5 33 L 115 38 L 112 38 L 113.5 33 z M 86.5 34 L 88 39 L 85 39 L 86.5 34 z M 348 34 L 346 40 L 346 41 L 348 41 L 348 44 L 349 44 L 349 41 L 351 41 L 351 40 L 349 34 L 348 34 z M 257 35 L 255 41 L 255 42 L 257 42 L 257 45 L 258 45 L 258 42 L 260 42 L 260 41 L 258 35 L 257 35 z M 286 35 L 284 41 L 284 42 L 286 42 L 286 45 L 287 45 L 287 42 L 289 42 L 289 41 L 287 35 L 286 35 z M 348.5 35 L 350 40 L 347 40 L 348.5 35 z M 257.5 36 L 259 41 L 256 41 L 257.5 36 z M 286.5 36 L 288 41 L 285 41 L 286.5 36 z M 462 36 L 460 42 L 460 43 L 462 43 L 462 46 L 463 46 L 463 43 L 465 43 L 465 42 L 463 36 L 462 36 z M 462.5 37 L 464 42 L 461 42 L 462.5 37 z M 11 38 L 9 44 L 9 45 L 11 45 L 11 48 L 12 48 L 12 45 L 14 45 L 14 44 L 12 38 L 11 38 z M 377 38 L 375 44 L 375 45 L 377 45 L 377 48 L 378 48 L 378 45 L 380 45 L 380 44 L 378 38 L 377 38 z M 407 38 L 405 44 L 405 45 L 407 45 L 407 48 L 408 48 L 408 45 L 410 45 L 410 44 L 408 38 L 407 38 z M 11.5 39 L 13 44 L 10 44 L 11.5 39 z M 175 39 L 173 45 L 173 46 L 175 46 L 175 49 L 176 49 L 176 46 L 178 46 L 178 45 L 176 39 L 175 39 z M 377.5 39 L 379 44 L 376 44 L 377.5 39 z M 407.5 39 L 409 44 L 406 44 L 407.5 39 z M 175.5 40 L 177 45 L 174 45 L 175.5 40 z M 50 41 L 48 47 L 48 48 L 50 48 L 50 51 L 51 51 L 51 48 L 53 48 L 53 47 L 51 41 L 50 41 z M 50.5 42 L 52 47 L 49 47 L 50.5 42 z M 230 46 L 228 52 L 228 53 L 230 53 L 230 56 L 231 56 L 231 53 L 233 53 L 233 52 L 231 46 L 230 46 z M 230.5 47 L 232 52 L 229 52 L 230.5 47 z M 434 47 L 432 53 L 432 54 L 434 54 L 434 57 L 435 57 L 435 54 L 437 54 L 437 53 L 435 47 L 434 47 z M 434.5 48 L 436 53 L 433 53 L 434.5 48 z M 495 49 L 493 55 L 493 56 L 495 56 L 495 59 L 496 59 L 496 56 L 498 56 L 498 55 L 496 49 L 495 49 z M 495.5 50 L 497 55 L 494 55 L 495.5 50 z M 316 54 L 314 60 L 314 61 L 316 61 L 316 64 L 317 64 L 317 61 L 319 61 L 319 60 L 317 54 L 316 54 z M 316.5 55 L 318 60 L 315 60 L 316.5 55 z M 33 59 L 31 65 L 31 66 L 33 66 L 33 69 L 34 69 L 34 66 L 36 66 L 36 65 L 34 59 L 33 59 z M 112 59 L 110 65 L 110 66 L 112 66 L 112 69 L 113 69 L 113 66 L 115 66 L 115 65 L 113 59 L 112 59 z M 33.5 60 L 35 65 L 32 65 L 33.5 60 z M 112.5 60 L 114 65 L 111 65 L 112.5 60 z M 141 62 L 139 68 L 139 69 L 141 69 L 141 72 L 142 72 L 142 69 L 144 69 L 144 68 L 142 62 L 141 62 z M 199 62 L 197 68 L 197 69 L 199 69 L 199 72 L 200 72 L 200 69 L 202 69 L 202 68 L 200 62 L 199 62 z M 141.5 63 L 143 68 L 140 68 L 141.5 63 z M 199.5 63 L 201 68 L 198 68 L 199.5 63 z M 77 64 L 75 70 L 75 71 L 77 71 L 77 74 L 78 74 L 78 71 L 80 71 L 80 70 L 78 64 L 77 64 z M 77.5 65 L 79 70 L 76 70 L 77.5 65 z M 376 65 L 374 71 L 374 72 L 376 72 L 376 75 L 377 75 L 377 72 L 379 72 L 379 71 L 377 65 L 376 65 z M 465 65 L 463 71 L 463 72 L 465 72 L 465 75 L 466 75 L 466 72 L 468 72 L 468 71 L 466 65 L 465 65 z M 263 66 L 261 72 L 261 73 L 263 73 L 263 76 L 264 76 L 264 73 L 266 73 L 266 72 L 264 66 L 263 66 z M 342 66 L 340 72 L 340 73 L 342 73 L 342 76 L 343 76 L 343 73 L 345 73 L 345 72 L 343 66 L 342 66 z M 376.5 66 L 378 71 L 375 71 L 376.5 66 z M 465.5 66 L 467 71 L 464 71 L 465.5 66 z M 263.5 67 L 265 72 L 262 72 L 263.5 67 z M 342.5 67 L 344 72 L 341 72 L 342.5 67 z M 170 68 L 168 74 L 168 75 L 170 75 L 170 78 L 171 78 L 171 75 L 173 75 L 173 74 L 171 68 L 170 68 z M 294 68 L 292 74 L 292 75 L 294 75 L 294 78 L 295 78 L 295 75 L 297 75 L 297 74 L 295 68 L 294 68 z M 170.5 69 L 172 74 L 169 74 L 170.5 69 z M 294.5 69 L 296 74 L 293 74 L 294.5 69 z M 404 71 L 402 77 L 402 78 L 404 78 L 404 81 L 405 81 L 405 78 L 407 78 L 407 77 L 405 71 L 404 71 z M 3 72 L 1 78 L 1 79 L 3 79 L 3 82 L 4 82 L 4 79 L 6 79 L 6 78 L 4 72 L 3 72 z M 404.5 72 L 406 77 L 403 77 L 404.5 72 z M 3.5 73 L 5 78 L 2 78 L 3.5 73 z M 230 74 L 228 80 L 228 81 L 230 81 L 230 84 L 231 84 L 231 81 L 233 81 L 233 80 L 231 74 L 230 74 z M 230.5 75 L 232 80 L 229 80 L 230.5 75 z M 438 78 L 436 84 L 436 85 L 438 85 L 438 88 L 439 88 L 439 85 L 441 85 L 441 84 L 439 78 L 438 78 z M 438.5 79 L 440 84 L 437 84 L 438.5 79 z M 53 83 L 51 89 L 51 90 L 53 90 L 53 93 L 54 93 L 54 90 L 56 90 L 56 89 L 54 83 L 53 83 z M 53.5 84 L 55 89 L 52 89 L 53.5 84 z M 487 85 L 485 91 L 485 92 L 487 92 L 487 95 L 488 95 L 488 92 L 490 92 L 490 91 L 488 85 L 487 85 z M 487.5 86 L 489 91 L 486 91 L 487.5 86 z M 201 90 L 199 96 L 199 97 L 201 97 L 201 100 L 202 100 L 202 97 L 204 97 L 204 96 L 202 90 L 201 90 z M 88 91 L 86 97 L 86 98 L 88 98 L 88 101 L 89 101 L 89 98 L 91 98 L 91 97 L 89 91 L 88 91 z M 201.5 91 L 203 96 L 200 96 L 201.5 91 z M 318 91 L 316 97 L 316 98 L 318 98 L 318 101 L 319 101 L 319 98 L 321 98 L 321 97 L 319 91 L 318 91 z M 88.5 92 L 90 97 L 87 97 L 88.5 92 z M 117 92 L 115 98 L 115 99 L 117 99 L 117 102 L 118 102 L 118 99 L 120 99 L 120 98 L 118 92 L 117 92 z M 318.5 92 L 320 97 L 317 97 L 318.5 92 z M 117.5 93 L 119 98 L 116 98 L 117.5 93 z M 363 94 L 361 100 L 361 101 L 363 101 L 363 104 L 364 104 L 364 101 L 366 101 L 366 100 L 364 94 L 363 94 z M 144 95 L 142 101 L 142 102 L 144 102 L 144 105 L 145 105 L 145 102 L 147 102 L 147 101 L 145 95 L 144 95 z M 363.5 95 L 365 100 L 362 100 L 363.5 95 z M 144.5 96 L 146 101 L 143 101 L 144.5 96 z M 278 96 L 276 102 L 276 103 L 278 103 L 278 106 L 279 106 L 279 103 L 281 103 L 281 102 L 279 96 L 278 96 z M 278.5 97 L 280 102 L 277 102 L 278.5 97 z M 23 99 L 21 105 L 21 106 L 23 106 L 23 109 L 24 109 L 24 106 L 26 106 L 26 105 L 24 99 L 23 99 z M 250 99 L 248 105 L 248 106 L 250 106 L 250 109 L 251 109 L 251 106 L 253 106 L 253 105 L 251 99 L 250 99 z M 23.5 100 L 25 105 L 22 105 L 23.5 100 z M 250.5 100 L 252 105 L 249 105 L 250.5 100 z M 396 101 L 394 107 L 394 108 L 396 108 L 396 111 L 397 111 L 397 108 L 399 108 L 399 107 L 397 101 L 396 101 z M 396.5 102 L 398 107 L 395 107 L 396.5 102 z M 460 102 L 458 108 L 458 109 L 460 109 L 460 112 L 461 112 L 461 109 L 463 109 L 463 108 L 461 102 L 460 102 z M 171 103 L 169 109 L 169 110 L 171 110 L 171 113 L 172 113 L 172 110 L 174 110 L 174 109 L 172 103 L 171 103 z M 460.5 103 L 462 108 L 459 108 L 460.5 103 z M 171.5 104 L 173 109 L 170 109 L 171.5 104 z M 426 105 L 424 111 L 424 112 L 426 112 L 426 115 L 427 115 L 427 112 L 429 112 L 429 111 L 427 105 L 426 105 z M 426.5 106 L 428 111 L 425 111 L 426.5 106 z M 73 108 L 71 114 L 71 115 L 73 115 L 73 118 L 74 118 L 74 115 L 76 115 L 76 114 L 74 108 L 73 108 z M 73.5 109 L 75 114 L 72 114 L 73.5 109 z M 219 109 L 217 115 L 217 116 L 219 116 L 219 119 L 220 119 L 220 116 L 222 116 L 222 115 L 220 109 L 219 109 z M 219.5 110 L 221 115 L 218 115 L 219.5 110 z M 509 110 L 507 116 L 507 117 L 509 117 L 509 120 L 510 120 L 510 117 L 512 117 L 512 116 L 510 110 L 509 110 z M 509.5 111 L 511 116 L 508 116 L 509.5 111 z M 339 114 L 337 120 L 337 121 L 339 121 L 339 124 L 340 124 L 340 121 L 342 121 L 342 120 L 340 114 L 339 114 z M 339.5 115 L 341 120 L 338 120 L 339.5 115 z M 304 117 L 302 123 L 302 124 L 304 124 L 304 127 L 305 127 L 305 124 L 307 124 L 307 123 L 305 117 L 304 117 z M 304.5 118 L 306 123 L 303 123 L 304.5 118 z M 46 120 L 44 126 L 44 127 L 46 127 L 46 130 L 47 130 L 47 127 L 49 127 L 49 126 L 47 120 L 46 120 z M 46.5 121 L 48 126 L 45 126 L 46.5 121 z M 110 123 L 108 129 L 108 130 L 110 130 L 110 133 L 111 133 L 111 130 L 113 130 L 113 129 L 111 123 L 110 123 z M 110.5 124 L 112 129 L 109 129 L 110.5 124 z M 367 124 L 365 130 L 365 131 L 367 131 L 367 134 L 368 134 L 368 131 L 370 131 L 370 130 L 368 124 L 367 124 z M 141 125 L 139 131 L 139 132 L 141 132 L 141 135 L 142 135 L 142 132 L 144 132 L 144 131 L 142 125 L 141 125 z M 367.5 125 L 369 130 L 366 130 L 367.5 125 z M 480 125 L 478 131 L 478 132 L 480 132 L 480 135 L 481 135 L 481 132 L 483 132 L 483 131 L 481 125 L 480 125 z M 141.5 126 L 143 131 L 140 131 L 141.5 126 z M 192 126 L 190 132 L 190 133 L 192 133 L 192 136 L 193 136 L 193 133 L 195 133 L 195 132 L 193 126 L 192 126 z M 480.5 126 L 482 131 L 479 131 L 480.5 126 z M 192.5 127 L 194 132 L 191 132 L 192.5 127 z M 251 129 L 249 135 L 249 136 L 251 136 L 251 139 L 252 139 L 252 136 L 254 136 L 254 135 L 252 129 L 251 129 z M 251.5 130 L 253 135 L 250 135 L 251.5 130 z M 279 130 L 277 136 L 277 137 L 279 137 L 279 140 L 280 140 L 280 137 L 282 137 L 282 136 L 280 130 L 279 130 z M 431 130 L 429 136 L 429 137 L 431 137 L 431 140 L 432 140 L 432 137 L 434 137 L 434 136 L 432 130 L 431 130 z M 279.5 131 L 281 136 L 278 136 L 279.5 131 z M 401 131 L 399 137 L 399 138 L 401 138 L 401 141 L 402 141 L 402 138 L 404 138 L 404 137 L 402 131 L 401 131 z M 431.5 131 L 433 136 L 430 136 L 431.5 131 z M 401.5 132 L 403 137 L 400 137 L 401.5 132 z M 15 135 L 13 141 L 13 142 L 15 142 L 15 145 L 16 145 L 16 142 L 18 142 L 18 141 L 16 135 L 15 135 z M 15.5 136 L 17 141 L 14 141 L 15.5 136 z M 162 137 L 160 143 L 160 144 L 162 144 L 162 147 L 163 147 L 163 144 L 165 144 L 165 143 L 163 137 L 162 137 z M 219 137 L 217 143 L 217 144 L 219 144 L 219 147 L 220 147 L 220 144 L 222 144 L 222 143 L 220 137 L 219 137 z M 162.5 138 L 164 143 L 161 143 L 162.5 138 z M 219.5 138 L 221 143 L 218 143 L 219.5 138 z M 452 139 L 450 145 L 450 146 L 452 146 L 452 149 L 453 149 L 453 146 L 455 146 L 455 145 L 453 139 L 452 139 z M 452.5 140 L 454 145 L 451 145 L 452.5 140 z M 79 141 L 77 147 L 77 148 L 79 148 L 79 151 L 80 151 L 80 148 L 82 148 L 82 147 L 80 141 L 79 141 z M 321 141 L 319 147 L 319 148 L 321 148 L 321 151 L 322 151 L 322 148 L 324 148 L 324 147 L 322 141 L 321 141 z M 79.5 142 L 81 147 L 78 147 L 79.5 142 z M 321.5 142 L 323 147 L 320 147 L 321.5 142 z M 499 146 L 497 152 L 497 153 L 499 153 L 499 156 L 500 156 L 500 153 L 502 153 L 502 152 L 500 146 L 499 146 z M 51 147 L 49 153 L 49 154 L 51 154 L 51 157 L 52 157 L 52 154 L 54 154 L 54 153 L 52 147 L 51 147 z M 348 147 L 346 153 L 346 154 L 348 154 L 348 157 L 349 157 L 349 154 L 351 154 L 351 153 L 349 147 L 348 147 z M 499.5 147 L 501 152 L 498 152 L 499.5 147 z M 51.5 148 L 53 153 L 50 153 L 51.5 148 z M 348.5 148 L 350 153 L 347 153 L 348.5 148 z M 101 154 L 99 160 L 99 161 L 101 161 L 101 164 L 102 164 L 102 161 L 104 161 L 104 160 L 102 154 L 101 154 z M 383 154 L 381 160 L 381 161 L 383 161 L 383 164 L 384 164 L 384 161 L 386 161 L 386 160 L 384 154 L 383 154 z M 101.5 155 L 103 160 L 100 160 L 101.5 155 z M 133 155 L 131 161 L 131 162 L 133 162 L 133 165 L 134 165 L 134 162 L 136 162 L 136 161 L 134 155 L 133 155 z M 383.5 155 L 385 160 L 382 160 L 383.5 155 z M 133.5 156 L 135 161 L 132 161 L 133.5 156 z M 259 156 L 257 162 L 257 163 L 259 163 L 259 166 L 260 166 L 260 163 L 262 163 L 262 162 L 260 156 L 259 156 z M 259.5 157 L 261 162 L 258 162 L 259.5 157 z M 195 160 L 193 166 L 193 167 L 195 167 L 195 170 L 196 170 L 196 167 L 198 167 L 198 166 L 196 160 L 195 160 z M 294 160 L 292 166 L 292 167 L 294 167 L 294 170 L 295 170 L 295 167 L 297 167 L 297 166 L 295 160 L 294 160 z M 468 160 L 466 166 L 466 167 L 468 167 L 468 170 L 469 170 L 469 167 L 471 167 L 471 166 L 469 160 L 468 160 z M 195.5 161 L 197 166 L 194 166 L 195.5 161 z M 294.5 161 L 296 166 L 293 166 L 294.5 161 z M 468.5 161 L 470 166 L 467 166 L 468.5 161 z M 19 163 L 17 169 L 17 170 L 19 170 L 19 173 L 20 173 L 20 170 L 22 170 L 22 169 L 20 163 L 19 163 z M 410 163 L 408 169 L 408 170 L 410 170 L 410 173 L 411 173 L 411 170 L 413 170 L 413 169 L 411 163 L 410 163 z M 19.5 164 L 21 169 L 18 169 L 19.5 164 z M 410.5 164 L 412 169 L 409 169 L 410.5 164 z M 162 167 L 160 173 L 160 174 L 162 174 L 162 177 L 163 177 L 163 174 L 165 174 L 165 173 L 163 167 L 162 167 z M 162.5 168 L 164 173 L 161 173 L 162.5 168 z M 229 170 L 227 176 L 227 177 L 229 177 L 229 180 L 230 180 L 230 177 L 232 177 L 232 176 L 230 170 L 229 170 z M 229.5 171 L 231 176 L 228 176 L 229.5 171 z M 71 172 L 69 178 L 69 179 L 71 179 L 71 182 L 72 182 L 72 179 L 74 179 L 74 178 L 72 172 L 71 172 z M 71.5 173 L 73 178 L 70 178 L 71.5 173 z M 505 174 L 503 180 L 503 181 L 505 181 L 505 184 L 506 184 L 506 181 L 508 181 L 508 180 L 506 174 L 505 174 z M 505.5 175 L 507 180 L 504 180 L 505.5 175 z M 356 176 L 354 182 L 354 183 L 356 183 L 356 186 L 357 186 L 357 183 L 359 183 L 359 182 L 357 176 L 356 176 z M 323 177 L 321 183 L 321 184 L 323 184 L 323 187 L 324 187 L 324 184 L 326 184 L 326 183 L 324 177 L 323 177 z M 356.5 177 L 358 182 L 355 182 L 356.5 177 z M 443 177 L 441 183 L 441 184 L 443 184 L 443 187 L 444 187 L 444 184 L 446 184 L 446 183 L 444 177 L 443 177 z M 323.5 178 L 325 183 L 322 183 L 323.5 178 z M 443.5 178 L 445 183 L 442 183 L 443.5 178 z M 254 183 L 252 189 L 252 190 L 254 190 L 254 193 L 255 193 L 255 190 L 257 190 L 257 189 L 255 183 L 254 183 z M 41 184 L 39 190 L 39 191 L 41 191 L 41 194 L 42 194 L 42 191 L 44 191 L 44 190 L 42 184 L 41 184 z M 128 184 L 126 190 L 126 191 L 128 191 L 128 194 L 129 194 L 129 191 L 131 191 L 131 190 L 129 184 L 128 184 z M 254.5 184 L 256 189 L 253 189 L 254.5 184 z M 41.5 185 L 43 190 L 40 190 L 41.5 185 z M 128.5 185 L 130 190 L 127 190 L 128.5 185 z M 386 185 L 384 191 L 384 192 L 386 192 L 386 195 L 387 195 L 387 192 L 389 192 L 389 191 L 387 185 L 386 185 z M 386.5 186 L 388 191 L 385 191 L 386.5 186 z M 469 188 L 467 194 L 467 195 L 469 195 L 469 198 L 470 198 L 470 195 L 472 195 L 472 194 L 470 188 L 469 188 z M 191 189 L 189 195 L 189 196 L 191 196 L 191 199 L 192 199 L 192 196 L 194 196 L 194 195 L 192 189 L 191 189 z M 280 189 L 278 195 L 278 196 L 280 196 L 280 199 L 281 199 L 281 196 L 283 196 L 283 195 L 281 189 L 280 189 z M 469.5 189 L 471 194 L 468 194 L 469.5 189 z M 98 190 L 96 196 L 96 197 L 98 197 L 98 200 L 99 200 L 99 197 L 101 197 L 101 196 L 99 190 L 98 190 z M 191.5 190 L 193 195 L 190 195 L 191.5 190 z M 280.5 190 L 282 195 L 279 195 L 280.5 190 z M 98.5 191 L 100 196 L 97 196 L 98.5 191 z M 418 193 L 416 199 L 416 200 L 418 200 L 418 203 L 419 203 L 419 200 L 421 200 L 421 199 L 419 193 L 418 193 z M 216 194 L 214 200 L 214 201 L 216 201 L 216 204 L 217 204 L 217 201 L 219 201 L 219 200 L 217 194 L 216 194 z M 418.5 194 L 420 199 L 417 199 L 418.5 194 z M 216.5 195 L 218 200 L 215 200 L 216.5 195 z M 308 197 L 306 203 L 306 204 L 308 204 L 308 207 L 309 207 L 309 204 L 311 204 L 311 203 L 309 197 L 308 197 z M 308.5 198 L 310 203 L 307 203 L 308.5 198 z M 14 199 L 12 205 L 12 206 L 14 206 L 14 209 L 15 209 L 15 206 L 17 206 L 17 205 L 15 199 L 14 199 z M 14.5 200 L 16 205 L 13 205 L 14.5 200 z M 161 201 L 159 207 L 159 208 L 161 208 L 161 211 L 162 211 L 162 208 L 164 208 L 164 207 L 162 201 L 161 201 z M 161.5 202 L 163 207 L 160 207 L 161.5 202 z M 342 203 L 340 209 L 340 210 L 342 210 L 342 213 L 343 213 L 343 210 L 345 210 L 345 209 L 343 203 L 342 203 z M 68 204 L 66 210 L 66 211 L 68 211 L 68 214 L 69 214 L 69 211 L 71 211 L 71 210 L 69 204 L 68 204 z M 342.5 204 L 344 209 L 341 209 L 342.5 204 z M 492 204 L 490 210 L 490 211 L 492 211 L 492 214 L 493 214 L 493 211 L 495 211 L 495 210 L 493 204 L 492 204 z M 68.5 205 L 70 210 L 67 210 L 68.5 205 z M 492.5 205 L 494 210 L 491 210 L 492.5 205 z M 251 211 L 249 217 L 249 218 L 251 218 L 251 221 L 252 221 L 252 218 L 254 218 L 254 217 L 252 211 L 251 211 z M 251.5 212 L 253 217 L 250 217 L 251.5 212 z M 370 213 L 368 219 L 368 220 L 370 220 L 370 223 L 371 223 L 371 220 L 373 220 L 373 219 L 371 213 L 370 213 z M 370.5 214 L 372 219 L 369 219 L 370.5 214 z M 112 215 L 110 221 L 110 222 L 112 222 L 112 225 L 113 225 L 113 222 L 115 222 L 115 221 L 113 215 L 112 215 z M 112.5 216 L 114 221 L 111 221 L 112.5 216 z M 404 218 L 402 224 L 402 225 L 404 225 L 404 228 L 405 228 L 405 225 L 407 225 L 407 224 L 405 218 L 404 218 z M 441 218 L 439 224 L 439 225 L 441 225 L 441 228 L 442 228 L 442 225 L 444 225 L 444 224 L 442 218 L 441 218 z M 136 219 L 134 225 L 134 226 L 136 226 L 136 229 L 137 229 L 137 226 L 139 226 L 139 225 L 137 219 L 136 219 z M 404.5 219 L 406 224 L 403 224 L 404.5 219 z M 441.5 219 L 443 224 L 440 224 L 441.5 219 z M 136.5 220 L 138 225 L 135 225 L 136.5 220 z M 311 221 L 309 227 L 309 228 L 311 228 L 311 231 L 312 231 L 312 228 L 314 228 L 314 227 L 312 221 L 311 221 z M 42 222 L 40 228 L 40 229 L 42 229 L 42 232 L 43 232 L 43 229 L 45 229 L 45 228 L 43 222 L 42 222 z M 193 222 L 191 228 L 191 229 L 193 229 L 193 232 L 194 232 L 194 229 L 196 229 L 196 228 L 194 222 L 193 222 z M 225 222 L 223 228 L 223 229 L 225 229 L 225 232 L 226 232 L 226 229 L 228 229 L 228 228 L 226 222 L 225 222 z M 311.5 222 L 313 227 L 310 227 L 311.5 222 z M 42.5 223 L 44 228 L 41 228 L 42.5 223 z M 193.5 223 L 195 228 L 192 228 L 193.5 223 z M 225.5 223 L 227 228 L 224 228 L 225.5 223 z M 467 224 L 465 230 L 465 231 L 467 231 L 467 234 L 468 234 L 468 231 L 470 231 L 470 230 L 468 224 L 467 224 z M 280 225 L 278 231 L 278 232 L 280 232 L 280 235 L 281 235 L 281 232 L 283 232 L 283 231 L 281 225 L 280 225 z M 467.5 225 L 469 230 L 466 230 L 467.5 225 z M 13 226 L 11 232 L 11 233 L 13 233 L 13 236 L 14 236 L 14 233 L 16 233 L 16 232 L 14 226 L 13 226 z M 280.5 226 L 282 231 L 279 231 L 280.5 226 z M 13.5 227 L 15 232 L 12 232 L 13.5 227 z M 83 229 L 81 235 L 81 236 L 83 236 L 83 239 L 84 239 L 84 236 L 86 236 L 86 235 L 84 229 L 83 229 z M 83.5 230 L 85 235 L 82 235 L 83.5 230 z M 164 231 L 162 237 L 162 238 L 164 238 L 164 241 L 165 241 L 165 238 L 167 238 L 167 237 L 165 231 L 164 231 z M 164.5 232 L 166 237 L 163 237 L 164.5 232 z M 501 234 L 499 240 L 499 241 L 501 241 L 501 244 L 502 244 L 502 241 L 504 241 L 504 240 L 502 234 L 501 234 z M 501.5 235 L 503 240 L 500 240 L 501.5 235 z M 342 238 L 340 244 L 340 245 L 342 245 L 342 248 L 343 248 L 343 245 L 345 245 L 345 244 L 343 238 L 342 238 z M 373 238 L 371 244 L 371 245 L 373 245 L 373 248 L 374 248 L 374 245 L 376 245 L 376 244 L 374 238 L 373 238 z M 342.5 239 L 344 244 L 341 244 L 342.5 239 z M 373.5 239 L 375 244 L 372 244 L 373.5 239 z M 432 240 L 430 246 L 430 247 L 432 247 L 432 250 L 433 250 L 433 247 L 435 247 L 435 246 L 433 240 L 432 240 z M 432.5 241 L 434 246 L 431 246 L 432.5 241 z M 61 244 L 59 250 L 59 251 L 61 251 L 61 254 L 62 254 L 62 251 L 64 251 L 64 250 L 62 244 L 61 244 z M 311 244 L 309 250 L 309 251 L 311 251 L 311 254 L 312 254 L 312 251 L 314 251 L 314 250 L 312 244 L 311 244 z M 61.5 245 L 63 250 L 60 250 L 61.5 245 z M 311.5 245 L 313 250 L 310 250 L 311.5 245 z M 403 246 L 401 252 L 401 253 L 403 253 L 403 256 L 404 256 L 404 253 L 406 253 L 406 252 L 404 246 L 403 246 z M 116 247 L 114 253 L 114 254 L 116 254 L 116 257 L 117 257 L 117 254 L 119 254 L 119 253 L 117 247 L 116 247 z M 252 247 L 250 253 L 250 254 L 252 254 L 252 257 L 253 257 L 253 254 L 255 254 L 255 253 L 253 247 L 252 247 z M 403.5 247 L 405 252 L 402 252 L 403.5 247 z M 116.5 248 L 118 253 L 115 253 L 116.5 248 z M 252.5 248 L 254 253 L 251 253 L 252.5 248 z M 201 250 L 199 256 L 199 257 L 201 257 L 201 260 L 202 260 L 202 257 L 204 257 L 204 256 L 202 250 L 201 250 z M 201.5 251 L 203 256 L 200 256 L 201.5 251 z M 459 251 L 457 257 L 457 258 L 459 258 L 459 261 L 460 261 L 460 258 L 462 258 L 462 257 L 460 251 L 459 251 z M 459.5 252 L 461 257 L 458 257 L 459.5 252 z M 36 257 L 34 263 L 34 264 L 36 264 L 36 267 L 37 267 L 37 264 L 39 264 L 39 263 L 37 257 L 36 257 z M 140 257 L 138 263 L 138 264 L 140 264 L 140 267 L 141 267 L 141 264 L 143 264 L 143 263 L 141 257 L 140 257 z M 225 257 L 223 263 L 223 264 L 225 264 L 225 267 L 226 267 L 226 264 L 228 264 L 228 263 L 226 257 L 225 257 z M 36.5 258 L 38 263 L 35 263 L 36.5 258 z M 140.5 258 L 142 263 L 139 263 L 140.5 258 z M 225.5 258 L 227 263 L 224 263 L 225.5 258 z M 289 258 L 287 264 L 287 265 L 289 265 L 289 268 L 290 268 L 290 265 L 292 265 L 292 264 L 290 258 L 289 258 z M 289.5 259 L 291 264 L 288 264 L 289.5 259 z M 7 262 L 5 268 L 5 269 L 7 269 L 7 272 L 8 272 L 8 269 L 10 269 L 10 268 L 8 262 L 7 262 z M 7.5 263 L 9 268 L 6 268 L 7.5 263 z M 177 263 L 175 269 L 175 270 L 177 270 L 177 273 L 178 273 L 178 270 L 180 270 L 180 269 L 178 263 L 177 263 z M 89 264 L 87 270 L 87 271 L 89 271 L 89 274 L 90 274 L 90 271 L 92 271 L 92 270 L 90 264 L 89 264 z M 177.5 264 L 179 269 L 176 269 L 177.5 264 z M 359 264 L 357 270 L 357 271 L 359 271 L 359 274 L 360 274 L 360 271 L 362 271 L 362 270 L 360 264 L 359 264 z M 89.5 265 L 91 270 L 88 270 L 89.5 265 z M 359.5 265 L 361 270 L 358 270 L 359.5 265 z M 487 266 L 485 272 L 485 273 L 487 273 L 487 276 L 488 276 L 488 273 L 490 273 L 490 272 L 488 266 L 487 266 z M 487.5 267 L 489 272 L 486 272 L 487.5 267 z M 323 272 L 321 278 L 321 279 L 323 279 L 323 282 L 324 282 L 324 279 L 326 279 L 326 278 L 324 272 L 323 272 z M 323.5 273 L 325 278 L 322 278 L 323.5 273 z M 260 275 L 258 281 L 258 282 L 260 282 L 260 285 L 261 285 L 261 282 L 263 282 L 263 281 L 261 275 L 260 275 z M 416 275 L 414 281 L 414 282 L 416 282 L 416 285 L 417 285 L 417 282 L 419 282 L 419 281 L 417 275 L 416 275 z M 260.5 276 L 262 281 L 259 281 L 260.5 276 z M 416.5 276 L 418 281 L 415 281 L 416.5 276 z M 115 279 L 113 285 L 113 286 L 115 286 L 115 289 L 116 289 L 116 286 L 118 286 L 118 285 L 116 279 L 115 279 z M 115.5 280 L 117 285 L 114 285 L 115.5 280 z M 386 280 L 384 286 L 384 287 L 386 287 L 386 290 L 387 290 L 387 287 L 389 287 L 389 286 L 387 280 L 386 280 z M 149 281 L 147 287 L 147 288 L 149 288 L 149 291 L 150 291 L 150 288 L 152 288 L 152 287 L 150 281 L 149 281 z M 386.5 281 L 388 286 L 385 286 L 386.5 281 z M 62 282 L 60 288 L 60 289 L 62 289 L 62 292 L 63 292 L 63 289 L 65 289 L 65 288 L 63 282 L 62 282 z M 149.5 282 L 151 287 L 148 287 L 149.5 282 z M 445 282 L 443 288 L 443 289 L 445 289 L 445 292 L 446 292 L 446 289 L 448 289 L 448 288 L 446 282 L 445 282 z M 62.5 283 L 64 288 L 61 288 L 62.5 283 z M 445.5 283 L 447 288 L 444 288 L 445.5 283 z M 200 284 L 198 290 L 198 291 L 200 291 L 200 294 L 201 294 L 201 291 L 203 291 L 203 290 L 201 284 L 200 284 z M 200.5 285 L 202 290 L 199 290 L 200.5 285 z M 237 285 L 235 291 L 235 292 L 237 292 L 237 295 L 238 295 L 238 292 L 240 292 L 240 291 L 238 285 L 237 285 z M 237.5 286 L 239 291 L 236 291 L 237.5 286 z M 30 287 L 28 293 L 28 294 L 30 294 L 30 297 L 31 297 L 31 294 L 33 294 L 33 293 L 31 287 L 30 287 z M 475 287 L 473 293 L 473 294 L 475 294 L 475 297 L 476 297 L 476 294 L 478 294 L 478 293 L 476 287 L 475 287 z M 30.5 288 L 32 293 L 29 293 L 30.5 288 z M 475.5 288 L 477 293 L 474 293 L 475.5 288 z M 0 289 L 0 291.66602 L 1 295 L 0 295 L 0 296 L 2 296 L 2 295 L 0 289 z M 356 289 L 354 295 L 354 296 L 356 296 L 356 299 L 357 299 L 357 296 L 359 296 L 359 295 L 357 289 L 356 289 z M 511 289 L 509 295 L 509 296 L 511 296 L 511 299 L 512 299 L 512 296 L 512 295 L 510 295 L 511.5 290 L 512 291.66602 L 512 289 L 511 289 z M 356.5 290 L 358 295 L 355 295 L 356.5 290 z M 284 295 L 282 301 L 282 302 L 284 302 L 284 305 L 285 305 L 285 302 L 287 302 L 287 301 L 285 295 L 284 295 z M 284.5 296 L 286 301 L 283 301 L 284.5 296 z M 87 297 L 85 303 L 85 304 L 87 304 L 87 307 L 88 307 L 88 304 L 90 304 L 90 303 L 88 297 L 87 297 z M 87.5 298 L 89 303 L 86 303 L 87.5 298 z M 174 298 L 172 304 L 172 305 L 174 305 L 174 308 L 175 308 L 175 305 L 177 305 L 177 304 L 175 298 L 174 298 z M 174.5 299 L 176 304 L 173 304 L 174.5 299 z M 307 301 L 305 307 L 305 308 L 307 308 L 307 311 L 308 311 L 308 308 L 310 308 L 310 307 L 308 301 L 307 301 z M 307.5 302 L 309 307 L 306 307 L 307.5 302 z M 334 304 L 332 310 L 332 311 L 334 311 L 334 314 L 335 314 L 335 311 L 337 311 L 337 310 L 335 304 L 334 304 z M 334.5 305 L 336 310 L 333 310 L 334.5 305 z M 425 305 L 423 311 L 423 312 L 425 312 L 425 315 L 426 315 L 426 312 L 428 312 L 428 311 L 426 305 L 425 305 z M 425.5 306 L 427 311 L 424 311 L 425.5 306 z M 141 310 L 139 316 L 139 317 L 141 317 L 141 320 L 142 320 L 142 317 L 144 317 L 144 316 L 142 310 L 141 310 z M 222 310 L 220 316 L 220 317 L 222 317 L 222 320 L 223 320 L 223 317 L 225 317 L 225 316 L 223 310 L 222 310 z M 259 310 L 257 316 L 257 317 L 259 317 L 259 320 L 260 320 L 260 317 L 262 317 L 262 316 L 260 310 L 259 310 z M 398 310 L 396 316 L 396 317 L 398 317 L 398 320 L 399 320 L 399 317 L 401 317 L 401 316 L 399 310 L 398 310 z M 111 311 L 109 317 L 109 318 L 111 318 L 111 321 L 112 321 L 112 318 L 114 318 L 114 317 L 112 311 L 111 311 z M 141.5 311 L 143 316 L 140 316 L 141.5 311 z M 222.5 311 L 224 316 L 221 316 L 222.5 311 z M 259.5 311 L 261 316 L 258 316 L 259.5 311 z M 398.5 311 L 400 316 L 397 316 L 398.5 311 z M 47 312 L 45 318 L 45 319 L 47 319 L 47 322 L 48 322 L 48 319 L 50 319 L 50 318 L 48 312 L 47 312 z M 111.5 312 L 113 317 L 110 317 L 111.5 312 z M 47.5 313 L 49 318 L 46 318 L 47.5 313 z M 494 313 L 492 319 L 492 320 L 494 320 L 494 323 L 495 323 L 495 320 L 497 320 L 497 319 L 495 313 L 494 313 z M 462 314 L 460 320 L 460 321 L 462 321 L 462 324 L 463 324 L 463 321 L 465 321 L 465 320 L 463 314 L 462 314 z M 494.5 314 L 496 319 L 493 319 L 494.5 314 z M 462.5 315 L 464 320 L 461 320 L 462.5 315 z M 200 316 L 198 322 L 198 323 L 200 323 L 200 326 L 201 326 L 201 323 L 203 323 L 203 322 L 201 316 L 200 316 z M 15 317 L 13 323 L 13 324 L 15 324 L 15 327 L 16 327 L 16 324 L 18 324 L 18 323 L 16 317 L 15 317 z M 200.5 317 L 202 322 L 199 322 L 200.5 317 z M 368 317 L 366 323 L 366 324 L 368 324 L 368 327 L 369 327 L 369 324 L 371 324 L 371 323 L 369 317 L 368 317 z M 15.5 318 L 17 323 L 14 323 L 15.5 318 z M 368.5 318 L 370 323 L 367 323 L 368.5 318 z M 78 330 L 76 336 L 76 337 L 78 337 L 78 340 L 79 340 L 79 337 L 81 337 L 81 336 L 79 330 L 78 330 z M 78.5 331 L 80 336 L 77 336 L 78.5 331 z M 175 332 L 173 338 L 173 339 L 175 339 L 175 342 L 176 342 L 176 339 L 178 339 L 178 338 L 176 332 L 175 332 z M 175.5 333 L 177 338 L 174 338 L 175.5 333 z M 281 334 L 279 340 L 279 341 L 281 341 L 281 344 L 282 344 L 282 341 L 284 341 L 284 340 L 282 334 L 281 334 z M 310 334 L 308 340 L 308 341 L 310 341 L 310 344 L 311 344 L 311 341 L 313 341 L 313 340 L 311 334 L 310 334 z M 281.5 335 L 283 340 L 280 340 L 281.5 335 z M 310.5 335 L 312 340 L 309 340 L 310.5 335 z M 340 335 L 338 341 L 338 342 L 340 342 L 340 345 L 341 345 L 341 342 L 343 342 L 343 341 L 341 335 L 340 335 z M 236 336 L 234 342 L 234 343 L 236 343 L 236 346 L 237 346 L 237 343 L 239 343 L 239 342 L 237 336 L 236 336 z M 340.5 336 L 342 341 L 339 341 L 340.5 336 z M 434 336 L 432 342 L 432 343 L 434 343 L 434 346 L 435 346 L 435 343 L 437 343 L 437 342 L 435 336 L 434 336 z M 127 337 L 125 343 L 125 344 L 127 344 L 127 347 L 128 347 L 128 344 L 130 344 L 130 343 L 128 337 L 127 337 z M 236.5 337 L 238 342 L 235 342 L 236.5 337 z M 434.5 337 L 436 342 L 433 342 L 434.5 337 z M 40 338 L 38 344 L 38 345 L 40 345 L 40 348 L 41 348 L 41 345 L 43 345 L 43 344 L 41 338 L 40 338 z M 127.5 338 L 129 343 L 126 343 L 127.5 338 z M 498 338 L 496 344 L 496 345 L 498 345 L 498 348 L 499 348 L 499 345 L 501 345 L 501 344 L 499 338 L 498 338 z M 40.5 339 L 42 344 L 39 344 L 40.5 339 z M 404 339 L 402 345 L 402 346 L 404 346 L 404 349 L 405 349 L 405 346 L 407 346 L 407 345 L 405 339 L 404 339 z M 498.5 339 L 500 344 L 497 344 L 498.5 339 z M 404.5 340 L 406 345 L 403 345 L 404.5 340 z M 104 342 L 102 348 L 102 349 L 104 349 L 104 352 L 105 352 L 105 349 L 107 349 L 107 348 L 105 342 L 104 342 z M 104.5 343 L 106 348 L 103 348 L 104.5 343 z M 468 343 L 466 349 L 466 350 L 468 350 L 468 353 L 469 353 L 469 350 L 471 350 L 471 349 L 469 343 L 468 343 z M 374 344 L 372 350 L 372 351 L 374 351 L 374 354 L 375 354 L 375 351 L 377 351 L 377 350 L 375 344 L 374 344 z M 468.5 344 L 470 349 L 467 349 L 468.5 344 z M 150 345 L 148 351 L 148 352 L 150 352 L 150 355 L 151 355 L 151 352 L 153 352 L 153 351 L 151 345 L 150 345 z M 374.5 345 L 376 350 L 373 350 L 374.5 345 z M 150.5 346 L 152 351 L 149 351 L 150.5 346 z M 257 346 L 255 352 L 255 353 L 257 353 L 257 356 L 258 356 L 258 353 L 260 353 L 260 352 L 258 346 L 257 346 z M 208 347 L 206 353 L 206 354 L 208 354 L 208 357 L 209 357 L 209 354 L 211 354 L 211 353 L 209 347 L 208 347 z M 257.5 347 L 259 352 L 256 352 L 257.5 347 z M 208.5 348 L 210 353 L 207 353 L 208.5 348 z M 17 350 L 15 356 L 15 357 L 17 357 L 17 360 L 18 360 L 18 357 L 20 357 L 20 356 L 18 350 L 17 350 z M 17.5 351 L 19 356 L 16 356 L 17.5 351 z M 66 357 L 64 363 L 64 364 L 66 364 L 66 367 L 67 367 L 67 364 L 69 364 L 69 363 L 67 357 L 66 357 z M 66.5 358 L 68 363 L 65 363 L 66.5 358 z M 281 360 L 279 366 L 279 367 L 281 367 L 281 370 L 282 370 L 282 367 L 284 367 L 284 366 L 282 360 L 281 360 z M 281.5 361 L 283 366 L 280 366 L 281.5 361 z M 177 362 L 175 368 L 175 369 L 177 369 L 177 372 L 178 372 L 178 369 L 180 369 L 180 368 L 178 362 L 177 362 z M 177.5 363 L 179 368 L 176 368 L 177.5 363 z M 318 364 L 316 370 L 316 371 L 318 371 L 318 374 L 319 374 L 319 371 L 321 371 L 321 370 L 319 364 L 318 364 z M 318.5 365 L 320 370 L 317 370 L 318.5 365 z M 440 365 L 438 371 L 438 372 L 440 372 L 440 375 L 441 375 L 441 372 L 443 372 L 443 371 L 441 365 L 440 365 z M 440.5 366 L 442 371 L 439 371 L 440.5 366 z M 346 367 L 344 373 L 344 374 L 346 374 L 346 377 L 347 377 L 347 374 L 349 374 L 349 373 L 347 367 L 346 367 z M 346.5 368 L 348 373 L 345 373 L 346.5 368 z M 410 369 L 408 375 L 408 376 L 410 376 L 410 379 L 411 379 L 411 376 L 413 376 L 413 375 L 411 369 L 410 369 z M 410.5 370 L 412 375 L 409 375 L 410.5 370 z M 490 370 L 488 376 L 488 377 L 490 377 L 490 380 L 491 380 L 491 377 L 493 377 L 493 376 L 491 370 L 490 370 z M 490.5 371 L 492 376 L 489 376 L 490.5 371 z M 230 372 L 228 378 L 228 379 L 230 379 L 230 382 L 231 382 L 231 379 L 233 379 L 233 378 L 231 372 L 230 372 z M 381 372 L 379 378 L 379 379 L 381 379 L 381 382 L 382 382 L 382 379 L 384 379 L 384 378 L 382 372 L 381 372 z M 94 373 L 92 379 L 92 380 L 94 380 L 94 383 L 95 383 L 95 380 L 97 380 L 97 379 L 95 373 L 94 373 z M 126 373 L 124 379 L 124 380 L 126 380 L 126 383 L 127 383 L 127 380 L 129 380 L 129 379 L 127 373 L 126 373 z M 230.5 373 L 232 378 L 229 378 L 230.5 373 z M 381.5 373 L 383 378 L 380 378 L 381.5 373 z M 94.5 374 L 96 379 L 93 379 L 94.5 374 z M 126.5 374 L 128 379 L 125 379 L 126.5 374 z M 38 375 L 36 381 L 36 382 L 38 382 L 38 385 L 39 385 L 39 382 L 41 382 L 41 381 L 39 375 L 38 375 z M 38.5 376 L 40 381 L 37 381 L 38.5 376 z M 6 378 L 4 384 L 4 385 L 6 385 L 6 388 L 7 388 L 7 385 L 9 385 L 9 384 L 7 378 L 6 378 z M 462 378 L 460 384 L 460 385 L 462 385 L 462 388 L 463 388 L 463 385 L 465 385 L 465 384 L 463 378 L 462 378 z M 6.5 379 L 8 384 L 5 384 L 6.5 379 z M 292 379 L 290 385 L 290 386 L 292 386 L 292 389 L 293 389 L 293 386 L 295 386 L 295 385 L 293 379 L 292 379 z M 462.5 379 L 464 384 L 461 384 L 462.5 379 z M 292.5 380 L 294 385 L 291 385 L 292.5 380 z M 155 381 L 153 387 L 153 388 L 155 388 L 155 391 L 156 391 L 156 388 L 158 388 L 158 387 L 156 381 L 155 381 z M 206 381 L 204 387 L 204 388 L 206 388 L 206 391 L 207 391 L 207 388 L 209 388 L 209 387 L 207 381 L 206 381 z M 155.5 382 L 157 387 L 154 387 L 155.5 382 z M 206.5 382 L 208 387 L 205 387 L 206.5 382 z M 65 392 L 63 398 L 63 399 L 65 399 L 65 402 L 66 402 L 66 399 L 68 399 L 68 398 L 66 392 L 65 392 z M 65.5 393 L 67 398 L 64 398 L 65.5 393 z M 369 394 L 367 400 L 367 401 L 369 401 L 369 404 L 370 404 L 370 401 L 372 401 L 372 400 L 370 394 L 369 394 z M 246 395 L 244 401 L 244 402 L 246 402 L 246 405 L 247 405 L 247 402 L 249 402 L 249 401 L 247 395 L 246 395 z M 369.5 395 L 371 400 L 368 400 L 369.5 395 z M 182 396 L 180 402 L 180 403 L 182 403 L 182 406 L 183 406 L 183 403 L 185 403 L 185 402 L 183 396 L 182 396 z M 246.5 396 L 248 401 L 245 401 L 246.5 396 z M 337 396 L 335 402 L 335 403 L 337 403 L 337 406 L 338 406 L 338 403 L 340 403 L 340 402 L 338 396 L 337 396 z M 182.5 397 L 184 402 L 181 402 L 182.5 397 z M 337.5 397 L 339 402 L 336 402 L 337.5 397 z M 307 398 L 305 404 L 305 405 L 307 405 L 307 408 L 308 408 L 308 405 L 310 405 L 310 404 L 308 398 L 307 398 z M 433 398 L 431 404 L 431 405 L 433 405 L 433 408 L 434 408 L 434 405 L 436 405 L 436 404 L 434 398 L 433 398 z M 307.5 399 L 309 404 L 306 404 L 307.5 399 z M 433.5 399 L 435 404 L 432 404 L 433.5 399 z M 118 400 L 116 406 L 116 407 L 118 407 L 118 410 L 119 410 L 119 407 L 121 407 L 121 406 L 119 400 L 118 400 z M 34 401 L 32 407 L 32 408 L 34 408 L 34 411 L 35 411 L 35 408 L 37 408 L 37 407 L 35 401 L 34 401 z M 118.5 401 L 120 406 L 117 406 L 118.5 401 z M 34.5 402 L 36 407 L 33 407 L 34.5 402 z M 401 402 L 399 408 L 399 409 L 401 409 L 401 412 L 402 412 L 402 409 L 404 409 L 404 408 L 402 402 L 401 402 z M 492 402 L 490 408 L 490 409 L 492 409 L 492 412 L 493 412 L 493 409 L 495 409 L 495 408 L 493 402 L 492 402 z M 401.5 403 L 403 408 L 400 408 L 401.5 403 z M 492.5 403 L 494 408 L 491 408 L 492.5 403 z M 87 404 L 85 410 L 85 411 L 87 411 L 87 414 L 88 414 L 88 411 L 90 411 L 90 410 L 88 404 L 87 404 z M 272 404 L 270 410 L 270 411 L 272 411 L 272 414 L 273 414 L 273 411 L 275 411 L 275 410 L 273 404 L 272 404 z M 87.5 405 L 89 410 L 86 410 L 87.5 405 z M 272.5 405 L 274 410 L 271 410 L 272.5 405 z M 462 407 L 460 413 L 460 414 L 462 414 L 462 417 L 463 417 L 463 414 L 465 414 L 465 413 L 463 407 L 462 407 z M 462.5 408 L 464 413 L 461 413 L 462.5 408 z M 149 409 L 147 415 L 147 416 L 149 416 L 149 419 L 150 419 L 150 416 L 152 416 L 152 415 L 150 409 L 149 409 z M 149.5 410 L 151 415 L 148 415 L 149.5 410 z M 220 410 L 218 416 L 218 417 L 220 417 L 220 420 L 221 420 L 221 417 L 223 417 L 223 416 L 221 410 L 220 410 z M 220.5 411 L 222 416 L 219 416 L 220.5 411 z M 6 413 L 4 419 L 4 420 L 6 420 L 6 423 L 7 423 L 7 420 L 9 420 L 9 419 L 7 413 L 6 413 z M 6.5 414 L 8 419 L 5 419 L 6.5 414 z M 187 420 L 185 426 L 185 427 L 187 427 L 187 430 L 188 430 L 188 427 L 190 427 L 190 426 L 188 420 L 187 420 z M 187.5 421 L 189 426 L 186 426 L 187.5 421 z M 342 423 L 340 429 L 340 430 L 342 430 L 342 433 L 343 433 L 343 430 L 345 430 L 345 429 L 343 423 L 342 423 z M 342.5 424 L 344 429 L 341 429 L 342.5 424 z M 375 425 L 373 431 L 373 432 L 375 432 L 375 435 L 376 435 L 376 432 L 378 432 L 378 431 L 376 425 L 375 425 z M 375.5 426 L 377 431 L 374 431 L 375.5 426 z M 102 427 L 100 433 L 100 434 L 102 434 L 102 437 L 103 437 L 103 434 L 105 434 L 105 433 L 103 427 L 102 427 z M 282 427 L 280 433 L 280 434 L 282 434 L 282 437 L 283 437 L 283 434 L 285 434 L 285 433 L 283 427 L 282 427 z M 102.5 428 L 104 433 L 101 433 L 102.5 428 z M 251 428 L 249 434 L 249 435 L 251 435 L 251 438 L 252 438 L 252 435 L 254 435 L 254 434 L 252 428 L 251 428 z M 282.5 428 L 284 433 L 281 433 L 282.5 428 z M 251.5 429 L 253 434 L 250 434 L 251.5 429 z M 315 429 L 313 435 L 313 436 L 315 436 L 315 439 L 316 439 L 316 436 L 318 436 L 318 435 L 316 429 L 315 429 z M 434 429 L 432 435 L 432 436 L 434 436 L 434 439 L 435 439 L 435 436 L 437 436 L 437 435 L 435 429 L 434 429 z M 73 430 L 71 436 L 71 437 L 73 437 L 73 440 L 74 440 L 74 437 L 76 437 L 76 436 L 74 430 L 73 430 z M 315.5 430 L 317 435 L 314 435 L 315.5 430 z M 434.5 430 L 436 435 L 433 435 L 434.5 430 z M 73.5 431 L 75 436 L 72 436 L 73.5 431 z M 406 431 L 404 437 L 404 438 L 406 438 L 406 441 L 407 441 L 407 438 L 409 438 L 409 437 L 407 431 L 406 431 z M 40 432 L 38 438 L 38 439 L 40 439 L 40 442 L 41 442 L 41 439 L 43 439 L 43 438 L 41 432 L 40 432 z M 406.5 432 L 408 437 L 405 437 L 406.5 432 z M 40.5 433 L 42 438 L 39 438 L 40.5 433 z M 491 434 L 489 440 L 489 441 L 491 441 L 491 444 L 492 444 L 492 441 L 494 441 L 494 440 L 492 434 L 491 434 z M 491.5 435 L 493 440 L 490 440 L 491.5 435 z M 133 437 L 131 443 L 131 444 L 133 444 L 133 447 L 134 447 L 134 444 L 136 444 L 136 443 L 134 437 L 133 437 z M 133.5 438 L 135 443 L 132 443 L 133.5 438 z M 212 439 L 210 445 L 210 446 L 212 446 L 212 449 L 213 449 L 213 446 L 215 446 L 215 445 L 213 439 L 212 439 z M 212.5 440 L 214 445 L 211 445 L 212.5 440 z M 10 441 L 8 447 L 8 448 L 10 448 L 10 451 L 11 451 L 11 448 L 13 448 L 13 447 L 11 441 L 10 441 z M 10.5 442 L 12 447 L 9 447 L 10.5 442 z M 165 442 L 163 448 L 163 449 L 165 449 L 165 452 L 166 452 L 166 449 L 168 449 L 168 448 L 166 442 L 165 442 z M 461 442 L 459 448 L 459 449 L 461 449 L 461 452 L 462 452 L 462 449 L 464 449 L 464 448 L 462 442 L 461 442 z M 165.5 443 L 167 448 L 164 448 L 165.5 443 z M 461.5 443 L 463 448 L 460 448 L 461.5 443 z M 398 451 L 396 457 L 396 458 L 398 458 L 398 461 L 399 461 L 399 458 L 401 458 L 401 457 L 399 451 L 398 451 z M 398.5 452 L 400 457 L 397 457 L 398.5 452 z M 274 453 L 272 459 L 272 460 L 274 460 L 274 463 L 275 463 L 275 460 L 277 460 L 277 459 L 275 453 L 274 453 z M 274.5 454 L 276 459 L 273 459 L 274.5 454 z M 338 454 L 336 460 L 336 461 L 338 461 L 338 464 L 339 464 L 339 461 L 341 461 L 341 460 L 339 454 L 338 454 z M 69 455 L 67 461 L 67 462 L 69 462 L 69 465 L 70 465 L 70 462 L 72 462 L 72 461 L 70 455 L 69 455 z M 338.5 455 L 340 460 L 337 460 L 338.5 455 z M 69.5 456 L 71 461 L 68 461 L 69.5 456 z M 367 456 L 365 462 L 365 463 L 367 463 L 367 466 L 368 466 L 368 463 L 370 463 L 370 462 L 368 456 L 367 456 z M 367.5 457 L 369 462 L 366 462 L 367.5 457 z M 121 458 L 119 464 L 119 465 L 121 465 L 121 468 L 122 468 L 122 465 L 124 465 L 124 464 L 122 458 L 121 458 z M 121.5 459 L 123 464 L 120 464 L 121.5 459 z M 190 459 L 188 465 L 188 466 L 190 466 L 190 469 L 191 469 L 191 466 L 193 466 L 193 465 L 191 459 L 190 459 z M 239 459 L 237 465 L 237 466 L 239 466 L 239 469 L 240 469 L 240 466 L 242 466 L 242 465 L 240 459 L 239 459 z M 190.5 460 L 192 465 L 189 465 L 190.5 460 z M 239.5 460 L 241 465 L 238 465 L 239.5 460 z M 48 461 L 46 467 L 46 468 L 48 468 L 48 471 L 49 471 L 49 468 L 51 468 L 51 467 L 49 461 L 48 461 z M 48.5 462 L 50 467 L 47 467 L 48.5 462 z M 303 464 L 301 470 L 301 471 L 303 471 L 303 474 L 304 474 L 304 471 L 306 471 L 306 470 L 304 464 L 303 464 z M 303.5 465 L 305 470 L 302 470 L 303.5 465 z M 437 465 L 435 471 L 435 472 L 437 472 L 437 475 L 438 475 L 438 472 L 440 472 L 440 471 L 438 465 L 437 465 z M 499 465 L 497 471 L 497 472 L 499 472 L 499 475 L 500 475 L 500 472 L 502 472 L 502 471 L 500 465 L 499 465 z M 437.5 466 L 439 471 L 436 471 L 437.5 466 z M 499.5 466 L 501 471 L 498 471 L 499.5 466 z M 152 468 L 150 474 L 150 475 L 152 475 L 152 478 L 153 478 L 153 475 L 155 475 L 155 474 L 153 468 L 152 468 z M 152.5 469 L 154 474 L 151 474 L 152.5 469 z M 93 470 L 91 476 L 91 477 L 93 477 L 93 480 L 94 480 L 94 477 L 96 477 L 96 476 L 94 470 L 93 470 z M 93.5 471 L 95 476 L 92 476 L 93.5 471 z M 471 471 L 469 477 L 469 478 L 471 478 L 471 481 L 472 481 L 472 478 L 474 478 L 474 477 L 472 471 L 471 471 z M 408 472 L 406 478 L 406 479 L 408 479 L 408 482 L 409 482 L 409 479 L 411 479 L 411 478 L 409 472 L 408 472 z M 471.5 472 L 473 477 L 470 477 L 471.5 472 z M 408.5 473 L 410 478 L 407 478 L 408.5 473 z M 27 474 L 25 480 L 25 481 L 27 481 L 27 484 L 28 484 L 28 481 L 30 481 L 30 480 L 28 474 L 27 474 z M 27.5 475 L 29 480 L 26 480 L 27.5 475 z M 215 475 L 213 481 L 213 482 L 215 482 L 215 485 L 216 485 L 216 482 L 218 482 L 218 481 L 216 475 L 215 475 z M 215.5 476 L 217 481 L 214 481 L 215.5 476 z M 257 483 L 255 489 L 255 490 L 257 490 L 257 493 L 258 493 L 258 490 L 260 490 L 260 489 L 258 483 L 257 483 z M 349 483 L 347 489 L 347 490 L 349 490 L 349 493 L 350 493 L 350 490 L 352 490 L 352 489 L 350 483 L 349 483 z M 180 484 L 178 490 L 178 491 L 180 491 L 180 494 L 181 494 L 181 491 L 183 491 L 183 490 L 181 484 L 180 484 z M 257.5 484 L 259 489 L 256 489 L 257.5 484 z M 349.5 484 L 351 489 L 348 489 L 349.5 484 z M 180.5 485 L 182 490 L 179 490 L 180.5 485 z M 285 486 L 283 492 L 283 493 L 285 493 L 285 496 L 286 496 L 286 493 L 288 493 L 288 492 L 286 486 L 285 486 z M 285.5 487 L 287 492 L 284 492 L 285.5 487 z M 12 489 L 10 495 L 10 496 L 12 496 L 12 499 L 13 499 L 13 496 L 15 496 L 15 495 L 13 489 L 12 489 z M 116 489 L 114 495 L 114 496 L 116 496 L 116 499 L 117 499 L 117 496 L 119 496 L 119 495 L 117 489 L 116 489 z M 379 489 L 377 495 L 377 496 L 379 496 L 379 499 L 380 499 L 380 496 L 382 496 L 382 495 L 380 489 L 379 489 z M 12.5 490 L 14 495 L 11 495 L 12.5 490 z M 116.5 490 L 118 495 L 115 495 L 116.5 490 z M 379.5 490 L 381 495 L 378 495 L 379.5 490 z M 320 493 L 318 499 L 318 500 L 320 500 L 320 503 L 321 503 L 321 500 L 323 500 L 323 499 L 321 493 L 320 493 z M 74 494 L 72 500 L 72 501 L 74 501 L 74 504 L 75 504 L 75 501 L 77 501 L 77 500 L 75 494 L 74 494 z M 320.5 494 L 322 499 L 319 499 L 320.5 494 z M 45 495 L 43 501 L 43 502 L 45 502 L 45 505 L 46 505 L 46 502 L 48 502 L 48 501 L 46 495 L 45 495 z M 74.5 495 L 76 500 L 73 500 L 74.5 495 z M 45.5 496 L 47 501 L 44 501 L 45.5 496 z M 234 496 L 232 502 L 232 503 L 234 503 L 234 506 L 235 506 L 235 503 L 237 503 L 237 502 L 235 496 L 234 496 z M 442 496 L 440 502 L 440 503 L 442 503 L 442 506 L 443 506 L 443 503 L 445 503 L 445 502 L 443 496 L 442 496 z M 234.5 497 L 236 502 L 233 502 L 234.5 497 z M 442.5 497 L 444 502 L 441 502 L 442.5 497 z M 490 497 L 488 503 L 488 504 L 490 504 L 490 507 L 491 507 L 491 504 L 493 504 L 493 503 L 491 497 L 490 497 z M 153 498 L 151 504 L 151 505 L 153 505 L 153 508 L 154 508 L 154 505 L 156 505 L 156 504 L 154 498 L 153 498 z M 414 498 L 412 504 L 412 505 L 414 505 L 414 508 L 415 508 L 415 505 L 417 505 L 417 504 L 415 498 L 414 498 z M 490.5 498 L 492 503 L 489 503 L 490.5 498 z M 153.5 499 L 155 504 L 152 504 L 153.5 499 z M 414.5 499 L 416 504 L 413 504 L 414.5 499 z M 129 510 L 128.33398 512 L 129.19922 512 L 129.5 511 L 129.80078 512 L 130.66602 512 L 130 510 L 129 510 z M 200 510 L 199.33398 512 L 200.19922 512 L 200.5 511 L 200.80078 512 L 201.66602 512 L 201 510 L 200 510 z M 5 511 L 4.6660156 512 L 5.5 512 L 6.3339844 512 L 6 511 L 5 511 z "
     style="fill:#6b8d5e" />
  <desc
     id="desc918">Created with Snap</desc>
</svg>
