<?xml version="1.0" encoding="UTF-8" standalone="no"?>
<svg
   xmlns:dc="http://purl.org/dc/elements/1.1/"
   xmlns:cc="http://creativecommons.org/ns#"
   xmlns:rdf="http://www.w3.org/1999/02/22-rdf-syntax-ns#"
   xmlns:svg="http://www.w3.org/2000/svg"
   xmlns="http://www.w3.org/2000/svg"
   version="1.1"
   height="512"
   width="512"
   id="Svg">
  <metadata
     id="metadata922">
    <rdf:RDF>
      <cc:Work
         rdf:about="">
        <dc:format>image/svg+xml</dc:format>
        <dc:type
           rdf:resource="http://purl.org/dc/dcmitype/StillImage" />
      </cc:Work>
    </rdf:RDF>
  </metadata>
  <defs
     id="defs3" />
  <path
     id="path7313"
     d="M 5.625 0 L 3 7 L 3 8 L 6 8 L 6 12 L 7 12 L 7 8 L 10 8 L 10 7 L 7.375 0 L 6.5 0 L 9 7 L 4 7 L 6.5 0 L 5.625 0 z M 88 0 L 85 8 L 85 9 L 88 9 L 88 13 L 89 13 L 89 9 L 92 9 L 92 8 L 89 0 L 88 0 z M 129.25 0 L 127 6 L 127 7 L 130 7 L 130 11 L 131 11 L 131 7 L 134 7 L 134 6 L 131.75 0 L 130.85742 0 L 133 6 L 128 6 L 130.14258 0 L 129.25 0 z M 200.25 0 L 198 6 L 198 7 L 201 7 L 201 11 L 202 11 L 202 7 L 205 7 L 205 6 L 202.75 0 L 201.85742 0 L 204 6 L 199 6 L 201.14258 0 L 200.25 0 z M 88.5 1 L 91 8 L 86 8 L 88.5 1 z M 465 1 L 462 9 L 462 10 L 465 10 L 465 14 L 466 14 L 466 10 L 469 10 L 469 9 L 466 1 L 465 1 z M 465.5 2 L 468 9 L 463 9 L 465.5 2 z M 343 3 L 340 11 L 340 12 L 343 12 L 343 16 L 344 16 L 344 12 L 347 12 L 347 11 L 344 3 L 343 3 z M 265 4 L 262 12 L 262 13 L 265 13 L 265 17 L 266 17 L 266 13 L 269 13 L 269 12 L 266 4 L 265 4 z M 295 4 L 292 12 L 292 13 L 295 13 L 295 17 L 296 17 L 296 13 L 299 13 L 299 12 L 296 4 L 295 4 z M 343.5 4 L 346 11 L 341 11 L 343.5 4 z M 265.5 5 L 268 12 L 263 12 L 265.5 5 z M 295.5 5 L 298 12 L 293 12 L 295.5 5 z M 403 7 L 400 15 L 400 16 L 403 16 L 403 20 L 404 20 L 404 16 L 407 16 L 407 15 L 404 7 L 403 7 z M 375 8 L 372 16 L 372 17 L 375 17 L 375 21 L 376 21 L 376 17 L 379 17 L 379 16 L 376 8 L 375 8 z M 403.5 8 L 406 15 L 401 15 L 403.5 8 z M 173 9 L 170 17 L 170 18 L 173 18 L 173 22 L 174 22 L 174 18 L 177 18 L 177 17 L 174 9 L 173 9 z M 375.5 9 L 378 16 L 373 16 L 375.5 9 z M 173.5 10 L 176 17 L 171 17 L 173.5 10 z M 233 10 L 230 18 L 230 19 L 233 19 L 233 23 L 234 23 L 234 19 L 237 19 L 237 18 L 234 10 L 233 10 z M 233.5 11 L 236 18 L 231 18 L 233.5 11 z M 35 16 L 32 24 L 32 25 L 35 25 L 35 29 L 36 29 L 36 25 L 39 25 L 39 24 L 36 16 L 35 16 z M 35.5 17 L 38 24 L 33 24 L 35.5 17 z M 68 17 L 65 25 L 65 26 L 68 26 L 68 30 L 69 30 L 69 26 L 72 26 L 72 25 L 69 17 L 68 17 z M 438 17 L 435 25 L 435 26 L 438 26 L 438 30 L 439 30 L 439 26 L 442 26 L 442 25 L 439 17 L 438 17 z M 497 17 L 494 25 L 494 26 L 497 26 L 497 30 L 498 30 L 498 26 L 501 26 L 501 25 L 498 17 L 497 17 z M 68.5 18 L 71 25 L 66 25 L 68.5 18 z M 438.5 18 L 441 25 L 436 25 L 438.5 18 z M 497.5 18 L 500 25 L 495 25 L 497.5 18 z M 317 23 L 314 31 L 314 32 L 317 32 L 317 36 L 318 36 L 318 32 L 321 32 L 321 31 L 318 23 L 317 23 z M 317.5 24 L 320 31 L 315 31 L 317.5 24 z M 205 26 L 202 34 L 202 35 L 205 35 L 205 39 L 206 39 L 206 35 L 209 35 L 209 34 L 206 26 L 205 26 z M 205.5 27 L 208 34 L 203 34 L 205.5 27 z M 143 31 L 140 39 L 140 40 L 143 40 L 143 44 L 144 44 L 144 40 L 147 40 L 147 39 L 144 31 L 143 31 z M 114 32 L 111 40 L 111 41 L 114 41 L 114 45 L 115 45 L 115 41 L 118 41 L 118 40 L 115 32 L 114 32 z M 143.5 32 L 146 39 L 141 39 L 143.5 32 z M 87 33 L 84 41 L 84 42 L 87 42 L 87 46 L 88 46 L 88 42 L 91 42 L 91 41 L 88 33 L 87 33 z M 114.5 33 L 117 40 L 112 40 L 114.5 33 z M 87.5 34 L 90 41 L 85 41 L 87.5 34 z M 349 34 L 346 42 L 346 43 L 349 43 L 349 47 L 350 47 L 350 43 L 353 43 L 353 42 L 350 34 L 349 34 z M 258 35 L 255 43 L 255 44 L 258 44 L 258 48 L 259 48 L 259 44 L 262 44 L 262 43 L 259 35 L 258 35 z M 287 35 L 284 43 L 284 44 L 287 44 L 287 48 L 288 48 L 288 44 L 291 44 L 291 43 L 288 35 L 287 35 z M 349.5 35 L 352 42 L 347 42 L 349.5 35 z M 258.5 36 L 261 43 L 256 43 L 258.5 36 z M 287.5 36 L 290 43 L 285 43 L 287.5 36 z M 463 36 L 460 44 L 460 45 L 463 45 L 463 49 L 464 49 L 464 45 L 467 45 L 467 44 L 464 36 L 463 36 z M 463.5 37 L 466 44 L 461 44 L 463.5 37 z M 12 38 L 9 46 L 9 47 L 12 47 L 12 51 L 13 51 L 13 47 L 16 47 L 16 46 L 13 38 L 12 38 z M 378 38 L 375 46 L 375 47 L 378 47 L 378 51 L 379 51 L 379 47 L 382 47 L 382 46 L 379 38 L 378 38 z M 408 38 L 405 46 L 405 47 L 408 47 L 408 51 L 409 51 L 409 47 L 412 47 L 412 46 L 409 38 L 408 38 z M 12.5 39 L 15 46 L 10 46 L 12.5 39 z M 176 39 L 173 47 L 173 48 L 176 48 L 176 52 L 177 52 L 177 48 L 180 48 L 180 47 L 177 39 L 176 39 z M 378.5 39 L 381 46 L 376 46 L 378.5 39 z M 408.5 39 L 411 46 L 406 46 L 408.5 39 z M 176.5 40 L 179 47 L 174 47 L 176.5 40 z M 51 41 L 48 49 L 48 50 L 51 50 L 51 54 L 52 54 L 52 50 L 55 50 L 55 49 L 52 41 L 51 41 z M 51.5 42 L 54 49 L 49 49 L 51.5 42 z M 231 46 L 228 54 L 228 55 L 231 55 L 231 59 L 232 59 L 232 55 L 235 55 L 235 54 L 232 46 L 231 46 z M 231.5 47 L 234 54 L 229 54 L 231.5 47 z M 435 47 L 432 55 L 432 56 L 435 56 L 435 60 L 436 60 L 436 56 L 439 56 L 439 55 L 436 47 L 435 47 z M 435.5 48 L 438 55 L 433 55 L 435.5 48 z M 496 49 L 493 57 L 493 58 L 496 58 L 496 62 L 497 62 L 497 58 L 500 58 L 500 57 L 497 49 L 496 49 z M 496.5 50 L 499 57 L 494 57 L 496.5 50 z M 317 54 L 314 62 L 314 63 L 317 63 L 317 67 L 318 67 L 318 63 L 321 63 L 321 62 L 318 54 L 317 54 z M 317.5 55 L 320 62 L 315 62 L 317.5 55 z M 34 59 L 31 67 L 31 68 L 34 68 L 34 72 L 35 72 L 35 68 L 38 68 L 38 67 L 35 59 L 34 59 z M 113 59 L 110 67 L 110 68 L 113 68 L 113 72 L 114 72 L 114 68 L 117 68 L 117 67 L 114 59 L 113 59 z M 34.5 60 L 37 67 L 32 67 L 34.5 60 z M 113.5 60 L 116 67 L 111 67 L 113.5 60 z M 142 62 L 139 70 L 139 71 L 142 71 L 142 75 L 143 75 L 143 71 L 146 71 L 146 70 L 143 62 L 142 62 z M 200 62 L 197 70 L 197 71 L 200 71 L 200 75 L 201 75 L 201 71 L 204 71 L 204 70 L 201 62 L 200 62 z M 142.5 63 L 145 70 L 140 70 L 142.5 63 z M 200.5 63 L 203 70 L 198 70 L 200.5 63 z M 78 64 L 75 72 L 75 73 L 78 73 L 78 77 L 79 77 L 79 73 L 82 73 L 82 72 L 79 64 L 78 64 z M 78.5 65 L 81 72 L 76 72 L 78.5 65 z M 377 65 L 374 73 L 374 74 L 377 74 L 377 78 L 378 78 L 378 74 L 381 74 L 381 73 L 378 65 L 377 65 z M 466 65 L 463 73 L 463 74 L 466 74 L 466 78 L 467 78 L 467 74 L 470 74 L 470 73 L 467 65 L 466 65 z M 264 66 L 261 74 L 261 75 L 264 75 L 264 79 L 265 79 L 265 75 L 268 75 L 268 74 L 265 66 L 264 66 z M 343 66 L 340 74 L 340 75 L 343 75 L 343 79 L 344 79 L 344 75 L 347 75 L 347 74 L 344 66 L 343 66 z M 377.5 66 L 380 73 L 375 73 L 377.5 66 z M 466.5 66 L 469 73 L 464 73 L 466.5 66 z M 264.5 67 L 267 74 L 262 74 L 264.5 67 z M 343.5 67 L 346 74 L 341 74 L 343.5 67 z M 171 68 L 168 76 L 168 77 L 171 77 L 171 81 L 172 81 L 172 77 L 175 77 L 175 76 L 172 68 L 171 68 z M 295 68 L 292 76 L 292 77 L 295 77 L 295 81 L 296 81 L 296 77 L 299 77 L 299 76 L 296 68 L 295 68 z M 171.5 69 L 174 76 L 169 76 L 171.5 69 z M 295.5 69 L 298 76 L 293 76 L 295.5 69 z M 405 71 L 402 79 L 402 80 L 405 80 L 405 84 L 406 84 L 406 80 L 409 80 L 409 79 L 406 71 L 405 71 z M 4 72 L 1 80 L 1 81 L 4 81 L 4 85 L 5 85 L 5 81 L 8 81 L 8 80 L 5 72 L 4 72 z M 405.5 72 L 408 79 L 403 79 L 405.5 72 z M 4.5 73 L 7 80 L 2 80 L 4.5 73 z M 231 74 L 228 82 L 228 83 L 231 83 L 231 87 L 232 87 L 232 83 L 235 83 L 235 82 L 232 74 L 231 74 z M 231.5 75 L 234 82 L 229 82 L 231.5 75 z M 439 78 L 436 86 L 436 87 L 439 87 L 439 91 L 440 91 L 440 87 L 443 87 L 443 86 L 440 78 L 439 78 z M 439.5 79 L 442 86 L 437 86 L 439.5 79 z M 54 83 L 51 91 L 51 92 L 54 92 L 54 96 L 55 96 L 55 92 L 58 92 L 58 91 L 55 83 L 54 83 z M 54.5 84 L 57 91 L 52 91 L 54.5 84 z M 488 85 L 485 93 L 485 94 L 488 94 L 488 98 L 489 98 L 489 94 L 492 94 L 492 93 L 489 85 L 488 85 z M 488.5 86 L 491 93 L 486 93 L 488.5 86 z M 202 90 L 199 98 L 199 99 L 202 99 L 202 103 L 203 103 L 203 99 L 206 99 L 206 98 L 203 90 L 202 90 z M 89 91 L 86 99 L 86 100 L 89 100 L 89 104 L 90 104 L 90 100 L 93 100 L 93 99 L 90 91 L 89 91 z M 202.5 91 L 205 98 L 200 98 L 202.5 91 z M 319 91 L 316 99 L 316 100 L 319 100 L 319 104 L 320 104 L 320 100 L 323 100 L 323 99 L 320 91 L 319 91 z M 89.5 92 L 92 99 L 87 99 L 89.5 92 z M 118 92 L 115 100 L 115 101 L 118 101 L 118 105 L 119 105 L 119 101 L 122 101 L 122 100 L 119 92 L 118 92 z M 319.5 92 L 322 99 L 317 99 L 319.5 92 z M 118.5 93 L 121 100 L 116 100 L 118.5 93 z M 364 94 L 361 102 L 361 103 L 364 103 L 364 107 L 365 107 L 365 103 L 368 103 L 368 102 L 365 94 L 364 94 z M 145 95 L 142 103 L 142 104 L 145 104 L 145 108 L 146 108 L 146 104 L 149 104 L 149 103 L 146 95 L 145 95 z M 364.5 95 L 367 102 L 362 102 L 364.5 95 z M 145.5 96 L 148 103 L 143 103 L 145.5 96 z M 279 96 L 276 104 L 276 105 L 279 105 L 279 109 L 280 109 L 280 105 L 283 105 L 283 104 L 280 96 L 279 96 z M 279.5 97 L 282 104 L 277 104 L 279.5 97 z M 24 99 L 21 107 L 21 108 L 24 108 L 24 112 L 25 112 L 25 108 L 28 108 L 28 107 L 25 99 L 24 99 z M 251 99 L 248 107 L 248 108 L 251 108 L 251 112 L 252 112 L 252 108 L 255 108 L 255 107 L 252 99 L 251 99 z M 24.5 100 L 27 107 L 22 107 L 24.5 100 z M 251.5 100 L 254 107 L 249 107 L 251.5 100 z M 397 101 L 394 109 L 394 110 L 397 110 L 397 114 L 398 114 L 398 110 L 401 110 L 401 109 L 398 101 L 397 101 z M 397.5 102 L 400 109 L 395 109 L 397.5 102 z M 461 102 L 458 110 L 458 111 L 461 111 L 461 115 L 462 115 L 462 111 L 465 111 L 465 110 L 462 102 L 461 102 z M 172 103 L 169 111 L 169 112 L 172 112 L 172 116 L 173 116 L 173 112 L 176 112 L 176 111 L 173 103 L 172 103 z M 461.5 103 L 464 110 L 459 110 L 461.5 103 z M 172.5 104 L 175 111 L 170 111 L 172.5 104 z M 427 105 L 424 113 L 424 114 L 427 114 L 427 118 L 428 118 L 428 114 L 431 114 L 431 113 L 428 105 L 427 105 z M 427.5 106 L 430 113 L 425 113 L 427.5 106 z M 74 108 L 71 116 L 71 117 L 74 117 L 74 121 L 75 121 L 75 117 L 78 117 L 78 116 L 75 108 L 74 108 z M 74.5 109 L 77 116 L 72 116 L 74.5 109 z M 220 109 L 217 117 L 217 118 L 220 118 L 220 122 L 221 122 L 221 118 L 224 118 L 224 117 L 221 109 L 220 109 z M 220.5 110 L 223 117 L 218 117 L 220.5 110 z M 510 110 L 507 118 L 507 119 L 510 119 L 510 123 L 511 123 L 511 119 L 512 119 L 512 118 L 508 118 L 510.5 111 L 512 115.19922 L 512 112.66602 L 511 110 L 510 110 z M 0 112.66602 L 0 115.19922 L 1 118 L 0 118 L 0 119 L 2 119 L 2 118 L 0 112.66602 z M 340 114 L 337 122 L 337 123 L 340 123 L 340 127 L 341 127 L 341 123 L 344 123 L 344 122 L 341 114 L 340 114 z M 340.5 115 L 343 122 L 338 122 L 340.5 115 z M 305 117 L 302 125 L 302 126 L 305 126 L 305 130 L 306 130 L 306 126 L 309 126 L 309 125 L 306 117 L 305 117 z M 305.5 118 L 308 125 L 303 125 L 305.5 118 z M 47 120 L 44 128 L 44 129 L 47 129 L 47 133 L 48 133 L 48 129 L 51 129 L 51 128 L 48 120 L 47 120 z M 47.5 121 L 50 128 L 45 128 L 47.5 121 z M 111 123 L 108 131 L 108 132 L 111 132 L 111 136 L 112 136 L 112 132 L 115 132 L 115 131 L 112 123 L 111 123 z M 111.5 124 L 114 131 L 109 131 L 111.5 124 z M 368 124 L 365 132 L 365 133 L 368 133 L 368 137 L 369 137 L 369 133 L 372 133 L 372 132 L 369 124 L 368 124 z M 142 125 L 139 133 L 139 134 L 142 134 L 142 138 L 143 138 L 143 134 L 146 134 L 146 133 L 143 125 L 142 125 z M 368.5 125 L 371 132 L 366 132 L 368.5 125 z M 481 125 L 478 133 L 478 134 L 481 134 L 481 138 L 482 138 L 482 134 L 485 134 L 485 133 L 482 125 L 481 125 z M 142.5 126 L 145 133 L 140 133 L 142.5 126 z M 193 126 L 190 134 L 190 135 L 193 135 L 193 139 L 194 139 L 194 135 L 197 135 L 197 134 L 194 126 L 193 126 z M 481.5 126 L 484 133 L 479 133 L 481.5 126 z M 193.5 127 L 196 134 L 191 134 L 193.5 127 z M 252 129 L 249 137 L 249 138 L 252 138 L 252 142 L 253 142 L 253 138 L 256 138 L 256 137 L 253 129 L 252 129 z M 252.5 130 L 255 137 L 250 137 L 252.5 130 z M 280 130 L 277 138 L 277 139 L 280 139 L 280 143 L 281 143 L 281 139 L 284 139 L 284 138 L 281 130 L 280 130 z M 432 130 L 429 138 L 429 139 L 432 139 L 432 143 L 433 143 L 433 139 L 436 139 L 436 138 L 433 130 L 432 130 z M 280.5 131 L 283 138 L 278 138 L 280.5 131 z M 402 131 L 399 139 L 399 140 L 402 140 L 402 144 L 403 144 L 403 140 L 406 140 L 406 139 L 403 131 L 402 131 z M 432.5 131 L 435 138 L 430 138 L 432.5 131 z M 402.5 132 L 405 139 L 400 139 L 402.5 132 z M 16 135 L 13 143 L 13 144 L 16 144 L 16 148 L 17 148 L 17 144 L 20 144 L 20 143 L 17 135 L 16 135 z M 16.5 136 L 19 143 L 14 143 L 16.5 136 z M 163 137 L 160 145 L 160 146 L 163 146 L 163 150 L 164 150 L 164 146 L 167 146 L 167 145 L 164 137 L 163 137 z M 220 137 L 217 145 L 217 146 L 220 146 L 220 150 L 221 150 L 221 146 L 224 146 L 224 145 L 221 137 L 220 137 z M 163.5 138 L 166 145 L 161 145 L 163.5 138 z M 220.5 138 L 223 145 L 218 145 L 220.5 138 z M 453 139 L 450 147 L 450 148 L 453 148 L 453 152 L 454 152 L 454 148 L 457 148 L 457 147 L 454 139 L 453 139 z M 453.5 140 L 456 147 L 451 147 L 453.5 140 z M 80 141 L 77 149 L 77 150 L 80 150 L 80 154 L 81 154 L 81 150 L 84 150 L 84 149 L 81 141 L 80 141 z M 322 141 L 319 149 L 319 150 L 322 150 L 322 154 L 323 154 L 323 150 L 326 150 L 326 149 L 323 141 L 322 141 z M 80.5 142 L 83 149 L 78 149 L 80.5 142 z M 322.5 142 L 325 149 L 320 149 L 322.5 142 z M 500 146 L 497 154 L 497 155 L 500 155 L 500 159 L 501 159 L 501 155 L 504 155 L 504 154 L 501 146 L 500 146 z M 52 147 L 49 155 L 49 156 L 52 156 L 52 160 L 53 160 L 53 156 L 56 156 L 56 155 L 53 147 L 52 147 z M 349 147 L 346 155 L 346 156 L 349 156 L 349 160 L 350 160 L 350 156 L 353 156 L 353 155 L 350 147 L 349 147 z M 500.5 147 L 503 154 L 498 154 L 500.5 147 z M 52.5 148 L 55 155 L 50 155 L 52.5 148 z M 349.5 148 L 352 155 L 347 155 L 349.5 148 z M 102 154 L 99 162 L 99 163 L 102 163 L 102 167 L 103 167 L 103 163 L 106 163 L 106 162 L 103 154 L 102 154 z M 384 154 L 381 162 L 381 163 L 384 163 L 384 167 L 385 167 L 385 163 L 388 163 L 388 162 L 385 154 L 384 154 z M 102.5 155 L 105 162 L 100 162 L 102.5 155 z M 134 155 L 131 163 L 131 164 L 134 164 L 134 168 L 135 168 L 135 164 L 138 164 L 138 163 L 135 155 L 134 155 z M 384.5 155 L 387 162 L 382 162 L 384.5 155 z M 134.5 156 L 137 163 L 132 163 L 134.5 156 z M 260 156 L 257 164 L 257 165 L 260 165 L 260 169 L 261 169 L 261 165 L 264 165 L 264 164 L 261 156 L 260 156 z M 260.5 157 L 263 164 L 258 164 L 260.5 157 z M 196 160 L 193 168 L 193 169 L 196 169 L 196 173 L 197 173 L 197 169 L 200 169 L 200 168 L 197 160 L 196 160 z M 295 160 L 292 168 L 292 169 L 295 169 L 295 173 L 296 173 L 296 169 L 299 169 L 299 168 L 296 160 L 295 160 z M 469 160 L 466 168 L 466 169 L 469 169 L 469 173 L 470 173 L 470 169 L 473 169 L 473 168 L 470 160 L 469 160 z M 196.5 161 L 199 168 L 194 168 L 196.5 161 z M 295.5 161 L 298 168 L 293 168 L 295.5 161 z M 469.5 161 L 472 168 L 467 168 L 469.5 161 z M 20 163 L 17 171 L 17 172 L 20 172 L 20 176 L 21 176 L 21 172 L 24 172 L 24 171 L 21 163 L 20 163 z M 411 163 L 408 171 L 408 172 L 411 172 L 411 176 L 412 176 L 412 172 L 415 172 L 415 171 L 412 163 L 411 163 z M 20.5 164 L 23 171 L 18 171 L 20.5 164 z M 411.5 164 L 414 171 L 409 171 L 411.5 164 z M 163 167 L 160 175 L 160 176 L 163 176 L 163 180 L 164 180 L 164 176 L 167 176 L 167 175 L 164 167 L 163 167 z M 163.5 168 L 166 175 L 161 175 L 163.5 168 z M 230 170 L 227 178 L 227 179 L 230 179 L 230 183 L 231 183 L 231 179 L 234 179 L 234 178 L 231 170 L 230 170 z M 230.5 171 L 233 178 L 228 178 L 230.5 171 z M 72 172 L 69 180 L 69 181 L 72 181 L 72 185 L 73 185 L 73 181 L 76 181 L 76 180 L 73 172 L 72 172 z M 72.5 173 L 75 180 L 70 180 L 72.5 173 z M 506 174 L 503 182 L 503 183 L 506 183 L 506 187 L 507 187 L 507 183 L 510 183 L 510 182 L 507 174 L 506 174 z M 506.5 175 L 509 182 L 504 182 L 506.5 175 z M 357 176 L 354 184 L 354 185 L 357 185 L 357 189 L 358 189 L 358 185 L 361 185 L 361 184 L 358 176 L 357 176 z M 324 177 L 321 185 L 321 186 L 324 186 L 324 190 L 325 190 L 325 186 L 328 186 L 328 185 L 325 177 L 324 177 z M 357.5 177 L 360 184 L 355 184 L 357.5 177 z M 444 177 L 441 185 L 441 186 L 444 186 L 444 190 L 445 190 L 445 186 L 448 186 L 448 185 L 445 177 L 444 177 z M 324.5 178 L 327 185 L 322 185 L 324.5 178 z M 444.5 178 L 447 185 L 442 185 L 444.5 178 z M 255 183 L 252 191 L 252 192 L 255 192 L 255 196 L 256 196 L 256 192 L 259 192 L 259 191 L 256 183 L 255 183 z M 42 184 L 39 192 L 39 193 L 42 193 L 42 197 L 43 197 L 43 193 L 46 193 L 46 192 L 43 184 L 42 184 z M 129 184 L 126 192 L 126 193 L 129 193 L 129 197 L 130 197 L 130 193 L 133 193 L 133 192 L 130 184 L 129 184 z M 255.5 184 L 258 191 L 253 191 L 255.5 184 z M 42.5 185 L 45 192 L 40 192 L 42.5 185 z M 129.5 185 L 132 192 L 127 192 L 129.5 185 z M 387 185 L 384 193 L 384 194 L 387 194 L 387 198 L 388 198 L 388 194 L 391 194 L 391 193 L 388 185 L 387 185 z M 387.5 186 L 390 193 L 385 193 L 387.5 186 z M 470 188 L 467 196 L 467 197 L 470 197 L 470 201 L 471 201 L 471 197 L 474 197 L 474 196 L 471 188 L 470 188 z M 192 189 L 189 197 L 189 198 L 192 198 L 192 202 L 193 202 L 193 198 L 196 198 L 196 197 L 193 189 L 192 189 z M 281 189 L 278 197 L 278 198 L 281 198 L 281 202 L 282 202 L 282 198 L 285 198 L 285 197 L 282 189 L 281 189 z M 470.5 189 L 473 196 L 468 196 L 470.5 189 z M 99 190 L 96 198 L 96 199 L 99 199 L 99 203 L 100 203 L 100 199 L 103 199 L 103 198 L 100 190 L 99 190 z M 192.5 190 L 195 197 L 190 197 L 192.5 190 z M 281.5 190 L 284 197 L 279 197 L 281.5 190 z M 99.5 191 L 102 198 L 97 198 L 99.5 191 z M 419 193 L 416 201 L 416 202 L 419 202 L 419 206 L 420 206 L 420 202 L 423 202 L 423 201 L 420 193 L 419 193 z M 217 194 L 214 202 L 214 203 L 217 203 L 217 207 L 218 207 L 218 203 L 221 203 L 221 202 L 218 194 L 217 194 z M 419.5 194 L 422 201 L 417 201 L 419.5 194 z M 217.5 195 L 220 202 L 215 202 L 217.5 195 z M 309 197 L 306 205 L 306 206 L 309 206 L 309 210 L 310 210 L 310 206 L 313 206 L 313 205 L 310 197 L 309 197 z M 309.5 198 L 312 205 L 307 205 L 309.5 198 z M 15 199 L 12 207 L 12 208 L 15 208 L 15 212 L 16 212 L 16 208 L 19 208 L 19 207 L 16 199 L 15 199 z M 15.5 200 L 18 207 L 13 207 L 15.5 200 z M 162 201 L 159 209 L 159 210 L 162 210 L 162 214 L 163 214 L 163 210 L 166 210 L 166 209 L 163 201 L 162 201 z M 162.5 202 L 165 209 L 160 209 L 162.5 202 z M 343 203 L 340 211 L 340 212 L 343 212 L 343 216 L 344 216 L 344 212 L 347 212 L 347 211 L 344 203 L 343 203 z M 69 204 L 66 212 L 66 213 L 69 213 L 69 217 L 70 217 L 70 213 L 73 213 L 73 212 L 70 204 L 69 204 z M 343.5 204 L 346 211 L 341 211 L 343.5 204 z M 493 204 L 490 212 L 490 213 L 493 213 L 493 217 L 494 217 L 494 213 L 497 213 L 497 212 L 494 204 L 493 204 z M 69.5 205 L 72 212 L 67 212 L 69.5 205 z M 493.5 205 L 496 212 L 491 212 L 493.5 205 z M 252 211 L 249 219 L 249 220 L 252 220 L 252 224 L 253 224 L 253 220 L 256 220 L 256 219 L 253 211 L 252 211 z M 252.5 212 L 255 219 L 250 219 L 252.5 212 z M 371 213 L 368 221 L 368 222 L 371 222 L 371 226 L 372 226 L 372 222 L 375 222 L 375 221 L 372 213 L 371 213 z M 371.5 214 L 374 221 L 369 221 L 371.5 214 z M 113 215 L 110 223 L 110 224 L 113 224 L 113 228 L 114 228 L 114 224 L 117 224 L 117 223 L 114 215 L 113 215 z M 113.5 216 L 116 223 L 111 223 L 113.5 216 z M 405 218 L 402 226 L 402 227 L 405 227 L 405 231 L 406 231 L 406 227 L 409 227 L 409 226 L 406 218 L 405 218 z M 442 218 L 439 226 L 439 227 L 442 227 L 442 231 L 443 231 L 443 227 L 446 227 L 446 226 L 443 218 L 442 218 z M 137 219 L 134 227 L 134 228 L 137 228 L 137 232 L 138 232 L 138 228 L 141 228 L 141 227 L 138 219 L 137 219 z M 405.5 219 L 408 226 L 403 226 L 405.5 219 z M 442.5 219 L 445 226 L 440 226 L 442.5 219 z M 137.5 220 L 140 227 L 135 227 L 137.5 220 z M 312 221 L 309 229 L 309 230 L 312 230 L 312 234 L 313 234 L 313 230 L 316 230 L 316 229 L 313 221 L 312 221 z M 43 222 L 40 230 L 40 231 L 43 231 L 43 235 L 44 235 L 44 231 L 47 231 L 47 230 L 44 222 L 43 222 z M 194 222 L 191 230 L 191 231 L 194 231 L 194 235 L 195 235 L 195 231 L 198 231 L 198 230 L 195 222 L 194 222 z M 226 222 L 223 230 L 223 231 L 226 231 L 226 235 L 227 235 L 227 231 L 230 231 L 230 230 L 227 222 L 226 222 z M 312.5 222 L 315 229 L 310 229 L 312.5 222 z M 43.5 223 L 46 230 L 41 230 L 43.5 223 z M 194.5 223 L 197 230 L 192 230 L 194.5 223 z M 226.5 223 L 229 230 L 224 230 L 226.5 223 z M 468 224 L 465 232 L 465 233 L 468 233 L 468 237 L 469 237 L 469 233 L 472 233 L 472 232 L 469 224 L 468 224 z M 281 225 L 278 233 L 278 234 L 281 234 L 281 238 L 282 238 L 282 234 L 285 234 L 285 233 L 282 225 L 281 225 z M 468.5 225 L 471 232 L 466 232 L 468.5 225 z M 14 226 L 11 234 L 11 235 L 14 235 L 14 239 L 15 239 L 15 235 L 18 235 L 18 234 L 15 226 L 14 226 z M 281.5 226 L 284 233 L 279 233 L 281.5 226 z M 14.5 227 L 17 234 L 12 234 L 14.5 227 z M 84 229 L 81 237 L 81 238 L 84 238 L 84 242 L 85 242 L 85 238 L 88 238 L 88 237 L 85 229 L 84 229 z M 84.5 230 L 87 237 L 82 237 L 84.5 230 z M 165 231 L 162 239 L 162 240 L 165 240 L 165 244 L 166 244 L 166 240 L 169 240 L 169 239 L 166 231 L 165 231 z M 165.5 232 L 168 239 L 163 239 L 165.5 232 z M 502 234 L 499 242 L 499 243 L 502 243 L 502 247 L 503 247 L 503 243 L 506 243 L 506 242 L 503 234 L 502 234 z M 502.5 235 L 505 242 L 500 242 L 502.5 235 z M 343 238 L 340 246 L 340 247 L 343 247 L 343 251 L 344 251 L 344 247 L 347 247 L 347 246 L 344 238 L 343 238 z M 374 238 L 371 246 L 371 247 L 374 247 L 374 251 L 375 251 L 375 247 L 378 247 L 378 246 L 375 238 L 374 238 z M 343.5 239 L 346 246 L 341 246 L 343.5 239 z M 374.5 239 L 377 246 L 372 246 L 374.5 239 z M 433 240 L 430 248 L 430 249 L 433 249 L 433 253 L 434 253 L 434 249 L 437 249 L 437 248 L 434 240 L 433 240 z M 433.5 241 L 436 248 L 431 248 L 433.5 241 z M 62 244 L 59 252 L 59 253 L 62 253 L 62 257 L 63 257 L 63 253 L 66 253 L 66 252 L 63 244 L 62 244 z M 312 244 L 309 252 L 309 253 L 312 253 L 312 257 L 313 257 L 313 253 L 316 253 L 316 252 L 313 244 L 312 244 z M 62.5 245 L 65 252 L 60 252 L 62.5 245 z M 312.5 245 L 315 252 L 310 252 L 312.5 245 z M 404 246 L 401 254 L 401 255 L 404 255 L 404 259 L 405 259 L 405 255 L 408 255 L 408 254 L 405 246 L 404 246 z M 117 247 L 114 255 L 114 256 L 117 256 L 117 260 L 118 260 L 118 256 L 121 256 L 121 255 L 118 247 L 117 247 z M 253 247 L 250 255 L 250 256 L 253 256 L 253 260 L 254 260 L 254 256 L 257 256 L 257 255 L 254 247 L 253 247 z M 404.5 247 L 407 254 L 402 254 L 404.5 247 z M 117.5 248 L 120 255 L 115 255 L 117.5 248 z M 253.5 248 L 256 255 L 251 255 L 253.5 248 z M 202 250 L 199 258 L 199 259 L 202 259 L 202 263 L 203 263 L 203 259 L 206 259 L 206 258 L 203 250 L 202 250 z M 202.5 251 L 205 258 L 200 258 L 202.5 251 z M 460 251 L 457 259 L 457 260 L 460 260 L 460 264 L 461 264 L 461 260 L 464 260 L 464 259 L 461 251 L 460 251 z M 460.5 252 L 463 259 L 458 259 L 460.5 252 z M 37 257 L 34 265 L 34 266 L 37 266 L 37 270 L 38 270 L 38 266 L 41 266 L 41 265 L 38 257 L 37 257 z M 141 257 L 138 265 L 138 266 L 141 266 L 141 270 L 142 270 L 142 266 L 145 266 L 145 265 L 142 257 L 141 257 z M 226 257 L 223 265 L 223 266 L 226 266 L 226 270 L 227 270 L 227 266 L 230 266 L 230 265 L 227 257 L 226 257 z M 37.5 258 L 40 265 L 35 265 L 37.5 258 z M 141.5 258 L 144 265 L 139 265 L 141.5 258 z M 226.5 258 L 229 265 L 224 265 L 226.5 258 z M 290 258 L 287 266 L 287 267 L 290 267 L 290 271 L 291 271 L 291 267 L 294 267 L 294 266 L 291 258 L 290 258 z M 290.5 259 L 293 266 L 288 266 L 290.5 259 z M 8 262 L 5 270 L 5 271 L 8 271 L 8 275 L 9 275 L 9 271 L 12 271 L 12 270 L 9 262 L 8 262 z M 8.5 263 L 11 270 L 6 270 L 8.5 263 z M 178 263 L 175 271 L 175 272 L 178 272 L 178 276 L 179 276 L 179 272 L 182 272 L 182 271 L 179 263 L 178 263 z M 90 264 L 87 272 L 87 273 L 90 273 L 90 277 L 91 277 L 91 273 L 94 273 L 94 272 L 91 264 L 90 264 z M 178.5 264 L 181 271 L 176 271 L 178.5 264 z M 360 264 L 357 272 L 357 273 L 360 273 L 360 277 L 361 277 L 361 273 L 364 273 L 364 272 L 361 264 L 360 264 z M 90.5 265 L 93 272 L 88 272 L 90.5 265 z M 360.5 265 L 363 272 L 358 272 L 360.5 265 z M 488 266 L 485 274 L 485 275 L 488 275 L 488 279 L 489 279 L 489 275 L 492 275 L 492 274 L 489 266 L 488 266 z M 488.5 267 L 491 274 L 486 274 L 488.5 267 z M 324 272 L 321 280 L 321 281 L 324 281 L 324 285 L 325 285 L 325 281 L 328 281 L 328 280 L 325 272 L 324 272 z M 324.5 273 L 327 280 L 322 280 L 324.5 273 z M 261 275 L 258 283 L 258 284 L 261 284 L 261 288 L 262 288 L 262 284 L 265 284 L 265 283 L 262 275 L 261 275 z M 417 275 L 414 283 L 414 284 L 417 284 L 417 288 L 418 288 L 418 284 L 421 284 L 421 283 L 418 275 L 417 275 z M 261.5 276 L 264 283 L 259 283 L 261.5 276 z M 417.5 276 L 420 283 L 415 283 L 417.5 276 z M 116 279 L 113 287 L 113 288 L 116 288 L 116 292 L 117 292 L 117 288 L 120 288 L 120 287 L 117 279 L 116 279 z M 116.5 280 L 119 287 L 114 287 L 116.5 280 z M 387 280 L 384 288 L 384 289 L 387 289 L 387 293 L 388 293 L 388 289 L 391 289 L 391 288 L 388 280 L 387 280 z M 150 281 L 147 289 L 147 290 L 150 290 L 150 294 L 151 294 L 151 290 L 154 290 L 154 289 L 151 281 L 150 281 z M 387.5 281 L 390 288 L 385 288 L 387.5 281 z M 63 282 L 60 290 L 60 291 L 63 291 L 63 295 L 64 295 L 64 291 L 67 291 L 67 290 L 64 282 L 63 282 z M 150.5 282 L 153 289 L 148 289 L 150.5 282 z M 446 282 L 443 290 L 443 291 L 446 291 L 446 295 L 447 295 L 447 291 L 450 291 L 450 290 L 447 282 L 446 282 z M 63.5 283 L 66 290 L 61 290 L 63.5 283 z M 446.5 283 L 449 290 L 444 290 L 446.5 283 z M 201 284 L 198 292 L 198 293 L 201 293 L 201 297 L 202 297 L 202 293 L 205 293 L 205 292 L 202 284 L 201 284 z M 201.5 285 L 204 292 L 199 292 L 201.5 285 z M 238 285 L 235 293 L 235 294 L 238 294 L 238 298 L 239 298 L 239 294 L 242 294 L 242 293 L 239 285 L 238 285 z M 238.5 286 L 241 293 L 236 293 L 238.5 286 z M 31 287 L 28 295 L 28 296 L 31 296 L 31 300 L 32 300 L 32 296 L 35 296 L 35 295 L 32 287 L 31 287 z M 476 287 L 473 295 L 473 296 L 476 296 L 476 300 L 477 300 L 477 296 L 480 296 L 480 295 L 477 287 L 476 287 z M 31.5 288 L 34 295 L 29 295 L 31.5 288 z M 476.5 288 L 479 295 L 474 295 L 476.5 288 z M 0 289 L 0 291.40039 L 0.5 290 L 3 297 L 0 297 L 0 298 L 0 302 L 1 302 L 1 298 L 4 298 L 4 297 L 1 289 L 0 289 z M 357 289 L 354 297 L 354 298 L 357 298 L 357 302 L 358 302 L 358 298 L 361 298 L 361 297 L 358 289 L 357 289 z M 512 289 L 509 297 L 509 298 L 512 298 L 512 297 L 510 297 L 512 291.40039 L 512 289 z M 357.5 290 L 360 297 L 355 297 L 357.5 290 z M 285 295 L 282 303 L 282 304 L 285 304 L 285 308 L 286 308 L 286 304 L 289 304 L 289 303 L 286 295 L 285 295 z M 285.5 296 L 288 303 L 283 303 L 285.5 296 z M 88 297 L 85 305 L 85 306 L 88 306 L 88 310 L 89 310 L 89 306 L 92 306 L 92 305 L 89 297 L 88 297 z M 88.5 298 L 91 305 L 86 305 L 88.5 298 z M 175 298 L 172 306 L 172 307 L 175 307 L 175 311 L 176 311 L 176 307 L 179 307 L 179 306 L 176 298 L 175 298 z M 175.5 299 L 178 306 L 173 306 L 175.5 299 z M 308 301 L 305 309 L 305 310 L 308 310 L 308 314 L 309 314 L 309 310 L 312 310 L 312 309 L 309 301 L 308 301 z M 308.5 302 L 311 309 L 306 309 L 308.5 302 z M 335 304 L 332 312 L 332 313 L 335 313 L 335 317 L 336 317 L 336 313 L 339 313 L 339 312 L 336 304 L 335 304 z M 335.5 305 L 338 312 L 333 312 L 335.5 305 z M 426 305 L 423 313 L 423 314 L 426 314 L 426 318 L 427 318 L 427 314 L 430 314 L 430 313 L 427 305 L 426 305 z M 426.5 306 L 429 313 L 424 313 L 426.5 306 z M 142 310 L 139 318 L 139 319 L 142 319 L 142 323 L 143 323 L 143 319 L 146 319 L 146 318 L 143 310 L 142 310 z M 223 310 L 220 318 L 220 319 L 223 319 L 223 323 L 224 323 L 224 319 L 227 319 L 227 318 L 224 310 L 223 310 z M 260 310 L 257 318 L 257 319 L 260 319 L 260 323 L 261 323 L 261 319 L 264 319 L 264 318 L 261 310 L 260 310 z M 399 310 L 396 318 L 396 319 L 399 319 L 399 323 L 400 323 L 400 319 L 403 319 L 403 318 L 400 310 L 399 310 z M 112 311 L 109 319 L 109 320 L 112 320 L 112 324 L 113 324 L 113 320 L 116 320 L 116 319 L 113 311 L 112 311 z M 142.5 311 L 145 318 L 140 318 L 142.5 311 z M 223.5 311 L 226 318 L 221 318 L 223.5 311 z M 260.5 311 L 263 318 L 258 318 L 260.5 311 z M 399.5 311 L 402 318 L 397 318 L 399.5 311 z M 48 312 L 45 320 L 45 321 L 48 321 L 48 325 L 49 325 L 49 321 L 52 321 L 52 320 L 49 312 L 48 312 z M 112.5 312 L 115 319 L 110 319 L 112.5 312 z M 48.5 313 L 51 320 L 46 320 L 48.5 313 z M 495 313 L 492 321 L 492 322 L 495 322 L 495 326 L 496 326 L 496 322 L 499 322 L 499 321 L 496 313 L 495 313 z M 463 314 L 460 322 L 460 323 L 463 323 L 463 327 L 464 327 L 464 323 L 467 323 L 467 322 L 464 314 L 463 314 z M 495.5 314 L 498 321 L 493 321 L 495.5 314 z M 463.5 315 L 466 322 L 461 322 L 463.5 315 z M 201 316 L 198 324 L 198 325 L 201 325 L 201 329 L 202 329 L 202 325 L 205 325 L 205 324 L 202 316 L 201 316 z M 16 317 L 13 325 L 13 326 L 16 326 L 16 330 L 17 330 L 17 326 L 20 326 L 20 325 L 17 317 L 16 317 z M 201.5 317 L 204 324 L 199 324 L 201.5 317 z M 369 317 L 366 325 L 366 326 L 369 326 L 369 330 L 370 330 L 370 326 L 373 326 L 373 325 L 370 317 L 369 317 z M 16.5 318 L 19 325 L 14 325 L 16.5 318 z M 369.5 318 L 372 325 L 367 325 L 369.5 318 z M 79 330 L 76 338 L 76 339 L 79 339 L 79 343 L 80 343 L 80 339 L 83 339 L 83 338 L 80 330 L 79 330 z M 79.5 331 L 82 338 L 77 338 L 79.5 331 z M 176 332 L 173 340 L 173 341 L 176 341 L 176 345 L 177 345 L 177 341 L 180 341 L 180 340 L 177 332 L 176 332 z M 176.5 333 L 179 340 L 174 340 L 176.5 333 z M 282 334 L 279 342 L 279 343 L 282 343 L 282 347 L 283 347 L 283 343 L 286 343 L 286 342 L 283 334 L 282 334 z M 311 334 L 308 342 L 308 343 L 311 343 L 311 347 L 312 347 L 312 343 L 315 343 L 315 342 L 312 334 L 311 334 z M 282.5 335 L 285 342 L 280 342 L 282.5 335 z M 311.5 335 L 314 342 L 309 342 L 311.5 335 z M 341 335 L 338 343 L 338 344 L 341 344 L 341 348 L 342 348 L 342 344 L 345 344 L 345 343 L 342 335 L 341 335 z M 237 336 L 234 344 L 234 345 L 237 345 L 237 349 L 238 349 L 238 345 L 241 345 L 241 344 L 238 336 L 237 336 z M 341.5 336 L 344 343 L 339 343 L 341.5 336 z M 435 336 L 432 344 L 432 345 L 435 345 L 435 349 L 436 349 L 436 345 L 439 345 L 439 344 L 436 336 L 435 336 z M 128 337 L 125 345 L 125 346 L 128 346 L 128 350 L 129 350 L 129 346 L 132 346 L 132 345 L 129 337 L 128 337 z M 237.5 337 L 240 344 L 235 344 L 237.5 337 z M 435.5 337 L 438 344 L 433 344 L 435.5 337 z M 41 338 L 38 346 L 38 347 L 41 347 L 41 351 L 42 351 L 42 347 L 45 347 L 45 346 L 42 338 L 41 338 z M 128.5 338 L 131 345 L 126 345 L 128.5 338 z M 499 338 L 496 346 L 496 347 L 499 347 L 499 351 L 500 351 L 500 347 L 503 347 L 503 346 L 500 338 L 499 338 z M 41.5 339 L 44 346 L 39 346 L 41.5 339 z M 405 339 L 402 347 L 402 348 L 405 348 L 405 352 L 406 352 L 406 348 L 409 348 L 409 347 L 406 339 L 405 339 z M 499.5 339 L 502 346 L 497 346 L 499.5 339 z M 405.5 340 L 408 347 L 403 347 L 405.5 340 z M 105 342 L 102 350 L 102 351 L 105 351 L 105 355 L 106 355 L 106 351 L 109 351 L 109 350 L 106 342 L 105 342 z M 105.5 343 L 108 350 L 103 350 L 105.5 343 z M 469 343 L 466 351 L 466 352 L 469 352 L 469 356 L 470 356 L 470 352 L 473 352 L 473 351 L 470 343 L 469 343 z M 375 344 L 372 352 L 372 353 L 375 353 L 375 357 L 376 357 L 376 353 L 379 353 L 379 352 L 376 344 L 375 344 z M 469.5 344 L 472 351 L 467 351 L 469.5 344 z M 151 345 L 148 353 L 148 354 L 151 354 L 151 358 L 152 358 L 152 354 L 155 354 L 155 353 L 152 345 L 151 345 z M 375.5 345 L 378 352 L 373 352 L 375.5 345 z M 151.5 346 L 154 353 L 149 353 L 151.5 346 z M 258 346 L 255 354 L 255 355 L 258 355 L 258 359 L 259 359 L 259 355 L 262 355 L 262 354 L 259 346 L 258 346 z M 209 347 L 206 355 L 206 356 L 209 356 L 209 360 L 210 360 L 210 356 L 213 356 L 213 355 L 210 347 L 209 347 z M 258.5 347 L 261 354 L 256 354 L 258.5 347 z M 209.5 348 L 212 355 L 207 355 L 209.5 348 z M 18 350 L 15 358 L 15 359 L 18 359 L 18 363 L 19 363 L 19 359 L 22 359 L 22 358 L 19 350 L 18 350 z M 18.5 351 L 21 358 L 16 358 L 18.5 351 z M 67 357 L 64 365 L 64 366 L 67 366 L 67 370 L 68 370 L 68 366 L 71 366 L 71 365 L 68 357 L 67 357 z M 67.5 358 L 70 365 L 65 365 L 67.5 358 z M 282 360 L 279 368 L 279 369 L 282 369 L 282 373 L 283 373 L 283 369 L 286 369 L 286 368 L 283 360 L 282 360 z M 282.5 361 L 285 368 L 280 368 L 282.5 361 z M 178 362 L 175 370 L 175 371 L 178 371 L 178 375 L 179 375 L 179 371 L 182 371 L 182 370 L 179 362 L 178 362 z M 178.5 363 L 181 370 L 176 370 L 178.5 363 z M 319 364 L 316 372 L 316 373 L 319 373 L 319 377 L 320 377 L 320 373 L 323 373 L 323 372 L 320 364 L 319 364 z M 319.5 365 L 322 372 L 317 372 L 319.5 365 z M 441 365 L 438 373 L 438 374 L 441 374 L 441 378 L 442 378 L 442 374 L 445 374 L 445 373 L 442 365 L 441 365 z M 441.5 366 L 444 373 L 439 373 L 441.5 366 z M 347 367 L 344 375 L 344 376 L 347 376 L 347 380 L 348 380 L 348 376 L 351 376 L 351 375 L 348 367 L 347 367 z M 347.5 368 L 350 375 L 345 375 L 347.5 368 z M 411 369 L 408 377 L 408 378 L 411 378 L 411 382 L 412 382 L 412 378 L 415 378 L 415 377 L 412 369 L 411 369 z M 411.5 370 L 414 377 L 409 377 L 411.5 370 z M 491 370 L 488 378 L 488 379 L 491 379 L 491 383 L 492 383 L 492 379 L 495 379 L 495 378 L 492 370 L 491 370 z M 491.5 371 L 494 378 L 489 378 L 491.5 371 z M 231 372 L 228 380 L 228 381 L 231 381 L 231 385 L 232 385 L 232 381 L 235 381 L 235 380 L 232 372 L 231 372 z M 382 372 L 379 380 L 379 381 L 382 381 L 382 385 L 383 385 L 383 381 L 386 381 L 386 380 L 383 372 L 382 372 z M 95 373 L 92 381 L 92 382 L 95 382 L 95 386 L 96 386 L 96 382 L 99 382 L 99 381 L 96 373 L 95 373 z M 127 373 L 124 381 L 124 382 L 127 382 L 127 386 L 128 386 L 128 382 L 131 382 L 131 381 L 128 373 L 127 373 z M 231.5 373 L 234 380 L 229 380 L 231.5 373 z M 382.5 373 L 385 380 L 380 380 L 382.5 373 z M 95.5 374 L 98 381 L 93 381 L 95.5 374 z M 127.5 374 L 130 381 L 125 381 L 127.5 374 z M 39 375 L 36 383 L 36 384 L 39 384 L 39 388 L 40 388 L 40 384 L 43 384 L 43 383 L 40 375 L 39 375 z M 39.5 376 L 42 383 L 37 383 L 39.5 376 z M 7 378 L 4 386 L 4 387 L 7 387 L 7 391 L 8 391 L 8 387 L 11 387 L 11 386 L 8 378 L 7 378 z M 463 378 L 460 386 L 460 387 L 463 387 L 463 391 L 464 391 L 464 387 L 467 387 L 467 386 L 464 378 L 463 378 z M 7.5 379 L 10 386 L 5 386 L 7.5 379 z M 293 379 L 290 387 L 290 388 L 293 388 L 293 392 L 294 392 L 294 388 L 297 388 L 297 387 L 294 379 L 293 379 z M 463.5 379 L 466 386 L 461 386 L 463.5 379 z M 293.5 380 L 296 387 L 291 387 L 293.5 380 z M 156 381 L 153 389 L 153 390 L 156 390 L 156 394 L 157 394 L 157 390 L 160 390 L 160 389 L 157 381 L 156 381 z M 207 381 L 204 389 L 204 390 L 207 390 L 207 394 L 208 394 L 208 390 L 211 390 L 211 389 L 208 381 L 207 381 z M 156.5 382 L 159 389 L 154 389 L 156.5 382 z M 207.5 382 L 210 389 L 205 389 L 207.5 382 z M 66 392 L 63 400 L 63 401 L 66 401 L 66 405 L 67 405 L 67 401 L 70 401 L 70 400 L 67 392 L 66 392 z M 66.5 393 L 69 400 L 64 400 L 66.5 393 z M 370 394 L 367 402 L 367 403 L 370 403 L 370 407 L 371 407 L 371 403 L 374 403 L 374 402 L 371 394 L 370 394 z M 247 395 L 244 403 L 244 404 L 247 404 L 247 408 L 248 408 L 248 404 L 251 404 L 251 403 L 248 395 L 247 395 z M 370.5 395 L 373 402 L 368 402 L 370.5 395 z M 183 396 L 180 404 L 180 405 L 183 405 L 183 409 L 184 409 L 184 405 L 187 405 L 187 404 L 184 396 L 183 396 z M 247.5 396 L 250 403 L 245 403 L 247.5 396 z M 338 396 L 335 404 L 335 405 L 338 405 L 338 409 L 339 409 L 339 405 L 342 405 L 342 404 L 339 396 L 338 396 z M 183.5 397 L 186 404 L 181 404 L 183.5 397 z M 338.5 397 L 341 404 L 336 404 L 338.5 397 z M 308 398 L 305 406 L 305 407 L 308 407 L 308 411 L 309 411 L 309 407 L 312 407 L 312 406 L 309 398 L 308 398 z M 434 398 L 431 406 L 431 407 L 434 407 L 434 411 L 435 411 L 435 407 L 438 407 L 438 406 L 435 398 L 434 398 z M 308.5 399 L 311 406 L 306 406 L 308.5 399 z M 434.5 399 L 437 406 L 432 406 L 434.5 399 z M 119 400 L 116 408 L 116 409 L 119 409 L 119 413 L 120 413 L 120 409 L 123 409 L 123 408 L 120 400 L 119 400 z M 35 401 L 32 409 L 32 410 L 35 410 L 35 414 L 36 414 L 36 410 L 39 410 L 39 409 L 36 401 L 35 401 z M 119.5 401 L 122 408 L 117 408 L 119.5 401 z M 35.5 402 L 38 409 L 33 409 L 35.5 402 z M 402 402 L 399 410 L 399 411 L 402 411 L 402 415 L 403 415 L 403 411 L 406 411 L 406 410 L 403 402 L 402 402 z M 493 402 L 490 410 L 490 411 L 493 411 L 493 415 L 494 415 L 494 411 L 497 411 L 497 410 L 494 402 L 493 402 z M 402.5 403 L 405 410 L 400 410 L 402.5 403 z M 493.5 403 L 496 410 L 491 410 L 493.5 403 z M 88 404 L 85 412 L 85 413 L 88 413 L 88 417 L 89 417 L 89 413 L 92 413 L 92 412 L 89 404 L 88 404 z M 273 404 L 270 412 L 270 413 L 273 413 L 273 417 L 274 417 L 274 413 L 277 413 L 277 412 L 274 404 L 273 404 z M 88.5 405 L 91 412 L 86 412 L 88.5 405 z M 273.5 405 L 276 412 L 271 412 L 273.5 405 z M 463 407 L 460 415 L 460 416 L 463 416 L 463 420 L 464 420 L 464 416 L 467 416 L 467 415 L 464 407 L 463 407 z M 463.5 408 L 466 415 L 461 415 L 463.5 408 z M 150 409 L 147 417 L 147 418 L 150 418 L 150 422 L 151 422 L 151 418 L 154 418 L 154 417 L 151 409 L 150 409 z M 150.5 410 L 153 417 L 148 417 L 150.5 410 z M 221 410 L 218 418 L 218 419 L 221 419 L 221 423 L 222 423 L 222 419 L 225 419 L 225 418 L 222 410 L 221 410 z M 221.5 411 L 224 418 L 219 418 L 221.5 411 z M 7 413 L 4 421 L 4 422 L 7 422 L 7 426 L 8 426 L 8 422 L 11 422 L 11 421 L 8 413 L 7 413 z M 7.5 414 L 10 421 L 5 421 L 7.5 414 z M 188 420 L 185 428 L 185 429 L 188 429 L 188 433 L 189 433 L 189 429 L 192 429 L 192 428 L 189 420 L 188 420 z M 188.5 421 L 191 428 L 186 428 L 188.5 421 z M 343 423 L 340 431 L 340 432 L 343 432 L 343 436 L 344 436 L 344 432 L 347 432 L 347 431 L 344 423 L 343 423 z M 343.5 424 L 346 431 L 341 431 L 343.5 424 z M 376 425 L 373 433 L 373 434 L 376 434 L 376 438 L 377 438 L 377 434 L 380 434 L 380 433 L 377 425 L 376 425 z M 376.5 426 L 379 433 L 374 433 L 376.5 426 z M 103 427 L 100 435 L 100 436 L 103 436 L 103 440 L 104 440 L 104 436 L 107 436 L 107 435 L 104 427 L 103 427 z M 283 427 L 280 435 L 280 436 L 283 436 L 283 440 L 284 440 L 284 436 L 287 436 L 287 435 L 284 427 L 283 427 z M 103.5 428 L 106 435 L 101 435 L 103.5 428 z M 252 428 L 249 436 L 249 437 L 252 437 L 252 441 L 253 441 L 253 437 L 256 437 L 256 436 L 253 428 L 252 428 z M 283.5 428 L 286 435 L 281 435 L 283.5 428 z M 252.5 429 L 255 436 L 250 436 L 252.5 429 z M 316 429 L 313 437 L 313 438 L 316 438 L 316 442 L 317 442 L 317 438 L 320 438 L 320 437 L 317 429 L 316 429 z M 435 429 L 432 437 L 432 438 L 435 438 L 435 442 L 436 442 L 436 438 L 439 438 L 439 437 L 436 429 L 435 429 z M 74 430 L 71 438 L 71 439 L 74 439 L 74 443 L 75 443 L 75 439 L 78 439 L 78 438 L 75 430 L 74 430 z M 316.5 430 L 319 437 L 314 437 L 316.5 430 z M 435.5 430 L 438 437 L 433 437 L 435.5 430 z M 74.5 431 L 77 438 L 72 438 L 74.5 431 z M 407 431 L 404 439 L 404 440 L 407 440 L 407 444 L 408 444 L 408 440 L 411 440 L 411 439 L 408 431 L 407 431 z M 41 432 L 38 440 L 38 441 L 41 441 L 41 445 L 42 445 L 42 441 L 45 441 L 45 440 L 42 432 L 41 432 z M 407.5 432 L 410 439 L 405 439 L 407.5 432 z M 41.5 433 L 44 440 L 39 440 L 41.5 433 z M 492 434 L 489 442 L 489 443 L 492 443 L 492 447 L 493 447 L 493 443 L 496 443 L 496 442 L 493 434 L 492 434 z M 492.5 435 L 495 442 L 490 442 L 492.5 435 z M 134 437 L 131 445 L 131 446 L 134 446 L 134 450 L 135 450 L 135 446 L 138 446 L 138 445 L 135 437 L 134 437 z M 134.5 438 L 137 445 L 132 445 L 134.5 438 z M 213 439 L 210 447 L 210 448 L 213 448 L 213 452 L 214 452 L 214 448 L 217 448 L 217 447 L 214 439 L 213 439 z M 213.5 440 L 216 447 L 211 447 L 213.5 440 z M 11 441 L 8 449 L 8 450 L 11 450 L 11 454 L 12 454 L 12 450 L 15 450 L 15 449 L 12 441 L 11 441 z M 11.5 442 L 14 449 L 9 449 L 11.5 442 z M 166 442 L 163 450 L 163 451 L 166 451 L 166 455 L 167 455 L 167 451 L 170 451 L 170 450 L 167 442 L 166 442 z M 462 442 L 459 450 L 459 451 L 462 451 L 462 455 L 463 455 L 463 451 L 466 451 L 466 450 L 463 442 L 462 442 z M 166.5 443 L 169 450 L 164 450 L 166.5 443 z M 462.5 443 L 465 450 L 460 450 L 462.5 443 z M 399 451 L 396 459 L 396 460 L 399 460 L 399 464 L 400 464 L 400 460 L 403 460 L 403 459 L 400 451 L 399 451 z M 399.5 452 L 402 459 L 397 459 L 399.5 452 z M 275 453 L 272 461 L 272 462 L 275 462 L 275 466 L 276 466 L 276 462 L 279 462 L 279 461 L 276 453 L 275 453 z M 275.5 454 L 278 461 L 273 461 L 275.5 454 z M 339 454 L 336 462 L 336 463 L 339 463 L 339 467 L 340 467 L 340 463 L 343 463 L 343 462 L 340 454 L 339 454 z M 70 455 L 67 463 L 67 464 L 70 464 L 70 468 L 71 468 L 71 464 L 74 464 L 74 463 L 71 455 L 70 455 z M 339.5 455 L 342 462 L 337 462 L 339.5 455 z M 70.5 456 L 73 463 L 68 463 L 70.5 456 z M 368 456 L 365 464 L 365 465 L 368 465 L 368 469 L 369 469 L 369 465 L 372 465 L 372 464 L 369 456 L 368 456 z M 368.5 457 L 371 464 L 366 464 L 368.5 457 z M 122 458 L 119 466 L 119 467 L 122 467 L 122 471 L 123 471 L 123 467 L 126 467 L 126 466 L 123 458 L 122 458 z M 122.5 459 L 125 466 L 120 466 L 122.5 459 z M 191 459 L 188 467 L 188 468 L 191 468 L 191 472 L 192 472 L 192 468 L 195 468 L 195 467 L 192 459 L 191 459 z M 240 459 L 237 467 L 237 468 L 240 468 L 240 472 L 241 472 L 241 468 L 244 468 L 244 467 L 241 459 L 240 459 z M 191.5 460 L 194 467 L 189 467 L 191.5 460 z M 240.5 460 L 243 467 L 238 467 L 240.5 460 z M 49 461 L 46 469 L 46 470 L 49 470 L 49 474 L 50 474 L 50 470 L 53 470 L 53 469 L 50 461 L 49 461 z M 49.5 462 L 52 469 L 47 469 L 49.5 462 z M 304 464 L 301 472 L 301 473 L 304 473 L 304 477 L 305 477 L 305 473 L 308 473 L 308 472 L 305 464 L 304 464 z M 304.5 465 L 307 472 L 302 472 L 304.5 465 z M 438 465 L 435 473 L 435 474 L 438 474 L 438 478 L 439 478 L 439 474 L 442 474 L 442 473 L 439 465 L 438 465 z M 500 465 L 497 473 L 497 474 L 500 474 L 500 478 L 501 478 L 501 474 L 504 474 L 504 473 L 501 465 L 500 465 z M 438.5 466 L 441 473 L 436 473 L 438.5 466 z M 500.5 466 L 503 473 L 498 473 L 500.5 466 z M 153 468 L 150 476 L 150 477 L 153 477 L 153 481 L 154 481 L 154 477 L 157 477 L 157 476 L 154 468 L 153 468 z M 153.5 469 L 156 476 L 151 476 L 153.5 469 z M 94 470 L 91 478 L 91 479 L 94 479 L 94 483 L 95 483 L 95 479 L 98 479 L 98 478 L 95 470 L 94 470 z M 94.5 471 L 97 478 L 92 478 L 94.5 471 z M 472 471 L 469 479 L 469 480 L 472 480 L 472 484 L 473 484 L 473 480 L 476 480 L 476 479 L 473 471 L 472 471 z M 409 472 L 406 480 L 406 481 L 409 481 L 409 485 L 410 485 L 410 481 L 413 481 L 413 480 L 410 472 L 409 472 z M 472.5 472 L 475 479 L 470 479 L 472.5 472 z M 409.5 473 L 412 480 L 407 480 L 409.5 473 z M 28 474 L 25 482 L 25 483 L 28 483 L 28 487 L 29 487 L 29 483 L 32 483 L 32 482 L 29 474 L 28 474 z M 28.5 475 L 31 482 L 26 482 L 28.5 475 z M 216 475 L 213 483 L 213 484 L 216 484 L 216 488 L 217 488 L 217 484 L 220 484 L 220 483 L 217 475 L 216 475 z M 216.5 476 L 219 483 L 214 483 L 216.5 476 z M 258 483 L 255 491 L 255 492 L 258 492 L 258 496 L 259 496 L 259 492 L 262 492 L 262 491 L 259 483 L 258 483 z M 350 483 L 347 491 L 347 492 L 350 492 L 350 496 L 351 496 L 351 492 L 354 492 L 354 491 L 351 483 L 350 483 z M 181 484 L 178 492 L 178 493 L 181 493 L 181 497 L 182 497 L 182 493 L 185 493 L 185 492 L 182 484 L 181 484 z M 258.5 484 L 261 491 L 256 491 L 258.5 484 z M 350.5 484 L 353 491 L 348 491 L 350.5 484 z M 181.5 485 L 184 492 L 179 492 L 181.5 485 z M 286 486 L 283 494 L 283 495 L 286 495 L 286 499 L 287 499 L 287 495 L 290 495 L 290 494 L 287 486 L 286 486 z M 286.5 487 L 289 494 L 284 494 L 286.5 487 z M 13 489 L 10 497 L 10 498 L 13 498 L 13 502 L 14 502 L 14 498 L 17 498 L 17 497 L 14 489 L 13 489 z M 117 489 L 114 497 L 114 498 L 117 498 L 117 502 L 118 502 L 118 498 L 121 498 L 121 497 L 118 489 L 117 489 z M 380 489 L 377 497 L 377 498 L 380 498 L 380 502 L 381 502 L 381 498 L 384 498 L 384 497 L 381 489 L 380 489 z M 13.5 490 L 16 497 L 11 497 L 13.5 490 z M 117.5 490 L 120 497 L 115 497 L 117.5 490 z M 380.5 490 L 383 497 L 378 497 L 380.5 490 z M 321 493 L 318 501 L 318 502 L 321 502 L 321 506 L 322 506 L 322 502 L 325 502 L 325 501 L 322 493 L 321 493 z M 75 494 L 72 502 L 72 503 L 75 503 L 75 507 L 76 507 L 76 503 L 79 503 L 79 502 L 76 494 L 75 494 z M 321.5 494 L 324 501 L 319 501 L 321.5 494 z M 46 495 L 43 503 L 43 504 L 46 504 L 46 508 L 47 508 L 47 504 L 50 504 L 50 503 L 47 495 L 46 495 z M 75.5 495 L 78 502 L 73 502 L 75.5 495 z M 46.5 496 L 49 503 L 44 503 L 46.5 496 z M 235 496 L 232 504 L 232 505 L 235 505 L 235 509 L 236 509 L 236 505 L 239 505 L 239 504 L 236 496 L 235 496 z M 443 496 L 440 504 L 440 505 L 443 505 L 443 509 L 444 509 L 444 505 L 447 505 L 447 504 L 444 496 L 443 496 z M 235.5 497 L 238 504 L 233 504 L 235.5 497 z M 443.5 497 L 446 504 L 441 504 L 443.5 497 z M 491 497 L 488 505 L 488 506 L 491 506 L 491 510 L 492 510 L 492 506 L 495 506 L 495 505 L 492 497 L 491 497 z M 154 498 L 151 506 L 151 507 L 154 507 L 154 511 L 155 511 L 155 507 L 158 507 L 158 506 L 155 498 L 154 498 z M 415 498 L 412 506 L 412 507 L 415 507 L 415 511 L 416 511 L 416 507 L 419 507 L 419 506 L 416 498 L 415 498 z M 491.5 498 L 494 505 L 489 505 L 491.5 498 z M 154.5 499 L 157 506 L 152 506 L 154.5 499 z M 415.5 499 L 418 506 L 413 506 L 415.5 499 z M 130 510 L 129.25 512 L 130.14258 512 L 130.5 511 L 130.85742 512 L 131.75 512 L 131 510 L 130 510 z M 201 510 L 200.25 512 L 201.14258 512 L 201.5 511 L 201.85742 512 L 202.75 512 L 202 510 L 201 510 z M 6 511 L 5.625 512 L 6.5 512 L 7.375 512 L 7 511 L 6 511 z "
     style="fill:#6b8d5e" />
  <rect
     style="fill:none;fill-opacity:1;stroke:none"
     id="rect8566"
     y="0"
     x="0"
     rx="0"
     height="512"
     width="512" />
  <desc
     id="desc918">Created with Snap</desc>
</svg>
