<?xml version="1.0" encoding="UTF-8" standalone="no"?>
<svg
   xmlns:dc="http://purl.org/dc/elements/1.1/"
   xmlns:cc="http://creativecommons.org/ns#"
   xmlns:rdf="http://www.w3.org/1999/02/22-rdf-syntax-ns#"
   xmlns:svg="http://www.w3.org/2000/svg"
   xmlns="http://www.w3.org/2000/svg"
   version="1.1"
   height="512"
   width="512"
   id="Svg">
  <metadata
     id="metadata925">
    <rdf:RDF>
      <cc:Work
         rdf:about="">
        <dc:format>image/svg+xml</dc:format>
        <dc:type
           rdf:resource="http://purl.org/dc/dcmitype/StillImage" />
      </cc:Work>
    </rdf:RDF>
  </metadata>
  <defs
     id="defs3" />
  <path
     id="path7316"
     d="M 4.6660156 0 L 3 5 L 3 6 L 5 6 L 5 9 L 6 9 L 6 6 L 8 6 L 8 5 L 6.3339844 0 L 5.5 0 L 7 5 L 4 5 L 5.5 0 L 4.6660156 0 z M 87.5 0 C 84.344445 0 84.181035 5.3698086 87 5.9433594 L 87 10 L 88 10 L 88 5.9433594 C 90.818965 5.3698086 90.655555 0 87.5 0 z M 127.13477 0 C 126.71172 1.5936682 127.33248 3.604084 129 3.9433594 L 129 8 L 130 8 L 130 3.9433594 C 131.66752 3.604084 132.28828 1.5936682 131.86523 0 L 130.81445 0 C 131.28394 1.1847382 130.84823 3 129.5 3 C 128.15177 3 127.71606 1.1847382 128.18555 0 L 127.13477 0 z M 198.13477 0 C 197.71172 1.5936682 198.33248 3.604084 200 3.9433594 L 200 8 L 201 8 L 201 3.9433594 C 202.66752 3.604084 203.28828 1.5936682 202.86523 0 L 201.81445 0 C 202.28394 1.1847382 201.84823 3 200.5 3 C 199.15177 3 198.71606 1.1847382 199.18555 0 L 198.13477 0 z M 87.5 1 C 89.499999 1 89.499999 5 87.5 5 C 85.500001 5 85.500001 1 87.5 1 z M 464.5 1 C 461.34445 1 461.18104 6.3698086 464 6.9433594 L 464 11 L 465 11 L 465 6.9433594 C 467.81896 6.3698086 467.65555 1 464.5 1 z M 464.5 2 C 466.5 2 466.5 6 464.5 6 C 462.5 6 462.5 2 464.5 2 z M 342.5 3 C 339.34445 3 339.18104 8.3698086 342 8.9433594 L 342 13 L 343 13 L 343 8.9433594 C 345.81896 8.3698086 345.65555 3 342.5 3 z M 264.5 4 C 261.34445 4 261.18104 9.3698086 264 9.9433594 L 264 14 L 265 14 L 265 9.9433594 C 267.81896 9.3698086 267.65555 4 264.5 4 z M 294.5 4 C 291.34445 4 291.18104 9.3698086 294 9.9433594 L 294 14 L 295 14 L 295 9.9433594 C 297.81896 9.3698086 297.65555 4 294.5 4 z M 342.5 4 C 344.5 4 344.5 8 342.5 8 C 340.5 8 340.5 4 342.5 4 z M 264.5 5 C 266.5 5 266.5 9 264.5 9 C 262.5 9 262.5 5 264.5 5 z M 294.5 5 C 296.5 5 296.5 9 294.5 9 C 292.5 9 292.5 5 294.5 5 z M 402 7 L 400 13 L 400 14 L 402 14 L 402 17 L 403 17 L 403 14 L 405 14 L 405 13 L 403 7 L 402 7 z M 374.5 8 C 371.34445 8 371.18104 13.369809 374 13.943359 L 374 18 L 375 18 L 375 13.943359 C 377.81896 13.369809 377.65555 8 374.5 8 z M 402.5 8 L 404 13 L 401 13 L 402.5 8 z M 172.5 9 C 169.34445 9 169.18104 14.369809 172 14.943359 L 172 19 L 173 19 L 173 14.943359 C 175.81896 14.369809 175.65555 9 172.5 9 z M 374.5 9 C 376.5 9 376.5 13 374.5 13 C 372.5 13 372.5 9 374.5 9 z M 172.5 10 C 174.5 10 174.5 14 172.5 14 C 170.5 14 170.5 10 172.5 10 z M 232.5 10 C 229.34445 10 229.18104 15.369809 232 15.943359 L 232 20 L 233 20 L 233 15.943359 C 235.81896 15.369809 235.65555 10 232.5 10 z M 232.5 11 C 234.5 11 234.5 15 232.5 15 C 230.5 15 230.5 11 232.5 11 z M 34.5 16 C 31.344445 16 31.181035 21.369809 34 21.943359 L 34 26 L 35 26 L 35 21.943359 C 37.818965 21.369809 37.655555 16 34.5 16 z M 34.5 17 C 36.499999 17 36.499999 21 34.5 21 C 32.500001 21 32.500001 17 34.5 17 z M 67 17 L 65 23 L 65 24 L 67 24 L 67 27 L 68 27 L 68 24 L 70 24 L 70 23 L 68 17 L 67 17 z M 437 17 L 435 23 L 435 24 L 437 24 L 437 27 L 438 27 L 438 24 L 440 24 L 440 23 L 438 17 L 437 17 z M 496.5 17 C 493.34445 17 493.18104 22.369809 496 22.943359 L 496 27 L 497 27 L 497 22.943359 C 499.81896 22.369809 499.65555 17 496.5 17 z M 67.5 18 L 69 23 L 66 23 L 67.5 18 z M 437.5 18 L 439 23 L 436 23 L 437.5 18 z M 496.5 18 C 498.5 18 498.5 22 496.5 22 C 494.5 22 494.5 18 496.5 18 z M 316 23 L 314 29 L 314 30 L 316 30 L 316 33 L 317 33 L 317 30 L 319 30 L 319 29 L 317 23 L 316 23 z M 316.5 24 L 318 29 L 315 29 L 316.5 24 z M 204 26 L 202 32 L 202 33 L 204 33 L 204 36 L 205 36 L 205 33 L 207 33 L 207 32 L 205 26 L 204 26 z M 204.5 27 L 206 32 L 203 32 L 204.5 27 z M 142.5 31 C 139.34445 31 139.18104 36.369809 142 36.943359 L 142 41 L 143 41 L 143 36.943359 C 145.81896 36.369809 145.65555 31 142.5 31 z M 113.5 32 C 110.34445 32 110.18104 37.369809 113 37.943359 L 113 42 L 114 42 L 114 37.943359 C 116.81896 37.369809 116.65555 32 113.5 32 z M 142.5 32 C 144.5 32 144.5 36 142.5 36 C 140.5 36 140.5 32 142.5 32 z M 86 33 L 84 39 L 84 40 L 86 40 L 86 43 L 87 43 L 87 40 L 89 40 L 89 39 L 87 33 L 86 33 z M 113.5 33 C 115.5 33 115.5 37 113.5 37 C 111.5 37 111.5 33 113.5 33 z M 86.5 34 L 88 39 L 85 39 L 86.5 34 z M 348 34 L 346 40 L 346 41 L 348 41 L 348 44 L 349 44 L 349 41 L 351 41 L 351 40 L 349 34 L 348 34 z M 257.5 35 C 254.34445 35 254.18104 40.369809 257 40.943359 L 257 45 L 258 45 L 258 40.943359 C 260.81896 40.369809 260.65555 35 257.5 35 z M 286 35 L 284 41 L 284 42 L 286 42 L 286 45 L 287 45 L 287 42 L 289 42 L 289 41 L 287 35 L 286 35 z M 348.5 35 L 350 40 L 347 40 L 348.5 35 z M 257.5 36 C 259.5 36 259.5 40 257.5 40 C 255.5 40 255.5 36 257.5 36 z M 286.5 36 L 288 41 L 285 41 L 286.5 36 z M 462.5 36 C 459.34445 36 459.18104 41.369809 462 41.943359 L 462 46 L 463 46 L 463 41.943359 C 465.81896 41.369809 465.65555 36 462.5 36 z M 462.5 37 C 464.5 37 464.5 41 462.5 41 C 460.5 41 460.5 37 462.5 37 z M 11 38 L 9 44 L 9 45 L 11 45 L 11 48 L 12 48 L 12 45 L 14 45 L 14 44 L 12 38 L 11 38 z M 377 38 L 375 44 L 375 45 L 377 45 L 377 48 L 378 48 L 378 45 L 380 45 L 380 44 L 378 38 L 377 38 z M 407.5 38 C 404.34445 38 404.18104 43.369809 407 43.943359 L 407 48 L 408 48 L 408 43.943359 C 410.81896 43.369809 410.65555 38 407.5 38 z M 11.5 39 L 13 44 L 10 44 L 11.5 39 z M 175 39 L 173 45 L 173 46 L 175 46 L 175 49 L 176 49 L 176 46 L 178 46 L 178 45 L 176 39 L 175 39 z M 377.5 39 L 379 44 L 376 44 L 377.5 39 z M 407.5 39 C 409.5 39 409.5 43 407.5 43 C 405.5 43 405.5 39 407.5 39 z M 175.5 40 L 177 45 L 174 45 L 175.5 40 z M 50 41 L 48 47 L 48 48 L 50 48 L 50 51 L 51 51 L 51 48 L 53 48 L 53 47 L 51 41 L 50 41 z M 50.5 42 L 52 47 L 49 47 L 50.5 42 z M 230.5 46 C 227.34445 46 227.18104 51.369809 230 51.943359 L 230 56 L 231 56 L 231 51.943359 C 233.81896 51.369809 233.65555 46 230.5 46 z M 230.5 47 C 232.5 47 232.5 51 230.5 51 C 228.5 51 228.5 47 230.5 47 z M 434.5 47 C 431.34445 47 431.18104 52.369809 434 52.943359 L 434 57 L 435 57 L 435 52.943359 C 437.81896 52.369809 437.65555 47 434.5 47 z M 434.5 48 C 436.5 48 436.5 52 434.5 52 C 432.5 52 432.5 48 434.5 48 z M 495 49 L 493 55 L 493 56 L 495 56 L 495 59 L 496 59 L 496 56 L 498 56 L 498 55 L 496 49 L 495 49 z M 495.5 50 L 497 55 L 494 55 L 495.5 50 z M 316 54 L 314 60 L 314 61 L 316 61 L 316 64 L 317 64 L 317 61 L 319 61 L 319 60 L 317 54 L 316 54 z M 316.5 55 L 318 60 L 315 60 L 316.5 55 z M 33.5 59 C 30.344445 59 30.181035 64.369809 33 64.943359 L 33 69 L 34 69 L 34 64.943359 C 36.818965 64.369809 36.655555 59 33.5 59 z M 112.5 59 C 109.34445 59 109.18104 64.369809 112 64.943359 L 112 69 L 113 69 L 113 64.943359 C 115.81896 64.369809 115.65555 59 112.5 59 z M 33.5 60 C 35.499999 60 35.499999 64 33.5 64 C 31.500001 64 31.500001 60 33.5 60 z M 112.5 60 C 114.5 60 114.5 64 112.5 64 C 110.5 64 110.5 60 112.5 60 z M 141.5 62 C 138.34445 62 138.18104 67.369809 141 67.943359 L 141 72 L 142 72 L 142 67.943359 C 144.81896 67.369809 144.65555 62 141.5 62 z M 199 62 L 197 68 L 197 69 L 199 69 L 199 72 L 200 72 L 200 69 L 202 69 L 202 68 L 200 62 L 199 62 z M 141.5 63 C 143.5 63 143.5 67 141.5 67 C 139.5 67 139.5 63 141.5 63 z M 199.5 63 L 201 68 L 198 68 L 199.5 63 z M 77.5 64 C 74.344445 64 74.181035 69.369809 77 69.943359 L 77 74 L 78 74 L 78 69.943359 C 80.818965 69.369809 80.655555 64 77.5 64 z M 77.5 65 C 79.499999 65 79.499999 69 77.5 69 C 75.500001 69 75.500001 65 77.5 65 z M 376.5 65 C 373.34445 65 373.18104 70.369809 376 70.943359 L 376 75 L 377 75 L 377 70.943359 C 379.81896 70.369809 379.65555 65 376.5 65 z M 465.5 65 C 462.34445 65 462.18104 70.369809 465 70.943359 L 465 75 L 466 75 L 466 70.943359 C 468.81896 70.369809 468.65555 65 465.5 65 z M 263 66 L 261 72 L 261 73 L 263 73 L 263 76 L 264 76 L 264 73 L 266 73 L 266 72 L 264 66 L 263 66 z M 342.5 66 C 339.34445 66 339.18104 71.369809 342 71.943359 L 342 76 L 343 76 L 343 71.943359 C 345.81896 71.369809 345.65555 66 342.5 66 z M 376.5 66 C 378.5 66 378.5 70 376.5 70 C 374.5 70 374.5 66 376.5 66 z M 465.5 66 C 467.5 66 467.5 70 465.5 70 C 463.5 70 463.5 66 465.5 66 z M 263.5 67 L 265 72 L 262 72 L 263.5 67 z M 342.5 67 C 344.5 67 344.5 71 342.5 71 C 340.5 71 340.5 67 342.5 67 z M 170.5 68 C 167.34445 68 167.18104 73.369809 170 73.943359 L 170 78 L 171 78 L 171 73.943359 C 173.81896 73.369809 173.65555 68 170.5 68 z M 294.5 68 C 291.34445 68 291.18104 73.369809 294 73.943359 L 294 78 L 295 78 L 295 73.943359 C 297.81896 73.369809 297.65555 68 294.5 68 z M 170.5 69 C 172.5 69 172.5 73 170.5 73 C 168.5 73 168.5 69 170.5 69 z M 294.5 69 C 296.5 69 296.5 73 294.5 73 C 292.5 73 292.5 69 294.5 69 z M 404.5 71 C 401.34445 71 401.18104 76.369809 404 76.943359 L 404 81 L 405 81 L 405 76.943359 C 407.81896 76.369809 407.65555 71 404.5 71 z M 3 72 L 1 78 L 1 79 L 3 79 L 3 82 L 4 82 L 4 79 L 6 79 L 6 78 L 4 72 L 3 72 z M 404.5 72 C 406.5 72 406.5 76 404.5 76 C 402.5 76 402.5 72 404.5 72 z M 3.5 73 L 5 78 L 2 78 L 3.5 73 z M 230.5 74 C 227.34445 74 227.18104 79.369809 230 79.943359 L 230 84 L 231 84 L 231 79.943359 C 233.81896 79.369809 233.65555 74 230.5 74 z M 230.5 75 C 232.5 75 232.5 79 230.5 79 C 228.5 79 228.5 75 230.5 75 z M 438 78 L 436 84 L 436 85 L 438 85 L 438 88 L 439 88 L 439 85 L 441 85 L 441 84 L 439 78 L 438 78 z M 438.5 79 L 440 84 L 437 84 L 438.5 79 z M 53 83 L 51 89 L 51 90 L 53 90 L 53 93 L 54 93 L 54 90 L 56 90 L 56 89 L 54 83 L 53 83 z M 53.5 84 L 55 89 L 52 89 L 53.5 84 z M 487 85 L 485 91 L 485 92 L 487 92 L 487 95 L 488 95 L 488 92 L 490 92 L 490 91 L 488 85 L 487 85 z M 487.5 86 L 489 91 L 486 91 L 487.5 86 z M 201 90 L 199 96 L 199 97 L 201 97 L 201 100 L 202 100 L 202 97 L 204 97 L 204 96 L 202 90 L 201 90 z M 88.5 91 C 85.344445 91 85.181035 96.369809 88 96.943359 L 88 101 L 89 101 L 89 96.943359 C 91.818965 96.369809 91.655555 91 88.5 91 z M 201.5 91 L 203 96 L 200 96 L 201.5 91 z M 318 91 L 316 97 L 316 98 L 318 98 L 318 101 L 319 101 L 319 98 L 321 98 L 321 97 L 319 91 L 318 91 z M 88.5 92 C 90.499999 92 90.499999 96 88.5 96 C 86.500001 96 86.500001 92 88.5 92 z M 117 92 L 115 98 L 115 99 L 117 99 L 117 102 L 118 102 L 118 99 L 120 99 L 120 98 L 118 92 L 117 92 z M 318.5 92 L 320 97 L 317 97 L 318.5 92 z M 117.5 93 L 119 98 L 116 98 L 117.5 93 z M 363 94 L 361 100 L 361 101 L 363 101 L 363 104 L 364 104 L 364 101 L 366 101 L 366 100 L 364 94 L 363 94 z M 144 95 L 142 101 L 142 102 L 144 102 L 144 105 L 145 105 L 145 102 L 147 102 L 147 101 L 145 95 L 144 95 z M 363.5 95 L 365 100 L 362 100 L 363.5 95 z M 144.5 96 L 146 101 L 143 101 L 144.5 96 z M 278.5 96 C 275.34445 96 275.18104 101.36981 278 101.94336 L 278 106 L 279 106 L 279 101.94336 C 281.81896 101.36981 281.65555 96 278.5 96 z M 278.5 97 C 280.5 97 280.5 101 278.5 101 C 276.5 101 276.5 97 278.5 97 z M 23 99 L 21 105 L 21 106 L 23 106 L 23 109 L 24 109 L 24 106 L 26 106 L 26 105 L 24 99 L 23 99 z M 250.5 99 C 247.34445 99 247.18104 104.36981 250 104.94336 L 250 109 L 251 109 L 251 104.94336 C 253.81896 104.36981 253.65555 99 250.5 99 z M 23.5 100 L 25 105 L 22 105 L 23.5 100 z M 250.5 100 C 252.5 100 252.5 104 250.5 104 C 248.5 104 248.5 100 250.5 100 z M 396 101 L 394 107 L 394 108 L 396 108 L 396 111 L 397 111 L 397 108 L 399 108 L 399 107 L 397 101 L 396 101 z M 396.5 102 L 398 107 L 395 107 L 396.5 102 z M 460 102 L 458 108 L 458 109 L 460 109 L 460 112 L 461 112 L 461 109 L 463 109 L 463 108 L 461 102 L 460 102 z M 171 103 L 169 109 L 169 110 L 171 110 L 171 113 L 172 113 L 172 110 L 174 110 L 174 109 L 172 103 L 171 103 z M 460.5 103 L 462 108 L 459 108 L 460.5 103 z M 171.5 104 L 173 109 L 170 109 L 171.5 104 z M 426.5 105 C 423.34445 105 423.18104 110.36981 426 110.94336 L 426 115 L 427 115 L 427 110.94336 C 429.81896 110.36981 429.65555 105 426.5 105 z M 426.5 106 C 428.5 106 428.5 110 426.5 110 C 424.5 110 424.5 106 426.5 106 z M 73.5 108 C 70.344445 108 70.181035 113.36981 73 113.94336 L 73 118 L 74 118 L 74 113.94336 C 76.818965 113.36981 76.655555 108 73.5 108 z M 73.5 109 C 75.499999 109 75.499999 113 73.5 113 C 71.500001 113 71.500001 109 73.5 109 z M 219.5 109 C 216.34445 109 216.18104 114.36981 219 114.94336 L 219 119 L 220 119 L 220 114.94336 C 222.81896 114.36981 222.65555 109 219.5 109 z M 219.5 110 C 221.5 110 221.5 114 219.5 114 C 217.5 114 217.5 110 219.5 110 z M 509 110 L 507 116 L 507 117 L 509 117 L 509 120 L 510 120 L 510 117 L 512 117 L 512 116 L 510 110 L 509 110 z M 509.5 111 L 511 116 L 508 116 L 509.5 111 z M 339 114 L 337 120 L 337 121 L 339 121 L 339 124 L 340 124 L 340 121 L 342 121 L 342 120 L 340 114 L 339 114 z M 339.5 115 L 341 120 L 338 120 L 339.5 115 z M 304 117 L 302 123 L 302 124 L 304 124 L 304 127 L 305 127 L 305 124 L 307 124 L 307 123 L 305 117 L 304 117 z M 304.5 118 L 306 123 L 303 123 L 304.5 118 z M 46 120 L 44 126 L 44 127 L 46 127 L 46 130 L 47 130 L 47 127 L 49 127 L 49 126 L 47 120 L 46 120 z M 46.5 121 L 48 126 L 45 126 L 46.5 121 z M 110.5 123 C 107.34445 123 107.18104 128.36981 110 128.94336 L 110 133 L 111 133 L 111 128.94336 C 113.81896 128.36981 113.65555 123 110.5 123 z M 110.5 124 C 112.5 124 112.5 128 110.5 128 C 108.5 128 108.5 124 110.5 124 z M 367 124 L 365 130 L 365 131 L 367 131 L 367 134 L 368 134 L 368 131 L 370 131 L 370 130 L 368 124 L 367 124 z M 141 125 L 139 131 L 139 132 L 141 132 L 141 135 L 142 135 L 142 132 L 144 132 L 144 131 L 142 125 L 141 125 z M 367.5 125 L 369 130 L 366 130 L 367.5 125 z M 480.5 125 C 477.34445 125 477.18104 130.36981 480 130.94336 L 480 135 L 481 135 L 481 130.94336 C 483.81896 130.36981 483.65555 125 480.5 125 z M 141.5 126 L 143 131 L 140 131 L 141.5 126 z M 192 126 L 190 132 L 190 133 L 192 133 L 192 136 L 193 136 L 193 133 L 195 133 L 195 132 L 193 126 L 192 126 z M 480.5 126 C 482.5 126 482.5 130 480.5 130 C 478.5 130 478.5 126 480.5 126 z M 192.5 127 L 194 132 L 191 132 L 192.5 127 z M 251.5 129 C 248.34445 129 248.18104 134.36981 251 134.94336 L 251 139 L 252 139 L 252 134.94336 C 254.81896 134.36981 254.65555 129 251.5 129 z M 251.5 130 C 253.5 130 253.5 134 251.5 134 C 249.5 134 249.5 130 251.5 130 z M 279 130 L 277 136 L 277 137 L 279 137 L 279 140 L 280 140 L 280 137 L 282 137 L 282 136 L 280 130 L 279 130 z M 431.5 130 C 428.34445 130 428.18104 135.36981 431 135.94336 L 431 140 L 432 140 L 432 135.94336 C 434.81896 135.36981 434.65555 130 431.5 130 z M 279.5 131 L 281 136 L 278 136 L 279.5 131 z M 401.5 131 C 398.34445 131 398.18104 136.36981 401 136.94336 L 401 141 L 402 141 L 402 136.94336 C 404.81896 136.36981 404.65555 131 401.5 131 z M 431.5 131 C 433.5 131 433.5 135 431.5 135 C 429.5 135 429.5 131 431.5 131 z M 401.5 132 C 403.5 132 403.5 136 401.5 136 C 399.5 136 399.5 132 401.5 132 z M 15 135 L 13 141 L 13 142 L 15 142 L 15 145 L 16 145 L 16 142 L 18 142 L 18 141 L 16 135 L 15 135 z M 15.5 136 L 17 141 L 14 141 L 15.5 136 z M 162.5 137 C 159.34445 137 159.18104 142.36981 162 142.94336 L 162 147 L 163 147 L 163 142.94336 C 165.81896 142.36981 165.65555 137 162.5 137 z M 219 137 L 217 143 L 217 144 L 219 144 L 219 147 L 220 147 L 220 144 L 222 144 L 222 143 L 220 137 L 219 137 z M 162.5 138 C 164.5 138 164.5 142 162.5 142 C 160.5 142 160.5 138 162.5 138 z M 219.5 138 L 221 143 L 218 143 L 219.5 138 z M 452.5 139 C 449.34445 139 449.18104 144.36981 452 144.94336 L 452 149 L 453 149 L 453 144.94336 C 455.81896 144.36981 455.65555 139 452.5 139 z M 452.5 140 C 454.5 140 454.5 144 452.5 144 C 450.5 144 450.5 140 452.5 140 z M 79 141 L 77 147 L 77 148 L 79 148 L 79 151 L 80 151 L 80 148 L 82 148 L 82 147 L 80 141 L 79 141 z M 321 141 L 319 147 L 319 148 L 321 148 L 321 151 L 322 151 L 322 148 L 324 148 L 324 147 L 322 141 L 321 141 z M 79.5 142 L 81 147 L 78 147 L 79.5 142 z M 321.5 142 L 323 147 L 320 147 L 321.5 142 z M 499.5 146 C 496.34445 146 496.18104 151.36981 499 151.94336 L 499 156 L 500 156 L 500 151.94336 C 502.81896 151.36981 502.65555 146 499.5 146 z M 51.5 147 C 48.344445 147 48.181035 152.36981 51 152.94336 L 51 157 L 52 157 L 52 152.94336 C 54.818965 152.36981 54.655555 147 51.5 147 z M 348.5 147 C 345.34445 147 345.18104 152.36981 348 152.94336 L 348 157 L 349 157 L 349 152.94336 C 351.81896 152.36981 351.65555 147 348.5 147 z M 499.5 147 C 501.5 147 501.5 151 499.5 151 C 497.5 151 497.5 147 499.5 147 z M 51.5 148 C 53.499999 148 53.499999 152 51.5 152 C 49.500001 152 49.500001 148 51.5 148 z M 348.5 148 C 350.5 148 350.5 152 348.5 152 C 346.5 152 346.5 148 348.5 148 z M 101.5 154 C 98.344445 154 98.181035 159.36981 101 159.94336 L 101 164 L 102 164 L 102 159.94336 C 104.81896 159.36981 104.65555 154 101.5 154 z M 383.5 154 C 380.34445 154 380.18104 159.36981 383 159.94336 L 383 164 L 384 164 L 384 159.94336 C 386.81896 159.36981 386.65555 154 383.5 154 z M 101.5 155 C 103.5 155 103.5 159 101.5 159 C 99.500001 159 99.500001 155 101.5 155 z M 133 155 L 131 161 L 131 162 L 133 162 L 133 165 L 134 165 L 134 162 L 136 162 L 136 161 L 134 155 L 133 155 z M 383.5 155 C 385.5 155 385.5 159 383.5 159 C 381.5 159 381.5 155 383.5 155 z M 133.5 156 L 135 161 L 132 161 L 133.5 156 z M 259 156 L 257 162 L 257 163 L 259 163 L 259 166 L 260 166 L 260 163 L 262 163 L 262 162 L 260 156 L 259 156 z M 259.5 157 L 261 162 L 258 162 L 259.5 157 z M 195 160 L 193 166 L 193 167 L 195 167 L 195 170 L 196 170 L 196 167 L 198 167 L 198 166 L 196 160 L 195 160 z M 294.5 160 C 291.34445 160 291.18104 165.36981 294 165.94336 L 294 170 L 295 170 L 295 165.94336 C 297.81896 165.36981 297.65555 160 294.5 160 z M 468.5 160 C 465.34445 160 465.18104 165.36981 468 165.94336 L 468 170 L 469 170 L 469 165.94336 C 471.81896 165.36981 471.65555 160 468.5 160 z M 195.5 161 L 197 166 L 194 166 L 195.5 161 z M 294.5 161 C 296.5 161 296.5 165 294.5 165 C 292.5 165 292.5 161 294.5 161 z M 468.5 161 C 470.5 161 470.5 165 468.5 165 C 466.5 165 466.5 161 468.5 161 z M 19 163 L 17 169 L 17 170 L 19 170 L 19 173 L 20 173 L 20 170 L 22 170 L 22 169 L 20 163 L 19 163 z M 410 163 L 408 169 L 408 170 L 410 170 L 410 173 L 411 173 L 411 170 L 413 170 L 413 169 L 411 163 L 410 163 z M 19.5 164 L 21 169 L 18 169 L 19.5 164 z M 410.5 164 L 412 169 L 409 169 L 410.5 164 z M 162.5 167 C 159.34445 167 159.18104 172.36981 162 172.94336 L 162 177 L 163 177 L 163 172.94336 C 165.81896 172.36981 165.65555 167 162.5 167 z M 162.5 168 C 164.5 168 164.5 172 162.5 172 C 160.5 172 160.5 168 162.5 168 z M 229 170 L 227 176 L 227 177 L 229 177 L 229 180 L 230 180 L 230 177 L 232 177 L 232 176 L 230 170 L 229 170 z M 229.5 171 L 231 176 L 228 176 L 229.5 171 z M 71 172 L 69 178 L 69 179 L 71 179 L 71 182 L 72 182 L 72 179 L 74 179 L 74 178 L 72 172 L 71 172 z M 71.5 173 L 73 178 L 70 178 L 71.5 173 z M 505 174 L 503 180 L 503 181 L 505 181 L 505 184 L 506 184 L 506 181 L 508 181 L 508 180 L 506 174 L 505 174 z M 505.5 175 L 507 180 L 504 180 L 505.5 175 z M 356 176 L 354 182 L 354 183 L 356 183 L 356 186 L 357 186 L 357 183 L 359 183 L 359 182 L 357 176 L 356 176 z M 323 177 L 321 183 L 321 184 L 323 184 L 323 187 L 324 187 L 324 184 L 326 184 L 326 183 L 324 177 L 323 177 z M 356.5 177 L 358 182 L 355 182 L 356.5 177 z M 443.5 177 C 440.34445 177 440.18104 182.36981 443 182.94336 L 443 187 L 444 187 L 444 182.94336 C 446.81896 182.36981 446.65555 177 443.5 177 z M 323.5 178 L 325 183 L 322 183 L 323.5 178 z M 443.5 178 C 445.5 178 445.5 182 443.5 182 C 441.5 182 441.5 178 443.5 178 z M 254 183 L 252 189 L 252 190 L 254 190 L 254 193 L 255 193 L 255 190 L 257 190 L 257 189 L 255 183 L 254 183 z M 41 184 L 39 190 L 39 191 L 41 191 L 41 194 L 42 194 L 42 191 L 44 191 L 44 190 L 42 184 L 41 184 z M 128.5 184 C 125.34445 184 125.18104 189.36981 128 189.94336 L 128 194 L 129 194 L 129 189.94336 C 131.81896 189.36981 131.65555 184 128.5 184 z M 254.5 184 L 256 189 L 253 189 L 254.5 184 z M 41.5 185 L 43 190 L 40 190 L 41.5 185 z M 128.5 185 C 130.5 185 130.5 189 128.5 189 C 126.5 189 126.5 185 128.5 185 z M 386 185 L 384 191 L 384 192 L 386 192 L 386 195 L 387 195 L 387 192 L 389 192 L 389 191 L 387 185 L 386 185 z M 386.5 186 L 388 191 L 385 191 L 386.5 186 z M 469.5 188 C 466.34445 188 466.18104 193.36981 469 193.94336 L 469 198 L 470 198 L 470 193.94336 C 472.81896 193.36981 472.65555 188 469.5 188 z M 191 189 L 189 195 L 189 196 L 191 196 L 191 199 L 192 199 L 192 196 L 194 196 L 194 195 L 192 189 L 191 189 z M 280 189 L 278 195 L 278 196 L 280 196 L 280 199 L 281 199 L 281 196 L 283 196 L 283 195 L 281 189 L 280 189 z M 469.5 189 C 471.5 189 471.5 193 469.5 193 C 467.5 193 467.5 189 469.5 189 z M 98.5 190 C 95.344445 190 95.181035 195.36981 98 195.94336 L 98 200 L 99 200 L 99 195.94336 C 101.81896 195.36981 101.65555 190 98.5 190 z M 191.5 190 L 193 195 L 190 195 L 191.5 190 z M 280.5 190 L 282 195 L 279 195 L 280.5 190 z M 98.5 191 C 100.5 191 100.5 195 98.5 195 C 96.500001 195 96.500001 191 98.5 191 z M 418 193 L 416 199 L 416 200 L 418 200 L 418 203 L 419 203 L 419 200 L 421 200 L 421 199 L 419 193 L 418 193 z M 216 194 L 214 200 L 214 201 L 216 201 L 216 204 L 217 204 L 217 201 L 219 201 L 219 200 L 217 194 L 216 194 z M 418.5 194 L 420 199 L 417 199 L 418.5 194 z M 216.5 195 L 218 200 L 215 200 L 216.5 195 z M 308.5 197 C 305.34445 197 305.18104 202.36981 308 202.94336 L 308 207 L 309 207 L 309 202.94336 C 311.81896 202.36981 311.65555 197 308.5 197 z M 308.5 198 C 310.5 198 310.5 202 308.5 202 C 306.5 202 306.5 198 308.5 198 z M 14.5 199 C 11.344445 199 11.181035 204.36981 14 204.94336 L 14 209 L 15 209 L 15 204.94336 C 17.818965 204.36981 17.655555 199 14.5 199 z M 14.5 200 C 16.499999 200 16.499999 204 14.5 204 C 12.500001 204 12.500001 200 14.5 200 z M 161 201 L 159 207 L 159 208 L 161 208 L 161 211 L 162 211 L 162 208 L 164 208 L 164 207 L 162 201 L 161 201 z M 161.5 202 L 163 207 L 160 207 L 161.5 202 z M 342.5 203 C 339.34445 203 339.18104 208.36981 342 208.94336 L 342 213 L 343 213 L 343 208.94336 C 345.81896 208.36981 345.65555 203 342.5 203 z M 68.5 204 C 65.344445 204 65.181035 209.36981 68 209.94336 L 68 214 L 69 214 L 69 209.94336 C 71.818965 209.36981 71.655555 204 68.5 204 z M 342.5 204 C 344.5 204 344.5 208 342.5 208 C 340.5 208 340.5 204 342.5 204 z M 492.5 204 C 489.34445 204 489.18104 209.36981 492 209.94336 L 492 214 L 493 214 L 493 209.94336 C 495.81896 209.36981 495.65555 204 492.5 204 z M 68.5 205 C 70.499999 205 70.499999 209 68.5 209 C 66.500001 209 66.500001 205 68.5 205 z M 492.5 205 C 494.5 205 494.5 209 492.5 209 C 490.5 209 490.5 205 492.5 205 z M 251 211 L 249 217 L 249 218 L 251 218 L 251 221 L 252 221 L 252 218 L 254 218 L 254 217 L 252 211 L 251 211 z M 251.5 212 L 253 217 L 250 217 L 251.5 212 z M 370 213 L 368 219 L 368 220 L 370 220 L 370 223 L 371 223 L 371 220 L 373 220 L 373 219 L 371 213 L 370 213 z M 370.5 214 L 372 219 L 369 219 L 370.5 214 z M 112.5 215 C 109.34445 215 109.18104 220.36981 112 220.94336 L 112 225 L 113 225 L 113 220.94336 C 115.81896 220.36981 115.65555 215 112.5 215 z M 112.5 216 C 114.5 216 114.5 220 112.5 220 C 110.5 220 110.5 216 112.5 216 z M 404.5 218 C 401.34445 218 401.18104 223.36981 404 223.94336 L 404 228 L 405 228 L 405 223.94336 C 407.81896 223.36981 407.65555 218 404.5 218 z M 441.5 218 C 438.34445 218 438.18104 223.36981 441 223.94336 L 441 228 L 442 228 L 442 223.94336 C 444.81896 223.36981 444.65555 218 441.5 218 z M 136.5 219 C 133.34445 219 133.18104 224.36981 136 224.94336 L 136 229 L 137 229 L 137 224.94336 C 139.81896 224.36981 139.65555 219 136.5 219 z M 404.5 219 C 406.5 219 406.5 223 404.5 223 C 402.5 223 402.5 219 404.5 219 z M 441.5 219 C 443.5 219 443.5 223 441.5 223 C 439.5 223 439.5 219 441.5 219 z M 136.5 220 C 138.5 220 138.5 224 136.5 224 C 134.5 224 134.5 220 136.5 220 z M 311 221 L 309 227 L 309 228 L 311 228 L 311 231 L 312 231 L 312 228 L 314 228 L 314 227 L 312 221 L 311 221 z M 42 222 L 40 228 L 40 229 L 42 229 L 42 232 L 43 232 L 43 229 L 45 229 L 45 228 L 43 222 L 42 222 z M 193.5 222 C 190.34445 222 190.18104 227.36981 193 227.94336 L 193 232 L 194 232 L 194 227.94336 C 196.81896 227.36981 196.65555 222 193.5 222 z M 225 222 L 223 228 L 223 229 L 225 229 L 225 232 L 226 232 L 226 229 L 228 229 L 228 228 L 226 222 L 225 222 z M 311.5 222 L 313 227 L 310 227 L 311.5 222 z M 42.5 223 L 44 228 L 41 228 L 42.5 223 z M 193.5 223 C 195.5 223 195.5 227 193.5 227 C 191.5 227 191.5 223 193.5 223 z M 225.5 223 L 227 228 L 224 228 L 225.5 223 z M 467.5 224 C 464.34445 224 464.18104 229.36981 467 229.94336 L 467 234 L 468 234 L 468 229.94336 C 470.81896 229.36981 470.65555 224 467.5 224 z M 280.5 225 C 277.34445 225 277.18104 230.36981 280 230.94336 L 280 235 L 281 235 L 281 230.94336 C 283.81896 230.36981 283.65555 225 280.5 225 z M 467.5 225 C 469.5 225 469.5 229 467.5 229 C 465.5 229 465.5 225 467.5 225 z M 13 226 L 11 232 L 11 233 L 13 233 L 13 236 L 14 236 L 14 233 L 16 233 L 16 232 L 14 226 L 13 226 z M 280.5 226 C 282.5 226 282.5 230 280.5 230 C 278.5 230 278.5 226 280.5 226 z M 13.5 227 L 15 232 L 12 232 L 13.5 227 z M 83 229 L 81 235 L 81 236 L 83 236 L 83 239 L 84 239 L 84 236 L 86 236 L 86 235 L 84 229 L 83 229 z M 83.5 230 L 85 235 L 82 235 L 83.5 230 z M 164.5 231 C 161.34445 231 161.18104 236.36981 164 236.94336 L 164 241 L 165 241 L 165 236.94336 C 167.81896 236.36981 167.65555 231 164.5 231 z M 164.5 232 C 166.5 232 166.5 236 164.5 236 C 162.5 236 162.5 232 164.5 232 z M 501.5 234 C 498.34445 234 498.18104 239.36981 501 239.94336 L 501 244 L 502 244 L 502 239.94336 C 504.81896 239.36981 504.65555 234 501.5 234 z M 501.5 235 C 503.5 235 503.5 239 501.5 239 C 499.5 239 499.5 235 501.5 235 z M 342 238 L 340 244 L 340 245 L 342 245 L 342 248 L 343 248 L 343 245 L 345 245 L 345 244 L 343 238 L 342 238 z M 373.5 238 C 370.34445 238 370.18104 243.36981 373 243.94336 L 373 248 L 374 248 L 374 243.94336 C 376.81896 243.36981 376.65555 238 373.5 238 z M 342.5 239 L 344 244 L 341 244 L 342.5 239 z M 373.5 239 C 375.5 239 375.5 243 373.5 243 C 371.5 243 371.5 239 373.5 239 z M 432 240 L 430 246 L 430 247 L 432 247 L 432 250 L 433 250 L 433 247 L 435 247 L 435 246 L 433 240 L 432 240 z M 432.5 241 L 434 246 L 431 246 L 432.5 241 z M 61.5 244 C 58.344445 244 58.181035 249.36981 61 249.94336 L 61 254 L 62 254 L 62 249.94336 C 64.818965 249.36981 64.655555 244 61.5 244 z M 311 244 L 309 250 L 309 251 L 311 251 L 311 254 L 312 254 L 312 251 L 314 251 L 314 250 L 312 244 L 311 244 z M 61.5 245 C 63.499999 245 63.499999 249 61.5 249 C 59.500001 249 59.500001 245 61.5 245 z M 311.5 245 L 313 250 L 310 250 L 311.5 245 z M 403.5 246 C 400.34445 246 400.18104 251.36981 403 251.94336 L 403 256 L 404 256 L 404 251.94336 C 406.81896 251.36981 406.65555 246 403.5 246 z M 116.5 247 C 113.34445 247 113.18104 252.36981 116 252.94336 L 116 257 L 117 257 L 117 252.94336 C 119.81896 252.36981 119.65555 247 116.5 247 z M 252.5 247 C 249.34445 247 249.18104 252.36981 252 252.94336 L 252 257 L 253 257 L 253 252.94336 C 255.81896 252.36981 255.65555 247 252.5 247 z M 403.5 247 C 405.5 247 405.5 251 403.5 251 C 401.5 251 401.5 247 403.5 247 z M 116.5 248 C 118.5 248 118.5 252 116.5 252 C 114.5 252 114.5 248 116.5 248 z M 252.5 248 C 254.5 248 254.5 252 252.5 252 C 250.5 252 250.5 248 252.5 248 z M 201.5 250 C 198.34445 250 198.18104 255.36981 201 255.94336 L 201 260 L 202 260 L 202 255.94336 C 204.81896 255.36981 204.65555 250 201.5 250 z M 201.5 251 C 203.5 251 203.5 255 201.5 255 C 199.5 255 199.5 251 201.5 251 z M 459.5 251 C 456.34445 251 456.18104 256.36981 459 256.94336 L 459 261 L 460 261 L 460 256.94336 C 462.81896 256.36981 462.65555 251 459.5 251 z M 459.5 252 C 461.5 252 461.5 256 459.5 256 C 457.5 256 457.5 252 459.5 252 z M 36.5 257 C 33.344445 257 33.181035 262.36981 36 262.94336 L 36 267 L 37 267 L 37 262.94336 C 39.818965 262.36981 39.655555 257 36.5 257 z M 140.5 257 C 137.34445 257 137.18104 262.36981 140 262.94336 L 140 267 L 141 267 L 141 262.94336 C 143.81896 262.36981 143.65555 257 140.5 257 z M 225 257 L 223 263 L 223 264 L 225 264 L 225 267 L 226 267 L 226 264 L 228 264 L 228 263 L 226 257 L 225 257 z M 36.5 258 C 38.499999 258 38.499999 262 36.5 262 C 34.500001 262 34.500001 258 36.5 258 z M 140.5 258 C 142.5 258 142.5 262 140.5 262 C 138.5 262 138.5 258 140.5 258 z M 225.5 258 L 227 263 L 224 263 L 225.5 258 z M 289.5 258 C 286.34445 258 286.18104 263.36981 289 263.94336 L 289 268 L 290 268 L 290 263.94336 C 292.81896 263.36981 292.65555 258 289.5 258 z M 289.5 259 C 291.5 259 291.5 263 289.5 263 C 287.5 263 287.5 259 289.5 259 z M 7 262 L 5 268 L 5 269 L 7 269 L 7 272 L 8 272 L 8 269 L 10 269 L 10 268 L 8 262 L 7 262 z M 7.5 263 L 9 268 L 6 268 L 7.5 263 z M 177 263 L 175 269 L 175 270 L 177 270 L 177 273 L 178 273 L 178 270 L 180 270 L 180 269 L 178 263 L 177 263 z M 89.5 264 C 86.344445 264 86.181035 269.36981 89 269.94336 L 89 274 L 90 274 L 90 269.94336 C 92.818965 269.36981 92.655555 264 89.5 264 z M 177.5 264 L 179 269 L 176 269 L 177.5 264 z M 359.5 264 C 356.34445 264 356.18104 269.36981 359 269.94336 L 359 274 L 360 274 L 360 269.94336 C 362.81896 269.36981 362.65555 264 359.5 264 z M 89.5 265 C 91.499999 265 91.499999 269 89.5 269 C 87.500001 269 87.500001 265 89.5 265 z M 359.5 265 C 361.5 265 361.5 269 359.5 269 C 357.5 269 357.5 265 359.5 265 z M 487.5 266 C 484.34445 266 484.18104 271.36981 487 271.94336 L 487 276 L 488 276 L 488 271.94336 C 490.81896 271.36981 490.65555 266 487.5 266 z M 487.5 267 C 489.5 267 489.5 271 487.5 271 C 485.5 271 485.5 267 487.5 267 z M 323.5 272 C 320.34445 272 320.18104 277.36981 323 277.94336 L 323 282 L 324 282 L 324 277.94336 C 326.81896 277.36981 326.65555 272 323.5 272 z M 323.5 273 C 325.5 273 325.5 277 323.5 277 C 321.5 277 321.5 273 323.5 273 z M 260.5 275 C 257.34445 275 257.18104 280.36981 260 280.94336 L 260 285 L 261 285 L 261 280.94336 C 263.81896 280.36981 263.65555 275 260.5 275 z M 416 275 L 414 281 L 414 282 L 416 282 L 416 285 L 417 285 L 417 282 L 419 282 L 419 281 L 417 275 L 416 275 z M 260.5 276 C 262.5 276 262.5 280 260.5 280 C 258.5 280 258.5 276 260.5 276 z M 416.5 276 L 418 281 L 415 281 L 416.5 276 z M 115 279 L 113 285 L 113 286 L 115 286 L 115 289 L 116 289 L 116 286 L 118 286 L 118 285 L 116 279 L 115 279 z M 115.5 280 L 117 285 L 114 285 L 115.5 280 z M 386.5 280 C 383.34445 280 383.18104 285.36981 386 285.94336 L 386 290 L 387 290 L 387 285.94336 C 389.81896 285.36981 389.65555 280 386.5 280 z M 149.5 281 C 146.34445 281 146.18104 286.36981 149 286.94336 L 149 291 L 150 291 L 150 286.94336 C 152.81896 286.36981 152.65555 281 149.5 281 z M 386.5 281 C 388.5 281 388.5 285 386.5 285 C 384.5 285 384.5 281 386.5 281 z M 62 282 L 60 288 L 60 289 L 62 289 L 62 292 L 63 292 L 63 289 L 65 289 L 65 288 L 63 282 L 62 282 z M 149.5 282 C 151.5 282 151.5 286 149.5 286 C 147.5 286 147.5 282 149.5 282 z M 445 282 L 443 288 L 443 289 L 445 289 L 445 292 L 446 292 L 446 289 L 448 289 L 448 288 L 446 282 L 445 282 z M 62.5 283 L 64 288 L 61 288 L 62.5 283 z M 445.5 283 L 447 288 L 444 288 L 445.5 283 z M 200.5 284 C 197.34445 284 197.18104 289.36981 200 289.94336 L 200 294 L 201 294 L 201 289.94336 C 203.81896 289.36981 203.65555 284 200.5 284 z M 200.5 285 C 202.5 285 202.5 289 200.5 289 C 198.5 289 198.5 285 200.5 285 z M 237 285 L 235 291 L 235 292 L 237 292 L 237 295 L 238 295 L 238 292 L 240 292 L 240 291 L 238 285 L 237 285 z M 237.5 286 L 239 291 L 236 291 L 237.5 286 z M 30.5 287 C 27.344445 287 27.181035 292.36981 30 292.94336 L 30 297 L 31 297 L 31 292.94336 C 33.818965 292.36981 33.655555 287 30.5 287 z M 475 287 L 473 293 L 473 294 L 475 294 L 475 297 L 476 297 L 476 294 L 478 294 L 478 293 L 476 287 L 475 287 z M 30.5 288 C 32.499999 288 32.499999 292 30.5 292 C 28.500001 292 28.500001 288 30.5 288 z M 475.5 288 L 477 293 L 474 293 L 475.5 288 z M 356 289 L 354 295 L 354 296 L 356 296 L 356 299 L 357 299 L 357 296 L 359 296 L 359 295 L 357 289 L 356 289 z M 511.5 289 C 508.34445 289 508.18104 294.36981 511 294.94336 L 511 299 L 512 299 L 512 294.94336 L 512 293.89258 C 511.8486 293.95533 511.68599 294 511.5 294 C 509.5 294 509.5 290 511.5 290 C 511.68599 290 511.8486 290.04467 512 290.10742 L 512 289.05664 C 511.84119 289.02433 511.67778 289 511.5 289 z M 0 289.05664 L 0 290.10742 C 1.3252166 290.6567 1.3252166 293.3433 0 293.89258 L 0 294.94336 C 2.6601507 294.40212 2.6601507 289.59788 0 289.05664 z M 356.5 290 L 358 295 L 355 295 L 356.5 290 z M 284.5 295 C 281.34445 295 281.18104 300.36981 284 300.94336 L 284 305 L 285 305 L 285 300.94336 C 287.81896 300.36981 287.65555 295 284.5 295 z M 284.5 296 C 286.5 296 286.5 300 284.5 300 C 282.5 300 282.5 296 284.5 296 z M 87 297 L 85 303 L 85 304 L 87 304 L 87 307 L 88 307 L 88 304 L 90 304 L 90 303 L 88 297 L 87 297 z M 87.5 298 L 89 303 L 86 303 L 87.5 298 z M 174.5 298 C 171.34445 298 171.18104 303.36981 174 303.94336 L 174 308 L 175 308 L 175 303.94336 C 177.81896 303.36981 177.65555 298 174.5 298 z M 174.5 299 C 176.5 299 176.5 303 174.5 303 C 172.5 303 172.5 299 174.5 299 z M 307 301 L 305 307 L 305 308 L 307 308 L 307 311 L 308 311 L 308 308 L 310 308 L 310 307 L 308 301 L 307 301 z M 307.5 302 L 309 307 L 306 307 L 307.5 302 z M 334.5 304 C 331.34445 304 331.18104 309.36981 334 309.94336 L 334 314 L 335 314 L 335 309.94336 C 337.81896 309.36981 337.65555 304 334.5 304 z M 334.5 305 C 336.5 305 336.5 309 334.5 309 C 332.5 309 332.5 305 334.5 305 z M 425 305 L 423 311 L 423 312 L 425 312 L 425 315 L 426 315 L 426 312 L 428 312 L 428 311 L 426 305 L 425 305 z M 425.5 306 L 427 311 L 424 311 L 425.5 306 z M 141 310 L 139 316 L 139 317 L 141 317 L 141 320 L 142 320 L 142 317 L 144 317 L 144 316 L 142 310 L 141 310 z M 222.5 310 C 219.34445 310 219.18104 315.36981 222 315.94336 L 222 320 L 223 320 L 223 315.94336 C 225.81896 315.36981 225.65555 310 222.5 310 z M 259 310 L 257 316 L 257 317 L 259 317 L 259 320 L 260 320 L 260 317 L 262 317 L 262 316 L 260 310 L 259 310 z M 398 310 L 396 316 L 396 317 L 398 317 L 398 320 L 399 320 L 399 317 L 401 317 L 401 316 L 399 310 L 398 310 z M 111 311 L 109 317 L 109 318 L 111 318 L 111 321 L 112 321 L 112 318 L 114 318 L 114 317 L 112 311 L 111 311 z M 141.5 311 L 143 316 L 140 316 L 141.5 311 z M 222.5 311 C 224.5 311 224.5 315 222.5 315 C 220.5 315 220.5 311 222.5 311 z M 259.5 311 L 261 316 L 258 316 L 259.5 311 z M 398.5 311 L 400 316 L 397 316 L 398.5 311 z M 47.5 312 C 44.344445 312 44.181035 317.36981 47 317.94336 L 47 322 L 48 322 L 48 317.94336 C 50.818965 317.36981 50.655555 312 47.5 312 z M 111.5 312 L 113 317 L 110 317 L 111.5 312 z M 47.5 313 C 49.499999 313 49.499999 317 47.5 317 C 45.500001 317 45.500001 313 47.5 313 z M 494 313 L 492 319 L 492 320 L 494 320 L 494 323 L 495 323 L 495 320 L 497 320 L 497 319 L 495 313 L 494 313 z M 462 314 L 460 320 L 460 321 L 462 321 L 462 324 L 463 324 L 463 321 L 465 321 L 465 320 L 463 314 L 462 314 z M 494.5 314 L 496 319 L 493 319 L 494.5 314 z M 462.5 315 L 464 320 L 461 320 L 462.5 315 z M 200 316 L 198 322 L 198 323 L 200 323 L 200 326 L 201 326 L 201 323 L 203 323 L 203 322 L 201 316 L 200 316 z M 15.5 317 C 12.344445 317 12.181035 322.36981 15 322.94336 L 15 327 L 16 327 L 16 322.94336 C 18.818965 322.36981 18.655555 317 15.5 317 z M 200.5 317 L 202 322 L 199 322 L 200.5 317 z M 368.5 317 C 365.34445 317 365.18104 322.36981 368 322.94336 L 368 327 L 369 327 L 369 322.94336 C 371.81896 322.36981 371.65555 317 368.5 317 z M 15.5 318 C 17.499999 318 17.499999 322 15.5 322 C 13.500001 322 13.500001 318 15.5 318 z M 368.5 318 C 370.5 318 370.5 322 368.5 322 C 366.5 322 366.5 318 368.5 318 z M 78.5 330 C 75.344445 330 75.181035 335.36981 78 335.94336 L 78 340 L 79 340 L 79 335.94336 C 81.818965 335.36981 81.655555 330 78.5 330 z M 78.5 331 C 80.499999 331 80.499999 335 78.5 335 C 76.500001 335 76.500001 331 78.5 331 z M 175.5 332 C 172.34445 332 172.18104 337.36981 175 337.94336 L 175 342 L 176 342 L 176 337.94336 C 178.81896 337.36981 178.65555 332 175.5 332 z M 175.5 333 C 177.5 333 177.5 337 175.5 337 C 173.5 337 173.5 333 175.5 333 z M 281.5 334 C 278.34445 334 278.18104 339.36981 281 339.94336 L 281 344 L 282 344 L 282 339.94336 C 284.81896 339.36981 284.65555 334 281.5 334 z M 310 334 L 308 340 L 308 341 L 310 341 L 310 344 L 311 344 L 311 341 L 313 341 L 313 340 L 311 334 L 310 334 z M 281.5 335 C 283.5 335 283.5 339 281.5 339 C 279.5 339 279.5 335 281.5 335 z M 310.5 335 L 312 340 L 309 340 L 310.5 335 z M 340.5 335 C 337.34445 335 337.18104 340.36981 340 340.94336 L 340 345 L 341 345 L 341 340.94336 C 343.81896 340.36981 343.65555 335 340.5 335 z M 236.5 336 C 233.34445 336 233.18104 341.36981 236 341.94336 L 236 346 L 237 346 L 237 341.94336 C 239.81896 341.36981 239.65555 336 236.5 336 z M 340.5 336 C 342.5 336 342.5 340 340.5 340 C 338.5 340 338.5 336 340.5 336 z M 434.5 336 C 431.34445 336 431.18104 341.36981 434 341.94336 L 434 346 L 435 346 L 435 341.94336 C 437.81896 341.36981 437.65555 336 434.5 336 z M 127.5 337 C 124.34445 337 124.18104 342.36981 127 342.94336 L 127 347 L 128 347 L 128 342.94336 C 130.81896 342.36981 130.65555 337 127.5 337 z M 236.5 337 C 238.5 337 238.5 341 236.5 341 C 234.5 341 234.5 337 236.5 337 z M 434.5 337 C 436.5 337 436.5 341 434.5 341 C 432.5 341 432.5 337 434.5 337 z M 40.5 338 C 37.344445 338 37.181035 343.36981 40 343.94336 L 40 348 L 41 348 L 41 343.94336 C 43.818965 343.36981 43.655555 338 40.5 338 z M 127.5 338 C 129.5 338 129.5 342 127.5 342 C 125.5 342 125.5 338 127.5 338 z M 498 338 L 496 344 L 496 345 L 498 345 L 498 348 L 499 348 L 499 345 L 501 345 L 501 344 L 499 338 L 498 338 z M 40.5 339 C 42.499999 339 42.499999 343 40.5 343 C 38.500001 343 38.500001 339 40.5 339 z M 404 339 L 402 345 L 402 346 L 404 346 L 404 349 L 405 349 L 405 346 L 407 346 L 407 345 L 405 339 L 404 339 z M 498.5 339 L 500 344 L 497 344 L 498.5 339 z M 404.5 340 L 406 345 L 403 345 L 404.5 340 z M 104 342 L 102 348 L 102 349 L 104 349 L 104 352 L 105 352 L 105 349 L 107 349 L 107 348 L 105 342 L 104 342 z M 104.5 343 L 106 348 L 103 348 L 104.5 343 z M 468.5 343 C 465.34445 343 465.18104 348.36981 468 348.94336 L 468 353 L 469 353 L 469 348.94336 C 471.81896 348.36981 471.65555 343 468.5 343 z M 374 344 L 372 350 L 372 351 L 374 351 L 374 354 L 375 354 L 375 351 L 377 351 L 377 350 L 375 344 L 374 344 z M 468.5 344 C 470.5 344 470.5 348 468.5 348 C 466.5 348 466.5 344 468.5 344 z M 150.5 345 C 147.34445 345 147.18104 350.36981 150 350.94336 L 150 355 L 151 355 L 151 350.94336 C 153.81896 350.36981 153.65555 345 150.5 345 z M 374.5 345 L 376 350 L 373 350 L 374.5 345 z M 150.5 346 C 152.5 346 152.5 350 150.5 350 C 148.5 350 148.5 346 150.5 346 z M 257.5 346 C 254.34445 346 254.18104 351.36981 257 351.94336 L 257 356 L 258 356 L 258 351.94336 C 260.81896 351.36981 260.65555 346 257.5 346 z M 208.5 347 C 205.34445 347 205.18104 352.36981 208 352.94336 L 208 357 L 209 357 L 209 352.94336 C 211.81896 352.36981 211.65555 347 208.5 347 z M 257.5 347 C 259.5 347 259.5 351 257.5 351 C 255.5 351 255.5 347 257.5 347 z M 208.5 348 C 210.5 348 210.5 352 208.5 352 C 206.5 352 206.5 348 208.5 348 z M 17 350 L 15 356 L 15 357 L 17 357 L 17 360 L 18 360 L 18 357 L 20 357 L 20 356 L 18 350 L 17 350 z M 17.5 351 L 19 356 L 16 356 L 17.5 351 z M 66.5 357 C 63.344445 357 63.181035 362.36981 66 362.94336 L 66 367 L 67 367 L 67 362.94336 C 69.818965 362.36981 69.655555 357 66.5 357 z M 66.5 358 C 68.499999 358 68.499999 362 66.5 362 C 64.500001 362 64.500001 358 66.5 358 z M 281 360 L 279 366 L 279 367 L 281 367 L 281 370 L 282 370 L 282 367 L 284 367 L 284 366 L 282 360 L 281 360 z M 281.5 361 L 283 366 L 280 366 L 281.5 361 z M 177 362 L 175 368 L 175 369 L 177 369 L 177 372 L 178 372 L 178 369 L 180 369 L 180 368 L 178 362 L 177 362 z M 177.5 363 L 179 368 L 176 368 L 177.5 363 z M 318 364 L 316 370 L 316 371 L 318 371 L 318 374 L 319 374 L 319 371 L 321 371 L 321 370 L 319 364 L 318 364 z M 318.5 365 L 320 370 L 317 370 L 318.5 365 z M 440 365 L 438 371 L 438 372 L 440 372 L 440 375 L 441 375 L 441 372 L 443 372 L 443 371 L 441 365 L 440 365 z M 440.5 366 L 442 371 L 439 371 L 440.5 366 z M 346.5 367 C 343.34445 367 343.18104 372.36981 346 372.94336 L 346 377 L 347 377 L 347 372.94336 C 349.81896 372.36981 349.65555 367 346.5 367 z M 346.5 368 C 348.5 368 348.5 372 346.5 372 C 344.5 372 344.5 368 346.5 368 z M 410.5 369 C 407.34445 369 407.18104 374.36981 410 374.94336 L 410 379 L 411 379 L 411 374.94336 C 413.81896 374.36981 413.65555 369 410.5 369 z M 410.5 370 C 412.5 370 412.5 374 410.5 374 C 408.5 374 408.5 370 410.5 370 z M 490 370 L 488 376 L 488 377 L 490 377 L 490 380 L 491 380 L 491 377 L 493 377 L 493 376 L 491 370 L 490 370 z M 490.5 371 L 492 376 L 489 376 L 490.5 371 z M 230 372 L 228 378 L 228 379 L 230 379 L 230 382 L 231 382 L 231 379 L 233 379 L 233 378 L 231 372 L 230 372 z M 381.5 372 C 378.34445 372 378.18104 377.36981 381 377.94336 L 381 382 L 382 382 L 382 377.94336 C 384.81896 377.36981 384.65555 372 381.5 372 z M 94.5 373 C 91.344445 373 91.181035 378.36981 94 378.94336 L 94 383 L 95 383 L 95 378.94336 C 97.818965 378.36981 97.655555 373 94.5 373 z M 126 373 L 124 379 L 124 380 L 126 380 L 126 383 L 127 383 L 127 380 L 129 380 L 129 379 L 127 373 L 126 373 z M 230.5 373 L 232 378 L 229 378 L 230.5 373 z M 381.5 373 C 383.5 373 383.5 377 381.5 377 C 379.5 377 379.5 373 381.5 373 z M 94.5 374 C 96.499999 374 96.499999 378 94.5 378 C 92.500001 378 92.500001 374 94.5 374 z M 126.5 374 L 128 379 L 125 379 L 126.5 374 z M 38.5 375 C 35.344445 375 35.181035 380.36981 38 380.94336 L 38 385 L 39 385 L 39 380.94336 C 41.818965 380.36981 41.655555 375 38.5 375 z M 38.5 376 C 40.499999 376 40.499999 380 38.5 380 C 36.500001 380 36.500001 376 38.5 376 z M 6 378 L 4 384 L 4 385 L 6 385 L 6 388 L 7 388 L 7 385 L 9 385 L 9 384 L 7 378 L 6 378 z M 462 378 L 460 384 L 460 385 L 462 385 L 462 388 L 463 388 L 463 385 L 465 385 L 465 384 L 463 378 L 462 378 z M 6.5 379 L 8 384 L 5 384 L 6.5 379 z M 292.5 379 C 289.34445 379 289.18104 384.36981 292 384.94336 L 292 389 L 293 389 L 293 384.94336 C 295.81896 384.36981 295.65555 379 292.5 379 z M 462.5 379 L 464 384 L 461 384 L 462.5 379 z M 292.5 380 C 294.5 380 294.5 384 292.5 384 C 290.5 384 290.5 380 292.5 380 z M 155.5 381 C 152.34445 381 152.18104 386.36981 155 386.94336 L 155 391 L 156 391 L 156 386.94336 C 158.81896 386.36981 158.65555 381 155.5 381 z M 206 381 L 204 387 L 204 388 L 206 388 L 206 391 L 207 391 L 207 388 L 209 388 L 209 387 L 207 381 L 206 381 z M 155.5 382 C 157.5 382 157.5 386 155.5 386 C 153.5 386 153.5 382 155.5 382 z M 206.5 382 L 208 387 L 205 387 L 206.5 382 z M 65 392 L 63 398 L 63 399 L 65 399 L 65 402 L 66 402 L 66 399 L 68 399 L 68 398 L 66 392 L 65 392 z M 65.5 393 L 67 398 L 64 398 L 65.5 393 z M 369.5 394 C 366.34445 394 366.18104 399.36981 369 399.94336 L 369 404 L 370 404 L 370 399.94336 C 372.81896 399.36981 372.65555 394 369.5 394 z M 246.5 395 C 243.34445 395 243.18104 400.36981 246 400.94336 L 246 405 L 247 405 L 247 400.94336 C 249.81896 400.36981 249.65555 395 246.5 395 z M 369.5 395 C 371.5 395 371.5 399 369.5 399 C 367.5 399 367.5 395 369.5 395 z M 182.5 396 C 179.34445 396 179.18104 401.36981 182 401.94336 L 182 406 L 183 406 L 183 401.94336 C 185.81896 401.36981 185.65555 396 182.5 396 z M 246.5 396 C 248.5 396 248.5 400 246.5 400 C 244.5 400 244.5 396 246.5 396 z M 337.5 396 C 334.34445 396 334.18104 401.36981 337 401.94336 L 337 406 L 338 406 L 338 401.94336 C 340.81896 401.36981 340.65555 396 337.5 396 z M 182.5 397 C 184.5 397 184.5 401 182.5 401 C 180.5 401 180.5 397 182.5 397 z M 337.5 397 C 339.5 397 339.5 401 337.5 401 C 335.5 401 335.5 397 337.5 397 z M 307 398 L 305 404 L 305 405 L 307 405 L 307 408 L 308 408 L 308 405 L 310 405 L 310 404 L 308 398 L 307 398 z M 433.5 398 C 430.34445 398 430.18104 403.36981 433 403.94336 L 433 408 L 434 408 L 434 403.94336 C 436.81896 403.36981 436.65555 398 433.5 398 z M 307.5 399 L 309 404 L 306 404 L 307.5 399 z M 433.5 399 C 435.5 399 435.5 403 433.5 403 C 431.5 403 431.5 399 433.5 399 z M 118 400 L 116 406 L 116 407 L 118 407 L 118 410 L 119 410 L 119 407 L 121 407 L 121 406 L 119 400 L 118 400 z M 34.5 401 C 31.344445 401 31.181035 406.36981 34 406.94336 L 34 411 L 35 411 L 35 406.94336 C 37.818965 406.36981 37.655555 401 34.5 401 z M 118.5 401 L 120 406 L 117 406 L 118.5 401 z M 34.5 402 C 36.499999 402 36.499999 406 34.5 406 C 32.500001 406 32.500001 402 34.5 402 z M 401.5 402 C 398.34445 402 398.18104 407.36981 401 407.94336 L 401 412 L 402 412 L 402 407.94336 C 404.81896 407.36981 404.65555 402 401.5 402 z M 492.5 402 C 489.34445 402 489.18104 407.36981 492 407.94336 L 492 412 L 493 412 L 493 407.94336 C 495.81896 407.36981 495.65555 402 492.5 402 z M 401.5 403 C 403.5 403 403.5 407 401.5 407 C 399.5 407 399.5 403 401.5 403 z M 492.5 403 C 494.5 403 494.5 407 492.5 407 C 490.5 407 490.5 403 492.5 403 z M 87.5 404 C 84.344445 404 84.181035 409.36981 87 409.94336 L 87 414 L 88 414 L 88 409.94336 C 90.818965 409.36981 90.655555 404 87.5 404 z M 272.5 404 C 269.34445 404 269.18104 409.36981 272 409.94336 L 272 414 L 273 414 L 273 409.94336 C 275.81896 409.36981 275.65555 404 272.5 404 z M 87.5 405 C 89.499999 405 89.499999 409 87.5 409 C 85.500001 409 85.500001 405 87.5 405 z M 272.5 405 C 274.5 405 274.5 409 272.5 409 C 270.5 409 270.5 405 272.5 405 z M 462 407 L 460 413 L 460 414 L 462 414 L 462 417 L 463 417 L 463 414 L 465 414 L 465 413 L 463 407 L 462 407 z M 462.5 408 L 464 413 L 461 413 L 462.5 408 z M 149 409 L 147 415 L 147 416 L 149 416 L 149 419 L 150 419 L 150 416 L 152 416 L 152 415 L 150 409 L 149 409 z M 149.5 410 L 151 415 L 148 415 L 149.5 410 z M 220 410 L 218 416 L 218 417 L 220 417 L 220 420 L 221 420 L 221 417 L 223 417 L 223 416 L 221 410 L 220 410 z M 220.5 411 L 222 416 L 219 416 L 220.5 411 z M 6 413 L 4 419 L 4 420 L 6 420 L 6 423 L 7 423 L 7 420 L 9 420 L 9 419 L 7 413 L 6 413 z M 6.5 414 L 8 419 L 5 419 L 6.5 414 z M 187.5 420 C 184.34445 420 184.18104 425.36981 187 425.94336 L 187 430 L 188 430 L 188 425.94336 C 190.81896 425.36981 190.65555 420 187.5 420 z M 187.5 421 C 189.5 421 189.5 425 187.5 425 C 185.5 425 185.5 421 187.5 421 z M 342.5 423 C 339.34445 423 339.18104 428.36981 342 428.94336 L 342 433 L 343 433 L 343 428.94336 C 345.81896 428.36981 345.65555 423 342.5 423 z M 342.5 424 C 344.5 424 344.5 428 342.5 428 C 340.5 428 340.5 424 342.5 424 z M 375 425 L 373 431 L 373 432 L 375 432 L 375 435 L 376 435 L 376 432 L 378 432 L 378 431 L 376 425 L 375 425 z M 375.5 426 L 377 431 L 374 431 L 375.5 426 z M 102.5 427 C 99.344445 427 99.181035 432.36981 102 432.94336 L 102 437 L 103 437 L 103 432.94336 C 105.81896 432.36981 105.65555 427 102.5 427 z M 282.5 427 C 279.34445 427 279.18104 432.36981 282 432.94336 L 282 437 L 283 437 L 283 432.94336 C 285.81896 432.36981 285.65555 427 282.5 427 z M 102.5 428 C 104.5 428 104.5 432 102.5 432 C 100.5 432 100.5 428 102.5 428 z M 251.5 428 C 248.34445 428 248.18104 433.36981 251 433.94336 L 251 438 L 252 438 L 252 433.94336 C 254.81896 433.36981 254.65555 428 251.5 428 z M 282.5 428 C 284.5 428 284.5 432 282.5 432 C 280.5 432 280.5 428 282.5 428 z M 251.5 429 C 253.5 429 253.5 433 251.5 433 C 249.5 433 249.5 429 251.5 429 z M 315 429 L 313 435 L 313 436 L 315 436 L 315 439 L 316 439 L 316 436 L 318 436 L 318 435 L 316 429 L 315 429 z M 434.5 429 C 431.34445 429 431.18104 434.36981 434 434.94336 L 434 439 L 435 439 L 435 434.94336 C 437.81896 434.36981 437.65555 429 434.5 429 z M 73.5 430 C 70.344445 430 70.181035 435.36981 73 435.94336 L 73 440 L 74 440 L 74 435.94336 C 76.818965 435.36981 76.655555 430 73.5 430 z M 315.5 430 L 317 435 L 314 435 L 315.5 430 z M 434.5 430 C 436.5 430 436.5 434 434.5 434 C 432.5 434 432.5 430 434.5 430 z M 73.5 431 C 75.499999 431 75.499999 435 73.5 435 C 71.500001 435 71.500001 431 73.5 431 z M 406.5 431 C 403.34445 431 403.18104 436.36981 406 436.94336 L 406 441 L 407 441 L 407 436.94336 C 409.81896 436.36981 409.65555 431 406.5 431 z M 40 432 L 38 438 L 38 439 L 40 439 L 40 442 L 41 442 L 41 439 L 43 439 L 43 438 L 41 432 L 40 432 z M 406.5 432 C 408.5 432 408.5 436 406.5 436 C 404.5 436 404.5 432 406.5 432 z M 40.5 433 L 42 438 L 39 438 L 40.5 433 z M 491.5 434 C 488.34445 434 488.18104 439.36981 491 439.94336 L 491 444 L 492 444 L 492 439.94336 C 494.81896 439.36981 494.65555 434 491.5 434 z M 491.5 435 C 493.5 435 493.5 439 491.5 439 C 489.5 439 489.5 435 491.5 435 z M 133 437 L 131 443 L 131 444 L 133 444 L 133 447 L 134 447 L 134 444 L 136 444 L 136 443 L 134 437 L 133 437 z M 133.5 438 L 135 443 L 132 443 L 133.5 438 z M 212 439 L 210 445 L 210 446 L 212 446 L 212 449 L 213 449 L 213 446 L 215 446 L 215 445 L 213 439 L 212 439 z M 212.5 440 L 214 445 L 211 445 L 212.5 440 z M 10 441 L 8 447 L 8 448 L 10 448 L 10 451 L 11 451 L 11 448 L 13 448 L 13 447 L 11 441 L 10 441 z M 10.5 442 L 12 447 L 9 447 L 10.5 442 z M 165 442 L 163 448 L 163 449 L 165 449 L 165 452 L 166 452 L 166 449 L 168 449 L 168 448 L 166 442 L 165 442 z M 461.5 442 C 458.34445 442 458.18104 447.36981 461 447.94336 L 461 452 L 462 452 L 462 447.94336 C 464.81896 447.36981 464.65555 442 461.5 442 z M 165.5 443 L 167 448 L 164 448 L 165.5 443 z M 461.5 443 C 463.5 443 463.5 447 461.5 447 C 459.5 447 459.5 443 461.5 443 z M 398.5 451 C 395.34445 451 395.18104 456.36981 398 456.94336 L 398 461 L 399 461 L 399 456.94336 C 401.81896 456.36981 401.65555 451 398.5 451 z M 398.5 452 C 400.5 452 400.5 456 398.5 456 C 396.5 456 396.5 452 398.5 452 z M 274 453 L 272 459 L 272 460 L 274 460 L 274 463 L 275 463 L 275 460 L 277 460 L 277 459 L 275 453 L 274 453 z M 274.5 454 L 276 459 L 273 459 L 274.5 454 z M 338.5 454 C 335.34445 454 335.18104 459.36981 338 459.94336 L 338 464 L 339 464 L 339 459.94336 C 341.81896 459.36981 341.65555 454 338.5 454 z M 69.5 455 C 66.344445 455 66.181035 460.36981 69 460.94336 L 69 465 L 70 465 L 70 460.94336 C 72.818965 460.36981 72.655555 455 69.5 455 z M 338.5 455 C 340.5 455 340.5 459 338.5 459 C 336.5 459 336.5 455 338.5 455 z M 69.5 456 C 71.499999 456 71.499999 460 69.5 460 C 67.500001 460 67.500001 456 69.5 456 z M 367 456 L 365 462 L 365 463 L 367 463 L 367 466 L 368 466 L 368 463 L 370 463 L 370 462 L 368 456 L 367 456 z M 367.5 457 L 369 462 L 366 462 L 367.5 457 z M 121.5 458 C 118.34445 458 118.18104 463.36981 121 463.94336 L 121 468 L 122 468 L 122 463.94336 C 124.81896 463.36981 124.65555 458 121.5 458 z M 121.5 459 C 123.5 459 123.5 463 121.5 463 C 119.5 463 119.5 459 121.5 459 z M 190 459 L 188 465 L 188 466 L 190 466 L 190 469 L 191 469 L 191 466 L 193 466 L 193 465 L 191 459 L 190 459 z M 239 459 L 237 465 L 237 466 L 239 466 L 239 469 L 240 469 L 240 466 L 242 466 L 242 465 L 240 459 L 239 459 z M 190.5 460 L 192 465 L 189 465 L 190.5 460 z M 239.5 460 L 241 465 L 238 465 L 239.5 460 z M 48 461 L 46 467 L 46 468 L 48 468 L 48 471 L 49 471 L 49 468 L 51 468 L 51 467 L 49 461 L 48 461 z M 48.5 462 L 50 467 L 47 467 L 48.5 462 z M 303 464 L 301 470 L 301 471 L 303 471 L 303 474 L 304 474 L 304 471 L 306 471 L 306 470 L 304 464 L 303 464 z M 303.5 465 L 305 470 L 302 470 L 303.5 465 z M 437.5 465 C 434.34445 465 434.18104 470.36981 437 470.94336 L 437 475 L 438 475 L 438 470.94336 C 440.81896 470.36981 440.65555 465 437.5 465 z M 499 465 L 497 471 L 497 472 L 499 472 L 499 475 L 500 475 L 500 472 L 502 472 L 502 471 L 500 465 L 499 465 z M 437.5 466 C 439.5 466 439.5 470 437.5 470 C 435.5 470 435.5 466 437.5 466 z M 499.5 466 L 501 471 L 498 471 L 499.5 466 z M 152 468 L 150 474 L 150 475 L 152 475 L 152 478 L 153 478 L 153 475 L 155 475 L 155 474 L 153 468 L 152 468 z M 152.5 469 L 154 474 L 151 474 L 152.5 469 z M 93 470 L 91 476 L 91 477 L 93 477 L 93 480 L 94 480 L 94 477 L 96 477 L 96 476 L 94 470 L 93 470 z M 93.5 471 L 95 476 L 92 476 L 93.5 471 z M 471.5 471 C 468.34445 471 468.18104 476.36981 471 476.94336 L 471 481 L 472 481 L 472 476.94336 C 474.81896 476.36981 474.65555 471 471.5 471 z M 408 472 L 406 478 L 406 479 L 408 479 L 408 482 L 409 482 L 409 479 L 411 479 L 411 478 L 409 472 L 408 472 z M 471.5 472 C 473.5 472 473.5 476 471.5 476 C 469.5 476 469.5 472 471.5 472 z M 408.5 473 L 410 478 L 407 478 L 408.5 473 z M 27 474 L 25 480 L 25 481 L 27 481 L 27 484 L 28 484 L 28 481 L 30 481 L 30 480 L 28 474 L 27 474 z M 27.5 475 L 29 480 L 26 480 L 27.5 475 z M 215 475 L 213 481 L 213 482 L 215 482 L 215 485 L 216 485 L 216 482 L 218 482 L 218 481 L 216 475 L 215 475 z M 215.5 476 L 217 481 L 214 481 L 215.5 476 z M 257.5 483 C 254.34445 483 254.18104 488.36981 257 488.94336 L 257 493 L 258 493 L 258 488.94336 C 260.81896 488.36981 260.65555 483 257.5 483 z M 349.5 483 C 346.34445 483 346.18104 488.36981 349 488.94336 L 349 493 L 350 493 L 350 488.94336 C 352.81896 488.36981 352.65555 483 349.5 483 z M 180.5 484 C 177.34445 484 177.18104 489.36981 180 489.94336 L 180 494 L 181 494 L 181 489.94336 C 183.81896 489.36981 183.65555 484 180.5 484 z M 257.5 484 C 259.5 484 259.5 488 257.5 488 C 255.5 488 255.5 484 257.5 484 z M 349.5 484 C 351.5 484 351.5 488 349.5 488 C 347.5 488 347.5 484 349.5 484 z M 180.5 485 C 182.5 485 182.5 489 180.5 489 C 178.5 489 178.5 485 180.5 485 z M 285 486 L 283 492 L 283 493 L 285 493 L 285 496 L 286 496 L 286 493 L 288 493 L 288 492 L 286 486 L 285 486 z M 285.5 487 L 287 492 L 284 492 L 285.5 487 z M 12.5 489 C 9.3444448 489 9.1810354 494.36981 12 494.94336 L 12 499 L 13 499 L 13 494.94336 C 15.818965 494.36981 15.655555 489 12.5 489 z M 116.5 489 C 113.34445 489 113.18104 494.36981 116 494.94336 L 116 499 L 117 499 L 117 494.94336 C 119.81896 494.36981 119.65555 489 116.5 489 z M 379 489 L 377 495 L 377 496 L 379 496 L 379 499 L 380 499 L 380 496 L 382 496 L 382 495 L 380 489 L 379 489 z M 12.5 490 C 14.499999 490 14.499999 494 12.5 494 C 10.500001 494 10.500001 490 12.5 490 z M 116.5 490 C 118.5 490 118.5 494 116.5 494 C 114.5 494 114.5 490 116.5 490 z M 379.5 490 L 381 495 L 378 495 L 379.5 490 z M 320 493 L 318 499 L 318 500 L 320 500 L 320 503 L 321 503 L 321 500 L 323 500 L 323 499 L 321 493 L 320 493 z M 74 494 L 72 500 L 72 501 L 74 501 L 74 504 L 75 504 L 75 501 L 77 501 L 77 500 L 75 494 L 74 494 z M 320.5 494 L 322 499 L 319 499 L 320.5 494 z M 45.5 495 C 42.344445 495 42.181035 500.36981 45 500.94336 L 45 505 L 46 505 L 46 500.94336 C 48.818965 500.36981 48.655555 495 45.5 495 z M 74.5 495 L 76 500 L 73 500 L 74.5 495 z M 45.5 496 C 47.499999 496 47.499999 500 45.5 500 C 43.500001 500 43.500001 496 45.5 496 z M 234.5 496 C 231.34445 496 231.18104 501.36981 234 501.94336 L 234 506 L 235 506 L 235 501.94336 C 237.81896 501.36981 237.65555 496 234.5 496 z M 442.5 496 C 439.34445 496 439.18104 501.36981 442 501.94336 L 442 506 L 443 506 L 443 501.94336 C 445.81896 501.36981 445.65555 496 442.5 496 z M 234.5 497 C 236.5 497 236.5 501 234.5 501 C 232.5 501 232.5 497 234.5 497 z M 442.5 497 C 444.5 497 444.5 501 442.5 501 C 440.5 501 440.5 497 442.5 497 z M 490.5 497 C 487.34445 497 487.18104 502.36981 490 502.94336 L 490 507 L 491 507 L 491 502.94336 C 493.81896 502.36981 493.65555 497 490.5 497 z M 153 498 L 151 504 L 151 505 L 153 505 L 153 508 L 154 508 L 154 505 L 156 505 L 156 504 L 154 498 L 153 498 z M 414 498 L 412 504 L 412 505 L 414 505 L 414 508 L 415 508 L 415 505 L 417 505 L 417 504 L 415 498 L 414 498 z M 490.5 498 C 492.5 498 492.5 502 490.5 502 C 488.5 502 488.5 498 490.5 498 z M 153.5 499 L 155 504 L 152 504 L 153.5 499 z M 414.5 499 L 416 504 L 413 504 L 414.5 499 z M 129.5 510 C 128.21107 510 127.42689 510.89955 127.13477 512 L 128.18555 512 C 128.41251 511.42726 128.84823 511 129.5 511 C 130.15177 511 130.58749 511.42726 130.81445 512 L 131.86523 512 C 131.57311 510.89955 130.78893 510 129.5 510 z M 200.5 510 C 199.21107 510 198.42689 510.89955 198.13477 512 L 199.18555 512 C 199.41251 511.42726 199.84823 511 200.5 511 C 201.15177 511 201.58749 511.42726 201.81445 512 L 202.86523 512 C 202.57311 510.89955 201.78893 510 200.5 510 z M 5 511 L 4.6660156 512 L 5.5 512 L 6.3339844 512 L 6 511 L 5 511 z "
     style="fill:#6b8d5e" />
  <desc
     id="desc921">Created with Snap</desc>
</svg>
