<?xml version="1.0" encoding="UTF-8" standalone="no"?>
<svg
   xmlns:dc="http://purl.org/dc/elements/1.1/"
   xmlns:cc="http://creativecommons.org/ns#"
   xmlns:rdf="http://www.w3.org/1999/02/22-rdf-syntax-ns#"
   xmlns:svg="http://www.w3.org/2000/svg"
   xmlns="http://www.w3.org/2000/svg"
   version="1.1"
   height="256"
   width="256"
   id="Svg">
  <metadata
     id="metadata345">
    <rdf:RDF>
      <cc:Work
         rdf:about="">
        <dc:format>image/svg+xml</dc:format>
        <dc:type
           rdf:resource="http://purl.org/dc/dcmitype/StillImage" />
      </cc:Work>
    </rdf:RDF>
  </metadata>
  <defs
     id="defs3" />
  <path
     id="path6198"
     d="M 153 0 L 153 2 L 154 2 L 154 0 L 153 0 z M 158 0 L 158 2 L 159 2 L 159 0 L 158 0 z M 115 4 L 113 10 L 113 11 L 115 11 L 115 14 L 116 14 L 116 11 L 118 11 L 118 10 L 116 4 L 115 4 z M 120.5 4 A 2.5 3 0 0 0 120 9.9375 L 120 14 L 121 14 L 121 9.9355469 A 2.5 3 0 0 0 120.5 4 z M 115.5 5 L 117 10 L 114 10 L 115.5 5 z M 120.5 5 A 1.5 2 0 0 1 120.5 9 A 1.5 2 0 0 1 120.5 5 z M 49 6 L 47 12 L 47 13 L 49 13 L 49 16 L 50 16 L 50 13 L 52 13 L 52 12 L 50 6 L 49 6 z M 54.5 6 A 2.5 3 0 0 0 54 11.9375 L 54 16 L 55 16 L 55 11.935547 A 2.5 3 0 0 0 54.5 6 z M 49.5 7 L 51 12 L 48 12 L 49.5 7 z M 54.5 7 A 1.5 2 0 0 1 54.5 11 A 1.5 2 0 0 1 54.5 7 z M 12 11 L 10 17 L 10 18 L 12 18 L 12 21 L 13 21 L 13 18 L 15 18 L 15 17 L 13 11 L 12 11 z M 17.5 11 A 2.5 3 0 0 0 17 16.9375 L 17 21 L 18 21 L 18 16.935547 A 2.5 3 0 0 0 17.5 11 z M 12.5 12 L 14 17 L 11 17 L 12.5 12 z M 17.5 12 A 1.5 2 0 0 1 17.5 16 A 1.5 2 0 0 1 17.5 12 z M 214.5 12 A 2.5 3 0 0 0 214 17.9375 L 214 22 L 215 22 L 215 17.935547 A 2.5 3 0 0 0 214.5 12 z M 219 12 L 217 18 L 217 19 L 219 19 L 219 22 L 220 22 L 220 19 L 222 19 L 222 18 L 220 12 L 219 12 z M 214.5 13 A 1.5 2 0 0 1 214.5 17 A 1.5 2 0 0 1 214.5 13 z M 219.5 13 L 221 18 L 218 18 L 219.5 13 z M 177.5 18 A 2.5 3 0 0 0 177 23.9375 L 177 28 L 178 28 L 178 23.935547 A 2.5 3 0 0 0 177.5 18 z M 182 18 L 180 24 L 180 25 L 182 25 L 182 28 L 183 28 L 183 25 L 185 25 L 185 24 L 183 18 L 182 18 z M 75 19 L 73 25 L 73 26 L 75 26 L 75 29 L 76 29 L 76 26 L 78 26 L 78 25 L 76 19 L 75 19 z M 80.5 19 A 2.5 3 0 0 0 80 24.9375 L 80 29 L 81 29 L 81 24.935547 A 2.5 3 0 0 0 80.5 19 z M 177.5 19 A 1.5 2 0 0 1 177.5 23 A 1.5 2 0 0 1 177.5 19 z M 182.5 19 L 184 24 L 181 24 L 182.5 19 z M 75.5 20 L 77 25 L 74 25 L 75.5 20 z M 80.5 20 A 1.5 2 0 0 1 80.5 24 A 1.5 2 0 0 1 80.5 20 z M 136.5 22 A 2.5 3 0 0 0 136 27.9375 L 136 32 L 137 32 L 137 27.935547 A 2.5 3 0 0 0 136.5 22 z M 141 22 L 139 28 L 139 29 L 141 29 L 141 32 L 142 32 L 142 29 L 144 29 L 144 28 L 142 22 L 141 22 z M 136.5 23 A 1.5 2 0 0 1 136.5 27 A 1.5 2 0 0 1 136.5 23 z M 141.5 23 L 143 28 L 140 28 L 141.5 23 z M 240.5 28 A 2.5 3 0 0 0 240 33.9375 L 240 38 L 241 38 L 241 33.935547 A 2.5 3 0 0 0 240.5 28 z M 245 28 L 243 34 L 243 35 L 245 35 L 245 38 L 246 38 L 246 35 L 248 35 L 248 34 L 246 28 L 245 28 z M 240.5 29 A 1.5 2 0 0 1 240.5 33 A 1.5 2 0 0 1 240.5 29 z M 245.5 29 L 247 34 L 244 34 L 245.5 29 z M 44.5 39 A 2.5 3 0 0 0 44 44.9375 L 44 49 L 45 49 L 45 44.935547 A 2.5 3 0 0 0 44.5 39 z M 49 39 L 47 45 L 47 46 L 49 46 L 49 49 L 50 49 L 50 46 L 52 46 L 52 45 L 50 39 L 49 39 z M 44.5 40 A 1.5 2 0 0 1 44.5 44 A 1.5 2 0 0 1 44.5 40 z M 49.5 40 L 51 45 L 48 45 L 49.5 40 z M 112.5 41 A 2.5 3 0 0 0 112 46.9375 L 112 51 L 113 51 L 113 46.935547 A 2.5 3 0 0 0 112.5 41 z M 117 41 L 115 47 L 115 48 L 117 48 L 117 51 L 118 51 L 118 48 L 120 48 L 120 47 L 118 41 L 117 41 z M 112.5 42 A 1.5 2 0 0 1 112.5 46 A 1.5 2 0 0 1 112.5 42 z M 117.5 42 L 119 47 L 116 47 L 117.5 42 z M 155 44 L 153 50 L 153 51 L 155 51 L 155 54 L 156 54 L 156 51 L 158 51 L 158 50 L 156 44 L 155 44 z M 160.5 44 A 2.5 3 0 0 0 160 49.9375 L 160 54 L 161 54 L 161 49.935547 A 2.5 3 0 0 0 160.5 44 z M 155.5 45 L 157 50 L 154 50 L 155.5 45 z M 160.5 45 A 1.5 2 0 0 1 160.5 49 A 1.5 2 0 0 1 160.5 45 z M 219.5 46 A 2.5 3 0 0 0 219 51.9375 L 219 56 L 220 56 L 220 51.935547 A 2.5 3 0 0 0 219.5 46 z M 224 46 L 222 52 L 222 53 L 224 53 L 224 56 L 225 56 L 225 53 L 227 53 L 227 52 L 225 46 L 224 46 z M 219.5 47 A 1.5 2 0 0 1 219.5 51 A 1.5 2 0 0 1 219.5 47 z M 224.5 47 L 226 52 L 223 52 L 224.5 47 z M 73 48 L 71 54 L 71 55 L 73 55 L 73 58 L 74 58 L 74 55 L 76 55 L 76 54 L 74 48 L 73 48 z M 78.5 48 A 2.5 3 0 0 0 78 53.9375 L 78 58 L 79 58 L 79 53.935547 A 2.5 3 0 0 0 78.5 48 z M 9 49 L 7 55 L 7 56 L 9 56 L 9 59 L 10 59 L 10 56 L 12 56 L 12 55 L 10 49 L 9 49 z M 14.5 49 A 2.5 3 0 0 0 14 54.9375 L 14 59 L 15 59 L 15 54.935547 A 2.5 3 0 0 0 14.5 49 z M 73.5 49 L 75 54 L 72 54 L 73.5 49 z M 78.5 49 A 1.5 2 0 0 1 78.5 53 A 1.5 2 0 0 1 78.5 49 z M 9.5 50 L 11 55 L 8 55 L 9.5 50 z M 14.5 50 A 1.5 2 0 0 1 14.5 54 A 1.5 2 0 0 1 14.5 50 z M 181 53 L 179 59 L 179 60 L 181 60 L 181 63 L 182 63 L 182 60 L 184 60 L 184 59 L 182 53 L 181 53 z M 186.5 53 A 2.5 3 0 0 0 186 58.9375 L 186 63 L 187 63 L 187 58.935547 A 2.5 3 0 0 0 186.5 53 z M 181.5 54 L 183 59 L 180 59 L 181.5 54 z M 186.5 54 A 1.5 2 0 0 1 186.5 58 A 1.5 2 0 0 1 186.5 54 z M 34 68 L 32 74 L 32 75 L 34 75 L 34 78 L 35 78 L 35 75 L 37 75 L 37 74 L 35 68 L 34 68 z M 39.5 68 A 2.5 3 0 0 0 39 73.9375 L 39 78 L 40 78 L 40 73.935547 A 2.5 3 0 0 0 39.5 68 z M 34.5 69 L 36 74 L 33 74 L 34.5 69 z M 39.5 69 A 1.5 2 0 0 1 39.5 73 A 1.5 2 0 0 1 39.5 69 z M 100 69 L 98 75 L 98 76 L 100 76 L 100 79 L 101 79 L 101 76 L 103 76 L 103 75 L 101 69 L 100 69 z M 105.5 69 A 2.5 3 0 0 0 105 74.9375 L 105 79 L 106 79 L 106 74.935547 A 2.5 3 0 0 0 105.5 69 z M 100.5 70 L 102 75 L 99 75 L 100.5 70 z M 105.5 70 A 1.5 2 0 0 1 105.5 74 A 1.5 2 0 0 1 105.5 70 z M 133.5 71 A 2.5 3 0 0 0 133 76.9375 L 133 81 L 134 81 L 134 76.935547 A 2.5 3 0 0 0 133.5 71 z M 138 71 L 136 77 L 136 78 L 138 78 L 138 81 L 139 81 L 139 78 L 141 78 L 141 77 L 139 71 L 138 71 z M 133.5 72 A 1.5 2 0 0 1 133.5 76 A 1.5 2 0 0 1 133.5 72 z M 138.5 72 L 140 77 L 137 77 L 138.5 72 z M 206 75 L 204 81 L 204 82 L 206 82 L 206 85 L 207 85 L 207 82 L 209 82 L 209 81 L 207 75 L 206 75 z M 211.5 75 A 2.5 3 0 0 0 211 80.9375 L 211 85 L 212 85 L 212 80.935547 A 2.5 3 0 0 0 211.5 75 z M 206.5 76 L 208 81 L 205 81 L 206.5 76 z M 211.5 76 A 1.5 2 0 0 1 211.5 80 A 1.5 2 0 0 1 211.5 76 z M 163 79 L 161 85 L 161 86 L 163 86 L 163 89 L 164 89 L 164 86 L 166 86 L 166 85 L 164 79 L 163 79 z M 168.5 79 A 2.5 3 0 0 0 168 84.9375 L 168 89 L 169 89 L 169 84.935547 A 2.5 3 0 0 0 168.5 79 z M 163.5 80 L 165 85 L 162 85 L 163.5 80 z M 168.5 80 A 1.5 2 0 0 1 168.5 84 A 1.5 2 0 0 1 168.5 80 z M 73 82 L 71 88 L 71 89 L 73 89 L 73 92 L 74 92 L 74 89 L 76 89 L 76 88 L 74 82 L 73 82 z M 78.5 82 A 2.5 3 0 0 0 78 87.9375 L 78 92 L 79 92 L 79 87.935547 A 2.5 3 0 0 0 78.5 82 z M 73.5 83 L 75 88 L 72 88 L 73.5 83 z M 78.5 83 A 1.5 2 0 0 1 78.5 87 A 1.5 2 0 0 1 78.5 83 z M 236.5 85 A 2.5 3 0 0 0 236 90.9375 L 236 95 L 237 95 L 237 90.935547 A 2.5 3 0 0 0 236.5 85 z M 241 85 L 239 91 L 239 92 L 241 92 L 241 95 L 242 95 L 242 92 L 244 92 L 244 91 L 242 85 L 241 85 z M 10.5 86 A 2.5 3 0 0 0 10 91.9375 L 10 96 L 11 96 L 11 91.935547 A 2.5 3 0 0 0 10.5 86 z M 15 86 L 13 92 L 13 93 L 15 93 L 15 96 L 16 96 L 16 93 L 18 93 L 18 92 L 16 86 L 15 86 z M 236.5 86 A 1.5 2 0 0 1 236.5 90 A 1.5 2 0 0 1 236.5 86 z M 241.5 86 L 243 91 L 240 91 L 241.5 86 z M 10.5 87 A 1.5 2 0 0 1 10.5 91 A 1.5 2 0 0 1 10.5 87 z M 15.5 87 L 17 92 L 14 92 L 15.5 87 z M 185.5 100 A 2.5 3 0 0 0 185 105.9375 L 185 110 L 186 110 L 186 105.93555 A 2.5 3 0 0 0 185.5 100 z M 190 100 L 188 106 L 188 107 L 190 107 L 190 110 L 191 110 L 191 107 L 193 107 L 193 106 L 191 100 L 190 100 z M 47 101 L 45 107 L 45 108 L 47 108 L 47 111 L 48 111 L 48 108 L 50 108 L 50 107 L 48 101 L 47 101 z M 52.5 101 A 2.5 3 0 0 0 52 106.9375 L 52 111 L 53 111 L 53 106.93555 A 2.5 3 0 0 0 52.5 101 z M 109.5 101 A 2.5 3 0 0 0 109 106.9375 L 109 111 L 110 111 L 110 106.93555 A 2.5 3 0 0 0 109.5 101 z M 114 101 L 112 107 L 112 108 L 114 108 L 114 111 L 115 111 L 115 108 L 117 108 L 117 107 L 115 101 L 114 101 z M 185.5 101 A 1.5 2 0 0 1 185.5 105 A 1.5 2 0 0 1 185.5 101 z M 190.5 101 L 192 106 L 189 106 L 190.5 101 z M 47.5 102 L 49 107 L 46 107 L 47.5 102 z M 52.5 102 A 1.5 2 0 0 1 52.5 106 A 1.5 2 0 0 1 52.5 102 z M 109.5 102 A 1.5 2 0 0 1 109.5 106 A 1.5 2 0 0 1 109.5 102 z M 114.5 102 L 116 107 L 113 107 L 114.5 102 z M 145.5 107 A 2.5 3 0 0 0 145 112.9375 L 145 117 L 146 117 L 146 112.93555 A 2.5 3 0 0 0 145.5 107 z M 150 107 L 148 113 L 148 114 L 150 114 L 150 117 L 151 117 L 151 114 L 153 114 L 153 113 L 151 107 L 150 107 z M 145.5 108 A 1.5 2 0 0 1 145.5 112 A 1.5 2 0 0 1 145.5 108 z M 150.5 108 L 152 113 L 149 113 L 150.5 108 z M 215.5 110 A 2.5 3 0 0 0 215 115.9375 L 215 120 L 216 120 L 216 115.93555 A 2.5 3 0 0 0 215.5 110 z M 220 110 L 218 116 L 218 117 L 220 117 L 220 120 L 221 120 L 221 117 L 223 117 L 223 116 L 221 110 L 220 110 z M 81.5 111 A 2.5 3 0 0 0 81 116.9375 L 81 121 L 82 121 L 82 116.93555 A 2.5 3 0 0 0 81.5 111 z M 86 111 L 84 117 L 84 118 L 86 118 L 86 121 L 87 121 L 87 118 L 89 118 L 89 117 L 87 111 L 86 111 z M 215.5 111 A 1.5 2 0 0 1 215.5 115 A 1.5 2 0 0 1 215.5 111 z M 220.5 111 L 222 116 L 219 116 L 220.5 111 z M 81.5 112 A 1.5 2 0 0 1 81.5 116 A 1.5 2 0 0 1 81.5 112 z M 86.5 112 L 88 117 L 85 117 L 86.5 112 z M 17.5 113 A 2.5 3 0 0 0 17 118.9375 L 17 123 L 18 123 L 18 118.93555 A 2.5 3 0 0 0 17.5 113 z M 22 113 L 20 119 L 20 120 L 22 120 L 22 123 L 23 123 L 23 120 L 25 120 L 25 119 L 23 113 L 22 113 z M 17.5 114 A 1.5 2 0 0 1 17.5 118 A 1.5 2 0 0 1 17.5 114 z M 22.5 114 L 24 119 L 21 119 L 22.5 114 z M 244.5 123 A 2.5 3 0 0 0 244 128.9375 L 244 133 L 245 133 L 245 128.93555 A 2.5 3 0 0 0 244.5 123 z M 249 123 L 247 129 L 247 130 L 249 130 L 249 133 L 250 133 L 250 130 L 252 130 L 252 129 L 250 123 L 249 123 z M 244.5 124 A 1.5 2 0 0 1 244.5 128 A 1.5 2 0 0 1 244.5 124 z M 249.5 124 L 251 129 L 248 129 L 249.5 124 z M 167.5 125 A 2.5 3 0 0 0 167 130.9375 L 167 135 L 168 135 L 168 130.93555 A 2.5 3 0 0 0 167.5 125 z M 172 125 L 170 131 L 170 132 L 172 132 L 172 135 L 173 135 L 173 132 L 175 132 L 175 131 L 173 125 L 172 125 z M 167.5 126 A 1.5 2 0 0 1 167.5 130 A 1.5 2 0 0 1 167.5 126 z M 172.5 126 L 174 131 L 171 131 L 172.5 126 z M 113.5 132 A 2.5 3 0 0 0 113 137.9375 L 113 142 L 114 142 L 114 137.93555 A 2.5 3 0 0 0 113.5 132 z M 118 132 L 116 138 L 116 139 L 118 139 L 118 142 L 119 142 L 119 139 L 121 139 L 121 138 L 119 132 L 118 132 z M 38.5 133 A 2.5 3 0 0 0 38 138.9375 L 38 143 L 39 143 L 39 138.93555 A 2.5 3 0 0 0 38.5 133 z M 43 133 L 41 139 L 41 140 L 43 140 L 43 143 L 44 143 L 44 140 L 46 140 L 46 139 L 44 133 L 43 133 z M 113.5 133 A 1.5 2 0 0 1 113.5 137 A 1.5 2 0 0 1 113.5 133 z M 118.5 133 L 120 138 L 117 138 L 118.5 133 z M 38.5 134 A 1.5 2 0 0 1 38.5 138 A 1.5 2 0 0 1 38.5 134 z M 43.5 134 L 45 139 L 42 139 L 43.5 134 z M 201.5 139 A 2.5 3 0 0 0 201 144.9375 L 201 149 L 202 149 L 202 144.93555 A 2.5 3 0 0 0 201.5 139 z M 206 139 L 204 145 L 204 146 L 206 146 L 206 149 L 207 149 L 207 146 L 209 146 L 209 145 L 207 139 L 206 139 z M 201.5 140 A 1.5 2 0 0 1 201.5 144 A 1.5 2 0 0 1 201.5 140 z M 206.5 140 L 208 145 L 205 145 L 206.5 140 z M 81.5 145 A 2.5 3 0 0 0 81 150.9375 L 81 155 L 82 155 L 82 150.93555 A 2.5 3 0 0 0 81.5 145 z M 86 145 L 84 151 L 84 152 L 86 152 L 86 155 L 87 155 L 87 152 L 89 152 L 89 151 L 87 145 L 86 145 z M 81.5 146 A 1.5 2 0 0 1 81.5 150 A 1.5 2 0 0 1 81.5 146 z M 86.5 146 L 88 151 L 85 151 L 86.5 146 z M 227.5 149 A 2.5 3 0 0 0 227 154.9375 L 227 159 L 228 159 L 228 154.93555 A 2.5 3 0 0 0 227.5 149 z M 232 149 L 230 155 L 230 156 L 232 156 L 232 159 L 233 159 L 233 156 L 235 156 L 235 155 L 233 149 L 232 149 z M 10.5 150 A 2.5 3 0 0 0 10 155.9375 L 10 160 L 11 160 L 11 155.93555 A 2.5 3 0 0 0 10.5 150 z M 15 150 L 13 156 L 13 157 L 15 157 L 15 160 L 16 160 L 16 157 L 18 157 L 18 156 L 16 150 L 15 150 z M 145 150 L 143 156 L 143 157 L 145 157 L 145 160 L 146 160 L 146 157 L 148 157 L 148 156 L 146 150 L 145 150 z M 150.5 150 A 2.5 3 0 0 0 150 155.9375 L 150 160 L 151 160 L 151 155.93555 A 2.5 3 0 0 0 150.5 150 z M 227.5 150 A 1.5 2 0 0 1 227.5 154 A 1.5 2 0 0 1 227.5 150 z M 232.5 150 L 234 155 L 231 155 L 232.5 150 z M 10.5 151 A 1.5 2 0 0 1 10.5 155 A 1.5 2 0 0 1 10.5 151 z M 15.5 151 L 17 156 L 14 156 L 15.5 151 z M 145.5 151 L 147 156 L 144 156 L 145.5 151 z M 150.5 151 A 1.5 2 0 0 1 150.5 155 A 1.5 2 0 0 1 150.5 151 z M 53.5 156 A 2.5 3 0 0 0 53 161.9375 L 53 166 L 54 166 L 54 161.93555 A 2.5 3 0 0 0 53.5 156 z M 58 156 L 56 162 L 56 163 L 58 163 L 58 166 L 59 166 L 59 163 L 61 163 L 61 162 L 59 156 L 58 156 z M 53.5 157 A 1.5 2 0 0 1 53.5 161 A 1.5 2 0 0 1 53.5 157 z M 58.5 157 L 60 162 L 57 162 L 58.5 157 z M 175.5 160 A 2.5 3 0 0 0 175 165.9375 L 175 170 L 176 170 L 176 165.93555 A 2.5 3 0 0 0 175.5 160 z M 180 160 L 178 166 L 178 167 L 180 167 L 180 170 L 181 170 L 181 167 L 183 167 L 183 166 L 181 160 L 180 160 z M 175.5 161 A 1.5 2 0 0 1 175.5 165 A 1.5 2 0 0 1 175.5 161 z M 180.5 161 L 182 166 L 179 166 L 180.5 161 z M 116.5 164 A 2.5 3 0 0 0 116 169.9375 L 116 174 L 117 174 L 117 169.93555 A 2.5 3 0 0 0 116.5 164 z M 121 164 L 119 170 L 119 171 L 121 171 L 121 174 L 122 174 L 122 171 L 124 171 L 124 170 L 122 164 L 121 164 z M 116.5 165 A 1.5 2 0 0 1 116.5 169 A 1.5 2 0 0 1 116.5 165 z M 121.5 165 L 123 170 L 120 170 L 121.5 165 z M 208 174 L 206 180 L 206 181 L 208 181 L 208 184 L 209 184 L 209 181 L 211 181 L 211 180 L 209 174 L 208 174 z M 213.5 174 A 2.5 3 0 0 0 213 179.9375 L 213 184 L 214 184 L 214 179.93555 A 2.5 3 0 0 0 213.5 174 z M 86 175 L 84 181 L 84 182 L 86 182 L 86 185 L 87 185 L 87 182 L 89 182 L 89 181 L 87 175 L 86 175 z M 91.5 175 A 2.5 3 0 0 0 91 180.9375 L 91 185 L 92 185 L 92 180.93555 A 2.5 3 0 0 0 91.5 175 z M 208.5 175 L 210 180 L 207 180 L 208.5 175 z M 213.5 175 A 1.5 2 0 0 1 213.5 179 A 1.5 2 0 0 1 213.5 175 z M 25.5 176 A 2.5 3 0 0 0 25 181.9375 L 25 186 L 26 186 L 26 181.93555 A 2.5 3 0 0 0 25.5 176 z M 30 176 L 28 182 L 28 183 L 30 183 L 30 186 L 31 186 L 31 183 L 33 183 L 33 182 L 31 176 L 30 176 z M 86.5 176 L 88 181 L 85 181 L 86.5 176 z M 91.5 176 A 1.5 2 0 0 1 91.5 180 A 1.5 2 0 0 1 91.5 176 z M 25.5 177 A 1.5 2 0 0 1 25.5 181 A 1.5 2 0 0 1 25.5 177 z M 30.5 177 L 32 182 L 29 182 L 30.5 177 z M 0 180 L 0 182.66602 L 1 186 L 0 186 L 0 187 L 2 187 L 2 186 L 0 180 z M 250.5 180 A 2.5 3 0 0 0 250 185.9375 L 250 190 L 251 190 L 251 185.93555 A 2.5 3 0 0 0 250.5 180 z M 255 180 L 253 186 L 253 187 L 255 187 L 255 190 L 256 190 L 256 187 L 256 186 L 254 186 L 255.5 181 L 256 182.66602 L 256 180 L 255 180 z M 250.5 181 A 1.5 2 0 0 1 250.5 185 A 1.5 2 0 0 1 250.5 181 z M 145 185 L 143 191 L 143 192 L 145 192 L 145 195 L 146 195 L 146 192 L 148 192 L 148 191 L 146 185 L 145 185 z M 150.5 185 A 2.5 3 0 0 0 150 190.9375 L 150 195 L 151 195 L 151 190.93555 A 2.5 3 0 0 0 150.5 185 z M 145.5 186 L 147 191 L 144 191 L 145.5 186 z M 150.5 186 A 1.5 2 0 0 1 150.5 190 A 1.5 2 0 0 1 150.5 186 z M 176.5 189 A 2.5 3 0 0 0 176 194.9375 L 176 199 L 177 199 L 177 194.93555 A 2.5 3 0 0 0 176.5 189 z M 181 189 L 179 195 L 179 196 L 181 196 L 181 199 L 182 199 L 182 196 L 184 196 L 184 195 L 182 189 L 181 189 z M 176.5 190 A 1.5 2 0 0 1 176.5 194 A 1.5 2 0 0 1 176.5 190 z M 181.5 190 L 183 195 L 180 195 L 181.5 190 z M 56.5 194 A 2.5 3 0 0 0 56 199.9375 L 56 204 L 57 204 L 57 199.93555 A 2.5 3 0 0 0 56.5 194 z M 61 194 L 59 200 L 59 201 L 61 201 L 61 204 L 62 204 L 62 201 L 64 201 L 64 200 L 62 194 L 61 194 z M 56.5 195 A 1.5 2 0 0 1 56.5 199 A 1.5 2 0 0 1 56.5 195 z M 61.5 195 L 63 200 L 60 200 L 61.5 195 z M 112.5 196 A 2.5 3 0 0 0 112 201.9375 L 112 206 L 113 206 L 113 201.93555 A 2.5 3 0 0 0 112.5 196 z M 117 196 L 115 202 L 115 203 L 117 203 L 117 206 L 118 206 L 118 203 L 120 203 L 120 202 L 118 196 L 117 196 z M 112.5 197 A 1.5 2 0 0 1 112.5 201 A 1.5 2 0 0 1 112.5 197 z M 117.5 197 L 119 202 L 116 202 L 117.5 197 z M 233 205 L 231 211 L 231 212 L 233 212 L 233 215 L 234 215 L 234 212 L 236 212 L 236 211 L 234 205 L 233 205 z M 238.5 205 A 2.5 3 0 0 0 238 210.9375 L 238 215 L 239 215 L 239 210.93555 A 2.5 3 0 0 0 238.5 205 z M 233.5 206 L 235 211 L 232 211 L 233.5 206 z M 238.5 206 A 1.5 2 0 0 1 238.5 210 A 1.5 2 0 0 1 238.5 206 z M 14.5 207 A 2.5 3 0 0 0 14 212.9375 L 14 217 L 15 217 L 15 212.93555 A 2.5 3 0 0 0 14.5 207 z M 19 207 L 17 213 L 17 214 L 19 214 L 19 217 L 20 217 L 20 214 L 22 214 L 22 213 L 20 207 L 19 207 z M 14.5 208 A 1.5 2 0 0 1 14.5 212 A 1.5 2 0 0 1 14.5 208 z M 19.5 208 L 21 213 L 18 213 L 19.5 208 z M 202.5 208 A 2.5 3 0 0 0 202 213.9375 L 202 218 L 203 218 L 203 213.93555 A 2.5 3 0 0 0 202.5 208 z M 207 208 L 205 214 L 205 215 L 207 215 L 207 218 L 208 218 L 208 215 L 210 215 L 210 214 L 208 208 L 207 208 z M 202.5 209 A 1.5 2 0 0 1 202.5 213 A 1.5 2 0 0 1 202.5 209 z M 207.5 209 L 209 214 L 206 214 L 207.5 209 z M 78.5 211 A 2.5 3 0 0 0 78 216.9375 L 78 221 L 79 221 L 79 216.93555 A 2.5 3 0 0 0 78.5 211 z M 83 211 L 81 217 L 81 218 L 83 218 L 83 221 L 84 221 L 84 218 L 86 218 L 86 217 L 84 211 L 83 211 z M 78.5 212 A 1.5 2 0 0 1 78.5 216 A 1.5 2 0 0 1 78.5 212 z M 83.5 212 L 85 217 L 82 217 L 83.5 212 z M 138.5 214 A 2.5 3 0 0 0 138 219.9375 L 138 224 L 139 224 L 139 219.93555 A 2.5 3 0 0 0 138.5 214 z M 143 214 L 141 220 L 141 221 L 143 221 L 143 224 L 144 224 L 144 221 L 146 221 L 146 220 L 144 214 L 143 214 z M 138.5 215 A 1.5 2 0 0 1 138.5 219 A 1.5 2 0 0 1 138.5 215 z M 143.5 215 L 145 220 L 142 220 L 143.5 215 z M 44 220 L 42 226 L 42 227 L 44 227 L 44 230 L 45 230 L 45 227 L 47 227 L 47 226 L 45 220 L 44 220 z M 49.5 220 A 2.5 3 0 0 0 49 225.9375 L 49 230 L 50 230 L 50 225.93555 A 2.5 3 0 0 0 49.5 220 z M 44.5 221 L 46 226 L 43 226 L 44.5 221 z M 49.5 221 A 1.5 2 0 0 1 49.5 225 A 1.5 2 0 0 1 49.5 221 z M 168.5 223 A 2.5 3 0 0 0 168 228.9375 L 168 233 L 169 233 L 169 228.93555 A 2.5 3 0 0 0 168.5 223 z M 173 223 L 171 229 L 171 230 L 173 230 L 173 233 L 174 233 L 174 230 L 176 230 L 176 229 L 174 223 L 173 223 z M 168.5 224 A 1.5 2 0 0 1 168.5 228 A 1.5 2 0 0 1 168.5 224 z M 173.5 224 L 175 229 L 172 229 L 173.5 224 z M 106 234 L 104 240 L 104 241 L 106 241 L 106 244 L 107 244 L 107 241 L 109 241 L 109 240 L 107 234 L 106 234 z M 111.5 234 A 2.5 3 0 0 0 111 239.9375 L 111 244 L 112 244 L 112 239.93555 A 2.5 3 0 0 0 111.5 234 z M 106.5 235 L 108 240 L 105 240 L 106.5 235 z M 111.5 235 A 1.5 2 0 0 1 111.5 239 A 1.5 2 0 0 1 111.5 235 z M 217.5 238 A 2.5 3 0 0 0 217 243.9375 L 217 248 L 218 248 L 218 243.93555 A 2.5 3 0 0 0 217.5 238 z M 222 238 L 220 244 L 220 245 L 222 245 L 222 248 L 223 248 L 223 245 L 225 245 L 225 244 L 223 238 L 222 238 z M 217.5 239 A 1.5 2 0 0 1 217.5 243 A 1.5 2 0 0 1 217.5 239 z M 222.5 239 L 224 244 L 221 244 L 222.5 239 z M 21.5 240 A 2.5 3 0 0 0 21 245.9375 L 21 250 L 22 250 L 22 245.93555 A 2.5 3 0 0 0 21.5 240 z M 26 240 L 24 246 L 24 247 L 26 247 L 26 250 L 27 250 L 27 247 L 29 247 L 29 246 L 27 240 L 26 240 z M 21.5 241 A 1.5 2 0 0 1 21.5 245 A 1.5 2 0 0 1 21.5 241 z M 26.5 241 L 28 246 L 25 246 L 26.5 241 z M 80.5 242 A 2.5 3 0 0 0 80 247.9375 L 80 252 L 81 252 L 81 247.93555 A 2.5 3 0 0 0 80.5 242 z M 85 242 L 83 248 L 83 249 L 85 249 L 85 252 L 86 252 L 86 249 L 88 249 L 88 248 L 86 242 L 85 242 z M 80.5 243 A 1.5 2 0 0 1 80.5 247 A 1.5 2 0 0 1 80.5 243 z M 85.5 243 L 87 248 L 84 248 L 85.5 243 z M 247 244 L 245 250 L 245 251 L 247 251 L 247 254 L 248 254 L 248 251 L 250 251 L 250 250 L 248 244 L 247 244 z M 252.5 244 A 2.5 3 0 0 0 252 249.9375 L 252 254 L 253 254 L 253 249.93555 A 2.5 3 0 0 0 252.5 244 z M 247.5 245 L 249 250 L 246 250 L 247.5 245 z M 252.5 245 A 1.5 2 0 0 1 252.5 249 A 1.5 2 0 0 1 252.5 245 z M 189 246 L 187 252 L 187 253 L 189 253 L 189 256 L 190 256 L 190 253 L 192 253 L 192 252 L 190 246 L 189 246 z M 194.5 246 A 2.5 3 0 0 0 194 251.9375 L 194 256 L 195 256 L 195 251.93555 A 2.5 3 0 0 0 194.5 246 z M 189.5 247 L 191 252 L 188 252 L 189.5 247 z M 194.5 247 A 1.5 2 0 0 1 194.5 251 A 1.5 2 0 0 1 194.5 247 z M 153 248 L 151 254 L 151 255 L 153 255 L 153 256 L 154 256 L 154 255 L 156 255 L 156 254 L 154 248 L 153 248 z M 158.5 248 A 2.5 3 0 0 0 158 253.9375 L 158 256 L 159 256 L 159 253.93555 A 2.5 3 0 0 0 158.5 248 z M 153.5 249 L 155 254 L 152 254 L 153.5 249 z M 158.5 249 A 1.5 2 0 0 1 158.5 253 A 1.5 2 0 0 1 158.5 249 z "
     style="fill:#6b8d5e" />
  <rect
     style="fill:none;fill-opacity:1;stroke:none"
     id="rect8566"
     y="0"
     x="0"
     rx="0"
     height="256"
     width="256" />
  <desc
     id="desc341">Created with Snap</desc>
</svg>
