<?xml version="1.0" encoding="UTF-8" standalone="no"?>
<svg
   xmlns:dc="http://purl.org/dc/elements/1.1/"
   xmlns:cc="http://creativecommons.org/ns#"
   xmlns:rdf="http://www.w3.org/1999/02/22-rdf-syntax-ns#"
   xmlns:svg="http://www.w3.org/2000/svg"
   xmlns="http://www.w3.org/2000/svg"
   version="1.1"
   height="256"
   width="256"
   id="Svg">
  <metadata
     id="metadata333">
    <rdf:RDF>
      <cc:Work
         rdf:about="">
        <dc:format>image/svg+xml</dc:format>
        <dc:type
           rdf:resource="http://purl.org/dc/dcmitype/StillImage" />
      </cc:Work>
    </rdf:RDF>
  </metadata>
  <defs
     id="defs3" />
  <path
     id="path5244"
     d="M 154 0 L 154 5 L 155 5 L 155 0 L 154 0 z M 190 0 L 190 3 L 191 3 L 191 0 L 190 0 z M 248 0 L 248 1 L 249 1 L 249 0 L 248 0 z M 116.5 4 C 114.52791 4 113 5.8354804 113 8 C 113 9.9757872 114.27809 11.659686 116 11.941406 L 116 17 L 117 17 L 117 11.941406 C 118.72191 11.659686 120 9.9757872 120 8 C 120 5.8354804 118.47209 4 116.5 4 z M 116.5 5 C 117.8416 5 119 6.2987525 119 8 C 119 9.7012475 117.8416 11 116.5 11 C 115.1584 11 114 9.7012475 114 8 C 114 6.2987525 115.1584 5 116.5 5 z M 50.5 6 C 48.527905 6 47 7.8354804 47 10 C 47 11.975787 48.278087 13.659686 50 13.941406 L 50 19 L 51 19 L 51 13.941406 C 52.721913 13.659686 54 11.975787 54 10 C 54 7.8354804 52.472095 6 50.5 6 z M 50.5 7 C 51.841598 7 53 8.2987525 53 10 C 53 11.701248 51.841598 13 50.5 13 C 49.158402 13 48 11.701248 48 10 C 48 8.2987525 49.158402 7 50.5 7 z M 13.5 11 C 11.527905 11 10 12.83548 10 15 C 10 16.975787 11.278087 18.659686 13 18.941406 L 13 24 L 14 24 L 14 18.941406 C 15.721913 18.659686 17 16.975787 17 15 C 17 12.83548 15.472095 11 13.5 11 z M 13.5 12 C 14.841598 12 16 13.298752 16 15 C 16 16.701247 14.841598 18 13.5 18 C 12.158402 18 11 16.701247 11 15 C 11 13.298752 12.158402 12 13.5 12 z M 215 12 L 212 20 L 212 21 L 215 21 L 215 25 L 216 25 L 216 21 L 219 21 L 219 20 L 216 12 L 215 12 z M 215.5 13 L 218 20 L 213 20 L 215.5 13 z M 178 18 L 175 26 L 175 27 L 178 27 L 178 31 L 179 31 L 179 27 L 182 27 L 182 26 L 179 18 L 178 18 z M 76.5 19 C 74.527905 19 73 20.83548 73 23 C 73 24.975787 74.278087 26.659686 76 26.941406 L 76 32 L 77 32 L 77 26.941406 C 78.721913 26.659686 80 24.975787 80 23 C 80 20.83548 78.472095 19 76.5 19 z M 178.5 19 L 181 26 L 176 26 L 178.5 19 z M 76.5 20 C 77.841598 20 79 21.298752 79 23 C 79 24.701247 77.841598 26 76.5 26 C 75.158402 26 74 24.701247 74 23 C 74 21.298752 75.158402 20 76.5 20 z M 137 22 L 134 30 L 134 31 L 137 31 L 137 35 L 138 35 L 138 31 L 141 31 L 141 30 L 138 22 L 137 22 z M 137.5 23 L 140 30 L 135 30 L 137.5 23 z M 241 28 L 238 36 L 238 37 L 241 37 L 241 41 L 242 41 L 242 37 L 245 37 L 245 36 L 242 28 L 241 28 z M 241.5 29 L 244 36 L 239 36 L 241.5 29 z M 45 39 L 42 47 L 42 48 L 45 48 L 45 52 L 46 52 L 46 48 L 49 48 L 49 47 L 46 39 L 45 39 z M 45.5 40 L 48 47 L 43 47 L 45.5 40 z M 113 41 L 110 49 L 110 50 L 113 50 L 113 54 L 114 54 L 114 50 L 117 50 L 117 49 L 114 41 L 113 41 z M 113.5 42 L 116 49 L 111 49 L 113.5 42 z M 156.5 44 C 154.5279 44 153 45.83548 153 48 C 153 49.975787 154.27809 51.659686 156 51.941406 L 156 57 L 157 57 L 157 51.941406 C 158.72191 51.659686 160 49.975787 160 48 C 160 45.83548 158.47209 44 156.5 44 z M 156.5 45 C 157.8416 45 159 46.298752 159 48 C 159 49.701247 157.8416 51 156.5 51 C 155.1584 51 154 49.701247 154 48 C 154 46.298752 155.1584 45 156.5 45 z M 220 46 L 217 54 L 217 55 L 220 55 L 220 59 L 221 59 L 221 55 L 224 55 L 224 54 L 221 46 L 220 46 z M 220.5 47 L 223 54 L 218 54 L 220.5 47 z M 74.5 48 C 72.527905 48 71 49.83548 71 52 C 71 53.975787 72.278087 55.659686 74 55.941406 L 74 61 L 75 61 L 75 55.941406 C 76.721913 55.659686 78 53.975787 78 52 C 78 49.83548 76.472095 48 74.5 48 z M 10.5 49 C 8.527905 49 7 50.83548 7 53 C 7 54.975787 8.278087 56.659686 10 56.941406 L 10 62 L 11 62 L 11 56.941406 C 12.721913 56.659686 14 54.975787 14 53 C 14 50.83548 12.472095 49 10.5 49 z M 74.5 49 C 75.841598 49 77 50.298752 77 52 C 77 53.701247 75.841598 55 74.5 55 C 73.158402 55 72 53.701247 72 52 C 72 50.298752 73.158402 49 74.5 49 z M 10.5 50 C 11.841598 50 13 51.298752 13 53 C 13 54.701247 11.841598 56 10.5 56 C 9.1584018 56 8 54.701247 8 53 C 8 51.298752 9.1584018 50 10.5 50 z M 182.5 53 C 180.5279 53 179 54.83548 179 57 C 179 58.975787 180.27809 60.659686 182 60.941406 L 182 66 L 183 66 L 183 60.941406 C 184.72191 60.659686 186 58.975787 186 57 C 186 54.83548 184.47209 53 182.5 53 z M 182.5 54 C 183.8416 54 185 55.298752 185 57 C 185 58.701247 183.8416 60 182.5 60 C 181.1584 60 180 58.701247 180 57 C 180 55.298752 181.1584 54 182.5 54 z M 35.5 68 C 33.527905 68 32 69.83548 32 72 C 32 73.975787 33.278087 75.659685 35 75.941406 L 35 81 L 36 81 L 36 75.941406 C 37.721913 75.659685 39 73.975787 39 72 C 39 69.83548 37.472095 68 35.5 68 z M 35.5 69 C 36.841598 69 38 70.298753 38 72 C 38 73.701247 36.841598 75 35.5 75 C 34.158402 75 33 73.701247 33 72 C 33 70.298753 34.158402 69 35.5 69 z M 101.5 69 C 99.527905 69 98 70.83548 98 73 C 98 74.975787 99.278087 76.659685 101 76.941406 L 101 82 L 102 82 L 102 76.941406 C 103.72191 76.659685 105 74.975787 105 73 C 105 70.83548 103.47209 69 101.5 69 z M 101.5 70 C 102.8416 70 104 71.298753 104 73 C 104 74.701247 102.8416 76 101.5 76 C 100.1584 76 99 74.701247 99 73 C 99 71.298753 100.1584 70 101.5 70 z M 134 71 L 131 79 L 131 80 L 134 80 L 134 84 L 135 84 L 135 80 L 138 80 L 138 79 L 135 71 L 134 71 z M 134.5 72 L 137 79 L 132 79 L 134.5 72 z M 207.5 75 C 205.5279 75 204 76.83548 204 79 C 204 80.975787 205.27809 82.659685 207 82.941406 L 207 88 L 208 88 L 208 82.941406 C 209.72191 82.659685 211 80.975787 211 79 C 211 76.83548 209.47209 75 207.5 75 z M 207.5 76 C 208.8416 76 210 77.298753 210 79 C 210 80.701247 208.8416 82 207.5 82 C 206.1584 82 205 80.701247 205 79 C 205 77.298753 206.1584 76 207.5 76 z M 164.5 79 C 162.5279 79 161 80.83548 161 83 C 161 84.975787 162.27809 86.659685 164 86.941406 L 164 92 L 165 92 L 165 86.941406 C 166.72191 86.659685 168 84.975787 168 83 C 168 80.83548 166.47209 79 164.5 79 z M 164.5 80 C 165.8416 80 167 81.298753 167 83 C 167 84.701247 165.8416 86 164.5 86 C 163.1584 86 162 84.701247 162 83 C 162 81.298753 163.1584 80 164.5 80 z M 74.5 82 C 72.527905 82 71 83.83548 71 86 C 71 87.975787 72.278087 89.659685 74 89.941406 L 74 95 L 75 95 L 75 89.941406 C 76.721913 89.659685 78 87.975787 78 86 C 78 83.83548 76.472095 82 74.5 82 z M 74.5 83 C 75.841598 83 77 84.298753 77 86 C 77 87.701247 75.841598 89 74.5 89 C 73.158402 89 72 87.701247 72 86 C 72 84.298753 73.158402 83 74.5 83 z M 237 85 L 234 93 L 234 94 L 237 94 L 237 98 L 238 98 L 238 94 L 241 94 L 241 93 L 238 85 L 237 85 z M 11 86 L 8 94 L 8 95 L 11 95 L 11 99 L 12 99 L 12 95 L 15 95 L 15 94 L 12 86 L 11 86 z M 237.5 86 L 240 93 L 235 93 L 237.5 86 z M 11.5 87 L 14 94 L 9 94 L 11.5 87 z M 186 100 L 183 108 L 183 109 L 186 109 L 186 113 L 187 113 L 187 109 L 190 109 L 190 108 L 187 100 L 186 100 z M 48.5 101 C 46.527905 101 45 102.83548 45 105 C 45 106.97579 46.278087 108.65969 48 108.94141 L 48 114 L 49 114 L 49 108.94141 C 50.721913 108.65969 52 106.97579 52 105 C 52 102.83548 50.472095 101 48.5 101 z M 110 101 L 107 109 L 107 110 L 110 110 L 110 114 L 111 114 L 111 110 L 114 110 L 114 109 L 111 101 L 110 101 z M 186.5 101 L 189 108 L 184 108 L 186.5 101 z M 48.5 102 C 49.841598 102 51 103.29875 51 105 C 51 106.70125 49.841598 108 48.5 108 C 47.158402 108 46 106.70125 46 105 C 46 103.29875 47.158402 102 48.5 102 z M 110.5 102 L 113 109 L 108 109 L 110.5 102 z M 146 107 L 143 115 L 143 116 L 146 116 L 146 120 L 147 120 L 147 116 L 150 116 L 150 115 L 147 107 L 146 107 z M 146.5 108 L 149 115 L 144 115 L 146.5 108 z M 216 110 L 213 118 L 213 119 L 216 119 L 216 123 L 217 123 L 217 119 L 220 119 L 220 118 L 217 110 L 216 110 z M 82 111 L 79 119 L 79 120 L 82 120 L 82 124 L 83 124 L 83 120 L 86 120 L 86 119 L 83 111 L 82 111 z M 216.5 111 L 219 118 L 214 118 L 216.5 111 z M 82.5 112 L 85 119 L 80 119 L 82.5 112 z M 18 113 L 15 121 L 15 122 L 18 122 L 18 126 L 19 126 L 19 122 L 22 122 L 22 121 L 19 113 L 18 113 z M 18.5 114 L 21 121 L 16 121 L 18.5 114 z M 245 123 L 242 131 L 242 132 L 245 132 L 245 136 L 246 136 L 246 132 L 249 132 L 249 131 L 246 123 L 245 123 z M 245.5 124 L 248 131 L 243 131 L 245.5 124 z M 168 125 L 165 133 L 165 134 L 168 134 L 168 138 L 169 138 L 169 134 L 172 134 L 172 133 L 169 125 L 168 125 z M 168.5 126 L 171 133 L 166 133 L 168.5 126 z M 114 132 L 111 140 L 111 141 L 114 141 L 114 145 L 115 145 L 115 141 L 118 141 L 118 140 L 115 132 L 114 132 z M 39 133 L 36 141 L 36 142 L 39 142 L 39 146 L 40 146 L 40 142 L 43 142 L 43 141 L 40 133 L 39 133 z M 114.5 133 L 117 140 L 112 140 L 114.5 133 z M 39.5 134 L 42 141 L 37 141 L 39.5 134 z M 202 139 L 199 147 L 199 148 L 202 148 L 202 152 L 203 152 L 203 148 L 206 148 L 206 147 L 203 139 L 202 139 z M 202.5 140 L 205 147 L 200 147 L 202.5 140 z M 82 145 L 79 153 L 79 154 L 82 154 L 82 158 L 83 158 L 83 154 L 86 154 L 86 153 L 83 145 L 82 145 z M 82.5 146 L 85 153 L 80 153 L 82.5 146 z M 228 149 L 225 157 L 225 158 L 228 158 L 228 162 L 229 162 L 229 158 L 232 158 L 232 157 L 229 149 L 228 149 z M 11 150 L 8 158 L 8 159 L 11 159 L 11 163 L 12 163 L 12 159 L 15 159 L 15 158 L 12 150 L 11 150 z M 146.5 150 C 144.5279 150 143 151.83548 143 154 C 143 155.97579 144.27809 157.65969 146 157.94141 L 146 163 L 147 163 L 147 157.94141 C 148.72191 157.65969 150 155.97579 150 154 C 150 151.83548 148.47209 150 146.5 150 z M 228.5 150 L 231 157 L 226 157 L 228.5 150 z M 11.5 151 L 14 158 L 9 158 L 11.5 151 z M 146.5 151 C 147.8416 151 149 152.29875 149 154 C 149 155.70125 147.8416 157 146.5 157 C 145.1584 157 144 155.70125 144 154 C 144 152.29875 145.1584 151 146.5 151 z M 54 156 L 51 164 L 51 165 L 54 165 L 54 169 L 55 169 L 55 165 L 58 165 L 58 164 L 55 156 L 54 156 z M 54.5 157 L 57 164 L 52 164 L 54.5 157 z M 176 160 L 173 168 L 173 169 L 176 169 L 176 173 L 177 173 L 177 169 L 180 169 L 180 168 L 177 160 L 176 160 z M 176.5 161 L 179 168 L 174 168 L 176.5 161 z M 117 164 L 114 172 L 114 173 L 117 173 L 117 177 L 118 177 L 118 173 L 121 173 L 121 172 L 118 164 L 117 164 z M 117.5 165 L 120 172 L 115 172 L 117.5 165 z M 209.5 174 C 207.5279 174 206 175.83548 206 178 C 206 179.97579 207.27809 181.65969 209 181.94141 L 209 187 L 210 187 L 210 181.94141 C 211.72191 181.65969 213 179.97579 213 178 C 213 175.83548 211.47209 174 209.5 174 z M 87.5 175 C 85.527905 175 84 176.83548 84 179 C 84 180.97579 85.278087 182.65969 87 182.94141 L 87 188 L 88 188 L 88 182.94141 C 89.721913 182.65969 91 180.97579 91 179 C 91 176.83548 89.472095 175 87.5 175 z M 209.5 175 C 210.8416 175 212 176.29875 212 178 C 212 179.70125 210.8416 181 209.5 181 C 208.1584 181 207 179.70125 207 178 C 207 176.29875 208.1584 175 209.5 175 z M 26 176 L 23 184 L 23 185 L 26 185 L 26 189 L 27 189 L 27 185 L 30 185 L 30 184 L 27 176 L 26 176 z M 87.5 176 C 88.841598 176 90 177.29875 90 179 C 90 180.70125 88.841598 182 87.5 182 C 86.158402 182 85 180.70125 85 179 C 85 177.29875 86.158402 176 87.5 176 z M 26.5 177 L 29 184 L 24 184 L 26.5 177 z M 251 180 L 248 188 L 248 189 L 251 189 L 251 193 L 252 193 L 252 189 L 255 189 L 255 188 L 252 180 L 251 180 z M 251.5 181 L 254 188 L 249 188 L 251.5 181 z M 146.5 185 C 144.5279 185 143 186.83548 143 189 C 143 190.97579 144.27809 192.65969 146 192.94141 L 146 198 L 147 198 L 147 192.94141 C 148.72191 192.65969 150 190.97579 150 189 C 150 186.83548 148.47209 185 146.5 185 z M 146.5 186 C 147.8416 186 149 187.29875 149 189 C 149 190.70125 147.8416 192 146.5 192 C 145.1584 192 144 190.70125 144 189 C 144 187.29875 145.1584 186 146.5 186 z M 177 189 L 174 197 L 174 198 L 177 198 L 177 202 L 178 202 L 178 198 L 181 198 L 181 197 L 178 189 L 177 189 z M 177.5 190 L 180 197 L 175 197 L 177.5 190 z M 57 194 L 54 202 L 54 203 L 57 203 L 57 207 L 58 207 L 58 203 L 61 203 L 61 202 L 58 194 L 57 194 z M 57.5 195 L 60 202 L 55 202 L 57.5 195 z M 113 196 L 110 204 L 110 205 L 113 205 L 113 209 L 114 209 L 114 205 L 117 205 L 117 204 L 114 196 L 113 196 z M 113.5 197 L 116 204 L 111 204 L 113.5 197 z M 234.5 205 C 232.5279 205 231 206.83548 231 209 C 231 210.97579 232.27809 212.65969 234 212.94141 L 234 218 L 235 218 L 235 212.94141 C 236.72191 212.65969 238 210.97579 238 209 C 238 206.83548 236.47209 205 234.5 205 z M 234.5 206 C 235.8416 206 237 207.29875 237 209 C 237 210.70125 235.8416 212 234.5 212 C 233.1584 212 232 210.70125 232 209 C 232 207.29875 233.1584 206 234.5 206 z M 15 207 L 12 215 L 12 216 L 15 216 L 15 220 L 16 220 L 16 216 L 19 216 L 19 215 L 16 207 L 15 207 z M 15.5 208 L 18 215 L 13 215 L 15.5 208 z M 203 208 L 200 216 L 200 217 L 203 217 L 203 221 L 204 221 L 204 217 L 207 217 L 207 216 L 204 208 L 203 208 z M 203.5 209 L 206 216 L 201 216 L 203.5 209 z M 79 211 L 76 219 L 76 220 L 79 220 L 79 224 L 80 224 L 80 220 L 83 220 L 83 219 L 80 211 L 79 211 z M 79.5 212 L 82 219 L 77 219 L 79.5 212 z M 139 214 L 136 222 L 136 223 L 139 223 L 139 227 L 140 227 L 140 223 L 143 223 L 143 222 L 140 214 L 139 214 z M 139.5 215 L 142 222 L 137 222 L 139.5 215 z M 45.5 220 C 43.527905 220 42 221.83548 42 224 C 42 225.97579 43.278087 227.65969 45 227.94141 L 45 233 L 46 233 L 46 227.94141 C 47.721913 227.65969 49 225.97579 49 224 C 49 221.83548 47.472095 220 45.5 220 z M 45.5 221 C 46.841598 221 48 222.29875 48 224 C 48 225.70125 46.841598 227 45.5 227 C 44.158402 227 43 225.70125 43 224 C 43 222.29875 44.158402 221 45.5 221 z M 169 223 L 166 231 L 166 232 L 169 232 L 169 236 L 170 236 L 170 232 L 173 232 L 173 231 L 170 223 L 169 223 z M 169.5 224 L 172 231 L 167 231 L 169.5 224 z M 107.5 234 C 105.52791 234 104 235.83548 104 238 C 104 239.97579 105.27809 241.65969 107 241.94141 L 107 247 L 108 247 L 108 241.94141 C 109.72191 241.65969 111 239.97579 111 238 C 111 235.83548 109.47209 234 107.5 234 z M 107.5 235 C 108.8416 235 110 236.29875 110 238 C 110 239.70125 108.8416 241 107.5 241 C 106.1584 241 105 239.70125 105 238 C 105 236.29875 106.1584 235 107.5 235 z M 218 238 L 215 246 L 215 247 L 218 247 L 218 251 L 219 251 L 219 247 L 222 247 L 222 246 L 219 238 L 218 238 z M 218.5 239 L 221 246 L 216 246 L 218.5 239 z M 22 240 L 19 248 L 19 249 L 22 249 L 22 253 L 23 253 L 23 249 L 26 249 L 26 248 L 23 240 L 22 240 z M 22.5 241 L 25 248 L 20 248 L 22.5 241 z M 81 242 L 78 250 L 78 251 L 81 251 L 81 255 L 82 255 L 82 251 L 85 251 L 85 250 L 82 242 L 81 242 z M 81.5 243 L 84 250 L 79 250 L 81.5 243 z M 248.5 244 C 246.5279 244 245 245.83548 245 248 C 245 249.97579 246.27809 251.65969 248 251.94141 L 248 256 L 249 256 L 249 251.94141 C 250.72191 251.65969 252 249.97579 252 248 C 252 245.83548 250.47209 244 248.5 244 z M 248.5 245 C 249.8416 245 251 246.29875 251 248 C 251 249.70125 249.8416 251 248.5 251 C 247.1584 251 246 249.70125 246 248 C 246 246.29875 247.1584 245 248.5 245 z M 190.5 246 C 188.5279 246 187 247.83548 187 250 C 187 251.97579 188.27809 253.65969 190 253.94141 L 190 256 L 191 256 L 191 253.94141 C 192.72191 253.65969 194 251.97579 194 250 C 194 247.83548 192.47209 246 190.5 246 z M 190.5 247 C 191.8416 247 193 248.29875 193 250 C 193 251.70125 191.8416 253 190.5 253 C 189.1584 253 188 251.70125 188 250 C 188 248.29875 189.1584 247 190.5 247 z M 154.5 248 C 152.5279 248 151 249.83548 151 252 C 151 253.97579 152.27809 255.65969 154 255.94141 L 154 256 L 155 256 L 155 255.94141 C 156.72191 255.65969 158 253.97579 158 252 C 158 249.83548 156.47209 248 154.5 248 z M 154.5 249 C 155.8416 249 157 250.29875 157 252 C 157 253.70125 155.8416 255 154.5 255 C 153.1584 255 152 253.70125 152 252 C 152 250.29875 153.1584 249 154.5 249 z "
     style="fill:#6b8d5e" />
  <rect
     style="fill:none;fill-opacity:1;stroke:none"
     id="rect8566"
     y="0"
     x="0"
     rx="0"
     height="256"
     width="256" />
  <desc
     id="desc329">Created with Snap</desc>
</svg>
