<?xml version="1.0" encoding="UTF-8" standalone="no"?>
<svg
   xmlns:dc="http://purl.org/dc/elements/1.1/"
   xmlns:cc="http://creativecommons.org/ns#"
   xmlns:rdf="http://www.w3.org/1999/02/22-rdf-syntax-ns#"
   xmlns:svg="http://www.w3.org/2000/svg"
   xmlns="http://www.w3.org/2000/svg"
   version="1.1"
   height="512"
   width="512"
   id="Svg">
  <metadata
     id="metadata922">
    <rdf:RDF>
      <cc:Work
         rdf:about="">
        <dc:format>image/svg+xml</dc:format>
        <dc:type
           rdf:resource="http://purl.org/dc/dcmitype/StillImage" />
      </cc:Work>
    </rdf:RDF>
  </metadata>
  <defs
     id="defs3" />
  <path
     id="path7313"
     d="M 3.6367188 0 A 2.5 3 0 0 0 5 4.9375 L 5 9 L 6 9 L 6 4.9355469 A 2.5 3 0 0 0 7.359375 0 L 5.5 0 A 1.5 2 0 0 1 5.5 4 A 1.5 2 0 0 1 5.5 0 L 3.6367188 0 z M 8.6367188 0 A 2.5 3 0 0 0 10 4.9375 L 10 9 L 11 9 L 11 4.9355469 A 2.5 3 0 0 0 12.359375 0 L 10.5 0 A 1.5 2 0 0 1 10.5 4 A 1.5 2 0 0 1 10.5 0 L 8.6367188 0 z M 87.5 0 A 2.5 3 0 0 0 87 5.9375 L 87 10 L 88 10 L 88 5.9355469 A 2.5 3 0 0 0 87.5 0 z M 92.5 0 A 2.5 3 0 0 0 92 5.9375 L 92 10 L 93 10 L 93 5.9355469 A 2.5 3 0 0 0 92.5 0 z M 127.14453 0 A 2.5 3 0 0 0 129 3.9375 L 129 8 L 130 8 L 130 3.9355469 A 2.5 3 0 0 0 131.85352 0 L 130.79883 0 A 1.5 2 0 0 1 129.5 3 A 1.5 2 0 0 1 128.20312 0 L 127.14453 0 z M 132.14453 0 A 2.5 3 0 0 0 134 3.9375 L 134 8 L 135 8 L 135 3.9355469 A 2.5 3 0 0 0 136.85352 0 L 135.79883 0 A 1.5 2 0 0 1 134.5 3 A 1.5 2 0 0 1 133.20312 0 L 132.14453 0 z M 198.14453 0 A 2.5 3 0 0 0 200 3.9375 L 200 8 L 201 8 L 201 3.9355469 A 2.5 3 0 0 0 202.85352 0 L 201.79883 0 A 1.5 2 0 0 1 200.5 3 A 1.5 2 0 0 1 199.20312 0 L 198.14453 0 z M 203.14453 0 A 2.5 3 0 0 0 205 3.9375 L 205 8 L 206 8 L 206 3.9355469 A 2.5 3 0 0 0 207.85352 0 L 206.79883 0 A 1.5 2 0 0 1 205.5 3 A 1.5 2 0 0 1 204.20312 0 L 203.14453 0 z M 87.5 1 A 1.5 2 0 0 1 87.5 5 A 1.5 2 0 0 1 87.5 1 z M 92.5 1 A 1.5 2 0 0 1 92.5 5 A 1.5 2 0 0 1 92.5 1 z M 464.5 1 A 2.5 3 0 0 0 464 6.9375 L 464 11 L 465 11 L 465 6.9355469 A 2.5 3 0 0 0 464.5 1 z M 469.5 1 A 2.5 3 0 0 0 469 6.9375 L 469 11 L 470 11 L 470 6.9355469 A 2.5 3 0 0 0 469.5 1 z M 464.5 2 A 1.5 2 0 0 1 464.5 6 A 1.5 2 0 0 1 464.5 2 z M 469.5 2 A 1.5 2 0 0 1 469.5 6 A 1.5 2 0 0 1 469.5 2 z M 342.5 3 A 2.5 3 0 0 0 342 8.9375 L 342 13 L 343 13 L 343 8.9355469 A 2.5 3 0 0 0 342.5 3 z M 347.5 3 A 2.5 3 0 0 0 347 8.9375 L 347 13 L 348 13 L 348 8.9355469 A 2.5 3 0 0 0 347.5 3 z M 264.5 4 A 2.5 3 0 0 0 264 9.9375 L 264 14 L 265 14 L 265 9.9355469 A 2.5 3 0 0 0 264.5 4 z M 269.5 4 A 2.5 3 0 0 0 269 9.9375 L 269 14 L 270 14 L 270 9.9355469 A 2.5 3 0 0 0 269.5 4 z M 294.5 4 A 2.5 3 0 0 0 294 9.9375 L 294 14 L 295 14 L 295 9.9355469 A 2.5 3 0 0 0 294.5 4 z M 299.5 4 A 2.5 3 0 0 0 299 9.9375 L 299 14 L 300 14 L 300 9.9355469 A 2.5 3 0 0 0 299.5 4 z M 342.5 4 A 1.5 2 0 0 1 342.5 8 A 1.5 2 0 0 1 342.5 4 z M 347.5 4 A 1.5 2 0 0 1 347.5 8 A 1.5 2 0 0 1 347.5 4 z M 264.5 5 A 1.5 2 0 0 1 264.5 9 A 1.5 2 0 0 1 264.5 5 z M 269.5 5 A 1.5 2 0 0 1 269.5 9 A 1.5 2 0 0 1 269.5 5 z M 294.5 5 A 1.5 2 0 0 1 294.5 9 A 1.5 2 0 0 1 294.5 5 z M 299.5 5 A 1.5 2 0 0 1 299.5 9 A 1.5 2 0 0 1 299.5 5 z M 402.5 7 A 2.5 3 0 0 0 402 12.9375 L 402 17 L 403 17 L 403 12.935547 A 2.5 3 0 0 0 402.5 7 z M 407.5 7 A 2.5 3 0 0 0 407 12.9375 L 407 17 L 408 17 L 408 12.935547 A 2.5 3 0 0 0 407.5 7 z M 374.5 8 A 2.5 3 0 0 0 374 13.9375 L 374 18 L 375 18 L 375 13.935547 A 2.5 3 0 0 0 374.5 8 z M 379.5 8 A 2.5 3 0 0 0 379 13.9375 L 379 18 L 380 18 L 380 13.935547 A 2.5 3 0 0 0 379.5 8 z M 402.5 8 A 1.5 2 0 0 1 402.5 12 A 1.5 2 0 0 1 402.5 8 z M 407.5 8 A 1.5 2 0 0 1 407.5 12 A 1.5 2 0 0 1 407.5 8 z M 172.5 9 A 2.5 3 0 0 0 172 14.9375 L 172 19 L 173 19 L 173 14.935547 A 2.5 3 0 0 0 172.5 9 z M 177.5 9 A 2.5 3 0 0 0 177 14.9375 L 177 19 L 178 19 L 178 14.935547 A 2.5 3 0 0 0 177.5 9 z M 374.5 9 A 1.5 2 0 0 1 374.5 13 A 1.5 2 0 0 1 374.5 9 z M 379.5 9 A 1.5 2 0 0 1 379.5 13 A 1.5 2 0 0 1 379.5 9 z M 172.5 10 A 1.5 2 0 0 1 172.5 14 A 1.5 2 0 0 1 172.5 10 z M 177.5 10 A 1.5 2 0 0 1 177.5 14 A 1.5 2 0 0 1 177.5 10 z M 232.5 10 A 2.5 3 0 0 0 232 15.9375 L 232 20 L 233 20 L 233 15.935547 A 2.5 3 0 0 0 232.5 10 z M 237.5 10 A 2.5 3 0 0 0 237 15.9375 L 237 20 L 238 20 L 238 15.935547 A 2.5 3 0 0 0 237.5 10 z M 232.5 11 A 1.5 2 0 0 1 232.5 15 A 1.5 2 0 0 1 232.5 11 z M 237.5 11 A 1.5 2 0 0 1 237.5 15 A 1.5 2 0 0 1 237.5 11 z M 34.5 16 A 2.5 3 0 0 0 34 21.9375 L 34 26 L 35 26 L 35 21.935547 A 2.5 3 0 0 0 34.5 16 z M 39.5 16 A 2.5 3 0 0 0 39 21.9375 L 39 26 L 40 26 L 40 21.935547 A 2.5 3 0 0 0 39.5 16 z M 34.5 17 A 1.5 2 0 0 1 34.5 21 A 1.5 2 0 0 1 34.5 17 z M 39.5 17 A 1.5 2 0 0 1 39.5 21 A 1.5 2 0 0 1 39.5 17 z M 67.5 17 A 2.5 3 0 0 0 67 22.9375 L 67 27 L 68 27 L 68 22.935547 A 2.5 3 0 0 0 67.5 17 z M 72.5 17 A 2.5 3 0 0 0 72 22.9375 L 72 27 L 73 27 L 73 22.935547 A 2.5 3 0 0 0 72.5 17 z M 437.5 17 A 2.5 3 0 0 0 437 22.9375 L 437 27 L 438 27 L 438 22.935547 A 2.5 3 0 0 0 437.5 17 z M 442.5 17 A 2.5 3 0 0 0 442 22.9375 L 442 27 L 443 27 L 443 22.935547 A 2.5 3 0 0 0 442.5 17 z M 496.5 17 A 2.5 3 0 0 0 496 22.9375 L 496 27 L 497 27 L 497 22.935547 A 2.5 3 0 0 0 496.5 17 z M 501.5 17 A 2.5 3 0 0 0 501 22.9375 L 501 27 L 502 27 L 502 22.935547 A 2.5 3 0 0 0 501.5 17 z M 67.5 18 A 1.5 2 0 0 1 67.5 22 A 1.5 2 0 0 1 67.5 18 z M 72.5 18 A 1.5 2 0 0 1 72.5 22 A 1.5 2 0 0 1 72.5 18 z M 437.5 18 A 1.5 2 0 0 1 437.5 22 A 1.5 2 0 0 1 437.5 18 z M 442.5 18 A 1.5 2 0 0 1 442.5 22 A 1.5 2 0 0 1 442.5 18 z M 496.5 18 A 1.5 2 0 0 1 496.5 22 A 1.5 2 0 0 1 496.5 18 z M 501.5 18 A 1.5 2 0 0 1 501.5 22 A 1.5 2 0 0 1 501.5 18 z M 316.5 23 A 2.5 3 0 0 0 316 28.9375 L 316 33 L 317 33 L 317 28.935547 A 2.5 3 0 0 0 316.5 23 z M 321.5 23 A 2.5 3 0 0 0 321 28.9375 L 321 33 L 322 33 L 322 28.935547 A 2.5 3 0 0 0 321.5 23 z M 316.5 24 A 1.5 2 0 0 1 316.5 28 A 1.5 2 0 0 1 316.5 24 z M 321.5 24 A 1.5 2 0 0 1 321.5 28 A 1.5 2 0 0 1 321.5 24 z M 204.5 26 A 2.5 3 0 0 0 204 31.9375 L 204 36 L 205 36 L 205 31.935547 A 2.5 3 0 0 0 204.5 26 z M 209.5 26 A 2.5 3 0 0 0 209 31.9375 L 209 36 L 210 36 L 210 31.935547 A 2.5 3 0 0 0 209.5 26 z M 204.5 27 A 1.5 2 0 0 1 204.5 31 A 1.5 2 0 0 1 204.5 27 z M 209.5 27 A 1.5 2 0 0 1 209.5 31 A 1.5 2 0 0 1 209.5 27 z M 142.5 31 A 2.5 3 0 0 0 142 36.9375 L 142 41 L 143 41 L 143 36.935547 A 2.5 3 0 0 0 142.5 31 z M 147.5 31 A 2.5 3 0 0 0 147 36.9375 L 147 41 L 148 41 L 148 36.935547 A 2.5 3 0 0 0 147.5 31 z M 113.5 32 A 2.5 3 0 0 0 113 37.9375 L 113 42 L 114 42 L 114 37.935547 A 2.5 3 0 0 0 113.5 32 z M 118.5 32 A 2.5 3 0 0 0 118 37.9375 L 118 42 L 119 42 L 119 37.935547 A 2.5 3 0 0 0 118.5 32 z M 142.5 32 A 1.5 2 0 0 1 142.5 36 A 1.5 2 0 0 1 142.5 32 z M 147.5 32 A 1.5 2 0 0 1 147.5 36 A 1.5 2 0 0 1 147.5 32 z M 86.5 33 A 2.5 3 0 0 0 86 38.9375 L 86 43 L 87 43 L 87 38.935547 A 2.5 3 0 0 0 86.5 33 z M 91.5 33 A 2.5 3 0 0 0 91 38.9375 L 91 43 L 92 43 L 92 38.935547 A 2.5 3 0 0 0 91.5 33 z M 113.5 33 A 1.5 2 0 0 1 113.5 37 A 1.5 2 0 0 1 113.5 33 z M 118.5 33 A 1.5 2 0 0 1 118.5 37 A 1.5 2 0 0 1 118.5 33 z M 86.5 34 A 1.5 2 0 0 1 86.5 38 A 1.5 2 0 0 1 86.5 34 z M 91.5 34 A 1.5 2 0 0 1 91.5 38 A 1.5 2 0 0 1 91.5 34 z M 348.5 34 A 2.5 3 0 0 0 348 39.9375 L 348 44 L 349 44 L 349 39.935547 A 2.5 3 0 0 0 348.5 34 z M 353.5 34 A 2.5 3 0 0 0 353 39.9375 L 353 44 L 354 44 L 354 39.935547 A 2.5 3 0 0 0 353.5 34 z M 257.5 35 A 2.5 3 0 0 0 257 40.9375 L 257 45 L 258 45 L 258 40.935547 A 2.5 3 0 0 0 257.5 35 z M 262.5 35 A 2.5 3 0 0 0 262 40.9375 L 262 45 L 263 45 L 263 40.935547 A 2.5 3 0 0 0 262.5 35 z M 286.5 35 A 2.5 3 0 0 0 286 40.9375 L 286 45 L 287 45 L 287 40.935547 A 2.5 3 0 0 0 286.5 35 z M 291.5 35 A 2.5 3 0 0 0 291 40.9375 L 291 45 L 292 45 L 292 40.935547 A 2.5 3 0 0 0 291.5 35 z M 348.5 35 A 1.5 2 0 0 1 348.5 39 A 1.5 2 0 0 1 348.5 35 z M 353.5 35 A 1.5 2 0 0 1 353.5 39 A 1.5 2 0 0 1 353.5 35 z M 257.5 36 A 1.5 2 0 0 1 257.5 40 A 1.5 2 0 0 1 257.5 36 z M 262.5 36 A 1.5 2 0 0 1 262.5 40 A 1.5 2 0 0 1 262.5 36 z M 286.5 36 A 1.5 2 0 0 1 286.5 40 A 1.5 2 0 0 1 286.5 36 z M 291.5 36 A 1.5 2 0 0 1 291.5 40 A 1.5 2 0 0 1 291.5 36 z M 462.5 36 A 2.5 3 0 0 0 462 41.9375 L 462 46 L 463 46 L 463 41.935547 A 2.5 3 0 0 0 462.5 36 z M 467.5 36 A 2.5 3 0 0 0 467 41.9375 L 467 46 L 468 46 L 468 41.935547 A 2.5 3 0 0 0 467.5 36 z M 462.5 37 A 1.5 2 0 0 1 462.5 41 A 1.5 2 0 0 1 462.5 37 z M 467.5 37 A 1.5 2 0 0 1 467.5 41 A 1.5 2 0 0 1 467.5 37 z M 11.5 38 A 2.5 3 0 0 0 11 43.9375 L 11 48 L 12 48 L 12 43.935547 A 2.5 3 0 0 0 11.5 38 z M 16.5 38 A 2.5 3 0 0 0 16 43.9375 L 16 48 L 17 48 L 17 43.935547 A 2.5 3 0 0 0 16.5 38 z M 377.5 38 A 2.5 3 0 0 0 377 43.9375 L 377 48 L 378 48 L 378 43.935547 A 2.5 3 0 0 0 377.5 38 z M 382.5 38 A 2.5 3 0 0 0 382 43.9375 L 382 48 L 383 48 L 383 43.935547 A 2.5 3 0 0 0 382.5 38 z M 407.5 38 A 2.5 3 0 0 0 407 43.9375 L 407 48 L 408 48 L 408 43.935547 A 2.5 3 0 0 0 407.5 38 z M 412.5 38 A 2.5 3 0 0 0 412 43.9375 L 412 48 L 413 48 L 413 43.935547 A 2.5 3 0 0 0 412.5 38 z M 11.5 39 A 1.5 2 0 0 1 11.5 43 A 1.5 2 0 0 1 11.5 39 z M 16.5 39 A 1.5 2 0 0 1 16.5 43 A 1.5 2 0 0 1 16.5 39 z M 175.5 39 A 2.5 3 0 0 0 175 44.9375 L 175 49 L 176 49 L 176 44.935547 A 2.5 3 0 0 0 175.5 39 z M 180.5 39 A 2.5 3 0 0 0 180 44.9375 L 180 49 L 181 49 L 181 44.935547 A 2.5 3 0 0 0 180.5 39 z M 377.5 39 A 1.5 2 0 0 1 377.5 43 A 1.5 2 0 0 1 377.5 39 z M 382.5 39 A 1.5 2 0 0 1 382.5 43 A 1.5 2 0 0 1 382.5 39 z M 407.5 39 A 1.5 2 0 0 1 407.5 43 A 1.5 2 0 0 1 407.5 39 z M 412.5 39 A 1.5 2 0 0 1 412.5 43 A 1.5 2 0 0 1 412.5 39 z M 175.5 40 A 1.5 2 0 0 1 175.5 44 A 1.5 2 0 0 1 175.5 40 z M 180.5 40 A 1.5 2 0 0 1 180.5 44 A 1.5 2 0 0 1 180.5 40 z M 50.5 41 A 2.5 3 0 0 0 50 46.9375 L 50 51 L 51 51 L 51 46.935547 A 2.5 3 0 0 0 50.5 41 z M 55.5 41 A 2.5 3 0 0 0 55 46.9375 L 55 51 L 56 51 L 56 46.935547 A 2.5 3 0 0 0 55.5 41 z M 50.5 42 A 1.5 2 0 0 1 50.5 46 A 1.5 2 0 0 1 50.5 42 z M 55.5 42 A 1.5 2 0 0 1 55.5 46 A 1.5 2 0 0 1 55.5 42 z M 230.5 46 A 2.5 3 0 0 0 230 51.9375 L 230 56 L 231 56 L 231 51.935547 A 2.5 3 0 0 0 230.5 46 z M 235.5 46 A 2.5 3 0 0 0 235 51.9375 L 235 56 L 236 56 L 236 51.935547 A 2.5 3 0 0 0 235.5 46 z M 230.5 47 A 1.5 2 0 0 1 230.5 51 A 1.5 2 0 0 1 230.5 47 z M 235.5 47 A 1.5 2 0 0 1 235.5 51 A 1.5 2 0 0 1 235.5 47 z M 434.5 47 A 2.5 3 0 0 0 434 52.9375 L 434 57 L 435 57 L 435 52.935547 A 2.5 3 0 0 0 434.5 47 z M 439.5 47 A 2.5 3 0 0 0 439 52.9375 L 439 57 L 440 57 L 440 52.935547 A 2.5 3 0 0 0 439.5 47 z M 434.5 48 A 1.5 2 0 0 1 434.5 52 A 1.5 2 0 0 1 434.5 48 z M 439.5 48 A 1.5 2 0 0 1 439.5 52 A 1.5 2 0 0 1 439.5 48 z M 495.5 49 A 2.5 3 0 0 0 495 54.9375 L 495 59 L 496 59 L 496 54.935547 A 2.5 3 0 0 0 495.5 49 z M 500.5 49 A 2.5 3 0 0 0 500 54.9375 L 500 59 L 501 59 L 501 54.935547 A 2.5 3 0 0 0 500.5 49 z M 495.5 50 A 1.5 2 0 0 1 495.5 54 A 1.5 2 0 0 1 495.5 50 z M 500.5 50 A 1.5 2 0 0 1 500.5 54 A 1.5 2 0 0 1 500.5 50 z M 316.5 54 A 2.5 3 0 0 0 316 59.9375 L 316 64 L 317 64 L 317 59.935547 A 2.5 3 0 0 0 316.5 54 z M 321.5 54 A 2.5 3 0 0 0 321 59.9375 L 321 64 L 322 64 L 322 59.935547 A 2.5 3 0 0 0 321.5 54 z M 316.5 55 A 1.5 2 0 0 1 316.5 59 A 1.5 2 0 0 1 316.5 55 z M 321.5 55 A 1.5 2 0 0 1 321.5 59 A 1.5 2 0 0 1 321.5 55 z M 33.5 59 A 2.5 3 0 0 0 33 64.9375 L 33 69 L 34 69 L 34 64.935547 A 2.5 3 0 0 0 33.5 59 z M 38.5 59 A 2.5 3 0 0 0 38 64.9375 L 38 69 L 39 69 L 39 64.935547 A 2.5 3 0 0 0 38.5 59 z M 112.5 59 A 2.5 3 0 0 0 112 64.9375 L 112 69 L 113 69 L 113 64.935547 A 2.5 3 0 0 0 112.5 59 z M 117.5 59 A 2.5 3 0 0 0 117 64.9375 L 117 69 L 118 69 L 118 64.935547 A 2.5 3 0 0 0 117.5 59 z M 33.5 60 A 1.5 2 0 0 1 33.5 64 A 1.5 2 0 0 1 33.5 60 z M 38.5 60 A 1.5 2 0 0 1 38.5 64 A 1.5 2 0 0 1 38.5 60 z M 112.5 60 A 1.5 2 0 0 1 112.5 64 A 1.5 2 0 0 1 112.5 60 z M 117.5 60 A 1.5 2 0 0 1 117.5 64 A 1.5 2 0 0 1 117.5 60 z M 141.5 62 A 2.5 3 0 0 0 141 67.9375 L 141 72 L 142 72 L 142 67.935547 A 2.5 3 0 0 0 141.5 62 z M 146.5 62 A 2.5 3 0 0 0 146 67.9375 L 146 72 L 147 72 L 147 67.935547 A 2.5 3 0 0 0 146.5 62 z M 199.5 62 A 2.5 3 0 0 0 199 67.9375 L 199 72 L 200 72 L 200 67.935547 A 2.5 3 0 0 0 199.5 62 z M 204.5 62 A 2.5 3 0 0 0 204 67.9375 L 204 72 L 205 72 L 205 67.935547 A 2.5 3 0 0 0 204.5 62 z M 141.5 63 A 1.5 2 0 0 1 141.5 67 A 1.5 2 0 0 1 141.5 63 z M 146.5 63 A 1.5 2 0 0 1 146.5 67 A 1.5 2 0 0 1 146.5 63 z M 199.5 63 A 1.5 2 0 0 1 199.5 67 A 1.5 2 0 0 1 199.5 63 z M 204.5 63 A 1.5 2 0 0 1 204.5 67 A 1.5 2 0 0 1 204.5 63 z M 77.5 64 A 2.5 3 0 0 0 77 69.9375 L 77 74 L 78 74 L 78 69.935547 A 2.5 3 0 0 0 77.5 64 z M 82.5 64 A 2.5 3 0 0 0 82 69.9375 L 82 74 L 83 74 L 83 69.935547 A 2.5 3 0 0 0 82.5 64 z M 77.5 65 A 1.5 2 0 0 1 77.5 69 A 1.5 2 0 0 1 77.5 65 z M 82.5 65 A 1.5 2 0 0 1 82.5 69 A 1.5 2 0 0 1 82.5 65 z M 376.5 65 A 2.5 3 0 0 0 376 70.9375 L 376 75 L 377 75 L 377 70.935547 A 2.5 3 0 0 0 376.5 65 z M 381.5 65 A 2.5 3 0 0 0 381 70.9375 L 381 75 L 382 75 L 382 70.935547 A 2.5 3 0 0 0 381.5 65 z M 465.5 65 A 2.5 3 0 0 0 465 70.9375 L 465 75 L 466 75 L 466 70.935547 A 2.5 3 0 0 0 465.5 65 z M 470.5 65 A 2.5 3 0 0 0 470 70.9375 L 470 75 L 471 75 L 471 70.935547 A 2.5 3 0 0 0 470.5 65 z M 263.5 66 A 2.5 3 0 0 0 263 71.9375 L 263 76 L 264 76 L 264 71.935547 A 2.5 3 0 0 0 263.5 66 z M 268.5 66 A 2.5 3 0 0 0 268 71.9375 L 268 76 L 269 76 L 269 71.935547 A 2.5 3 0 0 0 268.5 66 z M 342.5 66 A 2.5 3 0 0 0 342 71.9375 L 342 76 L 343 76 L 343 71.935547 A 2.5 3 0 0 0 342.5 66 z M 347.5 66 A 2.5 3 0 0 0 347 71.9375 L 347 76 L 348 76 L 348 71.935547 A 2.5 3 0 0 0 347.5 66 z M 376.5 66 A 1.5 2 0 0 1 376.5 70 A 1.5 2 0 0 1 376.5 66 z M 381.5 66 A 1.5 2 0 0 1 381.5 70 A 1.5 2 0 0 1 381.5 66 z M 465.5 66 A 1.5 2 0 0 1 465.5 70 A 1.5 2 0 0 1 465.5 66 z M 470.5 66 A 1.5 2 0 0 1 470.5 70 A 1.5 2 0 0 1 470.5 66 z M 263.5 67 A 1.5 2 0 0 1 263.5 71 A 1.5 2 0 0 1 263.5 67 z M 268.5 67 A 1.5 2 0 0 1 268.5 71 A 1.5 2 0 0 1 268.5 67 z M 342.5 67 A 1.5 2 0 0 1 342.5 71 A 1.5 2 0 0 1 342.5 67 z M 347.5 67 A 1.5 2 0 0 1 347.5 71 A 1.5 2 0 0 1 347.5 67 z M 170.5 68 A 2.5 3 0 0 0 170 73.9375 L 170 78 L 171 78 L 171 73.935547 A 2.5 3 0 0 0 170.5 68 z M 175.5 68 A 2.5 3 0 0 0 175 73.9375 L 175 78 L 176 78 L 176 73.935547 A 2.5 3 0 0 0 175.5 68 z M 294.5 68 A 2.5 3 0 0 0 294 73.9375 L 294 78 L 295 78 L 295 73.935547 A 2.5 3 0 0 0 294.5 68 z M 299.5 68 A 2.5 3 0 0 0 299 73.9375 L 299 78 L 300 78 L 300 73.935547 A 2.5 3 0 0 0 299.5 68 z M 170.5 69 A 1.5 2 0 0 1 170.5 73 A 1.5 2 0 0 1 170.5 69 z M 175.5 69 A 1.5 2 0 0 1 175.5 73 A 1.5 2 0 0 1 175.5 69 z M 294.5 69 A 1.5 2 0 0 1 294.5 73 A 1.5 2 0 0 1 294.5 69 z M 299.5 69 A 1.5 2 0 0 1 299.5 73 A 1.5 2 0 0 1 299.5 69 z M 404.5 71 A 2.5 3 0 0 0 404 76.9375 L 404 81 L 405 81 L 405 76.935547 A 2.5 3 0 0 0 404.5 71 z M 409.5 71 A 2.5 3 0 0 0 409 76.9375 L 409 81 L 410 81 L 410 76.935547 A 2.5 3 0 0 0 409.5 71 z M 3.5 72 A 2.5 3 0 0 0 3 77.9375 L 3 82 L 4 82 L 4 77.935547 A 2.5 3 0 0 0 3.5 72 z M 8.5 72 A 2.5 3 0 0 0 8 77.9375 L 8 82 L 9 82 L 9 77.935547 A 2.5 3 0 0 0 8.5 72 z M 404.5 72 A 1.5 2 0 0 1 404.5 76 A 1.5 2 0 0 1 404.5 72 z M 409.5 72 A 1.5 2 0 0 1 409.5 76 A 1.5 2 0 0 1 409.5 72 z M 3.5 73 A 1.5 2 0 0 1 3.5 77 A 1.5 2 0 0 1 3.5 73 z M 8.5 73 A 1.5 2 0 0 1 8.5 77 A 1.5 2 0 0 1 8.5 73 z M 230.5 74 A 2.5 3 0 0 0 230 79.9375 L 230 84 L 231 84 L 231 79.935547 A 2.5 3 0 0 0 230.5 74 z M 235.5 74 A 2.5 3 0 0 0 235 79.9375 L 235 84 L 236 84 L 236 79.935547 A 2.5 3 0 0 0 235.5 74 z M 230.5 75 A 1.5 2 0 0 1 230.5 79 A 1.5 2 0 0 1 230.5 75 z M 235.5 75 A 1.5 2 0 0 1 235.5 79 A 1.5 2 0 0 1 235.5 75 z M 438.5 78 A 2.5 3 0 0 0 438 83.9375 L 438 88 L 439 88 L 439 83.935547 A 2.5 3 0 0 0 438.5 78 z M 443.5 78 A 2.5 3 0 0 0 443 83.9375 L 443 88 L 444 88 L 444 83.935547 A 2.5 3 0 0 0 443.5 78 z M 438.5 79 A 1.5 2 0 0 1 438.5 83 A 1.5 2 0 0 1 438.5 79 z M 443.5 79 A 1.5 2 0 0 1 443.5 83 A 1.5 2 0 0 1 443.5 79 z M 53.5 83 A 2.5 3 0 0 0 53 88.9375 L 53 93 L 54 93 L 54 88.935547 A 2.5 3 0 0 0 53.5 83 z M 58.5 83 A 2.5 3 0 0 0 58 88.9375 L 58 93 L 59 93 L 59 88.935547 A 2.5 3 0 0 0 58.5 83 z M 53.5 84 A 1.5 2 0 0 1 53.5 88 A 1.5 2 0 0 1 53.5 84 z M 58.5 84 A 1.5 2 0 0 1 58.5 88 A 1.5 2 0 0 1 58.5 84 z M 487.5 85 A 2.5 3 0 0 0 487 90.9375 L 487 95 L 488 95 L 488 90.935547 A 2.5 3 0 0 0 487.5 85 z M 492.5 85 A 2.5 3 0 0 0 492 90.9375 L 492 95 L 493 95 L 493 90.935547 A 2.5 3 0 0 0 492.5 85 z M 487.5 86 A 1.5 2 0 0 1 487.5 90 A 1.5 2 0 0 1 487.5 86 z M 492.5 86 A 1.5 2 0 0 1 492.5 90 A 1.5 2 0 0 1 492.5 86 z M 201.5 90 A 2.5 3 0 0 0 201 95.9375 L 201 100 L 202 100 L 202 95.935547 A 2.5 3 0 0 0 201.5 90 z M 206.5 90 A 2.5 3 0 0 0 206 95.9375 L 206 100 L 207 100 L 207 95.935547 A 2.5 3 0 0 0 206.5 90 z M 88.5 91 A 2.5 3 0 0 0 88 96.9375 L 88 101 L 89 101 L 89 96.935547 A 2.5 3 0 0 0 88.5 91 z M 93.5 91 A 2.5 3 0 0 0 93 96.9375 L 93 101 L 94 101 L 94 96.935547 A 2.5 3 0 0 0 93.5 91 z M 201.5 91 A 1.5 2 0 0 1 201.5 95 A 1.5 2 0 0 1 201.5 91 z M 206.5 91 A 1.5 2 0 0 1 206.5 95 A 1.5 2 0 0 1 206.5 91 z M 318.5 91 A 2.5 3 0 0 0 318 96.9375 L 318 101 L 319 101 L 319 96.935547 A 2.5 3 0 0 0 318.5 91 z M 323.5 91 A 2.5 3 0 0 0 323 96.9375 L 323 101 L 324 101 L 324 96.935547 A 2.5 3 0 0 0 323.5 91 z M 88.5 92 A 1.5 2 0 0 1 88.5 96 A 1.5 2 0 0 1 88.5 92 z M 93.5 92 A 1.5 2 0 0 1 93.5 96 A 1.5 2 0 0 1 93.5 92 z M 117.5 92 A 2.5 3 0 0 0 117 97.9375 L 117 102 L 118 102 L 118 97.935547 A 2.5 3 0 0 0 117.5 92 z M 122.5 92 A 2.5 3 0 0 0 122 97.9375 L 122 102 L 123 102 L 123 97.935547 A 2.5 3 0 0 0 122.5 92 z M 318.5 92 A 1.5 2 0 0 1 318.5 96 A 1.5 2 0 0 1 318.5 92 z M 323.5 92 A 1.5 2 0 0 1 323.5 96 A 1.5 2 0 0 1 323.5 92 z M 117.5 93 A 1.5 2 0 0 1 117.5 97 A 1.5 2 0 0 1 117.5 93 z M 122.5 93 A 1.5 2 0 0 1 122.5 97 A 1.5 2 0 0 1 122.5 93 z M 363.5 94 A 2.5 3 0 0 0 363 99.9375 L 363 104 L 364 104 L 364 99.935547 A 2.5 3 0 0 0 363.5 94 z M 368.5 94 A 2.5 3 0 0 0 368 99.9375 L 368 104 L 369 104 L 369 99.935547 A 2.5 3 0 0 0 368.5 94 z M 144.5 95 A 2.5 3 0 0 0 144 100.9375 L 144 105 L 145 105 L 145 100.93555 A 2.5 3 0 0 0 144.5 95 z M 149.5 95 A 2.5 3 0 0 0 149 100.9375 L 149 105 L 150 105 L 150 100.93555 A 2.5 3 0 0 0 149.5 95 z M 363.5 95 A 1.5 2 0 0 1 363.5 99 A 1.5 2 0 0 1 363.5 95 z M 368.5 95 A 1.5 2 0 0 1 368.5 99 A 1.5 2 0 0 1 368.5 95 z M 144.5 96 A 1.5 2 0 0 1 144.5 100 A 1.5 2 0 0 1 144.5 96 z M 149.5 96 A 1.5 2 0 0 1 149.5 100 A 1.5 2 0 0 1 149.5 96 z M 278.5 96 A 2.5 3 0 0 0 278 101.9375 L 278 106 L 279 106 L 279 101.93555 A 2.5 3 0 0 0 278.5 96 z M 283.5 96 A 2.5 3 0 0 0 283 101.9375 L 283 106 L 284 106 L 284 101.93555 A 2.5 3 0 0 0 283.5 96 z M 278.5 97 A 1.5 2 0 0 1 278.5 101 A 1.5 2 0 0 1 278.5 97 z M 283.5 97 A 1.5 2 0 0 1 283.5 101 A 1.5 2 0 0 1 283.5 97 z M 23.5 99 A 2.5 3 0 0 0 23 104.9375 L 23 109 L 24 109 L 24 104.93555 A 2.5 3 0 0 0 23.5 99 z M 28.5 99 A 2.5 3 0 0 0 28 104.9375 L 28 109 L 29 109 L 29 104.93555 A 2.5 3 0 0 0 28.5 99 z M 250.5 99 A 2.5 3 0 0 0 250 104.9375 L 250 109 L 251 109 L 251 104.93555 A 2.5 3 0 0 0 250.5 99 z M 255.5 99 A 2.5 3 0 0 0 255 104.9375 L 255 109 L 256 109 L 256 104.93555 A 2.5 3 0 0 0 255.5 99 z M 23.5 100 A 1.5 2 0 0 1 23.5 104 A 1.5 2 0 0 1 23.5 100 z M 28.5 100 A 1.5 2 0 0 1 28.5 104 A 1.5 2 0 0 1 28.5 100 z M 250.5 100 A 1.5 2 0 0 1 250.5 104 A 1.5 2 0 0 1 250.5 100 z M 255.5 100 A 1.5 2 0 0 1 255.5 104 A 1.5 2 0 0 1 255.5 100 z M 396.5 101 A 2.5 3 0 0 0 396 106.9375 L 396 111 L 397 111 L 397 106.93555 A 2.5 3 0 0 0 396.5 101 z M 401.5 101 A 2.5 3 0 0 0 401 106.9375 L 401 111 L 402 111 L 402 106.93555 A 2.5 3 0 0 0 401.5 101 z M 396.5 102 A 1.5 2 0 0 1 396.5 106 A 1.5 2 0 0 1 396.5 102 z M 401.5 102 A 1.5 2 0 0 1 401.5 106 A 1.5 2 0 0 1 401.5 102 z M 460.5 102 A 2.5 3 0 0 0 460 107.9375 L 460 112 L 461 112 L 461 107.93555 A 2.5 3 0 0 0 460.5 102 z M 465.5 102 A 2.5 3 0 0 0 465 107.9375 L 465 112 L 466 112 L 466 107.93555 A 2.5 3 0 0 0 465.5 102 z M 171.5 103 A 2.5 3 0 0 0 171 108.9375 L 171 113 L 172 113 L 172 108.93555 A 2.5 3 0 0 0 171.5 103 z M 176.5 103 A 2.5 3 0 0 0 176 108.9375 L 176 113 L 177 113 L 177 108.93555 A 2.5 3 0 0 0 176.5 103 z M 460.5 103 A 1.5 2 0 0 1 460.5 107 A 1.5 2 0 0 1 460.5 103 z M 465.5 103 A 1.5 2 0 0 1 465.5 107 A 1.5 2 0 0 1 465.5 103 z M 171.5 104 A 1.5 2 0 0 1 171.5 108 A 1.5 2 0 0 1 171.5 104 z M 176.5 104 A 1.5 2 0 0 1 176.5 108 A 1.5 2 0 0 1 176.5 104 z M 426.5 105 A 2.5 3 0 0 0 426 110.9375 L 426 115 L 427 115 L 427 110.93555 A 2.5 3 0 0 0 426.5 105 z M 431.5 105 A 2.5 3 0 0 0 431 110.9375 L 431 115 L 432 115 L 432 110.93555 A 2.5 3 0 0 0 431.5 105 z M 426.5 106 A 1.5 2 0 0 1 426.5 110 A 1.5 2 0 0 1 426.5 106 z M 431.5 106 A 1.5 2 0 0 1 431.5 110 A 1.5 2 0 0 1 431.5 106 z M 73.5 108 A 2.5 3 0 0 0 73 113.9375 L 73 118 L 74 118 L 74 113.93555 A 2.5 3 0 0 0 73.5 108 z M 78.5 108 A 2.5 3 0 0 0 78 113.9375 L 78 118 L 79 118 L 79 113.93555 A 2.5 3 0 0 0 78.5 108 z M 73.5 109 A 1.5 2 0 0 1 73.5 113 A 1.5 2 0 0 1 73.5 109 z M 78.5 109 A 1.5 2 0 0 1 78.5 113 A 1.5 2 0 0 1 78.5 109 z M 219.5 109 A 2.5 3 0 0 0 219 114.9375 L 219 119 L 220 119 L 220 114.93555 A 2.5 3 0 0 0 219.5 109 z M 224.5 109 A 2.5 3 0 0 0 224 114.9375 L 224 119 L 225 119 L 225 114.93555 A 2.5 3 0 0 0 224.5 109 z M 2.5 110 A 2.5 3 0 0 0 2 115.9375 L 2 120 L 3 120 L 3 115.93555 A 2.5 3 0 0 0 2.5 110 z M 219.5 110 A 1.5 2 0 0 1 219.5 114 A 1.5 2 0 0 1 219.5 110 z M 224.5 110 A 1.5 2 0 0 1 224.5 114 A 1.5 2 0 0 1 224.5 110 z M 509.5 110 A 2.5 3 0 0 0 509 115.9375 L 509 120 L 510 120 L 510 115.93555 A 2.5 3 0 0 0 509.5 110 z M 2.5 111 A 1.5 2 0 0 1 2.5 115 A 1.5 2 0 0 1 2.5 111 z M 509.5 111 A 1.5 2 0 0 1 509.5 115 A 1.5 2 0 0 1 509.5 111 z M 339.5 114 A 2.5 3 0 0 0 339 119.9375 L 339 124 L 340 124 L 340 119.93555 A 2.5 3 0 0 0 339.5 114 z M 344.5 114 A 2.5 3 0 0 0 344 119.9375 L 344 124 L 345 124 L 345 119.93555 A 2.5 3 0 0 0 344.5 114 z M 339.5 115 A 1.5 2 0 0 1 339.5 119 A 1.5 2 0 0 1 339.5 115 z M 344.5 115 A 1.5 2 0 0 1 344.5 119 A 1.5 2 0 0 1 344.5 115 z M 304.5 117 A 2.5 3 0 0 0 304 122.9375 L 304 127 L 305 127 L 305 122.93555 A 2.5 3 0 0 0 304.5 117 z M 309.5 117 A 2.5 3 0 0 0 309 122.9375 L 309 127 L 310 127 L 310 122.93555 A 2.5 3 0 0 0 309.5 117 z M 304.5 118 A 1.5 2 0 0 1 304.5 122 A 1.5 2 0 0 1 304.5 118 z M 309.5 118 A 1.5 2 0 0 1 309.5 122 A 1.5 2 0 0 1 309.5 118 z M 46.5 120 A 2.5 3 0 0 0 46 125.9375 L 46 130 L 47 130 L 47 125.93555 A 2.5 3 0 0 0 46.5 120 z M 51.5 120 A 2.5 3 0 0 0 51 125.9375 L 51 130 L 52 130 L 52 125.93555 A 2.5 3 0 0 0 51.5 120 z M 46.5 121 A 1.5 2 0 0 1 46.5 125 A 1.5 2 0 0 1 46.5 121 z M 51.5 121 A 1.5 2 0 0 1 51.5 125 A 1.5 2 0 0 1 51.5 121 z M 110.5 123 A 2.5 3 0 0 0 110 128.9375 L 110 133 L 111 133 L 111 128.93555 A 2.5 3 0 0 0 110.5 123 z M 115.5 123 A 2.5 3 0 0 0 115 128.9375 L 115 133 L 116 133 L 116 128.93555 A 2.5 3 0 0 0 115.5 123 z M 110.5 124 A 1.5 2 0 0 1 110.5 128 A 1.5 2 0 0 1 110.5 124 z M 115.5 124 A 1.5 2 0 0 1 115.5 128 A 1.5 2 0 0 1 115.5 124 z M 367.5 124 A 2.5 3 0 0 0 367 129.9375 L 367 134 L 368 134 L 368 129.93555 A 2.5 3 0 0 0 367.5 124 z M 372.5 124 A 2.5 3 0 0 0 372 129.9375 L 372 134 L 373 134 L 373 129.93555 A 2.5 3 0 0 0 372.5 124 z M 141.5 125 A 2.5 3 0 0 0 141 130.9375 L 141 135 L 142 135 L 142 130.93555 A 2.5 3 0 0 0 141.5 125 z M 146.5 125 A 2.5 3 0 0 0 146 130.9375 L 146 135 L 147 135 L 147 130.93555 A 2.5 3 0 0 0 146.5 125 z M 367.5 125 A 1.5 2 0 0 1 367.5 129 A 1.5 2 0 0 1 367.5 125 z M 372.5 125 A 1.5 2 0 0 1 372.5 129 A 1.5 2 0 0 1 372.5 125 z M 480.5 125 A 2.5 3 0 0 0 480 130.9375 L 480 135 L 481 135 L 481 130.93555 A 2.5 3 0 0 0 480.5 125 z M 485.5 125 A 2.5 3 0 0 0 485 130.9375 L 485 135 L 486 135 L 486 130.93555 A 2.5 3 0 0 0 485.5 125 z M 141.5 126 A 1.5 2 0 0 1 141.5 130 A 1.5 2 0 0 1 141.5 126 z M 146.5 126 A 1.5 2 0 0 1 146.5 130 A 1.5 2 0 0 1 146.5 126 z M 192.5 126 A 2.5 3 0 0 0 192 131.9375 L 192 136 L 193 136 L 193 131.93555 A 2.5 3 0 0 0 192.5 126 z M 197.5 126 A 2.5 3 0 0 0 197 131.9375 L 197 136 L 198 136 L 198 131.93555 A 2.5 3 0 0 0 197.5 126 z M 480.5 126 A 1.5 2 0 0 1 480.5 130 A 1.5 2 0 0 1 480.5 126 z M 485.5 126 A 1.5 2 0 0 1 485.5 130 A 1.5 2 0 0 1 485.5 126 z M 192.5 127 A 1.5 2 0 0 1 192.5 131 A 1.5 2 0 0 1 192.5 127 z M 197.5 127 A 1.5 2 0 0 1 197.5 131 A 1.5 2 0 0 1 197.5 127 z M 251.5 129 A 2.5 3 0 0 0 251 134.9375 L 251 139 L 252 139 L 252 134.93555 A 2.5 3 0 0 0 251.5 129 z M 256.5 129 A 2.5 3 0 0 0 256 134.9375 L 256 139 L 257 139 L 257 134.93555 A 2.5 3 0 0 0 256.5 129 z M 251.5 130 A 1.5 2 0 0 1 251.5 134 A 1.5 2 0 0 1 251.5 130 z M 256.5 130 A 1.5 2 0 0 1 256.5 134 A 1.5 2 0 0 1 256.5 130 z M 279.5 130 A 2.5 3 0 0 0 279 135.9375 L 279 140 L 280 140 L 280 135.93555 A 2.5 3 0 0 0 279.5 130 z M 284.5 130 A 2.5 3 0 0 0 284 135.9375 L 284 140 L 285 140 L 285 135.93555 A 2.5 3 0 0 0 284.5 130 z M 431.5 130 A 2.5 3 0 0 0 431 135.9375 L 431 140 L 432 140 L 432 135.93555 A 2.5 3 0 0 0 431.5 130 z M 436.5 130 A 2.5 3 0 0 0 436 135.9375 L 436 140 L 437 140 L 437 135.93555 A 2.5 3 0 0 0 436.5 130 z M 279.5 131 A 1.5 2 0 0 1 279.5 135 A 1.5 2 0 0 1 279.5 131 z M 284.5 131 A 1.5 2 0 0 1 284.5 135 A 1.5 2 0 0 1 284.5 131 z M 401.5 131 A 2.5 3 0 0 0 401 136.9375 L 401 141 L 402 141 L 402 136.93555 A 2.5 3 0 0 0 401.5 131 z M 406.5 131 A 2.5 3 0 0 0 406 136.9375 L 406 141 L 407 141 L 407 136.93555 A 2.5 3 0 0 0 406.5 131 z M 431.5 131 A 1.5 2 0 0 1 431.5 135 A 1.5 2 0 0 1 431.5 131 z M 436.5 131 A 1.5 2 0 0 1 436.5 135 A 1.5 2 0 0 1 436.5 131 z M 401.5 132 A 1.5 2 0 0 1 401.5 136 A 1.5 2 0 0 1 401.5 132 z M 406.5 132 A 1.5 2 0 0 1 406.5 136 A 1.5 2 0 0 1 406.5 132 z M 15.5 135 A 2.5 3 0 0 0 15 140.9375 L 15 145 L 16 145 L 16 140.93555 A 2.5 3 0 0 0 15.5 135 z M 20.5 135 A 2.5 3 0 0 0 20 140.9375 L 20 145 L 21 145 L 21 140.93555 A 2.5 3 0 0 0 20.5 135 z M 15.5 136 A 1.5 2 0 0 1 15.5 140 A 1.5 2 0 0 1 15.5 136 z M 20.5 136 A 1.5 2 0 0 1 20.5 140 A 1.5 2 0 0 1 20.5 136 z M 162.5 137 A 2.5 3 0 0 0 162 142.9375 L 162 147 L 163 147 L 163 142.93555 A 2.5 3 0 0 0 162.5 137 z M 167.5 137 A 2.5 3 0 0 0 167 142.9375 L 167 147 L 168 147 L 168 142.93555 A 2.5 3 0 0 0 167.5 137 z M 219.5 137 A 2.5 3 0 0 0 219 142.9375 L 219 147 L 220 147 L 220 142.93555 A 2.5 3 0 0 0 219.5 137 z M 224.5 137 A 2.5 3 0 0 0 224 142.9375 L 224 147 L 225 147 L 225 142.93555 A 2.5 3 0 0 0 224.5 137 z M 162.5 138 A 1.5 2 0 0 1 162.5 142 A 1.5 2 0 0 1 162.5 138 z M 167.5 138 A 1.5 2 0 0 1 167.5 142 A 1.5 2 0 0 1 167.5 138 z M 219.5 138 A 1.5 2 0 0 1 219.5 142 A 1.5 2 0 0 1 219.5 138 z M 224.5 138 A 1.5 2 0 0 1 224.5 142 A 1.5 2 0 0 1 224.5 138 z M 452.5 139 A 2.5 3 0 0 0 452 144.9375 L 452 149 L 453 149 L 453 144.93555 A 2.5 3 0 0 0 452.5 139 z M 457.5 139 A 2.5 3 0 0 0 457 144.9375 L 457 149 L 458 149 L 458 144.93555 A 2.5 3 0 0 0 457.5 139 z M 452.5 140 A 1.5 2 0 0 1 452.5 144 A 1.5 2 0 0 1 452.5 140 z M 457.5 140 A 1.5 2 0 0 1 457.5 144 A 1.5 2 0 0 1 457.5 140 z M 79.5 141 A 2.5 3 0 0 0 79 146.9375 L 79 151 L 80 151 L 80 146.93555 A 2.5 3 0 0 0 79.5 141 z M 84.5 141 A 2.5 3 0 0 0 84 146.9375 L 84 151 L 85 151 L 85 146.93555 A 2.5 3 0 0 0 84.5 141 z M 321.5 141 A 2.5 3 0 0 0 321 146.9375 L 321 151 L 322 151 L 322 146.93555 A 2.5 3 0 0 0 321.5 141 z M 326.5 141 A 2.5 3 0 0 0 326 146.9375 L 326 151 L 327 151 L 327 146.93555 A 2.5 3 0 0 0 326.5 141 z M 79.5 142 A 1.5 2 0 0 1 79.5 146 A 1.5 2 0 0 1 79.5 142 z M 84.5 142 A 1.5 2 0 0 1 84.5 146 A 1.5 2 0 0 1 84.5 142 z M 321.5 142 A 1.5 2 0 0 1 321.5 146 A 1.5 2 0 0 1 321.5 142 z M 326.5 142 A 1.5 2 0 0 1 326.5 146 A 1.5 2 0 0 1 326.5 142 z M 499.5 146 A 2.5 3 0 0 0 499 151.9375 L 499 156 L 500 156 L 500 151.93555 A 2.5 3 0 0 0 499.5 146 z M 504.5 146 A 2.5 3 0 0 0 504 151.9375 L 504 156 L 505 156 L 505 151.93555 A 2.5 3 0 0 0 504.5 146 z M 51.5 147 A 2.5 3 0 0 0 51 152.9375 L 51 157 L 52 157 L 52 152.93555 A 2.5 3 0 0 0 51.5 147 z M 56.5 147 A 2.5 3 0 0 0 56 152.9375 L 56 157 L 57 157 L 57 152.93555 A 2.5 3 0 0 0 56.5 147 z M 348.5 147 A 2.5 3 0 0 0 348 152.9375 L 348 157 L 349 157 L 349 152.93555 A 2.5 3 0 0 0 348.5 147 z M 353.5 147 A 2.5 3 0 0 0 353 152.9375 L 353 157 L 354 157 L 354 152.93555 A 2.5 3 0 0 0 353.5 147 z M 499.5 147 A 1.5 2 0 0 1 499.5 151 A 1.5 2 0 0 1 499.5 147 z M 504.5 147 A 1.5 2 0 0 1 504.5 151 A 1.5 2 0 0 1 504.5 147 z M 51.5 148 A 1.5 2 0 0 1 51.5 152 A 1.5 2 0 0 1 51.5 148 z M 56.5 148 A 1.5 2 0 0 1 56.5 152 A 1.5 2 0 0 1 56.5 148 z M 348.5 148 A 1.5 2 0 0 1 348.5 152 A 1.5 2 0 0 1 348.5 148 z M 353.5 148 A 1.5 2 0 0 1 353.5 152 A 1.5 2 0 0 1 353.5 148 z M 101.5 154 A 2.5 3 0 0 0 101 159.9375 L 101 164 L 102 164 L 102 159.93555 A 2.5 3 0 0 0 101.5 154 z M 106.5 154 A 2.5 3 0 0 0 106 159.9375 L 106 164 L 107 164 L 107 159.93555 A 2.5 3 0 0 0 106.5 154 z M 383.5 154 A 2.5 3 0 0 0 383 159.9375 L 383 164 L 384 164 L 384 159.93555 A 2.5 3 0 0 0 383.5 154 z M 388.5 154 A 2.5 3 0 0 0 388 159.9375 L 388 164 L 389 164 L 389 159.93555 A 2.5 3 0 0 0 388.5 154 z M 101.5 155 A 1.5 2 0 0 1 101.5 159 A 1.5 2 0 0 1 101.5 155 z M 106.5 155 A 1.5 2 0 0 1 106.5 159 A 1.5 2 0 0 1 106.5 155 z M 133.5 155 A 2.5 3 0 0 0 133 160.9375 L 133 165 L 134 165 L 134 160.93555 A 2.5 3 0 0 0 133.5 155 z M 138.5 155 A 2.5 3 0 0 0 138 160.9375 L 138 165 L 139 165 L 139 160.93555 A 2.5 3 0 0 0 138.5 155 z M 383.5 155 A 1.5 2 0 0 1 383.5 159 A 1.5 2 0 0 1 383.5 155 z M 388.5 155 A 1.5 2 0 0 1 388.5 159 A 1.5 2 0 0 1 388.5 155 z M 133.5 156 A 1.5 2 0 0 1 133.5 160 A 1.5 2 0 0 1 133.5 156 z M 138.5 156 A 1.5 2 0 0 1 138.5 160 A 1.5 2 0 0 1 138.5 156 z M 259.5 156 A 2.5 3 0 0 0 259 161.9375 L 259 166 L 260 166 L 260 161.93555 A 2.5 3 0 0 0 259.5 156 z M 264.5 156 A 2.5 3 0 0 0 264 161.9375 L 264 166 L 265 166 L 265 161.93555 A 2.5 3 0 0 0 264.5 156 z M 259.5 157 A 1.5 2 0 0 1 259.5 161 A 1.5 2 0 0 1 259.5 157 z M 264.5 157 A 1.5 2 0 0 1 264.5 161 A 1.5 2 0 0 1 264.5 157 z M 195.5 160 A 2.5 3 0 0 0 195 165.9375 L 195 170 L 196 170 L 196 165.93555 A 2.5 3 0 0 0 195.5 160 z M 200.5 160 A 2.5 3 0 0 0 200 165.9375 L 200 170 L 201 170 L 201 165.93555 A 2.5 3 0 0 0 200.5 160 z M 294.5 160 A 2.5 3 0 0 0 294 165.9375 L 294 170 L 295 170 L 295 165.93555 A 2.5 3 0 0 0 294.5 160 z M 299.5 160 A 2.5 3 0 0 0 299 165.9375 L 299 170 L 300 170 L 300 165.93555 A 2.5 3 0 0 0 299.5 160 z M 468.5 160 A 2.5 3 0 0 0 468 165.9375 L 468 170 L 469 170 L 469 165.93555 A 2.5 3 0 0 0 468.5 160 z M 473.5 160 A 2.5 3 0 0 0 473 165.9375 L 473 170 L 474 170 L 474 165.93555 A 2.5 3 0 0 0 473.5 160 z M 195.5 161 A 1.5 2 0 0 1 195.5 165 A 1.5 2 0 0 1 195.5 161 z M 200.5 161 A 1.5 2 0 0 1 200.5 165 A 1.5 2 0 0 1 200.5 161 z M 294.5 161 A 1.5 2 0 0 1 294.5 165 A 1.5 2 0 0 1 294.5 161 z M 299.5 161 A 1.5 2 0 0 1 299.5 165 A 1.5 2 0 0 1 299.5 161 z M 468.5 161 A 1.5 2 0 0 1 468.5 165 A 1.5 2 0 0 1 468.5 161 z M 473.5 161 A 1.5 2 0 0 1 473.5 165 A 1.5 2 0 0 1 473.5 161 z M 19.5 163 A 2.5 3 0 0 0 19 168.9375 L 19 173 L 20 173 L 20 168.93555 A 2.5 3 0 0 0 19.5 163 z M 24.5 163 A 2.5 3 0 0 0 24 168.9375 L 24 173 L 25 173 L 25 168.93555 A 2.5 3 0 0 0 24.5 163 z M 410.5 163 A 2.5 3 0 0 0 410 168.9375 L 410 173 L 411 173 L 411 168.93555 A 2.5 3 0 0 0 410.5 163 z M 415.5 163 A 2.5 3 0 0 0 415 168.9375 L 415 173 L 416 173 L 416 168.93555 A 2.5 3 0 0 0 415.5 163 z M 19.5 164 A 1.5 2 0 0 1 19.5 168 A 1.5 2 0 0 1 19.5 164 z M 24.5 164 A 1.5 2 0 0 1 24.5 168 A 1.5 2 0 0 1 24.5 164 z M 410.5 164 A 1.5 2 0 0 1 410.5 168 A 1.5 2 0 0 1 410.5 164 z M 415.5 164 A 1.5 2 0 0 1 415.5 168 A 1.5 2 0 0 1 415.5 164 z M 162.5 167 A 2.5 3 0 0 0 162 172.9375 L 162 177 L 163 177 L 163 172.93555 A 2.5 3 0 0 0 162.5 167 z M 167.5 167 A 2.5 3 0 0 0 167 172.9375 L 167 177 L 168 177 L 168 172.93555 A 2.5 3 0 0 0 167.5 167 z M 162.5 168 A 1.5 2 0 0 1 162.5 172 A 1.5 2 0 0 1 162.5 168 z M 167.5 168 A 1.5 2 0 0 1 167.5 172 A 1.5 2 0 0 1 167.5 168 z M 229.5 170 A 2.5 3 0 0 0 229 175.9375 L 229 180 L 230 180 L 230 175.93555 A 2.5 3 0 0 0 229.5 170 z M 234.5 170 A 2.5 3 0 0 0 234 175.9375 L 234 180 L 235 180 L 235 175.93555 A 2.5 3 0 0 0 234.5 170 z M 229.5 171 A 1.5 2 0 0 1 229.5 175 A 1.5 2 0 0 1 229.5 171 z M 234.5 171 A 1.5 2 0 0 1 234.5 175 A 1.5 2 0 0 1 234.5 171 z M 71.5 172 A 2.5 3 0 0 0 71 177.9375 L 71 182 L 72 182 L 72 177.93555 A 2.5 3 0 0 0 71.5 172 z M 76.5 172 A 2.5 3 0 0 0 76 177.9375 L 76 182 L 77 182 L 77 177.93555 A 2.5 3 0 0 0 76.5 172 z M 71.5 173 A 1.5 2 0 0 1 71.5 177 A 1.5 2 0 0 1 71.5 173 z M 76.5 173 A 1.5 2 0 0 1 76.5 177 A 1.5 2 0 0 1 76.5 173 z M 505.5 174 A 2.5 3 0 0 0 505 179.9375 L 505 184 L 506 184 L 506 179.93555 A 2.5 3 0 0 0 505.5 174 z M 510.5 174 A 2.5 3 0 0 0 510 179.9375 L 510 184 L 511 184 L 511 179.93555 A 2.5 3 0 0 0 512 179.40039 L 512 176.94141 A 1.5 2 0 0 1 510.5 179 A 1.5 2 0 0 1 510.5 175 A 1.5 2 0 0 1 512 176.94141 L 512 174.60352 A 2.5 3 0 0 0 510.5 174 z M 0 174.60352 L 0 176.94141 L 0 179.40039 A 2.5 3 0 0 0 0 174.60352 z M 505.5 175 A 1.5 2 0 0 1 505.5 179 A 1.5 2 0 0 1 505.5 175 z M 356.5 176 A 2.5 3 0 0 0 356 181.9375 L 356 186 L 357 186 L 357 181.93555 A 2.5 3 0 0 0 356.5 176 z M 361.5 176 A 2.5 3 0 0 0 361 181.9375 L 361 186 L 362 186 L 362 181.93555 A 2.5 3 0 0 0 361.5 176 z M 323.5 177 A 2.5 3 0 0 0 323 182.9375 L 323 187 L 324 187 L 324 182.93555 A 2.5 3 0 0 0 323.5 177 z M 328.5 177 A 2.5 3 0 0 0 328 182.9375 L 328 187 L 329 187 L 329 182.93555 A 2.5 3 0 0 0 328.5 177 z M 356.5 177 A 1.5 2 0 0 1 356.5 181 A 1.5 2 0 0 1 356.5 177 z M 361.5 177 A 1.5 2 0 0 1 361.5 181 A 1.5 2 0 0 1 361.5 177 z M 443.5 177 A 2.5 3 0 0 0 443 182.9375 L 443 187 L 444 187 L 444 182.93555 A 2.5 3 0 0 0 443.5 177 z M 448.5 177 A 2.5 3 0 0 0 448 182.9375 L 448 187 L 449 187 L 449 182.93555 A 2.5 3 0 0 0 448.5 177 z M 323.5 178 A 1.5 2 0 0 1 323.5 182 A 1.5 2 0 0 1 323.5 178 z M 328.5 178 A 1.5 2 0 0 1 328.5 182 A 1.5 2 0 0 1 328.5 178 z M 443.5 178 A 1.5 2 0 0 1 443.5 182 A 1.5 2 0 0 1 443.5 178 z M 448.5 178 A 1.5 2 0 0 1 448.5 182 A 1.5 2 0 0 1 448.5 178 z M 254.5 183 A 2.5 3 0 0 0 254 188.9375 L 254 193 L 255 193 L 255 188.93555 A 2.5 3 0 0 0 254.5 183 z M 259.5 183 A 2.5 3 0 0 0 259 188.9375 L 259 193 L 260 193 L 260 188.93555 A 2.5 3 0 0 0 259.5 183 z M 41.5 184 A 2.5 3 0 0 0 41 189.9375 L 41 194 L 42 194 L 42 189.93555 A 2.5 3 0 0 0 41.5 184 z M 46.5 184 A 2.5 3 0 0 0 46 189.9375 L 46 194 L 47 194 L 47 189.93555 A 2.5 3 0 0 0 46.5 184 z M 128.5 184 A 2.5 3 0 0 0 128 189.9375 L 128 194 L 129 194 L 129 189.93555 A 2.5 3 0 0 0 128.5 184 z M 133.5 184 A 2.5 3 0 0 0 133 189.9375 L 133 194 L 134 194 L 134 189.93555 A 2.5 3 0 0 0 133.5 184 z M 254.5 184 A 1.5 2 0 0 1 254.5 188 A 1.5 2 0 0 1 254.5 184 z M 259.5 184 A 1.5 2 0 0 1 259.5 188 A 1.5 2 0 0 1 259.5 184 z M 41.5 185 A 1.5 2 0 0 1 41.5 189 A 1.5 2 0 0 1 41.5 185 z M 46.5 185 A 1.5 2 0 0 1 46.5 189 A 1.5 2 0 0 1 46.5 185 z M 128.5 185 A 1.5 2 0 0 1 128.5 189 A 1.5 2 0 0 1 128.5 185 z M 133.5 185 A 1.5 2 0 0 1 133.5 189 A 1.5 2 0 0 1 133.5 185 z M 386.5 185 A 2.5 3 0 0 0 386 190.9375 L 386 195 L 387 195 L 387 190.93555 A 2.5 3 0 0 0 386.5 185 z M 391.5 185 A 2.5 3 0 0 0 391 190.9375 L 391 195 L 392 195 L 392 190.93555 A 2.5 3 0 0 0 391.5 185 z M 386.5 186 A 1.5 2 0 0 1 386.5 190 A 1.5 2 0 0 1 386.5 186 z M 391.5 186 A 1.5 2 0 0 1 391.5 190 A 1.5 2 0 0 1 391.5 186 z M 469.5 188 A 2.5 3 0 0 0 469 193.9375 L 469 198 L 470 198 L 470 193.93555 A 2.5 3 0 0 0 469.5 188 z M 474.5 188 A 2.5 3 0 0 0 474 193.9375 L 474 198 L 475 198 L 475 193.93555 A 2.5 3 0 0 0 474.5 188 z M 191.5 189 A 2.5 3 0 0 0 191 194.9375 L 191 199 L 192 199 L 192 194.93555 A 2.5 3 0 0 0 191.5 189 z M 196.5 189 A 2.5 3 0 0 0 196 194.9375 L 196 199 L 197 199 L 197 194.93555 A 2.5 3 0 0 0 196.5 189 z M 280.5 189 A 2.5 3 0 0 0 280 194.9375 L 280 199 L 281 199 L 281 194.93555 A 2.5 3 0 0 0 280.5 189 z M 285.5 189 A 2.5 3 0 0 0 285 194.9375 L 285 199 L 286 199 L 286 194.93555 A 2.5 3 0 0 0 285.5 189 z M 469.5 189 A 1.5 2 0 0 1 469.5 193 A 1.5 2 0 0 1 469.5 189 z M 474.5 189 A 1.5 2 0 0 1 474.5 193 A 1.5 2 0 0 1 474.5 189 z M 98.5 190 A 2.5 3 0 0 0 98 195.9375 L 98 200 L 99 200 L 99 195.93555 A 2.5 3 0 0 0 98.5 190 z M 103.5 190 A 2.5 3 0 0 0 103 195.9375 L 103 200 L 104 200 L 104 195.93555 A 2.5 3 0 0 0 103.5 190 z M 191.5 190 A 1.5 2 0 0 1 191.5 194 A 1.5 2 0 0 1 191.5 190 z M 196.5 190 A 1.5 2 0 0 1 196.5 194 A 1.5 2 0 0 1 196.5 190 z M 280.5 190 A 1.5 2 0 0 1 280.5 194 A 1.5 2 0 0 1 280.5 190 z M 285.5 190 A 1.5 2 0 0 1 285.5 194 A 1.5 2 0 0 1 285.5 190 z M 98.5 191 A 1.5 2 0 0 1 98.5 195 A 1.5 2 0 0 1 98.5 191 z M 103.5 191 A 1.5 2 0 0 1 103.5 195 A 1.5 2 0 0 1 103.5 191 z M 418.5 193 A 2.5 3 0 0 0 418 198.9375 L 418 203 L 419 203 L 419 198.93555 A 2.5 3 0 0 0 418.5 193 z M 423.5 193 A 2.5 3 0 0 0 423 198.9375 L 423 203 L 424 203 L 424 198.93555 A 2.5 3 0 0 0 423.5 193 z M 216.5 194 A 2.5 3 0 0 0 216 199.9375 L 216 204 L 217 204 L 217 199.93555 A 2.5 3 0 0 0 216.5 194 z M 221.5 194 A 2.5 3 0 0 0 221 199.9375 L 221 204 L 222 204 L 222 199.93555 A 2.5 3 0 0 0 221.5 194 z M 418.5 194 A 1.5 2 0 0 1 418.5 198 A 1.5 2 0 0 1 418.5 194 z M 423.5 194 A 1.5 2 0 0 1 423.5 198 A 1.5 2 0 0 1 423.5 194 z M 216.5 195 A 1.5 2 0 0 1 216.5 199 A 1.5 2 0 0 1 216.5 195 z M 221.5 195 A 1.5 2 0 0 1 221.5 199 A 1.5 2 0 0 1 221.5 195 z M 308.5 197 A 2.5 3 0 0 0 308 202.9375 L 308 207 L 309 207 L 309 202.93555 A 2.5 3 0 0 0 308.5 197 z M 313.5 197 A 2.5 3 0 0 0 313 202.9375 L 313 207 L 314 207 L 314 202.93555 A 2.5 3 0 0 0 313.5 197 z M 308.5 198 A 1.5 2 0 0 1 308.5 202 A 1.5 2 0 0 1 308.5 198 z M 313.5 198 A 1.5 2 0 0 1 313.5 202 A 1.5 2 0 0 1 313.5 198 z M 14.5 199 A 2.5 3 0 0 0 14 204.9375 L 14 209 L 15 209 L 15 204.93555 A 2.5 3 0 0 0 14.5 199 z M 19.5 199 A 2.5 3 0 0 0 19 204.9375 L 19 209 L 20 209 L 20 204.93555 A 2.5 3 0 0 0 19.5 199 z M 14.5 200 A 1.5 2 0 0 1 14.5 204 A 1.5 2 0 0 1 14.5 200 z M 19.5 200 A 1.5 2 0 0 1 19.5 204 A 1.5 2 0 0 1 19.5 200 z M 161.5 201 A 2.5 3 0 0 0 161 206.9375 L 161 211 L 162 211 L 162 206.93555 A 2.5 3 0 0 0 161.5 201 z M 166.5 201 A 2.5 3 0 0 0 166 206.9375 L 166 211 L 167 211 L 167 206.93555 A 2.5 3 0 0 0 166.5 201 z M 161.5 202 A 1.5 2 0 0 1 161.5 206 A 1.5 2 0 0 1 161.5 202 z M 166.5 202 A 1.5 2 0 0 1 166.5 206 A 1.5 2 0 0 1 166.5 202 z M 342.5 203 A 2.5 3 0 0 0 342 208.9375 L 342 213 L 343 213 L 343 208.93555 A 2.5 3 0 0 0 342.5 203 z M 347.5 203 A 2.5 3 0 0 0 347 208.9375 L 347 213 L 348 213 L 348 208.93555 A 2.5 3 0 0 0 347.5 203 z M 68.5 204 A 2.5 3 0 0 0 68 209.9375 L 68 214 L 69 214 L 69 209.93555 A 2.5 3 0 0 0 68.5 204 z M 73.5 204 A 2.5 3 0 0 0 73 209.9375 L 73 214 L 74 214 L 74 209.93555 A 2.5 3 0 0 0 73.5 204 z M 342.5 204 A 1.5 2 0 0 1 342.5 208 A 1.5 2 0 0 1 342.5 204 z M 347.5 204 A 1.5 2 0 0 1 347.5 208 A 1.5 2 0 0 1 347.5 204 z M 492.5 204 A 2.5 3 0 0 0 492 209.9375 L 492 214 L 493 214 L 493 209.93555 A 2.5 3 0 0 0 492.5 204 z M 497.5 204 A 2.5 3 0 0 0 497 209.9375 L 497 214 L 498 214 L 498 209.93555 A 2.5 3 0 0 0 497.5 204 z M 68.5 205 A 1.5 2 0 0 1 68.5 209 A 1.5 2 0 0 1 68.5 205 z M 73.5 205 A 1.5 2 0 0 1 73.5 209 A 1.5 2 0 0 1 73.5 205 z M 492.5 205 A 1.5 2 0 0 1 492.5 209 A 1.5 2 0 0 1 492.5 205 z M 497.5 205 A 1.5 2 0 0 1 497.5 209 A 1.5 2 0 0 1 497.5 205 z M 251.5 211 A 2.5 3 0 0 0 251 216.9375 L 251 221 L 252 221 L 252 216.93555 A 2.5 3 0 0 0 251.5 211 z M 256.5 211 A 2.5 3 0 0 0 256 216.9375 L 256 221 L 257 221 L 257 216.93555 A 2.5 3 0 0 0 256.5 211 z M 251.5 212 A 1.5 2 0 0 1 251.5 216 A 1.5 2 0 0 1 251.5 212 z M 256.5 212 A 1.5 2 0 0 1 256.5 216 A 1.5 2 0 0 1 256.5 212 z M 370.5 213 A 2.5 3 0 0 0 370 218.9375 L 370 223 L 371 223 L 371 218.93555 A 2.5 3 0 0 0 370.5 213 z M 375.5 213 A 2.5 3 0 0 0 375 218.9375 L 375 223 L 376 223 L 376 218.93555 A 2.5 3 0 0 0 375.5 213 z M 370.5 214 A 1.5 2 0 0 1 370.5 218 A 1.5 2 0 0 1 370.5 214 z M 375.5 214 A 1.5 2 0 0 1 375.5 218 A 1.5 2 0 0 1 375.5 214 z M 112.5 215 A 2.5 3 0 0 0 112 220.9375 L 112 225 L 113 225 L 113 220.93555 A 2.5 3 0 0 0 112.5 215 z M 117.5 215 A 2.5 3 0 0 0 117 220.9375 L 117 225 L 118 225 L 118 220.93555 A 2.5 3 0 0 0 117.5 215 z M 112.5 216 A 1.5 2 0 0 1 112.5 220 A 1.5 2 0 0 1 112.5 216 z M 117.5 216 A 1.5 2 0 0 1 117.5 220 A 1.5 2 0 0 1 117.5 216 z M 404.5 218 A 2.5 3 0 0 0 404 223.9375 L 404 228 L 405 228 L 405 223.93555 A 2.5 3 0 0 0 404.5 218 z M 409.5 218 A 2.5 3 0 0 0 409 223.9375 L 409 228 L 410 228 L 410 223.93555 A 2.5 3 0 0 0 409.5 218 z M 441.5 218 A 2.5 3 0 0 0 441 223.9375 L 441 228 L 442 228 L 442 223.93555 A 2.5 3 0 0 0 441.5 218 z M 446.5 218 A 2.5 3 0 0 0 446 223.9375 L 446 228 L 447 228 L 447 223.93555 A 2.5 3 0 0 0 446.5 218 z M 136.5 219 A 2.5 3 0 0 0 136 224.9375 L 136 229 L 137 229 L 137 224.93555 A 2.5 3 0 0 0 136.5 219 z M 141.5 219 A 2.5 3 0 0 0 141 224.9375 L 141 229 L 142 229 L 142 224.93555 A 2.5 3 0 0 0 141.5 219 z M 404.5 219 A 1.5 2 0 0 1 404.5 223 A 1.5 2 0 0 1 404.5 219 z M 409.5 219 A 1.5 2 0 0 1 409.5 223 A 1.5 2 0 0 1 409.5 219 z M 441.5 219 A 1.5 2 0 0 1 441.5 223 A 1.5 2 0 0 1 441.5 219 z M 446.5 219 A 1.5 2 0 0 1 446.5 223 A 1.5 2 0 0 1 446.5 219 z M 136.5 220 A 1.5 2 0 0 1 136.5 224 A 1.5 2 0 0 1 136.5 220 z M 141.5 220 A 1.5 2 0 0 1 141.5 224 A 1.5 2 0 0 1 141.5 220 z M 311.5 221 A 2.5 3 0 0 0 311 226.9375 L 311 231 L 312 231 L 312 226.93555 A 2.5 3 0 0 0 311.5 221 z M 316.5 221 A 2.5 3 0 0 0 316 226.9375 L 316 231 L 317 231 L 317 226.93555 A 2.5 3 0 0 0 316.5 221 z M 42.5 222 A 2.5 3 0 0 0 42 227.9375 L 42 232 L 43 232 L 43 227.93555 A 2.5 3 0 0 0 42.5 222 z M 47.5 222 A 2.5 3 0 0 0 47 227.9375 L 47 232 L 48 232 L 48 227.93555 A 2.5 3 0 0 0 47.5 222 z M 193.5 222 A 2.5 3 0 0 0 193 227.9375 L 193 232 L 194 232 L 194 227.93555 A 2.5 3 0 0 0 193.5 222 z M 198.5 222 A 2.5 3 0 0 0 198 227.9375 L 198 232 L 199 232 L 199 227.93555 A 2.5 3 0 0 0 198.5 222 z M 225.5 222 A 2.5 3 0 0 0 225 227.9375 L 225 232 L 226 232 L 226 227.93555 A 2.5 3 0 0 0 225.5 222 z M 230.5 222 A 2.5 3 0 0 0 230 227.9375 L 230 232 L 231 232 L 231 227.93555 A 2.5 3 0 0 0 230.5 222 z M 311.5 222 A 1.5 2 0 0 1 311.5 226 A 1.5 2 0 0 1 311.5 222 z M 316.5 222 A 1.5 2 0 0 1 316.5 226 A 1.5 2 0 0 1 316.5 222 z M 42.5 223 A 1.5 2 0 0 1 42.5 227 A 1.5 2 0 0 1 42.5 223 z M 47.5 223 A 1.5 2 0 0 1 47.5 227 A 1.5 2 0 0 1 47.5 223 z M 193.5 223 A 1.5 2 0 0 1 193.5 227 A 1.5 2 0 0 1 193.5 223 z M 198.5 223 A 1.5 2 0 0 1 198.5 227 A 1.5 2 0 0 1 198.5 223 z M 225.5 223 A 1.5 2 0 0 1 225.5 227 A 1.5 2 0 0 1 225.5 223 z M 230.5 223 A 1.5 2 0 0 1 230.5 227 A 1.5 2 0 0 1 230.5 223 z M 467.5 224 A 2.5 3 0 0 0 467 229.9375 L 467 234 L 468 234 L 468 229.93555 A 2.5 3 0 0 0 467.5 224 z M 472.5 224 A 2.5 3 0 0 0 472 229.9375 L 472 234 L 473 234 L 473 229.93555 A 2.5 3 0 0 0 472.5 224 z M 280.5 225 A 2.5 3 0 0 0 280 230.9375 L 280 235 L 281 235 L 281 230.93555 A 2.5 3 0 0 0 280.5 225 z M 285.5 225 A 2.5 3 0 0 0 285 230.9375 L 285 235 L 286 235 L 286 230.93555 A 2.5 3 0 0 0 285.5 225 z M 467.5 225 A 1.5 2 0 0 1 467.5 229 A 1.5 2 0 0 1 467.5 225 z M 472.5 225 A 1.5 2 0 0 1 472.5 229 A 1.5 2 0 0 1 472.5 225 z M 13.5 226 A 2.5 3 0 0 0 13 231.9375 L 13 236 L 14 236 L 14 231.93555 A 2.5 3 0 0 0 13.5 226 z M 18.5 226 A 2.5 3 0 0 0 18 231.9375 L 18 236 L 19 236 L 19 231.93555 A 2.5 3 0 0 0 18.5 226 z M 280.5 226 A 1.5 2 0 0 1 280.5 230 A 1.5 2 0 0 1 280.5 226 z M 285.5 226 A 1.5 2 0 0 1 285.5 230 A 1.5 2 0 0 1 285.5 226 z M 13.5 227 A 1.5 2 0 0 1 13.5 231 A 1.5 2 0 0 1 13.5 227 z M 18.5 227 A 1.5 2 0 0 1 18.5 231 A 1.5 2 0 0 1 18.5 227 z M 83.5 229 A 2.5 3 0 0 0 83 234.9375 L 83 239 L 84 239 L 84 234.93555 A 2.5 3 0 0 0 83.5 229 z M 88.5 229 A 2.5 3 0 0 0 88 234.9375 L 88 239 L 89 239 L 89 234.93555 A 2.5 3 0 0 0 88.5 229 z M 83.5 230 A 1.5 2 0 0 1 83.5 234 A 1.5 2 0 0 1 83.5 230 z M 88.5 230 A 1.5 2 0 0 1 88.5 234 A 1.5 2 0 0 1 88.5 230 z M 164.5 231 A 2.5 3 0 0 0 164 236.9375 L 164 241 L 165 241 L 165 236.93555 A 2.5 3 0 0 0 164.5 231 z M 169.5 231 A 2.5 3 0 0 0 169 236.9375 L 169 241 L 170 241 L 170 236.93555 A 2.5 3 0 0 0 169.5 231 z M 164.5 232 A 1.5 2 0 0 1 164.5 236 A 1.5 2 0 0 1 164.5 232 z M 169.5 232 A 1.5 2 0 0 1 169.5 236 A 1.5 2 0 0 1 169.5 232 z M 501.5 234 A 2.5 3 0 0 0 501 239.9375 L 501 244 L 502 244 L 502 239.93555 A 2.5 3 0 0 0 501.5 234 z M 506.5 234 A 2.5 3 0 0 0 506 239.9375 L 506 244 L 507 244 L 507 239.93555 A 2.5 3 0 0 0 506.5 234 z M 501.5 235 A 1.5 2 0 0 1 501.5 239 A 1.5 2 0 0 1 501.5 235 z M 506.5 235 A 1.5 2 0 0 1 506.5 239 A 1.5 2 0 0 1 506.5 235 z M 342.5 238 A 2.5 3 0 0 0 342 243.9375 L 342 248 L 343 248 L 343 243.93555 A 2.5 3 0 0 0 342.5 238 z M 347.5 238 A 2.5 3 0 0 0 347 243.9375 L 347 248 L 348 248 L 348 243.93555 A 2.5 3 0 0 0 347.5 238 z M 373.5 238 A 2.5 3 0 0 0 373 243.9375 L 373 248 L 374 248 L 374 243.93555 A 2.5 3 0 0 0 373.5 238 z M 378.5 238 A 2.5 3 0 0 0 378 243.9375 L 378 248 L 379 248 L 379 243.93555 A 2.5 3 0 0 0 378.5 238 z M 342.5 239 A 1.5 2 0 0 1 342.5 243 A 1.5 2 0 0 1 342.5 239 z M 347.5 239 A 1.5 2 0 0 1 347.5 243 A 1.5 2 0 0 1 347.5 239 z M 373.5 239 A 1.5 2 0 0 1 373.5 243 A 1.5 2 0 0 1 373.5 239 z M 378.5 239 A 1.5 2 0 0 1 378.5 243 A 1.5 2 0 0 1 378.5 239 z M 432.5 240 A 2.5 3 0 0 0 432 245.9375 L 432 250 L 433 250 L 433 245.93555 A 2.5 3 0 0 0 432.5 240 z M 437.5 240 A 2.5 3 0 0 0 437 245.9375 L 437 250 L 438 250 L 438 245.93555 A 2.5 3 0 0 0 437.5 240 z M 432.5 241 A 1.5 2 0 0 1 432.5 245 A 1.5 2 0 0 1 432.5 241 z M 437.5 241 A 1.5 2 0 0 1 437.5 245 A 1.5 2 0 0 1 437.5 241 z M 61.5 244 A 2.5 3 0 0 0 61 249.9375 L 61 254 L 62 254 L 62 249.93555 A 2.5 3 0 0 0 61.5 244 z M 66.5 244 A 2.5 3 0 0 0 66 249.9375 L 66 254 L 67 254 L 67 249.93555 A 2.5 3 0 0 0 66.5 244 z M 311.5 244 A 2.5 3 0 0 0 311 249.9375 L 311 254 L 312 254 L 312 249.93555 A 2.5 3 0 0 0 311.5 244 z M 316.5 244 A 2.5 3 0 0 0 316 249.9375 L 316 254 L 317 254 L 317 249.93555 A 2.5 3 0 0 0 316.5 244 z M 61.5 245 A 1.5 2 0 0 1 61.5 249 A 1.5 2 0 0 1 61.5 245 z M 66.5 245 A 1.5 2 0 0 1 66.5 249 A 1.5 2 0 0 1 66.5 245 z M 311.5 245 A 1.5 2 0 0 1 311.5 249 A 1.5 2 0 0 1 311.5 245 z M 316.5 245 A 1.5 2 0 0 1 316.5 249 A 1.5 2 0 0 1 316.5 245 z M 403.5 246 A 2.5 3 0 0 0 403 251.9375 L 403 256 L 404 256 L 404 251.93555 A 2.5 3 0 0 0 403.5 246 z M 408.5 246 A 2.5 3 0 0 0 408 251.9375 L 408 256 L 409 256 L 409 251.93555 A 2.5 3 0 0 0 408.5 246 z M 116.5 247 A 2.5 3 0 0 0 116 252.9375 L 116 257 L 117 257 L 117 252.93555 A 2.5 3 0 0 0 116.5 247 z M 121.5 247 A 2.5 3 0 0 0 121 252.9375 L 121 257 L 122 257 L 122 252.93555 A 2.5 3 0 0 0 121.5 247 z M 252.5 247 A 2.5 3 0 0 0 252 252.9375 L 252 257 L 253 257 L 253 252.93555 A 2.5 3 0 0 0 252.5 247 z M 257.5 247 A 2.5 3 0 0 0 257 252.9375 L 257 257 L 258 257 L 258 252.93555 A 2.5 3 0 0 0 257.5 247 z M 403.5 247 A 1.5 2 0 0 1 403.5 251 A 1.5 2 0 0 1 403.5 247 z M 408.5 247 A 1.5 2 0 0 1 408.5 251 A 1.5 2 0 0 1 408.5 247 z M 116.5 248 A 1.5 2 0 0 1 116.5 252 A 1.5 2 0 0 1 116.5 248 z M 121.5 248 A 1.5 2 0 0 1 121.5 252 A 1.5 2 0 0 1 121.5 248 z M 252.5 248 A 1.5 2 0 0 1 252.5 252 A 1.5 2 0 0 1 252.5 248 z M 257.5 248 A 1.5 2 0 0 1 257.5 252 A 1.5 2 0 0 1 257.5 248 z M 201.5 250 A 2.5 3 0 0 0 201 255.9375 L 201 260 L 202 260 L 202 255.93555 A 2.5 3 0 0 0 201.5 250 z M 206.5 250 A 2.5 3 0 0 0 206 255.9375 L 206 260 L 207 260 L 207 255.93555 A 2.5 3 0 0 0 206.5 250 z M 201.5 251 A 1.5 2 0 0 1 201.5 255 A 1.5 2 0 0 1 201.5 251 z M 206.5 251 A 1.5 2 0 0 1 206.5 255 A 1.5 2 0 0 1 206.5 251 z M 459.5 251 A 2.5 3 0 0 0 459 256.9375 L 459 261 L 460 261 L 460 256.93555 A 2.5 3 0 0 0 459.5 251 z M 464.5 251 A 2.5 3 0 0 0 464 256.9375 L 464 261 L 465 261 L 465 256.93555 A 2.5 3 0 0 0 464.5 251 z M 459.5 252 A 1.5 2 0 0 1 459.5 256 A 1.5 2 0 0 1 459.5 252 z M 464.5 252 A 1.5 2 0 0 1 464.5 256 A 1.5 2 0 0 1 464.5 252 z M 36.5 257 A 2.5 3 0 0 0 36 262.9375 L 36 267 L 37 267 L 37 262.93555 A 2.5 3 0 0 0 36.5 257 z M 41.5 257 A 2.5 3 0 0 0 41 262.9375 L 41 267 L 42 267 L 42 262.93555 A 2.5 3 0 0 0 41.5 257 z M 140.5 257 A 2.5 3 0 0 0 140 262.9375 L 140 267 L 141 267 L 141 262.93555 A 2.5 3 0 0 0 140.5 257 z M 145.5 257 A 2.5 3 0 0 0 145 262.9375 L 145 267 L 146 267 L 146 262.93555 A 2.5 3 0 0 0 145.5 257 z M 225.5 257 A 2.5 3 0 0 0 225 262.9375 L 225 267 L 226 267 L 226 262.93555 A 2.5 3 0 0 0 225.5 257 z M 230.5 257 A 2.5 3 0 0 0 230 262.9375 L 230 267 L 231 267 L 231 262.93555 A 2.5 3 0 0 0 230.5 257 z M 36.5 258 A 1.5 2 0 0 1 36.5 262 A 1.5 2 0 0 1 36.5 258 z M 41.5 258 A 1.5 2 0 0 1 41.5 262 A 1.5 2 0 0 1 41.5 258 z M 140.5 258 A 1.5 2 0 0 1 140.5 262 A 1.5 2 0 0 1 140.5 258 z M 145.5 258 A 1.5 2 0 0 1 145.5 262 A 1.5 2 0 0 1 145.5 258 z M 225.5 258 A 1.5 2 0 0 1 225.5 262 A 1.5 2 0 0 1 225.5 258 z M 230.5 258 A 1.5 2 0 0 1 230.5 262 A 1.5 2 0 0 1 230.5 258 z M 289.5 258 A 2.5 3 0 0 0 289 263.9375 L 289 268 L 290 268 L 290 263.93555 A 2.5 3 0 0 0 289.5 258 z M 294.5 258 A 2.5 3 0 0 0 294 263.9375 L 294 268 L 295 268 L 295 263.93555 A 2.5 3 0 0 0 294.5 258 z M 289.5 259 A 1.5 2 0 0 1 289.5 263 A 1.5 2 0 0 1 289.5 259 z M 294.5 259 A 1.5 2 0 0 1 294.5 263 A 1.5 2 0 0 1 294.5 259 z M 7.5 262 A 2.5 3 0 0 0 7 267.9375 L 7 272 L 8 272 L 8 267.93555 A 2.5 3 0 0 0 7.5 262 z M 12.5 262 A 2.5 3 0 0 0 12 267.9375 L 12 272 L 13 272 L 13 267.93555 A 2.5 3 0 0 0 12.5 262 z M 7.5 263 A 1.5 2 0 0 1 7.5 267 A 1.5 2 0 0 1 7.5 263 z M 12.5 263 A 1.5 2 0 0 1 12.5 267 A 1.5 2 0 0 1 12.5 263 z M 177.5 263 A 2.5 3 0 0 0 177 268.9375 L 177 273 L 178 273 L 178 268.93555 A 2.5 3 0 0 0 177.5 263 z M 182.5 263 A 2.5 3 0 0 0 182 268.9375 L 182 273 L 183 273 L 183 268.93555 A 2.5 3 0 0 0 182.5 263 z M 89.5 264 A 2.5 3 0 0 0 89 269.9375 L 89 274 L 90 274 L 90 269.93555 A 2.5 3 0 0 0 89.5 264 z M 94.5 264 A 2.5 3 0 0 0 94 269.9375 L 94 274 L 95 274 L 95 269.93555 A 2.5 3 0 0 0 94.5 264 z M 177.5 264 A 1.5 2 0 0 1 177.5 268 A 1.5 2 0 0 1 177.5 264 z M 182.5 264 A 1.5 2 0 0 1 182.5 268 A 1.5 2 0 0 1 182.5 264 z M 359.5 264 A 2.5 3 0 0 0 359 269.9375 L 359 274 L 360 274 L 360 269.93555 A 2.5 3 0 0 0 359.5 264 z M 364.5 264 A 2.5 3 0 0 0 364 269.9375 L 364 274 L 365 274 L 365 269.93555 A 2.5 3 0 0 0 364.5 264 z M 89.5 265 A 1.5 2 0 0 1 89.5 269 A 1.5 2 0 0 1 89.5 265 z M 94.5 265 A 1.5 2 0 0 1 94.5 269 A 1.5 2 0 0 1 94.5 265 z M 359.5 265 A 1.5 2 0 0 1 359.5 269 A 1.5 2 0 0 1 359.5 265 z M 364.5 265 A 1.5 2 0 0 1 364.5 269 A 1.5 2 0 0 1 364.5 265 z M 487.5 266 A 2.5 3 0 0 0 487 271.9375 L 487 276 L 488 276 L 488 271.93555 A 2.5 3 0 0 0 487.5 266 z M 492.5 266 A 2.5 3 0 0 0 492 271.9375 L 492 276 L 493 276 L 493 271.93555 A 2.5 3 0 0 0 492.5 266 z M 487.5 267 A 1.5 2 0 0 1 487.5 271 A 1.5 2 0 0 1 487.5 267 z M 492.5 267 A 1.5 2 0 0 1 492.5 271 A 1.5 2 0 0 1 492.5 267 z M 323.5 272 A 2.5 3 0 0 0 323 277.9375 L 323 282 L 324 282 L 324 277.93555 A 2.5 3 0 0 0 323.5 272 z M 328.5 272 A 2.5 3 0 0 0 328 277.9375 L 328 282 L 329 282 L 329 277.93555 A 2.5 3 0 0 0 328.5 272 z M 323.5 273 A 1.5 2 0 0 1 323.5 277 A 1.5 2 0 0 1 323.5 273 z M 328.5 273 A 1.5 2 0 0 1 328.5 277 A 1.5 2 0 0 1 328.5 273 z M 260.5 275 A 2.5 3 0 0 0 260 280.9375 L 260 285 L 261 285 L 261 280.93555 A 2.5 3 0 0 0 260.5 275 z M 265.5 275 A 2.5 3 0 0 0 265 280.9375 L 265 285 L 266 285 L 266 280.93555 A 2.5 3 0 0 0 265.5 275 z M 416.5 275 A 2.5 3 0 0 0 416 280.9375 L 416 285 L 417 285 L 417 280.93555 A 2.5 3 0 0 0 416.5 275 z M 421.5 275 A 2.5 3 0 0 0 421 280.9375 L 421 285 L 422 285 L 422 280.93555 A 2.5 3 0 0 0 421.5 275 z M 260.5 276 A 1.5 2 0 0 1 260.5 280 A 1.5 2 0 0 1 260.5 276 z M 265.5 276 A 1.5 2 0 0 1 265.5 280 A 1.5 2 0 0 1 265.5 276 z M 416.5 276 A 1.5 2 0 0 1 416.5 280 A 1.5 2 0 0 1 416.5 276 z M 421.5 276 A 1.5 2 0 0 1 421.5 280 A 1.5 2 0 0 1 421.5 276 z M 115.5 279 A 2.5 3 0 0 0 115 284.9375 L 115 289 L 116 289 L 116 284.93555 A 2.5 3 0 0 0 115.5 279 z M 120.5 279 A 2.5 3 0 0 0 120 284.9375 L 120 289 L 121 289 L 121 284.93555 A 2.5 3 0 0 0 120.5 279 z M 115.5 280 A 1.5 2 0 0 1 115.5 284 A 1.5 2 0 0 1 115.5 280 z M 120.5 280 A 1.5 2 0 0 1 120.5 284 A 1.5 2 0 0 1 120.5 280 z M 386.5 280 A 2.5 3 0 0 0 386 285.9375 L 386 290 L 387 290 L 387 285.93555 A 2.5 3 0 0 0 386.5 280 z M 391.5 280 A 2.5 3 0 0 0 391 285.9375 L 391 290 L 392 290 L 392 285.93555 A 2.5 3 0 0 0 391.5 280 z M 149.5 281 A 2.5 3 0 0 0 149 286.9375 L 149 291 L 150 291 L 150 286.93555 A 2.5 3 0 0 0 149.5 281 z M 154.5 281 A 2.5 3 0 0 0 154 286.9375 L 154 291 L 155 291 L 155 286.93555 A 2.5 3 0 0 0 154.5 281 z M 386.5 281 A 1.5 2 0 0 1 386.5 285 A 1.5 2 0 0 1 386.5 281 z M 391.5 281 A 1.5 2 0 0 1 391.5 285 A 1.5 2 0 0 1 391.5 281 z M 62.5 282 A 2.5 3 0 0 0 62 287.9375 L 62 292 L 63 292 L 63 287.93555 A 2.5 3 0 0 0 62.5 282 z M 67.5 282 A 2.5 3 0 0 0 67 287.9375 L 67 292 L 68 292 L 68 287.93555 A 2.5 3 0 0 0 67.5 282 z M 149.5 282 A 1.5 2 0 0 1 149.5 286 A 1.5 2 0 0 1 149.5 282 z M 154.5 282 A 1.5 2 0 0 1 154.5 286 A 1.5 2 0 0 1 154.5 282 z M 445.5 282 A 2.5 3 0 0 0 445 287.9375 L 445 292 L 446 292 L 446 287.93555 A 2.5 3 0 0 0 445.5 282 z M 450.5 282 A 2.5 3 0 0 0 450 287.9375 L 450 292 L 451 292 L 451 287.93555 A 2.5 3 0 0 0 450.5 282 z M 62.5 283 A 1.5 2 0 0 1 62.5 287 A 1.5 2 0 0 1 62.5 283 z M 67.5 283 A 1.5 2 0 0 1 67.5 287 A 1.5 2 0 0 1 67.5 283 z M 445.5 283 A 1.5 2 0 0 1 445.5 287 A 1.5 2 0 0 1 445.5 283 z M 450.5 283 A 1.5 2 0 0 1 450.5 287 A 1.5 2 0 0 1 450.5 283 z M 200.5 284 A 2.5 3 0 0 0 200 289.9375 L 200 294 L 201 294 L 201 289.93555 A 2.5 3 0 0 0 200.5 284 z M 205.5 284 A 2.5 3 0 0 0 205 289.9375 L 205 294 L 206 294 L 206 289.93555 A 2.5 3 0 0 0 205.5 284 z M 200.5 285 A 1.5 2 0 0 1 200.5 289 A 1.5 2 0 0 1 200.5 285 z M 205.5 285 A 1.5 2 0 0 1 205.5 289 A 1.5 2 0 0 1 205.5 285 z M 237.5 285 A 2.5 3 0 0 0 237 290.9375 L 237 295 L 238 295 L 238 290.93555 A 2.5 3 0 0 0 237.5 285 z M 242.5 285 A 2.5 3 0 0 0 242 290.9375 L 242 295 L 243 295 L 243 290.93555 A 2.5 3 0 0 0 242.5 285 z M 237.5 286 A 1.5 2 0 0 1 237.5 290 A 1.5 2 0 0 1 237.5 286 z M 242.5 286 A 1.5 2 0 0 1 242.5 290 A 1.5 2 0 0 1 242.5 286 z M 30.5 287 A 2.5 3 0 0 0 30 292.9375 L 30 297 L 31 297 L 31 292.93555 A 2.5 3 0 0 0 30.5 287 z M 35.5 287 A 2.5 3 0 0 0 35 292.9375 L 35 297 L 36 297 L 36 292.93555 A 2.5 3 0 0 0 35.5 287 z M 475.5 287 A 2.5 3 0 0 0 475 292.9375 L 475 297 L 476 297 L 476 292.93555 A 2.5 3 0 0 0 475.5 287 z M 480.5 287 A 2.5 3 0 0 0 480 292.9375 L 480 297 L 481 297 L 481 292.93555 A 2.5 3 0 0 0 480.5 287 z M 30.5 288 A 1.5 2 0 0 1 30.5 292 A 1.5 2 0 0 1 30.5 288 z M 35.5 288 A 1.5 2 0 0 1 35.5 292 A 1.5 2 0 0 1 35.5 288 z M 475.5 288 A 1.5 2 0 0 1 475.5 292 A 1.5 2 0 0 1 475.5 288 z M 480.5 288 A 1.5 2 0 0 1 480.5 292 A 1.5 2 0 0 1 480.5 288 z M 4.5 289 A 2.5 3 0 0 0 4 294.9375 L 4 299 L 5 299 L 5 294.93555 A 2.5 3 0 0 0 4.5 289 z M 356.5 289 A 2.5 3 0 0 0 356 294.9375 L 356 299 L 357 299 L 357 294.93555 A 2.5 3 0 0 0 356.5 289 z M 361.5 289 A 2.5 3 0 0 0 361 294.9375 L 361 299 L 362 299 L 362 294.93555 A 2.5 3 0 0 0 361.5 289 z M 511.5 289 A 2.5 3 0 0 0 511 294.9375 L 511 299 L 512 299 L 512 294.93555 L 512 293.88281 A 1.5 2 0 0 1 511.5 294 A 1.5 2 0 0 1 511.5 290 A 1.5 2 0 0 1 512 290.11523 L 512 289.0625 A 2.5 3 0 0 0 511.5 289 z M 0 289.0625 L 0 290.11523 A 1.5 2 0 0 1 0 293.88281 L 0 294.93555 A 2.5 3 0 0 0 0 289.0625 z M 4.5 290 A 1.5 2 0 0 1 4.5 294 A 1.5 2 0 0 1 4.5 290 z M 356.5 290 A 1.5 2 0 0 1 356.5 294 A 1.5 2 0 0 1 356.5 290 z M 361.5 290 A 1.5 2 0 0 1 361.5 294 A 1.5 2 0 0 1 361.5 290 z M 284.5 295 A 2.5 3 0 0 0 284 300.9375 L 284 305 L 285 305 L 285 300.93555 A 2.5 3 0 0 0 284.5 295 z M 289.5 295 A 2.5 3 0 0 0 289 300.9375 L 289 305 L 290 305 L 290 300.93555 A 2.5 3 0 0 0 289.5 295 z M 284.5 296 A 1.5 2 0 0 1 284.5 300 A 1.5 2 0 0 1 284.5 296 z M 289.5 296 A 1.5 2 0 0 1 289.5 300 A 1.5 2 0 0 1 289.5 296 z M 87.5 297 A 2.5 3 0 0 0 87 302.9375 L 87 307 L 88 307 L 88 302.93555 A 2.5 3 0 0 0 87.5 297 z M 92.5 297 A 2.5 3 0 0 0 92 302.9375 L 92 307 L 93 307 L 93 302.93555 A 2.5 3 0 0 0 92.5 297 z M 87.5 298 A 1.5 2 0 0 1 87.5 302 A 1.5 2 0 0 1 87.5 298 z M 92.5 298 A 1.5 2 0 0 1 92.5 302 A 1.5 2 0 0 1 92.5 298 z M 174.5 298 A 2.5 3 0 0 0 174 303.9375 L 174 308 L 175 308 L 175 303.93555 A 2.5 3 0 0 0 174.5 298 z M 179.5 298 A 2.5 3 0 0 0 179 303.9375 L 179 308 L 180 308 L 180 303.93555 A 2.5 3 0 0 0 179.5 298 z M 174.5 299 A 1.5 2 0 0 1 174.5 303 A 1.5 2 0 0 1 174.5 299 z M 179.5 299 A 1.5 2 0 0 1 179.5 303 A 1.5 2 0 0 1 179.5 299 z M 307.5 301 A 2.5 3 0 0 0 307 306.9375 L 307 311 L 308 311 L 308 306.93555 A 2.5 3 0 0 0 307.5 301 z M 312.5 301 A 2.5 3 0 0 0 312 306.9375 L 312 311 L 313 311 L 313 306.93555 A 2.5 3 0 0 0 312.5 301 z M 307.5 302 A 1.5 2 0 0 1 307.5 306 A 1.5 2 0 0 1 307.5 302 z M 312.5 302 A 1.5 2 0 0 1 312.5 306 A 1.5 2 0 0 1 312.5 302 z M 334.5 304 A 2.5 3 0 0 0 334 309.9375 L 334 314 L 335 314 L 335 309.93555 A 2.5 3 0 0 0 334.5 304 z M 339.5 304 A 2.5 3 0 0 0 339 309.9375 L 339 314 L 340 314 L 340 309.93555 A 2.5 3 0 0 0 339.5 304 z M 334.5 305 A 1.5 2 0 0 1 334.5 309 A 1.5 2 0 0 1 334.5 305 z M 339.5 305 A 1.5 2 0 0 1 339.5 309 A 1.5 2 0 0 1 339.5 305 z M 425.5 305 A 2.5 3 0 0 0 425 310.9375 L 425 315 L 426 315 L 426 310.93555 A 2.5 3 0 0 0 425.5 305 z M 430.5 305 A 2.5 3 0 0 0 430 310.9375 L 430 315 L 431 315 L 431 310.93555 A 2.5 3 0 0 0 430.5 305 z M 425.5 306 A 1.5 2 0 0 1 425.5 310 A 1.5 2 0 0 1 425.5 306 z M 430.5 306 A 1.5 2 0 0 1 430.5 310 A 1.5 2 0 0 1 430.5 306 z M 141.5 310 A 2.5 3 0 0 0 141 315.9375 L 141 320 L 142 320 L 142 315.93555 A 2.5 3 0 0 0 141.5 310 z M 146.5 310 A 2.5 3 0 0 0 146 315.9375 L 146 320 L 147 320 L 147 315.93555 A 2.5 3 0 0 0 146.5 310 z M 222.5 310 A 2.5 3 0 0 0 222 315.9375 L 222 320 L 223 320 L 223 315.93555 A 2.5 3 0 0 0 222.5 310 z M 227.5 310 A 2.5 3 0 0 0 227 315.9375 L 227 320 L 228 320 L 228 315.93555 A 2.5 3 0 0 0 227.5 310 z M 259.5 310 A 2.5 3 0 0 0 259 315.9375 L 259 320 L 260 320 L 260 315.93555 A 2.5 3 0 0 0 259.5 310 z M 264.5 310 A 2.5 3 0 0 0 264 315.9375 L 264 320 L 265 320 L 265 315.93555 A 2.5 3 0 0 0 264.5 310 z M 398.5 310 A 2.5 3 0 0 0 398 315.9375 L 398 320 L 399 320 L 399 315.93555 A 2.5 3 0 0 0 398.5 310 z M 403.5 310 A 2.5 3 0 0 0 403 315.9375 L 403 320 L 404 320 L 404 315.93555 A 2.5 3 0 0 0 403.5 310 z M 111.5 311 A 2.5 3 0 0 0 111 316.9375 L 111 321 L 112 321 L 112 316.93555 A 2.5 3 0 0 0 111.5 311 z M 116.5 311 A 2.5 3 0 0 0 116 316.9375 L 116 321 L 117 321 L 117 316.93555 A 2.5 3 0 0 0 116.5 311 z M 141.5 311 A 1.5 2 0 0 1 141.5 315 A 1.5 2 0 0 1 141.5 311 z M 146.5 311 A 1.5 2 0 0 1 146.5 315 A 1.5 2 0 0 1 146.5 311 z M 222.5 311 A 1.5 2 0 0 1 222.5 315 A 1.5 2 0 0 1 222.5 311 z M 227.5 311 A 1.5 2 0 0 1 227.5 315 A 1.5 2 0 0 1 227.5 311 z M 259.5 311 A 1.5 2 0 0 1 259.5 315 A 1.5 2 0 0 1 259.5 311 z M 264.5 311 A 1.5 2 0 0 1 264.5 315 A 1.5 2 0 0 1 264.5 311 z M 398.5 311 A 1.5 2 0 0 1 398.5 315 A 1.5 2 0 0 1 398.5 311 z M 403.5 311 A 1.5 2 0 0 1 403.5 315 A 1.5 2 0 0 1 403.5 311 z M 47.5 312 A 2.5 3 0 0 0 47 317.9375 L 47 322 L 48 322 L 48 317.93555 A 2.5 3 0 0 0 47.5 312 z M 52.5 312 A 2.5 3 0 0 0 52 317.9375 L 52 322 L 53 322 L 53 317.93555 A 2.5 3 0 0 0 52.5 312 z M 111.5 312 A 1.5 2 0 0 1 111.5 316 A 1.5 2 0 0 1 111.5 312 z M 116.5 312 A 1.5 2 0 0 1 116.5 316 A 1.5 2 0 0 1 116.5 312 z M 47.5 313 A 1.5 2 0 0 1 47.5 317 A 1.5 2 0 0 1 47.5 313 z M 52.5 313 A 1.5 2 0 0 1 52.5 317 A 1.5 2 0 0 1 52.5 313 z M 494.5 313 A 2.5 3 0 0 0 494 318.9375 L 494 323 L 495 323 L 495 318.93555 A 2.5 3 0 0 0 494.5 313 z M 499.5 313 A 2.5 3 0 0 0 499 318.9375 L 499 323 L 500 323 L 500 318.93555 A 2.5 3 0 0 0 499.5 313 z M 462.5 314 A 2.5 3 0 0 0 462 319.9375 L 462 324 L 463 324 L 463 319.93555 A 2.5 3 0 0 0 462.5 314 z M 467.5 314 A 2.5 3 0 0 0 467 319.9375 L 467 324 L 468 324 L 468 319.93555 A 2.5 3 0 0 0 467.5 314 z M 494.5 314 A 1.5 2 0 0 1 494.5 318 A 1.5 2 0 0 1 494.5 314 z M 499.5 314 A 1.5 2 0 0 1 499.5 318 A 1.5 2 0 0 1 499.5 314 z M 462.5 315 A 1.5 2 0 0 1 462.5 319 A 1.5 2 0 0 1 462.5 315 z M 467.5 315 A 1.5 2 0 0 1 467.5 319 A 1.5 2 0 0 1 467.5 315 z M 200.5 316 A 2.5 3 0 0 0 200 321.9375 L 200 326 L 201 326 L 201 321.93555 A 2.5 3 0 0 0 200.5 316 z M 205.5 316 A 2.5 3 0 0 0 205 321.9375 L 205 326 L 206 326 L 206 321.93555 A 2.5 3 0 0 0 205.5 316 z M 15.5 317 A 2.5 3 0 0 0 15 322.9375 L 15 327 L 16 327 L 16 322.93555 A 2.5 3 0 0 0 15.5 317 z M 20.5 317 A 2.5 3 0 0 0 20 322.9375 L 20 327 L 21 327 L 21 322.93555 A 2.5 3 0 0 0 20.5 317 z M 200.5 317 A 1.5 2 0 0 1 200.5 321 A 1.5 2 0 0 1 200.5 317 z M 205.5 317 A 1.5 2 0 0 1 205.5 321 A 1.5 2 0 0 1 205.5 317 z M 368.5 317 A 2.5 3 0 0 0 368 322.9375 L 368 327 L 369 327 L 369 322.93555 A 2.5 3 0 0 0 368.5 317 z M 373.5 317 A 2.5 3 0 0 0 373 322.9375 L 373 327 L 374 327 L 374 322.93555 A 2.5 3 0 0 0 373.5 317 z M 15.5 318 A 1.5 2 0 0 1 15.5 322 A 1.5 2 0 0 1 15.5 318 z M 20.5 318 A 1.5 2 0 0 1 20.5 322 A 1.5 2 0 0 1 20.5 318 z M 368.5 318 A 1.5 2 0 0 1 368.5 322 A 1.5 2 0 0 1 368.5 318 z M 373.5 318 A 1.5 2 0 0 1 373.5 322 A 1.5 2 0 0 1 373.5 318 z M 78.5 330 A 2.5 3 0 0 0 78 335.9375 L 78 340 L 79 340 L 79 335.93555 A 2.5 3 0 0 0 78.5 330 z M 83.5 330 A 2.5 3 0 0 0 83 335.9375 L 83 340 L 84 340 L 84 335.93555 A 2.5 3 0 0 0 83.5 330 z M 78.5 331 A 1.5 2 0 0 1 78.5 335 A 1.5 2 0 0 1 78.5 331 z M 83.5 331 A 1.5 2 0 0 1 83.5 335 A 1.5 2 0 0 1 83.5 331 z M 175.5 332 A 2.5 3 0 0 0 175 337.9375 L 175 342 L 176 342 L 176 337.93555 A 2.5 3 0 0 0 175.5 332 z M 180.5 332 A 2.5 3 0 0 0 180 337.9375 L 180 342 L 181 342 L 181 337.93555 A 2.5 3 0 0 0 180.5 332 z M 175.5 333 A 1.5 2 0 0 1 175.5 337 A 1.5 2 0 0 1 175.5 333 z M 180.5 333 A 1.5 2 0 0 1 180.5 337 A 1.5 2 0 0 1 180.5 333 z M 281.5 334 A 2.5 3 0 0 0 281 339.9375 L 281 344 L 282 344 L 282 339.93555 A 2.5 3 0 0 0 281.5 334 z M 286.5 334 A 2.5 3 0 0 0 286 339.9375 L 286 344 L 287 344 L 287 339.93555 A 2.5 3 0 0 0 286.5 334 z M 310.5 334 A 2.5 3 0 0 0 310 339.9375 L 310 344 L 311 344 L 311 339.93555 A 2.5 3 0 0 0 310.5 334 z M 315.5 334 A 2.5 3 0 0 0 315 339.9375 L 315 344 L 316 344 L 316 339.93555 A 2.5 3 0 0 0 315.5 334 z M 281.5 335 A 1.5 2 0 0 1 281.5 339 A 1.5 2 0 0 1 281.5 335 z M 286.5 335 A 1.5 2 0 0 1 286.5 339 A 1.5 2 0 0 1 286.5 335 z M 310.5 335 A 1.5 2 0 0 1 310.5 339 A 1.5 2 0 0 1 310.5 335 z M 315.5 335 A 1.5 2 0 0 1 315.5 339 A 1.5 2 0 0 1 315.5 335 z M 340.5 335 A 2.5 3 0 0 0 340 340.9375 L 340 345 L 341 345 L 341 340.93555 A 2.5 3 0 0 0 340.5 335 z M 345.5 335 A 2.5 3 0 0 0 345 340.9375 L 345 345 L 346 345 L 346 340.93555 A 2.5 3 0 0 0 345.5 335 z M 236.5 336 A 2.5 3 0 0 0 236 341.9375 L 236 346 L 237 346 L 237 341.93555 A 2.5 3 0 0 0 236.5 336 z M 241.5 336 A 2.5 3 0 0 0 241 341.9375 L 241 346 L 242 346 L 242 341.93555 A 2.5 3 0 0 0 241.5 336 z M 340.5 336 A 1.5 2 0 0 1 340.5 340 A 1.5 2 0 0 1 340.5 336 z M 345.5 336 A 1.5 2 0 0 1 345.5 340 A 1.5 2 0 0 1 345.5 336 z M 434.5 336 A 2.5 3 0 0 0 434 341.9375 L 434 346 L 435 346 L 435 341.93555 A 2.5 3 0 0 0 434.5 336 z M 439.5 336 A 2.5 3 0 0 0 439 341.9375 L 439 346 L 440 346 L 440 341.93555 A 2.5 3 0 0 0 439.5 336 z M 127.5 337 A 2.5 3 0 0 0 127 342.9375 L 127 347 L 128 347 L 128 342.93555 A 2.5 3 0 0 0 127.5 337 z M 132.5 337 A 2.5 3 0 0 0 132 342.9375 L 132 347 L 133 347 L 133 342.93555 A 2.5 3 0 0 0 132.5 337 z M 236.5 337 A 1.5 2 0 0 1 236.5 341 A 1.5 2 0 0 1 236.5 337 z M 241.5 337 A 1.5 2 0 0 1 241.5 341 A 1.5 2 0 0 1 241.5 337 z M 434.5 337 A 1.5 2 0 0 1 434.5 341 A 1.5 2 0 0 1 434.5 337 z M 439.5 337 A 1.5 2 0 0 1 439.5 341 A 1.5 2 0 0 1 439.5 337 z M 40.5 338 A 2.5 3 0 0 0 40 343.9375 L 40 348 L 41 348 L 41 343.93555 A 2.5 3 0 0 0 40.5 338 z M 45.5 338 A 2.5 3 0 0 0 45 343.9375 L 45 348 L 46 348 L 46 343.93555 A 2.5 3 0 0 0 45.5 338 z M 127.5 338 A 1.5 2 0 0 1 127.5 342 A 1.5 2 0 0 1 127.5 338 z M 132.5 338 A 1.5 2 0 0 1 132.5 342 A 1.5 2 0 0 1 132.5 338 z M 498.5 338 A 2.5 3 0 0 0 498 343.9375 L 498 348 L 499 348 L 499 343.93555 A 2.5 3 0 0 0 498.5 338 z M 503.5 338 A 2.5 3 0 0 0 503 343.9375 L 503 348 L 504 348 L 504 343.93555 A 2.5 3 0 0 0 503.5 338 z M 40.5 339 A 1.5 2 0 0 1 40.5 343 A 1.5 2 0 0 1 40.5 339 z M 45.5 339 A 1.5 2 0 0 1 45.5 343 A 1.5 2 0 0 1 45.5 339 z M 404.5 339 A 2.5 3 0 0 0 404 344.9375 L 404 349 L 405 349 L 405 344.93555 A 2.5 3 0 0 0 404.5 339 z M 409.5 339 A 2.5 3 0 0 0 409 344.9375 L 409 349 L 410 349 L 410 344.93555 A 2.5 3 0 0 0 409.5 339 z M 498.5 339 A 1.5 2 0 0 1 498.5 343 A 1.5 2 0 0 1 498.5 339 z M 503.5 339 A 1.5 2 0 0 1 503.5 343 A 1.5 2 0 0 1 503.5 339 z M 404.5 340 A 1.5 2 0 0 1 404.5 344 A 1.5 2 0 0 1 404.5 340 z M 409.5 340 A 1.5 2 0 0 1 409.5 344 A 1.5 2 0 0 1 409.5 340 z M 104.5 342 A 2.5 3 0 0 0 104 347.9375 L 104 352 L 105 352 L 105 347.93555 A 2.5 3 0 0 0 104.5 342 z M 109.5 342 A 2.5 3 0 0 0 109 347.9375 L 109 352 L 110 352 L 110 347.93555 A 2.5 3 0 0 0 109.5 342 z M 104.5 343 A 1.5 2 0 0 1 104.5 347 A 1.5 2 0 0 1 104.5 343 z M 109.5 343 A 1.5 2 0 0 1 109.5 347 A 1.5 2 0 0 1 109.5 343 z M 468.5 343 A 2.5 3 0 0 0 468 348.9375 L 468 353 L 469 353 L 469 348.93555 A 2.5 3 0 0 0 468.5 343 z M 473.5 343 A 2.5 3 0 0 0 473 348.9375 L 473 353 L 474 353 L 474 348.93555 A 2.5 3 0 0 0 473.5 343 z M 374.5 344 A 2.5 3 0 0 0 374 349.9375 L 374 354 L 375 354 L 375 349.93555 A 2.5 3 0 0 0 374.5 344 z M 379.5 344 A 2.5 3 0 0 0 379 349.9375 L 379 354 L 380 354 L 380 349.93555 A 2.5 3 0 0 0 379.5 344 z M 468.5 344 A 1.5 2 0 0 1 468.5 348 A 1.5 2 0 0 1 468.5 344 z M 473.5 344 A 1.5 2 0 0 1 473.5 348 A 1.5 2 0 0 1 473.5 344 z M 150.5 345 A 2.5 3 0 0 0 150 350.9375 L 150 355 L 151 355 L 151 350.93555 A 2.5 3 0 0 0 150.5 345 z M 155.5 345 A 2.5 3 0 0 0 155 350.9375 L 155 355 L 156 355 L 156 350.93555 A 2.5 3 0 0 0 155.5 345 z M 374.5 345 A 1.5 2 0 0 1 374.5 349 A 1.5 2 0 0 1 374.5 345 z M 379.5 345 A 1.5 2 0 0 1 379.5 349 A 1.5 2 0 0 1 379.5 345 z M 150.5 346 A 1.5 2 0 0 1 150.5 350 A 1.5 2 0 0 1 150.5 346 z M 155.5 346 A 1.5 2 0 0 1 155.5 350 A 1.5 2 0 0 1 155.5 346 z M 257.5 346 A 2.5 3 0 0 0 257 351.9375 L 257 356 L 258 356 L 258 351.93555 A 2.5 3 0 0 0 257.5 346 z M 262.5 346 A 2.5 3 0 0 0 262 351.9375 L 262 356 L 263 356 L 263 351.93555 A 2.5 3 0 0 0 262.5 346 z M 208.5 347 A 2.5 3 0 0 0 208 352.9375 L 208 357 L 209 357 L 209 352.93555 A 2.5 3 0 0 0 208.5 347 z M 213.5 347 A 2.5 3 0 0 0 213 352.9375 L 213 357 L 214 357 L 214 352.93555 A 2.5 3 0 0 0 213.5 347 z M 257.5 347 A 1.5 2 0 0 1 257.5 351 A 1.5 2 0 0 1 257.5 347 z M 262.5 347 A 1.5 2 0 0 1 262.5 351 A 1.5 2 0 0 1 262.5 347 z M 208.5 348 A 1.5 2 0 0 1 208.5 352 A 1.5 2 0 0 1 208.5 348 z M 213.5 348 A 1.5 2 0 0 1 213.5 352 A 1.5 2 0 0 1 213.5 348 z M 17.5 350 A 2.5 3 0 0 0 17 355.9375 L 17 360 L 18 360 L 18 355.93555 A 2.5 3 0 0 0 17.5 350 z M 22.5 350 A 2.5 3 0 0 0 22 355.9375 L 22 360 L 23 360 L 23 355.93555 A 2.5 3 0 0 0 22.5 350 z M 17.5 351 A 1.5 2 0 0 1 17.5 355 A 1.5 2 0 0 1 17.5 351 z M 22.5 351 A 1.5 2 0 0 1 22.5 355 A 1.5 2 0 0 1 22.5 351 z M 66.5 357 A 2.5 3 0 0 0 66 362.9375 L 66 367 L 67 367 L 67 362.93555 A 2.5 3 0 0 0 66.5 357 z M 71.5 357 A 2.5 3 0 0 0 71 362.9375 L 71 367 L 72 367 L 72 362.93555 A 2.5 3 0 0 0 71.5 357 z M 66.5 358 A 1.5 2 0 0 1 66.5 362 A 1.5 2 0 0 1 66.5 358 z M 71.5 358 A 1.5 2 0 0 1 71.5 362 A 1.5 2 0 0 1 71.5 358 z M 281.5 360 A 2.5 3 0 0 0 281 365.9375 L 281 370 L 282 370 L 282 365.93555 A 2.5 3 0 0 0 281.5 360 z M 286.5 360 A 2.5 3 0 0 0 286 365.9375 L 286 370 L 287 370 L 287 365.93555 A 2.5 3 0 0 0 286.5 360 z M 281.5 361 A 1.5 2 0 0 1 281.5 365 A 1.5 2 0 0 1 281.5 361 z M 286.5 361 A 1.5 2 0 0 1 286.5 365 A 1.5 2 0 0 1 286.5 361 z M 177.5 362 A 2.5 3 0 0 0 177 367.9375 L 177 372 L 178 372 L 178 367.93555 A 2.5 3 0 0 0 177.5 362 z M 182.5 362 A 2.5 3 0 0 0 182 367.9375 L 182 372 L 183 372 L 183 367.93555 A 2.5 3 0 0 0 182.5 362 z M 177.5 363 A 1.5 2 0 0 1 177.5 367 A 1.5 2 0 0 1 177.5 363 z M 182.5 363 A 1.5 2 0 0 1 182.5 367 A 1.5 2 0 0 1 182.5 363 z M 318.5 364 A 2.5 3 0 0 0 318 369.9375 L 318 374 L 319 374 L 319 369.93555 A 2.5 3 0 0 0 318.5 364 z M 323.5 364 A 2.5 3 0 0 0 323 369.9375 L 323 374 L 324 374 L 324 369.93555 A 2.5 3 0 0 0 323.5 364 z M 318.5 365 A 1.5 2 0 0 1 318.5 369 A 1.5 2 0 0 1 318.5 365 z M 323.5 365 A 1.5 2 0 0 1 323.5 369 A 1.5 2 0 0 1 323.5 365 z M 440.5 365 A 2.5 3 0 0 0 440 370.9375 L 440 375 L 441 375 L 441 370.93555 A 2.5 3 0 0 0 440.5 365 z M 445.5 365 A 2.5 3 0 0 0 445 370.9375 L 445 375 L 446 375 L 446 370.93555 A 2.5 3 0 0 0 445.5 365 z M 440.5 366 A 1.5 2 0 0 1 440.5 370 A 1.5 2 0 0 1 440.5 366 z M 445.5 366 A 1.5 2 0 0 1 445.5 370 A 1.5 2 0 0 1 445.5 366 z M 346.5 367 A 2.5 3 0 0 0 346 372.9375 L 346 377 L 347 377 L 347 372.93555 A 2.5 3 0 0 0 346.5 367 z M 351.5 367 A 2.5 3 0 0 0 351 372.9375 L 351 377 L 352 377 L 352 372.93555 A 2.5 3 0 0 0 351.5 367 z M 346.5 368 A 1.5 2 0 0 1 346.5 372 A 1.5 2 0 0 1 346.5 368 z M 351.5 368 A 1.5 2 0 0 1 351.5 372 A 1.5 2 0 0 1 351.5 368 z M 410.5 369 A 2.5 3 0 0 0 410 374.9375 L 410 379 L 411 379 L 411 374.93555 A 2.5 3 0 0 0 410.5 369 z M 415.5 369 A 2.5 3 0 0 0 415 374.9375 L 415 379 L 416 379 L 416 374.93555 A 2.5 3 0 0 0 415.5 369 z M 410.5 370 A 1.5 2 0 0 1 410.5 374 A 1.5 2 0 0 1 410.5 370 z M 415.5 370 A 1.5 2 0 0 1 415.5 374 A 1.5 2 0 0 1 415.5 370 z M 490.5 370 A 2.5 3 0 0 0 490 375.9375 L 490 380 L 491 380 L 491 375.93555 A 2.5 3 0 0 0 490.5 370 z M 495.5 370 A 2.5 3 0 0 0 495 375.9375 L 495 380 L 496 380 L 496 375.93555 A 2.5 3 0 0 0 495.5 370 z M 490.5 371 A 1.5 2 0 0 1 490.5 375 A 1.5 2 0 0 1 490.5 371 z M 495.5 371 A 1.5 2 0 0 1 495.5 375 A 1.5 2 0 0 1 495.5 371 z M 230.5 372 A 2.5 3 0 0 0 230 377.9375 L 230 382 L 231 382 L 231 377.93555 A 2.5 3 0 0 0 230.5 372 z M 235.5 372 A 2.5 3 0 0 0 235 377.9375 L 235 382 L 236 382 L 236 377.93555 A 2.5 3 0 0 0 235.5 372 z M 381.5 372 A 2.5 3 0 0 0 381 377.9375 L 381 382 L 382 382 L 382 377.93555 A 2.5 3 0 0 0 381.5 372 z M 386.5 372 A 2.5 3 0 0 0 386 377.9375 L 386 382 L 387 382 L 387 377.93555 A 2.5 3 0 0 0 386.5 372 z M 94.5 373 A 2.5 3 0 0 0 94 378.9375 L 94 383 L 95 383 L 95 378.93555 A 2.5 3 0 0 0 94.5 373 z M 99.5 373 A 2.5 3 0 0 0 99 378.9375 L 99 383 L 100 383 L 100 378.93555 A 2.5 3 0 0 0 99.5 373 z M 126.5 373 A 2.5 3 0 0 0 126 378.9375 L 126 383 L 127 383 L 127 378.93555 A 2.5 3 0 0 0 126.5 373 z M 131.5 373 A 2.5 3 0 0 0 131 378.9375 L 131 383 L 132 383 L 132 378.93555 A 2.5 3 0 0 0 131.5 373 z M 230.5 373 A 1.5 2 0 0 1 230.5 377 A 1.5 2 0 0 1 230.5 373 z M 235.5 373 A 1.5 2 0 0 1 235.5 377 A 1.5 2 0 0 1 235.5 373 z M 381.5 373 A 1.5 2 0 0 1 381.5 377 A 1.5 2 0 0 1 381.5 373 z M 386.5 373 A 1.5 2 0 0 1 386.5 377 A 1.5 2 0 0 1 386.5 373 z M 94.5 374 A 1.5 2 0 0 1 94.5 378 A 1.5 2 0 0 1 94.5 374 z M 99.5 374 A 1.5 2 0 0 1 99.5 378 A 1.5 2 0 0 1 99.5 374 z M 126.5 374 A 1.5 2 0 0 1 126.5 378 A 1.5 2 0 0 1 126.5 374 z M 131.5 374 A 1.5 2 0 0 1 131.5 378 A 1.5 2 0 0 1 131.5 374 z M 38.5 375 A 2.5 3 0 0 0 38 380.9375 L 38 385 L 39 385 L 39 380.93555 A 2.5 3 0 0 0 38.5 375 z M 43.5 375 A 2.5 3 0 0 0 43 380.9375 L 43 385 L 44 385 L 44 380.93555 A 2.5 3 0 0 0 43.5 375 z M 38.5 376 A 1.5 2 0 0 1 38.5 380 A 1.5 2 0 0 1 38.5 376 z M 43.5 376 A 1.5 2 0 0 1 43.5 380 A 1.5 2 0 0 1 43.5 376 z M 6.5 378 A 2.5 3 0 0 0 6 383.9375 L 6 388 L 7 388 L 7 383.93555 A 2.5 3 0 0 0 6.5 378 z M 11.5 378 A 2.5 3 0 0 0 11 383.9375 L 11 388 L 12 388 L 12 383.93555 A 2.5 3 0 0 0 11.5 378 z M 462.5 378 A 2.5 3 0 0 0 462 383.9375 L 462 388 L 463 388 L 463 383.93555 A 2.5 3 0 0 0 462.5 378 z M 467.5 378 A 2.5 3 0 0 0 467 383.9375 L 467 388 L 468 388 L 468 383.93555 A 2.5 3 0 0 0 467.5 378 z M 6.5 379 A 1.5 2 0 0 1 6.5 383 A 1.5 2 0 0 1 6.5 379 z M 11.5 379 A 1.5 2 0 0 1 11.5 383 A 1.5 2 0 0 1 11.5 379 z M 292.5 379 A 2.5 3 0 0 0 292 384.9375 L 292 389 L 293 389 L 293 384.93555 A 2.5 3 0 0 0 292.5 379 z M 297.5 379 A 2.5 3 0 0 0 297 384.9375 L 297 389 L 298 389 L 298 384.93555 A 2.5 3 0 0 0 297.5 379 z M 462.5 379 A 1.5 2 0 0 1 462.5 383 A 1.5 2 0 0 1 462.5 379 z M 467.5 379 A 1.5 2 0 0 1 467.5 383 A 1.5 2 0 0 1 467.5 379 z M 292.5 380 A 1.5 2 0 0 1 292.5 384 A 1.5 2 0 0 1 292.5 380 z M 297.5 380 A 1.5 2 0 0 1 297.5 384 A 1.5 2 0 0 1 297.5 380 z M 155.5 381 A 2.5 3 0 0 0 155 386.9375 L 155 391 L 156 391 L 156 386.93555 A 2.5 3 0 0 0 155.5 381 z M 160.5 381 A 2.5 3 0 0 0 160 386.9375 L 160 391 L 161 391 L 161 386.93555 A 2.5 3 0 0 0 160.5 381 z M 206.5 381 A 2.5 3 0 0 0 206 386.9375 L 206 391 L 207 391 L 207 386.93555 A 2.5 3 0 0 0 206.5 381 z M 211.5 381 A 2.5 3 0 0 0 211 386.9375 L 211 391 L 212 391 L 212 386.93555 A 2.5 3 0 0 0 211.5 381 z M 155.5 382 A 1.5 2 0 0 1 155.5 386 A 1.5 2 0 0 1 155.5 382 z M 160.5 382 A 1.5 2 0 0 1 160.5 386 A 1.5 2 0 0 1 160.5 382 z M 206.5 382 A 1.5 2 0 0 1 206.5 386 A 1.5 2 0 0 1 206.5 382 z M 211.5 382 A 1.5 2 0 0 1 211.5 386 A 1.5 2 0 0 1 211.5 382 z M 65.5 392 A 2.5 3 0 0 0 65 397.9375 L 65 402 L 66 402 L 66 397.93555 A 2.5 3 0 0 0 65.5 392 z M 70.5 392 A 2.5 3 0 0 0 70 397.9375 L 70 402 L 71 402 L 71 397.93555 A 2.5 3 0 0 0 70.5 392 z M 65.5 393 A 1.5 2 0 0 1 65.5 397 A 1.5 2 0 0 1 65.5 393 z M 70.5 393 A 1.5 2 0 0 1 70.5 397 A 1.5 2 0 0 1 70.5 393 z M 369.5 394 A 2.5 3 0 0 0 369 399.9375 L 369 404 L 370 404 L 370 399.93555 A 2.5 3 0 0 0 369.5 394 z M 374.5 394 A 2.5 3 0 0 0 374 399.9375 L 374 404 L 375 404 L 375 399.93555 A 2.5 3 0 0 0 374.5 394 z M 246.5 395 A 2.5 3 0 0 0 246 400.9375 L 246 405 L 247 405 L 247 400.93555 A 2.5 3 0 0 0 246.5 395 z M 251.5 395 A 2.5 3 0 0 0 251 400.9375 L 251 405 L 252 405 L 252 400.93555 A 2.5 3 0 0 0 251.5 395 z M 369.5 395 A 1.5 2 0 0 1 369.5 399 A 1.5 2 0 0 1 369.5 395 z M 374.5 395 A 1.5 2 0 0 1 374.5 399 A 1.5 2 0 0 1 374.5 395 z M 182.5 396 A 2.5 3 0 0 0 182 401.9375 L 182 406 L 183 406 L 183 401.93555 A 2.5 3 0 0 0 182.5 396 z M 187.5 396 A 2.5 3 0 0 0 187 401.9375 L 187 406 L 188 406 L 188 401.93555 A 2.5 3 0 0 0 187.5 396 z M 246.5 396 A 1.5 2 0 0 1 246.5 400 A 1.5 2 0 0 1 246.5 396 z M 251.5 396 A 1.5 2 0 0 1 251.5 400 A 1.5 2 0 0 1 251.5 396 z M 337.5 396 A 2.5 3 0 0 0 337 401.9375 L 337 406 L 338 406 L 338 401.93555 A 2.5 3 0 0 0 337.5 396 z M 342.5 396 A 2.5 3 0 0 0 342 401.9375 L 342 406 L 343 406 L 343 401.93555 A 2.5 3 0 0 0 342.5 396 z M 182.5 397 A 1.5 2 0 0 1 182.5 401 A 1.5 2 0 0 1 182.5 397 z M 187.5 397 A 1.5 2 0 0 1 187.5 401 A 1.5 2 0 0 1 187.5 397 z M 337.5 397 A 1.5 2 0 0 1 337.5 401 A 1.5 2 0 0 1 337.5 397 z M 342.5 397 A 1.5 2 0 0 1 342.5 401 A 1.5 2 0 0 1 342.5 397 z M 307.5 398 A 2.5 3 0 0 0 307 403.9375 L 307 408 L 308 408 L 308 403.93555 A 2.5 3 0 0 0 307.5 398 z M 312.5 398 A 2.5 3 0 0 0 312 403.9375 L 312 408 L 313 408 L 313 403.93555 A 2.5 3 0 0 0 312.5 398 z M 433.5 398 A 2.5 3 0 0 0 433 403.9375 L 433 408 L 434 408 L 434 403.93555 A 2.5 3 0 0 0 433.5 398 z M 438.5 398 A 2.5 3 0 0 0 438 403.9375 L 438 408 L 439 408 L 439 403.93555 A 2.5 3 0 0 0 438.5 398 z M 307.5 399 A 1.5 2 0 0 1 307.5 403 A 1.5 2 0 0 1 307.5 399 z M 312.5 399 A 1.5 2 0 0 1 312.5 403 A 1.5 2 0 0 1 312.5 399 z M 433.5 399 A 1.5 2 0 0 1 433.5 403 A 1.5 2 0 0 1 433.5 399 z M 438.5 399 A 1.5 2 0 0 1 438.5 403 A 1.5 2 0 0 1 438.5 399 z M 118.5 400 A 2.5 3 0 0 0 118 405.9375 L 118 410 L 119 410 L 119 405.93555 A 2.5 3 0 0 0 118.5 400 z M 123.5 400 A 2.5 3 0 0 0 123 405.9375 L 123 410 L 124 410 L 124 405.93555 A 2.5 3 0 0 0 123.5 400 z M 34.5 401 A 2.5 3 0 0 0 34 406.9375 L 34 411 L 35 411 L 35 406.93555 A 2.5 3 0 0 0 34.5 401 z M 39.5 401 A 2.5 3 0 0 0 39 406.9375 L 39 411 L 40 411 L 40 406.93555 A 2.5 3 0 0 0 39.5 401 z M 118.5 401 A 1.5 2 0 0 1 118.5 405 A 1.5 2 0 0 1 118.5 401 z M 123.5 401 A 1.5 2 0 0 1 123.5 405 A 1.5 2 0 0 1 123.5 401 z M 34.5 402 A 1.5 2 0 0 1 34.5 406 A 1.5 2 0 0 1 34.5 402 z M 39.5 402 A 1.5 2 0 0 1 39.5 406 A 1.5 2 0 0 1 39.5 402 z M 401.5 402 A 2.5 3 0 0 0 401 407.9375 L 401 412 L 402 412 L 402 407.93555 A 2.5 3 0 0 0 401.5 402 z M 406.5 402 A 2.5 3 0 0 0 406 407.9375 L 406 412 L 407 412 L 407 407.93555 A 2.5 3 0 0 0 406.5 402 z M 492.5 402 A 2.5 3 0 0 0 492 407.9375 L 492 412 L 493 412 L 493 407.93555 A 2.5 3 0 0 0 492.5 402 z M 497.5 402 A 2.5 3 0 0 0 497 407.9375 L 497 412 L 498 412 L 498 407.93555 A 2.5 3 0 0 0 497.5 402 z M 401.5 403 A 1.5 2 0 0 1 401.5 407 A 1.5 2 0 0 1 401.5 403 z M 406.5 403 A 1.5 2 0 0 1 406.5 407 A 1.5 2 0 0 1 406.5 403 z M 492.5 403 A 1.5 2 0 0 1 492.5 407 A 1.5 2 0 0 1 492.5 403 z M 497.5 403 A 1.5 2 0 0 1 497.5 407 A 1.5 2 0 0 1 497.5 403 z M 87.5 404 A 2.5 3 0 0 0 87 409.9375 L 87 414 L 88 414 L 88 409.93555 A 2.5 3 0 0 0 87.5 404 z M 92.5 404 A 2.5 3 0 0 0 92 409.9375 L 92 414 L 93 414 L 93 409.93555 A 2.5 3 0 0 0 92.5 404 z M 272.5 404 A 2.5 3 0 0 0 272 409.9375 L 272 414 L 273 414 L 273 409.93555 A 2.5 3 0 0 0 272.5 404 z M 277.5 404 A 2.5 3 0 0 0 277 409.9375 L 277 414 L 278 414 L 278 409.93555 A 2.5 3 0 0 0 277.5 404 z M 87.5 405 A 1.5 2 0 0 1 87.5 409 A 1.5 2 0 0 1 87.5 405 z M 92.5 405 A 1.5 2 0 0 1 92.5 409 A 1.5 2 0 0 1 92.5 405 z M 272.5 405 A 1.5 2 0 0 1 272.5 409 A 1.5 2 0 0 1 272.5 405 z M 277.5 405 A 1.5 2 0 0 1 277.5 409 A 1.5 2 0 0 1 277.5 405 z M 462.5 407 A 2.5 3 0 0 0 462 412.9375 L 462 417 L 463 417 L 463 412.93555 A 2.5 3 0 0 0 462.5 407 z M 467.5 407 A 2.5 3 0 0 0 467 412.9375 L 467 417 L 468 417 L 468 412.93555 A 2.5 3 0 0 0 467.5 407 z M 462.5 408 A 1.5 2 0 0 1 462.5 412 A 1.5 2 0 0 1 462.5 408 z M 467.5 408 A 1.5 2 0 0 1 467.5 412 A 1.5 2 0 0 1 467.5 408 z M 149.5 409 A 2.5 3 0 0 0 149 414.9375 L 149 419 L 150 419 L 150 414.93555 A 2.5 3 0 0 0 149.5 409 z M 154.5 409 A 2.5 3 0 0 0 154 414.9375 L 154 419 L 155 419 L 155 414.93555 A 2.5 3 0 0 0 154.5 409 z M 149.5 410 A 1.5 2 0 0 1 149.5 414 A 1.5 2 0 0 1 149.5 410 z M 154.5 410 A 1.5 2 0 0 1 154.5 414 A 1.5 2 0 0 1 154.5 410 z M 220.5 410 A 2.5 3 0 0 0 220 415.9375 L 220 420 L 221 420 L 221 415.93555 A 2.5 3 0 0 0 220.5 410 z M 225.5 410 A 2.5 3 0 0 0 225 415.9375 L 225 420 L 226 420 L 226 415.93555 A 2.5 3 0 0 0 225.5 410 z M 220.5 411 A 1.5 2 0 0 1 220.5 415 A 1.5 2 0 0 1 220.5 411 z M 225.5 411 A 1.5 2 0 0 1 225.5 415 A 1.5 2 0 0 1 225.5 411 z M 6.5 413 A 2.5 3 0 0 0 6 418.9375 L 6 423 L 7 423 L 7 418.93555 A 2.5 3 0 0 0 6.5 413 z M 11.5 413 A 2.5 3 0 0 0 11 418.9375 L 11 423 L 12 423 L 12 418.93555 A 2.5 3 0 0 0 11.5 413 z M 6.5 414 A 1.5 2 0 0 1 6.5 418 A 1.5 2 0 0 1 6.5 414 z M 11.5 414 A 1.5 2 0 0 1 11.5 418 A 1.5 2 0 0 1 11.5 414 z M 187.5 420 A 2.5 3 0 0 0 187 425.9375 L 187 430 L 188 430 L 188 425.93555 A 2.5 3 0 0 0 187.5 420 z M 192.5 420 A 2.5 3 0 0 0 192 425.9375 L 192 430 L 193 430 L 193 425.93555 A 2.5 3 0 0 0 192.5 420 z M 187.5 421 A 1.5 2 0 0 1 187.5 425 A 1.5 2 0 0 1 187.5 421 z M 192.5 421 A 1.5 2 0 0 1 192.5 425 A 1.5 2 0 0 1 192.5 421 z M 342.5 423 A 2.5 3 0 0 0 342 428.9375 L 342 433 L 343 433 L 343 428.93555 A 2.5 3 0 0 0 342.5 423 z M 347.5 423 A 2.5 3 0 0 0 347 428.9375 L 347 433 L 348 433 L 348 428.93555 A 2.5 3 0 0 0 347.5 423 z M 342.5 424 A 1.5 2 0 0 1 342.5 428 A 1.5 2 0 0 1 342.5 424 z M 347.5 424 A 1.5 2 0 0 1 347.5 428 A 1.5 2 0 0 1 347.5 424 z M 375.5 425 A 2.5 3 0 0 0 375 430.9375 L 375 435 L 376 435 L 376 430.93555 A 2.5 3 0 0 0 375.5 425 z M 380.5 425 A 2.5 3 0 0 0 380 430.9375 L 380 435 L 381 435 L 381 430.93555 A 2.5 3 0 0 0 380.5 425 z M 375.5 426 A 1.5 2 0 0 1 375.5 430 A 1.5 2 0 0 1 375.5 426 z M 380.5 426 A 1.5 2 0 0 1 380.5 430 A 1.5 2 0 0 1 380.5 426 z M 102.5 427 A 2.5 3 0 0 0 102 432.9375 L 102 437 L 103 437 L 103 432.93555 A 2.5 3 0 0 0 102.5 427 z M 107.5 427 A 2.5 3 0 0 0 107 432.9375 L 107 437 L 108 437 L 108 432.93555 A 2.5 3 0 0 0 107.5 427 z M 282.5 427 A 2.5 3 0 0 0 282 432.9375 L 282 437 L 283 437 L 283 432.93555 A 2.5 3 0 0 0 282.5 427 z M 287.5 427 A 2.5 3 0 0 0 287 432.9375 L 287 437 L 288 437 L 288 432.93555 A 2.5 3 0 0 0 287.5 427 z M 102.5 428 A 1.5 2 0 0 1 102.5 432 A 1.5 2 0 0 1 102.5 428 z M 107.5 428 A 1.5 2 0 0 1 107.5 432 A 1.5 2 0 0 1 107.5 428 z M 251.5 428 A 2.5 3 0 0 0 251 433.9375 L 251 438 L 252 438 L 252 433.93555 A 2.5 3 0 0 0 251.5 428 z M 256.5 428 A 2.5 3 0 0 0 256 433.9375 L 256 438 L 257 438 L 257 433.93555 A 2.5 3 0 0 0 256.5 428 z M 282.5 428 A 1.5 2 0 0 1 282.5 432 A 1.5 2 0 0 1 282.5 428 z M 287.5 428 A 1.5 2 0 0 1 287.5 432 A 1.5 2 0 0 1 287.5 428 z M 251.5 429 A 1.5 2 0 0 1 251.5 433 A 1.5 2 0 0 1 251.5 429 z M 256.5 429 A 1.5 2 0 0 1 256.5 433 A 1.5 2 0 0 1 256.5 429 z M 315.5 429 A 2.5 3 0 0 0 315 434.9375 L 315 439 L 316 439 L 316 434.93555 A 2.5 3 0 0 0 315.5 429 z M 320.5 429 A 2.5 3 0 0 0 320 434.9375 L 320 439 L 321 439 L 321 434.93555 A 2.5 3 0 0 0 320.5 429 z M 434.5 429 A 2.5 3 0 0 0 434 434.9375 L 434 439 L 435 439 L 435 434.93555 A 2.5 3 0 0 0 434.5 429 z M 439.5 429 A 2.5 3 0 0 0 439 434.9375 L 439 439 L 440 439 L 440 434.93555 A 2.5 3 0 0 0 439.5 429 z M 73.5 430 A 2.5 3 0 0 0 73 435.9375 L 73 440 L 74 440 L 74 435.93555 A 2.5 3 0 0 0 73.5 430 z M 78.5 430 A 2.5 3 0 0 0 78 435.9375 L 78 440 L 79 440 L 79 435.93555 A 2.5 3 0 0 0 78.5 430 z M 315.5 430 A 1.5 2 0 0 1 315.5 434 A 1.5 2 0 0 1 315.5 430 z M 320.5 430 A 1.5 2 0 0 1 320.5 434 A 1.5 2 0 0 1 320.5 430 z M 434.5 430 A 1.5 2 0 0 1 434.5 434 A 1.5 2 0 0 1 434.5 430 z M 439.5 430 A 1.5 2 0 0 1 439.5 434 A 1.5 2 0 0 1 439.5 430 z M 73.5 431 A 1.5 2 0 0 1 73.5 435 A 1.5 2 0 0 1 73.5 431 z M 78.5 431 A 1.5 2 0 0 1 78.5 435 A 1.5 2 0 0 1 78.5 431 z M 406.5 431 A 2.5 3 0 0 0 406 436.9375 L 406 441 L 407 441 L 407 436.93555 A 2.5 3 0 0 0 406.5 431 z M 411.5 431 A 2.5 3 0 0 0 411 436.9375 L 411 441 L 412 441 L 412 436.93555 A 2.5 3 0 0 0 411.5 431 z M 40.5 432 A 2.5 3 0 0 0 40 437.9375 L 40 442 L 41 442 L 41 437.93555 A 2.5 3 0 0 0 40.5 432 z M 45.5 432 A 2.5 3 0 0 0 45 437.9375 L 45 442 L 46 442 L 46 437.93555 A 2.5 3 0 0 0 45.5 432 z M 406.5 432 A 1.5 2 0 0 1 406.5 436 A 1.5 2 0 0 1 406.5 432 z M 411.5 432 A 1.5 2 0 0 1 411.5 436 A 1.5 2 0 0 1 411.5 432 z M 40.5 433 A 1.5 2 0 0 1 40.5 437 A 1.5 2 0 0 1 40.5 433 z M 45.5 433 A 1.5 2 0 0 1 45.5 437 A 1.5 2 0 0 1 45.5 433 z M 491.5 434 A 2.5 3 0 0 0 491 439.9375 L 491 444 L 492 444 L 492 439.93555 A 2.5 3 0 0 0 491.5 434 z M 496.5 434 A 2.5 3 0 0 0 496 439.9375 L 496 444 L 497 444 L 497 439.93555 A 2.5 3 0 0 0 496.5 434 z M 491.5 435 A 1.5 2 0 0 1 491.5 439 A 1.5 2 0 0 1 491.5 435 z M 496.5 435 A 1.5 2 0 0 1 496.5 439 A 1.5 2 0 0 1 496.5 435 z M 133.5 437 A 2.5 3 0 0 0 133 442.9375 L 133 447 L 134 447 L 134 442.93555 A 2.5 3 0 0 0 133.5 437 z M 138.5 437 A 2.5 3 0 0 0 138 442.9375 L 138 447 L 139 447 L 139 442.93555 A 2.5 3 0 0 0 138.5 437 z M 133.5 438 A 1.5 2 0 0 1 133.5 442 A 1.5 2 0 0 1 133.5 438 z M 138.5 438 A 1.5 2 0 0 1 138.5 442 A 1.5 2 0 0 1 138.5 438 z M 212.5 439 A 2.5 3 0 0 0 212 444.9375 L 212 449 L 213 449 L 213 444.93555 A 2.5 3 0 0 0 212.5 439 z M 217.5 439 A 2.5 3 0 0 0 217 444.9375 L 217 449 L 218 449 L 218 444.93555 A 2.5 3 0 0 0 217.5 439 z M 212.5 440 A 1.5 2 0 0 1 212.5 444 A 1.5 2 0 0 1 212.5 440 z M 217.5 440 A 1.5 2 0 0 1 217.5 444 A 1.5 2 0 0 1 217.5 440 z M 10.5 441 A 2.5 3 0 0 0 10 446.9375 L 10 451 L 11 451 L 11 446.93555 A 2.5 3 0 0 0 10.5 441 z M 15.5 441 A 2.5 3 0 0 0 15 446.9375 L 15 451 L 16 451 L 16 446.93555 A 2.5 3 0 0 0 15.5 441 z M 10.5 442 A 1.5 2 0 0 1 10.5 446 A 1.5 2 0 0 1 10.5 442 z M 15.5 442 A 1.5 2 0 0 1 15.5 446 A 1.5 2 0 0 1 15.5 442 z M 165.5 442 A 2.5 3 0 0 0 165 447.9375 L 165 452 L 166 452 L 166 447.93555 A 2.5 3 0 0 0 165.5 442 z M 170.5 442 A 2.5 3 0 0 0 170 447.9375 L 170 452 L 171 452 L 171 447.93555 A 2.5 3 0 0 0 170.5 442 z M 461.5 442 A 2.5 3 0 0 0 461 447.9375 L 461 452 L 462 452 L 462 447.93555 A 2.5 3 0 0 0 461.5 442 z M 466.5 442 A 2.5 3 0 0 0 466 447.9375 L 466 452 L 467 452 L 467 447.93555 A 2.5 3 0 0 0 466.5 442 z M 165.5 443 A 1.5 2 0 0 1 165.5 447 A 1.5 2 0 0 1 165.5 443 z M 170.5 443 A 1.5 2 0 0 1 170.5 447 A 1.5 2 0 0 1 170.5 443 z M 461.5 443 A 1.5 2 0 0 1 461.5 447 A 1.5 2 0 0 1 461.5 443 z M 466.5 443 A 1.5 2 0 0 1 466.5 447 A 1.5 2 0 0 1 466.5 443 z M 398.5 451 A 2.5 3 0 0 0 398 456.9375 L 398 461 L 399 461 L 399 456.93555 A 2.5 3 0 0 0 398.5 451 z M 403.5 451 A 2.5 3 0 0 0 403 456.9375 L 403 461 L 404 461 L 404 456.93555 A 2.5 3 0 0 0 403.5 451 z M 398.5 452 A 1.5 2 0 0 1 398.5 456 A 1.5 2 0 0 1 398.5 452 z M 403.5 452 A 1.5 2 0 0 1 403.5 456 A 1.5 2 0 0 1 403.5 452 z M 274.5 453 A 2.5 3 0 0 0 274 458.9375 L 274 463 L 275 463 L 275 458.93555 A 2.5 3 0 0 0 274.5 453 z M 279.5 453 A 2.5 3 0 0 0 279 458.9375 L 279 463 L 280 463 L 280 458.93555 A 2.5 3 0 0 0 279.5 453 z M 274.5 454 A 1.5 2 0 0 1 274.5 458 A 1.5 2 0 0 1 274.5 454 z M 279.5 454 A 1.5 2 0 0 1 279.5 458 A 1.5 2 0 0 1 279.5 454 z M 338.5 454 A 2.5 3 0 0 0 338 459.9375 L 338 464 L 339 464 L 339 459.93555 A 2.5 3 0 0 0 338.5 454 z M 343.5 454 A 2.5 3 0 0 0 343 459.9375 L 343 464 L 344 464 L 344 459.93555 A 2.5 3 0 0 0 343.5 454 z M 69.5 455 A 2.5 3 0 0 0 69 460.9375 L 69 465 L 70 465 L 70 460.93555 A 2.5 3 0 0 0 69.5 455 z M 74.5 455 A 2.5 3 0 0 0 74 460.9375 L 74 465 L 75 465 L 75 460.93555 A 2.5 3 0 0 0 74.5 455 z M 338.5 455 A 1.5 2 0 0 1 338.5 459 A 1.5 2 0 0 1 338.5 455 z M 343.5 455 A 1.5 2 0 0 1 343.5 459 A 1.5 2 0 0 1 343.5 455 z M 69.5 456 A 1.5 2 0 0 1 69.5 460 A 1.5 2 0 0 1 69.5 456 z M 74.5 456 A 1.5 2 0 0 1 74.5 460 A 1.5 2 0 0 1 74.5 456 z M 367.5 456 A 2.5 3 0 0 0 367 461.9375 L 367 466 L 368 466 L 368 461.93555 A 2.5 3 0 0 0 367.5 456 z M 372.5 456 A 2.5 3 0 0 0 372 461.9375 L 372 466 L 373 466 L 373 461.93555 A 2.5 3 0 0 0 372.5 456 z M 367.5 457 A 1.5 2 0 0 1 367.5 461 A 1.5 2 0 0 1 367.5 457 z M 372.5 457 A 1.5 2 0 0 1 372.5 461 A 1.5 2 0 0 1 372.5 457 z M 121.5 458 A 2.5 3 0 0 0 121 463.9375 L 121 468 L 122 468 L 122 463.93555 A 2.5 3 0 0 0 121.5 458 z M 126.5 458 A 2.5 3 0 0 0 126 463.9375 L 126 468 L 127 468 L 127 463.93555 A 2.5 3 0 0 0 126.5 458 z M 121.5 459 A 1.5 2 0 0 1 121.5 463 A 1.5 2 0 0 1 121.5 459 z M 126.5 459 A 1.5 2 0 0 1 126.5 463 A 1.5 2 0 0 1 126.5 459 z M 190.5 459 A 2.5 3 0 0 0 190 464.9375 L 190 469 L 191 469 L 191 464.93555 A 2.5 3 0 0 0 190.5 459 z M 195.5 459 A 2.5 3 0 0 0 195 464.9375 L 195 469 L 196 469 L 196 464.93555 A 2.5 3 0 0 0 195.5 459 z M 239.5 459 A 2.5 3 0 0 0 239 464.9375 L 239 469 L 240 469 L 240 464.93555 A 2.5 3 0 0 0 239.5 459 z M 244.5 459 A 2.5 3 0 0 0 244 464.9375 L 244 469 L 245 469 L 245 464.93555 A 2.5 3 0 0 0 244.5 459 z M 190.5 460 A 1.5 2 0 0 1 190.5 464 A 1.5 2 0 0 1 190.5 460 z M 195.5 460 A 1.5 2 0 0 1 195.5 464 A 1.5 2 0 0 1 195.5 460 z M 239.5 460 A 1.5 2 0 0 1 239.5 464 A 1.5 2 0 0 1 239.5 460 z M 244.5 460 A 1.5 2 0 0 1 244.5 464 A 1.5 2 0 0 1 244.5 460 z M 48.5 461 A 2.5 3 0 0 0 48 466.9375 L 48 471 L 49 471 L 49 466.93555 A 2.5 3 0 0 0 48.5 461 z M 53.5 461 A 2.5 3 0 0 0 53 466.9375 L 53 471 L 54 471 L 54 466.93555 A 2.5 3 0 0 0 53.5 461 z M 48.5 462 A 1.5 2 0 0 1 48.5 466 A 1.5 2 0 0 1 48.5 462 z M 53.5 462 A 1.5 2 0 0 1 53.5 466 A 1.5 2 0 0 1 53.5 462 z M 303.5 464 A 2.5 3 0 0 0 303 469.9375 L 303 474 L 304 474 L 304 469.93555 A 2.5 3 0 0 0 303.5 464 z M 308.5 464 A 2.5 3 0 0 0 308 469.9375 L 308 474 L 309 474 L 309 469.93555 A 2.5 3 0 0 0 308.5 464 z M 303.5 465 A 1.5 2 0 0 1 303.5 469 A 1.5 2 0 0 1 303.5 465 z M 308.5 465 A 1.5 2 0 0 1 308.5 469 A 1.5 2 0 0 1 308.5 465 z M 437.5 465 A 2.5 3 0 0 0 437 470.9375 L 437 475 L 438 475 L 438 470.93555 A 2.5 3 0 0 0 437.5 465 z M 442.5 465 A 2.5 3 0 0 0 442 470.9375 L 442 475 L 443 475 L 443 470.93555 A 2.5 3 0 0 0 442.5 465 z M 499.5 465 A 2.5 3 0 0 0 499 470.9375 L 499 475 L 500 475 L 500 470.93555 A 2.5 3 0 0 0 499.5 465 z M 504.5 465 A 2.5 3 0 0 0 504 470.9375 L 504 475 L 505 475 L 505 470.93555 A 2.5 3 0 0 0 504.5 465 z M 437.5 466 A 1.5 2 0 0 1 437.5 470 A 1.5 2 0 0 1 437.5 466 z M 442.5 466 A 1.5 2 0 0 1 442.5 470 A 1.5 2 0 0 1 442.5 466 z M 499.5 466 A 1.5 2 0 0 1 499.5 470 A 1.5 2 0 0 1 499.5 466 z M 504.5 466 A 1.5 2 0 0 1 504.5 470 A 1.5 2 0 0 1 504.5 466 z M 152.5 468 A 2.5 3 0 0 0 152 473.9375 L 152 478 L 153 478 L 153 473.93555 A 2.5 3 0 0 0 152.5 468 z M 157.5 468 A 2.5 3 0 0 0 157 473.9375 L 157 478 L 158 478 L 158 473.93555 A 2.5 3 0 0 0 157.5 468 z M 152.5 469 A 1.5 2 0 0 1 152.5 473 A 1.5 2 0 0 1 152.5 469 z M 157.5 469 A 1.5 2 0 0 1 157.5 473 A 1.5 2 0 0 1 157.5 469 z M 93.5 470 A 2.5 3 0 0 0 93 475.9375 L 93 480 L 94 480 L 94 475.93555 A 2.5 3 0 0 0 93.5 470 z M 98.5 470 A 2.5 3 0 0 0 98 475.9375 L 98 480 L 99 480 L 99 475.93555 A 2.5 3 0 0 0 98.5 470 z M 93.5 471 A 1.5 2 0 0 1 93.5 475 A 1.5 2 0 0 1 93.5 471 z M 98.5 471 A 1.5 2 0 0 1 98.5 475 A 1.5 2 0 0 1 98.5 471 z M 471.5 471 A 2.5 3 0 0 0 471 476.9375 L 471 481 L 472 481 L 472 476.93555 A 2.5 3 0 0 0 471.5 471 z M 476.5 471 A 2.5 3 0 0 0 476 476.9375 L 476 481 L 477 481 L 477 476.93555 A 2.5 3 0 0 0 476.5 471 z M 408.5 472 A 2.5 3 0 0 0 408 477.9375 L 408 482 L 409 482 L 409 477.93555 A 2.5 3 0 0 0 408.5 472 z M 413.5 472 A 2.5 3 0 0 0 413 477.9375 L 413 482 L 414 482 L 414 477.93555 A 2.5 3 0 0 0 413.5 472 z M 471.5 472 A 1.5 2 0 0 1 471.5 476 A 1.5 2 0 0 1 471.5 472 z M 476.5 472 A 1.5 2 0 0 1 476.5 476 A 1.5 2 0 0 1 476.5 472 z M 408.5 473 A 1.5 2 0 0 1 408.5 477 A 1.5 2 0 0 1 408.5 473 z M 413.5 473 A 1.5 2 0 0 1 413.5 477 A 1.5 2 0 0 1 413.5 473 z M 27.5 474 A 2.5 3 0 0 0 27 479.9375 L 27 484 L 28 484 L 28 479.93555 A 2.5 3 0 0 0 27.5 474 z M 32.5 474 A 2.5 3 0 0 0 32 479.9375 L 32 484 L 33 484 L 33 479.93555 A 2.5 3 0 0 0 32.5 474 z M 27.5 475 A 1.5 2 0 0 1 27.5 479 A 1.5 2 0 0 1 27.5 475 z M 32.5 475 A 1.5 2 0 0 1 32.5 479 A 1.5 2 0 0 1 32.5 475 z M 215.5 475 A 2.5 3 0 0 0 215 480.9375 L 215 485 L 216 485 L 216 480.93555 A 2.5 3 0 0 0 215.5 475 z M 220.5 475 A 2.5 3 0 0 0 220 480.9375 L 220 485 L 221 485 L 221 480.93555 A 2.5 3 0 0 0 220.5 475 z M 215.5 476 A 1.5 2 0 0 1 215.5 480 A 1.5 2 0 0 1 215.5 476 z M 220.5 476 A 1.5 2 0 0 1 220.5 480 A 1.5 2 0 0 1 220.5 476 z M 257.5 483 A 2.5 3 0 0 0 257 488.9375 L 257 493 L 258 493 L 258 488.93555 A 2.5 3 0 0 0 257.5 483 z M 262.5 483 A 2.5 3 0 0 0 262 488.9375 L 262 493 L 263 493 L 263 488.93555 A 2.5 3 0 0 0 262.5 483 z M 349.5 483 A 2.5 3 0 0 0 349 488.9375 L 349 493 L 350 493 L 350 488.93555 A 2.5 3 0 0 0 349.5 483 z M 354.5 483 A 2.5 3 0 0 0 354 488.9375 L 354 493 L 355 493 L 355 488.93555 A 2.5 3 0 0 0 354.5 483 z M 180.5 484 A 2.5 3 0 0 0 180 489.9375 L 180 494 L 181 494 L 181 489.93555 A 2.5 3 0 0 0 180.5 484 z M 185.5 484 A 2.5 3 0 0 0 185 489.9375 L 185 494 L 186 494 L 186 489.93555 A 2.5 3 0 0 0 185.5 484 z M 257.5 484 A 1.5 2 0 0 1 257.5 488 A 1.5 2 0 0 1 257.5 484 z M 262.5 484 A 1.5 2 0 0 1 262.5 488 A 1.5 2 0 0 1 262.5 484 z M 349.5 484 A 1.5 2 0 0 1 349.5 488 A 1.5 2 0 0 1 349.5 484 z M 354.5 484 A 1.5 2 0 0 1 354.5 488 A 1.5 2 0 0 1 354.5 484 z M 180.5 485 A 1.5 2 0 0 1 180.5 489 A 1.5 2 0 0 1 180.5 485 z M 185.5 485 A 1.5 2 0 0 1 185.5 489 A 1.5 2 0 0 1 185.5 485 z M 285.5 486 A 2.5 3 0 0 0 285 491.9375 L 285 496 L 286 496 L 286 491.93555 A 2.5 3 0 0 0 285.5 486 z M 290.5 486 A 2.5 3 0 0 0 290 491.9375 L 290 496 L 291 496 L 291 491.93555 A 2.5 3 0 0 0 290.5 486 z M 285.5 487 A 1.5 2 0 0 1 285.5 491 A 1.5 2 0 0 1 285.5 487 z M 290.5 487 A 1.5 2 0 0 1 290.5 491 A 1.5 2 0 0 1 290.5 487 z M 12.5 489 A 2.5 3 0 0 0 12 494.9375 L 12 499 L 13 499 L 13 494.93555 A 2.5 3 0 0 0 12.5 489 z M 17.5 489 A 2.5 3 0 0 0 17 494.9375 L 17 499 L 18 499 L 18 494.93555 A 2.5 3 0 0 0 17.5 489 z M 116.5 489 A 2.5 3 0 0 0 116 494.9375 L 116 499 L 117 499 L 117 494.93555 A 2.5 3 0 0 0 116.5 489 z M 121.5 489 A 2.5 3 0 0 0 121 494.9375 L 121 499 L 122 499 L 122 494.93555 A 2.5 3 0 0 0 121.5 489 z M 379.5 489 A 2.5 3 0 0 0 379 494.9375 L 379 499 L 380 499 L 380 494.93555 A 2.5 3 0 0 0 379.5 489 z M 384.5 489 A 2.5 3 0 0 0 384 494.9375 L 384 499 L 385 499 L 385 494.93555 A 2.5 3 0 0 0 384.5 489 z M 12.5 490 A 1.5 2 0 0 1 12.5 494 A 1.5 2 0 0 1 12.5 490 z M 17.5 490 A 1.5 2 0 0 1 17.5 494 A 1.5 2 0 0 1 17.5 490 z M 116.5 490 A 1.5 2 0 0 1 116.5 494 A 1.5 2 0 0 1 116.5 490 z M 121.5 490 A 1.5 2 0 0 1 121.5 494 A 1.5 2 0 0 1 121.5 490 z M 379.5 490 A 1.5 2 0 0 1 379.5 494 A 1.5 2 0 0 1 379.5 490 z M 384.5 490 A 1.5 2 0 0 1 384.5 494 A 1.5 2 0 0 1 384.5 490 z M 320.5 493 A 2.5 3 0 0 0 320 498.9375 L 320 503 L 321 503 L 321 498.93555 A 2.5 3 0 0 0 320.5 493 z M 325.5 493 A 2.5 3 0 0 0 325 498.9375 L 325 503 L 326 503 L 326 498.93555 A 2.5 3 0 0 0 325.5 493 z M 74.5 494 A 2.5 3 0 0 0 74 499.9375 L 74 504 L 75 504 L 75 499.93555 A 2.5 3 0 0 0 74.5 494 z M 79.5 494 A 2.5 3 0 0 0 79 499.9375 L 79 504 L 80 504 L 80 499.93555 A 2.5 3 0 0 0 79.5 494 z M 320.5 494 A 1.5 2 0 0 1 320.5 498 A 1.5 2 0 0 1 320.5 494 z M 325.5 494 A 1.5 2 0 0 1 325.5 498 A 1.5 2 0 0 1 325.5 494 z M 45.5 495 A 2.5 3 0 0 0 45 500.9375 L 45 505 L 46 505 L 46 500.93555 A 2.5 3 0 0 0 45.5 495 z M 50.5 495 A 2.5 3 0 0 0 50 500.9375 L 50 505 L 51 505 L 51 500.93555 A 2.5 3 0 0 0 50.5 495 z M 74.5 495 A 1.5 2 0 0 1 74.5 499 A 1.5 2 0 0 1 74.5 495 z M 79.5 495 A 1.5 2 0 0 1 79.5 499 A 1.5 2 0 0 1 79.5 495 z M 45.5 496 A 1.5 2 0 0 1 45.5 500 A 1.5 2 0 0 1 45.5 496 z M 50.5 496 A 1.5 2 0 0 1 50.5 500 A 1.5 2 0 0 1 50.5 496 z M 234.5 496 A 2.5 3 0 0 0 234 501.9375 L 234 506 L 235 506 L 235 501.93555 A 2.5 3 0 0 0 234.5 496 z M 239.5 496 A 2.5 3 0 0 0 239 501.9375 L 239 506 L 240 506 L 240 501.93555 A 2.5 3 0 0 0 239.5 496 z M 442.5 496 A 2.5 3 0 0 0 442 501.9375 L 442 506 L 443 506 L 443 501.93555 A 2.5 3 0 0 0 442.5 496 z M 447.5 496 A 2.5 3 0 0 0 447 501.9375 L 447 506 L 448 506 L 448 501.93555 A 2.5 3 0 0 0 447.5 496 z M 234.5 497 A 1.5 2 0 0 1 234.5 501 A 1.5 2 0 0 1 234.5 497 z M 239.5 497 A 1.5 2 0 0 1 239.5 501 A 1.5 2 0 0 1 239.5 497 z M 442.5 497 A 1.5 2 0 0 1 442.5 501 A 1.5 2 0 0 1 442.5 497 z M 447.5 497 A 1.5 2 0 0 1 447.5 501 A 1.5 2 0 0 1 447.5 497 z M 490.5 497 A 2.5 3 0 0 0 490 502.9375 L 490 507 L 491 507 L 491 502.93555 A 2.5 3 0 0 0 490.5 497 z M 495.5 497 A 2.5 3 0 0 0 495 502.9375 L 495 507 L 496 507 L 496 502.93555 A 2.5 3 0 0 0 495.5 497 z M 153.5 498 A 2.5 3 0 0 0 153 503.9375 L 153 508 L 154 508 L 154 503.93555 A 2.5 3 0 0 0 153.5 498 z M 158.5 498 A 2.5 3 0 0 0 158 503.9375 L 158 508 L 159 508 L 159 503.93555 A 2.5 3 0 0 0 158.5 498 z M 414.5 498 A 2.5 3 0 0 0 414 503.9375 L 414 508 L 415 508 L 415 503.93555 A 2.5 3 0 0 0 414.5 498 z M 419.5 498 A 2.5 3 0 0 0 419 503.9375 L 419 508 L 420 508 L 420 503.93555 A 2.5 3 0 0 0 419.5 498 z M 490.5 498 A 1.5 2 0 0 1 490.5 502 A 1.5 2 0 0 1 490.5 498 z M 495.5 498 A 1.5 2 0 0 1 495.5 502 A 1.5 2 0 0 1 495.5 498 z M 153.5 499 A 1.5 2 0 0 1 153.5 503 A 1.5 2 0 0 1 153.5 499 z M 158.5 499 A 1.5 2 0 0 1 158.5 503 A 1.5 2 0 0 1 158.5 499 z M 414.5 499 A 1.5 2 0 0 1 414.5 503 A 1.5 2 0 0 1 414.5 499 z M 419.5 499 A 1.5 2 0 0 1 419.5 503 A 1.5 2 0 0 1 419.5 499 z M 129.5 510 A 2.5 3 0 0 0 127.14453 512 L 128.20312 512 A 1.5 2 0 0 1 129.5 511 A 1.5 2 0 0 1 130.79883 512 L 131.85352 512 A 2.5 3 0 0 0 129.5 510 z M 134.5 510 A 2.5 3 0 0 0 132.14453 512 L 133.20312 512 A 1.5 2 0 0 1 134.5 511 A 1.5 2 0 0 1 135.79883 512 L 136.85352 512 A 2.5 3 0 0 0 134.5 510 z M 200.5 510 A 2.5 3 0 0 0 198.14453 512 L 199.20312 512 A 1.5 2 0 0 1 200.5 511 A 1.5 2 0 0 1 201.79883 512 L 202.85352 512 A 2.5 3 0 0 0 200.5 510 z M 205.5 510 A 2.5 3 0 0 0 203.14453 512 L 204.20312 512 A 1.5 2 0 0 1 205.5 511 A 1.5 2 0 0 1 206.79883 512 L 207.85352 512 A 2.5 3 0 0 0 205.5 510 z M 5.5 511 A 2.5 3 0 0 0 3.6367188 512 L 5.5 512 L 7.359375 512 A 2.5 3 0 0 0 5.5 511 z M 10.5 511 A 2.5 3 0 0 0 8.6367188 512 L 10.5 512 L 12.359375 512 A 2.5 3 0 0 0 10.5 511 z "
     style="fill:#6b8d5e" />
  <desc
     id="desc918">Created with Snap</desc>
</svg>
