<?xml version="1.0" encoding="UTF-8" standalone="no"?>
<svg
   xmlns:dc="http://purl.org/dc/elements/1.1/"
   xmlns:cc="http://creativecommons.org/ns#"
   xmlns:rdf="http://www.w3.org/1999/02/22-rdf-syntax-ns#"
   xmlns:svg="http://www.w3.org/2000/svg"
   xmlns="http://www.w3.org/2000/svg"
   version="1.1"
   height="512"
   width="512"
   id="Svg">
  <metadata
     id="metadata925">
    <rdf:RDF>
      <cc:Work
         rdf:about="">
        <dc:format>image/svg+xml</dc:format>
        <dc:type
           rdf:resource="http://purl.org/dc/dcmitype/StillImage" />
      </cc:Work>
    </rdf:RDF>
  </metadata>
  <defs
     id="defs3" />
  <path
     id="path7316"
     d="M 4.2070312 0 C 3.4683545 0.74059938 3 1.814438 3 3 C 3 4.9757872 4.278087 6.6596855 6 6.9414062 L 6 12 L 7 12 L 7 6.9414062 C 8.721913 6.6596855 10 4.9757872 10 3 C 10 1.814438 9.5316455 0.74059938 8.7929688 0 L 6.5 0 C 7.8415982 0 9 1.2987525 9 3 C 9 4.7012475 7.8415982 6 6.5 6 C 5.1584018 6 4 4.7012475 4 3 C 4 1.2987525 5.1584018 0 6.5 0 L 4.2070312 0 z M 88 0 L 85 8 L 85 9 L 88 9 L 88 13 L 89 13 L 89 9 L 92 9 L 92 8 L 89 0 L 88 0 z M 129.25 0 L 127 6 L 127 7 L 130 7 L 130 11 L 131 11 L 131 7 L 134 7 L 134 6 L 131.75 0 L 130.85742 0 L 133 6 L 128 6 L 130.14258 0 L 129.25 0 z M 200.25 0 L 198 6 L 198 7 L 201 7 L 201 11 L 202 11 L 202 7 L 205 7 L 205 6 L 202.75 0 L 201.85742 0 L 204 6 L 199 6 L 201.14258 0 L 200.25 0 z M 88.5 1 L 91 8 L 86 8 L 88.5 1 z M 465.5 1 C 463.5279 1 462 2.8354804 462 5 C 462 6.9757872 463.27809 8.6596856 465 8.9414062 L 465 14 L 466 14 L 466 8.9414062 C 467.72191 8.6596856 469 6.9757872 469 5 C 469 2.8354804 467.4721 1 465.5 1 z M 465.5 2 C 466.8416 2 468 3.2987525 468 5 C 468 6.7012475 466.8416 8 465.5 8 C 464.1584 8 463 6.7012475 463 5 C 463 3.2987525 464.1584 2 465.5 2 z M 343.5 3 C 341.5279 3 340 4.8354804 340 7 C 340 8.9757872 341.27809 10.659686 343 10.941406 L 343 16 L 344 16 L 344 10.941406 C 345.72191 10.659686 347 8.9757872 347 7 C 347 4.8354804 345.4721 3 343.5 3 z M 265 4 L 262 12 L 262 13 L 265 13 L 265 17 L 266 17 L 266 13 L 269 13 L 269 12 L 266 4 L 265 4 z M 295.5 4 C 293.5279 4 292 5.8354804 292 8 C 292 9.9757872 293.27809 11.659686 295 11.941406 L 295 17 L 296 17 L 296 11.941406 C 297.72191 11.659686 299 9.9757872 299 8 C 299 5.8354804 297.4721 4 295.5 4 z M 343.5 4 C 344.8416 4 346 5.2987525 346 7 C 346 8.7012475 344.8416 10 343.5 10 C 342.1584 10 341 8.7012475 341 7 C 341 5.2987525 342.1584 4 343.5 4 z M 265.5 5 L 268 12 L 263 12 L 265.5 5 z M 295.5 5 C 296.8416 5 298 6.2987525 298 8 C 298 9.7012475 296.8416 11 295.5 11 C 294.1584 11 293 9.7012475 293 8 C 293 6.2987525 294.1584 5 295.5 5 z M 403.5 7 C 401.5279 7 400 8.8354804 400 11 C 400 12.975787 401.27809 14.659686 403 14.941406 L 403 20 L 404 20 L 404 14.941406 C 405.72191 14.659686 407 12.975787 407 11 C 407 8.8354804 405.4721 7 403.5 7 z M 375 8 L 372 16 L 372 17 L 375 17 L 375 21 L 376 21 L 376 17 L 379 17 L 379 16 L 376 8 L 375 8 z M 403.5 8 C 404.8416 8 406 9.2987525 406 11 C 406 12.701248 404.8416 14 403.5 14 C 402.1584 14 401 12.701248 401 11 C 401 9.2987525 402.1584 8 403.5 8 z M 173.5 9 C 171.5279 9 170 10.83548 170 13 C 170 14.975787 171.27809 16.659686 173 16.941406 L 173 22 L 174 22 L 174 16.941406 C 175.72191 16.659686 177 14.975787 177 13 C 177 10.83548 175.47209 9 173.5 9 z M 375.5 9 L 378 16 L 373 16 L 375.5 9 z M 173.5 10 C 174.8416 10 176 11.298752 176 13 C 176 14.701248 174.8416 16 173.5 16 C 172.1584 16 171 14.701248 171 13 C 171 11.298752 172.1584 10 173.5 10 z M 233.5 10 C 231.5279 10 230 11.83548 230 14 C 230 15.975787 231.27809 17.659686 233 17.941406 L 233 23 L 234 23 L 234 17.941406 C 235.72191 17.659686 237 15.975787 237 14 C 237 11.83548 235.47209 10 233.5 10 z M 233.5 11 C 234.8416 11 236 12.298752 236 14 C 236 15.701248 234.8416 17 233.5 17 C 232.1584 17 231 15.701248 231 14 C 231 12.298752 232.1584 11 233.5 11 z M 35.5 16 C 33.527905 16 32 17.83548 32 20 C 32 21.975787 33.278087 23.659686 35 23.941406 L 35 29 L 36 29 L 36 23.941406 C 37.721913 23.659686 39 21.975787 39 20 C 39 17.83548 37.472095 16 35.5 16 z M 35.5 17 C 36.841598 17 38 18.298752 38 20 C 38 21.701247 36.841598 23 35.5 23 C 34.158402 23 33 21.701247 33 20 C 33 18.298752 34.158402 17 35.5 17 z M 68 17 L 65 25 L 65 26 L 68 26 L 68 30 L 69 30 L 69 26 L 72 26 L 72 25 L 69 17 L 68 17 z M 438.5 17 C 436.5279 17 435 18.83548 435 21 C 435 22.975787 436.27809 24.659686 438 24.941406 L 438 30 L 439 30 L 439 24.941406 C 440.72191 24.659686 442 22.975787 442 21 C 442 18.83548 440.4721 17 438.5 17 z M 497 17 L 494 25 L 494 26 L 497 26 L 497 30 L 498 30 L 498 26 L 501 26 L 501 25 L 498 17 L 497 17 z M 68.5 18 L 71 25 L 66 25 L 68.5 18 z M 438.5 18 C 439.8416 18 441 19.298752 441 21 C 441 22.701247 439.8416 24 438.5 24 C 437.1584 24 436 22.701247 436 21 C 436 19.298752 437.1584 18 438.5 18 z M 497.5 18 L 500 25 L 495 25 L 497.5 18 z M 317 23 L 314 31 L 314 32 L 317 32 L 317 36 L 318 36 L 318 32 L 321 32 L 321 31 L 318 23 L 317 23 z M 317.5 24 L 320 31 L 315 31 L 317.5 24 z M 205.5 26 C 203.5279 26 202 27.83548 202 30 C 202 31.975787 203.27809 33.659686 205 33.941406 L 205 39 L 206 39 L 206 33.941406 C 207.72191 33.659686 209 31.975787 209 30 C 209 27.83548 207.47209 26 205.5 26 z M 205.5 27 C 206.8416 27 208 28.298752 208 30 C 208 31.701247 206.8416 33 205.5 33 C 204.1584 33 203 31.701247 203 30 C 203 28.298752 204.1584 27 205.5 27 z M 143.5 31 C 141.5279 31 140 32.83548 140 35 C 140 36.975787 141.27809 38.659686 143 38.941406 L 143 44 L 144 44 L 144 38.941406 C 145.72191 38.659686 147 36.975787 147 35 C 147 32.83548 145.47209 31 143.5 31 z M 114 32 L 111 40 L 111 41 L 114 41 L 114 45 L 115 45 L 115 41 L 118 41 L 118 40 L 115 32 L 114 32 z M 143.5 32 C 144.8416 32 146 33.298752 146 35 C 146 36.701247 144.8416 38 143.5 38 C 142.1584 38 141 36.701247 141 35 C 141 33.298752 142.1584 32 143.5 32 z M 87 33 L 84 41 L 84 42 L 87 42 L 87 46 L 88 46 L 88 42 L 91 42 L 91 41 L 88 33 L 87 33 z M 114.5 33 L 117 40 L 112 40 L 114.5 33 z M 87.5 34 L 90 41 L 85 41 L 87.5 34 z M 349 34 L 346 42 L 346 43 L 349 43 L 349 47 L 350 47 L 350 43 L 353 43 L 353 42 L 350 34 L 349 34 z M 258 35 L 255 43 L 255 44 L 258 44 L 258 48 L 259 48 L 259 44 L 262 44 L 262 43 L 259 35 L 258 35 z M 287 35 L 284 43 L 284 44 L 287 44 L 287 48 L 288 48 L 288 44 L 291 44 L 291 43 L 288 35 L 287 35 z M 349.5 35 L 352 42 L 347 42 L 349.5 35 z M 258.5 36 L 261 43 L 256 43 L 258.5 36 z M 287.5 36 L 290 43 L 285 43 L 287.5 36 z M 463.5 36 C 461.5279 36 460 37.83548 460 40 C 460 41.975787 461.27809 43.659686 463 43.941406 L 463 49 L 464 49 L 464 43.941406 C 465.72191 43.659686 467 41.975787 467 40 C 467 37.83548 465.4721 36 463.5 36 z M 463.5 37 C 464.8416 37 466 38.298752 466 40 C 466 41.701247 464.8416 43 463.5 43 C 462.1584 43 461 41.701247 461 40 C 461 38.298752 462.1584 37 463.5 37 z M 12.5 38 C 10.527905 38 9 39.83548 9 42 C 9 43.975787 10.278087 45.659686 12 45.941406 L 12 51 L 13 51 L 13 45.941406 C 14.721913 45.659686 16 43.975787 16 42 C 16 39.83548 14.472095 38 12.5 38 z M 378.5 38 C 376.5279 38 375 39.83548 375 42 C 375 43.975787 376.27809 45.659686 378 45.941406 L 378 51 L 379 51 L 379 45.941406 C 380.72191 45.659686 382 43.975787 382 42 C 382 39.83548 380.4721 38 378.5 38 z M 408 38 L 405 46 L 405 47 L 408 47 L 408 51 L 409 51 L 409 47 L 412 47 L 412 46 L 409 38 L 408 38 z M 12.5 39 C 13.841598 39 15 40.298752 15 42 C 15 43.701247 13.841598 45 12.5 45 C 11.158402 45 10 43.701247 10 42 C 10 40.298752 11.158402 39 12.5 39 z M 176.5 39 C 174.5279 39 173 40.83548 173 43 C 173 44.975787 174.27809 46.659686 176 46.941406 L 176 52 L 177 52 L 177 46.941406 C 178.72191 46.659686 180 44.975787 180 43 C 180 40.83548 178.47209 39 176.5 39 z M 378.5 39 C 379.8416 39 381 40.298752 381 42 C 381 43.701247 379.8416 45 378.5 45 C 377.1584 45 376 43.701247 376 42 C 376 40.298752 377.1584 39 378.5 39 z M 408.5 39 L 411 46 L 406 46 L 408.5 39 z M 176.5 40 C 177.8416 40 179 41.298752 179 43 C 179 44.701247 177.8416 46 176.5 46 C 175.1584 46 174 44.701247 174 43 C 174 41.298752 175.1584 40 176.5 40 z M 51 41 L 48 49 L 48 50 L 51 50 L 51 54 L 52 54 L 52 50 L 55 50 L 55 49 L 52 41 L 51 41 z M 51.5 42 L 54 49 L 49 49 L 51.5 42 z M 231 46 L 228 54 L 228 55 L 231 55 L 231 59 L 232 59 L 232 55 L 235 55 L 235 54 L 232 46 L 231 46 z M 231.5 47 L 234 54 L 229 54 L 231.5 47 z M 435 47 L 432 55 L 432 56 L 435 56 L 435 60 L 436 60 L 436 56 L 439 56 L 439 55 L 436 47 L 435 47 z M 435.5 48 L 438 55 L 433 55 L 435.5 48 z M 496 49 L 493 57 L 493 58 L 496 58 L 496 62 L 497 62 L 497 58 L 500 58 L 500 57 L 497 49 L 496 49 z M 496.5 50 L 499 57 L 494 57 L 496.5 50 z M 317.5 54 C 315.5279 54 314 55.83548 314 58 C 314 59.975787 315.27809 61.659686 317 61.941406 L 317 67 L 318 67 L 318 61.941406 C 319.72191 61.659686 321 59.975787 321 58 C 321 55.83548 319.4721 54 317.5 54 z M 317.5 55 C 318.8416 55 320 56.298752 320 58 C 320 59.701247 318.8416 61 317.5 61 C 316.1584 61 315 59.701247 315 58 C 315 56.298752 316.1584 55 317.5 55 z M 34.5 59 C 32.527905 59 31 60.83548 31 63 C 31 64.975787 32.278087 66.659685 34 66.941406 L 34 72 L 35 72 L 35 66.941406 C 36.721913 66.659685 38 64.975787 38 63 C 38 60.83548 36.472095 59 34.5 59 z M 113 59 L 110 67 L 110 68 L 113 68 L 113 72 L 114 72 L 114 68 L 117 68 L 117 67 L 114 59 L 113 59 z M 34.5 60 C 35.841598 60 37 61.298752 37 63 C 37 64.701247 35.841598 66 34.5 66 C 33.158402 66 32 64.701247 32 63 C 32 61.298752 33.158402 60 34.5 60 z M 113.5 60 L 116 67 L 111 67 L 113.5 60 z M 142.5 62 C 140.5279 62 139 63.83548 139 66 C 139 67.975787 140.27809 69.659685 142 69.941406 L 142 75 L 143 75 L 143 69.941406 C 144.72191 69.659685 146 67.975787 146 66 C 146 63.83548 144.47209 62 142.5 62 z M 200.5 62 C 198.5279 62 197 63.83548 197 66 C 197 67.975787 198.27809 69.659685 200 69.941406 L 200 75 L 201 75 L 201 69.941406 C 202.72191 69.659685 204 67.975787 204 66 C 204 63.83548 202.47209 62 200.5 62 z M 142.5 63 C 143.8416 63 145 64.298753 145 66 C 145 67.701247 143.8416 69 142.5 69 C 141.1584 69 140 67.701247 140 66 C 140 64.298753 141.1584 63 142.5 63 z M 200.5 63 C 201.8416 63 203 64.298753 203 66 C 203 67.701247 201.8416 69 200.5 69 C 199.1584 69 198 67.701247 198 66 C 198 64.298753 199.1584 63 200.5 63 z M 78 64 L 75 72 L 75 73 L 78 73 L 78 77 L 79 77 L 79 73 L 82 73 L 82 72 L 79 64 L 78 64 z M 78.5 65 L 81 72 L 76 72 L 78.5 65 z M 377 65 L 374 73 L 374 74 L 377 74 L 377 78 L 378 78 L 378 74 L 381 74 L 381 73 L 378 65 L 377 65 z M 466 65 L 463 73 L 463 74 L 466 74 L 466 78 L 467 78 L 467 74 L 470 74 L 470 73 L 467 65 L 466 65 z M 264 66 L 261 74 L 261 75 L 264 75 L 264 79 L 265 79 L 265 75 L 268 75 L 268 74 L 265 66 L 264 66 z M 343 66 L 340 74 L 340 75 L 343 75 L 343 79 L 344 79 L 344 75 L 347 75 L 347 74 L 344 66 L 343 66 z M 377.5 66 L 380 73 L 375 73 L 377.5 66 z M 466.5 66 L 469 73 L 464 73 L 466.5 66 z M 264.5 67 L 267 74 L 262 74 L 264.5 67 z M 343.5 67 L 346 74 L 341 74 L 343.5 67 z M 171 68 L 168 76 L 168 77 L 171 77 L 171 81 L 172 81 L 172 77 L 175 77 L 175 76 L 172 68 L 171 68 z M 295.5 68 C 293.5279 68 292 69.83548 292 72 C 292 73.975787 293.27809 75.659685 295 75.941406 L 295 81 L 296 81 L 296 75.941406 C 297.72191 75.659685 299 73.975787 299 72 C 299 69.83548 297.4721 68 295.5 68 z M 171.5 69 L 174 76 L 169 76 L 171.5 69 z M 295.5 69 C 296.8416 69 298 70.298753 298 72 C 298 73.701247 296.8416 75 295.5 75 C 294.1584 75 293 73.701247 293 72 C 293 70.298753 294.1584 69 295.5 69 z M 405 71 L 402 79 L 402 80 L 405 80 L 405 84 L 406 84 L 406 80 L 409 80 L 409 79 L 406 71 L 405 71 z M 4.5 72 C 2.527905 72 1 73.83548 1 76 C 1 77.975787 2.278087 79.659685 4 79.941406 L 4 85 L 5 85 L 5 79.941406 C 6.721913 79.659685 8 77.975787 8 76 C 8 73.83548 6.472095 72 4.5 72 z M 405.5 72 L 408 79 L 403 79 L 405.5 72 z M 4.5 73 C 5.8415982 73 7 74.298753 7 76 C 7 77.701247 5.8415982 79 4.5 79 C 3.1584018 79 2 77.701247 2 76 C 2 74.298753 3.1584018 73 4.5 73 z M 231 74 L 228 82 L 228 83 L 231 83 L 231 87 L 232 87 L 232 83 L 235 83 L 235 82 L 232 74 L 231 74 z M 231.5 75 L 234 82 L 229 82 L 231.5 75 z M 439 78 L 436 86 L 436 87 L 439 87 L 439 91 L 440 91 L 440 87 L 443 87 L 443 86 L 440 78 L 439 78 z M 439.5 79 L 442 86 L 437 86 L 439.5 79 z M 54 83 L 51 91 L 51 92 L 54 92 L 54 96 L 55 96 L 55 92 L 58 92 L 58 91 L 55 83 L 54 83 z M 54.5 84 L 57 91 L 52 91 L 54.5 84 z M 488 85 L 485 93 L 485 94 L 488 94 L 488 98 L 489 98 L 489 94 L 492 94 L 492 93 L 489 85 L 488 85 z M 488.5 86 L 491 93 L 486 93 L 488.5 86 z M 202.5 90 C 200.5279 90 199 91.83548 199 94 C 199 95.975787 200.27809 97.659685 202 97.941406 L 202 103 L 203 103 L 203 97.941406 C 204.72191 97.659685 206 95.975787 206 94 C 206 91.83548 204.47209 90 202.5 90 z M 89.5 91 C 87.527905 91 86 92.83548 86 95 C 86 96.975787 87.278087 98.659685 89 98.941406 L 89 104 L 90 104 L 90 98.941406 C 91.721913 98.659685 93 96.975787 93 95 C 93 92.83548 91.472095 91 89.5 91 z M 202.5 91 C 203.8416 91 205 92.298753 205 94 C 205 95.701247 203.8416 97 202.5 97 C 201.1584 97 200 95.701247 200 94 C 200 92.298753 201.1584 91 202.5 91 z M 319 91 L 316 99 L 316 100 L 319 100 L 319 104 L 320 104 L 320 100 L 323 100 L 323 99 L 320 91 L 319 91 z M 89.5 92 C 90.841598 92 92 93.298753 92 95 C 92 96.701247 90.841598 98 89.5 98 C 88.158402 98 87 96.701247 87 95 C 87 93.298753 88.158402 92 89.5 92 z M 118 92 L 115 100 L 115 101 L 118 101 L 118 105 L 119 105 L 119 101 L 122 101 L 122 100 L 119 92 L 118 92 z M 319.5 92 L 322 99 L 317 99 L 319.5 92 z M 118.5 93 L 121 100 L 116 100 L 118.5 93 z M 364 94 L 361 102 L 361 103 L 364 103 L 364 107 L 365 107 L 365 103 L 368 103 L 368 102 L 365 94 L 364 94 z M 145.5 95 C 143.5279 95 142 96.83548 142 99 C 142 100.97579 143.27809 102.65969 145 102.94141 L 145 108 L 146 108 L 146 102.94141 C 147.72191 102.65969 149 100.97579 149 99 C 149 96.83548 147.47209 95 145.5 95 z M 364.5 95 L 367 102 L 362 102 L 364.5 95 z M 145.5 96 C 146.8416 96 148 97.298753 148 99 C 148 100.70125 146.8416 102 145.5 102 C 144.1584 102 143 100.70125 143 99 C 143 97.298753 144.1584 96 145.5 96 z M 279.5 96 C 277.5279 96 276 97.83548 276 100 C 276 101.97579 277.27809 103.65969 279 103.94141 L 279 109 L 280 109 L 280 103.94141 C 281.72191 103.65969 283 101.97579 283 100 C 283 97.83548 281.4721 96 279.5 96 z M 279.5 97 C 280.8416 97 282 98.298753 282 100 C 282 101.70125 280.8416 103 279.5 103 C 278.1584 103 277 101.70125 277 100 C 277 98.298753 278.1584 97 279.5 97 z M 24 99 L 21 107 L 21 108 L 24 108 L 24 112 L 25 112 L 25 108 L 28 108 L 28 107 L 25 99 L 24 99 z M 251.5 99 C 249.5279 99 248 100.83548 248 103 C 248 104.97579 249.27809 106.65969 251 106.94141 L 251 112 L 252 112 L 252 106.94141 C 253.72191 106.65969 255 104.97579 255 103 C 255 100.83548 253.47209 99 251.5 99 z M 24.5 100 L 27 107 L 22 107 L 24.5 100 z M 251.5 100 C 252.8416 100 254 101.29875 254 103 C 254 104.70125 252.8416 106 251.5 106 C 250.1584 106 249 104.70125 249 103 C 249 101.29875 250.1584 100 251.5 100 z M 397.5 101 C 395.5279 101 394 102.83548 394 105 C 394 106.97579 395.27809 108.65969 397 108.94141 L 397 114 L 398 114 L 398 108.94141 C 399.72191 108.65969 401 106.97579 401 105 C 401 102.83548 399.4721 101 397.5 101 z M 397.5 102 C 398.8416 102 400 103.29875 400 105 C 400 106.70125 398.8416 108 397.5 108 C 396.1584 108 395 106.70125 395 105 C 395 103.29875 396.1584 102 397.5 102 z M 461 102 L 458 110 L 458 111 L 461 111 L 461 115 L 462 115 L 462 111 L 465 111 L 465 110 L 462 102 L 461 102 z M 172 103 L 169 111 L 169 112 L 172 112 L 172 116 L 173 116 L 173 112 L 176 112 L 176 111 L 173 103 L 172 103 z M 461.5 103 L 464 110 L 459 110 L 461.5 103 z M 172.5 104 L 175 111 L 170 111 L 172.5 104 z M 427 105 L 424 113 L 424 114 L 427 114 L 427 118 L 428 118 L 428 114 L 431 114 L 431 113 L 428 105 L 427 105 z M 427.5 106 L 430 113 L 425 113 L 427.5 106 z M 74 108 L 71 116 L 71 117 L 74 117 L 74 121 L 75 121 L 75 117 L 78 117 L 78 116 L 75 108 L 74 108 z M 74.5 109 L 77 116 L 72 116 L 74.5 109 z M 220.5 109 C 218.5279 109 217 110.83548 217 113 C 217 114.97579 218.27809 116.65969 220 116.94141 L 220 122 L 221 122 L 221 116.94141 C 222.72191 116.65969 224 114.97579 224 113 C 224 110.83548 222.47209 109 220.5 109 z M 220.5 110 C 221.8416 110 223 111.29875 223 113 C 223 114.70125 221.8416 116 220.5 116 C 219.1584 116 218 114.70125 218 113 C 218 111.29875 219.1584 110 220.5 110 z M 510.5 110 C 508.5279 110 507 111.83548 507 114 C 507 115.97579 508.27809 117.65969 510 117.94141 L 510 123 L 511 123 L 511 117.94141 C 511.35707 117.88299 511.68854 117.75114 512 117.58203 L 512 116.38477 C 511.5761 116.76788 511.05662 117 510.5 117 C 509.1584 117 508 115.70125 508 114 C 508 112.29875 509.1584 111 510.5 111 C 511.05662 111 511.5761 111.23212 512 111.61523 L 512 110.39648 C 511.5469 110.14952 511.04312 110 510.5 110 z M 0 110.39648 L 0 111.61523 C 0.5978115 112.15553 1 113.00459 1 114 C 1 114.99541 0.5978115 115.84447 0 116.38477 L 0 117.58203 C 1.1905102 116.93563 2 115.56608 2 114 C 2 112.4316 1.1921294 111.04626 0 110.39648 z M 340.5 114 C 338.5279 114 337 115.83548 337 118 C 337 119.97579 338.27809 121.65969 340 121.94141 L 340 127 L 341 127 L 341 121.94141 C 342.72191 121.65969 344 119.97579 344 118 C 344 115.83548 342.4721 114 340.5 114 z M 340.5 115 C 341.8416 115 343 116.29875 343 118 C 343 119.70125 341.8416 121 340.5 121 C 339.1584 121 338 119.70125 338 118 C 338 116.29875 339.1584 115 340.5 115 z M 305.5 117 C 303.5279 117 302 118.83548 302 121 C 302 122.97579 303.27809 124.65969 305 124.94141 L 305 130 L 306 130 L 306 124.94141 C 307.72191 124.65969 309 122.97579 309 121 C 309 118.83548 307.4721 117 305.5 117 z M 305.5 118 C 306.8416 118 308 119.29875 308 121 C 308 122.70125 306.8416 124 305.5 124 C 304.1584 124 303 122.70125 303 121 C 303 119.29875 304.1584 118 305.5 118 z M 47 120 L 44 128 L 44 129 L 47 129 L 47 133 L 48 133 L 48 129 L 51 129 L 51 128 L 48 120 L 47 120 z M 47.5 121 L 50 128 L 45 128 L 47.5 121 z M 111.5 123 C 109.52791 123 108 124.83548 108 127 C 108 128.97579 109.27809 130.65969 111 130.94141 L 111 136 L 112 136 L 112 130.94141 C 113.72191 130.65969 115 128.97579 115 127 C 115 124.83548 113.47209 123 111.5 123 z M 111.5 124 C 112.8416 124 114 125.29875 114 127 C 114 128.70125 112.8416 130 111.5 130 C 110.1584 130 109 128.70125 109 127 C 109 125.29875 110.1584 124 111.5 124 z M 368.5 124 C 366.5279 124 365 125.83548 365 128 C 365 129.97579 366.27809 131.65969 368 131.94141 L 368 137 L 369 137 L 369 131.94141 C 370.72191 131.65969 372 129.97579 372 128 C 372 125.83548 370.4721 124 368.5 124 z M 142 125 L 139 133 L 139 134 L 142 134 L 142 138 L 143 138 L 143 134 L 146 134 L 146 133 L 143 125 L 142 125 z M 368.5 125 C 369.8416 125 371 126.29875 371 128 C 371 129.70125 369.8416 131 368.5 131 C 367.1584 131 366 129.70125 366 128 C 366 126.29875 367.1584 125 368.5 125 z M 481.5 125 C 479.5279 125 478 126.83548 478 129 C 478 130.97579 479.27809 132.65969 481 132.94141 L 481 138 L 482 138 L 482 132.94141 C 483.72191 132.65969 485 130.97579 485 129 C 485 126.83548 483.4721 125 481.5 125 z M 142.5 126 L 145 133 L 140 133 L 142.5 126 z M 193.5 126 C 191.5279 126 190 127.83548 190 130 C 190 131.97579 191.27809 133.65969 193 133.94141 L 193 139 L 194 139 L 194 133.94141 C 195.72191 133.65969 197 131.97579 197 130 C 197 127.83548 195.47209 126 193.5 126 z M 481.5 126 C 482.8416 126 484 127.29875 484 129 C 484 130.70125 482.8416 132 481.5 132 C 480.1584 132 479 130.70125 479 129 C 479 127.29875 480.1584 126 481.5 126 z M 193.5 127 C 194.8416 127 196 128.29875 196 130 C 196 131.70125 194.8416 133 193.5 133 C 192.1584 133 191 131.70125 191 130 C 191 128.29875 192.1584 127 193.5 127 z M 252.5 129 C 250.5279 129 249 130.83548 249 133 C 249 134.97579 250.27809 136.65969 252 136.94141 L 252 142 L 253 142 L 253 136.94141 C 254.72191 136.65969 256 134.97579 256 133 C 256 130.83548 254.47209 129 252.5 129 z M 252.5 130 C 253.8416 130 255 131.29875 255 133 C 255 134.70125 253.8416 136 252.5 136 C 251.1584 136 250 134.70125 250 133 C 250 131.29875 251.1584 130 252.5 130 z M 280.5 130 C 278.5279 130 277 131.83548 277 134 C 277 135.97579 278.27809 137.65969 280 137.94141 L 280 143 L 281 143 L 281 137.94141 C 282.72191 137.65969 284 135.97579 284 134 C 284 131.83548 282.4721 130 280.5 130 z M 432 130 L 429 138 L 429 139 L 432 139 L 432 143 L 433 143 L 433 139 L 436 139 L 436 138 L 433 130 L 432 130 z M 280.5 131 C 281.8416 131 283 132.29875 283 134 C 283 135.70125 281.8416 137 280.5 137 C 279.1584 137 278 135.70125 278 134 C 278 132.29875 279.1584 131 280.5 131 z M 402.5 131 C 400.5279 131 399 132.83548 399 135 C 399 136.97579 400.27809 138.65969 402 138.94141 L 402 144 L 403 144 L 403 138.94141 C 404.72191 138.65969 406 136.97579 406 135 C 406 132.83548 404.4721 131 402.5 131 z M 432.5 131 L 435 138 L 430 138 L 432.5 131 z M 402.5 132 C 403.8416 132 405 133.29875 405 135 C 405 136.70125 403.8416 138 402.5 138 C 401.1584 138 400 136.70125 400 135 C 400 133.29875 401.1584 132 402.5 132 z M 16 135 L 13 143 L 13 144 L 16 144 L 16 148 L 17 148 L 17 144 L 20 144 L 20 143 L 17 135 L 16 135 z M 16.5 136 L 19 143 L 14 143 L 16.5 136 z M 163 137 L 160 145 L 160 146 L 163 146 L 163 150 L 164 150 L 164 146 L 167 146 L 167 145 L 164 137 L 163 137 z M 220.5 137 C 218.5279 137 217 138.83548 217 141 C 217 142.97579 218.27809 144.65969 220 144.94141 L 220 150 L 221 150 L 221 144.94141 C 222.72191 144.65969 224 142.97579 224 141 C 224 138.83548 222.47209 137 220.5 137 z M 163.5 138 L 166 145 L 161 145 L 163.5 138 z M 220.5 138 C 221.8416 138 223 139.29875 223 141 C 223 142.70125 221.8416 144 220.5 144 C 219.1584 144 218 142.70125 218 141 C 218 139.29875 219.1584 138 220.5 138 z M 453 139 L 450 147 L 450 148 L 453 148 L 453 152 L 454 152 L 454 148 L 457 148 L 457 147 L 454 139 L 453 139 z M 453.5 140 L 456 147 L 451 147 L 453.5 140 z M 80 141 L 77 149 L 77 150 L 80 150 L 80 154 L 81 154 L 81 150 L 84 150 L 84 149 L 81 141 L 80 141 z M 322 141 L 319 149 L 319 150 L 322 150 L 322 154 L 323 154 L 323 150 L 326 150 L 326 149 L 323 141 L 322 141 z M 80.5 142 L 83 149 L 78 149 L 80.5 142 z M 322.5 142 L 325 149 L 320 149 L 322.5 142 z M 500 146 L 497 154 L 497 155 L 500 155 L 500 159 L 501 159 L 501 155 L 504 155 L 504 154 L 501 146 L 500 146 z M 52.5 147 C 50.527905 147 49 148.83548 49 151 C 49 152.97579 50.278087 154.65969 52 154.94141 L 52 160 L 53 160 L 53 154.94141 C 54.721913 154.65969 56 152.97579 56 151 C 56 148.83548 54.472095 147 52.5 147 z M 349.5 147 C 347.5279 147 346 148.83548 346 151 C 346 152.97579 347.27809 154.65969 349 154.94141 L 349 160 L 350 160 L 350 154.94141 C 351.72191 154.65969 353 152.97579 353 151 C 353 148.83548 351.4721 147 349.5 147 z M 500.5 147 L 503 154 L 498 154 L 500.5 147 z M 52.5 148 C 53.841598 148 55 149.29875 55 151 C 55 152.70125 53.841598 154 52.5 154 C 51.158402 154 50 152.70125 50 151 C 50 149.29875 51.158402 148 52.5 148 z M 349.5 148 C 350.8416 148 352 149.29875 352 151 C 352 152.70125 350.8416 154 349.5 154 C 348.1584 154 347 152.70125 347 151 C 347 149.29875 348.1584 148 349.5 148 z M 102 154 L 99 162 L 99 163 L 102 163 L 102 167 L 103 167 L 103 163 L 106 163 L 106 162 L 103 154 L 102 154 z M 384.5 154 C 382.5279 154 381 155.83548 381 158 C 381 159.97579 382.27809 161.65969 384 161.94141 L 384 167 L 385 167 L 385 161.94141 C 386.72191 161.65969 388 159.97579 388 158 C 388 155.83548 386.4721 154 384.5 154 z M 102.5 155 L 105 162 L 100 162 L 102.5 155 z M 134.5 155 C 132.5279 155 131 156.83548 131 159 C 131 160.97579 132.27809 162.65969 134 162.94141 L 134 168 L 135 168 L 135 162.94141 C 136.72191 162.65969 138 160.97579 138 159 C 138 156.83548 136.47209 155 134.5 155 z M 384.5 155 C 385.8416 155 387 156.29875 387 158 C 387 159.70125 385.8416 161 384.5 161 C 383.1584 161 382 159.70125 382 158 C 382 156.29875 383.1584 155 384.5 155 z M 134.5 156 C 135.8416 156 137 157.29875 137 159 C 137 160.70125 135.8416 162 134.5 162 C 133.1584 162 132 160.70125 132 159 C 132 157.29875 133.1584 156 134.5 156 z M 260 156 L 257 164 L 257 165 L 260 165 L 260 169 L 261 169 L 261 165 L 264 165 L 264 164 L 261 156 L 260 156 z M 260.5 157 L 263 164 L 258 164 L 260.5 157 z M 196 160 L 193 168 L 193 169 L 196 169 L 196 173 L 197 173 L 197 169 L 200 169 L 200 168 L 197 160 L 196 160 z M 295 160 L 292 168 L 292 169 L 295 169 L 295 173 L 296 173 L 296 169 L 299 169 L 299 168 L 296 160 L 295 160 z M 469 160 L 466 168 L 466 169 L 469 169 L 469 173 L 470 173 L 470 169 L 473 169 L 473 168 L 470 160 L 469 160 z M 196.5 161 L 199 168 L 194 168 L 196.5 161 z M 295.5 161 L 298 168 L 293 168 L 295.5 161 z M 469.5 161 L 472 168 L 467 168 L 469.5 161 z M 20 163 L 17 171 L 17 172 L 20 172 L 20 176 L 21 176 L 21 172 L 24 172 L 24 171 L 21 163 L 20 163 z M 411 163 L 408 171 L 408 172 L 411 172 L 411 176 L 412 176 L 412 172 L 415 172 L 415 171 L 412 163 L 411 163 z M 20.5 164 L 23 171 L 18 171 L 20.5 164 z M 411.5 164 L 414 171 L 409 171 L 411.5 164 z M 163 167 L 160 175 L 160 176 L 163 176 L 163 180 L 164 180 L 164 176 L 167 176 L 167 175 L 164 167 L 163 167 z M 163.5 168 L 166 175 L 161 175 L 163.5 168 z M 230.5 170 C 228.5279 170 227 171.83548 227 174 C 227 175.97579 228.27809 177.65969 230 177.94141 L 230 183 L 231 183 L 231 177.94141 C 232.72191 177.65969 234 175.97579 234 174 C 234 171.83548 232.47209 170 230.5 170 z M 230.5 171 C 231.8416 171 233 172.29875 233 174 C 233 175.70125 231.8416 177 230.5 177 C 229.1584 177 228 175.70125 228 174 C 228 172.29875 229.1584 171 230.5 171 z M 72.5 172 C 70.527905 172 69 173.83548 69 176 C 69 177.97579 70.278087 179.65969 72 179.94141 L 72 185 L 73 185 L 73 179.94141 C 74.721913 179.65969 76 177.97579 76 176 C 76 173.83548 74.472095 172 72.5 172 z M 72.5 173 C 73.841598 173 75 174.29875 75 176 C 75 177.70125 73.841598 179 72.5 179 C 71.158402 179 70 177.70125 70 176 C 70 174.29875 71.158402 173 72.5 173 z M 506.5 174 C 504.5279 174 503 175.83548 503 178 C 503 179.97579 504.27809 181.65969 506 181.94141 L 506 187 L 507 187 L 507 181.94141 C 508.72191 181.65969 510 179.97579 510 178 C 510 175.83548 508.4721 174 506.5 174 z M 506.5 175 C 507.8416 175 509 176.29875 509 178 C 509 179.70125 507.8416 181 506.5 181 C 505.1584 181 504 179.70125 504 178 C 504 176.29875 505.1584 175 506.5 175 z M 357.5 176 C 355.5279 176 354 177.83548 354 180 C 354 181.97579 355.27809 183.65969 357 183.94141 L 357 189 L 358 189 L 358 183.94141 C 359.72191 183.65969 361 181.97579 361 180 C 361 177.83548 359.4721 176 357.5 176 z M 324.5 177 C 322.5279 177 321 178.83548 321 181 C 321 182.97579 322.27809 184.65969 324 184.94141 L 324 190 L 325 190 L 325 184.94141 C 326.72191 184.65969 328 182.97579 328 181 C 328 178.83548 326.4721 177 324.5 177 z M 357.5 177 C 358.8416 177 360 178.29875 360 180 C 360 181.70125 358.8416 183 357.5 183 C 356.1584 183 355 181.70125 355 180 C 355 178.29875 356.1584 177 357.5 177 z M 444 177 L 441 185 L 441 186 L 444 186 L 444 190 L 445 190 L 445 186 L 448 186 L 448 185 L 445 177 L 444 177 z M 324.5 178 C 325.8416 178 327 179.29875 327 181 C 327 182.70125 325.8416 184 324.5 184 C 323.1584 184 322 182.70125 322 181 C 322 179.29875 323.1584 178 324.5 178 z M 444.5 178 L 447 185 L 442 185 L 444.5 178 z M 255.5 183 C 253.5279 183 252 184.83548 252 187 C 252 188.97579 253.27809 190.65969 255 190.94141 L 255 196 L 256 196 L 256 190.94141 C 257.72191 190.65969 259 188.97579 259 187 C 259 184.83548 257.4721 183 255.5 183 z M 42.5 184 C 40.527905 184 39 185.83548 39 188 C 39 189.97579 40.278087 191.65969 42 191.94141 L 42 197 L 43 197 L 43 191.94141 C 44.721913 191.65969 46 189.97579 46 188 C 46 185.83548 44.472095 184 42.5 184 z M 129.5 184 C 127.52791 184 126 185.83548 126 188 C 126 189.97579 127.27809 191.65969 129 191.94141 L 129 197 L 130 197 L 130 191.94141 C 131.72191 191.65969 133 189.97579 133 188 C 133 185.83548 131.47209 184 129.5 184 z M 255.5 184 C 256.8416 184 258 185.29875 258 187 C 258 188.70125 256.8416 190 255.5 190 C 254.1584 190 253 188.70125 253 187 C 253 185.29875 254.1584 184 255.5 184 z M 42.5 185 C 43.841598 185 45 186.29875 45 188 C 45 189.70125 43.841598 191 42.5 191 C 41.158402 191 40 189.70125 40 188 C 40 186.29875 41.158402 185 42.5 185 z M 129.5 185 C 130.8416 185 132 186.29875 132 188 C 132 189.70125 130.8416 191 129.5 191 C 128.1584 191 127 189.70125 127 188 C 127 186.29875 128.1584 185 129.5 185 z M 387.5 185 C 385.5279 185 384 186.83548 384 189 C 384 190.97579 385.27809 192.65969 387 192.94141 L 387 198 L 388 198 L 388 192.94141 C 389.72191 192.65969 391 190.97579 391 189 C 391 186.83548 389.4721 185 387.5 185 z M 387.5 186 C 388.8416 186 390 187.29875 390 189 C 390 190.70125 388.8416 192 387.5 192 C 386.1584 192 385 190.70125 385 189 C 385 187.29875 386.1584 186 387.5 186 z M 470 188 L 467 196 L 467 197 L 470 197 L 470 201 L 471 201 L 471 197 L 474 197 L 474 196 L 471 188 L 470 188 z M 192 189 L 189 197 L 189 198 L 192 198 L 192 202 L 193 202 L 193 198 L 196 198 L 196 197 L 193 189 L 192 189 z M 281 189 L 278 197 L 278 198 L 281 198 L 281 202 L 282 202 L 282 198 L 285 198 L 285 197 L 282 189 L 281 189 z M 470.5 189 L 473 196 L 468 196 L 470.5 189 z M 99 190 L 96 198 L 96 199 L 99 199 L 99 203 L 100 203 L 100 199 L 103 199 L 103 198 L 100 190 L 99 190 z M 192.5 190 L 195 197 L 190 197 L 192.5 190 z M 281.5 190 L 284 197 L 279 197 L 281.5 190 z M 99.5 191 L 102 198 L 97 198 L 99.5 191 z M 419.5 193 C 417.5279 193 416 194.83548 416 197 C 416 198.97579 417.27809 200.65969 419 200.94141 L 419 206 L 420 206 L 420 200.94141 C 421.72191 200.65969 423 198.97579 423 197 C 423 194.83548 421.4721 193 419.5 193 z M 217 194 L 214 202 L 214 203 L 217 203 L 217 207 L 218 207 L 218 203 L 221 203 L 221 202 L 218 194 L 217 194 z M 419.5 194 C 420.8416 194 422 195.29875 422 197 C 422 198.70125 420.8416 200 419.5 200 C 418.1584 200 417 198.70125 417 197 C 417 195.29875 418.1584 194 419.5 194 z M 217.5 195 L 220 202 L 215 202 L 217.5 195 z M 309.5 197 C 307.5279 197 306 198.83548 306 201 C 306 202.97579 307.27809 204.65969 309 204.94141 L 309 210 L 310 210 L 310 204.94141 C 311.72191 204.65969 313 202.97579 313 201 C 313 198.83548 311.4721 197 309.5 197 z M 309.5 198 C 310.8416 198 312 199.29875 312 201 C 312 202.70125 310.8416 204 309.5 204 C 308.1584 204 307 202.70125 307 201 C 307 199.29875 308.1584 198 309.5 198 z M 15 199 L 12 207 L 12 208 L 15 208 L 15 212 L 16 212 L 16 208 L 19 208 L 19 207 L 16 199 L 15 199 z M 15.5 200 L 18 207 L 13 207 L 15.5 200 z M 162 201 L 159 209 L 159 210 L 162 210 L 162 214 L 163 214 L 163 210 L 166 210 L 166 209 L 163 201 L 162 201 z M 162.5 202 L 165 209 L 160 209 L 162.5 202 z M 343 203 L 340 211 L 340 212 L 343 212 L 343 216 L 344 216 L 344 212 L 347 212 L 347 211 L 344 203 L 343 203 z M 69 204 L 66 212 L 66 213 L 69 213 L 69 217 L 70 217 L 70 213 L 73 213 L 73 212 L 70 204 L 69 204 z M 343.5 204 L 346 211 L 341 211 L 343.5 204 z M 493.5 204 C 491.5279 204 490 205.83548 490 208 C 490 209.97579 491.27809 211.65969 493 211.94141 L 493 217 L 494 217 L 494 211.94141 C 495.72191 211.65969 497 209.97579 497 208 C 497 205.83548 495.4721 204 493.5 204 z M 69.5 205 L 72 212 L 67 212 L 69.5 205 z M 493.5 205 C 494.8416 205 496 206.29875 496 208 C 496 209.70125 494.8416 211 493.5 211 C 492.1584 211 491 209.70125 491 208 C 491 206.29875 492.1584 205 493.5 205 z M 252 211 L 249 219 L 249 220 L 252 220 L 252 224 L 253 224 L 253 220 L 256 220 L 256 219 L 253 211 L 252 211 z M 252.5 212 L 255 219 L 250 219 L 252.5 212 z M 371 213 L 368 221 L 368 222 L 371 222 L 371 226 L 372 226 L 372 222 L 375 222 L 375 221 L 372 213 L 371 213 z M 371.5 214 L 374 221 L 369 221 L 371.5 214 z M 113.5 215 C 111.52791 215 110 216.83548 110 219 C 110 220.97579 111.27809 222.65969 113 222.94141 L 113 228 L 114 228 L 114 222.94141 C 115.72191 222.65969 117 220.97579 117 219 C 117 216.83548 115.47209 215 113.5 215 z M 113.5 216 C 114.8416 216 116 217.29875 116 219 C 116 220.70125 114.8416 222 113.5 222 C 112.1584 222 111 220.70125 111 219 C 111 217.29875 112.1584 216 113.5 216 z M 405.5 218 C 403.5279 218 402 219.83548 402 222 C 402 223.97579 403.27809 225.65969 405 225.94141 L 405 231 L 406 231 L 406 225.94141 C 407.72191 225.65969 409 223.97579 409 222 C 409 219.83548 407.4721 218 405.5 218 z M 442.5 218 C 440.5279 218 439 219.83548 439 222 C 439 223.97579 440.27809 225.65969 442 225.94141 L 442 231 L 443 231 L 443 225.94141 C 444.72191 225.65969 446 223.97579 446 222 C 446 219.83548 444.4721 218 442.5 218 z M 137.5 219 C 135.5279 219 134 220.83548 134 223 C 134 224.97579 135.27809 226.65969 137 226.94141 L 137 232 L 138 232 L 138 226.94141 C 139.72191 226.65969 141 224.97579 141 223 C 141 220.83548 139.47209 219 137.5 219 z M 405.5 219 C 406.8416 219 408 220.29875 408 222 C 408 223.70125 406.8416 225 405.5 225 C 404.1584 225 403 223.70125 403 222 C 403 220.29875 404.1584 219 405.5 219 z M 442.5 219 C 443.8416 219 445 220.29875 445 222 C 445 223.70125 443.8416 225 442.5 225 C 441.1584 225 440 223.70125 440 222 C 440 220.29875 441.1584 219 442.5 219 z M 137.5 220 C 138.8416 220 140 221.29875 140 223 C 140 224.70125 138.8416 226 137.5 226 C 136.1584 226 135 224.70125 135 223 C 135 221.29875 136.1584 220 137.5 220 z M 312 221 L 309 229 L 309 230 L 312 230 L 312 234 L 313 234 L 313 230 L 316 230 L 316 229 L 313 221 L 312 221 z M 43 222 L 40 230 L 40 231 L 43 231 L 43 235 L 44 235 L 44 231 L 47 231 L 47 230 L 44 222 L 43 222 z M 194.5 222 C 192.5279 222 191 223.83548 191 226 C 191 227.97579 192.27809 229.65969 194 229.94141 L 194 235 L 195 235 L 195 229.94141 C 196.72191 229.65969 198 227.97579 198 226 C 198 223.83548 196.47209 222 194.5 222 z M 226 222 L 223 230 L 223 231 L 226 231 L 226 235 L 227 235 L 227 231 L 230 231 L 230 230 L 227 222 L 226 222 z M 312.5 222 L 315 229 L 310 229 L 312.5 222 z M 43.5 223 L 46 230 L 41 230 L 43.5 223 z M 194.5 223 C 195.8416 223 197 224.29875 197 226 C 197 227.70125 195.8416 229 194.5 229 C 193.1584 229 192 227.70125 192 226 C 192 224.29875 193.1584 223 194.5 223 z M 226.5 223 L 229 230 L 224 230 L 226.5 223 z M 468 224 L 465 232 L 465 233 L 468 233 L 468 237 L 469 237 L 469 233 L 472 233 L 472 232 L 469 224 L 468 224 z M 281.5 225 C 279.5279 225 278 226.83548 278 229 C 278 230.97579 279.27809 232.65969 281 232.94141 L 281 238 L 282 238 L 282 232.94141 C 283.72191 232.65969 285 230.97579 285 229 C 285 226.83548 283.4721 225 281.5 225 z M 468.5 225 L 471 232 L 466 232 L 468.5 225 z M 14.5 226 C 12.527905 226 11 227.83548 11 230 C 11 231.97579 12.278087 233.65969 14 233.94141 L 14 239 L 15 239 L 15 233.94141 C 16.721913 233.65969 18 231.97579 18 230 C 18 227.83548 16.472095 226 14.5 226 z M 281.5 226 C 282.8416 226 284 227.29875 284 229 C 284 230.70125 282.8416 232 281.5 232 C 280.1584 232 279 230.70125 279 229 C 279 227.29875 280.1584 226 281.5 226 z M 14.5 227 C 15.841598 227 17 228.29875 17 230 C 17 231.70125 15.841598 233 14.5 233 C 13.158402 233 12 231.70125 12 230 C 12 228.29875 13.158402 227 14.5 227 z M 84.5 229 C 82.527905 229 81 230.83548 81 233 C 81 234.97579 82.278087 236.65969 84 236.94141 L 84 242 L 85 242 L 85 236.94141 C 86.721913 236.65969 88 234.97579 88 233 C 88 230.83548 86.472095 229 84.5 229 z M 84.5 230 C 85.841598 230 87 231.29875 87 233 C 87 234.70125 85.841598 236 84.5 236 C 83.158402 236 82 234.70125 82 233 C 82 231.29875 83.158402 230 84.5 230 z M 165.5 231 C 163.5279 231 162 232.83548 162 235 C 162 236.97579 163.27809 238.65969 165 238.94141 L 165 244 L 166 244 L 166 238.94141 C 167.72191 238.65969 169 236.97579 169 235 C 169 232.83548 167.47209 231 165.5 231 z M 165.5 232 C 166.8416 232 168 233.29875 168 235 C 168 236.70125 166.8416 238 165.5 238 C 164.1584 238 163 236.70125 163 235 C 163 233.29875 164.1584 232 165.5 232 z M 502.5 234 C 500.5279 234 499 235.83548 499 238 C 499 239.97579 500.27809 241.65969 502 241.94141 L 502 247 L 503 247 L 503 241.94141 C 504.72191 241.65969 506 239.97579 506 238 C 506 235.83548 504.4721 234 502.5 234 z M 502.5 235 C 503.8416 235 505 236.29875 505 238 C 505 239.70125 503.8416 241 502.5 241 C 501.1584 241 500 239.70125 500 238 C 500 236.29875 501.1584 235 502.5 235 z M 343 238 L 340 246 L 340 247 L 343 247 L 343 251 L 344 251 L 344 247 L 347 247 L 347 246 L 344 238 L 343 238 z M 374 238 L 371 246 L 371 247 L 374 247 L 374 251 L 375 251 L 375 247 L 378 247 L 378 246 L 375 238 L 374 238 z M 343.5 239 L 346 246 L 341 246 L 343.5 239 z M 374.5 239 L 377 246 L 372 246 L 374.5 239 z M 433 240 L 430 248 L 430 249 L 433 249 L 433 253 L 434 253 L 434 249 L 437 249 L 437 248 L 434 240 L 433 240 z M 433.5 241 L 436 248 L 431 248 L 433.5 241 z M 62.5 244 C 60.527905 244 59 245.83548 59 248 C 59 249.97579 60.278087 251.65969 62 251.94141 L 62 257 L 63 257 L 63 251.94141 C 64.721913 251.65969 66 249.97579 66 248 C 66 245.83548 64.472095 244 62.5 244 z M 312.5 244 C 310.5279 244 309 245.83548 309 248 C 309 249.97579 310.27809 251.65969 312 251.94141 L 312 257 L 313 257 L 313 251.94141 C 314.72191 251.65969 316 249.97579 316 248 C 316 245.83548 314.4721 244 312.5 244 z M 62.5 245 C 63.841598 245 65 246.29875 65 248 C 65 249.70125 63.841598 251 62.5 251 C 61.158402 251 60 249.70125 60 248 C 60 246.29875 61.158402 245 62.5 245 z M 312.5 245 C 313.8416 245 315 246.29875 315 248 C 315 249.70125 313.8416 251 312.5 251 C 311.1584 251 310 249.70125 310 248 C 310 246.29875 311.1584 245 312.5 245 z M 404 246 L 401 254 L 401 255 L 404 255 L 404 259 L 405 259 L 405 255 L 408 255 L 408 254 L 405 246 L 404 246 z M 117.5 247 C 115.52791 247 114 248.83548 114 251 C 114 252.97579 115.27809 254.65969 117 254.94141 L 117 260 L 118 260 L 118 254.94141 C 119.72191 254.65969 121 252.97579 121 251 C 121 248.83548 119.47209 247 117.5 247 z M 253.5 247 C 251.5279 247 250 248.83548 250 251 C 250 252.97579 251.27809 254.65969 253 254.94141 L 253 260 L 254 260 L 254 254.94141 C 255.72191 254.65969 257 252.97579 257 251 C 257 248.83548 255.47209 247 253.5 247 z M 404.5 247 L 407 254 L 402 254 L 404.5 247 z M 117.5 248 C 118.8416 248 120 249.29875 120 251 C 120 252.70125 118.8416 254 117.5 254 C 116.1584 254 115 252.70125 115 251 C 115 249.29875 116.1584 248 117.5 248 z M 253.5 248 C 254.8416 248 256 249.29875 256 251 C 256 252.70125 254.8416 254 253.5 254 C 252.1584 254 251 252.70125 251 251 C 251 249.29875 252.1584 248 253.5 248 z M 202 250 L 199 258 L 199 259 L 202 259 L 202 263 L 203 263 L 203 259 L 206 259 L 206 258 L 203 250 L 202 250 z M 202.5 251 L 205 258 L 200 258 L 202.5 251 z M 460 251 L 457 259 L 457 260 L 460 260 L 460 264 L 461 264 L 461 260 L 464 260 L 464 259 L 461 251 L 460 251 z M 460.5 252 L 463 259 L 458 259 L 460.5 252 z M 37.5 257 C 35.527905 257 34 258.83548 34 261 C 34 262.97579 35.278087 264.65969 37 264.94141 L 37 270 L 38 270 L 38 264.94141 C 39.721913 264.65969 41 262.97579 41 261 C 41 258.83548 39.472095 257 37.5 257 z M 141 257 L 138 265 L 138 266 L 141 266 L 141 270 L 142 270 L 142 266 L 145 266 L 145 265 L 142 257 L 141 257 z M 226.5 257 C 224.5279 257 223 258.83548 223 261 C 223 262.97579 224.27809 264.65969 226 264.94141 L 226 270 L 227 270 L 227 264.94141 C 228.72191 264.65969 230 262.97579 230 261 C 230 258.83548 228.47209 257 226.5 257 z M 37.5 258 C 38.841598 258 40 259.29875 40 261 C 40 262.70125 38.841598 264 37.5 264 C 36.158402 264 35 262.70125 35 261 C 35 259.29875 36.158402 258 37.5 258 z M 141.5 258 L 144 265 L 139 265 L 141.5 258 z M 226.5 258 C 227.8416 258 229 259.29875 229 261 C 229 262.70125 227.8416 264 226.5 264 C 225.1584 264 224 262.70125 224 261 C 224 259.29875 225.1584 258 226.5 258 z M 290.5 258 C 288.5279 258 287 259.83548 287 262 C 287 263.97579 288.27809 265.65969 290 265.94141 L 290 271 L 291 271 L 291 265.94141 C 292.72191 265.65969 294 263.97579 294 262 C 294 259.83548 292.4721 258 290.5 258 z M 290.5 259 C 291.8416 259 293 260.29875 293 262 C 293 263.70125 291.8416 265 290.5 265 C 289.1584 265 288 263.70125 288 262 C 288 260.29875 289.1584 259 290.5 259 z M 8 262 L 5 270 L 5 271 L 8 271 L 8 275 L 9 275 L 9 271 L 12 271 L 12 270 L 9 262 L 8 262 z M 8.5 263 L 11 270 L 6 270 L 8.5 263 z M 178.5 263 C 176.5279 263 175 264.83548 175 267 C 175 268.97579 176.27809 270.65969 178 270.94141 L 178 276 L 179 276 L 179 270.94141 C 180.72191 270.65969 182 268.97579 182 267 C 182 264.83548 180.47209 263 178.5 263 z M 90.5 264 C 88.527905 264 87 265.83548 87 268 C 87 269.97579 88.278087 271.65969 90 271.94141 L 90 277 L 91 277 L 91 271.94141 C 92.721913 271.65969 94 269.97579 94 268 C 94 265.83548 92.472095 264 90.5 264 z M 178.5 264 C 179.8416 264 181 265.29875 181 267 C 181 268.70125 179.8416 270 178.5 270 C 177.1584 270 176 268.70125 176 267 C 176 265.29875 177.1584 264 178.5 264 z M 360.5 264 C 358.5279 264 357 265.83548 357 268 C 357 269.97579 358.27809 271.65969 360 271.94141 L 360 277 L 361 277 L 361 271.94141 C 362.72191 271.65969 364 269.97579 364 268 C 364 265.83548 362.4721 264 360.5 264 z M 90.5 265 C 91.841598 265 93 266.29875 93 268 C 93 269.70125 91.841598 271 90.5 271 C 89.158402 271 88 269.70125 88 268 C 88 266.29875 89.158402 265 90.5 265 z M 360.5 265 C 361.8416 265 363 266.29875 363 268 C 363 269.70125 361.8416 271 360.5 271 C 359.1584 271 358 269.70125 358 268 C 358 266.29875 359.1584 265 360.5 265 z M 488 266 L 485 274 L 485 275 L 488 275 L 488 279 L 489 279 L 489 275 L 492 275 L 492 274 L 489 266 L 488 266 z M 488.5 267 L 491 274 L 486 274 L 488.5 267 z M 324.5 272 C 322.5279 272 321 273.83548 321 276 C 321 277.97579 322.27809 279.65969 324 279.94141 L 324 285 L 325 285 L 325 279.94141 C 326.72191 279.65969 328 277.97579 328 276 C 328 273.83548 326.4721 272 324.5 272 z M 324.5 273 C 325.8416 273 327 274.29875 327 276 C 327 277.70125 325.8416 279 324.5 279 C 323.1584 279 322 277.70125 322 276 C 322 274.29875 323.1584 273 324.5 273 z M 261 275 L 258 283 L 258 284 L 261 284 L 261 288 L 262 288 L 262 284 L 265 284 L 265 283 L 262 275 L 261 275 z M 417.5 275 C 415.5279 275 414 276.83548 414 279 C 414 280.97579 415.27809 282.65969 417 282.94141 L 417 288 L 418 288 L 418 282.94141 C 419.72191 282.65969 421 280.97579 421 279 C 421 276.83548 419.4721 275 417.5 275 z M 261.5 276 L 264 283 L 259 283 L 261.5 276 z M 417.5 276 C 418.8416 276 420 277.29875 420 279 C 420 280.70125 418.8416 282 417.5 282 C 416.1584 282 415 280.70125 415 279 C 415 277.29875 416.1584 276 417.5 276 z M 116.5 279 C 114.52791 279 113 280.83548 113 283 C 113 284.97579 114.27809 286.65969 116 286.94141 L 116 292 L 117 292 L 117 286.94141 C 118.72191 286.65969 120 284.97579 120 283 C 120 280.83548 118.47209 279 116.5 279 z M 116.5 280 C 117.8416 280 119 281.29875 119 283 C 119 284.70125 117.8416 286 116.5 286 C 115.1584 286 114 284.70125 114 283 C 114 281.29875 115.1584 280 116.5 280 z M 387.5 280 C 385.5279 280 384 281.83548 384 284 C 384 285.97579 385.27809 287.65969 387 287.94141 L 387 293 L 388 293 L 388 287.94141 C 389.72191 287.65969 391 285.97579 391 284 C 391 281.83548 389.4721 280 387.5 280 z M 150 281 L 147 289 L 147 290 L 150 290 L 150 294 L 151 294 L 151 290 L 154 290 L 154 289 L 151 281 L 150 281 z M 387.5 281 C 388.8416 281 390 282.29875 390 284 C 390 285.70125 388.8416 287 387.5 287 C 386.1584 287 385 285.70125 385 284 C 385 282.29875 386.1584 281 387.5 281 z M 63 282 L 60 290 L 60 291 L 63 291 L 63 295 L 64 295 L 64 291 L 67 291 L 67 290 L 64 282 L 63 282 z M 150.5 282 L 153 289 L 148 289 L 150.5 282 z M 446.5 282 C 444.5279 282 443 283.83548 443 286 C 443 287.97579 444.27809 289.65969 446 289.94141 L 446 295 L 447 295 L 447 289.94141 C 448.72191 289.65969 450 287.97579 450 286 C 450 283.83548 448.4721 282 446.5 282 z M 63.5 283 L 66 290 L 61 290 L 63.5 283 z M 446.5 283 C 447.8416 283 449 284.29875 449 286 C 449 287.70125 447.8416 289 446.5 289 C 445.1584 289 444 287.70125 444 286 C 444 284.29875 445.1584 283 446.5 283 z M 201 284 L 198 292 L 198 293 L 201 293 L 201 297 L 202 297 L 202 293 L 205 293 L 205 292 L 202 284 L 201 284 z M 201.5 285 L 204 292 L 199 292 L 201.5 285 z M 238 285 L 235 293 L 235 294 L 238 294 L 238 298 L 239 298 L 239 294 L 242 294 L 242 293 L 239 285 L 238 285 z M 238.5 286 L 241 293 L 236 293 L 238.5 286 z M 31 287 L 28 295 L 28 296 L 31 296 L 31 300 L 32 300 L 32 296 L 35 296 L 35 295 L 32 287 L 31 287 z M 476 287 L 473 295 L 473 296 L 476 296 L 476 300 L 477 300 L 477 296 L 480 296 L 480 295 L 477 287 L 476 287 z M 31.5 288 L 34 295 L 29 295 L 31.5 288 z M 476.5 288 L 479 295 L 474 295 L 476.5 288 z M 0 289 L 0 291.40039 L 0.5 290 L 3 297 L 0 297 L 0 298 L 0 302 L 1 302 L 1 298 L 4 298 L 4 297 L 1 289 L 0 289 z M 357.5 289 C 355.5279 289 354 290.83548 354 293 C 354 294.97579 355.27809 296.65969 357 296.94141 L 357 302 L 358 302 L 358 296.94141 C 359.72191 296.65969 361 294.97579 361 293 C 361 290.83548 359.4721 289 357.5 289 z M 512 289 L 509 297 L 509 298 L 512 298 L 512 297 L 510 297 L 512 291.40039 L 512 289 z M 357.5 290 C 358.8416 290 360 291.29875 360 293 C 360 294.70125 358.8416 296 357.5 296 C 356.1584 296 355 294.70125 355 293 C 355 291.29875 356.1584 290 357.5 290 z M 285.5 295 C 283.5279 295 282 296.83548 282 299 C 282 300.97579 283.27809 302.65969 285 302.94141 L 285 308 L 286 308 L 286 302.94141 C 287.72191 302.65969 289 300.97579 289 299 C 289 296.83548 287.4721 295 285.5 295 z M 285.5 296 C 286.8416 296 288 297.29875 288 299 C 288 300.70125 286.8416 302 285.5 302 C 284.1584 302 283 300.70125 283 299 C 283 297.29875 284.1584 296 285.5 296 z M 88 297 L 85 305 L 85 306 L 88 306 L 88 310 L 89 310 L 89 306 L 92 306 L 92 305 L 89 297 L 88 297 z M 88.5 298 L 91 305 L 86 305 L 88.5 298 z M 175.5 298 C 173.5279 298 172 299.83548 172 302 C 172 303.97579 173.27809 305.65969 175 305.94141 L 175 311 L 176 311 L 176 305.94141 C 177.72191 305.65969 179 303.97579 179 302 C 179 299.83548 177.47209 298 175.5 298 z M 175.5 299 C 176.8416 299 178 300.29875 178 302 C 178 303.70125 176.8416 305 175.5 305 C 174.1584 305 173 303.70125 173 302 C 173 300.29875 174.1584 299 175.5 299 z M 308 301 L 305 309 L 305 310 L 308 310 L 308 314 L 309 314 L 309 310 L 312 310 L 312 309 L 309 301 L 308 301 z M 308.5 302 L 311 309 L 306 309 L 308.5 302 z M 335.5 304 C 333.5279 304 332 305.83548 332 308 C 332 309.97579 333.27809 311.65969 335 311.94141 L 335 317 L 336 317 L 336 311.94141 C 337.72191 311.65969 339 309.97579 339 308 C 339 305.83548 337.4721 304 335.5 304 z M 335.5 305 C 336.8416 305 338 306.29875 338 308 C 338 309.70125 336.8416 311 335.5 311 C 334.1584 311 333 309.70125 333 308 C 333 306.29875 334.1584 305 335.5 305 z M 426.5 305 C 424.5279 305 423 306.83548 423 309 C 423 310.97579 424.27809 312.65969 426 312.94141 L 426 318 L 427 318 L 427 312.94141 C 428.72191 312.65969 430 310.97579 430 309 C 430 306.83548 428.4721 305 426.5 305 z M 426.5 306 C 427.8416 306 429 307.29875 429 309 C 429 310.70125 427.8416 312 426.5 312 C 425.1584 312 424 310.70125 424 309 C 424 307.29875 425.1584 306 426.5 306 z M 142 310 L 139 318 L 139 319 L 142 319 L 142 323 L 143 323 L 143 319 L 146 319 L 146 318 L 143 310 L 142 310 z M 223.5 310 C 221.5279 310 220 311.83548 220 314 C 220 315.97579 221.27809 317.65969 223 317.94141 L 223 323 L 224 323 L 224 317.94141 C 225.72191 317.65969 227 315.97579 227 314 C 227 311.83548 225.47209 310 223.5 310 z M 260.5 310 C 258.5279 310 257 311.83548 257 314 C 257 315.97579 258.27809 317.65969 260 317.94141 L 260 323 L 261 323 L 261 317.94141 C 262.72191 317.65969 264 315.97579 264 314 C 264 311.83548 262.4721 310 260.5 310 z M 399 310 L 396 318 L 396 319 L 399 319 L 399 323 L 400 323 L 400 319 L 403 319 L 403 318 L 400 310 L 399 310 z M 112.5 311 C 110.52791 311 109 312.83548 109 315 C 109 316.97579 110.27809 318.65969 112 318.94141 L 112 324 L 113 324 L 113 318.94141 C 114.72191 318.65969 116 316.97579 116 315 C 116 312.83548 114.47209 311 112.5 311 z M 142.5 311 L 145 318 L 140 318 L 142.5 311 z M 223.5 311 C 224.8416 311 226 312.29875 226 314 C 226 315.70125 224.8416 317 223.5 317 C 222.1584 317 221 315.70125 221 314 C 221 312.29875 222.1584 311 223.5 311 z M 260.5 311 C 261.8416 311 263 312.29875 263 314 C 263 315.70125 261.8416 317 260.5 317 C 259.1584 317 258 315.70125 258 314 C 258 312.29875 259.1584 311 260.5 311 z M 399.5 311 L 402 318 L 397 318 L 399.5 311 z M 48 312 L 45 320 L 45 321 L 48 321 L 48 325 L 49 325 L 49 321 L 52 321 L 52 320 L 49 312 L 48 312 z M 112.5 312 C 113.8416 312 115 313.29875 115 315 C 115 316.70125 113.8416 318 112.5 318 C 111.1584 318 110 316.70125 110 315 C 110 313.29875 111.1584 312 112.5 312 z M 48.5 313 L 51 320 L 46 320 L 48.5 313 z M 495.5 313 C 493.5279 313 492 314.83548 492 317 C 492 318.97579 493.27809 320.65969 495 320.94141 L 495 326 L 496 326 L 496 320.94141 C 497.72191 320.65969 499 318.97579 499 317 C 499 314.83548 497.4721 313 495.5 313 z M 463 314 L 460 322 L 460 323 L 463 323 L 463 327 L 464 327 L 464 323 L 467 323 L 467 322 L 464 314 L 463 314 z M 495.5 314 C 496.8416 314 498 315.29875 498 317 C 498 318.70125 496.8416 320 495.5 320 C 494.1584 320 493 318.70125 493 317 C 493 315.29875 494.1584 314 495.5 314 z M 463.5 315 L 466 322 L 461 322 L 463.5 315 z M 201 316 L 198 324 L 198 325 L 201 325 L 201 329 L 202 329 L 202 325 L 205 325 L 205 324 L 202 316 L 201 316 z M 16 317 L 13 325 L 13 326 L 16 326 L 16 330 L 17 330 L 17 326 L 20 326 L 20 325 L 17 317 L 16 317 z M 201.5 317 L 204 324 L 199 324 L 201.5 317 z M 369.5 317 C 367.5279 317 366 318.83548 366 321 C 366 322.97579 367.27809 324.65969 369 324.94141 L 369 330 L 370 330 L 370 324.94141 C 371.72191 324.65969 373 322.97579 373 321 C 373 318.83548 371.4721 317 369.5 317 z M 16.5 318 L 19 325 L 14 325 L 16.5 318 z M 369.5 318 C 370.8416 318 372 319.29875 372 321 C 372 322.70125 370.8416 324 369.5 324 C 368.1584 324 367 322.70125 367 321 C 367 319.29875 368.1584 318 369.5 318 z M 79.5 330 C 77.527905 330 76 331.83548 76 334 C 76 335.97579 77.278087 337.65969 79 337.94141 L 79 343 L 80 343 L 80 337.94141 C 81.721913 337.65969 83 335.97579 83 334 C 83 331.83548 81.472095 330 79.5 330 z M 79.5 331 C 80.841598 331 82 332.29875 82 334 C 82 335.70125 80.841598 337 79.5 337 C 78.158402 337 77 335.70125 77 334 C 77 332.29875 78.158402 331 79.5 331 z M 176 332 L 173 340 L 173 341 L 176 341 L 176 345 L 177 345 L 177 341 L 180 341 L 180 340 L 177 332 L 176 332 z M 176.5 333 L 179 340 L 174 340 L 176.5 333 z M 282.5 334 C 280.5279 334 279 335.83548 279 338 C 279 339.97579 280.27809 341.65969 282 341.94141 L 282 347 L 283 347 L 283 341.94141 C 284.72191 341.65969 286 339.97579 286 338 C 286 335.83548 284.4721 334 282.5 334 z M 311.5 334 C 309.5279 334 308 335.83548 308 338 C 308 339.97579 309.27809 341.65969 311 341.94141 L 311 347 L 312 347 L 312 341.94141 C 313.72191 341.65969 315 339.97579 315 338 C 315 335.83548 313.4721 334 311.5 334 z M 282.5 335 C 283.8416 335 285 336.29875 285 338 C 285 339.70125 283.8416 341 282.5 341 C 281.1584 341 280 339.70125 280 338 C 280 336.29875 281.1584 335 282.5 335 z M 311.5 335 C 312.8416 335 314 336.29875 314 338 C 314 339.70125 312.8416 341 311.5 341 C 310.1584 341 309 339.70125 309 338 C 309 336.29875 310.1584 335 311.5 335 z M 341 335 L 338 343 L 338 344 L 341 344 L 341 348 L 342 348 L 342 344 L 345 344 L 345 343 L 342 335 L 341 335 z M 237.5 336 C 235.5279 336 234 337.83548 234 340 C 234 341.97579 235.27809 343.65969 237 343.94141 L 237 349 L 238 349 L 238 343.94141 C 239.72191 343.65969 241 341.97579 241 340 C 241 337.83548 239.47209 336 237.5 336 z M 341.5 336 L 344 343 L 339 343 L 341.5 336 z M 435.5 336 C 433.5279 336 432 337.83548 432 340 C 432 341.97579 433.27809 343.65969 435 343.94141 L 435 349 L 436 349 L 436 343.94141 C 437.72191 343.65969 439 341.97579 439 340 C 439 337.83548 437.4721 336 435.5 336 z M 128.5 337 C 126.52791 337 125 338.83548 125 341 C 125 342.97579 126.27809 344.65969 128 344.94141 L 128 350 L 129 350 L 129 344.94141 C 130.72191 344.65969 132 342.97579 132 341 C 132 338.83548 130.47209 337 128.5 337 z M 237.5 337 C 238.8416 337 240 338.29875 240 340 C 240 341.70125 238.8416 343 237.5 343 C 236.1584 343 235 341.70125 235 340 C 235 338.29875 236.1584 337 237.5 337 z M 435.5 337 C 436.8416 337 438 338.29875 438 340 C 438 341.70125 436.8416 343 435.5 343 C 434.1584 343 433 341.70125 433 340 C 433 338.29875 434.1584 337 435.5 337 z M 41 338 L 38 346 L 38 347 L 41 347 L 41 351 L 42 351 L 42 347 L 45 347 L 45 346 L 42 338 L 41 338 z M 128.5 338 C 129.8416 338 131 339.29875 131 341 C 131 342.70125 129.8416 344 128.5 344 C 127.1584 344 126 342.70125 126 341 C 126 339.29875 127.1584 338 128.5 338 z M 499.5 338 C 497.5279 338 496 339.83548 496 342 C 496 343.97579 497.27809 345.65969 499 345.94141 L 499 351 L 500 351 L 500 345.94141 C 501.72191 345.65969 503 343.97579 503 342 C 503 339.83548 501.4721 338 499.5 338 z M 41.5 339 L 44 346 L 39 346 L 41.5 339 z M 405.5 339 C 403.5279 339 402 340.83548 402 343 C 402 344.97579 403.27809 346.65969 405 346.94141 L 405 352 L 406 352 L 406 346.94141 C 407.72191 346.65969 409 344.97579 409 343 C 409 340.83548 407.4721 339 405.5 339 z M 499.5 339 C 500.8416 339 502 340.29875 502 342 C 502 343.70125 500.8416 345 499.5 345 C 498.1584 345 497 343.70125 497 342 C 497 340.29875 498.1584 339 499.5 339 z M 405.5 340 C 406.8416 340 408 341.29875 408 343 C 408 344.70125 406.8416 346 405.5 346 C 404.1584 346 403 344.70125 403 343 C 403 341.29875 404.1584 340 405.5 340 z M 105 342 L 102 350 L 102 351 L 105 351 L 105 355 L 106 355 L 106 351 L 109 351 L 109 350 L 106 342 L 105 342 z M 105.5 343 L 108 350 L 103 350 L 105.5 343 z M 469 343 L 466 351 L 466 352 L 469 352 L 469 356 L 470 356 L 470 352 L 473 352 L 473 351 L 470 343 L 469 343 z M 375 344 L 372 352 L 372 353 L 375 353 L 375 357 L 376 357 L 376 353 L 379 353 L 379 352 L 376 344 L 375 344 z M 469.5 344 L 472 351 L 467 351 L 469.5 344 z M 151 345 L 148 353 L 148 354 L 151 354 L 151 358 L 152 358 L 152 354 L 155 354 L 155 353 L 152 345 L 151 345 z M 375.5 345 L 378 352 L 373 352 L 375.5 345 z M 151.5 346 L 154 353 L 149 353 L 151.5 346 z M 258.5 346 C 256.5279 346 255 347.83548 255 350 C 255 351.97579 256.27809 353.65969 258 353.94141 L 258 359 L 259 359 L 259 353.94141 C 260.72191 353.65969 262 351.97579 262 350 C 262 347.83548 260.4721 346 258.5 346 z M 209.5 347 C 207.5279 347 206 348.83548 206 351 C 206 352.97579 207.27809 354.65969 209 354.94141 L 209 360 L 210 360 L 210 354.94141 C 211.72191 354.65969 213 352.97579 213 351 C 213 348.83548 211.47209 347 209.5 347 z M 258.5 347 C 259.8416 347 261 348.29875 261 350 C 261 351.70125 259.8416 353 258.5 353 C 257.1584 353 256 351.70125 256 350 C 256 348.29875 257.1584 347 258.5 347 z M 209.5 348 C 210.8416 348 212 349.29875 212 351 C 212 352.70125 210.8416 354 209.5 354 C 208.1584 354 207 352.70125 207 351 C 207 349.29875 208.1584 348 209.5 348 z M 18 350 L 15 358 L 15 359 L 18 359 L 18 363 L 19 363 L 19 359 L 22 359 L 22 358 L 19 350 L 18 350 z M 18.5 351 L 21 358 L 16 358 L 18.5 351 z M 67.5 357 C 65.527905 357 64 358.83548 64 361 C 64 362.97579 65.278087 364.65969 67 364.94141 L 67 370 L 68 370 L 68 364.94141 C 69.721913 364.65969 71 362.97579 71 361 C 71 358.83548 69.472095 357 67.5 357 z M 67.5 358 C 68.841598 358 70 359.29875 70 361 C 70 362.70125 68.841598 364 67.5 364 C 66.158402 364 65 362.70125 65 361 C 65 359.29875 66.158402 358 67.5 358 z M 282.5 360 C 280.5279 360 279 361.83548 279 364 C 279 365.97579 280.27809 367.65969 282 367.94141 L 282 373 L 283 373 L 283 367.94141 C 284.72191 367.65969 286 365.97579 286 364 C 286 361.83548 284.4721 360 282.5 360 z M 282.5 361 C 283.8416 361 285 362.29875 285 364 C 285 365.70125 283.8416 367 282.5 367 C 281.1584 367 280 365.70125 280 364 C 280 362.29875 281.1584 361 282.5 361 z M 178 362 L 175 370 L 175 371 L 178 371 L 178 375 L 179 375 L 179 371 L 182 371 L 182 370 L 179 362 L 178 362 z M 178.5 363 L 181 370 L 176 370 L 178.5 363 z M 319.5 364 C 317.5279 364 316 365.83548 316 368 C 316 369.97579 317.27809 371.65969 319 371.94141 L 319 377 L 320 377 L 320 371.94141 C 321.72191 371.65969 323 369.97579 323 368 C 323 365.83548 321.4721 364 319.5 364 z M 319.5 365 C 320.8416 365 322 366.29875 322 368 C 322 369.70125 320.8416 371 319.5 371 C 318.1584 371 317 369.70125 317 368 C 317 366.29875 318.1584 365 319.5 365 z M 441 365 L 438 373 L 438 374 L 441 374 L 441 378 L 442 378 L 442 374 L 445 374 L 445 373 L 442 365 L 441 365 z M 441.5 366 L 444 373 L 439 373 L 441.5 366 z M 347.5 367 C 345.5279 367 344 368.83548 344 371 C 344 372.97579 345.27809 374.65969 347 374.94141 L 347 380 L 348 380 L 348 374.94141 C 349.72191 374.65969 351 372.97579 351 371 C 351 368.83548 349.4721 367 347.5 367 z M 347.5 368 C 348.8416 368 350 369.29875 350 371 C 350 372.70125 348.8416 374 347.5 374 C 346.1584 374 345 372.70125 345 371 C 345 369.29875 346.1584 368 347.5 368 z M 411 369 L 408 377 L 408 378 L 411 378 L 411 382 L 412 382 L 412 378 L 415 378 L 415 377 L 412 369 L 411 369 z M 411.5 370 L 414 377 L 409 377 L 411.5 370 z M 491 370 L 488 378 L 488 379 L 491 379 L 491 383 L 492 383 L 492 379 L 495 379 L 495 378 L 492 370 L 491 370 z M 491.5 371 L 494 378 L 489 378 L 491.5 371 z M 231 372 L 228 380 L 228 381 L 231 381 L 231 385 L 232 385 L 232 381 L 235 381 L 235 380 L 232 372 L 231 372 z M 382.5 372 C 380.5279 372 379 373.83548 379 376 C 379 377.97579 380.27809 379.65969 382 379.94141 L 382 385 L 383 385 L 383 379.94141 C 384.72191 379.65969 386 377.97579 386 376 C 386 373.83548 384.4721 372 382.5 372 z M 95.5 373 C 93.527905 373 92 374.83548 92 377 C 92 378.97579 93.278087 380.65969 95 380.94141 L 95 386 L 96 386 L 96 380.94141 C 97.721913 380.65969 99 378.97579 99 377 C 99 374.83548 97.472095 373 95.5 373 z M 127 373 L 124 381 L 124 382 L 127 382 L 127 386 L 128 386 L 128 382 L 131 382 L 131 381 L 128 373 L 127 373 z M 231.5 373 L 234 380 L 229 380 L 231.5 373 z M 382.5 373 C 383.8416 373 385 374.29875 385 376 C 385 377.70125 383.8416 379 382.5 379 C 381.1584 379 380 377.70125 380 376 C 380 374.29875 381.1584 373 382.5 373 z M 95.5 374 C 96.841598 374 98 375.29875 98 377 C 98 378.70125 96.841598 380 95.5 380 C 94.158402 380 93 378.70125 93 377 C 93 375.29875 94.158402 374 95.5 374 z M 127.5 374 L 130 381 L 125 381 L 127.5 374 z M 39.5 375 C 37.527905 375 36 376.83548 36 379 C 36 380.97579 37.278087 382.65969 39 382.94141 L 39 388 L 40 388 L 40 382.94141 C 41.721913 382.65969 43 380.97579 43 379 C 43 376.83548 41.472095 375 39.5 375 z M 39.5 376 C 40.841598 376 42 377.29875 42 379 C 42 380.70125 40.841598 382 39.5 382 C 38.158402 382 37 380.70125 37 379 C 37 377.29875 38.158402 376 39.5 376 z M 7 378 L 4 386 L 4 387 L 7 387 L 7 391 L 8 391 L 8 387 L 11 387 L 11 386 L 8 378 L 7 378 z M 463.5 378 C 461.5279 378 460 379.83548 460 382 C 460 383.97579 461.27809 385.65969 463 385.94141 L 463 391 L 464 391 L 464 385.94141 C 465.72191 385.65969 467 383.97579 467 382 C 467 379.83548 465.4721 378 463.5 378 z M 7.5 379 L 10 386 L 5 386 L 7.5 379 z M 293 379 L 290 387 L 290 388 L 293 388 L 293 392 L 294 392 L 294 388 L 297 388 L 297 387 L 294 379 L 293 379 z M 463.5 379 C 464.8416 379 466 380.29875 466 382 C 466 383.70125 464.8416 385 463.5 385 C 462.1584 385 461 383.70125 461 382 C 461 380.29875 462.1584 379 463.5 379 z M 293.5 380 L 296 387 L 291 387 L 293.5 380 z M 156.5 381 C 154.5279 381 153 382.83548 153 385 C 153 386.97579 154.27809 388.65969 156 388.94141 L 156 394 L 157 394 L 157 388.94141 C 158.72191 388.65969 160 386.97579 160 385 C 160 382.83548 158.47209 381 156.5 381 z M 207 381 L 204 389 L 204 390 L 207 390 L 207 394 L 208 394 L 208 390 L 211 390 L 211 389 L 208 381 L 207 381 z M 156.5 382 C 157.8416 382 159 383.29875 159 385 C 159 386.70125 157.8416 388 156.5 388 C 155.1584 388 154 386.70125 154 385 C 154 383.29875 155.1584 382 156.5 382 z M 207.5 382 L 210 389 L 205 389 L 207.5 382 z M 66.5 392 C 64.527905 392 63 393.83548 63 396 C 63 397.97579 64.278087 399.65969 66 399.94141 L 66 405 L 67 405 L 67 399.94141 C 68.721913 399.65969 70 397.97579 70 396 C 70 393.83548 68.472095 392 66.5 392 z M 66.5 393 C 67.841598 393 69 394.29875 69 396 C 69 397.70125 67.841598 399 66.5 399 C 65.158402 399 64 397.70125 64 396 C 64 394.29875 65.158402 393 66.5 393 z M 370 394 L 367 402 L 367 403 L 370 403 L 370 407 L 371 407 L 371 403 L 374 403 L 374 402 L 371 394 L 370 394 z M 247 395 L 244 403 L 244 404 L 247 404 L 247 408 L 248 408 L 248 404 L 251 404 L 251 403 L 248 395 L 247 395 z M 370.5 395 L 373 402 L 368 402 L 370.5 395 z M 183 396 L 180 404 L 180 405 L 183 405 L 183 409 L 184 409 L 184 405 L 187 405 L 187 404 L 184 396 L 183 396 z M 247.5 396 L 250 403 L 245 403 L 247.5 396 z M 338 396 L 335 404 L 335 405 L 338 405 L 338 409 L 339 409 L 339 405 L 342 405 L 342 404 L 339 396 L 338 396 z M 183.5 397 L 186 404 L 181 404 L 183.5 397 z M 338.5 397 L 341 404 L 336 404 L 338.5 397 z M 308 398 L 305 406 L 305 407 L 308 407 L 308 411 L 309 411 L 309 407 L 312 407 L 312 406 L 309 398 L 308 398 z M 434 398 L 431 406 L 431 407 L 434 407 L 434 411 L 435 411 L 435 407 L 438 407 L 438 406 L 435 398 L 434 398 z M 308.5 399 L 311 406 L 306 406 L 308.5 399 z M 434.5 399 L 437 406 L 432 406 L 434.5 399 z M 119.5 400 C 117.52791 400 116 401.83548 116 404 C 116 405.97579 117.27809 407.65969 119 407.94141 L 119 413 L 120 413 L 120 407.94141 C 121.72191 407.65969 123 405.97579 123 404 C 123 401.83548 121.47209 400 119.5 400 z M 35.5 401 C 33.527905 401 32 402.83548 32 405 C 32 406.97579 33.278087 408.65969 35 408.94141 L 35 414 L 36 414 L 36 408.94141 C 37.721913 408.65969 39 406.97579 39 405 C 39 402.83548 37.472095 401 35.5 401 z M 119.5 401 C 120.8416 401 122 402.29875 122 404 C 122 405.70125 120.8416 407 119.5 407 C 118.1584 407 117 405.70125 117 404 C 117 402.29875 118.1584 401 119.5 401 z M 35.5 402 C 36.841598 402 38 403.29875 38 405 C 38 406.70125 36.841598 408 35.5 408 C 34.158402 408 33 406.70125 33 405 C 33 403.29875 34.158402 402 35.5 402 z M 402.5 402 C 400.5279 402 399 403.83548 399 406 C 399 407.97579 400.27809 409.65969 402 409.94141 L 402 415 L 403 415 L 403 409.94141 C 404.72191 409.65969 406 407.97579 406 406 C 406 403.83548 404.4721 402 402.5 402 z M 493.5 402 C 491.5279 402 490 403.83548 490 406 C 490 407.97579 491.27809 409.65969 493 409.94141 L 493 415 L 494 415 L 494 409.94141 C 495.72191 409.65969 497 407.97579 497 406 C 497 403.83548 495.4721 402 493.5 402 z M 402.5 403 C 403.8416 403 405 404.29875 405 406 C 405 407.70125 403.8416 409 402.5 409 C 401.1584 409 400 407.70125 400 406 C 400 404.29875 401.1584 403 402.5 403 z M 493.5 403 C 494.8416 403 496 404.29875 496 406 C 496 407.70125 494.8416 409 493.5 409 C 492.1584 409 491 407.70125 491 406 C 491 404.29875 492.1584 403 493.5 403 z M 88.5 404 C 86.527905 404 85 405.83548 85 408 C 85 409.97579 86.278087 411.65969 88 411.94141 L 88 417 L 89 417 L 89 411.94141 C 90.721913 411.65969 92 409.97579 92 408 C 92 405.83548 90.472095 404 88.5 404 z M 273.5 404 C 271.5279 404 270 405.83548 270 408 C 270 409.97579 271.27809 411.65969 273 411.94141 L 273 417 L 274 417 L 274 411.94141 C 275.72191 411.65969 277 409.97579 277 408 C 277 405.83548 275.4721 404 273.5 404 z M 88.5 405 C 89.841598 405 91 406.29875 91 408 C 91 409.70125 89.841598 411 88.5 411 C 87.158402 411 86 409.70125 86 408 C 86 406.29875 87.158402 405 88.5 405 z M 273.5 405 C 274.8416 405 276 406.29875 276 408 C 276 409.70125 274.8416 411 273.5 411 C 272.1584 411 271 409.70125 271 408 C 271 406.29875 272.1584 405 273.5 405 z M 463 407 L 460 415 L 460 416 L 463 416 L 463 420 L 464 420 L 464 416 L 467 416 L 467 415 L 464 407 L 463 407 z M 463.5 408 L 466 415 L 461 415 L 463.5 408 z M 150 409 L 147 417 L 147 418 L 150 418 L 150 422 L 151 422 L 151 418 L 154 418 L 154 417 L 151 409 L 150 409 z M 150.5 410 L 153 417 L 148 417 L 150.5 410 z M 221.5 410 C 219.5279 410 218 411.83548 218 414 C 218 415.97579 219.27809 417.65969 221 417.94141 L 221 423 L 222 423 L 222 417.94141 C 223.72191 417.65969 225 415.97579 225 414 C 225 411.83548 223.47209 410 221.5 410 z M 221.5 411 C 222.8416 411 224 412.29875 224 414 C 224 415.70125 222.8416 417 221.5 417 C 220.1584 417 219 415.70125 219 414 C 219 412.29875 220.1584 411 221.5 411 z M 7.5 413 C 5.527905 413 4 414.83548 4 417 C 4 418.97579 5.278087 420.65969 7 420.94141 L 7 426 L 8 426 L 8 420.94141 C 9.721913 420.65969 11 418.97579 11 417 C 11 414.83548 9.472095 413 7.5 413 z M 7.5 414 C 8.8415982 414 10 415.29875 10 417 C 10 418.70125 8.8415982 420 7.5 420 C 6.1584018 420 5 418.70125 5 417 C 5 415.29875 6.1584018 414 7.5 414 z M 188 420 L 185 428 L 185 429 L 188 429 L 188 433 L 189 433 L 189 429 L 192 429 L 192 428 L 189 420 L 188 420 z M 188.5 421 L 191 428 L 186 428 L 188.5 421 z M 343.5 423 C 341.5279 423 340 424.83548 340 427 C 340 428.97579 341.27809 430.65969 343 430.94141 L 343 436 L 344 436 L 344 430.94141 C 345.72191 430.65969 347 428.97579 347 427 C 347 424.83548 345.4721 423 343.5 423 z M 343.5 424 C 344.8416 424 346 425.29875 346 427 C 346 428.70125 344.8416 430 343.5 430 C 342.1584 430 341 428.70125 341 427 C 341 425.29875 342.1584 424 343.5 424 z M 376 425 L 373 433 L 373 434 L 376 434 L 376 438 L 377 438 L 377 434 L 380 434 L 380 433 L 377 425 L 376 425 z M 376.5 426 L 379 433 L 374 433 L 376.5 426 z M 103.5 427 C 101.52791 427 100 428.83548 100 431 C 100 432.97579 101.27809 434.65969 103 434.94141 L 103 440 L 104 440 L 104 434.94141 C 105.72191 434.65969 107 432.97579 107 431 C 107 428.83548 105.47209 427 103.5 427 z M 283 427 L 280 435 L 280 436 L 283 436 L 283 440 L 284 440 L 284 436 L 287 436 L 287 435 L 284 427 L 283 427 z M 103.5 428 C 104.8416 428 106 429.29875 106 431 C 106 432.70125 104.8416 434 103.5 434 C 102.1584 434 101 432.70125 101 431 C 101 429.29875 102.1584 428 103.5 428 z M 252 428 L 249 436 L 249 437 L 252 437 L 252 441 L 253 441 L 253 437 L 256 437 L 256 436 L 253 428 L 252 428 z M 283.5 428 L 286 435 L 281 435 L 283.5 428 z M 252.5 429 L 255 436 L 250 436 L 252.5 429 z M 316 429 L 313 437 L 313 438 L 316 438 L 316 442 L 317 442 L 317 438 L 320 438 L 320 437 L 317 429 L 316 429 z M 435.5 429 C 433.5279 429 432 430.83548 432 433 C 432 434.97579 433.27809 436.65969 435 436.94141 L 435 442 L 436 442 L 436 436.94141 C 437.72191 436.65969 439 434.97579 439 433 C 439 430.83548 437.4721 429 435.5 429 z M 74.5 430 C 72.527905 430 71 431.83548 71 434 C 71 435.97579 72.278087 437.65969 74 437.94141 L 74 443 L 75 443 L 75 437.94141 C 76.721913 437.65969 78 435.97579 78 434 C 78 431.83548 76.472095 430 74.5 430 z M 316.5 430 L 319 437 L 314 437 L 316.5 430 z M 435.5 430 C 436.8416 430 438 431.29875 438 433 C 438 434.70125 436.8416 436 435.5 436 C 434.1584 436 433 434.70125 433 433 C 433 431.29875 434.1584 430 435.5 430 z M 74.5 431 C 75.841598 431 77 432.29875 77 434 C 77 435.70125 75.841598 437 74.5 437 C 73.158402 437 72 435.70125 72 434 C 72 432.29875 73.158402 431 74.5 431 z M 407 431 L 404 439 L 404 440 L 407 440 L 407 444 L 408 444 L 408 440 L 411 440 L 411 439 L 408 431 L 407 431 z M 41.5 432 C 39.527905 432 38 433.83548 38 436 C 38 437.97579 39.278087 439.65969 41 439.94141 L 41 445 L 42 445 L 42 439.94141 C 43.721913 439.65969 45 437.97579 45 436 C 45 433.83548 43.472095 432 41.5 432 z M 407.5 432 L 410 439 L 405 439 L 407.5 432 z M 41.5 433 C 42.841598 433 44 434.29875 44 436 C 44 437.70125 42.841598 439 41.5 439 C 40.158402 439 39 437.70125 39 436 C 39 434.29875 40.158402 433 41.5 433 z M 492 434 L 489 442 L 489 443 L 492 443 L 492 447 L 493 447 L 493 443 L 496 443 L 496 442 L 493 434 L 492 434 z M 492.5 435 L 495 442 L 490 442 L 492.5 435 z M 134.5 437 C 132.5279 437 131 438.83548 131 441 C 131 442.97579 132.27809 444.65969 134 444.94141 L 134 450 L 135 450 L 135 444.94141 C 136.72191 444.65969 138 442.97579 138 441 C 138 438.83548 136.47209 437 134.5 437 z M 134.5 438 C 135.8416 438 137 439.29875 137 441 C 137 442.70125 135.8416 444 134.5 444 C 133.1584 444 132 442.70125 132 441 C 132 439.29875 133.1584 438 134.5 438 z M 213.5 439 C 211.5279 439 210 440.83548 210 443 C 210 444.97579 211.27809 446.65969 213 446.94141 L 213 452 L 214 452 L 214 446.94141 C 215.72191 446.65969 217 444.97579 217 443 C 217 440.83548 215.47209 439 213.5 439 z M 213.5 440 C 214.8416 440 216 441.29875 216 443 C 216 444.70125 214.8416 446 213.5 446 C 212.1584 446 211 444.70125 211 443 C 211 441.29875 212.1584 440 213.5 440 z M 11.5 441 C 9.527905 441 8 442.83548 8 445 C 8 446.97579 9.278087 448.65969 11 448.94141 L 11 454 L 12 454 L 12 448.94141 C 13.721913 448.65969 15 446.97579 15 445 C 15 442.83548 13.472095 441 11.5 441 z M 11.5 442 C 12.841598 442 14 443.29875 14 445 C 14 446.70125 12.841598 448 11.5 448 C 10.158402 448 9 446.70125 9 445 C 9 443.29875 10.158402 442 11.5 442 z M 166.5 442 C 164.5279 442 163 443.83548 163 446 C 163 447.97579 164.27809 449.65969 166 449.94141 L 166 455 L 167 455 L 167 449.94141 C 168.72191 449.65969 170 447.97579 170 446 C 170 443.83548 168.47209 442 166.5 442 z M 462.5 442 C 460.5279 442 459 443.83548 459 446 C 459 447.97579 460.27809 449.65969 462 449.94141 L 462 455 L 463 455 L 463 449.94141 C 464.72191 449.65969 466 447.97579 466 446 C 466 443.83548 464.4721 442 462.5 442 z M 166.5 443 C 167.8416 443 169 444.29875 169 446 C 169 447.70125 167.8416 449 166.5 449 C 165.1584 449 164 447.70125 164 446 C 164 444.29875 165.1584 443 166.5 443 z M 462.5 443 C 463.8416 443 465 444.29875 465 446 C 465 447.70125 463.8416 449 462.5 449 C 461.1584 449 460 447.70125 460 446 C 460 444.29875 461.1584 443 462.5 443 z M 399 451 L 396 459 L 396 460 L 399 460 L 399 464 L 400 464 L 400 460 L 403 460 L 403 459 L 400 451 L 399 451 z M 399.5 452 L 402 459 L 397 459 L 399.5 452 z M 275.5 453 C 273.5279 453 272 454.83548 272 457 C 272 458.97579 273.27809 460.65969 275 460.94141 L 275 466 L 276 466 L 276 460.94141 C 277.72191 460.65969 279 458.97579 279 457 C 279 454.83548 277.4721 453 275.5 453 z M 275.5 454 C 276.8416 454 278 455.29875 278 457 C 278 458.70125 276.8416 460 275.5 460 C 274.1584 460 273 458.70125 273 457 C 273 455.29875 274.1584 454 275.5 454 z M 339 454 L 336 462 L 336 463 L 339 463 L 339 467 L 340 467 L 340 463 L 343 463 L 343 462 L 340 454 L 339 454 z M 70 455 L 67 463 L 67 464 L 70 464 L 70 468 L 71 468 L 71 464 L 74 464 L 74 463 L 71 455 L 70 455 z M 339.5 455 L 342 462 L 337 462 L 339.5 455 z M 70.5 456 L 73 463 L 68 463 L 70.5 456 z M 368.5 456 C 366.5279 456 365 457.83548 365 460 C 365 461.97579 366.27809 463.65969 368 463.94141 L 368 469 L 369 469 L 369 463.94141 C 370.72191 463.65969 372 461.97579 372 460 C 372 457.83548 370.4721 456 368.5 456 z M 368.5 457 C 369.8416 457 371 458.29875 371 460 C 371 461.70125 369.8416 463 368.5 463 C 367.1584 463 366 461.70125 366 460 C 366 458.29875 367.1584 457 368.5 457 z M 122.5 458 C 120.52791 458 119 459.83548 119 462 C 119 463.97579 120.27809 465.65969 122 465.94141 L 122 471 L 123 471 L 123 465.94141 C 124.72191 465.65969 126 463.97579 126 462 C 126 459.83548 124.47209 458 122.5 458 z M 122.5 459 C 123.8416 459 125 460.29875 125 462 C 125 463.70125 123.8416 465 122.5 465 C 121.1584 465 120 463.70125 120 462 C 120 460.29875 121.1584 459 122.5 459 z M 191 459 L 188 467 L 188 468 L 191 468 L 191 472 L 192 472 L 192 468 L 195 468 L 195 467 L 192 459 L 191 459 z M 240 459 L 237 467 L 237 468 L 240 468 L 240 472 L 241 472 L 241 468 L 244 468 L 244 467 L 241 459 L 240 459 z M 191.5 460 L 194 467 L 189 467 L 191.5 460 z M 240.5 460 L 243 467 L 238 467 L 240.5 460 z M 49.5 461 C 47.527905 461 46 462.83548 46 465 C 46 466.97579 47.278087 468.65969 49 468.94141 L 49 474 L 50 474 L 50 468.94141 C 51.721913 468.65969 53 466.97579 53 465 C 53 462.83548 51.472095 461 49.5 461 z M 49.5 462 C 50.841598 462 52 463.29875 52 465 C 52 466.70125 50.841598 468 49.5 468 C 48.158402 468 47 466.70125 47 465 C 47 463.29875 48.158402 462 49.5 462 z M 304.5 464 C 302.5279 464 301 465.83548 301 468 C 301 469.97579 302.27809 471.65969 304 471.94141 L 304 477 L 305 477 L 305 471.94141 C 306.72191 471.65969 308 469.97579 308 468 C 308 465.83548 306.4721 464 304.5 464 z M 304.5 465 C 305.8416 465 307 466.29875 307 468 C 307 469.70125 305.8416 471 304.5 471 C 303.1584 471 302 469.70125 302 468 C 302 466.29875 303.1584 465 304.5 465 z M 438 465 L 435 473 L 435 474 L 438 474 L 438 478 L 439 478 L 439 474 L 442 474 L 442 473 L 439 465 L 438 465 z M 500 465 L 497 473 L 497 474 L 500 474 L 500 478 L 501 478 L 501 474 L 504 474 L 504 473 L 501 465 L 500 465 z M 438.5 466 L 441 473 L 436 473 L 438.5 466 z M 500.5 466 L 503 473 L 498 473 L 500.5 466 z M 153.5 468 C 151.5279 468 150 469.83548 150 472 C 150 473.97579 151.27809 475.65969 153 475.94141 L 153 481 L 154 481 L 154 475.94141 C 155.72191 475.65969 157 473.97579 157 472 C 157 469.83548 155.47209 468 153.5 468 z M 153.5 469 C 154.8416 469 156 470.29875 156 472 C 156 473.70125 154.8416 475 153.5 475 C 152.1584 475 151 473.70125 151 472 C 151 470.29875 152.1584 469 153.5 469 z M 94.5 470 C 92.527905 470 91 471.83548 91 474 C 91 475.97579 92.278087 477.65969 94 477.94141 L 94 483 L 95 483 L 95 477.94141 C 96.721913 477.65969 98 475.97579 98 474 C 98 471.83548 96.472095 470 94.5 470 z M 94.5 471 C 95.841598 471 97 472.29875 97 474 C 97 475.70125 95.841598 477 94.5 477 C 93.158402 477 92 475.70125 92 474 C 92 472.29875 93.158402 471 94.5 471 z M 472.5 471 C 470.5279 471 469 472.83548 469 475 C 469 476.97579 470.27809 478.65969 472 478.94141 L 472 484 L 473 484 L 473 478.94141 C 474.72191 478.65969 476 476.97579 476 475 C 476 472.83548 474.4721 471 472.5 471 z M 409 472 L 406 480 L 406 481 L 409 481 L 409 485 L 410 485 L 410 481 L 413 481 L 413 480 L 410 472 L 409 472 z M 472.5 472 C 473.8416 472 475 473.29875 475 475 C 475 476.70125 473.8416 478 472.5 478 C 471.1584 478 470 476.70125 470 475 C 470 473.29875 471.1584 472 472.5 472 z M 409.5 473 L 412 480 L 407 480 L 409.5 473 z M 28 474 L 25 482 L 25 483 L 28 483 L 28 487 L 29 487 L 29 483 L 32 483 L 32 482 L 29 474 L 28 474 z M 28.5 475 L 31 482 L 26 482 L 28.5 475 z M 216 475 L 213 483 L 213 484 L 216 484 L 216 488 L 217 488 L 217 484 L 220 484 L 220 483 L 217 475 L 216 475 z M 216.5 476 L 219 483 L 214 483 L 216.5 476 z M 258 483 L 255 491 L 255 492 L 258 492 L 258 496 L 259 496 L 259 492 L 262 492 L 262 491 L 259 483 L 258 483 z M 350.5 483 C 348.5279 483 347 484.83548 347 487 C 347 488.97579 348.27809 490.65969 350 490.94141 L 350 496 L 351 496 L 351 490.94141 C 352.72191 490.65969 354 488.97579 354 487 C 354 484.83548 352.4721 483 350.5 483 z M 181 484 L 178 492 L 178 493 L 181 493 L 181 497 L 182 497 L 182 493 L 185 493 L 185 492 L 182 484 L 181 484 z M 258.5 484 L 261 491 L 256 491 L 258.5 484 z M 350.5 484 C 351.8416 484 353 485.29875 353 487 C 353 488.70125 351.8416 490 350.5 490 C 349.1584 490 348 488.70125 348 487 C 348 485.29875 349.1584 484 350.5 484 z M 181.5 485 L 184 492 L 179 492 L 181.5 485 z M 286 486 L 283 494 L 283 495 L 286 495 L 286 499 L 287 499 L 287 495 L 290 495 L 290 494 L 287 486 L 286 486 z M 286.5 487 L 289 494 L 284 494 L 286.5 487 z M 13.5 489 C 11.527905 489 10 490.83548 10 493 C 10 494.97579 11.278087 496.65969 13 496.94141 L 13 502 L 14 502 L 14 496.94141 C 15.721913 496.65969 17 494.97579 17 493 C 17 490.83548 15.472095 489 13.5 489 z M 117 489 L 114 497 L 114 498 L 117 498 L 117 502 L 118 502 L 118 498 L 121 498 L 121 497 L 118 489 L 117 489 z M 380 489 L 377 497 L 377 498 L 380 498 L 380 502 L 381 502 L 381 498 L 384 498 L 384 497 L 381 489 L 380 489 z M 13.5 490 C 14.841598 490 16 491.29875 16 493 C 16 494.70125 14.841598 496 13.5 496 C 12.158402 496 11 494.70125 11 493 C 11 491.29875 12.158402 490 13.5 490 z M 117.5 490 L 120 497 L 115 497 L 117.5 490 z M 380.5 490 L 383 497 L 378 497 L 380.5 490 z M 321 493 L 318 501 L 318 502 L 321 502 L 321 506 L 322 506 L 322 502 L 325 502 L 325 501 L 322 493 L 321 493 z M 75.5 494 C 73.527905 494 72 495.83548 72 498 C 72 499.97579 73.278087 501.65969 75 501.94141 L 75 507 L 76 507 L 76 501.94141 C 77.721913 501.65969 79 499.97579 79 498 C 79 495.83548 77.472095 494 75.5 494 z M 321.5 494 L 324 501 L 319 501 L 321.5 494 z M 46 495 L 43 503 L 43 504 L 46 504 L 46 508 L 47 508 L 47 504 L 50 504 L 50 503 L 47 495 L 46 495 z M 75.5 495 C 76.841598 495 78 496.29875 78 498 C 78 499.70125 76.841598 501 75.5 501 C 74.158402 501 73 499.70125 73 498 C 73 496.29875 74.158402 495 75.5 495 z M 46.5 496 L 49 503 L 44 503 L 46.5 496 z M 235.5 496 C 233.5279 496 232 497.83548 232 500 C 232 501.97579 233.27809 503.65969 235 503.94141 L 235 509 L 236 509 L 236 503.94141 C 237.72191 503.65969 239 501.97579 239 500 C 239 497.83548 237.47209 496 235.5 496 z M 443.5 496 C 441.5279 496 440 497.83548 440 500 C 440 501.97579 441.27809 503.65969 443 503.94141 L 443 509 L 444 509 L 444 503.94141 C 445.72191 503.65969 447 501.97579 447 500 C 447 497.83548 445.4721 496 443.5 496 z M 235.5 497 C 236.8416 497 238 498.29875 238 500 C 238 501.70125 236.8416 503 235.5 503 C 234.1584 503 233 501.70125 233 500 C 233 498.29875 234.1584 497 235.5 497 z M 443.5 497 C 444.8416 497 446 498.29875 446 500 C 446 501.70125 444.8416 503 443.5 503 C 442.1584 503 441 501.70125 441 500 C 441 498.29875 442.1584 497 443.5 497 z M 491 497 L 488 505 L 488 506 L 491 506 L 491 510 L 492 510 L 492 506 L 495 506 L 495 505 L 492 497 L 491 497 z M 154.5 498 C 152.5279 498 151 499.83548 151 502 C 151 503.97579 152.27809 505.65969 154 505.94141 L 154 511 L 155 511 L 155 505.94141 C 156.72191 505.65969 158 503.97579 158 502 C 158 499.83548 156.47209 498 154.5 498 z M 415 498 L 412 506 L 412 507 L 415 507 L 415 511 L 416 511 L 416 507 L 419 507 L 419 506 L 416 498 L 415 498 z M 491.5 498 L 494 505 L 489 505 L 491.5 498 z M 154.5 499 C 155.8416 499 157 500.29875 157 502 C 157 503.70125 155.8416 505 154.5 505 C 153.1584 505 152 503.70125 152 502 C 152 500.29875 153.1584 499 154.5 499 z M 415.5 499 L 418 506 L 413 506 L 415.5 499 z M 130 510 L 129.25 512 L 130.14258 512 L 130.5 511 L 130.85742 512 L 131.75 512 L 131 510 L 130 510 z M 201 510 L 200.25 512 L 201.14258 512 L 201.5 511 L 201.85742 512 L 202.75 512 L 202 510 L 201 510 z M 6.5 511 C 5.6080712 511 4.816981 511.38846 4.2070312 512 L 6.5 512 L 8.7929688 512 C 8.183019 511.38846 7.3919288 511 6.5 511 z "
     style="fill:#6b8d5e" />
  <rect
     style="fill:none;fill-opacity:1;stroke:none"
     id="rect8566"
     y="0"
     x="0"
     rx="0"
     height="512"
     width="512" />
  <desc
     id="desc921">Created with Snap</desc>
</svg>
