<?xml version="1.0" encoding="UTF-8" standalone="no"?>
<svg
   xmlns:dc="http://purl.org/dc/elements/1.1/"
   xmlns:cc="http://creativecommons.org/ns#"
   xmlns:rdf="http://www.w3.org/1999/02/22-rdf-syntax-ns#"
   xmlns:svg="http://www.w3.org/2000/svg"
   xmlns="http://www.w3.org/2000/svg"
   version="1.1"
   height="512"
   width="512"
   id="Svg">
  <metadata
     id="metadata922">
    <rdf:RDF>
      <cc:Work
         rdf:about="">
        <dc:format>image/svg+xml</dc:format>
        <dc:type
           rdf:resource="http://purl.org/dc/dcmitype/StillImage" />
      </cc:Work>
    </rdf:RDF>
  </metadata>
  <defs
     id="defs3" />
  <path
     id="path7313"
     d="M 3.5878906 0 C 2.480461 1.5830168 2.9510404 4.5264749 5 4.9433594 L 5 9 L 6 9 L 6 4.9433594 C 8.0489596 4.5264749 8.519539 1.5830168 7.4121094 0 L 5.5 0 C 7.4999991 0 7.4999991 4 5.5 4 C 3.5000009 4 3.5000009 0 5.5 0 L 3.5878906 0 z M 87.5 0 C 84.344445 0 84.181035 5.3698086 87 5.9433594 L 87 10 L 88 10 L 88 5.9433594 C 90.818965 5.3698086 90.655555 0 87.5 0 z M 127.13477 0 C 126.71172 1.5936682 127.33248 3.604084 129 3.9433594 L 129 8 L 130 8 L 130 3.9433594 C 131.66752 3.604084 132.28828 1.5936682 131.86523 0 L 130.81445 0 C 131.28394 1.1847382 130.84823 3 129.5 3 C 128.15177 3 127.71606 1.1847382 128.18555 0 L 127.13477 0 z M 198.13477 0 C 197.71172 1.5936682 198.33248 3.604084 200 3.9433594 L 200 8 L 201 8 L 201 3.9433594 C 202.66752 3.604084 203.28828 1.5936682 202.86523 0 L 201.81445 0 C 202.28394 1.1847382 201.84823 3 200.5 3 C 199.15177 3 198.71606 1.1847382 199.18555 0 L 198.13477 0 z M 87.5 1 C 89.499999 1 89.499999 5 87.5 5 C 85.500001 5 85.500001 1 87.5 1 z M 464.5 1 C 461.34445 1 461.18104 6.3698086 464 6.9433594 L 464 11 L 465 11 L 465 6.9433594 C 467.81896 6.3698086 467.65555 1 464.5 1 z M 464.5 2 C 466.5 2 466.5 6 464.5 6 C 462.5 6 462.5 2 464.5 2 z M 342.5 3 C 339.34445 3 339.18104 8.3698086 342 8.9433594 L 342 13 L 343 13 L 343 8.9433594 C 345.81896 8.3698086 345.65555 3 342.5 3 z M 264.5 4 C 261.34445 4 261.18104 9.3698086 264 9.9433594 L 264 14 L 265 14 L 265 9.9433594 C 267.81896 9.3698086 267.65555 4 264.5 4 z M 294.5 4 C 291.34445 4 291.18104 9.3698086 294 9.9433594 L 294 14 L 295 14 L 295 9.9433594 C 297.81896 9.3698086 297.65555 4 294.5 4 z M 342.5 4 C 344.5 4 344.5 8 342.5 8 C 340.5 8 340.5 4 342.5 4 z M 264.5 5 C 266.5 5 266.5 9 264.5 9 C 262.5 9 262.5 5 264.5 5 z M 294.5 5 C 296.5 5 296.5 9 294.5 9 C 292.5 9 292.5 5 294.5 5 z M 402.5 7 C 399.34445 7 399.18104 12.369809 402 12.943359 L 402 17 L 403 17 L 403 12.943359 C 405.81896 12.369809 405.65555 7 402.5 7 z M 374.5 8 C 371.34445 8 371.18104 13.369809 374 13.943359 L 374 18 L 375 18 L 375 13.943359 C 377.81896 13.369809 377.65555 8 374.5 8 z M 402.5 8 C 404.5 8 404.5 12 402.5 12 C 400.5 12 400.5 8 402.5 8 z M 172.5 9 C 169.34445 9 169.18104 14.369809 172 14.943359 L 172 19 L 173 19 L 173 14.943359 C 175.81896 14.369809 175.65555 9 172.5 9 z M 374.5 9 C 376.5 9 376.5 13 374.5 13 C 372.5 13 372.5 9 374.5 9 z M 172.5 10 C 174.5 10 174.5 14 172.5 14 C 170.5 14 170.5 10 172.5 10 z M 232.5 10 C 229.34445 10 229.18104 15.369809 232 15.943359 L 232 20 L 233 20 L 233 15.943359 C 235.81896 15.369809 235.65555 10 232.5 10 z M 232.5 11 C 234.5 11 234.5 15 232.5 15 C 230.5 15 230.5 11 232.5 11 z M 34.5 16 C 31.344445 16 31.181035 21.369809 34 21.943359 L 34 26 L 35 26 L 35 21.943359 C 37.818965 21.369809 37.655555 16 34.5 16 z M 34.5 17 C 36.499999 17 36.499999 21 34.5 21 C 32.500001 21 32.500001 17 34.5 17 z M 67.5 17 C 64.344445 17 64.181035 22.369809 67 22.943359 L 67 27 L 68 27 L 68 22.943359 C 70.818965 22.369809 70.655555 17 67.5 17 z M 437.5 17 C 434.34445 17 434.18104 22.369809 437 22.943359 L 437 27 L 438 27 L 438 22.943359 C 440.81896 22.369809 440.65555 17 437.5 17 z M 496.5 17 C 493.34445 17 493.18104 22.369809 496 22.943359 L 496 27 L 497 27 L 497 22.943359 C 499.81896 22.369809 499.65555 17 496.5 17 z M 67.5 18 C 69.499999 18 69.499999 22 67.5 22 C 65.500001 22 65.500001 18 67.5 18 z M 437.5 18 C 439.5 18 439.5 22 437.5 22 C 435.5 22 435.5 18 437.5 18 z M 496.5 18 C 498.5 18 498.5 22 496.5 22 C 494.5 22 494.5 18 496.5 18 z M 316.5 23 C 313.34445 23 313.18104 28.369809 316 28.943359 L 316 33 L 317 33 L 317 28.943359 C 319.81896 28.369809 319.65555 23 316.5 23 z M 316.5 24 C 318.5 24 318.5 28 316.5 28 C 314.5 28 314.5 24 316.5 24 z M 204.5 26 C 201.34445 26 201.18104 31.369809 204 31.943359 L 204 36 L 205 36 L 205 31.943359 C 207.81896 31.369809 207.65555 26 204.5 26 z M 204.5 27 C 206.5 27 206.5 31 204.5 31 C 202.5 31 202.5 27 204.5 27 z M 142.5 31 C 139.34445 31 139.18104 36.369809 142 36.943359 L 142 41 L 143 41 L 143 36.943359 C 145.81896 36.369809 145.65555 31 142.5 31 z M 113.5 32 C 110.34445 32 110.18104 37.369809 113 37.943359 L 113 42 L 114 42 L 114 37.943359 C 116.81896 37.369809 116.65555 32 113.5 32 z M 142.5 32 C 144.5 32 144.5 36 142.5 36 C 140.5 36 140.5 32 142.5 32 z M 86.5 33 C 83.344445 33 83.181035 38.369809 86 38.943359 L 86 43 L 87 43 L 87 38.943359 C 89.818965 38.369809 89.655555 33 86.5 33 z M 113.5 33 C 115.5 33 115.5 37 113.5 37 C 111.5 37 111.5 33 113.5 33 z M 86.5 34 C 88.499999 34 88.499999 38 86.5 38 C 84.500001 38 84.500001 34 86.5 34 z M 348.5 34 C 345.34445 34 345.18104 39.369809 348 39.943359 L 348 44 L 349 44 L 349 39.943359 C 351.81896 39.369809 351.65555 34 348.5 34 z M 257.5 35 C 254.34445 35 254.18104 40.369809 257 40.943359 L 257 45 L 258 45 L 258 40.943359 C 260.81896 40.369809 260.65555 35 257.5 35 z M 286.5 35 C 283.34445 35 283.18104 40.369809 286 40.943359 L 286 45 L 287 45 L 287 40.943359 C 289.81896 40.369809 289.65555 35 286.5 35 z M 348.5 35 C 350.5 35 350.5 39 348.5 39 C 346.5 39 346.5 35 348.5 35 z M 257.5 36 C 259.5 36 259.5 40 257.5 40 C 255.5 40 255.5 36 257.5 36 z M 286.5 36 C 288.5 36 288.5 40 286.5 40 C 284.5 40 284.5 36 286.5 36 z M 462.5 36 C 459.34445 36 459.18104 41.369809 462 41.943359 L 462 46 L 463 46 L 463 41.943359 C 465.81896 41.369809 465.65555 36 462.5 36 z M 462.5 37 C 464.5 37 464.5 41 462.5 41 C 460.5 41 460.5 37 462.5 37 z M 11.5 38 C 8.3444448 38 8.1810354 43.369809 11 43.943359 L 11 48 L 12 48 L 12 43.943359 C 14.818965 43.369809 14.655555 38 11.5 38 z M 377.5 38 C 374.34445 38 374.18104 43.369809 377 43.943359 L 377 48 L 378 48 L 378 43.943359 C 380.81896 43.369809 380.65555 38 377.5 38 z M 407.5 38 C 404.34445 38 404.18104 43.369809 407 43.943359 L 407 48 L 408 48 L 408 43.943359 C 410.81896 43.369809 410.65555 38 407.5 38 z M 11.5 39 C 13.499999 39 13.499999 43 11.5 43 C 9.5000009 43 9.5000009 39 11.5 39 z M 175.5 39 C 172.34445 39 172.18104 44.369809 175 44.943359 L 175 49 L 176 49 L 176 44.943359 C 178.81896 44.369809 178.65555 39 175.5 39 z M 377.5 39 C 379.5 39 379.5 43 377.5 43 C 375.5 43 375.5 39 377.5 39 z M 407.5 39 C 409.5 39 409.5 43 407.5 43 C 405.5 43 405.5 39 407.5 39 z M 175.5 40 C 177.5 40 177.5 44 175.5 44 C 173.5 44 173.5 40 175.5 40 z M 50.5 41 C 47.344445 41 47.181035 46.369809 50 46.943359 L 50 51 L 51 51 L 51 46.943359 C 53.818965 46.369809 53.655555 41 50.5 41 z M 50.5 42 C 52.499999 42 52.499999 46 50.5 46 C 48.500001 46 48.500001 42 50.5 42 z M 230.5 46 C 227.34445 46 227.18104 51.369809 230 51.943359 L 230 56 L 231 56 L 231 51.943359 C 233.81896 51.369809 233.65555 46 230.5 46 z M 230.5 47 C 232.5 47 232.5 51 230.5 51 C 228.5 51 228.5 47 230.5 47 z M 434.5 47 C 431.34445 47 431.18104 52.369809 434 52.943359 L 434 57 L 435 57 L 435 52.943359 C 437.81896 52.369809 437.65555 47 434.5 47 z M 434.5 48 C 436.5 48 436.5 52 434.5 52 C 432.5 52 432.5 48 434.5 48 z M 495.5 49 C 492.34445 49 492.18104 54.369809 495 54.943359 L 495 59 L 496 59 L 496 54.943359 C 498.81896 54.369809 498.65555 49 495.5 49 z M 495.5 50 C 497.5 50 497.5 54 495.5 54 C 493.5 54 493.5 50 495.5 50 z M 316.5 54 C 313.34445 54 313.18104 59.369809 316 59.943359 L 316 64 L 317 64 L 317 59.943359 C 319.81896 59.369809 319.65555 54 316.5 54 z M 316.5 55 C 318.5 55 318.5 59 316.5 59 C 314.5 59 314.5 55 316.5 55 z M 33.5 59 C 30.344445 59 30.181035 64.369809 33 64.943359 L 33 69 L 34 69 L 34 64.943359 C 36.818965 64.369809 36.655555 59 33.5 59 z M 112.5 59 C 109.34445 59 109.18104 64.369809 112 64.943359 L 112 69 L 113 69 L 113 64.943359 C 115.81896 64.369809 115.65555 59 112.5 59 z M 33.5 60 C 35.499999 60 35.499999 64 33.5 64 C 31.500001 64 31.500001 60 33.5 60 z M 112.5 60 C 114.5 60 114.5 64 112.5 64 C 110.5 64 110.5 60 112.5 60 z M 141.5 62 C 138.34445 62 138.18104 67.369809 141 67.943359 L 141 72 L 142 72 L 142 67.943359 C 144.81896 67.369809 144.65555 62 141.5 62 z M 199.5 62 C 196.34445 62 196.18104 67.369809 199 67.943359 L 199 72 L 200 72 L 200 67.943359 C 202.81896 67.369809 202.65555 62 199.5 62 z M 141.5 63 C 143.5 63 143.5 67 141.5 67 C 139.5 67 139.5 63 141.5 63 z M 199.5 63 C 201.5 63 201.5 67 199.5 67 C 197.5 67 197.5 63 199.5 63 z M 77.5 64 C 74.344445 64 74.181035 69.369809 77 69.943359 L 77 74 L 78 74 L 78 69.943359 C 80.818965 69.369809 80.655555 64 77.5 64 z M 77.5 65 C 79.499999 65 79.499999 69 77.5 69 C 75.500001 69 75.500001 65 77.5 65 z M 376.5 65 C 373.34445 65 373.18104 70.369809 376 70.943359 L 376 75 L 377 75 L 377 70.943359 C 379.81896 70.369809 379.65555 65 376.5 65 z M 465.5 65 C 462.34445 65 462.18104 70.369809 465 70.943359 L 465 75 L 466 75 L 466 70.943359 C 468.81896 70.369809 468.65555 65 465.5 65 z M 263.5 66 C 260.34445 66 260.18104 71.369809 263 71.943359 L 263 76 L 264 76 L 264 71.943359 C 266.81896 71.369809 266.65555 66 263.5 66 z M 342.5 66 C 339.34445 66 339.18104 71.369809 342 71.943359 L 342 76 L 343 76 L 343 71.943359 C 345.81896 71.369809 345.65555 66 342.5 66 z M 376.5 66 C 378.5 66 378.5 70 376.5 70 C 374.5 70 374.5 66 376.5 66 z M 465.5 66 C 467.5 66 467.5 70 465.5 70 C 463.5 70 463.5 66 465.5 66 z M 263.5 67 C 265.5 67 265.5 71 263.5 71 C 261.5 71 261.5 67 263.5 67 z M 342.5 67 C 344.5 67 344.5 71 342.5 71 C 340.5 71 340.5 67 342.5 67 z M 170.5 68 C 167.34445 68 167.18104 73.369809 170 73.943359 L 170 78 L 171 78 L 171 73.943359 C 173.81896 73.369809 173.65555 68 170.5 68 z M 294.5 68 C 291.34445 68 291.18104 73.369809 294 73.943359 L 294 78 L 295 78 L 295 73.943359 C 297.81896 73.369809 297.65555 68 294.5 68 z M 170.5 69 C 172.5 69 172.5 73 170.5 73 C 168.5 73 168.5 69 170.5 69 z M 294.5 69 C 296.5 69 296.5 73 294.5 73 C 292.5 73 292.5 69 294.5 69 z M 404.5 71 C 401.34445 71 401.18104 76.369809 404 76.943359 L 404 81 L 405 81 L 405 76.943359 C 407.81896 76.369809 407.65555 71 404.5 71 z M 3.5 72 C 0.34444477 72 0.18103537 77.369809 3 77.943359 L 3 82 L 4 82 L 4 77.943359 C 6.8189646 77.369809 6.6555552 72 3.5 72 z M 404.5 72 C 406.5 72 406.5 76 404.5 76 C 402.5 76 402.5 72 404.5 72 z M 3.5 73 C 5.4999991 73 5.4999991 77 3.5 77 C 1.5000009 77 1.5000009 73 3.5 73 z M 230.5 74 C 227.34445 74 227.18104 79.369809 230 79.943359 L 230 84 L 231 84 L 231 79.943359 C 233.81896 79.369809 233.65555 74 230.5 74 z M 230.5 75 C 232.5 75 232.5 79 230.5 79 C 228.5 79 228.5 75 230.5 75 z M 438.5 78 C 435.34445 78 435.18104 83.369809 438 83.943359 L 438 88 L 439 88 L 439 83.943359 C 441.81896 83.369809 441.65555 78 438.5 78 z M 438.5 79 C 440.5 79 440.5 83 438.5 83 C 436.5 83 436.5 79 438.5 79 z M 53.5 83 C 50.344445 83 50.181035 88.369809 53 88.943359 L 53 93 L 54 93 L 54 88.943359 C 56.818965 88.369809 56.655555 83 53.5 83 z M 53.5 84 C 55.499999 84 55.499999 88 53.5 88 C 51.500001 88 51.500001 84 53.5 84 z M 487.5 85 C 484.34445 85 484.18104 90.369809 487 90.943359 L 487 95 L 488 95 L 488 90.943359 C 490.81896 90.369809 490.65555 85 487.5 85 z M 487.5 86 C 489.5 86 489.5 90 487.5 90 C 485.5 90 485.5 86 487.5 86 z M 201.5 90 C 198.34445 90 198.18104 95.369809 201 95.943359 L 201 100 L 202 100 L 202 95.943359 C 204.81896 95.369809 204.65555 90 201.5 90 z M 88.5 91 C 85.344445 91 85.181035 96.369809 88 96.943359 L 88 101 L 89 101 L 89 96.943359 C 91.818965 96.369809 91.655555 91 88.5 91 z M 201.5 91 C 203.5 91 203.5 95 201.5 95 C 199.5 95 199.5 91 201.5 91 z M 318.5 91 C 315.34445 91 315.18104 96.369809 318 96.943359 L 318 101 L 319 101 L 319 96.943359 C 321.81896 96.369809 321.65555 91 318.5 91 z M 88.5 92 C 90.499999 92 90.499999 96 88.5 96 C 86.500001 96 86.500001 92 88.5 92 z M 117.5 92 C 114.34445 92 114.18104 97.369809 117 97.943359 L 117 102 L 118 102 L 118 97.943359 C 120.81896 97.369809 120.65555 92 117.5 92 z M 318.5 92 C 320.5 92 320.5 96 318.5 96 C 316.5 96 316.5 92 318.5 92 z M 117.5 93 C 119.5 93 119.5 97 117.5 97 C 115.5 97 115.5 93 117.5 93 z M 363.5 94 C 360.34445 94 360.18104 99.369809 363 99.943359 L 363 104 L 364 104 L 364 99.943359 C 366.81896 99.369809 366.65555 94 363.5 94 z M 144.5 95 C 141.34445 95 141.18104 100.36981 144 100.94336 L 144 105 L 145 105 L 145 100.94336 C 147.81896 100.36981 147.65555 95 144.5 95 z M 363.5 95 C 365.5 95 365.5 99 363.5 99 C 361.5 99 361.5 95 363.5 95 z M 144.5 96 C 146.5 96 146.5 100 144.5 100 C 142.5 100 142.5 96 144.5 96 z M 278.5 96 C 275.34445 96 275.18104 101.36981 278 101.94336 L 278 106 L 279 106 L 279 101.94336 C 281.81896 101.36981 281.65555 96 278.5 96 z M 278.5 97 C 280.5 97 280.5 101 278.5 101 C 276.5 101 276.5 97 278.5 97 z M 23.5 99 C 20.344445 99 20.181035 104.36981 23 104.94336 L 23 109 L 24 109 L 24 104.94336 C 26.818965 104.36981 26.655555 99 23.5 99 z M 250.5 99 C 247.34445 99 247.18104 104.36981 250 104.94336 L 250 109 L 251 109 L 251 104.94336 C 253.81896 104.36981 253.65555 99 250.5 99 z M 23.5 100 C 25.499999 100 25.499999 104 23.5 104 C 21.500001 104 21.500001 100 23.5 100 z M 250.5 100 C 252.5 100 252.5 104 250.5 104 C 248.5 104 248.5 100 250.5 100 z M 396.5 101 C 393.34445 101 393.18104 106.36981 396 106.94336 L 396 111 L 397 111 L 397 106.94336 C 399.81896 106.36981 399.65555 101 396.5 101 z M 396.5 102 C 398.5 102 398.5 106 396.5 106 C 394.5 106 394.5 102 396.5 102 z M 460.5 102 C 457.34445 102 457.18104 107.36981 460 107.94336 L 460 112 L 461 112 L 461 107.94336 C 463.81896 107.36981 463.65555 102 460.5 102 z M 171.5 103 C 168.34445 103 168.18104 108.36981 171 108.94336 L 171 113 L 172 113 L 172 108.94336 C 174.81896 108.36981 174.65555 103 171.5 103 z M 460.5 103 C 462.5 103 462.5 107 460.5 107 C 458.5 107 458.5 103 460.5 103 z M 171.5 104 C 173.5 104 173.5 108 171.5 108 C 169.5 108 169.5 104 171.5 104 z M 426.5 105 C 423.34445 105 423.18104 110.36981 426 110.94336 L 426 115 L 427 115 L 427 110.94336 C 429.81896 110.36981 429.65555 105 426.5 105 z M 426.5 106 C 428.5 106 428.5 110 426.5 110 C 424.5 110 424.5 106 426.5 106 z M 73.5 108 C 70.344445 108 70.181035 113.36981 73 113.94336 L 73 118 L 74 118 L 74 113.94336 C 76.818965 113.36981 76.655555 108 73.5 108 z M 73.5 109 C 75.499999 109 75.499999 113 73.5 113 C 71.500001 113 71.500001 109 73.5 109 z M 219.5 109 C 216.34445 109 216.18104 114.36981 219 114.94336 L 219 119 L 220 119 L 220 114.94336 C 222.81896 114.36981 222.65555 109 219.5 109 z M 219.5 110 C 221.5 110 221.5 114 219.5 114 C 217.5 114 217.5 110 219.5 110 z M 509.5 110 C 506.34445 110 506.18104 115.36981 509 115.94336 L 509 120 L 510 120 L 510 115.94336 C 511.33007 115.67274 512 114.34 512 113 C 512 111.5 511.16667 110 509.5 110 z M 509.5 111 C 511.5 111 511.5 115 509.5 115 C 507.5 115 507.5 111 509.5 111 z M 339.5 114 C 336.34445 114 336.18104 119.36981 339 119.94336 L 339 124 L 340 124 L 340 119.94336 C 342.81896 119.36981 342.65555 114 339.5 114 z M 339.5 115 C 341.5 115 341.5 119 339.5 119 C 337.5 119 337.5 115 339.5 115 z M 304.5 117 C 301.34445 117 301.18104 122.36981 304 122.94336 L 304 127 L 305 127 L 305 122.94336 C 307.81896 122.36981 307.65555 117 304.5 117 z M 304.5 118 C 306.5 118 306.5 122 304.5 122 C 302.5 122 302.5 118 304.5 118 z M 46.5 120 C 43.344445 120 43.181035 125.36981 46 125.94336 L 46 130 L 47 130 L 47 125.94336 C 49.818965 125.36981 49.655555 120 46.5 120 z M 46.5 121 C 48.499999 121 48.499999 125 46.5 125 C 44.500001 125 44.500001 121 46.5 121 z M 110.5 123 C 107.34445 123 107.18104 128.36981 110 128.94336 L 110 133 L 111 133 L 111 128.94336 C 113.81896 128.36981 113.65555 123 110.5 123 z M 110.5 124 C 112.5 124 112.5 128 110.5 128 C 108.5 128 108.5 124 110.5 124 z M 367.5 124 C 364.34445 124 364.18104 129.36981 367 129.94336 L 367 134 L 368 134 L 368 129.94336 C 370.81896 129.36981 370.65555 124 367.5 124 z M 141.5 125 C 138.34445 125 138.18104 130.36981 141 130.94336 L 141 135 L 142 135 L 142 130.94336 C 144.81896 130.36981 144.65555 125 141.5 125 z M 367.5 125 C 369.5 125 369.5 129 367.5 129 C 365.5 129 365.5 125 367.5 125 z M 480.5 125 C 477.34445 125 477.18104 130.36981 480 130.94336 L 480 135 L 481 135 L 481 130.94336 C 483.81896 130.36981 483.65555 125 480.5 125 z M 141.5 126 C 143.5 126 143.5 130 141.5 130 C 139.5 130 139.5 126 141.5 126 z M 192.5 126 C 189.34445 126 189.18104 131.36981 192 131.94336 L 192 136 L 193 136 L 193 131.94336 C 195.81896 131.36981 195.65555 126 192.5 126 z M 480.5 126 C 482.5 126 482.5 130 480.5 130 C 478.5 130 478.5 126 480.5 126 z M 192.5 127 C 194.5 127 194.5 131 192.5 131 C 190.5 131 190.5 127 192.5 127 z M 251.5 129 C 248.34445 129 248.18104 134.36981 251 134.94336 L 251 139 L 252 139 L 252 134.94336 C 254.81896 134.36981 254.65555 129 251.5 129 z M 251.5 130 C 253.5 130 253.5 134 251.5 134 C 249.5 134 249.5 130 251.5 130 z M 279.5 130 C 276.34445 130 276.18104 135.36981 279 135.94336 L 279 140 L 280 140 L 280 135.94336 C 282.81896 135.36981 282.65555 130 279.5 130 z M 431.5 130 C 428.34445 130 428.18104 135.36981 431 135.94336 L 431 140 L 432 140 L 432 135.94336 C 434.81896 135.36981 434.65555 130 431.5 130 z M 279.5 131 C 281.5 131 281.5 135 279.5 135 C 277.5 135 277.5 131 279.5 131 z M 401.5 131 C 398.34445 131 398.18104 136.36981 401 136.94336 L 401 141 L 402 141 L 402 136.94336 C 404.81896 136.36981 404.65555 131 401.5 131 z M 431.5 131 C 433.5 131 433.5 135 431.5 135 C 429.5 135 429.5 131 431.5 131 z M 401.5 132 C 403.5 132 403.5 136 401.5 136 C 399.5 136 399.5 132 401.5 132 z M 15.5 135 C 12.344445 135 12.181035 140.36981 15 140.94336 L 15 145 L 16 145 L 16 140.94336 C 18.818965 140.36981 18.655555 135 15.5 135 z M 15.5 136 C 17.499999 136 17.499999 140 15.5 140 C 13.500001 140 13.500001 136 15.5 136 z M 162.5 137 C 159.34445 137 159.18104 142.36981 162 142.94336 L 162 147 L 163 147 L 163 142.94336 C 165.81896 142.36981 165.65555 137 162.5 137 z M 219.5 137 C 216.34445 137 216.18104 142.36981 219 142.94336 L 219 147 L 220 147 L 220 142.94336 C 222.81896 142.36981 222.65555 137 219.5 137 z M 162.5 138 C 164.5 138 164.5 142 162.5 142 C 160.5 142 160.5 138 162.5 138 z M 219.5 138 C 221.5 138 221.5 142 219.5 142 C 217.5 142 217.5 138 219.5 138 z M 452.5 139 C 449.34445 139 449.18104 144.36981 452 144.94336 L 452 149 L 453 149 L 453 144.94336 C 455.81896 144.36981 455.65555 139 452.5 139 z M 452.5 140 C 454.5 140 454.5 144 452.5 144 C 450.5 144 450.5 140 452.5 140 z M 79.5 141 C 76.344445 141 76.181035 146.36981 79 146.94336 L 79 151 L 80 151 L 80 146.94336 C 82.818965 146.36981 82.655555 141 79.5 141 z M 321.5 141 C 318.34445 141 318.18104 146.36981 321 146.94336 L 321 151 L 322 151 L 322 146.94336 C 324.81896 146.36981 324.65555 141 321.5 141 z M 79.5 142 C 81.499999 142 81.499999 146 79.5 146 C 77.500001 146 77.500001 142 79.5 142 z M 321.5 142 C 323.5 142 323.5 146 321.5 146 C 319.5 146 319.5 142 321.5 142 z M 499.5 146 C 496.34445 146 496.18104 151.36981 499 151.94336 L 499 156 L 500 156 L 500 151.94336 C 502.81896 151.36981 502.65555 146 499.5 146 z M 51.5 147 C 48.344445 147 48.181035 152.36981 51 152.94336 L 51 157 L 52 157 L 52 152.94336 C 54.818965 152.36981 54.655555 147 51.5 147 z M 348.5 147 C 345.34445 147 345.18104 152.36981 348 152.94336 L 348 157 L 349 157 L 349 152.94336 C 351.81896 152.36981 351.65555 147 348.5 147 z M 499.5 147 C 501.5 147 501.5 151 499.5 151 C 497.5 151 497.5 147 499.5 147 z M 51.5 148 C 53.499999 148 53.499999 152 51.5 152 C 49.500001 152 49.500001 148 51.5 148 z M 348.5 148 C 350.5 148 350.5 152 348.5 152 C 346.5 152 346.5 148 348.5 148 z M 101.5 154 C 98.344445 154 98.181035 159.36981 101 159.94336 L 101 164 L 102 164 L 102 159.94336 C 104.81896 159.36981 104.65555 154 101.5 154 z M 383.5 154 C 380.34445 154 380.18104 159.36981 383 159.94336 L 383 164 L 384 164 L 384 159.94336 C 386.81896 159.36981 386.65555 154 383.5 154 z M 101.5 155 C 103.5 155 103.5 159 101.5 159 C 99.500001 159 99.500001 155 101.5 155 z M 133.5 155 C 130.34445 155 130.18104 160.36981 133 160.94336 L 133 165 L 134 165 L 134 160.94336 C 136.81896 160.36981 136.65555 155 133.5 155 z M 383.5 155 C 385.5 155 385.5 159 383.5 159 C 381.5 159 381.5 155 383.5 155 z M 133.5 156 C 135.5 156 135.5 160 133.5 160 C 131.5 160 131.5 156 133.5 156 z M 259.5 156 C 256.34445 156 256.18104 161.36981 259 161.94336 L 259 166 L 260 166 L 260 161.94336 C 262.81896 161.36981 262.65555 156 259.5 156 z M 259.5 157 C 261.5 157 261.5 161 259.5 161 C 257.5 161 257.5 157 259.5 157 z M 195.5 160 C 192.34445 160 192.18104 165.36981 195 165.94336 L 195 170 L 196 170 L 196 165.94336 C 198.81896 165.36981 198.65555 160 195.5 160 z M 294.5 160 C 291.34445 160 291.18104 165.36981 294 165.94336 L 294 170 L 295 170 L 295 165.94336 C 297.81896 165.36981 297.65555 160 294.5 160 z M 468.5 160 C 465.34445 160 465.18104 165.36981 468 165.94336 L 468 170 L 469 170 L 469 165.94336 C 471.81896 165.36981 471.65555 160 468.5 160 z M 195.5 161 C 197.5 161 197.5 165 195.5 165 C 193.5 165 193.5 161 195.5 161 z M 294.5 161 C 296.5 161 296.5 165 294.5 165 C 292.5 165 292.5 161 294.5 161 z M 468.5 161 C 470.5 161 470.5 165 468.5 165 C 466.5 165 466.5 161 468.5 161 z M 19.5 163 C 16.344445 163 16.181035 168.36981 19 168.94336 L 19 173 L 20 173 L 20 168.94336 C 22.818965 168.36981 22.655555 163 19.5 163 z M 410.5 163 C 407.34445 163 407.18104 168.36981 410 168.94336 L 410 173 L 411 173 L 411 168.94336 C 413.81896 168.36981 413.65555 163 410.5 163 z M 19.5 164 C 21.499999 164 21.499999 168 19.5 168 C 17.500001 168 17.500001 164 19.5 164 z M 410.5 164 C 412.5 164 412.5 168 410.5 168 C 408.5 168 408.5 164 410.5 164 z M 162.5 167 C 159.34445 167 159.18104 172.36981 162 172.94336 L 162 177 L 163 177 L 163 172.94336 C 165.81896 172.36981 165.65555 167 162.5 167 z M 162.5 168 C 164.5 168 164.5 172 162.5 172 C 160.5 172 160.5 168 162.5 168 z M 229.5 170 C 226.34445 170 226.18104 175.36981 229 175.94336 L 229 180 L 230 180 L 230 175.94336 C 232.81896 175.36981 232.65555 170 229.5 170 z M 229.5 171 C 231.5 171 231.5 175 229.5 175 C 227.5 175 227.5 171 229.5 171 z M 71.5 172 C 68.344445 172 68.181035 177.36981 71 177.94336 L 71 182 L 72 182 L 72 177.94336 C 74.818965 177.36981 74.655555 172 71.5 172 z M 71.5 173 C 73.499999 173 73.499999 177 71.5 177 C 69.500001 177 69.500001 173 71.5 173 z M 505.5 174 C 502.34445 174 502.18104 179.36981 505 179.94336 L 505 184 L 506 184 L 506 179.94336 C 508.81896 179.36981 508.65555 174 505.5 174 z M 505.5 175 C 507.5 175 507.5 179 505.5 179 C 503.5 179 503.5 175 505.5 175 z M 356.5 176 C 353.34445 176 353.18104 181.36981 356 181.94336 L 356 186 L 357 186 L 357 181.94336 C 359.81896 181.36981 359.65555 176 356.5 176 z M 323.5 177 C 320.34445 177 320.18104 182.36981 323 182.94336 L 323 187 L 324 187 L 324 182.94336 C 326.81896 182.36981 326.65555 177 323.5 177 z M 356.5 177 C 358.5 177 358.5 181 356.5 181 C 354.5 181 354.5 177 356.5 177 z M 443.5 177 C 440.34445 177 440.18104 182.36981 443 182.94336 L 443 187 L 444 187 L 444 182.94336 C 446.81896 182.36981 446.65555 177 443.5 177 z M 323.5 178 C 325.5 178 325.5 182 323.5 182 C 321.5 182 321.5 178 323.5 178 z M 443.5 178 C 445.5 178 445.5 182 443.5 182 C 441.5 182 441.5 178 443.5 178 z M 254.5 183 C 251.34445 183 251.18104 188.36981 254 188.94336 L 254 193 L 255 193 L 255 188.94336 C 257.81896 188.36981 257.65555 183 254.5 183 z M 41.5 184 C 38.344445 184 38.181035 189.36981 41 189.94336 L 41 194 L 42 194 L 42 189.94336 C 44.818965 189.36981 44.655555 184 41.5 184 z M 128.5 184 C 125.34445 184 125.18104 189.36981 128 189.94336 L 128 194 L 129 194 L 129 189.94336 C 131.81896 189.36981 131.65555 184 128.5 184 z M 254.5 184 C 256.5 184 256.5 188 254.5 188 C 252.5 188 252.5 184 254.5 184 z M 41.5 185 C 43.499999 185 43.499999 189 41.5 189 C 39.500001 189 39.500001 185 41.5 185 z M 128.5 185 C 130.5 185 130.5 189 128.5 189 C 126.5 189 126.5 185 128.5 185 z M 386.5 185 C 383.34445 185 383.18104 190.36981 386 190.94336 L 386 195 L 387 195 L 387 190.94336 C 389.81896 190.36981 389.65555 185 386.5 185 z M 386.5 186 C 388.5 186 388.5 190 386.5 190 C 384.5 190 384.5 186 386.5 186 z M 469.5 188 C 466.34445 188 466.18104 193.36981 469 193.94336 L 469 198 L 470 198 L 470 193.94336 C 472.81896 193.36981 472.65555 188 469.5 188 z M 191.5 189 C 188.34445 189 188.18104 194.36981 191 194.94336 L 191 199 L 192 199 L 192 194.94336 C 194.81896 194.36981 194.65555 189 191.5 189 z M 280.5 189 C 277.34445 189 277.18104 194.36981 280 194.94336 L 280 199 L 281 199 L 281 194.94336 C 283.81896 194.36981 283.65555 189 280.5 189 z M 469.5 189 C 471.5 189 471.5 193 469.5 193 C 467.5 193 467.5 189 469.5 189 z M 98.5 190 C 95.344445 190 95.181035 195.36981 98 195.94336 L 98 200 L 99 200 L 99 195.94336 C 101.81896 195.36981 101.65555 190 98.5 190 z M 191.5 190 C 193.5 190 193.5 194 191.5 194 C 189.5 194 189.5 190 191.5 190 z M 280.5 190 C 282.5 190 282.5 194 280.5 194 C 278.5 194 278.5 190 280.5 190 z M 98.5 191 C 100.5 191 100.5 195 98.5 195 C 96.500001 195 96.500001 191 98.5 191 z M 418.5 193 C 415.34445 193 415.18104 198.36981 418 198.94336 L 418 203 L 419 203 L 419 198.94336 C 421.81896 198.36981 421.65555 193 418.5 193 z M 216.5 194 C 213.34445 194 213.18104 199.36981 216 199.94336 L 216 204 L 217 204 L 217 199.94336 C 219.81896 199.36981 219.65555 194 216.5 194 z M 418.5 194 C 420.5 194 420.5 198 418.5 198 C 416.5 198 416.5 194 418.5 194 z M 216.5 195 C 218.5 195 218.5 199 216.5 199 C 214.5 199 214.5 195 216.5 195 z M 308.5 197 C 305.34445 197 305.18104 202.36981 308 202.94336 L 308 207 L 309 207 L 309 202.94336 C 311.81896 202.36981 311.65555 197 308.5 197 z M 308.5 198 C 310.5 198 310.5 202 308.5 202 C 306.5 202 306.5 198 308.5 198 z M 14.5 199 C 11.344445 199 11.181035 204.36981 14 204.94336 L 14 209 L 15 209 L 15 204.94336 C 17.818965 204.36981 17.655555 199 14.5 199 z M 14.5 200 C 16.499999 200 16.499999 204 14.5 204 C 12.500001 204 12.500001 200 14.5 200 z M 161.5 201 C 158.34445 201 158.18104 206.36981 161 206.94336 L 161 211 L 162 211 L 162 206.94336 C 164.81896 206.36981 164.65555 201 161.5 201 z M 161.5 202 C 163.5 202 163.5 206 161.5 206 C 159.5 206 159.5 202 161.5 202 z M 342.5 203 C 339.34445 203 339.18104 208.36981 342 208.94336 L 342 213 L 343 213 L 343 208.94336 C 345.81896 208.36981 345.65555 203 342.5 203 z M 68.5 204 C 65.344445 204 65.181035 209.36981 68 209.94336 L 68 214 L 69 214 L 69 209.94336 C 71.818965 209.36981 71.655555 204 68.5 204 z M 342.5 204 C 344.5 204 344.5 208 342.5 208 C 340.5 208 340.5 204 342.5 204 z M 492.5 204 C 489.34445 204 489.18104 209.36981 492 209.94336 L 492 214 L 493 214 L 493 209.94336 C 495.81896 209.36981 495.65555 204 492.5 204 z M 68.5 205 C 70.499999 205 70.499999 209 68.5 209 C 66.500001 209 66.500001 205 68.5 205 z M 492.5 205 C 494.5 205 494.5 209 492.5 209 C 490.5 209 490.5 205 492.5 205 z M 251.5 211 C 248.34445 211 248.18104 216.36981 251 216.94336 L 251 221 L 252 221 L 252 216.94336 C 254.81896 216.36981 254.65555 211 251.5 211 z M 251.5 212 C 253.5 212 253.5 216 251.5 216 C 249.5 216 249.5 212 251.5 212 z M 370.5 213 C 367.34445 213 367.18104 218.36981 370 218.94336 L 370 223 L 371 223 L 371 218.94336 C 373.81896 218.36981 373.65555 213 370.5 213 z M 370.5 214 C 372.5 214 372.5 218 370.5 218 C 368.5 218 368.5 214 370.5 214 z M 112.5 215 C 109.34445 215 109.18104 220.36981 112 220.94336 L 112 225 L 113 225 L 113 220.94336 C 115.81896 220.36981 115.65555 215 112.5 215 z M 112.5 216 C 114.5 216 114.5 220 112.5 220 C 110.5 220 110.5 216 112.5 216 z M 404.5 218 C 401.34445 218 401.18104 223.36981 404 223.94336 L 404 228 L 405 228 L 405 223.94336 C 407.81896 223.36981 407.65555 218 404.5 218 z M 441.5 218 C 438.34445 218 438.18104 223.36981 441 223.94336 L 441 228 L 442 228 L 442 223.94336 C 444.81896 223.36981 444.65555 218 441.5 218 z M 136.5 219 C 133.34445 219 133.18104 224.36981 136 224.94336 L 136 229 L 137 229 L 137 224.94336 C 139.81896 224.36981 139.65555 219 136.5 219 z M 404.5 219 C 406.5 219 406.5 223 404.5 223 C 402.5 223 402.5 219 404.5 219 z M 441.5 219 C 443.5 219 443.5 223 441.5 223 C 439.5 223 439.5 219 441.5 219 z M 136.5 220 C 138.5 220 138.5 224 136.5 224 C 134.5 224 134.5 220 136.5 220 z M 311.5 221 C 308.34445 221 308.18104 226.36981 311 226.94336 L 311 231 L 312 231 L 312 226.94336 C 314.81896 226.36981 314.65555 221 311.5 221 z M 42.5 222 C 39.344445 222 39.181035 227.36981 42 227.94336 L 42 232 L 43 232 L 43 227.94336 C 45.818965 227.36981 45.655555 222 42.5 222 z M 193.5 222 C 190.34445 222 190.18104 227.36981 193 227.94336 L 193 232 L 194 232 L 194 227.94336 C 196.81896 227.36981 196.65555 222 193.5 222 z M 225.5 222 C 222.34445 222 222.18104 227.36981 225 227.94336 L 225 232 L 226 232 L 226 227.94336 C 228.81896 227.36981 228.65555 222 225.5 222 z M 311.5 222 C 313.5 222 313.5 226 311.5 226 C 309.5 226 309.5 222 311.5 222 z M 42.5 223 C 44.499999 223 44.499999 227 42.5 227 C 40.500001 227 40.500001 223 42.5 223 z M 193.5 223 C 195.5 223 195.5 227 193.5 227 C 191.5 227 191.5 223 193.5 223 z M 225.5 223 C 227.5 223 227.5 227 225.5 227 C 223.5 227 223.5 223 225.5 223 z M 467.5 224 C 464.34445 224 464.18104 229.36981 467 229.94336 L 467 234 L 468 234 L 468 229.94336 C 470.81896 229.36981 470.65555 224 467.5 224 z M 280.5 225 C 277.34445 225 277.18104 230.36981 280 230.94336 L 280 235 L 281 235 L 281 230.94336 C 283.81896 230.36981 283.65555 225 280.5 225 z M 467.5 225 C 469.5 225 469.5 229 467.5 229 C 465.5 229 465.5 225 467.5 225 z M 13.5 226 C 10.344445 226 10.181035 231.36981 13 231.94336 L 13 236 L 14 236 L 14 231.94336 C 16.818965 231.36981 16.655555 226 13.5 226 z M 280.5 226 C 282.5 226 282.5 230 280.5 230 C 278.5 230 278.5 226 280.5 226 z M 13.5 227 C 15.499999 227 15.499999 231 13.5 231 C 11.500001 231 11.500001 227 13.5 227 z M 83.5 229 C 80.344445 229 80.181035 234.36981 83 234.94336 L 83 239 L 84 239 L 84 234.94336 C 86.818965 234.36981 86.655555 229 83.5 229 z M 83.5 230 C 85.499999 230 85.499999 234 83.5 234 C 81.500001 234 81.500001 230 83.5 230 z M 164.5 231 C 161.34445 231 161.18104 236.36981 164 236.94336 L 164 241 L 165 241 L 165 236.94336 C 167.81896 236.36981 167.65555 231 164.5 231 z M 164.5 232 C 166.5 232 166.5 236 164.5 236 C 162.5 236 162.5 232 164.5 232 z M 501.5 234 C 498.34445 234 498.18104 239.36981 501 239.94336 L 501 244 L 502 244 L 502 239.94336 C 504.81896 239.36981 504.65555 234 501.5 234 z M 501.5 235 C 503.5 235 503.5 239 501.5 239 C 499.5 239 499.5 235 501.5 235 z M 342.5 238 C 339.34445 238 339.18104 243.36981 342 243.94336 L 342 248 L 343 248 L 343 243.94336 C 345.81896 243.36981 345.65555 238 342.5 238 z M 373.5 238 C 370.34445 238 370.18104 243.36981 373 243.94336 L 373 248 L 374 248 L 374 243.94336 C 376.81896 243.36981 376.65555 238 373.5 238 z M 342.5 239 C 344.5 239 344.5 243 342.5 243 C 340.5 243 340.5 239 342.5 239 z M 373.5 239 C 375.5 239 375.5 243 373.5 243 C 371.5 243 371.5 239 373.5 239 z M 432.5 240 C 429.34445 240 429.18104 245.36981 432 245.94336 L 432 250 L 433 250 L 433 245.94336 C 435.81896 245.36981 435.65555 240 432.5 240 z M 432.5 241 C 434.5 241 434.5 245 432.5 245 C 430.5 245 430.5 241 432.5 241 z M 61.5 244 C 58.344445 244 58.181035 249.36981 61 249.94336 L 61 254 L 62 254 L 62 249.94336 C 64.818965 249.36981 64.655555 244 61.5 244 z M 311.5 244 C 308.34445 244 308.18104 249.36981 311 249.94336 L 311 254 L 312 254 L 312 249.94336 C 314.81896 249.36981 314.65555 244 311.5 244 z M 61.5 245 C 63.499999 245 63.499999 249 61.5 249 C 59.500001 249 59.500001 245 61.5 245 z M 311.5 245 C 313.5 245 313.5 249 311.5 249 C 309.5 249 309.5 245 311.5 245 z M 403.5 246 C 400.34445 246 400.18104 251.36981 403 251.94336 L 403 256 L 404 256 L 404 251.94336 C 406.81896 251.36981 406.65555 246 403.5 246 z M 116.5 247 C 113.34445 247 113.18104 252.36981 116 252.94336 L 116 257 L 117 257 L 117 252.94336 C 119.81896 252.36981 119.65555 247 116.5 247 z M 252.5 247 C 249.34445 247 249.18104 252.36981 252 252.94336 L 252 257 L 253 257 L 253 252.94336 C 255.81896 252.36981 255.65555 247 252.5 247 z M 403.5 247 C 405.5 247 405.5 251 403.5 251 C 401.5 251 401.5 247 403.5 247 z M 116.5 248 C 118.5 248 118.5 252 116.5 252 C 114.5 252 114.5 248 116.5 248 z M 252.5 248 C 254.5 248 254.5 252 252.5 252 C 250.5 252 250.5 248 252.5 248 z M 201.5 250 C 198.34445 250 198.18104 255.36981 201 255.94336 L 201 260 L 202 260 L 202 255.94336 C 204.81896 255.36981 204.65555 250 201.5 250 z M 201.5 251 C 203.5 251 203.5 255 201.5 255 C 199.5 255 199.5 251 201.5 251 z M 459.5 251 C 456.34445 251 456.18104 256.36981 459 256.94336 L 459 261 L 460 261 L 460 256.94336 C 462.81896 256.36981 462.65555 251 459.5 251 z M 459.5 252 C 461.5 252 461.5 256 459.5 256 C 457.5 256 457.5 252 459.5 252 z M 36.5 257 C 33.344445 257 33.181035 262.36981 36 262.94336 L 36 267 L 37 267 L 37 262.94336 C 39.818965 262.36981 39.655555 257 36.5 257 z M 140.5 257 C 137.34445 257 137.18104 262.36981 140 262.94336 L 140 267 L 141 267 L 141 262.94336 C 143.81896 262.36981 143.65555 257 140.5 257 z M 225.5 257 C 222.34445 257 222.18104 262.36981 225 262.94336 L 225 267 L 226 267 L 226 262.94336 C 228.81896 262.36981 228.65555 257 225.5 257 z M 36.5 258 C 38.499999 258 38.499999 262 36.5 262 C 34.500001 262 34.500001 258 36.5 258 z M 140.5 258 C 142.5 258 142.5 262 140.5 262 C 138.5 262 138.5 258 140.5 258 z M 225.5 258 C 227.5 258 227.5 262 225.5 262 C 223.5 262 223.5 258 225.5 258 z M 289.5 258 C 286.34445 258 286.18104 263.36981 289 263.94336 L 289 268 L 290 268 L 290 263.94336 C 292.81896 263.36981 292.65555 258 289.5 258 z M 289.5 259 C 291.5 259 291.5 263 289.5 263 C 287.5 263 287.5 259 289.5 259 z M 7.5 262 C 4.3444448 262 4.1810354 267.36981 7 267.94336 L 7 272 L 8 272 L 8 267.94336 C 10.818965 267.36981 10.655555 262 7.5 262 z M 7.5 263 C 9.4999991 263 9.4999991 267 7.5 267 C 5.5000009 267 5.5000009 263 7.5 263 z M 177.5 263 C 174.34445 263 174.18104 268.36981 177 268.94336 L 177 273 L 178 273 L 178 268.94336 C 180.81896 268.36981 180.65555 263 177.5 263 z M 89.5 264 C 86.344445 264 86.181035 269.36981 89 269.94336 L 89 274 L 90 274 L 90 269.94336 C 92.818965 269.36981 92.655555 264 89.5 264 z M 177.5 264 C 179.5 264 179.5 268 177.5 268 C 175.5 268 175.5 264 177.5 264 z M 359.5 264 C 356.34445 264 356.18104 269.36981 359 269.94336 L 359 274 L 360 274 L 360 269.94336 C 362.81896 269.36981 362.65555 264 359.5 264 z M 89.5 265 C 91.499999 265 91.499999 269 89.5 269 C 87.500001 269 87.500001 265 89.5 265 z M 359.5 265 C 361.5 265 361.5 269 359.5 269 C 357.5 269 357.5 265 359.5 265 z M 487.5 266 C 484.34445 266 484.18104 271.36981 487 271.94336 L 487 276 L 488 276 L 488 271.94336 C 490.81896 271.36981 490.65555 266 487.5 266 z M 487.5 267 C 489.5 267 489.5 271 487.5 271 C 485.5 271 485.5 267 487.5 267 z M 323.5 272 C 320.34445 272 320.18104 277.36981 323 277.94336 L 323 282 L 324 282 L 324 277.94336 C 326.81896 277.36981 326.65555 272 323.5 272 z M 323.5 273 C 325.5 273 325.5 277 323.5 277 C 321.5 277 321.5 273 323.5 273 z M 260.5 275 C 257.34445 275 257.18104 280.36981 260 280.94336 L 260 285 L 261 285 L 261 280.94336 C 263.81896 280.36981 263.65555 275 260.5 275 z M 416.5 275 C 413.34445 275 413.18104 280.36981 416 280.94336 L 416 285 L 417 285 L 417 280.94336 C 419.81896 280.36981 419.65555 275 416.5 275 z M 260.5 276 C 262.5 276 262.5 280 260.5 280 C 258.5 280 258.5 276 260.5 276 z M 416.5 276 C 418.5 276 418.5 280 416.5 280 C 414.5 280 414.5 276 416.5 276 z M 115.5 279 C 112.34445 279 112.18104 284.36981 115 284.94336 L 115 289 L 116 289 L 116 284.94336 C 118.81896 284.36981 118.65555 279 115.5 279 z M 115.5 280 C 117.5 280 117.5 284 115.5 284 C 113.5 284 113.5 280 115.5 280 z M 386.5 280 C 383.34445 280 383.18104 285.36981 386 285.94336 L 386 290 L 387 290 L 387 285.94336 C 389.81896 285.36981 389.65555 280 386.5 280 z M 149.5 281 C 146.34445 281 146.18104 286.36981 149 286.94336 L 149 291 L 150 291 L 150 286.94336 C 152.81896 286.36981 152.65555 281 149.5 281 z M 386.5 281 C 388.5 281 388.5 285 386.5 285 C 384.5 285 384.5 281 386.5 281 z M 62.5 282 C 59.344445 282 59.181035 287.36981 62 287.94336 L 62 292 L 63 292 L 63 287.94336 C 65.818965 287.36981 65.655555 282 62.5 282 z M 149.5 282 C 151.5 282 151.5 286 149.5 286 C 147.5 286 147.5 282 149.5 282 z M 445.5 282 C 442.34445 282 442.18104 287.36981 445 287.94336 L 445 292 L 446 292 L 446 287.94336 C 448.81896 287.36981 448.65555 282 445.5 282 z M 62.5 283 C 64.499999 283 64.499999 287 62.5 287 C 60.500001 287 60.500001 283 62.5 283 z M 445.5 283 C 447.5 283 447.5 287 445.5 287 C 443.5 287 443.5 283 445.5 283 z M 200.5 284 C 197.34445 284 197.18104 289.36981 200 289.94336 L 200 294 L 201 294 L 201 289.94336 C 203.81896 289.36981 203.65555 284 200.5 284 z M 200.5 285 C 202.5 285 202.5 289 200.5 289 C 198.5 289 198.5 285 200.5 285 z M 237.5 285 C 234.34445 285 234.18104 290.36981 237 290.94336 L 237 295 L 238 295 L 238 290.94336 C 240.81896 290.36981 240.65555 285 237.5 285 z M 237.5 286 C 239.5 286 239.5 290 237.5 290 C 235.5 290 235.5 286 237.5 286 z M 30.5 287 C 27.344445 287 27.181035 292.36981 30 292.94336 L 30 297 L 31 297 L 31 292.94336 C 33.818965 292.36981 33.655555 287 30.5 287 z M 475.5 287 C 472.34445 287 472.18104 292.36981 475 292.94336 L 475 297 L 476 297 L 476 292.94336 C 478.81896 292.36981 478.65555 287 475.5 287 z M 30.5 288 C 32.499999 288 32.499999 292 30.5 292 C 28.500001 292 28.500001 288 30.5 288 z M 475.5 288 C 477.5 288 477.5 292 475.5 292 C 473.5 292 473.5 288 475.5 288 z M 356.5 289 C 353.34445 289 353.18104 294.36981 356 294.94336 L 356 299 L 357 299 L 357 294.94336 C 359.81896 294.36981 359.65555 289 356.5 289 z M 511.5 289 C 508.34445 289 508.18104 294.36981 511 294.94336 L 511 299 L 512 299 L 512 294.94336 L 512 293.89258 C 511.8486 293.95533 511.68599 294 511.5 294 C 509.5 294 509.5 290 511.5 290 C 511.68599 290 511.8486 290.04467 512 290.10742 L 512 289.05664 C 511.84119 289.02433 511.67778 289 511.5 289 z M 0 289.05664 L 0 290.10742 C 1.3252166 290.6567 1.3252166 293.3433 0 293.89258 L 0 294.94336 C 2.6601507 294.40212 2.6601507 289.59788 0 289.05664 z M 356.5 290 C 358.5 290 358.5 294 356.5 294 C 354.5 294 354.5 290 356.5 290 z M 284.5 295 C 281.34445 295 281.18104 300.36981 284 300.94336 L 284 305 L 285 305 L 285 300.94336 C 287.81896 300.36981 287.65555 295 284.5 295 z M 284.5 296 C 286.5 296 286.5 300 284.5 300 C 282.5 300 282.5 296 284.5 296 z M 87.5 297 C 84.344445 297 84.181035 302.36981 87 302.94336 L 87 307 L 88 307 L 88 302.94336 C 90.818965 302.36981 90.655555 297 87.5 297 z M 87.5 298 C 89.499999 298 89.499999 302 87.5 302 C 85.500001 302 85.500001 298 87.5 298 z M 174.5 298 C 171.34445 298 171.18104 303.36981 174 303.94336 L 174 308 L 175 308 L 175 303.94336 C 177.81896 303.36981 177.65555 298 174.5 298 z M 174.5 299 C 176.5 299 176.5 303 174.5 303 C 172.5 303 172.5 299 174.5 299 z M 307.5 301 C 304.34445 301 304.18104 306.36981 307 306.94336 L 307 311 L 308 311 L 308 306.94336 C 310.81896 306.36981 310.65555 301 307.5 301 z M 307.5 302 C 309.5 302 309.5 306 307.5 306 C 305.5 306 305.5 302 307.5 302 z M 334.5 304 C 331.34445 304 331.18104 309.36981 334 309.94336 L 334 314 L 335 314 L 335 309.94336 C 337.81896 309.36981 337.65555 304 334.5 304 z M 334.5 305 C 336.5 305 336.5 309 334.5 309 C 332.5 309 332.5 305 334.5 305 z M 425.5 305 C 422.34445 305 422.18104 310.36981 425 310.94336 L 425 315 L 426 315 L 426 310.94336 C 428.81896 310.36981 428.65555 305 425.5 305 z M 425.5 306 C 427.5 306 427.5 310 425.5 310 C 423.5 310 423.5 306 425.5 306 z M 141.5 310 C 138.34445 310 138.18104 315.36981 141 315.94336 L 141 320 L 142 320 L 142 315.94336 C 144.81896 315.36981 144.65555 310 141.5 310 z M 222.5 310 C 219.34445 310 219.18104 315.36981 222 315.94336 L 222 320 L 223 320 L 223 315.94336 C 225.81896 315.36981 225.65555 310 222.5 310 z M 259.5 310 C 256.34445 310 256.18104 315.36981 259 315.94336 L 259 320 L 260 320 L 260 315.94336 C 262.81896 315.36981 262.65555 310 259.5 310 z M 398.5 310 C 395.34445 310 395.18104 315.36981 398 315.94336 L 398 320 L 399 320 L 399 315.94336 C 401.81896 315.36981 401.65555 310 398.5 310 z M 111.5 311 C 108.34445 311 108.18104 316.36981 111 316.94336 L 111 321 L 112 321 L 112 316.94336 C 114.81896 316.36981 114.65555 311 111.5 311 z M 141.5 311 C 143.5 311 143.5 315 141.5 315 C 139.5 315 139.5 311 141.5 311 z M 222.5 311 C 224.5 311 224.5 315 222.5 315 C 220.5 315 220.5 311 222.5 311 z M 259.5 311 C 261.5 311 261.5 315 259.5 315 C 257.5 315 257.5 311 259.5 311 z M 398.5 311 C 400.5 311 400.5 315 398.5 315 C 396.5 315 396.5 311 398.5 311 z M 47.5 312 C 44.344445 312 44.181035 317.36981 47 317.94336 L 47 322 L 48 322 L 48 317.94336 C 50.818965 317.36981 50.655555 312 47.5 312 z M 111.5 312 C 113.5 312 113.5 316 111.5 316 C 109.5 316 109.5 312 111.5 312 z M 47.5 313 C 49.499999 313 49.499999 317 47.5 317 C 45.500001 317 45.500001 313 47.5 313 z M 494.5 313 C 491.34445 313 491.18104 318.36981 494 318.94336 L 494 323 L 495 323 L 495 318.94336 C 497.81896 318.36981 497.65555 313 494.5 313 z M 462.5 314 C 459.34445 314 459.18104 319.36981 462 319.94336 L 462 324 L 463 324 L 463 319.94336 C 465.81896 319.36981 465.65555 314 462.5 314 z M 494.5 314 C 496.5 314 496.5 318 494.5 318 C 492.5 318 492.5 314 494.5 314 z M 462.5 315 C 464.5 315 464.5 319 462.5 319 C 460.5 319 460.5 315 462.5 315 z M 200.5 316 C 197.34445 316 197.18104 321.36981 200 321.94336 L 200 326 L 201 326 L 201 321.94336 C 203.81896 321.36981 203.65555 316 200.5 316 z M 15.5 317 C 12.344445 317 12.181035 322.36981 15 322.94336 L 15 327 L 16 327 L 16 322.94336 C 18.818965 322.36981 18.655555 317 15.5 317 z M 200.5 317 C 202.5 317 202.5 321 200.5 321 C 198.5 321 198.5 317 200.5 317 z M 368.5 317 C 365.34445 317 365.18104 322.36981 368 322.94336 L 368 327 L 369 327 L 369 322.94336 C 371.81896 322.36981 371.65555 317 368.5 317 z M 15.5 318 C 17.499999 318 17.499999 322 15.5 322 C 13.500001 322 13.500001 318 15.5 318 z M 368.5 318 C 370.5 318 370.5 322 368.5 322 C 366.5 322 366.5 318 368.5 318 z M 78.5 330 C 75.344445 330 75.181035 335.36981 78 335.94336 L 78 340 L 79 340 L 79 335.94336 C 81.818965 335.36981 81.655555 330 78.5 330 z M 78.5 331 C 80.499999 331 80.499999 335 78.5 335 C 76.500001 335 76.500001 331 78.5 331 z M 175.5 332 C 172.34445 332 172.18104 337.36981 175 337.94336 L 175 342 L 176 342 L 176 337.94336 C 178.81896 337.36981 178.65555 332 175.5 332 z M 175.5 333 C 177.5 333 177.5 337 175.5 337 C 173.5 337 173.5 333 175.5 333 z M 281.5 334 C 278.34445 334 278.18104 339.36981 281 339.94336 L 281 344 L 282 344 L 282 339.94336 C 284.81896 339.36981 284.65555 334 281.5 334 z M 310.5 334 C 307.34445 334 307.18104 339.36981 310 339.94336 L 310 344 L 311 344 L 311 339.94336 C 313.81896 339.36981 313.65555 334 310.5 334 z M 281.5 335 C 283.5 335 283.5 339 281.5 339 C 279.5 339 279.5 335 281.5 335 z M 310.5 335 C 312.5 335 312.5 339 310.5 339 C 308.5 339 308.5 335 310.5 335 z M 340.5 335 C 337.34445 335 337.18104 340.36981 340 340.94336 L 340 345 L 341 345 L 341 340.94336 C 343.81896 340.36981 343.65555 335 340.5 335 z M 236.5 336 C 233.34445 336 233.18104 341.36981 236 341.94336 L 236 346 L 237 346 L 237 341.94336 C 239.81896 341.36981 239.65555 336 236.5 336 z M 340.5 336 C 342.5 336 342.5 340 340.5 340 C 338.5 340 338.5 336 340.5 336 z M 434.5 336 C 431.34445 336 431.18104 341.36981 434 341.94336 L 434 346 L 435 346 L 435 341.94336 C 437.81896 341.36981 437.65555 336 434.5 336 z M 127.5 337 C 124.34445 337 124.18104 342.36981 127 342.94336 L 127 347 L 128 347 L 128 342.94336 C 130.81896 342.36981 130.65555 337 127.5 337 z M 236.5 337 C 238.5 337 238.5 341 236.5 341 C 234.5 341 234.5 337 236.5 337 z M 434.5 337 C 436.5 337 436.5 341 434.5 341 C 432.5 341 432.5 337 434.5 337 z M 40.5 338 C 37.344445 338 37.181035 343.36981 40 343.94336 L 40 348 L 41 348 L 41 343.94336 C 43.818965 343.36981 43.655555 338 40.5 338 z M 127.5 338 C 129.5 338 129.5 342 127.5 342 C 125.5 342 125.5 338 127.5 338 z M 498.5 338 C 495.34445 338 495.18104 343.36981 498 343.94336 L 498 348 L 499 348 L 499 343.94336 C 501.81896 343.36981 501.65555 338 498.5 338 z M 40.5 339 C 42.499999 339 42.499999 343 40.5 343 C 38.500001 343 38.500001 339 40.5 339 z M 404.5 339 C 401.34445 339 401.18104 344.36981 404 344.94336 L 404 349 L 405 349 L 405 344.94336 C 407.81896 344.36981 407.65555 339 404.5 339 z M 498.5 339 C 500.5 339 500.5 343 498.5 343 C 496.5 343 496.5 339 498.5 339 z M 404.5 340 C 406.5 340 406.5 344 404.5 344 C 402.5 344 402.5 340 404.5 340 z M 104.5 342 C 101.34445 342 101.18104 347.36981 104 347.94336 L 104 352 L 105 352 L 105 347.94336 C 107.81896 347.36981 107.65555 342 104.5 342 z M 104.5 343 C 106.5 343 106.5 347 104.5 347 C 102.5 347 102.5 343 104.5 343 z M 468.5 343 C 465.34445 343 465.18104 348.36981 468 348.94336 L 468 353 L 469 353 L 469 348.94336 C 471.81896 348.36981 471.65555 343 468.5 343 z M 374.5 344 C 371.34445 344 371.18104 349.36981 374 349.94336 L 374 354 L 375 354 L 375 349.94336 C 377.81896 349.36981 377.65555 344 374.5 344 z M 468.5 344 C 470.5 344 470.5 348 468.5 348 C 466.5 348 466.5 344 468.5 344 z M 150.5 345 C 147.34445 345 147.18104 350.36981 150 350.94336 L 150 355 L 151 355 L 151 350.94336 C 153.81896 350.36981 153.65555 345 150.5 345 z M 374.5 345 C 376.5 345 376.5 349 374.5 349 C 372.5 349 372.5 345 374.5 345 z M 150.5 346 C 152.5 346 152.5 350 150.5 350 C 148.5 350 148.5 346 150.5 346 z M 257.5 346 C 254.34445 346 254.18104 351.36981 257 351.94336 L 257 356 L 258 356 L 258 351.94336 C 260.81896 351.36981 260.65555 346 257.5 346 z M 208.5 347 C 205.34445 347 205.18104 352.36981 208 352.94336 L 208 357 L 209 357 L 209 352.94336 C 211.81896 352.36981 211.65555 347 208.5 347 z M 257.5 347 C 259.5 347 259.5 351 257.5 351 C 255.5 351 255.5 347 257.5 347 z M 208.5 348 C 210.5 348 210.5 352 208.5 352 C 206.5 352 206.5 348 208.5 348 z M 17.5 350 C 14.344445 350 14.181035 355.36981 17 355.94336 L 17 360 L 18 360 L 18 355.94336 C 20.818965 355.36981 20.655555 350 17.5 350 z M 17.5 351 C 19.499999 351 19.499999 355 17.5 355 C 15.500001 355 15.500001 351 17.5 351 z M 66.5 357 C 63.344445 357 63.181035 362.36981 66 362.94336 L 66 367 L 67 367 L 67 362.94336 C 69.818965 362.36981 69.655555 357 66.5 357 z M 66.5 358 C 68.499999 358 68.499999 362 66.5 362 C 64.500001 362 64.500001 358 66.5 358 z M 281.5 360 C 278.34445 360 278.18104 365.36981 281 365.94336 L 281 370 L 282 370 L 282 365.94336 C 284.81896 365.36981 284.65555 360 281.5 360 z M 281.5 361 C 283.5 361 283.5 365 281.5 365 C 279.5 365 279.5 361 281.5 361 z M 177.5 362 C 174.34445 362 174.18104 367.36981 177 367.94336 L 177 372 L 178 372 L 178 367.94336 C 180.81896 367.36981 180.65555 362 177.5 362 z M 177.5 363 C 179.5 363 179.5 367 177.5 367 C 175.5 367 175.5 363 177.5 363 z M 318.5 364 C 315.34445 364 315.18104 369.36981 318 369.94336 L 318 374 L 319 374 L 319 369.94336 C 321.81896 369.36981 321.65555 364 318.5 364 z M 318.5 365 C 320.5 365 320.5 369 318.5 369 C 316.5 369 316.5 365 318.5 365 z M 440.5 365 C 437.34445 365 437.18104 370.36981 440 370.94336 L 440 375 L 441 375 L 441 370.94336 C 443.81896 370.36981 443.65555 365 440.5 365 z M 440.5 366 C 442.5 366 442.5 370 440.5 370 C 438.5 370 438.5 366 440.5 366 z M 346.5 367 C 343.34445 367 343.18104 372.36981 346 372.94336 L 346 377 L 347 377 L 347 372.94336 C 349.81896 372.36981 349.65555 367 346.5 367 z M 346.5 368 C 348.5 368 348.5 372 346.5 372 C 344.5 372 344.5 368 346.5 368 z M 410.5 369 C 407.34445 369 407.18104 374.36981 410 374.94336 L 410 379 L 411 379 L 411 374.94336 C 413.81896 374.36981 413.65555 369 410.5 369 z M 410.5 370 C 412.5 370 412.5 374 410.5 374 C 408.5 374 408.5 370 410.5 370 z M 490.5 370 C 487.34445 370 487.18104 375.36981 490 375.94336 L 490 380 L 491 380 L 491 375.94336 C 493.81896 375.36981 493.65555 370 490.5 370 z M 490.5 371 C 492.5 371 492.5 375 490.5 375 C 488.5 375 488.5 371 490.5 371 z M 230.5 372 C 227.34445 372 227.18104 377.36981 230 377.94336 L 230 382 L 231 382 L 231 377.94336 C 233.81896 377.36981 233.65555 372 230.5 372 z M 381.5 372 C 378.34445 372 378.18104 377.36981 381 377.94336 L 381 382 L 382 382 L 382 377.94336 C 384.81896 377.36981 384.65555 372 381.5 372 z M 94.5 373 C 91.344445 373 91.181035 378.36981 94 378.94336 L 94 383 L 95 383 L 95 378.94336 C 97.818965 378.36981 97.655555 373 94.5 373 z M 126.5 373 C 123.34445 373 123.18104 378.36981 126 378.94336 L 126 383 L 127 383 L 127 378.94336 C 129.81896 378.36981 129.65555 373 126.5 373 z M 230.5 373 C 232.5 373 232.5 377 230.5 377 C 228.5 377 228.5 373 230.5 373 z M 381.5 373 C 383.5 373 383.5 377 381.5 377 C 379.5 377 379.5 373 381.5 373 z M 94.5 374 C 96.499999 374 96.499999 378 94.5 378 C 92.500001 378 92.500001 374 94.5 374 z M 126.5 374 C 128.5 374 128.5 378 126.5 378 C 124.5 378 124.5 374 126.5 374 z M 38.5 375 C 35.344445 375 35.181035 380.36981 38 380.94336 L 38 385 L 39 385 L 39 380.94336 C 41.818965 380.36981 41.655555 375 38.5 375 z M 38.5 376 C 40.499999 376 40.499999 380 38.5 380 C 36.500001 380 36.500001 376 38.5 376 z M 6.5 378 C 3.3444448 378 3.1810354 383.36981 6 383.94336 L 6 388 L 7 388 L 7 383.94336 C 9.8189646 383.36981 9.6555552 378 6.5 378 z M 462.5 378 C 459.34445 378 459.18104 383.36981 462 383.94336 L 462 388 L 463 388 L 463 383.94336 C 465.81896 383.36981 465.65555 378 462.5 378 z M 6.5 379 C 8.4999991 379 8.4999991 383 6.5 383 C 4.5000009 383 4.5000009 379 6.5 379 z M 292.5 379 C 289.34445 379 289.18104 384.36981 292 384.94336 L 292 389 L 293 389 L 293 384.94336 C 295.81896 384.36981 295.65555 379 292.5 379 z M 462.5 379 C 464.5 379 464.5 383 462.5 383 C 460.5 383 460.5 379 462.5 379 z M 292.5 380 C 294.5 380 294.5 384 292.5 384 C 290.5 384 290.5 380 292.5 380 z M 155.5 381 C 152.34445 381 152.18104 386.36981 155 386.94336 L 155 391 L 156 391 L 156 386.94336 C 158.81896 386.36981 158.65555 381 155.5 381 z M 206.5 381 C 203.34445 381 203.18104 386.36981 206 386.94336 L 206 391 L 207 391 L 207 386.94336 C 209.81896 386.36981 209.65555 381 206.5 381 z M 155.5 382 C 157.5 382 157.5 386 155.5 386 C 153.5 386 153.5 382 155.5 382 z M 206.5 382 C 208.5 382 208.5 386 206.5 386 C 204.5 386 204.5 382 206.5 382 z M 65.5 392 C 62.344445 392 62.181035 397.36981 65 397.94336 L 65 402 L 66 402 L 66 397.94336 C 68.818965 397.36981 68.655555 392 65.5 392 z M 65.5 393 C 67.499999 393 67.499999 397 65.5 397 C 63.500001 397 63.500001 393 65.5 393 z M 369.5 394 C 366.34445 394 366.18104 399.36981 369 399.94336 L 369 404 L 370 404 L 370 399.94336 C 372.81896 399.36981 372.65555 394 369.5 394 z M 246.5 395 C 243.34445 395 243.18104 400.36981 246 400.94336 L 246 405 L 247 405 L 247 400.94336 C 249.81896 400.36981 249.65555 395 246.5 395 z M 369.5 395 C 371.5 395 371.5 399 369.5 399 C 367.5 399 367.5 395 369.5 395 z M 182.5 396 C 179.34445 396 179.18104 401.36981 182 401.94336 L 182 406 L 183 406 L 183 401.94336 C 185.81896 401.36981 185.65555 396 182.5 396 z M 246.5 396 C 248.5 396 248.5 400 246.5 400 C 244.5 400 244.5 396 246.5 396 z M 337.5 396 C 334.34445 396 334.18104 401.36981 337 401.94336 L 337 406 L 338 406 L 338 401.94336 C 340.81896 401.36981 340.65555 396 337.5 396 z M 182.5 397 C 184.5 397 184.5 401 182.5 401 C 180.5 401 180.5 397 182.5 397 z M 337.5 397 C 339.5 397 339.5 401 337.5 401 C 335.5 401 335.5 397 337.5 397 z M 307.5 398 C 304.34445 398 304.18104 403.36981 307 403.94336 L 307 408 L 308 408 L 308 403.94336 C 310.81896 403.36981 310.65555 398 307.5 398 z M 433.5 398 C 430.34445 398 430.18104 403.36981 433 403.94336 L 433 408 L 434 408 L 434 403.94336 C 436.81896 403.36981 436.65555 398 433.5 398 z M 307.5 399 C 309.5 399 309.5 403 307.5 403 C 305.5 403 305.5 399 307.5 399 z M 433.5 399 C 435.5 399 435.5 403 433.5 403 C 431.5 403 431.5 399 433.5 399 z M 118.5 400 C 115.34445 400 115.18104 405.36981 118 405.94336 L 118 410 L 119 410 L 119 405.94336 C 121.81896 405.36981 121.65555 400 118.5 400 z M 34.5 401 C 31.344445 401 31.181035 406.36981 34 406.94336 L 34 411 L 35 411 L 35 406.94336 C 37.818965 406.36981 37.655555 401 34.5 401 z M 118.5 401 C 120.5 401 120.5 405 118.5 405 C 116.5 405 116.5 401 118.5 401 z M 34.5 402 C 36.499999 402 36.499999 406 34.5 406 C 32.500001 406 32.500001 402 34.5 402 z M 401.5 402 C 398.34445 402 398.18104 407.36981 401 407.94336 L 401 412 L 402 412 L 402 407.94336 C 404.81896 407.36981 404.65555 402 401.5 402 z M 492.5 402 C 489.34445 402 489.18104 407.36981 492 407.94336 L 492 412 L 493 412 L 493 407.94336 C 495.81896 407.36981 495.65555 402 492.5 402 z M 401.5 403 C 403.5 403 403.5 407 401.5 407 C 399.5 407 399.5 403 401.5 403 z M 492.5 403 C 494.5 403 494.5 407 492.5 407 C 490.5 407 490.5 403 492.5 403 z M 87.5 404 C 84.344445 404 84.181035 409.36981 87 409.94336 L 87 414 L 88 414 L 88 409.94336 C 90.818965 409.36981 90.655555 404 87.5 404 z M 272.5 404 C 269.34445 404 269.18104 409.36981 272 409.94336 L 272 414 L 273 414 L 273 409.94336 C 275.81896 409.36981 275.65555 404 272.5 404 z M 87.5 405 C 89.499999 405 89.499999 409 87.5 409 C 85.500001 409 85.500001 405 87.5 405 z M 272.5 405 C 274.5 405 274.5 409 272.5 409 C 270.5 409 270.5 405 272.5 405 z M 462.5 407 C 459.34445 407 459.18104 412.36981 462 412.94336 L 462 417 L 463 417 L 463 412.94336 C 465.81896 412.36981 465.65555 407 462.5 407 z M 462.5 408 C 464.5 408 464.5 412 462.5 412 C 460.5 412 460.5 408 462.5 408 z M 149.5 409 C 146.34445 409 146.18104 414.36981 149 414.94336 L 149 419 L 150 419 L 150 414.94336 C 152.81896 414.36981 152.65555 409 149.5 409 z M 149.5 410 C 151.5 410 151.5 414 149.5 414 C 147.5 414 147.5 410 149.5 410 z M 220.5 410 C 217.34445 410 217.18104 415.36981 220 415.94336 L 220 420 L 221 420 L 221 415.94336 C 223.81896 415.36981 223.65555 410 220.5 410 z M 220.5 411 C 222.5 411 222.5 415 220.5 415 C 218.5 415 218.5 411 220.5 411 z M 6.5 413 C 3.3444448 413 3.1810354 418.36981 6 418.94336 L 6 423 L 7 423 L 7 418.94336 C 9.8189646 418.36981 9.6555552 413 6.5 413 z M 6.5 414 C 8.4999991 414 8.4999991 418 6.5 418 C 4.5000009 418 4.5000009 414 6.5 414 z M 187.5 420 C 184.34445 420 184.18104 425.36981 187 425.94336 L 187 430 L 188 430 L 188 425.94336 C 190.81896 425.36981 190.65555 420 187.5 420 z M 187.5 421 C 189.5 421 189.5 425 187.5 425 C 185.5 425 185.5 421 187.5 421 z M 342.5 423 C 339.34445 423 339.18104 428.36981 342 428.94336 L 342 433 L 343 433 L 343 428.94336 C 345.81896 428.36981 345.65555 423 342.5 423 z M 342.5 424 C 344.5 424 344.5 428 342.5 428 C 340.5 428 340.5 424 342.5 424 z M 375.5 425 C 372.34445 425 372.18104 430.36981 375 430.94336 L 375 435 L 376 435 L 376 430.94336 C 378.81896 430.36981 378.65555 425 375.5 425 z M 375.5 426 C 377.5 426 377.5 430 375.5 430 C 373.5 430 373.5 426 375.5 426 z M 102.5 427 C 99.344445 427 99.181035 432.36981 102 432.94336 L 102 437 L 103 437 L 103 432.94336 C 105.81896 432.36981 105.65555 427 102.5 427 z M 282.5 427 C 279.34445 427 279.18104 432.36981 282 432.94336 L 282 437 L 283 437 L 283 432.94336 C 285.81896 432.36981 285.65555 427 282.5 427 z M 102.5 428 C 104.5 428 104.5 432 102.5 432 C 100.5 432 100.5 428 102.5 428 z M 251.5 428 C 248.34445 428 248.18104 433.36981 251 433.94336 L 251 438 L 252 438 L 252 433.94336 C 254.81896 433.36981 254.65555 428 251.5 428 z M 282.5 428 C 284.5 428 284.5 432 282.5 432 C 280.5 432 280.5 428 282.5 428 z M 251.5 429 C 253.5 429 253.5 433 251.5 433 C 249.5 433 249.5 429 251.5 429 z M 315.5 429 C 312.34445 429 312.18104 434.36981 315 434.94336 L 315 439 L 316 439 L 316 434.94336 C 318.81896 434.36981 318.65555 429 315.5 429 z M 434.5 429 C 431.34445 429 431.18104 434.36981 434 434.94336 L 434 439 L 435 439 L 435 434.94336 C 437.81896 434.36981 437.65555 429 434.5 429 z M 73.5 430 C 70.344445 430 70.181035 435.36981 73 435.94336 L 73 440 L 74 440 L 74 435.94336 C 76.818965 435.36981 76.655555 430 73.5 430 z M 315.5 430 C 317.5 430 317.5 434 315.5 434 C 313.5 434 313.5 430 315.5 430 z M 434.5 430 C 436.5 430 436.5 434 434.5 434 C 432.5 434 432.5 430 434.5 430 z M 73.5 431 C 75.499999 431 75.499999 435 73.5 435 C 71.500001 435 71.500001 431 73.5 431 z M 406.5 431 C 403.34445 431 403.18104 436.36981 406 436.94336 L 406 441 L 407 441 L 407 436.94336 C 409.81896 436.36981 409.65555 431 406.5 431 z M 40.5 432 C 37.344445 432 37.181035 437.36981 40 437.94336 L 40 442 L 41 442 L 41 437.94336 C 43.818965 437.36981 43.655555 432 40.5 432 z M 406.5 432 C 408.5 432 408.5 436 406.5 436 C 404.5 436 404.5 432 406.5 432 z M 40.5 433 C 42.499999 433 42.499999 437 40.5 437 C 38.500001 437 38.500001 433 40.5 433 z M 491.5 434 C 488.34445 434 488.18104 439.36981 491 439.94336 L 491 444 L 492 444 L 492 439.94336 C 494.81896 439.36981 494.65555 434 491.5 434 z M 491.5 435 C 493.5 435 493.5 439 491.5 439 C 489.5 439 489.5 435 491.5 435 z M 133.5 437 C 130.34445 437 130.18104 442.36981 133 442.94336 L 133 447 L 134 447 L 134 442.94336 C 136.81896 442.36981 136.65555 437 133.5 437 z M 133.5 438 C 135.5 438 135.5 442 133.5 442 C 131.5 442 131.5 438 133.5 438 z M 212.5 439 C 209.34445 439 209.18104 444.36981 212 444.94336 L 212 449 L 213 449 L 213 444.94336 C 215.81896 444.36981 215.65555 439 212.5 439 z M 212.5 440 C 214.5 440 214.5 444 212.5 444 C 210.5 444 210.5 440 212.5 440 z M 10.5 441 C 7.3444448 441 7.1810354 446.36981 10 446.94336 L 10 451 L 11 451 L 11 446.94336 C 13.818965 446.36981 13.655555 441 10.5 441 z M 10.5 442 C 12.499999 442 12.499999 446 10.5 446 C 8.5000009 446 8.5000009 442 10.5 442 z M 165.5 442 C 162.34445 442 162.18104 447.36981 165 447.94336 L 165 452 L 166 452 L 166 447.94336 C 168.81896 447.36981 168.65555 442 165.5 442 z M 461.5 442 C 458.34445 442 458.18104 447.36981 461 447.94336 L 461 452 L 462 452 L 462 447.94336 C 464.81896 447.36981 464.65555 442 461.5 442 z M 165.5 443 C 167.5 443 167.5 447 165.5 447 C 163.5 447 163.5 443 165.5 443 z M 461.5 443 C 463.5 443 463.5 447 461.5 447 C 459.5 447 459.5 443 461.5 443 z M 398.5 451 C 395.34445 451 395.18104 456.36981 398 456.94336 L 398 461 L 399 461 L 399 456.94336 C 401.81896 456.36981 401.65555 451 398.5 451 z M 398.5 452 C 400.5 452 400.5 456 398.5 456 C 396.5 456 396.5 452 398.5 452 z M 274.5 453 C 271.34445 453 271.18104 458.36981 274 458.94336 L 274 463 L 275 463 L 275 458.94336 C 277.81896 458.36981 277.65555 453 274.5 453 z M 274.5 454 C 276.5 454 276.5 458 274.5 458 C 272.5 458 272.5 454 274.5 454 z M 338.5 454 C 335.34445 454 335.18104 459.36981 338 459.94336 L 338 464 L 339 464 L 339 459.94336 C 341.81896 459.36981 341.65555 454 338.5 454 z M 69.5 455 C 66.344445 455 66.181035 460.36981 69 460.94336 L 69 465 L 70 465 L 70 460.94336 C 72.818965 460.36981 72.655555 455 69.5 455 z M 338.5 455 C 340.5 455 340.5 459 338.5 459 C 336.5 459 336.5 455 338.5 455 z M 69.5 456 C 71.499999 456 71.499999 460 69.5 460 C 67.500001 460 67.500001 456 69.5 456 z M 367.5 456 C 364.34445 456 364.18104 461.36981 367 461.94336 L 367 466 L 368 466 L 368 461.94336 C 370.81896 461.36981 370.65555 456 367.5 456 z M 367.5 457 C 369.5 457 369.5 461 367.5 461 C 365.5 461 365.5 457 367.5 457 z M 121.5 458 C 118.34445 458 118.18104 463.36981 121 463.94336 L 121 468 L 122 468 L 122 463.94336 C 124.81896 463.36981 124.65555 458 121.5 458 z M 121.5 459 C 123.5 459 123.5 463 121.5 463 C 119.5 463 119.5 459 121.5 459 z M 190.5 459 C 187.34445 459 187.18104 464.36981 190 464.94336 L 190 469 L 191 469 L 191 464.94336 C 193.81896 464.36981 193.65555 459 190.5 459 z M 239.5 459 C 236.34445 459 236.18104 464.36981 239 464.94336 L 239 469 L 240 469 L 240 464.94336 C 242.81896 464.36981 242.65555 459 239.5 459 z M 190.5 460 C 192.5 460 192.5 464 190.5 464 C 188.5 464 188.5 460 190.5 460 z M 239.5 460 C 241.5 460 241.5 464 239.5 464 C 237.5 464 237.5 460 239.5 460 z M 48.5 461 C 45.344445 461 45.181035 466.36981 48 466.94336 L 48 471 L 49 471 L 49 466.94336 C 51.818965 466.36981 51.655555 461 48.5 461 z M 48.5 462 C 50.499999 462 50.499999 466 48.5 466 C 46.500001 466 46.500001 462 48.5 462 z M 303.5 464 C 300.34445 464 300.18104 469.36981 303 469.94336 L 303 474 L 304 474 L 304 469.94336 C 306.81896 469.36981 306.65555 464 303.5 464 z M 303.5 465 C 305.5 465 305.5 469 303.5 469 C 301.5 469 301.5 465 303.5 465 z M 437.5 465 C 434.34445 465 434.18104 470.36981 437 470.94336 L 437 475 L 438 475 L 438 470.94336 C 440.81896 470.36981 440.65555 465 437.5 465 z M 499.5 465 C 496.34445 465 496.18104 470.36981 499 470.94336 L 499 475 L 500 475 L 500 470.94336 C 502.81896 470.36981 502.65555 465 499.5 465 z M 437.5 466 C 439.5 466 439.5 470 437.5 470 C 435.5 470 435.5 466 437.5 466 z M 499.5 466 C 501.5 466 501.5 470 499.5 470 C 497.5 470 497.5 466 499.5 466 z M 152.5 468 C 149.34445 468 149.18104 473.36981 152 473.94336 L 152 478 L 153 478 L 153 473.94336 C 155.81896 473.36981 155.65555 468 152.5 468 z M 152.5 469 C 154.5 469 154.5 473 152.5 473 C 150.5 473 150.5 469 152.5 469 z M 93.5 470 C 90.344445 470 90.181035 475.36981 93 475.94336 L 93 480 L 94 480 L 94 475.94336 C 96.818965 475.36981 96.655555 470 93.5 470 z M 93.5 471 C 95.499999 471 95.499999 475 93.5 475 C 91.500001 475 91.500001 471 93.5 471 z M 471.5 471 C 468.34445 471 468.18104 476.36981 471 476.94336 L 471 481 L 472 481 L 472 476.94336 C 474.81896 476.36981 474.65555 471 471.5 471 z M 408.5 472 C 405.34445 472 405.18104 477.36981 408 477.94336 L 408 482 L 409 482 L 409 477.94336 C 411.81896 477.36981 411.65555 472 408.5 472 z M 471.5 472 C 473.5 472 473.5 476 471.5 476 C 469.5 476 469.5 472 471.5 472 z M 408.5 473 C 410.5 473 410.5 477 408.5 477 C 406.5 477 406.5 473 408.5 473 z M 27.5 474 C 24.344445 474 24.181035 479.36981 27 479.94336 L 27 484 L 28 484 L 28 479.94336 C 30.818965 479.36981 30.655555 474 27.5 474 z M 27.5 475 C 29.499999 475 29.499999 479 27.5 479 C 25.500001 479 25.500001 475 27.5 475 z M 215.5 475 C 212.34445 475 212.18104 480.36981 215 480.94336 L 215 485 L 216 485 L 216 480.94336 C 218.81896 480.36981 218.65555 475 215.5 475 z M 215.5 476 C 217.5 476 217.5 480 215.5 480 C 213.5 480 213.5 476 215.5 476 z M 257.5 483 C 254.34445 483 254.18104 488.36981 257 488.94336 L 257 493 L 258 493 L 258 488.94336 C 260.81896 488.36981 260.65555 483 257.5 483 z M 349.5 483 C 346.34445 483 346.18104 488.36981 349 488.94336 L 349 493 L 350 493 L 350 488.94336 C 352.81896 488.36981 352.65555 483 349.5 483 z M 180.5 484 C 177.34445 484 177.18104 489.36981 180 489.94336 L 180 494 L 181 494 L 181 489.94336 C 183.81896 489.36981 183.65555 484 180.5 484 z M 257.5 484 C 259.5 484 259.5 488 257.5 488 C 255.5 488 255.5 484 257.5 484 z M 349.5 484 C 351.5 484 351.5 488 349.5 488 C 347.5 488 347.5 484 349.5 484 z M 180.5 485 C 182.5 485 182.5 489 180.5 489 C 178.5 489 178.5 485 180.5 485 z M 285.5 486 C 282.34445 486 282.18104 491.36981 285 491.94336 L 285 496 L 286 496 L 286 491.94336 C 288.81896 491.36981 288.65555 486 285.5 486 z M 285.5 487 C 287.5 487 287.5 491 285.5 491 C 283.5 491 283.5 487 285.5 487 z M 12.5 489 C 9.3444448 489 9.1810354 494.36981 12 494.94336 L 12 499 L 13 499 L 13 494.94336 C 15.818965 494.36981 15.655555 489 12.5 489 z M 116.5 489 C 113.34445 489 113.18104 494.36981 116 494.94336 L 116 499 L 117 499 L 117 494.94336 C 119.81896 494.36981 119.65555 489 116.5 489 z M 379.5 489 C 376.34445 489 376.18104 494.36981 379 494.94336 L 379 499 L 380 499 L 380 494.94336 C 382.81896 494.36981 382.65555 489 379.5 489 z M 12.5 490 C 14.499999 490 14.499999 494 12.5 494 C 10.500001 494 10.500001 490 12.5 490 z M 116.5 490 C 118.5 490 118.5 494 116.5 494 C 114.5 494 114.5 490 116.5 490 z M 379.5 490 C 381.5 490 381.5 494 379.5 494 C 377.5 494 377.5 490 379.5 490 z M 320.5 493 C 317.34445 493 317.18104 498.36981 320 498.94336 L 320 503 L 321 503 L 321 498.94336 C 323.81896 498.36981 323.65555 493 320.5 493 z M 74.5 494 C 71.344445 494 71.181035 499.36981 74 499.94336 L 74 504 L 75 504 L 75 499.94336 C 77.818965 499.36981 77.655555 494 74.5 494 z M 320.5 494 C 322.5 494 322.5 498 320.5 498 C 318.5 498 318.5 494 320.5 494 z M 45.5 495 C 42.344445 495 42.181035 500.36981 45 500.94336 L 45 505 L 46 505 L 46 500.94336 C 48.818965 500.36981 48.655555 495 45.5 495 z M 74.5 495 C 76.499999 495 76.499999 499 74.5 499 C 72.500001 499 72.500001 495 74.5 495 z M 45.5 496 C 47.499999 496 47.499999 500 45.5 500 C 43.500001 500 43.500001 496 45.5 496 z M 234.5 496 C 231.34445 496 231.18104 501.36981 234 501.94336 L 234 506 L 235 506 L 235 501.94336 C 237.81896 501.36981 237.65555 496 234.5 496 z M 442.5 496 C 439.34445 496 439.18104 501.36981 442 501.94336 L 442 506 L 443 506 L 443 501.94336 C 445.81896 501.36981 445.65555 496 442.5 496 z M 234.5 497 C 236.5 497 236.5 501 234.5 501 C 232.5 501 232.5 497 234.5 497 z M 442.5 497 C 444.5 497 444.5 501 442.5 501 C 440.5 501 440.5 497 442.5 497 z M 490.5 497 C 487.34445 497 487.18104 502.36981 490 502.94336 L 490 507 L 491 507 L 491 502.94336 C 493.81896 502.36981 493.65555 497 490.5 497 z M 153.5 498 C 150.34445 498 150.18104 503.36981 153 503.94336 L 153 508 L 154 508 L 154 503.94336 C 156.81896 503.36981 156.65555 498 153.5 498 z M 414.5 498 C 411.34445 498 411.18104 503.36981 414 503.94336 L 414 508 L 415 508 L 415 503.94336 C 417.81896 503.36981 417.65555 498 414.5 498 z M 490.5 498 C 492.5 498 492.5 502 490.5 502 C 488.5 502 488.5 498 490.5 498 z M 153.5 499 C 155.5 499 155.5 503 153.5 503 C 151.5 503 151.5 499 153.5 499 z M 414.5 499 C 416.5 499 416.5 503 414.5 503 C 412.5 503 412.5 499 414.5 499 z M 129.5 510 C 128.21107 510 127.42689 510.89955 127.13477 512 L 128.18555 512 C 128.41251 511.42726 128.84823 511 129.5 511 C 130.15177 511 130.58749 511.42726 130.81445 512 L 131.86523 512 C 131.57311 510.89955 130.78893 510 129.5 510 z M 200.5 510 C 199.21107 510 198.42689 510.89955 198.13477 512 L 199.18555 512 C 199.41251 511.42726 199.84823 511 200.5 511 C 201.15177 511 201.58749 511.42726 201.81445 512 L 202.86523 512 C 202.57311 510.89955 201.78893 510 200.5 510 z M 5.5 511 C 4.6380547 511 4.0040659 511.4051 3.5878906 512 L 5.5 512 L 7.4121094 512 C 6.9959341 511.4051 6.3619453 511 5.5 511 z "
     style="fill:#6b8d5e" />
  <desc
     id="desc918">Created with Snap</desc>
</svg>
