<?xml version="1.0" encoding="UTF-8" standalone="no"?>
<svg
   xmlns:dc="http://purl.org/dc/elements/1.1/"
   xmlns:cc="http://creativecommons.org/ns#"
   xmlns:rdf="http://www.w3.org/1999/02/22-rdf-syntax-ns#"
   xmlns:svg="http://www.w3.org/2000/svg"
   xmlns="http://www.w3.org/2000/svg"
   enable-background="new"
   id="svg2"
   height="14"
   width="14"
   version="1.1">
  <metadata
     id="metadata9">
    <rdf:RDF>
      <cc:Work
         rdf:about="">
        <dc:format>image/svg+xml</dc:format>
        <dc:type
           rdf:resource="http://purl.org/dc/dcmitype/StillImage" />
        <dc:title></dc:title>
      </cc:Work>
    </rdf:RDF>
  </metadata>
  <defs
     id="defs7" />
  <rect
     style="visibility:hidden;fill:none;stroke:none"
     id="canvas"
     y="0"
     x="0"
     height="14"
     width="14" />
  <path
     d="m 7.4137931,12.417242 6.6000009,-3.4000006 0,0.4 -6.6000009,3.4000006 z M 7.4034483,13.6 l 6.6000007,-3.4 0,0.4 -6.6000007,3.4 z m 0.015517,-0.615517 6.6000005,-3.4000002 0,0.4 -6.6000005,3.4000002 z m -0.010345,-1.153449 6.6000003,-3.3999996 0,0.4 -6.6000003,3.3999996 z m 0.015517,-0.615517 6.6000001,-3.3999998 0,0.4 -6.6000001,3.3999998 z m -0.039655,-0.6 6.6000002,-3.3999998 0,0.4 -6.6000002,3.3999998 z M 7.4,10 14,6.6 14,7 7.4,10.4 Z M 0.38460966,3.1535098 C 0.09910476,3.9013742 0,4.387733 0,5.187733 0.03821714,5.5939655 0,6.2 0.4,7.1802656 L 6.9846394,13.965867 C 6.6991344,13.387502 6.6202329,12.564595 6.6,12 6.6202333,11.398685 6.7144956,10.493627 7,10 Z M 7.4,0 0.79906666,2.8175614 7.4,9.6 14,6.2 Z"
     style="opacity:1;fill:#000000;fill-opacity:0.94117647;fill-rule:evenodd;stroke:none;stroke-opacity:1"
     id="path4211-0-7" />
</svg>
