<?xml version="1.0" encoding="UTF-8" standalone="no"?>
<!-- Created with Inkscape (http://www.inkscape.org/) -->

<svg
   xmlns:dc="http://purl.org/dc/elements/1.1/"
   xmlns:cc="http://creativecommons.org/ns#"
   xmlns:rdf="http://www.w3.org/1999/02/22-rdf-syntax-ns#"
   xmlns:svg="http://www.w3.org/2000/svg"
   xmlns="http://www.w3.org/2000/svg"
   xmlns:xlink="http://www.w3.org/1999/xlink"
   xmlns:sodipodi="http://sodipodi.sourceforge.net/DTD/sodipodi-0.dtd"
   xmlns:inkscape="http://www.inkscape.org/namespaces/inkscape"
   version="1.0"
   width="580"
   height="580"
   id="svg2"
   sodipodi:version="0.32"
   inkscape:version="0.48.0 r9654"
   sodipodi:docname="shopping_marketplace.svg"
   inkscape:output_extension="org.inkscape.output.svg.inkscape">
  <metadata
     id="metadata2975">
    <rdf:RDF>
      <cc:Work
         rdf:about="">
        <dc:format>image/svg+xml</dc:format>
        <dc:type
           rdf:resource="http://purl.org/dc/dcmitype/StillImage" />
        <cc:license
           rdf:resource="http://web.resource.org/cc/PublicDomain" />
        <dc:language>en</dc:language>
        <dc:title />
      </cc:Work>
    </rdf:RDF>
  </metadata>
  <sodipodi:namedview
     inkscape:window-height="1002"
     inkscape:window-width="1278"
     inkscape:pageshadow="2"
     inkscape:pageopacity="0.0"
     guidetolerance="10.0"
     gridtolerance="10.0"
     objecttolerance="10.0"
     borderopacity="1.0"
     bordercolor="#666666"
     pagecolor="#ffffff"
     id="base"
     inkscape:zoom="1.8433542"
     inkscape:cx="201.56111"
     inkscape:cy="418.07442"
     inkscape:window-x="0"
     inkscape:window-y="24"
     inkscape:current-layer="svg2"
     showgrid="false"
     inkscape:window-maximized="0"
     showguides="true"
     inkscape:guide-bbox="true" />
  <defs
     id="defs4">
    <inkscape:perspective
       sodipodi:type="inkscape:persp3d"
       inkscape:vp_x="0 : 290 : 1"
       inkscape:vp_y="6.1230318e-14 : 1000 : 0"
       inkscape:vp_z="580 : 290 : 1"
       inkscape:persp3d-origin="290 : 193.33333 : 1"
       id="perspective2441" />
    <inkscape:perspective
       id="perspective3452"
       inkscape:persp3d-origin="30 : 20 : 1"
       inkscape:vp_z="60 : 30 : 1"
       inkscape:vp_y="0 : 1000 : 0"
       inkscape:vp_x="0 : 30 : 1"
       sodipodi:type="inkscape:persp3d" />
    <symbol
       viewBox="244.5 110 489 219.9"
       id="symbol-university">
      <path
         id="path4460"
         d="M79,43l57,119c0,0,21-96,104-96s124,106,124,106l43-133l82-17L0,17L79,43z" />
      <path
         id="path4462"
         d="M94,176l-21,39"
         stroke-width="20"
         stroke="#000000"
         fill="none" />
      <path
         id="path4464"
         d="M300,19c0,10.5-22.6,19-50.5,19S199,29.5,199,19s22.6-19,50.5-19S300,8.5,300,19z" />
      <path
         id="path4466"
         d="M112,216l-16-38L64,88c0,0-9-8-4-35s16-24,16-24"
         stroke-width="20"
         stroke="#000000"
         ill="none" />
    </symbol>
    <inkscape:perspective
       id="perspective4471"
       inkscape:persp3d-origin="372.04724 : 350.78739 : 1"
       inkscape:vp_z="744.09448 : 526.18109 : 1"
       inkscape:vp_y="0 : 1000 : 0"
       inkscape:vp_x="0 : 526.18109 : 1"
       sodipodi:type="inkscape:persp3d" />
    <inkscape:perspective
       id="perspective4668"
       inkscape:persp3d-origin="6 : 4 : 1"
       inkscape:vp_z="12 : 6 : 1"
       inkscape:vp_y="0 : 1000 : 0"
       inkscape:vp_x="0 : 6 : 1"
       sodipodi:type="inkscape:persp3d" />
    <inkscape:perspective
       id="perspective3826"
       inkscape:persp3d-origin="0.5 : 0.33333333 : 1"
       inkscape:vp_z="1 : 0.5 : 1"
       inkscape:vp_y="0 : 1000 : 0"
       inkscape:vp_x="0 : 0.5 : 1"
       sodipodi:type="inkscape:persp3d" />
    <inkscape:perspective
       id="perspective3855"
       inkscape:persp3d-origin="0.5 : 0.33333333 : 1"
       inkscape:vp_z="1 : 0.5 : 1"
       inkscape:vp_y="0 : 1000 : 0"
       inkscape:vp_x="0 : 0.5 : 1"
       sodipodi:type="inkscape:persp3d" />
    <inkscape:perspective
       id="perspective3909"
       inkscape:persp3d-origin="0.5 : 0.33333333 : 1"
       inkscape:vp_z="1 : 0.5 : 1"
       inkscape:vp_y="0 : 1000 : 0"
       inkscape:vp_x="0 : 0.5 : 1"
       sodipodi:type="inkscape:persp3d" />
    <inkscape:perspective
       id="perspective3950"
       inkscape:persp3d-origin="0.5 : 0.33333333 : 1"
       inkscape:vp_z="1 : 0.5 : 1"
       inkscape:vp_y="0 : 1000 : 0"
       inkscape:vp_x="0 : 0.5 : 1"
       sodipodi:type="inkscape:persp3d" />
    <inkscape:perspective
       id="perspective3972"
       inkscape:persp3d-origin="0.5 : 0.33333333 : 1"
       inkscape:vp_z="1 : 0.5 : 1"
       inkscape:vp_y="0 : 1000 : 0"
       inkscape:vp_x="0 : 0.5 : 1"
       sodipodi:type="inkscape:persp3d" />
    <inkscape:perspective
       id="perspective3994"
       inkscape:persp3d-origin="0.5 : 0.33333333 : 1"
       inkscape:vp_z="1 : 0.5 : 1"
       inkscape:vp_y="0 : 1000 : 0"
       inkscape:vp_x="0 : 0.5 : 1"
       sodipodi:type="inkscape:persp3d" />
    <inkscape:perspective
       id="perspective4016"
       inkscape:persp3d-origin="0.5 : 0.33333333 : 1"
       inkscape:vp_z="1 : 0.5 : 1"
       inkscape:vp_y="0 : 1000 : 0"
       inkscape:vp_x="0 : 0.5 : 1"
       sodipodi:type="inkscape:persp3d" />
    <inkscape:perspective
       id="perspective4837"
       inkscape:persp3d-origin="0.5 : 0.33333333 : 1"
       inkscape:vp_z="1 : 0.5 : 1"
       inkscape:vp_y="0 : 1000 : 0"
       inkscape:vp_x="0 : 0.5 : 1"
       sodipodi:type="inkscape:persp3d" />
    <inkscape:perspective
       id="perspective4971"
       inkscape:persp3d-origin="0.5 : 0.33333333 : 1"
       inkscape:vp_z="1 : 0.5 : 1"
       inkscape:vp_y="0 : 1000 : 0"
       inkscape:vp_x="0 : 0.5 : 1"
       sodipodi:type="inkscape:persp3d" />
    <inkscape:perspective
       id="perspective6216"
       inkscape:persp3d-origin="0.5 : 0.33333333 : 1"
       inkscape:vp_z="1 : 0.5 : 1"
       inkscape:vp_y="0 : 1000 : 0"
       inkscape:vp_x="0 : 0.5 : 1"
       sodipodi:type="inkscape:persp3d" />
    <inkscape:perspective
       id="perspective6764"
       inkscape:persp3d-origin="0.5 : 0.33333333 : 1"
       inkscape:vp_z="1 : 0.5 : 1"
       inkscape:vp_y="0 : 1000 : 0"
       inkscape:vp_x="0 : 0.5 : 1"
       sodipodi:type="inkscape:persp3d" />
    <inkscape:perspective
       id="perspective6817"
       inkscape:persp3d-origin="0.5 : 0.33333333 : 1"
       inkscape:vp_z="1 : 0.5 : 1"
       inkscape:vp_y="0 : 1000 : 0"
       inkscape:vp_x="0 : 0.5 : 1"
       sodipodi:type="inkscape:persp3d" />
    <radialGradient
       gradientUnits="userSpaceOnUse"
       gradientTransform="scale(0.79354273,1.2601716)"
       xlink:href="#linearGradient829"
       id="radialGradient874"
       cx="180.2453"
       cy="198.41902"
       r="101.58017"
       fx="180.2453"
       fy="198.41902" />
    <linearGradient
       id="linearGradient829">
      <stop
         style="stop-color: rgb(255, 255, 255); stop-opacity: 0.341667;"
         offset="0.0000000"
         id="stop830" />
      <stop
         style="stop-color: rgb(255, 255, 255); stop-opacity: 0;"
         offset="1.0000000"
         id="stop831" />
    </linearGradient>
    <radialGradient
       gradientUnits="userSpaceOnUse"
       gradientTransform="scale(1.007004,0.99304475)"
       xlink:href="#linearGradient829"
       id="radialGradient832"
       cx="360.85146"
       cy="167.47372"
       r="46.394721"
       fx="360.85146"
       fy="167.47372" />
    <linearGradient
       id="linearGradient6826">
      <stop
         style="stop-color: rgb(255, 255, 255); stop-opacity: 0.341667;"
         offset="0.0000000"
         id="stop6828" />
      <stop
         style="stop-color: rgb(255, 255, 255); stop-opacity: 0;"
         offset="1.0000000"
         id="stop6830" />
    </linearGradient>
    <linearGradient
       gradientUnits="userSpaceOnUse"
       gradientTransform="scale(0.74491357,1.3424376)"
       xlink:href="#linearGradient855"
       id="linearGradient850"
       x1="465.29425"
       y1="248.24467"
       x2="463.27056"
       y2="405.7687"
       spreadMethod="pad" />
    <linearGradient
       id="linearGradient855">
      <stop
         style="stop-color: rgb(255, 255, 255); stop-opacity: 0;"
         offset="0.0000000"
         id="stop856" />
      <stop
         style="stop-color: rgb(255, 166, 23); stop-opacity: 0.733333;"
         offset="1.0000000"
         id="stop857" />
    </linearGradient>
    <linearGradient
       gradientUnits="userSpaceOnUse"
       gradientTransform="scale(1.4586159,0.68558144)"
       xlink:href="#linearGradient855"
       id="linearGradient854"
       x1="157.80581"
       y1="120.96176"
       x2="155.40575"
       y2="231.63491" />
    <linearGradient
       id="linearGradient6837">
      <stop
         style="stop-color: rgb(255, 255, 255); stop-opacity: 0;"
         offset="0.0000000"
         id="stop6839" />
      <stop
         style="stop-color: rgb(255, 166, 23); stop-opacity: 0.733333;"
         offset="1.0000000"
         id="stop6841" />
    </linearGradient>
    <inkscape:perspective
       id="perspective6928"
       inkscape:persp3d-origin="0.5 : 0.33333333 : 1"
       inkscape:vp_z="1 : 0.5 : 1"
       inkscape:vp_y="0 : 1000 : 0"
       inkscape:vp_x="0 : 0.5 : 1"
       sodipodi:type="inkscape:persp3d" />
    <inkscape:perspective
       id="perspective10781"
       inkscape:persp3d-origin="0.5 : 0.33333333 : 1"
       inkscape:vp_z="1 : 0.5 : 1"
       inkscape:vp_y="0 : 1000 : 0"
       inkscape:vp_x="0 : 0.5 : 1"
       sodipodi:type="inkscape:persp3d" />
    <inkscape:perspective
       id="perspective10806"
       inkscape:persp3d-origin="0.5 : 0.33333333 : 1"
       inkscape:vp_z="1 : 0.5 : 1"
       inkscape:vp_y="0 : 1000 : 0"
       inkscape:vp_x="0 : 0.5 : 1"
       sodipodi:type="inkscape:persp3d" />
    <inkscape:perspective
       id="perspective10878"
       inkscape:persp3d-origin="0.5 : 0.33333333 : 1"
       inkscape:vp_z="1 : 0.5 : 1"
       inkscape:vp_y="0 : 1000 : 0"
       inkscape:vp_x="0 : 0.5 : 1"
       sodipodi:type="inkscape:persp3d" />
    <inkscape:perspective
       id="perspective10919"
       inkscape:persp3d-origin="0.5 : 0.33333333 : 1"
       inkscape:vp_z="1 : 0.5 : 1"
       inkscape:vp_y="0 : 1000 : 0"
       inkscape:vp_x="0 : 0.5 : 1"
       sodipodi:type="inkscape:persp3d" />
  </defs>
  <g
     id="g1327">
    <path
       d="M 66.275,1.768 C 24.94,1.768 1.704,23.139 1.704,66.804 L 1.704,516.927 C 1.704,557.771 22.599,579.156 63.896,579.156 L 515.92,579.156 C 557.227,579.156 578.149,558.841 578.149,516.927 L 578.149,66.804 C 578.149,24.203 557.227,1.768 514.628,1.768 C 514.624,1.768 66.133,1.625 66.275,1.768 z "
       style="fill:#111;stroke:#eee;stroke-width:3.40799999"
       id="path1329" />
  </g>
  <g
     id="layer3"
     inkscape:label="Layout"
     style="display:none;stroke:#757575;stroke-opacity:1"
     transform="matrix(48.14969,0,0,48.14969,-536.27327,-33.306752)">
    <rect
       style="fill:none;stroke:#757575;stroke-width:0.10000000000000001;stroke-miterlimit:4;stroke-dasharray:none;stroke-opacity:1;display:inline"
       id="rect4134"
       width="10"
       height="10"
       x="1"
       y="1" />
    <rect
       style="fill:none;stroke:#757575;stroke-width:0.10000000000000001;stroke-miterlimit:4;stroke-dasharray:none;stroke-opacity:1;display:inline"
       id="rect4136"
       width="8"
       height="8"
       x="2"
       y="2" />
  </g>
  <g
     id="g3338"
     transform="matrix(1.3973279,-0.2437849,0.2437849,1.3973279,-185.07402,-56.183307)" />
  <path
     style="fill:#ffffff;fill-opacity:1;stroke:#ffffff;stroke-width:10.98984432;stroke-linecap:round;stroke-linejoin:round;stroke-miterlimit:4;stroke-opacity:1;stroke-dasharray:none"
     d="m 52.563382,155.99203 c 29.546561,13.99402 60.765028,15.58941 94.300788,0 l 29.70446,-102.365016 -74.17088,0 z"
     id="path3250"
     inkscape:connector-curvature="0"
     sodipodi:nodetypes="ccccc" />
  <path
     sodipodi:nodetypes="ccccc"
     inkscape:connector-curvature="0"
     id="path3252"
     d="m 147.18933,155.99203 c 29.54656,13.99402 60.76502,15.58941 94.30078,0 l 10.19396,-102.365016 -74.17088,0 z"
     style="fill:none;stroke:#ffffff;stroke-width:10.98984432;stroke-linecap:round;stroke-linejoin:round;stroke-miterlimit:4;stroke-opacity:1;stroke-dasharray:none" />
  <path
     style="fill:#ffffff;fill-opacity:1;stroke:#ffffff;stroke-width:10.98984432;stroke-linecap:round;stroke-linejoin:round;stroke-miterlimit:4;stroke-opacity:1;stroke-dasharray:none"
     d="m 240.83975,155.99203 c 29.54656,13.99402 60.76502,15.58941 94.30078,0 l -9.31654,-102.365016 -74.17089,0 z"
     id="path3039"
     inkscape:connector-curvature="0"
     sodipodi:nodetypes="ccccc" />
  <path
     sodipodi:nodetypes="ccccc"
     inkscape:connector-curvature="0"
     id="path3041"
     d="m 335.46569,155.99203 c 29.54656,13.99402 60.76503,15.58941 94.30079,0 l -28.82705,-102.365016 -74.17089,0 z"
     style="fill:none;stroke:#ffffff;stroke-width:10.98984432;stroke-linecap:round;stroke-linejoin:round;stroke-miterlimit:4;stroke-opacity:1;stroke-dasharray:none" />
  <path
     style="fill:#ffffff;fill-opacity:1;stroke:#ffffff;stroke-width:10.98984432;stroke-linecap:round;stroke-linejoin:round;stroke-miterlimit:4;stroke-opacity:1;stroke-dasharray:none"
     d="m 429.11611,155.99203 c 29.54656,13.99402 60.76503,15.58941 94.30079,0 l -48.33756,-102.365016 -74.17088,0 z"
     id="path3043"
     inkscape:connector-curvature="0"
     sodipodi:nodetypes="ccccc" />
  <g
     id="g4244"
     transform="translate(0,14)">
    <path
       inkscape:connector-curvature="0"
       id="path3834"
       d="m 88.674599,376.21895 399.655541,0"
       style="fill:none;stroke:#ffffff;stroke-width:28.98771858;stroke-linecap:round;stroke-linejoin:round;stroke-miterlimit:4;stroke-opacity:1;stroke-dasharray:none" />
    <path
       style="fill:none;stroke:#ffffff;stroke-width:25;stroke-linecap:round;stroke-linejoin:round;stroke-miterlimit:4;stroke-opacity:1;stroke-dasharray:none"
       d="m 126.70277,514.91701 0,-130.49777"
       id="path3846"
       inkscape:connector-curvature="0"
       sodipodi:nodetypes="cc" />
    <path
       inkscape:connector-curvature="0"
       id="path3848"
       d="m 446.26059,514.91701 0,-130.49777"
       style="fill:none;stroke:#ffffff;stroke-width:25;stroke-linecap:round;stroke-linejoin:round;stroke-miterlimit:4;stroke-opacity:1;stroke-dasharray:none"
       sodipodi:nodetypes="cc" />
  </g>
  <g
     id="g4238"
     transform="matrix(1.0962905,0,0,1.0962905,3.593298,-35.169215)">
    <path
       style="fill:#ffffff"
       d="m 209.74503,225.79765 c 0,0 -10.56174,35.79543 -41.59499,25.12539 -0.005,0.0224 3.7446,-31.18541 41.59499,-25.12539 z"
       id="path6571"
       inkscape:connector-curvature="0" />
    <path
       style="fill:#ffffff"
       d="m 157.72652,270.07711 c 5.36274,-5.30508 12.68607,-8.50543 20.81666,-8.50543 16.40541,0 29.75463,13.29154 29.75463,29.72577 0,0.60547 0,1.12444 -0.0288,1.75875 h -0.0576 c -0.51898,6.42953 -2.56606,14.41598 -7.40985,24.33419 0,0 -8.33244,15.94407 -15.02146,23.2674 l -0.60547,0.57664 c -3.22916,3.25801 -7.78462,5.30508 -12.71487,5.30508 -6.05474,0 -11.41748,-2.94086 -14.67549,-7.49631 h -0.0865 c -3.25802,4.55545 -8.62076,7.49631 -14.67547,7.49631 -4.98794,0 -9.48572,-2.01824 -12.74374,-5.30508 l -0.60546,-0.57664 c -6.63136,-7.32333 -15.02146,-23.2674 -15.02146,-23.2674 -4.84377,-9.91821 -6.89084,-17.96232 -7.35216,-24.33419 h -0.14415 c -0.0865,-0.60547 -0.0865,-1.12445 -0.0865,-1.75875 0,-16.43423 13.34921,-29.72577 29.81226,-29.72577 8.10178,0 15.42511,3.20035 20.84552,8.50543"
       id="path6573"
       inkscape:connector-curvature="0" />
    <path
       id="path10957"
       d="m 113.68291,214.69051 c 0,0 6.27532,31.27326 33.50285,24.54444 0.003,0.0195 -0.82177,-26.83164 -33.50285,-24.54444 z"
       style="fill:#ffffff"
       inkscape:connector-curvature="0" />
    <path
       id="path10959"
       d="m 156.85947,263.78173 c 0,0 -0.30241,-32.11059 -3.62889,-40.48726 -3.32648,-8.37667 11.18908,0 11.18908,0 l -7.56019,40.48726 z"
       style="fill:#ffffff;fill-opacity:1;stroke:#ffffff;stroke-width:1.3514632;stroke-linecap:butt;stroke-linejoin:miter;stroke-miterlimit:4;stroke-opacity:1;stroke-dasharray:none"
       inkscape:connector-curvature="0" />
  </g>
  <g
     id="g6443"
     transform="matrix(0.61265013,0,0,0.61265013,223.35252,104.87275)">
    <path
       inkscape:connector-curvature="0"
       sodipodi:nodetypes="ccccssccccccscccczzssscccccccccccccccccccccccccccccccccccccccccccccccccccccccccccccccccccccccccccsscccsscccc"
       style="fill:#ffffff;fill-opacity:1;stroke:#ffffff;stroke-opacity:1"
       id="path3"
       d="m 366.80484,182.59267 c -2.24001,0.006 -4.103,0.61275 -5.625,1.34375 -2.662,1.31899 -4.565,3.015 -6.375,4.75 -2.664,2.603 -5.01325,5.4475 -7.03125,7.6875 -0.998,1.113 -1.8945,2.0795 -2.5625,2.6875 -0.33001,0.305 -0.603,0.521 -0.75,0.625 -0.025,0.019 -0.0465,0.0203 -0.0625,0.0312 l -12.28125,5.28125 c -0.43399,-0.007 -0.84025,0 -1.28125,0 -16.77899,0.023 -31.79175,4.89175 -45.96875,9.34375 -15.629,4.95 -30.556,10.832 -45.625,13.75 -6.91999,1.36 -14.723,1.734 -22.875,2.375 -8.14701,0.66 -16.6815,1.56 -25.0625,4.5 -7.45301,2.61399 -13.76425,5.5795 -20.53125,9.8125 -2.96401,1.87201 -5.5705,4.12575 -8.0625,5.96875 -2.42299,1.85501 -4.753,3.15575 -5.625,3.34375 l -3.84375,2.5625 c 0,0 -3.46241,2.64587 -5.25868,4.18601 l -7.23227,6.20102 c -7.26827,6.23189 -9.63805,21.99647 -9.63405,30.80047 0,10e-4 0,0.007 0,0.0312 0,0.024 0,0.081 0,0.125 0.063,13.49101 4.4395,26.24975 11.4375,37.59375 7.03,11.392 16.69125,21.4595 27.65625,29.9375 22.031,16.89899 49.6945,27.896 75.8125,28 5.10201,-0.002 10.16575,-0.43 15.09375,-1.375 4.60799,-0.84599 8.61225,-3.04175 11.65625,-5.84375 1.91399,-1.758 5.485,-3.7375 6.75,-5.8125 2.21501,-1.003 2.32725,-2.3965 4.03125,-4.1875 2.515,-2.608 4.1615,-5.48625 6.0625,-9.03125 3.13701,-5.92801 6.959,-12.2515 10,-19.0625 3.46801,-7.858 4.71525,-16.14725 5.90625,-23.90625 1.15199,-7.75801 2.23425,-15.018 4.40625,-20.625 2.213,-5.80299 6.05775,-10.686 10.84375,-15.875 4.74799,-5.184 10.39275,-10.54575 15.21875,-17.46875 3.75699,-5.45401 8.1915,-10.27875 12.0625,-16.34375 3.40599,-5.295 6.172,-11.80525 6.75,-19.65625 l 9.6875,-5.09375 0.8125,-0.84375 c 1.04799,-1.03601 1.89275,-1.48125 3.21875,-1.90625 1.96,-0.63899 5.054,-0.76175 9,-1.09375 3.852,-0.361 9.01525,-1.15925 13.65625,-4.90625 1.91399,-1.557 3.53325,-3.21475 4.78125,-5.21875 1.242,-1.97901 2.0725,-4.4195 2.0625,-6.9375 0.007,-2.053 -0.555,-4.039 -1.375,-5.625 -1.46501,-2.799 -3.4615,-4.55175 -5.4375,-5.96875 -2.996,-2.094 -6.20375,-3.44925 -9.21875,-4.53125 -1.313,-0.463 -2.59425,-0.87675 -3.78125,-1.21875 -0.66101,-1.467 -1.442,-2.80875 -2.5,-4.09375 -1.00899,-1.204 -2.303,-2.334 -3.875,-3.125 -1.563,-0.8 -3.38625,-1.1985 -5.03125,-1.1875 z m -0.28125,7.5 c 2.36606,-0.16095 4.47872,1.73885 6,7.1875 7.16,1.61 26.31349,7.357 13.9375,17.375 -7.616,6.166 -18.628,0.50899 -26.5,8.5 l -12.5625,6.59375 c -0.007,-0.239 -0.0193,-0.47574 -0.0312,-0.71875 -3.176,1.153 -6.43674,2.54825 -9.71875,3.15625 -0.472,-3.34 -1.21276,-6.59026 -2.09375,-9.78125 -2.442,0.967 -5.41574,1.815 -7.84375,2.25 0.928,-4.522 1.96225,-7.9845 4.28125,-11.4375 l 15.53125,-6.65625 c 5.08659,-2.21088 12.9534,-16.05744 19,-16.46875 z m -197.71875,71.34375 c 0.57121,-0.0176 1.14562,2.5e-4 1.71875,0 13.664,0.027 27.9265,4.6985 38.8125,8.8125 8.84501,3.36201 16.1535,6.4775 22.8125,10.8125 6.66099,4.32701 12.55775,9.87 18.59375,17.75 9.45501,12.35401 19.29125,27.78825 23.28125,43.90625 0.95901,3.915 1.59175,8.8705 1.59375,14.0625 -0.013,5.728 -0.75025,11.73375 -3.03125,16.96875 -2.20801,5.186 -6.487,9.84325 -12.875,11.03125 -4.41499,0.84699 -8.99425,1.248 -13.65625,1.25 -23.96699,-0.04 -50.45925,-10.4115 -71.28125,-26.4375 -20.744,-16.03099 -36.08725,-37.91075 -36.15625,-61.71875 -0.002,-7.72701 1.66725,-15.6065 5.28125,-23.3125 l 6.28125,-7 6.9375,-4.25 c 3.76776,-1.18125 7.68901,-1.75204 11.6875,-1.875 z m 16.75,35.375 c 4.645,0.033 9.53775,1.08125 13.21875,4.15625 1.41,1.215 3.11025,3.09225 4.65625,5.40625 1.503,2.324 2.91675,5.007 2.96875,8.25 0.004,1.32501 -0.27725,2.78075 -1.03125,4.09375 -1.016,1.78701 -2.6775,2.996 -4.3125,3.625 -1.64701,0.64599 -3.30225,0.83975 -4.90625,0.84375 -4.36001,-0.022 -8.605,-1.428 -10.75,-2.125 l -0.28125,-0.0937 -9.40625,-5.125 -0.375,-0.21875 -0.34375,-0.28125 c -2.834,-2.661 -4.586,-5.45625 -4.625,-8.65625 -0.013,-1.848 0.703,-3.61625 1.75,-4.90625 1.04901,-1.305 2.35925,-2.2255 3.78125,-2.9375 2.851,-1.40601 6.20225,-2.01925 9.65625,-2.03125 z m 0,7 c -1.914,-0.005 -3.76375,0.29925 -5.21875,0.78125 -1.46599,0.469 -2.452,1.1515 -2.75,1.5625 -0.208,0.28501 -0.20575,0.35025 -0.21875,0.53125 -0.037,0.247 0.23975,1.40675 2.09375,3.21875 l 8.46875,4.625 c 1.974,0.656 5.55575,1.67925 8.21875,1.65625 1.01399,0.006 1.85475,-0.14375 2.34375,-0.34375 0.50301,-0.217 0.62325,-0.373 0.78125,-0.625 0.068,-0.12599 0.121,-0.25675 0.125,-0.59375 0.052,-0.81199 -0.62525,-2.69 -1.78125,-4.375 -1.113,-1.693 -2.61725,-3.2775 -3.40625,-3.9375 -1.66401,-1.49099 -5.19025,-2.535 -8.65625,-2.5 z" />
    <path
       inkscape:connector-curvature="0"
       id="path6439"
       d="m 144.94595,333.42528 23.65784,26.65673 30.32203,17.99329 32.65449,9.66306 27.98956,1.66605 10.9959,-6.66418 7.3306,-12.32874 5.33135,-39.98509 -28.32278,-52.98024 -46.31606,-19.32613 -38.65225,-3.99851 -17.99329,6.66418 -12.66195,11.99553 -4.66492,19.32613 2.66567,23.65784 7.66381,17.66008 z"
       style="opacity:0.1;fill:#ffffff;fill-opacity:1;fill-rule:evenodd;stroke:none" />
    <path
       inkscape:connector-curvature="0"
       id="path6441"
       d="m 323.21281,212.13718 22.325,-9.66307 18.99292,-16.32724 10.32948,4.99814 15.99404,10.66269 2.66567,9.66306 -8.99664,7.99702 -17.99329,2.99888 -24.99068,16.66045 -27.98957,-3.6653 9.66307,-23.32463 z"
       style="opacity:0.1;fill:#ffffff;fill-opacity:1;fill-rule:evenodd;stroke:none" />
  </g>
  <path
     style="fill:#ffffff;stroke:#ffffff;stroke-width:10.98984431999999956;stroke-linecap:round;stroke-linejoin:round;stroke-miterlimit:4;stroke-opacity:1;stroke-dasharray:none;fill-opacity:1;opacity:0.1"
     d="m 147.18933,155.99203 c 29.54656,13.99402 60.76502,15.58941 94.30078,0 l 10.19396,-102.365016 -74.17088,0 z"
     id="path4254"
     inkscape:connector-curvature="0"
     sodipodi:nodetypes="ccccc" />
  <path
     style="fill:#ffffff;stroke:#ffffff;stroke-width:10.98984431999999956;stroke-linecap:round;stroke-linejoin:round;stroke-miterlimit:4;stroke-opacity:1;stroke-dasharray:none;fill-opacity:1;opacity:0.1"
     d="m 335.46569,155.99203 c 29.54656,13.99402 60.76503,15.58941 94.30079,0 l -28.82705,-102.365016 -74.17089,0 z"
     id="path4256"
     inkscape:connector-curvature="0"
     sodipodi:nodetypes="ccccc" />
</svg>
