<?xml version="1.0" encoding="UTF-8" standalone="no"?>
<!-- Created with Inkscape (http://www.inkscape.org/) -->

<svg
   xmlns="http://www.w3.org/2000/svg"
   version="1.1"
   width="100%"
   height="100%"
   viewBox="0 0 16 16">
  <path
     d="M 1.75,1 C 1.2738513,1.8999747 1,2.9246207 1,4 1,5.0753793 1.2738513,6.1000253 1.75,7 L 3,7 C 2.4406639,6.1503948 2.125,5.1147945 2.125,4 2.125,2.8852054 2.4388171,1.851452 3,1 L 1.75,1 z M 13,1 c 0.561183,0.851452 0.875,1.8852054 0.875,3 0,1.1147945 -0.315664,2.1503948 -0.875,3 l 1.25,0 C 14.726149,6.1000253 15,5.0753793 15,4 15,2.9246207 14.726149,1.8999747 14.25,1 L 13,1 z M 3.875,2 c -0.3065169,0.6075128 -0.5,1.2749801 -0.5,2 0,0.7250199 0.1934831,1.3924872 0.5,2 L 5,6 C 4.6079352,5.4344715 4.375,4.7431807 4.375,4 4.375,3.2568193 4.6079352,2.5655285 5,2 L 3.875,2 z M 11,2 c 0.392065,0.5655285 0.625,1.2568193 0.625,2 0,0.7431807 -0.232935,1.4344715 -0.625,2 l 1.125,0 c 0.306517,-0.6075128 0.5,-1.2749801 0.5,-2 0,-0.7250199 -0.193483,-1.3924872 -0.5,-2 L 11,2 z M 5.84375,3 C 5.7064384,3.3088527 5.625,3.6417616 5.625,4 c 0,0.3582384 0.081438,0.6911473 0.21875,1 L 7,5 C 6.7650613,4.7355992 6.625,4.3852731 6.625,4 6.625,3.6147269 6.7650613,3.2644008 7,3 L 5.84375,3 z M 9,3 C 9.2349387,3.2644008 9.375,3.6147269 9.375,4 9.375,4.3852731 9.2349387,4.7355992 9,5 l 1.15625,0 C 10.293562,4.6911473 10.375,4.3582384 10.375,4 10.375,3.6417616 10.29356,3.3088527 10.15625,3 L 9,3 z M 7,6 4,15 5.25,15 5.5,14.15625 8,12.40625 10.5,14.125 10.75,15 12,15 9,6 7,6 z M 7.6875,7 8.28125,7 8.59375,8 7.375,8 7.6875,7 z M 7.0625,9 8.90625,9 9.34375,10.46875 8,11.40625 6.625,10.4375 7.0625,9 z m -0.6875,2.28125 0.90625,0.625 -1.375,0.96875 0.46875,-1.59375 z m 3.21875,0 0.5,1.59375 -1.375,-0.96875 0.875,-0.625 z" />
</svg>
