<?xml version="1.0" encoding="utf-8"?>
<!-- Generator: Adobe Illustrator 14.0.0, SVG Export Plug-In . SVG Version: 6.00 Build 43363)  -->
<!DOCTYPE svg PUBLIC "-//W3C//DTD SVG 1.1//EN" "http://www.w3.org/Graphics/SVG/1.1/DTD/svg11.dtd">
<svg version="1.1"
	 id="svg2" xmlns:rdf="http://www.w3.org/1999/02/22-rdf-syntax-ns#" sodipodi:docname="tourist_memorial.svg" inkscape:version="0.47 r22583" xmlns:svg="http://www.w3.org/2000/svg" xmlns:sodipodi="http://sodipodi.sourceforge.net/DTD/sodipodi-0.dtd" xmlns:inkscape="http://www.inkscape.org/namespaces/inkscape" xmlns:dc="http://purl.org/dc/elements/1.1/" sodipodi:version="0.32" xmlns:cc="http://creativecommons.org/ns#" inkscape:output_extension="org.inkscape.output.svg.inkscape"
	 xmlns="http://www.w3.org/2000/svg" xmlns:xlink="http://www.w3.org/1999/xlink" x="0px" y="0px" width="580px" height="580px"
	 viewBox="0 0 580 580" enable-background="new 0 0 580 580" xml:space="preserve">
<sodipodi:namedview  showgrid="false" inkscape:current-layer="svg2" inkscape:window-y="13" inkscape:window-x="11" inkscape:cy="170.17714" inkscape:cx="386.22617" inkscape:zoom="0.65172414" pagecolor="#ffffff" bordercolor="#666666" borderopacity="1.0" objecttolerance="10.0" gridtolerance="10.0" guidetolerance="10.0" inkscape:window-height="947" inkscape:window-width="1048" inkscape:pageshadow="2" inkscape:pageopacity="0.0" inkscape:window-maximized="0" id="base">
	</sodipodi:namedview>
<defs>
	
	
		<inkscape:perspective  inkscape:persp3d-origin="290 : 193.33333 : 1" inkscape:vp_z="580 : 290 : 1" inkscape:vp_y="0 : 1000 : 0" inkscape:vp_x="0 : 290 : 1" sodipodi:type="inkscape:persp3d" id="perspective2441">
		</inkscape:perspective>
	
		<inkscape:perspective  inkscape:persp3d-origin="30 : 20 : 1" inkscape:vp_z="60 : 30 : 1" inkscape:vp_y="0 : 1000 : 0" inkscape:vp_x="0 : 30 : 1" sodipodi:type="inkscape:persp3d" id="perspective3452">
		</inkscape:perspective>
	
		<inkscape:perspective  inkscape:persp3d-origin="372.04724 : 350.78739 : 1" inkscape:vp_z="744.09448 : 526.18109 : 1" inkscape:vp_y="0 : 1000 : 0" inkscape:vp_x="0 : 526.18109 : 1" sodipodi:type="inkscape:persp3d" id="perspective4471">
		</inkscape:perspective>
	
		<inkscape:perspective  inkscape:persp3d-origin="6 : 4 : 1" inkscape:vp_z="12 : 6 : 1" inkscape:vp_y="0 : 1000 : 0" inkscape:vp_x="0 : 6 : 1" sodipodi:type="inkscape:persp3d" id="perspective4668">
		</inkscape:perspective>
	
		<inkscape:perspective  inkscape:persp3d-origin="16 : 10.666667 : 1" inkscape:vp_z="32 : 16 : 1" inkscape:vp_y="0 : 1000 : 0" inkscape:vp_x="0 : 16 : 1" sodipodi:type="inkscape:persp3d" id="perspective4904">
		</inkscape:perspective>
	
		<inkscape:perspective  inkscape:persp3d-origin="16 : 10.666667 : 1" inkscape:vp_z="32 : 16 : 1" inkscape:vp_y="0 : 1000 : 0" inkscape:vp_x="0 : 16 : 1" sodipodi:type="inkscape:persp3d" id="perspective5233">
		</inkscape:perspective>
	
		<inkscape:perspective  inkscape:persp3d-origin="250 : 166.66667 : 1" inkscape:vp_z="500 : 250 : 1" inkscape:vp_y="0 : 1000 : 0" inkscape:vp_x="0 : 250 : 1" sodipodi:type="inkscape:persp3d" id="perspective5412">
		</inkscape:perspective>
	
		<inkscape:perspective  inkscape:persp3d-origin="202.85715 : 136.19048 : 1" inkscape:vp_z="405.71429 : 204.28572 : 1" inkscape:vp_y="0 : 1000 : 0" inkscape:vp_x="0 : 204.28572 : 1" sodipodi:type="inkscape:persp3d" id="perspective5571">
		</inkscape:perspective>
	
		<inkscape:perspective  inkscape:persp3d-origin="64 : 42.666667 : 1" inkscape:vp_z="128 : 64 : 1" inkscape:vp_y="0 : 1000 : 0" inkscape:vp_x="0 : 64 : 1" sodipodi:type="inkscape:persp3d" id="perspective6552">
		</inkscape:perspective>
</defs>
<path id="rect3812" opacity="0.75" fill="#603813" enable-background="new    " d="M288.77,277.448
	c-0.539,0-0.997,0.459-0.997,0.998v13.09c0.001,0.05,11.528,0.027,11.525,0v-13.09c0-0.539-0.46-0.998-0.997-0.998H288.77z
	 M290.734,278.386c0.041,0,0.076,0.015,0.104,0.045c0.029,0.03,0.043,0.07,0.043,0.121s-0.014,0.09-0.043,0.12
	c-0.027,0.029-0.062,0.045-0.104,0.045c-0.039,0-0.072-0.016-0.102-0.045c-0.027-0.03-0.043-0.069-0.043-0.12
	s0.016-0.091,0.043-0.121C290.662,278.4,290.695,278.386,290.734,278.386z M293.039,278.388c0.041,0,0.074,0.015,0.104,0.045
	c0.027,0.03,0.042,0.07,0.042,0.121s-0.015,0.091-0.042,0.121c-0.029,0.029-0.062,0.043-0.104,0.043s-0.076-0.014-0.104-0.043
	c-0.018-0.021-0.031-0.047-0.037-0.078c-0.003,0.01-0.006,0.021-0.011,0.033c-0.012,0.03-0.028,0.061-0.046,0.092
	c-0.016-0.01-0.035-0.022-0.061-0.033c-0.023-0.011-0.053-0.016-0.081-0.016c-0.026,0-0.047,0.008-0.065,0.024
	c-0.018,0.016-0.027,0.041-0.027,0.075v0.042h0.219v0.264h-0.219v0.591h-0.294v-0.845c0-0.016,0-0.037,0-0.064
	c0.001-0.027,0.003-0.049,0.005-0.065c0.014-0.096,0.046-0.167,0.102-0.218c0.055-0.05,0.131-0.076,0.229-0.076
	c0.02,0,0.04,0.001,0.062,0.005c0.021,0.002,0.044,0.007,0.064,0.013c0.035,0.011,0.066,0.027,0.092,0.048
	c0.016,0.012,0.023,0.028,0.031,0.046c0.005-0.031,0.018-0.058,0.037-0.079C292.963,278.403,292.998,278.388,293.039,278.388z
	 M292.898,278.512c-0.003,0.013-0.004,0.027-0.004,0.042s0.001,0.029,0.004,0.043c0.005-0.016,0.008-0.029,0.008-0.04
	C292.906,278.54,292.903,278.525,292.898,278.512L292.898,278.512z M291.354,278.395c0.02,0,0.042,0.001,0.064,0.004
	c0.021,0.003,0.043,0.007,0.063,0.014c0.036,0.01,0.067,0.025,0.093,0.047s0.039,0.052,0.039,0.093c0,0.017-0.006,0.041-0.019,0.071
	c-0.012,0.03-0.027,0.062-0.046,0.093c-0.016-0.011-0.036-0.021-0.061-0.033c-0.023-0.012-0.053-0.017-0.081-0.017
	c-0.026,0-0.048,0.007-0.066,0.022c-0.017,0.016-0.026,0.042-0.026,0.076v0.042h0.219v0.264h-0.219v0.591h-0.295v-0.847
	c0-0.016,0.002-0.036,0.002-0.062c0-0.027,0.001-0.049,0.002-0.066c0.014-0.095,0.047-0.168,0.102-0.219
	C291.18,278.42,291.256,278.395,291.354,278.395L291.354,278.395z M291.729,278.407c0.025,0,0.047,0.002,0.07,0.008
	c0.021,0.005,0.041,0.015,0.058,0.029s0.031,0.032,0.04,0.056c0.011,0.024,0.016,0.056,0.016,0.093v1.062
	c-0.04,0.015-0.076,0.023-0.107,0.023c-0.045,0-0.08-0.007-0.104-0.02c-0.026-0.013-0.044-0.029-0.056-0.051
	c-0.014-0.021-0.021-0.046-0.023-0.074c-0.002-0.027-0.004-0.057-0.004-0.087v-1.026c0.012-0.001,0.023-0.003,0.037-0.005
	c0.01-0.002,0.022-0.005,0.037-0.005C291.704,278.407,291.716,278.407,291.729,278.407z M289.798,278.431
	c0.024,0,0.046,0.002,0.068,0.007s0.042,0.015,0.059,0.029c0.017,0.014,0.031,0.032,0.042,0.056c0.01,0.023,0.016,0.056,0.016,0.093
	v0.569c0.004-0.026,0.012-0.052,0.023-0.077c0.011-0.025,0.025-0.05,0.042-0.075l0.08-0.123c0.019-0.028,0.039-0.053,0.062-0.073
	s0.054-0.031,0.093-0.031c0.023,0,0.045,0.003,0.067,0.011c0.022,0.008,0.041,0.016,0.058,0.025
	c0.019,0.011,0.036,0.023,0.053,0.037l-0.203,0.339l0.24,0.437c-0.065,0.031-0.125,0.048-0.179,0.048
	c-0.046,0-0.083-0.01-0.109-0.031c-0.026-0.02-0.05-0.045-0.07-0.077l-0.094-0.158c-0.017-0.027-0.03-0.052-0.04-0.076
	c-0.009-0.024-0.017-0.05-0.021-0.079v0.4h-0.297v-1.242c0.013-0.001,0.025-0.003,0.038-0.006c0.011-0.002,0.023-0.002,0.036-0.004
	C289.772,278.432,289.786,278.431,289.798,278.431z M289.358,278.446c0.023,0,0.046,0.003,0.068,0.009
	c0.021,0.005,0.042,0.014,0.059,0.027c0.018,0.014,0.031,0.033,0.041,0.057c0.011,0.024,0.016,0.055,0.016,0.093v1.062
	c-0.041,0.015-0.078,0.023-0.109,0.023c-0.045,0-0.08-0.007-0.105-0.02c-0.025-0.013-0.043-0.029-0.056-0.05
	c-0.013-0.021-0.02-0.046-0.022-0.073c-0.002-0.028-0.003-0.058-0.003-0.088v-1.026c0.012-0.001,0.024-0.003,0.037-0.006
	c0.011-0.002,0.023-0.004,0.036-0.005C289.332,278.446,289.345,278.446,289.358,278.446L289.358,278.446z M295.068,278.448
	c0.02,0,0.041,0.001,0.064,0.004c0.021,0.003,0.043,0.007,0.064,0.013c0.035,0.011,0.065,0.027,0.092,0.049
	c0.018,0.016,0.031,0.036,0.035,0.062v-0.1c0.012-0.001,0.024-0.003,0.039-0.005c0.009-0.002,0.021-0.004,0.035-0.006
	c0.013-0.001,0.027-0.001,0.039-0.001c0.023,0,0.045,0.002,0.068,0.007c0.022,0.005,0.041,0.015,0.058,0.028
	c0.019,0.014,0.03,0.033,0.042,0.058c0.009,0.024,0.014,0.055,0.014,0.092v1.062c-0.039,0.015-0.075,0.023-0.106,0.023
	c-0.046,0-0.081-0.007-0.105-0.02c-0.026-0.013-0.044-0.031-0.056-0.052c-0.014-0.021-0.02-0.045-0.023-0.073
	c-0.002-0.027-0.004-0.058-0.004-0.088v-0.877c-0.002,0.015-0.007,0.032-0.016,0.052c-0.012,0.03-0.026,0.062-0.046,0.093
	c-0.016-0.011-0.036-0.022-0.062-0.033c-0.024-0.011-0.051-0.017-0.08-0.017c-0.025,0-0.047,0.009-0.064,0.024
	c-0.02,0.016-0.027,0.041-0.027,0.075v0.042h0.219v0.263h-0.219v0.591h-0.295v-0.845c0-0.016,0-0.037,0-0.064
	c0.001-0.027,0.004-0.05,0.005-0.066c0.013-0.096,0.047-0.168,0.102-0.219C294.895,278.473,294.971,278.448,295.068,278.448z
	 M295.324,278.625c0.002-0.007,0.002-0.015,0.002-0.02c0-0.011,0-0.02-0.002-0.029V278.625z M296.957,278.449
	c0.02,0,0.04,0.001,0.062,0.004c0.023,0.003,0.044,0.007,0.064,0.014c0.035,0.011,0.066,0.027,0.092,0.048
	c0.025,0.021,0.037,0.052,0.037,0.092c0,0.018-0.005,0.042-0.016,0.071c-0.013,0.03-0.027,0.061-0.047,0.093
	c-0.016-0.011-0.035-0.021-0.061-0.032c-0.023-0.012-0.051-0.018-0.082-0.018c-0.025,0-0.045,0.008-0.064,0.024
	c-0.017,0.016-0.025,0.041-0.025,0.075v0.043h0.219v0.264h-0.219v0.59h-0.295v-0.845c0-0.015,0-0.037,0-0.064
	s0.002-0.048,0.004-0.065c0.012-0.096,0.047-0.169,0.102-0.219C296.783,278.475,296.859,278.449,296.957,278.449z M294.451,278.451
	c0.025,0,0.049,0.003,0.07,0.008c0.022,0.005,0.042,0.015,0.059,0.029c0.018,0.013,0.029,0.032,0.041,0.056
	c0.01,0.024,0.016,0.055,0.016,0.093v1.069h-0.223c-0.016,0-0.027-0.005-0.041-0.013c-0.01-0.008-0.016-0.026-0.016-0.053
	c-0.016,0.021-0.037,0.041-0.066,0.059c-0.029,0.017-0.068,0.025-0.113,0.025c-0.033,0-0.066-0.007-0.1-0.02
	s-0.061-0.036-0.088-0.068c-0.027-0.033-0.047-0.077-0.063-0.133c-0.016-0.056-0.023-0.126-0.023-0.211
	c0-0.085,0.007-0.157,0.022-0.216c0.014-0.059,0.035-0.107,0.061-0.144c0.026-0.036,0.057-0.062,0.089-0.079
	s0.069-0.025,0.106-0.025c0.021,0,0.045,0.004,0.062,0.01c0.02,0.006,0.034,0.013,0.049,0.021c0.014,0.007,0.023,0.015,0.032,0.023
	c0.008,0.007,0.013,0.013,0.016,0.016v-0.433c0.013-0.002,0.024-0.003,0.038-0.006c0.01-0.002,0.021-0.004,0.035-0.005
	C294.427,278.451,294.439,278.451,294.451,278.451z M295.85,278.464c0.023,0,0.047,0.002,0.069,0.007s0.042,0.015,0.058,0.028
	c0.018,0.014,0.031,0.033,0.041,0.058c0.011,0.024,0.016,0.055,0.016,0.092v0.569c0.006-0.026,0.014-0.052,0.025-0.077
	c0.01-0.025,0.024-0.05,0.041-0.075l0.078-0.122c0.02-0.028,0.041-0.053,0.062-0.073c0.023-0.021,0.055-0.031,0.094-0.031
	c0.023,0,0.046,0.004,0.066,0.012c0.021,0.008,0.042,0.016,0.058,0.025c0.021,0.011,0.036,0.022,0.054,0.035l-0.202,0.34
	l0.241,0.438c-0.068,0.032-0.127,0.047-0.182,0.047c-0.045,0-0.082-0.01-0.109-0.03c-0.027-0.02-0.051-0.046-0.068-0.078
	l-0.096-0.157c-0.016-0.028-0.028-0.054-0.039-0.078c-0.01-0.023-0.018-0.049-0.023-0.079v0.401h-0.295v-1.241
	c0.012-0.001,0.024-0.003,0.037-0.005c0.011-0.002,0.022-0.004,0.035-0.006C295.824,278.464,295.838,278.464,295.85,278.464z
	 M297.742,278.464c0.025,0,0.049,0.002,0.07,0.007s0.041,0.015,0.059,0.028c0.017,0.014,0.029,0.033,0.04,0.058
	c0.011,0.024,0.016,0.055,0.016,0.092v1.068h-0.222c-0.016,0-0.028-0.004-0.041-0.012c-0.011-0.008-0.018-0.025-0.018-0.053
	c-0.014,0.021-0.033,0.04-0.064,0.058c-0.031,0.017-0.068,0.025-0.115,0.025c-0.032,0-0.064-0.006-0.098-0.019
	c-0.031-0.013-0.061-0.036-0.087-0.068c-0.027-0.033-0.05-0.078-0.065-0.133s-0.023-0.126-0.023-0.211
	c0-0.084,0.007-0.158,0.021-0.216c0.017-0.059,0.036-0.106,0.062-0.143c0.025-0.036,0.056-0.063,0.088-0.079
	c0.035-0.017,0.07-0.025,0.105-0.025c0.025,0,0.045,0.003,0.064,0.009s0.033,0.013,0.048,0.021c0.013,0.008,0.024,0.016,0.032,0.023
	s0.014,0.013,0.016,0.016v-0.433c0.014-0.001,0.026-0.003,0.039-0.005c0.01-0.002,0.022-0.004,0.035-0.006
	C297.717,278.464,297.73,278.464,297.742,278.464z M293.563,278.809c0.081,0,0.151,0.015,0.212,0.044
	c0.026,0.013,0.049,0.029,0.065,0.047c0.017,0.019,0.026,0.041,0.026,0.065c0,0.021-0.006,0.046-0.018,0.076
	s-0.025,0.058-0.043,0.085c-0.029-0.027-0.06-0.049-0.092-0.066c-0.033-0.018-0.066-0.025-0.101-0.025
	c-0.042,0-0.063,0.014-0.063,0.043c0,0.019,0.009,0.033,0.024,0.043s0.036,0.019,0.058,0.025c0.025,0.007,0.051,0.016,0.078,0.024
	c0.028,0.009,0.053,0.022,0.076,0.04c0.025,0.018,0.045,0.042,0.061,0.072c0.016,0.031,0.023,0.072,0.023,0.121
	c0,0.095-0.029,0.17-0.084,0.226c-0.056,0.056-0.137,0.085-0.243,0.085c-0.062,0-0.108-0.007-0.144-0.018
	c-0.033-0.011-0.061-0.022-0.08-0.034c-0.025-0.015-0.043-0.032-0.053-0.05s-0.014-0.037-0.014-0.057
	c0-0.031,0.004-0.061,0.016-0.09c0.014-0.029,0.028-0.059,0.043-0.087c0.013,0.013,0.025,0.025,0.041,0.036
	c0.016,0.012,0.033,0.021,0.05,0.031s0.036,0.016,0.055,0.022c0.019,0.005,0.036,0.007,0.055,0.007c0.024,0,0.044-0.004,0.055-0.014
	c0.011-0.01,0.016-0.023,0.016-0.039c0-0.018-0.007-0.032-0.023-0.043c-0.016-0.01-0.036-0.019-0.06-0.027
	c-0.025-0.008-0.05-0.018-0.08-0.029c-0.027-0.01-0.053-0.025-0.078-0.044c-0.021-0.018-0.043-0.042-0.06-0.072
	c-0.017-0.03-0.024-0.069-0.024-0.118c0-0.047,0.01-0.088,0.025-0.123c0.018-0.036,0.039-0.065,0.068-0.088
	c0.027-0.022,0.06-0.04,0.096-0.051C293.482,278.813,293.523,278.809,293.563,278.809z M290.709,278.81
	c0.023,0,0.047,0.002,0.069,0.008c0.022,0.006,0.041,0.015,0.058,0.029c0.018,0.014,0.031,0.032,0.041,0.056
	c0.011,0.024,0.016,0.056,0.016,0.094v0.626c0,0.026-0.002,0.058-0.004,0.096c-0.002,0.039-0.006,0.073-0.013,0.104
	c-0.011,0.047-0.028,0.087-0.051,0.119c-0.022,0.031-0.048,0.057-0.076,0.076c-0.028,0.02-0.056,0.034-0.084,0.042
	c-0.028,0.008-0.054,0.012-0.075,0.012c-0.043,0-0.072-0.009-0.092-0.029c-0.02-0.019-0.034-0.048-0.041-0.085
	c-0.003-0.015-0.005-0.031-0.006-0.049c-0.001-0.017-0.003-0.041-0.005-0.07c0.031-0.004,0.057-0.01,0.077-0.021
	c0.019-0.011,0.034-0.024,0.046-0.041c0.01-0.017,0.018-0.037,0.021-0.059c0.004-0.021,0.007-0.045,0.007-0.071v-0.825
	c0.012,0,0.023-0.002,0.036-0.005c0.012-0.002,0.023-0.005,0.037-0.006C290.683,278.81,290.696,278.81,290.709,278.81
	L290.709,278.81z M293.014,278.812c0.023,0,0.046,0.002,0.068,0.008c0.021,0.005,0.041,0.015,0.057,0.028
	c0.018,0.014,0.031,0.033,0.041,0.057c0.012,0.024,0.016,0.055,0.016,0.093v0.626c0,0.026,0,0.058-0.003,0.097
	c-0.001,0.038-0.005,0.072-0.013,0.103c-0.011,0.047-0.027,0.087-0.05,0.119s-0.048,0.058-0.077,0.077
	c-0.027,0.02-0.056,0.032-0.086,0.041c-0.027,0.008-0.053,0.013-0.072,0.013c-0.043,0-0.074-0.011-0.094-0.03
	c-0.02-0.02-0.033-0.048-0.038-0.085c-0.005-0.016-0.007-0.031-0.008-0.048s-0.004-0.042-0.005-0.071
	c0.031-0.003,0.057-0.01,0.076-0.021c0.021-0.011,0.037-0.024,0.046-0.041c0.011-0.017,0.019-0.035,0.022-0.057
	c0.004-0.022,0.006-0.047,0.006-0.073v-0.825c0.011,0,0.023-0.002,0.037-0.004c0.01-0.002,0.021-0.004,0.036-0.006
	C292.988,278.813,293,278.812,293.014,278.812L293.014,278.812z M294.293,279.088c-0.035,0-0.058,0.018-0.07,0.053
	c-0.014,0.036-0.02,0.084-0.02,0.145c0,0.028,0.004,0.055,0.005,0.08c0.003,0.024,0.008,0.045,0.016,0.063s0.019,0.032,0.03,0.043
	c0.01,0.011,0.025,0.017,0.043,0.017c0.013,0,0.021-0.001,0.029-0.003c0.007-0.002,0.012-0.003,0.014-0.004v-0.38
	c-0.006-0.005-0.014-0.008-0.022-0.01C294.309,279.088,294.301,279.088,294.293,279.088z M297.57,279.101
	c-0.026,0.003-0.047,0.022-0.057,0.053c-0.013,0.035-0.02,0.084-0.02,0.145c0,0.028,0.002,0.054,0.004,0.078
	c0.006,0.024,0.01,0.046,0.016,0.063c0.008,0.019,0.019,0.034,0.03,0.044c0.013,0.01,0.026,0.016,0.044,0.016
	c0.012,0,0.021-0.001,0.029-0.002c0.006-0.002,0.012-0.003,0.014-0.004v-0.38c-0.006-0.005-0.014-0.008-0.023-0.01
	c-0.009-0.002-0.017-0.002-0.024-0.002C297.578,279.101,297.574,279.101,297.57,279.101z M291.387,280.171
	c0.023,0,0.045,0.003,0.067,0.009c0.022,0.006,0.043,0.014,0.06,0.028c0.016,0.013,0.03,0.033,0.041,0.057
	c0.01,0.024,0.016,0.054,0.016,0.092v1.062c-0.041,0.015-0.078,0.023-0.109,0.023c-0.045,0-0.081-0.007-0.105-0.02
	c-0.025-0.013-0.045-0.029-0.057-0.05c-0.012-0.021-0.02-0.046-0.021-0.074s-0.004-0.058-0.004-0.088v-1.026
	c0.012-0.001,0.023-0.003,0.036-0.005c0.012-0.002,0.023-0.004,0.036-0.006C291.359,280.171,291.373,280.171,291.387,280.171z
	 M291.801,280.171c0.023,0,0.047,0.003,0.068,0.009c0.021,0.006,0.041,0.014,0.058,0.028c0.017,0.013,0.03,0.033,0.04,0.057
	c0.012,0.024,0.016,0.054,0.016,0.092v0.57c0.006-0.026,0.014-0.05,0.025-0.076c0.01-0.025,0.024-0.051,0.041-0.076l0.08-0.122
	c0.018-0.029,0.039-0.053,0.062-0.074c0.021-0.021,0.053-0.031,0.092-0.031c0.023,0,0.045,0.005,0.068,0.013
	c0.021,0.007,0.039,0.015,0.057,0.025c0.019,0.011,0.037,0.022,0.053,0.035l-0.203,0.34l0.24,0.438
	c-0.064,0.032-0.125,0.047-0.178,0.047c-0.047,0-0.084-0.01-0.111-0.03c-0.025-0.02-0.049-0.046-0.068-0.078l-0.096-0.157
	c-0.017-0.028-0.029-0.054-0.039-0.078s-0.018-0.049-0.023-0.079v0.401h-0.295v-1.241c0.012-0.001,0.025-0.003,0.037-0.005
	c0.012-0.002,0.022-0.004,0.037-0.006C291.773,280.171,291.786,280.171,291.801,280.171z M290.957,280.18
	c0.024,0,0.047,0.002,0.068,0.008s0.041,0.015,0.059,0.028c0.016,0.014,0.03,0.033,0.041,0.057c0.01,0.024,0.016,0.055,0.016,0.092
	v1.069h-0.222c-0.015,0-0.028-0.003-0.04-0.012c-0.013-0.008-0.019-0.025-0.019-0.053c-0.014,0.021-0.036,0.04-0.065,0.058
	c-0.03,0.017-0.068,0.025-0.113,0.025c-0.034,0-0.066-0.005-0.1-0.019c-0.031-0.013-0.062-0.036-0.087-0.068
	c-0.026-0.032-0.047-0.077-0.064-0.133c-0.016-0.056-0.024-0.126-0.024-0.211c0-0.085,0.008-0.158,0.023-0.216
	c0.015-0.059,0.036-0.106,0.062-0.143c0.025-0.037,0.054-0.062,0.088-0.079s0.069-0.025,0.106-0.025
	c0.023,0,0.045,0.002,0.062,0.008c0.02,0.006,0.035,0.014,0.049,0.021c0.014,0.007,0.023,0.014,0.031,0.021
	c0.01,0.008,0.016,0.014,0.018,0.018v-0.434c0.013-0.001,0.023-0.002,0.037-0.004c0.01-0.002,0.023-0.004,0.036-0.006
	C290.932,280.181,290.944,280.18,290.957,280.18z M290.145,280.181c0.02,0,0.04,0.001,0.062,0.005
	c0.022,0.003,0.044,0.007,0.065,0.013c0.035,0.011,0.066,0.027,0.091,0.048c0.025,0.021,0.039,0.051,0.039,0.091
	c0,0.018-0.006,0.042-0.018,0.071c-0.012,0.031-0.027,0.062-0.046,0.094c-0.016-0.01-0.036-0.021-0.061-0.033
	c-0.024-0.011-0.051-0.016-0.082-0.016c-0.025,0-0.047,0.008-0.064,0.024c-0.018,0.016-0.026,0.041-0.026,0.075v0.042h0.219v0.263
	h-0.219v0.592h-0.295v-0.845c0-0.016,0.001-0.037,0.001-0.064c0.001-0.027,0.001-0.049,0.003-0.065
	c0.013-0.096,0.047-0.169,0.102-0.219C289.971,280.206,290.047,280.181,290.145,280.181L290.145,280.181z M297.239,280.203
	c0.04,0,0.075,0.015,0.103,0.045c0.029,0.03,0.043,0.071,0.043,0.122s-0.014,0.09-0.043,0.12c-0.027,0.029-0.062,0.044-0.103,0.044
	s-0.073-0.015-0.102-0.044s-0.042-0.069-0.042-0.12s0.014-0.092,0.042-0.122C297.166,280.218,297.199,280.203,297.239,280.203z
	 M293.403,280.204c0.024,0,0.048,0.002,0.07,0.008c0.022,0.005,0.042,0.015,0.059,0.028c0.016,0.014,0.03,0.032,0.042,0.056
	c0.009,0.024,0.014,0.056,0.014,0.093v0.569c0.004-0.026,0.012-0.051,0.023-0.077c0.012-0.026,0.025-0.05,0.042-0.075l0.079-0.122
	c0.021-0.028,0.039-0.053,0.062-0.074c0.022-0.021,0.054-0.031,0.094-0.031c0.022,0,0.045,0.003,0.066,0.011
	c0.021,0.008,0.041,0.017,0.058,0.026c0.019,0.011,0.038,0.022,0.054,0.036l-0.203,0.339l0.24,0.437
	c-0.066,0.032-0.125,0.047-0.178,0.047c-0.047,0-0.084-0.01-0.111-0.03s-0.049-0.045-0.07-0.078l-0.094-0.158
	c-0.018-0.027-0.031-0.052-0.041-0.076s-0.018-0.049-0.021-0.079v0.401h-0.295v-1.243c0.012-0.001,0.023-0.003,0.035-0.005
	s0.023-0.003,0.036-0.004C293.379,280.205,293.393,280.204,293.403,280.204z M294.48,280.208c0.02,0,0.04,0.002,0.062,0.005
	c0.021,0.003,0.045,0.007,0.064,0.013c0.035,0.011,0.065,0.026,0.092,0.047c0.024,0.021,0.039,0.052,0.039,0.092
	c0,0.018-0.007,0.042-0.019,0.072c-0.012,0.03-0.027,0.062-0.046,0.093c-0.016-0.01-0.036-0.021-0.061-0.033
	c-0.025-0.011-0.053-0.017-0.082-0.017c-0.025,0-0.049,0.007-0.064,0.023c-0.018,0.016-0.025,0.042-0.025,0.076v0.042h0.219v0.264
	h-0.219v0.592h-0.296v-0.847c0-0.015,0-0.037,0.001-0.063c0-0.027,0.002-0.048,0.004-0.065c0.012-0.096,0.045-0.169,0.101-0.219
	C294.307,280.233,294.383,280.208,294.48,280.208L294.48,280.208z M295.916,280.233c0.022,0,0.047,0.002,0.066,0.008
	c0.023,0.005,0.043,0.015,0.061,0.029c0.017,0.014,0.029,0.032,0.04,0.056c0.009,0.024,0.015,0.056,0.015,0.093v1.069h-0.222
	c-0.015,0-0.027-0.005-0.038-0.014c-0.013-0.008-0.018-0.025-0.018-0.053c-0.016,0.021-0.037,0.04-0.066,0.058
	c-0.031,0.017-0.068,0.026-0.115,0.026c-0.031,0-0.064-0.007-0.098-0.02c-0.033-0.013-0.061-0.036-0.088-0.068
	c-0.026-0.032-0.049-0.077-0.064-0.133c-0.016-0.056-0.024-0.125-0.024-0.211c0-0.084,0.008-0.156,0.023-0.215
	c0.016-0.059,0.035-0.107,0.062-0.144c0.024-0.037,0.055-0.062,0.088-0.079s0.07-0.025,0.107-0.025c0.023,0,0.043,0.004,0.062,0.01
	s0.032,0.012,0.047,0.02c0.014,0.007,0.024,0.015,0.033,0.023c0.008,0.007,0.014,0.013,0.016,0.016v-0.433
	c0.014-0.001,0.025-0.003,0.038-0.005c0.011-0.002,0.022-0.005,0.035-0.005C295.889,280.233,295.902,280.233,295.916,280.233
	L295.916,280.233z M296.328,280.233c0.025,0,0.047,0.002,0.068,0.008c0.023,0.005,0.042,0.015,0.061,0.029
	c0.016,0.014,0.029,0.032,0.039,0.056c0.012,0.024,0.017,0.056,0.017,0.093v0.57c0.005-0.026,0.013-0.052,0.023-0.078
	c0.011-0.025,0.024-0.051,0.042-0.076l0.08-0.122c0.019-0.028,0.039-0.052,0.062-0.072s0.054-0.032,0.093-0.032
	c0.023,0,0.045,0.005,0.066,0.012c0.021,0.008,0.041,0.016,0.059,0.025c0.02,0.011,0.036,0.022,0.053,0.036l-0.203,0.339l0.24,0.438
	c-0.064,0.032-0.124,0.047-0.18,0.047c-0.046,0-0.082-0.01-0.108-0.029c-0.026-0.021-0.051-0.047-0.07-0.078l-0.094-0.158
	c-0.017-0.027-0.03-0.052-0.04-0.076c-0.01-0.024-0.018-0.051-0.022-0.081v0.403h-0.297v-1.243c0.013-0.001,0.024-0.003,0.038-0.005
	c0.01-0.002,0.023-0.005,0.035-0.005C296.303,280.233,296.316,280.233,296.328,280.233L296.328,280.233z M292.883,280.562
	c0.115,0,0.197,0.027,0.247,0.082s0.075,0.141,0.075,0.258v0.345c0,0.029,0.002,0.062,0.006,0.097
	c0.004,0.035,0.009,0.065,0.018,0.091c-0.016,0.005-0.027,0.008-0.039,0.011c-0.01,0.003-0.021,0.006-0.031,0.008
	c-0.01,0.002-0.021,0.002-0.032,0.003c-0.013,0-0.024,0.001-0.038,0.001c-0.08,0-0.127-0.028-0.141-0.082
	c-0.016,0.021-0.04,0.039-0.072,0.055c-0.033,0.017-0.074,0.024-0.124,0.024c-0.03,0-0.06-0.005-0.087-0.014
	c-0.029-0.009-0.055-0.024-0.076-0.045c-0.021-0.021-0.037-0.047-0.051-0.081c-0.014-0.033-0.018-0.075-0.018-0.123
	c0-0.068,0.014-0.123,0.044-0.164c0.03-0.041,0.066-0.071,0.108-0.092c0.044-0.021,0.09-0.035,0.135-0.041s0.086-0.009,0.117-0.009
	v-0.025c0-0.017-0.004-0.03-0.008-0.04c-0.005-0.01-0.012-0.017-0.02-0.022s-0.018-0.008-0.029-0.01
	c-0.012-0.001-0.023-0.003-0.035-0.003c-0.037,0-0.069,0.005-0.104,0.016c-0.033,0.012-0.07,0.029-0.111,0.053
	c-0.02-0.027-0.034-0.054-0.043-0.08c-0.011-0.026-0.016-0.045-0.016-0.058c0-0.018,0.006-0.035,0.017-0.051
	c0.009-0.016,0.028-0.032,0.06-0.049c0.026-0.017,0.062-0.031,0.107-0.04S292.834,280.562,292.883,280.562L292.883,280.562z
	 M294.997,280.608c0.079,0,0.151,0.015,0.21,0.044c0.025,0.012,0.051,0.029,0.066,0.047c0.018,0.018,0.027,0.039,0.027,0.064
	c0,0.021-0.007,0.046-0.018,0.075c-0.013,0.03-0.025,0.059-0.043,0.086c-0.029-0.027-0.061-0.049-0.094-0.067
	c-0.032-0.017-0.064-0.025-0.099-0.025c-0.042,0-0.065,0.015-0.065,0.044c0,0.019,0.01,0.034,0.025,0.044
	c0.016,0.01,0.036,0.018,0.06,0.025c0.022,0.007,0.048,0.016,0.077,0.024c0.025,0.009,0.053,0.022,0.076,0.04
	c0.023,0.018,0.043,0.042,0.059,0.072c0.016,0.03,0.025,0.07,0.025,0.12c0,0.094-0.029,0.17-0.084,0.227s-0.138,0.083-0.244,0.083
	c-0.061,0-0.109-0.005-0.144-0.017c-0.032-0.011-0.06-0.023-0.079-0.035c-0.025-0.015-0.045-0.032-0.054-0.05
	c-0.011-0.019-0.015-0.037-0.015-0.058c0-0.031,0.007-0.061,0.018-0.09c0.013-0.029,0.027-0.059,0.043-0.087
	c0.012,0.013,0.024,0.025,0.041,0.036c0.015,0.012,0.03,0.021,0.049,0.031c0.018,0.01,0.036,0.017,0.055,0.021
	c0.02,0.005,0.037,0.009,0.055,0.009c0.025,0,0.045-0.005,0.056-0.016c0.012-0.01,0.017-0.023,0.017-0.039
	c0-0.018-0.01-0.031-0.025-0.042c-0.018-0.01-0.035-0.02-0.059-0.028c-0.023-0.008-0.051-0.018-0.08-0.029
	c-0.028-0.01-0.053-0.024-0.078-0.043c-0.023-0.018-0.043-0.042-0.06-0.072c-0.016-0.03-0.024-0.069-0.024-0.118
	c0-0.047,0.009-0.089,0.024-0.124c0.017-0.036,0.039-0.064,0.067-0.087c0.027-0.023,0.061-0.041,0.098-0.052
	S294.957,280.608,294.997,280.608z M297.213,280.628c0.025,0,0.047,0.003,0.069,0.008c0.022,0.006,0.042,0.016,0.059,0.029
	s0.03,0.032,0.04,0.056c0.012,0.024,0.016,0.056,0.016,0.093v0.626c0,0.026-0.001,0.058-0.002,0.097
	c-0.004,0.038-0.007,0.072-0.015,0.103c-0.011,0.047-0.026,0.087-0.048,0.119c-0.023,0.031-0.05,0.057-0.078,0.077
	c-0.027,0.019-0.057,0.034-0.085,0.042c-0.03,0.008-0.054,0.012-0.073,0.012c-0.043,0-0.074-0.01-0.094-0.03
	s-0.035-0.048-0.041-0.085c-0.003-0.016-0.004-0.031-0.006-0.049c-0.002-0.017-0.002-0.04-0.004-0.069
	c0.031-0.004,0.057-0.012,0.076-0.022c0.02-0.01,0.035-0.024,0.045-0.041c0.011-0.017,0.019-0.036,0.023-0.057
	c0.004-0.022,0.006-0.046,0.006-0.071v-0.825c0.012,0,0.024-0.003,0.036-0.005c0.013-0.002,0.023-0.004,0.038-0.005
	C297.188,280.628,297.2,280.628,297.213,280.628L297.213,280.628z M290.783,280.817c-0.027,0.004-0.046,0.021-0.057,0.053
	c-0.012,0.036-0.018,0.084-0.018,0.145c0,0.029,0.001,0.054,0.004,0.078c0.004,0.025,0.008,0.045,0.016,0.064
	c0.008,0.018,0.017,0.033,0.029,0.044c0.012,0.011,0.025,0.016,0.043,0.016c0.012,0,0.021-0.001,0.029-0.003
	c0.006-0.001,0.012-0.003,0.014-0.004v-0.381c-0.006-0.004-0.012-0.008-0.021-0.009c-0.01-0.002-0.019-0.002-0.026-0.002
	C290.791,280.817,290.787,280.817,290.783,280.817z M295.754,280.87c-0.033,0-0.057,0.018-0.069,0.053
	c-0.012,0.035-0.019,0.084-0.019,0.146c0,0.028,0.002,0.055,0.004,0.079c0.004,0.024,0.008,0.045,0.016,0.063
	c0.008,0.019,0.018,0.032,0.03,0.043c0.011,0.01,0.026,0.016,0.044,0.016c0.012,0,0.021-0.002,0.027-0.004
	c0.008-0.001,0.014-0.003,0.016-0.004v-0.38c-0.006-0.004-0.016-0.008-0.023-0.01C295.77,280.871,295.763,280.87,295.754,280.87
	L295.754,280.87z M292.928,281.044c-0.018,0.002-0.037,0.006-0.053,0.011c-0.018,0.005-0.031,0.011-0.043,0.02
	c-0.014,0.009-0.023,0.021-0.03,0.036c-0.007,0.014-0.013,0.033-0.013,0.055c0,0.027,0.006,0.048,0.02,0.062
	c0.012,0.015,0.029,0.022,0.051,0.022c0.02,0,0.035-0.005,0.049-0.014c0.012-0.01,0.02-0.024,0.02-0.043V281.044z M294.934,283.742
	c0.039,0,0.074,0.016,0.103,0.045c0.027,0.03,0.042,0.07,0.042,0.121c0,0.051-0.015,0.092-0.042,0.122
	c-0.028,0.029-0.063,0.044-0.103,0.044c-0.041,0-0.076-0.015-0.102-0.044c-0.029-0.03-0.045-0.07-0.045-0.122
	c0-0.05,0.016-0.09,0.045-0.121C294.857,283.757,294.893,283.742,294.934,283.742z M291.795,283.759c0.02,0,0.041,0.001,0.062,0.004
	c0.023,0.003,0.045,0.008,0.064,0.014c0.036,0.01,0.066,0.026,0.092,0.047c0.027,0.021,0.039,0.052,0.039,0.092
	c0,0.018-0.006,0.042-0.018,0.072s-0.027,0.061-0.046,0.092c-0.016-0.01-0.035-0.021-0.06-0.032
	c-0.025-0.011-0.054-0.018-0.082-0.018c-0.027,0-0.047,0.008-0.065,0.024c-0.019,0.016-0.027,0.042-0.027,0.076v0.042h0.219v0.264
	h-0.219v0.592h-0.294v-0.847c0-0.016,0-0.037,0.002-0.064c0-0.027,0-0.048,0.002-0.065c0.014-0.095,0.047-0.168,0.102-0.219
	C291.621,283.783,291.697,283.759,291.795,283.759L291.795,283.759z M295.543,283.759c0.02,0,0.04,0.001,0.062,0.004
	c0.021,0.003,0.043,0.008,0.064,0.014c0.035,0.01,0.065,0.026,0.092,0.047c0.025,0.021,0.039,0.052,0.039,0.092
	c0,0.018-0.007,0.042-0.02,0.072c-0.012,0.03-0.027,0.061-0.046,0.092c-0.016-0.01-0.035-0.021-0.06-0.032
	c-0.025-0.011-0.053-0.018-0.082-0.018c-0.026,0-0.047,0.008-0.065,0.024c-0.017,0.016-0.024,0.042-0.024,0.076v0.042h0.217v0.264
	h-0.217v0.592h-0.297v-0.847c0-0.016,0-0.037,0-0.064c0.001-0.027,0.002-0.048,0.006-0.065c0.012-0.095,0.045-0.168,0.1-0.219
	C295.367,283.783,295.443,283.759,295.543,283.759z M292.833,283.771c0.024,0,0.047,0.004,0.069,0.009
	c0.021,0.005,0.043,0.014,0.061,0.028c0.016,0.013,0.027,0.033,0.041,0.057c0.009,0.024,0.014,0.055,0.014,0.093v1.062
	c-0.041,0.015-0.078,0.023-0.109,0.023c-0.045,0-0.08-0.007-0.105-0.02c-0.024-0.013-0.043-0.029-0.056-0.05
	c-0.013-0.021-0.021-0.046-0.022-0.074s-0.002-0.058-0.002-0.088v-1.025c0.01-0.001,0.021-0.003,0.035-0.006
	c0.012-0.002,0.023-0.004,0.037-0.005C292.809,283.773,292.82,283.771,292.833,283.771L292.833,283.771z M293.247,283.771
	c0.023,0,0.046,0.004,0.069,0.009c0.021,0.005,0.041,0.014,0.059,0.028c0.018,0.013,0.029,0.033,0.041,0.057
	c0.01,0.024,0.016,0.055,0.016,0.093v0.57c0.004-0.026,0.012-0.052,0.021-0.077c0.012-0.025,0.025-0.051,0.043-0.076l0.08-0.123
	c0.02-0.028,0.038-0.053,0.062-0.073c0.022-0.021,0.055-0.031,0.094-0.031c0.022,0,0.044,0.004,0.066,0.012s0.04,0.016,0.058,0.025
	s0.037,0.022,0.055,0.035l-0.203,0.34l0.238,0.438c-0.064,0.032-0.125,0.047-0.18,0.047c-0.046,0-0.082-0.009-0.107-0.029
	c-0.027-0.02-0.051-0.046-0.07-0.078l-0.096-0.157c-0.016-0.027-0.029-0.052-0.039-0.076c-0.01-0.024-0.018-0.051-0.021-0.081v0.403
	h-0.299v-1.242c0.013-0.001,0.025-0.003,0.037-0.006c0.012-0.002,0.025-0.004,0.038-0.005
	C293.221,283.773,293.234,283.771,293.247,283.771z M292.326,284.149c0.082,0,0.154,0.015,0.213,0.044
	c0.027,0.013,0.049,0.029,0.066,0.047s0.025,0.04,0.025,0.065c0,0.021-0.005,0.046-0.018,0.076c-0.01,0.03-0.025,0.058-0.043,0.084
	c-0.027-0.027-0.059-0.048-0.092-0.066c-0.033-0.017-0.066-0.025-0.1-0.025c-0.043,0-0.062,0.014-0.062,0.044
	c0,0.019,0.008,0.033,0.023,0.043s0.035,0.019,0.059,0.026c0.024,0.007,0.049,0.014,0.076,0.023
	c0.029,0.009,0.054,0.023,0.078,0.041c0.023,0.018,0.043,0.042,0.061,0.073c0.014,0.031,0.021,0.07,0.021,0.12
	c0,0.094-0.027,0.169-0.084,0.226c-0.055,0.056-0.135,0.084-0.242,0.084c-0.062,0-0.108-0.006-0.143-0.018
	c-0.033-0.012-0.062-0.022-0.083-0.034c-0.024-0.015-0.042-0.032-0.052-0.05c-0.01-0.019-0.016-0.038-0.016-0.057
	c0-0.031,0.006-0.061,0.02-0.09c0.012-0.03,0.027-0.059,0.043-0.086c0.012,0.013,0.025,0.025,0.039,0.036
	c0.016,0.011,0.033,0.021,0.051,0.03s0.035,0.017,0.055,0.022c0.018,0.005,0.035,0.007,0.055,0.007c0.024,0,0.043-0.004,0.055-0.014
	c0.01-0.01,0.016-0.023,0.016-0.039c0-0.018-0.008-0.032-0.023-0.043c-0.018-0.01-0.037-0.019-0.061-0.027
	c-0.024-0.008-0.051-0.018-0.078-0.028c-0.028-0.011-0.055-0.025-0.078-0.042c-0.024-0.019-0.045-0.043-0.061-0.074
	c-0.016-0.03-0.023-0.069-0.023-0.117c0-0.047,0.008-0.089,0.024-0.124s0.04-0.065,0.066-0.088c0.028-0.023,0.062-0.04,0.099-0.05
	C292.248,284.155,292.287,284.149,292.326,284.149z M294.354,284.149c0.116,0,0.198,0.027,0.248,0.082
	c0.051,0.054,0.075,0.14,0.075,0.258v0.345c0,0.03,0.001,0.062,0.005,0.097c0.006,0.035,0.011,0.065,0.018,0.091
	c-0.015,0.004-0.027,0.008-0.038,0.011c-0.011,0.003-0.022,0.006-0.031,0.007c-0.011,0.002-0.022,0.003-0.032,0.004
	c-0.012,0.001-0.025,0.001-0.039,0.001c-0.08,0-0.125-0.027-0.139-0.081c-0.017,0.02-0.04,0.037-0.072,0.054
	c-0.034,0.017-0.074,0.025-0.124,0.025c-0.031,0-0.06-0.005-0.087-0.014c-0.029-0.01-0.054-0.024-0.076-0.045
	c-0.021-0.021-0.039-0.048-0.053-0.082c-0.012-0.034-0.019-0.074-0.019-0.123c0-0.068,0.016-0.123,0.046-0.164
	c0.029-0.041,0.066-0.071,0.109-0.092c0.043-0.022,0.087-0.035,0.134-0.041c0.046-0.006,0.085-0.009,0.117-0.009v-0.025
	c0-0.017-0.003-0.03-0.008-0.04c-0.005-0.01-0.012-0.018-0.021-0.023c-0.008-0.006-0.018-0.01-0.029-0.011
	c-0.012-0.002-0.023-0.002-0.036-0.002c-0.034,0-0.069,0.006-0.102,0.017c-0.034,0.011-0.071,0.029-0.112,0.053
	c-0.02-0.028-0.033-0.055-0.043-0.081c-0.009-0.026-0.014-0.046-0.014-0.059c0-0.017,0.004-0.034,0.014-0.05
	c0.01-0.016,0.031-0.033,0.062-0.05c0.026-0.016,0.063-0.03,0.108-0.04C294.26,284.154,294.307,284.149,294.354,284.149z
	 M294.907,284.167c0.022,0,0.046,0.003,0.067,0.008c0.023,0.005,0.043,0.014,0.059,0.027c0.018,0.014,0.03,0.033,0.042,0.058
	c0.009,0.024,0.015,0.054,0.015,0.092v0.627c0,0.025-0.002,0.058-0.002,0.096c-0.004,0.039-0.006,0.073-0.014,0.104
	c-0.011,0.047-0.029,0.087-0.051,0.119c-0.023,0.032-0.049,0.058-0.076,0.077c-0.027,0.02-0.057,0.034-0.084,0.042
	c-0.03,0.008-0.055,0.012-0.076,0.012c-0.041,0-0.071-0.01-0.092-0.029c-0.02-0.02-0.033-0.048-0.041-0.086
	c-0.002-0.016-0.006-0.031-0.006-0.049c-0.002-0.017-0.004-0.041-0.006-0.07c0.031-0.004,0.058-0.011,0.077-0.021
	c0.02-0.011,0.035-0.024,0.046-0.041c0.012-0.016,0.018-0.035,0.021-0.057c0.004-0.021,0.008-0.045,0.008-0.071v-0.825
	c0.012-0.001,0.022-0.003,0.037-0.005c0.009-0.003,0.021-0.004,0.035-0.005C294.88,284.168,294.895,284.167,294.907,284.167
	L294.907,284.167z M294.4,284.63c-0.021,0.002-0.037,0.006-0.053,0.011c-0.018,0.005-0.031,0.011-0.045,0.02
	c-0.012,0.009-0.021,0.021-0.029,0.035c-0.008,0.014-0.011,0.031-0.011,0.054c0,0.027,0.005,0.049,0.019,0.063
	c0.013,0.015,0.028,0.022,0.051,0.022c0.017,0,0.032-0.005,0.047-0.015c0.014-0.009,0.021-0.023,0.021-0.042V284.63z
	 M292.066,285.511c0.04,0,0.074,0.016,0.103,0.046s0.042,0.07,0.042,0.121c0,0.051-0.014,0.09-0.042,0.12
	c-0.028,0.03-0.062,0.044-0.103,0.044c-0.041,0-0.077-0.014-0.104-0.044c-0.028-0.029-0.043-0.068-0.043-0.12
	c0-0.05,0.015-0.09,0.043-0.121C291.989,285.527,292.025,285.511,292.066,285.511z M295.298,285.511c0.04,0,0.074,0.016,0.103,0.046
	c0.027,0.03,0.042,0.07,0.042,0.121c0,0.051-0.015,0.09-0.042,0.12c-0.028,0.03-0.062,0.044-0.103,0.044s-0.075-0.014-0.103-0.044
	c-0.023-0.023-0.035-0.054-0.041-0.091c-0.002,0.015-0.008,0.031-0.016,0.05c-0.01,0.03-0.025,0.061-0.044,0.093
	c-0.017-0.011-0.036-0.022-0.062-0.033c-0.025-0.011-0.052-0.017-0.082-0.017c-0.025,0-0.047,0.009-0.063,0.024
	c-0.019,0.016-0.028,0.041-0.028,0.075v0.042h0.219v0.263h-0.219v0.591h-0.293v-0.846c0-0.015,0-0.036,0.001-0.063
	c0-0.027,0-0.049,0.003-0.066c0.013-0.096,0.047-0.168,0.1-0.219c0.057-0.05,0.132-0.075,0.23-0.075c0.02,0,0.039,0.001,0.062,0.004
	c0.021,0.003,0.045,0.007,0.064,0.013c0.036,0.01,0.064,0.027,0.092,0.048c0.019,0.015,0.029,0.035,0.034,0.061
	c0.004-0.04,0.017-0.072,0.042-0.097C295.223,285.527,295.258,285.511,295.298,285.511L295.298,285.511z M295.153,285.654
	c0,0.008,0,0.016,0,0.024c0,0.01,0,0.02,0.001,0.028c0.002-0.008,0.003-0.015,0.003-0.021
	C295.157,285.674,295.156,285.664,295.153,285.654L295.153,285.654z M296.575,285.528c0.019,0,0.039,0.001,0.062,0.004
	c0.021,0.003,0.042,0.007,0.063,0.013c0.037,0.01,0.066,0.027,0.092,0.048s0.039,0.051,0.039,0.091c0,0.018-0.006,0.041-0.018,0.072
	c-0.013,0.03-0.027,0.061-0.047,0.093c-0.016-0.011-0.035-0.022-0.061-0.033c-0.023-0.011-0.051-0.017-0.081-0.017
	c-0.024,0-0.046,0.009-0.065,0.024c-0.017,0.016-0.027,0.041-0.027,0.075v0.042h0.221v0.263h-0.221v0.591h-0.295v-0.846
	c0-0.015,0.001-0.036,0.001-0.063c0.001-0.027,0.001-0.049,0.005-0.066c0.012-0.096,0.047-0.168,0.101-0.219
	C296.4,285.553,296.477,285.528,296.575,285.528L296.575,285.528z M290.957,285.542c0.024,0,0.047,0.002,0.07,0.008
	c0.021,0.005,0.041,0.015,0.058,0.028c0.017,0.014,0.03,0.032,0.04,0.056c0.012,0.024,0.016,0.056,0.016,0.093v1.069h-0.222
	c-0.015,0-0.028-0.004-0.04-0.012c-0.012-0.008-0.018-0.026-0.018-0.054c-0.014,0.021-0.035,0.041-0.065,0.058
	s-0.068,0.025-0.113,0.025c-0.034,0-0.067-0.006-0.101-0.02c-0.031-0.013-0.062-0.036-0.087-0.068
	c-0.026-0.032-0.047-0.076-0.064-0.132c-0.016-0.056-0.024-0.127-0.024-0.212c0-0.084,0.008-0.156,0.023-0.215
	c0.015-0.059,0.036-0.107,0.062-0.143c0.025-0.037,0.056-0.064,0.089-0.081s0.068-0.024,0.105-0.024
	c0.023,0,0.045,0.003,0.062,0.009c0.02,0.006,0.035,0.013,0.049,0.021c0.014,0.007,0.024,0.015,0.033,0.022
	c0.008,0.008,0.014,0.013,0.016,0.017v-0.433c0.013-0.001,0.025-0.003,0.038-0.006c0.011-0.002,0.022-0.004,0.035-0.005
	C290.932,285.542,290.944,285.542,290.957,285.542L290.957,285.542z M291.532,285.919c0.081,0,0.152,0.015,0.212,0.044
	c0.026,0.013,0.05,0.029,0.066,0.048c0.016,0.018,0.025,0.039,0.025,0.063c0,0.021-0.004,0.046-0.018,0.076
	c-0.01,0.03-0.024,0.059-0.043,0.085c-0.028-0.026-0.06-0.05-0.092-0.066c-0.033-0.018-0.066-0.025-0.101-0.025
	c-0.042,0-0.062,0.014-0.062,0.044c0,0.019,0.008,0.034,0.023,0.044c0.016,0.01,0.036,0.018,0.06,0.025
	c0.023,0.007,0.05,0.015,0.078,0.024c0.026,0.009,0.053,0.022,0.076,0.04s0.043,0.042,0.06,0.073
	c0.016,0.031,0.022,0.071,0.022,0.12c0,0.095-0.027,0.171-0.084,0.227c-0.055,0.056-0.137,0.084-0.242,0.084
	c-0.061,0-0.109-0.005-0.143-0.017c-0.035-0.012-0.062-0.024-0.082-0.035c-0.025-0.016-0.043-0.031-0.053-0.05
	c-0.01-0.018-0.016-0.038-0.016-0.058c0-0.031,0.007-0.061,0.02-0.09c0.012-0.029,0.027-0.059,0.043-0.086
	c0.012,0.013,0.025,0.025,0.041,0.036s0.031,0.021,0.049,0.031c0.018,0.009,0.037,0.018,0.055,0.023
	c0.02,0.005,0.037,0.008,0.054,0.008c0.026,0,0.046-0.005,0.055-0.015c0.011-0.01,0.017-0.023,0.017-0.038
	c0-0.018-0.008-0.033-0.023-0.043c-0.017-0.011-0.037-0.021-0.061-0.028c-0.023-0.009-0.05-0.019-0.078-0.029
	c-0.029-0.011-0.055-0.025-0.078-0.043c-0.023-0.019-0.043-0.042-0.061-0.073c-0.016-0.029-0.024-0.069-0.024-0.117
	c0-0.047,0.009-0.088,0.026-0.124c0.017-0.036,0.039-0.063,0.066-0.087c0.028-0.023,0.06-0.041,0.098-0.052
	C291.453,285.925,291.492,285.919,291.532,285.919z M292.682,285.919c0.059,0,0.111,0.011,0.152,0.032
	c0.043,0.022,0.078,0.05,0.104,0.085c0.024,0.036,0.044,0.077,0.058,0.124c0.012,0.047,0.018,0.097,0.018,0.149v0.023
	c0,0.01-0.001,0.021-0.001,0.032c-0.001,0.011-0.001,0.021-0.001,0.03c0,0.01-0.002,0.016-0.004,0.021h-0.395
	c0.004,0.045,0.02,0.083,0.041,0.115c0.022,0.031,0.061,0.047,0.109,0.047c0.039,0,0.074-0.008,0.1-0.022s0.055-0.032,0.08-0.056
	c0.014,0.024,0.026,0.05,0.039,0.082c0.014,0.03,0.019,0.058,0.019,0.082c0,0.02-0.004,0.039-0.013,0.057
	c-0.01,0.018-0.025,0.034-0.049,0.051c-0.021,0.016-0.051,0.029-0.086,0.04c-0.037,0.01-0.084,0.016-0.141,0.016
	c-0.039,0-0.082-0.006-0.129-0.018s-0.09-0.035-0.129-0.069c-0.039-0.035-0.072-0.083-0.098-0.145
	c-0.025-0.062-0.04-0.142-0.04-0.243c0-0.075,0.011-0.139,0.031-0.193c0.022-0.055,0.05-0.099,0.085-0.134
	c0.033-0.036,0.071-0.062,0.117-0.078C292.592,285.927,292.638,285.919,292.682,285.919L292.682,285.919z M293.463,285.919
	c0.068,0,0.125,0.012,0.172,0.035c0.049,0.023,0.086,0.056,0.116,0.096c0.03,0.041,0.052,0.087,0.065,0.141
	c0.014,0.054,0.02,0.111,0.02,0.171s-0.008,0.118-0.021,0.174s-0.036,0.105-0.066,0.148c-0.029,0.042-0.068,0.075-0.115,0.101
	c-0.05,0.025-0.107,0.039-0.176,0.039c-0.069,0-0.125-0.013-0.174-0.038c-0.047-0.025-0.086-0.058-0.115-0.1
	c-0.03-0.042-0.053-0.09-0.066-0.146c-0.014-0.055-0.021-0.112-0.021-0.173s0.008-0.12,0.023-0.175s0.041-0.102,0.072-0.142
	c0.032-0.04,0.072-0.072,0.119-0.096S293.398,285.919,293.463,285.919z M294.377,285.919c0.014,0,0.029,0.001,0.043,0.005
	c0.015,0.003,0.027,0.01,0.039,0.018c0.012,0.007,0.022,0.018,0.029,0.03c0.008,0.014,0.012,0.029,0.012,0.047
	c0,0.019-0.003,0.041-0.008,0.063c-0.004,0.022-0.01,0.044-0.014,0.068c-0.008,0.024-0.014,0.046-0.021,0.069
	c-0.008,0.022-0.016,0.043-0.023,0.061c-0.021-0.02-0.041-0.035-0.061-0.045s-0.041-0.016-0.063-0.016
	c-0.026,0-0.046,0.008-0.059,0.023c-0.013,0.016-0.021,0.036-0.021,0.061v0.494h-0.299v-0.846c0.01-0.002,0.02-0.005,0.031-0.007
	c0.011-0.003,0.023-0.004,0.038-0.005c0.013-0.001,0.028-0.001,0.046-0.001c0.091,0,0.146,0.029,0.166,0.088
	c0.006-0.01,0.014-0.021,0.025-0.034c0.009-0.013,0.021-0.025,0.035-0.035c0.014-0.011,0.029-0.02,0.047-0.026
	C294.338,285.922,294.357,285.919,294.377,285.919L294.377,285.919z M295.846,285.919c0.081,0,0.151,0.015,0.213,0.044
	c0.025,0.013,0.048,0.029,0.064,0.048c0.016,0.018,0.025,0.039,0.025,0.063c0,0.021-0.004,0.046-0.016,0.076
	s-0.026,0.059-0.043,0.085c-0.03-0.026-0.062-0.05-0.094-0.066c-0.033-0.018-0.064-0.025-0.1-0.025
	c-0.041,0-0.063,0.014-0.063,0.044c0,0.019,0.009,0.034,0.024,0.044c0.016,0.01,0.035,0.018,0.061,0.025
	c0.023,0.007,0.049,0.015,0.076,0.024c0.026,0.009,0.053,0.022,0.076,0.04c0.024,0.018,0.043,0.042,0.06,0.073
	c0.016,0.031,0.023,0.071,0.023,0.12c0,0.095-0.027,0.171-0.083,0.227c-0.057,0.056-0.137,0.084-0.244,0.084
	c-0.061,0-0.109-0.005-0.143-0.017c-0.033-0.012-0.061-0.024-0.082-0.035c-0.025-0.016-0.042-0.031-0.051-0.05
	c-0.012-0.018-0.016-0.038-0.016-0.058c0-0.031,0.006-0.061,0.018-0.09c0.014-0.029,0.027-0.059,0.043-0.086
	c0.012,0.013,0.025,0.025,0.042,0.036c0.015,0.011,0.03,0.021,0.048,0.031c0.018,0.009,0.035,0.018,0.054,0.023
	s0.038,0.008,0.056,0.008c0.025,0,0.043-0.005,0.055-0.015c0.012-0.01,0.016-0.023,0.016-0.038c0-0.018-0.008-0.033-0.023-0.043
	c-0.016-0.011-0.035-0.021-0.061-0.028c-0.023-0.009-0.049-0.019-0.078-0.029c-0.027-0.011-0.055-0.025-0.078-0.043
	c-0.023-0.019-0.043-0.042-0.061-0.073c-0.016-0.029-0.023-0.069-0.023-0.117c0-0.047,0.008-0.088,0.026-0.124
	c0.016-0.036,0.038-0.063,0.065-0.087c0.028-0.023,0.061-0.041,0.098-0.052S295.805,285.919,295.846,285.919z M292.039,285.937
	c0.023,0,0.045,0.002,0.068,0.008c0.022,0.005,0.043,0.016,0.061,0.029c0.016,0.014,0.029,0.032,0.039,0.056
	c0.01,0.024,0.016,0.056,0.016,0.093v0.625c0,0.026-0.002,0.059-0.003,0.097c-0.003,0.039-0.007,0.073-0.013,0.104
	c-0.012,0.047-0.029,0.087-0.051,0.119c-0.023,0.032-0.049,0.058-0.076,0.077c-0.028,0.02-0.057,0.034-0.086,0.042
	c-0.028,0.009-0.053,0.013-0.074,0.013c-0.041,0-0.072-0.01-0.094-0.029c-0.02-0.02-0.032-0.047-0.039-0.085
	c-0.002-0.015-0.005-0.032-0.006-0.049c-0.002-0.018-0.004-0.04-0.006-0.069c0.031-0.003,0.057-0.011,0.076-0.021
	c0.021-0.011,0.036-0.025,0.047-0.042c0.012-0.016,0.018-0.035,0.021-0.057c0.006-0.021,0.006-0.045,0.006-0.071v-0.825
	c0.012,0,0.024-0.003,0.037-0.005c0.011-0.003,0.023-0.004,0.037-0.005C292.013,285.937,292.025,285.937,292.039,285.937
	L292.039,285.937z M295.271,285.937c0.024,0,0.047,0.002,0.069,0.008c0.023,0.005,0.041,0.016,0.059,0.029
	c0.016,0.014,0.029,0.032,0.04,0.056c0.011,0.024,0.017,0.056,0.017,0.093v0.625c0,0.026-0.002,0.059-0.004,0.097
	c-0.001,0.039-0.008,0.073-0.014,0.104c-0.011,0.047-0.026,0.087-0.05,0.119c-0.022,0.032-0.048,0.058-0.077,0.077
	c-0.027,0.02-0.056,0.034-0.084,0.042c-0.029,0.009-0.053,0.013-0.073,0.013c-0.044,0-0.075-0.01-0.094-0.029
	c-0.021-0.02-0.034-0.047-0.04-0.085c-0.004-0.015-0.006-0.032-0.007-0.049c-0.003-0.018-0.003-0.04-0.005-0.069
	c0.031-0.003,0.057-0.011,0.075-0.021c0.021-0.011,0.036-0.025,0.047-0.042c0.011-0.016,0.019-0.035,0.023-0.057
	c0.004-0.021,0.005-0.045,0.005-0.071v-0.825c0.012,0,0.025-0.003,0.037-0.005c0.012-0.003,0.023-0.004,0.037-0.005
	C295.246,285.937,295.258,285.937,295.271,285.937L295.271,285.937z M292.678,286.14c-0.045,0-0.07,0.042-0.07,0.128h0.144
	c0-0.049-0.007-0.083-0.019-0.1C292.723,286.149,292.705,286.14,292.678,286.14z M290.796,286.179c-0.034,0-0.056,0.019-0.068,0.054
	c-0.013,0.036-0.019,0.083-0.019,0.144v0.001c0,0.028,0.001,0.054,0.004,0.078c0.004,0.023,0.008,0.045,0.016,0.064
	c0.008,0.018,0.017,0.033,0.029,0.043c0.012,0.011,0.027,0.016,0.045,0.016c0.012,0,0.02,0,0.027-0.002
	c0.006-0.002,0.012-0.003,0.016-0.004v-0.382c-0.006-0.004-0.014-0.006-0.023-0.008
	C290.812,286.181,290.804,286.179,290.796,286.179z M293.459,286.181c-0.017,0-0.031,0.005-0.041,0.016
	c-0.011,0.01-0.02,0.025-0.027,0.043s-0.011,0.038-0.014,0.061c-0.002,0.022-0.004,0.044-0.004,0.068
	c0,0.025,0.002,0.051,0.004,0.074c0.003,0.023,0.006,0.044,0.014,0.063c0.008,0.018,0.017,0.033,0.027,0.044
	c0.01,0.01,0.024,0.016,0.04,0.016c0.017,0,0.03-0.006,0.042-0.017c0.01-0.011,0.02-0.025,0.023-0.043
	c0.008-0.019,0.012-0.041,0.014-0.064s0.004-0.048,0.004-0.074c0-0.052-0.006-0.096-0.018-0.132
	C293.512,286.199,293.489,286.181,293.459,286.181L293.459,286.181z M291,287.282c0.041,0,0.076,0.015,0.104,0.045
	c0.027,0.03,0.042,0.07,0.042,0.121s-0.015,0.091-0.042,0.121s-0.062,0.044-0.104,0.044c-0.04,0-0.074-0.014-0.102-0.044
	c-0.028-0.03-0.043-0.07-0.043-0.121s0.015-0.091,0.043-0.121C290.926,287.296,290.96,287.282,291,287.282z M289.718,287.296
	c0.02,0,0.041,0.001,0.062,0.005c0.022,0.003,0.044,0.008,0.065,0.013c0.035,0.011,0.065,0.028,0.091,0.049
	c0.025,0.021,0.038,0.052,0.038,0.093c0,0.018-0.006,0.041-0.018,0.071c-0.012,0.03-0.026,0.061-0.045,0.093
	c-0.016-0.011-0.037-0.021-0.061-0.032c-0.025-0.011-0.052-0.018-0.082-0.018c-0.025,0-0.047,0.008-0.064,0.024
	c-0.018,0.016-0.027,0.04-0.027,0.075v0.043h0.219v0.264h-0.219v0.59h-0.295v-0.846c0-0.015,0.001-0.036,0.001-0.063
	c0-0.027,0.001-0.049,0.003-0.065c0.013-0.095,0.047-0.169,0.101-0.219C289.544,287.323,289.621,287.296,289.718,287.296
	L289.718,287.296z M292.852,287.296c0.02,0,0.041,0.001,0.064,0.005c0.021,0.003,0.042,0.008,0.064,0.013
	c0.033,0.011,0.064,0.028,0.09,0.049c0.027,0.021,0.039,0.052,0.039,0.093c0,0.018-0.006,0.041-0.019,0.071
	c-0.011,0.03-0.026,0.061-0.046,0.093c-0.014-0.011-0.033-0.021-0.059-0.032c-0.025-0.011-0.053-0.018-0.083-0.018
	c-0.026,0-0.047,0.008-0.065,0.024c-0.018,0.016-0.025,0.04-0.025,0.075v0.043h0.219v0.264h-0.219v0.59h-0.295v-0.846
	c0-0.015,0-0.036,0.002-0.063c0-0.027,0-0.049,0.002-0.065c0.014-0.095,0.046-0.169,0.102-0.219
	C292.677,287.323,292.754,287.296,292.852,287.296L292.852,287.296z M290.089,287.311c0.024,0,0.047,0.002,0.07,0.008
	c0.021,0.005,0.041,0.015,0.058,0.029c0.017,0.013,0.03,0.033,0.041,0.057c0.011,0.024,0.016,0.055,0.016,0.093v0.57
	c0.005-0.027,0.013-0.052,0.024-0.077c0.011-0.026,0.024-0.05,0.041-0.075l0.081-0.122c0.019-0.028,0.04-0.053,0.062-0.074
	c0.022-0.021,0.053-0.031,0.092-0.031c0.023,0,0.045,0.005,0.067,0.012c0.022,0.008,0.042,0.017,0.058,0.025
	c0.02,0.011,0.037,0.022,0.053,0.035l-0.201,0.34l0.239,0.438c-0.065,0.032-0.125,0.047-0.179,0.047c-0.047,0-0.084-0.01-0.11-0.03
	s-0.05-0.046-0.069-0.078l-0.095-0.157c-0.017-0.027-0.031-0.053-0.041-0.077c-0.01-0.023-0.017-0.049-0.022-0.079v0.401h-0.296
	v-1.241c0.012-0.001,0.025-0.003,0.038-0.006c0.011-0.002,0.023-0.005,0.036-0.005C290.064,287.312,290.076,287.311,290.089,287.311
	z M291.388,287.311c0.023,0,0.046,0.002,0.067,0.008c0.022,0.005,0.043,0.015,0.061,0.029c0.016,0.013,0.029,0.033,0.039,0.057
	c0.012,0.024,0.016,0.055,0.016,0.093v1.062c-0.041,0.015-0.076,0.023-0.107,0.023c-0.047,0-0.082-0.007-0.106-0.021
	c-0.024-0.013-0.044-0.03-0.056-0.051c-0.014-0.021-0.02-0.045-0.022-0.072c-0.003-0.028-0.003-0.058-0.003-0.088v-1.025
	c0.012-0.001,0.023-0.003,0.035-0.006c0.012-0.002,0.023-0.005,0.037-0.005C291.361,287.312,291.375,287.311,291.388,287.311
	L291.388,287.311z M292.216,287.311c0.023,0,0.048,0.002,0.069,0.008s0.041,0.015,0.059,0.029c0.016,0.013,0.029,0.033,0.039,0.057
	c0.012,0.024,0.018,0.055,0.018,0.093v1.068h-0.223c-0.016,0-0.027-0.004-0.04-0.012c-0.012-0.008-0.017-0.025-0.017-0.053
	c-0.014,0.021-0.037,0.04-0.066,0.057c-0.029,0.017-0.066,0.025-0.113,0.025c-0.034,0-0.066-0.005-0.1-0.019
	c-0.032-0.012-0.062-0.035-0.088-0.067c-0.027-0.033-0.047-0.078-0.062-0.133s-0.027-0.126-0.027-0.211
	c0-0.085,0.01-0.157,0.024-0.216c0.015-0.059,0.036-0.106,0.062-0.143c0.025-0.037,0.055-0.063,0.09-0.079
	c0.032-0.017,0.067-0.026,0.104-0.026c0.023,0,0.045,0.003,0.064,0.009c0.018,0.006,0.035,0.014,0.049,0.021
	c0.012,0.008,0.023,0.016,0.031,0.023c0.01,0.008,0.014,0.013,0.018,0.016v-0.433c0.012-0.001,0.024-0.003,0.037-0.006
	c0.011-0.002,0.021-0.005,0.035-0.005C292.191,287.312,292.203,287.311,292.216,287.311z M296.07,287.378
	c0.068,0,0.127,0.014,0.177,0.041c0.048,0.027,0.089,0.067,0.12,0.12c0.033,0.053,0.056,0.117,0.07,0.191
	c0.014,0.075,0.021,0.16,0.021,0.255c0,0.194-0.031,0.344-0.095,0.449c-0.062,0.105-0.163,0.158-0.299,0.158
	c-0.137,0-0.236-0.05-0.301-0.152c-0.063-0.102-0.098-0.254-0.098-0.455c0-0.094,0.01-0.177,0.025-0.252s0.04-0.139,0.071-0.191
	c0.032-0.052,0.075-0.092,0.125-0.121C295.939,287.393,296,287.378,296.07,287.378z M296.928,287.378
	c0.064,0,0.123,0.013,0.171,0.038c0.05,0.025,0.089,0.061,0.122,0.106c0.033,0.046,0.058,0.103,0.073,0.168
	c0.016,0.066,0.024,0.14,0.024,0.222c0,0.122-0.016,0.227-0.043,0.312c-0.029,0.086-0.068,0.156-0.114,0.21
	c-0.048,0.055-0.102,0.095-0.16,0.12c-0.059,0.026-0.118,0.038-0.179,0.038c-0.033,0-0.061-0.003-0.083-0.009
	c-0.021-0.005-0.039-0.014-0.052-0.026c-0.012-0.012-0.021-0.026-0.026-0.043c-0.004-0.017-0.007-0.038-0.007-0.061
	c0-0.018,0.003-0.039,0.004-0.062c0.003-0.025,0.006-0.045,0.008-0.063c0.02,0.005,0.035,0.008,0.047,0.009
	c0.014,0.001,0.029,0.002,0.047,0.002c0.022,0,0.043-0.003,0.066-0.009c0.025-0.005,0.047-0.013,0.066-0.026
	c0.021-0.013,0.041-0.031,0.059-0.053c0.018-0.021,0.031-0.049,0.045-0.082c-0.022,0.017-0.047,0.028-0.076,0.035
	c-0.027,0.006-0.053,0.009-0.075,0.009c-0.048,0-0.089-0.011-0.125-0.032c-0.035-0.021-0.065-0.048-0.087-0.083
	c-0.025-0.035-0.043-0.076-0.055-0.121c-0.011-0.046-0.019-0.095-0.019-0.145c0-0.077,0.011-0.143,0.028-0.199
	c0.02-0.057,0.045-0.104,0.08-0.142c0.032-0.038,0.071-0.066,0.115-0.084C296.828,287.387,296.876,287.378,296.928,287.378z
	 M296.067,287.649c-0.019,0-0.034,0.006-0.047,0.017c-0.011,0.011-0.021,0.03-0.028,0.056s-0.012,0.062-0.016,0.104
	c-0.002,0.043-0.004,0.096-0.004,0.158c0,0.124,0.008,0.211,0.021,0.261c0.014,0.051,0.038,0.075,0.073,0.075
	c0.016,0,0.03-0.004,0.04-0.016c0.012-0.012,0.021-0.031,0.03-0.058c0.007-0.026,0.013-0.062,0.016-0.104
	c0.004-0.043,0.005-0.096,0.005-0.158s-0.001-0.115-0.005-0.158c-0.003-0.043-0.009-0.078-0.016-0.104
	c-0.009-0.026-0.019-0.045-0.03-0.056C296.098,287.655,296.083,287.649,296.067,287.649z M296.932,287.651
	c-0.021,0-0.037,0.014-0.051,0.043c-0.014,0.028-0.02,0.071-0.02,0.127c0,0.058,0.006,0.1,0.021,0.127
	c0.018,0.026,0.041,0.039,0.068,0.039c0.023,0,0.043-0.003,0.062-0.008c0.001-0.019,0.003-0.036,0.005-0.054
	c0-0.018,0-0.037,0-0.057c0-0.029,0-0.056-0.004-0.082c-0.001-0.026-0.006-0.049-0.014-0.069s-0.016-0.036-0.026-0.048
	C296.963,287.657,296.947,287.651,296.932,287.651z M293.678,287.688c0.08,0,0.152,0.015,0.213,0.044
	c0.027,0.013,0.049,0.029,0.066,0.048c0.017,0.018,0.025,0.04,0.025,0.065c0,0.021-0.006,0.045-0.017,0.076
	c-0.013,0.029-0.026,0.057-0.042,0.084c-0.029-0.027-0.061-0.049-0.094-0.066c-0.033-0.018-0.066-0.027-0.099-0.027
	c-0.043,0-0.063,0.016-0.063,0.045c0,0.019,0.008,0.033,0.023,0.043s0.035,0.018,0.059,0.025c0.023,0.007,0.049,0.016,0.076,0.024
	c0.029,0.009,0.054,0.021,0.077,0.04s0.044,0.042,0.06,0.072c0.016,0.031,0.023,0.072,0.023,0.122c0,0.095-0.028,0.169-0.083,0.226
	c-0.056,0.055-0.138,0.083-0.243,0.083c-0.062,0-0.109-0.005-0.143-0.017c-0.035-0.012-0.061-0.022-0.082-0.034
	c-0.024-0.016-0.043-0.033-0.053-0.051c-0.011-0.018-0.014-0.037-0.014-0.057c0-0.031,0.006-0.061,0.019-0.09
	c0.013-0.03,0.024-0.059,0.04-0.087c0.012,0.012,0.025,0.025,0.042,0.036c0.013,0.011,0.031,0.021,0.05,0.031
	c0.018,0.009,0.035,0.017,0.055,0.022c0.018,0.005,0.037,0.008,0.055,0.008c0.025,0,0.043-0.005,0.055-0.015
	c0.01-0.01,0.017-0.023,0.017-0.038c0-0.018-0.009-0.032-0.024-0.043c-0.018-0.011-0.038-0.019-0.062-0.027
	c-0.023-0.009-0.05-0.018-0.078-0.029c-0.028-0.01-0.054-0.025-0.078-0.044c-0.022-0.019-0.044-0.042-0.062-0.073
	c-0.014-0.03-0.023-0.069-0.023-0.118c0-0.047,0.01-0.087,0.027-0.123c0.016-0.036,0.037-0.065,0.065-0.088
	c0.028-0.023,0.062-0.041,0.098-0.052C293.6,287.694,293.638,287.688,293.678,287.688L293.678,287.688z M294.407,287.688
	c0.116,0,0.198,0.027,0.247,0.082c0.051,0.054,0.076,0.14,0.076,0.258v0.345c0,0.03,0.002,0.062,0.006,0.097
	c0.003,0.035,0.01,0.065,0.018,0.091c-0.016,0.005-0.027,0.008-0.038,0.011c-0.013,0.003-0.022,0.005-0.032,0.007
	c-0.011,0.002-0.021,0.003-0.033,0.004c-0.012,0.001-0.024,0-0.037,0c-0.08,0-0.125-0.027-0.139-0.081
	c-0.018,0.02-0.043,0.039-0.074,0.055c-0.033,0.017-0.074,0.026-0.123,0.026c-0.031,0-0.061-0.005-0.09-0.015
	c-0.027-0.01-0.053-0.024-0.074-0.045c-0.021-0.02-0.038-0.047-0.051-0.081c-0.012-0.034-0.019-0.075-0.019-0.124
	c0-0.068,0.015-0.123,0.044-0.164c0.031-0.041,0.066-0.071,0.109-0.092c0.042-0.021,0.088-0.035,0.135-0.041
	c0.045-0.006,0.084-0.009,0.117-0.009v-0.025c0-0.017-0.002-0.029-0.007-0.039c-0.007-0.01-0.013-0.018-0.022-0.023
	c-0.006-0.006-0.017-0.009-0.027-0.011c-0.013-0.002-0.025-0.002-0.037-0.002c-0.035,0-0.068,0.006-0.102,0.017
	c-0.034,0.011-0.07,0.029-0.111,0.053c-0.02-0.027-0.035-0.055-0.044-0.081c-0.011-0.026-0.016-0.046-0.016-0.059
	c0-0.017,0.007-0.034,0.016-0.05c0.009-0.016,0.031-0.033,0.062-0.051c0.027-0.017,0.062-0.029,0.107-0.039
	S294.359,287.688,294.407,287.688z M295.32,287.688c0.031,0,0.061,0.008,0.094,0.021c0.031,0.014,0.061,0.036,0.087,0.068
	s0.048,0.076,0.063,0.131c0.018,0.054,0.025,0.123,0.025,0.204c0,0.095-0.008,0.174-0.026,0.235c-0.017,0.062-0.04,0.11-0.066,0.146
	c-0.028,0.036-0.059,0.061-0.094,0.074c-0.032,0.014-0.065,0.02-0.101,0.02c-0.027,0-0.049-0.003-0.07-0.01
	c-0.02-0.006-0.033-0.015-0.049-0.023c-0.014-0.008-0.023-0.017-0.03-0.024c-0.009-0.007-0.013-0.013-0.013-0.017v0.437h-0.293
	v-1.232c0.009-0.002,0.02-0.004,0.031-0.006c0.01-0.003,0.021-0.005,0.037-0.006c0.012-0.001,0.029-0.002,0.047-0.002
	c0.089,0,0.145,0.028,0.166,0.084c0.016-0.026,0.04-0.05,0.07-0.071C295.229,287.698,295.27,287.688,295.32,287.688z
	 M290.975,287.706c0.023,0,0.045,0.002,0.068,0.008c0.021,0.005,0.042,0.015,0.059,0.028c0.017,0.014,0.029,0.033,0.041,0.058
	c0.01,0.024,0.015,0.055,0.015,0.092v0.627c0,0.025-0.001,0.058-0.003,0.096s-0.006,0.074-0.014,0.104
	c-0.011,0.047-0.027,0.087-0.051,0.119c-0.021,0.032-0.047,0.057-0.075,0.077s-0.058,0.032-0.086,0.042
	c-0.028,0.008-0.054,0.013-0.073,0.013c-0.043,0-0.074-0.01-0.094-0.03s-0.033-0.048-0.039-0.086
	c-0.004-0.016-0.006-0.031-0.008-0.048c0-0.017-0.003-0.041-0.005-0.07c0.032-0.003,0.058-0.01,0.077-0.021s0.035-0.024,0.047-0.041
	c0.01-0.016,0.018-0.036,0.021-0.058c0.004-0.021,0.006-0.046,0.006-0.073v-0.824c0.012-0.001,0.023-0.002,0.037-0.004
	c0.01-0.003,0.022-0.005,0.035-0.006C290.947,287.707,290.961,287.706,290.975,287.706L290.975,287.706z M295.188,287.941
	c-0.012,0-0.021,0.002-0.029,0.003c-0.008,0.002-0.012,0.004-0.014,0.005v0.357c0.006,0.004,0.013,0.008,0.021,0.009
	c0.01,0.002,0.018,0.002,0.026,0.002c0.034,0,0.056-0.019,0.07-0.057c0.011-0.038,0.016-0.088,0.016-0.149
	c0-0.053-0.005-0.095-0.019-0.125C295.246,287.956,295.223,287.941,295.188,287.941L295.188,287.941z M292.043,287.949
	c-0.027,0.003-0.046,0.021-0.057,0.052c-0.013,0.036-0.02,0.083-0.02,0.145c0,0.029,0.002,0.055,0.006,0.079
	c0.002,0.024,0.008,0.045,0.016,0.063c0.006,0.018,0.017,0.033,0.027,0.044c0.013,0.01,0.028,0.015,0.045,0.015
	c0.012,0,0.021-0.001,0.027-0.002c0.008-0.001,0.014-0.003,0.016-0.004v-0.381c-0.006-0.004-0.014-0.008-0.021-0.01
	c-0.01-0.001-0.02-0.001-0.027-0.001C292.051,287.949,292.045,287.948,292.043,287.949z M294.453,288.17
	c-0.019,0.002-0.037,0.006-0.053,0.011c-0.018,0.005-0.033,0.011-0.045,0.02c-0.012,0.009-0.021,0.02-0.029,0.034
	c-0.006,0.014-0.01,0.032-0.01,0.055c0,0.027,0.004,0.048,0.017,0.062c0.013,0.014,0.03,0.023,0.054,0.023
	c0.017,0,0.032-0.006,0.047-0.014c0.014-0.01,0.02-0.025,0.02-0.044V288.17z M297.596,288.263c0.041,0,0.074,0.015,0.1,0.045
	c0.027,0.03,0.04,0.069,0.04,0.118c0,0.048-0.012,0.088-0.038,0.12c-0.024,0.031-0.059,0.046-0.102,0.046
	c-0.045,0-0.08-0.015-0.105-0.046c-0.024-0.031-0.035-0.072-0.035-0.12c0-0.048,0.012-0.087,0.039-0.118
	S297.555,288.263,297.596,288.263z M292.575,289.051c0.039,0,0.073,0.015,0.102,0.045c0.028,0.03,0.043,0.071,0.043,0.122
	s-0.015,0.091-0.043,0.12s-0.062,0.044-0.102,0.044c-0.042,0-0.075-0.015-0.104-0.044c-0.027-0.029-0.041-0.069-0.041-0.12
	s0.014-0.092,0.041-0.122C292.5,289.066,292.533,289.051,292.575,289.051z M291.414,289.067c0.02,0,0.041,0.001,0.062,0.004
	c0.023,0.003,0.044,0.007,0.064,0.014c0.035,0.01,0.066,0.025,0.092,0.047c0.027,0.021,0.039,0.052,0.039,0.092
	c0,0.018-0.008,0.042-0.019,0.072c-0.013,0.03-0.026,0.062-0.046,0.093c-0.016-0.011-0.036-0.022-0.061-0.033
	c-0.025-0.011-0.051-0.016-0.082-0.016c-0.025,0-0.047,0.007-0.064,0.023c-0.018,0.016-0.027,0.042-0.027,0.076v0.042h0.219v0.264
	h-0.219v0.592h-0.293v-0.847c0-0.016,0-0.036,0-0.063c0.001-0.027,0.002-0.049,0.004-0.065c0.012-0.096,0.046-0.168,0.101-0.219
	S291.316,289.067,291.414,289.067L291.414,289.067z M293.184,289.067c0.018,0,0.04,0.001,0.062,0.004
	c0.023,0.003,0.043,0.007,0.063,0.014c0.036,0.01,0.067,0.025,0.094,0.047c0.024,0.021,0.038,0.052,0.038,0.092
	c0,0.018-0.006,0.042-0.019,0.072c-0.012,0.03-0.027,0.062-0.046,0.093c-0.014-0.011-0.036-0.022-0.06-0.033
	c-0.024-0.011-0.054-0.016-0.082-0.016c-0.026,0-0.048,0.007-0.066,0.023c-0.019,0.016-0.026,0.042-0.026,0.076v0.042h0.221v0.264
	h-0.221v0.592h-0.295v-0.847c0-0.016,0.001-0.036,0.001-0.063c0.001-0.027,0.003-0.049,0.005-0.065
	c0.012-0.096,0.045-0.168,0.1-0.219S293.084,289.067,293.184,289.067L293.184,289.067z M294.997,289.082
	c0.022,0,0.046,0.002,0.067,0.007c0.023,0.005,0.042,0.016,0.059,0.028c0.016,0.014,0.03,0.032,0.041,0.057
	c0.01,0.024,0.016,0.055,0.016,0.093v0.569c0.004-0.025,0.013-0.052,0.023-0.077c0.012-0.026,0.025-0.052,0.041-0.076l0.08-0.122
	c0.018-0.028,0.039-0.052,0.063-0.072c0.022-0.021,0.054-0.032,0.094-0.032c0.022,0,0.042,0.004,0.065,0.012
	c0.021,0.007,0.041,0.016,0.059,0.024c0.018,0.012,0.035,0.022,0.052,0.036l-0.202,0.339l0.24,0.438
	c-0.065,0.032-0.125,0.047-0.18,0.047c-0.047,0-0.084-0.009-0.109-0.03c-0.027-0.02-0.05-0.046-0.07-0.078l-0.094-0.157
	c-0.018-0.027-0.029-0.052-0.041-0.076c-0.009-0.023-0.018-0.051-0.021-0.081v0.403h-0.297v-1.243
	c0.012-0.001,0.025-0.003,0.037-0.004c0.012-0.003,0.023-0.005,0.037-0.006S294.982,289.082,294.997,289.082L294.997,289.082z
	 M295.881,289.082c0.022,0,0.046,0.002,0.07,0.007c0.021,0.005,0.039,0.016,0.057,0.028c0.018,0.014,0.031,0.032,0.041,0.057
	c0.011,0.024,0.016,0.055,0.016,0.093v1.062c-0.041,0.015-0.076,0.022-0.107,0.022c-0.046,0-0.081-0.005-0.105-0.018
	c-0.025-0.013-0.045-0.031-0.058-0.052s-0.019-0.046-0.022-0.073c-0.002-0.028-0.002-0.058-0.002-0.088v-1.026
	c0.01-0.001,0.021-0.003,0.035-0.004c0.012-0.003,0.021-0.005,0.036-0.006S295.867,289.082,295.881,289.082L295.881,289.082z
	 M292.014,289.458c0.061,0,0.111,0.011,0.154,0.032c0.041,0.021,0.076,0.05,0.103,0.085s0.046,0.077,0.056,0.124
	c0.012,0.047,0.02,0.097,0.02,0.149c0,0.005,0,0.013,0,0.022c0,0.01,0,0.021-0.001,0.031c-0.001,0.011-0.001,0.022-0.001,0.031
	c-0.002,0.009-0.002,0.016-0.002,0.02h-0.396c0.006,0.046,0.02,0.083,0.043,0.115c0.021,0.031,0.057,0.048,0.107,0.048
	c0.041,0,0.074-0.008,0.1-0.022c0.027-0.014,0.053-0.032,0.08-0.057c0.012,0.024,0.025,0.052,0.038,0.082
	c0.013,0.031,0.02,0.058,0.02,0.082c0,0.02-0.003,0.039-0.013,0.056c-0.01,0.018-0.025,0.034-0.047,0.052
	c-0.021,0.015-0.051,0.028-0.088,0.038s-0.084,0.017-0.139,0.017c-0.041,0-0.084-0.006-0.131-0.018
	c-0.047-0.011-0.09-0.035-0.129-0.069c-0.039-0.034-0.071-0.082-0.098-0.145c-0.025-0.062-0.039-0.142-0.039-0.242
	c0-0.074,0.011-0.14,0.031-0.194c0.021-0.055,0.049-0.099,0.082-0.134c0.035-0.036,0.074-0.062,0.119-0.078
	C291.926,289.466,291.97,289.458,292.014,289.458L292.014,289.458z M293.775,289.458c0.115,0,0.198,0.028,0.248,0.083
	c0.049,0.054,0.075,0.139,0.075,0.257v0.345c0,0.03,0.001,0.062,0.005,0.097c0.004,0.035,0.01,0.065,0.016,0.091
	c-0.012,0.005-0.025,0.009-0.036,0.011c-0.011,0.003-0.021,0.006-0.031,0.008c-0.009,0.002-0.021,0.003-0.032,0.003
	c-0.012,0-0.023,0.001-0.037,0.001c-0.08,0-0.127-0.027-0.141-0.081c-0.016,0.02-0.041,0.038-0.072,0.055
	c-0.033,0.016-0.074,0.024-0.124,0.024c-0.031,0-0.06-0.005-0.089-0.014c-0.028-0.009-0.052-0.025-0.074-0.045
	c-0.021-0.021-0.039-0.048-0.051-0.081c-0.014-0.035-0.021-0.075-0.021-0.125c0-0.068,0.015-0.122,0.046-0.163
	c0.031-0.04,0.066-0.072,0.11-0.093c0.04-0.021,0.086-0.035,0.133-0.041c0.044-0.005,0.085-0.008,0.117-0.008v-0.026
	c0-0.016-0.004-0.029-0.009-0.039c-0.006-0.01-0.011-0.018-0.02-0.022c-0.008-0.006-0.019-0.008-0.029-0.011
	c-0.012-0.001-0.023-0.003-0.036-0.003c-0.035,0-0.069,0.006-0.103,0.018c-0.033,0.01-0.07,0.027-0.113,0.052
	c-0.019-0.027-0.031-0.055-0.041-0.08c-0.009-0.025-0.014-0.046-0.014-0.06c0-0.018,0.005-0.033,0.014-0.049
	c0.01-0.016,0.031-0.033,0.062-0.05c0.028-0.018,0.062-0.031,0.109-0.04C293.682,289.462,293.727,289.458,293.775,289.458
	L293.775,289.458z M294.489,289.458c0.081,0,0.151,0.016,0.212,0.045c0.025,0.014,0.047,0.028,0.066,0.046
	c0.016,0.019,0.025,0.041,0.025,0.065c0,0.02-0.006,0.046-0.018,0.075s-0.024,0.06-0.043,0.086c-0.029-0.026-0.06-0.05-0.094-0.067
	c-0.031-0.017-0.063-0.025-0.098-0.025c-0.043,0-0.062,0.015-0.062,0.044c0,0.019,0.008,0.034,0.023,0.043
	c0.016,0.01,0.035,0.018,0.061,0.025c0.021,0.008,0.049,0.016,0.076,0.025c0.027,0.008,0.053,0.022,0.077,0.039
	c0.022,0.017,0.042,0.042,0.058,0.073c0.016,0.03,0.023,0.07,0.023,0.119c0,0.094-0.027,0.17-0.084,0.226
	c-0.055,0.056-0.137,0.084-0.243,0.084c-0.062,0-0.108-0.006-0.144-0.017c-0.032-0.012-0.059-0.023-0.079-0.035
	c-0.026-0.015-0.044-0.032-0.054-0.05c-0.01-0.019-0.016-0.038-0.016-0.058c0-0.03,0.007-0.06,0.02-0.09
	c0.012-0.029,0.026-0.058,0.042-0.086c0.012,0.012,0.024,0.025,0.04,0.036c0.016,0.012,0.033,0.021,0.051,0.031
	c0.018,0.009,0.034,0.017,0.053,0.022c0.021,0.005,0.037,0.009,0.056,0.009c0.026,0,0.044-0.006,0.056-0.016
	c0.011-0.01,0.018-0.023,0.018-0.039c0-0.018-0.008-0.031-0.025-0.042c-0.017-0.011-0.036-0.02-0.061-0.028
	c-0.023-0.009-0.049-0.019-0.078-0.03c-0.027-0.01-0.055-0.025-0.078-0.042c-0.025-0.019-0.043-0.042-0.061-0.073
	c-0.017-0.031-0.024-0.07-0.024-0.118c0-0.047,0.008-0.089,0.024-0.124c0.018-0.035,0.041-0.065,0.069-0.087
	c0.028-0.024,0.06-0.041,0.095-0.052C294.411,289.464,294.449,289.458,294.489,289.458z M292.548,289.476
	c0.024,0,0.046,0.002,0.069,0.007c0.021,0.006,0.041,0.016,0.059,0.029c0.016,0.014,0.029,0.032,0.04,0.056
	c0.009,0.024,0.016,0.056,0.016,0.094v0.625c0,0.026,0,0.059-0.003,0.097c-0.002,0.039-0.006,0.073-0.013,0.104
	c-0.013,0.047-0.028,0.086-0.052,0.118c-0.021,0.033-0.047,0.059-0.076,0.078c-0.027,0.019-0.057,0.033-0.084,0.041
	c-0.029,0.009-0.054,0.013-0.074,0.013c-0.042,0-0.074-0.009-0.094-0.029c-0.02-0.019-0.033-0.049-0.041-0.087
	c-0.001-0.016-0.004-0.031-0.006-0.047c-0.002-0.019-0.003-0.041-0.006-0.07c0.033-0.004,0.059-0.011,0.078-0.021
	c0.02-0.011,0.035-0.024,0.046-0.041c0.012-0.017,0.019-0.036,0.022-0.058c0.004-0.021,0.005-0.044,0.005-0.071v-0.824
	c0.013-0.002,0.024-0.004,0.038-0.006c0.01-0.002,0.023-0.004,0.035-0.005C292.521,289.476,292.535,289.476,292.548,289.476
	L292.548,289.476z M292.012,289.68c-0.049,0-0.07,0.042-0.07,0.128h0.142c0-0.049-0.005-0.082-0.016-0.1
	C292.055,289.688,292.036,289.68,292.012,289.68z M293.822,289.938c-0.02,0.002-0.037,0.007-0.053,0.012
	c-0.019,0.005-0.031,0.011-0.045,0.02c-0.012,0.009-0.023,0.021-0.029,0.035c-0.008,0.014-0.012,0.032-0.012,0.056
	c0,0.026,0.008,0.048,0.02,0.062c0.012,0.014,0.028,0.021,0.051,0.021c0.017,0,0.032-0.004,0.047-0.014
	c0.013-0.009,0.021-0.024,0.021-0.043V289.938z"/>
<path id="path4453" sodipodi:nodetypes="ccccc" opacity="0.75" fill="#603813" stroke="#603813" stroke-width="0.4554" stroke-linecap="round" stroke-linejoin="round" enable-background="new    " d="
	M287.729,292.155h11.513l0.641,0.89h-12.789L287.729,292.155z"/>
<path id="path4457" sodipodi:nodetypes="ccccc" opacity="0.75" fill="#603813" stroke="#603813" stroke-width="0.4554" stroke-linecap="round" stroke-linejoin="round" enable-background="new    " d="
	M286.946,295.445h13.08v-1.531h-13.072L286.946,295.445z"/>
</svg>
