<?xml version="1.0" encoding="utf-8"?>
<!-- Generator: Adobe Illustrator 14.0.0, SVG Export Plug-In . SVG Version: 6.00 Build 43363)  -->
<!DOCTYPE svg PUBLIC "-//W3C//DTD SVG 1.1//EN" "http://www.w3.org/Graphics/SVG/1.1/DTD/svg11.dtd">
<svg version="1.1"
	 id="svg2" xmlns:rdf="http://www.w3.org/1999/02/22-rdf-syntax-ns#" sodipodi:docname="accommodation_motel.svg" inkscape:version="0.48.0 r9654" xmlns:svg="http://www.w3.org/2000/svg" xmlns:sodipodi="http://sodipodi.sourceforge.net/DTD/sodipodi-0.dtd" xmlns:inkscape="http://www.inkscape.org/namespaces/inkscape" xmlns:dc="http://purl.org/dc/elements/1.1/" sodipodi:version="0.32" xmlns:cc="http://creativecommons.org/ns#" inkscape:output_extension="org.inkscape.output.svg.inkscape"
	 xmlns="http://www.w3.org/2000/svg" xmlns:xlink="http://www.w3.org/1999/xlink" x="0px" y="0px" width="580px" height="580px"
	 viewBox="0 0 580 580" enable-background="new 0 0 580 580" xml:space="preserve">
<sodipodi:namedview  showgrid="false" inkscape:current-layer="svg2" inkscape:window-y="24" inkscape:window-x="0" inkscape:cy="83.46966" inkscape:cx="305.87241" inkscape:zoom="0.32586207" pagecolor="#ffffff" bordercolor="#666666" borderopacity="1.0" objecttolerance="10.0" gridtolerance="10.0" guidetolerance="10.0" inkscape:window-height="1003" inkscape:window-width="1920" inkscape:pageshadow="2" inkscape:pageopacity="0.0" inkscape:window-maximized="1" id="base">
	</sodipodi:namedview>
<g id="g2913" transform="matrix(0.77452064,0,0,0.77452064,65.539985,24.712453)">
	<path id="path2157" fill="#FFFFFF" stroke="#0071BC" stroke-width="1.0749" stroke-linecap="round" d="M283.155,338.693
		l-0.096,7.487"/>
	<path id="path2159" fill="#FFFFFF" stroke="#0071BC" stroke-width="1.0749" d="M283.251,343.396l14.394,0.096"/>
	<path id="path2161" fill="#FFFFFF" stroke="#0071BC" stroke-width="1.0749" stroke-linecap="round" d="M297.741,345.891
		l0.097-4.895"/>
	<path id="rect2163" fill="#FFFFFF" stroke="#0071BC" stroke-width="1.2361" d="M289.393,340.66h6.237
		c0.371,0,0.673,0.301,0.673,0.672l0,0c0,0.371-0.303,0.671-0.673,0.671h-6.237c-0.371,0-0.672-0.301-0.672-0.671l0,0
		C288.721,340.961,289.022,340.66,289.393,340.66z"/>
	
		<path id="path2167" sodipodi:type="arc" sodipodi:ry="1.3392857" sodipodi:rx="1.5178572" sodipodi:cy="16.017857" sodipodi:cx="7.7678571" fill="#0071BC" stroke="#0071BC" stroke-width="0.069" d="
		M287.632,338.869c0,0.512-0.468,0.927-1.047,0.927c-0.579,0-1.047-0.415-1.047-0.927s0.468-0.927,1.047-0.927
		C287.163,337.942,287.632,338.357,287.632,338.869z"/>
	<path id="rect2169" fill="#FFFFFF" stroke="#0071BC" stroke-width="1.0749" d="M284.57,341.716h2.688c0.066,0,0.12,0.054,0.12,0.12
		l0,0c0,0.066-0.054,0.12-0.12,0.12h-2.688c-0.066,0-0.12-0.054-0.12-0.12l0,0C284.451,341.77,284.504,341.716,284.57,341.716z"/>
</g>
<path id="path2301" fill="#0071BC" d="M288.551,293.781c-0.57,0-0.873,0.311-1.013,0.676l-0.742,1.915
	c-0.294,0.038-0.815,0.384-0.815,1.037v2.436h0.722v0.779c0,0.958,1.356,0.947,1.356,0v-0.779h2.439h0h2.44v0.779
	c0,0.947,1.356,0.958,1.356,0v-0.779h0.721v-2.436c0-0.653-0.52-0.999-0.814-1.037l-0.743-1.915
	c-0.141-0.365-0.442-0.676-1.013-0.676h-1.051h-1.784H288.551z M288.542,294.478h1.954h0.002h0.001h1.956
	c0.245,0.002,0.35,0.155,0.418,0.367l0.561,1.507h-2.935h0h-0.001h-2.933l0.56-1.507
	C288.193,294.633,288.298,294.479,288.542,294.478z M287.403,297.084c0.346,0,0.626,0.288,0.626,0.646
	c0,0.355-0.28,0.646-0.626,0.646s-0.626-0.289-0.626-0.646C286.777,297.373,287.057,297.084,287.403,297.084z M293.596,297.084
	c0.346,0,0.625,0.288,0.625,0.646c0,0.355-0.279,0.646-0.625,0.646s-0.627-0.289-0.627-0.646
	C292.969,297.373,293.25,297.084,293.596,297.084z"/>
</svg>
