<?xml version="1.0" encoding="utf-8"?>
<!-- Generator: Adobe Illustrator 14.0.0, SVG Export Plug-In . SVG Version: 6.00 Build 43363)  -->
<!DOCTYPE svg PUBLIC "-//W3C//DTD SVG 1.1//EN" "http://www.w3.org/Graphics/SVG/1.1/DTD/svg11.dtd">
<svg version="1.1"
	 id="svg2" xmlns:rdf="http://www.w3.org/1999/02/22-rdf-syntax-ns#" sodipodi:docname="shopping_motorcycle.svg" inkscape:version="0.47 r22583" xmlns:svg="http://www.w3.org/2000/svg" xmlns:sodipodi="http://sodipodi.sourceforge.net/DTD/sodipodi-0.dtd" xmlns:inkscape="http://www.inkscape.org/namespaces/inkscape" xmlns:dc="http://purl.org/dc/elements/1.1/" sodipodi:version="0.32" xmlns:cc="http://creativecommons.org/ns#" inkscape:output_extension="org.inkscape.output.svg.inkscape"
	 xmlns="http://www.w3.org/2000/svg" xmlns:xlink="http://www.w3.org/1999/xlink" x="0px" y="0px" width="580px" height="580px"
	 viewBox="0 0 580 580" enable-background="new 0 0 580 580" xml:space="preserve">
<sodipodi:namedview  showgrid="false" inkscape:current-layer="svg2" inkscape:window-y="-4" inkscape:window-x="-4" inkscape:cy="344.66669" inkscape:cx="494.87957" inkscape:zoom="0.65172414" pagecolor="#ffffff" bordercolor="#666666" borderopacity="1.0" objecttolerance="10.0" gridtolerance="10.0" guidetolerance="10.0" inkscape:window-height="1005" inkscape:window-width="1280" inkscape:pageshadow="2" inkscape:pageopacity="0.0" inkscape:window-maximized="1" id="base" inkscape:guide-bbox="true" showguides="true">
	</sodipodi:namedview>
<defs>
	
	
		<inkscape:perspective  inkscape:persp3d-origin="290 : 193.33333 : 1" inkscape:vp_z="580 : 290 : 1" inkscape:vp_y="6.1230318e-14 : 1000 : 0" inkscape:vp_x="0 : 290 : 1" sodipodi:type="inkscape:persp3d" id="perspective2441">
		</inkscape:perspective>
	
		<inkscape:perspective  inkscape:persp3d-origin="30 : 20 : 1" inkscape:vp_z="60 : 30 : 1" inkscape:vp_y="0 : 1000 : 0" inkscape:vp_x="0 : 30 : 1" sodipodi:type="inkscape:persp3d" id="perspective3452">
		</inkscape:perspective>
	
		<inkscape:perspective  inkscape:persp3d-origin="372.04724 : 350.78739 : 1" inkscape:vp_z="744.09448 : 526.18109 : 1" inkscape:vp_y="0 : 1000 : 0" inkscape:vp_x="0 : 526.18109 : 1" sodipodi:type="inkscape:persp3d" id="perspective4471">
		</inkscape:perspective>
	
		<inkscape:perspective  inkscape:persp3d-origin="6 : 4 : 1" inkscape:vp_z="12 : 6 : 1" inkscape:vp_y="0 : 1000 : 0" inkscape:vp_x="0 : 6 : 1" sodipodi:type="inkscape:persp3d" id="perspective4668">
		</inkscape:perspective>
	
		<inkscape:perspective  inkscape:persp3d-origin="0.5 : 0.33333333 : 1" inkscape:vp_z="1 : 0.5 : 1" inkscape:vp_y="0 : 1000 : 0" inkscape:vp_x="0 : 0.5 : 1" sodipodi:type="inkscape:persp3d" id="perspective3826">
		</inkscape:perspective>
	
		<inkscape:perspective  inkscape:persp3d-origin="0.5 : 0.33333333 : 1" inkscape:vp_z="1 : 0.5 : 1" inkscape:vp_y="0 : 1000 : 0" inkscape:vp_x="0 : 0.5 : 1" sodipodi:type="inkscape:persp3d" id="perspective3855">
		</inkscape:perspective>
	
		<inkscape:perspective  inkscape:persp3d-origin="0.5 : 0.33333333 : 1" inkscape:vp_z="1 : 0.5 : 1" inkscape:vp_y="0 : 1000 : 0" inkscape:vp_x="0 : 0.5 : 1" sodipodi:type="inkscape:persp3d" id="perspective3909">
		</inkscape:perspective>
	
		<inkscape:perspective  inkscape:persp3d-origin="0.5 : 0.33333333 : 1" inkscape:vp_z="1 : 0.5 : 1" inkscape:vp_y="0 : 1000 : 0" inkscape:vp_x="0 : 0.5 : 1" sodipodi:type="inkscape:persp3d" id="perspective3950">
		</inkscape:perspective>
	
		<inkscape:perspective  inkscape:persp3d-origin="0.5 : 0.33333333 : 1" inkscape:vp_z="1 : 0.5 : 1" inkscape:vp_y="0 : 1000 : 0" inkscape:vp_x="0 : 0.5 : 1" sodipodi:type="inkscape:persp3d" id="perspective3972">
		</inkscape:perspective>
	
		<inkscape:perspective  inkscape:persp3d-origin="0.5 : 0.33333333 : 1" inkscape:vp_z="1 : 0.5 : 1" inkscape:vp_y="0 : 1000 : 0" inkscape:vp_x="0 : 0.5 : 1" sodipodi:type="inkscape:persp3d" id="perspective3994">
		</inkscape:perspective>
	
		<inkscape:perspective  inkscape:persp3d-origin="0.5 : 0.33333333 : 1" inkscape:vp_z="1 : 0.5 : 1" inkscape:vp_y="0 : 1000 : 0" inkscape:vp_x="0 : 0.5 : 1" sodipodi:type="inkscape:persp3d" id="perspective4016">
		</inkscape:perspective>
	
		<inkscape:perspective  inkscape:persp3d-origin="0.5 : 0.33333333 : 1" inkscape:vp_z="1 : 0.5 : 1" inkscape:vp_y="0 : 1000 : 0" inkscape:vp_x="0 : 0.5 : 1" sodipodi:type="inkscape:persp3d" id="perspective4837">
		</inkscape:perspective>
	
		<inkscape:perspective  inkscape:persp3d-origin="0.5 : 0.33333333 : 1" inkscape:vp_z="1 : 0.5 : 1" inkscape:vp_y="0 : 1000 : 0" inkscape:vp_x="0 : 0.5 : 1" sodipodi:type="inkscape:persp3d" id="perspective4971">
		</inkscape:perspective>
	
		<inkscape:perspective  inkscape:persp3d-origin="0.5 : 0.33333333 : 1" inkscape:vp_z="1 : 0.5 : 1" inkscape:vp_y="0 : 1000 : 0" inkscape:vp_x="0 : 0.5 : 1" sodipodi:type="inkscape:persp3d" id="perspective6216">
		</inkscape:perspective>
	
		<inkscape:perspective  inkscape:persp3d-origin="0.5 : 0.33333333 : 1" inkscape:vp_z="1 : 0.5 : 1" inkscape:vp_y="0 : 1000 : 0" inkscape:vp_x="0 : 0.5 : 1" sodipodi:type="inkscape:persp3d" id="perspective6764">
		</inkscape:perspective>
	
		<inkscape:perspective  inkscape:persp3d-origin="0.5 : 0.33333333 : 1" inkscape:vp_z="1 : 0.5 : 1" inkscape:vp_y="0 : 1000 : 0" inkscape:vp_x="0 : 0.5 : 1" sodipodi:type="inkscape:persp3d" id="perspective6817">
		</inkscape:perspective>
	
		<inkscape:perspective  inkscape:persp3d-origin="0.5 : 0.33333333 : 1" inkscape:vp_z="1 : 0.5 : 1" inkscape:vp_y="0 : 1000 : 0" inkscape:vp_x="0 : 0.5 : 1" sodipodi:type="inkscape:persp3d" id="perspective6928">
		</inkscape:perspective>
	
		<inkscape:perspective  inkscape:persp3d-origin="0.5 : 0.33333333 : 1" inkscape:vp_z="1 : 0.5 : 1" inkscape:vp_y="0 : 1000 : 0" inkscape:vp_x="0 : 0.5 : 1" sodipodi:type="inkscape:persp3d" id="perspective10781">
		</inkscape:perspective>
	
		<inkscape:perspective  inkscape:persp3d-origin="0.5 : 0.33333333 : 1" inkscape:vp_z="1 : 0.5 : 1" inkscape:vp_y="0 : 1000 : 0" inkscape:vp_x="0 : 0.5 : 1" sodipodi:type="inkscape:persp3d" id="perspective10806">
		</inkscape:perspective>
</defs>
<g id="layer3" transform="matrix(48.14969,0,0,48.14969,-536.27327,-33.306752)" inkscape:label="Layout" display="none">
	<rect id="rect4134" x="1" y="1" display="inline" fill="none" stroke="#757575" stroke-width="0.1" width="10" height="10"/>
	<rect id="rect4136" x="2" y="2" display="inline" fill="none" stroke="#757575" stroke-width="0.1" width="8" height="8"/>
</g>
<g id="g3338" transform="matrix(1.3973279,-0.2437849,0.2437849,1.3973279,-185.07402,-56.183307)">
</g>
<g id="g10860" transform="matrix(1.5423079,0,0,1.5423079,-1078.6207,-115.49981)">
	<path id="path6039" fill="#93278F" d="M888.819,257.327c-0.122-0.472-0.553-0.821-1.061-0.821c-0.607,0-1.098,0.488-1.098,1.094
		c0,0.102,0.012,0.196,0.038,0.287h0.44c0.032,0.076,0.068,0.119,0.068,0.119c0.132,0.192,0.354,0.315,0.604,0.315
		c0.406,0,0.736-0.331,0.736-0.736c0-0.093,0.023-0.178-0.015-0.258H888.819z"/>
	<path id="path6041" fill="#93278F" d="M888.789,263.872c-0.115,0.117-0.275,0.207-0.453,0.207l-0.001-2.386l1.651-0.474
		l0.413,0.814L888.789,263.872z"/>
	<path id="path6043" fill="#93278F" d="M887.403,258.416c-0.109-0.121-0.266-0.198-0.443-0.198c-0.188,0-0.356,0.087-0.464,0.224
		l-1.31,2.001c-0.054,0.089-0.083,0.193-0.083,0.304c0,0.207,0.104,0.387,0.262,0.493l1.757,0.975v1.659
		c0,0.235,0.19,0.426,0.425,0.426c0.234,0,0.425-0.191,0.425-0.426v-2.072c0,0,0.056-0.331-0.319-0.511l-1.095-0.574l0.798-1.219
		l0.424,0.665c0.085,0.135,0.199,0.187,0.304,0.185l1.088-0.004c0.443,0,0.443-0.576,0-0.574h-0.882L887.403,258.416z"/>
	<path id="path6045" fill="#93278F" d="M892.219,261.135c0.018,0.018,0.027,0.039,0.027,0.068c0,0.052-0.043,0.096-0.096,0.096
		c-0.014,0-0.023,0-0.034-0.004c-0.188-0.08-0.307-0.13-0.526-0.13c-0.144,0-0.324,0.05-0.531,0.217l-0.191-0.378
		c0.239-0.071,0.435-0.135,0.639-0.135C891.834,260.868,892.005,260.936,892.219,261.135z"/>
	<path id="path6047" fill="#93278F" d="M884.912,261.426l1.844,1.017l0.004,0.408l-2.107-1.16c-0.152-0.078-0.357-0.123-0.502-0.123
		c-0.217,0-0.338,0.05-0.525,0.13c-0.012,0.004-0.022,0.004-0.035,0.004c-0.052,0-0.097-0.043-0.097-0.096
		c0-0.028,0.011-0.05,0.028-0.068c0.213-0.2,0.432-0.267,0.757-0.267C884.448,261.272,884.651,261.292,884.912,261.426z"/>
	<path id="path6049" fill="#93278F" d="M885.083,265.167c0.601,0,1.088-0.487,1.088-1.089c0-0.602-0.487-1.088-1.088-1.088
		c-0.601,0-1.087,0.487-1.087,1.088C883.995,264.68,884.482,265.167,885.083,265.167z M883.514,264.079
		c0-0.866,0.703-1.57,1.569-1.57c0.868,0,1.571,0.704,1.571,1.57c0,0.866-0.703,1.57-1.571,1.57
		C884.217,265.649,883.514,264.945,883.514,264.079z"/>
	<path id="path6051" fill="#93278F" d="M891.574,265.167c0.6,0,1.088-0.487,1.088-1.089c0-0.602-0.487-1.088-1.088-1.088
		c-0.602,0-1.088,0.487-1.088,1.088C890.486,264.68,890.973,265.167,891.574,265.167z M890.004,264.079
		c0-0.866,0.702-1.57,1.57-1.57c0.866,0,1.569,0.704,1.569,1.57c0,0.866-0.703,1.57-1.569,1.57
		C890.707,265.649,890.004,264.945,890.004,264.079z"/>
	<path id="path6053" fill="#93278F" d="M891.227,262.284l-0.763-1.525c-0.101-0.182-0.295-0.308-0.519-0.308h-0.498
		c-0.097,0-0.175,0.08-0.175,0.178c0,0.098,0.078,0.176,0.175,0.176l0.498-0.002c0.084,0,0.177,0.057,0.213,0.139l0.718,1.464
		L891.227,262.284z"/>
</g>
</svg>
