<?xml version="1.0" encoding="UTF-8" standalone="no"?>
<svg
   xmlns:dc="http://purl.org/dc/elements/1.1/"
   xmlns:cc="http://creativecommons.org/ns#"
   xmlns:rdf="http://www.w3.org/1999/02/22-rdf-syntax-ns#"
   xmlns:svg="http://www.w3.org/2000/svg"
   xmlns="http://www.w3.org/2000/svg"
   xmlns:sodipodi="http://sodipodi.sourceforge.net/DTD/sodipodi-0.dtd"
   xmlns:inkscape="http://www.inkscape.org/namespaces/inkscape"
   width="100%"
   height="100%"
   viewBox="0 0 10 10"
   version="1.1">
  <path
     style="stroke-width:3.04573226"
     d="m 9.8370239,0.16297596 c 0,0 -1.4868711,2.10971114 -1.4868711,4.94668484 0,2.5591309 1.4868711,4.7273632 1.4868711,4.7273632 0,0 -3.2645743,-2.0748661 -3.2197912,-4.7621034 0.044782,-2.6872632 3.2197912,-4.91194464 3.2197912,-4.91194464 z"
     id="path4" />
  <path
     style="stroke-width:3.04573226"
     d="m 0.16297609,0.16297596 c 0,0 1.48687131,2.10971114 1.48687131,4.94668484 0,2.5591309 -1.48687131,4.7273632 -1.48687131,4.7273632 0,0 3.26457431,-2.0748661 3.21979131,-4.7621034 C 3.3379864,2.3876574 0.16297609,0.16297596 0.16297609,0.16297596 Z"
     id="path4-6" />
  <path
     style="stroke-width:3.04573226"
     d="m 0.16297609,0.16297596 c 0,0 2.10971071,1.48687134 4.94668471,1.48687134 2.5591309,0 4.7273631,-1.48687134 4.7273631,-1.48687134 0,0 -2.0748663,3.26457444 -4.7621033,3.21979134 C 2.3876571,3.3379863 0.16297609,0.16297596 0.16297609,0.16297596 Z"
     id="path4-7" />
  <path
     style="stroke-width:3.04573226"
     d="m 0.16297609,9.837024 c 0,0 2.10971071,-1.4868712 4.94668471,-1.4868712 2.5591309,0 4.7273631,1.4868712 4.7273631,1.4868712 0,0 -2.0748663,-3.2645742 -4.7621033,-3.2197913 C 2.3876571,6.6620147 0.16297609,9.837024 0.16297609,9.837024 Z"
     id="path4-7-5" />
  <path
     d="M 1.6610169,1.6355932 2.5805085,4.6313559 1.5720339,8.3686441 5.1016949,7.5974576 8.0677966,8.1016949 7.5338983,4.9576271 8.3050847,1.9322034 4.9237288,2.4067797 Z"
     id="path883" />
</svg>
