<?xml version="1.0" encoding="UTF-8" standalone="no"?>
<!-- Created with Inkscape (http://www.inkscape.org/) -->

<svg
   xmlns:dc="http://purl.org/dc/elements/1.1/"
   xmlns:cc="http://creativecommons.org/ns#"
   xmlns:rdf="http://www.w3.org/1999/02/22-rdf-syntax-ns#"
   xmlns:svg="http://www.w3.org/2000/svg"
   xmlns="http://www.w3.org/2000/svg"
   version="1.1"
   width="100%"
   height="100%"
   viewBox="0 0 18 18"
   id="svg2">
  <metadata
     id="metadata8">
    <rdf:RDF>
      <cc:Work
         rdf:about="">
        <dc:format>image/svg+xml</dc:format>
        <dc:type
           rdf:resource="http://purl.org/dc/dcmitype/StillImage" />
        <dc:title></dc:title>
      </cc:Work>
    </rdf:RDF>
  </metadata>
  <defs
     id="defs6" />
  <rect
     width="18"
     height="18"
     x="0"
     y="0"
     id="canvas"
     style="fill:none;stroke:none;visibility:hidden" />
  <g
     id="muslim">
    <path
       d="M 8,3 C 4.609585,3 2,5.6096 2,9 c 0,3.3904 2.609585,6 6,6 1.89566,0 3.873911,-0.6497 5,-2 -0.7358,0.479 -2.056597,1 -3,1 C 7.40733,14 5,11.5927 5,9 5,6.4073 7.40733,4 10,4 10.943403,4 12.2642,4.5211 13,5 11.873911,3.6498 9.89566,3 8,3 z m 4.5,3 -1,2 L 9,8 11,9.5 10,12 12.5,10.5 15,12 14,9.5 16,8 13.5,8 12.5,6 z"
       id="halo"
       style="opacity:0.3;fill:#ffffff;fill-opacity:1;stroke:#ffffff;stroke-width:2;stroke-miterlimit:4;stroke-opacity:1;stroke-dasharray:none" />
    <path
       d="M 8,3 C 4.609585,3 2,5.6096 2,9 c 0,3.3904 2.609585,6 6,6 1.89566,0 3.873911,-0.6497 5,-2 -0.7358,0.479 -2.056597,1 -3,1 C 7.40733,14 5,11.5927 5,9 5,6.4073 7.40733,4 10,4 10.943403,4 12.2642,4.5211 13,5 11.873911,3.6498 9.89566,3 8,3 z m 4.5,3 -1,2 L 9,8 11,9.5 10,12 12.5,10.5 15,12 14,9.5 16,8 13.5,8 12.5,6 z"
       id="icon"
       style="fill:#1a1a1a;fill-opacity:1;stroke:none" />
  </g>
</svg>
