<?xml version="1.0" encoding="UTF-8" standalone="no"?>
<!-- Created with Inkscape (http://www.inkscape.org/) -->

<svg
   xmlns="http://www.w3.org/2000/svg"
   version="1.1"
   width="100%"
   height="100%"
   viewBox="0 0 16 16">
  <path
     d="M 7,2 C 3.609585,2 1,4.6096 1,8 c 0,3.3904 2.609585,6 6,6 1.89566,0 3.873911,-0.6497 5,-2 -0.7358,0.479 -2.0565974,1 -3,1 C 6.40733,13 4,10.5927 4,8 4,5.4073 6.40733,3 9,3 9.9434026,3 11.2642,3.5211 12,4 10.873911,2.6498 8.89566,2 7,2 z m 4.5,3 -1,2 L 8,7 10,8.5 9,11 11.5,9.5 14,11 13,8.5 15,7 12.5,7 11.5,5 z" />
</svg>
