<?xml version="1.0" encoding="UTF-8" standalone="no"?>
<svg
   xmlns:dc="http://purl.org/dc/elements/1.1/"
   xmlns:cc="http://creativecommons.org/ns#"
   xmlns:rdf="http://www.w3.org/1999/02/22-rdf-syntax-ns#"
   xmlns:svg="http://www.w3.org/2000/svg"
   xmlns="http://www.w3.org/2000/svg"
   viewBox="0 0 14 14"
   height="14"
   width="14"
   id="svg2"
   version="1.1">
  <metadata
     id="metadata8">
    <rdf:RDF>
      <cc:Work
         rdf:about="">
        <dc:format>image/svg+xml</dc:format>
        <dc:type
           rdf:resource="http://purl.org/dc/dcmitype/StillImage" />
        <dc:title></dc:title>
      </cc:Work>
    </rdf:RDF>
  </metadata>
  <defs
     id="defs6" />
  <path
     id="rect23"
     d="M 7.0078125,0 0,3 V 4 H 6.5 V 8 H 2 v 1 h 4.5 v 5 h 1 V 9 H 12 V 8 H 7.5 V 4 H 14 V 3 Z M 0,6 c 0,2.6666667 0,5.333333 0,8 h 1 v -2 h 2 v 2 H 4 C 4,13 4,12 4,11 3,11 2,11 1,11 V 6 Z m 13,0 v 5 c -1,0 -2,0 -3,0 0,1 0,2 0,3 h 1 v -2 h 2 v 2 h 1 c 0,-2.666667 0,-5.3333333 0,-8 z"
     style="fill:#000000;stroke:none;stroke-width:0.05045413" />
</svg>
