<?xml version="1.0" encoding="UTF-8" standalone="no"?>
<svg
   xmlns:dc="http://purl.org/dc/elements/1.1/"
   xmlns:cc="http://creativecommons.org/ns#"
   xmlns:rdf="http://www.w3.org/1999/02/22-rdf-syntax-ns#"
   xmlns:svg="http://www.w3.org/2000/svg"
   xmlns="http://www.w3.org/2000/svg"
   version="1.1"
   width="100%"
   height="100%"
   viewBox="0 0 14 14"
   id="svg2">
  <metadata
     id="metadata8">
    <rdf:RDF>
      <cc:Work
         rdf:about="">
        <dc:format>image/svg+xml</dc:format>
        <dc:type
           rdf:resource="http://purl.org/dc/dcmitype/StillImage" />
        <dc:title></dc:title>
      </cc:Work>
    </rdf:RDF>
  </metadata>
  <defs
     id="defs6" />
  <rect
     width="14"
     height="14"
     x="0"
     y="0"
     id="canvas"
     style="fill:none;stroke:none;visibility:hidden" />
  <path
     id="palace"
     style="fill:#000000;fill-opacity:1;stroke:none;stroke-width:0.77459669"
     d="M 12,2 11,3.5 V 4 h 3 V 3.5 L 13,2 Z M 1,2 0,3.5 V 4 H 3 V 3.5 L 2,2 Z m 3,2 h 6 V 3 L 7,0 4,3 Z M 0,5 v 8 h 5 c 0,-1 0,-3 2,-3 2,0 2,2 2,3 h 5 V 5 H 11.018051 L 11,6 H 10 L 10.03249,5 H 4.0433213 L 4,6 H 3 V 5 Z m 3,3 c 1,0 1,1 1,2 H 2 C 2,9 2,8 3,8 Z m 8,0 c 1,0 1,0.7301391 1,2 l -2,0.02539 C 9.9645368,8.7473493 10,8 11,8 Z" />
</svg>
