<?xml version="1.0" encoding="utf-8"?>
<!-- Generator: Adobe Illustrator 14.0.0, SVG Export Plug-In . SVG Version: 6.00 Build 43363)  -->
<!DOCTYPE svg PUBLIC "-//W3C//DTD SVG 1.1//EN" "http://www.w3.org/Graphics/SVG/1.1/DTD/svg11.dtd">
<svg version="1.1"
	 id="svg2" xmlns:rdf="http://www.w3.org/1999/02/22-rdf-syntax-ns#" sodipodi:docname="bicycle_parking.svg" inkscape:version="0.46" xmlns:svg="http://www.w3.org/2000/svg" xmlns:sodipodi="http://sodipodi.sourceforge.net/DTD/sodipodi-0.dtd" xmlns:inkscape="http://www.inkscape.org/namespaces/inkscape" xmlns:dc="http://purl.org/dc/elements/1.1/" sodipodi:version="0.32" xmlns:cc="http://creativecommons.org/ns#" inkscape:output_extension="org.inkscape.output.svg.inkscape"
	 xmlns="http://www.w3.org/2000/svg" xmlns:xlink="http://www.w3.org/1999/xlink" x="0px" y="0px" width="580px" height="580px"
	 viewBox="0 0 580 580" enable-background="new 0 0 580 580" xml:space="preserve">
<defs>
	
	
		<inkscape:perspective  inkscape:persp3d-origin="290 : 193.33333 : 1" inkscape:vp_z="580 : 290 : 1" inkscape:vp_y="0 : 1000 : 0" inkscape:vp_x="0 : 290 : 1" sodipodi:type="inkscape:persp3d" id="perspective24">
		</inkscape:perspective>
</defs>
<sodipodi:namedview  showgrid="false" inkscape:current-layer="svg2" inkscape:window-y="21" inkscape:window-x="193" inkscape:cy="415.25176" inkscape:cx="615.26172" inkscape:zoom="0.70710678" pagecolor="#ffffff" bordercolor="#666666" borderopacity="1.0" objecttolerance="10.0" gridtolerance="10.0" guidetolerance="10.0" inkscape:window-height="1003" inkscape:window-width="1400" inkscape:pageshadow="2" inkscape:pageopacity="0.0" id="base">
	</sodipodi:namedview>
<path id="path596" sodipodi:type="arc" sodipodi:ry="78.380615" sodipodi:rx="78.380615" sodipodi:cy="461.96271" sodipodi:cx="200.53224" fill="none" stroke="#0071BC" stroke-width="0.7722" d="
	M454.277,291.842c0,1.051,0.852,1.903,1.901,1.903c1.051,0,1.904-0.853,1.904-1.903c0-1.05-0.854-1.903-1.904-1.903
	S454.277,290.791,454.277,291.842z"/>
<path id="path595" sodipodi:type="arc" sodipodi:ry="78.380615" sodipodi:rx="78.380615" sodipodi:cy="461.96271" sodipodi:cx="200.53224" fill="none" stroke="#0071BC" stroke-width="0.7722" d="
	M462.434,291.805c0,1.051,0.853,1.903,1.902,1.903s1.903-0.853,1.903-1.903c0-1.05-0.854-1.903-1.903-1.903
	S462.434,290.754,462.434,291.805z"/>
<path id="path594" sodipodi:nodetypes="ccccc" fill="none" stroke="#0071BC" stroke-width="0.5069" stroke-linejoin="round" d="
	M462.829,288.566l-4.895,0.025l-1.729,3.214h3.312l3.46-2.349"/>
<path id="path593" sodipodi:nodetypes="ccccscccccsscsccccccccccccssccc" fill="#0071BC" d="M462.641,286.641
	c0.268,0,0.469-0.005,0.675,0.309c0.059,0.105,0.086,0.233,0.063,0.36c-0.027,0.145-0.112,0.287-0.213,0.372
	c-0.135,0.111-0.262,0.103-0.241,0.203c0.026,0.129,0.106,0.308,0.193,0.599c0.089,0.295,0.192,0.656,0.296,1.012
	c0.104,0.355,0.204,0.706,0.283,0.979c0.039,0.136,0.073,0.253,0.102,0.341c0.025,0.086,0.05,0.152,0.047,0.147
	c0.084,0.146,0.097,0.242,0.236,0.365c0.156,0.137,0.282,0.239,0.326,0.271c0.112,0.082,0.166,0.254,0.104,0.34
	c-0.074,0.117-0.229,0.135-0.342,0.1c-0.107-0.034-0.277-0.094-0.474-0.256l-0.002-0.004l-0.003-0.002
	c-0.273-0.234-0.374-0.519-0.386-0.535l-0.015-0.021l-0.011-0.023c-0.023-0.059-0.037-0.11-0.064-0.202
	c-0.029-0.093-0.063-0.21-0.104-0.349c-0.082-0.275-0.183-0.625-0.285-0.981c-0.103-0.355-0.206-0.714-0.294-1.005
	c-0.087-0.291-0.143-0.531-0.163-0.582c-0.049-0.125-0.074-0.258-0.041-0.392c0.035-0.134,0.136-0.243,0.227-0.268
	c0.207-0.058,0.152-0.207,0.047-0.207l-0.889-0.002l-0.002-0.567C461.715,286.641,462.292,286.641,462.641,286.641z"/>
<path id="path599" fill="#FFFFFF" stroke="#0071BC" stroke-width="0.6071" d="M459.454,291.704l-1.679-4.108"/>
<path id="path600" sodipodi:nodetypes="cc" fill="#FFFFFF" stroke="#0071BC" stroke-width="0.2216" stroke-linecap="round" d="
	M460.03,290.654l-1.014,2.359"/>
<path id="path597" sodipodi:type="arc" sodipodi:ry="78.380615" sodipodi:rx="78.380615" sodipodi:cy="461.96271" sodipodi:cx="200.53224" fill="#FFFFFF" stroke="#0071BC" stroke-width="0.9298" d="
	M458.962,291.812c0,0.262,0.241,0.474,0.536,0.474c0.297,0,0.537-0.212,0.537-0.474c0-0.264-0.24-0.475-0.537-0.475
	C459.203,291.338,458.962,291.549,458.962,291.812z"/>
<path id="path601" sodipodi:nodetypes="cc" fill="#FFFFFF" stroke="#0071BC" stroke-width="0.3096" stroke-linecap="round" d="
	M460.481,290.656l-0.896,0.008"/>
<path id="path602" sodipodi:nodetypes="cc" fill="#FFFFFF" stroke="#0071BC" stroke-width="0.3096" stroke-linecap="round" d="
	M459.473,292.98l-0.895,0.009"/>
<path id="path603" sodipodi:nodetypes="cssccc" fill="#0071BC" d="M456.954,287.229h2.105c0.078,0,0.181,0.14,0.078,0.232
	c-0.108,0.104-1.096,0.318-1.096,0.318s-0.271,0.075-0.416,0.057C457.483,287.818,456.984,287.776,456.954,287.229z"/>
<path id="text2419" fill="#0071BC" stroke="#0071BC" stroke-width="0.5" d="M451.646,290.442v-10.985h4.145
	c0.729,0,1.286,0.035,1.67,0.105c0.54,0.09,0.992,0.261,1.356,0.514c0.363,0.251,0.656,0.605,0.881,1.06
	c0.222,0.455,0.334,0.954,0.334,1.499c0,0.935-0.297,1.726-0.893,2.372c-0.595,0.646-1.67,0.97-3.223,0.97H453.1v4.466
	L451.646,290.442L451.646,290.442z M453.1,284.679h2.843c0.938,0,1.604-0.174,2-0.525c0.394-0.35,0.592-0.842,0.592-1.477
	c0-0.459-0.116-0.853-0.351-1.18c-0.231-0.328-0.536-0.544-0.918-0.648c-0.243-0.064-0.695-0.097-1.354-0.097H453.1V284.679
	L453.1,284.679z"/>
</svg>
