<?xml version="1.0" encoding="UTF-8" standalone="no"?>
<!-- Created with Inkscape (http://www.inkscape.org/) -->

<svg
   xmlns:dc="http://purl.org/dc/elements/1.1/"
   xmlns:cc="http://creativecommons.org/ns#"
   xmlns:rdf="http://www.w3.org/1999/02/22-rdf-syntax-ns#"
   xmlns:svg="http://www.w3.org/2000/svg"
   xmlns="http://www.w3.org/2000/svg"
   version="1.1"
   width="100%"
   height="100%"
   viewBox="0 0 18 18"
   id="svg2">
  <metadata
     id="metadata8">
    <rdf:RDF>
      <cc:Work
         rdf:about="">
        <dc:format>image/svg+xml</dc:format>
        <dc:type
           rdf:resource="http://purl.org/dc/dcmitype/StillImage" />
        <dc:title></dc:title>
      </cc:Work>
    </rdf:RDF>
  </metadata>
  <defs
     id="defs6" />
  <rect
     width="18"
     height="18"
     x="0"
     y="0"
     id="canvas"
     style="fill:none;stroke:none;visibility:hidden" />
  <g
     id="pharmacy">
    <path
       d="m 6,6 -2,2 0,8 10,0 0,-8 -2,-2.0000003 z m 2,2 2,0 0,2 2,0 0,2 -2,0 0,2 -2,0 0,-2 -2,0 0,-2 2,0 z M 6,2 6,5 12,5 12,2 z"
       id="halo"
       style="opacity:0.3;fill:#ffffff;fill-opacity:1;stroke:#ffffff;stroke-width:2;stroke-miterlimit:4;stroke-opacity:1;stroke-dasharray:none" />
    <path
       d="m 6,6 -2,2 0,8 10,0 0,-8 -2,-2.0000003 z m 2,2 2,0 0,2 2,0 0,2 -2,0 0,2 -2,0 0,-2 -2,0 0,-2 2,0 z M 6,2 6,5 12,5 12,2 z"
       id="icon"
       style="fill:#1a1a1a;fill-opacity:1;stroke:none" />
  </g>
</svg>
