<?xml version="1.0" encoding="UTF-8" standalone="no"?>
<!-- Created with Inkscape (http://www.inkscape.org/) -->

<svg
   xmlns="http://www.w3.org/2000/svg"
   version="1.1"
   width="14"
   height="14"
   viewBox="0 0 14 14">
  <rect
     width="14"
     height="14"
     x="0"
     y="0"
     id="canvas"
     style="fill:none;stroke:none;visibility:hidden" />
  <path
     d="m 2.9995255,2 c -1.322034,0 -1.322034,1.5 0,1.5 l 8.0000005,0 c 1.33909,0 1.338983,-1.5 0,-1.5 L 2.9995255,2 z m 1,2 -0.75,3 -2.25,0 c -1.322034,0 -1.322034,1.5 0,1.5 l 1.875,0 -0.875,3.5 1.5,0 0.875,-3.5 5.25,0 0.8750005,3.5 1.5,0 -0.875,-3.5 1.875,0 c 1.33909,0 1.338983,-1.5 0,-1.5 l -2.25,0 -0.7500005,-3 -1.5,0 0.75,3 -4.5,0 0.75,-3 -1.5,0 z"
     id="table"
     style="fill:#000000;fill-opacity:1;stroke:none" />
</svg>
