<?xml version="1.0" encoding="UTF-8" standalone="no"?>
<!-- Created with Inkscape (http://www.inkscape.org/) -->

<svg
   xmlns:dc="http://purl.org/dc/elements/1.1/"
   xmlns:cc="http://creativecommons.org/ns#"
   xmlns:rdf="http://www.w3.org/1999/02/22-rdf-syntax-ns#"
   xmlns:svg="http://www.w3.org/2000/svg"
   xmlns="http://www.w3.org/2000/svg"
   version="1.1"
   width="100%"
   height="100%"
   viewBox="0 0 18 18"
   id="svg2">
  <metadata
     id="metadata8">
    <rdf:RDF>
      <cc:Work
         rdf:about="">
        <dc:format>image/svg+xml</dc:format>
        <dc:type
           rdf:resource="http://purl.org/dc/dcmitype/StillImage" />
        <dc:title></dc:title>
      </cc:Work>
    </rdf:RDF>
  </metadata>
  <defs
     id="defs6" />
  <rect
     width="18"
     height="18"
     x="0"
     y="0"
     id="canvas"
     style="fill:none;stroke:none;visibility:hidden" />
  <g
     id="table">
    <path
       d="m 4.9995254,4 c -1.3220339,0 -1.3220339,1.5 0,1.5 l 7.9999996,0 c 1.33909,0 1.338983,-1.5 0,-1.5 L 4.9995254,4 z m 1,2 -0.75,3 -2.25,0 c -1.3220339,0 -1.3220339,1.5 0,1.5 l 1.875,0 -0.875,3.5 1.5,0 0.875,-3.5 5.2499996,0 0.875,3.5 1.5,0 -0.875,-3.5 1.875,0 c 1.33909,0 1.338983,-1.5 0,-1.5 l -2.25,0 -0.75,-3 -1.5,0 0.75,3 -4.4999996,0 0.75,-3 -1.5,0 z"
       id="halo"
       style="opacity:0.3;fill:#ffffff;fill-opacity:1;stroke:#ffffff;stroke-width:2;stroke-miterlimit:4;stroke-opacity:1;stroke-dasharray:none" />
    <path
       d="m 4.999525,4 c -1.322034,0 -1.322034,1.5 0,1.5 l 8,0 c 1.33909,0 1.338983,-1.5 0,-1.5 l -8,0 z m 1,2 -0.75,3 -2.25,0 c -1.322034,0 -1.322034,1.5 0,1.5 l 1.875,0 -0.875,3.5 1.5,0 0.875,-3.5 5.25,0 0.875,3.5 1.5,0 -0.875,-3.5 1.875,0 c 1.33909,0 1.338983,-1.5 0,-1.5 l -2.25,0 -0.75,-3 -1.5,0 0.75,3 -4.5,0 0.75,-3 -1.5,0 z"
       id="icon"
       style="fill:#1a1a1a;fill-opacity:1;stroke:none" />
  </g>
</svg>
