<?xml version="1.0" encoding="UTF-8" standalone="no"?>
<!-- Created with Inkscape (http://www.inkscape.org/) -->

<svg
   xmlns:dc="http://purl.org/dc/elements/1.1/"
   xmlns:cc="http://creativecommons.org/ns#"
   xmlns:rdf="http://www.w3.org/1999/02/22-rdf-syntax-ns#"
   xmlns:svg="http://www.w3.org/2000/svg"
   xmlns="http://www.w3.org/2000/svg"
   version="1.1"
   width="100%"
   height="100%"
   viewBox="0 0 18 18"
   id="svg2">
  <metadata
     id="metadata8">
    <rdf:RDF>
      <cc:Work
         rdf:about="">
        <dc:format>image/svg+xml</dc:format>
        <dc:type
           rdf:resource="http://purl.org/dc/dcmitype/StillImage" />
        <dc:title></dc:title>
      </cc:Work>
    </rdf:RDF>
  </metadata>
  <defs
     id="defs6" />
  <rect
     width="18"
     height="18"
     x="0"
     y="0"
     id="canvas"
     style="fill:none;stroke:none;visibility:hidden" />
  <g
     id="place-of-worship">
    <path
       d="m 8.4996454,2 c -0.8284271,0 -1.5,0.6715729 -1.5,1.5 0,0.8284271 0.671573,1.5 1.5,1.5 0.8284271,0 1.5,-0.6715729 1.5,-1.5 0,-0.8284271 -0.671573,-1.5 -1.5,-1.5 z M 3.1674334,6.573171 4.4996454,9 l 3,-1 1,4 -2,2 c -0.2711864,0.305085 -0.4661017,0.45872 -0.5,1 0,1 1,1 1,1 l 5.9999996,0 c 0,0 1,0 1,-1 0,-1 -1,-1 -1,-1 l -2.9999996,0 0.9999996,-1 c 1,-1 0.928985,-1.472666 0.8125,-2 l -0.8125,-4 C 10.760255,6.1065832 10.137434,5.6703491 8.9996454,5.85 l -1,0.15 -3,1.5 -1,-1.5 C 3.5584828,5.412383 2.8164279,5.9182326 3.1674334,6.573171 z"
       id="halo"
       style="opacity:0.3;fill:#ffffff;fill-opacity:1;stroke:#ffffff;stroke-width:2;stroke-miterlimit:4;stroke-opacity:1;stroke-dasharray:none" />
    <path
       d="m 8.499645,2 c -0.828427,0 -1.5,0.6715729 -1.5,1.5 0,0.8284271 0.671573,1.5 1.5,1.5 0.828428,0 1.5,-0.6715729 1.5,-1.5 0,-0.8284271 -0.671573,-1.5 -1.5,-1.5 z M 3.167433,6.573171 4.499645,9 l 3,-1 1,4 -2,2 c -0.271186,0.305085 -0.466101,0.45872 -0.5,1 0,1 1,1 1,1 l 6,0 c 0,0 1,0 1,-1 0,-1 -1,-1 -1,-1 l -3,0 1,-1 c 1,-1 0.928985,-1.472666 0.8125,-2 l -0.8125,-4 c -0.23939,-0.8934168 -0.862211,-1.3296509 -2,-1.15 l -1,0.15 -3,1.5 -1,-1.5 C 3.558483,5.412383 2.816428,5.918233 3.167433,6.573171 z"
       id="icon"
       style="fill:#1a1a1a;fill-opacity:1;stroke:none" />
  </g>
</svg>
