<?xml version="1.0" encoding="UTF-8" standalone="no"?>
<svg
   xmlns:dc="http://purl.org/dc/elements/1.1/"
   xmlns:cc="http://creativecommons.org/ns#"
   xmlns:rdf="http://www.w3.org/1999/02/22-rdf-syntax-ns#"
   xmlns:svg="http://www.w3.org/2000/svg"
   xmlns="http://www.w3.org/2000/svg"
   version="1.1"
   height="128"
   width="128"
   id="Svg">
  <metadata
     id="metadata3026">
    <rdf:RDF>
      <cc:Work
         rdf:about="">
        <dc:format>image/svg+xml</dc:format>
        <dc:type
           rdf:resource="http://purl.org/dc/dcmitype/StillImage" />
      </cc:Work>
    </rdf:RDF>
  </metadata>
  <defs
     id="defs10" />
  <path
     id="path5337"
     d="M 1 2 L 1 3 L 2 3 L 2 2 L 1 2 z M 7 2 L 7 3 L 8 3 L 8 2 L 7 2 z M 13 2 L 13 3 L 14 3 L 14 2 L 13 2 z M 19 2 L 19 3 L 20 3 L 20 2 L 19 2 z M 25 2 L 25 3 L 26 3 L 26 2 L 25 2 z M 32 2 L 32 3 L 33 3 L 33 2 L 32 2 z M 38 2 L 38 3 L 39 3 L 39 2 L 38 2 z M 44 2 L 44 3 L 45 3 L 45 2 L 44 2 z M 50 2 L 50 3 L 51 3 L 51 2 L 50 2 z M 56 2 L 56 3 L 57 3 L 57 2 L 56 2 z M 62 2 L 62 3 L 63 3 L 63 2 L 62 2 z M 68 2 L 68 3 L 69 3 L 69 2 L 68 2 z M 74 2 L 74 3 L 75 3 L 75 2 L 74 2 z M 80 2 L 80 3 L 81 3 L 81 2 L 80 2 z M 86 2 L 86 3 L 87 3 L 87 2 L 86 2 z M 92 2 L 92 3 L 93 3 L 93 2 L 92 2 z M 99 2 L 99 3 L 100 3 L 100 2 L 99 2 z M 105 2 L 105 3 L 106 3 L 106 2 L 105 2 z M 111 2 L 111 3 L 112 3 L 112 2 L 111 2 z M 117 2 L 117 3 L 118 3 L 118 2 L 117 2 z M 123 2 L 123 3 L 124 3 L 124 2 L 123 2 z M 4 6 L 4 7 L 5 7 L 5 6 L 4 6 z M 10 6 L 10 7 L 11 7 L 11 6 L 10 6 z M 16 6 L 16 7 L 17 7 L 17 6 L 16 6 z M 22 6 L 22 7 L 23 7 L 23 6 L 22 6 z M 28 6 L 28 7 L 29 7 L 29 6 L 28 6 z M 35 6 L 35 7 L 36 7 L 36 6 L 35 6 z M 41 6 L 41 7 L 42 7 L 42 6 L 41 6 z M 47 6 L 47 7 L 48 7 L 48 6 L 47 6 z M 53 6 L 53 7 L 54 7 L 54 6 L 53 6 z M 59 6 L 59 7 L 60 7 L 60 6 L 59 6 z M 65 6 L 65 7 L 66 7 L 66 6 L 65 6 z M 71 6 L 71 7 L 72 7 L 72 6 L 71 6 z M 77 6 L 77 7 L 78 7 L 78 6 L 77 6 z M 83 6 L 83 7 L 84 7 L 84 6 L 83 6 z M 89 6 L 89 7 L 90 7 L 90 6 L 89 6 z M 96 6 L 96 7 L 97 7 L 97 6 L 96 6 z M 102 6 L 102 7 L 103 7 L 103 6 L 102 6 z M 108 6 L 108 7 L 109 7 L 109 6 L 108 6 z M 114 6 L 114 7 L 115 7 L 115 6 L 114 6 z M 120 6 L 120 7 L 121 7 L 121 6 L 120 6 z M 126 6 L 126 7 L 127 7 L 127 6 L 126 6 z M 1 10 L 1 11 L 2 11 L 2 10 L 1 10 z M 7 10 L 7 11 L 8 11 L 8 10 L 7 10 z M 13 10 L 13 11 L 14 11 L 14 10 L 13 10 z M 19 10 L 19 11 L 20 11 L 20 10 L 19 10 z M 25 10 L 25 11 L 26 11 L 26 10 L 25 10 z M 32 10 L 32 11 L 33 11 L 33 10 L 32 10 z M 38 10 L 38 11 L 39 11 L 39 10 L 38 10 z M 44 10 L 44 11 L 45 11 L 45 10 L 44 10 z M 50 10 L 50 11 L 51 11 L 51 10 L 50 10 z M 56 10 L 56 11 L 57 11 L 57 10 L 56 10 z M 62 10 L 62 11 L 63 11 L 63 10 L 62 10 z M 68 10 L 68 11 L 69 11 L 69 10 L 68 10 z M 74 10 L 74 11 L 75 11 L 75 10 L 74 10 z M 80 10 L 80 11 L 81 11 L 81 10 L 80 10 z M 86 10 L 86 11 L 87 11 L 87 10 L 86 10 z M 92 10 L 92 11 L 93 11 L 93 10 L 92 10 z M 99 10 L 99 11 L 100 11 L 100 10 L 99 10 z M 105 10 L 105 11 L 106 11 L 106 10 L 105 10 z M 111 10 L 111 11 L 112 11 L 112 10 L 111 10 z M 117 10 L 117 11 L 118 11 L 118 10 L 117 10 z M 123 10 L 123 11 L 124 11 L 124 10 L 123 10 z M 4 14 L 4 15 L 5 15 L 5 14 L 4 14 z M 10 14 L 10 15 L 11 15 L 11 14 L 10 14 z M 16 14 L 16 15 L 17 15 L 17 14 L 16 14 z M 22 14 L 22 15 L 23 15 L 23 14 L 22 14 z M 28 14 L 28 15 L 29 15 L 29 14 L 28 14 z M 35 14 L 35 15 L 36 15 L 36 14 L 35 14 z M 41 14 L 41 15 L 42 15 L 42 14 L 41 14 z M 47 14 L 47 15 L 48 15 L 48 14 L 47 14 z M 53 14 L 53 15 L 54 15 L 54 14 L 53 14 z M 59 14 L 59 15 L 60 15 L 60 14 L 59 14 z M 65 14 L 65 15 L 66 15 L 66 14 L 65 14 z M 71 14 L 71 15 L 72 15 L 72 14 L 71 14 z M 77 14 L 77 15 L 78 15 L 78 14 L 77 14 z M 83 14 L 83 15 L 84 15 L 84 14 L 83 14 z M 89 14 L 89 15 L 90 15 L 90 14 L 89 14 z M 96 14 L 96 15 L 97 15 L 97 14 L 96 14 z M 102 14 L 102 15 L 103 15 L 103 14 L 102 14 z M 108 14 L 108 15 L 109 15 L 109 14 L 108 14 z M 114 14 L 114 15 L 115 15 L 115 14 L 114 14 z M 120 14 L 120 15 L 121 15 L 121 14 L 120 14 z M 126 14 L 126 15 L 127 15 L 127 14 L 126 14 z M 1 19 L 1 20 L 2 20 L 2 19 L 1 19 z M 7 19 L 7 20 L 8 20 L 8 19 L 7 19 z M 13 19 L 13 20 L 14 20 L 14 19 L 13 19 z M 19 19 L 19 20 L 20 20 L 20 19 L 19 19 z M 25 19 L 25 20 L 26 20 L 26 19 L 25 19 z M 32 19 L 32 20 L 33 20 L 33 19 L 32 19 z M 38 19 L 38 20 L 39 20 L 39 19 L 38 19 z M 44 19 L 44 20 L 45 20 L 45 19 L 44 19 z M 50 19 L 50 20 L 51 20 L 51 19 L 50 19 z M 56 19 L 56 20 L 57 20 L 57 19 L 56 19 z M 62 19 L 62 20 L 63 20 L 63 19 L 62 19 z M 68 19 L 68 20 L 69 20 L 69 19 L 68 19 z M 74 19 L 74 20 L 75 20 L 75 19 L 74 19 z M 80 19 L 80 20 L 81 20 L 81 19 L 80 19 z M 86 19 L 86 20 L 87 20 L 87 19 L 86 19 z M 92 19 L 92 20 L 93 20 L 93 19 L 92 19 z M 99 19 L 99 20 L 100 20 L 100 19 L 99 19 z M 105 19 L 105 20 L 106 20 L 106 19 L 105 19 z M 111 19 L 111 20 L 112 20 L 112 19 L 111 19 z M 117 19 L 117 20 L 118 20 L 118 19 L 117 19 z M 123 19 L 123 20 L 124 20 L 124 19 L 123 19 z M 4 23 L 4 24 L 5 24 L 5 23 L 4 23 z M 10 23 L 10 24 L 11 24 L 11 23 L 10 23 z M 16 23 L 16 24 L 17 24 L 17 23 L 16 23 z M 22 23 L 22 24 L 23 24 L 23 23 L 22 23 z M 28 23 L 28 24 L 29 24 L 29 23 L 28 23 z M 35 23 L 35 24 L 36 24 L 36 23 L 35 23 z M 41 23 L 41 24 L 42 24 L 42 23 L 41 23 z M 47 23 L 47 24 L 48 24 L 48 23 L 47 23 z M 53 23 L 53 24 L 54 24 L 54 23 L 53 23 z M 59 23 L 59 24 L 60 24 L 60 23 L 59 23 z M 65 23 L 65 24 L 66 24 L 66 23 L 65 23 z M 71 23 L 71 24 L 72 24 L 72 23 L 71 23 z M 77 23 L 77 24 L 78 24 L 78 23 L 77 23 z M 83 23 L 83 24 L 84 24 L 84 23 L 83 23 z M 89 23 L 89 24 L 90 24 L 90 23 L 89 23 z M 96 23 L 96 24 L 97 24 L 97 23 L 96 23 z M 102 23 L 102 24 L 103 24 L 103 23 L 102 23 z M 108 23 L 108 24 L 109 24 L 109 23 L 108 23 z M 114 23 L 114 24 L 115 24 L 115 23 L 114 23 z M 120 23 L 120 24 L 121 24 L 121 23 L 120 23 z M 126 23 L 126 24 L 127 24 L 127 23 L 126 23 z M 1 27 L 1 28 L 2 28 L 2 27 L 1 27 z M 7 27 L 7 28 L 8 28 L 8 27 L 7 27 z M 13 27 L 13 28 L 14 28 L 14 27 L 13 27 z M 19 27 L 19 28 L 20 28 L 20 27 L 19 27 z M 25 27 L 25 28 L 26 28 L 26 27 L 25 27 z M 32 27 L 32 28 L 33 28 L 33 27 L 32 27 z M 38 27 L 38 28 L 39 28 L 39 27 L 38 27 z M 44 27 L 44 28 L 45 28 L 45 27 L 44 27 z M 50 27 L 50 28 L 51 28 L 51 27 L 50 27 z M 56 27 L 56 28 L 57 28 L 57 27 L 56 27 z M 62 27 L 62 28 L 63 28 L 63 27 L 62 27 z M 68 27 L 68 28 L 69 28 L 69 27 L 68 27 z M 74 27 L 74 28 L 75 28 L 75 27 L 74 27 z M 80 27 L 80 28 L 81 28 L 81 27 L 80 27 z M 86 27 L 86 28 L 87 28 L 87 27 L 86 27 z M 92 27 L 92 28 L 93 28 L 93 27 L 92 27 z M 99 27 L 99 28 L 100 28 L 100 27 L 99 27 z M 105 27 L 105 28 L 106 28 L 106 27 L 105 27 z M 111 27 L 111 28 L 112 28 L 112 27 L 111 27 z M 117 27 L 117 28 L 118 28 L 118 27 L 117 27 z M 123 27 L 123 28 L 124 28 L 124 27 L 123 27 z M 4 32 L 4 33 L 5 33 L 5 32 L 4 32 z M 10 32 L 10 33 L 11 33 L 11 32 L 10 32 z M 16 32 L 16 33 L 17 33 L 17 32 L 16 32 z M 22 32 L 22 33 L 23 33 L 23 32 L 22 32 z M 28 32 L 28 33 L 29 33 L 29 32 L 28 32 z M 35 32 L 35 33 L 36 33 L 36 32 L 35 32 z M 41 32 L 41 33 L 42 33 L 42 32 L 41 32 z M 47 32 L 47 33 L 48 33 L 48 32 L 47 32 z M 53 32 L 53 33 L 54 33 L 54 32 L 53 32 z M 59 32 L 59 33 L 60 33 L 60 32 L 59 32 z M 65 32 L 65 33 L 66 33 L 66 32 L 65 32 z M 71 32 L 71 33 L 72 33 L 72 32 L 71 32 z M 77 32 L 77 33 L 78 33 L 78 32 L 77 32 z M 83 32 L 83 33 L 84 33 L 84 32 L 83 32 z M 89 32 L 89 33 L 90 33 L 90 32 L 89 32 z M 96 32 L 96 33 L 97 33 L 97 32 L 96 32 z M 102 32 L 102 33 L 103 33 L 103 32 L 102 32 z M 108 32 L 108 33 L 109 33 L 109 32 L 108 32 z M 114 32 L 114 33 L 115 33 L 115 32 L 114 32 z M 120 32 L 120 33 L 121 33 L 121 32 L 120 32 z M 126 32 L 126 33 L 127 33 L 127 32 L 126 32 z M 1 36 L 1 37 L 2 37 L 2 36 L 1 36 z M 7 36 L 7 37 L 8 37 L 8 36 L 7 36 z M 13 36 L 13 37 L 14 37 L 14 36 L 13 36 z M 19 36 L 19 37 L 20 37 L 20 36 L 19 36 z M 25 36 L 25 37 L 26 37 L 26 36 L 25 36 z M 32 36 L 32 37 L 33 37 L 33 36 L 32 36 z M 38 36 L 38 37 L 39 37 L 39 36 L 38 36 z M 44 36 L 44 37 L 45 37 L 45 36 L 44 36 z M 50 36 L 50 37 L 51 37 L 51 36 L 50 36 z M 56 36 L 56 37 L 57 37 L 57 36 L 56 36 z M 62 36 L 62 37 L 63 37 L 63 36 L 62 36 z M 68 36 L 68 37 L 69 37 L 69 36 L 68 36 z M 74 36 L 74 37 L 75 37 L 75 36 L 74 36 z M 80 36 L 80 37 L 81 37 L 81 36 L 80 36 z M 86 36 L 86 37 L 87 37 L 87 36 L 86 36 z M 92 36 L 92 37 L 93 37 L 93 36 L 92 36 z M 99 36 L 99 37 L 100 37 L 100 36 L 99 36 z M 105 36 L 105 37 L 106 37 L 106 36 L 105 36 z M 111 36 L 111 37 L 112 37 L 112 36 L 111 36 z M 117 36 L 117 37 L 118 37 L 118 36 L 117 36 z M 123 36 L 123 37 L 124 37 L 124 36 L 123 36 z M 4 40 L 4 41 L 5 41 L 5 40 L 4 40 z M 10 40 L 10 41 L 11 41 L 11 40 L 10 40 z M 16 40 L 16 41 L 17 41 L 17 40 L 16 40 z M 22 40 L 22 41 L 23 41 L 23 40 L 22 40 z M 28 40 L 28 41 L 29 41 L 29 40 L 28 40 z M 35 40 L 35 41 L 36 41 L 36 40 L 35 40 z M 41 40 L 41 41 L 42 41 L 42 40 L 41 40 z M 47 40 L 47 41 L 48 41 L 48 40 L 47 40 z M 53 40 L 53 41 L 54 41 L 54 40 L 53 40 z M 59 40 L 59 41 L 60 41 L 60 40 L 59 40 z M 65 40 L 65 41 L 66 41 L 66 40 L 65 40 z M 71 40 L 71 41 L 72 41 L 72 40 L 71 40 z M 77 40 L 77 41 L 78 41 L 78 40 L 77 40 z M 83 40 L 83 41 L 84 41 L 84 40 L 83 40 z M 89 40 L 89 41 L 90 41 L 90 40 L 89 40 z M 96 40 L 96 41 L 97 41 L 97 40 L 96 40 z M 102 40 L 102 41 L 103 41 L 103 40 L 102 40 z M 108 40 L 108 41 L 109 41 L 109 40 L 108 40 z M 114 40 L 114 41 L 115 41 L 115 40 L 114 40 z M 120 40 L 120 41 L 121 41 L 121 40 L 120 40 z M 126 40 L 126 41 L 127 41 L 127 40 L 126 40 z M 1 44 L 1 45 L 2 45 L 2 44 L 1 44 z M 7 44 L 7 45 L 8 45 L 8 44 L 7 44 z M 13 44 L 13 45 L 14 45 L 14 44 L 13 44 z M 19 44 L 19 45 L 20 45 L 20 44 L 19 44 z M 25 44 L 25 45 L 26 45 L 26 44 L 25 44 z M 32 44 L 32 45 L 33 45 L 33 44 L 32 44 z M 38 44 L 38 45 L 39 45 L 39 44 L 38 44 z M 44 44 L 44 45 L 45 45 L 45 44 L 44 44 z M 50 44 L 50 45 L 51 45 L 51 44 L 50 44 z M 56 44 L 56 45 L 57 45 L 57 44 L 56 44 z M 62 44 L 62 45 L 63 45 L 63 44 L 62 44 z M 68 44 L 68 45 L 69 45 L 69 44 L 68 44 z M 74 44 L 74 45 L 75 45 L 75 44 L 74 44 z M 80 44 L 80 45 L 81 45 L 81 44 L 80 44 z M 86 44 L 86 45 L 87 45 L 87 44 L 86 44 z M 92 44 L 92 45 L 93 45 L 93 44 L 92 44 z M 99 44 L 99 45 L 100 45 L 100 44 L 99 44 z M 105 44 L 105 45 L 106 45 L 106 44 L 105 44 z M 111 44 L 111 45 L 112 45 L 112 44 L 111 44 z M 117 44 L 117 45 L 118 45 L 118 44 L 117 44 z M 123 44 L 123 45 L 124 45 L 124 44 L 123 44 z M 4 49 L 4 50 L 5 50 L 5 49 L 4 49 z M 10 49 L 10 50 L 11 50 L 11 49 L 10 49 z M 16 49 L 16 50 L 17 50 L 17 49 L 16 49 z M 22 49 L 22 50 L 23 50 L 23 49 L 22 49 z M 28 49 L 28 50 L 29 50 L 29 49 L 28 49 z M 35 49 L 35 50 L 36 50 L 36 49 L 35 49 z M 41 49 L 41 50 L 42 50 L 42 49 L 41 49 z M 47 49 L 47 50 L 48 50 L 48 49 L 47 49 z M 53 49 L 53 50 L 54 50 L 54 49 L 53 49 z M 59 49 L 59 50 L 60 50 L 60 49 L 59 49 z M 65 49 L 65 50 L 66 50 L 66 49 L 65 49 z M 71 49 L 71 50 L 72 50 L 72 49 L 71 49 z M 77 49 L 77 50 L 78 50 L 78 49 L 77 49 z M 83 49 L 83 50 L 84 50 L 84 49 L 83 49 z M 89 49 L 89 50 L 90 50 L 90 49 L 89 49 z M 96 49 L 96 50 L 97 50 L 97 49 L 96 49 z M 102 49 L 102 50 L 103 50 L 103 49 L 102 49 z M 108 49 L 108 50 L 109 50 L 109 49 L 108 49 z M 114 49 L 114 50 L 115 50 L 115 49 L 114 49 z M 120 49 L 120 50 L 121 50 L 121 49 L 120 49 z M 126 49 L 126 50 L 127 50 L 127 49 L 126 49 z M 1 53 L 1 54 L 2 54 L 2 53 L 1 53 z M 7 53 L 7 54 L 8 54 L 8 53 L 7 53 z M 13 53 L 13 54 L 14 54 L 14 53 L 13 53 z M 19 53 L 19 54 L 20 54 L 20 53 L 19 53 z M 25 53 L 25 54 L 26 54 L 26 53 L 25 53 z M 32 53 L 32 54 L 33 54 L 33 53 L 32 53 z M 38 53 L 38 54 L 39 54 L 39 53 L 38 53 z M 44 53 L 44 54 L 45 54 L 45 53 L 44 53 z M 50 53 L 50 54 L 51 54 L 51 53 L 50 53 z M 56 53 L 56 54 L 57 54 L 57 53 L 56 53 z M 62 53 L 62 54 L 63 54 L 63 53 L 62 53 z M 68 53 L 68 54 L 69 54 L 69 53 L 68 53 z M 74 53 L 74 54 L 75 54 L 75 53 L 74 53 z M 80 53 L 80 54 L 81 54 L 81 53 L 80 53 z M 86 53 L 86 54 L 87 54 L 87 53 L 86 53 z M 92 53 L 92 54 L 93 54 L 93 53 L 92 53 z M 99 53 L 99 54 L 100 54 L 100 53 L 99 53 z M 105 53 L 105 54 L 106 54 L 106 53 L 105 53 z M 111 53 L 111 54 L 112 54 L 112 53 L 111 53 z M 117 53 L 117 54 L 118 54 L 118 53 L 117 53 z M 123 53 L 123 54 L 124 54 L 124 53 L 123 53 z M 4 57 L 4 58 L 5 58 L 5 57 L 4 57 z M 10 57 L 10 58 L 11 58 L 11 57 L 10 57 z M 16 57 L 16 58 L 17 58 L 17 57 L 16 57 z M 22 57 L 22 58 L 23 58 L 23 57 L 22 57 z M 28 57 L 28 58 L 29 58 L 29 57 L 28 57 z M 35 57 L 35 58 L 36 58 L 36 57 L 35 57 z M 41 57 L 41 58 L 42 58 L 42 57 L 41 57 z M 47 57 L 47 58 L 48 58 L 48 57 L 47 57 z M 53 57 L 53 58 L 54 58 L 54 57 L 53 57 z M 59 57 L 59 58 L 60 58 L 60 57 L 59 57 z M 65 57 L 65 58 L 66 58 L 66 57 L 65 57 z M 71 57 L 71 58 L 72 58 L 72 57 L 71 57 z M 77 57 L 77 58 L 78 58 L 78 57 L 77 57 z M 83 57 L 83 58 L 84 58 L 84 57 L 83 57 z M 89 57 L 89 58 L 90 58 L 90 57 L 89 57 z M 96 57 L 96 58 L 97 58 L 97 57 L 96 57 z M 102 57 L 102 58 L 103 58 L 103 57 L 102 57 z M 108 57 L 108 58 L 109 58 L 109 57 L 108 57 z M 114 57 L 114 58 L 115 58 L 115 57 L 114 57 z M 120 57 L 120 58 L 121 58 L 121 57 L 120 57 z M 126 57 L 126 58 L 127 58 L 127 57 L 126 57 z M 1 61 L 1 62 L 2 62 L 2 61 L 1 61 z M 7 61 L 7 62 L 8 62 L 8 61 L 7 61 z M 13 61 L 13 62 L 14 62 L 14 61 L 13 61 z M 19 61 L 19 62 L 20 62 L 20 61 L 19 61 z M 25 61 L 25 62 L 26 62 L 26 61 L 25 61 z M 32 61 L 32 62 L 33 62 L 33 61 L 32 61 z M 38 61 L 38 62 L 39 62 L 39 61 L 38 61 z M 44 61 L 44 62 L 45 62 L 45 61 L 44 61 z M 50 61 L 50 62 L 51 62 L 51 61 L 50 61 z M 56 61 L 56 62 L 57 62 L 57 61 L 56 61 z M 62 61 L 62 62 L 63 62 L 63 61 L 62 61 z M 68 61 L 68 62 L 69 62 L 69 61 L 68 61 z M 74 61 L 74 62 L 75 62 L 75 61 L 74 61 z M 80 61 L 80 62 L 81 62 L 81 61 L 80 61 z M 86 61 L 86 62 L 87 62 L 87 61 L 86 61 z M 92 61 L 92 62 L 93 62 L 93 61 L 92 61 z M 99 61 L 99 62 L 100 62 L 100 61 L 99 61 z M 105 61 L 105 62 L 106 62 L 106 61 L 105 61 z M 111 61 L 111 62 L 112 62 L 112 61 L 111 61 z M 117 61 L 117 62 L 118 62 L 118 61 L 117 61 z M 123 61 L 123 62 L 124 62 L 124 61 L 123 61 z M 4 66 L 4 67 L 5 67 L 5 66 L 4 66 z M 10 66 L 10 67 L 11 67 L 11 66 L 10 66 z M 16 66 L 16 67 L 17 67 L 17 66 L 16 66 z M 22 66 L 22 67 L 23 67 L 23 66 L 22 66 z M 28 66 L 28 67 L 29 67 L 29 66 L 28 66 z M 35 66 L 35 67 L 36 67 L 36 66 L 35 66 z M 41 66 L 41 67 L 42 67 L 42 66 L 41 66 z M 47 66 L 47 67 L 48 67 L 48 66 L 47 66 z M 53 66 L 53 67 L 54 67 L 54 66 L 53 66 z M 59 66 L 59 67 L 60 67 L 60 66 L 59 66 z M 65 66 L 65 67 L 66 67 L 66 66 L 65 66 z M 71 66 L 71 67 L 72 67 L 72 66 L 71 66 z M 77 66 L 77 67 L 78 67 L 78 66 L 77 66 z M 83 66 L 83 67 L 84 67 L 84 66 L 83 66 z M 89 66 L 89 67 L 90 67 L 90 66 L 89 66 z M 96 66 L 96 67 L 97 67 L 97 66 L 96 66 z M 102 66 L 102 67 L 103 67 L 103 66 L 102 66 z M 108 66 L 108 67 L 109 67 L 109 66 L 108 66 z M 114 66 L 114 67 L 115 67 L 115 66 L 114 66 z M 120 66 L 120 67 L 121 67 L 121 66 L 120 66 z M 126 66 L 126 67 L 127 67 L 127 66 L 126 66 z M 1 70 L 1 71 L 2 71 L 2 70 L 1 70 z M 7 70 L 7 71 L 8 71 L 8 70 L 7 70 z M 13 70 L 13 71 L 14 71 L 14 70 L 13 70 z M 19 70 L 19 71 L 20 71 L 20 70 L 19 70 z M 25 70 L 25 71 L 26 71 L 26 70 L 25 70 z M 32 70 L 32 71 L 33 71 L 33 70 L 32 70 z M 38 70 L 38 71 L 39 71 L 39 70 L 38 70 z M 44 70 L 44 71 L 45 71 L 45 70 L 44 70 z M 50 70 L 50 71 L 51 71 L 51 70 L 50 70 z M 56 70 L 56 71 L 57 71 L 57 70 L 56 70 z M 62 70 L 62 71 L 63 71 L 63 70 L 62 70 z M 68 70 L 68 71 L 69 71 L 69 70 L 68 70 z M 74 70 L 74 71 L 75 71 L 75 70 L 74 70 z M 80 70 L 80 71 L 81 71 L 81 70 L 80 70 z M 86 70 L 86 71 L 87 71 L 87 70 L 86 70 z M 92 70 L 92 71 L 93 71 L 93 70 L 92 70 z M 99 70 L 99 71 L 100 71 L 100 70 L 99 70 z M 105 70 L 105 71 L 106 71 L 106 70 L 105 70 z M 111 70 L 111 71 L 112 71 L 112 70 L 111 70 z M 117 70 L 117 71 L 118 71 L 118 70 L 117 70 z M 123 70 L 123 71 L 124 71 L 124 70 L 123 70 z M 4 74 L 4 75 L 5 75 L 5 74 L 4 74 z M 10 74 L 10 75 L 11 75 L 11 74 L 10 74 z M 16 74 L 16 75 L 17 75 L 17 74 L 16 74 z M 22 74 L 22 75 L 23 75 L 23 74 L 22 74 z M 28 74 L 28 75 L 29 75 L 29 74 L 28 74 z M 35 74 L 35 75 L 36 75 L 36 74 L 35 74 z M 41 74 L 41 75 L 42 75 L 42 74 L 41 74 z M 47 74 L 47 75 L 48 75 L 48 74 L 47 74 z M 53 74 L 53 75 L 54 75 L 54 74 L 53 74 z M 59 74 L 59 75 L 60 75 L 60 74 L 59 74 z M 65 74 L 65 75 L 66 75 L 66 74 L 65 74 z M 71 74 L 71 75 L 72 75 L 72 74 L 71 74 z M 77 74 L 77 75 L 78 75 L 78 74 L 77 74 z M 83 74 L 83 75 L 84 75 L 84 74 L 83 74 z M 89 74 L 89 75 L 90 75 L 90 74 L 89 74 z M 96 74 L 96 75 L 97 75 L 97 74 L 96 74 z M 102 74 L 102 75 L 103 75 L 103 74 L 102 74 z M 108 74 L 108 75 L 109 75 L 109 74 L 108 74 z M 114 74 L 114 75 L 115 75 L 115 74 L 114 74 z M 120 74 L 120 75 L 121 75 L 121 74 L 120 74 z M 126 74 L 126 75 L 127 75 L 127 74 L 126 74 z M 1 78 L 1 79 L 2 79 L 2 78 L 1 78 z M 7 78 L 7 79 L 8 79 L 8 78 L 7 78 z M 13 78 L 13 79 L 14 79 L 14 78 L 13 78 z M 19 78 L 19 79 L 20 79 L 20 78 L 19 78 z M 25 78 L 25 79 L 26 79 L 26 78 L 25 78 z M 32 78 L 32 79 L 33 79 L 33 78 L 32 78 z M 38 78 L 38 79 L 39 79 L 39 78 L 38 78 z M 44 78 L 44 79 L 45 79 L 45 78 L 44 78 z M 50 78 L 50 79 L 51 79 L 51 78 L 50 78 z M 56 78 L 56 79 L 57 79 L 57 78 L 56 78 z M 62 78 L 62 79 L 63 79 L 63 78 L 62 78 z M 68 78 L 68 79 L 69 79 L 69 78 L 68 78 z M 74 78 L 74 79 L 75 79 L 75 78 L 74 78 z M 80 78 L 80 79 L 81 79 L 81 78 L 80 78 z M 86 78 L 86 79 L 87 79 L 87 78 L 86 78 z M 92 78 L 92 79 L 93 79 L 93 78 L 92 78 z M 99 78 L 99 79 L 100 79 L 100 78 L 99 78 z M 105 78 L 105 79 L 106 79 L 106 78 L 105 78 z M 111 78 L 111 79 L 112 79 L 112 78 L 111 78 z M 117 78 L 117 79 L 118 79 L 118 78 L 117 78 z M 123 78 L 123 79 L 124 79 L 124 78 L 123 78 z M 4 83 L 4 84 L 5 84 L 5 83 L 4 83 z M 10 83 L 10 84 L 11 84 L 11 83 L 10 83 z M 16 83 L 16 84 L 17 84 L 17 83 L 16 83 z M 22 83 L 22 84 L 23 84 L 23 83 L 22 83 z M 28 83 L 28 84 L 29 84 L 29 83 L 28 83 z M 35 83 L 35 84 L 36 84 L 36 83 L 35 83 z M 41 83 L 41 84 L 42 84 L 42 83 L 41 83 z M 47 83 L 47 84 L 48 84 L 48 83 L 47 83 z M 53 83 L 53 84 L 54 84 L 54 83 L 53 83 z M 59 83 L 59 84 L 60 84 L 60 83 L 59 83 z M 65 83 L 65 84 L 66 84 L 66 83 L 65 83 z M 71 83 L 71 84 L 72 84 L 72 83 L 71 83 z M 77 83 L 77 84 L 78 84 L 78 83 L 77 83 z M 83 83 L 83 84 L 84 84 L 84 83 L 83 83 z M 89 83 L 89 84 L 90 84 L 90 83 L 89 83 z M 96 83 L 96 84 L 97 84 L 97 83 L 96 83 z M 102 83 L 102 84 L 103 84 L 103 83 L 102 83 z M 108 83 L 108 84 L 109 84 L 109 83 L 108 83 z M 114 83 L 114 84 L 115 84 L 115 83 L 114 83 z M 120 83 L 120 84 L 121 84 L 121 83 L 120 83 z M 126 83 L 126 84 L 127 84 L 127 83 L 126 83 z M 1 87 L 1 88 L 2 88 L 2 87 L 1 87 z M 7 87 L 7 88 L 8 88 L 8 87 L 7 87 z M 13 87 L 13 88 L 14 88 L 14 87 L 13 87 z M 19 87 L 19 88 L 20 88 L 20 87 L 19 87 z M 25 87 L 25 88 L 26 88 L 26 87 L 25 87 z M 32 87 L 32 88 L 33 88 L 33 87 L 32 87 z M 38 87 L 38 88 L 39 88 L 39 87 L 38 87 z M 44 87 L 44 88 L 45 88 L 45 87 L 44 87 z M 50 87 L 50 88 L 51 88 L 51 87 L 50 87 z M 56 87 L 56 88 L 57 88 L 57 87 L 56 87 z M 62 87 L 62 88 L 63 88 L 63 87 L 62 87 z M 68 87 L 68 88 L 69 88 L 69 87 L 68 87 z M 74 87 L 74 88 L 75 88 L 75 87 L 74 87 z M 80 87 L 80 88 L 81 88 L 81 87 L 80 87 z M 86 87 L 86 88 L 87 88 L 87 87 L 86 87 z M 92 87 L 92 88 L 93 88 L 93 87 L 92 87 z M 99 87 L 99 88 L 100 88 L 100 87 L 99 87 z M 105 87 L 105 88 L 106 88 L 106 87 L 105 87 z M 111 87 L 111 88 L 112 88 L 112 87 L 111 87 z M 117 87 L 117 88 L 118 88 L 118 87 L 117 87 z M 123 87 L 123 88 L 124 88 L 124 87 L 123 87 z M 4 91 L 4 92 L 5 92 L 5 91 L 4 91 z M 10 91 L 10 92 L 11 92 L 11 91 L 10 91 z M 16 91 L 16 92 L 17 92 L 17 91 L 16 91 z M 22 91 L 22 92 L 23 92 L 23 91 L 22 91 z M 28 91 L 28 92 L 29 92 L 29 91 L 28 91 z M 35 91 L 35 92 L 36 92 L 36 91 L 35 91 z M 41 91 L 41 92 L 42 92 L 42 91 L 41 91 z M 47 91 L 47 92 L 48 92 L 48 91 L 47 91 z M 53 91 L 53 92 L 54 92 L 54 91 L 53 91 z M 59 91 L 59 92 L 60 92 L 60 91 L 59 91 z M 65 91 L 65 92 L 66 92 L 66 91 L 65 91 z M 71 91 L 71 92 L 72 92 L 72 91 L 71 91 z M 77 91 L 77 92 L 78 92 L 78 91 L 77 91 z M 83 91 L 83 92 L 84 92 L 84 91 L 83 91 z M 89 91 L 89 92 L 90 92 L 90 91 L 89 91 z M 96 91 L 96 92 L 97 92 L 97 91 L 96 91 z M 102 91 L 102 92 L 103 92 L 103 91 L 102 91 z M 108 91 L 108 92 L 109 92 L 109 91 L 108 91 z M 114 91 L 114 92 L 115 92 L 115 91 L 114 91 z M 120 91 L 120 92 L 121 92 L 121 91 L 120 91 z M 126 91 L 126 92 L 127 92 L 127 91 L 126 91 z M 1 96 L 1 97 L 2 97 L 2 96 L 1 96 z M 7 96 L 7 97 L 8 97 L 8 96 L 7 96 z M 13 96 L 13 97 L 14 97 L 14 96 L 13 96 z M 19 96 L 19 97 L 20 97 L 20 96 L 19 96 z M 25 96 L 25 97 L 26 97 L 26 96 L 25 96 z M 32 96 L 32 97 L 33 97 L 33 96 L 32 96 z M 38 96 L 38 97 L 39 97 L 39 96 L 38 96 z M 44 96 L 44 97 L 45 97 L 45 96 L 44 96 z M 50 96 L 50 97 L 51 97 L 51 96 L 50 96 z M 56 96 L 56 97 L 57 97 L 57 96 L 56 96 z M 62 96 L 62 97 L 63 97 L 63 96 L 62 96 z M 68 96 L 68 97 L 69 97 L 69 96 L 68 96 z M 74 96 L 74 97 L 75 97 L 75 96 L 74 96 z M 80 96 L 80 97 L 81 97 L 81 96 L 80 96 z M 86 96 L 86 97 L 87 97 L 87 96 L 86 96 z M 92 96 L 92 97 L 93 97 L 93 96 L 92 96 z M 99 96 L 99 97 L 100 97 L 100 96 L 99 96 z M 105 96 L 105 97 L 106 97 L 106 96 L 105 96 z M 111 96 L 111 97 L 112 97 L 112 96 L 111 96 z M 117 96 L 117 97 L 118 97 L 118 96 L 117 96 z M 123 96 L 123 97 L 124 97 L 124 96 L 123 96 z M 4 100 L 4 101 L 5 101 L 5 100 L 4 100 z M 10 100 L 10 101 L 11 101 L 11 100 L 10 100 z M 16 100 L 16 101 L 17 101 L 17 100 L 16 100 z M 22 100 L 22 101 L 23 101 L 23 100 L 22 100 z M 28 100 L 28 101 L 29 101 L 29 100 L 28 100 z M 35 100 L 35 101 L 36 101 L 36 100 L 35 100 z M 41 100 L 41 101 L 42 101 L 42 100 L 41 100 z M 47 100 L 47 101 L 48 101 L 48 100 L 47 100 z M 53 100 L 53 101 L 54 101 L 54 100 L 53 100 z M 59 100 L 59 101 L 60 101 L 60 100 L 59 100 z M 65 100 L 65 101 L 66 101 L 66 100 L 65 100 z M 71 100 L 71 101 L 72 101 L 72 100 L 71 100 z M 77 100 L 77 101 L 78 101 L 78 100 L 77 100 z M 83 100 L 83 101 L 84 101 L 84 100 L 83 100 z M 89 100 L 89 101 L 90 101 L 90 100 L 89 100 z M 96 100 L 96 101 L 97 101 L 97 100 L 96 100 z M 102 100 L 102 101 L 103 101 L 103 100 L 102 100 z M 108 100 L 108 101 L 109 101 L 109 100 L 108 100 z M 114 100 L 114 101 L 115 101 L 115 100 L 114 100 z M 120 100 L 120 101 L 121 101 L 121 100 L 120 100 z M 126 100 L 126 101 L 127 101 L 127 100 L 126 100 z M 1 104 L 1 105 L 2 105 L 2 104 L 1 104 z M 7 104 L 7 105 L 8 105 L 8 104 L 7 104 z M 13 104 L 13 105 L 14 105 L 14 104 L 13 104 z M 19 104 L 19 105 L 20 105 L 20 104 L 19 104 z M 25 104 L 25 105 L 26 105 L 26 104 L 25 104 z M 32 104 L 32 105 L 33 105 L 33 104 L 32 104 z M 38 104 L 38 105 L 39 105 L 39 104 L 38 104 z M 44 104 L 44 105 L 45 105 L 45 104 L 44 104 z M 50 104 L 50 105 L 51 105 L 51 104 L 50 104 z M 56 104 L 56 105 L 57 105 L 57 104 L 56 104 z M 62 104 L 62 105 L 63 105 L 63 104 L 62 104 z M 68 104 L 68 105 L 69 105 L 69 104 L 68 104 z M 74 104 L 74 105 L 75 105 L 75 104 L 74 104 z M 80 104 L 80 105 L 81 105 L 81 104 L 80 104 z M 86 104 L 86 105 L 87 105 L 87 104 L 86 104 z M 92 104 L 92 105 L 93 105 L 93 104 L 92 104 z M 99 104 L 99 105 L 100 105 L 100 104 L 99 104 z M 105 104 L 105 105 L 106 105 L 106 104 L 105 104 z M 111 104 L 111 105 L 112 105 L 112 104 L 111 104 z M 117 104 L 117 105 L 118 105 L 118 104 L 117 104 z M 123 104 L 123 105 L 124 105 L 124 104 L 123 104 z M 4 108 L 4 109 L 5 109 L 5 108 L 4 108 z M 10 108 L 10 109 L 11 109 L 11 108 L 10 108 z M 16 108 L 16 109 L 17 109 L 17 108 L 16 108 z M 22 108 L 22 109 L 23 109 L 23 108 L 22 108 z M 28 108 L 28 109 L 29 109 L 29 108 L 28 108 z M 35 108 L 35 109 L 36 109 L 36 108 L 35 108 z M 41 108 L 41 109 L 42 109 L 42 108 L 41 108 z M 47 108 L 47 109 L 48 109 L 48 108 L 47 108 z M 53 108 L 53 109 L 54 109 L 54 108 L 53 108 z M 59 108 L 59 109 L 60 109 L 60 108 L 59 108 z M 65 108 L 65 109 L 66 109 L 66 108 L 65 108 z M 71 108 L 71 109 L 72 109 L 72 108 L 71 108 z M 77 108 L 77 109 L 78 109 L 78 108 L 77 108 z M 83 108 L 83 109 L 84 109 L 84 108 L 83 108 z M 89 108 L 89 109 L 90 109 L 90 108 L 89 108 z M 96 108 L 96 109 L 97 109 L 97 108 L 96 108 z M 102 108 L 102 109 L 103 109 L 103 108 L 102 108 z M 108 108 L 108 109 L 109 109 L 109 108 L 108 108 z M 114 108 L 114 109 L 115 109 L 115 108 L 114 108 z M 120 108 L 120 109 L 121 109 L 121 108 L 120 108 z M 126 108 L 126 109 L 127 109 L 127 108 L 126 108 z M 1 113 L 1 114 L 2 114 L 2 113 L 1 113 z M 7 113 L 7 114 L 8 114 L 8 113 L 7 113 z M 13 113 L 13 114 L 14 114 L 14 113 L 13 113 z M 19 113 L 19 114 L 20 114 L 20 113 L 19 113 z M 25 113 L 25 114 L 26 114 L 26 113 L 25 113 z M 32 113 L 32 114 L 33 114 L 33 113 L 32 113 z M 38 113 L 38 114 L 39 114 L 39 113 L 38 113 z M 44 113 L 44 114 L 45 114 L 45 113 L 44 113 z M 50 113 L 50 114 L 51 114 L 51 113 L 50 113 z M 56 113 L 56 114 L 57 114 L 57 113 L 56 113 z M 62 113 L 62 114 L 63 114 L 63 113 L 62 113 z M 68 113 L 68 114 L 69 114 L 69 113 L 68 113 z M 74 113 L 74 114 L 75 114 L 75 113 L 74 113 z M 80 113 L 80 114 L 81 114 L 81 113 L 80 113 z M 86 113 L 86 114 L 87 114 L 87 113 L 86 113 z M 92 113 L 92 114 L 93 114 L 93 113 L 92 113 z M 99 113 L 99 114 L 100 114 L 100 113 L 99 113 z M 105 113 L 105 114 L 106 114 L 106 113 L 105 113 z M 111 113 L 111 114 L 112 114 L 112 113 L 111 113 z M 117 113 L 117 114 L 118 114 L 118 113 L 117 113 z M 123 113 L 123 114 L 124 114 L 124 113 L 123 113 z M 4 117 L 4 118 L 5 118 L 5 117 L 4 117 z M 10 117 L 10 118 L 11 118 L 11 117 L 10 117 z M 16 117 L 16 118 L 17 118 L 17 117 L 16 117 z M 22 117 L 22 118 L 23 118 L 23 117 L 22 117 z M 28 117 L 28 118 L 29 118 L 29 117 L 28 117 z M 35 117 L 35 118 L 36 118 L 36 117 L 35 117 z M 41 117 L 41 118 L 42 118 L 42 117 L 41 117 z M 47 117 L 47 118 L 48 118 L 48 117 L 47 117 z M 53 117 L 53 118 L 54 118 L 54 117 L 53 117 z M 59 117 L 59 118 L 60 118 L 60 117 L 59 117 z M 65 117 L 65 118 L 66 118 L 66 117 L 65 117 z M 71 117 L 71 118 L 72 118 L 72 117 L 71 117 z M 77 117 L 77 118 L 78 118 L 78 117 L 77 117 z M 83 117 L 83 118 L 84 118 L 84 117 L 83 117 z M 89 117 L 89 118 L 90 118 L 90 117 L 89 117 z M 96 117 L 96 118 L 97 118 L 97 117 L 96 117 z M 102 117 L 102 118 L 103 118 L 103 117 L 102 117 z M 108 117 L 108 118 L 109 118 L 109 117 L 108 117 z M 114 117 L 114 118 L 115 118 L 115 117 L 114 117 z M 120 117 L 120 118 L 121 118 L 121 117 L 120 117 z M 126 117 L 126 118 L 127 118 L 127 117 L 126 117 z M 1 121 L 1 122 L 2 122 L 2 121 L 1 121 z M 7 121 L 7 122 L 8 122 L 8 121 L 7 121 z M 13 121 L 13 122 L 14 122 L 14 121 L 13 121 z M 19 121 L 19 122 L 20 122 L 20 121 L 19 121 z M 25 121 L 25 122 L 26 122 L 26 121 L 25 121 z M 32 121 L 32 122 L 33 122 L 33 121 L 32 121 z M 38 121 L 38 122 L 39 122 L 39 121 L 38 121 z M 44 121 L 44 122 L 45 122 L 45 121 L 44 121 z M 50 121 L 50 122 L 51 122 L 51 121 L 50 121 z M 56 121 L 56 122 L 57 122 L 57 121 L 56 121 z M 62 121 L 62 122 L 63 122 L 63 121 L 62 121 z M 68 121 L 68 122 L 69 122 L 69 121 L 68 121 z M 74 121 L 74 122 L 75 122 L 75 121 L 74 121 z M 80 121 L 80 122 L 81 122 L 81 121 L 80 121 z M 86 121 L 86 122 L 87 122 L 87 121 L 86 121 z M 92 121 L 92 122 L 93 122 L 93 121 L 92 121 z M 99 121 L 99 122 L 100 122 L 100 121 L 99 121 z M 105 121 L 105 122 L 106 122 L 106 121 L 105 121 z M 111 121 L 111 122 L 112 122 L 112 121 L 111 121 z M 117 121 L 117 122 L 118 122 L 118 121 L 117 121 z M 123 121 L 123 122 L 124 122 L 124 121 L 123 121 z M 4 125 L 4 126 L 5 126 L 5 125 L 4 125 z M 10 125 L 10 126 L 11 126 L 11 125 L 10 125 z M 16 125 L 16 126 L 17 126 L 17 125 L 16 125 z M 22 125 L 22 126 L 23 126 L 23 125 L 22 125 z M 28 125 L 28 126 L 29 126 L 29 125 L 28 125 z M 35 125 L 35 126 L 36 126 L 36 125 L 35 125 z M 41 125 L 41 126 L 42 126 L 42 125 L 41 125 z M 47 125 L 47 126 L 48 126 L 48 125 L 47 125 z M 53 125 L 53 126 L 54 126 L 54 125 L 53 125 z M 59 125 L 59 126 L 60 126 L 60 125 L 59 125 z M 65 125 L 65 126 L 66 126 L 66 125 L 65 125 z M 71 125 L 71 126 L 72 126 L 72 125 L 71 125 z M 77 125 L 77 126 L 78 126 L 78 125 L 77 125 z M 83 125 L 83 126 L 84 126 L 84 125 L 83 125 z M 89 125 L 89 126 L 90 126 L 90 125 L 89 125 z M 96 125 L 96 126 L 97 126 L 97 125 L 96 125 z M 102 125 L 102 126 L 103 126 L 103 125 L 102 125 z M 108 125 L 108 126 L 109 126 L 109 125 L 108 125 z M 114 125 L 114 126 L 115 126 L 115 125 L 114 125 z M 120 125 L 120 126 L 121 126 L 121 125 L 120 125 z M 126 125 L 126 126 L 127 126 L 127 125 L 126 125 z "
     style="fill:#749d6c;stroke-width:0.125" />
  <rect
     style="fill:none;fill-opacity:1;stroke:none"
     id="rect8566"
     y="0"
     x="0"
     rx="0"
     height="128"
     width="128" />
  <desc
     id="desc3021">Created with Snap</desc>
</svg>
