<?xml version="1.0" encoding="UTF-8" standalone="no"?>
<!-- Created with Inkscape (http://www.inkscape.org/) -->

<svg
   xmlns:dc="http://purl.org/dc/elements/1.1/"
   xmlns:cc="http://creativecommons.org/ns#"
   xmlns:rdf="http://www.w3.org/1999/02/22-rdf-syntax-ns#"
   xmlns:svg="http://www.w3.org/2000/svg"
   xmlns="http://www.w3.org/2000/svg"
   version="1.1"
   width="100%"
   height="100%"
   viewBox="0 0 16 16"
   id="svg2">
  <path
     d="M 4.40625,2 C 3.65262,2.0471927 2.9985239,2.7448953 3,3.5 3.0002867,4.2852156 3.7147844,4.9994517 4.5,4.9994517 5.2852156,4.9994517 5.9997133,4.2852156 6,3.5 6.0015986,2.6823545 5.2222984,1.9488955 4.40625,2 z m 8,3 C 11.65262,5.0471927 10.998524,5.7448953 11,6.5 c 2.87e-4,0.7852156 0.714784,1.4994517 1.5,1.4994517 0.785216,0 1.499713,-0.7142361 1.5,-1.4994517 C 14.001599,5.6823545 13.222298,4.9488956 12.40625,5 z M 4,5.5 C 2.5290102,5.5 2.1341648,7.3734067 2.03125,8.375 L 1,8 1,9 6.96875,11.125 6,15 10,15 9.0625,11.875 15,14 15,13 14.0625,12.65625 C 14.226562,11.794922 14.75,8.5 13,8.5 c -1.638462,0 -1.915209,2.244501 -1.96875,3.09375 l -5.9375,-2.125 C 5.2850122,8.3375305 5.614,5.5 4,5.5 z"
     id="path4885"
     style="fill:#1a1a1a;fill-opacity:1;stroke:none" />
</svg>
