<?xml version="1.0" encoding="utf-8"?>
<!-- Generator: Adobe Illustrator 14.0.0, SVG Export Plug-In . SVG Version: 6.00 Build 43363)  -->
<!DOCTYPE svg PUBLIC "-//W3C//DTD SVG 1.1//EN" "http://www.w3.org/Graphics/SVG/1.1/DTD/svg11.dtd">
<svg version="1.1"
	 id="svg2" xmlns:rdf="http://www.w3.org/1999/02/22-rdf-syntax-ns#" sodipodi:docname="amenity_playground.svg" inkscape:version="0.47 r22583" xmlns:svg="http://www.w3.org/2000/svg" xmlns:sodipodi="http://sodipodi.sourceforge.net/DTD/sodipodi-0.dtd" xmlns:inkscape="http://www.inkscape.org/namespaces/inkscape" xmlns:dc="http://purl.org/dc/elements/1.1/" sodipodi:version="0.32" xmlns:cc="http://creativecommons.org/ns#" inkscape:output_extension="org.inkscape.output.svg.inkscape" inkscape:export-ydpi="2.4790845" inkscape:export-xdpi="2.4790845" inkscape:export-filename="C:\Users\peter\OSM\Entwürfe\amenity_playground.png"
	 xmlns="http://www.w3.org/2000/svg" xmlns:xlink="http://www.w3.org/1999/xlink" x="0px" y="0px" width="580px" height="580px"
	 viewBox="0 0 580 580" enable-background="new 0 0 580 580" xml:space="preserve">
<sodipodi:namedview  showgrid="false" inkscape:current-layer="svg2" inkscape:window-y="24" inkscape:window-x="0" inkscape:cy="290" inkscape:cx="311.82729" inkscape:zoom="0.57" pagecolor="#ffffff" bordercolor="#666666" borderopacity="1.0" objecttolerance="10.0" gridtolerance="10.0" guidetolerance="10.0" inkscape:window-height="888" inkscape:window-width="1151" inkscape:pageshadow="2" inkscape:pageopacity="0.0" inkscape:window-maximized="0" id="base">
	</sodipodi:namedview>
<defs>
	
	
		<inkscape:perspective  inkscape:persp3d-origin="290 : 193.33333 : 1" inkscape:vp_z="580 : 290 : 1" inkscape:vp_y="0 : 1000 : 0" inkscape:vp_x="0 : 290 : 1" sodipodi:type="inkscape:persp3d" id="perspective12">
		</inkscape:perspective>
	
		<inkscape:perspective  inkscape:persp3d-origin="16 : 10.666667 : 1" inkscape:vp_z="32 : 16 : 1" inkscape:vp_y="0 : 1000 : 0" inkscape:vp_x="0 : 16 : 1" sodipodi:type="inkscape:persp3d" id="perspective2539">
		</inkscape:perspective>
	
		<inkscape:perspective  inkscape:persp3d-origin="0.5 : 0.33333333 : 1" inkscape:vp_z="1 : 0.5 : 1" inkscape:vp_y="0 : 1000 : 0" inkscape:vp_x="0 : 0.5 : 1" sodipodi:type="inkscape:persp3d" id="perspective18697">
		</inkscape:perspective>
	
		<inkscape:perspective  inkscape:persp3d-origin="0.5 : 0.33333333 : 1" inkscape:vp_z="1 : 0.5 : 1" inkscape:vp_y="0 : 1000 : 0" inkscape:vp_x="0 : 0.5 : 1" sodipodi:type="inkscape:persp3d" id="perspective18782">
		</inkscape:perspective>
	
		<inkscape:perspective  inkscape:persp3d-origin="0.5 : 0.33333333 : 1" inkscape:vp_z="1 : 0.5 : 1" inkscape:vp_y="0 : 1000 : 0" inkscape:vp_x="0 : 0.5 : 1" sodipodi:type="inkscape:persp3d" id="perspective2832">
		</inkscape:perspective>
	
		<inkscape:perspective  inkscape:persp3d-origin="0.5 : 0.33333333 : 1" inkscape:vp_z="1 : 0.5 : 1" inkscape:vp_y="0 : 1000 : 0" inkscape:vp_x="0 : 0.5 : 1" sodipodi:type="inkscape:persp3d" id="perspective2832-1">
		</inkscape:perspective>
</defs>
<path id="path2383" fill="#FFFFFF" stroke="#754C24" stroke-width="1.0806" stroke-linecap="round" stroke-miterlimit="1.1" d="
	M282.708,275.711l15.885,2.993"/>
<path id="path2385" fill="#754C24" stroke="#754C24" stroke-width="0.0633" d="M290.65,277.304l-1.675,3.359h3.35L290.65,277.304z"
	/>
<g id="g3185" transform="matrix(2.1357106,0.90429401,-0.84164613,2.2946826,-206.63356,-1194.9871)">
	<path id="path3181" fill="#754C24" stroke="#754C24" stroke-width="0.0418" d="M417.575,475.079
		c-0.286,0.056-0.691,1.507-0.691,1.507l1.104-0.164c0,0-0.146,0.48-0.274,0.836c-0.08,0.222,0.174,0.289,0.306,0.042
		c0.245-0.456,0.431-0.959,0.431-0.959S417.877,475.02,417.575,475.079L417.575,475.079z"/>
	<path id="path3183" fill="#754C24" stroke="#754C24" stroke-width="0.1847" d="M417.447,474.505
		c-0.051,0.212,0.105,0.4,0.348,0.419c0.243,0.019,0.48-0.137,0.53-0.349c0.051-0.212-0.105-0.4-0.348-0.419
		C417.735,474.136,417.498,474.293,417.447,474.505z"/>
</g>
<g id="g3193" transform="matrix(-2.3075369,-0.23175279,-0.36219803,2.4172678,1457.3558,-786.99777)">
	<path id="path3195" fill="#754C24" stroke="#754C24" stroke-width="0.0418" d="M427.204,480.392c-0.286,0.05-0.66,1.485-0.66,1.485
		l1.107-0.142c0,0-0.135,0.474-0.256,0.826c-0.076,0.219,0.182,0.291,0.309,0.048c0.236-0.449,0.411-0.946,0.411-0.946
		S427.507,480.339,427.204,480.392L427.204,480.392z"/>
	<path id="path3197" fill="#754C24" stroke="#754C24" stroke-width="0.1847" d="M427.063,479.818c-0.046,0.21,0.115,0.4,0.359,0.424
		c0.244,0.024,0.48-0.127,0.525-0.337c0.046-0.21-0.115-0.4-0.359-0.424S427.108,479.608,427.063,479.818z"/>
</g>
</svg>
