<?xml version="1.0" encoding="UTF-8" standalone="no"?>
<!-- Created with Inkscape (http://www.inkscape.org/) -->

<svg
   xmlns:dc="http://purl.org/dc/elements/1.1/"
   xmlns:cc="http://creativecommons.org/ns#"
   xmlns:rdf="http://www.w3.org/1999/02/22-rdf-syntax-ns#"
   xmlns:svg="http://www.w3.org/2000/svg"
   xmlns="http://www.w3.org/2000/svg"
   version="1.1"
   width="100%"
   height="100%"
   viewBox="0 0 18 18"
   id="svg2">
  <metadata
     id="metadata8">
    <rdf:RDF>
      <cc:Work
         rdf:about="">
        <dc:format>image/svg+xml</dc:format>
        <dc:type
           rdf:resource="http://purl.org/dc/dcmitype/StillImage" />
        <dc:title></dc:title>
      </cc:Work>
    </rdf:RDF>
  </metadata>
  <defs
     id="defs6" />
  <rect
     width="18"
     height="18"
     x="0"
     y="0"
     id="canvas"
     style="fill:none;stroke:none;visibility:hidden" />
  <g
     id="playground">
    <path
       d="M 5.40625,3 C 4.65262,3.0471927 3.9985239,3.7448953 4,4.5 4.0002867,5.2852156 4.7147844,5.9994517 5.5,5.9994517 6.2852156,5.9994517 6.9997133,5.2852156 7,4.5 7.0015986,3.6823545 6.2222984,2.9488955 5.40625,3 z m 8,3 C 12.65262,6.0471927 11.998524,6.7448953 12,7.5 c 2.87e-4,0.7852156 0.714784,1.4994517 1.5,1.4994517 0.785216,0 1.499713,-0.7142361 1.5,-1.4994517 C 15.001599,6.6823545 14.222298,5.9488956 13.40625,6 z M 5,6.5 C 3.5290102,6.5 3.1341648,8.3734067 3.03125,9.375 L 2,9 2,10 7.96875,12.125 7,16 11,16 10.0625,12.875 16,15 16,14 15.0625,13.65625 C 15.226562,12.794922 15.75,9.5 14,9.5 c -1.638462,0 -1.915209,2.244501 -1.96875,3.09375 l -5.9375,-2.125 C 6.2850122,9.337531 6.614,6.5 5,6.5 z"
       id="halo"
       style="opacity:0.3;fill:#ffffff;fill-opacity:1;stroke:#ffffff;stroke-width:2;stroke-miterlimit:4;stroke-opacity:1;stroke-dasharray:none" />
    <path
       d="M 5.40625,3 C 4.65262,3.047193 3.998524,3.7448953 4,4.5 4.000287,5.2852156 4.714784,5.9994517 5.5,5.9994517 6.285216,5.9994517 6.999713,5.2852156 7,4.5 7.0016,3.6823545 6.222298,2.9488955 5.40625,3 z m 8,3 C 12.65262,6.0471927 11.998524,6.7448953 12,7.5 c 2.87e-4,0.7852156 0.714784,1.4994517 1.5,1.4994517 0.785216,0 1.499713,-0.7142361 1.5,-1.4994517 C 15.001599,6.6823545 14.222298,5.9488956 13.40625,6 z M 5,6.5 C 3.52901,6.5 3.134165,8.3734067 3.03125,9.375 L 2,9 2,10 7.96875,12.125 7,16 11,16 10.0625,12.875 16,15 16,14 15.0625,13.65625 C 15.226562,12.794922 15.75,9.5 14,9.5 c -1.638462,0 -1.915209,2.244501 -1.96875,3.09375 l -5.9375,-2.125 C 6.285012,9.337531 6.614,6.5 5,6.5 z"
       id="icon"
       style="fill:#1a1a1a;fill-opacity:1;stroke:none" />
  </g>
</svg>
