<?xml version="1.0" encoding="UTF-8" standalone="no"?>
<!-- Created with Inkscape (http://www.inkscape.org/) -->

<svg
   xmlns="http://www.w3.org/2000/svg"
   version="1.1"
   width="100%"
   height="100%"
   viewBox="0 0 16 16">
  <path
     d="M 6,1 5,2 5,3 11,3 11,2 10,1 z M 5,4 C 4.9667,4.168726 5,4.3395259 5,4.5185186 5,5.9503556 6.61931,7 8,7 9.38069,7 11,5.9503556 11,4.5185186 11,4.3395259 11,4 11,4 z M 5,8 C 3.5810939,8 3.01415,9.876578 3,11 L 3,15 4.53125,15 10,8 z M 11.5,8 6.03125,15 13,15 13,11 C 13,9.8764743 12.727158,8 11.5,8 z" />
</svg>
