<?xml version="1.0" encoding="utf-8"?>
<!-- Generator: Adobe Illustrator 14.0.0, SVG Export Plug-In . SVG Version: 6.00 Build 43363)  -->
<!DOCTYPE svg PUBLIC "-//W3C//DTD SVG 1.1//EN" "http://www.w3.org/Graphics/SVG/1.1/DTD/svg11.dtd">
<svg version="1.1"
	 id="svg2" xmlns:rdf="http://www.w3.org/1999/02/22-rdf-syntax-ns#" sodipodi:docname="amenity_police2.svg" inkscape:version="0.47 r22583" xmlns:svg="http://www.w3.org/2000/svg" xmlns:sodipodi="http://sodipodi.sourceforge.net/DTD/sodipodi-0.dtd" xmlns:inkscape="http://www.inkscape.org/namespaces/inkscape" xmlns:dc="http://purl.org/dc/elements/1.1/" sodipodi:version="0.32" xmlns:cc="http://creativecommons.org/ns#" inkscape:output_extension="org.inkscape.output.svg.inkscape"
	 xmlns="http://www.w3.org/2000/svg" xmlns:xlink="http://www.w3.org/1999/xlink" x="0px" y="0px" width="580px" height="580px"
	 viewBox="0 0 580 580" enable-background="new 0 0 580 580" xml:space="preserve">
<sodipodi:namedview  showgrid="false" inkscape:current-layer="svg2" inkscape:window-y="0" inkscape:window-x="1280" inkscape:cy="266.79381" inkscape:cx="212.86205" inkscape:zoom="0.79627887" pagecolor="#ffffff" bordercolor="#666666" borderopacity="1.0" objecttolerance="10.0" gridtolerance="10.0" guidetolerance="10.0" inkscape:window-height="949" inkscape:window-width="1280" inkscape:pageshadow="2" inkscape:pageopacity="0.0" inkscape:window-maximized="1" id="base">
	</sodipodi:namedview>
<defs>
	
	
		<inkscape:perspective  inkscape:persp3d-origin="290 : 193.33333 : 1" inkscape:vp_z="580 : 290 : 1" inkscape:vp_y="0 : 1000 : 0" inkscape:vp_x="0 : 290 : 1" sodipodi:type="inkscape:persp3d" id="perspective3653">
		</inkscape:perspective>
	
		<inkscape:perspective  inkscape:persp3d-origin="177.51199 : 145.02 : 1" inkscape:vp_z="355.02399 : 217.53 : 1" inkscape:vp_y="0 : 1000 : 0" inkscape:vp_x="0 : 217.53 : 1" sodipodi:type="inkscape:persp3d" id="perspective2512">
		</inkscape:perspective>
	
		<inkscape:perspective  inkscape:persp3d-origin="372.04724 : 350.78739 : 1" inkscape:vp_z="744.09448 : 526.18109 : 1" inkscape:vp_y="0 : 1000 : 0" inkscape:vp_x="0 : 526.18109 : 1" sodipodi:type="inkscape:persp3d" id="perspective3305">
		</inkscape:perspective>
	
		<inkscape:perspective  inkscape:persp3d-origin="372.04724 : 350.78739 : 1" inkscape:vp_z="744.09448 : 526.18109 : 1" inkscape:vp_y="0 : 1000 : 0" inkscape:vp_x="0 : 526.18109 : 1" sodipodi:type="inkscape:persp3d" id="perspective3354">
		</inkscape:perspective>
</defs>
<path id="rect3389" sodipodi:nodetypes="cccccccccczzzz" fill="#754C24" d="M290.804,288.333c0.037,0.292,0.279,0.508,0.532,0.476
	l0.243-0.031c0.253-0.032,0.433-0.302,0.396-0.594l-0.128-0.995c-0.037-0.292-0.279-0.508-0.532-0.476l-0.243,0.031
	c-0.253,0.032-0.433,0.302-0.395,0.594L290.804,288.333z M291.276,288.262c-0.13-0.116-0.222-0.828-0.125-0.973
	c0.097-0.145,0.094-0.145,0.224-0.029c0.13,0.116,0.221,0.828,0.124,0.973S291.406,288.377,291.276,288.262L291.276,288.262z"/>
<path id="path3395" sodipodi:nodetypes="cccccccccczzzz" fill="#754C24" d="M293.489,285.548c0.251,0.18,0.585,0.161,0.734-0.041
	l0.144-0.194c0.148-0.202,0.064-0.52-0.187-0.699L293.324,284c-0.251-0.18-0.585-0.161-0.734,0.041l-0.144,0.194
	c-0.149,0.202-0.064,0.52,0.187,0.7L293.489,285.548z M293.759,285.163c-0.179,0.01-0.791-0.429-0.837-0.599
	c-0.045-0.171-0.047-0.168,0.132-0.178c0.18-0.01,0.792,0.428,0.837,0.599C293.937,285.155,293.938,285.153,293.759,285.163z"/>
<path id="path3397" sodipodi:nodetypes="cccccccccczzzz" fill="#754C24" d="M292.696,284.81c0.293-0.025,0.52-0.258,0.497-0.512
	l-0.012,0.232c-0.021-0.254-0.284-0.445-0.577-0.419l-1,0.086c-0.293,0.025-0.519,0.258-0.497,0.512l0.012-0.232
	c0.022,0.254,0.284,0.445,0.577,0.42L292.696,284.81z M292.645,284.335c-0.121,0.125-0.837,0.187-0.978,0.084
	s-0.132,0.377-0.01,0.252c0.121-0.125,0.836-0.187,0.977-0.084S292.766,284.21,292.645,284.335L292.645,284.335z"/>
<path id="path3534" sodipodi:nodetypes="cccccccccczzzz" fill="#603813" d="M291.753,285.031c0.185-0.247,0.173-0.581-0.025-0.734
	l-0.191-0.147c-0.198-0.153-0.519-0.075-0.703,0.172l-0.631,0.844c-0.185,0.247-0.173,0.581,0.025,0.734l0.191,0.147
	c0.198,0.153,0.519,0.075,0.703-0.172L291.753,285.031z M291.373,284.754c0.007,0.179-0.444,0.782-0.616,0.824
	s-0.169,0.043-0.175-0.136c-0.007-0.179,0.444-0.782,0.616-0.824C291.369,284.576,291.367,284.574,291.373,284.754L291.373,284.754z
	"/>
<path id="path3536" sodipodi:nodetypes="cccccccccczzzz" fill="#754C24" d="M290.79,286.984c0.098,0.278,0.379,0.438,0.62,0.354
	l-0.229,0.046c0.241-0.084,0.36-0.386,0.263-0.664l-0.332-0.947c-0.098-0.277-0.379-0.438-0.62-0.354l0.228-0.046
	c-0.241,0.084-0.36,0.386-0.263,0.664L290.79,286.984L290.79,286.984z M291.237,286.815c-0.151-0.086-0.39-0.763-0.325-0.925
	c0.064-0.162-0.397-0.033-0.246,0.053c0.15,0.086,0.389,0.764,0.324,0.926C290.926,287.03,291.388,286.901,291.237,286.815z"/>
<g id="g3540" transform="matrix(0.74204582,0,0,0.74204582,67.476143,46.031302)">
	<g id="g3490" transform="matrix(1.0907181,-0.2914957,0.2914957,1.0907181,-98.8285,72.452649)">
		<g id="g3500" transform="matrix(0.9826633,-0.1853992,0.1853992,0.9826633,-60.17152,31.061258)">
			<path id="path3313" sodipodi:nodetypes="cccsszzzssc" fill="#754C24" d="M284.724,337.091c-0.25,0.02-0.373,0.456-0.429,0.69
				c-0.026,0.388,0.322,1.051,0.509,1.011c1.344,0,2.179,0.915,2.178,2.259c0,1.344-0.895,2.318-2.238,2.318
				c-0.535-0.001-0.807-0.476-1.339-0.391c-0.517,0.083-0.781,0.322-0.933,0.597c-0.16,0.29-0.327,0.754,0.203,1.158
				c0.544,0.414,1.031,0.454,1.75,0.454c2.231-0.001,4.195-1.905,4.196-4.137C288.621,338.819,286.956,337.091,284.724,337.091
				L284.724,337.091z"/>
			<path id="path3325" sodipodi:nodetypes="csccssccc" opacity="0.8" fill="#754C24" enable-background="new    " d="
				M284.564,337.19c-2.125,0-3.864,1.736-3.864,3.861c0,1.563,0.781,3.034,2.125,3.64l0.878-1.527
				c-0.994-0.191-1.514-0.84-1.514-2.034c0-1.45,1.007-2.572,2.457-2.573c0.404,0,0.552,0.163,0.959,0.31l0.374-1.407
				C285.54,337.286,285.063,337.19,284.564,337.19L284.564,337.19z"/>
			<path id="path3374" sodipodi:nodetypes="ccsccscc" fill="#754C24" d="M285.345,339.318l0.503,0.353
				c1.004,0.765,1.629,0.722,2.233-0.123c0.602-0.845-0.642-2.725-0.642-2.725l-0.018-0.013c0,0-2.182-0.565-2.785,0.279
				c-0.603,0.845-0.44,1.45,0.61,2.151l0.497,0.36"/>
		</g>
	</g>
	
		<path id="path3538" sodipodi:type="arc" sodipodi:ry="35.163559" sodipodi:rx="35.163559" sodipodi:cy="514.0683" sodipodi:cx="151.95682" fill="#754C24" d="
		M302.198,335.473c0,0.641-0.52,1.161-1.161,1.161c-0.641,0-1.161-0.52-1.161-1.161c0-0.641,0.52-1.159,1.161-1.159
		C301.678,334.314,302.198,334.832,302.198,335.473z"/>
</g>
<g id="g3548" transform="matrix(-0.54186052,0.50697067,0.50697067,0.54186052,241.93057,-91.527701)">
	<g id="g3550" transform="matrix(1.0907181,-0.2914957,0.2914957,1.0907181,-98.8285,72.452649)">
		<g id="g3552" transform="matrix(0.9826633,-0.1853992,0.1853992,0.9826633,-60.17152,31.061258)">
			<path id="path3554" sodipodi:nodetypes="cccsszzzssc" fill="#754C24" d="M244.625,408.132c-0.25,0.02-0.374,0.456-0.428,0.691
				c-0.027,0.387,0.322,1.051,0.508,1.011c1.344,0,2.179,0.915,2.178,2.258c0,1.344-0.895,2.319-2.238,2.319
				c-0.535,0-0.808-0.475-1.34-0.39c-0.518,0.083-0.781,0.322-0.933,0.596c-0.159,0.29-0.327,0.755,0.203,1.158
				c0.544,0.414,1.032,0.453,1.75,0.453c2.231,0,4.196-1.904,4.196-4.136C248.523,409.861,246.857,408.132,244.625,408.132
				L244.625,408.132z"/>
			<path id="path3556" sodipodi:nodetypes="csccssccc" opacity="0.8" fill="#754C24" enable-background="new    " d="
				M244.466,408.231c-2.125,0-3.864,1.736-3.865,3.861c0,1.563,0.782,3.033,2.126,3.639l0.878-1.527
				c-0.994-0.191-1.515-0.84-1.514-2.034c0-1.45,1.006-2.572,2.456-2.572c0.403,0,0.552,0.162,0.959,0.311l0.374-1.408
				C245.442,408.327,244.964,408.231,244.466,408.231z"/>
			<path id="path3558" sodipodi:nodetypes="ccsccscc" fill="#754C24" d="M245.247,410.359l0.503,0.353
				c1.003,0.766,1.629,0.721,2.232-0.123s-0.641-2.724-0.641-2.724l-0.019-0.013c0,0-2.183-0.565-2.785,0.28
				c-0.602,0.844-0.441,1.45,0.61,2.151l0.497,0.361"/>
		</g>
	</g>
	
		<path id="path3560" sodipodi:type="arc" sodipodi:ry="35.163559" sodipodi:rx="35.163559" sodipodi:cy="514.0683" sodipodi:cx="151.95682" fill="#754C24" d="
		M296.102,427.371c0,0.642-0.52,1.161-1.161,1.161c-0.64,0-1.16-0.52-1.16-1.161c0-0.642,0.52-1.161,1.16-1.16
		C295.582,426.211,296.101,426.731,296.102,427.371z"/>
</g>
<path id="path3610" fill="none" stroke="#754C24" stroke-width="0.528" stroke-linecap="round" stroke-linejoin="round" d="
	M294.405,281.688c-0.504,0.394-1.045,0.77-1.669,0.945c-1.186,0.376-2.521,0.221-3.609-0.372c-0.264-0.018-0.401,0.26-0.611,0.372
	c-0.498,0.414-1.021,0.806-1.488,1.25c-0.085,0.189,0.126,0.336,0.157,0.514c0.448,0.984,0.936,2.05,0.739,3.159
	c-0.201,1.413-1.07,2.629-1.323,4.031c-0.28,1.811,0.533,3.775,2.101,4.758c1.817,1.264,4.056,1.693,5.94,2.83
	c0.253,0.12,0.447-0.159,0.66-0.244c1.795-1.088,3.913-1.603,5.577-2.925c0.953-0.713,1.595-1.809,1.774-2.986
	c0.189-1.105-0.021-2.262-0.558-3.243c-0.513-1.095-1.104-2.246-0.99-3.491c0.089-0.903,0.503-1.731,0.819-2.569
	c0.004-0.224-0.27-0.272-0.389-0.417c-0.561-0.425-1.111-0.893-1.721-1.246c-0.379,0.083-0.685,0.38-1.071,0.449
	c-1.437,0.476-3.113,0.172-4.276-0.808C294.449,281.686,294.427,281.684,294.405,281.688z"/>
<path id="path4295" sodipodi:nodetypes="cccscccccsccc" opacity="0.1" fill="#FFFFFF" stroke="#754C24" stroke-width="0.3151" stroke-linecap="round" stroke-linejoin="round" enable-background="new    " d="
	M294.791,299.104L294.791,299.104c2.89-1.996,7.75-2.354,7.793-6.915c0.021-2.045-1.196-2.692-1.618-5.22
	c-0.192-1.156,0.856-3.294,0.856-3.294l-2.016-1.519c-1.207,0.764-3.476,1.224-5.382-0.346c-1.841,1.644-4.126,1.269-5.364,0.55
	l-1.952,1.593c0,0,1.135,2.098,0.989,3.26c-0.319,2.542-1.509,3.233-1.405,5.276c0.228,4.557,5.1,4.733,8.068,6.62l0,0"/>
</svg>
