<?xml version="1.0" encoding="utf-8"?>
<!-- Generator: Adobe Illustrator 14.0.0, SVG Export Plug-In . SVG Version: 6.00 Build 43363)  -->
<!DOCTYPE svg PUBLIC "-//W3C//DTD SVG 1.1//EN" "http://www.w3.org/Graphics/SVG/1.1/DTD/svg11.dtd">
<svg version="1.1"
	 id="svg2" xmlns:dc="http://purl.org/dc/elements/1.1/" xmlns:sodipodi="http://sodipodi.sourceforge.net/DTD/sodipodi-0.dtd" sodipodi:docname="port.svg" xmlns:svg="http://www.w3.org/2000/svg" xmlns:inkscape="http://www.inkscape.org/namespaces/inkscape" xmlns:cc="http://creativecommons.org/ns#" xmlns:rdf="http://www.w3.org/1999/02/22-rdf-syntax-ns#" inkscape:version="0.46" inkscape:output_extension="org.inkscape.output.svg.inkscape" sodipodi:docbase="s:\Data\FacilityIcons" sodipodi:version="0.32"
	 xmlns="http://www.w3.org/2000/svg" xmlns:xlink="http://www.w3.org/1999/xlink" x="0px" y="0px" width="580px" height="580px"
	 viewBox="0 0 580 580" enable-background="new 0 0 580 580" xml:space="preserve">
<g id="g3640" transform="matrix(1.088903,0,0,1.088903,-42.543252,-50.246524)">
	<g id="g3642">
		<path id="path3644" fill="#0092DA" d="M307.588,317.712c0.899-0.389,1.318-0.337,2.059,0.05c0.74,0.387,1.48,0.387,2.353-0.058
			c0.873-0.445,1.583-0.191,1.978,0.048c0.33,0.2,0.66,0.281,1.153,0.281v-1.782c-0.743,0.002-1.063-0.251-1.063-0.251
			c-0.769-0.474-1.473-0.38-2.441,0.123c-0.552,0.287-1.427,0.212-2.047-0.112c-0.855-0.445-1.338-0.336-2.233,0.062
			c-0.693,0.309-1.319,0.309-2.01,0c-0.895-0.399-1.356-0.507-2.21-0.062c-0.62,0.324-1.508,0.399-2.06,0.112
			c-0.968-0.503-1.66-0.597-2.428-0.123c0,0-0.332,0.251-1.063,0.251v1.782c0.461,0,0.821-0.091,1.131-0.281
			c0.394-0.24,1.127-0.492,2-0.048c0.873,0.446,1.613,0.446,2.353,0.058c0.74-0.387,1.151-0.456,2.05-0.067
			C305.985,318.14,306.848,318.099,307.588,317.712z"/>
		<path id="path3646" fill="#0092DA" d="M305.083,299.746v1.764h-2.049v1.315h-1.463v2.498l-0.759,0.309
			c-0.456,0.193-0.646,0.6-0.456,1.046l1.252,2.885v4.017c-0.812-0.001-1.503-0.987-2.979-0.163c0,0-0.422,0.236-1.063,0.251v1.722
			c0.5-0.037,0.74-0.117,1.119-0.329c0.403-0.225,1.139-0.444,2.012,0.001c0.873,0.446,1.613,0.446,2.353,0.059
			c0.74-0.387,1.385-0.407,2.078-0.059c0.873,0.446,1.559,0.45,2.438,0.011c0.71-0.361,1.348-0.339,2.088,0.048
			c0.74,0.387,1.481,0.387,2.353-0.059c0.874-0.445,1.605-0.22,2.012-0.001c0.356,0.192,0.607,0.292,1.12,0.329v-1.738
			c-0.653-0.015-1.063-0.251-1.063-0.251c-1.511-0.824-2.169,0.179-2.98,0.179v-4.017l1.254-2.885
			c0.189-0.445-0.001-0.852-0.456-1.046l-0.759-0.309v-2.498h-1.462v-1.315h-2.049v-1.764h-1.272H305.083z M304.115,302.554h2.239
			h2.239v1.296h1.461v1.008l-3.7-1.527l-3.7,1.527v-1.008h1.461V302.554z"/>
	</g>
</g>
</svg>
