<?xml version="1.0" encoding="utf-8"?>
<!-- Generator: Adobe Illustrator 14.0.0, SVG Export Plug-In . SVG Version: 6.00 Build 43363)  -->
<!DOCTYPE svg PUBLIC "-//W3C//DTD SVG 1.1//EN" "http://www.w3.org/Graphics/SVG/1.1/DTD/svg11.dtd">
<svg version="1.1"
	 id="svg2" xmlns:rdf="http://www.w3.org/1999/02/22-rdf-syntax-ns#" sodipodi:docname="amenity_post_office.svg" inkscape:version="0.46" xmlns:svg="http://www.w3.org/2000/svg" xmlns:sodipodi="http://sodipodi.sourceforge.net/DTD/sodipodi-0.dtd" xmlns:inkscape="http://www.inkscape.org/namespaces/inkscape" xmlns:dc="http://purl.org/dc/elements/1.1/" sodipodi:version="0.32" xmlns:cc="http://creativecommons.org/ns#" inkscape:output_extension="org.inkscape.output.svg.inkscape" sodipodi:docbase="s:\Data\FacilityIcons"
	 xmlns="http://www.w3.org/2000/svg" xmlns:xlink="http://www.w3.org/1999/xlink" x="0px" y="0px" width="580px" height="580px"
	 viewBox="0 0 580 580" enable-background="new 0 0 580 580" xml:space="preserve">
<rect x="286.297" y="288.656" fill="#FCEE21" width="10.016" height="7.406"/>
<defs>
	
	
		<inkscape:perspective  inkscape:persp3d-origin="290 : 193.33333 : 1" inkscape:vp_z="580 : 290 : 1" inkscape:vp_y="0 : 1000 : 0" inkscape:vp_x="0 : 290 : 1" sodipodi:type="inkscape:persp3d" id="perspective3265">
		</inkscape:perspective>
</defs>
<sodipodi:namedview  showgrid="false" inkscape:current-layer="svg2" inkscape:window-y="25" inkscape:window-x="91" inkscape:cy="367.99332" inkscape:cx="215.15635" inkscape:zoom="0.92167712" pagecolor="#ffffff" bordercolor="#666666" borderopacity="1.0" objecttolerance="10.0" gridtolerance="10.0" guidetolerance="10.0" inkscape:window-height="947" inkscape:window-width="1048" inkscape:pageshadow="2" inkscape:pageopacity="0.0" id="base">
	</sodipodi:namedview>
<g id="layer3" transform="matrix(48.14969,0,0,48.14969,-536.27327,-33.306752)" inkscape:label="Layout" display="none">
	<rect id="rect4134" x="1" y="1" display="inline" fill="none" stroke="#757575" stroke-width="0.1" width="10" height="10"/>
	<rect id="rect4136" x="2" y="2" display="inline" fill="none" stroke="#757575" stroke-width="0.1" width="8" height="8"/>
</g>
<path id="flowRoot3192" fill="#0000FF" stroke="#0000FF" stroke-width="0.0293" d="M286.644,289.526l2.823,2.835l-2.823,2.824
	V289.526z M295.428,288.994l-3.478,3.465c-0.173,0.173-0.392,0.259-0.655,0.259c-0.271,0-0.5-0.091-0.681-0.272l-3.451-3.45
	L295.428,288.994L295.428,288.994z M295.975,295.188l-2.824-2.824l2.824-2.836V295.188z M287.148,295.718l2.837-2.823l0.123,0.123
	c0.329,0.318,0.724,0.478,1.187,0.478c0.464,0,0.854-0.158,1.173-0.478l0.122-0.123l2.838,2.823H287.148z M285.88,296.484h10.886
	v-8.269H285.88V296.484z"/>
</svg>
