<?xml version="1.0" encoding="utf-8"?>
<!-- Generator: Adobe Illustrator 14.0.0, SVG Export Plug-In . SVG Version: 6.00 Build 43363)  -->
<!DOCTYPE svg PUBLIC "-//W3C//DTD SVG 1.1//EN" "http://www.w3.org/Graphics/SVG/1.1/DTD/svg11.dtd">
<svg version="1.1"
	 id="svg2" xmlns:rdf="http://www.w3.org/1999/02/22-rdf-syntax-ns#" sodipodi:docname="amenity_post_office.svg" inkscape:version="0.46" xmlns:svg="http://www.w3.org/2000/svg" xmlns:sodipodi="http://sodipodi.sourceforge.net/DTD/sodipodi-0.dtd" xmlns:inkscape="http://www.inkscape.org/namespaces/inkscape" xmlns:dc="http://purl.org/dc/elements/1.1/" sodipodi:version="0.32" xmlns:cc="http://creativecommons.org/ns#" inkscape:output_extension="org.inkscape.output.svg.inkscape" sodipodi:docbase="s:\Data\FacilityIcons"
	 xmlns="http://www.w3.org/2000/svg" xmlns:xlink="http://www.w3.org/1999/xlink" x="0px" y="0px" width="580px" height="580px"
	 viewBox="0 0 580 580" enable-background="new 0 0 580 580" xml:space="preserve">
<path id="path3267_1_" fill="#FCEE21" d="
	M299.154,292.465c0,4.33-3.51,7.84-7.84,7.84c-4.33,0-7.841-3.51-7.841-7.84s3.511-7.84,7.841-7.84
	C295.645,284.625,299.154,288.135,299.154,292.465z"/>
<path id="flowRoot3192" fill="#0000FF" stroke="#0000FF" stroke-width="0.0293" d="M286.644,289.526l2.823,2.835l-2.823,2.824
	V289.526z M295.428,288.994l-3.478,3.465c-0.173,0.173-0.392,0.259-0.655,0.259c-0.271,0-0.5-0.091-0.681-0.272l-3.451-3.449
	L295.428,288.994L295.428,288.994z M295.975,295.188l-2.824-2.824l2.824-2.835V295.188z M287.148,295.718l2.837-2.823l0.123,0.123
	c0.329,0.318,0.724,0.479,1.187,0.479c0.464,0,0.854-0.158,1.173-0.479l0.122-0.123l2.838,2.823H287.148z M285.88,296.484h10.886
	v-8.27H285.88V296.484z"/>
<path id="path2207" fill="none" stroke="#0000FF" stroke-width="0.7359" d="
	M299.314,292.466c0,4.418-3.582,8-8,8c-4.417,0-8-3.582-8-8s3.582-8,8-8C295.732,284.466,299.314,288.048,299.314,292.466z"/>
</svg>
