<?xml version="1.0" encoding="UTF-8" standalone="no"?>
<!-- Created with Inkscape (http://www.inkscape.org/) -->

<svg
   xmlns:dc="http://purl.org/dc/elements/1.1/"
   xmlns:cc="http://creativecommons.org/ns#"
   xmlns:rdf="http://www.w3.org/1999/02/22-rdf-syntax-ns#"
   xmlns:svg="http://www.w3.org/2000/svg"
   xmlns="http://www.w3.org/2000/svg"
   version="1.1"
   width="14"
   height="14"
   viewBox="0 0 14 14"
   id="svg2">
  <metadata
     id="metadata8">
    <rdf:RDF>
      <cc:Work
         rdf:about="">
        <dc:format>image/svg+xml</dc:format>
        <dc:type
           rdf:resource="http://purl.org/dc/dcmitype/StillImage" />
        <dc:title></dc:title>
      </cc:Work>
    </rdf:RDF>
  </metadata>
  <defs
     id="defs6" />
  <rect
     width="14"
     height="14"
     x="0"
     y="0"
     id="canvas"
     style="fill:none;stroke:none;visibility:hidden" />
  <path
     d="M 11.718618,0.5 C 11.008344,0.3993314 9.205629,1.5161034 7.0310681,3.59375 7.7530968,3.631868 8.4707885,4.3689488 8.4060828,5.03125 10.551397,2.9815468 11.795687,1.2473073 11.718618,0.5 z M 1.9372637,3.25 C 1.3277462,3.271754 0.8743713,3.3532481 0.656,3.53125 0.9617833,4.1801816 2.8506744,5.0730322 5.7810548,5.75 5.4165559,5.1255886 5.6607075,4.1220091 6.2498098,3.8125 4.4429545,3.3950856 2.9531265,3.2137427 1.9372637,3.25 z M 6.9998178,4.5 c -0.276145,0 -0.5000054,0.2238576 -0.5000054,0.5 0,0.2761424 0.2238604,0.5 0.5000054,0.5 0.2761449,0 0.5000053,-0.2238576 0.5000053,-0.5 0,-0.2761424 -0.2238604,-0.5 -0.5000053,-0.5 z m 1.312514,1.03125 C 8.1103776,6.1653203 7.1470174,6.5624501 6.4685621,6.3125 7.6465487,9.079739 8.8700018,10.780912 9.562345,10.96875 9.928113,10.312531 9.474474,8.261269 8.3123318,5.53125 z M 6.4060614,7.75 5.9998071,13 l -2.0000214,0 0,1 6.0000643,0 0,-1 -2.0000215,0 -0.2187524,-2.78125 C 7.3325413,9.489844 6.8783275,8.672219 6.4060614,7.75 z"
     id="power-wind"
     style="fill:#000000;fill-opacity:1;stroke:none" />
</svg>
