<?xml version="1.0" encoding="utf-8"?>
<!-- Generator: Adobe Illustrator 14.0.0, SVG Export Plug-In . SVG Version: 6.00 Build 43363)  -->
<!DOCTYPE svg PUBLIC "-//W3C//DTD SVG 1.1//EN" "http://www.w3.org/Graphics/SVG/1.1/DTD/svg11.dtd">
<svg version="1.1"
	 id="svg2" xmlns:rdf="http://www.w3.org/1999/02/22-rdf-syntax-ns#" sodipodi:docname="amenity_prison.svg" inkscape:version="0.46" xmlns:svg="http://www.w3.org/2000/svg" xmlns:sodipodi="http://sodipodi.sourceforge.net/DTD/sodipodi-0.dtd" xmlns:inkscape="http://www.inkscape.org/namespaces/inkscape" xmlns:dc="http://purl.org/dc/elements/1.1/" sodipodi:version="0.32" xmlns:cc="http://creativecommons.org/ns#" inkscape:output_extension="org.inkscape.output.svg.inkscape"
	 xmlns="http://www.w3.org/2000/svg" xmlns:xlink="http://www.w3.org/1999/xlink" x="0px" y="0px" width="580px" height="580px"
	 viewBox="0 0 580 580" enable-background="new 0 0 580 580" xml:space="preserve">
<sodipodi:namedview  showgrid="false" inkscape:current-layer="svg2" inkscape:window-y="18" inkscape:window-x="112" inkscape:cy="295.82776" inkscape:cx="297.49911" inkscape:zoom="1.2807306" pagecolor="#ffffff" bordercolor="#666666" borderopacity="1.0" objecttolerance="10.0" gridtolerance="10.0" guidetolerance="10.0" inkscape:window-height="1005" inkscape:window-width="1280" inkscape:pageshadow="2" inkscape:pageopacity="0.0" id="base">
	</sodipodi:namedview>
<defs>
	
	
		<inkscape:perspective  inkscape:persp3d-origin="290 : 193.33333 : 1" inkscape:vp_z="580 : 290 : 1" inkscape:vp_y="0 : 1000 : 0" inkscape:vp_x="0 : 290 : 1" sodipodi:type="inkscape:persp3d" id="perspective12">
		</inkscape:perspective>
	
		<inkscape:perspective  inkscape:persp3d-origin="29.116032 : 19.410688 : 1" inkscape:vp_z="58.232063 : 29.116032 : 1" inkscape:vp_y="0 : 1000 : 0" inkscape:vp_x="0 : 29.116032 : 1" sodipodi:type="inkscape:persp3d" id="perspective6807">
		</inkscape:perspective>
	
		<inkscape:perspective  inkscape:persp3d-origin="290 : 193.33333 : 1" inkscape:vp_z="580 : 290 : 1" inkscape:vp_y="0 : 1000 : 0" inkscape:vp_x="0 : 290 : 1" sodipodi:type="inkscape:persp3d" id="perspective6954">
		</inkscape:perspective>
	
		<inkscape:perspective  inkscape:persp3d-origin="178.5405 : 158.483 : 1" inkscape:vp_z="357.08099 : 237.7245 : 1" inkscape:vp_y="0 : 1000 : 0" inkscape:vp_x="0 : 237.7245 : 1" sodipodi:type="inkscape:persp3d" id="perspective7597">
		</inkscape:perspective>
</defs>
<g id="g8776" transform="matrix(1.871692,0,0,1.871692,79.48837,-14.535408)" opacity="0.5">
	<path id="flowRoot3192" sodipodi:nodetypes="cccsscssccsccccsccscccccccsccsccc" fill="#754C24" d="M203.873,159.427
		c-0.349,0-0.654,0.127-0.912,0.379c-0.259,0.252-0.388,0.558-0.388,0.92c0,0.362,0.129,0.67,0.388,0.922
		c0.258,0.252,0.563,0.377,0.912,0.377c0.013,0,0.025-0.001,0.038-0.001c0.013,0,0.026,0.001,0.039,0.001
		c0.349,0,0.652-0.125,0.911-0.377c0.258-0.252,0.387-0.56,0.387-0.922c0-0.362-0.129-0.668-0.387-0.92
		c-0.259-0.252-0.562-0.379-0.911-0.379c-0.013,0-0.026,0.001-0.039,0.001C203.898,159.428,203.885,159.427,203.873,159.427z
		 M202.883,162.104c-0.078,0-0.15,0.009-0.214,0.026c-0.042-0.004-0.084-0.005-0.126-0.004c-0.611,0.014-1.096,0.522-1.082,1.133
		l0.023,2.582c-0.002,0.399,0.211,0.769,0.558,0.967c0.071,0.041,0.145,0.073,0.221,0.096v0.338v0.098l1.647-0.049l1.648,0.049
		v-0.098v-0.388c0.037-0.017,0.073-0.035,0.108-0.057c0.343-0.205,0.549-0.578,0.54-0.977l-0.022-2.583
		c0.002-0.299-0.118-0.586-0.332-0.796c-0.192-0.189-0.446-0.3-0.713-0.315c-0.061-0.015-0.128-0.022-0.201-0.022H202.883z"/>
</g>
<path id="path8836" fill="#754C24" stroke="#754C24" stroke-width="0.4371" stroke-linecap="round" stroke-linejoin="round" d="
	M463.862,282.889c-0.074,0-0.141,0.01-0.185,0.043c0,4.009,0,8.019,0,12.029c0.037-0.34,0.218-0.681,0.563-0.754
	c0-3.771,0-7.542,0-11.312C464.132,282.912,463.985,282.888,463.862,282.889z M463.678,295.236c0,1.315,0,2.631,0,3.947
	c0.175-0.027,0.444,0.053,0.563-0.037c0-1.049,0-2.097,0-3.146C463.906,295.948,463.694,295.558,463.678,295.236z"/>
<path id="path9418" fill="#754C24" stroke="#754C24" stroke-width="0.4371" stroke-linecap="round" stroke-linejoin="round" d="
	M458.163,282.889c-0.074,0-0.14,0.01-0.185,0.043c0,3.757,0,7.515,0,11.273c0.296,0.042,0.493,0.352,0.547,0.633
	c0.007,0.033,0.013,0.068,0.018,0.103c0-4.015,0-8.03,0-12.045C458.434,282.912,458.287,282.888,458.163,282.889z M458.543,295.276
	c-0.044,0.327-0.216,0.639-0.55,0.725c-0.005,0.001-0.01,0.001-0.015,0.001c0,1.061,0,2.121,0,3.182
	c0.175-0.027,0.444,0.053,0.564-0.037C458.543,297.856,458.543,296.566,458.543,295.276z"/>
<path id="path9497" fill="#754C24" stroke="#754C24" stroke-width="0.4371" stroke-linecap="round" stroke-linejoin="round" d="
	M468.033,299.183c0.175-0.026,0.445,0.054,0.564-0.037c0-5.416,0-10.833,0-16.25c-0.175,0.027-0.445-0.053-0.564,0.037
	C468.033,288.349,468.033,293.766,468.033,299.183z"/>
<path id="path9499" fill="#754C24" stroke="#754C24" stroke-width="0.4371" stroke-linecap="round" stroke-linejoin="round" d="
	M452.962,299.183c0.176-0.026,0.445,0.054,0.565-0.037c0-5.416,0-10.833,0-16.25c-0.176,0.027-0.445-0.053-0.565,0.037
	C452.962,288.349,452.962,293.766,452.962,299.183z"/>
<path id="path9518" fill="#754C24" stroke="#754C24" stroke-width="0.4308" stroke-linecap="round" stroke-linejoin="round" d="
	M468.606,282.851c-0.026-0.177,0.051-0.45-0.035-0.571c-5.205,0-10.41,0-15.615,0c0.026,0.177-0.051,0.451,0.036,0.571
	C458.196,282.851,463.401,282.851,468.606,282.851z"/>
<path id="path9520" fill="#754C24" stroke="#754C24" stroke-width="0.4308" stroke-linecap="round" stroke-linejoin="round" d="
	M468.606,299.549c-0.026-0.178,0.051-0.45-0.035-0.571c-5.205,0-10.41,0-15.615,0c0.026,0.177-0.051,0.45,0.036,0.571
	C458.196,299.549,463.401,299.549,468.606,299.549z"/>
</svg>
