<?xml version="1.0" encoding="UTF-8" standalone="no"?>
<!-- Created with Inkscape (http://www.inkscape.org/) -->

<svg
   xmlns="http://www.w3.org/2000/svg"
   version="1.1"
   width="100%"
   height="100%"
   viewBox="0 0 16 16">
  <path
     d="M 1,1 1,15 15,15 15,1 1,1 z m 1,1 3,0 0,12 -0.5,0 0,-4.21875 C 4.2009277,10.13501 4,10.5625 4,11 L 4,14 2,14 2,2 z m 4,0 4,0 0,12 -0.5,0 0,-5 -3,0 0,5 L 6,14 6,2 z m 5,0 3,0 0,12 -2,0 0,-3 C 12,10.5625 11.799072,10.13501 11.5,9.78125 L 11.5,14 11,14 11,2 z M 8,4 C 7.3991523,4 6.8666154,4.2680514 6.5,4.6875 l 0,2.625 C 6.8666154,7.7319486 7.3991523,8 8,8 8.6008474,8 9.1333845,7.7319486 9.5,7.3125 l 0,-2.625 C 9.1333845,4.2680514 8.6008474,4 8,4 z" />
</svg>
