<?xml version="1.0" encoding="utf-8"?>
<!-- Generator: Adobe Illustrator 14.0.0, SVG Export Plug-In . SVG Version: 6.00 Build 43363)  -->
<!DOCTYPE svg PUBLIC "-//W3C//DTD SVG 1.1//EN" "http://www.w3.org/Graphics/SVG/1.1/DTD/svg11.dtd">
<svg version="1.1"
	 id="svg2" xmlns:rdf="http://www.w3.org/1999/02/22-rdf-syntax-ns#" sodipodi:docname="amenity_pub.svg" inkscape:version="0.46" xmlns:svg="http://www.w3.org/2000/svg" xmlns:sodipodi="http://sodipodi.sourceforge.net/DTD/sodipodi-0.dtd" xmlns:inkscape="http://www.inkscape.org/namespaces/inkscape" xmlns:dc="http://purl.org/dc/elements/1.1/" sodipodi:version="0.32" xmlns:cc="http://creativecommons.org/ns#" inkscape:output_extension="org.inkscape.output.svg.inkscape"
	 xmlns="http://www.w3.org/2000/svg" xmlns:xlink="http://www.w3.org/1999/xlink" x="0px" y="0px" width="580px" height="580px"
	 viewBox="0 0 580 580" enable-background="new 0 0 580 580" xml:space="preserve">
<sodipodi:namedview  showgrid="false" inkscape:current-layer="svg2" inkscape:window-y="88" inkscape:window-x="88" inkscape:cy="290" inkscape:cx="107.33766" inkscape:zoom="0.79655172" pagecolor="#ffffff" bordercolor="#666666" borderopacity="1.0" objecttolerance="10.0" gridtolerance="10.0" guidetolerance="10.0" inkscape:window-height="675" inkscape:window-width="640" inkscape:pageshadow="2" inkscape:pageopacity="0.0" id="base">
	</sodipodi:namedview>
<defs>
	
	
		<inkscape:perspective  inkscape:persp3d-origin="290 : 193.33333 : 1" inkscape:vp_z="580 : 290 : 1" inkscape:vp_y="0 : 1000 : 0" inkscape:vp_x="0 : 290 : 1" sodipodi:type="inkscape:persp3d" id="perspective12">
		</inkscape:perspective>
</defs>
<path id="path2381" opacity="0.1" fill="#FFFFFF" enable-background="new    " d="M282.555,286.408l9.418,0.078l-1.525,11.544
	l-6.444,0.078L282.555,286.408z"/>
<path id="path2209" sodipodi:nodetypes="ccsssccccsssccccccc" fill="#754C24" d="M292.85,285.124h-0.008
	c0.009-0.007,0.014-0.016,0.014-0.023c0-0.185-2.462-0.333-5.5-0.333c-3.037,0-5.5,0.15-5.5,0.333c0,0.007,0.004,0.016,0.014,0.023
	h-0.014l1.717,13.388h0.008c-0.016,0.008-0.023,0.017-0.023,0.025c0,0.127,1.701,0.229,3.798,0.229c2.097,0,3.798-0.103,3.798-0.229
	c0-0.01-0.008-0.018-0.022-0.025L292.85,285.124z M290.029,297.532c-0.088,0.084-5.303,0.044-5.391-0.039l-1.63-10.571
	c2.887,2.047,4.787-0.277,8.571-0.078L290.029,297.532z"/>
</svg>
