<?xml version="1.0" encoding="UTF-8" standalone="no"?>
<svg
   xmlns:dc="http://purl.org/dc/elements/1.1/"
   xmlns:cc="http://creativecommons.org/ns#"
   xmlns:rdf="http://www.w3.org/1999/02/22-rdf-syntax-ns#"
   xmlns:svg="http://www.w3.org/2000/svg"
   xmlns="http://www.w3.org/2000/svg"
   version="1.1"
   height="256"
   width="256"
   id="Svg">
  <metadata
     id="metadata118">
    <rdf:RDF>
      <cc:Work
         rdf:about="">
        <dc:format>image/svg+xml</dc:format>
        <dc:type
           rdf:resource="http://purl.org/dc/dcmitype/StillImage" />
      </cc:Work>
    </rdf:RDF>
  </metadata>
  <defs
     id="defs10" />
  <path
     id="path975"
     d="M 18.125 5.9980469 C 16.401665 6.9379104 14.973532 8.3580692 14 10.060547 L 14 10.341797 L 15.40625 11.560547 C 15.757645 10.830662 16.218502 10.158206 16.75 9.5605469 L 19.6875 12.623047 L 15.25 16.935547 C 15.141213 17.040536 15.149896 17.19727 15.25 17.310547 C 15.442626 17.528559 15.625738 17.742895 15.84375 17.935547 C 15.957041 18.035654 16.145011 18.013067 16.25 17.904297 L 20.53125 13.466797 L 24.8125 17.904297 C 24.917504 18.012997 25.074251 18.035622 25.1875 17.935547 C 25.405569 17.742864 25.619803 17.52863 25.8125 17.310547 C 25.912574 17.197298 25.921203 17.04055 25.8125 16.935547 L 21.34375 12.623047 L 24.0625 9.8105469 L 24.75 10.466797 L 27 11.248047 L 26.15625 9.0917969 L 25.4375 8.3730469 L 25.65625 8.1855469 L 25 7.5292969 L 24.78125 7.7167969 L 23.15625 6.0917969 L 21.75 7.4667969 L 23.375 9.0917969 L 20.53125 11.810547 L 17.46875 8.8730469 C 18.064814 8.3426081 18.740461 7.8800001 19.46875 7.5292969 L 18.125 5.9980469 z M 103.125 5.9980469 C 101.40167 6.9379104 99.973532 8.3580692 99 10.060547 L 99 10.341797 L 100.40625 11.560547 C 100.75764 10.830662 101.2185 10.158206 101.75 9.5605469 L 104.6875 12.623047 L 100.25 16.935547 C 100.14121 17.040536 100.1499 17.19727 100.25 17.310547 C 100.44263 17.528559 100.62574 17.742895 100.84375 17.935547 C 100.95704 18.035654 101.14501 18.013067 101.25 17.904297 L 105.53125 13.466797 L 109.8125 17.904297 C 109.9175 18.012997 110.07425 18.035622 110.1875 17.935547 C 110.40557 17.742864 110.6198 17.52863 110.8125 17.310547 C 110.91257 17.197298 110.9212 17.04055 110.8125 16.935547 L 106.34375 12.623047 L 109.0625 9.8105469 L 109.75 10.466797 L 112 11.248047 L 111.15625 9.0917969 L 110.4375 8.3730469 L 110.65625 8.1855469 L 110 7.5292969 L 109.78125 7.7167969 L 108.15625 6.0917969 L 106.75 7.4667969 L 108.375 9.0917969 L 105.53125 11.810547 L 102.46875 8.8730469 C 103.06481 8.3426081 103.74046 7.8800001 104.46875 7.5292969 L 103.125 5.9980469 z M 189.125 5.9980469 C 187.40167 6.9379104 185.97353 8.3580692 185 10.060547 L 185 10.341797 L 186.40625 11.560547 C 186.75764 10.830662 187.2185 10.158206 187.75 9.5605469 L 190.6875 12.623047 L 186.25 16.935547 C 186.14121 17.040536 186.1499 17.19727 186.25 17.310547 C 186.44263 17.528559 186.62574 17.742895 186.84375 17.935547 C 186.95704 18.035654 187.14501 18.013067 187.25 17.904297 L 191.53125 13.466797 L 195.8125 17.904297 C 195.9175 18.012997 196.07425 18.035622 196.1875 17.935547 C 196.40557 17.742864 196.6198 17.52863 196.8125 17.310547 C 196.91257 17.197298 196.9212 17.04055 196.8125 16.935547 L 192.34375 12.623047 L 195.0625 9.8105469 L 195.75 10.466797 L 198 11.248047 L 197.15625 9.0917969 L 196.4375 8.3730469 L 196.65625 8.1855469 L 196 7.5292969 L 195.78125 7.7167969 L 194.15625 6.0917969 L 192.75 7.4667969 L 194.375 9.0917969 L 191.53125 11.810547 L 188.46875 8.8730469 C 189.06481 8.3426081 189.74046 7.8800001 190.46875 7.5292969 L 189.125 5.9980469 z M 61.125 31.998047 C 59.401665 32.93791 57.973532 34.358069 57 36.060547 L 57 36.341797 L 58.40625 37.560547 C 58.757645 36.830662 59.218502 36.158207 59.75 35.560547 L 62.6875 38.623047 L 58.25 42.935547 C 58.141213 43.040536 58.149896 43.19727 58.25 43.310547 C 58.442626 43.528559 58.625738 43.742895 58.84375 43.935547 C 58.957041 44.035654 59.145011 44.013067 59.25 43.904297 L 63.53125 39.466797 L 67.8125 43.904297 C 67.917504 44.012997 68.074251 44.035622 68.1875 43.935547 C 68.405569 43.742864 68.619803 43.52863 68.8125 43.310547 C 68.912574 43.197298 68.921203 43.04055 68.8125 42.935547 L 64.34375 38.623047 L 67.0625 35.810547 L 67.75 36.466797 L 70 37.248047 L 69.15625 35.091797 L 68.4375 34.373047 L 68.65625 34.185547 L 68 33.529297 L 67.78125 33.716797 L 66.15625 32.091797 L 64.75 33.466797 L 66.375 35.091797 L 63.53125 37.810547 L 60.46875 34.873047 C 61.064814 34.342608 61.740461 33.88 62.46875 33.529297 L 61.125 31.998047 z M 146.125 31.998047 C 144.40167 32.93791 142.97353 34.358069 142 36.060547 L 142 36.341797 L 143.40625 37.560547 C 143.75764 36.830662 144.2185 36.158207 144.75 35.560547 L 147.6875 38.623047 L 143.25 42.935547 C 143.14121 43.040536 143.1499 43.19727 143.25 43.310547 C 143.44263 43.528559 143.62574 43.742895 143.84375 43.935547 C 143.95704 44.035654 144.14501 44.013067 144.25 43.904297 L 148.53125 39.466797 L 152.8125 43.904297 C 152.9175 44.012997 153.07425 44.035622 153.1875 43.935547 C 153.40557 43.742864 153.6198 43.52863 153.8125 43.310547 C 153.91257 43.197298 153.9212 43.04055 153.8125 42.935547 L 149.34375 38.623047 L 152.0625 35.810547 L 152.75 36.466797 L 155 37.248047 L 154.15625 35.091797 L 153.4375 34.373047 L 153.65625 34.185547 L 153 33.529297 L 152.78125 33.716797 L 151.15625 32.091797 L 149.75 33.466797 L 151.375 35.091797 L 148.53125 37.810547 L 145.46875 34.873047 C 146.06481 34.342608 146.74046 33.88 147.46875 33.529297 L 146.125 31.998047 z M 231.125 31.998047 C 229.40167 32.93791 227.97353 34.358069 227 36.060547 L 227 36.341797 L 228.40625 37.560547 C 228.75764 36.830662 229.2185 36.158207 229.75 35.560547 L 232.6875 38.623047 L 228.25 42.935547 C 228.14121 43.040536 228.1499 43.19727 228.25 43.310547 C 228.44263 43.528559 228.62574 43.742895 228.84375 43.935547 C 228.95704 44.035654 229.14501 44.013067 229.25 43.904297 L 233.53125 39.466797 L 237.8125 43.904297 C 237.9175 44.012997 238.07425 44.035622 238.1875 43.935547 C 238.40557 43.742864 238.6198 43.52863 238.8125 43.310547 C 238.91257 43.197298 238.9212 43.04055 238.8125 42.935547 L 234.34375 38.623047 L 237.0625 35.810547 L 237.75 36.466797 L 240 37.248047 L 239.15625 35.091797 L 238.4375 34.373047 L 238.65625 34.185547 L 238 33.529297 L 237.78125 33.716797 L 236.15625 32.091797 L 234.75 33.466797 L 236.375 35.091797 L 233.53125 37.810547 L 230.46875 34.873047 C 231.06481 34.342608 231.74046 33.88 232.46875 33.529297 L 231.125 31.998047 z M 18.125 57.998047 C 16.401665 58.93791 14.973532 60.358069 14 62.060547 L 14 62.341797 L 15.40625 63.560547 C 15.757645 62.830662 16.218502 62.158207 16.75 61.560547 L 19.6875 64.623047 L 15.25 68.935547 C 15.141213 69.040536 15.149896 69.19727 15.25 69.310547 C 15.442626 69.528559 15.625738 69.742895 15.84375 69.935547 C 15.957041 70.035654 16.145011 70.013067 16.25 69.904297 L 20.53125 65.466797 L 24.8125 69.904297 C 24.917504 70.012997 25.074251 70.035622 25.1875 69.935547 C 25.405569 69.742864 25.619803 69.52863 25.8125 69.310547 C 25.912574 69.197298 25.921203 69.04055 25.8125 68.935547 L 21.34375 64.623047 L 24.0625 61.810547 L 24.75 62.466797 L 27 63.248047 L 26.15625 61.091797 L 25.4375 60.373047 L 25.65625 60.185547 L 25 59.529297 L 24.78125 59.716797 L 23.15625 58.091797 L 21.75 59.466797 L 23.375 61.091797 L 20.53125 63.810547 L 17.46875 60.873047 C 18.064814 60.342608 18.740461 59.88 19.46875 59.529297 L 18.125 57.998047 z M 103.125 57.998047 C 101.40167 58.93791 99.973532 60.358069 99 62.060547 L 99 62.341797 L 100.40625 63.560547 C 100.75764 62.830662 101.2185 62.158207 101.75 61.560547 L 104.6875 64.623047 L 100.25 68.935547 C 100.14121 69.040536 100.1499 69.19727 100.25 69.310547 C 100.44263 69.528559 100.62574 69.742895 100.84375 69.935547 C 100.95704 70.035654 101.14501 70.013067 101.25 69.904297 L 105.53125 65.466797 L 109.8125 69.904297 C 109.9175 70.012997 110.07425 70.035622 110.1875 69.935547 C 110.40557 69.742864 110.6198 69.52863 110.8125 69.310547 C 110.91257 69.197298 110.9212 69.04055 110.8125 68.935547 L 106.34375 64.623047 L 109.0625 61.810547 L 109.75 62.466797 L 112 63.248047 L 111.15625 61.091797 L 110.4375 60.373047 L 110.65625 60.185547 L 110 59.529297 L 109.78125 59.716797 L 108.15625 58.091797 L 106.75 59.466797 L 108.375 61.091797 L 105.53125 63.810547 L 102.46875 60.873047 C 103.06481 60.342608 103.74046 59.88 104.46875 59.529297 L 103.125 57.998047 z M 189.125 57.998047 C 187.40167 58.93791 185.97353 60.358069 185 62.060547 L 185 62.341797 L 186.40625 63.560547 C 186.75764 62.830662 187.2185 62.158207 187.75 61.560547 L 190.6875 64.623047 L 186.25 68.935547 C 186.14121 69.040536 186.1499 69.19727 186.25 69.310547 C 186.44263 69.528559 186.62574 69.742895 186.84375 69.935547 C 186.95704 70.035654 187.14501 70.013067 187.25 69.904297 L 191.53125 65.466797 L 195.8125 69.904297 C 195.9175 70.012997 196.07425 70.035622 196.1875 69.935547 C 196.40557 69.742864 196.6198 69.52863 196.8125 69.310547 C 196.91257 69.197298 196.9212 69.04055 196.8125 68.935547 L 192.34375 64.623047 L 195.0625 61.810547 L 195.75 62.466797 L 198 63.248047 L 197.15625 61.091797 L 196.4375 60.373047 L 196.65625 60.185547 L 196 59.529297 L 195.78125 59.716797 L 194.15625 58.091797 L 192.75 59.466797 L 194.375 61.091797 L 191.53125 63.810547 L 188.46875 60.873047 C 189.06481 60.342608 189.74046 59.88 190.46875 59.529297 L 189.125 57.998047 z M 61.125 82.998047 C 59.401665 83.93791 57.973532 85.358069 57 87.060547 L 57 87.341797 L 58.40625 88.560547 C 58.757645 87.830662 59.218502 87.158207 59.75 86.560547 L 62.6875 89.623047 L 58.25 93.935547 C 58.141213 94.040536 58.149896 94.19727 58.25 94.310547 C 58.442626 94.528559 58.625738 94.742895 58.84375 94.935547 C 58.957041 95.035654 59.145011 95.013067 59.25 94.904297 L 63.53125 90.466797 L 67.8125 94.904297 C 67.917504 95.012997 68.074251 95.035622 68.1875 94.935547 C 68.405569 94.742864 68.619803 94.52863 68.8125 94.310547 C 68.912574 94.197298 68.921203 94.04055 68.8125 93.935547 L 64.34375 89.623047 L 67.0625 86.810547 L 67.75 87.466797 L 70 88.248047 L 69.15625 86.091797 L 68.4375 85.373047 L 68.65625 85.185547 L 68 84.529297 L 67.78125 84.716797 L 66.15625 83.091797 L 64.75 84.466797 L 66.375 86.091797 L 63.53125 88.810547 L 60.46875 85.873047 C 61.064814 85.342608 61.740461 84.88 62.46875 84.529297 L 61.125 82.998047 z M 146.125 82.998047 C 144.40167 83.93791 142.97353 85.358069 142 87.060547 L 142 87.341797 L 143.40625 88.560547 C 143.75764 87.830662 144.2185 87.158207 144.75 86.560547 L 147.6875 89.623047 L 143.25 93.935547 C 143.14121 94.040536 143.1499 94.19727 143.25 94.310547 C 143.44263 94.528559 143.62574 94.742895 143.84375 94.935547 C 143.95704 95.035654 144.14501 95.013067 144.25 94.904297 L 148.53125 90.466797 L 152.8125 94.904297 C 152.9175 95.012997 153.07425 95.035622 153.1875 94.935547 C 153.40557 94.742864 153.6198 94.52863 153.8125 94.310547 C 153.91257 94.197298 153.9212 94.04055 153.8125 93.935547 L 149.34375 89.623047 L 152.0625 86.810547 L 152.75 87.466797 L 155 88.248047 L 154.15625 86.091797 L 153.4375 85.373047 L 153.65625 85.185547 L 153 84.529297 L 152.78125 84.716797 L 151.15625 83.091797 L 149.75 84.466797 L 151.375 86.091797 L 148.53125 88.810547 L 145.46875 85.873047 C 146.06481 85.342608 146.74046 84.88 147.46875 84.529297 L 146.125 82.998047 z M 231.125 82.998047 C 229.40167 83.93791 227.97353 85.358069 227 87.060547 L 227 87.341797 L 228.40625 88.560547 C 228.75764 87.830662 229.2185 87.158207 229.75 86.560547 L 232.6875 89.623047 L 228.25 93.935547 C 228.14121 94.040536 228.1499 94.19727 228.25 94.310547 C 228.44263 94.528559 228.62574 94.742895 228.84375 94.935547 C 228.95704 95.035654 229.14501 95.013067 229.25 94.904297 L 233.53125 90.466797 L 237.8125 94.904297 C 237.9175 95.012997 238.07425 95.035622 238.1875 94.935547 C 238.40557 94.742864 238.6198 94.52863 238.8125 94.310547 C 238.91257 94.197298 238.9212 94.04055 238.8125 93.935547 L 234.34375 89.623047 L 237.0625 86.810547 L 237.75 87.466797 L 240 88.248047 L 239.15625 86.091797 L 238.4375 85.373047 L 238.65625 85.185547 L 238 84.529297 L 237.78125 84.716797 L 236.15625 83.091797 L 234.75 84.466797 L 236.375 86.091797 L 233.53125 88.810547 L 230.46875 85.873047 C 231.06481 85.342608 231.74046 84.88 232.46875 84.529297 L 231.125 82.998047 z M 18.125 108.99805 C 16.401665 109.93792 14.973532 111.35808 14 113.06055 L 14 113.3418 L 15.40625 114.56055 C 15.757645 113.83067 16.218502 113.15821 16.75 112.56055 L 19.6875 115.62305 L 15.25 119.93555 C 15.141213 120.04054 15.149896 120.19728 15.25 120.31055 C 15.442626 120.52857 15.625738 120.7429 15.84375 120.93555 C 15.957041 121.03566 16.145011 121.013 16.25 120.9043 L 20.53125 116.4668 L 24.8125 120.9043 C 24.917504 121.013 25.074251 121.03568 25.1875 120.93555 C 25.405569 120.74287 25.619803 120.52864 25.8125 120.31055 C 25.912574 120.19731 25.921203 120.04056 25.8125 119.93555 L 21.34375 115.62305 L 24.0625 112.81055 L 24.75 113.4668 L 27 114.24805 L 26.15625 112.0918 L 25.4375 111.37305 L 25.65625 111.18555 L 25 110.5293 L 24.78125 110.7168 L 23.15625 109.0918 L 21.75 110.4668 L 23.375 112.0918 L 20.53125 114.81055 L 17.46875 111.87305 C 18.064814 111.34262 18.740461 110.88001 19.46875 110.5293 L 18.125 108.99805 z M 103.125 108.99805 C 101.40167 109.93792 99.973532 111.35808 99 113.06055 L 99 113.3418 L 100.40625 114.56055 C 100.75764 113.83067 101.2185 113.15821 101.75 112.56055 L 104.6875 115.62305 L 100.25 119.93555 C 100.14121 120.04054 100.1499 120.19728 100.25 120.31055 C 100.44263 120.52857 100.62574 120.7429 100.84375 120.93555 C 100.95704 121.03566 101.14501 121.013 101.25 120.9043 L 105.53125 116.4668 L 109.8125 120.9043 C 109.9175 121.013 110.07425 121.03568 110.1875 120.93555 C 110.40557 120.74287 110.6198 120.52864 110.8125 120.31055 C 110.91257 120.19731 110.9212 120.04056 110.8125 119.93555 L 106.34375 115.62305 L 109.0625 112.81055 L 109.75 113.4668 L 112 114.24805 L 111.15625 112.0918 L 110.4375 111.37305 L 110.65625 111.18555 L 110 110.5293 L 109.78125 110.7168 L 108.15625 109.0918 L 106.75 110.4668 L 108.375 112.0918 L 105.53125 114.81055 L 102.46875 111.87305 C 103.06481 111.34262 103.74046 110.88001 104.46875 110.5293 L 103.125 108.99805 z M 189.125 108.99805 C 187.40167 109.93792 185.97353 111.35808 185 113.06055 L 185 113.3418 L 186.40625 114.56055 C 186.75764 113.83067 187.2185 113.15821 187.75 112.56055 L 190.6875 115.62305 L 186.25 119.93555 C 186.14121 120.04054 186.1499 120.19728 186.25 120.31055 C 186.44263 120.52857 186.62574 120.7429 186.84375 120.93555 C 186.95704 121.03566 187.14501 121.013 187.25 120.9043 L 191.53125 116.4668 L 195.8125 120.9043 C 195.9175 121.013 196.07425 121.03568 196.1875 120.93555 C 196.40557 120.74287 196.6198 120.52864 196.8125 120.31055 C 196.91257 120.19731 196.9212 120.04056 196.8125 119.93555 L 192.34375 115.62305 L 195.0625 112.81055 L 195.75 113.4668 L 198 114.24805 L 197.15625 112.0918 L 196.4375 111.37305 L 196.65625 111.18555 L 196 110.5293 L 195.78125 110.7168 L 194.15625 109.0918 L 192.75 110.4668 L 194.375 112.0918 L 191.53125 114.81055 L 188.46875 111.87305 C 189.06481 111.34262 189.74046 110.88001 190.46875 110.5293 L 189.125 108.99805 z M 61.125 133.99805 C 59.401665 134.93792 57.973532 136.35808 57 138.06055 L 57 138.3418 L 58.40625 139.56055 C 58.757645 138.83067 59.218502 138.15821 59.75 137.56055 L 62.6875 140.62305 L 58.25 144.93555 C 58.141213 145.04054 58.149896 145.19728 58.25 145.31055 C 58.442626 145.52857 58.625738 145.7429 58.84375 145.93555 C 58.957041 146.03566 59.145011 146.013 59.25 145.9043 L 63.53125 141.4668 L 67.8125 145.9043 C 67.917504 146.013 68.074251 146.03568 68.1875 145.93555 C 68.405569 145.74287 68.619803 145.52864 68.8125 145.31055 C 68.912574 145.1973 68.921203 145.04056 68.8125 144.93555 L 64.34375 140.62305 L 67.0625 137.81055 L 67.75 138.4668 L 70 139.24805 L 69.15625 137.0918 L 68.4375 136.37305 L 68.65625 136.18555 L 68 135.5293 L 67.78125 135.7168 L 66.15625 134.0918 L 64.75 135.4668 L 66.375 137.0918 L 63.53125 139.81055 L 60.46875 136.87305 C 61.064814 136.34262 61.740461 135.88001 62.46875 135.5293 L 61.125 133.99805 z M 146.125 133.99805 C 144.40167 134.93792 142.97353 136.35808 142 138.06055 L 142 138.3418 L 143.40625 139.56055 C 143.75764 138.83067 144.2185 138.15821 144.75 137.56055 L 147.6875 140.62305 L 143.25 144.93555 C 143.14121 145.04054 143.1499 145.19728 143.25 145.31055 C 143.44263 145.52857 143.62574 145.7429 143.84375 145.93555 C 143.95704 146.03566 144.14501 146.013 144.25 145.9043 L 148.53125 141.4668 L 152.8125 145.9043 C 152.9175 146.013 153.07425 146.03568 153.1875 145.93555 C 153.40557 145.74287 153.6198 145.52864 153.8125 145.31055 C 153.91257 145.1973 153.9212 145.04056 153.8125 144.93555 L 149.34375 140.62305 L 152.0625 137.81055 L 152.75 138.4668 L 155 139.24805 L 154.15625 137.0918 L 153.4375 136.37305 L 153.65625 136.18555 L 153 135.5293 L 152.78125 135.7168 L 151.15625 134.0918 L 149.75 135.4668 L 151.375 137.0918 L 148.53125 139.81055 L 145.46875 136.87305 C 146.06481 136.34262 146.74046 135.88001 147.46875 135.5293 L 146.125 133.99805 z M 231.125 133.99805 C 229.40167 134.93792 227.97353 136.35808 227 138.06055 L 227 138.3418 L 228.40625 139.56055 C 228.75764 138.83067 229.2185 138.15821 229.75 137.56055 L 232.6875 140.62305 L 228.25 144.93555 C 228.14121 145.04054 228.1499 145.19728 228.25 145.31055 C 228.44263 145.52857 228.62574 145.7429 228.84375 145.93555 C 228.95704 146.03566 229.14501 146.013 229.25 145.9043 L 233.53125 141.4668 L 237.8125 145.9043 C 237.9175 146.013 238.07425 146.03568 238.1875 145.93555 C 238.40557 145.74287 238.6198 145.52864 238.8125 145.31055 C 238.91257 145.1973 238.9212 145.04056 238.8125 144.93555 L 234.34375 140.62305 L 237.0625 137.81055 L 237.75 138.4668 L 240 139.24805 L 239.15625 137.0918 L 238.4375 136.37305 L 238.65625 136.18555 L 238 135.5293 L 237.78125 135.7168 L 236.15625 134.0918 L 234.75 135.4668 L 236.375 137.0918 L 233.53125 139.81055 L 230.46875 136.87305 C 231.06481 136.34262 231.74046 135.88001 232.46875 135.5293 L 231.125 133.99805 z M 18.125 159.99805 C 16.401665 160.93792 14.973532 162.35808 14 164.06055 L 14 164.3418 L 15.40625 165.56055 C 15.757645 164.83067 16.218502 164.15821 16.75 163.56055 L 19.6875 166.62305 L 15.25 170.93555 C 15.141213 171.04054 15.149896 171.19728 15.25 171.31055 C 15.442626 171.52857 15.625738 171.7429 15.84375 171.93555 C 15.957041 172.03566 16.145011 172.013 16.25 171.9043 L 20.53125 167.4668 L 24.8125 171.9043 C 24.917504 172.013 25.074251 172.03568 25.1875 171.93555 C 25.405569 171.74287 25.619803 171.52864 25.8125 171.31055 C 25.912574 171.1973 25.921203 171.04056 25.8125 170.93555 L 21.34375 166.62305 L 24.0625 163.81055 L 24.75 164.4668 L 27 165.24805 L 26.15625 163.0918 L 25.4375 162.37305 L 25.65625 162.18555 L 25 161.5293 L 24.78125 161.7168 L 23.15625 160.0918 L 21.75 161.4668 L 23.375 163.0918 L 20.53125 165.81055 L 17.46875 162.87305 C 18.064814 162.34262 18.740461 161.88001 19.46875 161.5293 L 18.125 159.99805 z M 103.125 159.99805 C 101.40167 160.93792 99.973532 162.35808 99 164.06055 L 99 164.3418 L 100.40625 165.56055 C 100.75764 164.83067 101.2185 164.15821 101.75 163.56055 L 104.6875 166.62305 L 100.25 170.93555 C 100.14121 171.04054 100.1499 171.19728 100.25 171.31055 C 100.44263 171.52857 100.62574 171.7429 100.84375 171.93555 C 100.95704 172.03566 101.14501 172.013 101.25 171.9043 L 105.53125 167.4668 L 109.8125 171.9043 C 109.9175 172.013 110.07425 172.03568 110.1875 171.93555 C 110.40557 171.74287 110.6198 171.52864 110.8125 171.31055 C 110.91257 171.1973 110.9212 171.04056 110.8125 170.93555 L 106.34375 166.62305 L 109.0625 163.81055 L 109.75 164.4668 L 112 165.24805 L 111.15625 163.0918 L 110.4375 162.37305 L 110.65625 162.18555 L 110 161.5293 L 109.78125 161.7168 L 108.15625 160.0918 L 106.75 161.4668 L 108.375 163.0918 L 105.53125 165.81055 L 102.46875 162.87305 C 103.06481 162.34262 103.74046 161.88001 104.46875 161.5293 L 103.125 159.99805 z M 189.125 159.99805 C 187.40167 160.93792 185.97353 162.35808 185 164.06055 L 185 164.3418 L 186.40625 165.56055 C 186.75764 164.83067 187.2185 164.15821 187.75 163.56055 L 190.6875 166.62305 L 186.25 170.93555 C 186.14121 171.04054 186.1499 171.19728 186.25 171.31055 C 186.44263 171.52857 186.62574 171.7429 186.84375 171.93555 C 186.95704 172.03566 187.14501 172.013 187.25 171.9043 L 191.53125 167.4668 L 195.8125 171.9043 C 195.9175 172.013 196.07425 172.03568 196.1875 171.93555 C 196.40557 171.74287 196.6198 171.52864 196.8125 171.31055 C 196.91257 171.1973 196.9212 171.04056 196.8125 170.93555 L 192.34375 166.62305 L 195.0625 163.81055 L 195.75 164.4668 L 198 165.24805 L 197.15625 163.0918 L 196.4375 162.37305 L 196.65625 162.18555 L 196 161.5293 L 195.78125 161.7168 L 194.15625 160.0918 L 192.75 161.4668 L 194.375 163.0918 L 191.53125 165.81055 L 188.46875 162.87305 C 189.06481 162.34262 189.74046 161.88001 190.46875 161.5293 L 189.125 159.99805 z M 61.125 185.99805 C 59.401665 186.93792 57.973532 188.35808 57 190.06055 L 57 190.3418 L 58.40625 191.56055 C 58.757645 190.83067 59.218502 190.15821 59.75 189.56055 L 62.6875 192.62305 L 58.25 196.93555 C 58.141213 197.04054 58.149896 197.19728 58.25 197.31055 C 58.442626 197.52857 58.625738 197.7429 58.84375 197.93555 C 58.957041 198.03566 59.145011 198.013 59.25 197.9043 L 63.53125 193.4668 L 67.8125 197.9043 C 67.917504 198.013 68.074251 198.03568 68.1875 197.93555 C 68.405569 197.74287 68.619803 197.52864 68.8125 197.31055 C 68.912574 197.1973 68.921203 197.04056 68.8125 196.93555 L 64.34375 192.62305 L 67.0625 189.81055 L 67.75 190.4668 L 70 191.24805 L 69.15625 189.0918 L 68.4375 188.37305 L 68.65625 188.18555 L 68 187.5293 L 67.78125 187.7168 L 66.15625 186.0918 L 64.75 187.4668 L 66.375 189.0918 L 63.53125 191.81055 L 60.46875 188.87305 C 61.064814 188.34262 61.740461 187.88001 62.46875 187.5293 L 61.125 185.99805 z M 146.125 185.99805 C 144.40167 186.93792 142.97353 188.35808 142 190.06055 L 142 190.3418 L 143.40625 191.56055 C 143.75764 190.83067 144.2185 190.15821 144.75 189.56055 L 147.6875 192.62305 L 143.25 196.93555 C 143.14121 197.04054 143.1499 197.19728 143.25 197.31055 C 143.44263 197.52857 143.62574 197.7429 143.84375 197.93555 C 143.95704 198.03566 144.14501 198.013 144.25 197.9043 L 148.53125 193.4668 L 152.8125 197.9043 C 152.9175 198.013 153.07425 198.03568 153.1875 197.93555 C 153.40557 197.74287 153.6198 197.52864 153.8125 197.31055 C 153.91257 197.1973 153.9212 197.04056 153.8125 196.93555 L 149.34375 192.62305 L 152.0625 189.81055 L 152.75 190.4668 L 155 191.24805 L 154.15625 189.0918 L 153.4375 188.37305 L 153.65625 188.18555 L 153 187.5293 L 152.78125 187.7168 L 151.15625 186.0918 L 149.75 187.4668 L 151.375 189.0918 L 148.53125 191.81055 L 145.46875 188.87305 C 146.06481 188.34262 146.74046 187.88001 147.46875 187.5293 L 146.125 185.99805 z M 231.125 185.99805 C 229.40167 186.93792 227.97353 188.35808 227 190.06055 L 227 190.3418 L 228.40625 191.56055 C 228.75764 190.83067 229.2185 190.15821 229.75 189.56055 L 232.6875 192.62305 L 228.25 196.93555 C 228.14121 197.04054 228.1499 197.19728 228.25 197.31055 C 228.44263 197.52857 228.62574 197.7429 228.84375 197.93555 C 228.95704 198.03566 229.14501 198.013 229.25 197.9043 L 233.53125 193.4668 L 237.8125 197.9043 C 237.9175 198.013 238.07425 198.03568 238.1875 197.93555 C 238.40557 197.74287 238.6198 197.52864 238.8125 197.31055 C 238.91257 197.1973 238.9212 197.04056 238.8125 196.93555 L 234.34375 192.62305 L 237.0625 189.81055 L 237.75 190.4668 L 240 191.24805 L 239.15625 189.0918 L 238.4375 188.37305 L 238.65625 188.18555 L 238 187.5293 L 237.78125 187.7168 L 236.15625 186.0918 L 234.75 187.4668 L 236.375 189.0918 L 233.53125 191.81055 L 230.46875 188.87305 C 231.06481 188.34262 231.74046 187.88001 232.46875 187.5293 L 231.125 185.99805 z M 18.125 210.99805 C 16.401665 211.93792 14.973532 213.35808 14 215.06055 L 14 215.3418 L 15.40625 216.56055 C 15.757645 215.83067 16.218502 215.15821 16.75 214.56055 L 19.6875 217.62305 L 15.25 221.93555 C 15.141213 222.04054 15.149896 222.19728 15.25 222.31055 C 15.442626 222.52857 15.625738 222.7429 15.84375 222.93555 C 15.957041 223.03566 16.145011 223.013 16.25 222.9043 L 20.53125 218.4668 L 24.8125 222.9043 C 24.917504 223.013 25.074251 223.03568 25.1875 222.93555 C 25.405569 222.74287 25.619803 222.52864 25.8125 222.31055 C 25.912574 222.1973 25.921203 222.04056 25.8125 221.93555 L 21.34375 217.62305 L 24.0625 214.81055 L 24.75 215.4668 L 27 216.24805 L 26.15625 214.0918 L 25.4375 213.37305 L 25.65625 213.18555 L 25 212.5293 L 24.78125 212.7168 L 23.15625 211.0918 L 21.75 212.4668 L 23.375 214.0918 L 20.53125 216.81055 L 17.46875 213.87305 C 18.064814 213.34262 18.740461 212.88001 19.46875 212.5293 L 18.125 210.99805 z M 103.125 210.99805 C 101.40167 211.93792 99.973532 213.35808 99 215.06055 L 99 215.3418 L 100.40625 216.56055 C 100.75764 215.83067 101.2185 215.15821 101.75 214.56055 L 104.6875 217.62305 L 100.25 221.93555 C 100.14121 222.04054 100.1499 222.19728 100.25 222.31055 C 100.44263 222.52857 100.62574 222.7429 100.84375 222.93555 C 100.95704 223.03566 101.14501 223.013 101.25 222.9043 L 105.53125 218.4668 L 109.8125 222.9043 C 109.9175 223.013 110.07425 223.03568 110.1875 222.93555 C 110.40557 222.74287 110.6198 222.52864 110.8125 222.31055 C 110.91257 222.1973 110.9212 222.04056 110.8125 221.93555 L 106.34375 217.62305 L 109.0625 214.81055 L 109.75 215.4668 L 112 216.24805 L 111.15625 214.0918 L 110.4375 213.37305 L 110.65625 213.18555 L 110 212.5293 L 109.78125 212.7168 L 108.15625 211.0918 L 106.75 212.4668 L 108.375 214.0918 L 105.53125 216.81055 L 102.46875 213.87305 C 103.06481 213.34262 103.74046 212.88001 104.46875 212.5293 L 103.125 210.99805 z M 189.125 210.99805 C 187.40167 211.93792 185.97353 213.35808 185 215.06055 L 185 215.3418 L 186.40625 216.56055 C 186.75764 215.83067 187.2185 215.15821 187.75 214.56055 L 190.6875 217.62305 L 186.25 221.93555 C 186.14121 222.04054 186.1499 222.19728 186.25 222.31055 C 186.44263 222.52857 186.62574 222.7429 186.84375 222.93555 C 186.95704 223.03566 187.14501 223.013 187.25 222.9043 L 191.53125 218.4668 L 195.8125 222.9043 C 195.9175 223.013 196.07425 223.03568 196.1875 222.93555 C 196.40557 222.74287 196.6198 222.52864 196.8125 222.31055 C 196.91257 222.1973 196.9212 222.04056 196.8125 221.93555 L 192.34375 217.62305 L 195.0625 214.81055 L 195.75 215.4668 L 198 216.24805 L 197.15625 214.0918 L 196.4375 213.37305 L 196.65625 213.18555 L 196 212.5293 L 195.78125 212.7168 L 194.15625 211.0918 L 192.75 212.4668 L 194.375 214.0918 L 191.53125 216.81055 L 188.46875 213.87305 C 189.06481 213.34262 189.74046 212.88001 190.46875 212.5293 L 189.125 210.99805 z M 61.125 236.99805 C 59.401665 237.93792 57.973532 239.35808 57 241.06055 L 57 241.3418 L 58.40625 242.56055 C 58.757645 241.83067 59.218502 241.15821 59.75 240.56055 L 62.6875 243.62305 L 58.25 247.93555 C 58.141213 248.04054 58.149896 248.19728 58.25 248.31055 C 58.442626 248.52857 58.625738 248.7429 58.84375 248.93555 C 58.957041 249.03566 59.145011 249.013 59.25 248.9043 L 63.53125 244.4668 L 67.8125 248.9043 C 67.917504 249.013 68.074251 249.03568 68.1875 248.93555 C 68.405569 248.74287 68.619803 248.52864 68.8125 248.31055 C 68.912574 248.1973 68.921203 248.04056 68.8125 247.93555 L 64.34375 243.62305 L 67.0625 240.81055 L 67.75 241.4668 L 70 242.24805 L 69.15625 240.0918 L 68.4375 239.37305 L 68.65625 239.18555 L 68 238.5293 L 67.78125 238.7168 L 66.15625 237.0918 L 64.75 238.4668 L 66.375 240.0918 L 63.53125 242.81055 L 60.46875 239.87305 C 61.064814 239.34262 61.740461 238.88001 62.46875 238.5293 L 61.125 236.99805 z M 146.125 236.99805 C 144.40167 237.93792 142.97353 239.35808 142 241.06055 L 142 241.3418 L 143.40625 242.56055 C 143.75764 241.83067 144.2185 241.15821 144.75 240.56055 L 147.6875 243.62305 L 143.25 247.93555 C 143.14121 248.04054 143.1499 248.19728 143.25 248.31055 C 143.44263 248.52857 143.62574 248.7429 143.84375 248.93555 C 143.95704 249.03566 144.14501 249.013 144.25 248.9043 L 148.53125 244.4668 L 152.8125 248.9043 C 152.9175 249.013 153.07425 249.03568 153.1875 248.93555 C 153.40557 248.74287 153.6198 248.52864 153.8125 248.31055 C 153.91257 248.1973 153.9212 248.04056 153.8125 247.93555 L 149.34375 243.62305 L 152.0625 240.81055 L 152.75 241.4668 L 155 242.24805 L 154.15625 240.0918 L 153.4375 239.37305 L 153.65625 239.18555 L 153 238.5293 L 152.78125 238.7168 L 151.15625 237.0918 L 149.75 238.4668 L 151.375 240.0918 L 148.53125 242.81055 L 145.46875 239.87305 C 146.06481 239.34262 146.74046 238.88001 147.46875 238.5293 L 146.125 236.99805 z M 231.125 236.99805 C 229.40167 237.93792 227.97353 239.35808 227 241.06055 L 227 241.3418 L 228.40625 242.56055 C 228.75764 241.83067 229.2185 241.15821 229.75 240.56055 L 232.6875 243.62305 L 228.25 247.93555 C 228.14121 248.04054 228.1499 248.19728 228.25 248.31055 C 228.44263 248.52857 228.62574 248.7429 228.84375 248.93555 C 228.95704 249.03566 229.14501 249.013 229.25 248.9043 L 233.53125 244.4668 L 237.8125 248.9043 C 237.9175 249.013 238.07425 249.03568 238.1875 248.93555 C 238.40557 248.74287 238.6198 248.52864 238.8125 248.31055 C 238.91257 248.1973 238.9212 248.04056 238.8125 247.93555 L 234.34375 243.62305 L 237.0625 240.81055 L 237.75 241.4668 L 240 242.24805 L 239.15625 240.0918 L 238.4375 239.37305 L 238.65625 239.18555 L 238 238.5293 L 237.78125 238.7168 L 236.15625 237.0918 L 234.75 238.4668 L 236.375 240.0918 L 233.53125 242.81055 L 230.46875 239.87305 C 231.06481 239.34262 231.74046 238.88001 232.46875 238.5293 L 231.125 236.99805 z "
     style="fill:#e6e6e6" />
  <rect
     style="fill:none;fill-opacity:1;stroke:none"
     id="rect8566"
     y="0"
     x="0"
     rx="0"
     height="256"
     width="256" />
  <desc
     id="desc113">Created with Snap</desc>
</svg>
