<?xml version="1.0" encoding="UTF-8" standalone="no"?>
<!-- Created with Inkscape (http://www.inkscape.org/) -->

<svg
   xmlns="http://www.w3.org/2000/svg"
   version="1.1"
   width="100%"
   height="100%"
   viewBox="0 0 16 16">
  <path
     d="M 6.1111131,9.690628 4.5133516,6.804047 1.3,6.804047 2.6062101,7.5880837 1.7986781,9.0311016 C 1.7298071,9.1619607 1.6953738,9.2986132 1.6953767,9.4410632 1.6953738,9.583519 1.7298067,9.720173 1.7986781,9.851023 l 1.2710773,2.298282 c 0.057331,-0.166376 0.1146592,-0.309011 0.171995,-0.427902 L 4.8227305,8.9065915 6.1111131,9.690628 z m -2.3879902,2.316224 c -0.091944,0.154416 -0.1379139,0.320611 -0.1379099,0.498585 -4e-6,0.273307 0.094563,0.504931 0.2836852,0.694868 0.189119,0.189939 0.4152978,0.284906 0.6785371,0.284906 l 3.1619632,0 0,-2.654413 -3.333432,0 c -0.023082,0.04749 -0.109074,0.201902 -0.2579918,0.463243 l -0.3948518,0.712811 z m 4.2783511,-6.5745954 3.196047,0 L 12.812587,2.54622 11.506901,3.3302555 10.698844,1.8866933 C 10.549912,1.6137609 10.320934,1.4772893 10.011916,1.4772767 l -2.5432048,0 C 7.5718315,1.5958193 7.6578273,1.7145295 7.7267029,1.8334098 L 9.2898557,4.6482199 9.032389,4.8086154 8.001474,5.4322566 z M 6.4377974,1.6197306 C 6.0710797,1.6197421 5.7961336,1.7859374 5.6129601,2.1183163 L 4.0151984,4.9690109 C 4.6220663,5.3372941 5.3609057,5.7767964 6.2317187,6.2875185 6.746994,5.372999 7.3024778,4.3752843 7.8981728,3.2943703 L 7.2626345,2.1183163 C 7.0794458,1.7859374 6.8045007,1.6197421 6.4377974,1.6197306 l 0,0 z m 4.1068816,9.1751824 0,-0.320793 0,-1.228795 L 8.9463931,12.131363 10.544679,15 l 0,-1.55013 1.597761,0 c 0.309366,0 0.54411,-0.136653 0.704231,-0.409962 l 1.271602,-2.298279 c -0.171656,0.04749 -0.314811,0.07123 -0.42946,0.07123 l -3.144134,-0.01795 z m 2.37121,-4.88147 c -0.05735,0.035533 -0.79636,0.4750321 -2.217045,1.3185066 0.710337,1.2708481 1.271764,2.2745434 1.684282,3.0110934 l 1.288383,0 c 0.378233,2e-6 0.658946,-0.166373 0.842142,-0.499132 0.171629,-0.3207878 0.165862,-0.6473788 -0.01731,-0.9797736 L 12.915891,5.913443 z" />
</svg>
