<?xml version="1.0" encoding="UTF-8" standalone="no"?>
<!-- Created with Inkscape (http://www.inkscape.org/) -->

<svg
   xmlns:dc="http://purl.org/dc/elements/1.1/"
   xmlns:cc="http://creativecommons.org/ns#"
   xmlns:rdf="http://www.w3.org/1999/02/22-rdf-syntax-ns#"
   xmlns:svg="http://www.w3.org/2000/svg"
   xmlns="http://www.w3.org/2000/svg"
   version="1.1"
   width="100%"
   height="100%"
   viewBox="0 0 18 18"
   id="svg2">
  <metadata
     id="metadata8">
    <rdf:RDF>
      <cc:Work
         rdf:about="">
        <dc:format>image/svg+xml</dc:format>
        <dc:type
           rdf:resource="http://purl.org/dc/dcmitype/StillImage" />
        <dc:title></dc:title>
      </cc:Work>
    </rdf:RDF>
  </metadata>
  <defs
     id="defs6" />
  <rect
     width="18"
     height="18"
     x="0"
     y="0"
     id="canvas"
     style="fill:none;stroke:none;visibility:hidden" />
  <g
     id="recycling">
    <path
       d="M 7.1111131,10.690628 5.5133516,7.804047 2.3,7.804047 3.6062101,8.5880837 2.7986781,10.031102 c -0.068871,0.130859 -0.1033043,0.267511 -0.1033014,0.409961 -2.9e-6,0.142456 0.03443,0.27911 0.1033014,0.40996 l 1.2710773,2.298282 c 0.057331,-0.166376 0.1146592,-0.309011 0.171995,-0.427902 l 1.5809801,-2.814812 1.2883826,0.784037 z m -2.3879902,2.316224 c -0.091944,0.154416 -0.1379139,0.320611 -0.1379099,0.498585 -4e-6,0.273307 0.094563,0.504931 0.2836852,0.694868 0.189119,0.189939 0.4152978,0.284906 0.6785371,0.284906 l 3.1619632,0 0,-2.654413 -3.333432,0 c -0.023082,0.04749 -0.109074,0.201902 -0.2579918,0.463243 l -0.3948518,0.712811 z m 4.2783511,-6.5745954 3.196047,0 L 13.812587,3.54622 12.506901,4.3302555 11.698844,2.8866933 C 11.549912,2.6137609 11.320934,2.4772893 11.011916,2.4772767 l -2.5432048,0 C 8.5718315,2.5958193 8.6578273,2.7145295 8.7267029,2.8334098 L 10.289856,5.6482199 10.032389,5.8086154 9.001474,6.4322566 z M 7.4377974,2.6197306 C 7.0710797,2.6197421 6.7961336,2.7859374 6.6129601,3.1183163 L 5.0151984,5.9690109 C 5.6220663,6.3372941 6.3609057,6.7767964 7.2317187,7.2875185 7.746994,6.372999 8.3024778,5.3752843 8.8981728,4.2943703 L 8.2626345,3.1183163 C 8.0794458,2.7859374 7.8045007,2.6197421 7.4377974,2.6197306 l 0,0 z m 4.1068816,9.1751824 0,-0.320793 0,-1.228795 L 9.9463931,13.131363 11.544679,16 l 0,-1.55013 1.597761,0 c 0.309366,0 0.54411,-0.136653 0.704231,-0.409962 l 1.271602,-2.298279 c -0.171656,0.04749 -0.314811,0.07123 -0.42946,0.07123 l -3.144134,-0.01795 z m 2.37121,-4.88147 c -0.05735,0.035533 -0.79636,0.4750321 -2.217045,1.3185066 0.710337,1.2708484 1.271764,2.2745434 1.684282,3.0110934 l 1.288383,0 c 0.378233,2e-6 0.658946,-0.166373 0.842142,-0.499132 0.171629,-0.320788 0.165862,-0.647379 -0.01731,-0.979774 l -1.58045,-2.850694 z"
       id="halo"
       style="opacity:0.3;fill:#ffffff;fill-opacity:1;stroke:#ffffff;stroke-width:2;stroke-miterlimit:4;stroke-opacity:1;stroke-dasharray:none" />
    <path
       d="M 7.111113,10.690628 5.513352,7.804047 2.3,7.804047 3.60621,8.5880837 2.798678,10.031102 c -0.06887,0.130859 -0.103304,0.267511 -0.103301,0.409961 -3e-6,0.142456 0.03443,0.27911 0.103301,0.40996 l 1.271077,2.298282 c 0.05733,-0.166376 0.11466,-0.309011 0.171995,-0.427902 l 1.58098,-2.814812 1.288383,0.784037 z m -2.38799,2.316224 c -0.09194,0.154416 -0.137914,0.320611 -0.13791,0.498585 -4e-6,0.273307 0.09456,0.504931 0.283685,0.694868 0.189119,0.189939 0.415298,0.284906 0.678537,0.284906 l 3.161963,0 0,-2.654413 -3.333432,0 c -0.02308,0.04749 -0.109074,0.201902 -0.257991,0.463243 l -0.394852,0.712811 z m 4.278351,-6.5745954 3.196047,0 L 13.812587,3.54622 12.506901,4.3302555 11.698844,2.8866933 C 11.549912,2.6137609 11.320934,2.4772893 11.011916,2.4772767 l -2.543205,0 c 0.10312,0.1185426 0.189116,0.2372528 0.257992,0.3561331 L 10.289856,5.6482199 10.032389,5.8086154 9.001474,6.4322566 z M 7.437797,2.6197306 C 7.07108,2.6197421 6.796134,2.7859374 6.61296,3.1183163 L 5.015198,5.9690109 C 5.622066,6.3372941 6.360906,6.7767964 7.231719,7.2875185 7.746994,6.372999 8.302478,5.3752843 8.898173,4.2943703 L 8.262635,3.1183163 C 8.079446,2.7859374 7.804501,2.6197421 7.437797,2.6197306 l 0,0 z m 4.106882,9.1751824 0,-0.320793 0,-1.228795 L 9.946393,13.131363 11.544679,16 l 0,-1.55013 1.597761,0 c 0.309366,0 0.54411,-0.136653 0.704231,-0.409962 l 1.271602,-2.298279 c -0.171656,0.04749 -0.314811,0.07123 -0.42946,0.07123 l -3.144134,-0.01795 z m 2.37121,-4.88147 c -0.05735,0.035533 -0.79636,0.4750321 -2.217045,1.3185066 0.710337,1.2708484 1.271764,2.2745434 1.684282,3.0110934 l 1.288383,0 c 0.378233,2e-6 0.658946,-0.166373 0.842142,-0.499132 0.171629,-0.320788 0.165862,-0.647379 -0.01731,-0.979774 l -1.58045,-2.850694 z"
       id="icon"
       style="fill:#1a1a1a;fill-opacity:1;stroke:none" />
  </g>
</svg>
