<?xml version="1.0" encoding="utf-8"?>
<!-- Generator: Adobe Illustrator 14.0.0, SVG Export Plug-In . SVG Version: 6.00 Build 43363)  -->
<!DOCTYPE svg PUBLIC "-//W3C//DTD SVG 1.1//EN" "http://www.w3.org/Graphics/SVG/1.1/DTD/svg11.dtd">
<svg version="1.1" id="Calque_1" xmlns="http://www.w3.org/2000/svg" xmlns:xlink="http://www.w3.org/1999/xlink" x="0px" y="0px"
	 width="400px" height="400px" viewBox="0 0 400 400" enable-background="new 0 0 400 400" xml:space="preserve">
<rect x="-105.845" y="191.461" fill="#009933" stroke="#009933" stroke-width="0.075" width="15.268" height="15.226"/>
<path fill="#FFFFFF" stroke="#009933" stroke-width="0.075" d="M-94.615,198.971c0,0,0.064,0.294-0.23,0.449
	c-0.295,0.154-0.5,0.103-0.667-0.077s-0.128-1.719-0.128-1.719l1.029-0.426L-94.615,198.971z"/>
<polygon fill="#FFFFFF" stroke="#009933" stroke-width="0.075" points="-95.806,197.705 -95.806,199.074 -96.527,198.389 "/>
<polygon fill="#FFFFFF" stroke="#009933" stroke-width="0.075" points="-96.588,198.461 -93.243,201.766 -92.59,201.048 
	-92.59,203.624 -95.127,203.624 -94.474,202.983 -97.192,200.266 -97.192,199.22 "/>
<polygon fill="#FFFFFF" stroke="#009933" stroke-width="0.075" points="-97.326,199.399 -97.326,203.996 -96.358,203.996 
	-98.166,205.842 -100,204.034 -99.024,203.996 -99.024,200.291 -98.23,199.511 "/>
<polygon fill="#FFFFFF" stroke="#009933" stroke-width="0.075" points="-97.515,197.466 -98.179,196.869 -103.076,201.778 
	-103.742,201.043 -103.742,203.624 -101.191,203.624 -101.845,202.971 -98.303,199.454 "/>
<path fill="#FFFFFF" stroke="#009933" stroke-width="0.075" d="M-98.55,194.164l5.051-1.949c0,0,0.551-0.09,0.897,0.064
	c0.346,0.154,1,0.551,1.128,0.756s0.564,1.128,0.564,1.128l-1.628,0.641c0,0,0.089,0.756-0.103,1.038
	c-0.192,0.282-0.539,0.795-0.987,0.975c-0.198,0.079-0.583,0.224-0.983,0.381c-0.506,0.197-1.038,0.414-1.26,0.542
	c-0.397,0.231-1.423,1.615-1.423,1.615s-0.141,0.244-0.474,0.257c-0.333,0.013-0.577-0.09-0.692-0.41
	c-0.115-0.321-0.064-0.526,0.128-0.706S-97,196.779-97,196.779s-0.295-0.462-0.282-0.77c0.013-0.308,0-0.564,0-0.564
	s-0.782,0.154-1.039,0.456c-0.256,0.301-0.179,0.096-0.308,0.557c-0.128,0.462-0.089,0.911-0.089,0.911l-0.77,0.744
	c0,0-0.539-0.397-0.513-0.987c0.025-0.59,0.692-2.218,0.975-2.563C-98.743,194.215-98.55,194.164-98.55,194.164z"/>
</svg>
