<?xml version="1.0" encoding="utf-8"?>
<!-- Generator: Adobe Illustrator 14.0.0, SVG Export Plug-In . SVG Version: 6.00 Build 43363)  -->
<!DOCTYPE svg PUBLIC "-//W3C//DTD SVG 1.1//EN" "http://www.w3.org/Graphics/SVG/1.1/DTD/svg11.dtd">
<svg version="1.1"
	 id="svg2" xmlns:rdf="http://www.w3.org/1999/02/22-rdf-syntax-ns#" sodipodi:docname="amenity_recycling.svg" inkscape:version="0.46" xmlns:svg="http://www.w3.org/2000/svg" xmlns:sodipodi="http://sodipodi.sourceforge.net/DTD/sodipodi-0.dtd" xmlns:inkscape="http://www.inkscape.org/namespaces/inkscape" xmlns:dc="http://purl.org/dc/elements/1.1/" sodipodi:version="0.32" xmlns:cc="http://creativecommons.org/ns#" inkscape:output_extension="org.inkscape.output.svg.inkscape" sodipodi:docbase="s:\Data\FacilityIcons"
	 xmlns="http://www.w3.org/2000/svg" xmlns:xlink="http://www.w3.org/1999/xlink" x="0px" y="0px" width="580px" height="580px"
	 viewBox="0 0 580 580" enable-background="new 0 0 580 580" xml:space="preserve">
<sodipodi:namedview  showgrid="false" inkscape:current-layer="svg2" inkscape:window-y="25" inkscape:window-x="91" inkscape:cy="281.19503" inkscape:cx="361.50137" inkscape:zoom="0.92167712" pagecolor="#ffffff" bordercolor="#666666" borderopacity="1.0" objecttolerance="10.0" gridtolerance="10.0" guidetolerance="10.0" inkscape:window-height="947" inkscape:window-width="1048" inkscape:pageshadow="2" inkscape:pageopacity="0.0" id="base">
	</sodipodi:namedview>
<defs>
	
	
		<inkscape:perspective  inkscape:persp3d-origin="290 : 193.33333 : 1" inkscape:vp_z="580 : 290 : 1" inkscape:vp_y="0 : 1000 : 0" inkscape:vp_x="0 : 290 : 1" sodipodi:type="inkscape:persp3d" id="perspective2441">
		</inkscape:perspective>
	
		<inkscape:perspective  inkscape:persp3d-origin="30 : 20 : 1" inkscape:vp_z="60 : 30 : 1" inkscape:vp_y="0 : 1000 : 0" inkscape:vp_x="0 : 30 : 1" sodipodi:type="inkscape:persp3d" id="perspective3452">
		</inkscape:perspective>
	
		<inkscape:perspective  inkscape:persp3d-origin="372.04724 : 350.78739 : 1" inkscape:vp_z="744.09448 : 526.18109 : 1" inkscape:vp_y="0 : 1000 : 0" inkscape:vp_x="0 : 526.18109 : 1" sodipodi:type="inkscape:persp3d" id="perspective4471">
		</inkscape:perspective>
	
		<inkscape:perspective  inkscape:persp3d-origin="6 : 4 : 1" inkscape:vp_z="12 : 6 : 1" inkscape:vp_y="0 : 1000 : 0" inkscape:vp_x="0 : 6 : 1" sodipodi:type="inkscape:persp3d" id="perspective4668">
		</inkscape:perspective>
</defs>
<g id="layer3" transform="matrix(48.14969,0,0,48.14969,-536.27327,-33.306752)" inkscape:label="Layout" display="none">
	<rect id="rect4134" x="1" y="1" display="inline" fill="none" stroke="#757575" stroke-width="0.1" width="10" height="10"/>
	<rect id="rect4136" x="2" y="2" display="inline" fill="none" stroke="#757575" stroke-width="0.1" width="8" height="8"/>
</g>
<path id="flowRoot3192" fill="#009245" stroke="#FFFFFF" stroke-width="0.18" stroke-linecap="round" stroke-linejoin="round" d="
	M285.488,300.378l-1.867-3.252h-3.754l1.526,0.883l-0.943,1.626c-0.081,0.147-0.121,0.302-0.121,0.462
	c0,0.161,0.04,0.314,0.121,0.462l1.485,2.59c0.067-0.188,0.134-0.348,0.201-0.481l1.847-3.172L285.488,300.378z M282.698,302.988
	c-0.107,0.174-0.161,0.361-0.161,0.562c0,0.309,0.11,0.569,0.332,0.783c0.221,0.214,0.485,0.321,0.792,0.321h3.694v-2.991h-3.895
	c-0.027,0.054-0.127,0.228-0.301,0.521L282.698,302.988z M287.697,295.58h3.735l1.887-3.252l-1.525,0.883l-0.944-1.626
	c-0.174-0.308-0.441-0.462-0.803-0.462h-2.971c0.12,0.134,0.221,0.268,0.301,0.401l1.826,3.172l-0.301,0.181L287.697,295.58z
	 M285.87,291.284c-0.429,0-0.75,0.187-0.964,0.562l-1.867,3.212c0.709,0.415,1.572,0.91,2.59,1.486
	c0.602-1.031,1.251-2.155,1.947-3.373l-0.743-1.325C286.62,291.471,286.298,291.284,285.87,291.284L285.87,291.284z
	 M290.668,301.623v-0.362v-1.384l-1.867,3.252l1.867,3.232v-1.747h1.867c0.361,0,0.636-0.154,0.823-0.462l1.485-2.59
	c-0.2,0.054-0.368,0.08-0.502,0.08L290.668,301.623z M293.438,296.122c-0.066,0.04-0.93,0.535-2.59,1.485
	c0.83,1.433,1.486,2.563,1.968,3.394h1.506c0.441,0,0.77-0.188,0.983-0.562c0.2-0.361,0.194-0.729-0.021-1.104L293.438,296.122z"/>
</svg>
