<?xml version="1.0" encoding="UTF-8" standalone="no"?>
<!-- Created with Inkscape (http://www.inkscape.org/) -->

<svg
   xmlns:dc="http://purl.org/dc/elements/1.1/"
   xmlns:cc="http://creativecommons.org/ns#"
   xmlns:rdf="http://www.w3.org/1999/02/22-rdf-syntax-ns#"
   xmlns:svg="http://www.w3.org/2000/svg"
   xmlns="http://www.w3.org/2000/svg"
   version="1.1"
   width="100%"
   height="100%"
   viewBox="0 0 18 18"
   id="svg2">
  <metadata
     id="metadata8">
    <rdf:RDF>
      <cc:Work
         rdf:about="">
        <dc:format>image/svg+xml</dc:format>
        <dc:type
           rdf:resource="http://purl.org/dc/dcmitype/StillImage" />
        <dc:title></dc:title>
      </cc:Work>
    </rdf:RDF>
  </metadata>
  <defs
     id="defs6" />
  <rect
     width="18"
     height="18"
     x="0"
     y="0"
     id="canvas"
     style="fill:none;stroke:none;visibility:hidden" />
  <g
     id="rental-bicycle">
    <path
       d="M 5.5,2 C 4.1192881,2 3,3.1192881 3,4.5 3,5.8807119 4.1192881,7 5.5,7 6.4253425,7 7.2239846,6.4972377 7.65625,5.75 L 9,5.75 l 1,-1 1,1 1,-1 1,1 0.5,0 L 15,4.5 13.5,3.25 7.65625,3.25 C 7.2239846,2.5027623 6.4253425,2 5.5,2 z m -1,2 C 4.7761424,4 5,4.2238576 5,4.5 5,4.7761424 4.7761424,5 4.5,5 4.2238576,5 4,4.7761424 4,4.5 4,4.2238576 4.2238576,4 4.5,4 z m 5.5,3.4375 0.03125,1 L 11,9 11,10 7.25,10 7,10 7,9 7.5,9 c 1,0 1,-1 0,-1 l -2,0 c -1,0 -1,1 0,1 L 6,9 6,10 5.4375,11.375 c -0.041654,-0.0023 -0.082838,0 -0.125,0 C 4.0420041,11.375 3,12.417004 3,13.6875 3,14.957996 4.0420041,16 5.3125,16 6.5829959,16 7.625,14.957996 7.625,13.6875 7.625,13.447485 7.5695688,13.218899 7.5,13 l 0.5,0 1,0 2.156,-2 2.5e-4,0 0.28125,0.71875 c -0.639639,0.416905 -1.0625,1.158809 -1.0625,1.96875 0,1.270496 1.042004,2.3125 2.3125,2.3125 1.270496,0 2.34375,-1.042004 2.34375,-2.3125 0,-1.270496 -1.073254,-2.3125 -2.34375,-2.3125 -0.04216,0 -0.08335,-0.0023 -0.125,0 L 12,10 12,8.625 z M 6.84375,11 9.956,11 8.65,12.25 l -1.55625,0 C 6.9398886,12.062277 6.7662923,11.851578 6.5625,11.71875 z M 5.3125,12.5 C 5.9750008,12.5 6.5,13.024999 6.5,13.6875 6.5,14.350001 5.9750008,14.875 5.3125,14.875 4.6499993,14.875 4.125,14.350001 4.125,13.6875 4.125,13.024999 4.6499993,12.5 5.3125,12.5 z m 7.375,0 c 0.662501,0 1.1875,0.524999 1.1875,1.1875 0,0.662501 -0.524999,1.1875 -1.1875,1.1875 -0.662501,0 -1.15625,-0.524999 -1.15625,-1.1875 0,-0.662501 0.493749,-1.1875 1.15625,-1.1875 z"
       id="halo"
       style="opacity:0.3;fill:#ffffff;fill-opacity:1;stroke:#ffffff;stroke-width:2;stroke-miterlimit:4;stroke-opacity:1;stroke-dasharray:none" />
    <path
       d="M 5.5,2 C 4.119288,2 3,3.1192881 3,4.5 3,5.8807119 4.119288,7 5.5,7 6.425342,7 7.223985,6.4972377 7.65625,5.75 L 9,5.75 l 1,-1 1,1 1,-1 1,1 0.5,0 L 15,4.5 13.5,3.25 7.65625,3.25 C 7.223985,2.5027623 6.425342,2 5.5,2 z m -1,2 C 4.776142,4 5,4.2238576 5,4.5 5,4.7761424 4.776142,5 4.5,5 4.223858,5 4,4.7761424 4,4.5 4,4.2238576 4.223858,4 4.5,4 z m 5.5,3.4375 0.03125,1 L 11,9 11,10 7.25,10 7,10 7,9 7.5,9 c 1,0 1,-1 0,-1 l -2,0 c -1,0 -1,1 0,1 L 6,9 6,10 5.4375,11.375 c -0.04165,-0.0023 -0.08284,0 -0.125,0 C 4.042004,11.375 3,12.417004 3,13.6875 3,14.957996 4.042004,16 5.3125,16 6.582996,16 7.625,14.957996 7.625,13.6875 7.625,13.447485 7.56957,13.218899 7.5,13 l 0.5,0 1,0 2.156,-2 2.5e-4,0 0.28125,0.71875 c -0.639639,0.416905 -1.0625,1.158809 -1.0625,1.96875 0,1.270496 1.042004,2.3125 2.3125,2.3125 1.270496,0 2.34375,-1.042004 2.34375,-2.3125 0,-1.270496 -1.073254,-2.3125 -2.34375,-2.3125 -0.04216,0 -0.08335,-0.0023 -0.125,0 L 12,10 12,8.625 z M 6.84375,11 9.956,11 8.65,12.25 l -1.55625,0 C 6.939889,12.062277 6.766292,11.851578 6.5625,11.71875 z M 5.3125,12.5 C 5.975001,12.5 6.5,13.024999 6.5,13.6875 6.5,14.350001 5.975001,14.875 5.3125,14.875 4.649999,14.875 4.125,14.350001 4.125,13.6875 4.125,13.024999 4.649999,12.5 5.3125,12.5 z m 7.375,0 c 0.662501,0 1.1875,0.524999 1.1875,1.1875 0,0.662501 -0.524999,1.1875 -1.1875,1.1875 -0.662501,0 -1.15625,-0.524999 -1.15625,-1.1875 0,-0.662501 0.493749,-1.1875 1.15625,-1.1875 z"
       id="icon"
       style="fill:#1a1a1a;stroke:none" />
  </g>
</svg>
