<?xml version="1.0" encoding="UTF-8" standalone="no"?>
<!-- Created with Inkscape (http://www.inkscape.org/) -->

<svg
   xmlns="http://www.w3.org/2000/svg"
   version="1.1"
   width="100%"
   height="100%"
   viewBox="0 0 16 16">
  <path
     d="M 4.5,1 C 3.1192881,1 2,2.1192881 2,3.5 2,4.8807119 3.1192881,6 4.5,6 5.4253425,6 6.2239846,5.4972377 6.65625,4.75 L 8,4.75 l 1,-1 1,1 1,-1 1,1 0.5,0 L 14,3.5 12.5,2.25 6.65625,2.25 C 6.2239846,1.5027623 5.4253425,1 4.5,1 z m -1,2 C 3.7761424,3 4,3.2238576 4,3.5 4,3.7761424 3.7761424,4 3.5,4 3.2238576,4 3,3.7761424 3,3.5 3,3.2238576 3.2238576,3 3.5,3 z m 5.5,3.4375 0.03125,1 L 10,8 10,9 6.25,9 6,9 6,8 6.5,8 c 1,0 1,-1 0,-1 l -2,0 c -1,0 -1,1 0,1 L 5,8 5,9 4.4375,10.375 c -0.041654,-0.0023 -0.082838,0 -0.125,0 C 3.0420041,10.375 2,11.417004 2,12.6875 2,13.957996 3.0420041,15 4.3125,15 5.5829959,15 6.625,13.957996 6.625,12.6875 6.625,12.447485 6.5695688,12.218899 6.5,12 l 0.5,0 1,0 2.156,-2 2.5e-4,0 0.28125,0.71875 C 9.7978612,11.135655 9.375,11.877559 9.375,12.6875 9.375,13.957996 10.417004,15 11.6875,15 c 1.270496,0 2.34375,-1.042004 2.34375,-2.3125 0,-1.270496 -1.073254,-2.3125 -2.34375,-2.3125 -0.04216,0 -0.08335,-0.0023 -0.125,0 L 11,9 11,7.625 z M 5.84375,10 8.956,10 7.65,11.25 l -1.55625,0 C 5.9398886,11.062277 5.7662923,10.851578 5.5625,10.71875 z M 4.3125,11.5 C 4.9750008,11.5 5.5,12.024999 5.5,12.6875 5.5,13.350001 4.9750008,13.875 4.3125,13.875 3.6499993,13.875 3.125,13.350001 3.125,12.6875 3.125,12.024999 3.6499993,11.5 4.3125,11.5 z m 7.375,0 c 0.662501,0 1.1875,0.524999 1.1875,1.1875 0,0.662501 -0.524999,1.1875 -1.1875,1.1875 -0.662501,0 -1.15625,-0.524999 -1.15625,-1.1875 0,-0.662501 0.493749,-1.1875 1.15625,-1.1875 z" />
</svg>
