<?xml version="1.0" encoding="utf-8"?>
<!-- Generator: Adobe Illustrator 14.0.0, SVG Export Plug-In . SVG Version: 6.00 Build 43363)  -->
<!DOCTYPE svg PUBLIC "-//W3C//DTD SVG 1.1//EN" "http://www.w3.org/Graphics/SVG/1.1/DTD/svg11.dtd">
<svg version="1.1"
	 id="svg2" xmlns:rdf="http://www.w3.org/1999/02/22-rdf-syntax-ns#" sodipodi:docname="transport_rental_bicycle.svg" inkscape:version="0.46" xmlns:svg="http://www.w3.org/2000/svg" xmlns:sodipodi="http://sodipodi.sourceforge.net/DTD/sodipodi-0.dtd" xmlns:inkscape="http://www.inkscape.org/namespaces/inkscape" xmlns:dc="http://purl.org/dc/elements/1.1/" sodipodi:version="0.32" xmlns:cc="http://creativecommons.org/ns#" inkscape:output_extension="org.inkscape.output.svg.inkscape"
	 xmlns="http://www.w3.org/2000/svg" xmlns:xlink="http://www.w3.org/1999/xlink" x="0px" y="0px" width="580px" height="580px"
	 viewBox="0 0 580 580" enable-background="new 0 0 580 580" xml:space="preserve">
<defs>
	
	
		<inkscape:perspective  inkscape:persp3d-origin="290 : 193.33333 : 1" inkscape:vp_z="580 : 290 : 1" inkscape:vp_y="0 : 1000 : 0" inkscape:vp_x="0 : 290 : 1" sodipodi:type="inkscape:persp3d" id="perspective24">
		</inkscape:perspective>
</defs>
<sodipodi:namedview  showgrid="false" inkscape:current-layer="svg2" inkscape:window-y="20" inkscape:window-x="0" inkscape:cy="415.25176" inkscape:cx="636.47492" inkscape:zoom="0.70710678" pagecolor="#ffffff" bordercolor="#666666" borderopacity="1.0" objecttolerance="10.0" gridtolerance="10.0" guidetolerance="10.0" inkscape:window-height="1003" inkscape:window-width="1400" inkscape:pageshadow="2" inkscape:pageopacity="0.0" id="base">
	</sodipodi:namedview>
<path id="path596" sodipodi:type="arc" sodipodi:ry="78.380615" sodipodi:rx="78.380615" sodipodi:cy="461.96271" sodipodi:cx="200.53224" fill="none" stroke="#0071BC" stroke-width="0.78" d="
	M281.675,305.564c0,1.355,1.099,2.454,2.454,2.454c1.355,0,2.454-1.099,2.454-2.454c0-1.354-1.098-2.453-2.454-2.453
	C282.774,303.111,281.675,304.21,281.675,305.564z"/>
<path id="path595" sodipodi:type="arc" sodipodi:ry="78.380615" sodipodi:rx="78.380615" sodipodi:cy="461.96271" sodipodi:cx="200.53224" fill="none" stroke="#0071BC" stroke-width="0.78" d="
	M292.19,305.517c0,1.355,1.099,2.454,2.454,2.454c1.354,0,2.453-1.099,2.453-2.454c0-1.354-1.099-2.453-2.453-2.453
	C293.289,303.063,292.19,304.162,292.19,305.517z"/>
<path id="path594" sodipodi:nodetypes="ccccc" fill="none" stroke="#0071BC" stroke-width="0.6535" stroke-linejoin="round" d="
	M292.7,301.343l-6.309,0.031l-2.23,4.143h4.27l4.461-3.027"/>
<path id="path593" sodipodi:nodetypes="ccccscccccsscsccccccccccccssccc" fill="#0071BC" d="M292.458,298.86
	c0.343,0,0.602-0.008,0.867,0.397c0.077,0.136,0.111,0.301,0.083,0.465c-0.033,0.187-0.145,0.37-0.274,0.479
	c-0.173,0.144-0.337,0.133-0.311,0.262c0.034,0.166,0.138,0.396,0.25,0.771c0.114,0.38,0.249,0.846,0.382,1.304
	c0.133,0.459,0.263,0.91,0.365,1.262c0.052,0.177,0.097,0.327,0.132,0.44c0.033,0.11,0.063,0.196,0.061,0.19
	c0.107,0.188,0.122,0.312,0.302,0.473c0.202,0.177,0.366,0.307,0.424,0.347c0.145,0.105,0.212,0.327,0.136,0.438
	c-0.097,0.149-0.296,0.172-0.441,0.128c-0.139-0.044-0.357-0.119-0.61-0.33l-0.003-0.003l-0.003-0.002
	c-0.353-0.303-0.483-0.67-0.496-0.691l-0.019-0.028l-0.013-0.031c-0.031-0.075-0.05-0.142-0.086-0.26
	c-0.036-0.119-0.082-0.272-0.134-0.449c-0.104-0.355-0.233-0.808-0.365-1.265c-0.133-0.458-0.268-0.921-0.38-1.297
	c-0.112-0.375-0.184-0.684-0.21-0.749c-0.063-0.159-0.096-0.332-0.053-0.505c0.044-0.173,0.174-0.312,0.291-0.345
	c0.268-0.074,0.196-0.267,0.06-0.268l-1.146-0.002l-0.003-0.731C291.264,298.86,292.008,298.86,292.458,298.86z"/>
<path id="path599" fill="#FFFFFF" stroke="#0071BC" stroke-width="0.7826" d="M288.349,305.387l-2.163-5.295"/>
<path id="path600" sodipodi:nodetypes="cc" fill="#FFFFFF" stroke="#0071BC" stroke-width="0.2856" stroke-linecap="round" d="
	M289.093,304.035l-1.307,3.042"/>
<path id="path597" sodipodi:type="arc" sodipodi:ry="78.380615" sodipodi:rx="78.380615" sodipodi:cy="461.96271" sodipodi:cx="200.53224" fill="#0071BC" stroke="#0071BC" stroke-width="0.9391" d="
	M287.715,305.524c0,0.338,0.31,0.611,0.691,0.611c0.382,0,0.692-0.273,0.692-0.611c0-0.337-0.31-0.61-0.692-0.61
	C288.025,304.914,287.715,305.188,287.715,305.524z"/>
<path id="path601" sodipodi:nodetypes="cc" fill="#FFFFFF" stroke="#0071BC" stroke-width="0.3991" stroke-linecap="round" d="
	M289.674,304.036l-1.154,0.011"/>
<path id="path602" sodipodi:nodetypes="cc" fill="#FFFFFF" stroke="#0071BC" stroke-width="0.3991" stroke-linecap="round" d="
	M288.374,307.033l-1.154,0.011"/>
<path id="path603" sodipodi:nodetypes="cssccc" fill="#0071BC" d="M285.127,299.619h2.715c0.101,0,0.232,0.179,0.101,0.299
	c-0.142,0.134-1.414,0.411-1.414,0.411s-0.35,0.096-0.535,0.073C285.809,300.379,285.167,300.323,285.127,299.619z"/>
<g id="g2303" transform="matrix(1.1575693,0,0,1.1575693,79.723001,48.80318)">
	<g id="g2305">
		<path id="path2309" fill="#0071BC" d="M178.698,211.22c-1.198-0.008-2.203,1.24-1.948,2.41c0.167,0.979,1.116,1.785,2.125,1.686
			c0.674-0.041,1.306-0.443,1.645-1.022c0.307-0.241,0.767,0.078,1.069-0.182c0.207-0.213,0.38-0.499,0.672-0.595
			c0.234,0.066,0.338,0.319,0.531,0.437c0.194-0.125,0.305-0.42,0.571-0.418c0.187,0.113,0.306,0.312,0.483,0.43
			c0.202-0.129,0.321-0.436,0.595-0.437c0.192,0.108,0.297,0.333,0.497,0.419c0.278-0.251,0.562-0.51,0.794-0.808
			c-0.001-0.169-0.229-0.262-0.32-0.4c-0.188-0.166-0.348-0.473-0.644-0.41c-0.402,0.032-0.812-0.01-1.217,0.007
			c-0.98-0.001-1.969,0.024-2.946-0.024c-0.267-0.23-0.41-0.589-0.739-0.752C179.526,211.332,179.111,211.207,178.698,211.22z
			 M177.883,212.564c0.586-0.015,0.936,0.817,0.51,1.222c-0.345,0.379-1.082,0.257-1.226-0.251
			C177.006,213.079,177.38,212.513,177.883,212.564z"/>
	</g>
</g>
</svg>
