<?xml version="1.0" encoding="UTF-8" standalone="no"?>
<!-- Created with Inkscape (http://www.inkscape.org/) -->

<svg
   xmlns="http://www.w3.org/2000/svg"
   version="1.1"
   width="100%"
   height="100%"
   viewBox="0 0 16 16">
  <path
     d="M 4.5,1 C 3.1192881,1 2,2.1192881 2,3.5 2,4.8807119 3.1192881,6 4.5,6 5.4253425,6 6.2239846,5.4972377 6.65625,4.75 L 8,4.75 l 1,-1 1,1 1,-1 1,1 0.5,0 L 14,3.5 12.5,2.25 6.65625,2.25 C 6.2239846,1.5027623 5.4253425,1 4.5,1 z m -1,2 C 3.7761424,3 4,3.2238576 4,3.5 4,3.7761424 3.7761424,4 3.5,4 3.2238576,4 3,3.7761424 3,3.5 3,3.2238576 3.2238576,3 3.5,3 z M 5,7 4,10 c -0.4726661,0 -1,0.384295 -1,1 l 0,3 1,0 c 0,0 0,1 1,1 1,0 1,-1 1,-1 l 4,0 c 0,0 0,1 1,1 1,0 1,-1 1,-1 l 1,0 0,-3 c 0,-0.520606 -0.455425,-1 -1,-1 L 11,7 z m 1,1 4,0 0.625,2 -5.25,0 z m -1,3.25 c 0.4142136,0 0.75,0.335786 0.75,0.75 0,0.414214 -0.3357864,0.75 -0.75,0.75 -0.4142136,0 -0.75,-0.335786 -0.75,-0.75 0,-0.414214 0.3357864,-0.75 0.75,-0.75 z m 6,0 c 0.414214,0 0.75,0.335786 0.75,0.75 0,0.414214 -0.335786,0.75 -0.75,0.75 -0.414214,0 -0.75,-0.335786 -0.75,-0.75 0,-0.414214 0.335786,-0.75 0.75,-0.75 z" />
</svg>
