<?xml version="1.0" encoding="utf-8"?>
<!-- Generator: Adobe Illustrator 14.0.0, SVG Export Plug-In . SVG Version: 6.00 Build 43363)  -->
<!DOCTYPE svg PUBLIC "-//W3C//DTD SVG 1.1//EN" "http://www.w3.org/Graphics/SVG/1.1/DTD/svg11.dtd">
<svg version="1.1"
	 id="svg2" xmlns:rdf="http://www.w3.org/1999/02/22-rdf-syntax-ns#" sodipodi:docname="transport_rental_car.svg" inkscape:version="0.46" xmlns:svg="http://www.w3.org/2000/svg" xmlns:sodipodi="http://sodipodi.sourceforge.net/DTD/sodipodi-0.dtd" xmlns:inkscape="http://www.inkscape.org/namespaces/inkscape" xmlns:dc="http://purl.org/dc/elements/1.1/" sodipodi:version="0.32" xmlns:cc="http://creativecommons.org/ns#" inkscape:output_extension="org.inkscape.output.svg.inkscape"
	 xmlns="http://www.w3.org/2000/svg" xmlns:xlink="http://www.w3.org/1999/xlink" x="0px" y="0px" width="580px" height="580px"
	 viewBox="0 0 580 580" enable-background="new 0 0 580 580" xml:space="preserve">
<defs>
	
	
		<inkscape:perspective  inkscape:persp3d-origin="290 : 193.33333 : 1" inkscape:vp_z="580 : 290 : 1" inkscape:vp_y="0 : 1000 : 0" inkscape:vp_x="0 : 290 : 1" sodipodi:type="inkscape:persp3d" id="perspective24">
		</inkscape:perspective>
</defs>
<sodipodi:namedview  showgrid="false" inkscape:current-layer="svg2" inkscape:window-y="20" inkscape:window-x="0" inkscape:cy="415.25176" inkscape:cx="636.47492" inkscape:zoom="0.70710678" pagecolor="#ffffff" bordercolor="#666666" borderopacity="1.0" objecttolerance="10.0" gridtolerance="10.0" guidetolerance="10.0" inkscape:window-height="1003" inkscape:window-width="1400" inkscape:pageshadow="2" inkscape:pageopacity="0.0" id="base">
	</sodipodi:namedview>
<g id="g2303" transform="matrix(1.1575693,0,0,1.1575693,83.723001,38.80318)">
	<g id="g2305">
		<path id="path2309" fill="#0071BC" stroke="#0071BC" stroke-width="0.3" stroke-linecap="round" stroke-linejoin="round" d="
			M181.51,218.839c-1.197-0.008-2.203,1.24-1.948,2.41c0.167,0.979,1.116,1.785,2.125,1.686c0.675-0.041,1.305-0.443,1.644-1.022
			c0.308-0.241,0.768,0.078,1.07-0.182c0.207-0.214,0.38-0.499,0.672-0.595c0.234,0.066,0.338,0.319,0.531,0.436
			c0.194-0.124,0.305-0.419,0.571-0.418c0.187,0.113,0.306,0.312,0.483,0.43c0.202-0.129,0.321-0.437,0.595-0.437
			c0.191,0.108,0.297,0.333,0.497,0.419c0.278-0.251,0.562-0.51,0.794-0.808c-0.001-0.169-0.229-0.262-0.32-0.4
			c-0.189-0.167-0.348-0.474-0.645-0.41c-0.401,0.032-0.811-0.01-1.216,0.006c-0.981,0-1.969,0.024-2.945-0.024
			c-0.268-0.23-0.41-0.589-0.739-0.753C182.338,218.95,181.923,218.826,181.51,218.839z M180.695,220.183
			c0.586-0.015,0.936,0.817,0.51,1.222c-0.344,0.379-1.082,0.256-1.227-0.251C179.818,220.698,180.192,220.132,180.695,220.183z"/>
	</g>
</g>
<path id="path2301" fill="#0071BC" d="M294.307,297.937c-0.713,0-1.091,0.389-1.266,0.845l-0.928,2.395
	c-0.367,0.047-1.019,0.479-1.019,1.296v3.044h0.902v0.974c0,1.198,1.695,1.185,1.695,0v-0.974h3.049h0.001h3.05v0.974
	c0,1.185,1.695,1.198,1.695,0v-0.974h0.902v-3.044c0-0.817-0.651-1.249-1.019-1.296l-0.929-2.395
	c-0.175-0.456-0.553-0.845-1.266-0.845h-1.312h-2.231H294.307z M294.296,298.808h2.443h0.002h0.001h2.445
	c0.306,0.003,0.437,0.194,0.523,0.459l0.699,1.884h-3.668h-0.001h-0.002h-3.666l0.699-1.884
	C293.859,299.002,293.99,298.811,294.296,298.808z M292.872,302.067c0.433,0,0.782,0.36,0.782,0.807c0,0.445-0.35,0.808-0.782,0.808
	s-0.783-0.362-0.783-0.808C292.089,302.428,292.439,302.067,292.872,302.067z M300.612,302.067c0.433,0,0.783,0.36,0.783,0.807
	c0,0.445-0.351,0.808-0.783,0.808c-0.432,0-0.783-0.362-0.783-0.808C299.829,302.428,300.181,302.067,300.612,302.067z"/>
</svg>
