<?xml version="1.0" encoding="UTF-8" standalone="no"?>
<!-- Created with Inkscape (http://www.inkscape.org/) -->

<svg
   xmlns="http://www.w3.org/2000/svg"
   version="1.1"
   width="14"
   height="14"
   viewBox="0 0 14 14">
  <rect
     width="14"
     height="14"
     x="0"
     y="0"
     id="canvas"
     style="fill:none;stroke:none;visibility:hidden" />
  <path
     d="M 4,0 C 3,0 1,2 1,5 1,8 3.25,9 3.25,9 l -0.5,5 2.5,0 -0.5,-5 C 4.75,9 7,8 7,5 7,2 5,0 4,0 z M 8,0.75 8,7 c 0,1 1.75,1 1.75,2 l -0.5,5 2.5,0 -0.5,-5 C 11.25,8 13,8 13,7 l 0,-6.25 c 0,-1 -1,-1 -1,0 L 12,6 c 0,0.5632885 -1,0.5632884 -1,0 l 0,-5.25 c 0,-1 -1,-1 -1,0 L 10,6 C 10,6.5273339 9,6.5273339 9,6 L 9,0.75 c 0,-1 -1,-1 -1,0 z"
     id="restaurant" />
</svg>
