<?xml version="1.0" encoding="UTF-8" standalone="no"?>
<!-- Created with Inkscape (http://www.inkscape.org/) -->

<svg
   xmlns="http://www.w3.org/2000/svg"
   version="1.1"
   width="100%"
   height="100%"
   viewBox="0 0 16 16">
  <path
     d="M 5,1 C 4,1 2,3 2,6 c 0,3 2.25,4 2.25,4 l -0.5,5 2.5,0 -0.5,-5 C 5.75,10 8,9 8,6 8,3 6,1 5,1 z M 9,1.75 9,8 c 0,1 1.75,1 1.75,2 l -0.5,5 2.5,0 -0.5,-5 C 12.25,9 14,9 14,8 l 0,-6.25 c 0,-1 -1,-1 -1,0 L 13,7 c 0,0.5632885 -1,0.5632884 -1,0 l 0,-5.25 c 0,-1 -1,-1 -1,0 L 11,7 c 0,0.5273339 -1,0.5273339 -1,0 l 0,-5.25 c 0,-1 -1,-1 -1,0 z" />
</svg>
