<?xml version="1.0" encoding="utf-8"?>
<!-- Generator: Adobe Illustrator 14.0.0, SVG Export Plug-In . SVG Version: 6.00 Build 43363)  -->
<!DOCTYPE svg PUBLIC "-//W3C//DTD SVG 1.1//EN" "http://www.w3.org/Graphics/SVG/1.1/DTD/svg11.dtd">
<svg version="1.1"
	 id="svg2" xmlns:rdf="http://www.w3.org/1999/02/22-rdf-syntax-ns#" sodipodi:docname="food_restaurant.svg" inkscape:version="0.48.1 r9760" xmlns:svg="http://www.w3.org/2000/svg" xmlns:sodipodi="http://sodipodi.sourceforge.net/DTD/sodipodi-0.dtd" xmlns:inkscape="http://www.inkscape.org/namespaces/inkscape" xmlns:dc="http://purl.org/dc/elements/1.1/" xmlns:cc="http://creativecommons.org/ns#"
	 xmlns="http://www.w3.org/2000/svg" xmlns:xlink="http://www.w3.org/1999/xlink" x="0px" y="0px" width="580px" height="580px"
	 viewBox="0 0 580 580" enable-background="new 0 0 580 580" xml:space="preserve">
<path id="path2110" inkscape:connector-curvature="0" fill="#754C24" d="M295.86,287.185c1.242-0.576,2.14-2.244,2.14-4.212
	c0-2.445-2.04-5.123-3.097-5.123s-1.214,15.161-1.214,15.161h2.428L295.86,287.185L295.86,287.185z"/>
<path id="path2112" inkscape:connector-curvature="0" fill="#754C24" d="M288.59,288.175c1.242-0.577,1.696-1.318,1.696-3.286
	l-0.323-6.693c0-0.128-0.104-0.231-0.231-0.231h-0.152c-0.128,0-0.231,0.104-0.231,0.231l0.107,6.693h-0.668l-0.169-6.758
	c0-0.127-0.104-0.231-0.231-0.231h-0.198c-0.127,0-0.231,0.104-0.231,0.231l0.092,6.758h-0.83l0.092-6.758
	c0-0.127-0.104-0.231-0.232-0.231h-0.198c-0.128,0-0.231,0.104-0.231,0.231l-0.169,6.758h-0.655l0.108-6.692
	c0-0.128-0.104-0.232-0.231-0.232h-0.152c-0.128,0-0.231,0.104-0.231,0.232l-0.336,6.692c0,1.968,0.453,2.709,1.695,3.286
	l-0.257,4.835h2.427L288.59,288.175L288.59,288.175z"/>
</svg>
