<?xml version="1.0" encoding="UTF-8" standalone="no"?>
<!-- Created with Inkscape (http://www.inkscape.org/) -->

<svg
   xmlns:dc="http://purl.org/dc/elements/1.1/"
   xmlns:cc="http://creativecommons.org/ns#"
   xmlns:rdf="http://www.w3.org/1999/02/22-rdf-syntax-ns#"
   xmlns:svg="http://www.w3.org/2000/svg"
   xmlns="http://www.w3.org/2000/svg"
   version="1.1"
   width="100%"
   height="100%"
   viewBox="0 0 18 18"
   id="svg2">
  <metadata
     id="metadata8">
    <rdf:RDF>
      <cc:Work
         rdf:about="">
        <dc:format>image/svg+xml</dc:format>
        <dc:type
           rdf:resource="http://purl.org/dc/dcmitype/StillImage" />
        <dc:title></dc:title>
      </cc:Work>
    </rdf:RDF>
  </metadata>
  <defs
     id="defs6" />
  <rect
     width="18"
     height="18"
     x="0"
     y="0"
     id="canvas"
     style="fill:none;stroke:none;visibility:hidden" />
  <g
     id="restaurant">
    <path
       d="M 6,2 C 5,2 3,4 3,7 c 0,3 2.25,4 2.25,4 l -0.5,5 2.5,0 -0.5,-5 C 6.75,11 9,10 9,7 9,4 7,2 6,2 z M 10,2.75 10,9 c 0,1 1.75,1 1.75,2 l -0.5,5 2.5,0 -0.5,-5 C 13.25,10 15,10 15,9 l 0,-6.25 c 0,-1 -1,-1 -1,0 L 14,8 c 0,0.5632885 -1,0.5632884 -1,0 l 0,-5.25 c 0,-1 -1,-1 -1,0 L 12,8 c 0,0.5273339 -1,0.5273339 -1,0 l 0,-5.25 c 0,-1 -1,-1 -1,0 z"
       id="halo"
       style="opacity:0.3;fill:#ffffff;fill-opacity:1;stroke:#ffffff;stroke-width:2;stroke-miterlimit:4;stroke-opacity:1;stroke-dasharray:none" />
    <path
       d="M 6,2 C 5,2 3,4 3,7 c 0,3 2.25,4 2.25,4 l -0.5,5 2.5,0 -0.5,-5 C 6.75,11 9,10 9,7 9,4 7,2 6,2 z M 10,2.75 10,9 c 0,1 1.75,1 1.75,2 l -0.5,5 2.5,0 -0.5,-5 C 13.25,10 15,10 15,9 l 0,-6.25 c 0,-1 -1,-1 -1,0 L 14,8 c 0,0.5632885 -1,0.5632884 -1,0 l 0,-5.25 c 0,-1 -1,-1 -1,0 L 12,8 c 0,0.5273339 -1,0.5273339 -1,0 l 0,-5.25 c 0,-1 -1,-1 -1,0 z"
       id="icon"
       style="fill:#1a1a1a;fill-opacity:1;stroke:none" />
  </g>
</svg>
