<?xml version="1.0" encoding="UTF-8" standalone="no"?>
<svg
   xmlns:dc="http://purl.org/dc/elements/1.1/"
   xmlns:cc="http://creativecommons.org/ns#"
   xmlns:rdf="http://www.w3.org/1999/02/22-rdf-syntax-ns#"
   xmlns:svg="http://www.w3.org/2000/svg"
   xmlns="http://www.w3.org/2000/svg"
   xmlns:sodipodi="http://sodipodi.sourceforge.net/DTD/sodipodi-0.dtd"
   xmlns:inkscape="http://www.inkscape.org/namespaces/inkscape"
   id="Svg"
   width="32"
   height="32"
   version="1.1"
   sodipodi:docname="ridge-lz.svg"
   inkscape:version="0.92.2 5c3e80d, 2017-08-06">
  <sodipodi:namedview
     pagecolor="#ffffff"
     bordercolor="#666666"
     borderopacity="1"
     objecttolerance="10"
     gridtolerance="10"
     guidetolerance="10"
     inkscape:pageopacity="0"
     inkscape:pageshadow="2"
     inkscape:window-width="1030"
     inkscape:window-height="669"
     id="namedview8"
     showgrid="false"
     inkscape:zoom="32"
     inkscape:cx="30.3978"
     inkscape:cy="16.179441"
     inkscape:window-x="0"
     inkscape:window-y="0"
     inkscape:window-maximized="0"
     inkscape:current-layer="Svg" />
  <metadata
     id="metadata911">
    <rdf:RDF>
      <cc:Work
         rdf:about="">
        <dc:format>image/svg+xml</dc:format>
        <dc:type
           rdf:resource="http://purl.org/dc/dcmitype/StillImage" />
        <dc:title></dc:title>
      </cc:Work>
    </rdf:RDF>
  </metadata>
  <defs
     id="defs3" />
  <path
     style="fill:#999999;fill-opacity:1;stroke:none;stroke-width:0.38958707"
     d="m 9.5085656,21.652237 -0.1834121,0.009 -0.049763,0.198724 L 9.4296558,22 9.5753901,21.862359 Z"
     id="path1280"
     inkscape:connector-curvature="0" />
  <path
     style="fill:#999999;fill-opacity:1;stroke:none;stroke-width:0.41066104"
     d="m 13.070862,21.593597 -0.08649,0.204425 0.113098,0.175105 0.209563,-0.03095 0.07734,-0.163703 -0.08316,-0.172662 z"
     id="path1278"
     inkscape:connector-curvature="0" />
  <path
     style="fill:#999999;fill-opacity:1;stroke:none;stroke-width:0.43555003"
     d="m 23.848512,21.485342 -0.07313,0.123796 0.0241,0.116465 0.134611,0.08144 0.134612,-0.07819 0.0067,-0.131125 -0.06482,-0.10262 z"
     id="path1276"
     inkscape:connector-curvature="0" />
  <path
     style="fill:#999999;fill-opacity:1;stroke:none;stroke-width:0.35564312"
     d="m 1.5402416,21.267885 -0.096675,0.009 -0.052941,0.113208 0.00844,0.140084 0.1327368,0.0374 0.097443,-0.03746 0.061381,-0.09366 -0.052941,-0.131125 z"
     id="path1274"
     inkscape:connector-curvature="0" />
  <path
     style="fill:#999999;fill-opacity:1;stroke:none;stroke-width:0.38958862"
     d="m 5.4735827,20.658681 -0.1395983,0.141712 0.013424,0.20687 0.161746,0.0676 0.1174505,-0.10995 0.00738,-0.190579 z"
     id="path1272"
     inkscape:connector-curvature="0" />
  <path
     style="fill:#999999;fill-opacity:1;stroke:none;stroke-width:0.43557182"
     d="m 20.808941,20.582941 -0.142066,0.02606 -0.04383,0.1466 0.07632,0.102619 0.106549,0.03502 0.117129,-0.09855 -0.02569,-0.140085 z"
     id="path1270"
     inkscape:connector-curvature="0" />
  <path
     style="fill:#999999;fill-opacity:1;stroke:none;stroke-width:0.50295502"
     d="m 16.486216,20.110564 -0.106863,0.04561 -0.0902,0.06842 -0.02353,0.15963 0.145098,0.05864 0.172549,-0.03258 0.08235,-0.07981 -0.05294,-0.09773 z"
     id="path1268" />
  <path
     style="fill:#999999;fill-opacity:1;stroke:none;stroke-width:0.36832076"
     d="m 26.720499,19.748951 -0.161905,0.115651 0.05782,0.20524 0.186394,0.0032 0.05578,-0.200354 z"
     id="path1266"
     inkscape:connector-curvature="0" />
  <path
     style="fill:#999999;fill-opacity:1;stroke:none;stroke-width:0.45623046"
     d="m 29.826991,21.300405 -0.121913,0.125425 0.07557,0.129496 0.135011,0.04643 0.176321,-0.0619 0.0131,-0.153115 -0.128966,-0.08063 z"
     id="path1264"
     inkscape:connector-curvature="0" />
  <path
     style="fill:#999999;fill-opacity:1;stroke:none;stroke-width:0.41066104"
     d="m 2.3717519,18.989076 -0.1315175,0.178362 0.1143969,0.186508 0.1984436,0.0081 0.08716,-0.186507 -0.087938,-0.154745 z"
     id="path1262"
     inkscape:connector-curvature="0" />
  <path
     style="fill:#999999;fill-opacity:1;stroke:none;stroke-width:0.4498589"
     d="m 13.955338,18.903556 -0.111407,0.118094 -0.0021,0.10995 0.08488,0.09447 0.185678,-0.0057 0.09337,-0.08389 0.03607,-0.09936 -0.111406,-0.09285 z"
     id="path1260"
     inkscape:connector-curvature="0" />
  <path
     style="fill:#999999;fill-opacity:1;stroke:none;stroke-width:0.35564333"
     d="m 18.886331,18.746368 -0.09922,0.178363 0.08638,0.186507 0.148834,0.0081 0.06479,-0.186508 -0.06537,-0.154745 z"
     id="path1258"
     inkscape:connector-curvature="0" />
  <path
     style="fill:#999999;fill-opacity:1;stroke:none;stroke-width:0.38958773"
     d="m 6.144321,18.599768 -0.098798,0.02688 -0.039664,0.135197 0.046154,0.09692 0.074279,0.06108 0.1031253,-0.04643 0.076442,-0.112393 -0.070673,-0.121352 z"
     id="path1256"
     inkscape:connector-curvature="0" />
  <path
     style="fill:#999999;fill-opacity:1;stroke:none;stroke-width:0.38958651"
     d="m 11.147207,18.374167 -0.129629,0.07411 0.01852,0.132754 0.09852,0.09936 0.09481,0.01059 0.05037,-0.09122 0.03778,-0.156374 -0.08,-0.04643 z"
     id="path1254"
     inkscape:connector-curvature="0" />
  <path
     style="fill:#999999;fill-opacity:1;stroke:none;stroke-width:0.3906619"
     d="m 26.848075,18.348917 -0.117856,0.04073 -0.06888,0.09529 0.04439,0.1523 0.133162,0.02362 0.09413,-0.06353 0.02832,-0.152301 z"
     id="path1252"
     inkscape:connector-curvature="0" />
  <path
     style="fill:#999999;fill-opacity:1;stroke:none;stroke-width:0.38958713"
     d="m 9.3556095,18.322037 -0.1237112,0.06597 -0.050258,0.0961 0.012371,0.114023 0.122938,0.06108 0.096649,-0.04073 0.068041,-0.07493 -0.030928,-0.122166 z"
     id="path1250"
     inkscape:connector-curvature="0" />
  <path
     style="fill:#999999;fill-opacity:1;stroke:none;stroke-width:0.38958612"
     d="m 22.958744,18.162406 -0.113613,0.01792 -0.10099,0.08714 0.04456,0.137641 0.08168,0.06353 0.104702,8e-4 0.06906,-0.121352 -0.02525,-0.105878 z"
     id="path1248"
     inkscape:connector-curvature="0" />
  <path
     style="fill:#999999;fill-opacity:1;stroke:none;stroke-width:0.41066012"
     d="m 1.5913962,17.834186 -0.1691479,0.03583 -0.1117014,0.11891 0.00319,0.105062 0.126595,0.04398 0.2085093,0.02199 0.047872,-0.09285 0.01383,-0.100991 z"
     id="path1246"
     inkscape:connector-curvature="0" />
  <path
     style="fill:#999999;fill-opacity:1;stroke:none;stroke-width:0.38958728"
     d="m 17.223029,17.610214 -0.140575,0.06597 -0.0063,0.142528 0.07225,0.09203 0.149215,0.0114 0.07853,-0.131126 -0.05341,-0.118908 z"
     id="path1244"
     inkscape:connector-curvature="0" />
  <path
     style="fill:#999999;fill-opacity:1;stroke:none;stroke-width:0.47005296"
     d="m 30.43756,17.557274 -0.137968,0.08389 -0.01497,0.147415 0.118717,0.09366 0.158288,0.05783 0.122995,-0.129496 -0.06524,-0.0847 -0.01497,-0.122981 z"
     id="path1242"
     inkscape:connector-curvature="0" />
  <path
     style="fill:#999999;fill-opacity:1;stroke:none;stroke-width:0.44985485"
     d="m 14.579071,17.474204 -0.120087,0.07819 0.0106,0.134383 0.124502,0.09366 0.139513,-0.02117 0.125385,-0.06678 -0.05739,-0.150672 -0.105959,-0.0074 z"
     id="path1240"
     inkscape:connector-curvature="0" />
  <path
     style="fill:#999999;fill-opacity:1;stroke:none;stroke-width:0.38958713"
     d="m 6.6794068,17.461174 -0.1012593,0.0114 -0.080101,0.07574 0.021914,0.140899 0.084635,0.06108 0.095214,0.01547 0.075567,-0.09611 0.02267,-0.138455 z"
     id="path1238"
     inkscape:connector-curvature="0" />
  <path
     style="fill:#999999;fill-opacity:1;stroke:none;stroke-width:0.38958806"
     d="m 25.428246,17.435924 -0.137773,0.04073 -0.04891,0.09773 -0.0032,0.103434 0.105164,0.06923 0.140218,0.0074 0.05462,-0.135197 -0.02527,-0.106693 z"
     id="path1236"
     inkscape:connector-curvature="0" />
  <path
     style="fill:#999999;fill-opacity:1;stroke:none;stroke-width:0.38958728"
     d="m 3.6951446,17.296654 -0.080344,0.04561 -0.067813,0.06841 -0.01769,0.159631 0.1090909,0.05864 0.1297297,-0.03258 0.061179,-0.07981 -0.039067,-0.09773 z"
     id="path1234"
     inkscape:connector-curvature="0" />
  <path
     style="fill:#999999;fill-opacity:1;stroke:none;stroke-width:0.44985664"
     d="m 22.085749,17.286854 -0.18942,0.02606 -0.05844,0.145786 0.101763,0.103434 0.142066,0.03421 0.156171,-0.09773 -0.03526,-0.140899 z"
     id="path1232"
     inkscape:connector-curvature="0" />
  <path
     style="fill:#999999;fill-opacity:1;stroke:none;stroke-width:0.39455038"
     d="m 20.386447,17.199704 -0.198802,0.04153 -0.04311,0.202796 0.123753,0.128682 0.186826,-0.01466 0.08942,-0.206054 z"
     id="path1230"
     inkscape:connector-curvature="0" />
  <path
     style="fill:#999999;fill-opacity:1;stroke:none;stroke-width:0.38958713"
     d="m 9.2563737,17.113374 -0.1195544,0.06597 -0.043069,0.09366 0.060149,0.0847 0.1195543,0.09366 0.068317,-0.06597 0.05198,-0.08389 -0.017822,-0.159631 z"
     id="path1228"
     inkscape:connector-curvature="0" />
  <path
     style="fill:#999999;fill-opacity:1;stroke:none;stroke-width:0.50295502"
     d="m 12.172489,17.093824 -0.200882,0.0057 -0.111478,0.100991 -0.0574,0.127054 0.189845,0.07737 0.10596,-0.05945 0.163354,-0.02606 0.04084,-0.13194 z"
     id="path1226" />
  <path
     style="fill:#999999;fill-opacity:1;stroke:none;stroke-width:0.41066104"
     d="m 28.188529,16.983874 -0.215873,0.114837 0.07801,0.205239 0.247619,0.0032 0.07438,-0.200353 z"
     id="path1224"
     inkscape:connector-curvature="0" />
  <path
     style="fill:#999999;fill-opacity:1;stroke:none;stroke-width:0.50295502"
     d="m 18.327344,16.763974 -0.18375,0.05213 -0.1475,0.09203 0.13375,0.133568 0.14875,-0.0171 0.1825,0.03339 0.135,-0.102619 -0.06375,-0.127869 z"
     id="path1222" />
  <path
     style="fill:#999999;fill-opacity:1;stroke:none;stroke-width:0.38958728"
     d="m 30.189637,16.730584 -0.09926,0.0505 -0.02593,0.157186 0.103704,0.08633 0.107407,-0.0098 0.08889,-0.121352 -0.0563,-0.140898 z"
     id="path1220"
     inkscape:connector-curvature="0" />
  <path
     style="fill:#999999;fill-opacity:1;stroke:none;stroke-width:0.38958725"
     d="m 1.2758855,16.712664 -0.1369564,0.03991 -0.049729,0.09773 -0.00326,0.104248 0.105163,0.06922 0.1410326,0.0074 0.053804,-0.135196 -0.024457,-0.106692 z"
     id="path1218"
     inkscape:connector-curvature="0" />
  <path
     style="fill:#999999;fill-opacity:1;stroke:none;stroke-width:0.41066173"
     d="m 23.579841,16.675204 -0.11695,0.140898 0.03898,0.187322 0.224578,0.06597 0.136442,-0.178363 -0.06865,-0.197096 z"
     id="path1216"
     inkscape:connector-curvature="0" />
  <path
     style="fill:#999999;fill-opacity:1;stroke:none;stroke-width:0.38958743"
     d="m 4.365434,16.619004 -0.054887,0.148228 0.063158,0.07004 0.036842,0.116464 0.1240602,0.01466 0.07594,-0.106692 -0.022556,-0.146599 -0.1015039,-0.06923 z"
     id="path1214"
     inkscape:connector-curvature="0" />
  <path
     style="fill:#999999;fill-opacity:1;stroke:none;stroke-width:0.50295502"
     d="m 2.725874,16.584794 -0.1586903,0.03176 -0.2078087,0.08959 0.054156,0.09366 0.09194,0.08226 0.2405543,0.03909 0.1133502,-0.113208 -0.023929,-0.145786 z"
     id="path1212" />
  <path
     style="fill:#999999;fill-opacity:1;stroke:none;stroke-width:0.38958728"
     d="m 25.685382,16.583994 -0.08034,0.04561 -0.06781,0.06922 -0.01769,0.158817 0.109091,0.05864 0.12973,-0.03176 0.06118,-0.07981 -0.03907,-0.09773 z"
     id="path1210"
     inkscape:connector-curvature="0" />
  <path
     style="fill:#999999;fill-opacity:1;stroke:none;stroke-width:0.38019827"
     d="m 19.860716,16.581494 -0.208219,0.04643 -0.07828,0.191394 0.136203,0.150672 0.171429,-0.03095 0.09237,-0.165331 z"
     id="path1208"
     inkscape:connector-curvature="0" />
  <path
     style="fill:#999999;fill-opacity:1;stroke:none;stroke-width:0.41066208"
     d="m 11.014656,16.579794 -0.203905,0.079 -0.03731,0.177548 0.128417,0.14823 0.236009,-0.04153 0.03557,-0.219085 z"
     id="path1206"
     inkscape:connector-curvature="0" />
  <path
     style="fill:#999999;fill-opacity:1;stroke:none;stroke-width:0.50295502"
     d="M 31.998047,16.515543 31.728516,16.693906 32,16.831547 v -0.316004 z"
     id="path1204" />
  <path
     style="fill:#999999;fill-opacity:1;stroke:none;stroke-width:0.50295502"
     d="m 0,16.515543 v 0.316004 l 0.04296875,0.02199 0.2689859,-0.07149 -0.0393976,-0.210303 z"
     id="path1202"
     inkscape:connector-curvature="0"
     sodipodi:nodetypes="cccccc" />
  <path
     style="fill:#999999;fill-opacity:1;stroke:none;stroke-width:0.50295502"
     d="m 13.063036,16.513043 -0.371694,0.0505 -0.02924,0.210126 0.325755,0.07981 0.274245,-0.158001 z"
     id="path1200" />
  <path
     style="fill:#999999;fill-opacity:1;stroke:none;stroke-width:0.3895869"
     d="m 27.251063,16.463363 -0.08528,0.06109 -0.03883,0.106692 0.08071,0.114022 0.10203,0.01222 0.09137,-0.03421 0.02589,-0.122166 -0.03959,-0.134383 z"
     id="path1198"
     inkscape:connector-curvature="0" />
  <path
     style="fill:#999999;fill-opacity:1;stroke:none;stroke-width:0.50295502"
     d="m 29.258537,16.452773 -0.141107,0.01466 -0.113524,0.0562 0.0032,0.125424 0.09549,0.120538 0.185669,-0.03258 0.09655,-0.08063 0.0191,-0.114023 z"
     id="path1196" />
  <path
     style="fill:#999999;fill-opacity:1;stroke:none;stroke-width:0.50295502"
     d="m 24.824072,16.438113 -0.111675,0.06353 -0.06396,0.0904 0.07614,0.110764 0.151268,0.07167 0.13807,-0.09447 0.03452,-0.105878 -0.04974,-0.107506 z"
     id="path1194" />
  <path
     style="fill:#999999;fill-opacity:1;stroke:none;stroke-width:0.44985664"
     d="m 5.4117951,16.3344 -0.1895216,0.145784 0.092939,0.193838 0.2305239,-0.0171 0.076538,-0.215012 z"
     id="path1192"
     inkscape:connector-curvature="0" />
  <path
     style="fill:#999999;fill-opacity:1;stroke:none;stroke-width:0.50295502"
     d="m 21.856493,16.425113 -0.133907,0.04643 -0.113022,0.06841 -0.02948,0.158817 0.181818,0.05945 0.216217,-0.03258 0.101965,-0.07982 -0.06511,-0.09773 z"
     id="path1190" />
  <path
     style="fill:#999999;fill-opacity:1;stroke:none;stroke-width:0.50295502"
     d="m 17.66745,16.421913 -0.151825,0.06108 0.03357,0.105877 0.129928,0.144157 0.173723,-0.02362 0.160584,-0.04887 0.10219,-0.149857 -0.185402,-0.08552 z"
     id="path1188" />
  <path
     style="fill:#999999;fill-opacity:1;stroke:none;stroke-width:0.41066241"
     d="m 30.550777,16.346983 -0.159037,0.01873 -0.06361,0.12298 0.0694,0.136827 0.146507,0.04073 0.157108,-0.0057 0.02699,-0.158001 -0.09831,-0.05131 z"
     id="path1186"
     inkscape:connector-curvature="0" />
  <path
     style="fill:#999999;fill-opacity:1;stroke:none;stroke-width:0.50295502"
     d="m 15.665124,16.225632 -0.143519,0.07492 -0.146605,0.141714 0.140432,0.06679 0.277152,0.04398 0.123879,0.190118 0.140632,0.114484 0.317902,-0.122167 -0.01852,-0.180807 -0.288581,-0.11565 -0.07407,0.01792 -0.164427,-0.07412 0.024,-0.122166 z"
     id="path1184"
     inkscape:connector-curvature="0"
     sodipodi:nodetypes="cccccccccccccc" />
  <path
     style="fill:#999999;fill-opacity:1;stroke:none;stroke-width:0.50295502"
     d="m 18.125391,16.003289 -0.221829,0.105636 -0.269258,0.09759 0.01272,-0.164948 -0.405042,-0.03176 -0.247915,0.149043 -0.04713,-0.0074 -0.225218,0.08389 -0.02444,0.147414 0.193791,0.09366 0.25839,0.05783 -0.0202,-0.162642 0.186051,-0.149224 0.333462,0.16038 0.24372,-0.118666 0.107202,0.153684 0.425992,-0.09692 0.07158,-0.20524 z"
     id="path1182"
     inkscape:connector-curvature="0"
     sodipodi:nodetypes="ccccccccccccccccccc" />
  <path
     style="fill:#999999;fill-opacity:1;stroke:none;stroke-width:0.41065902"
     d="m 19.024915,15.976409 -0.159057,0.04073 -0.05647,0.09773 -0.0037,0.103435 0.08847,0.0505 -0.108234,0.04316 -0.03388,0.157187 0.131764,0.08552 0.136469,-0.009 0.112941,-0.121352 -0.06588,-0.130311 0.02165,8e-4 0.06306,-0.135198 -0.02918,-0.106692 z"
     id="path1180"
     inkscape:connector-curvature="0" />
  <path
     style="fill:#999999;fill-opacity:1;stroke:none;stroke-width:0.50295502"
     d="m 32,15.950319 -0.07422,0.06679 -0.130859,0.01222 -0.01758,0.0391 -0.02539,-0.0032 -0.0879,0.285028 -0.208977,-0.227208 -0.261719,0.0114 -0.01758,0.0065 -0.06445,-0.09936 -0.308594,-0.03909 -0.242244,0.187504 -0.05854,-0.167964 h -0.240234 l -0.09102,0.160591 -0.168748,-0.119871 -0.09766,0.01385 -0.171875,-0.05783 -0.300781,0.03991 -0.175782,0.09529 0.113282,0.153114 0.205307,-0.109773 0.194412,-0.03513 0.06512,0.19541 0.314454,-0.009 0.02227,-0.165973 0.16718,0.143173 0.134765,-0.02199 0.08784,-0.11381 0.306691,0.15049 0.09961,-0.08959 0.208987,-0.109954 0.0771,0.132788 0.0088,0.13842 0.24414,0.01547 0.158203,-0.07737 0.08984,0.03665 L 32,16.368129 Z"
     id="path1178"
     inkscape:connector-curvature="0"
     sodipodi:nodetypes="ccccccccccccccccccccccccccccccccccccccc" />
  <path
     style="fill:#999999;fill-opacity:1;stroke:none;stroke-width:0.50295502"
     d="m 14.895053,15.930049 -0.219519,0.09936 0.116302,0.282292 -0.421219,0.07005 0.01925,-0.286372 -0.449491,0.009 -0.121955,0.198724 0.245652,0.09122 -0.191643,0.05213 0.08885,0.201981 0.232556,0.02025 0.128329,-0.145325 0.454601,-0.05057 0.15841,0.168315 0.200355,-0.129496 -0.106275,-0.0847 -0.02439,-0.122981 -0.05401,-0.009 -0.03556,-0.170937 0.127912,0.121287 0.275229,-0.05861 -0.03136,-0.144971 -0.153314,-0.08307 z"
     id="path1176"
     inkscape:connector-curvature="0"
     sodipodi:nodetypes="cccccccccccccccccccccccc" />
  <path
     style="fill:#999999;fill-opacity:1;stroke:none;stroke-width:0.50295502"
     d="m 28.903121,15.904629 -0.214663,0.03095 -0.283355,0.08959 0.03778,0.04886 h -0.116776 l -0.05667,0.07819 -0.204359,-0.02769 -0.279921,0.158817 0.10819,0.172661 0.370937,0.07574 -0.003,-0.206375 0.148558,-0.144334 0.306092,0.160945 0.01138,-0.213919 0.225382,0.04589 0.13246,-0.0461 -0.03091,-0.1466 z"
     id="path1174"
     inkscape:connector-curvature="0"
     sodipodi:nodetypes="cccccccccccccccccc" />
  <path
     style="fill:#999999;fill-opacity:1;stroke:none;stroke-width:0.46900746"
     d="m 6.106406,15.883519 -0.1896157,0.0098 -0.078254,0.08389 h -0.040632 l -0.1805864,0.02525 -0.1700522,0.13194 0.1474789,0.108321 0.1915378,0.108593 0.079024,-0.168007 0.073936,-0.107309 0.2131158,-0.03256 0.071273,0.09807 -0.1096953,0.08321 0.025583,0.100177 0.2212183,0.106691 0.1008274,-0.03095 0.0015,-0.1233 0.1385768,0.181243 0.094681,0.15877 0.1926255,0.01059 -0.050012,-0.205311 0.2587415,-0.02167 0.1088015,0.119483 0.1851009,-0.06353 0.055681,-0.1523 -0.2212184,-0.09611 -0.1835962,0.03258 -0.1926255,-0.171846 -0.1232119,0.187691 -0.292136,-0.148631 -0.1128665,0.0065 0.079759,-0.0619 -0.1038372,-0.13194 z"
     id="path1172"
     inkscape:connector-curvature="0"
     sodipodi:nodetypes="cccccccccccccccccccccccccccccccccc" />
  <path
     style="fill:#999999;fill-opacity:1;stroke:none;stroke-width:0.48083097"
     d="M 0.2856121,15.874577 0.03927166,15.912041 0,15.950319 v 0.41781 l 0.11960007,-0.0098 0.0357015,-0.0562 0.12495529,-0.05538 -0.15077206,-0.110516 0.11424484,-0.09801 0.34891476,0.05294 -0.0124956,0.01385 0.28795851,0.08463 -0.33044207,0.03707 -0.0556956,0.110409 0.34397204,0.06965 -0.0628895,0.0965 0.10984967,0.09366 0.36736735,-0.108748 -0.060334,0.151918 0.2811425,-0.0036 0.1957768,-0.177195 0.1799885,-0.06097 0.092824,0.01955 0.2007195,0.01094 0.1300474,-0.125995 0.1030069,0.02546 0.087469,0.08959 0.3927166,-0.03746 0.2343112,0.04625 0.181611,0.101168 0.083432,-0.207367 0.154416,-0.07567 0.1761949,0.03612 0.00263,0.119797 0.1942891,0.01459 0.035235,0.132906 0.2231344,-0.04073 0.1570866,-0.07493 -0.026776,-0.04723 0.3404019,-0.05241 0.2343956,0.11268 L 5,16.281843 4.99274,16.113891 4.6934087,16.079571 4.2591857,16.385273 4.0342693,16.2289 l -0.2726436,0.02592 0.07807,-0.213315 -0.2993314,0.0067 -0.2433315,0.14968 -0.3762183,0.113061 -0.2546233,-0.08137 -0.1028242,-0.16774 -0.3930345,0.238353 -0.1031963,-0.197274 -0.1678174,0.04688 -0.071423,0.124433 -0.2799579,0.120149 -0.2269884,-0.106133 -0.1392359,0.06597 -0.030346,-8e-4 -0.16717561,-0.06855 0.0115554,-0.149683 0.17177951,-0.03204 0.1159347,-0.02907 -0.092824,-0.134383 -0.29743144,0.102461 -0.22202556,-0.04388 -0.0767583,0.0904 -0.0214209,-0.158002 z"
     id="path1170"
     inkscape:connector-curvature="0"
     sodipodi:nodetypes="ccccccccccccccccccccccccccccccccccccccccccccccccccccccccccccccccccccccc" />
  <path
     style="fill:#999999;fill-opacity:1;stroke:none;stroke-width:0.39724064"
     d="m 9.1385627,15.869677 -0.1693534,0.178363 0.137825,0.02543 -0.104929,0.09205 -0.1925024,-0.03285 0.069308,0.120357 -0.098261,0.06968 -0.1355276,-0.0019 -0.026804,0.148228 -0.098688,-0.04073 -0.2716965,0.06027 -0.058482,0.221528 0.2887537,0.109136 0.0771,-0.159092 0.193375,-0.136556 0.047517,0.01547 0.2378705,0.02992 0.078906,-0.14231 -0.1679315,-0.02851 0.1618395,-0.08565 0.1888473,0.04407 -0.083073,-0.132755 0.024014,-0.157097 0.2527798,0.07484 -0.028021,-0.215827 z"
     id="path1168"
     inkscape:connector-curvature="0"
     sodipodi:nodetypes="cccccccccccccccccccccccccc" />
  <path
     style="fill:#999999;fill-opacity:1;stroke:none;stroke-width:0.50295502"
     d="m 23.401814,15.855827 -0.450642,0.09447 0.04471,0.220715 0.110873,0.02932 -0.116237,0.18325 0.388053,0.140084 0.134574,-0.126592 -0.09753,-0.15797 0.331654,-0.04023 0.253613,0.189593 0.105508,-0.06679 0.214592,0.02769 0.06055,-0.102619 0.118602,-0.133647 0.140954,0.164587 0.07224,-0.119338 0.229972,0.03191 0.07512,0.177828 0.345135,-0.02851 0.08762,-0.137641 -0.112661,-0.106692 -0.323675,-0.04805 -0.07154,0.143065 -0.171673,-0.213105 -0.284333,-0.01059 -0.09472,0.07061 -0.171725,0.103995 -0.0912,-0.08584 -0.05364,0.01059 -0.05704,0.107684 -0.223725,-0.167144 -0.230417,0.06292 v 0 z"
     id="path1166"
     inkscape:connector-curvature="0"
     sodipodi:nodetypes="cccccccccccccccccccccccccccccccccc" />
  <path
     style="fill:#999999;fill-opacity:1;stroke:none;stroke-width:0.50295502"
     d="m 26.099005,15.842797 -0.347052,0.141713 0.0317,0.206868 0.370326,-0.04476 -0.05064,0.157756 0.09077,0.07432 0.183537,0.0847 0.01668,-0.0032 -0.165183,0.07004 0.04839,0.140898 0.186874,0.06108 0.210233,0.01547 0.166853,-0.09529 0.05005,-0.13927 -0.306152,0.07359 -0.159365,-0.132231 0.02534,-0.11322 v 0 l 0.431117,-0.07022 0.102497,0.145154 0.205229,-0.06353 0.06174,-0.152301 -0.246941,-0.09692 -0.256952,0.04153 -0.138487,0.08796 -0.110123,-0.07004 -0.05339,-0.0025 -0.111931,-0.05559 0.161981,-0.146386 z"
     id="path1164"
     inkscape:connector-curvature="0"
     sodipodi:nodetypes="cccccccccccccccccccccccccccccc" />
  <path
     style="fill:#999999;fill-opacity:1;stroke:none;stroke-width:0.41066113"
     d="m 7.6631244,15.824067 -0.157265,0.178364 0.1834759,0.159631 0.1686611,-0.03665 0.05584,0.10995 0.1253562,0.06353 0.1595443,8e-4 0.1071225,-0.120538 -0.038746,-0.106692 -0.093447,-0.079 -0.088422,0.122569 -0.2553752,-0.09957 0.1352497,-0.136178 z"
     id="path1162"
     inkscape:connector-curvature="0"
     sodipodi:nodetypes="cccccccccccccc" />
  <path
     style="fill:#999999;fill-opacity:1;stroke:none;stroke-width:0.50295502"
     d="m 2.2250625,15.706788 -0.1215469,0.122981 0.040055,0.116465 0.2237568,0.08226 0.225138,-0.079 0.01105,-0.131125 -0.1077348,-0.101805 z"
     id="path1160" />
  <path
     style="fill:#999999;fill-opacity:1;stroke:none;stroke-width:0.38958535"
     d="m 27.561442,15.686428 -0.118157,0.03991 -0.06828,0.0961 0.0445,0.1523 0.132734,0.02362 0.09437,-0.06353 0.02839,-0.152301 z"
     id="path1158"
     inkscape:connector-curvature="0" />
  <path
     style="fill:#999999;fill-opacity:1;stroke:none;stroke-width:0.50295502"
     d="m 11.321424,16.032597 -0.233202,0.129147 -0.175537,-0.189487 0.04201,-0.02769 -0.04201,-0.158816 -0.294103,-0.02851 -0.295929,0.06597 -0.104124,0.09366 0.0822,0.04723 -0.215415,0.03846 -0.05624,0.107819 0.02608,0.09674 -0.1911,0.01873 -0.1898413,0.04694 0.02375,0.134383 0.257569,0.09366 0.1792483,-0.11492 0.24377,0.02696 0.01174,-0.144156 0.06576,-0.01222 -0.147837,-0.113993 0.235524,-0.0831 -0.07951,-0.09785 0.174632,-0.02407 0.160715,0.08959 0.03638,0.170757 0.0092,0.0032 -0.105951,0.03421 0.02192,0.133568 0.257568,0.09366 0.218309,-0.107108 0.329709,0.01915 -0.120564,-0.150672 -0.120564,-0.0032 0.02664,-0.08227 m 0.484371,0.01953 0.292896,0.129512 0.152941,-0.16002 0.03521,0.20237 0.242955,0.09936 0.23382,0.01059 0.108592,-0.169345 0.290949,-0.131711 0.125312,0.199883 0.112679,-0.05439 0.168059,-0.163704 -0.130065,-0.189101 -0.469102,0.0058 0.120482,-0.09851 -0.0017,-0.182466 -0.298409,-0.0074 -0.196219,0.163899 0.191392,0.176538 0.06211,-0.01792 0.10046,0.149707 -0.378122,0.0026 -0.1676,-0.09858 -0.172168,-0.151455 -0.262993,0.07686 -0.07121,-0.07428 0.07844,-0.136147 -0.09132,-0.132601 -0.29045,0.03665 -0.08243,0.111095 -0.0081,0.112877 0.121551,0.04398 0.197262,-0.01252 0.03838,0.04591 -0.08043,0.122363"
     id="path1156"
     inkscape:connector-curvature="0"
     sodipodi:nodetypes="ccccccccccccccccccccccccccccccccccccccccccccccccccccccccccccccccccccc" />
  <path
     style="fill:#999999;fill-opacity:1;stroke:none;stroke-width:0.50295502"
     d="m 16.432096,15.647328 -0.288775,0.141712 0.0097,0.06597 -0.157513,0.08796 -0.03454,0.144971 0.08567,0.09203 0.181003,-0.0065 0.01393,-0.120861 0.175385,-0.161337 0.08702,0.172228 0.243179,-0.10995 0.01382,-0.191394 z"
     id="path1154"
     inkscape:connector-curvature="0"
     sodipodi:nodetypes="ccccccccccccc" />
  <path
     style="fill:#999999;fill-opacity:1;stroke:none;stroke-width:0.50295502"
     d="m 14.314528,15.639928 -0.18713,0.07412 -0.10396,0.128682 0.19604,0.09855 0.199012,0.01466 0.184159,-0.05294 0.02079,-0.141712 -0.135149,-0.08145 z"
     id="path1152" />
  <path
     style="fill:#999999;fill-opacity:1;stroke:none;stroke-width:0.50295502"
     d="m 31.462758,15.625268 -0.185675,0.0114 -0.107161,0.08552 0.0085,0.154743 0.182492,0.06434 0.145357,-0.06922 0.06366,-0.10995 z"
     id="path1150" />
  <path
     style="fill:#999999;fill-opacity:1;stroke:none;stroke-width:0.50295502"
     d="m 15.574715,15.608168 -0.223153,0.09448 0.04729,0.151486 0.218719,0.05213 0.214286,-0.02281 0.119704,-0.144971 -0.164039,-0.111579 z"
     id="path1148" />
  <path
     style="fill:#999999;fill-opacity:1;stroke:none;stroke-width:0.41066104"
     d="m 3.2928793,15.560908 -0.1327231,0.192208 0.1766591,0.149043 0.2233409,-0.10099 -0.038444,-0.207683 z"
     id="path1146"
     inkscape:connector-curvature="0" />
  <path
     style="fill:#999999;fill-opacity:1;stroke:none;stroke-width:0.38958704"
     d="m 4.83171,15.537288 -0.1110069,0.03746 0.014052,0.158816 0.080094,0.03013 0.077283,0.0847 L 5.001031,15.798744 5.020703,15.66599 4.94342,15.547896 Z"
     id="path1144"
     inkscape:connector-curvature="0" />
  <path
     style="fill:#999999;fill-opacity:1;stroke:none;stroke-width:0.38958535"
     d="m 24.863507,15.533188 -0.05263,0.08144 -0.03158,0.09529 0.05188,0.150672 0.124059,-0.0041 0.103006,-0.09529 0.02105,-0.101806 -0.07744,-0.06679 z"
     id="path1142"
     inkscape:connector-curvature="0" />
  <path
     style="fill:#999999;fill-opacity:1;stroke:none;stroke-width:0.38958806"
     d="m 18.793846,15.527488 -0.10244,0.09855 0.0016,0.10995 0.04472,0.09366 0.125206,0.01222 0.128456,-0.05864 -0.01545,-0.144971 -0.07155,-0.08307 z"
     id="path1140"
     inkscape:connector-curvature="0" />
  <path
     style="fill:#999999;fill-opacity:1;stroke:none;stroke-width:0.50295502"
     d="m 21.344808,15.514458 -0.453508,0.09447 0.04319,0.220714 0.364573,-0.106488 0.321087,0.113822 -0.04499,0.142528 0.229512,0.152163 -0.267305,0.02946 -0.0054,-0.03665 -0.289742,-0.0562 -0.04948,0.136897 -0.371544,0.05107 -0.230443,-0.161093 -0.278941,0.195473 -0.248559,-0.256203 -0.233039,0.08889 -0.144675,0.213738 0.460707,0.05864 0.165566,-0.105063 0.239352,0.168589 0.458907,0.009 0.107978,-0.101805 0.228554,-0.0074 0.206959,-0.07493 -0.0036,-0.02932 0.187162,0.131125 0.458908,0.0081 -0.02121,-0.175458 0.07215,-0.116685 0.244205,0.05758 0.19436,-0.10262 -0.08998,-0.127867 -0.296941,-0.06353 -0.239011,0.217604 -0.124885,-0.08782 -0.0086,-0.185981 -0.29874,0.02525 0.07379,-0.02443 -0.01979,-0.179993 z"
     id="path1138"
     inkscape:connector-curvature="0"
     sodipodi:nodetypes="cccccccccccccccccccccccccccccccccccccccc" />
  <path
     style="fill:#999999;fill-opacity:1;stroke:none;stroke-width:0.44985664"
     d="m 23.103219,15.419978 -0.247796,0.0505 -0.0195,0.210126 0.21717,0.07981 0.18283,-0.158001 z"
     id="path1136"
     inkscape:connector-curvature="0" />
  <path
     style="fill:#999999;fill-opacity:1;stroke:none;stroke-width:0.50295502"
     d="m 17.169693,15.384958 -0.17246,0.08389 -0.01871,0.148228 0.148395,0.09366 0.197862,0.05701 0.153743,-0.129496 -0.08155,-0.08389 -0.01871,-0.122982 z"
     id="path1134" />
  <path
     style="fill:#999999;fill-opacity:1;stroke:none;stroke-width:0.44985664"
     d="m 8.314092,15.336088 -0.2313254,0.06679 -0.018313,0.224786 0.2467471,0.05945 0.1532529,-0.182436 z"
     id="path1132"
     inkscape:connector-curvature="0" />
  <path
     style="fill:#999999;fill-opacity:1;stroke:none;stroke-width:0.50295502"
     d="m 0.76806498,15.269298 -0.1610257,0.07412 -0.0328205,0.127868 0.0266667,0.13194 0.20205133,0.0032 0.0512819,-0.08877 0.12000003,-0.079 -0.0441024,-0.130311 z"
     id="path1130" />
  <path
     style="fill:#999999;fill-opacity:1;stroke:none;stroke-width:0.41066104"
     d="m 6.1947031,15.182968 -0.224,0.09448 0.021333,0.220714 0.1964445,0.103434 0.1822222,-0.122981 -0.00978,-0.179992 z"
     id="path1128"
     inkscape:connector-curvature="0" />
  <path
     style="fill:#999999;fill-opacity:1;stroke:none;stroke-width:0.35564098"
     d="m 28.874456,15.132468 -0.126347,0.07249 -0.04108,0.183249 0.122613,0.158818 0.151865,-0.09692 0.02552,-0.20524 z"
     id="path1126"
     inkscape:connector-curvature="0" />
  <path
     style="fill:#999999;fill-opacity:1;stroke:none;stroke-width:0.43557236"
     d="m 26.075141,14.978538 -0.09075,0.02525 -0.084,0.13194 0.0735,0.10832 0.130501,0.03828 0.08925,-0.03909 0.0068,-0.106692 -0.03375,-0.158002 z"
     id="path1124"
     inkscape:connector-curvature="0" />
  <path
     style="fill:#999999;fill-opacity:1;stroke:none;stroke-width:0.41066071"
     d="m 20.036039,14.932928 -0.160705,0.0065 -0.08918,0.10099 -0.04591,0.126239 0.151876,0.07737 0.08388,-0.05945 0.131567,-0.02525 0.03267,-0.13194 z"
     id="path1122"
     inkscape:connector-curvature="0" />
  <path
     style="fill:#999999;fill-opacity:1;stroke:none;stroke-width:0.41066098"
     d="m 9.9692045,14.919898 -0.2231107,0.09366 0.021333,0.220714 0.1964441,0.104249 0.1822231,-0.122981 -0.0098,-0.179993 z"
     id="path1120"
     inkscape:connector-curvature="0" />
  <path
     style="fill:#999999;fill-opacity:1;stroke:none;stroke-width:0.41066208"
     d="m 14.445427,14.902798 -0.203905,0.07981 -0.03644,0.176735 0.128417,0.149043 0.236009,-0.04235 0.03557,-0.219085 z"
     id="path1118"
     inkscape:connector-curvature="0" />
  <path
     style="fill:#999999;fill-opacity:1;stroke:none;stroke-width:0.41066104"
     d="m 11.698646,14.845788 -0.08732,0.204426 0.113098,0.175919 0.209563,-0.03095 0.07734,-0.163703 -0.08316,-0.173477 z"
     id="path1116"
     inkscape:connector-curvature="0" />
  <path
     style="fill:#999999;fill-opacity:1;stroke:none;stroke-width:0.35564214"
     d="m 30.261173,14.802628 -0.128361,0.149858 0.08215,0.206054 0.190707,-0.0448 0.02714,-0.220714 z"
     id="path1114"
     inkscape:connector-curvature="0" />
  <path
     style="fill:#999999;fill-opacity:1;stroke:none;stroke-width:0.38958728"
     d="m 3.84967,14.780638 -0.1939111,0.01222 -0.028805,0.213384 0.1693208,0.106692 0.1306792,-0.146599 z"
     id="path1112"
     inkscape:connector-curvature="0" />
  <path
     style="fill:#999999;fill-opacity:1;stroke:none;stroke-width:0.41066173"
     d="m 24.731696,14.502098 -0.171149,0.149043 0.109535,0.206869 0.254278,-0.0448 0.03619,-0.220714 z"
     id="path1110"
     inkscape:connector-curvature="0" />
  <path
     style="fill:#999999;fill-opacity:1;stroke:none;stroke-width:0.41066104"
     d="m 17.707761,14.381561 -0.08667,0.204424 0.113333,0.175921 0.21,-0.03095 0.07667,-0.163703 -0.0825,-0.173476 z"
     id="path1108"
     inkscape:connector-curvature="0" />
  <path
     style="fill:#999999;fill-opacity:1;stroke:none;stroke-width:0.38958845"
     d="m 29.855265,12.252065 -0.161906,0.114836 0.05782,0.20524 0.186396,0.0032 0.05578,-0.200354 z"
     id="path1106"
     inkscape:connector-curvature="0" />
  <path
     style="fill:#999999;fill-opacity:1;stroke:none;stroke-width:0.43557182"
     d="m 0.77199878,14.213785 -0.11955447,0.06597 -0.0430693,0.09366 0.0601485,0.0847 0.11955443,0.09366 0.0683169,-0.06597 0.0519802,-0.08389 -0.0178218,-0.159631 z"
     id="path1104"
     inkscape:connector-curvature="0" />
  <path
     style="fill:#999999;fill-opacity:1;stroke:none;stroke-width:0.50295502"
     d="m 8.1681863,14.070443 -0.1192612,0.09448 -0.02744,0.118094 0.1467019,0.113207 0.1762532,-0.0448 0.077045,-0.10262 -0.058047,-0.149043 z"
     id="path1102" />
  <path
     style="fill:#999999;fill-opacity:1;stroke:none;stroke-width:0.35564449"
     d="m 6.1109049,14.043563 -0.1058364,0.01466 -0.085147,0.0562 0.00238,0.126238 0.071619,0.119723 0.1392585,-0.03176 0.072414,-0.08145 0.014323,-0.113207 z"
     id="path1100"
     inkscape:connector-curvature="0" />
  <path
     style="fill:#999999;fill-opacity:1;stroke:none;stroke-width:0.43559742"
     d="m 14.565123,13.985733 -0.07294,0.123795 0.02403,0.115651 0.134269,0.08226 0.135097,-0.07819 0.0066,-0.13194 -0.06465,-0.101806 z"
     id="path1098"
     inkscape:connector-curvature="0" />
  <path
     style="fill:#999999;fill-opacity:1;stroke:none;stroke-width:0.44985798"
     d="m 22.397801,13.790266 -0.149754,0.09366 0.03153,0.151486 0.145813,0.05293 0.142859,-0.02281 0.0798,-0.145785 -0.109361,-0.110765 z"
     id="path1096"
     inkscape:connector-curvature="0" />
  <path
     style="fill:#999999;fill-opacity:1;stroke:none;stroke-width:0.43557209"
     d="m 3.0119896,13.437613 -0.092822,0.0733 -0.05198,0.128682 0.097277,0.09855 0.099505,0.01466 0.092822,-0.05213 0.010396,-0.142527 -0.067574,-0.08145 z"
     id="path1094"
     inkscape:connector-curvature="0" />
  <path
     style="fill:#999999;fill-opacity:1;stroke:none;stroke-width:0.3895908"
     d="m 18.975093,13.390383 -0.157604,0.0171 -0.0128,0.09855 0.0136,0.100991 0.117602,0.106692 0.115203,-0.06597 0.0536,-0.136827 -0.0264,-0.100991 z"
     id="path1092"
     inkscape:connector-curvature="0" />
  <path
     style="fill:#999999;fill-opacity:1;stroke:none;stroke-width:0.38958728"
     d="m 10.844673,13.278805 -0.07319,0.207683 0.145652,0.132754 0.154348,-0.110764 -0.03478,-0.222343 z"
     id="path1090"
     inkscape:connector-curvature="0" />
  <path
     style="fill:#999999;fill-opacity:1;stroke:none;stroke-width:0.43557453"
     d="m 26.92471,13.238895 -0.106351,0.10832 0.0238,0.128682 0.08413,0.0847 0.153178,-0.02851 0.03889,-0.13764 -0.05,-0.106692 z"
     id="path1088"
     inkscape:connector-curvature="0" />
  <path
     style="fill:#999999;fill-opacity:1;stroke:none;stroke-width:0.38958982"
     d="m 20.585052,12.272151 -0.126089,0.07167 -0.041,0.184064 0.122362,0.158002 0.152175,-0.09692 0.02546,-0.204425 z"
     id="path1086"
     inkscape:connector-curvature="0" />
  <path
     style="fill:#999999;fill-opacity:1;stroke:none;stroke-width:0.43557167"
     d="m 1.7977729,11.95695 -0.1173913,0.04073 -0.069054,0.09529 0.044501,0.152301 0.1327364,0.02362 0.094373,-0.06353 0.028389,-0.152304 z"
     id="path1084"
     inkscape:connector-curvature="0" />
  <path
     style="fill:#999999;fill-opacity:1;stroke:none;stroke-width:0.43557203"
     d="m 9.6277041,11.674336 -0.085063,0.06108 -0.038734,0.106692 0.080506,0.114023 0.1017723,0.01222 0.091139,-0.03421 0.026582,-0.122167 -0.040253,-0.134383 z"
     id="path1082"
     inkscape:connector-curvature="0" />
  <path
     style="fill:#999999;fill-opacity:1;stroke:none;stroke-width:0.43557346"
     d="m 13.426505,11.596146 -0.12963,0.07412 0.01852,0.132754 0.09852,0.09936 0.09482,0.0114 0.05037,-0.09203 0.03778,-0.155558 -0.08,-0.04724 z"
     id="path1080"
     inkscape:connector-curvature="0" />
  <path
     style="fill:#999999;fill-opacity:1;stroke:none;stroke-width:0.39455038"
     d="m 28.266284,11.544836 -0.131518,0.178364 0.114397,0.186507 0.198444,0.0081 0.08716,-0.186507 -0.08794,-0.155559 z"
     id="path1078"
     inkscape:connector-curvature="0" />
  <path
     style="fill:#999999;fill-opacity:1;stroke:none;stroke-width:0.43557182"
     d="m 5.9839498,10.751569 -0.097442,0.01466 -0.030691,0.10262 -0.0023,0.16126 0.091304,0.02443 0.095141,-0.0016 0.1135549,-0.105878 -0.048337,-0.124609 z"
     id="path1076"
     inkscape:connector-curvature="0" />
  <path
     style="fill:#999999;fill-opacity:1;stroke:none;stroke-width:0.50295502"
     d="m 22.768064,10.406245 -0.161025,0.07412 -0.03282,0.127868 0.02667,0.13194 0.202051,0.0032 0.05128,-0.08877 0.12,-0.079 -0.0441,-0.130311 z"
     id="path1074" />
  <path
     style="fill:#999999;fill-opacity:1;stroke:none;stroke-width:0.43557346"
     d="m 16.597268,10 -0.09188,0.05213 -0.07375,0.09203 0.0675,0.133568 0.07375,-0.0171 0.09125,0.03339 0.0675,-0.10262 -0.03187,-0.127868 z"
     id="path4362"
     inkscape:connector-curvature="0" />
  <rect
     width="32"
     height="32"
     rx="0"
     x="0"
     y="0"
     id="rect8566"
     style="fill:none;fill-opacity:1;stroke:none" />
  <desc
     id="desc907">Created with Snap</desc>
</svg>
