<?xml version="1.0" encoding="UTF-8" standalone="no"?>
<svg
   xmlns:dc="http://purl.org/dc/elements/1.1/"
   xmlns:cc="http://creativecommons.org/ns#"
   xmlns:rdf="http://www.w3.org/1999/02/22-rdf-syntax-ns#"
   xmlns:svg="http://www.w3.org/2000/svg"
   xmlns="http://www.w3.org/2000/svg"
   version="1.1"
   height="256"
   width="256"
   id="Svg">
  <metadata
     id="metadata722">
    <rdf:RDF>
      <cc:Work
         rdf:about="">
        <dc:format>image/svg+xml</dc:format>
        <dc:type
           rdf:resource="http://purl.org/dc/dcmitype/StillImage" />
      </cc:Work>
    </rdf:RDF>
  </metadata>
  <defs
     id="defs3" />
  <path
     id="path3186"
     d="M 3.5 6.5507812 C 3.249249 6.5503663 2.9990365 6.700245 2.5 7 L 0 9 L 7 9 L 4.5 7 C 4.0020405 6.701905 3.750751 6.5511962 3.5 6.5507812 z M 21.5 6.5507812 C 21.249249 6.5503663 20.999036 6.700245 20.5 7 L 18 9 L 25 9 L 22.5 7 C 22.00204 6.701905 21.750751 6.5511962 21.5 6.5507812 z M 40.5 6.5507812 C 40.249249 6.5503663 39.999036 6.700245 39.5 7 L 37 9 L 44 9 L 41.5 7 C 41.00204 6.701905 40.750751 6.5511962 40.5 6.5507812 z M 58.5 6.5507812 C 58.249249 6.5503663 57.999036 6.700245 57.5 7 L 55 9 L 62 9 L 59.5 7 C 59.00204 6.701905 58.750751 6.5511962 58.5 6.5507812 z M 76.5 6.5507812 C 76.249249 6.5503663 75.999037 6.700245 75.5 7 L 73 9 L 80 9 L 77.5 7 C 77.00204 6.701905 76.750751 6.5511962 76.5 6.5507812 z M 95.5 6.5507812 C 95.249249 6.5503663 94.999037 6.700245 94.5 7 L 92 9 L 99 9 L 96.5 7 C 96.00204 6.701905 95.750751 6.5511962 95.5 6.5507812 z M 113.5 6.5507812 C 113.24925 6.5503663 112.99903 6.700245 112.5 7 L 110 9 L 117 9 L 114.5 7 C 114.00204 6.701905 113.75075 6.5511962 113.5 6.5507812 z M 131.5 6.5507812 C 131.24925 6.5503663 130.99904 6.700245 130.5 7 L 128 9 L 135 9 L 132.5 7 C 132.00204 6.701905 131.75075 6.5511962 131.5 6.5507812 z M 149.5 6.5507812 C 149.24925 6.5503663 148.99904 6.700245 148.5 7 L 146 9 L 153 9 L 150.5 7 C 150.00204 6.701905 149.75075 6.5511962 149.5 6.5507812 z M 168.5 6.5507812 C 168.24925 6.5503663 167.99904 6.700245 167.5 7 L 165 9 L 172 9 L 169.5 7 C 169.00204 6.701905 168.75075 6.5511962 168.5 6.5507812 z M 186.5 6.5507812 C 186.24925 6.5503663 185.99904 6.700245 185.5 7 L 183 9 L 190 9 L 187.5 7 C 187.00204 6.701905 186.75075 6.5511962 186.5 6.5507812 z M 204.5 6.5507812 C 204.24925 6.5503663 203.99904 6.700245 203.5 7 L 201 9 L 208 9 L 205.5 7 C 205.00204 6.701905 204.75075 6.5511962 204.5 6.5507812 z M 223.5 6.5507812 C 223.24925 6.5503663 222.99904 6.700245 222.5 7 L 220 9 L 227 9 L 224.5 7 C 224.00204 6.701905 223.75075 6.5511962 223.5 6.5507812 z M 241.5 6.5507812 C 241.24925 6.5503663 240.99904 6.700245 240.5 7 L 238 9 L 245 9 L 242.5 7 C 242.00204 6.701905 241.75075 6.5511962 241.5 6.5507812 z M 12.5 22.550781 C 12.249249 22.550366 11.999037 22.700245 11.5 23 L 9 25 L 16 25 L 13.5 23 C 13.00204 22.701905 12.750751 22.551196 12.5 22.550781 z M 31.5 22.550781 C 31.249249 22.550366 30.999036 22.700245 30.5 23 L 28 25 L 35 25 L 32.5 23 C 32.00204 22.701905 31.750751 22.551196 31.5 22.550781 z M 49.5 22.550781 C 49.249249 22.550366 48.999036 22.700245 48.5 23 L 46 25 L 53 25 L 50.5 23 C 50.00204 22.701905 49.750751 22.551196 49.5 22.550781 z M 67.5 22.550781 C 67.249249 22.550366 66.999037 22.700245 66.5 23 L 64 25 L 71 25 L 68.5 23 C 68.00204 22.701905 67.750751 22.551196 67.5 22.550781 z M 85.5 22.550781 C 85.249249 22.550366 84.999037 22.700245 84.5 23 L 82 25 L 89 25 L 86.5 23 C 86.00204 22.701905 85.750751 22.551196 85.5 22.550781 z M 104.5 22.550781 C 104.24925 22.550366 103.99903 22.700245 103.5 23 L 101 25 L 108 25 L 105.5 23 C 105.00204 22.701905 104.75075 22.551196 104.5 22.550781 z M 122.5 22.550781 C 122.24925 22.550366 121.99903 22.700245 121.5 23 L 119 25 L 126 25 L 123.5 23 C 123.00204 22.701905 122.75075 22.551196 122.5 22.550781 z M 140.5 22.550781 C 140.24925 22.550366 139.99904 22.700245 139.5 23 L 137 25 L 144 25 L 141.5 23 C 141.00204 22.701905 140.75075 22.551196 140.5 22.550781 z M 159.5 22.550781 C 159.24925 22.550366 158.99904 22.700245 158.5 23 L 156 25 L 163 25 L 160.5 23 C 160.00204 22.701905 159.75075 22.551196 159.5 22.550781 z M 177.5 22.550781 C 177.24925 22.550366 176.99904 22.700245 176.5 23 L 174 25 L 181 25 L 178.5 23 C 178.00204 22.701905 177.75075 22.551196 177.5 22.550781 z M 195.5 22.550781 C 195.24925 22.550366 194.99904 22.700245 194.5 23 L 192 25 L 199 25 L 196.5 23 C 196.00204 22.701905 195.75075 22.551196 195.5 22.550781 z M 213.5 22.550781 C 213.24925 22.550366 212.99904 22.700245 212.5 23 L 210 25 L 217 25 L 214.5 23 C 214.00204 22.701905 213.75075 22.551196 213.5 22.550781 z M 232.5 22.550781 C 232.24925 22.550366 231.99904 22.700245 231.5 23 L 229 25 L 236 25 L 233.5 23 C 233.00204 22.701905 232.75075 22.551196 232.5 22.550781 z M 250.5 22.550781 C 250.24925 22.550366 249.99904 22.700245 249.5 23 L 247 25 L 254 25 L 251.5 23 C 251.00204 22.701905 250.75075 22.551196 250.5 22.550781 z M 3.5 38.550781 C 3.249249 38.550366 2.9990365 38.700245 2.5 39 L 0 41 L 7 41 L 4.5 39 C 4.0020405 38.701905 3.750751 38.551196 3.5 38.550781 z M 21.5 38.550781 C 21.249249 38.550366 20.999036 38.700245 20.5 39 L 18 41 L 25 41 L 22.5 39 C 22.00204 38.701905 21.750751 38.551196 21.5 38.550781 z M 40.5 38.550781 C 40.249249 38.550366 39.999036 38.700245 39.5 39 L 37 41 L 44 41 L 41.5 39 C 41.00204 38.701905 40.750751 38.551196 40.5 38.550781 z M 58.5 38.550781 C 58.249249 38.550366 57.999036 38.700245 57.5 39 L 55 41 L 62 41 L 59.5 39 C 59.00204 38.701905 58.750751 38.551196 58.5 38.550781 z M 76.5 38.550781 C 76.249249 38.550366 75.999037 38.700245 75.5 39 L 73 41 L 80 41 L 77.5 39 C 77.00204 38.701905 76.750751 38.551196 76.5 38.550781 z M 95.5 38.550781 C 95.249249 38.550366 94.999037 38.700245 94.5 39 L 92 41 L 99 41 L 96.5 39 C 96.00204 38.701905 95.750751 38.551196 95.5 38.550781 z M 113.5 38.550781 C 113.24925 38.550366 112.99903 38.700245 112.5 39 L 110 41 L 117 41 L 114.5 39 C 114.00204 38.701905 113.75075 38.551196 113.5 38.550781 z M 131.5 38.550781 C 131.24925 38.550366 130.99904 38.700245 130.5 39 L 128 41 L 135 41 L 132.5 39 C 132.00204 38.701905 131.75075 38.551196 131.5 38.550781 z M 149.5 38.550781 C 149.24925 38.550366 148.99904 38.700245 148.5 39 L 146 41 L 153 41 L 150.5 39 C 150.00204 38.701905 149.75075 38.551196 149.5 38.550781 z M 168.5 38.550781 C 168.24925 38.550366 167.99904 38.700245 167.5 39 L 165 41 L 172 41 L 169.5 39 C 169.00204 38.701905 168.75075 38.551196 168.5 38.550781 z M 186.5 38.550781 C 186.24925 38.550366 185.99904 38.700245 185.5 39 L 183 41 L 190 41 L 187.5 39 C 187.00204 38.701905 186.75075 38.551196 186.5 38.550781 z M 204.5 38.550781 C 204.24925 38.550366 203.99904 38.700245 203.5 39 L 201 41 L 208 41 L 205.5 39 C 205.00204 38.701905 204.75075 38.551196 204.5 38.550781 z M 223.5 38.550781 C 223.24925 38.550366 222.99904 38.700245 222.5 39 L 220 41 L 227 41 L 224.5 39 C 224.00204 38.701905 223.75075 38.551196 223.5 38.550781 z M 241.5 38.550781 C 241.24925 38.550366 240.99904 38.700245 240.5 39 L 238 41 L 245 41 L 242.5 39 C 242.00204 38.701905 241.75075 38.551196 241.5 38.550781 z M 12.5 54.550781 C 12.249249 54.550366 11.999037 54.700245 11.5 55 L 9 57 L 16 57 L 13.5 55 C 13.00204 54.701905 12.750751 54.551196 12.5 54.550781 z M 31.5 54.550781 C 31.249249 54.550366 30.999036 54.700245 30.5 55 L 28 57 L 35 57 L 32.5 55 C 32.00204 54.701905 31.750751 54.551196 31.5 54.550781 z M 49.5 54.550781 C 49.249249 54.550366 48.999036 54.700245 48.5 55 L 46 57 L 53 57 L 50.5 55 C 50.00204 54.701905 49.750751 54.551196 49.5 54.550781 z M 67.5 54.550781 C 67.249249 54.550366 66.999037 54.700245 66.5 55 L 64 57 L 71 57 L 68.5 55 C 68.00204 54.701905 67.750751 54.551196 67.5 54.550781 z M 85.5 54.550781 C 85.249249 54.550366 84.999037 54.700245 84.5 55 L 82 57 L 89 57 L 86.5 55 C 86.00204 54.701905 85.750751 54.551196 85.5 54.550781 z M 104.5 54.550781 C 104.24925 54.550366 103.99903 54.700245 103.5 55 L 101 57 L 108 57 L 105.5 55 C 105.00204 54.701905 104.75075 54.551196 104.5 54.550781 z M 122.5 54.550781 C 122.24925 54.550366 121.99903 54.700245 121.5 55 L 119 57 L 126 57 L 123.5 55 C 123.00204 54.701905 122.75075 54.551196 122.5 54.550781 z M 140.5 54.550781 C 140.24925 54.550366 139.99904 54.700245 139.5 55 L 137 57 L 144 57 L 141.5 55 C 141.00204 54.701905 140.75075 54.551196 140.5 54.550781 z M 159.5 54.550781 C 159.24925 54.550366 158.99904 54.700245 158.5 55 L 156 57 L 163 57 L 160.5 55 C 160.00204 54.701905 159.75075 54.551196 159.5 54.550781 z M 177.5 54.550781 C 177.24925 54.550366 176.99904 54.700245 176.5 55 L 174 57 L 181 57 L 178.5 55 C 178.00204 54.701905 177.75075 54.551196 177.5 54.550781 z M 195.5 54.550781 C 195.24925 54.550366 194.99904 54.700245 194.5 55 L 192 57 L 199 57 L 196.5 55 C 196.00204 54.701905 195.75075 54.551196 195.5 54.550781 z M 213.5 54.550781 C 213.24925 54.550366 212.99904 54.700245 212.5 55 L 210 57 L 217 57 L 214.5 55 C 214.00204 54.701905 213.75075 54.551196 213.5 54.550781 z M 232.5 54.550781 C 232.24925 54.550366 231.99904 54.700245 231.5 55 L 229 57 L 236 57 L 233.5 55 C 233.00204 54.701905 232.75075 54.551196 232.5 54.550781 z M 250.5 54.550781 C 250.24925 54.550366 249.99904 54.700245 249.5 55 L 247 57 L 254 57 L 251.5 55 C 251.00204 54.701905 250.75075 54.551196 250.5 54.550781 z M 3.5 70.550781 C 3.249249 70.550366 2.9990365 70.700245 2.5 71 L 0 73 L 7 73 L 4.5 71 C 4.0020405 70.701905 3.750751 70.551196 3.5 70.550781 z M 21.5 70.550781 C 21.249249 70.550366 20.999036 70.700245 20.5 71 L 18 73 L 25 73 L 22.5 71 C 22.00204 70.701905 21.750751 70.551196 21.5 70.550781 z M 40.5 70.550781 C 40.249249 70.550366 39.999036 70.700245 39.5 71 L 37 73 L 44 73 L 41.5 71 C 41.00204 70.701905 40.750751 70.551196 40.5 70.550781 z M 58.5 70.550781 C 58.249249 70.550366 57.999036 70.700245 57.5 71 L 55 73 L 62 73 L 59.5 71 C 59.00204 70.701905 58.750751 70.551196 58.5 70.550781 z M 76.5 70.550781 C 76.249249 70.550366 75.999037 70.700245 75.5 71 L 73 73 L 80 73 L 77.5 71 C 77.00204 70.701905 76.750751 70.551196 76.5 70.550781 z M 95.5 70.550781 C 95.249249 70.550366 94.999037 70.700245 94.5 71 L 92 73 L 99 73 L 96.5 71 C 96.00204 70.701905 95.750751 70.551196 95.5 70.550781 z M 113.5 70.550781 C 113.24925 70.550366 112.99903 70.700245 112.5 71 L 110 73 L 117 73 L 114.5 71 C 114.00204 70.701905 113.75075 70.551196 113.5 70.550781 z M 131.5 70.550781 C 131.24925 70.550366 130.99904 70.700245 130.5 71 L 128 73 L 135 73 L 132.5 71 C 132.00204 70.701905 131.75075 70.551196 131.5 70.550781 z M 149.5 70.550781 C 149.24925 70.550366 148.99904 70.700245 148.5 71 L 146 73 L 153 73 L 150.5 71 C 150.00204 70.701905 149.75075 70.551196 149.5 70.550781 z M 168.5 70.550781 C 168.24925 70.550366 167.99904 70.700245 167.5 71 L 165 73 L 172 73 L 169.5 71 C 169.00204 70.701905 168.75075 70.551196 168.5 70.550781 z M 186.5 70.550781 C 186.24925 70.550366 185.99904 70.700245 185.5 71 L 183 73 L 190 73 L 187.5 71 C 187.00204 70.701905 186.75075 70.551196 186.5 70.550781 z M 204.5 70.550781 C 204.24925 70.550366 203.99904 70.700245 203.5 71 L 201 73 L 208 73 L 205.5 71 C 205.00204 70.701905 204.75075 70.551196 204.5 70.550781 z M 223.5 70.550781 C 223.24925 70.550366 222.99904 70.700245 222.5 71 L 220 73 L 227 73 L 224.5 71 C 224.00204 70.701905 223.75075 70.551196 223.5 70.550781 z M 241.5 70.550781 C 241.24925 70.550366 240.99904 70.700245 240.5 71 L 238 73 L 245 73 L 242.5 71 C 242.00204 70.701905 241.75075 70.551196 241.5 70.550781 z M 12.5 86.550781 C 12.249249 86.550366 11.999037 86.700245 11.5 87 L 9 89 L 16 89 L 13.5 87 C 13.00204 86.701905 12.750751 86.551196 12.5 86.550781 z M 31.5 86.550781 C 31.249249 86.550366 30.999036 86.700245 30.5 87 L 28 89 L 35 89 L 32.5 87 C 32.00204 86.701905 31.750751 86.551196 31.5 86.550781 z M 49.5 86.550781 C 49.249249 86.550366 48.999036 86.700245 48.5 87 L 46 89 L 53 89 L 50.5 87 C 50.00204 86.701905 49.750751 86.551196 49.5 86.550781 z M 67.5 86.550781 C 67.249249 86.550366 66.999037 86.700245 66.5 87 L 64 89 L 71 89 L 68.5 87 C 68.00204 86.701905 67.750751 86.551196 67.5 86.550781 z M 85.5 86.550781 C 85.249249 86.550366 84.999037 86.700245 84.5 87 L 82 89 L 89 89 L 86.5 87 C 86.00204 86.701905 85.750751 86.551196 85.5 86.550781 z M 104.5 86.550781 C 104.24925 86.550366 103.99903 86.700245 103.5 87 L 101 89 L 108 89 L 105.5 87 C 105.00204 86.701905 104.75075 86.551196 104.5 86.550781 z M 122.5 86.550781 C 122.24925 86.550366 121.99903 86.700245 121.5 87 L 119 89 L 126 89 L 123.5 87 C 123.00204 86.701905 122.75075 86.551196 122.5 86.550781 z M 140.5 86.550781 C 140.24925 86.550366 139.99904 86.700245 139.5 87 L 137 89 L 144 89 L 141.5 87 C 141.00204 86.701905 140.75075 86.551196 140.5 86.550781 z M 159.5 86.550781 C 159.24925 86.550366 158.99904 86.700245 158.5 87 L 156 89 L 163 89 L 160.5 87 C 160.00204 86.701905 159.75075 86.551196 159.5 86.550781 z M 177.5 86.550781 C 177.24925 86.550366 176.99904 86.700245 176.5 87 L 174 89 L 181 89 L 178.5 87 C 178.00204 86.701905 177.75075 86.551196 177.5 86.550781 z M 195.5 86.550781 C 195.24925 86.550366 194.99904 86.700245 194.5 87 L 192 89 L 199 89 L 196.5 87 C 196.00204 86.701905 195.75075 86.551196 195.5 86.550781 z M 213.5 86.550781 C 213.24925 86.550366 212.99904 86.700245 212.5 87 L 210 89 L 217 89 L 214.5 87 C 214.00204 86.701905 213.75075 86.551196 213.5 86.550781 z M 232.5 86.550781 C 232.24925 86.550366 231.99904 86.700245 231.5 87 L 229 89 L 236 89 L 233.5 87 C 233.00204 86.701905 232.75075 86.551196 232.5 86.550781 z M 250.5 86.550781 C 250.24925 86.550366 249.99904 86.700245 249.5 87 L 247 89 L 254 89 L 251.5 87 C 251.00204 86.701905 250.75075 86.551196 250.5 86.550781 z M 3.5 102.55078 C 3.249249 102.55037 2.9990365 102.70025 2.5 103 L 0 105 L 7 105 L 4.5 103 C 4.0020405 102.7019 3.750751 102.5512 3.5 102.55078 z M 21.5 102.55078 C 21.249249 102.55037 20.999036 102.70025 20.5 103 L 18 105 L 25 105 L 22.5 103 C 22.00204 102.7019 21.750751 102.5512 21.5 102.55078 z M 40.5 102.55078 C 40.249249 102.55037 39.999036 102.70025 39.5 103 L 37 105 L 44 105 L 41.5 103 C 41.00204 102.7019 40.750751 102.5512 40.5 102.55078 z M 58.5 102.55078 C 58.249249 102.55037 57.999036 102.70025 57.5 103 L 55 105 L 62 105 L 59.5 103 C 59.00204 102.7019 58.750751 102.5512 58.5 102.55078 z M 76.5 102.55078 C 76.249249 102.55037 75.999037 102.70025 75.5 103 L 73 105 L 80 105 L 77.5 103 C 77.00204 102.7019 76.750751 102.5512 76.5 102.55078 z M 95.5 102.55078 C 95.249249 102.55037 94.999037 102.70025 94.5 103 L 92 105 L 99 105 L 96.5 103 C 96.00204 102.7019 95.750751 102.5512 95.5 102.55078 z M 113.5 102.55078 C 113.24925 102.55037 112.99903 102.70025 112.5 103 L 110 105 L 117 105 L 114.5 103 C 114.00204 102.7019 113.75075 102.5512 113.5 102.55078 z M 131.5 102.55078 C 131.24925 102.55037 130.99904 102.70025 130.5 103 L 128 105 L 135 105 L 132.5 103 C 132.00204 102.7019 131.75075 102.5512 131.5 102.55078 z M 149.5 102.55078 C 149.24925 102.55037 148.99904 102.70025 148.5 103 L 146 105 L 153 105 L 150.5 103 C 150.00204 102.7019 149.75075 102.5512 149.5 102.55078 z M 168.5 102.55078 C 168.24925 102.55037 167.99904 102.70025 167.5 103 L 165 105 L 172 105 L 169.5 103 C 169.00204 102.7019 168.75075 102.5512 168.5 102.55078 z M 186.5 102.55078 C 186.24925 102.55037 185.99904 102.70025 185.5 103 L 183 105 L 190 105 L 187.5 103 C 187.00204 102.7019 186.75075 102.5512 186.5 102.55078 z M 204.5 102.55078 C 204.24925 102.55037 203.99904 102.70025 203.5 103 L 201 105 L 208 105 L 205.5 103 C 205.00204 102.7019 204.75075 102.5512 204.5 102.55078 z M 223.5 102.55078 C 223.24925 102.55037 222.99904 102.70025 222.5 103 L 220 105 L 227 105 L 224.5 103 C 224.00204 102.7019 223.75075 102.5512 223.5 102.55078 z M 241.5 102.55078 C 241.24925 102.55037 240.99904 102.70025 240.5 103 L 238 105 L 245 105 L 242.5 103 C 242.00204 102.7019 241.75075 102.5512 241.5 102.55078 z M 12.5 118.55078 C 12.249249 118.55037 11.999037 118.70025 11.5 119 L 9 121 L 16 121 L 13.5 119 C 13.00204 118.7019 12.750751 118.5512 12.5 118.55078 z M 31.5 118.55078 C 31.249249 118.55037 30.999036 118.70025 30.5 119 L 28 121 L 35 121 L 32.5 119 C 32.00204 118.7019 31.750751 118.5512 31.5 118.55078 z M 49.5 118.55078 C 49.249249 118.55037 48.999036 118.70025 48.5 119 L 46 121 L 53 121 L 50.5 119 C 50.00204 118.7019 49.750751 118.5512 49.5 118.55078 z M 67.5 118.55078 C 67.249249 118.55037 66.999037 118.70025 66.5 119 L 64 121 L 71 121 L 68.5 119 C 68.00204 118.7019 67.750751 118.5512 67.5 118.55078 z M 85.5 118.55078 C 85.249249 118.55037 84.999037 118.70025 84.5 119 L 82 121 L 89 121 L 86.5 119 C 86.00204 118.7019 85.750751 118.5512 85.5 118.55078 z M 104.5 118.55078 C 104.24925 118.55037 103.99903 118.70025 103.5 119 L 101 121 L 108 121 L 105.5 119 C 105.00204 118.7019 104.75075 118.5512 104.5 118.55078 z M 122.5 118.55078 C 122.24925 118.55037 121.99903 118.70025 121.5 119 L 119 121 L 126 121 L 123.5 119 C 123.00204 118.7019 122.75075 118.5512 122.5 118.55078 z M 140.5 118.55078 C 140.24925 118.55037 139.99904 118.70025 139.5 119 L 137 121 L 144 121 L 141.5 119 C 141.00204 118.7019 140.75075 118.5512 140.5 118.55078 z M 159.5 118.55078 C 159.24925 118.55037 158.99904 118.70025 158.5 119 L 156 121 L 163 121 L 160.5 119 C 160.00204 118.7019 159.75075 118.5512 159.5 118.55078 z M 177.5 118.55078 C 177.24925 118.55037 176.99904 118.70025 176.5 119 L 174 121 L 181 121 L 178.5 119 C 178.00204 118.7019 177.75075 118.5512 177.5 118.55078 z M 195.5 118.55078 C 195.24925 118.55037 194.99904 118.70025 194.5 119 L 192 121 L 199 121 L 196.5 119 C 196.00204 118.7019 195.75075 118.5512 195.5 118.55078 z M 213.5 118.55078 C 213.24925 118.55037 212.99904 118.70025 212.5 119 L 210 121 L 217 121 L 214.5 119 C 214.00204 118.7019 213.75075 118.5512 213.5 118.55078 z M 232.5 118.55078 C 232.24925 118.55037 231.99904 118.70025 231.5 119 L 229 121 L 236 121 L 233.5 119 C 233.00204 118.7019 232.75075 118.5512 232.5 118.55078 z M 250.5 118.55078 C 250.24925 118.55037 249.99904 118.70025 249.5 119 L 247 121 L 254 121 L 251.5 119 C 251.00204 118.7019 250.75075 118.5512 250.5 118.55078 z M 3.5 134.55078 C 3.249249 134.55037 2.9990365 134.70024 2.5 135 L 0 137 L 7 137 L 4.5 135 C 4.0020405 134.70191 3.750751 134.5512 3.5 134.55078 z M 21.5 134.55078 C 21.249249 134.55037 20.999036 134.70024 20.5 135 L 18 137 L 25 137 L 22.5 135 C 22.00204 134.70191 21.750751 134.5512 21.5 134.55078 z M 40.5 134.55078 C 40.249249 134.55037 39.999036 134.70024 39.5 135 L 37 137 L 44 137 L 41.5 135 C 41.00204 134.70191 40.750751 134.5512 40.5 134.55078 z M 58.5 134.55078 C 58.249249 134.55037 57.999036 134.70024 57.5 135 L 55 137 L 62 137 L 59.5 135 C 59.00204 134.70191 58.750751 134.5512 58.5 134.55078 z M 76.5 134.55078 C 76.249249 134.55037 75.999037 134.70024 75.5 135 L 73 137 L 80 137 L 77.5 135 C 77.00204 134.70191 76.750751 134.5512 76.5 134.55078 z M 95.5 134.55078 C 95.249249 134.55037 94.999037 134.70024 94.5 135 L 92 137 L 99 137 L 96.5 135 C 96.00204 134.70191 95.750751 134.5512 95.5 134.55078 z M 113.5 134.55078 C 113.24925 134.55037 112.99903 134.70024 112.5 135 L 110 137 L 117 137 L 114.5 135 C 114.00204 134.70191 113.75075 134.5512 113.5 134.55078 z M 131.5 134.55078 C 131.24925 134.55037 130.99904 134.70024 130.5 135 L 128 137 L 135 137 L 132.5 135 C 132.00204 134.70191 131.75075 134.5512 131.5 134.55078 z M 149.5 134.55078 C 149.24925 134.55037 148.99904 134.70024 148.5 135 L 146 137 L 153 137 L 150.5 135 C 150.00204 134.70191 149.75075 134.5512 149.5 134.55078 z M 168.5 134.55078 C 168.24925 134.55037 167.99904 134.70024 167.5 135 L 165 137 L 172 137 L 169.5 135 C 169.00204 134.70191 168.75075 134.5512 168.5 134.55078 z M 186.5 134.55078 C 186.24925 134.55037 185.99904 134.70024 185.5 135 L 183 137 L 190 137 L 187.5 135 C 187.00204 134.70191 186.75075 134.5512 186.5 134.55078 z M 204.5 134.55078 C 204.24925 134.55037 203.99904 134.70024 203.5 135 L 201 137 L 208 137 L 205.5 135 C 205.00204 134.70191 204.75075 134.5512 204.5 134.55078 z M 223.5 134.55078 C 223.24925 134.55037 222.99904 134.70024 222.5 135 L 220 137 L 227 137 L 224.5 135 C 224.00204 134.70191 223.75075 134.5512 223.5 134.55078 z M 241.5 134.55078 C 241.24925 134.55037 240.99904 134.70024 240.5 135 L 238 137 L 245 137 L 242.5 135 C 242.00204 134.70191 241.75075 134.5512 241.5 134.55078 z M 12.5 150.55078 C 12.249249 150.55037 11.999037 150.70024 11.5 151 L 9 153 L 16 153 L 13.5 151 C 13.00204 150.70191 12.750751 150.5512 12.5 150.55078 z M 31.5 150.55078 C 31.249249 150.55037 30.999036 150.70024 30.5 151 L 28 153 L 35 153 L 32.5 151 C 32.00204 150.70191 31.750751 150.5512 31.5 150.55078 z M 49.5 150.55078 C 49.249249 150.55037 48.999036 150.70024 48.5 151 L 46 153 L 53 153 L 50.5 151 C 50.00204 150.70191 49.750751 150.5512 49.5 150.55078 z M 67.5 150.55078 C 67.249249 150.55037 66.999037 150.70024 66.5 151 L 64 153 L 71 153 L 68.5 151 C 68.00204 150.70191 67.750751 150.5512 67.5 150.55078 z M 85.5 150.55078 C 85.249249 150.55037 84.999037 150.70024 84.5 151 L 82 153 L 89 153 L 86.5 151 C 86.00204 150.70191 85.750751 150.5512 85.5 150.55078 z M 104.5 150.55078 C 104.24925 150.55037 103.99903 150.70024 103.5 151 L 101 153 L 108 153 L 105.5 151 C 105.00204 150.70191 104.75075 150.5512 104.5 150.55078 z M 122.5 150.55078 C 122.24925 150.55037 121.99903 150.70024 121.5 151 L 119 153 L 126 153 L 123.5 151 C 123.00204 150.70191 122.75075 150.5512 122.5 150.55078 z M 140.5 150.55078 C 140.24925 150.55037 139.99904 150.70024 139.5 151 L 137 153 L 144 153 L 141.5 151 C 141.00204 150.70191 140.75075 150.5512 140.5 150.55078 z M 159.5 150.55078 C 159.24925 150.55037 158.99904 150.70024 158.5 151 L 156 153 L 163 153 L 160.5 151 C 160.00204 150.70191 159.75075 150.5512 159.5 150.55078 z M 177.5 150.55078 C 177.24925 150.55037 176.99904 150.70024 176.5 151 L 174 153 L 181 153 L 178.5 151 C 178.00204 150.70191 177.75075 150.5512 177.5 150.55078 z M 195.5 150.55078 C 195.24925 150.55037 194.99904 150.70024 194.5 151 L 192 153 L 199 153 L 196.5 151 C 196.00204 150.70191 195.75075 150.5512 195.5 150.55078 z M 213.5 150.55078 C 213.24925 150.55037 212.99904 150.70024 212.5 151 L 210 153 L 217 153 L 214.5 151 C 214.00204 150.70191 213.75075 150.5512 213.5 150.55078 z M 232.5 150.55078 C 232.24925 150.55037 231.99904 150.70024 231.5 151 L 229 153 L 236 153 L 233.5 151 C 233.00204 150.70191 232.75075 150.5512 232.5 150.55078 z M 250.5 150.55078 C 250.24925 150.55037 249.99904 150.70024 249.5 151 L 247 153 L 254 153 L 251.5 151 C 251.00204 150.70191 250.75075 150.5512 250.5 150.55078 z M 3.5 166.55078 C 3.249249 166.55037 2.9990365 166.70024 2.5 167 L 0 169 L 7 169 L 4.5 167 C 4.0020405 166.70191 3.750751 166.5512 3.5 166.55078 z M 21.5 166.55078 C 21.249249 166.55037 20.999036 166.70024 20.5 167 L 18 169 L 25 169 L 22.5 167 C 22.00204 166.70191 21.750751 166.5512 21.5 166.55078 z M 40.5 166.55078 C 40.249249 166.55037 39.999036 166.70024 39.5 167 L 37 169 L 44 169 L 41.5 167 C 41.00204 166.70191 40.750751 166.5512 40.5 166.55078 z M 58.5 166.55078 C 58.249249 166.55037 57.999036 166.70024 57.5 167 L 55 169 L 62 169 L 59.5 167 C 59.00204 166.70191 58.750751 166.5512 58.5 166.55078 z M 76.5 166.55078 C 76.249249 166.55037 75.999037 166.70024 75.5 167 L 73 169 L 80 169 L 77.5 167 C 77.00204 166.70191 76.750751 166.5512 76.5 166.55078 z M 95.5 166.55078 C 95.249249 166.55037 94.999037 166.70024 94.5 167 L 92 169 L 99 169 L 96.5 167 C 96.00204 166.70191 95.750751 166.5512 95.5 166.55078 z M 113.5 166.55078 C 113.24925 166.55037 112.99903 166.70024 112.5 167 L 110 169 L 117 169 L 114.5 167 C 114.00204 166.70191 113.75075 166.5512 113.5 166.55078 z M 131.5 166.55078 C 131.24925 166.55037 130.99904 166.70024 130.5 167 L 128 169 L 135 169 L 132.5 167 C 132.00204 166.70191 131.75075 166.5512 131.5 166.55078 z M 149.5 166.55078 C 149.24925 166.55037 148.99904 166.70024 148.5 167 L 146 169 L 153 169 L 150.5 167 C 150.00204 166.70191 149.75075 166.5512 149.5 166.55078 z M 168.5 166.55078 C 168.24925 166.55037 167.99904 166.70024 167.5 167 L 165 169 L 172 169 L 169.5 167 C 169.00204 166.70191 168.75075 166.5512 168.5 166.55078 z M 186.5 166.55078 C 186.24925 166.55037 185.99904 166.70024 185.5 167 L 183 169 L 190 169 L 187.5 167 C 187.00204 166.70191 186.75075 166.5512 186.5 166.55078 z M 204.5 166.55078 C 204.24925 166.55037 203.99904 166.70024 203.5 167 L 201 169 L 208 169 L 205.5 167 C 205.00204 166.70191 204.75075 166.5512 204.5 166.55078 z M 223.5 166.55078 C 223.24925 166.55037 222.99904 166.70024 222.5 167 L 220 169 L 227 169 L 224.5 167 C 224.00204 166.70191 223.75075 166.5512 223.5 166.55078 z M 241.5 166.55078 C 241.24925 166.55037 240.99904 166.70024 240.5 167 L 238 169 L 245 169 L 242.5 167 C 242.00204 166.70191 241.75075 166.5512 241.5 166.55078 z M 12.5 182.55078 C 12.249249 182.55037 11.999037 182.70024 11.5 183 L 9 185 L 16 185 L 13.5 183 C 13.00204 182.70191 12.750751 182.5512 12.5 182.55078 z M 31.5 182.55078 C 31.249249 182.55037 30.999036 182.70024 30.5 183 L 28 185 L 35 185 L 32.5 183 C 32.00204 182.70191 31.750751 182.5512 31.5 182.55078 z M 49.5 182.55078 C 49.249249 182.55037 48.999036 182.70024 48.5 183 L 46 185 L 53 185 L 50.5 183 C 50.00204 182.70191 49.750751 182.5512 49.5 182.55078 z M 67.5 182.55078 C 67.249249 182.55037 66.999037 182.70024 66.5 183 L 64 185 L 71 185 L 68.5 183 C 68.00204 182.70191 67.750751 182.5512 67.5 182.55078 z M 85.5 182.55078 C 85.249249 182.55037 84.999037 182.70024 84.5 183 L 82 185 L 89 185 L 86.5 183 C 86.00204 182.70191 85.750751 182.5512 85.5 182.55078 z M 104.5 182.55078 C 104.24925 182.55037 103.99903 182.70024 103.5 183 L 101 185 L 108 185 L 105.5 183 C 105.00204 182.70191 104.75075 182.5512 104.5 182.55078 z M 122.5 182.55078 C 122.24925 182.55037 121.99903 182.70024 121.5 183 L 119 185 L 126 185 L 123.5 183 C 123.00204 182.70191 122.75075 182.5512 122.5 182.55078 z M 140.5 182.55078 C 140.24925 182.55037 139.99904 182.70024 139.5 183 L 137 185 L 144 185 L 141.5 183 C 141.00204 182.70191 140.75075 182.5512 140.5 182.55078 z M 159.5 182.55078 C 159.24925 182.55037 158.99904 182.70024 158.5 183 L 156 185 L 163 185 L 160.5 183 C 160.00204 182.70191 159.75075 182.5512 159.5 182.55078 z M 177.5 182.55078 C 177.24925 182.55037 176.99904 182.70024 176.5 183 L 174 185 L 181 185 L 178.5 183 C 178.00204 182.70191 177.75075 182.5512 177.5 182.55078 z M 195.5 182.55078 C 195.24925 182.55037 194.99904 182.70024 194.5 183 L 192 185 L 199 185 L 196.5 183 C 196.00204 182.70191 195.75075 182.5512 195.5 182.55078 z M 213.5 182.55078 C 213.24925 182.55037 212.99904 182.70024 212.5 183 L 210 185 L 217 185 L 214.5 183 C 214.00204 182.70191 213.75075 182.5512 213.5 182.55078 z M 232.5 182.55078 C 232.24925 182.55037 231.99904 182.70024 231.5 183 L 229 185 L 236 185 L 233.5 183 C 233.00204 182.70191 232.75075 182.5512 232.5 182.55078 z M 250.5 182.55078 C 250.24925 182.55037 249.99904 182.70024 249.5 183 L 247 185 L 254 185 L 251.5 183 C 251.00204 182.70191 250.75075 182.5512 250.5 182.55078 z M 3.5 198.55078 C 3.249249 198.55037 2.9990365 198.70024 2.5 199 L 0 201 L 7 201 L 4.5 199 C 4.0020405 198.70191 3.750751 198.5512 3.5 198.55078 z M 21.5 198.55078 C 21.249249 198.55037 20.999036 198.70024 20.5 199 L 18 201 L 25 201 L 22.5 199 C 22.00204 198.70191 21.750751 198.5512 21.5 198.55078 z M 40.5 198.55078 C 40.249249 198.55037 39.999036 198.70024 39.5 199 L 37 201 L 44 201 L 41.5 199 C 41.00204 198.70191 40.750751 198.5512 40.5 198.55078 z M 58.5 198.55078 C 58.249249 198.55037 57.999036 198.70024 57.5 199 L 55 201 L 62 201 L 59.5 199 C 59.00204 198.70191 58.750751 198.5512 58.5 198.55078 z M 76.5 198.55078 C 76.249249 198.55037 75.999037 198.70024 75.5 199 L 73 201 L 80 201 L 77.5 199 C 77.00204 198.70191 76.750751 198.5512 76.5 198.55078 z M 95.5 198.55078 C 95.249249 198.55037 94.999037 198.70024 94.5 199 L 92 201 L 99 201 L 96.5 199 C 96.00204 198.70191 95.750751 198.5512 95.5 198.55078 z M 113.5 198.55078 C 113.24925 198.55037 112.99903 198.70024 112.5 199 L 110 201 L 117 201 L 114.5 199 C 114.00204 198.70191 113.75075 198.5512 113.5 198.55078 z M 131.5 198.55078 C 131.24925 198.55037 130.99904 198.70024 130.5 199 L 128 201 L 135 201 L 132.5 199 C 132.00204 198.70191 131.75075 198.5512 131.5 198.55078 z M 149.5 198.55078 C 149.24925 198.55037 148.99904 198.70024 148.5 199 L 146 201 L 153 201 L 150.5 199 C 150.00204 198.70191 149.75075 198.5512 149.5 198.55078 z M 168.5 198.55078 C 168.24925 198.55037 167.99904 198.70024 167.5 199 L 165 201 L 172 201 L 169.5 199 C 169.00204 198.70191 168.75075 198.5512 168.5 198.55078 z M 186.5 198.55078 C 186.24925 198.55037 185.99904 198.70024 185.5 199 L 183 201 L 190 201 L 187.5 199 C 187.00204 198.70191 186.75075 198.5512 186.5 198.55078 z M 204.5 198.55078 C 204.24925 198.55037 203.99904 198.70024 203.5 199 L 201 201 L 208 201 L 205.5 199 C 205.00204 198.70191 204.75075 198.5512 204.5 198.55078 z M 223.5 198.55078 C 223.24925 198.55037 222.99904 198.70024 222.5 199 L 220 201 L 227 201 L 224.5 199 C 224.00204 198.70191 223.75075 198.5512 223.5 198.55078 z M 241.5 198.55078 C 241.24925 198.55037 240.99904 198.70024 240.5 199 L 238 201 L 245 201 L 242.5 199 C 242.00204 198.70191 241.75075 198.5512 241.5 198.55078 z M 12.5 214.55078 C 12.249249 214.55037 11.999037 214.70024 11.5 215 L 9 217 L 16 217 L 13.5 215 C 13.00204 214.70191 12.750751 214.5512 12.5 214.55078 z M 31.5 214.55078 C 31.249249 214.55037 30.999036 214.70024 30.5 215 L 28 217 L 35 217 L 32.5 215 C 32.00204 214.70191 31.750751 214.5512 31.5 214.55078 z M 49.5 214.55078 C 49.249249 214.55037 48.999036 214.70024 48.5 215 L 46 217 L 53 217 L 50.5 215 C 50.00204 214.70191 49.750751 214.5512 49.5 214.55078 z M 67.5 214.55078 C 67.249249 214.55037 66.999037 214.70024 66.5 215 L 64 217 L 71 217 L 68.5 215 C 68.00204 214.70191 67.750751 214.5512 67.5 214.55078 z M 85.5 214.55078 C 85.249249 214.55037 84.999037 214.70024 84.5 215 L 82 217 L 89 217 L 86.5 215 C 86.00204 214.70191 85.750751 214.5512 85.5 214.55078 z M 104.5 214.55078 C 104.24925 214.55037 103.99903 214.70024 103.5 215 L 101 217 L 108 217 L 105.5 215 C 105.00204 214.70191 104.75075 214.5512 104.5 214.55078 z M 122.5 214.55078 C 122.24925 214.55037 121.99903 214.70024 121.5 215 L 119 217 L 126 217 L 123.5 215 C 123.00204 214.70191 122.75075 214.5512 122.5 214.55078 z M 140.5 214.55078 C 140.24925 214.55037 139.99904 214.70024 139.5 215 L 137 217 L 144 217 L 141.5 215 C 141.00204 214.70191 140.75075 214.5512 140.5 214.55078 z M 159.5 214.55078 C 159.24925 214.55037 158.99904 214.70024 158.5 215 L 156 217 L 163 217 L 160.5 215 C 160.00204 214.70191 159.75075 214.5512 159.5 214.55078 z M 177.5 214.55078 C 177.24925 214.55037 176.99904 214.70024 176.5 215 L 174 217 L 181 217 L 178.5 215 C 178.00204 214.70191 177.75075 214.5512 177.5 214.55078 z M 195.5 214.55078 C 195.24925 214.55037 194.99904 214.70024 194.5 215 L 192 217 L 199 217 L 196.5 215 C 196.00204 214.70191 195.75075 214.5512 195.5 214.55078 z M 213.5 214.55078 C 213.24925 214.55037 212.99904 214.70024 212.5 215 L 210 217 L 217 217 L 214.5 215 C 214.00204 214.70191 213.75075 214.5512 213.5 214.55078 z M 232.5 214.55078 C 232.24925 214.55037 231.99904 214.70024 231.5 215 L 229 217 L 236 217 L 233.5 215 C 233.00204 214.70191 232.75075 214.5512 232.5 214.55078 z M 250.5 214.55078 C 250.24925 214.55037 249.99904 214.70024 249.5 215 L 247 217 L 254 217 L 251.5 215 C 251.00204 214.70191 250.75075 214.5512 250.5 214.55078 z M 3.5 230.55078 C 3.249249 230.55037 2.9990365 230.70024 2.5 231 L 0 233 L 7 233 L 4.5 231 C 4.0020405 230.70191 3.750751 230.5512 3.5 230.55078 z M 21.5 230.55078 C 21.249249 230.55037 20.999036 230.70024 20.5 231 L 18 233 L 25 233 L 22.5 231 C 22.00204 230.70191 21.750751 230.5512 21.5 230.55078 z M 40.5 230.55078 C 40.249249 230.55037 39.999036 230.70024 39.5 231 L 37 233 L 44 233 L 41.5 231 C 41.00204 230.70191 40.750751 230.5512 40.5 230.55078 z M 58.5 230.55078 C 58.249249 230.55037 57.999036 230.70024 57.5 231 L 55 233 L 62 233 L 59.5 231 C 59.00204 230.70191 58.750751 230.5512 58.5 230.55078 z M 76.5 230.55078 C 76.249249 230.55037 75.999037 230.70024 75.5 231 L 73 233 L 80 233 L 77.5 231 C 77.00204 230.70191 76.750751 230.5512 76.5 230.55078 z M 95.5 230.55078 C 95.249249 230.55037 94.999037 230.70024 94.5 231 L 92 233 L 99 233 L 96.5 231 C 96.00204 230.70191 95.750751 230.5512 95.5 230.55078 z M 113.5 230.55078 C 113.24925 230.55037 112.99903 230.70024 112.5 231 L 110 233 L 117 233 L 114.5 231 C 114.00204 230.70191 113.75075 230.5512 113.5 230.55078 z M 131.5 230.55078 C 131.24925 230.55037 130.99904 230.70024 130.5 231 L 128 233 L 135 233 L 132.5 231 C 132.00204 230.70191 131.75075 230.5512 131.5 230.55078 z M 149.5 230.55078 C 149.24925 230.55037 148.99904 230.70024 148.5 231 L 146 233 L 153 233 L 150.5 231 C 150.00204 230.70191 149.75075 230.5512 149.5 230.55078 z M 168.5 230.55078 C 168.24925 230.55037 167.99904 230.70024 167.5 231 L 165 233 L 172 233 L 169.5 231 C 169.00204 230.70191 168.75075 230.5512 168.5 230.55078 z M 186.5 230.55078 C 186.24925 230.55037 185.99904 230.70024 185.5 231 L 183 233 L 190 233 L 187.5 231 C 187.00204 230.70191 186.75075 230.5512 186.5 230.55078 z M 204.5 230.55078 C 204.24925 230.55037 203.99904 230.70024 203.5 231 L 201 233 L 208 233 L 205.5 231 C 205.00204 230.70191 204.75075 230.5512 204.5 230.55078 z M 223.5 230.55078 C 223.24925 230.55037 222.99904 230.70024 222.5 231 L 220 233 L 227 233 L 224.5 231 C 224.00204 230.70191 223.75075 230.5512 223.5 230.55078 z M 241.5 230.55078 C 241.24925 230.55037 240.99904 230.70024 240.5 231 L 238 233 L 245 233 L 242.5 231 C 242.00204 230.70191 241.75075 230.5512 241.5 230.55078 z M 12.5 246.55078 C 12.249249 246.55037 11.999037 246.70024 11.5 247 L 9 249 L 16 249 L 13.5 247 C 13.00204 246.70191 12.750751 246.5512 12.5 246.55078 z M 31.5 246.55078 C 31.249249 246.55037 30.999036 246.70024 30.5 247 L 28 249 L 35 249 L 32.5 247 C 32.00204 246.70191 31.750751 246.5512 31.5 246.55078 z M 49.5 246.55078 C 49.249249 246.55037 48.999036 246.70024 48.5 247 L 46 249 L 53 249 L 50.5 247 C 50.00204 246.70191 49.750751 246.5512 49.5 246.55078 z M 67.5 246.55078 C 67.249249 246.55037 66.999037 246.70024 66.5 247 L 64 249 L 71 249 L 68.5 247 C 68.00204 246.70191 67.750751 246.5512 67.5 246.55078 z M 85.5 246.55078 C 85.249249 246.55037 84.999037 246.70024 84.5 247 L 82 249 L 89 249 L 86.5 247 C 86.00204 246.70191 85.750751 246.5512 85.5 246.55078 z M 104.5 246.55078 C 104.24925 246.55037 103.99903 246.70024 103.5 247 L 101 249 L 108 249 L 105.5 247 C 105.00204 246.70191 104.75075 246.5512 104.5 246.55078 z M 122.5 246.55078 C 122.24925 246.55037 121.99903 246.70024 121.5 247 L 119 249 L 126 249 L 123.5 247 C 123.00204 246.70191 122.75075 246.5512 122.5 246.55078 z M 140.5 246.55078 C 140.24925 246.55037 139.99904 246.70024 139.5 247 L 137 249 L 144 249 L 141.5 247 C 141.00204 246.70191 140.75075 246.5512 140.5 246.55078 z M 159.5 246.55078 C 159.24925 246.55037 158.99904 246.70024 158.5 247 L 156 249 L 163 249 L 160.5 247 C 160.00204 246.70191 159.75075 246.5512 159.5 246.55078 z M 177.5 246.55078 C 177.24925 246.55037 176.99904 246.70024 176.5 247 L 174 249 L 181 249 L 178.5 247 C 178.00204 246.70191 177.75075 246.5512 177.5 246.55078 z M 195.5 246.55078 C 195.24925 246.55037 194.99904 246.70024 194.5 247 L 192 249 L 199 249 L 196.5 247 C 196.00204 246.70191 195.75075 246.5512 195.5 246.55078 z M 213.5 246.55078 C 213.24925 246.55037 212.99904 246.70024 212.5 247 L 210 249 L 217 249 L 214.5 247 C 214.00204 246.70191 213.75075 246.5512 213.5 246.55078 z M 232.5 246.55078 C 232.24925 246.55037 231.99904 246.70024 231.5 247 L 229 249 L 236 249 L 233.5 247 C 233.00204 246.70191 232.75075 246.5512 232.5 246.55078 z M 250.5 246.55078 C 250.24925 246.55037 249.99904 246.70024 249.5 247 L 247 249 L 254 249 L 251.5 247 C 251.00204 246.70191 250.75075 246.5512 250.5 246.55078 z " />
  <rect
     style="fill:none;fill-opacity:1;stroke:none"
     id="rect8566"
     y="0"
     x="0"
     rx="0"
     height="256"
     width="256" />
  <desc
     id="desc718">Created with Snap</desc>
</svg>
