<?xml version="1.0" encoding="UTF-8" standalone="no"?>
<!-- Created with Inkscape (http://www.inkscape.org/) -->

<svg
   xmlns:dc="http://purl.org/dc/elements/1.1/"
   xmlns:cc="http://creativecommons.org/ns#"
   xmlns:rdf="http://www.w3.org/1999/02/22-rdf-syntax-ns#"
   xmlns:svg="http://www.w3.org/2000/svg"
   xmlns="http://www.w3.org/2000/svg"
   version="1.1"
   width="100%"
   height="100%"
   viewBox="0 0 18 18"
   id="svg2">
  <metadata
     id="metadata8">
    <rdf:RDF>
      <cc:Work
         rdf:about="">
        <dc:format>image/svg+xml</dc:format>
        <dc:type
           rdf:resource="http://purl.org/dc/dcmitype/StillImage" />
        <dc:title></dc:title>
      </cc:Work>
    </rdf:RDF>
  </metadata>
  <defs
     id="defs6" />
  <rect
     width="18"
     height="18"
     x="0"
     y="0"
     id="canvas"
     style="fill:none;stroke:none;visibility:hidden" />
  <g
     id="shintoist">
    <path
       d="m 2,2.000387 c 0,1 0.6545446,1.654855 1,2 0.3454553,0.345145 0.8426782,0.2121799 0.8426782,0.4724826 0,0 0.1573217,0.5275173 0.6573217,0.5275173 l 1.2500001,0 c 0,0.2876366 0.2500001,0.5 0.2500001,0.5 0,0 -0.2500001,0.1404543 -0.2500001,0.5000002 l -1.2500001,0 c -0.5,0 -0.5,0.2499999 -0.5,0.5 0,0.5273339 0,0.9999999 0,0.9999999 0,0.2396973 0.2311002,0.5 0.5,0.5 0.2689,0 1.2500003,0 1.2500001,0 l 0,1 -0.7499999,0 c 0,0.406026 0.2706055,0.731586 0.7499999,1 0,0.316353 0,5.5 0,5.5 0,0.658649 1.4999999,0.715727 1.4999999,0 l 0,-7.5 3.5000001,0 0,7.5 c 0,0.691758 1.5,0.643818 1.5,0 0,0 -10e-7,-5.183647 0,-5.5 0.479394,-0.311606 0.75,-0.592515 0.75,-1 l -0.75,0 0,-1 c 0,0 0.981099,0 1.25,0 0.220961,0 0.5,-0.2603027 0.5,-0.5 0,0 0,-0.4999999 0,-0.9999999 0,-0.5 -0.274339,-0.5 -0.5,-0.5 l -1.25,0 c 0.02397,-0.2636668 -0.25,-0.5 -0.25,-0.5 0,0 0.25,-0.2123634 0.25,-0.5000002 l 1.25,0 c 0.5,0 0.5,-0.5 0.5,-0.5 0,-0.236333 0.582844,-0.1386127 1,-0.4999999 0.417156,-0.3613872 1,-1 1,-2 -6.0000001,1 -9,1 -14,0 z m 5.2499999,2.9999999 c -1.463e-4,0 1.0000002,0 1.0000002,0 l 0,1.0000002 -1.0000002,0 C 7.2499999,5.7127505 7,5.5003869 7,5.5003869 c 0,0 0.2499999,-0.1883936 0.2499999,-0.5 z m 2.5000001,0 1,0 c 0,0.2647543 0.25,0.5 0.25,0.5 0,0 -0.25,0.2363334 -0.25,0.5000002 l -1,0 z"
       id="halo"
       style="opacity:0.3;fill:#ffffff;fill-opacity:1;stroke:#ffffff;stroke-width:2;stroke-miterlimit:4;stroke-opacity:1;stroke-dasharray:none" />
    <path
       d="m 2,2.000387 c 0,1 0.654545,1.654855 1,2 0.345455,0.345145 0.842678,0.2121799 0.842678,0.4724826 0,0 0.157322,0.5275173 0.657322,0.5275173 l 1.25,0 c 0,0.2876366 0.25,0.5 0.25,0.5 0,0 -0.25,0.1404543 -0.25,0.5000002 l -1.25,0 c -0.5,0 -0.5,0.2499999 -0.5,0.5 0,0.5273339 0,0.9999999 0,0.9999999 0,0.2396973 0.2311,0.5 0.5,0.5 0.2689,0 1.25,0 1.25,0 l 0,1 -0.75,0 c 0,0.406026 0.270606,0.731586 0.75,1 0,0.316353 0,5.5 0,5.5 0,0.658649 1.5,0.715727 1.5,0 l 0,-7.5 3.5,0 0,7.5 c 0,0.691758 1.5,0.643818 1.5,0 0,0 -10e-7,-5.183647 0,-5.5 0.479394,-0.311606 0.75,-0.592515 0.75,-1 l -0.75,0 0,-1 c 0,0 0.981099,0 1.25,0 0.220961,0 0.5,-0.2603027 0.5,-0.5 0,0 0,-0.4999999 0,-0.9999999 0,-0.5 -0.274339,-0.5 -0.5,-0.5 l -1.25,0 c 0.02397,-0.2636668 -0.25,-0.5 -0.25,-0.5 0,0 0.25,-0.2123634 0.25,-0.5000002 l 1.25,0 c 0.5,0 0.5,-0.5 0.5,-0.5 0,-0.236333 0.582844,-0.1386127 1,-0.4999999 0.417156,-0.3613872 1,-1 1,-2 -6,1 -9,1 -14,0 z m 5.25,2.9999999 c -1.46e-4,0 1,0 1,0 l 0,1.0000002 -1,0 C 7.25,5.7127505 7,5.5003869 7,5.5003869 c 0,0 0.25,-0.1883936 0.25,-0.5 z m 2.5,0 1,0 c 0,0.2647543 0.25,0.5 0.25,0.5 0,0 -0.25,0.2363334 -0.25,0.5000002 l -1,0 z"
       id="icon"
       style="fill:#1a1a1a;fill-opacity:1;stroke:none" />
  </g>
</svg>
