<?xml version="1.0" encoding="utf-8"?>
<!-- Generator: Adobe Illustrator 14.0.0, SVG Export Plug-In . SVG Version: 6.00 Build 43363)  -->
<!DOCTYPE svg PUBLIC "-//W3C//DTD SVG 1.1//EN" "http://www.w3.org/Graphics/SVG/1.1/DTD/svg11.dtd">
<svg version="1.1" id="Calque_1" xmlns="http://www.w3.org/2000/svg" xmlns:xlink="http://www.w3.org/1999/xlink" x="0px" y="0px"
	 width="400px" height="400px" viewBox="0 0 400 400" enable-background="new 0 0 400 400" xml:space="preserve">
<path id="path2470" fill="#903B89" d="M206.745,204.619c-0.276,0.041-0.917-1.29-0.579-1.662c0.721-0.998,1.914-1.592,2.447-2.737
	c0.102-0.278,0.35-0.371,0.605-0.468c0.502-0.213,0.924-0.656,1.336-1.014c1.408-1.271,2.672-2.701,4.09-3.965
	c0.654-0.599,1.281-1.246,2.033-1.722c0.303-0.053,0.5,0.146,0.662,0.405c0.447,0.677,0.812,1.337,0.895,2.157
	c0.039,0.625-0.105,1.261-0.418,1.808c-0.314,0.543-0.717,1.038-0.951,1.627c-0.352,0.759-0.519,1.629-0.326,2.453
	c-0.295,0.19-0.592,0.354-0.742,0.397c-0.024,0.007-0.346-0.262-0.497-0.402c-0.067-0.175-0.054-0.324-0.036-0.55
	c0.027-0.563,0.052-1.141-0.042-1.699c-0.056-0.225-0.163-0.336-0.376-0.102c-0.389,0.391-0.762,0.81-1.066,1.272
	c-0.271,0.454-0.515,0.936-0.707,1.432c-0.112,0.312-0.201,0.634-0.336,0.938c-0.316,0.684-1.135,0.84-1.768,1.102
	C209.6,204.286,208.184,204.703,206.745,204.619z"/>
</svg>
