<?xml version="1.0" encoding="UTF-8" standalone="no"?>
<!-- Created with Inkscape (http://www.inkscape.org/) -->

<svg
   xmlns="http://www.w3.org/2000/svg"
   version="1.1"
   width="100%"
   height="100%"
   viewBox="0 0 16 16">
  <path
     d="M 7.75,4 9.25,8 7.75,8 6.25,4 C 6.25,4 4.4948328,4 4.5,4 L 6,8 4.5,8 3.1769068,4.5762712 C 2.2910439,5.2640693 1,7.1983848 1,9 l 0,2 c 0,0.59322 0.4237288,1 1,1 l 12,0 c 0.576271,0 1,-0.423729 1,-1 L 15,9 C 15,6.5355945 13.272623,4.5853602 11,4 L 12.5,8 11,8 9.5,4 c 0,0 -1.743955,0 -1.75,0 z" />
</svg>
