<?xml version="1.0" encoding="utf-8"?>
<!-- Generator: Adobe Illustrator 14.0.0, SVG Export Plug-In . SVG Version: 6.00 Build 43363)  -->
<!DOCTYPE svg PUBLIC "-//W3C//DTD SVG 1.1//EN" "http://www.w3.org/Graphics/SVG/1.1/DTD/svg11.dtd">
<svg version="1.1"
	 id="svg2" xmlns:rdf="http://www.w3.org/1999/02/22-rdf-syntax-ns#" sodipodi:docname="shopping_bicycle.svg" inkscape:version="0.46" xmlns:svg="http://www.w3.org/2000/svg" xmlns:sodipodi="http://sodipodi.sourceforge.net/DTD/sodipodi-0.dtd" xmlns:inkscape="http://www.inkscape.org/namespaces/inkscape" xmlns:dc="http://purl.org/dc/elements/1.1/" sodipodi:version="0.32" xmlns:cc="http://creativecommons.org/ns#" inkscape:output_extension="org.inkscape.output.svg.inkscape"
	 xmlns="http://www.w3.org/2000/svg" xmlns:xlink="http://www.w3.org/1999/xlink" x="0px" y="0px" width="580px" height="580px"
	 viewBox="0 0 580 580" enable-background="new 0 0 580 580" xml:space="preserve">
<defs>
	
	
		<inkscape:perspective  inkscape:persp3d-origin="290 : 193.33333 : 1" inkscape:vp_z="580 : 290 : 1" inkscape:vp_y="0 : 1000 : 0" inkscape:vp_x="0 : 290 : 1" sodipodi:type="inkscape:persp3d" id="perspective24">
		</inkscape:perspective>
</defs>
<sodipodi:namedview  showgrid="false" inkscape:current-layer="svg2" inkscape:window-y="20" inkscape:window-x="0" inkscape:cy="415.25176" inkscape:cx="615.26172" inkscape:zoom="0.70710678" pagecolor="#ffffff" bordercolor="#666666" borderopacity="1.0" objecttolerance="10.0" gridtolerance="10.0" guidetolerance="10.0" inkscape:window-height="1003" inkscape:window-width="1400" inkscape:pageshadow="2" inkscape:pageopacity="0.0" id="base">
	</sodipodi:namedview>
<path id="path596" sodipodi:type="arc" sodipodi:ry="78.380615" sodipodi:rx="78.380615" sodipodi:cy="461.96271" sodipodi:cx="200.53224" fill="none" stroke="#93278F" stroke-width="0.78" d="
	M284.119,287.655c0,1.277,1.036,2.312,2.312,2.312c1.277,0,2.312-1.035,2.312-2.312c0-1.277-1.035-2.312-2.312-2.312
	C285.154,285.343,284.119,286.378,284.119,287.655z"/>
<path id="path595" sodipodi:type="arc" sodipodi:ry="78.380615" sodipodi:rx="78.380615" sodipodi:cy="461.96271" sodipodi:cx="200.53224" fill="none" stroke="#93278F" stroke-width="0.78" d="
	M294.029,287.61c0,1.277,1.035,2.312,2.312,2.312s2.312-1.035,2.312-2.312s-1.035-2.312-2.312-2.312S294.029,286.333,294.029,287.61
	z"/>
<path id="path594" sodipodi:nodetypes="ccccc" fill="none" stroke="#93278F" stroke-width="0.6159" stroke-linejoin="round" d="
	M294.51,283.676l-5.946,0.03l-2.102,3.904h4.024l4.205-2.853"/>
<path id="path593" sodipodi:nodetypes="ccccscccccsscsccccccccccccssccc" fill="#93278F" d="M294.281,281.336
	c0.323,0,0.567-0.007,0.817,0.375c0.072,0.127,0.105,0.283,0.079,0.438c-0.032,0.176-0.137,0.349-0.26,0.452
	c-0.162,0.136-0.317,0.125-0.292,0.247c0.032,0.156,0.13,0.374,0.235,0.727c0.107,0.358,0.234,0.797,0.359,1.229
	s0.248,0.857,0.345,1.189c0.049,0.166,0.092,0.308,0.124,0.415c0.031,0.104,0.06,0.185,0.057,0.179
	c0.102,0.178,0.115,0.294,0.285,0.445c0.19,0.167,0.346,0.29,0.399,0.327c0.136,0.099,0.199,0.309,0.128,0.412
	c-0.091,0.141-0.279,0.163-0.416,0.121c-0.131-0.042-0.337-0.112-0.576-0.311l-0.002-0.003l-0.002-0.001
	c-0.333-0.286-0.456-0.632-0.469-0.652l-0.018-0.027l-0.012-0.03c-0.029-0.071-0.046-0.133-0.08-0.245s-0.078-0.256-0.127-0.423
	c-0.098-0.334-0.22-0.76-0.345-1.192s-0.252-0.868-0.357-1.222c-0.106-0.354-0.173-0.645-0.197-0.706
	c-0.061-0.151-0.091-0.313-0.05-0.476c0.041-0.163,0.164-0.294,0.274-0.325c0.252-0.07,0.185-0.251,0.056-0.252l-1.08-0.002
	l-0.002-0.69C293.156,281.336,293.856,281.336,294.281,281.336z"/>
<path id="path599" fill="#FFFFFF" stroke="#93278F" stroke-width="0.7376" d="M290.409,287.488l-2.039-4.991"/>
<path id="path600" sodipodi:nodetypes="cc" fill="#FFFFFF" stroke="#93278F" stroke-width="0.2692" stroke-linecap="round" d="
	M291.109,286.214l-1.231,2.867"/>
<path id="path597" sodipodi:type="arc" sodipodi:ry="78.380615" sodipodi:rx="78.380615" sodipodi:cy="461.96271" sodipodi:cx="200.53224" fill="#93278F" stroke="#93278F" stroke-width="0.9391" d="
	M289.811,287.618c0,0.318,0.292,0.576,0.652,0.576c0.36,0,0.652-0.258,0.652-0.576c0-0.318-0.292-0.576-0.652-0.576
	C290.103,287.042,289.811,287.3,289.811,287.618z"/>
<path id="path601" sodipodi:nodetypes="cc" fill="#FFFFFF" stroke="#93278F" stroke-width="0.3762" stroke-linecap="round" d="
	M291.658,286.215l-1.089,0.01"/>
<path id="path602" sodipodi:nodetypes="cc" fill="#FFFFFF" stroke="#93278F" stroke-width="0.3762" stroke-linecap="round" d="
	M290.433,289.04l-1.088,0.01"/>
<path id="path603" sodipodi:nodetypes="cssccc" fill="#93278F" d="M287.372,282.052h2.559c0.096,0,0.219,0.169,0.096,0.281
	c-0.133,0.127-1.333,0.388-1.333,0.388s-0.329,0.09-0.504,0.069C288.014,282.769,287.409,282.715,287.372,282.052z"/>
</svg>
