<?xml version="1.0" encoding="utf-8"?>
<!-- Generator: Adobe Illustrator 14.0.0, SVG Export Plug-In . SVG Version: 6.00 Build 43363)  -->
<!DOCTYPE svg PUBLIC "-//W3C//DTD SVG 1.1//EN" "http://www.w3.org/Graphics/SVG/1.1/DTD/svg11.dtd">
<svg version="1.1" id="Calque_1" xmlns="http://www.w3.org/2000/svg" xmlns:xlink="http://www.w3.org/1999/xlink" x="0px" y="0px"
	 width="400px" height="400px" viewBox="0 0 400 400" enable-background="new 0 0 400 400" xml:space="preserve">
<path fill="#93278F" d="M191.402,180.303c0,0,1.971-0.396,2.503-0.415c0.531-0.018,2.663,0.217,3.006,0.208
	c0.341-0.009,2.844-0.117,3.348-0.117c0.503,0,1.8,0.071,2.34,0.117c0.54,0.045,1.999,0.208,1.999,0.208s-0.271,1.422-0.289,1.727
	c-0.018,0.307-0.576,3.132-0.541,3.402c0.037,0.271,0.145,2.25-0.431,2.717c-0.575,0.469-2.34,0.541-2.682,0.541
	c-0.343,0-5.922,0.09-6.219,0.072c-0.297-0.018-0.945,0.144-1.431-0.215c-0.487-0.36-0.594-1.171-0.685-1.549
	c-0.09-0.378-0.216-2.393-0.27-2.843C191.997,183.705,191.402,180.303,191.402,180.303z"/>
<path fill="#93278F" stroke="#93278F" stroke-width="0.9" d="M195.615,180.375c0,0,0.107-2.593,0.503-3.331
	c0.397-0.738,0.793-1.836,1.278-2.07c0.486-0.234,1.062-0.072,1.404,0.27c0.342,0.342,1.278,2.034,1.368,3.384
	c0.09,1.35,0.163,1.747,0.163,1.747h-0.469c0,0-0.107-1.819-0.324-2.539c-0.216-0.72-0.828-2.304-1.277-2.376
	c-0.45-0.072-0.829-0.035-1.044,0.325c-0.216,0.359-0.54,1.313-0.648,2.033c-0.107,0.72-0.162,2.557-0.162,2.557H195.615z"/>
</svg>
