<?xml version="1.0" encoding="UTF-8"?>
<svg xmlns="http://www.w3.org/2000/svg" xmlns:xlink="http://www.w3.org/1999/xlink" width="100%" height="100%" viewBox="0 1 14 12">
<path fill-rule="evenodd" id="body" d="M 0,9.5 A 1.5,1.5 0 0,0 1.5,11 L 12.5,11 A 1.5,1.5 0 0,0 14,9.5 L 14,6.5 A 1.5,1.5 0 0,0 12.5,5 L 1.5,5 A 1.5,1.5 0 0,0 0,6.5 Z
M 1.6,7.5 a .9,.9 0 1,1 0,0.01 Z
M 10.6,7.5 a .9,.9 0 1,1 0,0.01 Z"/>
<g id="tyres">
<rect x="1" y="10" width="2" height="3"/>
<rect x="11" y="10" width="2" height="3"/>
</g>
<path id="top" d="M 1.5,5 L 3.1,1 10.9,1 12.5,5 11,5 9.8,2 4.2,2 3,5 Z"/>
</svg>
