<?xml version="1.0" encoding="UTF-8" standalone="no"?>
<!-- Created with Inkscape (http://www.inkscape.org/) -->

<svg
   xmlns:dc="http://purl.org/dc/elements/1.1/"
   xmlns:cc="http://creativecommons.org/ns#"
   xmlns:rdf="http://www.w3.org/1999/02/22-rdf-syntax-ns#"
   xmlns:svg="http://www.w3.org/2000/svg"
   xmlns="http://www.w3.org/2000/svg"
   version="1.1"
   width="100%"
   height="100%"
   viewBox="0 0 16 16"
   id="svg2">
  <metadata
     id="metadata8">
    <rdf:RDF>
      <cc:Work
         rdf:about="">
        <dc:format>image/svg+xml</dc:format>
        <dc:type
           rdf:resource="http://purl.org/dc/dcmitype/StillImage" />
        <dc:title></dc:title>
      </cc:Work>
    </rdf:RDF>
  </metadata>
  <defs
     id="defs6" />
  <rect
     width="16"
     height="16"
     x="0"
     y="0"
     id="canvas"
     style="fill:none;stroke:none;visibility:hidden" />
  <path
     d="M 10.412959,1.002152 C 9.1693111,1.14588 8.4631991,2.5093562 8.3733471,3.6936526 8.2264421,4.7464946 8.6860601,6.0899485 9.7918901,6.3320386 10.750208,6.4175146 11.512633,5.517193 11.825819,4.6583655 12.195679,3.583391 12.206482,2.1478454 11.309038,1.3425072 11.059753,1.1264712 10.739671,0.99523614 10.412959,1.002152 z M 5.3400251,1.058519 c -1.034807,0.074858 -1.5652,1.2774426 -1.493223,2.2427639 0.0088,1.2907239 0.717612,2.7424122 2.010186,3.0488129 0.963956,0.1042448 1.606661,-0.9181087 1.66656,-1.812036 0.123011,-1.3680543 -0.483132,-3.0253055 -1.855765,-3.4383499 -0.106687,-0.029465 -0.217332,-0.044089 -0.327758,-0.041191 z m 8.3150179,4.145106 c -1.388365,0.1017608 -2.266355,1.5813816 -2.326691,2.9184062 -0.07305,0.8707439 0.489487,1.9657608 1.436683,1.9057498 C 14.181597,9.8776256 15.035636,8.2988174 15.00043,6.9270571 14.99133,6.137328 14.490879,5.2365393 13.655043,5.203625 z M 1.0107561,7.0085267 c -0.12855096,1.481506 0.908149,3.1560203 2.414136,3.2493013 0.912778,-0.06096 1.343188,-1.1210934 1.238576,-1.9598358 -0.08336,-1.2375515 -0.910818,-2.504836 -1.985899,-2.6703939 -1.07508,-0.165558 -1.68385896,0.5939701 -1.666813,1.3809284 z m 7.148609,1.2638209 c -1.411887,0.00329 -2.70277,0.926469 -3.392913,2.1755314 -0.578235,0.933425 -1.050947,1.990156 -1.140853,3.105342 0.01967,0.860048 0.840276,1.575842 1.663122,1.404534 1.173683,-0.152345 2.222485,-0.967418 3.44297,-0.8147 1.014283,0.08097 1.8507729,0.867482 2.8748439,0.856051 0.994345,0.03734 1.56796,-1.102139 1.188753,-1.994632 C 12.387234,11.726579 11.596107,10.615194 10.746977,9.6142466 10.069618,8.8764304 9.1824521,8.2396821 8.1593651,8.2723476 z"
     id="pet"
     style="fill:#1a1a1a;fill-opacity:1;stroke:none" />
</svg>
