<?xml version="1.0" encoding="UTF-8" standalone="no"?>
<!-- Created with Inkscape (http://www.inkscape.org/) -->

<svg
   xmlns:dc="http://purl.org/dc/elements/1.1/"
   xmlns:cc="http://creativecommons.org/ns#"
   xmlns:rdf="http://www.w3.org/1999/02/22-rdf-syntax-ns#"
   xmlns:svg="http://www.w3.org/2000/svg"
   xmlns="http://www.w3.org/2000/svg"
   version="1.1"
   width="100%"
   height="100%"
   viewBox="0 0 18 18"
   id="svg2">
  <metadata
     id="metadata8">
    <rdf:RDF>
      <cc:Work
         rdf:about="">
        <dc:format>image/svg+xml</dc:format>
        <dc:type
           rdf:resource="http://purl.org/dc/dcmitype/StillImage" />
        <dc:title></dc:title>
      </cc:Work>
    </rdf:RDF>
  </metadata>
  <defs
     id="defs6" />
  <rect
     width="18"
     height="18"
     x="0"
     y="0"
     id="canvas"
     style="fill:none;stroke:none;visibility:hidden" />
  <g
     id="bakery">
    <path
       d="m 8.75,5 1.5,4 -1.5,0 -1.5,-4 C 7.25,5 5.4948328,5 5.5,5 L 7,9 5.5,9 4.1769068,5.5762712 C 3.2910439,6.2640693 2,8.1983848 2,10 l 0,2 c 0,0.59322 0.4237288,1 1,1 l 12,0 c 0.576271,0 1,-0.423729 1,-1 l 0,-2 C 16,7.5355945 14.272623,5.5853602 12,5 L 13.5,9 12,9 10.5,5 c 0,0 -1.743955,0 -1.75,0 z"
       id="halo"
       style="opacity:0.3;fill:#ffffff;fill-opacity:1;stroke:#ffffff;stroke-width:2;stroke-miterlimit:4;stroke-opacity:1;stroke-dasharray:none" />
    <path
       d="m 8.75,5 1.5,4 -1.5,0 -1.5,-4 C 7.25,5 5.494833,5 5.5,5 L 7,9 5.5,9 4.176907,5.5762712 C 3.291044,6.2640693 2,8.1983848 2,10 l 0,2 c 0,0.59322 0.423729,1 1,1 l 12,0 c 0.576271,0 1,-0.423729 1,-1 l 0,-2 C 16,7.5355945 14.272623,5.5853602 12,5 L 13.5,9 12,9 10.5,5 c 0,0 -1.743955,0 -1.75,0 z"
       id="icon"
       style="fill:#1a1a1a;fill-opacity:1;stroke:none" />
  </g>
</svg>
