<?xml version="1.0" encoding="UTF-8" standalone="no"?>
<!-- Created with Inkscape (http://www.inkscape.org/) -->

<svg
   xmlns:dc="http://purl.org/dc/elements/1.1/"
   xmlns:cc="http://creativecommons.org/ns#"
   xmlns:rdf="http://www.w3.org/1999/02/22-rdf-syntax-ns#"
   xmlns:svg="http://www.w3.org/2000/svg"
   xmlns="http://www.w3.org/2000/svg"
   version="1.1"
   width="100%"
   height="100%"
   viewBox="0 0 16 16"
   id="svg2">
  <metadata
     id="metadata8">
    <rdf:RDF>
      <cc:Work
         rdf:about="">
        <dc:format>image/svg+xml</dc:format>
        <dc:type
           rdf:resource="http://purl.org/dc/dcmitype/StillImage" />
        <dc:title></dc:title>
      </cc:Work>
    </rdf:RDF>
  </metadata>
  <defs
     id="defs6" />
  <rect
     width="16"
     height="16"
     x="0"
     y="0"
     id="canvas"
     style="fill:none;stroke:none;visibility:hidden" />
  <path
     d="M 1.75,4 C 1.75,4 1,6.25 1,9.25 l 5.5,0 c 0.5,0 1.306389,1 1.3,1 l 7.2,0 C 15,7.25 12,7 11,7 L 9,7 C 8,5 6,4 6,4 L 5.75,4 C 5,5.508412 3.016472,5.508412 2,4 z M 6.5,5 C 6.776142,5 7,5.2238577 7,5.5 7,5.7761423 6.776142,6 6.5,6 6.223858,6 6,5.7761423 6,5.5 6,5.2238577 6.223858,5 6.5,5 z m 1,1 C 7.776142,6 8,6.2238577 8,6.5 8,6.7761423 7.776142,7 7.5,7 7.223858,7 7,6.7761423 7,6.5 7,6.2238577 7.223858,6 7.5,6 z m -6.5,4 0,2 5.25,0 0,-2 z m 7.3,1 c 0,0 0.7,1 1.2,1 l 5.5,0 0,-1 z"
     id="shoes"
     style="fill:#1a1a1a;fill-opacity:1;stroke:none" />
</svg>
