<?xml version="1.0" encoding="UTF-8" standalone="no"?>
<!-- Created with Inkscape (http://www.inkscape.org/) -->

<svg
   xmlns:dc="http://purl.org/dc/elements/1.1/"
   xmlns:cc="http://creativecommons.org/ns#"
   xmlns:rdf="http://www.w3.org/1999/02/22-rdf-syntax-ns#"
   xmlns:svg="http://www.w3.org/2000/svg"
   xmlns="http://www.w3.org/2000/svg"
   version="1.1"
   width="100%"
   height="100%"
   viewBox="0 0 16 16"
   id="svg2">
  <metadata
     id="metadata8">
    <rdf:RDF>
      <cc:Work
         rdf:about="">
        <dc:format>image/svg+xml</dc:format>
        <dc:type
           rdf:resource="http://purl.org/dc/dcmitype/StillImage" />
        <dc:title></dc:title>
      </cc:Work>
    </rdf:RDF>
  </metadata>
  <defs
     id="defs6" />
  <rect
     width="16"
     height="16"
     x="0"
     y="0"
     id="canvas"
     style="fill:none;stroke:none;visibility:hidden" />
  <path
     d="m 9,2.5 0,0.875 1.25,0.78125 0,1.09375 -4.25,0 0,-0.75 0.5,0 c 1,0 1,-1 0,-1 l -2,0 c -1,0 -1,1 0,1 L 5,4.5 5,5.25 4.0625,7 C 4.0416,6.9995343 4.02098,7 4,7 2.387717,7 1,8.387717 1,10 1,11.612283 2.387717,13 4,13 5.612283,13 7,11.612283 7,10 7,9.654031 6.92843,9.313419 6.8125,9 L 7.25,9 C 8,9 8.172746,8.546004 8.4375,8.28125 L 10.21875,6.25 10.75,7.28125 C 9.727462,7.7659158 9,8.824875 9,10 c 0,1.612283 1.387717,3 3,3 1.612283,0 3,-1.387717 3,-3 C 15,8.387717 13.612283,7 12,7 11.96853,7 11.93754,6.99895 11.90625,7 L 11,5.25 11,3.65625 9,2.5 z m -3.21875,3.75 3.125,0 L 7.34375,8 6.21875,8 C 6.20027,8 6.17516,8.00212 6.15625,8 5.892847,7.7170527 5.599522,7.4803791 5.25,7.3125 5.23775,7.29387 5.22991,7.268546 5.21875,7.25 l 0.5625,-1 z M 4,8 C 5.005711,8 6,8.99429 6,10 6,11.005711 5.005711,12 4,12 2.994289,12 2,11.005711 2,10 2,8.99429 2.994289,8 4,8 z m 8,0 c 1.00571,0 2,0.99429 2,2 0,1.005711 -0.99429,2 -2,2 -1.005711,0 -2,-0.994289 -2,-2 0,-1.00571 0.994289,-2 2,-2 z"
     id="bicycle"
     style="fill:#1a1a1a;stroke:none" />
</svg>
