<?xml version="1.0" encoding="UTF-8" standalone="no"?>
<!-- Created with Inkscape (http://www.inkscape.org/) -->

<svg
   xmlns:dc="http://purl.org/dc/elements/1.1/"
   xmlns:cc="http://creativecommons.org/ns#"
   xmlns:rdf="http://www.w3.org/1999/02/22-rdf-syntax-ns#"
   xmlns:svg="http://www.w3.org/2000/svg"
   xmlns="http://www.w3.org/2000/svg"
   version="1.1"
   width="100%"
   height="100%"
   viewBox="0 0 16 16"
   id="svg2">
  <metadata
     id="metadata8">
    <rdf:RDF>
      <cc:Work
         rdf:about="">
        <dc:format>image/svg+xml</dc:format>
        <dc:type
           rdf:resource="http://purl.org/dc/dcmitype/StillImage" />
        <dc:title></dc:title>
      </cc:Work>
    </rdf:RDF>
  </metadata>
  <defs
     id="defs6" />
  <rect
     width="16"
     height="16"
     x="0"
     y="0"
     id="canvas"
     style="fill:none;stroke:none;visibility:hidden" />
  <path
     d="M 11.5,1 C 10.574658,1 9.776015,1.502762 9.34375,2.25 L 3.5,2.25 C 2.622246,2.25 2,2.7711864 2,3.5 2,4.2288136 2.603432,4.75 3.5,4.75 l 5.84375,0 C 9.776015,5.4972377 10.574658,6 11.5,6 12.425343,6 13.223985,5.4972377 13.65625,4.75 L 12,4.75 10.5,3.5 12,2.25 l 1.65625,0 C 13.223985,1.5027623 12.425343,1 11.5,1 z m -8,2 C 3.776142,3 4,3.2238576 4,3.5 4,3.7761424 3.776142,4 3.5,4 3.223858,4 3,3.7761424 3,3.5 3,3.2238576 3.223858,3 3.5,3 z M 5,7 4,10 c -0.472666,0 -1,0.384295 -1,1 l 0,3 1,0 c 0,0 0,1 1,1 1,0 1,-1 1,-1 l 4,0 c 0,0 0,1 1,1 1,0 1,-1 1,-1 l 1,0 0,-3 c 0,-0.520606 -0.455425,-1 -1,-1 L 11,7 5,7 z m 1,1 4,0 0.625,2 -5.25,0 L 6,8 z m -1,3.25 c 0.414214,0 0.75,0.335786 0.75,0.75 0,0.414214 -0.335786,0.75 -0.75,0.75 -0.414214,0 -0.75,-0.335786 -0.75,-0.75 0,-0.414214 0.335786,-0.75 0.75,-0.75 z m 6,0 c 0.414214,0 0.75,0.335786 0.75,0.75 0,0.414214 -0.335786,0.75 -0.75,0.75 -0.414214,0 -0.75,-0.335786 -0.75,-0.75 0,-0.414214 0.335786,-0.75 0.75,-0.75 z"
     id="repair-car"
     style="fill:#1a1a1a;stroke:none" />
</svg>
