<?xml version="1.0" encoding="utf-8"?>
<!-- Generator: Adobe Illustrator 14.0.0, SVG Export Plug-In . SVG Version: 6.00 Build 43363)  -->
<!DOCTYPE svg PUBLIC "-//W3C//DTD SVG 1.1//EN" "http://www.w3.org/Graphics/SVG/1.1/DTD/svg11.dtd">
<svg version="1.1"
	 id="svg2" xmlns:rdf="http://www.w3.org/1999/02/22-rdf-syntax-ns#" sodipodi:docname="shopping_car.svg" inkscape:version="0.46" xmlns:svg="http://www.w3.org/2000/svg" xmlns:sodipodi="http://sodipodi.sourceforge.net/DTD/sodipodi-0.dtd" xmlns:inkscape="http://www.inkscape.org/namespaces/inkscape" xmlns:dc="http://purl.org/dc/elements/1.1/" sodipodi:version="0.32" xmlns:cc="http://creativecommons.org/ns#" inkscape:output_extension="org.inkscape.output.svg.inkscape"
	 xmlns="http://www.w3.org/2000/svg" xmlns:xlink="http://www.w3.org/1999/xlink" x="0px" y="0px" width="580px" height="580px"
	 viewBox="0 0 580 580" enable-background="new 0 0 580 580" xml:space="preserve">
<sodipodi:namedview  showgrid="false" inkscape:current-layer="svg2" inkscape:window-y="18" inkscape:window-x="112" inkscape:cy="399.03428" inkscape:cx="-28.16038" inkscape:zoom="0.70710678" pagecolor="#ffffff" bordercolor="#666666" borderopacity="1.0" objecttolerance="10.0" gridtolerance="10.0" guidetolerance="10.0" inkscape:window-height="1005" inkscape:window-width="1280" inkscape:pageshadow="2" inkscape:pageopacity="0.0" id="base">
	</sodipodi:namedview>
<defs>
	
	
		<inkscape:perspective  inkscape:persp3d-origin="290 : 193.33333 : 1" inkscape:vp_z="580 : 290 : 1" inkscape:vp_y="0 : 1000 : 0" inkscape:vp_x="0 : 290 : 1" sodipodi:type="inkscape:persp3d" id="perspective12">
		</inkscape:perspective>
	
		<inkscape:perspective  inkscape:persp3d-origin="29.116032 : 19.410688 : 1" inkscape:vp_z="58.232063 : 29.116032 : 1" inkscape:vp_y="0 : 1000 : 0" inkscape:vp_x="0 : 29.116032 : 1" sodipodi:type="inkscape:persp3d" id="perspective6807">
		</inkscape:perspective>
	
		<inkscape:perspective  inkscape:persp3d-origin="290 : 193.33333 : 1" inkscape:vp_z="580 : 290 : 1" inkscape:vp_y="0 : 1000 : 0" inkscape:vp_x="0 : 290 : 1" sodipodi:type="inkscape:persp3d" id="perspective6954">
		</inkscape:perspective>
	
		<inkscape:perspective  inkscape:persp3d-origin="178.5405 : 158.483 : 1" inkscape:vp_z="357.08099 : 237.7245 : 1" inkscape:vp_y="0 : 1000 : 0" inkscape:vp_x="0 : 237.7245 : 1" sodipodi:type="inkscape:persp3d" id="perspective7597">
		</inkscape:perspective>
</defs>
<path id="path2323" fill="#93278F" d="M288.566,293.429c-0.952,0-1.457,0.52-1.69,1.128l-1.237,3.195
	c-0.491,0.062-1.36,0.639-1.36,1.729v4.063h1.204v1.299c0,1.599,2.263,1.58,2.263,0v-1.299h4.07h0.001h4.069v1.299
	c0,1.58,2.263,1.599,2.263,0v-1.299h1.205v-4.063c0-1.091-0.87-1.667-1.36-1.729l-1.239-3.195c-0.232-0.608-0.737-1.128-1.689-1.128
	h-1.75h-2.979H288.566z M288.552,294.592h3.261h0.003h0.001h3.263c0.407,0.004,0.582,0.259,0.699,0.612l0.933,2.515h-4.895h-0.001
	h-0.003h-4.893l0.933-2.515C287.969,294.851,288.144,294.596,288.552,294.592z M286.651,298.941c0.578,0,1.045,0.481,1.045,1.077
	c0,0.595-0.467,1.077-1.045,1.077c-0.577,0-1.044-0.482-1.044-1.077C285.606,299.423,286.074,298.941,286.651,298.941z
	 M296.982,298.941c0.577,0,1.045,0.481,1.045,1.077c0,0.595-0.468,1.077-1.045,1.077s-1.047-0.482-1.047-1.077
	C295.936,299.423,296.405,298.941,296.982,298.941z"/>
<g id="g2319" transform="translate(879.29125,36.805119)">
</g>
<g id="g2325" transform="translate(879.29125,36.805119)">
</g>
</svg>
