<?xml version="1.0" encoding="UTF-8" standalone="no"?>
<!-- Created with Inkscape (http://www.inkscape.org/) -->

<svg
   xmlns:dc="http://purl.org/dc/elements/1.1/"
   xmlns:cc="http://creativecommons.org/ns#"
   xmlns:rdf="http://www.w3.org/1999/02/22-rdf-syntax-ns#"
   xmlns:svg="http://www.w3.org/2000/svg"
   xmlns="http://www.w3.org/2000/svg"
   version="1.1"
   width="100%"
   height="100%"
   viewBox="0 0 16 16"
   id="svg2">
  <metadata
     id="metadata8">
    <rdf:RDF>
      <cc:Work
         rdf:about="">
        <dc:format>image/svg+xml</dc:format>
        <dc:type
           rdf:resource="http://purl.org/dc/dcmitype/StillImage" />
        <dc:title></dc:title>
      </cc:Work>
    </rdf:RDF>
  </metadata>
  <defs
     id="defs6" />
  <rect
     width="16"
     height="16"
     x="0"
     y="0"
     id="canvas"
     style="fill:none;stroke:none;visibility:hidden" />
  <path
     d="M 10,1 C 9.248808,1.4909181 8.75,2.3481516 8.75,3.3125 c 0,1.0641992 0.615654,1.9803063 1.5,2.4375 l 0,7.75 c 0,0.877754 0.521186,1.5 1.25,1.5 0.728813,0 1.25,-0.603432 1.25,-1.5 l 0,-7.75 C 13.634346,5.2928063 14.25,4.3766992 14.25,3.3125 14.25,2.3481516 13.751192,1.4909181 13,1 L 13,2.5 11.5,4 10,2.5 c 0,0 0,-1.5023227 0,-1.5 z M 5,1 C 4.447507,1 4,1.3804513 4,1.75 l -1.5,0 -1.25,1.75 1.25,1.75 1.5,0 0,8.5 C 4,14.434896 4.376848,15 5,15 5.623152,15 6,14.471763 6,13.75 l 0,-8.5 2,0 0,-3.5 -2,0 C 6,1.3724769 5.623152,1 5,1 z m 6.5,12 C 11.776142,13 12,13.223858 12,13.5 12,13.776142 11.776142,14 11.5,14 11.223857,14 11,13.776142 11,13.5 11,13.223858 11.223857,13 11.5,13 z"
     id="doityourself"
     style="fill:#1a1a1a;fill-opacity:1;stroke:none" />
</svg>
