<?xml version="1.0" encoding="UTF-8" standalone="no"?>
<!-- Created with Inkscape (http://www.inkscape.org/) -->

<svg
   xmlns="http://www.w3.org/2000/svg"
   version="1.1"
   width="100%"
   height="100%"
   viewBox="0 0 16 16">
  <path
     d="M 7.9843342,1 6.9817232,2 C 7.044285,2.4367914 7.0601031,2.7749535 7.1070496,3.15625 5.8826554,3.5360844 4.9765013,4.653806 4.9765013,6 c 0,1.3565494 0.9229007,2.4727975 2.1618799,2.84375 C 7.0873598,9.2198537 7.0530306,9.5732699 6.9817232,10 l 0.5013055,0.5 0,0.40625 C 6.5614039,10.285538 5.5815135,9.5952456 4.9765013,9 2.9436865,7 3.4803233,3.5 5.9791123,2 3.9800811,2.5 2,4.3084098 2,7 c 0,2.9999999 2.9765013,4 2.9765013,5 l 1.002611,-1 1.2845953,0.71875 C 6.6495383,12.098319 5.9791123,12.5 5.9791123,12.5 l 0.5013055,0.5 1.0652741,-0.59375 0,0.71875 C 7.220259,13.290251 6.9817232,13.610806 6.9817232,14 c 0,0.552285 0.4488843,1 1.002611,1 0.5537267,0 1.002611,-0.447715 1.002611,-1 0,-0.389194 -0.2072042,-0.709749 -0.5326371,-0.875 l 0,-0.71875 L 9.4882507,13 9.9895561,12.5 c 0,0 -0.7067165,-0.44273 -1.2532637,-0.78125 L 9.9895561,11 10.992167,12 C 10.992167,11 14,9.9999999 14,7 14,4.3084098 11.994778,2.5 9.9895561,2 12.496084,3.5 13.031277,7 10.992167,9 10.377366,9.6030089 9.4209487,10.310953 8.4856397,10.9375 l 0,-0.4375 L 8.9869452,10 C 8.9177277,9.5857768 8.8803904,9.2251088 8.8302872,8.84375 10.069267,8.4727975 10.992167,7.3565494 10.992167,6 c 0,-1.3565494 -0.9229,-2.4727975 -2.1618798,-2.84375 C 8.8803904,2.7748912 8.9177277,2.4142232 8.9869452,2 L 7.9843342,1 z M 8.7049608,4.125 C 9.4582923,4.4127741 9.9895561,5.1474103 9.9895561,6 c 0,0.8525897 -0.5312638,1.5872258 -1.2845953,1.875 -0.1212607,-1.2890411 -0.1212607,-2.4609588 0,-3.75 z M 7.2010444,4.15625 c 0.009,-0.0038 0.022269,0.00367 0.031332,0 C 7.3673018,5.5461524 7.3833891,6.638887 7.2637076,7.875 6.510376,7.5872258 5.9791123,6.8525897 5.9791123,6 c 0,-0.8284273 0.5022278,-1.5401335 1.2219321,-1.84375 z M 5.4778068,13 c -0.2768634,0 -0.5013055,0.223858 -0.5013055,0.5 0,0.276142 0.2244421,0.5 0.5013055,0.5 0.2768634,0 0.5013055,-0.223858 0.5013055,-0.5 0,-0.276142 -0.2244421,-0.5 -0.5013055,-0.5 z m 5.0130552,0 c -0.276863,0 -0.5013059,0.223858 -0.5013059,0.5 0,0.276142 0.2244429,0.5 0.5013059,0.5 0.276863,0 0.501305,-0.223858 0.501305,-0.5 0,-0.276142 -0.224442,-0.5 -0.501305,-0.5 z" />
</svg>
