<?xml version="1.0" encoding="UTF-8" standalone="no"?>
<!-- Created with Inkscape (http://www.inkscape.org/) -->

<svg
   xmlns:dc="http://purl.org/dc/elements/1.1/"
   xmlns:cc="http://creativecommons.org/ns#"
   xmlns:rdf="http://www.w3.org/1999/02/22-rdf-syntax-ns#"
   xmlns:svg="http://www.w3.org/2000/svg"
   xmlns="http://www.w3.org/2000/svg"
   version="1.1"
   width="100%"
   height="100%"
   viewBox="0 0 18 18"
   id="svg2">
  <metadata
     id="metadata8">
    <rdf:RDF>
      <cc:Work
         rdf:about="">
        <dc:format>image/svg+xml</dc:format>
        <dc:type
           rdf:resource="http://purl.org/dc/dcmitype/StillImage" />
        <dc:title></dc:title>
      </cc:Work>
    </rdf:RDF>
  </metadata>
  <defs
     id="defs6" />
  <rect
     width="18"
     height="18"
     x="0"
     y="0"
     id="canvas"
     style="fill:none;stroke:none;visibility:hidden" />
  <g
     id="sikhist">
    <path
       d="M 8.9843342,2 7.9817232,3 C 8.044285,3.4367914 8.0601031,3.7749535 8.1070496,4.15625 6.8826554,4.5360844 5.9765013,5.653806 5.9765013,7 c 0,1.3565494 0.9229007,2.472798 2.1618799,2.84375 C 8.0873598,10.219854 8.0530306,10.57327 7.9817232,11 l 0.5013055,0.5 0,0.40625 C 7.5614039,11.285538 6.5815135,10.595246 5.9765013,10 3.9436865,8 4.4803233,4.5 6.9791123,3 4.9800811,3.5 3,5.3084098 3,8 c 0,3 2.9765013,4 2.9765013,5 l 1.002611,-1 1.2845953,0.71875 C 7.6495383,13.098319 6.9791123,13.5 6.9791123,13.5 l 0.5013055,0.5 1.0652741,-0.59375 0,0.71875 C 8.220259,14.290251 7.9817232,14.610806 7.9817232,15 c 0,0.552285 0.4488843,1 1.002611,1 0.5537267,0 1.002611,-0.447715 1.002611,-1 0,-0.389194 -0.2072042,-0.709749 -0.5326371,-0.875 l 0,-0.71875 L 10.488251,14 10.989556,13.5 c 0,0 -0.706716,-0.44273 -1.2532636,-0.78125 L 10.989556,12 11.992167,13 C 11.992167,12 15,11 15,8 15,5.3084098 12.994778,3.5 10.989556,3 c 2.506528,1.5 3.041721,5 1.002611,7 -0.614801,0.603009 -1.571218,1.310953 -2.5065273,1.9375 l 0,-0.4375 L 9.9869452,11 C 9.9177277,10.585777 9.8803904,10.225109 9.8302872,9.84375 11.069267,9.472798 11.992167,8.3565494 11.992167,7 c 0,-1.3565494 -0.9229,-2.4727975 -2.1618798,-2.84375 C 9.8803904,3.7748912 9.9177277,3.4142232 9.9869452,3 L 8.9843342,2 z M 9.7049608,5.125 C 10.458292,5.4127741 10.989556,6.1474103 10.989556,7 c 0,0.8525897 -0.531264,1.5872258 -1.2845952,1.875 -0.1212607,-1.2890411 -0.1212607,-2.4609588 0,-3.75 z M 8.2010444,5.15625 c 0.009,-0.0038 0.022269,0.00367 0.031332,0 C 8.3673018,6.5461524 8.3833891,7.638887 8.2637076,8.875 7.510376,8.5872258 6.9791123,7.8525897 6.9791123,7 c 0,-0.8284273 0.5022278,-1.5401335 1.2219321,-1.84375 z M 6.4778068,14 c -0.2768634,0 -0.5013055,0.223858 -0.5013055,0.5 0,0.276142 0.2244421,0.5 0.5013055,0.5 0.2768634,0 0.5013055,-0.223858 0.5013055,-0.5 0,-0.276142 -0.2244421,-0.5 -0.5013055,-0.5 z m 5.0130552,0 c -0.276863,0 -0.501306,0.223858 -0.501306,0.5 0,0.276142 0.224443,0.5 0.501306,0.5 0.276863,0 0.501305,-0.223858 0.501305,-0.5 0,-0.276142 -0.224442,-0.5 -0.501305,-0.5 z"
       id="halo"
       style="opacity:0.3;fill:#ffffff;fill-opacity:1;stroke:#ffffff;stroke-width:2;stroke-miterlimit:4;stroke-opacity:1;stroke-dasharray:none" />
    <path
       d="M 8.984334,2 7.981723,3 C 8.044283,3.4367914 8.060103,3.7749535 8.10705,4.15625 6.882655,4.5360844 5.976501,5.653806 5.976501,7 c 0,1.3565494 0.922901,2.472798 2.16188,2.84375 C 8.087361,10.219854 8.053031,10.57327 7.981723,11 l 0.501306,0.5 0,0.40625 C 7.561404,11.285538 6.581513,10.595246 5.976501,10 3.943686,8 4.480323,4.5 6.979112,3 4.980081,3.5 3,5.3084098 3,8 c 0,3 2.976501,4 2.976501,5 l 1.002611,-1 1.284596,0.71875 C 7.649538,13.098319 6.979112,13.5 6.979112,13.5 l 0.501306,0.5 1.065274,-0.59375 0,0.71875 C 8.220259,14.290251 7.981723,14.610806 7.981723,15 c 0,0.552285 0.448885,1 1.002611,1 0.553727,0 1.002611,-0.447715 1.002611,-1 0,-0.389194 -0.207204,-0.709749 -0.532637,-0.875 l 0,-0.71875 L 10.488251,14 10.989556,13.5 c 0,0 -0.706716,-0.44273 -1.253264,-0.78125 L 10.989556,12 11.992167,13 C 11.992167,12 15,11 15,8 15,5.3084098 12.994778,3.5 10.989556,3 c 2.506528,1.5 3.041721,5 1.002611,7 -0.614801,0.603009 -1.571218,1.310953 -2.506527,1.9375 l 0,-0.4375 L 9.986945,11 C 9.917725,10.585777 9.88039,10.225109 9.830287,9.84375 11.069267,9.472798 11.992167,8.3565494 11.992167,7 c 0,-1.3565494 -0.9229,-2.4727975 -2.16188,-2.84375 C 9.880387,3.7748912 9.917727,3.4142232 9.986945,3 L 8.984334,2 z m 0.720627,3.125 c 0.753331,0.2877741 1.284595,1.0224103 1.284595,1.875 0,0.8525897 -0.531264,1.5872258 -1.284595,1.875 -0.121261,-1.2890411 -0.121261,-2.4609588 0,-3.75 z M 8.201044,5.15625 c 0.009,-0.0038 0.02227,0.00367 0.03133,0 C 8.3673,6.5461524 8.383387,7.638887 8.263704,8.875 7.510372,8.5872258 6.979108,7.8525897 6.979108,7 c 0,-0.8284273 0.502228,-1.5401335 1.221932,-1.84375 z M 6.477807,14 c -0.276864,0 -0.501306,0.223858 -0.501306,0.5 0,0.276142 0.224442,0.5 0.501306,0.5 0.276863,0 0.501305,-0.223858 0.501305,-0.5 0,-0.276142 -0.224442,-0.5 -0.501305,-0.5 z m 5.013055,0 c -0.276863,0 -0.501306,0.223858 -0.501306,0.5 0,0.276142 0.224443,0.5 0.501306,0.5 0.276863,0 0.501305,-0.223858 0.501305,-0.5 0,-0.276142 -0.224442,-0.5 -0.501305,-0.5 z"
       id="icon"
       style="fill:#1a1a1a;fill-opacity:1;stroke:none" />
  </g>
</svg>
