<?xml version="1.0" encoding="UTF-8" standalone="no"?>
<!-- Generator: Adobe Illustrator 15.0.0, SVG Export Plug-In . SVG Version: 6.00 Build 0)  -->

<svg
   xmlns:dc="http://purl.org/dc/elements/1.1/"
   xmlns:cc="http://creativecommons.org/ns#"
   xmlns:rdf="http://www.w3.org/1999/02/22-rdf-syntax-ns#"
   xmlns:svg="http://www.w3.org/2000/svg"
   xmlns="http://www.w3.org/2000/svg"
   xmlns:sodipodi="http://sodipodi.sourceforge.net/DTD/sodipodi-0.dtd"
   xmlns:inkscape="http://www.inkscape.org/namespaces/inkscape"
   version="1.1"
   x="0px"
   y="0px"
   width="14"
   height="14"
   viewBox="0 0 14 14"
   enable-background="new 0 0 580 580"
   xml:space="preserve"
   id="svg2"
   inkscape:version="0.91 r13725"
   sodipodi:docname="sports-14-33.svg"><metadata
     id="metadata21"><rdf:RDF><cc:Work
         rdf:about=""><dc:format>image/svg+xml</dc:format><dc:type
           rdf:resource="http://purl.org/dc/dcmitype/StillImage" /><dc:title></dc:title></cc:Work></rdf:RDF></metadata><defs
     id="defs19" /><sodipodi:namedview
     pagecolor="#ffffff"
     bordercolor="#666666"
     borderopacity="1"
     objecttolerance="10"
     gridtolerance="10"
     guidetolerance="10"
     inkscape:pageopacity="0"
     inkscape:pageshadow="2"
     inkscape:window-width="1871"
     inkscape:window-height="1056"
     id="namedview17"
     showgrid="true"
     inkscape:zoom="63.5"
     inkscape:cx="4.2204724"
     inkscape:cy="7"
     inkscape:window-x="49"
     inkscape:window-y="24"
     inkscape:window-maximized="1"
     inkscape:current-layer="g9"
     showguides="false"><inkscape:grid
       type="xygrid"
       id="grid4149" /></sodipodi:namedview><g
     id="g7"
     inkscape:version="0.46"
     sodipodi:docname="waste_bin.svg"
     sodipodi:version="0.32"
     inkscape:output_extension="org.inkscape.output.svg.inkscape"
     transform="matrix(0.01926427,0,0,0.03311953,1.6923267,-2.5759903)"
     style="fill:#000000"><g
       id="g9"
       style="fill:#000000"
       transform="matrix(1.4591054,0,0,1,-148.6728,0)"><path
         id="path4286"
         style="fill:#000000;fill-opacity:1;fill-rule:evenodd;stroke:none;stroke-opacity:1"
         d="m 238.89676,116.29334 a 45.100662,38.039265 0 0 1 -45.10066,38.03927 45.100662,38.039265 0 0 1 -45.10067,-38.03927 45.100662,38.039265 0 0 1 45.10067,-38.039262 45.100662,38.039265 0 0 1 45.10066,38.039262 z m 243.77432,258.42928 -95.3828,20.80672 c -3.89598,0.84986 -12.52553,0.0999 -15.79245,-0.5834 -8.37243,-1.37786 -10.77986,-4.67843 -14.05622,-8.1298 l -45.15761,-63.14979 -56.77085,51.7179 22.92164,96.69659 c 0.73307,2.07351 1.09961,3.79863 1.09961,5.17648 0,6.2071 -2.36476,11.55162 -7.09546,16.03359 -4.73073,4.48197 -10.37185,6.7235 -16.92579,6.7235 -12.37008,0 -20.01537,-6.03457 -22.93703,-18.10261 L 204.73849,364.52603 c -3.27637,-12.41529 -1.82204,-21.55285 4.36417,-27.41378 l 49.67304,-47.06342 -54.03838,-59.4664 -34.93227,33.0944 c -3.64174,3.44017 -7.82856,5.16082 -12.56045,5.16082 -6.18503,0 -12.1868,-2.58322 -18.00647,-7.74851 L 82.467253,207.30335 c -2.908667,-3.45137 -4.361806,-7.24441 -4.364171,-11.37911 0.0026,-5.16529 1.910726,-9.47362 5.732177,-12.92499 3.819101,-3.45025 8.279041,-5.17648 13.375104,-5.17648 5.098427,0 9.101977,1.37785 12.010627,4.13468 l 46.94292,44.48917 56.77086,-53.78467 c 4.36417,-4.14591 9.96492,-7.43035 16.37481,-6.21941 l 123.58871,23.34814 c 5.3458,1.00992 9.25818,5.28714 13.25581,9.43304 l 27.45209,40.14902 c 4.36417,3.44017 6.54803,7.74849 6.54685,12.92499 8.7e-4,4.82923 -1.81732,8.96729 -5.45551,12.41305 -3.63582,3.44465 -8.00354,5.16753 -13.10196,5.16753 -5.45197,0 -10.18386,-2.0679 -14.19212,-6.2026 l -31.87566,-45.30982 -51.78593,-7.44763 107.42827,141.54167 87.53416,-21.32874 c 6.91811,0 13.23067,1.18586 17.96256,5.32616 4.72951,4.13917 9.53617,7.8102 9.53617,14.35445 0,6.2071 -3.01499,11.59543 -7.74451,15.90489 -4.7307,4.30944 -9.41754,6.61641 -15.78743,8.00593 z" /></g></g></svg>