<?xml version="1.0" encoding="UTF-8" standalone="no"?>
<svg
   xmlns:dc="http://purl.org/dc/elements/1.1/"
   xmlns:cc="http://creativecommons.org/ns#"
   xmlns:rdf="http://www.w3.org/1999/02/22-rdf-syntax-ns#"
   xmlns:svg="http://www.w3.org/2000/svg"
   xmlns="http://www.w3.org/2000/svg"
   id="svg2"
   height="14"
   width="14"
   version="1.1">
  <metadata
     id="metadata8">
    <rdf:RDF>
      <cc:Work
         rdf:about="">
        <dc:format>image/svg+xml</dc:format>
        <dc:type
           rdf:resource="http://purl.org/dc/dcmitype/StillImage" />
        <dc:title></dc:title>
      </cc:Work>
    </rdf:RDF>
  </metadata>
  <defs
     id="defs6" />
  <path
     style="fill:#000000;fill-opacity:1;stroke:none"
     id="sports"
     d="M 3,0 C 4,0.5125136 4,0.51995656 4,1 2.4961741,-0.2862214 0.539809,0.9212556 0.5,2.570083 0.5,3.4119994 0.4683664,3.5551891 1,4.320083 1.464621,4.9885617 3.1823438,5.0650576 4,6 4,7 5,8 6,8 l 0,3 -2,0 0,3 6,0 0,-3 -2,0 0,-3 c 1,0 2,-1 2,-2 0.817656,-0.9349424 2.535379,-1.0114383 3,-1.679917 0.531634,-0.7648939 0.5,-0.9080836 0.5,-1.75 C 13.49075,1.320083 11.847661,-0.3324813 10,1 10,0.49309715 10,0.4820457 11,0 Z M 2.3401795,1.320083 C 2.8500162,1.22418 3.0166539,1.4213292 4,2.320083 4.00979,5.1700898 4.015665,3.6771007 4,5 3.6594798,4.6043519 2.0279825,4.2673348 1.8080454,3.9508977 1,3 1.2863553,1.8332284 2.3401795,1.320083 Z m 9.4763335,0 C 13,2.1264552 13,3.320083 12.313384,3.9508977 11.717444,4.5198113 10.280775,4.5725516 10,5 c 0,-1.8504367 0.05298,-1.711167 0,-2.679917 0.706958,-0.7434489 1,-1.2196537 1.816513,-1 z" />
</svg>
