<?xml version="1.0" encoding="UTF-8" standalone="no"?>
<!-- Created with Inkscape (http://www.inkscape.org/) -->

<svg
   xmlns:dc="http://purl.org/dc/elements/1.1/"
   xmlns:cc="http://creativecommons.org/ns#"
   xmlns:rdf="http://www.w3.org/1999/02/22-rdf-syntax-ns#"
   xmlns:svg="http://www.w3.org/2000/svg"
   xmlns="http://www.w3.org/2000/svg"
   version="1.1"
   width="100%"
   height="100%"
   viewBox="0 0 16 16"
   id="svg2">
  <metadata
     id="metadata8">
    <rdf:RDF>
      <cc:Work
         rdf:about="">
        <dc:format>image/svg+xml</dc:format>
        <dc:type
           rdf:resource="http://purl.org/dc/dcmitype/StillImage" />
        <dc:title></dc:title>
      </cc:Work>
    </rdf:RDF>
  </metadata>
  <defs
     id="defs6" />
  <rect
     width="16"
     height="16"
     x="0"
     y="0"
     id="canvas"
     style="fill:none;stroke:none;visibility:hidden" />
  <path
     d="m 9.0003502,1 c -1.53125,0 -3,0.9998209 -3,2.5 0,1.5001791 1,2.03125 2,5.5 1,-3.4375 3.3749998,-4 3.4999998,-5.5 C 11.62535,2 10.5316,1 9.0003502,1 z m -5.5,6.5 c -2.0183,0 -2.416834,2.697459 -1,4 1.416834,1.302541 2.887622,1.099599 4.5,3.5 0.400102,-2 0.282636,-3 0,-4 -0.282636,-1 -1.4817,-3.5 -3.5,-3.5 z M 12.50035,8 c -2.0183,0 -3.2173638,2 -3.4999998,3 -0.282636,1 -0.400102,2 0,4 1.6123778,-2.400401 3.5831658,-1.697459 4.9999998,-3 1.416834,-1.302541 0.5183,-4 -1.5,-4 z"
     id="spring"
     style="fill:#1a1a1a;fill-opacity:1;stroke:none" />
</svg>
