<?xml version="1.0" encoding="utf-8"?>
<!-- Generator: Adobe Illustrator 14.0.0, SVG Export Plug-In . SVG Version: 6.00 Build 43363)  -->
<!DOCTYPE svg PUBLIC "-//W3C//DTD SVG 1.1//EN" "http://www.w3.org/Graphics/SVG/1.1/DTD/svg11.dtd">
<svg version="1.1"
	 id="svg2" xmlns:rdf="http://www.w3.org/1999/02/22-rdf-syntax-ns#" xmlns:cc="http://web.resource.org/cc/" xmlns:dc="http://purl.org/dc/elements/1.1/" inkscape:version="0.43" xmlns:inkscape="http://www.inkscape.org/namespaces/inkscape" xmlns:sodipodi="http://inkscape.sourceforge.net/DTD/sodipodi-0.dtd" xmlns:svg="http://www.w3.org/2000/svg" sodipodi:docname="Aiga_stairs.svg" sodipodi:docbase="C:\Documents and Settings\Owner\Desktop\SVG" sodipodi:version="0.32"
	 xmlns="http://www.w3.org/2000/svg" xmlns:xlink="http://www.w3.org/1999/xlink" x="0px" y="0px" width="443px" height="367px"
	 viewBox="0 0 443 367" enable-background="new 0 0 443 367" xml:space="preserve">
<sodipodi:namedview  inkscape:cx="219.83307" inkscape:pageopacity="0.0" inkscape:current-layer="svg2" inkscape:window-height="543" borderopacity="1.0" inkscape:window-width="756" inkscape:cy="188.63096" pagecolor="#ffffff" inkscape:window-x="88" inkscape:pageshadow="2" inkscape:zoom="0.5149308" bordercolor="#666666" inkscape:window-y="132" id="base">
	</sodipodi:namedview>
<path id="path1312" sodipodi:nodetypes="ccsccsscccscccccccccs" fill="#0000FF" d="M215.026,189.984l2.799-0.021
	c0,0,0.014-2.847,0.029-2.871l2.833-0.062l0.036-2.917c0,0,2.817-0.031,2.85-0.059c0.039-0.032,0.055-2.834,0.105-2.853l2.823-0.022
	v-2.88h4.284c0,0-0.008,1.472-0.057,1.491l-2.787,0.022l-0.019,2.861l-2.844,0.036l-0.036,2.879l-2.844,0.036l-0.036,2.88
	l-2.88,0.037l-0.019,2.934h-4.319C214.945,191.475,214.945,190.007,215.026,189.984z"/>
</svg>
