<?xml version="1.0" encoding="UTF-8" standalone="no"?>
<!-- Created with Inkscape (http://www.inkscape.org/) -->

<svg
   xmlns="http://www.w3.org/2000/svg"
   version="1.1"
   width="100%"
   height="100%"
   viewBox="0 0 16 16">
  <path
     d="m 8,15 c 3.858078,0 7,-3.169117 7,-7 C 15,4.169117 11.877274,1 8,1 4.122726,1 1,4.13993 1,8 c 0,3.860071 3.141922,7 7,7 z M 8,14 C 4.680369,14 2,11.319631 2,8 2,4.680369 4.680369,2 8,2 c 3,0 4,5.4793944 0,6 -4,0.5206056 -2.915254,6 0,6 z m 0,-2 c -0.5522848,0 -1,-0.447716 -1,-1 0,-0.552284 0.4477152,-1 1,-1 0.5522848,0 1,0.447716 1,1 0,0.552284 -0.4477152,1 -1,1 z M 8,6 C 8.5522847,6 9,5.552285 9,5 9,4.447715 8.5522847,4 8,4 7.4477153,4 7,4.447715 7,5 7,5.552285 7.4477153,6 8,6 z" />
</svg>
