<?xml version="1.0" encoding="UTF-8" standalone="no"?>
<!-- Created with Inkscape (http://www.inkscape.org/) -->

<svg
   xmlns:dc="http://purl.org/dc/elements/1.1/"
   xmlns:cc="http://creativecommons.org/ns#"
   xmlns:rdf="http://www.w3.org/1999/02/22-rdf-syntax-ns#"
   xmlns:svg="http://www.w3.org/2000/svg"
   xmlns="http://www.w3.org/2000/svg"
   version="1.1"
   width="100%"
   height="100%"
   viewBox="0 0 18 18"
   id="svg2">
  <metadata
     id="metadata8">
    <rdf:RDF>
      <cc:Work
         rdf:about="">
        <dc:format>image/svg+xml</dc:format>
        <dc:type
           rdf:resource="http://purl.org/dc/dcmitype/StillImage" />
        <dc:title></dc:title>
      </cc:Work>
    </rdf:RDF>
  </metadata>
  <defs
     id="defs6" />
  <rect
     width="18"
     height="18"
     x="0"
     y="0"
     id="canvas"
     style="fill:none;stroke:none;visibility:hidden" />
  <g
     id="taoist">
    <path
       d="m 9,16 c 3.858078,0 7,-3.169117 7,-7 C 16,5.169117 12.877274,2 9,2 5.122726,2 2,5.13993 2,9 c 0,3.860071 3.141922,7 7,7 z M 9,15 C 5.680369,15 3,12.319631 3,9 3,5.680369 5.680369,3 9,3 c 3,0 4,5.4793944 0,6 -4,0.520606 -2.915254,6 0,6 z m 0,-2 c -0.5522848,0 -1,-0.447716 -1,-1 0,-0.552284 0.4477152,-1 1,-1 0.5522848,0 1,0.447716 1,1 0,0.552284 -0.4477152,1 -1,1 z M 9,7 C 9.5522847,7 10,6.552285 10,6 10,5.447715 9.5522847,5 9,5 8.4477153,5 8,5.447715 8,6 8,6.552285 8.4477153,7 9,7 z"
       id="halo"
       style="opacity:0.3;fill:#ffffff;fill-opacity:1;stroke:#ffffff;stroke-width:2;stroke-miterlimit:4;stroke-opacity:1;stroke-dasharray:none" />
    <path
       d="m 9,16 c 3.858078,0 7,-3.169117 7,-7 C 16,5.169117 12.877274,2 9,2 5.122726,2 2,5.13993 2,9 c 0,3.860071 3.141922,7 7,7 z M 9,15 C 5.680369,15 3,12.319631 3,9 3,5.680369 5.680369,3 9,3 c 3,0 4,5.4793944 0,6 -4,0.520606 -2.915254,6 0,6 z m 0,-2 c -0.552285,0 -1,-0.447716 -1,-1 0,-0.552284 0.447715,-1 1,-1 0.552285,0 1,0.447716 1,1 0,0.552284 -0.447715,1 -1,1 z M 9,7 C 9.552285,7 10,6.552285 10,6 10,5.447715 9.552285,5 9,5 8.447715,5 8,5.447715 8,6 8,6.552285 8.447715,7 9,7 z"
       id="icon"
       style="fill:#1a1a1a;fill-opacity:1;stroke:none" />
  </g>
</svg>
