<?xml version="1.0" encoding="utf-8"?>
<!-- Generator: Adobe Illustrator 14.0.0, SVG Export Plug-In . SVG Version: 6.00 Build 43363)  -->
<!DOCTYPE svg PUBLIC "-//W3C//DTD SVG 1.1//EN" "http://www.w3.org/Graphics/SVG/1.1/DTD/svg11.dtd">
<svg version="1.1"
	 id="svg2" xmlns:rdf="http://www.w3.org/1999/02/22-rdf-syntax-ns#" sodipodi:docname="taxi_rank.svg" inkscape:version="0.46" xmlns:svg="http://www.w3.org/2000/svg" xmlns:sodipodi="http://sodipodi.sourceforge.net/DTD/sodipodi-0.dtd" xmlns:inkscape="http://www.inkscape.org/namespaces/inkscape" xmlns:dc="http://purl.org/dc/elements/1.1/" sodipodi:version="0.32" xmlns:cc="http://creativecommons.org/ns#" inkscape:output_extension="org.inkscape.output.svg.inkscape"
	 xmlns="http://www.w3.org/2000/svg" xmlns:xlink="http://www.w3.org/1999/xlink" x="0px" y="0px" width="580px" height="580px"
	 viewBox="0 0 580 580" enable-background="new 0 0 580 580" xml:space="preserve">
<defs>
	
	
		<inkscape:perspective  inkscape:persp3d-origin="290 : 193.33333 : 1" inkscape:vp_z="580 : 290 : 1" inkscape:vp_y="0 : 1000 : 0" inkscape:vp_x="0 : 290 : 1" sodipodi:type="inkscape:persp3d" id="perspective24">
		</inkscape:perspective>
	
		<inkscape:perspective  inkscape:persp3d-origin="306.082 : 204.39034 : 1" inkscape:vp_z="612.164 : 306.58551 : 1" inkscape:vp_y="0 : 1000 : 0" inkscape:vp_x="0 : 306.58551 : 1" sodipodi:type="inkscape:persp3d" id="perspective2683">
		</inkscape:perspective>
	
		<inkscape:perspective  inkscape:persp3d-origin="306.082 : 204.39034 : 1" inkscape:vp_z="612.164 : 306.58551 : 1" inkscape:vp_y="0 : 1000 : 0" inkscape:vp_x="0 : 306.58551 : 1" sodipodi:type="inkscape:persp3d" id="perspective2953">
		</inkscape:perspective>
	
		<inkscape:perspective  inkscape:persp3d-origin="180.936 : 163.92867 : 1" inkscape:vp_z="361.87201 : 245.89301 : 1" inkscape:vp_y="0 : 1000 : 0" inkscape:vp_x="0 : 245.89301 : 1" sodipodi:type="inkscape:persp3d" id="perspective3071">
		</inkscape:perspective>
	
		<inkscape:perspective  inkscape:persp3d-origin="306.082 : 204.39034 : 1" inkscape:vp_z="612.164 : 306.58551 : 1" inkscape:vp_y="0 : 1000 : 0" inkscape:vp_x="0 : 306.58551 : 1" sodipodi:type="inkscape:persp3d" id="perspective3182">
		</inkscape:perspective>
</defs>
<sodipodi:namedview  showgrid="false" inkscape:current-layer="svg2" inkscape:window-y="0" inkscape:window-x="0" inkscape:cy="415.25176" inkscape:cx="615.26172" inkscape:zoom="0.70710678" pagecolor="#ffffff" bordercolor="#666666" borderopacity="1.0" objecttolerance="10.0" gridtolerance="10.0" guidetolerance="10.0" inkscape:window-height="1005" inkscape:window-width="1280" inkscape:pageshadow="2" inkscape:pageopacity="0.0" id="base">
	</sodipodi:namedview>
<g id="g3324" transform="translate(-12.51126,-134.23929)">
	<path id="path3338" fill="#0071BC" d="M305.31,405.04c-0.226,0-0.364,0.128-0.364,0.382v0.633h-1.366
		c-0.735,0-1.125,0.395-1.305,0.856l-0.956,2.426c-0.379,0.047-1.049,0.484-1.049,1.313v3.086h0.93v0.986c0,1.214,1.747,1.2,1.747,0
		v-0.986h3.142h0.002h3.142v0.986c0,1.2,1.748,1.214,1.748,0v-0.986h0.929v-3.086c0-0.829-0.671-1.266-1.05-1.313l-0.956-2.426
		c-0.181-0.461-0.57-0.856-1.306-0.856h-1.35v-0.633c0-0.253-0.139-0.382-0.364-0.382h-0.793h-0.002H305.31z M303.569,406.938h2.518
		h0.002h0.002h2.519c0.314,0.003,0.45,0.196,0.54,0.465l0.72,1.876h-3.778h-0.002h-0.002h-3.778l0.72-1.876
		C303.119,407.135,303.253,406.941,303.569,406.938z M302.101,410.214c0.446,0,0.807,0.366,0.807,0.818
		c0,0.452-0.361,0.818-0.807,0.818s-0.807-0.366-0.807-0.818C301.293,410.581,301.655,410.214,302.101,410.214z M310.077,410.214
		c0.446,0,0.808,0.366,0.808,0.818c0,0.452-0.361,0.818-0.808,0.818c-0.445,0-0.806-0.366-0.806-0.818
		C309.271,410.581,309.631,410.214,310.077,410.214z"/>
</g>
<path id="text3390" fill="#0071BC" d="M287.919,282.728h2.905v0.759h-0.975v2.313h-0.956v-2.313h-0.975V282.728z M293.161,285.293
	h-1.088l-0.15,0.507h-0.977l1.162-3.072h1.043l1.162,3.072h-1L293.161,285.293z M292.961,284.629l-0.342-1.104l-0.34,1.104H292.961z
	 M294.404,282.728h1.052l0.549,0.945l0.531-0.945h1.042l-0.962,1.488l1.053,1.584h-1.073l-0.609-0.987l-0.612,0.987h-1.067
	l1.067-1.601L294.404,282.728z M298.013,282.728h0.958v3.072h-0.958V282.728z"/>
</svg>
