<?xml version="1.0" encoding="utf-8"?>
<!-- Generator: Adobe Illustrator 14.0.0, SVG Export Plug-In . SVG Version: 6.00 Build 43363)  -->
<!DOCTYPE svg PUBLIC "-//W3C//DTD SVG 1.1//EN" "http://www.w3.org/Graphics/SVG/1.1/DTD/svg11.dtd">
<svg version="1.1"
	 id="svg2" xmlns:rdf="http://www.w3.org/1999/02/22-rdf-syntax-ns#" sodipodi:docname="telephone.svg" inkscape:version="0.46" xmlns:svg="http://www.w3.org/2000/svg" xmlns:sodipodi="http://sodipodi.sourceforge.net/DTD/sodipodi-0.dtd" xmlns:inkscape="http://www.inkscape.org/namespaces/inkscape" xmlns:dc="http://purl.org/dc/elements/1.1/" sodipodi:version="0.32" xmlns:cc="http://creativecommons.org/ns#" inkscape:output_extension="org.inkscape.output.svg.inkscape" sodipodi:docbase="s:\Data\FacilityIcons"
	 xmlns="http://www.w3.org/2000/svg" xmlns:xlink="http://www.w3.org/1999/xlink" x="0px" y="0px" width="580px" height="580px"
	 viewBox="0 0 580 580" enable-background="new 0 0 580 580" xml:space="preserve">
<sodipodi:namedview  showgrid="false" inkscape:current-layer="svg2" inkscape:window-y="25" inkscape:window-x="91" inkscape:cy="281.19503" inkscape:cx="301.5186" inkscape:zoom="0.92167712" pagecolor="#ffffff" bordercolor="#666666" borderopacity="1.0" objecttolerance="10.0" gridtolerance="10.0" guidetolerance="10.0" inkscape:window-height="947" inkscape:window-width="1048" inkscape:pageshadow="2" inkscape:pageopacity="0.0" id="base">
	</sodipodi:namedview>
<defs>
	
	
		<inkscape:perspective  inkscape:persp3d-origin="290 : 193.33333 : 1" inkscape:vp_z="580 : 290 : 1" inkscape:vp_y="0 : 1000 : 0" inkscape:vp_x="0 : 290 : 1" sodipodi:type="inkscape:persp3d" id="perspective2441">
		</inkscape:perspective>
	
		<inkscape:perspective  inkscape:persp3d-origin="30 : 20 : 1" inkscape:vp_z="60 : 30 : 1" inkscape:vp_y="0 : 1000 : 0" inkscape:vp_x="0 : 30 : 1" sodipodi:type="inkscape:persp3d" id="perspective3452">
		</inkscape:perspective>
	
		<inkscape:perspective  inkscape:persp3d-origin="372.04724 : 350.78739 : 1" inkscape:vp_z="744.09448 : 526.18109 : 1" inkscape:vp_y="0 : 1000 : 0" inkscape:vp_x="0 : 526.18109 : 1" sodipodi:type="inkscape:persp3d" id="perspective4471">
		</inkscape:perspective>
	
		<inkscape:perspective  inkscape:persp3d-origin="6 : 4 : 1" inkscape:vp_z="12 : 6 : 1" inkscape:vp_y="0 : 1000 : 0" inkscape:vp_x="0 : 6 : 1" sodipodi:type="inkscape:persp3d" id="perspective4668">
		</inkscape:perspective>
	
		<inkscape:perspective  inkscape:persp3d-origin="306.082 : 204.39034 : 1" inkscape:vp_z="612.164 : 306.58551 : 1" inkscape:vp_y="0 : 1000 : 0" inkscape:vp_x="0 : 306.58551 : 1" sodipodi:type="inkscape:persp3d" id="perspective2510">
		</inkscape:perspective>
	
		<inkscape:perspective  inkscape:persp3d-origin="306.082 : 204.39034 : 1" inkscape:vp_z="612.164 : 306.58551 : 1" inkscape:vp_y="0 : 1000 : 0" inkscape:vp_x="0 : 306.58551 : 1" sodipodi:type="inkscape:persp3d" id="perspective2605">
		</inkscape:perspective>
</defs>
<g id="layer3" transform="matrix(48.14969,0,0,48.14969,-536.27327,-33.306752)" inkscape:label="Layout" display="none">
	<rect id="rect4134" x="1" y="1" display="inline" fill="none" stroke="#757575" stroke-width="0.1" width="10" height="10"/>
	<rect id="rect4136" x="2" y="2" display="inline" fill="none" stroke="#757575" stroke-width="0.1" width="8" height="8"/>
</g>
<g id="g1331" transform="matrix(0.9537247,0.6649405,-0.6649405,0.9537247,190.65781,-211.89377)">
	<path id="path1333" fill="#63472D" d="M324.484,299.316c-0.587,0.066-2.722,1.042-2.786,6.076
		c-0.066,5.301,2.199,6.417,2.792,6.405l0-3.502c-0.488-0.002-0.588-0.534-0.697-1.63c-0.075-0.727-0.098-1.626-0.001-2.52
		c0.065-0.627,0.183-1.24,0.695-1.239L324.484,299.316z"/>
	<path id="path1335" fill="#63472D" d="M325.749,311.802c0.227-0.001,0.389-0.184,0.389-0.391l0.001-0.003c0,0-0.001-2.729,0-2.731
		c0.001-0.216-0.177-0.386-0.389-0.387l-0.992-0.001l0,3.512C324.757,311.802,325.748,311.802,325.749,311.802L325.749,311.802z"/>
	<path id="path1337" fill="#63472D" d="M325.75,302.906c0.226-0.002,0.388-0.187,0.389-0.392l0.001-0.003
		c0,0-0.001-2.807-0.001-2.808c0.001-0.216-0.174-0.389-0.387-0.388l-0.992,0l0,3.589L325.75,302.906L325.75,302.906z"/>
</g>
</svg>
