<?xml version="1.0" encoding="utf-8"?>
<!-- Generator: Adobe Illustrator 14.0.0, SVG Export Plug-In . SVG Version: 6.00 Build 43363)  -->
<!DOCTYPE svg PUBLIC "-//W3C//DTD SVG 1.1//EN" "http://www.w3.org/Graphics/SVG/1.1/DTD/svg11.dtd">
<svg version="1.1"
	 id="svg2" xmlns:rdf="http://www.w3.org/1999/02/22-rdf-syntax-ns#" sodipodi:docname="theatre.svg" inkscape:version="0.46" xmlns:svg="http://www.w3.org/2000/svg" xmlns:sodipodi="http://sodipodi.sourceforge.net/DTD/sodipodi-0.dtd" xmlns:inkscape="http://www.inkscape.org/namespaces/inkscape" xmlns:dc="http://purl.org/dc/elements/1.1/" sodipodi:version="0.32" xmlns:cc="http://creativecommons.org/ns#" inkscape:output_extension="org.inkscape.output.svg.inkscape" sodipodi:docbase="s:\Data\FacilityIcons"
	 xmlns="http://www.w3.org/2000/svg" xmlns:xlink="http://www.w3.org/1999/xlink" x="0px" y="0px" width="580px" height="580px"
	 viewBox="0 0 580 580" enable-background="new 0 0 580 580" xml:space="preserve">
<path id="path3327" fill="#FFFFFF" stroke="#603813" stroke-width="0.6335" d="M275.686,284.965
	c-0.307,0.001-0.647,0.246-0.864,0.451c-0.929,0.712-1.607,1.223-3.159,1.641c-0.589,0.178-1.79-0.039-2.967-0.122
	c-0.751-0.117-0.107,1.225-0.007,1.771c0.669,2.092,1.438,4.211,2.796,5.966c0.774,0.862,1.846,1.612,3.047,1.6
	c0.992-0.083,1.812-0.88,2.044-1.829c0.021-0.064,0.039-0.13,0.056-0.195c0.026-0.099,0.052-0.198,0.076-0.299
	c-0.146-0.228-0.257-0.479-0.322-0.744c-0.02-0.063-0.038-0.129-0.055-0.193c-0.54-2.019-0.506-4.142-0.272-6.202
	c0.068-0.33,0.151-0.658,0.241-0.983c-0.062-0.207-0.124-0.414-0.184-0.621C275.997,285.031,275.846,284.965,275.686,284.965z"/>
<path id="path3354" sodipodi:nodetypes="ccccccccccc" fill="#FFFFFF" stroke="#603813" stroke-width="0.6335" d="M276.33,293.012
	c-0.54-2.019-0.505-4.143-0.271-6.203c0.198-0.962,0.516-1.896,0.786-2.839c0.346-0.509,0.963-0.103,1.294,0.209
	c0.928,0.713,1.608,1.224,3.159,1.642c0.589,0.178,1.789-0.039,2.966-0.122c0.752-0.117,0.108,1.225,0.008,1.771
	c-0.668,2.092-1.438,4.21-2.796,5.966c-0.774,0.861-1.845,1.613-3.046,1.6c-0.993-0.083-1.812-0.88-2.044-1.83
	C276.365,293.142,276.348,293.077,276.33,293.012z"/>
<sodipodi:namedview  showgrid="false" inkscape:current-layer="svg2" inkscape:window-y="25" inkscape:window-x="91" inkscape:cy="163.05342" inkscape:cx="628.59125" inkscape:zoom="0.46083856" pagecolor="#ffffff" bordercolor="#666666" borderopacity="1.0" objecttolerance="10.0" gridtolerance="10.0" guidetolerance="10.0" inkscape:window-height="947" inkscape:window-width="1048" inkscape:pageshadow="2" inkscape:pageopacity="0.0" id="base">
	</sodipodi:namedview>
<defs>
	
	
		<inkscape:perspective  inkscape:persp3d-origin="290 : 193.33333 : 1" inkscape:vp_z="580 : 290 : 1" inkscape:vp_y="0 : 1000 : 0" inkscape:vp_x="0 : 290 : 1" sodipodi:type="inkscape:persp3d" id="perspective2441">
		</inkscape:perspective>
	
		<inkscape:perspective  inkscape:persp3d-origin="30 : 20 : 1" inkscape:vp_z="60 : 30 : 1" inkscape:vp_y="0 : 1000 : 0" inkscape:vp_x="0 : 30 : 1" sodipodi:type="inkscape:persp3d" id="perspective3452">
		</inkscape:perspective>
	
		<inkscape:perspective  inkscape:persp3d-origin="372.04724 : 350.78739 : 1" inkscape:vp_z="744.09448 : 526.18109 : 1" inkscape:vp_y="0 : 1000 : 0" inkscape:vp_x="0 : 526.18109 : 1" sodipodi:type="inkscape:persp3d" id="perspective4471">
		</inkscape:perspective>
	
		<inkscape:perspective  inkscape:persp3d-origin="6 : 4 : 1" inkscape:vp_z="12 : 6 : 1" inkscape:vp_y="0 : 1000 : 0" inkscape:vp_x="0 : 6 : 1" sodipodi:type="inkscape:persp3d" id="perspective4668">
		</inkscape:perspective>
	
		<inkscape:perspective  inkscape:persp3d-origin="372.04724 : 350.78739 : 1" inkscape:vp_z="744.09448 : 526.18109 : 1" inkscape:vp_y="0 : 1000 : 0" inkscape:vp_x="0 : 526.18109 : 1" sodipodi:type="inkscape:persp3d" id="perspective2543">
		</inkscape:perspective>
</defs>
<g id="layer3" transform="matrix(48.14969,0,0,48.14969,-536.27327,-33.306752)" inkscape:label="Layout" display="none">
	<rect id="rect4134" x="1" y="1" display="inline" fill="none" stroke="#757575" stroke-width="0.1" width="10" height="10"/>
	<rect id="rect4136" x="2" y="2" display="inline" fill="none" stroke="#757575" stroke-width="0.1" width="8" height="8"/>
</g>
<path id="path3331" fill="#603813" stroke="#603813" stroke-width="0.6335" d="M277.229,283.984
	c-0.246,0.063-0.211,0.384-0.292,0.57c-0.362,1.159-0.727,2.338-0.741,3.563c-0.112,1.841-0.04,3.742,0.601,5.483
	c0.378,0.785,1.284,1.353,2.163,1.13c1.24-0.256,2.229-1.188,2.872-2.244c1.207-1.886,1.888-4.035,2.505-6.171
	c0.012-0.113,0.058-0.288-0.011-0.37c-0.595,0.041-1.194,0.12-1.792,0.172c-0.653,0.062-1.319,0.001-1.929-0.237
	c-1.09-0.361-2.049-1.011-2.922-1.743C277.549,284.048,277.393,283.979,277.229,283.984z M279.178,286.877
	c0.517-0.017,0.752,0.722,0.401,1.059c-0.474,0.51-1.216,0.853-1.917,0.672c-0.43-0.154-0.673-0.774-0.346-1.137
	C277.832,287.024,278.572,287.101,279.178,286.877z M281.267,287.336c0.542-0.016,0.938,0.497,1.008,0.993
	c0.142,0.342,0.392,0.726,0.214,1.103c-0.13,0.284-0.499,0.336-0.765,0.231c-0.637-0.147-1.062-0.778-1.074-1.418
	c-0.058-0.367,0.115-0.838,0.522-0.899C281.204,287.34,281.235,287.337,281.267,287.336z M279.164,290.681
	c0.669,0.011,1.281,0.418,1.673,0.938c0.25,0.428,0.13,1.113-0.376,1.289c-0.347,0.076-0.576-0.257-0.853-0.399
	c-0.442-0.283-1.008-0.287-1.491-0.118c-0.237,0.074-0.56,0.021-0.65-0.242c-0.154-0.363,0.066-0.785,0.384-0.979
	C278.227,290.88,278.685,290.682,279.164,290.681z"/>
<path id="path3360" fill="#603813" d="M273.184,294.098c-0.493-0.068-0.965-0.361-1.202-0.807c0.263-0.291,0.638,0.005,0.945,0.033
	c0.716,0.09,1.385-0.381,1.734-0.979c0.226-0.217,0.256-0.808,0.649-0.721c0.283,0.156,0.229,0.518,0.161,0.78
	c-0.045,0.35-0.215,0.664-0.439,0.932c-0.177,0.236-0.353,0.508-0.659,0.586C273.979,293.996,273.59,294.182,273.184,294.098z
	 M271.435,290.271c-0.378-0.223-0.833-0.36-1.1-0.729c-0.06-0.421,0.471-0.696,0.824-0.531c0.416,0.13,0.809,0.368,1.072,0.721
	c0.175,0.317-0.128,0.818-0.506,0.655C271.625,290.355,271.532,290.308,271.435,290.271z M273.842,289.491
	c-0.264-0.347-0.267-0.95,0.144-1.188c0.27-0.178,0.656-0.3,0.942-0.09c0.15,0.31-0.115,0.594-0.234,0.862
	c-0.072,0.271-0.25,0.575-0.56,0.602C274.011,289.68,273.9,289.597,273.842,289.491z"/>
</svg>
