<?xml version="1.0" encoding="UTF-8" standalone="no"?>
<!-- Created with Inkscape (http://www.inkscape.org/) -->

<svg
   xmlns:dc="http://purl.org/dc/elements/1.1/"
   xmlns:cc="http://creativecommons.org/ns#"
   xmlns:rdf="http://www.w3.org/1999/02/22-rdf-syntax-ns#"
   xmlns:svg="http://www.w3.org/2000/svg"
   xmlns="http://www.w3.org/2000/svg"
   version="1.1"
   width="100%"
   height="100%"
   viewBox="0 0 18 18"
   id="svg2">
  <metadata
     id="metadata8">
    <rdf:RDF>
      <cc:Work
         rdf:about="">
        <dc:format>image/svg+xml</dc:format>
        <dc:type
           rdf:resource="http://purl.org/dc/dcmitype/StillImage" />
        <dc:title></dc:title>
      </cc:Work>
    </rdf:RDF>
  </metadata>
  <defs
     id="defs6" />
  <rect
     width="18"
     height="18"
     x="0"
     y="0"
     id="canvas"
     style="fill:none;stroke:none;visibility:hidden" />
  <g
     id="theatre">
    <path
       d="m 2,2 0,7 c 0,0 0,4 4,4 0.4876943,0 0.9052288,-0.08308 1.28125,-0.1875 C 7.222862,12.329209 7.25,12 7.25,12 l 0,-0.21875 C 6.9069891,11.915179 6.4900129,12 6,12 3,12 3,9 3,9 L 3,3.5 c 2,0.9520605 4,0.9520605 6,0 L 9,4.65625 C 9.3344864,4.7893793 9.6766322,4.9137483 10,5 L 10,2 C 7,3.3728814 5,3.3050847 2,2 z m 2.5,3 c -0.5522847,0 -1,0.4477153 -1,1 0,0.5522847 0.4477153,1 1,1 0.5522847,0 1,-0.4477153 1,-1 0,-0.5522847 -0.4477153,-1 -1,-1 z M 8,5 8,12 c 0,0 0,4 4,4 4,0 4,-4 4,-4 L 16,5 C 13,6.3728814 11,6.3050847 8,5 z m 2.5,3 c 0.552285,0 1,0.4477153 1,1 0,0.552285 -0.447715,1 -1,1 -0.5522847,0 -1,-0.447715 -1,-1 0,-0.5522847 0.4477153,-1 1,-1 z m 3,0 c 0.552285,0 1,0.4477153 1,1 0,0.552285 -0.447715,1 -1,1 -0.552285,0 -1,-0.447715 -1,-1 0,-0.5522847 0.447715,-1 1,-1 z M 6,8.5 c -1.4622401,0 -2,1.016949 -2,2 l 3.25,0 0,-1.65625 C 6.9457008,8.6221969 6.5458781,8.5 6,8.5 z m 4,3.5 4,0 c 0,1 -1,2 -2,2 -1,0 -2,-1 -2,-2 z"
       id="halo"
       style="opacity:0.3;fill:#ffffff;fill-opacity:1;stroke:#ffffff;stroke-width:2;stroke-miterlimit:4;stroke-opacity:1;stroke-dasharray:none" />
    <path
       d="m 2,2 0,7 c 0,0 0,4 4,4 0.487694,0 0.905229,-0.08308 1.28125,-0.1875 C 7.222862,12.329209 7.25,12 7.25,12 l 0,-0.21875 C 6.906989,11.915179 6.490013,12 6,12 3,12 3,9 3,9 L 3,3.5 c 2,0.9520605 4,0.9520605 6,0 L 9,4.65625 C 9.334486,4.7893793 9.676632,4.9137483 10,5 L 10,2 C 7,3.3728814 5,3.3050847 2,2 z m 2.5,3 c -0.552285,0 -1,0.4477153 -1,1 0,0.5522847 0.447715,1 1,1 0.552285,0 1,-0.4477153 1,-1 0,-0.5522847 -0.447715,-1 -1,-1 z M 8,5 8,12 c 0,0 0,4 4,4 4,0 4,-4 4,-4 L 16,5 C 13,6.3728814 11,6.3050847 8,5 z m 2.5,3 c 0.552285,0 1,0.4477153 1,1 0,0.552285 -0.447715,1 -1,1 -0.552285,0 -1,-0.447715 -1,-1 0,-0.5522847 0.447715,-1 1,-1 z m 3,0 c 0.552285,0 1,0.4477153 1,1 0,0.552285 -0.447715,1 -1,1 -0.552285,0 -1,-0.447715 -1,-1 0,-0.5522847 0.447715,-1 1,-1 z M 6,8.5 c -1.46224,0 -2,1.016949 -2,2 l 3.25,0 0,-1.65625 C 6.945701,8.6221969 6.545878,8.5 6,8.5 z m 4,3.5 4,0 c 0,1 -1,2 -2,2 -1,0 -2,-1 -2,-2 z"
       id="icon"
       style="fill:#1a1a1a;fill-opacity:1;stroke:none" />
  </g>
</svg>
