<?xml version="1.0" encoding="UTF-8" standalone="no"?>
<!-- Created with Inkscape (http://www.inkscape.org/) -->

<svg
   xmlns:dc="http://purl.org/dc/elements/1.1/"
   xmlns:cc="http://creativecommons.org/ns#"
   xmlns:rdf="http://www.w3.org/1999/02/22-rdf-syntax-ns#"
   xmlns:svg="http://www.w3.org/2000/svg"
   xmlns="http://www.w3.org/2000/svg"
   version="1.1"
   width="12"
   height="12"
   id="svg4764">
  <defs
     id="defs4766" />
  <metadata
     id="metadata4769">
    <rdf:RDF>
      <cc:Work
         rdf:about="">
        <dc:format>image/svg+xml</dc:format>
        <dc:type
           rdf:resource="http://purl.org/dc/dcmitype/StillImage" />
        <dc:title></dc:title>
      </cc:Work>
    </rdf:RDF>
  </metadata>
  <g
     transform="matrix(0,1,-1,0,1051.3622,0)"
     id="layer1">
    <path
       d="M 3,1 3,4 4,4 4,2 9,2 9,9 4,9 4,7 3,7 l 0,3 7,0 0,-9 z M 5,3 5,5 1,5 1,6 5,6 5,8 5.5,8 8.5,5.5 5.5,3 z"
       transform="translate(0,1040.3622)"
       id="path4901"
       style="opacity:0.3;fill:none;stroke:#ffffff;stroke-width:2;stroke-linecap:round;stroke-linejoin:round;stroke-miterlimit:4;stroke-opacity:1;stroke-dasharray:none" />
    <path
       d="M 3,1 3,4 4,4 4,2 9,2 9,9 4,9 4,7 3,7 l 0,3 7,0 0,-9 z M 5,3 5,5 1,5 1,6 5,6 5,8 5.5,8 8.5,5.5 5.5,3 z"
       transform="translate(0,1040.3622)"
       id="rect3955"
       style="fill:#444444;stroke:none" />
  </g>
  <rect
     width="12"
     height="12"
     x="0"
     y="-12"
     transform="matrix(0,1,-1,0,0,0)"
     id="canvas"
     style="fill:none;stroke:none;visibility:hidden" />
</svg>
