<?xml version="1.0" encoding="utf-8"?>
<!-- Generator: Adobe Illustrator 14.0.0, SVG Export Plug-In . SVG Version: 6.00 Build 43363)  -->
<!DOCTYPE svg PUBLIC "-//W3C//DTD SVG 1.1//EN" "http://www.w3.org/Graphics/SVG/1.1/DTD/svg11.dtd">
<svg version="1.1"
	 id="svg2" xmlns:rdf="http://www.w3.org/1999/02/22-rdf-syntax-ns#" sodipodi:docname="toilets.svg" inkscape:version="0.46" xmlns:svg="http://www.w3.org/2000/svg" xmlns:sodipodi="http://sodipodi.sourceforge.net/DTD/sodipodi-0.dtd" xmlns:inkscape="http://www.inkscape.org/namespaces/inkscape" xmlns:dc="http://purl.org/dc/elements/1.1/" sodipodi:version="0.32" xmlns:cc="http://creativecommons.org/ns#" inkscape:output_extension="org.inkscape.output.svg.inkscape" sodipodi:docbase="s:\Data\FacilityIcons"
	 xmlns="http://www.w3.org/2000/svg" xmlns:xlink="http://www.w3.org/1999/xlink" x="0px" y="0px" width="580px" height="580px"
	 viewBox="0 0 580 580" enable-background="new 0 0 580 580" xml:space="preserve">
<sodipodi:namedview  showgrid="false" inkscape:current-layer="svg2" inkscape:window-y="25" inkscape:window-x="91" inkscape:cy="281.19503" inkscape:cx="301.5186" inkscape:zoom="0.92167712" pagecolor="#ffffff" bordercolor="#666666" borderopacity="1.0" objecttolerance="10.0" gridtolerance="10.0" guidetolerance="10.0" inkscape:window-height="947" inkscape:window-width="1048" inkscape:pageshadow="2" inkscape:pageopacity="0.0" id="base">
	</sodipodi:namedview>
<defs>
	
	
		<inkscape:perspective  inkscape:persp3d-origin="290 : 193.33333 : 1" inkscape:vp_z="580 : 290 : 1" inkscape:vp_y="0 : 1000 : 0" inkscape:vp_x="0 : 290 : 1" sodipodi:type="inkscape:persp3d" id="perspective2441">
		</inkscape:perspective>
	
		<inkscape:perspective  inkscape:persp3d-origin="30 : 20 : 1" inkscape:vp_z="60 : 30 : 1" inkscape:vp_y="0 : 1000 : 0" inkscape:vp_x="0 : 30 : 1" sodipodi:type="inkscape:persp3d" id="perspective3452">
		</inkscape:perspective>
	
		<inkscape:perspective  inkscape:persp3d-origin="372.04724 : 350.78739 : 1" inkscape:vp_z="744.09448 : 526.18109 : 1" inkscape:vp_y="0 : 1000 : 0" inkscape:vp_x="0 : 526.18109 : 1" sodipodi:type="inkscape:persp3d" id="perspective4471">
		</inkscape:perspective>
	
		<inkscape:perspective  inkscape:persp3d-origin="6 : 4 : 1" inkscape:vp_z="12 : 6 : 1" inkscape:vp_y="0 : 1000 : 0" inkscape:vp_x="0 : 6 : 1" sodipodi:type="inkscape:persp3d" id="perspective4668">
		</inkscape:perspective>
</defs>
<g id="layer3" transform="matrix(48.14969,0,0,48.14969,-536.27327,-33.306752)" inkscape:label="Layout" display="none">
	<rect id="rect4134" x="1" y="1" display="inline" fill="none" stroke="#757575" stroke-width="0.1" width="10" height="10"/>
	<rect id="rect4136" x="2" y="2" display="inline" fill="none" stroke="#757575" stroke-width="0.1" width="8" height="8"/>
</g>
<path id="flowRoot3192" sodipodi:nodetypes="ccccccccccssccccccsccccsccccccssccccccssssssscccsccssscccccsccsccccsccccsccccsccccc" fill="#63472D" d="
	M288.836,294.938h1.289v-16.247h-1.289V294.938z M284.96,281.659h-2.603c-0.406,0-0.771,0.146-1.095,0.438
	c-0.243,0.227-0.405,0.478-0.486,0.754l-1.119,3.721c-0.032,0.081-0.048,0.154-0.048,0.219c0,0.373,0.187,0.56,0.559,0.56
	c0.26,0,0.43-0.146,0.511-0.438l1.021-3.405h0.559l-1.678,6.056h1.63v4.718c0,0.422,0.203,0.633,0.608,0.633
	s0.608-0.211,0.608-0.633v-4.742h0.608v4.767c0,0.405,0.203,0.608,0.608,0.608s0.608-0.203,0.608-0.608v-4.743h1.629l-1.702-6.056
	h0.583l1.021,3.405c0.081,0.292,0.251,0.438,0.511,0.438c0.373,0,0.56-0.187,0.56-0.56c0-0.081-0.016-0.154-0.048-0.219
	l-1.119-3.721c-0.081-0.26-0.268-0.511-0.559-0.754C285.771,281.805,285.381,281.659,284.96,281.659L284.96,281.659z
	 M283.72,281.391c0.373,0,0.688-0.129,0.948-0.389c0.26-0.259,0.39-0.567,0.39-0.924c0-0.373-0.13-0.689-0.39-0.948
	c-0.259-0.259-0.575-0.389-0.948-0.389c-0.357,0-0.665,0.13-0.925,0.389c-0.259,0.259-0.389,0.575-0.389,0.948
	c0,0.357,0.13,0.665,0.389,0.924C283.055,281.262,283.363,281.391,283.72,281.391L283.72,281.391z M295.096,281.368
	c0.357,0,0.665-0.13,0.925-0.39c0.26-0.259,0.39-0.567,0.39-0.924c0-0.373-0.13-0.685-0.39-0.936
	c-0.26-0.251-0.567-0.377-0.925-0.377c-0.356,0-0.664,0.126-0.924,0.377c-0.259,0.251-0.389,0.563-0.389,0.936
	c0,0.357,0.13,0.665,0.389,0.924C294.432,281.238,294.739,281.368,295.096,281.368L295.096,281.368z M296.823,281.635h-3.479
	c-0.47,0-0.871,0.166-1.203,0.499c-0.333,0.333-0.499,0.742-0.499,1.229v4.037c0,0.389,0.179,0.584,0.535,0.584
	c0.34,0,0.511-0.195,0.511-0.584v-3.94h0.632v10.701c0,0.486,0.243,0.729,0.729,0.729c0.487,0,0.73-0.243,0.73-0.729v-6.202h0.632
	v6.202c0,0.486,0.243,0.729,0.729,0.729c0.503,0,0.754-0.243,0.754-0.729v-10.701h0.608v3.94c0,0.405,0.17,0.608,0.511,0.608
	s0.511-0.203,0.511-0.608v-4.013c0-0.47-0.158-0.879-0.474-1.228C297.735,281.809,297.326,281.635,296.823,281.635L296.823,281.635z
	"/>
</svg>
