<?xml version="1.0" encoding="UTF-8" standalone="no"?>
<!-- Created with Inkscape (http://www.inkscape.org/) -->

<svg
   xmlns="http://www.w3.org/2000/svg"
   version="1.1"
   width="100%"
   height="100%"
   viewBox="0 0 16 16">
  <path
     d="m 7.25,1 0,14 1.5,0 0,-14 -1.5,0 z M 3.5,2 C 2.6715729,2 2,2.6715729 2,3.5 2,4.3284271 2.6715729,5 3.5,5 4.3284271,5 5,4.3284271 5,3.5 5,2.6715729 4.3284271,2 3.5,2 z m 9,0 C 11.671573,2 11,2.6715729 11,3.5 11,4.3284271 11.671573,5 12.5,5 13.328427,5 14,4.3284271 14,3.5 14,2.6715729 13.328427,2 12.5,2 z m -10,4 c -0.5997222,0 -1,0.568545 -1,1 0,0.5273339 1.25,1.4966359 1.25,2 C 2.75,9.5559735 1,10 1,12 l 1.75,0 0,3 1.5,0 0,-3 L 6,12 C 6,10 4.25,9.5295085 4.25,9 4.25,8.4704915 5.5,7.5513036 5.5,7 5.5,6.5925147 5.0752733,6 4.5,6 l -2,0 z M 11,6 c -0.527334,0 -1,0.4804699 -1,1 0,1 1.75,4.016073 1.75,5 l 0,3 1.5,0 0,-3 C 13.25,11.035543 15,8 15,7 15,6.446616 14.551304,6 14,6 l -3,0 z" />
</svg>
