<?xml version="1.0" encoding="UTF-8" standalone="no"?>
<!-- Created with Inkscape (http://www.inkscape.org/) -->

<svg
   xmlns:dc="http://purl.org/dc/elements/1.1/"
   xmlns:cc="http://creativecommons.org/ns#"
   xmlns:rdf="http://www.w3.org/1999/02/22-rdf-syntax-ns#"
   xmlns:svg="http://www.w3.org/2000/svg"
   xmlns="http://www.w3.org/2000/svg"
   version="1.1"
   width="100%"
   height="100%"
   viewBox="0 0 18 18"
   id="svg2">
  <metadata
     id="metadata8">
    <rdf:RDF>
      <cc:Work
         rdf:about="">
        <dc:format>image/svg+xml</dc:format>
        <dc:type
           rdf:resource="http://purl.org/dc/dcmitype/StillImage" />
        <dc:title></dc:title>
      </cc:Work>
    </rdf:RDF>
  </metadata>
  <defs
     id="defs6" />
  <rect
     width="18"
     height="18"
     x="0"
     y="0"
     id="canvas"
     style="fill:none;stroke:none;visibility:hidden" />
  <g
     id="toilets">
    <path
       d="m 8.25,2 0,14 1.5,0 0,-14 -1.5,0 z M 4.5,3 C 3.6715729,3 3,3.6715729 3,4.5 3,5.3284271 3.6715729,6 4.5,6 5.3284271,6 6,5.3284271 6,4.5 6,3.6715729 5.3284271,3 4.5,3 z m 9,0 C 12.671573,3 12,3.6715729 12,4.5 12,5.3284271 12.671573,6 13.5,6 14.328427,6 15,5.3284271 15,4.5 15,3.6715729 14.328427,3 13.5,3 z m -10,4 c -0.5997222,0 -1,0.568545 -1,1 0,0.5273339 1.25,1.496636 1.25,2 0,0.555974 -1.75,1 -1.75,3 l 1.75,0 0,3 1.5,0 0,-3 L 7,13 C 7,11 5.25,10.529509 5.25,10 5.25,9.470492 6.5,8.5513036 6.5,8 6.5,7.5925147 6.0752733,7 5.5,7 l -2,0 z M 12,7 c -0.527334,0 -1,0.4804699 -1,1 0,1 1.75,4.016073 1.75,5 l 0,3 1.5,0 0,-3 C 14.25,12.035543 16,9 16,8 16,7.446616 15.551304,7 15,7 l -3,0 z"
       id="halo"
       style="opacity:0.3;fill:#ffffff;fill-opacity:1;stroke:#ffffff;stroke-width:2;stroke-miterlimit:4;stroke-opacity:1;stroke-dasharray:none" />
    <path
       d="m 8.25,2 0,14 1.5,0 0,-14 -1.5,0 z M 4.5,3 C 3.671573,3 3,3.6715729 3,4.5 3,5.3284271 3.671573,6 4.5,6 5.328427,6 6,5.3284271 6,4.5 6,3.6715729 5.328427,3 4.5,3 z m 9,0 C 12.671573,3 12,3.6715729 12,4.5 12,5.3284271 12.671573,6 13.5,6 14.328427,6 15,5.3284271 15,4.5 15,3.6715729 14.328427,3 13.5,3 z m -10,4 c -0.599722,0 -1,0.568545 -1,1 0,0.5273339 1.25,1.496636 1.25,2 0,0.555974 -1.75,1 -1.75,3 l 1.75,0 0,3 1.5,0 0,-3 L 7,13 C 7,11 5.25,10.529509 5.25,10 5.25,9.470492 6.5,8.5513036 6.5,8 6.5,7.5925147 6.075273,7 5.5,7 l -2,0 z M 12,7 c -0.527334,0 -1,0.4804699 -1,1 0,1 1.75,4.016073 1.75,5 l 0,3 1.5,0 0,-3 C 14.25,12.035543 16,9 16,8 16,7.446616 15.551304,7 15,7 l -3,0 z"
       id="icon"
       style="fill:#1a1a1a;fill-opacity:1;stroke:none" />
  </g>
</svg>
