<?xml version="1.0" encoding="utf-8"?>
<!-- Generator: Adobe Illustrator 14.0.0, SVG Export Plug-In . SVG Version: 6.00 Build 43363)  -->
<!DOCTYPE svg PUBLIC "-//W3C//DTD SVG 1.1//EN" "http://www.w3.org/Graphics/SVG/1.1/DTD/svg11.dtd">
<svg version="1.1"
	 id="svg2" xmlns:rdf="http://www.w3.org/1999/02/22-rdf-syntax-ns#" sodipodi:docname="barrier_toll_booth.svg" inkscape:version="0.47 r22583" xmlns:svg="http://www.w3.org/2000/svg" xmlns:sodipodi="http://sodipodi.sourceforge.net/DTD/sodipodi-0.dtd" xmlns:inkscape="http://www.inkscape.org/namespaces/inkscape" xmlns:dc="http://purl.org/dc/elements/1.1/" sodipodi:version="0.32" xmlns:cc="http://creativecommons.org/ns#" inkscape:output_extension="org.inkscape.output.svg.inkscape"
	 xmlns="http://www.w3.org/2000/svg" xmlns:xlink="http://www.w3.org/1999/xlink" x="0px" y="0px" width="580px" height="580px"
	 viewBox="0 0 580 580" enable-background="new 0 0 580 580" xml:space="preserve">
<defs>
	
	
		<inkscape:perspective  inkscape:persp3d-origin="290 : 193.33333 : 1" inkscape:vp_z="580 : 290 : 1" inkscape:vp_y="0 : 1000 : 0" inkscape:vp_x="0 : 290 : 1" sodipodi:type="inkscape:persp3d" id="perspective24">
		</inkscape:perspective>
	
		<inkscape:perspective  inkscape:persp3d-origin="306.082 : 204.39034 : 1" inkscape:vp_z="612.164 : 306.58551 : 1" inkscape:vp_y="0 : 1000 : 0" inkscape:vp_x="0 : 306.58551 : 1" sodipodi:type="inkscape:persp3d" id="perspective2683">
		</inkscape:perspective>
	
		<inkscape:perspective  inkscape:persp3d-origin="306.082 : 204.39034 : 1" inkscape:vp_z="612.164 : 306.58551 : 1" inkscape:vp_y="0 : 1000 : 0" inkscape:vp_x="0 : 306.58551 : 1" sodipodi:type="inkscape:persp3d" id="perspective2953">
		</inkscape:perspective>
	
		<inkscape:perspective  inkscape:persp3d-origin="180.936 : 163.92867 : 1" inkscape:vp_z="361.87201 : 245.89301 : 1" inkscape:vp_y="0 : 1000 : 0" inkscape:vp_x="0 : 245.89301 : 1" sodipodi:type="inkscape:persp3d" id="perspective3071">
		</inkscape:perspective>
	
		<inkscape:perspective  inkscape:persp3d-origin="0.5 : 0.33333333 : 1" inkscape:vp_z="1 : 0.5 : 1" inkscape:vp_y="0 : 1000 : 0" inkscape:vp_x="0 : 0.5 : 1" sodipodi:type="inkscape:persp3d" id="perspective3724">
		</inkscape:perspective>
	
		<inkscape:perspective  inkscape:persp3d-origin="0.5 : 0.33333333 : 1" inkscape:vp_z="1 : 0.5 : 1" inkscape:vp_y="0 : 1000 : 0" inkscape:vp_x="0 : 0.5 : 1" sodipodi:type="inkscape:persp3d" id="perspective4592">
		</inkscape:perspective>
	
		<inkscape:perspective  inkscape:persp3d-origin="0.5 : 0.33333333 : 1" inkscape:vp_z="1 : 0.5 : 1" inkscape:vp_y="0 : 1000 : 0" inkscape:vp_x="0 : 0.5 : 1" sodipodi:type="inkscape:persp3d" id="perspective3979">
		</inkscape:perspective>
</defs>
<sodipodi:namedview  showgrid="false" inkscape:current-layer="svg2" inkscape:window-y="-4" inkscape:window-x="-4" inkscape:cy="266.77613" inkscape:cx="481.20871" inkscape:zoom="0.35355339" pagecolor="#ffffff" bordercolor="#666666" borderopacity="1.0" objecttolerance="10.0" gridtolerance="10.0" guidetolerance="10.0" inkscape:window-height="994" inkscape:window-width="1400" inkscape:pageshadow="2" inkscape:pageopacity="0.0" inkscape:window-maximized="1" id="base">
	</sodipodi:namedview>
<g id="g2855" transform="translate(0,20)">
	<path id="path3732" sodipodi:nodetypes="cc" fill="none" stroke="#4D4D4D" stroke-width="1.6406" stroke-linecap="round" d="
		M286.151,265.884l11.085-2.472"/>
	
		<path id="rect3827" sodipodi:nodetypes="csccsccsccscc" opacity="0.75" fill="#4D4D4D" stroke="#4D4D4D" stroke-width="0.03" enable-background="new    " d="
		M296.156,266.659c-0.111,0-0.223,0.046-0.302,0.125c-0.079,0.079-0.125,0.19-0.125,0.301v5.116c0,0.111,0.046,0.223,0.125,0.302
		s0.19,0.125,0.302,0.125h1.556c0.111,0,0.223-0.046,0.302-0.125s0.125-0.19,0.125-0.302v-5.116c0-0.111-0.046-0.223-0.125-0.301
		c-0.079-0.079-0.19-0.125-0.302-0.125H296.156L296.156,266.659z"/>
	<path id="rect3925" opacity="0.75" fill="#4D4D4D" stroke="#4D4D4D" stroke-width="0.03" enable-background="new    " d="
		M284.861,262.369c-0.139,0-0.277,0.057-0.376,0.156c-0.098,0.098-0.155,0.236-0.155,0.376v9.195c0,0.14,0.057,0.278,0.155,0.376
		c0.099,0.099,0.237,0.156,0.376,0.156h1.346c0.139,0,0.277-0.058,0.376-0.156c0.098-0.098,0.155-0.236,0.155-0.376v-4.634
		c-0.672,0.207-1.479,0.023-1.913-0.547c-0.659-0.788-0.323-2.181,0.648-2.548c0.421-0.098,0.843-0.194,1.265-0.292V262.9
		c0-0.14-0.057-0.278-0.155-0.376c-0.099-0.099-0.237-0.156-0.376-0.156H284.861L284.861,262.369z"/>
</g>
<g>
	<path fill="#4D4D4D" stroke="#4D4D4D" stroke-width="0.03" d="M293.976,295.745c-0.357,0.199-0.967,0.399-1.639,0.399
		c-1.039,0-1.974-0.42-2.562-1.197c-0.284-0.357-0.494-0.809-0.588-1.365h-0.682v-0.745h0.577c0-0.053,0-0.116,0-0.179
		c0-0.105,0.011-0.21,0.011-0.315h-0.588v-0.745h0.703c0.126-0.567,0.389-1.05,0.725-1.428c0.588-0.682,1.428-1.082,2.426-1.082
		c0.63,0,1.197,0.147,1.575,0.315l-0.294,1.196c-0.273-0.115-0.715-0.251-1.177-0.251c-0.493,0-0.955,0.178-1.28,0.567
		c-0.158,0.168-0.263,0.409-0.337,0.683h2.615v0.745h-2.772c-0.011,0.105-0.011,0.21-0.011,0.326c0,0.062,0,0.115,0,0.168h2.783
		v0.745h-2.636c0.073,0.315,0.189,0.557,0.347,0.735c0.336,0.378,0.829,0.535,1.354,0.535c0.482,0,0.977-0.157,1.197-0.272
		L293.976,295.745z"/>
</g>
</svg>
