<svg xmlns:dc="http://purl.org/dc/elements/1.1/" xmlns:cc="http://creativecommons.org/ns#" xmlns:rdf="http://www.w3.org/1999/02/22-rdf-syntax-ns#" xmlns:svg="http://www.w3.org/2000/svg" xmlns="http://www.w3.org/2000/svg" version="1.1" width="100%" height="100%" viewBox="0 0 12 12" id="svg2">
  <metadata id="metadata8">
    <rdf:RDF>
      <cc:Work rdf:about="">
        <dc:format>image/svg+xml</dc:format>
        <dc:type rdf:resource="http://purl.org/dc/dcmitype/StillImage"/>
        <dc:title/>
      </cc:Work>
    </rdf:RDF>
  </metadata>
  <defs id="defs6"/>
  <rect width="12" height="12" x="0" y="0" id="canvas" style="fill:none;stroke:none;visibility:hidden"/>
  <path d="M 1,1 C 0.4175752,1 0,1.5446938 0,2 L 0,8 C 0,8.4387825 0.52372021,9 1,9 L 9.0000001,9 C 9.4940811,9 10,8.510604 10,8 L 10,2 C 10,1.4595222 9.4896301,1 9.0000001,1 z m 2,5 4.0000001,0 0,1 L 3,7 z m 1,-4 2.0000001,0 0,1 L 4,3 z m -2,2 6.0000001,0 0,1 L 2,5 z" id="memorial" style="fill:#000000;fill-opacity:1" transform="translate(1,1)"/>
</svg>
