<?xml version="1.0" encoding="utf-8"?>
<!-- Generator: Adobe Illustrator 14.0.0, SVG Export Plug-In . SVG Version: 6.00 Build 43363)  -->
<!DOCTYPE svg PUBLIC "-//W3C//DTD SVG 1.1//EN" "http://www.w3.org/Graphics/SVG/1.1/DTD/svg11.dtd">
<svg version="1.1"
	 id="svg2" xmlns:rdf="http://www.w3.org/1999/02/22-rdf-syntax-ns#" sodipodi:docname="amenity_town_hall2.svg" inkscape:version="0.48.0 r9654" xmlns:svg="http://www.w3.org/2000/svg" xmlns:sodipodi="http://sodipodi.sourceforge.net/DTD/sodipodi-0.dtd" xmlns:inkscape="http://www.inkscape.org/namespaces/inkscape" xmlns:dc="http://purl.org/dc/elements/1.1/" sodipodi:version="0.32" xmlns:cc="http://creativecommons.org/ns#" inkscape:output_extension="org.inkscape.output.svg.inkscape"
	 xmlns="http://www.w3.org/2000/svg" xmlns:xlink="http://www.w3.org/1999/xlink" x="0px" y="0px" width="580px" height="580px"
	 viewBox="0 0 580 580" enable-background="new 0 0 580 580" xml:space="preserve">
<sodipodi:namedview  showgrid="false" inkscape:current-layer="svg2" inkscape:window-y="24" inkscape:window-x="640" inkscape:cy="-230.65759" inkscape:cx="730.85358" inkscape:zoom="0.32586207" pagecolor="#ffffff" bordercolor="#666666" borderopacity="1.0" objecttolerance="10.0" gridtolerance="10.0" guidetolerance="10.0" inkscape:window-height="1002" inkscape:window-width="1278" inkscape:pageshadow="2" inkscape:pageopacity="0.0" inkscape:window-maximized="0" id="base">
	</sodipodi:namedview>
<defs>
	
	
		<inkscape:perspective  inkscape:persp3d-origin="290 : 193.33333 : 1" inkscape:vp_z="580 : 290 : 1" inkscape:vp_y="0 : 1000 : 0" inkscape:vp_x="0 : 290 : 1" sodipodi:type="inkscape:persp3d" id="perspective2441">
		</inkscape:perspective>
	
		<inkscape:perspective  inkscape:persp3d-origin="30 : 20 : 1" inkscape:vp_z="60 : 30 : 1" inkscape:vp_y="0 : 1000 : 0" inkscape:vp_x="0 : 30 : 1" sodipodi:type="inkscape:persp3d" id="perspective3452">
		</inkscape:perspective>
	
		<inkscape:perspective  inkscape:persp3d-origin="372.04724 : 350.78739 : 1" inkscape:vp_z="744.09448 : 526.18109 : 1" inkscape:vp_y="0 : 1000 : 0" inkscape:vp_x="0 : 526.18109 : 1" sodipodi:type="inkscape:persp3d" id="perspective4471">
		</inkscape:perspective>
	
		<inkscape:perspective  inkscape:persp3d-origin="6 : 4 : 1" inkscape:vp_z="12 : 6 : 1" inkscape:vp_y="0 : 1000 : 0" inkscape:vp_x="0 : 6 : 1" sodipodi:type="inkscape:persp3d" id="perspective4668">
		</inkscape:perspective>
	
		<inkscape:perspective  inkscape:persp3d-origin="16 : 10.666667 : 1" inkscape:vp_z="32 : 16 : 1" inkscape:vp_y="0 : 1000 : 0" inkscape:vp_x="0 : 16 : 1" sodipodi:type="inkscape:persp3d" id="perspective4904">
		</inkscape:perspective>
</defs>
<g id="layer3" transform="matrix(48.14969,0,0,48.14969,-536.27327,-33.306752)" inkscape:label="Layout" display="none">
	<rect id="rect4134" x="1" y="1" display="inline" fill="none" stroke="#757575" stroke-width="0.1" width="10" height="10"/>
	<rect id="rect4136" x="2" y="2" display="inline" fill="none" stroke="#757575" stroke-width="0.1" width="8" height="8"/>
</g>
<g id="g4372" transform="translate(-166.49217,52.019299)">
</g>
<path id="path645" sodipodi:nodetypes="cccccccccccc" fill="#FFFFFF" stroke="#FFFFFF" stroke-width="0.0447" d="M286.944,280.07
	l-9.074,6.909h1.814v11.083h5.445h3.754h5.32v-11.083h1.814L286.944,280.07L286.944,280.07L286.944,280.07z"/>
<g id="g7376">
	
		<path id="path3198" sodipodi:nodetypes="cccccccccccc" fill="none" stroke="#3B3C3D" stroke-width="0.72" stroke-linejoin="round" d="
		M286.944,279.71l-9.074,6.909h1.814v11.443h5.445h3.754h5.32v-11.443h1.814L286.944,279.71L286.944,279.71L286.944,279.71z"/>
</g>
<path id="path7610" sodipodi:nodetypes="ccccc" inkscape:connector-curvature="0" opacity="0.66" fill="#646569" enable-background="new    " d="
	M282.377,291.204h9.262l1.657,1.433h-12.595L282.377,291.204z"/>
<path id="path7612" sodipodi:nodetypes="ccccc" inkscape:connector-curvature="0" opacity="0.66" fill="#646569" enable-background="new    " d="
	M280.722,297.036h12.573l0.002-3.608h-12.595L280.722,297.036z"/>
<path id="path8791-2" sodipodi:nodetypes="cccscccsccccccccsccccccsccc" inkscape:connector-curvature="0" fill="#646569" d="
	M284.149,284.316c-0.344,0-0.643,0.124-0.898,0.373s-0.383,0.551-0.383,0.908s0.128,0.661,0.383,0.909
	c0.255,0.249,0.554,0.373,0.898,0.373c0.013,0,0.026-0.001,0.038-0.001c0.013,0,0.025,0.001,0.039,0.001
	c0.344,0,0.644-0.124,0.899-0.373s0.381-0.552,0.381-0.909c0-0.356-0.126-0.659-0.381-0.908s-0.555-0.373-0.899-0.373
	c-0.013,0-0.026,0-0.039,0C284.175,284.316,284.162,284.316,284.149,284.316z M283.175,287.165c-0.078,0-0.148,0.008-0.211,0.025
	c-0.042-0.004-0.083-0.005-0.125-0.004c-0.286,0.007-0.567,0.131-0.764,0.338c-0.197,0.207-0.308,0.493-0.301,0.779l0.023,2.546
	c0,0.002,0,0.002,0,0.004c0.116-0.084,0.237-0.16,0.368-0.224c1.427-0.042,2.856-0.045,4.286-0.041l-0.021-2.307
	c0.001-0.275-0.107-0.55-0.295-0.75c-0.188-0.201-0.456-0.326-0.73-0.343c-0.061-0.015-0.127-0.023-0.202-0.023L283.175,287.165
	L283.175,287.165z"/>
<path id="path21180" sodipodi:nodetypes="cccscccsccccccccsccccccsccc" inkscape:connector-curvature="0" fill="#646569" d="
	M289.835,284.316c0.344,0,0.643,0.124,0.897,0.373c0.254,0.249,0.384,0.551,0.384,0.908s-0.13,0.661-0.384,0.909
	c-0.255,0.248-0.553,0.373-0.897,0.373c-0.013,0-0.026-0.001-0.039-0.001c-0.012,0-0.025,0.001-0.038,0.001
	c-0.344,0-0.644-0.124-0.899-0.373s-0.381-0.552-0.381-0.909c0-0.356,0.126-0.659,0.381-0.908c0.255-0.249,0.555-0.373,0.899-0.373
	c0.013,0,0.026,0,0.038,0C289.809,284.316,289.822,284.316,289.835,284.316z M290.811,287.165c0.076,0,0.146,0.008,0.211,0.025
	c0.041-0.004,0.082-0.005,0.125-0.004c0.285,0.007,0.565,0.131,0.764,0.338c0.197,0.207,0.309,0.493,0.302,0.779l-0.022,2.546
	c0,0.002,0,0.002,0,0.004c-0.116-0.084-0.237-0.16-0.369-0.224c-1.426-0.042-2.855-0.045-4.285-0.041l0.021-2.307
	c-0.001-0.275,0.107-0.55,0.295-0.75c0.188-0.201,0.456-0.326,0.73-0.343c0.061-0.015,0.127-0.023,0.201-0.023L290.811,287.165
	L290.811,287.165z"/>
</svg>
