<?xml version="1.0" encoding="utf-8"?>
<!-- Generator: Adobe Illustrator 14.0.0, SVG Export Plug-In . SVG Version: 6.00 Build 43363)  -->
<!DOCTYPE svg PUBLIC "-//W3C//DTD SVG 1.1//EN" "http://www.w3.org/Graphics/SVG/1.1/DTD/svg11.dtd">
<svg version="1.1"
	 id="svg2" xmlns:rdf="http://www.w3.org/1999/02/22-rdf-syntax-ns#" sodipodi:docname="shopping_toys.svg" inkscape:version="0.48.0 r9654" xmlns:svg="http://www.w3.org/2000/svg" xmlns:sodipodi="http://sodipodi.sourceforge.net/DTD/sodipodi-0.dtd" xmlns:inkscape="http://www.inkscape.org/namespaces/inkscape" xmlns:dc="http://purl.org/dc/elements/1.1/" sodipodi:version="0.32" xmlns:cc="http://creativecommons.org/ns#" inkscape:output_extension="org.inkscape.output.svg.inkscape"
	 xmlns="http://www.w3.org/2000/svg" xmlns:xlink="http://www.w3.org/1999/xlink" x="0px" y="0px" width="580px" height="580px"
	 viewBox="0 0 580 580" enable-background="new 0 0 580 580" xml:space="preserve">
<sodipodi:namedview  showgrid="false" inkscape:current-layer="svg2" inkscape:window-y="24" inkscape:window-x="0" inkscape:cy="-91.770625" inkscape:cx="72.492663" inkscape:zoom="0.32586207" pagecolor="#ffffff" bordercolor="#666666" borderopacity="1.0" objecttolerance="10.0" gridtolerance="10.0" guidetolerance="10.0" inkscape:window-height="1002" inkscape:window-width="1278" inkscape:pageshadow="2" inkscape:pageopacity="0.0" inkscape:window-maximized="0" id="base" inkscape:guide-bbox="true" showguides="true">
	</sodipodi:namedview>
<defs>
	
	
		<inkscape:perspective  inkscape:persp3d-origin="290 : 193.33333 : 1" inkscape:vp_z="580 : 290 : 1" inkscape:vp_y="0 : 1000 : 0" inkscape:vp_x="0 : 290 : 1" sodipodi:type="inkscape:persp3d" id="perspective2441">
		</inkscape:perspective>
	
		<inkscape:perspective  inkscape:persp3d-origin="30 : 20 : 1" inkscape:vp_z="60 : 30 : 1" inkscape:vp_y="0 : 1000 : 0" inkscape:vp_x="0 : 30 : 1" sodipodi:type="inkscape:persp3d" id="perspective3452">
		</inkscape:perspective>
	
		<inkscape:perspective  inkscape:persp3d-origin="372.04724 : 350.78739 : 1" inkscape:vp_z="744.09448 : 526.18109 : 1" inkscape:vp_y="0 : 1000 : 0" inkscape:vp_x="0 : 526.18109 : 1" sodipodi:type="inkscape:persp3d" id="perspective4471">
		</inkscape:perspective>
	
		<inkscape:perspective  inkscape:persp3d-origin="6 : 4 : 1" inkscape:vp_z="12 : 6 : 1" inkscape:vp_y="0 : 1000 : 0" inkscape:vp_x="0 : 6 : 1" sodipodi:type="inkscape:persp3d" id="perspective4668">
		</inkscape:perspective>
	
		<inkscape:perspective  inkscape:persp3d-origin="306.082 : 204.39034 : 1" inkscape:vp_z="612.164 : 306.58551 : 1" inkscape:vp_y="0 : 1000 : 0" inkscape:vp_x="0 : 306.58551 : 1" sodipodi:type="inkscape:persp3d" id="perspective2510">
		</inkscape:perspective>
	
		<inkscape:perspective  inkscape:persp3d-origin="306.082 : 204.39034 : 1" inkscape:vp_z="612.164 : 306.58551 : 1" inkscape:vp_y="0 : 1000 : 0" inkscape:vp_x="0 : 306.58551 : 1" sodipodi:type="inkscape:persp3d" id="perspective2605">
		</inkscape:perspective>
	
		<inkscape:perspective  inkscape:persp3d-origin="372.04724 : 350.78739 : 1" inkscape:vp_z="744.09448 : 526.18109 : 1" inkscape:vp_y="0 : 1000 : 0" inkscape:vp_x="0 : 526.18109 : 1" sodipodi:type="inkscape:persp3d" id="perspective2656">
		</inkscape:perspective>
	
		<inkscape:perspective  inkscape:persp3d-origin="421.95551 : 208.05033 : 1" inkscape:vp_z="843.91101 : 312.0755 : 1" inkscape:vp_y="0 : 1000 : 0" inkscape:vp_x="0 : 312.0755 : 1" sodipodi:type="inkscape:persp3d" id="perspective4454">
		</inkscape:perspective>
</defs>
<g id="layer3" transform="matrix(48.14969,0,0,48.14969,-536.27327,-33.306752)" inkscape:label="Layout" display="none">
	<rect id="rect4134" x="1" y="1" display="inline" fill="none" stroke="#757575" stroke-width="0.1" width="10" height="10"/>
	<rect id="rect4136" x="2" y="2" display="inline" fill="none" stroke="#757575" stroke-width="0.1" width="8" height="8"/>
</g>
<path id="path2529" sodipodi:nodetypes="cccccccccccccccczczcccc" inkscape:connector-curvature="0" fill="#93278F" stroke="#93278F" stroke-width="0.2742" stroke-linecap="round" stroke-linejoin="round" d="
	M292.354,281.569l2.828-0.633c1.293-0.199,1.96,0.071,2.396,0.512c1.703-0.409,2.392,0.175,2.963,0.874l-0.371,0.495
	c-0.457-0.636-1.218-1.235-2.388-0.993c0.149,0.77,0.626,1.391,1.277,1.919c0.413,1,0.84,2.469,1.535,3.311l-0.431,0.663
	c-0.47-1.108-1.15-2.723-2.122-3.35c-0.747-0.213-1.438-0.405-1.972-1.016l-0.356-0.116c-0.876,0.809-2.216,1.091-3.441,1.11
	c-0.83,0.876-1.53,2.107-2.693,3.582l-0.808-0.361c0.966-0.751,1.705-2.399,2.531-3.462c-0.035-1.323-0.801-2.479-1.322-2.839
	c-0.522-0.361-1.148,0.392-1.749,0.484c-0.344,0.054-0.604-0.444-0.404-0.693c0.208-0.26,1-1.17,1.697-1.537l0.27-0.693l0.162,0.663
	C290.789,280.032,291.656,280.418,292.354,281.569z"/>
<path id="path11229" inkscape:connector-curvature="0" fill="none" stroke="#93278F" stroke-width="0.9" stroke-linecap="round" d="
	M301.972,286.879c-2.055,1.307-4.493,2.063-7.108,2.063c-2.718,0-5.245-0.817-7.348-2.22"/>
</svg>
