<?xml version="1.0" encoding="utf-8"?>
<!-- Generator: Adobe Illustrator 14.0.0, SVG Export Plug-In . SVG Version: 6.00 Build 43363)  -->
<!DOCTYPE svg PUBLIC "-//W3C//DTD SVG 1.1//EN" "http://www.w3.org/Graphics/SVG/1.1/DTD/svg11.dtd">
<svg version="1.1"
	 id="svg2" xmlns:rdf="http://www.w3.org/1999/02/22-rdf-syntax-ns#" sodipodi:docname="transport_traffic_lights.svg" inkscape:version="0.47 r22583" xmlns:svg="http://www.w3.org/2000/svg" xmlns:sodipodi="http://sodipodi.sourceforge.net/DTD/sodipodi-0.dtd" xmlns:inkscape="http://www.inkscape.org/namespaces/inkscape" xmlns:dc="http://purl.org/dc/elements/1.1/" sodipodi:version="0.32" xmlns:cc="http://creativecommons.org/ns#" inkscape:output_extension="org.inkscape.output.svg.inkscape"
	 xmlns="http://www.w3.org/2000/svg" xmlns:xlink="http://www.w3.org/1999/xlink" x="0px" y="0px" width="580px" height="580px"
	 viewBox="0 0 580 580" enable-background="new 0 0 580 580" xml:space="preserve">
<sodipodi:namedview  showgrid="false" inkscape:current-layer="svg2" inkscape:window-y="123" inkscape:window-x="126" inkscape:cy="-746.48081" inkscape:cx="-87.333437" inkscape:zoom="0.16293104" pagecolor="#ffffff" bordercolor="#666666" borderopacity="1.0" objecttolerance="10.0" gridtolerance="10.0" guidetolerance="10.0" inkscape:window-height="947" inkscape:window-width="1048" inkscape:pageshadow="2" inkscape:pageopacity="0.0" inkscape:window-maximized="0" id="base">
	</sodipodi:namedview>
<defs>
	
	
		<inkscape:perspective  inkscape:persp3d-origin="290 : 193.33333 : 1" inkscape:vp_z="580 : 290 : 1" inkscape:vp_y="0 : 1000 : 0" inkscape:vp_x="0 : 290 : 1" sodipodi:type="inkscape:persp3d" id="perspective2441">
		</inkscape:perspective>
	
		<inkscape:perspective  inkscape:persp3d-origin="30 : 20 : 1" inkscape:vp_z="60 : 30 : 1" inkscape:vp_y="0 : 1000 : 0" inkscape:vp_x="0 : 30 : 1" sodipodi:type="inkscape:persp3d" id="perspective3452">
		</inkscape:perspective>
	
		<inkscape:perspective  inkscape:persp3d-origin="372.04724 : 350.78739 : 1" inkscape:vp_z="744.09448 : 526.18109 : 1" inkscape:vp_y="0 : 1000 : 0" inkscape:vp_x="0 : 526.18109 : 1" sodipodi:type="inkscape:persp3d" id="perspective4471">
		</inkscape:perspective>
	
		<inkscape:perspective  inkscape:persp3d-origin="6 : 4 : 1" inkscape:vp_z="12 : 6 : 1" inkscape:vp_y="0 : 1000 : 0" inkscape:vp_x="0 : 6 : 1" sodipodi:type="inkscape:persp3d" id="perspective4668">
		</inkscape:perspective>
	
		<inkscape:perspective  inkscape:persp3d-origin="16 : 10.666667 : 1" inkscape:vp_z="32 : 16 : 1" inkscape:vp_y="0 : 1000 : 0" inkscape:vp_x="0 : 16 : 1" sodipodi:type="inkscape:persp3d" id="perspective4904">
		</inkscape:perspective>
	
		<inkscape:perspective  inkscape:persp3d-origin="16 : 10.666667 : 1" inkscape:vp_z="32 : 16 : 1" inkscape:vp_y="0 : 1000 : 0" inkscape:vp_x="0 : 16 : 1" sodipodi:type="inkscape:persp3d" id="perspective5233">
		</inkscape:perspective>
	
		<inkscape:perspective  inkscape:persp3d-origin="250 : 166.66667 : 1" inkscape:vp_z="500 : 250 : 1" inkscape:vp_y="0 : 1000 : 0" inkscape:vp_x="0 : 250 : 1" sodipodi:type="inkscape:persp3d" id="perspective5412">
		</inkscape:perspective>
	
		<inkscape:perspective  inkscape:persp3d-origin="202.85715 : 136.19048 : 1" inkscape:vp_z="405.71429 : 204.28572 : 1" inkscape:vp_y="0 : 1000 : 0" inkscape:vp_x="0 : 204.28572 : 1" sodipodi:type="inkscape:persp3d" id="perspective5571">
		</inkscape:perspective>
	
		<inkscape:perspective  inkscape:persp3d-origin="64 : 42.666667 : 1" inkscape:vp_z="128 : 64 : 1" inkscape:vp_y="0 : 1000 : 0" inkscape:vp_x="0 : 64 : 1" sodipodi:type="inkscape:persp3d" id="perspective6552">
		</inkscape:perspective>
	
		<inkscape:perspective  inkscape:persp3d-origin="0.5 : 0.33333333 : 1" inkscape:vp_z="1 : 0.5 : 1" inkscape:vp_y="0 : 1000 : 0" inkscape:vp_x="0 : 0.5 : 1" sodipodi:type="inkscape:persp3d" id="perspective4729">
		</inkscape:perspective>
</defs>
<path id="path4809" sodipodi:type="arc" sodipodi:ry="95.132271" sodipodi:rx="95.132271" sodipodi:cy="119.68254" sodipodi:cx="288.46561" opacity="0.6" enable-background="new    " d="
	M297.483,286.33c0,1.413-1.164,2.559-2.602,2.559c-1.438,0-2.603-1.145-2.604-2.558c0,0,0,0,0-0.001
	c0-1.413,1.165-2.559,2.602-2.559C296.317,283.771,297.482,284.916,297.483,286.33C297.483,286.329,297.483,286.33,297.483,286.33z"
	/>
<path id="path4813" sodipodi:type="arc" sodipodi:ry="95.132271" sodipodi:rx="95.132271" sodipodi:cy="119.68254" sodipodi:cx="288.46561" opacity="0.2" enable-background="new    " d="
	M297.483,291.36c0,1.413-1.164,2.558-2.602,2.558c-1.438,0.001-2.603-1.145-2.604-2.557v-0.001c0-1.413,1.165-2.559,2.602-2.559
	C296.317,288.801,297.482,289.946,297.483,291.36L297.483,291.36z"/>
<path id="path4815" sodipodi:type="arc" sodipodi:ry="95.132271" sodipodi:rx="95.132271" sodipodi:cy="119.68254" sodipodi:cx="288.46561" opacity="0.3" fill="#FFFFFF" enable-background="new    " d="
	M297.483,296.332c0,1.413-1.164,2.558-2.602,2.559c-1.438,0-2.603-1.144-2.604-2.557c0-0.001,0-0.001,0-0.002
	c0-1.412,1.165-2.559,2.602-2.559C296.317,293.773,297.482,294.918,297.483,296.332
	C297.483,296.332,297.483,296.332,297.483,296.332z"/>
<path id="path4782" fill="#FFFFFF" d="M294.93,283.351c-0.034,0-0.069,0-0.104,0c-1.479-0.002-2.837,1.242-2.912,2.7
	c-0.047,0.75,0.005,1.5-0.016,2.25c0.007,2.803-0.018,5.608,0.016,8.411c0.123,1.339,1.291,2.503,2.658,2.622
	c1.292,0.142,2.627-0.623,3.093-1.822c0.244-0.583,0.24-1.225,0.22-1.846c-0.008-3.227,0.019-6.453-0.016-9.68
	c-0.122-1.331-1.273-2.489-2.632-2.617C295.135,283.358,295.032,283.352,294.93,283.351L294.93,283.351z M294.929,284.081
	c1.269,0,2.297,1.011,2.297,2.258s-1.028,2.257-2.297,2.257s-2.297-1.011-2.297-2.257S293.66,284.081,294.929,284.081z
	 M294.929,289.078c1.269,0,2.297,1.011,2.297,2.257c0,1.248-1.028,2.258-2.297,2.258s-2.297-1.01-2.297-2.258
	C292.632,290.088,293.66,289.078,294.929,289.078z M294.929,294.074c1.269,0,2.297,1.012,2.297,2.258
	c0,1.247-1.028,2.257-2.297,2.257s-2.297-1.01-2.297-2.257C292.632,295.086,293.66,294.074,294.929,294.074z"/>
<path id="path8151" stroke="#FFFFFF" stroke-width="0.236" d="M294.93,283.351c-0.034,0-0.069,0-0.104,0
	c-1.479-0.002-2.837,1.242-2.912,2.7c-0.047,0.75,0.005,1.5-0.016,2.25c0.007,2.803-0.018,5.608,0.016,8.411
	c0.123,1.339,1.291,2.503,2.658,2.622c1.292,0.142,2.627-0.623,3.093-1.822c0.244-0.583,0.24-1.225,0.22-1.846
	c-0.008-3.227,0.019-6.453-0.016-9.68c-0.122-1.331-1.273-2.489-2.632-2.617C295.135,283.358,295.032,283.352,294.93,283.351
	L294.93,283.351z M294.929,284.081c1.269,0,2.297,1.011,2.297,2.258s-1.028,2.257-2.297,2.257s-2.297-1.011-2.297-2.257
	S293.66,284.081,294.929,284.081z M294.929,289.078c1.269,0,2.297,1.011,2.297,2.257c0,1.248-1.028,2.258-2.297,2.258
	s-2.297-1.01-2.297-2.258C292.632,290.088,293.66,289.078,294.929,289.078z M294.929,294.074c1.269,0,2.297,1.012,2.297,2.258
	c0,1.247-1.028,2.257-2.297,2.257s-2.297-1.01-2.297-2.257C292.632,295.086,293.66,294.074,294.929,294.074z"/>
</svg>
