<?xml version="1.0" encoding="UTF-8" standalone="no"?>
<svg
   xmlns="http://www.w3.org/2000/svg"
   id="svg4"
   height="13"
   width="13"
   y="0px"
   x="0px"
   version="1.1">
  <rect
     x="0"
     height="13"
     width="13"
     display="none"
     y="0"
     id="canvas" />
  <path
     id="traffic_light"
     d="M 6.5,0 C 5.25,0 4,0.8125 4,2.4375 v 8.125 c 0,3.25 5,3.25 5,0 V 2.4375 C 9,0.8125 7.75,0 6.5,0 Z m 0.00427,1 c 0.8284272,0 1.5,0.6715729 1.5,1.5 0,0.8284271 -0.6715728,1.5 -1.5,1.5 -0.8284271,0 -1.5,-0.6715729 -1.5,-1.5 0,-0.8284271 0.6715729,-1.5 1.5,-1.5 z M 6.5,5 C 7.3284271,5 8,5.6715729 8,6.5 8,7.3284271 7.3284271,8 6.5,8 5.6715729,8 5,7.3284271 5,6.5 5,5.6715729 5.6715729,5 6.5,5 Z m 0.095703,4 c 0.8284271,0 1.5,0.6715729 1.5,1.5 0,0.828427 -0.6715729,1.5 -1.5,1.5 -0.8284271,0 -1.5,-0.671573 -1.5,-1.5 0,-0.8284271 0.6715729,-1.5 1.5,-1.5 z" />
</svg>
