<?xml version="1.0" encoding="utf-8"?>
<!-- Generator: Adobe Illustrator 14.0.0, SVG Export Plug-In . SVG Version: 6.00 Build 43363)  -->
<!DOCTYPE svg PUBLIC "-//W3C//DTD SVG 1.1//EN" "http://www.w3.org/Graphics/SVG/1.1/DTD/svg11.dtd">
<svg version="1.1" id="Calque_1" xmlns="http://www.w3.org/2000/svg" xmlns:xlink="http://www.w3.org/1999/xlink" x="0px" y="0px"
	 width="400px" height="400px" viewBox="0 0 400 400" enable-background="new 0 0 400 400" xml:space="preserve">
<path id="path2323" fill="#29ABE2" d="M197.366,192.92c-0.771,0-1.18,0.421-1.369,0.914l-1.001,2.588
	c-0.398,0.05-1.102,0.517-1.102,1.4v3.29h0.976v1.054c0,1.294,1.833,1.279,1.833,0v-1.054h3.296l0,0h3.298v1.054
	c0,1.279,1.83,1.294,1.83,0v-1.054h0.979v-3.29c0-0.884-0.705-1.35-1.102-1.4L204,193.834c-0.189-0.492-0.598-0.914-1.369-0.914
	h-1.418H198.8H197.366z M197.354,193.862h2.64h0.004l0,0h2.644c0.328,0.003,0.471,0.21,0.566,0.496l0.756,2.037h-3.966l0,0h-0.004
	h-3.962l0.756-2.037C196.882,194.072,197.024,193.865,197.354,193.862z M195.815,197.386c0.468,0,0.846,0.389,0.846,0.871
	s-0.378,0.873-0.846,0.873c-0.467,0-0.846-0.391-0.846-0.873C194.968,197.774,195.348,197.386,195.815,197.386z M204.184,197.386
	c0.467,0,0.846,0.389,0.846,0.871s-0.379,0.873-0.846,0.873c-0.469,0-0.85-0.391-0.85-0.873S203.715,197.386,204.184,197.386z"/>
<g id="g2325" transform="translate(879.29125,36.805119)">
</g>
<path fill="none" stroke="#29ABE2" d="M194.046,206.02c0,0,0.979-1.533,2.708-1.533s3.85,2.12,6.264,2.12s2.675-1.06,2.675-1.06"/>
</svg>
