<?xml version="1.0" encoding="utf-8"?>
<!-- Generator: Adobe Illustrator 14.0.0, SVG Export Plug-In . SVG Version: 6.00 Build 43363)  -->
<!DOCTYPE svg PUBLIC "-//W3C//DTD SVG 1.1//EN" "http://www.w3.org/Graphics/SVG/1.1/DTD/svg11.dtd">
<svg version="1.1" id="Calque_1" xmlns="http://www.w3.org/2000/svg" xmlns:xlink="http://www.w3.org/1999/xlink" x="0px" y="0px"
	 width="400px" height="400px" viewBox="0 0 400 400" enable-background="new 0 0 400 400" xml:space="preserve">
<path fill="#903B89" d="M203.978,193.8c0,0-0.637-0.417-1.174-0.537s-1.492-0.179-2.188,0.119s-1.115,0.656-1.394,0.955
	s-0.478,0.936-0.478,0.936s-0.159-0.358-0.915-0.558s-1.572-0.199-2.169,0s-1.055,0.479-1.433,0.936s-0.537,1.273-0.537,1.273
	s0.596,0.04,1.193,0s0.797-0.044,1.334,0.018s0.796,0.261,0.796,0.261s-0.598,0.04-1.035,0.458s-0.896,1.113-0.995,1.83
	s-0.139,1.036-0.079,1.493s0.219,0.975,0.219,0.975s0.557,0.001,0.915-0.278s0.876-0.854,1.095-1.174s1.114-1.334,1.114-1.334
	s0.139,0.737,0.338,1.075s0.298,0.479,0.637,0.736s0.955,0.517,0.955,0.517s0.159-1.016,0.159-1.214s-0.061-0.716,0.159-1.034
	s0.379-0.418,0.379-0.418s0.338,1.333,0.397,2.029s0.159,1.97,0.04,2.746s-0.896,1.99-0.896,1.99s-0.637-0.26-1.114-0.08
	s-0.956,0.457-1.194,0.796s-0.338,0.916-0.338,0.916s1.632,0.199,2.269,0.259s2.348,0.021,2.984,0s2.886-0.239,2.886-0.239
	s-0.041-0.577-0.239-0.855s-0.517-0.537-0.915-0.696s-1.433-0.398-1.433-0.398s0.08-1.075,0.04-1.95s-0.537-2.287-0.736-2.785
	s-0.995-2.468-0.995-2.468s0.757,0.298,1.095,0.438s1.353,0.676,1.73,0.796s1.214,0.219,1.214,0.219s-0.079-0.916-0.278-1.433
	s-0.776-1.412-1.254-1.771s-2.467-1.095-2.467-1.095s0.815-0.259,1.134-0.418s0.676-0.339,0.855-0.518S203.978,193.8,203.978,193.8z
	"/>
</svg>
