<?xml version="1.0" encoding="utf-8"?>
<!-- Generator: Adobe Illustrator 14.0.0, SVG Export Plug-In . SVG Version: 6.00 Build 43363)  -->
<!DOCTYPE svg PUBLIC "-//W3C//DTD SVG 1.1//EN" "http://www.w3.org/Graphics/SVG/1.1/DTD/svg11.dtd">
<svg version="1.1"
	 id="svg2" inkscape:output_extension="org.inkscape.output.svg.inkscape" inkscape:version="0.46" xmlns:sodipodi="http://sodipodi.sourceforge.net/DTD/sodipodi-0.dtd" xmlns:svg="http://www.w3.org/2000/svg" xmlns:dc="http://purl.org/dc/elements/1.1/" sodipodi:docname="shopping_car_repair.svg" xmlns:cc="http://creativecommons.org/ns#" sodipodi:version="0.32" xmlns:rdf="http://www.w3.org/1999/02/22-rdf-syntax-ns#" xmlns:inkscape="http://www.inkscape.org/namespaces/inkscape"
	 xmlns="http://www.w3.org/2000/svg" xmlns:xlink="http://www.w3.org/1999/xlink" x="0px" y="0px" width="580px" height="580px"
	 viewBox="0 0 580 580" enable-background="new 0 0 580 580" xml:space="preserve">
<sodipodi:namedview  id="base" bordercolor="#666666" inkscape:cy="399.03428" inkscape:window-x="112" inkscape:window-y="18" inkscape:cx="-28.16038" showgrid="false" inkscape:current-layer="svg2" borderopacity="1.0" inkscape:pageopacity="0.0" inkscape:window-width="1280" guidetolerance="10.0" inkscape:window-height="1005" inkscape:pageshadow="2" objecttolerance="10.0" gridtolerance="10.0" pagecolor="#ffffff" inkscape:zoom="0.70710678">
	</sodipodi:namedview>
<defs>
	
	
		<inkscape:perspective  id="perspective12" sodipodi:type="inkscape:persp3d" inkscape:vp_y="0 : 1000 : 0" inkscape:vp_z="580 : 290 : 1" inkscape:vp_x="0 : 290 : 1" inkscape:persp3d-origin="290 : 193.33333 : 1">
		</inkscape:perspective>
	
		<inkscape:perspective  id="perspective6807" sodipodi:type="inkscape:persp3d" inkscape:vp_y="0 : 1000 : 0" inkscape:vp_z="58.232063 : 29.116032 : 1" inkscape:vp_x="0 : 29.116032 : 1" inkscape:persp3d-origin="29.116032 : 19.410688 : 1">
		</inkscape:perspective>
	
		<inkscape:perspective  id="perspective6954" sodipodi:type="inkscape:persp3d" inkscape:vp_y="0 : 1000 : 0" inkscape:vp_z="580 : 290 : 1" inkscape:vp_x="0 : 290 : 1" inkscape:persp3d-origin="290 : 193.33333 : 1">
		</inkscape:perspective>
	
		<inkscape:perspective  id="perspective7597" sodipodi:type="inkscape:persp3d" inkscape:vp_y="0 : 1000 : 0" inkscape:vp_z="357.08099 : 237.7245 : 1" inkscape:vp_x="0 : 237.7245 : 1" inkscape:persp3d-origin="178.5405 : 158.483 : 1">
		</inkscape:perspective>
</defs>
<path id="path2323" fill="#93278F" d="M284.313,283.58c-0.641,0-0.98,0.35-1.138,0.759l-0.833,2.15
	c-0.329,0.042-0.915,0.43-0.915,1.164v2.734h0.811v0.875c0,1.075,1.521,1.062,1.521,0v-0.875h2.738l0,0h2.738v0.875
	c0,1.062,1.521,1.075,1.521,0v-0.875h0.812v-2.734c0-0.734-0.585-1.122-0.915-1.164l-0.833-2.15
	c-0.157-0.409-0.497-0.759-1.137-0.759h-1.178h-2.004H284.313z M284.304,284.363h2.193h0.002l0,0h2.195
	c0.273,0.002,0.392,0.174,0.47,0.412l0.627,1.691H286.5l0,0h-0.002h-3.292l0.627-1.691
	C283.912,284.537,284.029,284.365,284.304,284.363z M283.025,287.289c0.388,0,0.703,0.324,0.703,0.725
	c0,0.4-0.315,0.725-0.703,0.725s-0.703-0.325-0.703-0.725C282.322,287.613,282.637,287.289,283.025,287.289z M289.976,287.289
	c0.388,0,0.703,0.324,0.703,0.725c0,0.4-0.315,0.725-0.703,0.725c-0.389,0-0.704-0.325-0.704-0.725
	C289.271,287.613,289.587,287.289,289.976,287.289z"/>
<g id="g2319" transform="translate(879.29125,36.805119)">
</g>
<g>
	
		<rect x="293.214" y="283.788" transform="matrix(0.7075 -0.7067 0.7067 0.7075 -117.1846 291.6852)" fill="#93278F" width="1.168" height="7.254"/>
	<circle fill="#93278F" cx="290.596" cy="284.213" r="3.452"/>
	<circle fill="#FFFFFF" cx="290.596" cy="284.214" r="2.208"/>
</g>
</svg>
