<?xml version="1.0" encoding="utf-8"?>
<!-- Generator: Adobe Illustrator 14.0.0, SVG Export Plug-In . SVG Version: 6.00 Build 43363)  -->
<!DOCTYPE svg PUBLIC "-//W3C//DTD SVG 1.1//EN" "http://www.w3.org/Graphics/SVG/1.1/DTD/svg11.dtd">
<svg version="1.1"
	 id="svg2" xmlns:rdf="http://www.w3.org/1999/02/22-rdf-syntax-ns#" sodipodi:docname="view_point.svg" inkscape:version="0.46" xmlns:svg="http://www.w3.org/2000/svg" xmlns:sodipodi="http://sodipodi.sourceforge.net/DTD/sodipodi-0.dtd" xmlns:inkscape="http://www.inkscape.org/namespaces/inkscape" xmlns:dc="http://purl.org/dc/elements/1.1/" sodipodi:version="0.32" xmlns:cc="http://creativecommons.org/ns#" inkscape:output_extension="org.inkscape.output.svg.inkscape" sodipodi:docbase="s:\Data\FacilityIcons"
	 xmlns="http://www.w3.org/2000/svg" xmlns:xlink="http://www.w3.org/1999/xlink" x="0px" y="0px" width="580px" height="580px"
	 viewBox="0 0 580 580" enable-background="new 0 0 580 580" xml:space="preserve">
<sodipodi:namedview  showgrid="false" inkscape:current-layer="svg2" inkscape:window-y="-4" inkscape:window-x="-4" inkscape:cy="535.80126" inkscape:cx="280.8225" inkscape:zoom="0.65172414" pagecolor="#ffffff" bordercolor="#666666" borderopacity="1.0" objecttolerance="10.0" gridtolerance="10.0" guidetolerance="10.0" inkscape:window-height="1005" inkscape:window-width="1280" inkscape:pageshadow="2" inkscape:pageopacity="0.0" id="base">
	</sodipodi:namedview>
<defs>
	
	
		<inkscape:perspective  inkscape:persp3d-origin="290 : 193.33333 : 1" inkscape:vp_z="580 : 290 : 1" inkscape:vp_y="0 : 1000 : 0" inkscape:vp_x="0 : 290 : 1" sodipodi:type="inkscape:persp3d" id="perspective3579">
		</inkscape:perspective>
</defs>
<g id="use6027" transform="matrix(0.8077858,-0.4663754,0.4663754,0.8077858,-36.482068,516.74249)">
	
		<path id="path6015_1_" sodipodi:nodetypes="cszss" fill="#603813" stroke="#603813" stroke-width="0.4659" stroke-linecap="round" stroke-linejoin="round" d="
		M291.443,282.463c-0.006,0.026-1.401-1.125-2.859-2.655c-0.332-0.349-2.252-2.029-0.481-3.05c1.812-1.044,2.316,1.487,2.459,2.045
		C291.065,280.772,291.449,282.436,291.443,282.463z"/>
</g>
<g>
	<g id="use6029" transform="matrix(0.5,-0.8660254,0.8660254,0.5,-99.608513,395.17405)">
		
			<path id="path6015_2_" sodipodi:nodetypes="cszss" fill="#603813" stroke="#603813" stroke-width="0.4659" stroke-linecap="round" stroke-linejoin="round" d="
			M290.514,284.072c0.021,0.018-1.674,0.651-3.729,1.148c-0.468,0.113-2.883,0.936-2.882-1.108c0.001-2.092,2.445-1.263,3.001-1.107
			C288.862,283.553,290.494,284.054,290.514,284.072z"/>
	</g>
	<g>
		<g>
			<g id="use6031" transform="matrix(0.5,-0.8660254,0.8660254,0.5,-100.02947,397.18544)">
				
					<path id="path6015_3_" sodipodi:nodetypes="cszss" fill="#603813" stroke="#603813" stroke-width="0.4659" stroke-linecap="round" stroke-linejoin="round" d="
					M291.429,285.748c0.026-0.009-0.272,1.775-0.87,3.802c-0.135,0.462-0.631,2.965-2.4,1.942c-1.811-1.047,0.129-2.749,0.542-3.152
					C290.154,286.919,291.404,285.756,291.429,285.748z"/>
			</g>
			<g>
				<g>
					<g>
						<g id="use6033" transform="matrix(0.5,-0.8660254,0.8660254,0.5,-100.38597,396.46523)">
							
								<path id="path6015_4_" sodipodi:nodetypes="cszss" fill="#603813" stroke="#603813" stroke-width="0.4659" stroke-linecap="round" stroke-linejoin="round" d="
								M293.326,285.769c0.006-0.027,1.4,1.125,2.859,2.655c0.332,0.35,2.251,2.029,0.48,3.05c-1.812,1.046-2.315-1.486-2.459-2.045
								C293.703,287.459,293.32,285.795,293.326,285.769z"/>
						</g>
						<g>
							<g>
								<g>
									<g>
										<g id="use6035" transform="matrix(0.5,-0.8660254,0.8660254,0.5,-102.40499,396.28914)">
											
												<path id="path6015_5_" sodipodi:nodetypes="cszss" fill="#603813" stroke="#603813" stroke-width="0.4659" stroke-linecap="round" stroke-linejoin="round" d="
												M294.226,284.131c-0.019-0.018,1.675-0.651,3.729-1.148c0.467-0.113,2.883-0.936,2.881,1.108
												c0,2.091-2.445,1.263-3,1.107C295.879,284.649,294.246,284.149,294.226,284.131z"/>
										</g>
										<g id="use6037" transform="matrix(0.8660254,-0.5,0.5,0.8660254,456.89843,297.20022)">
										</g>
										<g id="use6039" transform="matrix(0.8077858,0.4663754,-0.4663754,0.8077858,-70.868724,113.90104)">
											
												<path id="path6015_7_" sodipodi:nodetypes="cszss" fill="#603813" stroke="#603813" stroke-width="0.4659" stroke-linecap="round" stroke-linejoin="round" d="
												M293.396,282.411c-0.025,0.008,0.273-1.775,0.869-3.803c0.137-0.462,0.632-2.965,2.4-1.942
												c1.811,1.047-0.129,2.749-0.542,3.152C294.671,281.239,293.421,282.402,293.396,282.411z"/>
										</g>
									</g>
								</g>
							</g>
						</g>
					</g>
				</g>
			</g>
		</g>
	</g>
</g>
</svg>
