<?xml version="1.0" encoding="utf-8"?>
<!-- Generator: Adobe Illustrator 14.0.0, SVG Export Plug-In . SVG Version: 6.00 Build 43363)  -->
<!DOCTYPE svg PUBLIC "-//W3C//DTD SVG 1.1//EN" "http://www.w3.org/Graphics/SVG/1.1/DTD/svg11.dtd">
<svg version="1.1"
	 id="svg2" xmlns:rdf="http://www.w3.org/1999/02/22-rdf-syntax-ns#" sodipodi:docname="view_point.svg" inkscape:version="0.46" xmlns:svg="http://www.w3.org/2000/svg" xmlns:sodipodi="http://sodipodi.sourceforge.net/DTD/sodipodi-0.dtd" xmlns:inkscape="http://www.inkscape.org/namespaces/inkscape" xmlns:dc="http://purl.org/dc/elements/1.1/" sodipodi:version="0.32" xmlns:cc="http://creativecommons.org/ns#" inkscape:output_extension="org.inkscape.output.svg.inkscape" sodipodi:docbase="s:\Data\FacilityIcons"
	 xmlns="http://www.w3.org/2000/svg" xmlns:xlink="http://www.w3.org/1999/xlink" x="0px" y="0px" width="580px" height="580px"
	 viewBox="0 0 580 580" enable-background="new 0 0 580 580" xml:space="preserve">
<path id="path6015_7_" sodipodi:nodetypes="cszss" fill="#603813" stroke="#603813" stroke-width="0.4659" stroke-linecap="round" stroke-linejoin="round" d="
	M293.244,269.951c0.021,0.009-1.262,1.103-2.904,2.193c-0.376,0.247-2.232,1.737-2.88-0.056c-0.664-1.834,1.743-1.884,2.279-1.924
	C291.629,270.022,293.221,269.943,293.244,269.951z"/>
<path id="path6015_1_" sodipodi:nodetypes="cszss" fill="#603813" stroke="#603813" stroke-width="0.4659" stroke-linecap="round" stroke-linejoin="round" d="
	M294.323,271.316c0.018-0.015,0.324,1.643,0.447,3.611c0.025,0.449,0.389,2.802-1.488,2.466c-1.92-0.342-0.76-2.451-0.526-2.936
	C293.577,272.75,294.304,271.333,294.323,271.316z"/>
<path id="path6015_2_" sodipodi:nodetypes="cszss" fill="#603813" stroke="#603813" stroke-width="0.4659" stroke-linecap="round" stroke-linejoin="round" d="
	M295.742,271.098c-0.004-0.023,1.586,0.541,3.352,1.418c0.401,0.203,2.621,1.064,1.391,2.522c-1.256,1.491-2.502-0.568-2.805-1.013
	C296.611,272.461,295.747,271.124,295.742,271.098z"/>
<path id="path6015_3_" sodipodi:nodetypes="cszss" fill="#603813" stroke="#603813" stroke-width="0.4659" stroke-linecap="round" stroke-linejoin="round" d="
	M296.207,269.399c-0.021-0.008,1.261-1.104,2.903-2.194c0.376-0.247,2.232-1.737,2.88,0.057c0.664,1.833-1.743,1.882-2.279,1.922
	C297.822,269.328,296.23,269.407,296.207,269.399z"/>
<path id="path6015_4_" sodipodi:nodetypes="cszss" fill="#603813" stroke="#603813" stroke-width="0.4659" stroke-linecap="round" stroke-linejoin="round" d="
	M295.076,268.355c-0.018,0.015-0.324-1.644-0.447-3.611c-0.025-0.449-0.389-2.802,1.488-2.465c1.92,0.341,0.76,2.451,0.525,2.935
	C295.822,266.92,295.096,268.338,295.076,268.355z"/>
<path id="path6015_5_" sodipodi:nodetypes="cszss" fill="#603813" stroke="#603813" stroke-width="0.4659" stroke-linecap="round" stroke-linejoin="round" d="
	M293.638,268.626c0.004,0.022-1.586-0.54-3.352-1.417c-0.402-0.202-2.621-1.065-1.391-2.522c1.255-1.492,2.502,0.568,2.805,1.012
	C292.769,267.263,293.633,268.602,293.638,268.626z"/>
</svg>
