<?xml version="1.0" encoding="UTF-8" standalone="no"?>
<svg
   xmlns:dc="http://purl.org/dc/elements/1.1/"
   xmlns:cc="http://creativecommons.org/ns#"
   xmlns:rdf="http://www.w3.org/1999/02/22-rdf-syntax-ns#"
   xmlns:svg="http://www.w3.org/2000/svg"
   xmlns="http://www.w3.org/2000/svg"
   viewBox="0 0 14 14"
   height="14px"
   width="14px"
   y="0px"
   x="0px"
   id="Layer_1"
   version="1.0">
  <metadata
     id="metadata7242">
    <rdf:RDF>
      <cc:Work
         rdf:about="">
        <dc:format>image/svg+xml</dc:format>
        <dc:type
           rdf:resource="http://purl.org/dc/dcmitype/StillImage" />
        <dc:title></dc:title>
      </cc:Work>
    </rdf:RDF>
  </metadata>
  <defs
     id="defs7240" />
  <path
     id="path7235"
     d="m 1,11 c 0.641,0 1.829,1 2.4,1 0.535,0 1.795,-1 2.4,-1 0.605,0 1.866,1 2.4,1 0.642,0 1.825,-1 2.399,-1 0.641,-0.029 1.902,1 2.4,1 v 2 c -0.604,0 -1.83,-1 -2.4,-1 C 10.03,13 8.804,14 8.2,14 7.626,14 6.405,13 5.8,13 5.191,13 3.971,14 3.4,14 2.76,14 1.606,13 1,13 Z M 1,3 C 2.094,3 3.001,3.3 3.001,4.75 L 3,7.25 c 0,2 2,3 3,3 0,0 -1,-1 -1,-3 V 4.75 C 5,3.835 4.351,3.442 3.999,3 5.093,3 6,3.3 6,4.75 v 2.5 c 0,2 2,3 3,3 0,0 -1,-1 -1,-3 L 8.1,4.75 C 8.1365708,3.8357311 7.351,3.442 7,3 8.093,3 9,3.3 9,4.75 v 2.5 c 0,2 2,3 3,3 0,0 -1,-1 -1,-3 V 4.75 C 11,1.75 8,1 7,1 H 0 l 5e-4,2 z" />
</svg>
