<svg xmlns:dc="http://purl.org/dc/elements/1.1/" xmlns:cc="http://creativecommons.org/ns#" xmlns:rdf="http://www.w3.org/1999/02/22-rdf-syntax-ns#" xmlns:svg="http://www.w3.org/2000/svg" xmlns="http://www.w3.org/2000/svg" version="1.1" width="100%" height="100%" viewBox="0 0 16 16" id="svg2">
  <metadata id="metadata8">
    <rdf:RDF>
      <cc:Work rdf:about="">
        <dc:format>image/svg+xml</dc:format>
        <dc:type rdf:resource="http://purl.org/dc/dcmitype/StillImage"/>
        <dc:title/>
      </cc:Work>
    </rdf:RDF>
  </metadata>
  <defs id="defs6"/>
  <rect width="16" height="16" x="0" y="0" id="canvas" style="fill:none;stroke:none;visibility:hidden"/>
  <path d="m 0,1 0,1.25 c 1.9973598,0 2.9578431,0.3559307 3,2 l 0,2.5 c 0,2 1.5,3 2.5,3 0,0 -1,-1 -1,-3 l 0,-2.5 c 0,-0.8609589 -0.3050856,-1.5096662 -0.78125,-2 1.2535757,0 2.2426412,0.5230892 2.28125,2 l 0,2.5 c 0,2 1.5,3 2.5,3 0,0 -1,-1 -1,-3 l 0,-2.5 C 7.5,3.3355769 7.2575127,2.6919337 6.90625,2.25 8,2.25 9,2.8004763 9,4.25 l 0,2.5 c 0,2 1.5,3 2.5,3 0,0 -1,-1 -1,-3 l 0,-2.5 C 10.5,1.25 8,1 7,1 z m 3,9.75 c -0.5338983,0 -1.4922852,0.75 -2,0.75 L 1,13 c 0.5371839,0 1.5254237,-0.75 2,-0.75 0.5042373,0 1.4661017,0.75 2,0.75 0.4755023,0 1.4922852,-0.75 2,-0.75 0.5042373,0 1.5217305,0.75 2,0.75 0.5042373,0 1.525424,-0.75 2,-0.75 0.474576,0 1.495763,0.75 2,0.75 l 0,-1.5 c -0.415254,0 -1.466102,-0.779661 -2,-0.75 -0.47827,0 -1.4652784,0.75 -2,0.75 -0.4449153,0 -1.4957627,-0.75 -2,-0.75 -0.5042373,0 -1.5540971,0.75 -2,0.75 -0.4755023,0 -1.4661017,-0.75 -2,-0.75 z" id="waterfall" style="color:#000000;fill:#000000;fill-opacity:1;fill-rule:nonzero;stroke-width:2;marker:none;visibility:visible;display:inline;overflow:visible;enable-background:accumulate" transform="translate(1,1)"/>
</svg>
