<?xml version="1.0" encoding="UTF-8" standalone="no"?>
<svg>
  <path
     d="M 11 0 L 11 1 L 18 1 L 18 0 L 11 0 z M 43 0 L 43 1 L 50 1 L 50 0 L 43 0 z M 66 0 L 66 1 L 73 1 L 73 0 L 66 0 z M 89 0 L 89 1 L 96 1 L 96 0 L 89 0 z M 123 0 L 123 1 L 130 1 L 130 0 L 123 0 z M 137 1 L 137 2 L 144 2 L 144 1 L 137 1 z M 201 1 L 201 2 L 208 2 L 208 1 L 201 1 z M 222 1 L 222 2 L 229 2 L 229 1 L 222 1 z M 189 2 L 189 3 L 196 3 L 196 2 L 189 2 z M 240 2 L 240 3 L 247 3 L 247 2 L 240 2 z M 24 3 L 24 4 L 31 4 L 31 3 L 24 3 z M 36 3 L 36 4 L 43 4 L 43 3 L 36 3 z M 115 3 L 115 4 L 122 4 L 122 3 L 115 3 z M 63 4 L 63 5 L 70 5 L 70 4 L 63 4 z M 81 4 L 81 5 L 88 5 L 88 4 L 81 4 z M 158 4 L 158 5 L 165 5 L 165 4 L 158 4 z M 170 4 L 170 5 L 177 5 L 177 4 L 170 4 z M 215 4 L 215 5 L 222 5 L 222 4 L 215 4 z M 8 5 L 8 6 L 15 6 L 15 5 L 8 5 z M 48 5 L 48 6 L 55 6 L 55 5 L 48 5 z M 96 5 L 96 6 L 103 6 L 103 5 L 96 5 z M 148 5 L 148 6 L 155 6 L 155 5 L 148 5 z M 232 5 L 232 6 L 239 6 L 239 5 L 232 5 z M 247 5 L 247 6 L 254 6 L 254 5 L 247 5 z M 107 6 L 107 7 L 114 7 L 114 6 L 107 6 z M 179 6 L 179 7 L 186 7 L 186 6 L 179 6 z M 197 6 L 197 7 L 204 7 L 204 6 L 197 6 z M 16 7 L 16 8 L 23 8 L 23 7 L 16 7 z M 138 7 L 138 8 L 145 8 L 145 7 L 138 7 z M 56 8 L 56 9 L 63 9 L 63 8 L 56 8 z M 126 8 L 126 9 L 133 9 L 133 8 L 126 8 z M 207 8 L 207 9 L 214 9 L 214 8 L 207 8 z M 0 9 L 0 10 L 5 10 L 5 9 L 0 9 z M 67 9 L 67 10 L 74 10 L 74 9 L 67 9 z M 80 9 L 80 10 L 87 10 L 87 9 L 80 9 z M 94 9 L 94 10 L 101 10 L 101 9 L 94 9 z M 188 9 L 188 10 L 195 10 L 195 9 L 188 9 z M 226 9 L 226 10 L 233 10 L 233 9 L 226 9 z M 254 9 L 254 10 L 256 10 L 256 9 L 254 9 z M 27 10 L 27 11 L 34 11 L 34 10 L 27 10 z M 36 10 L 36 11 L 43 11 L 43 10 L 36 10 z M 113 10 L 113 11 L 120 11 L 120 10 L 113 10 z M 155 10 L 155 11 L 162 11 L 162 10 L 155 10 z M 142 11 L 142 12 L 149 12 L 149 11 L 142 11 z M 169 11 L 169 12 L 176 12 L 176 11 L 169 11 z M 214 11 L 214 12 L 221 12 L 221 11 L 214 11 z M 244 11 L 244 12 L 251 12 L 251 11 L 244 11 z M 16 12 L 16 13 L 23 13 L 23 12 L 16 12 z M 48 12 L 48 13 L 55 13 L 55 12 L 48 12 z M 4 13 L 4 14 L 11 14 L 11 13 L 4 13 z M 73 13 L 73 14 L 80 14 L 80 13 L 73 13 z M 88 13 L 88 14 L 95 14 L 95 13 L 88 13 z M 105 13 L 105 14 L 112 14 L 112 13 L 105 13 z M 178 13 L 178 14 L 185 14 L 185 13 L 178 13 z M 58 14 L 58 15 L 65 15 L 65 14 L 58 14 z M 124 14 L 124 15 L 131 15 L 131 14 L 124 14 z M 135 14 L 135 15 L 142 15 L 142 14 L 135 14 z M 160 14 L 160 15 L 167 15 L 167 14 L 160 14 z M 205 14 L 205 15 L 212 15 L 212 14 L 205 14 z M 237 14 L 237 15 L 244 15 L 244 14 L 237 14 z M 38 15 L 38 16 L 45 16 L 45 15 L 38 15 z M 191 15 L 191 16 L 198 16 L 198 15 L 191 15 z M 223 15 L 223 16 L 230 16 L 230 15 L 223 15 z M 26 16 L 26 17 L 33 17 L 33 16 L 26 16 z M 93 17 L 93 18 L 100 18 L 100 17 L 93 17 z M 116 17 L 116 18 L 123 18 L 123 17 L 116 17 z M 147 17 L 147 18 L 154 18 L 154 17 L 147 17 z M 183 17 L 183 18 L 190 18 L 190 17 L 183 17 z M 0 18 L 0 19 L 1 19 L 1 18 L 0 18 z M 5 18 L 5 19 L 12 19 L 12 18 L 5 18 z M 15 18 L 15 19 L 22 19 L 22 18 L 15 18 z M 44 18 L 44 19 L 51 19 L 51 18 L 44 18 z M 61 18 L 61 19 L 68 19 L 68 18 L 61 18 z M 81 18 L 81 19 L 88 19 L 88 18 L 81 18 z M 158 18 L 158 19 L 165 19 L 165 18 L 158 18 z M 170 18 L 170 19 L 177 19 L 177 18 L 170 18 z M 198 18 L 198 19 L 205 19 L 205 18 L 198 18 z M 215 18 L 215 19 L 222 19 L 222 18 L 215 18 z M 230 18 L 230 19 L 237 19 L 237 18 L 230 18 z M 250 18 L 250 19 L 256 19 L 256 18 L 250 18 z M 105 19 L 105 20 L 112 20 L 112 19 L 105 19 z M 128 19 L 128 20 L 135 20 L 135 19 L 128 19 z M 73 20 L 73 21 L 80 21 L 80 20 L 73 20 z M 33 21 L 33 22 L 40 22 L 40 21 L 33 21 z M 139 21 L 139 22 L 146 22 L 146 21 L 139 21 z M 51 22 L 51 23 L 58 23 L 58 22 L 51 22 z M 97 22 L 97 23 L 104 23 L 104 22 L 97 22 z M 112 22 L 112 23 L 119 23 L 119 22 L 112 22 z M 173 22 L 173 23 L 180 23 L 180 22 L 173 22 z M 189 22 L 189 23 L 196 23 L 196 22 L 189 22 z M 205 22 L 205 23 L 212 23 L 212 22 L 205 22 z M 237 22 L 237 23 L 244 23 L 244 22 L 237 22 z M 0 23 L 0 24 L 4 24 L 4 23 L 0 23 z M 24 23 L 24 24 L 31 24 L 31 23 L 24 23 z M 64 23 L 64 24 L 71 24 L 71 23 L 64 23 z M 149 23 L 149 24 L 156 24 L 156 23 L 149 23 z M 221 23 L 221 24 L 228 24 L 228 23 L 221 23 z M 253 23 L 253 24 L 256 24 L 256 23 L 253 23 z M 14 24 L 14 25 L 21 25 L 21 24 L 14 24 z M 121 24 L 121 25 L 128 25 L 128 24 L 121 24 z M 159 24 L 159 25 L 166 25 L 166 24 L 159 24 z M 89 25 L 89 26 L 96 26 L 96 25 L 89 25 z M 212 25 L 212 26 L 219 26 L 219 25 L 212 25 z M 244 25 L 244 26 L 251 26 L 251 25 L 244 25 z M 34 26 L 34 27 L 41 27 L 41 26 L 34 26 z M 54 26 L 54 27 L 61 27 L 61 26 L 54 26 z M 74 26 L 74 27 L 81 27 L 81 26 L 74 26 z M 182 26 L 182 27 L 189 27 L 189 26 L 182 26 z M 5 27 L 5 28 L 12 28 L 12 27 L 5 27 z M 139 27 L 139 28 L 146 28 L 146 27 L 139 27 z M 168 27 L 168 28 L 175 28 L 175 27 L 168 27 z M 231 27 L 231 28 L 238 28 L 238 27 L 231 27 z M 42 28 L 42 29 L 49 29 L 49 28 L 42 28 z M 104 28 L 104 29 L 111 29 L 111 28 L 104 28 z M 128 28 L 128 29 L 135 29 L 135 28 L 128 28 z M 200 28 L 200 29 L 207 29 L 207 28 L 200 28 z M 0 29 L 0 30 L 2 30 L 2 29 L 0 29 z M 82 29 L 82 30 L 89 30 L 89 29 L 82 29 z M 114 29 L 114 30 L 121 30 L 121 29 L 114 29 z M 190 29 L 190 30 L 197 30 L 197 29 L 190 29 z M 251 29 L 251 30 L 256 30 L 256 29 L 251 29 z M 25 30 L 25 31 L 32 31 L 32 30 L 25 30 z M 65 30 L 65 31 L 72 31 L 72 30 L 65 30 z M 95 30 L 95 31 L 102 31 L 102 30 L 95 30 z M 160 30 L 160 31 L 167 31 L 167 30 L 160 30 z M 222 30 L 222 31 L 229 31 L 229 30 L 222 30 z M 10 31 L 10 32 L 17 32 L 17 31 L 10 31 z M 54 31 L 54 32 L 61 32 L 61 31 L 54 31 z M 145 31 L 145 32 L 152 32 L 152 31 L 145 31 z M 177 31 L 177 32 L 184 32 L 184 31 L 177 31 z M 210 31 L 210 32 L 217 32 L 217 31 L 210 31 z M 240 31 L 240 32 L 247 32 L 247 31 L 240 31 z M 42 32 L 42 33 L 49 33 L 49 32 L 42 32 z M 74 32 L 74 33 L 81 33 L 81 32 L 74 32 z M 123 33 L 123 34 L 130 34 L 130 33 L 123 33 z M 134 33 L 134 34 L 141 34 L 141 33 L 134 33 z M 0 34 L 0 35 L 3 35 L 3 34 L 0 34 z M 17 34 L 17 35 L 24 35 L 24 34 L 17 34 z M 31 34 L 31 35 L 38 35 L 38 34 L 31 34 z M 154 34 L 154 35 L 161 35 L 161 34 L 154 34 z M 185 34 L 185 35 L 192 35 L 192 34 L 185 34 z M 201 34 L 201 35 L 208 35 L 208 34 L 201 34 z M 252 34 L 252 35 L 256 35 L 256 34 L 252 34 z M 59 35 L 59 36 L 66 36 L 66 35 L 59 35 z M 98 35 L 98 36 L 105 36 L 105 35 L 98 35 z M 113 35 L 113 36 L 120 36 L 120 35 L 113 35 z M 169 35 L 169 36 L 176 36 L 176 35 L 169 35 z M 217 35 L 217 36 L 224 36 L 224 35 L 217 35 z M 232 35 L 232 36 L 239 36 L 239 35 L 232 35 z M 86 36 L 86 37 L 93 37 L 93 36 L 86 36 z M 9 37 L 9 38 L 16 38 L 16 37 L 9 37 z M 41 37 L 41 38 L 48 38 L 48 37 L 41 37 z M 73 37 L 73 38 L 80 38 L 80 37 L 73 37 z M 144 37 L 144 38 L 151 38 L 151 37 L 144 37 z M 27 38 L 27 39 L 34 39 L 34 38 L 27 38 z M 106 38 L 106 39 L 113 39 L 113 38 L 106 38 z M 129 38 L 129 39 L 136 39 L 136 38 L 129 38 z M 161 38 L 161 39 L 168 39 L 168 38 L 161 38 z M 193 38 L 193 39 L 200 39 L 200 38 L 193 38 z M 208 38 L 208 39 L 215 39 L 215 38 L 208 38 z M 240 38 L 240 39 L 247 39 L 247 38 L 240 38 z M 0 39 L 0 40 L 3 40 L 3 39 L 0 39 z M 179 39 L 179 40 L 186 40 L 186 39 L 179 39 z M 221 39 L 221 40 L 228 40 L 228 39 L 221 39 z M 252 39 L 252 40 L 256 40 L 256 39 L 252 39 z M 61 40 L 61 41 L 68 41 L 68 40 L 61 40 z M 17 41 L 17 42 L 24 42 L 24 41 L 17 41 z M 51 41 L 51 42 L 58 42 L 58 41 L 51 41 z M 97 41 L 97 42 L 104 42 L 104 41 L 97 41 z M 116 41 L 116 42 L 123 42 L 123 41 L 116 41 z M 138 41 L 138 42 L 145 42 L 145 41 L 138 41 z M 4 42 L 4 43 L 11 43 L 11 42 L 4 42 z M 41 42 L 41 43 L 48 43 L 48 42 L 41 42 z M 74 42 L 74 43 L 81 43 L 81 42 L 74 42 z M 84 42 L 84 43 L 91 43 L 91 42 L 84 42 z M 154 42 L 154 43 L 161 43 L 161 42 L 154 42 z M 170 42 L 170 43 L 177 43 L 177 42 L 170 42 z M 197 42 L 197 43 L 204 43 L 204 42 L 197 42 z M 242 42 L 242 43 L 249 43 L 249 42 L 242 42 z M 127 43 L 127 44 L 134 44 L 134 43 L 127 43 z M 211 43 L 211 44 L 218 44 L 218 43 L 211 43 z M 228 43 L 228 44 L 235 44 L 235 43 L 228 43 z M 24 44 L 24 45 L 31 45 L 31 44 L 24 44 z M 186 44 L 186 45 L 193 45 L 193 44 L 186 44 z M 11 45 L 11 46 L 18 46 L 18 45 L 11 45 z M 36 45 L 36 46 L 43 46 L 43 45 L 36 45 z M 67 45 L 67 46 L 74 46 L 74 45 L 67 45 z M 91 45 L 91 46 L 98 46 L 98 45 L 91 45 z M 106 45 L 106 46 L 113 46 L 113 45 L 106 45 z M 146 45 L 146 46 L 153 46 L 153 45 L 146 45 z M 53 46 L 53 47 L 60 47 L 60 46 L 53 46 z M 160 46 L 160 47 L 167 47 L 167 46 L 160 46 z M 176 46 L 176 47 L 183 47 L 183 46 L 176 46 z M 220 46 L 220 47 L 227 47 L 227 46 L 220 46 z M 237 46 L 237 47 L 244 47 L 244 46 L 237 46 z M 0 47 L 0 48 L 6 48 L 6 47 L 0 47 z M 130 47 L 130 48 L 137 48 L 137 47 L 130 47 z M 206 47 L 206 48 L 213 48 L 213 47 L 206 47 z M 255 47 L 255 48 L 256 48 L 256 47 L 255 47 z M 115 48 L 115 49 L 122 49 L 122 48 L 115 48 z M 194 48 L 194 49 L 201 49 L 201 48 L 194 48 z M 62 49 L 62 50 L 69 50 L 69 49 L 62 49 z M 98 49 L 98 50 L 105 50 L 105 49 L 98 49 z M 142 49 L 142 50 L 149 50 L 149 49 L 142 49 z M 166 49 L 166 50 L 173 50 L 173 49 L 166 49 z M 22 50 L 22 51 L 29 51 L 29 50 L 22 50 z M 38 50 L 38 51 L 45 51 L 45 50 L 38 50 z M 84 50 L 84 51 L 91 51 L 91 50 L 84 50 z M 183 50 L 183 51 L 190 51 L 190 50 L 183 50 z M 215 50 L 215 51 L 222 51 L 222 50 L 215 50 z M 245 50 L 245 51 L 252 51 L 252 50 L 245 50 z M 9 51 L 9 52 L 16 52 L 16 51 L 9 51 z M 74 51 L 74 52 L 81 52 L 81 51 L 74 51 z M 119 51 L 119 52 L 126 52 L 126 51 L 119 51 z M 50 52 L 50 53 L 57 53 L 57 52 L 50 52 z M 106 52 L 106 53 L 113 53 L 113 52 L 106 52 z M 234 52 L 234 53 L 241 53 L 241 52 L 234 52 z M 133 53 L 133 54 L 140 54 L 140 53 L 133 53 z M 149 53 L 149 54 L 156 54 L 156 53 L 149 53 z M 161 53 L 161 54 L 168 54 L 168 53 L 161 53 z M 175 53 L 175 54 L 182 54 L 182 53 L 175 53 z M 192 53 L 192 54 L 199 54 L 199 53 L 192 53 z M 224 53 L 224 54 L 231 54 L 231 53 L 224 53 z M 0 54 L 0 55 L 7 55 L 7 54 L 0 54 z M 61 54 L 61 55 L 68 55 L 68 54 L 61 54 z M 93 54 L 93 55 L 100 55 L 100 54 L 93 54 z M 208 54 L 208 55 L 215 55 L 215 54 L 208 54 z M 18 55 L 18 56 L 25 56 L 25 55 L 18 55 z M 32 55 L 32 56 L 39 56 L 39 55 L 32 55 z M 44 55 L 44 56 L 51 56 L 51 55 L 44 55 z M 243 55 L 243 56 L 250 56 L 250 55 L 243 55 z M 76 56 L 76 57 L 83 57 L 83 56 L 76 56 z M 121 56 L 121 57 L 128 57 L 128 56 L 121 56 z M 139 56 L 139 57 L 146 57 L 146 56 L 139 56 z M 168 57 L 168 58 L 175 58 L 175 57 L 168 57 z M 184 57 L 184 58 L 191 58 L 191 57 L 184 57 z M 200 57 L 200 58 L 207 58 L 207 57 L 200 57 z M 9 58 L 9 59 L 16 59 L 16 58 L 9 58 z M 23 58 L 23 59 L 30 59 L 30 58 L 23 58 z M 53 58 L 53 59 L 60 59 L 60 58 L 53 58 z M 89 58 L 89 59 L 96 59 L 96 58 L 89 58 z M 106 58 L 106 59 L 113 59 L 113 58 L 106 58 z M 151 58 L 151 59 L 158 59 L 158 58 L 151 58 z M 231 58 L 231 59 L 238 59 L 238 58 L 231 58 z M 0 59 L 0 60 L 3 60 L 3 59 L 0 59 z M 67 59 L 67 60 L 74 60 L 74 59 L 67 59 z M 219 59 L 219 60 L 226 60 L 226 59 L 219 59 z M 252 59 L 252 60 L 256 60 L 256 59 L 252 59 z M 239 60 L 239 61 L 246 61 L 246 60 L 239 60 z M 35 61 L 35 62 L 42 62 L 42 61 L 35 61 z M 80 61 L 80 62 L 87 62 L 87 61 L 80 61 z M 96 61 L 96 62 L 103 62 L 103 61 L 96 61 z M 120 61 L 120 62 L 127 62 L 127 61 L 120 61 z M 130 61 L 130 62 L 137 62 L 137 61 L 130 61 z M 160 61 L 160 62 L 167 62 L 167 61 L 160 61 z M 176 61 L 176 62 L 183 62 L 183 61 L 176 61 z M 192 61 L 192 62 L 199 62 L 199 61 L 192 61 z M 207 61 L 207 62 L 214 62 L 214 61 L 207 61 z M 46 62 L 46 63 L 53 63 L 53 62 L 46 62 z M 14 63 L 14 64 L 21 64 L 21 63 L 14 63 z M 58 63 L 58 64 L 65 64 L 65 63 L 58 63 z M 110 63 L 110 64 L 117 64 L 117 63 L 110 63 z M 141 63 L 141 64 L 148 64 L 148 63 L 141 63 z M 224 63 L 224 64 L 231 64 L 231 63 L 224 63 z M 0 64 L 0 65 L 1 65 L 1 64 L 0 64 z M 26 64 L 26 65 L 33 65 L 33 64 L 26 64 z M 213 64 L 213 65 L 220 65 L 220 64 L 213 64 z M 250 64 L 250 65 L 256 65 L 256 64 L 250 64 z M 67 65 L 67 66 L 74 66 L 74 65 L 67 65 z M 80 65 L 80 66 L 87 66 L 87 65 L 80 65 z M 100 65 L 100 66 L 107 66 L 107 65 L 100 65 z M 169 65 L 169 66 L 176 66 L 176 65 L 169 65 z M 184 65 L 184 66 L 191 66 L 191 65 L 184 65 z M 6 66 L 6 67 L 13 67 L 13 66 L 6 66 z M 38 66 L 38 67 L 45 67 L 45 66 L 38 66 z M 148 66 L 148 67 L 155 67 L 155 66 L 148 66 z M 238 66 L 238 67 L 245 67 L 245 66 L 238 66 z M 51 67 L 51 68 L 58 68 L 58 67 L 51 67 z M 118 67 L 118 68 L 125 68 L 125 67 L 118 67 z M 130 67 L 130 68 L 137 68 L 137 67 L 130 67 z M 160 67 L 160 68 L 167 68 L 167 67 L 160 67 z M 195 67 L 195 68 L 202 68 L 202 67 L 195 67 z M 206 68 L 206 69 L 213 69 L 213 68 L 206 68 z M 224 68 L 224 69 L 231 69 L 231 68 L 224 68 z M 0 69 L 0 70 L 4 70 L 4 69 L 0 69 z M 18 69 L 18 70 L 25 70 L 25 69 L 18 69 z M 84 69 L 84 70 L 91 70 L 91 69 L 84 69 z M 253 69 L 253 70 L 256 70 L 256 69 L 253 69 z M 29 70 L 29 71 L 36 71 L 36 70 L 29 70 z M 70 70 L 70 71 L 77 71 L 77 70 L 70 70 z M 97 70 L 97 71 L 104 71 L 104 70 L 97 70 z M 111 70 L 111 71 L 118 71 L 118 70 L 111 70 z M 139 70 L 139 71 L 146 71 L 146 70 L 139 70 z M 181 70 L 181 71 L 188 71 L 188 70 L 181 70 z M 153 71 L 153 72 L 160 72 L 160 71 L 153 71 z M 168 71 L 168 72 L 175 72 L 175 71 L 168 71 z M 237 71 L 237 72 L 244 72 L 244 71 L 237 71 z M 9 72 L 9 73 L 16 73 L 16 72 L 9 72 z M 41 72 L 41 73 L 48 73 L 48 72 L 41 72 z M 58 72 L 58 73 L 65 73 L 65 72 L 58 72 z M 196 72 L 196 73 L 203 73 L 203 72 L 196 72 z M 213 72 L 213 73 L 220 73 L 220 72 L 213 72 z M 228 72 L 228 73 L 235 73 L 235 72 L 228 72 z M 246 73 L 246 74 L 253 74 L 253 73 L 246 73 z M 79 74 L 79 75 L 86 75 L 86 74 L 79 74 z M 102 74 L 102 75 L 109 75 L 109 74 L 102 74 z M 123 74 L 123 75 L 130 75 L 130 74 L 123 74 z M 133 74 L 133 75 L 140 75 L 140 74 L 133 74 z M 17 75 L 17 76 L 24 76 L 24 75 L 17 75 z M 34 75 L 34 76 L 41 76 L 41 75 L 34 75 z M 90 75 L 90 76 L 97 76 L 97 75 L 90 75 z M 144 75 L 144 76 L 151 76 L 151 75 L 144 75 z M 160 75 L 160 76 L 167 76 L 167 75 L 160 75 z M 177 75 L 177 76 L 184 76 L 184 75 L 177 75 z M 206 75 L 206 76 L 213 76 L 213 75 L 206 75 z M 0 76 L 0 77 L 5 77 L 5 76 L 0 76 z M 47 76 L 47 77 L 54 77 L 54 76 L 47 76 z M 68 76 L 68 77 L 75 77 L 75 76 L 68 76 z M 113 76 L 113 77 L 120 77 L 120 76 L 113 76 z M 188 76 L 188 77 L 195 77 L 195 76 L 188 76 z M 254 76 L 254 77 L 256 77 L 256 76 L 254 76 z M 58 77 L 58 78 L 65 78 L 65 77 L 58 77 z M 26 78 L 26 79 L 33 79 L 33 78 L 26 78 z M 215 78 L 215 79 L 222 79 L 222 78 L 215 78 z M 228 78 L 228 79 L 235 79 L 235 78 L 228 78 z M 11 79 L 11 80 L 18 80 L 18 79 L 11 79 z M 76 79 L 76 80 L 83 80 L 83 79 L 76 79 z M 104 79 L 104 80 L 111 80 L 111 79 L 104 79 z M 153 79 L 153 80 L 160 80 L 160 79 L 153 79 z M 169 79 L 169 80 L 176 80 L 176 79 L 169 79 z M 241 79 L 241 80 L 248 80 L 248 79 L 241 79 z M 120 80 L 120 81 L 127 81 L 127 80 L 120 80 z M 201 80 L 201 81 L 208 81 L 208 80 L 201 80 z M 2 81 L 2 82 L 9 82 L 9 81 L 2 81 z M 49 81 L 49 82 L 56 82 L 56 81 L 49 81 z M 89 81 L 89 82 L 96 82 L 96 81 L 89 81 z M 131 81 L 131 82 L 138 82 L 138 81 L 131 81 z M 144 81 L 144 82 L 151 82 L 151 81 L 144 81 z M 189 81 L 189 82 L 196 82 L 196 81 L 189 81 z M 17 82 L 17 83 L 24 83 L 24 82 L 17 82 z M 34 82 L 34 83 L 41 83 L 41 82 L 34 82 z M 64 82 L 64 83 L 71 83 L 71 82 L 64 82 z M 221 82 L 221 83 L 228 83 L 228 82 L 221 82 z M 159 83 L 159 84 L 166 84 L 166 83 L 159 83 z M 176 83 L 176 84 L 183 84 L 183 83 L 176 83 z M 245 83 L 245 84 L 252 84 L 252 83 L 245 83 z M 75 84 L 75 85 L 82 85 L 82 84 L 75 84 z M 98 84 L 98 85 L 105 85 L 105 84 L 98 84 z M 111 84 L 111 85 L 118 85 L 118 84 L 111 84 z M 231 84 L 231 85 L 238 85 L 238 84 L 231 84 z M 26 85 L 26 86 L 33 86 L 33 85 L 26 85 z M 43 85 L 43 86 L 50 86 L 50 85 L 43 85 z M 139 85 L 139 86 L 146 86 L 146 85 L 139 85 z M 198 85 L 198 86 L 205 86 L 205 85 L 198 85 z M 214 85 L 214 86 L 221 86 L 221 85 L 214 85 z M 0 86 L 0 87 L 2 87 L 2 86 L 0 86 z M 58 86 L 58 87 L 65 87 L 65 86 L 58 86 z M 122 86 L 122 87 L 129 87 L 129 86 L 122 86 z M 164 86 L 164 87 L 171 87 L 171 86 L 164 86 z M 251 86 L 251 87 L 256 87 L 256 86 L 251 86 z M 5 87 L 5 88 L 12 88 L 12 87 L 5 87 z M 90 87 L 90 88 L 97 88 L 97 87 L 90 87 z M 189 87 L 189 88 L 196 88 L 196 87 L 189 87 z M 81 88 L 81 89 L 88 89 L 88 88 L 81 88 z M 130 88 L 130 89 L 137 89 L 137 88 L 130 88 z M 175 88 L 175 89 L 182 89 L 182 88 L 175 88 z M 204 88 L 204 89 L 211 89 L 211 88 L 204 88 z M 20 89 L 20 90 L 27 90 L 27 89 L 20 89 z M 34 89 L 34 90 L 41 90 L 41 89 L 34 89 z M 66 89 L 66 90 L 73 90 L 73 89 L 66 89 z M 113 89 L 113 90 L 120 90 L 120 89 L 113 89 z M 144 89 L 144 90 L 151 90 L 151 89 L 144 89 z M 234 89 L 234 90 L 241 90 L 241 89 L 234 89 z M 97 90 L 97 91 L 104 91 L 104 90 L 97 90 z M 213 90 L 213 91 L 220 91 L 220 90 L 213 90 z M 9 91 L 9 92 L 16 92 L 16 91 L 9 91 z M 56 91 L 56 92 L 63 92 L 63 91 L 56 91 z M 160 91 L 160 92 L 167 92 L 167 91 L 160 91 z M 224 91 L 224 92 L 231 92 L 231 91 L 224 91 z M 248 91 L 248 92 L 255 92 L 255 91 L 248 91 z M 41 92 L 41 93 L 48 93 L 48 92 L 41 92 z M 106 92 L 106 93 L 113 93 L 113 92 L 106 92 z M 151 92 L 151 93 L 158 93 L 158 92 L 151 92 z M 184 92 L 184 93 L 191 93 L 191 92 L 184 92 z M 72 93 L 72 94 L 79 94 L 79 93 L 72 93 z M 87 93 L 87 94 L 94 94 L 94 93 L 87 93 z M 121 93 L 121 94 L 128 94 L 128 93 L 121 93 z M 137 93 L 137 94 L 144 94 L 144 93 L 137 93 z M 170 93 L 170 94 L 177 94 L 177 93 L 170 93 z M 202 93 L 202 94 L 209 94 L 209 93 L 202 93 z M 241 93 L 241 94 L 248 94 L 248 93 L 241 93 z M 28 94 L 28 95 L 35 95 L 35 94 L 28 94 z M 2 95 L 2 96 L 9 96 L 9 95 L 2 95 z M 16 95 L 16 96 L 23 96 L 23 95 L 16 95 z M 49 95 L 49 96 L 56 96 L 56 95 L 49 95 z M 192 95 L 192 96 L 199 96 L 199 95 L 192 95 z M 62 96 L 62 97 L 69 97 L 69 96 L 62 96 z M 212 96 L 212 97 L 219 97 L 219 96 L 212 96 z M 233 96 L 233 97 L 240 97 L 240 96 L 233 96 z M 79 97 L 79 98 L 86 98 L 86 97 L 79 97 z M 96 97 L 96 98 L 103 98 L 103 97 L 96 97 z M 110 97 L 110 98 L 117 98 L 117 97 L 110 97 z M 148 97 L 148 98 L 155 98 L 155 97 L 148 97 z M 180 97 L 180 98 L 187 98 L 187 97 L 180 97 z M 41 98 L 41 99 L 48 99 L 48 98 L 41 98 z M 168 98 L 168 99 L 175 99 L 175 98 L 168 98 z M 225 98 L 225 99 L 232 99 L 232 98 L 225 98 z M 31 99 L 31 100 L 38 100 L 38 99 L 31 99 z M 121 99 L 121 100 L 128 100 L 128 99 L 121 99 z M 136 99 L 136 100 L 143 100 L 143 99 L 136 99 z M 203 99 L 203 100 L 210 100 L 210 99 L 203 99 z M 0 100 L 0 101 L 4 101 L 4 100 L 0 100 z M 13 100 L 13 101 L 20 101 L 20 100 L 13 100 z M 71 100 L 71 101 L 78 101 L 78 100 L 71 100 z M 89 100 L 89 101 L 96 101 L 96 100 L 89 100 z M 158 100 L 158 101 L 165 101 L 165 100 L 158 100 z M 190 100 L 190 101 L 197 101 L 197 100 L 190 100 z M 240 100 L 240 101 L 247 101 L 247 100 L 240 100 z M 253 100 L 253 101 L 256 101 L 256 100 L 253 100 z M 105 101 L 105 102 L 112 102 L 112 101 L 105 101 z M 45 102 L 45 103 L 52 103 L 52 102 L 45 102 z M 128 102 L 128 103 L 135 103 L 135 102 L 128 102 z M 145 102 L 145 103 L 152 103 L 152 102 L 145 102 z M 222 102 L 222 103 L 229 103 L 229 102 L 222 102 z M 21 103 L 21 104 L 28 104 L 28 103 L 21 103 z M 59 103 L 59 104 L 66 104 L 66 103 L 59 103 z M 178 103 L 178 104 L 185 104 L 185 103 L 178 103 z M 4 104 L 4 105 L 11 105 L 11 104 L 4 104 z M 165 104 L 165 105 L 172 105 L 172 104 L 165 104 z M 196 104 L 196 105 L 203 105 L 203 104 L 196 104 z M 214 104 L 214 105 L 221 105 L 221 104 L 214 104 z M 234 104 L 234 105 L 241 105 L 241 104 L 234 104 z M 246 104 L 246 105 L 253 105 L 253 104 L 246 104 z M 71 105 L 71 106 L 78 106 L 78 105 L 71 105 z M 91 105 L 91 106 L 98 106 L 98 105 L 91 105 z M 31 106 L 31 107 L 38 107 L 38 106 L 31 106 z M 104 106 L 104 107 L 111 107 L 111 106 L 104 106 z M 119 106 L 119 107 L 126 107 L 126 106 L 119 106 z M 151 106 L 151 107 L 158 107 L 158 106 L 151 106 z M 207 106 L 207 107 L 214 107 L 214 106 L 207 106 z M 13 107 L 13 108 L 20 108 L 20 107 L 13 107 z M 41 107 L 41 108 L 48 108 L 48 107 L 41 107 z M 132 107 L 132 108 L 139 108 L 139 107 L 132 107 z M 184 107 L 184 108 L 191 108 L 191 107 L 184 107 z M 51 108 L 51 109 L 58 109 L 58 108 L 51 108 z M 62 108 L 62 109 L 69 109 L 69 108 L 62 108 z M 79 108 L 79 109 L 86 109 L 86 108 L 79 108 z M 227 108 L 227 109 L 234 109 L 234 108 L 227 108 z M 2 109 L 2 110 L 9 110 L 9 109 L 2 109 z M 22 109 L 22 110 L 29 110 L 29 109 L 22 109 z M 246 109 L 246 110 L 253 110 L 253 109 L 246 109 z M 89 110 L 89 111 L 96 111 L 96 110 L 89 110 z M 116 110 L 116 111 L 123 111 L 123 110 L 116 110 z M 137 110 L 137 111 L 144 111 L 144 110 L 137 110 z M 155 110 L 155 111 L 162 111 L 162 110 L 155 110 z M 168 110 L 168 111 L 175 111 L 175 110 L 168 110 z M 195 110 L 195 111 L 202 111 L 202 110 L 195 110 z M 215 110 L 215 111 L 222 111 L 222 110 L 215 110 z M 101 111 L 101 112 L 108 112 L 108 111 L 101 111 z M 179 111 L 179 112 L 186 112 L 186 111 L 179 111 z M 236 112 L 236 113 L 243 113 L 243 112 L 236 112 z M 13 113 L 13 114 L 20 114 L 20 113 L 13 113 z M 31 113 L 31 114 L 38 114 L 38 113 L 31 113 z M 45 113 L 45 114 L 52 114 L 52 113 L 45 113 z M 69 113 L 69 114 L 76 114 L 76 113 L 69 113 z M 128 113 L 128 114 L 135 114 L 135 113 L 128 113 z M 147 113 L 147 114 L 154 114 L 154 113 L 147 113 z M 204 113 L 204 114 L 211 114 L 211 113 L 204 113 z M 0 114 L 0 115 L 7 115 L 7 114 L 0 114 z M 81 114 L 81 115 L 88 115 L 88 114 L 81 114 z M 159 114 L 159 115 L 166 115 L 166 114 L 159 114 z M 188 114 L 188 115 L 195 115 L 195 114 L 188 114 z M 219 114 L 219 115 L 226 115 L 226 114 L 219 114 z M 105 115 L 105 116 L 112 116 L 112 115 L 105 115 z M 175 115 L 175 116 L 182 116 L 182 115 L 175 115 z M 21 116 L 21 117 L 28 117 L 28 116 L 21 116 z M 53 116 L 53 117 L 60 117 L 60 116 L 53 116 z M 120 116 L 120 117 L 127 117 L 127 116 L 120 116 z M 138 116 L 138 117 L 145 117 L 145 116 L 138 116 z M 62 117 L 62 118 L 69 118 L 69 117 L 62 117 z M 89 117 L 89 118 L 96 118 L 96 117 L 89 117 z M 226 117 L 226 118 L 233 118 L 233 117 L 226 117 z M 246 117 L 246 118 L 253 118 L 253 117 L 246 117 z M 10 118 L 10 119 L 17 119 L 17 118 L 10 118 z M 42 118 L 42 119 L 49 119 L 49 118 L 42 118 z M 74 118 L 74 119 L 81 119 L 81 118 L 74 118 z M 111 118 L 111 119 L 118 119 L 118 118 L 111 118 z M 164 118 L 164 119 L 171 119 L 171 118 L 164 118 z M 194 118 L 194 119 L 201 119 L 201 118 L 194 118 z M 207 118 L 207 119 L 214 119 L 214 118 L 207 118 z M 235 118 L 235 119 L 242 119 L 242 118 L 235 118 z M 98 119 L 98 120 L 105 120 L 105 119 L 98 119 z M 146 119 L 146 120 L 153 120 L 153 119 L 146 119 z M 30 120 L 30 121 L 37 121 L 37 120 L 30 120 z M 130 120 L 130 121 L 137 121 L 137 120 L 130 120 z M 218 120 L 218 121 L 225 121 L 225 120 L 218 120 z M 18 121 L 18 122 L 25 122 L 25 121 L 18 121 z M 50 121 L 50 122 L 57 122 L 57 121 L 50 121 z M 176 121 L 176 122 L 183 122 L 183 121 L 176 121 z M 2 122 L 2 123 L 9 123 L 9 122 L 2 122 z M 158 122 L 158 123 L 165 123 L 165 122 L 158 122 z M 187 122 L 187 123 L 194 123 L 194 122 L 187 122 z M 202 122 L 202 123 L 209 123 L 209 122 L 202 122 z M 65 123 L 65 124 L 72 124 L 72 123 L 65 123 z M 79 123 L 79 124 L 86 124 L 86 123 L 79 123 z M 122 123 L 122 124 L 129 124 L 129 123 L 122 123 z M 246 123 L 246 124 L 253 124 L 253 123 L 246 123 z M 34 124 L 34 125 L 41 125 L 41 124 L 34 124 z M 90 124 L 90 125 L 97 125 L 97 124 L 90 124 z M 109 124 L 109 125 L 116 125 L 116 124 L 109 124 z M 140 124 L 140 125 L 147 125 L 147 124 L 140 124 z M 234 124 L 234 125 L 241 125 L 241 124 L 234 124 z M 153 125 L 153 126 L 160 126 L 160 125 L 153 125 z M 170 125 L 170 126 L 177 126 L 177 125 L 170 125 z M 219 125 L 219 126 L 226 126 L 226 125 L 219 125 z M 10 126 L 10 127 L 17 127 L 17 126 L 10 126 z M 54 126 L 54 127 L 61 127 L 61 126 L 54 126 z M 99 126 L 99 127 L 106 127 L 106 126 L 99 126 z M 22 127 L 22 128 L 29 128 L 29 127 L 22 127 z M 40 127 L 40 128 L 47 128 L 47 127 L 40 127 z M 71 127 L 71 128 L 78 128 L 78 127 L 71 127 z M 133 127 L 133 128 L 140 128 L 140 127 L 133 127 z M 206 127 L 206 128 L 213 128 L 213 127 L 206 127 z M 2 128 L 2 129 L 9 129 L 9 128 L 2 128 z M 180 128 L 180 129 L 187 129 L 187 128 L 180 128 z M 192 128 L 192 129 L 199 129 L 199 128 L 192 128 z M 227 128 L 227 129 L 234 129 L 234 128 L 227 128 z M 245 128 L 245 129 L 252 129 L 252 128 L 245 128 z M 106 129 L 106 130 L 113 130 L 113 129 L 106 129 z M 122 129 L 122 130 L 129 130 L 129 129 L 122 129 z M 213 129 L 213 130 L 220 130 L 220 129 L 213 129 z M 30 130 L 30 131 L 37 131 L 37 130 L 30 130 z M 62 130 L 62 131 L 69 131 L 69 130 L 62 130 z M 76 130 L 76 131 L 83 131 L 83 130 L 76 130 z M 91 130 L 91 131 L 98 131 L 98 130 L 91 130 z M 138 130 L 138 131 L 145 131 L 145 130 L 138 130 z M 152 130 L 152 131 L 159 131 L 159 130 L 152 130 z M 167 130 L 167 131 L 174 131 L 174 130 L 167 130 z M 48 131 L 48 132 L 55 132 L 55 131 L 48 131 z M 199 131 L 199 132 L 206 132 L 206 131 L 199 131 z M 11 132 L 11 133 L 18 133 L 18 132 L 11 132 z M 117 132 L 117 133 L 124 133 L 124 132 L 117 132 z M 237 132 L 237 133 L 244 133 L 244 132 L 237 132 z M 0 133 L 0 134 L 3 134 L 3 133 L 0 133 z M 22 133 L 22 134 L 29 134 L 29 133 L 22 133 z M 177 133 L 177 134 L 184 134 L 184 133 L 177 133 z M 252 133 L 252 134 L 256 134 L 256 133 L 252 133 z M 84 134 L 84 135 L 91 135 L 91 134 L 84 134 z M 99 134 L 99 135 L 106 135 L 106 134 L 99 134 z M 162 134 L 162 135 L 169 135 L 169 134 L 162 134 z M 212 134 L 212 135 L 219 135 L 219 134 L 212 134 z M 227 134 L 227 135 L 234 135 L 234 134 L 227 134 z M 43 135 L 43 136 L 50 136 L 50 135 L 43 135 z M 59 135 L 59 136 L 66 136 L 66 135 L 59 135 z M 130 135 L 130 136 L 137 136 L 137 135 L 130 135 z M 144 135 L 144 136 L 151 136 L 151 135 L 144 135 z M 196 135 L 196 136 L 203 136 L 203 135 L 196 135 z M 116 136 L 116 137 L 123 137 L 123 136 L 116 136 z M 185 136 L 185 137 L 192 137 L 192 136 L 185 136 z M 0 137 L 0 138 L 2 138 L 2 137 L 0 137 z M 14 137 L 14 138 L 21 138 L 21 137 L 14 137 z M 31 137 L 31 138 L 38 138 L 38 137 L 31 137 z M 75 137 L 75 138 L 82 138 L 82 137 L 75 137 z M 155 137 L 155 138 L 162 138 L 162 137 L 155 137 z M 251 137 L 251 138 L 256 138 L 256 137 L 251 137 z M 63 138 L 63 139 L 70 139 L 70 138 L 63 138 z M 90 138 L 90 139 L 97 139 L 97 138 L 90 138 z M 106 138 L 106 139 L 113 139 L 113 138 L 106 138 z M 173 138 L 173 139 L 180 139 L 180 138 L 173 138 z M 203 138 L 203 139 L 210 139 L 210 138 L 203 138 z M 235 138 L 235 139 L 242 139 L 242 138 L 235 138 z M 128 139 L 128 140 L 135 140 L 135 139 L 128 139 z M 223 139 L 223 140 L 230 140 L 230 139 L 223 139 z M 39 140 L 39 141 L 46 141 L 46 140 L 39 140 z M 0 141 L 0 142 L 6 142 L 6 141 L 0 141 z M 11 141 L 11 142 L 18 142 L 18 141 L 11 141 z M 26 141 L 26 142 L 33 142 L 33 141 L 26 141 z M 82 141 L 82 142 L 89 142 L 89 141 L 82 141 z M 146 141 L 146 142 L 153 142 L 153 141 L 146 141 z M 160 141 L 160 142 L 167 142 L 167 141 L 160 141 z M 212 141 L 212 142 L 219 142 L 219 141 L 212 141 z M 242 141 L 242 142 L 249 142 L 249 141 L 242 141 z M 255 141 L 255 142 L 256 142 L 256 141 L 255 141 z M 46 142 L 46 143 L 53 143 L 53 142 L 46 142 z M 114 142 L 114 143 L 121 143 L 121 142 L 114 142 z M 184 142 L 184 143 L 191 143 L 191 142 L 184 142 z M 61 143 L 61 144 L 68 144 L 68 143 L 61 143 z M 74 143 L 74 144 L 81 144 L 81 143 L 74 143 z M 95 143 L 95 144 L 102 144 L 102 143 L 95 143 z M 138 143 L 138 144 L 145 144 L 145 143 L 138 143 z M 171 143 L 171 144 L 178 144 L 178 143 L 171 143 z M 127 144 L 127 145 L 134 145 L 134 144 L 127 144 z M 204 144 L 204 145 L 211 145 L 211 144 L 204 144 z M 222 144 L 222 145 L 229 145 L 229 144 L 222 144 z M 50 145 L 50 146 L 57 146 L 57 145 L 50 145 z M 106 145 L 106 146 L 113 146 L 113 145 L 106 145 z M 190 145 L 190 146 L 197 146 L 197 145 L 190 145 z M 238 145 L 238 146 L 245 146 L 245 145 L 238 145 z M 0 146 L 0 147 L 6 147 L 6 146 L 0 146 z M 14 146 L 14 147 L 21 147 L 21 146 L 14 146 z M 255 146 L 255 147 L 256 147 L 256 146 L 255 146 z M 23 147 L 23 148 L 30 148 L 30 147 L 23 147 z M 39 147 L 39 148 L 46 148 L 46 147 L 39 147 z M 150 147 L 150 148 L 157 148 L 157 147 L 150 147 z M 164 147 L 164 148 L 171 148 L 171 147 L 164 147 z M 178 147 L 178 148 L 185 148 L 185 147 L 178 147 z M 68 148 L 68 149 L 75 149 L 75 148 L 68 148 z M 84 148 L 84 149 L 91 149 L 91 148 L 84 148 z M 98 148 L 98 149 L 105 149 L 105 148 L 98 148 z M 116 148 L 116 149 L 123 149 L 123 148 L 116 148 z M 212 148 L 212 149 L 219 149 L 219 148 L 212 148 z M 227 148 L 227 149 L 234 149 L 234 148 L 227 148 z M 54 149 L 54 150 L 61 150 L 61 149 L 54 149 z M 129 149 L 129 150 L 136 150 L 136 149 L 129 149 z M 141 149 L 141 150 L 148 150 L 148 149 L 141 149 z M 197 149 L 197 150 L 204 150 L 204 149 L 197 149 z M 245 149 L 245 150 L 252 150 L 252 149 L 245 149 z M 8 150 L 8 151 L 15 151 L 15 150 L 8 150 z M 31 150 L 31 151 L 38 151 L 38 150 L 31 150 z M 77 151 L 77 152 L 84 152 L 84 151 L 77 151 z M 107 151 L 107 152 L 114 152 L 114 151 L 107 151 z M 160 151 L 160 152 L 167 152 L 167 151 L 160 151 z M 187 151 L 187 152 L 194 152 L 194 151 L 187 151 z M 61 152 L 61 153 L 68 153 L 68 152 L 61 152 z M 173 152 L 173 153 L 180 153 L 180 152 L 173 152 z M 205 152 L 205 153 L 212 153 L 212 152 L 205 152 z M 219 152 L 219 153 L 226 153 L 226 152 L 219 152 z M 236 152 L 236 153 L 243 153 L 243 152 L 236 152 z M 0 153 L 0 154 L 1 154 L 1 153 L 0 153 z M 121 153 L 121 154 L 128 154 L 128 153 L 121 153 z M 151 153 L 151 154 L 158 154 L 158 153 L 151 153 z M 250 153 L 250 154 L 256 154 L 256 153 L 250 153 z M 25 154 L 25 155 L 32 155 L 32 154 L 25 154 z M 39 154 L 39 155 L 46 155 L 46 154 L 39 154 z M 96 154 L 96 155 L 103 155 L 103 154 L 96 154 z M 7 155 L 7 156 L 14 156 L 14 155 L 7 155 z M 82 155 L 82 156 L 89 156 L 89 155 L 82 155 z M 111 155 L 111 156 L 118 156 L 118 155 L 111 155 z M 230 155 L 230 156 L 237 156 L 237 155 L 230 155 z M 48 156 L 48 157 L 55 157 L 55 156 L 48 156 z M 127 156 L 127 157 L 134 157 L 134 156 L 127 156 z M 143 156 L 143 157 L 150 157 L 150 156 L 143 156 z M 167 156 L 167 157 L 174 157 L 174 156 L 167 156 z M 182 156 L 182 157 L 189 157 L 189 156 L 182 156 z M 198 156 L 198 157 L 205 157 L 205 156 L 198 156 z M 17 157 L 17 158 L 24 158 L 24 157 L 17 157 z M 61 157 L 61 158 L 68 158 L 68 157 L 61 157 z M 73 157 L 73 158 L 80 158 L 80 157 L 73 157 z M 216 157 L 216 158 L 223 158 L 223 157 L 216 157 z M 0 158 L 0 159 L 6 159 L 6 158 L 0 158 z M 33 158 L 33 159 L 40 159 L 40 158 L 33 158 z M 89 158 L 89 159 L 96 159 L 96 158 L 89 158 z M 155 158 L 155 159 L 162 159 L 162 158 L 155 158 z M 241 158 L 241 159 L 248 159 L 248 158 L 241 158 z M 255 158 L 255 159 L 256 159 L 256 158 L 255 158 z M 104 159 L 104 160 L 111 160 L 111 159 L 104 159 z M 136 159 L 136 160 L 143 160 L 143 159 L 136 159 z M 207 159 L 207 160 L 214 160 L 214 159 L 207 159 z M 10 160 L 10 161 L 17 161 L 17 160 L 10 160 z M 177 160 L 177 161 L 184 161 L 184 160 L 177 160 z M 190 160 L 190 161 L 197 161 L 197 160 L 190 160 z M 223 160 L 223 161 L 230 161 L 230 160 L 223 160 z M 55 161 L 55 162 L 62 162 L 62 161 L 55 161 z M 23 162 L 23 163 L 30 163 L 30 162 L 23 162 z M 43 162 L 43 163 L 50 163 L 50 162 L 43 162 z M 82 162 L 82 163 L 89 163 L 89 162 L 82 162 z M 97 162 L 97 163 L 104 163 L 104 162 L 97 162 z M 113 162 L 113 163 L 120 163 L 120 162 L 113 162 z M 125 162 L 125 163 L 132 163 L 132 162 L 125 162 z M 163 162 L 163 163 L 170 163 L 170 162 L 163 162 z M 233 162 L 233 163 L 240 163 L 240 162 L 233 162 z M 249 162 L 249 163 L 256 163 L 256 162 L 249 162 z M 145 163 L 145 164 L 152 164 L 152 163 L 145 163 z M 72 164 L 72 165 L 79 165 L 79 164 L 72 164 z M 199 164 L 199 165 L 206 165 L 206 164 L 199 164 z M 0 165 L 0 166 L 7 166 L 7 165 L 0 165 z M 31 165 L 31 166 L 38 166 L 38 165 L 31 165 z M 62 165 L 62 166 L 69 166 L 69 165 L 62 165 z M 134 165 L 134 166 L 141 166 L 141 165 L 134 165 z M 156 165 L 156 166 L 163 166 L 163 165 L 156 165 z M 171 165 L 171 166 L 178 166 L 178 165 L 171 165 z M 186 165 L 186 166 L 193 166 L 193 165 L 186 165 z M 209 165 L 209 166 L 216 166 L 216 165 L 209 165 z M 13 166 L 13 167 L 20 167 L 20 166 L 13 166 z M 89 166 L 89 167 L 96 167 L 96 166 L 89 166 z M 221 166 L 221 167 L 228 167 L 228 166 L 221 166 z M 238 166 L 238 167 L 245 167 L 245 166 L 238 166 z M 52 167 L 52 168 L 59 168 L 59 167 L 52 167 z M 101 167 L 101 168 L 108 168 L 108 167 L 101 167 z M 123 167 L 123 168 L 130 168 L 130 167 L 123 167 z M 40 168 L 40 169 L 47 169 L 47 168 L 40 168 z M 112 168 L 112 169 L 119 169 L 119 168 L 112 168 z M 146 168 L 146 169 L 153 169 L 153 168 L 146 168 z M 23 169 L 23 170 L 30 170 L 30 169 L 23 169 z M 189 169 L 189 170 L 196 170 L 196 169 L 189 169 z M 248 169 L 248 170 L 255 170 L 255 169 L 248 169 z M 9 170 L 9 171 L 16 171 L 16 170 L 9 170 z M 69 170 L 69 171 L 76 171 L 76 170 L 69 170 z M 167 170 L 167 171 L 174 171 L 174 170 L 167 170 z M 200 170 L 200 171 L 207 171 L 207 170 L 200 170 z M 228 170 L 228 171 L 235 171 L 235 170 L 228 170 z M 90 171 L 90 172 L 97 172 L 97 171 L 90 171 z M 138 171 L 138 172 L 145 172 L 145 171 L 138 171 z M 218 171 L 218 172 L 225 172 L 225 171 L 218 171 z M 32 172 L 32 173 L 39 173 L 39 172 L 32 172 z M 46 172 L 46 173 L 53 173 L 53 172 L 46 172 z M 78 172 L 78 173 L 85 173 L 85 172 L 78 172 z M 124 172 L 124 173 L 131 173 L 131 172 L 124 172 z M 156 172 L 156 173 L 163 173 L 163 172 L 156 172 z M 184 172 L 184 173 L 191 173 L 191 172 L 184 172 z M 240 172 L 240 173 L 247 173 L 247 172 L 240 172 z M 1 173 L 1 174 L 8 174 L 8 173 L 1 173 z M 62 173 L 62 174 L 69 174 L 69 173 L 62 173 z M 108 173 L 108 174 L 115 174 L 115 173 L 108 173 z M 173 173 L 173 174 L 180 174 L 180 173 L 173 173 z M 208 173 L 208 174 L 215 174 L 215 173 L 208 173 z M 19 174 L 19 175 L 26 175 L 26 174 L 19 174 z M 54 175 L 54 176 L 61 176 L 61 175 L 54 175 z M 99 175 L 99 176 L 106 176 L 106 175 L 99 175 z M 117 175 L 117 176 L 124 176 L 124 175 L 117 175 z M 148 175 L 148 176 L 155 176 L 155 175 L 148 175 z M 231 175 L 231 176 L 238 176 L 238 175 L 231 175 z M 38 176 L 38 177 L 45 177 L 45 176 L 38 176 z M 86 176 L 86 177 L 93 177 L 93 176 L 86 176 z M 133 176 L 133 177 L 140 177 L 140 176 L 133 176 z M 248 176 L 248 177 L 255 177 L 255 176 L 248 176 z M 167 177 L 167 178 L 174 178 L 174 177 L 167 177 z M 186 177 L 186 178 L 193 178 L 193 177 L 186 177 z M 201 177 L 201 178 L 208 178 L 208 177 L 201 177 z M 217 177 L 217 178 L 224 178 L 224 177 L 217 177 z M 16 178 L 16 179 L 23 179 L 23 178 L 16 178 z M 75 178 L 75 179 L 82 179 L 82 178 L 75 178 z M 0 179 L 0 180 L 7 180 L 7 179 L 0 179 z M 31 179 L 31 180 L 38 180 L 38 179 L 31 179 z M 61 179 L 61 180 L 68 180 L 68 179 L 61 179 z M 94 179 L 94 180 L 101 180 L 101 179 L 94 179 z M 139 179 L 139 180 L 146 180 L 146 179 L 139 179 z M 156 179 L 156 180 L 163 180 L 163 179 L 156 179 z M 179 179 L 179 180 L 186 180 L 186 179 L 179 179 z M 47 180 L 47 181 L 54 181 L 54 180 L 47 180 z M 108 180 L 108 181 L 115 181 L 115 180 L 108 180 z M 126 180 L 126 181 L 133 181 L 133 180 L 126 180 z M 193 180 L 193 181 L 200 181 L 200 180 L 193 180 z M 224 180 L 224 181 L 231 181 L 231 180 L 224 180 z M 240 180 L 240 181 L 247 181 L 247 180 L 240 180 z M 208 181 L 208 182 L 215 182 L 215 181 L 208 181 z M 69 182 L 69 183 L 76 183 L 76 182 L 69 182 z M 9 183 L 9 184 L 16 184 L 16 183 L 9 183 z M 25 183 L 25 184 L 32 184 L 32 183 L 25 183 z M 85 183 L 85 184 L 92 184 L 92 183 L 85 183 z M 117 183 L 117 184 L 124 184 L 124 183 L 117 183 z M 148 183 L 148 184 L 155 184 L 155 183 L 148 183 z M 171 183 L 171 184 L 178 184 L 178 183 L 171 183 z M 233 184 L 233 185 L 240 185 L 240 184 L 233 184 z M 0 185 L 0 186 L 6 186 L 6 185 L 0 185 z M 46 185 L 46 186 L 53 186 L 53 185 L 46 185 z M 94 185 L 94 186 L 101 186 L 101 185 L 94 185 z M 138 185 L 138 186 L 145 186 L 145 185 L 138 185 z M 162 185 L 162 186 L 169 186 L 169 185 L 162 185 z M 194 185 L 194 186 L 201 186 L 201 185 L 194 185 z M 222 185 L 222 186 L 229 186 L 229 185 L 222 185 z M 242 185 L 242 186 L 249 186 L 249 185 L 242 185 z M 255 185 L 255 186 L 256 186 L 256 185 L 255 185 z M 32 186 L 32 187 L 39 187 L 39 186 L 32 186 z M 62 186 L 62 187 L 69 187 L 69 186 L 62 186 z M 78 186 L 78 187 L 85 187 L 85 186 L 78 186 z M 110 186 L 110 187 L 117 187 L 117 186 L 110 186 z M 179 186 L 179 187 L 186 187 L 186 186 L 179 186 z M 210 186 L 210 187 L 217 187 L 217 186 L 210 186 z M 17 187 L 17 188 L 24 188 L 24 187 L 17 187 z M 150 188 L 150 189 L 157 189 L 157 188 L 150 188 z M 54 189 L 54 190 L 61 190 L 61 189 L 54 189 z M 71 189 L 71 190 L 78 190 L 78 189 L 71 189 z M 102 189 L 102 190 L 109 190 L 109 189 L 102 189 z M 118 189 L 118 190 L 125 190 L 125 189 L 118 189 z M 132 189 L 132 190 L 139 190 L 139 189 L 132 189 z M 200 189 L 200 190 L 207 190 L 207 189 L 200 189 z M 247 189 L 247 190 L 254 190 L 254 189 L 247 189 z M 7 190 L 7 191 L 14 191 L 14 190 L 7 190 z M 39 190 L 39 191 L 46 191 L 46 190 L 39 190 z M 169 190 L 169 191 L 176 191 L 176 190 L 169 190 z M 185 190 L 185 191 L 192 191 L 192 190 L 185 190 z M 216 190 L 216 191 L 223 191 L 223 190 L 216 190 z M 232 190 L 232 191 L 239 191 L 239 190 L 232 190 z M 28 191 L 28 192 L 35 192 L 35 191 L 28 191 z M 91 191 L 91 192 L 98 192 L 98 191 L 91 191 z M 15 192 L 15 193 L 22 193 L 22 192 L 15 192 z M 79 192 L 79 193 L 86 193 L 86 192 L 79 192 z M 123 192 L 123 193 L 130 193 L 130 192 L 123 192 z M 142 192 L 142 193 L 149 193 L 149 192 L 142 192 z M 157 192 L 157 193 L 164 193 L 164 192 L 157 192 z M 0 193 L 0 194 L 7 194 L 7 193 L 0 193 z M 45 193 L 45 194 L 52 194 L 52 193 L 45 193 z M 62 193 L 62 194 L 69 194 L 69 193 L 62 193 z M 176 193 L 176 194 L 183 194 L 183 193 L 176 193 z M 208 193 L 208 194 L 215 194 L 215 193 L 208 193 z M 103 194 L 103 195 L 110 195 L 110 194 L 103 194 z M 192 194 L 192 195 L 199 195 L 199 194 L 192 194 z M 224 194 L 224 195 L 231 195 L 231 194 L 224 194 z M 240 194 L 240 195 L 247 195 L 247 194 L 240 194 z M 133 195 L 133 196 L 140 196 L 140 195 L 133 195 z M 27 196 L 27 197 L 34 197 L 34 196 L 27 196 z M 54 196 L 54 197 L 61 197 L 61 196 L 54 196 z M 72 196 L 72 197 L 79 197 L 79 196 L 72 196 z M 146 196 L 146 197 L 153 197 L 153 196 L 146 196 z M 165 196 L 165 197 L 172 197 L 172 196 L 165 196 z M 249 196 L 249 197 L 256 197 L 256 196 L 249 196 z M 15 197 L 15 198 L 22 198 L 22 197 L 15 197 z M 85 197 L 85 198 L 92 198 L 92 197 L 85 197 z M 109 197 L 109 198 L 116 198 L 116 197 L 109 197 z M 186 197 L 186 198 L 193 198 L 193 197 L 186 197 z M 218 197 L 218 198 L 225 198 L 225 197 L 218 197 z M 127 198 L 127 199 L 134 199 L 134 198 L 127 198 z M 156 198 L 156 199 L 163 199 L 163 198 L 156 198 z M 201 198 L 201 199 L 208 199 L 208 198 L 201 198 z M 234 198 L 234 199 L 241 199 L 241 198 L 234 198 z M 32 199 L 32 200 L 39 200 L 39 199 L 32 199 z M 63 199 L 63 200 L 70 200 L 70 199 L 63 199 z M 95 199 L 95 200 L 102 200 L 102 199 L 95 199 z M 116 199 L 116 200 L 123 200 L 123 199 L 116 199 z M 45 200 L 45 201 L 52 201 L 52 200 L 45 200 z M 177 200 L 177 201 L 184 201 L 184 200 L 177 200 z M 3 201 L 3 202 L 10 202 L 10 201 L 3 201 z M 146 201 L 146 202 L 153 202 L 153 201 L 146 201 z M 212 201 L 212 202 L 219 202 L 219 201 L 212 201 z M 248 201 L 248 202 L 255 202 L 255 201 L 248 201 z M 21 202 L 21 203 L 28 203 L 28 202 L 21 202 z M 73 202 L 73 203 L 80 203 L 80 202 L 73 202 z M 89 202 L 89 203 L 96 203 L 96 202 L 89 202 z M 163 202 L 163 203 L 170 203 L 170 202 L 163 202 z M 194 202 L 194 203 L 201 203 L 201 202 L 194 202 z M 226 202 L 226 203 L 233 203 L 233 202 L 226 202 z M 55 203 L 55 204 L 62 204 L 62 203 L 55 203 z M 136 203 L 136 204 L 143 204 L 143 203 L 136 203 z M 9 204 L 9 205 L 16 205 L 16 204 L 9 204 z M 43 204 L 43 205 L 50 205 L 50 204 L 43 204 z M 104 204 L 104 205 L 111 205 L 111 204 L 104 204 z M 118 204 L 118 205 L 125 205 L 125 204 L 118 204 z M 203 204 L 203 205 L 210 205 L 210 204 L 203 204 z M 29 205 L 29 206 L 36 206 L 36 205 L 29 205 z M 82 205 L 82 206 L 89 206 L 89 205 L 82 205 z M 170 205 L 170 206 L 177 206 L 177 205 L 170 205 z M 184 205 L 184 206 L 191 206 L 191 205 L 184 205 z M 217 205 L 217 206 L 224 206 L 224 205 L 217 205 z M 234 205 L 234 206 L 241 206 L 241 205 L 234 205 z M 125 206 L 125 207 L 132 207 L 132 206 L 125 206 z M 152 206 L 152 207 L 159 207 L 159 206 L 152 206 z M 246 206 L 246 207 L 253 207 L 253 206 L 246 206 z M 18 207 L 18 208 L 25 208 L 25 207 L 18 207 z M 61 207 L 61 208 L 68 208 L 68 207 L 61 207 z M 96 207 L 96 208 L 103 208 L 103 207 L 96 207 z M 192 208 L 192 209 L 199 209 L 199 208 L 192 208 z M 5 209 L 5 210 L 12 210 L 12 209 L 5 209 z M 38 209 L 38 210 L 45 210 L 45 209 L 38 209 z M 72 209 L 72 210 L 79 210 L 79 209 L 72 209 z M 135 209 L 135 210 L 142 210 L 142 209 L 135 209 z M 161 209 L 161 210 L 168 210 L 168 209 L 161 209 z M 176 209 L 176 210 L 183 210 L 183 209 L 176 209 z M 53 210 L 53 211 L 60 211 L 60 210 L 53 210 z M 89 210 L 89 211 L 96 211 L 96 210 L 89 210 z M 104 210 L 104 211 L 111 211 L 111 210 L 104 210 z M 121 210 L 121 211 L 128 211 L 128 210 L 121 210 z M 146 210 L 146 211 L 153 211 L 153 210 L 146 210 z M 207 210 L 207 211 L 214 211 L 214 210 L 207 210 z M 221 210 L 221 211 L 228 211 L 228 210 L 221 210 z M 0 211 L 0 212 L 1 212 L 1 211 L 0 211 z M 26 211 L 26 212 L 33 212 L 33 211 L 26 211 z M 237 211 L 237 212 L 244 212 L 244 211 L 237 211 z M 250 211 L 250 212 L 256 212 L 256 211 L 250 211 z M 65 213 L 65 214 L 72 214 L 72 213 L 65 213 z M 114 213 L 114 214 L 121 214 L 121 213 L 114 213 z M 167 213 L 167 214 L 174 214 L 174 213 L 167 213 z M 183 213 L 183 214 L 190 214 L 190 213 L 183 213 z M 197 213 L 197 214 L 204 214 L 204 213 L 197 213 z M 229 213 L 229 214 L 236 214 L 236 213 L 229 213 z M 3 214 L 3 215 L 10 215 L 10 214 L 3 214 z M 15 214 L 15 215 L 22 215 L 22 214 L 15 214 z M 44 214 L 44 215 L 51 215 L 51 214 L 44 214 z M 130 214 L 130 215 L 137 215 L 137 214 L 130 214 z M 74 215 L 74 216 L 81 216 L 81 215 L 74 215 z M 86 215 L 86 216 L 93 216 L 93 215 L 86 215 z M 147 215 L 147 216 L 154 216 L 154 215 L 147 215 z M 158 215 L 158 216 L 165 216 L 165 215 L 158 215 z M 207 215 L 207 216 L 214 216 L 214 215 L 207 215 z M 31 216 L 31 217 L 38 217 L 38 216 L 31 216 z M 56 216 L 56 217 L 63 217 L 63 216 L 56 216 z M 95 216 L 95 217 L 102 217 L 102 216 L 95 216 z M 219 216 L 219 217 L 226 217 L 226 216 L 219 216 z M 0 217 L 0 218 L 2 218 L 2 217 L 0 217 z M 106 217 L 106 218 L 113 218 L 113 217 L 106 217 z M 137 217 L 137 218 L 144 218 L 144 217 L 137 217 z M 236 217 L 236 218 L 243 218 L 243 217 L 236 217 z M 251 217 L 251 218 L 256 218 L 256 217 L 251 217 z M 19 218 L 19 219 L 26 219 L 26 218 L 19 218 z M 40 218 L 40 219 L 47 219 L 47 218 L 40 218 z M 118 218 L 118 219 L 125 219 L 125 218 L 118 218 z M 168 218 L 168 219 L 175 219 L 175 218 L 168 218 z M 199 218 L 199 219 L 206 219 L 206 218 L 199 218 z M 80 219 L 80 220 L 87 220 L 87 219 L 80 219 z M 185 219 L 185 220 L 192 220 L 192 219 L 185 219 z M 65 220 L 65 221 L 72 221 L 72 220 L 65 220 z M 213 220 L 213 221 L 220 221 L 220 220 L 213 220 z M 243 220 L 243 221 L 250 221 L 250 220 L 243 220 z M 9 221 L 9 222 L 16 222 L 16 221 L 9 221 z M 52 221 L 52 222 L 59 222 L 59 221 L 52 221 z M 129 221 L 129 222 L 136 222 L 136 221 L 129 221 z M 177 221 L 177 222 L 184 222 L 184 221 L 177 221 z M 228 221 L 228 222 L 235 222 L 235 221 L 228 221 z M 30 222 L 30 223 L 37 223 L 37 222 L 30 222 z M 92 222 L 92 223 L 99 223 L 99 222 L 92 222 z M 107 222 L 107 223 L 114 223 L 114 222 L 107 222 z M 148 222 L 148 223 L 155 223 L 155 222 L 148 222 z M 161 222 L 161 223 L 168 223 L 168 222 L 161 222 z M 192 222 L 192 223 L 199 223 L 199 222 L 192 222 z M 0 223 L 0 224 L 5 224 L 5 223 L 0 223 z M 76 223 L 76 224 L 83 224 L 83 223 L 76 223 z M 138 223 L 138 224 L 145 224 L 145 223 L 138 223 z M 254 223 L 254 224 L 256 224 L 256 223 L 254 223 z M 17 224 L 17 225 L 24 225 L 24 224 L 17 224 z M 45 224 L 45 225 L 52 225 L 52 224 L 45 224 z M 122 224 L 122 225 L 129 225 L 129 224 L 122 224 z M 207 224 L 207 225 L 214 225 L 214 224 L 207 224 z M 222 224 L 222 225 L 229 225 L 229 224 L 222 224 z M 100 225 L 100 226 L 107 226 L 107 225 L 100 225 z M 242 225 L 242 226 L 249 226 L 249 225 L 242 225 z M 69 226 L 69 227 L 76 227 L 76 226 L 69 226 z M 157 226 L 157 227 L 164 227 L 164 226 L 157 226 z M 6 227 L 6 228 L 13 228 L 13 227 L 6 227 z M 57 227 L 57 228 L 64 228 L 64 227 L 57 227 z M 114 227 L 114 228 L 121 228 L 121 227 L 114 227 z M 168 227 L 168 228 L 175 228 L 175 227 L 168 227 z M 179 227 L 179 228 L 186 228 L 186 227 L 179 227 z M 197 227 L 197 228 L 204 228 L 204 227 L 197 227 z M 230 227 L 230 228 L 237 228 L 237 227 L 230 227 z M 26 228 L 26 229 L 33 229 L 33 228 L 26 228 z M 38 228 L 38 229 L 45 229 L 45 228 L 38 228 z M 91 228 L 91 229 L 98 229 L 98 228 L 91 228 z M 128 228 L 128 229 L 135 229 L 135 228 L 128 228 z M 145 228 L 145 229 L 152 229 L 152 228 L 145 228 z M 0 229 L 0 230 L 4 230 L 4 229 L 0 229 z M 47 229 L 47 230 L 54 230 L 54 229 L 47 229 z M 79 229 L 79 230 L 86 230 L 86 229 L 79 229 z M 188 229 L 188 230 L 195 230 L 195 229 L 188 229 z M 253 229 L 253 230 L 256 230 L 256 229 L 253 229 z M 16 230 L 16 231 L 23 231 L 23 230 L 16 230 z M 204 230 L 204 231 L 211 231 L 211 230 L 204 230 z M 219 230 L 219 231 L 226 231 L 226 230 L 219 230 z M 239 230 L 239 231 L 246 231 L 246 230 L 239 230 z M 103 231 L 103 232 L 110 232 L 110 231 L 103 231 z M 137 231 L 137 232 L 144 232 L 144 231 L 137 231 z M 155 231 L 155 232 L 162 232 L 162 231 L 155 231 z M 68 232 L 68 233 L 75 233 L 75 232 L 68 232 z M 118 232 L 118 233 L 125 233 L 125 232 L 118 232 z M 86 233 L 86 234 L 93 234 L 93 233 L 86 233 z M 165 233 L 165 234 L 172 234 L 172 233 L 165 233 z M 185 233 L 185 234 L 192 234 L 192 233 L 185 233 z M 212 233 L 212 234 L 219 234 L 219 233 L 212 233 z M 9 234 L 9 235 L 16 235 L 16 234 L 9 234 z M 25 234 L 25 235 L 32 235 L 32 234 L 25 234 z M 40 234 L 40 235 L 47 235 L 47 234 L 40 234 z M 56 234 L 56 235 L 63 235 L 63 234 L 56 234 z M 175 234 L 175 235 L 182 235 L 182 234 L 175 234 z M 233 234 L 233 235 L 240 235 L 240 234 L 233 234 z M 249 234 L 249 235 L 256 235 L 256 234 L 249 234 z M 94 235 L 94 236 L 101 236 L 101 235 L 94 235 z M 129 235 L 129 236 L 136 236 L 136 235 L 129 235 z M 143 235 L 143 236 L 150 236 L 150 235 L 143 235 z M 63 236 L 63 237 L 70 237 L 70 236 L 63 236 z M 108 236 L 108 237 L 115 237 L 115 236 L 108 236 z M 192 236 L 192 237 L 199 237 L 199 236 L 192 236 z M 223 236 L 223 237 L 230 237 L 230 236 L 223 236 z M 1 237 L 1 238 L 8 238 L 8 237 L 1 237 z M 33 237 L 33 238 L 40 238 L 40 237 L 33 237 z M 79 237 L 79 238 L 86 238 L 86 237 L 79 237 z M 155 237 L 155 238 L 162 238 L 162 237 L 155 237 z M 17 238 L 17 239 L 24 239 L 24 238 L 17 238 z M 49 238 L 49 239 L 56 239 L 56 238 L 49 238 z M 119 238 L 119 239 L 126 239 L 126 238 L 119 238 z M 203 238 L 203 239 L 210 239 L 210 238 L 203 238 z M 241 238 L 241 239 L 248 239 L 248 238 L 241 238 z M 100 239 L 100 240 L 107 240 L 107 239 L 100 239 z M 183 239 L 183 240 L 190 240 L 190 239 L 183 239 z M 215 239 L 215 240 L 222 240 L 222 239 L 215 239 z M 69 240 L 69 241 L 76 241 L 76 240 L 69 240 z M 132 240 L 132 241 L 139 241 L 139 240 L 132 240 z M 164 240 L 164 241 L 171 241 L 171 240 L 164 240 z M 25 241 L 25 242 L 32 242 L 32 241 L 25 241 z M 40 241 L 40 242 L 47 242 L 47 241 L 40 241 z M 226 241 L 226 242 L 233 242 L 233 241 L 226 241 z M 249 241 L 249 242 L 256 242 L 256 241 L 249 241 z M 76 242 L 76 243 L 83 243 L 83 242 L 76 242 z M 90 242 L 90 243 L 97 243 L 97 242 L 90 242 z M 153 242 L 153 243 L 160 243 L 160 242 L 153 242 z M 175 242 L 175 243 L 182 243 L 182 242 L 175 242 z M 109 243 L 109 244 L 116 244 L 116 243 L 109 243 z M 122 243 L 122 244 L 129 244 L 129 243 L 122 243 z M 142 243 L 142 244 L 149 244 L 149 243 L 142 243 z M 191 243 L 191 244 L 198 244 L 198 243 L 191 243 z M 209 243 L 209 244 L 216 244 L 216 243 L 209 243 z M 2 244 L 2 245 L 9 245 L 9 244 L 2 244 z M 16 244 L 16 245 L 23 245 L 23 244 L 16 244 z M 50 244 L 50 245 L 57 245 L 57 244 L 50 244 z M 242 244 L 242 245 L 249 245 L 249 244 L 242 244 z M 33 245 L 33 246 L 40 246 L 40 245 L 33 245 z M 64 245 L 64 246 L 71 246 L 71 245 L 64 245 z M 99 245 L 99 246 L 106 246 L 106 245 L 99 245 z M 131 245 L 131 246 L 138 246 L 138 245 L 131 245 z M 201 245 L 201 246 L 208 246 L 208 245 L 201 245 z M 232 245 L 232 246 L 239 246 L 239 245 L 232 245 z M 170 246 L 170 247 L 177 247 L 177 246 L 170 246 z M 219 246 L 219 247 L 226 247 L 226 246 L 219 246 z M 79 247 L 79 248 L 86 248 L 86 247 L 79 247 z M 160 247 L 160 248 L 167 248 L 167 247 L 160 247 z M 3 248 L 3 249 L 10 249 L 10 248 L 3 248 z M 24 248 L 24 249 L 31 249 L 31 248 L 24 248 z M 44 248 L 44 249 L 51 249 L 51 248 L 44 248 z M 57 248 L 57 249 L 64 249 L 64 248 L 57 248 z M 107 248 L 107 249 L 114 249 L 114 248 L 107 248 z M 181 248 L 181 249 L 188 249 L 188 248 L 181 248 z M 91 249 L 91 250 L 98 250 L 98 249 L 91 249 z M 123 249 L 123 250 L 130 250 L 130 249 L 123 249 z M 139 249 L 139 250 L 146 250 L 146 249 L 139 249 z M 151 249 L 151 250 L 158 250 L 158 249 L 151 249 z M 194 249 L 194 250 L 201 250 L 201 249 L 194 249 z M 14 250 L 14 251 L 21 251 L 21 250 L 14 250 z M 229 250 L 229 251 L 236 251 L 236 250 L 229 250 z M 243 250 L 243 251 L 250 251 L 250 250 L 243 250 z M 65 251 L 65 252 L 72 252 L 72 251 L 65 251 z M 81 251 L 81 252 L 88 252 L 88 251 L 81 251 z M 113 251 L 113 252 L 120 252 L 120 251 L 113 251 z M 204 251 L 204 252 L 211 252 L 211 251 L 204 251 z M 34 252 L 34 253 L 41 253 L 41 252 L 34 252 z M 187 252 L 187 253 L 194 253 L 194 252 L 187 252 z M 218 252 L 218 253 L 225 253 L 225 252 L 218 252 z M 2 253 L 2 254 L 9 254 L 9 253 L 2 253 z M 51 253 L 51 254 L 58 254 L 58 253 L 51 253 z M 98 253 L 98 254 L 105 254 L 105 253 L 98 253 z M 130 253 L 130 254 L 137 254 L 137 253 L 130 253 z M 170 253 L 170 254 L 177 254 L 177 253 L 170 253 z M 74 254 L 74 255 L 81 255 L 81 254 L 74 254 z M 147 254 L 147 255 L 154 255 L 154 254 L 147 254 z M 159 254 L 159 255 L 166 255 L 166 254 L 159 254 z M 233 254 L 233 255 L 240 255 L 240 254 L 233 254 z M 23 255 L 23 256 L 30 256 L 30 255 L 23 255 z M 104 255 L 104 256 L 111 256 L 111 255 L 104 255 z M 178 255 L 178 256 L 185 256 L 185 255 L 178 255 z M 210 255 L 210 256 L 217 256 L 217 255 L 210 255 z M 249 255 L 249 256 L 256 256 L 256 255 L 249 255 z "
     style="fill:#4aa5fa;fill-opacity:1" />
</svg>
