<?xml version="1.0" encoding="utf-8"?>
<!-- Generator: Adobe Illustrator 14.0.0, SVG Export Plug-In . SVG Version: 6.00 Build 43363)  -->
<!DOCTYPE svg PUBLIC "-//W3C//DTD SVG 1.1//EN" "http://www.w3.org/Graphics/SVG/1.1/DTD/svg11.dtd">
<svg version="1.1"
	 id="svg2" xmlns:rdf="http://www.w3.org/1999/02/22-rdf-syntax-ns#" xmlns:cc="http://web.resource.org/cc/" xmlns:dc="http://purl.org/dc/elements/1.1/" inkscape:version="0.43" xmlns:inkscape="http://www.inkscape.org/namespaces/inkscape" xmlns:sodipodi="http://inkscape.sourceforge.net/DTD/sodipodi-0.dtd" xmlns:svg="http://www.w3.org/2000/svg" sodipodi:docname="Aiga_stairs.svg" sodipodi:docbase="C:\Documents and Settings\Owner\Desktop\SVG" sodipodi:version="0.32"
	 xmlns="http://www.w3.org/2000/svg" xmlns:xlink="http://www.w3.org/1999/xlink" x="0px" y="0px" width="443px" height="367px"
	 viewBox="0 0 443 367" enable-background="new 0 0 443 367" xml:space="preserve">
<sodipodi:namedview  inkscape:cx="219.83307" inkscape:pageopacity="0.0" inkscape:current-layer="svg2" inkscape:window-height="543" borderopacity="1.0" inkscape:window-width="756" inkscape:cy="188.63096" pagecolor="#ffffff" inkscape:window-x="88" inkscape:pageshadow="2" inkscape:zoom="0.5149308" bordercolor="#666666" inkscape:window-y="132" id="base">
	</sodipodi:namedview>
<polygon fill="none" stroke="#0000FF" stroke-width="1.012" stroke-linecap="square" stroke-miterlimit="99" points="
	229.14,195.169 216.314,195.169 229.14,190.685 "/>
<path id="path1938" fill="#0000FF" d="M219.643,192.074c-0.422-0.038-0.801-0.116-1.175-0.243c-1.706-0.585-2.973-2.1-3.268-3.909
	c-0.018-0.106-0.038-0.251-0.047-0.325c-0.018-0.179-0.018-0.81,0-0.987c0.065-0.592,0.219-1.14,0.468-1.664
	c0.473-0.995,1.253-1.806,2.208-2.297l0.138-0.071l0.006,0.058c0.006,0.062,0.103,1.367,0.103,1.396c0,0.009-0.04,0.044-0.09,0.077
	c-0.208,0.142-0.458,0.367-0.629,0.565c-0.476,0.554-0.762,1.186-0.874,1.93c-0.021,0.138-0.024,0.209-0.024,0.485
	c-0.001,0.33,0.007,0.444,0.049,0.67c0.136,0.743,0.465,1.381,0.988,1.915c0.181,0.185,0.333,0.312,0.549,0.459
	c0.834,0.566,1.868,0.741,2.84,0.477c0.237-0.063,0.423-0.139,0.702-0.28c0.741-0.384,1.36-1.073,1.674-1.872
	c0.094-0.237,0.176-0.538,0.211-0.771c0.01-0.069,0.022-0.127,0.023-0.127c0.004,0,0.197,0.4,0.431,0.891l0.424,0.89l-0.055,0.106
	c-0.569,1.088-1.56,1.949-2.714,2.36c-0.361,0.129-0.676,0.203-1.077,0.253C220.344,192.077,219.807,192.088,219.643,192.074z
	 M225.484,190.418c-0.011-0.025-0.458-1.101-0.993-2.387l-0.974-2.338h-2.421c-1.332,0-2.421-0.002-2.422-0.004
	c-0.001-0.001-0.108-1.526-0.237-3.391l-0.236-3.39l-0.038-0.085c-0.076-0.17-0.114-0.334-0.123-0.526
	c-0.027-0.66,0.431-1.247,1.076-1.377c0.138-0.027,0.355-0.025,0.501,0.006c0.394,0.085,0.725,0.343,0.907,0.708
	c0.103,0.205,0.146,0.387,0.146,0.613c0,0.431-0.194,0.824-0.539,1.09c-0.158,0.123-0.413,0.229-0.583,0.248l-0.07,0.008
	l0.004,0.057c0.006,0.068,0.146,2.614,0.146,2.654v0.027h1.694h1.694v0.633v0.633h-1.631h-1.631l0.006,0.08
	c0.004,0.044,0.018,0.239,0.031,0.434l0.025,0.353l0.449-0.007c1.014-0.015,4.05-0.028,4.06-0.02
	c0.003,0.005,0.438,1.029,0.965,2.275c0.526,1.246,0.959,2.266,0.965,2.266c0.005,0,0.333-0.118,0.73-0.265
	c0.396-0.147,0.722-0.265,0.725-0.262c0.016,0.016,0.399,0.966,0.395,0.973c-0.008,0.006-2.545,1.027-2.58,1.039
	C225.511,190.466,225.498,190.453,225.484,190.418z"/>
</svg>
