<?xml version="1.0" encoding="utf-8"?>
<!-- Generator: Adobe Illustrator 14.0.0, SVG Export Plug-In . SVG Version: 6.00 Build 43363)  -->
<!DOCTYPE svg PUBLIC "-//W3C//DTD SVG 1.1//EN" "http://www.w3.org/Graphics/SVG/1.1/DTD/svg11.dtd">
<svg version="1.1" id="Calque_1" xmlns="http://www.w3.org/2000/svg" xmlns:xlink="http://www.w3.org/1999/xlink" x="0px" y="0px"
	 width="400px" height="400px" viewBox="0 0 400 400" enable-background="new 0 0 400 400" xml:space="preserve">
<path fill="#603813" stroke="#603813" stroke-width="0.05" d="M194.554,199.953c0,0,0.87-0.649,1.275-0.742s1.252-0.093,1.728,0
	s1.403,0.417,1.728,0.22c0.325-0.197,0.615-0.672,1.021-0.788c0.405-0.116,0.812-0.244,1.09-0.221
	c0.278,0.023,0.568,0.11,0.962-0.002c0.395-0.113,0.777-0.183,1.299-0.183c0.522,0,0.928,0.128,1.195,0.499
	c0.267,0.371,0.904,1.136,0.974,1.554c0.069,0.418,0.151,0.626,0.302,0.823s0.44,0.8,0.406,1.125
	c-0.035,0.325-0.696,3.536-0.836,3.305c-0.139-0.231-0.371-0.579-0.405-0.939c-0.035-0.359-0.093-1.589-0.209-1.739
	s-0.267-0.29-0.267-0.29s0.035,0.231-0.115,0.337c-0.151,0.104-0.337-0.116-0.568-0.232c-0.232-0.115-0.371-0.232-0.511-0.174
	s-0.104,0.44-0.104,0.44l-0.301-0.382c0,0-0.465,0-0.522,0.011c-0.058,0.012,0.14,0.255,0.116,0.406
	c-0.023,0.15-0.059,0.278-0.15,0.336c-0.094,0.058,0.186,0.557,0.289,0.823c0.104,0.268,0.73,1.914,0.881,2.18
	c0.151,0.268,0.209,1.044,0.43,1.195c0.221,0.15,0.801,0.51,0.835,0.591s-0.302,0.383-0.591,0.487
	c-0.291,0.104-1.172,0.174-1.311,0.139c-0.14-0.034-0.232-0.15-0.244-0.312s0.174-0.371,0.15-0.476
	c-0.022-0.104-0.463-0.974-0.545-1.113c-0.08-0.14-0.893-0.939-0.996-1.021c-0.105-0.081-0.395-0.209-0.441-0.324
	c-0.047-0.116-0.301-0.465-0.301-0.465s-0.557,1.276-0.615,1.404c-0.058,0.127-0.406,0.974-0.394,1.24
	c0.011,0.267,0.139,0.418,0.301,0.486c0.163,0.07,0.383,0.279,0.395,0.349c0.011,0.069-0.012,0.278-0.139,0.359
	s-1.624,0.128-1.728,0.128s-0.29-0.082-0.313-0.209c-0.023-0.128-0.012-0.324,0.046-0.43c0.058-0.104,0.116-0.8,0.139-1.043
	c0.023-0.244,0.058-1.357,0.058-1.357l-0.046-0.695l-1.021,0.267c0,0-0.255,0.371-0.186,0.661s0.348,1.055,0.348,1.055
	s0.359,0.65,0.475,0.73c0.116,0.082,0.208,0.268,0.093,0.36s-1.136,0.278-1.183,0.278c-0.046,0-0.684,0.012-0.765-0.035
	c-0.082-0.047-0.221-0.162-0.221-0.221c0-0.058,0.209-0.439,0.209-0.439s-0.221-0.349-0.267-0.592
	c-0.047-0.244-0.14-0.87-0.244-0.951c-0.104-0.081-0.695-0.371-0.776-0.371s-1.102,0.858-1.322,1.16
	c-0.22,0.301-0.672,0.8-0.672,0.8s0.278,0.405,0.255,0.557c-0.023,0.15-0.197,0.174-0.197,0.174h-1.148c0,0-0.684-0.371-0.73-0.499
	c-0.046-0.127-0.046-0.162,0-0.277c0.047-0.117,0.371-0.441,0.406-0.639c0.035-0.197,0.186-0.174,0.278-0.289
	c0.093-0.117,0.591-0.674,0.591-0.766c0-0.094-0.127,0.197-0.463,0.312c-0.336,0.116-0.591,0.047-0.591,0.047l0.336-0.244
	c0,0,0.615-0.545,0.685-0.719c0.069-0.174,0.093-2.156,0.174-2.551s0.499-1.542,0.765-1.832S194.554,199.953,194.554,199.953z"/>
<path fill="#603813" stroke="#603813" stroke-width="0.05" d="M208.666,203.611c0,0-0.568,0.342-0.788,0.574
	c-0.221,0.231-0.72,0.893-0.905,0.951c-0.186,0.058-0.359,0.104-0.486,0c-0.127-0.105-0.347-0.975-0.347-0.975l-0.442,1.38
	c0,0,0,0.046,0.186,0.174s0.545,0.29,0.766,0.231c0.221-0.058,0.521-0.08,0.858-0.429c0.336-0.348,0.858-0.938,0.938-0.997
	c0.082-0.059,0.453-0.312,0.453-0.312l-0.29-0.186c0,0,0.162-0.163,0.128-0.232C208.701,203.722,208.666,203.611,208.666,203.611z"
	/>
<path fill="#603813" stroke="#603813" stroke-width="0.05" d="M206.46,202.654c0,0,0.362,0.637,0.583,0.776s0.846,0.639,1.159,0.708
	c0.313,0.07,0,0.244,0,0.244s-0.382-0.023-0.614-0.14s-1.286-0.812-1.286-0.812L206.46,202.654z"/>
<path fill="#603813" stroke="#603813" stroke-width="0.05" d="M206.252,203.66l1.32,0.879l-0.167,0.195c0,0-0.479-0.108-0.745-0.213
	s-0.521-0.359-0.521-0.359L206.252,203.66z"/>
</svg>
