<?xml version="1.0" encoding="UTF-8" standalone="no"?>
<!-- Created with Inkscape (http://www.inkscape.org/) -->

<svg
   xmlns="http://www.w3.org/2000/svg"
   version="1.1"
   width="100%"
   height="100%"
   viewBox="0 0 16 16">
  <path
     d="M 8.03125,1.34375 6,4.875 l -4,0 2,3.5 -2,3.5 4,0 2.03125,3.53125 2,-3.53125 3.96875,0 -1.96875,-3.5 1.96875,-3.5 -3.96875,0 -2,-3.53125 z m 0,2.5 0.59375,1.03125 -1.1875,0 0.59375,-1.03125 z m -3.90625,2.1875 1.21875,0 -0.625,1.0625 L 4.125,6.03125 z m 2.65625,0 2.5,0 1.3125,2.34375 -1.3125,2.34375 -2.5,0 L 5.46875,8.375 6.78125,6.03125 z m 3.90625,0 1.25,0 -0.625,1.09375 -0.625,-1.09375 z m 0.625,3.59375 0.625,1.09375 -1.25,0 0.625,-1.09375 z m -6.59375,0.03125 0.625,1.0625 -1.21875,0 0.59375,-1.0625 z M 7.4375,11.875 8.625,11.875 8.03125,12.90625 7.4375,11.875 z" />
</svg>
