<?xml version="1.0" encoding="UTF-8" standalone="no"?>
<svg
   xmlns:dc="http://purl.org/dc/elements/1.1/"
   xmlns:cc="http://creativecommons.org/ns#"
   xmlns:rdf="http://www.w3.org/1999/02/22-rdf-syntax-ns#"
   xmlns:svg="http://www.w3.org/2000/svg"
   xmlns="http://www.w3.org/2000/svg"
   id="svg2"
   version="1.1"
   viewBox="0 0 24 24"
   height="30"
   width="30">
  <metadata
     id="metadata15">
    <rdf:RDF>
      <cc:Work
         rdf:about="">
        <dc:format>image/svg+xml</dc:format>
        <dc:type
           rdf:resource="http://purl.org/dc/dcmitype/StillImage" />
        <dc:title></dc:title>
      </cc:Work>
    </rdf:RDF>
  </metadata>
  <defs
     id="defs13" />
  <g
     id="surface1">
    <path
       id="path5"
       transform="matrix(1.5,0,0,1.5,7.471432,-1561.6867)"
       d="m 1.263837,1047.3719 c 0.96875,-0.9688 2.541666,-0.9688 3.510416,0 0.966146,0.9687 0.966146,2.539 0,3.5078 -0.96875,0.9687 -2.541666,0.9687 -3.510416,0 -0.966146,-0.9688 -0.966146,-2.5391 0,-3.5078 z m 0,0"
       style="fill:none;stroke:#211e1e;stroke-width:0.88575;stroke-linecap:butt;stroke-linejoin:miter;stroke-miterlimit:3.86360002;stroke-opacity:1" />
    <path
       id="path7"
       transform="matrix(1.5,0,0,1.5,7.471432,-1561.6867)"
       d="m 8.042483,1044.1193 -3.005209,3.0104"
       style="fill:none;stroke:#211e1e;stroke-width:0.88575;stroke-linecap:butt;stroke-linejoin:miter;stroke-miterlimit:3.86360002;stroke-opacity:1" />
    <path
       id="path9"
       d="m 19.980469,4.933594 c 1.339843,1.851562 3.847656,3.320312 3.847656,3.320312 -1.875,0.089844 -4.035156,-1.042968 -5.351563,-1.847656 z m 0,0"
       style="fill:#211e1e;fill-opacity:1;fill-rule:nonzero;stroke:none" />
    <rect
       y="0"
       x="0"
       height="24"
       width="24"
       id="rect4143"
       style="opacity:1;fill:none;fill-opacity:0.6;stroke:none;stroke-width:0.69999999;stroke-linecap:square;stroke-linejoin:round;stroke-miterlimit:4;stroke-dasharray:none;stroke-dashoffset:0;stroke-opacity:1" />
  </g>
</svg>
