<?xml version="1.0" encoding="UTF-8" standalone="no"?>
<svg xmlns="http://www.w3.org/2000/svg" viewBox="0 0 12 12" height="12" width="12" version="1.1">
  <rect style="fill:none;stroke:none;visibility:hidden" y="0" x="0" height="12" width="12" />
  <path d="m 3,1 -1,1 0,8 0.65625,0 c 0,0 0.1011489,1 0.81275,1 0.6891295,0 0.781,-1 0.781,-1 l 3.5,0 c 0,0 0.1143421,1 0.781,1 0.8164686,0 0.81275,-1 0.81275,-1 L 10,10 10,2 9,1 Z M 4,2 8,2 8,3 4,3 Z M 3,4 9,4 9,7 3,7 Z M 3,8 4,8 4,9 3,9 Z M 8,8 9,8 9,9 8,9 Z" />
</svg>
