<svg width="14" height="14" version="1.1" viewBox="0 0 14 14" xmlns="http://www.w3.org/2000/svg">
 <path d="m7.7004 3.4043-1.1352-0.35547c-0.14218-0.04375-0.24717-0.19414-0.26248-0.37734-0.015311-0.1832 0.061246-0.3582 0.1903-0.44023l0.89244-0.55781-0.94494-0.88594c-0.1203-0.11211-0.17061-0.30898-0.12249-0.48945s0.18155-0.29805 0.33248-0.29805h3.4998c0.66058 0 1.284 0.38828 1.6799 1.05l1.2599 2.1c0.13562 0.22695 0.20999 0.50312 0.20999 0.7875 0 0.72461-0.47028 1.3125-1.0499 1.3125h-0.47028c-0.37185 0-0.72839-0.1832-0.99087-0.51133l-0.28873-0.36367h-0.69995v0.58789c0 0.67812 0.27998 1.3098 0.73932 1.6707l2.3317 1.8211c0.70214 0.54961 1.1287 1.5094 1.1287 2.5457 0 1.657-1.074 2.9996-2.4017 2.9996h-10.891c-0.072183 0-0.14437-0.01094-0.20999-0.03828-0.20124-0.07656-0.36529-0.2625-0.44403-0.50586-0.030623-0.09297-0.048122-0.18867-0.052496-0.29258-0.0043747-0.10117 0.006562-0.19961 0.028436-0.29258 0.061246-0.25156 0.20999-0.45664 0.40685-0.55781 0.065621-0.03281 0.13562-0.05469 0.2078-0.06016l8.8347-0.98711c0.18155-0.01914 0.32154-0.21055 0.32154-0.44023 0-0.11758-0.037185-0.22969-0.10281-0.31172l-0.97118-1.2141c-0.65621-0.82031-1.0259-1.9332-1.0259-3.0926v-1.2441zm3.4998-1.4273v-0.0164zm-0.02843 0.20234-1.0149-0.31719c-0.0044 0.035547-0.0066 0.071094-0.0066 0.10664 0 0.36367 0.23405 0.65625 0.52496 0.65625 0.23186 0 0.42653-0.18594 0.49653-0.4457zm-8.3076 1.0062c0.35654-0.39648 0.88369-0.44297 1.2796-0.11211l2.8567 2.3789v0.75469c0 0.89688 0.18374 1.7719 0.52496 2.543h-5.0747c-0.14655 0-0.27779-0.11484-0.3281-0.28438-0.050309-0.16953-0.010937-0.36367 0.10062-0.48398l1.518-1.6297-3.3379 0.64258c-0.15311 0.030078-0.30404-0.071094-0.36966-0.24609-0.065621-0.175-0.03281-0.38555 0.083119-0.51406z" stroke-width=".024456"/>
</svg>
