<?xml version="1.0" encoding="UTF-8" standalone="no"?>
<svg
   xmlns:dc="http://purl.org/dc/elements/1.1/"
   xmlns:cc="http://creativecommons.org/ns#"
   xmlns:rdf="http://www.w3.org/1999/02/22-rdf-syntax-ns#"
   xmlns:svg="http://www.w3.org/2000/svg"
   xmlns="http://www.w3.org/2000/svg"
   height="14"
   width="14"
   version="1.0"
   viewBox="0 0 14 14"
   id="svg2">
  <defs
     id="defs58" />
  <metadata
     id="metadata54">
    <rdf:RDF>
      <cc:Work>
        <dc:format>image/svg+xml</dc:format>
        <dc:type
           rdf:resource="http://purl.org/dc/dcmitype/StillImage" />
        <dc:title></dc:title>
      </cc:Work>
      <cc:License
         rdf:about="http://creativecommons.org/publicdomain/zero/1.0/">
        <cc:permits
           rdf:resource="http://creativecommons.org/ns#Reproduction" />
        <cc:permits
           rdf:resource="http://creativecommons.org/ns#Distribution" />
        <cc:permits
           rdf:resource="http://creativecommons.org/ns#DerivativeWorks" />
      </cc:License>
    </rdf:RDF>
  </metadata>
  <rect
     width="14"
     height="14"
     x="0"
     y="0"
     id="canvas"
     style="fill:none;stroke:none;visibility:hidden" />
  <path
     d="M 5.9999999,0 8,0 c 2,0 3,0 3,1.0000001 l 0,1 -8.0000003,0 0,-1 C 2.9999997,-4.0395351e-8 3.9999998,0 5.9999999,0 Z M 4,3 c -10e-8,1.9999997 -1.5124998,1.0000396 -1.5,3 l 0.03125,5 C 2.5374999,11.999981 3.0000004,14 5,14 l 4,0 c 2,0 2.5,-2 2.5,-3 l 0,-5 C 11.5,4.0000006 10,4.9999997 10,3 L 4,3 Z m 3,4 c 1.0424134,0 3.126953,0.6074219 3.126953,0.6074219 l 0,1.3925781 0,1.392578 C 10.126953,10.392578 8.0424135,11 7,11 5.9575867,11 3.8730469,10.392578 3.8730469,10.392578 l 0,-1.392578 0,-1.3925781 C 3.8730469,7.6074219 5.9575867,7 7,7 Z"
     style="opacity:1;fill:#000000;fill-opacity:1;fill-rule:evenodd;stroke:none;stroke-opacity:1"
     id="path4173" />
</svg>
