<?xml version="1.0" encoding="UTF-8" standalone="no"?>
<svg
   xmlns:dc="http://purl.org/dc/elements/1.1/"
   xmlns:cc="http://creativecommons.org/ns#"
   xmlns:rdf="http://www.w3.org/1999/02/22-rdf-syntax-ns#"
   xmlns:svg="http://www.w3.org/2000/svg"
   xmlns="http://www.w3.org/2000/svg"
   width="14"
   height="14"
   viewBox="0 0 14 14"
   id="svg2"
   version="1.1">
  <defs
     id="defs4" />
  <metadata
     id="metadata7">
    <rdf:RDF>
      <cc:Work
         rdf:about="">
        <dc:format>image/svg+xml</dc:format>
        <dc:type
           rdf:resource="http://purl.org/dc/dcmitype/StillImage" />
        <dc:title></dc:title>
      </cc:Work>
    </rdf:RDF>
  </metadata>
  <rect
     width="14"
     height="14"
     x="0"
     y="0"
     id="canvas"
     style="fill:none;stroke:none;visibility:hidden" />
  <path
     id="rect3477"
     d="M 7.0664063,0 C 6.4300663,0 5.7941523,0.16062188 5.2226563,0.48242188 4.1024903,1.1133219 3.3931204,2.2802344 3.3652344,3.5527344 l -1.8671875,0 L 1,12.972656 1,14 13.064453,14 12.511719,3.5527344 l -1.744141,0 C 10.739678,2.2802344 10.030331,1.1133219 8.9101563,0.48242188 8.3386613,0.16062187 7.7027473,0 7.0664063,0 Z m 0,1.5273438 c 0.378661,0 0.7576841,0.094956 1.0957031,0.2851562 0.652423,0.3675 1.050958,1.0240344 1.078125,1.7402344 l -4.3476563,0 C 4.9196981,2.8365344 5.3182802,2.18 5.9707031,1.8125 6.3087222,1.6222 6.6877463,1.5273438 7.0664063,1.5273438 Z M 6.7675781,5.2011719 c 0.7750155,0 1.3450096,0.1519044 1.7089844,0.453125 0.3639749,0.3012205 0.5449219,0.6615775 0.5449219,1.0820312 0,0.2353286 -0.055011,0.4612321 -0.1679687,0.6777344 C 8.7436957,7.6305648 8.6100107,7.8064845 8.453125,7.9414062 8.2962393,8.076328 8.0160933,8.276263 7.6113281,8.5429688 c 0.3357355,0.3357354 0.6848533,0.6488302 1.0488282,0.9375 0.097269,-0.1945383 0.1809703,-0.4006853 0.25,-0.6171876 L 10.40625,9.1972656 C 10.327807,9.4733845 10.251855,9.6950293 10.179687,9.8613281 10.10752,10.027627 10.006784,10.223303 9.875,10.449219 l 0.71875,0.49414 c 0.08786,0.05648 0.201784,0.124683 0.339844,0.203125 L 9.9023438,12.332031 C 9.7140809,12.231624 9.5184046,12.116159 9.3144531,11.984375 9.1136394,11.852591 8.933461,11.738663 8.7734375,11.644531 8.4408398,11.864171 8.1079884,12.024593 7.7753907,12.125 c -0.461244,0.138059 -0.9855131,0.207031 -1.5722657,0.207031 -0.9193502,0 -1.6040412,-0.191417 -2.0527343,-0.574219 -0.4486932,-0.382801 -0.671875,-0.846615 -0.671875,-1.392578 0,-0.3922139 0.1309632,-0.7630415 0.3945312,-1.1113278 C 4.1366149,8.9024823 4.5686654,8.6068384 5.1679688,8.3652344 4.9169516,8.0608761 4.7445221,7.7969965 4.6503907,7.5742188 c -0.094132,-0.2259155 -0.140625,-0.4553092 -0.140625,-0.6875 0,-0.4894835 0.1852057,-0.8920753 0.5585937,-1.2089844 0.373388,-0.3169092 0.9398919,-0.4765625 1.6992187,-0.4765625 z m 0.080078,1.0351562 c -0.1945383,0 -0.3522385,0.056964 -0.4746094,0.1699219 -0.1223709,0.1129577 -0.1835938,0.2466426 -0.1835938,0.4003906 0,0.1945383 0.1724296,0.477406 0.5175782,0.8476563 0.2478794,-0.1349217 0.439297,-0.2806143 0.5742187,-0.4375 0.1349219,-0.1600235 0.2011721,-0.3119279 0.2011721,-0.453125 0,-0.1474726 -0.055011,-0.2706869 -0.1679688,-0.3710938 -0.1129577,-0.1035445 -0.2691208,-0.15625 -0.4667968,-0.15625 z m -0.8242188,3.09375 C 5.7598695,9.5152033 5.5859029,9.6729035 5.4980469,9.8046875 5.4133286,9.9364715 5.3691407,10.075184 5.3691407,10.222656 c 0,0.229053 0.099199,0.434432 0.296875,0.613282 0.1976759,0.178849 0.4565283,0.267578 0.7734374,0.267578 0.3420109,0 0.7256147,-0.133685 1.1523438,-0.400391 C 7.1838941,10.389354 6.6603935,9.9325193 6.0234375,9.3300781 Z"
     style="opacity:1;fill:#000000;fill-opacity:1;stroke:none;stroke-width:8;stroke-miterlimit:4;stroke-dasharray:none;stroke-dashoffset:0;stroke-opacity:1" />
</svg>
