<?xml version="1.0" encoding="UTF-8" standalone="no"?>
<svg
   xmlns:dc="http://purl.org/dc/elements/1.1/"
   xmlns:cc="http://creativecommons.org/ns#"
   xmlns:rdf="http://www.w3.org/1999/02/22-rdf-syntax-ns#"
   xmlns:svg="http://www.w3.org/2000/svg"
   xmlns="http://www.w3.org/2000/svg"
   id="svg2"
   viewBox="0 0 14 14"
   height="14"
   width="14"
   version="1.1">
  <defs
     id="defs3053" />
  <metadata
     id="metadata8">
    <rdf:RDF>
      <cc:Work
         rdf:about="">
        <dc:format>image/svg+xml</dc:format>
        <dc:type
           rdf:resource="http://purl.org/dc/dcmitype/StillImage" />
        <dc:title></dc:title>
      </cc:Work>
    </rdf:RDF>
  </metadata>
  <path
     id="rect1252"
     d="M 2 0 L 2 1.5 L 2 2 L 2 3 L 2 3.5 L 2 4 L 3 4 L 3 3.5 L 3 3 L 3 2 L 3 1.5 L 3 0 L 2 0 z M 5 0 L 5 1 L 6 1 L 6 0 L 5 0 z M 8 0 L 8 1.5 L 8 2 L 8 3 L 8 3.5 L 8 4 L 9 4 L 9 3.5 L 9 3 L 9 2 L 9 1.5 L 9 0 L 8 0 z M 11 0 L 11 1 L 12 1 L 12 0 L 11 0 z M 0 2 L 0 3 L 1 3 L 1 2 L 0 2 z M 4 2 L 4 3 L 4.5 3 L 5 3 L 6 3 L 6.5 3 L 7 3 L 7 2 L 6.5 2 L 6 2 L 5 2 L 4.5 2 L 4 2 z M 10 2 L 10 3 L 10.5 3 L 11 3 L 12 3 L 12.5 3 L 14 3 L 14 2 L 12.5 2 L 12 2 L 11 2 L 10.5 2 L 10 2 z M 5 4 L 5 4.5 L 5 5 L 5 6 L 5 6.5 L 5 7 L 6 7 L 6 6.5 L 6 6 L 6 5 L 6 4.5 L 6 4 L 5 4 z M 11 4 L 11 4.5 L 11 5 L 11 6 L 11 6.5 L 11 7 L 12 7 L 12 6.5 L 12 6 L 12 5 L 12 4.5 L 12 4 L 11 4 z M 0 5 L 0 6 L 1.5 6 L 2 6 L 3 6 L 3.5 6 L 4 6 L 4 5 L 3.5 5 L 3 5 L 2 5 L 1.5 5 L 0 5 z M 7 5 L 7 6 L 7.5 6 L 8 6 L 9 6 L 9.5 6 L 10 6 L 10 5 L 9.5 5 L 9 5 L 8 5 L 7.5 5 L 7 5 z M 13 5 L 13 6 L 14 6 L 14 5 L 13 5 z M 2 7 L 2 7.5 L 2 8 L 2 9 L 2 9.5 L 2 10 L 3 10 L 3 9.5 L 3 9 L 3 8 L 3 7.5 L 3 7 L 2 7 z M 8 7 L 8 7.5 L 8 8 L 8 9 L 8 9.5 L 8 10 L 9 10 L 9 9.5 L 9 9 L 9 8 L 9 7.5 L 9 7 L 8 7 z M 0 8 L 0 9 L 1 9 L 1 8 L 0 8 z M 4 8 L 4 9 L 4.5 9 L 5 9 L 6 9 L 6.5 9 L 7 9 L 7 8 L 6.5 8 L 6 8 L 5 8 L 4.5 8 L 4 8 z M 10 8 L 10 9 L 10.5 9 L 11 9 L 12 9 L 12.5 9 L 14 9 L 14 8 L 12.5 8 L 12 8 L 11 8 L 10.5 8 L 10 8 z M 5 10 L 5 10.5 L 5 11 L 5 12 L 5 12.5 L 5 14 L 6 14 L 6 12.5 L 6 12 L 6 11 L 6 10.5 L 6 10 L 5 10 z M 11 10 L 11 10.5 L 11 11 L 11 12 L 11 12.5 L 11 14 L 12 14 L 12 12.5 L 12 12 L 12 11 L 12 10.5 L 12 10 L 11 10 z M 0 11 L 0 12 L 1.5 12 L 2 12 L 3 12 L 3.5 12 L 4 12 L 4 11 L 3.5 11 L 3 11 L 2 11 L 1.5 11 L 0 11 z M 7 11 L 7 12 L 7.5 12 L 8 12 L 9 12 L 9.5 12 L 10 12 L 10 11 L 9.5 11 L 9 11 L 8 11 L 7.5 11 L 7 11 z M 13 11 L 13 12 L 14 12 L 14 11 L 13 11 z M 2 13 L 2 14 L 3 14 L 3 13 L 2 13 z M 8 13 L 8 14 L 9 14 L 9 13 L 8 13 z "
     style="opacity:1;fill:#000000;fill-opacity:1;stroke:none;stroke-width:0.077;stroke-linecap:square;stroke-miterlimit:4;stroke-dasharray:none;stroke-opacity:1;paint-order:markers stroke fill" />
</svg>
