<svg xmlns="http://www.w3.org/2000/svg" width="14" height="14" viewBox="0 0 14 14">
  <path d="m2.25638,3.44531c0.13303,-0.81884 0.37135,-2.30458 1.66268,-2.70222c2.35669,-0.64065 4.28185,0.19389 5.69761,1.4387c1.41576,1.24481 2.07642,3.74229 1.5882,5.26922c-0.34422,1.46972 -1.07455,3.18514 -1.87507,4.79527l-2.32682,0l1.40655,-3.05569c0.63613,-1.57681 0.63656,-2.8442 -0.08799,-4.12286c-0.72454,-1.27866 -2.06876,-2.1123 -4.26233,-1.8739l-1.80283,0.25147zm1.66047,6.2811c-1.08634,0 -1.96628,-0.87994 -1.96628,-1.96628c0,-1.08634 0.87994,-1.96628 1.96628,-1.96628c1.08634,0 1.96628,0.87994 1.96628,1.96628c0,1.08634 -0.87994,1.96628 -1.96628,1.96628z"/>
</svg>
