<svg
   xmlns="http://www.w3.org/2000/svg"
   viewBox="0 0 14 14"
   version="1.1"
   height="14"
   width="14">
  <path
     d="M 2.7441406 0 C 2.0338765 0.0003935 1.3740289 0.4117078 1 1 L 3.3691406 1 L 3.9921875 2 L 3.3691406 3 L 1.0019531 3 C 1.3756288 3.5877381 2.0345467 3.9989723 2.7441406 4 C 3.5023764 3.9999999 4.1562562 3.595766 4.5117188 3 L 9.1777344 3 C 9.533156 3.5959232 10.188909 4.0000003 10.947266 4 C 12.080957 4.0000002 13 3.1045696 13 2 C 13 0.89543042 12.080957 -2e-07 10.947266 0 C 10.188909 -2.6757065e-07 9.533156 0.40407683 9.1777344 1 L 4.5117188 1 C 4.1562561 0.40423404 3.5023764 6.6882009e-08 2.7441406 0 z M 10.322266 1 L 11.572266 1 L 12.195312 2 L 11.572266 3 L 10.322266 3 L 9.6992188 2 L 10.322266 1 z "
     style="stroke-width:0.997902" />
  <g
     style="stroke-width:0.829846"
     transform="matrix(1.205043,0,0,1.205043,-18.929579,-2.2631446)">
    <path
       style="fill:#1a1a1a;fill-rule:evenodd;stroke-width:0.829846"
       d="m 17.890625,10.205078 c -0.16513,-1.9e-4 -0.223616,0.002 -0.291016,0.01367 -0.381406,0.06549 -0.693022,0.217477 -0.957031,0.462891 -0.27232,0.253139 -0.443456,0.564954 -0.503906,0.923828 -0.02244,0.133464 -0.01942,0.37829 0.0059,0.511719 0.133286,0.705586 0.703294,1.237124 1.455078,1.357421 0.117043,0.01873 0.357166,0.027 0.46875,0.01563 0.194123,-0.01979 0.409041,-0.07759 0.580079,-0.154296 0.539092,-0.241794 0.903247,-0.702117 0.992187,-1.257813 0.01862,-0.116328 0.01845,-0.332069 0,-0.455078 -0.100222,-0.666677 -0.62116,-1.209584 -1.320313,-1.375 -0.155048,-0.03667 -0.215637,-0.04276 -0.429687,-0.04297 z m 0.0039,0.56836 c 0.151368,3.09e-4 0.249051,0.01519 0.38086,0.05859 0.344245,0.11337 0.624206,0.388668 0.722656,0.710938 0.190826,0.624671 -0.2284,1.252694 -0.914063,1.36914 -0.08662,0.01471 -0.288455,0.01462 -0.384765,0 -0.194457,-0.02944 -0.380209,-0.108045 -0.542969,-0.230468 -0.21147,-0.159062 -0.365153,-0.408369 -0.408203,-0.66211 -0.01675,-0.09871 -0.01301,-0.304085 0.0078,-0.390625 0.05045,-0.209636 0.144758,-0.375712 0.300782,-0.527344 0.095,-0.09232 0.183625,-0.152277 0.304687,-0.210937 0.173852,-0.08424 0.324945,-0.117591 0.533203,-0.117187 z" />
    <path
       style="fill:#1a1a1a;fill-rule:evenodd;stroke-width:0.829846"
       d="m 25.021484,10.201172 c -0.58089,0.04008 -1.089677,0.330957 -1.392578,0.794922 -0.262512,0.402097 -0.323684,0.909423 -0.164062,1.365234 0.172989,0.493989 0.587086,0.882996 1.11914,1.050781 0.215151,0.06785 0.488645,0.09708 0.716797,0.07813 0.607977,-0.05051 1.151033,-0.396944 1.425781,-0.910156 0.330429,-0.617215 0.210636,-1.366202 -0.298828,-1.867187 -0.366453,-0.360358 -0.882275,-0.547889 -1.40625,-0.511719 z m 0.06641,0.568359 c 0.591843,-0.0265 1.096552,0.356674 1.197265,0.908203 0.01882,0.103071 0.01325,0.299964 -0.01172,0.400391 -0.108765,0.437364 -0.476935,0.763077 -0.949219,0.835937 -0.09829,0.01518 -0.324508,0.009 -0.423828,-0.01172 -0.08021,-0.0166 -0.21558,-0.0608 -0.28125,-0.0918 -0.08408,-0.03968 -0.200747,-0.120256 -0.279297,-0.191406 -0.310141,-0.28095 -0.425586,-0.685404 -0.306641,-1.076172 0.02923,-0.09604 0.117714,-0.260687 0.183594,-0.341797 0.21128,-0.260143 0.524598,-0.416131 0.871094,-0.431641 z" />
    <path
       d="m 25.105361,8.5928491 c 0.230087,0.143493 0.364242,0.301579 0.429688,0.501953 0.02151,0.06588 0.02287,0.07941 0.02344,0.214845 5.18e-4,0.124653 -9.69e-4,0.157343 -0.01758,0.226563 -0.0326,0.135857 -0.09294,0.287657 -0.164063,0.419922 l -0.03125,0.06055 -0.107422,0.0059 c -0.390788,0.02031 -0.705242,0.09063 -0.978515,0.220703 -0.586101,0.278965 -0.954254,0.803082 -1.136719,1.615234 l -0.01563,0.06445 -0.07617,0.07031 c -0.04224,0.03811 -0.09913,0.08395 -0.126953,0.101562 -0.25285,0.159974 -0.61576,0.255702 -1.130859,0.300782 -0.231244,0.02027 -0.386206,0.02425 -1.132813,0.03125 -0.437753,0.0041 -0.79828,0.0095 -0.800781,0.01172 -0.0024,0.0022 -0.01933,0.0039 -0.03711,0.0039 -0.03876,0 -0.03611,0.01501 -0.01367,-0.164063 0.03467,-0.276763 0.03081,-0.597928 -0.0098,-0.830078 -0.116705,-0.667751 -0.529609,-1.106155 -1.230468,-1.30664 -0.307931,-0.08809 -0.578847,-0.119854 -1.041015,-0.126954 l -0.294922,-0.0059 -0.01953,-0.01953 c -0.09851,-0.107393 -0.148973,-0.271617 -0.121093,-0.396485 0.01318,-0.05897 0.05869,-0.14436 0.09766,-0.18164 L 18,8.5674291 c 1.800073,-0.0057 2.280499,0.0029 4,0.01804 0.09552,0.02254 0.530574,0.893996 0.576069,0.966343 0.02459,0.03911 0.05871,0.125409 0.06641,0.167968 0.0031,0.01729 0.0065,0.03125 0.0078,0.03125 0.01158,0 0.172029,-0.06386 0.253906,-0.101562 0.2191,-0.10089 0.493987,-0.496233 0.632984,-0.658177 0.13236,-1.558212 -2.036748,-5.6944352 1.568192,-0.39844 z"
       style="fill:#1a1a1a;fill-rule:evenodd;stroke-width:0.829846" />
  </g>
</svg>
