<?xml version="1.0" encoding="UTF-8" standalone="no"?>
<svg
   xmlns:dc="http://purl.org/dc/elements/1.1/"
   xmlns:cc="http://creativecommons.org/ns#"
   xmlns:rdf="http://www.w3.org/1999/02/22-rdf-syntax-ns#"
   xmlns:svg="http://www.w3.org/2000/svg"
   xmlns="http://www.w3.org/2000/svg"
   id="svg2"
   viewBox="0 0 14 14"
   height="14"
   width="14"
   version="1.1">
  <defs
     id="defs3053" />
  <metadata
     id="metadata8">
    <rdf:RDF>
      <cc:Work
         rdf:about="">
        <dc:format>image/svg+xml</dc:format>
        <dc:type
           rdf:resource="http://purl.org/dc/dcmitype/StillImage" />
        <dc:title></dc:title>
      </cc:Work>
    </rdf:RDF>
  </metadata>
  <path
     id="rect899"
     d="M 1.5 -0.0078125 C 0.671573 -0.0078125 0 0.66376038 0 1.4921875 C 0.492178 5.6304625 1.001011 9.8442239 1.5 14.007812 C 1.997883 9.8524552 2.506437 5.6183352 3 1.4921875 C 3 0.66376038 2.328427 -0.0078125 1.5 -0.0078125 z M 7 0 L 7 1 L 12 1 L 12 0 L 7 0 z M 1.5 0.75 A 0.75 0.75 0 0 1 2.25 1.5 A 0.75 0.75 0 0 1 1.5 2.25 A 0.75 0.75 0 0 1 0.75 1.5 A 0.75 0.75 0 0 1 1.5 0.75 z M 5 2 L 5 3 L 14 4 L 14 2 L 5 2 z M 5 4 L 5 5 L 14 6 L 14 5 L 5 4 z M 5 6 L 5 7 L 14 8 L 14 7 L 5 6 z M 5 8 L 5 9 L 14 10 L 14 9 L 5 8 z M 5 10 L 5 12 L 14 12 L 14 11 L 5 10 z M 7 13 L 7 14 L 12 14 L 12 13 L 7 13 z "
     style="fill:#000000;fill-opacity:1;stroke:none;stroke-width:1.58113885" />
</svg>
