<?xml version="1.0" encoding="UTF-8" standalone="no"?>
<svg
   xmlns:dc="http://purl.org/dc/elements/1.1/"
   xmlns:cc="http://creativecommons.org/ns#"
   xmlns:rdf="http://www.w3.org/1999/02/22-rdf-syntax-ns#"
   xmlns:svg="http://www.w3.org/2000/svg"
   xmlns="http://www.w3.org/2000/svg"
   viewBox="0 0 14 14"
   height="14"
   width="14"
   id="svg109"
   version="1.1">
  <metadata
     id="metadata115">
    <rdf:RDF>
      <cc:Work
         rdf:about="">
        <dc:format>image/svg+xml</dc:format>
        <dc:type
           rdf:resource="http://purl.org/dc/dcmitype/StillImage" />
        <dc:title></dc:title>
      </cc:Work>
    </rdf:RDF>
  </metadata>
  <defs
     id="defs113" />
  <g
     style="stroke:#000000;stroke-width:1.09789395;stroke-miterlimit:4;stroke-dasharray:none;stroke-opacity:1"
     id="g4"
     transform="matrix(0.12417378,0.12289961,-0.12417378,0.12289961,124.96964,-139.98985)">
    <path
       id="path2"
       transform="matrix(4.026615,-4.026615,4.0683612,4.0683612,66.324647,1072.7339)"
       d="M 0 3 C -0.00038270359 3.9710197 0.00013199673 4.7345111 0 5.6308594 L 0.42578125 5.6308594 C 1.1951306 5.6308774 1.8085879 6.2385574 1.8085938 7 C 1.8085776 7.7614946 1.1951471 8.3691259 0.42578125 8.3691406 L 0 8.3691406 C 0.00048179427 9.2461621 9.9339024e-006 10.122974 0 11 C 4.9316399 11.000372 9.7201644 10.999816 14 11 C 14.000006 10.122896 13.999995 9.2462456 14 8.3691406 L 13.574219 8.3691406 C 12.804881 8.3691345 12.191412 7.7614675 12.191406 7 C 12.1914 6.238557 12.804859 5.6308557 13.574219 5.6308594 L 14 5.6308594 C 14.000006 4.7537556 13.999995 3.877105 14 3 C 9.145143 3.0005309 4.1635796 2.9999587 0 3 z M 8 4 L 9 4 L 9 10 L 8 10 L 8 4 z "
       style="color:#000000;font-style:normal;font-variant:normal;font-weight:normal;font-stretch:normal;font-size:medium;line-height:normal;font-family:sans-serif;font-variant-ligatures:normal;font-variant-position:normal;font-variant-caps:normal;font-variant-numeric:normal;font-variant-alternates:normal;font-feature-settings:normal;text-indent:0;text-align:start;text-decoration:none;text-decoration-line:none;text-decoration-style:solid;text-decoration-color:#000000;letter-spacing:normal;word-spacing:normal;text-transform:none;writing-mode:lr-tb;direction:ltr;text-orientation:mixed;dominant-baseline:auto;baseline-shift:baseline;text-anchor:start;white-space:normal;shape-padding:0;clip-rule:nonzero;display:inline;overflow:visible;visibility:visible;opacity:1;isolation:auto;mix-blend-mode:normal;color-interpolation:sRGB;color-interpolation-filters:linearRGB;solid-color:#000000;solid-opacity:1;vector-effect:none;fill:#000000;fill-opacity:1;fill-rule:nonzero;stroke:none;stroke-width:0.19180751;stroke-linecap:butt;stroke-linejoin:miter;stroke-miterlimit:4;stroke-dasharray:none;stroke-dashoffset:0;stroke-opacity:1;color-rendering:auto;image-rendering:auto;shape-rendering:auto;text-rendering:auto;enable-background:accumulate" />
  </g>
</svg>
