<?xml version="1.0" encoding="UTF-8" standalone="no"?>
<svg
   xmlns:dc="http://purl.org/dc/elements/1.1/"
   xmlns:cc="http://creativecommons.org/ns#"
   xmlns:rdf="http://www.w3.org/1999/02/22-rdf-syntax-ns#"
   xmlns:svg="http://www.w3.org/2000/svg"
   xmlns="http://www.w3.org/2000/svg"
   viewBox="0 0 14 14"
   height="14"
   width="14"
   id="svg109"
   version="1.1">
  <metadata
     id="metadata115">
    <rdf:RDF>
      <cc:Work
         rdf:about="">
        <dc:format>image/svg+xml</dc:format>
        <dc:type
           rdf:resource="http://purl.org/dc/dcmitype/StillImage" />
        <dc:title></dc:title>
      </cc:Work>
    </rdf:RDF>
  </metadata>
  <defs
     id="defs113" />
  <g
     style="stroke:#000000;stroke-width:1.09789395;stroke-miterlimit:4;stroke-dasharray:none;stroke-opacity:1"
     id="g4"
     transform="matrix(0.12417378,0.12529112,-0.12417378,0.12529112,124.96964,-142.85017)">
    <path
       id="path2"
       d="m 134.90234,1028.5664 c -18.78824,18.7932 -37.580572,37.5822 -56.37109,56.3731 3.707351,3.7102 7.521342,7.5226 10.703125,10.705 l 1.712891,-1.7129 c 3.097947,-3.0978 8.038867,-3.0978 11.136714,0 3.09797,3.0981 3.09788,8.0388 0,11.1368 l -1.71289,1.7128 c 3.65882,3.655 7.53547,7.5336 10.70508,10.7032 18.79576,-18.7856 37.57667,-37.5861 56.37305,-56.3711 -3.56835,-3.5684 -7.13672,-7.1367 -10.70508,-10.7051 l -1.71094,1.7129 c -3.09785,3.0978 -8.04072,3.0979 -11.13867,0 -3.09785,-3.0978 -3.09793,-8.0408 0,-11.1387 l 1.71289,-1.7109 c -3.56835,-3.5684 -7.13672,-7.1367 -10.70508,-10.7051 z m 0,6.8477 4.09961,4.0996 c -3.31243,4.9379 -2.88553,11.677 1.46875,16.0312 4.3541,4.3542 11.07618,4.7613 16.01172,1.4492 l 4.11914,4.1192 -17.29883,17.2969 -25.69726,-25.6993 z m -20.7207,20.7226 25.69727,25.6973 -28.80274,28.8027 -4.11914,-4.1191 c 3.31198,-4.9356 2.90493,-11.6557 -1.44922,-16.0098 -4.35389,-4.3539 -11.091449,-4.7802 -16.029294,-1.4687 l -4.09961,-4.0996 z"
       style="color:#000000;font-style:normal;font-variant:normal;font-weight:normal;font-stretch:normal;font-size:medium;line-height:normal;font-family:sans-serif;font-variant-ligatures:normal;font-variant-position:normal;font-variant-caps:normal;font-variant-numeric:normal;font-variant-alternates:normal;font-feature-settings:normal;text-indent:0;text-align:start;text-decoration:none;text-decoration-line:none;text-decoration-style:solid;text-decoration-color:#000000;letter-spacing:normal;word-spacing:normal;text-transform:none;writing-mode:lr-tb;direction:ltr;text-orientation:mixed;dominant-baseline:auto;baseline-shift:baseline;text-anchor:start;white-space:normal;shape-padding:0;clip-rule:nonzero;display:inline;overflow:visible;visibility:visible;opacity:1;isolation:auto;mix-blend-mode:normal;color-interpolation:sRGB;color-interpolation-filters:linearRGB;solid-color:#000000;solid-opacity:1;vector-effect:none;fill:#000000;fill-opacity:1;fill-rule:nonzero;stroke:none;stroke-width:1.09789395;stroke-linecap:butt;stroke-linejoin:miter;stroke-miterlimit:4;stroke-dasharray:none;stroke-dashoffset:0;stroke-opacity:1;color-rendering:auto;image-rendering:auto;shape-rendering:auto;text-rendering:auto;enable-background:accumulate" />
  </g>
</svg>
