<?xml version="1.0" encoding="UTF-8" standalone="no"?>
<svg
   xmlns:dc="http://purl.org/dc/elements/1.1/"
   xmlns:cc="http://creativecommons.org/ns#"
   xmlns:rdf="http://www.w3.org/1999/02/22-rdf-syntax-ns#"
   xmlns:svg="http://www.w3.org/2000/svg"
   xmlns="http://www.w3.org/2000/svg"
   id="svg2"
   height="14"
   width="14"
   version="1.1">
  <metadata
     id="metadata8">
    <rdf:RDF>
      <cc:Work
         rdf:about="">
        <dc:format>image/svg+xml</dc:format>
        <dc:type
           rdf:resource="http://purl.org/dc/dcmitype/StillImage" />
        <dc:title></dc:title>
      </cc:Work>
    </rdf:RDF>
  </metadata>
  <defs
     id="defs6" />
  <rect
     style="visibility:hidden;fill:none;stroke:none"
     id="canvas"
     y="-0.87500006"
     x="0"
     height="14"
     width="14" />
  <path
     id="tyres"
     d="M 4.5156251,0.18749994 C 2.5890609,0.42887414 1,2.9381313 1,6.5624999 1,10.186872 2.5755505,12.906773 4.5156251,12.984371 L 8.0312501,13.125 C 6.8950094,13.125 5.9458678,12.289913 5.3029783,11.099852 4.6600893,9.9097959 4.28125,8.3172049 4.28125,6.5624999 4.28125,4.807795 4.6600893,3.2152056 5.3029783,2.0251463 5.9458677,0.83508754 6.8950094,0 8.0312501,0 H 7.1523439 C 6.271218,0 5.3652343,0.0810544 4.5156251,0.18749994 Z M 8.0312501,0 C 9.1674905,0 10.11663,0.83508754 10.75952,2.0251463 11.241687,2.9176909 11.574926,4.0367958 11.711669,5.2807619 11.400808,2.3811809 10.089457,0.22784294 8.5091555,0.02197263 L 8.500037,3.2258002e-8 H 8.2656252 Z m 0,13.125 h 0.2343751 0.234375 l 0.00549,-0.01646 C 10.346461,12.873515 11.776797,10.021636 11.781248,6.5771506 11.779069,8.3259338 11.400576,9.9131899 10.759519,11.099854 10.11663,12.289913 9.1674905,13.125 8.0312501,13.125 Z m 0,-12.24975586 C 7.3400774,0.87524414 6.6358462,1.41221 6.0811769,2.4389646 5.5265072,3.4657198 5.163818,4.9344608 5.163818,6.5624999 c 0,1.6280393 0.3626892,3.098612 0.9173589,4.1253661 0.5546693,1.026754 1.2589005,1.561892 1.9500732,1.561892 0.6911721,0 1.3954021,-0.535138 1.9500756,-1.561892 C 10.535994,9.6611119 10.89868,8.1905392 10.89868,6.5624999 10.89868,4.9344608 10.535994,3.4657198 9.9813257,2.4389646 9.4266522,1.41221 8.7224222,0.87524414 8.0312501,0.87524414 Z M 8.2509764,3.2812499 c 0.3118906,0 0.5974527,0.1412053 0.8148197,0.3387451 0.2173665,0.1975397 0.3842035,0.4531537 0.5218505,0.7489014 0.2752898,0.5914957 0.4284654,1.3537602 0.4284654,2.1936035 0,0.8398434 -0.1531756,1.6021079 -0.4284654,2.1936035 -0.137647,0.2957474 -0.304484,0.5513605 -0.5218505,0.7489005 -0.217367,0.197541 -0.5029291,0.338746 -0.8148197,0.338746 -0.3118904,0 -0.5956214,-0.141205 -0.8129878,-0.338746 C 7.2206216,9.3074639 7.0537838,9.0518508 6.9161379,8.7561034 6.6408453,8.1646078 6.4876709,7.4023433 6.4876709,6.5624999 c 0,-0.8398433 0.1531744,-1.6021079 0.428467,-2.1936035 C 7.0537838,4.0731487 7.2206216,3.8175347 7.4379886,3.619995 7.655355,3.4224552 7.939086,3.2812499 8.2509764,3.2812499 Z M 7.6881468,4.1564941 c -0.053591,0 -0.1167411,0.019601 -0.2160643,0.1098631 C 7.3727596,4.3566214 7.255345,4.5162379 7.1534792,4.7351073 6.9497477,5.1728465 6.8074097,5.8317837 6.8074097,6.5624999 c 0,0.7307162 0.142338,1.3914841 0.3460695,1.8292235 0.1018658,0.21887 0.2192805,0.3784864 0.3186033,0.4687502 0.099323,0.090264 0.1624731,0.108032 0.2160643,0.108032 0.053591,0 0.1185729,-0.017768 0.2178956,-0.108032 C 8.0053656,8.7702101 8.1227804,8.6105933 8.2246461,8.3917234 8.4283777,7.953984 8.5707157,7.2932161 8.5707157,6.5624999 8.5707157,5.8317837 8.4283777,5.1728465 8.2246461,4.7351073 8.1227804,4.5162378 8.0053656,4.356621 7.9060424,4.2663572 7.8067198,4.1760943 7.7417391,4.1564941 7.6881468,4.1564941 Z m 4.0235222,1.1260987 c 0.04545,0.4141041 0.06956,0.8418554 0.06956,1.2799071 -6.76e-4,-0.4298602 -0.02398,-0.8585552 -0.06956,-1.2799071 z"
     style="fill:#000000;fill-opacity:1;fill-rule:nonzero;stroke:none;stroke-width:5.62499857;stroke-linejoin:round;stroke-miterlimit:4;stroke-dasharray:none;stroke-opacity:1" />
</svg>
