<?xml version="1.0" encoding="UTF-8" standalone="no"?>
<svg
   xmlns:dc="http://purl.org/dc/elements/1.1/"
   xmlns:cc="http://creativecommons.org/ns#"
   xmlns:rdf="http://www.w3.org/1999/02/22-rdf-syntax-ns#"
   xmlns:svg="http://www.w3.org/2000/svg"
   xmlns="http://www.w3.org/2000/svg"
   id="svg2"
   viewBox="0 0 16 16"
   height="100%"
   width="100%"
   version="1.1">
  <metadata
     id="metadata8">
    <rdf:RDF>
      <cc:Work
         rdf:about="">
        <dc:format>image/svg+xml</dc:format>
        <dc:type
           rdf:resource="http://purl.org/dc/dcmitype/StillImage" />
        <dc:title></dc:title>
      </cc:Work>
    </rdf:RDF>
  </metadata>
  <defs
     id="defs6" />
  <rect
     style="fill:none;stroke:none;visibility:hidden"
     id="canvas"
     y="0"
     x="0"
     height="16"
     width="16" />
  <path
     id="path20"
     style="font-style:normal;font-variant:normal;font-weight:normal;font-stretch:normal;letter-spacing:normal;word-spacing:normal;text-anchor:start;fill:#000000;fill-opacity:1;fill-rule:nonzero;stroke:#000000;stroke-width:0;stroke-linecap:butt;stroke-linejoin:miter;stroke-miterlimit:10.43299961;stroke-dasharray:none;stroke-dashoffset:0;stroke-opacity:1"
     d="m 14.999986,13.596862 0,-0.432569 -1.334177,4.45e-4 0,-6.4772563 1.334177,0 -4.452933,-4.0172523 -4.4454771,4.0172523 1.4420882,0 0,6.4772563 -2.3227232,0 -1.3574845,-4.1902806 0,0 c 0.1653588,0.060187 0.4230113,0.1579817 0.5922165,0.2144044 0.3191825,0.1166053 0.6460567,0.2181651 0.9729288,0.3197251 0.3730195,0.1053204 0.7998773,0.2144034 1.1882804,0.2708262 0.1653598,0.030089 0.3999391,0.05642 0.5652987,0.071464 C 6.9360645,9.6891248 6.5861181,9.4521518 6.343847,9.2791246 6.0208192,9.0496747 5.705482,8.8089402 5.4055285,8.5531601 5.0978832,8.2973801 4.801775,8.0227922 4.5210482,7.7369205 4.3787616,7.5864618 4.1826378,7.375819 4.0403512,7.2215989 c 0.076918,0.022571 0.219198,0.067705 0.2961093,0.090275 0.1845877,0.052661 0.3807113,0.109083 0.5691443,0.154221 0.2384247,0.063946 0.5076144,0.1203669 0.7460402,0.1504587 0.1307495,0.018812 0.3191814,0.030089 0.4499309,0.037616 C 6.0169805,7.5939833 5.9016058,7.5187567 5.8208502,7.4548118 5.6554904,7.3382056 5.4670573,7.1802238 5.3093893,7.0560953 4.9748244,6.7739852 4.6056502,6.4504986 4.2980049,6.1420574 4.0249698,5.8599473 3.7596255,5.5627909 3.5173543,5.2543506 3.2597019,4.9271024 3.0174306,4.584808 2.790542,4.2425144 2.5713441,3.907743 2.3675296,3.5654494 2.171406,3.223155 2.156029,3.193066 1.9252895,2.7905853 1.909907,2.7604936 1.8714535,2.6815029 1.752239,2.4821451 1.7099368,2.4031537 c 0.00377,0.1316516 0.015377,0.3084412 0.023077,0.4400927 0.011538,0.075232 0.030765,0.4137619 0.042303,0.4889916 0.026916,0.3422935 0.049991,0.7297252 0.06538,1.0720197 0.015377,0.5303679 0,1.0795419 -0.019226,1.6099097 -0.026916,0.5980745 -0.084597,1.2300014 -0.1730517,1.8243143 -0.076918,0.5077985 -0.188433,1.0118363 -0.3230278,1.5083509 -0.06153,0.2181651 -0.1384402,0.4626612 -0.2268887,0.6733034 -0.026915,0.06395 -0.069218,0.165503 -0.096145,0.23321 0.096145,-0.0677 0.2384247,-0.154219 0.3384103,-0.221926 C 1.5868847,9.8621541 1.8253094,9.6740806 2.0483528,9.4784842 2.2290939,9.3205016 2.4059898,9.1549975 2.5751949,8.9857311 2.6713396,8.8916943 2.7943929,8.7675651 2.8866867,8.6735284 2.8251568,8.8164647 2.732863,9.0271076 2.6674888,9.170043 2.5213579,9.4747226 2.3290784,9.7756406 2.1329547,10.053988 1.9291404,10.347383 1.6830239,10.652062 1.4561341,10.92665 c -0.1230577,0.146697 -0.3307185,0.387432 -0.4537762,0.530368 0.042303,-0.01129 0.1076719,-0.02633 0.1538226,-0.04138 0.1230589,-0.03761 0.2422713,-0.07899 0.3576382,-0.12789 0.346101,-0.146698 0.6768196,-0.334771 0.965237,-0.556699 0.2499619,-0.176788 0.4806959,-0.379908 0.6960486,-0.59055 0.099983,-0.105321 0.2115061,-0.2144034 0.3076453,-0.327248 0.038454,-0.041375 0.084595,-0.094037 0.1230576,-0.1354123 l 0,0 0.8998629,3.4868843 -3.5018938,-0.0037 -0.00377,0.425045 c 2.888814,0.0026 9.8913977,0.0077 13.9999817,0.01079 z" />
</svg>
