<?xml version="1.0" encoding="UTF-8"?>
<svg xmlns="http://www.w3.org/2000/svg" xmlns:xlink="http://www.w3.org/1999/xlink" width="14pt" height="14pt" viewBox="0 0 14 14" version="1.1">
<g id="surface1">
<path style=" stroke:none;fill-rule:nonzero;fill:rgb(0%,0%,0%);fill-opacity:1;" d="M 6.363281 0.636719 L 4.453125 0.636719 C 3.816406 0.636719 3.816406 0 4.453125 0 L 9.546875 0 C 10.183594 0 10.183594 0.636719 9.546875 0.636719 L 7.636719 0.636719 C 7.636719 0.636719 8.398438 1.1875 8.398438 2.460938 L 8.398438 3.734375 L 14 3.734375 L 14 5.601562 L 8.398438 7.464844 L 7.933594 12.132812 L 10.265625 13.363281 L 10.265625 14 L 3.734375 14 L 3.734375 13.363281 L 6.066406 12.132812 L 5.601562 7.464844 L 0 5.601562 L 0 3.734375 L 5.601562 3.734375 L 5.601562 2.460938 C 5.601562 1.1875 6.363281 0.636719 6.363281 0.636719 Z M 6.363281 0.636719 "/>
</g>
</svg>
