<?xml version="1.0" encoding="UTF-8" standalone="no"?>
<svg
   xmlns:dc="http://purl.org/dc/elements/1.1/"
   xmlns:cc="http://creativecommons.org/ns#"
   xmlns:rdf="http://www.w3.org/1999/02/22-rdf-syntax-ns#"
   xmlns:svg="http://www.w3.org/2000/svg"
   xmlns="http://www.w3.org/2000/svg"
   viewBox="0 0 14 14"
   height="14"
   width="14"
   id="svg109"
   version="1.1">
  <metadata
     id="metadata115">
    <rdf:RDF>
      <cc:Work
         rdf:about="">
        <dc:format>image/svg+xml</dc:format>
        <dc:type
           rdf:resource="http://purl.org/dc/dcmitype/StillImage" />
        <dc:title></dc:title>
      </cc:Work>
    </rdf:RDF>
  </metadata>
  <defs
     id="defs113" />
  <path
     id="path26"
     d="M 7 0 A 2 2 0 0 0 5 2 A 2 2 0 0 0 7 4 A 2 2 0 0 0 9 2 A 2 2 0 0 0 7 0 z M 6.9570312 4.6816406 C 5.2902834 4.6850809 3.6375829 5.2168626 2 6.2675781 C 3.353007 7.1708985 4.4623594 8.2534157 4.4355469 9.7753906 L 9.5410156 9.7753906 C 9.4718986 8.2352704 10.815039 7.1150008 12 6.2675781 C 10.304574 5.2031015 8.6237792 4.6782004 6.9570312 4.6816406 z M 5 11 L 5 12 L 9 12 L 9 11 L 5 11 z M 3 13 L 3 14 L 11 14 L 11 13 L 3 13 z "
     style="opacity:1;fill:#000000;fill-opacity:1;fill-rule:evenodd;stroke:none;stroke-width:1.15488744;stroke-linecap:square;stroke-linejoin:miter;stroke-miterlimit:4;stroke-dasharray:none;stroke-opacity:1;paint-order:markers stroke fill" />
</svg>
