<?xml version="1.0" encoding="UTF-8" standalone="no"?>
<svg
   xmlns:dc="http://purl.org/dc/elements/1.1/"
   xmlns:cc="http://creativecommons.org/ns#"
   xmlns:rdf="http://www.w3.org/1999/02/22-rdf-syntax-ns#"
   xmlns:svg="http://www.w3.org/2000/svg"
   xmlns="http://www.w3.org/2000/svg"
   version="1.1"
   width="100%"
   height="100%"
   viewBox="0 0 14 14"
   id="svg2">
  <metadata
     id="metadata8">
    <rdf:RDF>
      <cc:Work
         rdf:about="">
        <dc:format>image/svg+xml</dc:format>
        <dc:type
           rdf:resource="http://purl.org/dc/dcmitype/StillImage" />
        <dc:title></dc:title>
      </cc:Work>
    </rdf:RDF>
  </metadata>
  <defs
     id="defs6" />
  <rect
     width="14"
     height="14"
     x="0"
     y="0"
     id="canvas"
     style="fill:none;stroke:none;visibility:hidden" />
  <path
     id="fort"
     d="M 1 1 L 1 3 L 6 3 L 6 1 L 5 1 L 5 2 L 4 2 L 4 1 L 3 1 L 3 2 L 2 2 L 2 1 L 1 1 z M 8 1 L 8 3 L 13 3 L 13 1 L 12 1 L 12 2 L 11 2 L 11 1 L 10 1 L 10 2 L 9 2 L 9 1 L 8 1 z M 1 4 L 1 10 L 13 10 L 13 4 L 8 4 L 8 6 L 6 6 L 6 4 L 1 4 z M 3 6 L 4 6 L 4 7 L 3.5 8 L 3 7 L 3 6 z M 10 6 L 11 6 L 11 7 L 10.5 8 L 10 7 L 10 6 z M 1 11 L 0 14 L 14 14 L 13 11 L 1 11 z "
     style="fill:#000000;fill-opacity:1;stroke:none" />
</svg>
