<?xml version="1.0" encoding="UTF-8" standalone="no"?>
<svg
   xmlns:dc="http://purl.org/dc/elements/1.1/"
   xmlns:cc="http://creativecommons.org/ns#"
   xmlns:rdf="http://www.w3.org/1999/02/22-rdf-syntax-ns#"
   xmlns:svg="http://www.w3.org/2000/svg"
   xmlns="http://www.w3.org/2000/svg"
   id="svg2"
   viewBox="0 0 14 14"
   height="100%"
   width="100%"
   version="1.1">
  <metadata
     id="metadata8">
    <rdf:RDF>
      <cc:Work
         rdf:about="">
        <dc:format>image/svg+xml</dc:format>
        <dc:type
           rdf:resource="http://purl.org/dc/dcmitype/StillImage" />
        <dc:title></dc:title>
      </cc:Work>
    </rdf:RDF>
  </metadata>
  <defs
     id="defs6" />
  <rect
     style="fill:none;stroke:none;visibility:hidden"
     id="canvas"
     y="0"
     x="0"
     height="14"
     width="14" />
  <path
     d="M 6,13 H 8 C 8,12 8,10 7,10 6,10 6,12 6,13 Z M 0,1 V 3 H 5 V 1 H 4 V 2 H 3 V 1 H 2 V 2 H 1 V 1 Z m 9,0 v 2 h 5 V 1 H 13 V 2 H 12 V 1 H 11 V 2 H 10 V 1 Z M 0,4 v 9 h 5 c 0,-1 0,-4 2,-4 2,0 2,3 2,4 h 5 V 4 H 9 V 6 H 7 5 V 4 Z M 2,6 H 3 V 7 L 2.5,8 2,7 Z m 9,0 h 1 V 7 L 11.5,8 11,7 Z"
     style="opacity:1;fill:#000000;fill-opacity:1;fill-rule:nonzero;stroke:none;stroke-opacity:1"
     id="fortress" />
</svg>
