<?xml version="1.0" encoding="UTF-8" standalone="no"?>
<svg
   xmlns:dc="http://purl.org/dc/elements/1.1/"
   xmlns:cc="http://creativecommons.org/ns#"
   xmlns:rdf="http://www.w3.org/1999/02/22-rdf-syntax-ns#"
   xmlns:svg="http://www.w3.org/2000/svg"
   xmlns="http://www.w3.org/2000/svg"
   viewBox="0 0 14 14"
   height="14"
   width="14"
   id="svg109"
   version="1.1">
  <metadata
     id="metadata115">
    <rdf:RDF>
      <cc:Work
         rdf:about="">
        <dc:format>image/svg+xml</dc:format>
        <dc:type
           rdf:resource="http://purl.org/dc/dcmitype/StillImage" />
        <dc:title></dc:title>
      </cc:Work>
    </rdf:RDF>
  </metadata>
  <defs
     id="defs113" />
  <path
     id="path5687"
     d="M 3.0078125 0 C 2.1796632 -9.9999989e-008 1.5082053 0.65222328 1.5078125 1.4570312 C 1.507095 2.262602 2.1788781 2.9160159 3.0078125 2.9160156 C 3.8367469 2.9160159 4.50853 2.262602 4.5078125 1.4570312 C 4.5074197 0.65222328 3.8359618 -9.9999989e-008 3.0078125 0 z M 3 3.9589844 C 1 3.9589844 1 4.9589844 1 5.9589844 L 1 8 L 5 8 L 5 5.9589844 C 5 4.9589844 5 3.9589844 3 3.9589844 z M 0.77734375 9 C -0.25969331 9 -0.25969331 10.5 0.77734375 10.5 L 13.222656 10.5 C 14.259693 10.5 14.259693 9 13.222656 9 L 0.77734375 9 z M 1.8144531 11 L 1.8144531 14 L 3.3710938 14 L 3.3710938 11 L 1.8144531 11 z M 10.628906 11 L 10.628906 14 L 12.185547 14 L 12.185547 11 L 10.628906 11 z "
     style="fill:#000000;fill-opacity:1;fill-rule:evenodd;stroke:none;stroke-opacity:1" />
</svg>
