<?xml version="1.0" encoding="UTF-8" standalone="no"?>
<!-- Created with Inkscape (http://www.inkscape.org/) -->

<svg
   xmlns:dc="http://purl.org/dc/elements/1.1/"
   xmlns:cc="http://creativecommons.org/ns#"
   xmlns:rdf="http://www.w3.org/1999/02/22-rdf-syntax-ns#"
   xmlns:svg="http://www.w3.org/2000/svg"
   xmlns="http://www.w3.org/2000/svg"
   version="1.1"
   width="100%"
   height="100%"
   viewBox="0 0 14 14"
   id="svg2">
  <metadata
     id="metadata8">
    <rdf:RDF>
      <cc:Work
         rdf:about="">
        <dc:format>image/svg+xml</dc:format>
        <dc:type
           rdf:resource="http://purl.org/dc/dcmitype/StillImage" />
        <dc:title></dc:title>
      </cc:Work>
    </rdf:RDF>
  </metadata>
  <defs
     id="defs6" />
  <rect
     width="14"
     height="14"
     x="0"
     y="0"
     id="canvas"
     style="fill:none;stroke:none;visibility:hidden" />
  <path
     d="M 2.5,2 C 1.6887616,2 1,2.6887616 1,3.5 l 0,7 C 1,11.269291 1.667788,12 2.5,12 l 9,0 c 0.748318,0 1.5,-0.709735 1.5,-1.5 l 0,-7 C 13,2.7307086 12.269291,2 11.5,2 z m 0,1 C 2.7761424,3 3,3.2238576 3,3.5 3,3.7761424 2.7761424,4 2.5,4 2.2238576,4 2,3.7761424 2,3.5 2,3.2238576 2.2238576,3 2.5,3 z m 9,0 C 11.776142,3 12,3.2238576 12,3.5 12,3.7761424 11.776142,4 11.5,4 11.223858,4 11,3.7761424 11,3.5 11,3.2238576 11.223858,3 11.5,3 z M 5,4 6,4 6,5 5,5 z M 7,4 9,4 9,5 7,5 z M 3,6 11,6 11,7 3,7 z M 5,8 9,8 9,9 5,9 z M 2.5,10 C 2.7761424,10 3,10.223858 3,10.5 3,10.776142 2.7761424,11 2.5,11 2.2238576,11 2,10.776142 2,10.5 2,10.223858 2.2238576,10 2.5,10 z m 9,0 C 11.776142,10 12,10.223858 12,10.5 12,10.776142 11.776142,11 11.5,11 11.223858,11 11,10.776142 11,10.5 11,10.223858 11.223858,10 11.5,10 z"
     id="plaque"
     style="fill:#000000;fill-opacity:1;stroke:none" />
</svg>
