<?xml version="1.0" encoding="UTF-8" standalone="no"?>
<svg
   xmlns:dc="http://purl.org/dc/elements/1.1/"
   xmlns:cc="http://creativecommons.org/ns#"
   xmlns:rdf="http://www.w3.org/1999/02/22-rdf-syntax-ns#"
   xmlns:svg="http://www.w3.org/2000/svg"
   xmlns="http://www.w3.org/2000/svg"
   id="svg2"
   height="8"
   width="8"
   version="1.1">
  <metadata
     id="metadata11">
    <rdf:RDF>
      <cc:Work
         rdf:about="">
        <dc:format>image/svg+xml</dc:format>
        <dc:type
           rdf:resource="http://purl.org/dc/dcmitype/StillImage" />
        <dc:title></dc:title>
      </cc:Work>
    </rdf:RDF>
  </metadata>
  <defs
     id="defs9" />
  <rect
     style="fill:none;stroke:none;visibility:hidden"
     id="canvas"
     y="0"
     x="0"
     height="8"
     width="8" />
  <path
     id="path4339-5"
     d="m 5.9999996,4.2542373e-7 c -1.125,0 -2.583217,0.43275500457627 -2.5,1.74999997457627 -0.25,0 -0.874405,0.35967 -0.875,0.875 0,0.62132 0.25368,1.3749996 0.875,1.3749996 0.5625,0 0.996808,-0.8267616 1,-1.4999996 1.25007,0.0473 3.432764,-0.235931 3.5,-1.5 0,-0.82842697 -0.550252,-0.99999997457627 -2,-0.99999997457627 z M 2.4999996,4.5 0,8 l 3.4999996,0 4.5,0 -3.5,-3.5 c -0.75,1.25 -1.25,1.25 -2,0 z"
     style="opacity:1;fill:#000000;fill-opacity:1;stroke:none;" />
</svg>
